<?xml version="1.0" encoding="UTF-8"?>
<svg id="Capa_2" data-name="Capa 2" xmlns="http://www.w3.org/2000/svg" viewBox="0 0 100 100">
  <defs>
    <style>
      .cls-1 {
        fill: #5a992f;
      }

      .cls-2 {
        fill: #fff;
      }

      .cls-3 {
        fill: #d2d764;
      }

      .cls-4 {
        fill: none;
      }

      .cls-5 {
        fill: #4a2d2d;
      }

      .cls-6 {
        fill: #7e6a6a;
      }
    </style>
  </defs>
  <g id="COLOR">
    <g>
      <g>
        <path class="cls-3" d="M28.29,22.75s.28,3.43,0,3.71-5.47,4.55-6.21,10.76c-.74,6.21-.65,29.41,0,37.01.65,7.61-.46,12.24,6.21,16.79,6.68,4.55,18,4.36,27.83,3.9,9.83-.46,16.33-3.15,19.11-7.79s2.32-39.42,2.32-43.78,0-8.26-3.25-12.52c-2.3-3.03-3.25-4.08-3.25-4.08l-.19-3.71-42.58-.28Z"/>
        <g>
          <g>
            <path class="cls-1" d="M57.38,57.06c-1.94-4.91-8.06-2.8-10.34,1.59-2.27,4.4-2.96,9.51-6.93,13.1-3.97,3.59-11.65,9.33-9.39,14.37s8.07,6.04,14.15.55c6.08-5.5,16.32-19.94,12.5-29.6Z"/>
            <path class="cls-5" d="M52.77,55.89c-3.66,2.63-5.07,7.32-6.78,11.29-.9,2.09-1.9,4.17-3.3,5.97-1.68,2.15-3.92,3.69-5.91,5.52s-4.03,4.12-4.33,6.89c-.04.37.52.41.63.08.81-2.49,2.27-4.48,4.17-6.25s4-3.37,5.66-5.38c2.84-3.43,4.07-7.79,5.94-11.76,1.05-2.24,2.38-4.37,4.03-6.22.07-.07-.02-.21-.11-.15h0Z"/>
            <path class="cls-5" d="M37.33,88.1c2.13-.85,3.86-2.4,5.48-3.98,1.73-1.68,3.35-3.47,4.83-5.38,2.97-3.83,5.33-8.17,6.6-12.86.36-1.34.63-2.7.79-4.08.08-.67.13-1.34.15-2.01.03-.71.09-1.42-.19-2.08-.09-.22-.4-.25-.48,0-.19.53-.17,1.04-.19,1.6-.02.64-.06,1.28-.12,1.92-.12,1.2-.31,2.4-.57,3.58-.52,2.35-1.32,4.64-2.36,6.81-2,4.21-4.84,7.97-8.06,11.32-1.77,1.84-3.63,3.82-5.99,4.88-.15.07-.04.34.12.27h0Z"/>
          </g>
          <g>
            <path class="cls-1" d="M68.73,47.36c-4.12-3.3-8.39,1.57-8.18,6.51s2.15,9.72.49,14.81c-1.66,5.09-5.48,13.88-1.01,17.13,4.46,3.25,10,1.24,12.55-6.55,2.55-7.79,4.26-25.41-3.85-31.91Z"/>
            <path class="cls-5" d="M64.92,46.98c-.77.74-1.4,1.57-1.81,2.56s-.62,2.04-.74,3.09c-.27,2.39.07,4.8.44,7.17.41,2.63.82,5.24.54,7.91s-1.14,5.29-1.9,7.89c-.77,2.64-1.57,5.83-.47,8.49.2.48.91.31.8-.22-.26-1.23-.4-2.44-.28-3.7s.44-2.58.78-3.83c.68-2.46,1.49-4.87,1.86-7.41.37-2.55.2-5.04-.21-7.57-.38-2.4-.9-4.8-.81-7.24s.73-4.88,2.22-6.73c.23-.29-.14-.68-.42-.42h0Z"/>
            <path class="cls-5" d="M66.67,47.74c.88,2.32,1.55,4.71,1.99,7.15.23,1.25.44,2.5.58,3.76s.29,2.48.28,3.71c-.05,4.93-.69,9.9-1.91,14.67-.34,1.33-.73,2.65-1.17,3.96-.22.65-.44,1.3-.66,1.95-.24.69-.5,1.32-.53,2.06-.01.26.35.41.52.22.82-.9,1.22-2.25,1.61-3.38s.78-2.38,1.11-3.58c.68-2.46,1.19-4.97,1.5-7.5.3-2.48.4-4.96.26-7.45s-.29-5-.73-7.49c-.5-2.8-1.35-5.56-2.42-8.19-.1-.26-.52-.15-.42.12h0Z"/>
          </g>
          <g>
            <path class="cls-1" d="M59.4,44.5c.33-3.81-2.64-8-7.65-7.73-5.01.26-16.16,6.99-20.31,11.87s-6.35,10.83-2.34,13.94,9.94-1.76,12.26-4.58c2.31-2.82,5.54-4.48,7.37-5.35s10.35-4.34,10.68-8.16Z"/>
            <path class="cls-5" d="M56.37,39.08c-1.16.21-2.28.34-3.42.67s-2.23.69-3.32,1.1c-2.15.81-4.24,1.8-6.23,2.95-4.06,2.36-7.8,5.45-10.68,9.16-.84,1.08-1.64,2.2-2.39,3.34s-1.66,2.41-2.04,3.74c-.09.3.31.43.48.2.73-1,1.22-2.22,1.85-3.29s1.31-2.08,2.08-3.04c1.47-1.84,3.08-3.57,4.85-5.13,3.43-3.02,7.43-5.41,11.68-7.08,1.18-.46,2.38-.87,3.6-1.23.58-.17,1.16-.34,1.75-.5.63-.18,1.23-.42,1.87-.57.22-.05.13-.38-.09-.34h0Z"/>
            <path class="cls-5" d="M32.71,62.63c1.13-1.98,2.16-3.93,3.65-5.68,1.37-1.62,2.95-3.07,4.68-4.3,1.62-1.16,3.38-2.14,5.24-2.87,2.29-.9,4.7-1.46,6.93-2.5,1.08-.5,2.1-1.12,3-1.9.84-.71,1.73-1.64,2.02-2.72.07-.26-.3-.52-.49-.29-.69.85-1.25,1.73-2.08,2.46s-1.73,1.25-2.69,1.71c-2.28,1.1-4.78,1.66-7.12,2.61-3.77,1.52-7.12,3.98-9.72,7.1-1.53,1.83-3.02,3.95-3.84,6.2-.09.25.3.4.42.18h0Z"/>
          </g>
        </g>
        <path class="cls-6" d="M51.94,7.49s-4.73-.14-13.17.51c-7.69.59-11.04,2.32-11.41,3.43s0,11.5.09,12.24,10.3,4.55,24.77,3.8c14.47-.74,18.83-3.06,19.29-3.52s1.03-11.28.37-12.34c-1.86-2.97-8.26-3.76-19.94-4.13Z"/>
        <path class="cls-2" d="M26.25,35.4c3.22,1.98,6.81,3.34,10.53,4.03,3.45.65,7.52,1.21,10.92.08,1.29-.43.98-2.15-.31-2.28-3.42-.36-6.8.06-10.23-.56s-6.68-1.7-9.85-3.08c-1.2-.52-2.23,1.08-1.06,1.81h0Z"/>
        <path class="cls-2" d="M59.09,38.99c2.66.3,6.24.23,8.53-1.36.97-.67.36-2.05-.78-1.86-1.25.21-2.43.73-3.69.95-1.34.23-2.7.23-4.05.12s-1.35,2,0,2.15h0Z"/>
        <path class="cls-2" d="M71.46,36.41l.41-.33.16-.21.1-.25c.06-.22.04-.46-.05-.67-.16-.38-.53-.63-.94-.63h-.56c-.43-.02-.85.23-1.06.6-.2.34-.21.74-.06,1.1s.43.61.8.71c.22.06.44.06.66,0,.21-.06.39-.16.54-.32h0Z"/>
        <path class="cls-5" d="M71.66,87.62l1.16-.52c.19-.08.38-.17.57-.26.22-.1.41-.24.59-.39.15-.12.17-.39.07-.54-.11-.17-.31-.25-.51-.21-.44.11-.84.33-1.23.54l-1.11.61c-.21.11-.29.41-.16.61.14.22.38.26.61.16h0Z"/>
        <path class="cls-5" d="M72.81,84.62l.49-.29c.08-.05.15-.11.23-.16.06-.05.13-.09.19-.15.04-.03.07-.07.11-.1.13-.13.17-.37.07-.53s-.3-.25-.49-.2c-.21.06-.43.14-.62.24l-.5.28c-.11.06-.21.19-.24.31s-.02.29.05.4.18.21.31.24.28.02.4-.05h0Z"/>
        <path class="cls-5" d="M25.09,41.77c.19.02.37.04.56.06.05,0,.1,0,.14-.03.05-.02.09-.04.12-.08l.06-.08s.04-.09.04-.14c0-.03,0-.07,0-.1,0-.05-.02-.1-.04-.14l-.06-.08s-.1-.08-.17-.1c-.18-.07-.36-.14-.54-.22-.08-.02-.16-.02-.24,0l-.11.05c-.07.04-.12.09-.16.16-.03.05-.05.11-.05.17-.01.06-.01.12,0,.18.01.06.04.11.08.15.03.05.07.09.13.12.07.04.15.06.23.06h0Z"/>
        <path class="cls-5" d="M24.81,45.81c.61,0,.62-.96,0-.96s-.62.96,0,.96h0Z"/>
        <path class="cls-5" d="M27.02,12.17c1.67,1.82,4.21,2.74,6.55,3.33,3.18.8,6.45,1.29,9.71,1.59,6.47.61,13.01.19,19.38-1.01,1.76-.33,3.54-.69,5.25-1.22.8-.25,1.58-.54,2.35-.87s1.49-.68,2.06-1.29c.52-.56.01-1.53-.76-1.31-.69.2-1.29.54-1.94.84-.61.28-1.24.51-1.88.72-1.43.47-2.91.8-4.39,1.1-3.11.64-6.25,1.1-9.41,1.34-6.22.47-12.47.06-18.62-.96-1.42-.24-2.82-.51-4.18-.98-1.26-.43-2.58-.95-3.54-1.9-.39-.38-.97.2-.6.6h0Z"/>
        <path class="cls-5" d="M27.02,23.81c1.67,1.82,4.21,2.74,6.55,3.33,3.18.8,6.45,1.29,9.71,1.59,6.47.61,13.01.19,19.38-1.01,1.76-.33,3.54-.69,5.25-1.22.8-.25,1.58-.54,2.35-.87s1.49-.68,2.06-1.29c.52-.56.01-1.53-.76-1.31-.69.2-1.29.54-1.94.84-.61.28-1.24.51-1.88.72-1.43.47-2.91.8-4.39,1.1-3.11.64-6.25,1.1-9.41,1.34-6.22.47-12.47.06-18.62-.96-1.42-.24-2.82-.51-4.18-.98-1.26-.43-2.58-.95-3.54-1.9-.39-.38-.97.2-.6.6h0Z"/>
        <path class="cls-5" d="M29.33,13.82c.06,3.5.25,7.01.38,10.5,0,.23.36.23.36,0,.04-3.49-.01-7.02-.33-10.5-.02-.26-.41-.27-.41,0h0Z"/>
        <path class="cls-5" d="M33.76,15.14c.02,1.79.06,3.57.1,5.36l.06,2.68c.02.81-.08,1.73.13,2.52.04.16.3.17.33,0,.17-.8.03-1.71,0-2.52l-.07-2.68c-.04-1.79-.09-3.57-.16-5.36,0-.26-.41-.26-.4,0h0Z"/>
        <path class="cls-5" d="M40.02,16.12c-.02,1.79,0,3.57,0,5.35,0,.89,0,1.79-.02,2.68,0,.41-.01.82-.02,1.24s-.08.89.08,1.29c.06.15.29.23.38.05.32-.68.18-1.63.19-2.37.02-.93.03-1.85.03-2.78,0-1.82-.01-3.64-.14-5.46-.02-.32-.5-.33-.5,0h0Z"/>
        <path class="cls-5" d="M48.01,16.6c0,1.77,0,3.55.02,5.32l.02,2.66c0,.82-.06,1.72.16,2.51.05.19.35.2.4,0,.2-.8.12-1.69.12-2.51l-.02-2.66c-.02-1.77-.04-3.55-.08-5.32,0-.39-.61-.39-.61,0h0Z"/>
        <path class="cls-5" d="M53.85,16.53c.06,1.84.07,3.69.07,5.53,0,.89-.01,1.77-.02,2.66,0,.79-.1,1.76.16,2.51.07.19.35.21.41,0,.23-.77.12-1.71.12-2.51,0-.89,0-1.77.01-2.66,0-1.85-.03-3.69-.24-5.53-.04-.32-.52-.33-.51,0h0Z"/>
        <path class="cls-5" d="M60.43,16.25c0,1.7-.03,3.4-.02,5.11,0,.85.02,1.7.03,2.55,0,.81-.03,1.63.12,2.43.05.26.49.27.53,0,.13-.8.07-1.62.06-2.43-.01-.85-.02-1.7-.03-2.55-.02-1.7-.09-3.4-.14-5.11-.01-.36-.55-.36-.56,0h0Z"/>
        <path class="cls-5" d="M66.61,14.59c-.06,1.85-.12,3.71-.18,5.56-.03.89-.06,1.79-.1,2.68s-.18,1.86,0,2.74c.05.25.4.21.47,0,.27-.86.21-1.85.24-2.74s.06-1.79.09-2.68c.05-1.86.06-3.71.03-5.56,0-.35-.53-.35-.54,0h0Z"/>
        <path class="cls-5" d="M70.52,13.39c-.12,1.73-.2,3.46-.28,5.19-.04.85-.07,1.7-.11,2.54-.03.87-.14,1.78-.05,2.65.03.25.43.36.47.06.13-.82.08-1.68.11-2.51.02-.88.05-1.76.07-2.65.04-1.76.1-3.53.13-5.29,0-.22-.32-.21-.34,0h0Z"/>
      </g>
      <rect class="cls-4" width="100" height="100"/>
    </g>
  </g>
</svg>