<?xml version="1.0" encoding="UTF-8"?>
<svg id="Capa_2" data-name="Capa 2" xmlns="http://www.w3.org/2000/svg" viewBox="0 0 100 100">
  <defs>
    <style>
      .cls-1 {
        fill: #fff;
      }

      .cls-2 {
        fill: none;
      }

      .cls-3 {
        fill: #4a2d2d;
      }

      .cls-4 {
        fill: #e18286;
      }
    </style>
  </defs>
  <g id="COLOR">
    <g>
      <g>
        <g>
          <g>
            <path class="cls-4" d="M81.99,24.56c0,1.65-8.77.22-12.21,6.52-3.45,6.3-1.57,12.14-6.07,16.04-4.5,3.9-10.72.53-15.59,3.3-5.53,3.14-5.77,6.44-11.47,8.84-5.7,2.4-17.39,2.33-17.39,2.33,0,0-1.66-2.18-3.33-4.8-.07-.1-.14-.21-.21-.32-.08-.13-.17-.27-.25-.4h0c-.45-.73-.89-1.48-1.29-2.21-.12-.22-.23-.44-.35-.66-.05-.09-.09-.18-.13-.26-.72-1.43-1.22-2.76-1.26-3.72-.15-3.6,6.3-8.47,12.29-7.57,6,.9,8.24.3,10.2-1.65,1.95-1.95,3-7.87,8.55-9.52,5.55-1.65,7.94,1.03,11.62-2.1,2.47-2.1.98-10.34,7.87-14.69,6.89-4.35,10.49-4.8,11.99-3.82.97.63,1.96,1.96,2.87,3.58.03.06.07.12.1.18.15.26.29.53.44.8.87,1.67,1.65,3.54,2.26,5.22.08.21.15.41.22.62.05.14.09.27.14.41.63,1.86,1.01,3.36,1.01,3.89Z"/>
            <path class="cls-1" d="M80.84,20.26c-.26.01-.52.02-.8.03-4,.1-8.59,2-13.49,7.09-4.9,5.1-2.2,13.2-8.4,15.59-6.19,2.4-9.21-.05-14.5.85-5.3.9-6.68,5.56-10.08,8.36-3.4,2.8-6,2.18-10.29,1.79-2.69-.25-5.7,1.3-7.56,2.5-.67-1.07-1.33-2.19-1.88-3.26,1.46-1.47,4.34-3.6,8.85-3.73,6.9-.2,7.6-1.1,12.2-2.8,4.6-1.7,7.29-8.1,11.59-9.69,4.3-1.6,7.6.3,11.19-1.8,3.6-2.1,4.8-9.09,8.3-14.39,2.64-3.99,8.91-6.28,11.97-7.17,1.15,2.06,2.18,4.54,2.92,6.64Z"/>
          </g>
          <path class="cls-3" d="M80.98,20.67c-7.07,1.43-15.3,5.51-17.08,12.84-.67,2.74-1.07,5.78-3.14,7.89-1.81,1.86-4.43,2.51-6.95,2.69-3.56.25-7.26-.73-10.77.25-3.55.99-5.37,4.06-7.73,6.61-1.79,1.92-3.79,3.26-6.44,3.55-3.8.41-8.59-.76-12.94,2.29-.07-.1-.14-.21-.21-.32-.08-.13-.17-.27-.25-.4h0c2.56-1.88,5.9-2.8,10.16-2.62,2.41.1,4.8.07,6.86-1.35,1.28-.88,2.29-2.1,3.28-3.28,1.8-2.15,3.6-4.29,6.33-5.25,3.14-1.1,6.53-.55,9.76-.48,4.11.09,8.14-.76,9.82-4.93,1.18-2.95,1.46-5.98,3-8.81,2.79-5.1,10.29-8.71,15.94-9.71.08.21.15.41.22.62.05.14.09.27.14.41Z"/>
          <path class="cls-3" d="M78.36,14.42c-3.27.67-7.41,2.86-9.89,5.09-2.64,2.37-3.95,5.29-5.33,8.49-2.26,5.2-4.97,9.25-11.19,8.96-2.1-.1-4.12-.31-6,.83-1.74,1.06-3.13,2.89-4.56,4.3-2.29,2.26-4.74,4.1-7.51,5.78-2.64,1.61-5.71,2.18-8.77,2.33-3.62.17-8.12.99-10.92,3.66-.12-.22-.23-.44-.35-.66-.05-.09-.09-.18-.13-.26,5.84-6.02,13.74-2.58,19.42-5.86,3.3-1.91,6.11-4.22,8.85-6.85,2.12-2.03,3.91-3.69,6.96-3.99,3.93-.39,7.59.32,10.42-3.07,2.41-2.88,3.35-7.37,5.14-10.6,2.59-4.67,8.04-8.28,13.33-9.13.03.06.07.12.1.18.15.26.29.53.44.8Z"/>
        </g>
        <g>
          <path class="cls-4" d="M92.33,61.76c-.55.44-6.19-1.8-11.19,3.4-5,5.2-3.79,12.19-10.39,15.19-5.5,2.5-9.99-3-14.99-2.4-5,.6-8.19,8.1-15.79,8.69-5.08.4-10.05-5.06-14.69-4.1-4.79,1-7.39,5.9-8.99,5.6-.51-.09-1.56-2.09-2.75-4.84-.09-.2-.18-.4-.26-.61-.05-.13-.11-.26-.16-.4-.86-2.07-1.76-4.44-2.55-6.72-.08-.23-.16-.46-.24-.68-.05-.16-.11-.31-.16-.47-1.25-3.64-2.14-6.83-2.07-7.76.2-2.5,7.79-12.3,17.39-9.8,9.59,2.5,11.09,4.8,15.69,3.5,4.6-1.3,5.79-6.3,11.49-5.6,5.7.7,6.95,3.05,14.34,1.05,7.4-2,5.05-10.55,12.14-13.74,7.1-3.2,8-2.3,8-2.3,0,0,1.24,2.23,2.5,5.17.03.06.05.12.08.18.1.24.21.49.31.73.77,1.86,1.5,3.93,1.93,5.86.03.12.05.23.08.34.03.15.06.29.08.43,0,.03.01.06.02.09,1,5.6,1.2,8.4.2,9.2Z"/>
          <path class="cls-1" d="M92.04,52.05c-2.61.25-7.25,1.23-10.6,4.92-4.9,5.4-7.56,11.98-13.05,13.58-5.5,1.6-9.23-3.79-15.03-2.39-5.8,1.4-5.72,6.12-12.82,7.22-7.1,1.1-13.37-2.62-18.46-1.92-4.34.59-7.38,5.99-8.81,9.24-.99-2.36-2.06-5.18-2.95-7.8,2.33-3.25,6.46-7.87,11.16-8.13,7.29-.4,10.69,4.9,16.79,2.9,6.1-2,7.7-9.09,15.19-8.79,7.5.3,10.89,5.5,16.39,2.2,5.5-3.3,6.8-11.9,12.3-15.19,3.24-1.94,5.92-2.57,7.58-2.75.92,2.15,1.84,4.65,2.32,6.93Z"/>
          <path class="cls-3" d="M90.03,45.85c-3.09.76-7.18,2.01-9.39,4.3-2.59,2.7-3.58,6.02-5.43,8.55-2.78,3.78-5.71,6.9-10.71,6.19-2.96-.42-5.65-1.87-8.57-2.5-3.81-.82-6.72-.06-9.73,2.31-2.05,1.62-4.21,4.59-6.71,5.53-2.59.98-6,.1-8.58-.55-3.96-1-8.41-3.2-12.44-1.2-2.64,1.31-5.95,4.67-7.91,7.09-.08-.23-.16-.46-.24-.68-.05-.16-.11-.31-.16-.47,1.77-2.59,5.18-5.55,7.94-6.91,3.03-1.5,6.35-.77,9.46.14,3.41,1,8.39,2.95,11.84,1.34,2.82-1.32,5.52-4.93,8.19-6.62,2.5-1.57,4.81-1.97,7.76-1.54,2.81.42,5.15,1.86,7.89,2.54,3.51.87,6.34.11,8.86-2.45,2.09-2.13,3.58-5.58,5.14-8.1,1.3-2.1,2.59-3.56,4.61-5.06,1.83-1.36,5.44-2.25,7.8-2.82.03.06.05.12.08.18.1.24.21.49.31.73Z"/>
          <path class="cls-3" d="M92.12,52.48c-8.4,1.27-13.52,8.95-18.45,14.92-1.98,2.4-4.19,3.92-7.38,3.84-4.03-.1-7.63-2.59-11.66-2.54-4.09.05-6.26,3.4-9.38,5.41-2.96,1.91-6.55,2.17-9.97,1.76-4.01-.48-8.01-2.04-12.07-1.78-4.2.26-7.7,5.55-9.67,9.22-.09-.2-.18-.4-.26-.61-.05-.13-.11-.26-.16-.4,1.2-2.79,3.54-6.76,5.69-8.04,3.03-1.81,6.67-1.58,9.95-.93,4.57.92,9.52,2.45,14.09.68,3.32-1.29,5.34-4.56,8.64-5.86,3.76-1.48,7.59.34,11.19,1.37,2.47.71,5.19,1.16,7.52-.27,1.91-1.17,3.3-3.23,4.63-4.98,3.97-5.22,9.8-12.23,17.15-12.57.03.12.05.23.08.34.03.15.06.29.08.43Z"/>
          <path class="cls-3" d="M8.4,66.29c4.23-6.98,10.38-10.06,18.61-8.27,3.56.78,7.03,2.81,10.72,2.93,7.53.24,9.98-7,18.72-5.32,5.02.97,8.42,3.62,13.16.12,1.95-1.44,2.87-3.21,3.97-5.32,3.25-6.2,6.25-8.79,13.27-10.52.61-.15.35-1.06-.26-.94-7.05,1.41-10.25,3.68-13.52,10.01-7.12,13.79-15.57,1.42-25.21,6.43-5.28,2.74-8.94,5.24-15.3,3.29-3.29-1.01-6.78-2.36-10.28-2.39-6.62-.07-11.26,4.22-14.45,9.65-.21.36.35.69.56.33h0Z"/>
        </g>
      </g>
      <rect class="cls-2" width="100" height="100"/>
    </g>
  </g>
</svg>