<?xml version="1.0" encoding="UTF-8"?>
<svg id="Capa_2" data-name="Capa 2" xmlns="http://www.w3.org/2000/svg" viewBox="0 0 100 100">
  <defs>
    <style>
      .cls-1 {
        fill: #fff;
      }

      .cls-2 {
        fill: #ae877d;
      }

      .cls-3 {
        fill: none;
      }

      .cls-4 {
        fill: #f0b8ba;
      }

      .cls-5 {
        fill: #4a2d2d;
      }
    </style>
  </defs>
  <g id="COLOR">
    <g>
      <g>
        <path class="cls-1" d="M35.62,26.33s-3.57-.13-6.88-2.87c-3.31-2.74-4.21-8.03-4.27-9.37s-.57-2.17-.96-1.66-4.08,6.76-2.17,12.43c1.91,5.67,4.97,8.67,7.14,9.69,2.17,1.02,7.39-7.14,7.14-8.22Z"/>
        <path class="cls-5" d="M22.78,16.51c.05-.16.45-1.18.84-2.11.14,3.34,1.27,6.6,3.74,8.98,1.87,1.8,4.18,2.84,6.62,3.48.65-.57,1.34-1.09,2.08-1.54-2.54-.64-5.1-1.5-7.07-3.18-2.97-2.53-3.73-6.64-3.28-10.34.05-.41-.35-.89-.74-.97-2.62-.58-3.88,3.81-4.43,5.7-.91,3.13-.98,6.54-.06,9.67.81,2.75,2.4,5.26,4.53,7.17.78.7,1.73,1.43,2.75,2.04.03-.16.06-.31.1-.46.17-.67.47-1.28.82-1.86-.41-.19-.82-.41-1.21-.68-1.91-1.31-3.44-3.19-4.4-5.3-.98-2.17-1.29-4.6-1.08-6.97.11-1.24.38-2.46.78-3.64Z"/>
        <path class="cls-2" d="M90.78,45.58s-9.6-3.65-15.13-7.14c-5.52-3.48-15.13-14.36-22.44-16.4-7.31-2.04-18.1.25-23.71,8.67-5.61,8.41-2.89,13.51-7.48,22.27-4.59,8.75-9.09,9.43-10.11,15.13-1.02,5.69,4.67,12.75,13,12.58s8.16-4.33,13.94-3.57c5.78.76,10.11.59,12.66.25,2.55-.34,3.4-.76,3.4-.76,0,0,2.21,5.18,3.99,9.69,1.78,4.5,1.53,6.03,2.21,6.12s12.75-3.82,22.01-18.19,7.65-28.64,7.65-28.64Z"/>
        <path class="cls-4" d="M34.77,75.97c-.04-.76-.08-1.2-.2-1.87-.77-4.25-3.57-7.73-7.07-10.17-1.8-1.25-3.77-2.3-5.82-3.06-1.04-.39-2.1-.72-3.18-.97-.33-.08-.68-.15-1.02-.22-2.71,3.12-4.89,4.7-5.55,8.44-1.02,5.69,4.67,12.75,13,12.58,5.78-.12,7.47-2.16,9.89-3.14,0-.52-.01-1.05-.04-1.57Z"/>
        <path class="cls-5" d="M40.83,42.79c-.8-.8-1.92-.75-2.83-.18-1.83,1.14-3.23,5.84-.37,6.64,1.23.34,2.6-.46,3.2-1.51.76-1.32,1.2-3.74,0-4.95Z"/>
        <path class="cls-5" d="M21.26,68.52c-.91-.21-2.01.28-2.39,1.14-.03.07-.05.13-.07.2-.26.92-.06,2.18.4,3,.25.46.66.85,1.15,1.01.65.21,1.38-.02,1.9-.47,1.59-1.39,1.19-4.37-.99-4.88Z"/>
        <path class="cls-5" d="M55.05,77.08c3.99-1.3,7.57-4.08,10-7.47,1.24-1.73,1.94-3.55,2.54-5.6.54-1.84,1.28-4.65.48-6.47-.2-.46-.92-.43-.98.06-.2,1.4-.51,3.75-1,5.54-.52,1.9-1.35,3.71-2.45,5.35-2.28,3.39-5.55,5.5-9.09,7.38-.66.35-.21,1.45.51,1.22h0Z"/>
        <path class="cls-4" d="M60.17,46.35s2.87-2.36,7.65-2.42c4.78-.06,7.52.7,7.52.7,0,0-5.14,6.19-8.8,6.69-4.14.57-6.37-4.97-6.37-4.97Z"/>
        <path class="cls-5" d="M77.39,43.11c-4.65-4.65-11.89-5.22-17.27-1.5-.74.51-.09,1.69.72,1.23,4.6-2.67,9.99-2.28,14.11.84-5.19-1.45-10.86-.46-15.69,1.73-.35.16-.57.71-.43,1.07,1.26,3.44,3.59,6.32,7.65,5.57,3.62-.67,7.01-3.7,9.74-6.36.16-.08.29-.21.37-.36.28-.27.55-.54.81-.8.39-.38.38-1.04,0-1.42ZM68.13,49.46c-1.67.75-3.67,1.1-5.24-.07-.9-.67-1.44-1.68-1.91-2.7,4.15-1.82,8.47-1.98,12.86-1.26-1.67,1.64-3.55,3.06-5.71,4.03Z"/>
        <path class="cls-1" d="M52.45,26.14s-3.95,2.87-1.98,7.08,4.84,5.16,8.22,4.91c3.38-.25,8.35-4.72,10.14-8.35,1.78-3.63,3.19-11.35,2.74-13.83s-1.21-2.61-1.78-2.04-3.12,5.16-8.16,8.48-9.18,3.76-9.18,3.76Z"/>
        <path class="cls-5" d="M72.07,11.48c-.34-.9-1.34-.9-1.79-.35-.02.02-.04.03-.06.05-1.21,1.29-1.87,3.06-2.94,4.48-1.21,1.59-2.62,3.06-4.17,4.32-3.26,2.66-6.9,3.76-10.74,5.24-.06.02-.11.05-.17.09-3.37,1.49-3.47,6.78-1.91,9.58,2.44,4.39,7.51,5.24,11.72,2.94,4.32-2.36,7.6-6.01,9.43-10.57,1.89-4.71,2.47-10.96.63-15.78ZM70.19,23.64c-.95,3.72-2.74,7.41-5.34,10.27-1.32,1.46-2.99,2.65-4.85,3.32-2.31.83-4.57.15-6.42-1.4-1.39-1.16-2.53-2.89-2.56-4.75-.03-1.83.82-2.93,1.91-4.11,3.93-.37,7.87-2.69,10.91-5.06,1.73-1.35,3.32-2.86,4.7-4.56.63-.78,1.36-1.65,1.97-2.58.39,2.95.47,5.79-.31,8.86Z"/>
      </g>
      <rect class="cls-3" width="100" height="100"/>
    </g>
  </g>
</svg>