<?xml version="1.0" encoding="UTF-8"?>
<svg id="Capa_2" data-name="Capa 2" xmlns="http://www.w3.org/2000/svg" viewBox="0 0 100 100">
  <defs>
    <style>
      .cls-1 {
        fill: #fff;
      }

      .cls-2 {
        fill: none;
      }

      .cls-3 {
        fill: #fedcc1;
      }

      .cls-4 {
        fill: #4a2d2d;
      }

      .cls-5 {
        fill: #e18286;
      }
    </style>
  </defs>
  <g id="COLOR">
    <g>
      <g>
        <path class="cls-5" d="M95.79,55.75c-.01.75-.02,1.45-.06,2.11h0c-.21,3.8-1.3,6.66-8.59,13.21-8.57,7.71-16.53,10.47-21.99,11.25-5.45.78-44.58-6.4-51.59-8.22-4.15-1.08-5.93-3.39-6.82-7.51-.23-1.03-.39-2.18-.53-3.44-.21-1.98-.34-4.26-.48-6.87-.02-.32-.03-.63-.05-.96-.03-.55-.05-1.06-.07-1.56-.03-.93-.05-1.79-.05-2.56,0-1.21.03-2.24.09-3.1.29-4.51,1.25-4.65,1.25-4.65.61-4.24,78.08-5.54,80.16-5.02,2.08.52,3.37,2.43,4.41,4.07.28.44.72,1.22,1.22,2.24.72,1.46,1.55,3.4,2.18,5.44.32,1.04.58,2.11.74,3.16.14.83.2,1.64.19,2.41Z"/>
        <path class="cls-1" d="M76.1,67.41c-3.31,1.62-9.93,2.08-14.35,2.66-4.41.58-16.94.06-20.97-.39-4.02-.46-4.41-2.01-6.95-4.16-2.53-2.14-9.87-5.26-13.24-6.82-3.38-1.56-7.53-3.12-9.93-3.24-1.45-.08-3.52.41-4.93.81-.02-.32-.03-.63-.05-.96-.03-.55-.05-1.06-.07-1.56,1.94-.54,5.54-1.2,9.07-.04,5.19,1.69,7.53,5.13,12.08,6.62,4.55,1.49,13.89,1.43,15.71,2.86,1.82,1.43-.19,1.88-.91,1.75s-3.31-.13-3.9.78-.26.91,1.82.91,13.83.39,20.97.19c7.14-.19,10.91-.32,13.18-1.1,2.27-.78,5.32-3.24,6.3-2.66s-.52,2.73-3.83,4.35Z"/>
        <path class="cls-1" d="M94.86,50.18c-1.15,1.54-3.24,3.87-5.32,5.29-3.05,2.08-4.42,2.73-6.36,2.73s-2.47.26-4.09,1.36c-1.62,1.1-7.08,4.87-10.19,5.26-3.12.39-9.09-.06-13.05-1.23-3.96-1.17-7.14-4.8-10.78-6.1-3.63-1.3-10.19.13-15.39-.78-5.19-.91-8.96-5-14.22-6.23-3.5-.82-7.57.05-9.91.73,0-1.21.03-2.24.09-3.1,2.73-.33,8.94-.72,15.79,1.26,9.22,2.66,8.9,5.39,16.56,5.58,7.66.19,12.6-.84,17.53,1.04,4.94,1.88,8.31,5,12.34,5.26,4.02.26,9.22-2.53,10.06-3.31.85-.78-.19-2.6,2.01-3.96,2.21-1.36,4.67-2.53,8.38-5.26,2.25-1.66,3.63-3.1,4.37-3.97.72,1.46,1.55,3.4,2.18,5.44Z"/>
        <path class="cls-1" d="M95.79,55.75c-.01.75-.02,1.45-.06,2.11h0c-1.16,1.19-3.16,2.84-6,4.29-4.67,2.4-5.84,3.51-7.21,5.65s-1.56,4.03-4.55,5.32c-2.99,1.3-4.16.46-8.05,1.62-3.9,1.17-10.39,3.37-17.4,2.59s-16.82-2.79-20.39-4.41c-3.57-1.62-12.14-6.36-16.94-7.01-3.32-.45-6.69.22-8.47.67-.23-1.03-.39-2.18-.53-3.44,2.47-.25,8.04-.48,13.61,1.6,7.46,2.79,13.83,7.72,22.66,8.76,8.83,1.04,15.32-.19,19.8-.91,4.48-.72,8.89-1.75,11.04-2.08,2.14-.32,5.78-1.36,7.47-2.86,1.69-1.49,1.1-4.48,3.12-5.39,2.01-.91,4.67-1.95,7.79-4.28,2.02-1.52,3.17-3.53,3.92-4.66.14.83.2,1.64.19,2.41Z"/>
        <path class="cls-3" d="M5.99,45.27s-.13-3.9,3.64-5.97c3.77-2.08,21.81-9.09,25.84-10.39,4.03-1.3,7.4-2.99,14.02-2.47s27.66,5.71,32.33,7.14c4.67,1.43,5.97,2.6,7.14,4.28s1.82,3.51,1.82,3.51c0,0-18.85,15.17-20.68,16.46-.27.19-1.65-.98-3.91-1.82-5.91-2.19-17.03-6.49-26.05-8.28-12.47-2.47-32.07-3.9-34.15-2.47Z"/>
        <path class="cls-4" d="M67.44,47.43c.85-.97,1.91-1.6,3.05-2.18.59-.3,1.19-.58,1.75-.92.27-.17.53-.33.78-.52.23-.18.57-.52.64-.81.04-.2-.09-.36-.29-.38-.29-.03-.73.17-.98.29-.29.15-.58.3-.88.45-.61.29-1.19.62-1.77.98-1.11.67-2.22,1.55-2.75,2.77-.12.27.21.61.44.34h0Z"/>
        <path class="cls-4" d="M64.61,44.61l.97-.69c.18-.13.36-.26.53-.4.08-.06.16-.13.23-.19.05-.05.11-.1.14-.16.05-.08.06-.17.07-.27.01-.16-.12-.31-.27-.35-.17-.04-.32-.01-.47.07-.08.05-.16.1-.25.15-.17.1-.33.22-.49.33l-.95.68c-.11.08-.19.16-.22.29-.03.12-.02.27.05.38.13.21.45.33.67.18h0Z"/>
        <path class="cls-4" d="M35.93,39.05l1.03-.6c.17-.1.33-.2.49-.31.09-.06.17-.11.25-.18.06-.04.12-.08.16-.14.06-.06.09-.14.11-.22.05-.15-.06-.37-.22-.39-.09-.01-.16-.03-.25,0-.07.02-.13.05-.2.08-.09.04-.18.09-.27.14-.17.09-.34.19-.5.29l-1.02.63c-.18.11-.27.37-.15.56s.36.26.56.15h0Z"/>
        <path class="cls-4" d="M41.2,38.08c.45-.36.94-.68,1.45-.96.24-.13.49-.25.75-.36.15-.06.29-.13.43-.19s.25-.14.37-.24c.13-.11.02-.3-.13-.31-.16,0-.29,0-.45.05s-.3.1-.44.16c-.28.13-.56.27-.83.42-.53.31-1.04.67-1.51,1.06-.1.09-.09.26,0,.35.1.1.24.08.35,0h0Z"/>
        <path class="cls-4" d="M76.99,39.89c.15-.09.29-.17.45-.24s.3-.13.45-.21.28-.16.42-.26c.09-.06.15-.13.22-.21.04-.04.08-.08.11-.12.03-.05.04-.11.04-.17,0-.11-.08-.18-.17-.22-.1-.04-.2,0-.3.02s-.19.06-.28.11c-.14.07-.27.16-.4.25-.14.1-.28.21-.41.32-.12.1-.24.17-.38.27-.12.07-.17.24-.09.36s.23.17.36.09h0Z"/>
        <path class="cls-4" d="M57.37,39.14c.42-.36.87-.68,1.35-.97.24-.14.48-.27.72-.41.25-.16.5-.32.7-.54.13-.14.04-.38-.16-.38-.62,0-1.17.35-1.67.69s-.97.72-1.41,1.14c-.13.12-.12.35,0,.47.14.14.33.12.47,0h0Z"/>
        <path class="cls-4" d="M51.09,32.95l.92-.5c.15-.08.3-.17.45-.26.08-.05.15-.11.23-.17.08-.07.14-.13.2-.21.1-.14-.03-.37-.2-.35-.11.01-.19.03-.29.07-.09.04-.18.07-.26.12-.15.08-.3.17-.45.26l-.89.55c-.13.08-.19.26-.1.39s.25.18.39.1h0Z"/>
        <path class="cls-4" d="M51.21,40.25l.07-.06.03-.03s.05-.05.07-.09l.04-.09v-.09s.01-.03,0-.05c0-.02,0-.04-.01-.06v.16-.02s.01,0,.01,0v-.08s0-.05,0-.08c0-.04-.03-.07-.05-.1-.02-.03-.05-.05-.08-.07-.01,0-.02-.01-.04-.02-.03-.02-.07-.03-.11-.02h0s-.02,0-.03,0l.16.04s-.06-.04-.1-.05c-.02,0-.03,0-.05,0-.05-.01-.09,0-.14,0l-.09.04h0s0,0-.01,0l-.04.02-.09.04c-.06.03-.1.08-.14.14l-.04.09c-.02.07-.02.13,0,.2.01.05.03.09.07.13.03.04.06.07.11.1.04.03.09.04.14.04.05.01.1,0,.15,0,.06-.02.12-.05.17-.1h0Z"/>
        <path class="cls-4" d="M67.75,38.29c.6,0,.6-.93,0-.93s-.6.93,0,.93h0Z"/>
        <path class="cls-4" d="M25.09,37.84c.43-.22.87-.43,1.32-.62.22-.09.43-.18.65-.27s.49-.18.63-.37c.06-.07.05-.21-.06-.24-.24-.04-.5.05-.71.14-.23.1-.47.2-.7.31-.45.21-.9.44-1.34.69-.23.13-.03.48.21.35h0Z"/>
        <path class="cls-4" d="M29.24,35.91s.03-.04.05-.07c.03-.04.03-.08.04-.13v-.05s0-.05,0-.07c0-.02-.01-.03-.02-.04-.01-.02-.03-.04-.05-.05h-.02s0-.02-.01-.02c0,0,0,0,0,0,0,0,0,0,0,0-.03-.02-.06-.03-.1-.03-.02,0-.04,0-.06,0h-.02s-.03,0-.05,0c-.11,0-.21.06-.26.15s-.06.21,0,.31.16.15.26.15c.06,0,.11-.01.15-.04.05-.03.08-.06.11-.11h0Z"/>
        <path class="cls-4" d="M37.43,32.39c.33-.14.67-.28.99-.44.16-.08.32-.16.48-.24.08-.04.16-.09.23-.14s.13-.13.2-.2,0-.16-.08-.14l-.19.03h.08c-.17-.04-.36.09-.51.16l-.44.22c-.31.15-.6.33-.9.5-.07.04-.09.13-.05.2.04.08.13.08.2.05h0Z"/>
        <path class="cls-4" d="M90.31,41.26c-4.24,3.59-8.64,6.95-13.01,10.37-2.14,1.68-4.18,3.48-6.31,5.18-.06.05-.13.11-.2.16,0-.54.02-1.08,0-1.61,0-.51.12-1.51.04-2.04,4.07-4.56,8.77-8.7,13.83-12.12.71-.48,1.42-.95,2.15-1.4.73-.46,1.55-.85,2.15-1.48.22-.23-.1-.84-.4-.77-.75.15-1.41.58-2.06.97-.68.41-1.36.83-2.02,1.26-1.32.87-2.59,1.8-3.84,2.76-2.56,1.98-4.94,3.77-7.14,6.15-1.08,1.16-2.22,2.37-3.25,3.6-.37-.32-.86-.54-1.32-.77-.85-.42-1.71-.83-2.58-1.23-3.53-1.63-7.14-3.06-10.82-4.29-7.35-2.45-14.96-4.08-22.65-4.91-7.7-.83-15.53-.81-23.22.13-.91.11-1.82.23-2.73.37-.27.04-.33,1.01-.06.98,7.53-.89,15.15-1.03,22.7-.36,7.57.68,15.06,2.11,22.34,4.33,3.65,1.11,7.24,2.42,10.75,3.91,1.75.75,3.48,1.54,5.19,2.38.41.2.82.4,1.22.61.46.25.55.52.57,1.03,0,.14,0,.27,0,.41.01.83,0,1.67,0,2.5-.21-.06-.42-.18-.62-.3-.67-.36-1.35-.71-2.04-1.03-1.41-.66-2.82-1.29-4.25-1.9-5.66-2.4-11.52-4.32-17.48-5.83-5.96-1.5-12.03-2.58-18.14-3.16-6.16-.59-12.35-.67-18.53-.32-.76.04-1.52.09-2.28.15-.36.03-.37.59,0,.57,6.24-.36,12.49-.2,18.71.38,6.2.58,12.36,1.6,18.41,3.07,6.07,1.48,12.01,3.44,17.8,5.78,1.45.59,2.88,1.2,4.31,1.84.72.33,1.44.66,2.17.98.62.27,1.26.62,1.95.68-.01,2.58-.05,5.16-.1,7.74-.05,2.6-.18,5.19-.39,7.77-.18,2.19-.4,4.38-.87,6.53-.09.39-.16.79-.27,1.18-.16.54.68.77.84.23.58-1.99.85-4.05,1.07-6.11.28-2.59.42-5.18.58-7.78.2-3.3.27-6.61.28-9.92.2-.14.38-.3.56-.48.46-.46.91-.91,1.41-1.33,1.04-.88,2.1-1.73,3.17-2.58,4.48-3.55,9.14-6.88,13.56-10.51.48-.39.94-.79,1.4-1.2.4-.36-.18-.93-.59-.59Z"/>
      </g>
      <rect class="cls-2" width="100" height="100"/>
    </g>
  </g>
</svg>