<?xml version="1.0" encoding="UTF-8"?>
<svg id="Capa_2" data-name="Capa 2" xmlns="http://www.w3.org/2000/svg" viewBox="0 0 100 100">
  <defs>
    <style>
      .cls-1 {
        fill: #fff;
      }

      .cls-2 {
        fill: #ae877d;
      }

      .cls-3 {
        fill: none;
      }

      .cls-4 {
        fill: #4a2d2d;
      }

      .cls-5 {
        fill: #783627;
      }
    </style>
  </defs>
  <g id="COLOR">
    <g>
      <g>
        <g>
          <g>
            <path class="cls-2" d="M23.77,41.54s-3.19-1.28-7.95.66c-5.33,2.18-10.19,9.86-10,16.71.18,6.85,3.11,10.52,8.24,10.85,5.13.33,13.26-6.16,15.21-13.37,1.94-7.22-3.63-14.22-5.5-14.84Z"/>
            <path class="cls-5" d="M23.14,41.33s8.94.93,16.7-3.61c9.16-5.36,18.2-16.86,27.18-15.88,8.98.98,11.91,7.9,9.17,18.25-2.73,10.34-17.51,22.02-30.84,26.15-22.35,6.93-32.96,3.28-32.96,3.28,0,0,9.66-.55,13.97-12.11,4.12-11.05-3.23-16.08-3.23-16.08Z"/>
            <path class="cls-5" d="M73.89,26.61s.88-5.21,2.91-5.95,1.38,3.56,1.38,3.56c0,0,3.72-.7,3.62,1.57-.1,2.27-6.54,2.68-6.54,2.68l-1.37-1.85Z"/>
            <path class="cls-4" d="M77.38,28.31c-.43-1.35-1.31-2.43-2.04-3.62-1.38-2.23-1.16-4.51.56-6.54,2.72-3.19,7.87-4.34,11.19-1.41,3.69,3.27,1.93,7.81-.58,11.18-1.96,2.63-3.77,5.18-3.11,8.64,1.15,6.1,9.59,7.26,12.08,1.38,1-2.36.44-6.1-2.52-6.72-2.51-.52-4.63,1.76-4.34,4.17.16,1.28,1.83,1.28,1.99,0,.29-2.34,2.74-1.52,2.72.33-.01.93-.55,1.79-1.21,2.4-1.33,1.23-3.09,1.51-4.63.47-3.88-2.62-.65-7.19,1.31-9.76,3.16-4.13,4.16-9.89-.17-13.63-3.85-3.32-9.56-2.77-13.13.69-1.71,1.65-3.05,4.15-2.73,6.59.3,2.34,2.24,4.36,3.37,6.35.38.66,1.48.22,1.24-.52h0Z"/>
            <path class="cls-4" d="M13.42,70.13c6.36-1.06,11.28-5.77,13.56-11.68,2.13-5.52,2.08-13.66-3.29-17.4-.42-.29-1,.29-.71.71,1.69,2.43,3.16,4.7,3.63,7.7.45,2.89.11,5.91-.95,8.63-2.2,5.7-6.73,9.39-12.52,11.09-.63.18-.36,1.06.26.96h0Z"/>
            <path class="cls-4" d="M53.42,60.25c2.01-2.19,3.04-5.3,2.14-8.22-.17-.53-1.09-.47-1.03.14.29,2.68-.12,5.18-1.87,7.33-.43.52.28,1.27.76.76h0Z"/>
            <path class="cls-4" d="M62.9,53.8c.73-2.22,1.06-4.79.24-7.03-.2-.54-1.15-.52-1.09.15.21,2.28.38,4.34-.26,6.58-.2.71.88,1,1.11.31h0Z"/>
            <path class="cls-4" d="M70.02,47.33c.97-2.14,1.11-5.01-.6-6.84-.39-.41-1.02.02-.91.53.46,2.03.92,3.75.38,5.84-.17.65.82,1.12,1.12.47h0Z"/>
            <path class="cls-1" d="M67.85,24.28c-1.65-1.21-3.77-.59-5.45.23-1.61.78-3.63,1.87-4.08,3.74-.18.73.35,1.49,1.13,1.48,1.4-.02,2.47-.84,3.62-1.55,1.33-.82,2.57-1.28,4.12-1.43,1.34-.14,1.75-1.67.67-2.46h0Z"/>
            <path class="cls-1" d="M53.01,35.13c.45-.02.84-.11,1.23-.34s.65-.54.82-.94c.11-.26.18-.48.14-.76-.03-.25-.14-.51-.33-.69-.39-.35-.98-.47-1.45-.19-.09.05-.18.1-.27.14l.31-.13c-.16.06-.33.12-.48.21-.06.04-.13.08-.19.11-.14.07-.27.15-.42.21l-.26.2c-.12.12-.21.25-.26.41-.11.25-.15.56-.06.83.17.52.65.96,1.23.93h0Z"/>
            <path class="cls-4" d="M45.41,62.67c1.06-1.14,1.82-2.51,1.84-4.1,0-.51-.81-.8-1.03-.28-.53,1.24-1,2.52-1.71,3.68-.34.56.46,1.19.91.7h0Z"/>
            <path class="cls-1" d="M16.7,51.32c-.16-.03-.33-.06-.48,0-.08.03-.14.09-.19.15-.21.24-.27.61-.14.9s.44.5.76.49c.08,0,.15-.01.22-.04.07-.03.12-.07.17-.12.48-.45.31-1.26-.34-1.39Z"/>
            <path class="cls-1" d="M23.45,51.17c-.19.2-.27.48-.22.75.03.17.11.34.25.45.06.05.14.08.21.11.28.09.61.04.83-.15s.35-.5.29-.79c-.12-.63-.93-.81-1.36-.36Z"/>
            <path class="cls-1" d="M17.43,44.63c-.53.45-.82,1.15-.86,1.84-.03.63.14,1.28.54,1.76.16.19.35.36.58.46.2.09.41.12.63.13.79.03,1.6-.26,2.13-.84.54-.59.74-1.47.52-2.24-.33-1.1-1.49-1.81-2.62-1.57-.34.07-.66.23-.92.46Z"/>
            <path class="cls-1" d="M10.15,50.46c-.67.46-1.1,1.52-.88,2.33.12.44.41.78.76.95.54.27,1.24.13,1.77-.34.39-.34.69-.87.75-1.42.19-1.54-1.37-2.24-2.4-1.52Z"/>
            <path class="cls-1" d="M18.95,55.11c-.71.37-1.22,1.09-1.33,1.88-.03.25-.03.5.02.74.13.61.6,1.13,1.18,1.37.58.24,1.25.22,1.83,0s1.07-.66,1.42-1.18c.12-.18.22-.37.29-.57.16-.48.11-1.03-.13-1.47-.61-1.09-2.23-1.3-3.27-.76Z"/>
            <path class="cls-1" d="M13.39,56.89c.29.01.55-.21.64-.48.02-.07.04-.15.02-.23-.01-.05-.03-.09-.06-.13-.09-.16-.23-.3-.41-.33-.18-.03-.36.05-.49.18-.31.33-.25.97.3.99Z"/>
          </g>
          <path class="cls-1" d="M10.97,59.59c-.36.01-.73.11-1.01.33-.36.28-.54.72-.65,1.16-.19.76-.17,1.59.18,2.28.35.69,1.09,1.22,1.87,1.19.61-.02,1.18-.38,1.55-.86s.56-1.09.65-1.69c.03-.24.05-.48.02-.71-.07-.55-.42-1.04-.88-1.35s-1.15-.38-1.72-.35Z"/>
          <path class="cls-1" d="M16.8,62.91s.02.09.04.14c.02.05.06.1.1.14.25.25.65.35.97.21s.53-.52.45-.86c-.05-.2-.19-.38-.37-.49-.26-.16-.63-.24-.87-.02s-.37.57-.32.89Z"/>
        </g>
        <g>
          <path class="cls-5" d="M32.23,76.96s-2.02,6.95.98,9.9c2.66,2.62,7.5,4.57,16.69,3.15s9.11-7.43,9.11-10.27-.76-5.76-2.62-6.97c-2-1.3-22.65,1.26-24.16,4.19Z"/>
          <path class="cls-2" d="M36.8,71.64c-3.29,1.54-4.94,3.29-4.54,5.75.4,2.45,3.44,7.17,13.47,6.62,10.03-.55,12.74-5.97,12.81-7.76.06-1.43-1.8-4.71-6.29-6.11-5.53-1.72-12.15-.04-15.44,1.5Z"/>
          <path class="cls-4" d="M31.73,77.41c2.3,5.63,7.95,7.7,13.69,7.49,3.05-.11,6.13-.84,8.78-2.39,2.04-1.2,4.68-3.26,4.78-5.81.03-.71-.51-.96-.83-.29-2.32,4.77-8.09,6.75-13.14,6.72s-10.52-1.16-12.72-6.09c-.28-.63-.82-.28-.56.37h0Z"/>
          <path class="cls-1" d="M40.09,72.91c-.16-.02-.33-.04-.48,0-.08.02-.14.07-.19.11-.21.18-.27.44-.14.66.13.21.44.36.76.36.08,0,.15-.01.22-.03.07-.02.12-.05.17-.09.48-.33.31-.92-.34-1.01Z"/>
          <path class="cls-1" d="M51.99,72.36c-.2-.03-.41-.06-.6,0-.09.03-.17.08-.24.14-.26.22-.33.54-.17.81.16.26.54.45.93.44.09,0,.19-.01.28-.04.08-.03.15-.06.22-.11.59-.41.39-1.13-.42-1.25Z"/>
          <path class="cls-1" d="M46.41,72.53c-.53-.05-1.08-.02-1.56.21s-.87.69-.91,1.22c0,.12,0,.24.03.35.11.32.42.53.74.66.55.22,1.16.3,1.74.21.38-.06.76-.18,1.06-.43s.51-.61.5-1c-.02-.77-.97-1.16-1.62-1.22Z"/>
          <path class="cls-1" d="M37.92,75.98c-.55.12-1.09.35-1.47.77-.37.42-.54,1.06-.29,1.56.2.42.64.67,1.08.83,1.14.41,2.45.27,3.48-.35.47-.29.91-.71,1-1.25.32-1.91-2.71-1.8-3.8-1.56Z"/>
          <path class="cls-1" d="M46.13,78.49c-.22.09-.43.26-.48.5-.02.12,0,.24.05.36.11.26.34.47.62.54.39.11.81-.05,1.18-.22.13-.06.26-.12.35-.23.19-.22.15-.57-.03-.79-.37-.44-1.22-.36-1.68-.15Z"/>
          <path class="cls-1" d="M50.55,76.08c-.45.36-.71,1.02-.45,1.54.22.44.72.66,1.2.77.82.19,1.71.16,2.49-.16.46-.19.91-.55.97-1.04.04-.32-.11-.65-.34-.88s-.53-.38-.83-.49c-.96-.33-2.19-.42-3.03.25Z"/>
        </g>
        <g>
          <path class="cls-5" d="M61.8,68.38s-2.02,6.95.98,9.9c2.66,2.62,7.5,4.57,16.69,3.15,9.19-1.42,9.11-7.43,9.11-10.27s-.76-5.76-2.62-6.97c-2-1.3-22.65,1.26-24.16,4.19Z"/>
          <path class="cls-2" d="M66.37,63.05c-3.29,1.54-4.94,3.29-4.54,5.75.4,2.45,3.44,7.17,13.47,6.62,10.03-.55,12.74-5.97,12.81-7.76.06-1.43-1.8-4.71-6.29-6.11-5.53-1.72-12.15-.04-15.44,1.5Z"/>
          <path class="cls-4" d="M61.46,68.92c2.3,5.63,7.82,7.57,13.55,7.37,3.05-.11,6.13-.84,8.78-2.39,2.04-1.2,4.68-3.26,4.78-5.81.03-.71-.51-.96-.83-.29-2.32,4.77-8.09,6.75-13.14,6.72-4.95-.03-10.38-1.04-12.58-5.97-.28-.63-.82-.28-.56.37h0Z"/>
          <path class="cls-1" d="M69.72,70.76c-.16-.02-.33-.04-.48,0-.08.02-.14.07-.19.11-.21.18-.27.44-.14.66s.44.36.76.36c.08,0,.15-.01.22-.03.07-.02.12-.05.17-.09.48-.33.31-.92-.34-1.01Z"/>
          <path class="cls-1" d="M74.87,64.79c.45.01.87-.21,1.01-.48.04-.07.06-.15.03-.23-.02-.05-.05-.09-.09-.13-.15-.16-.37-.3-.65-.33-.28-.03-.57.05-.77.18-.49.33-.39.97.47.99Z"/>
          <path class="cls-1" d="M67.27,65.98c-.41.23-.8.55-.99.97-.19.43-.16.99.18,1.32.17.17.4.26.63.34,1.12.37,2.37.35,3.48-.08.68-.26,1.37-.78,1.39-1.5.01-.46-.27-.9-.66-1.16-1.06-.7-2.98-.47-4.03.11Z"/>
          <path class="cls-1" d="M78.24,65.02c-.34.22-.65.55-.66.95,0,.41.31.75.66.98.97.63,2.32.62,3.28-.03.29-.2.57-.48.61-.83.06-.48-.33-.91-.76-1.15-.95-.53-2.21-.5-3.12.09Z"/>
          <path class="cls-1" d="M83.22,67.58c-.03.12-.04.26,0,.38.11.27.45.34.74.35.26.01.53,0,.76-.11s.43-.34.42-.6c0-.3-.27-.55-.56-.63-.57-.16-1.2-.01-1.37.61Z"/>
          <path class="cls-1" d="M75.7,69.29c-.71.21-1.37.74-1.51,1.47-.04.18-.04.38.05.54.12.23.37.36.62.44,1.04.36,2.21.32,3.21-.11.4-.17.81-.44.97-.84.15-.37.07-.81-.18-1.12-.62-.78-2.33-.63-3.17-.37Z"/>
        </g>
      </g>
      <rect class="cls-3" width="100" height="100"/>
    </g>
  </g>
</svg>