<?xml version="1.0" encoding="UTF-8"?>
<svg id="Capa_2" data-name="Capa 2" xmlns="http://www.w3.org/2000/svg" viewBox="0 0 100 100">
  <defs>
    <style>
      .cls-1 {
        fill: #fff;
      }

      .cls-2 {
        fill: none;
      }

      .cls-3 {
        fill: #4a2d2d;
      }

      .cls-4 {
        fill: #c25d3d;
      }
    </style>
  </defs>
  <g id="COLOR">
    <g>
      <g>
        <path class="cls-4" d="M88.81,57.84c.78-1.74,1.02-3.71.75-5.6-.32-2.23-1.54-3.96-2.61-5.89-1.43-2.58-1.09-5.08-1.32-7.89-.32-3.94-2.7-7.47-6.53-8.74-2.21-.73-4.74,0-6.84-1.12-2.05-1.08-3.11-3.33-5.34-4.19-2.02-.78-4.18-.49-6.24-.02-1.6.36-3.28.82-4.89.39-2.79-.74-5.21-3.43-8.25-3-1.37.19-2.56.95-3.7,1.69-.85.56-1.67,1.24-2.66,1.55-1.33.41-2.71.1-4.06,0-1.73-.13-3.37.02-4.9.88-1.68.95-2.97,2.45-4.83,3.08-3.31,1.12-7.37.38-9.78,3.44-.9,1.15-1.3,2.56-1.66,3.94-.61,2.34-1.42,4.12-2.98,6-2.37,2.87-3.65,5.45-2.48,9.21.62,1.99,1.64,3.83,2.06,5.88.45,2.19.3,4.45.54,6.66.38,3.59,1.84,6.44,5.03,8.29,3.2,1.86,6.72,2.74,9.74,4.96,1.44,1.05,2.91,2.17,4.68,2.59,2.37.57,4.78-.49,7.13.23,1.86.57,3.37,1.76,5.35,2.02,2.39.31,4.68-.5,7.05-.63,3.84-.21,7.45,2.96,11.26,1.34,1.73-.73,2.88-2.23,4.45-3.19,2.05-1.25,4.44-1.12,6.75-1.22,3.62-.15,6.81-1.26,9.1-4.19,1.01-1.29,1.77-2.76,2.21-4.33.59-2.09.27-4.05.35-6.18.09-2.35,1.71-3.94,2.62-5.98Z"/>
        <path class="cls-3" d="M17.11,56.88c.52,5.1,7.25,4.68,10.74,6.02,2.3.89,3.72,3.51,6.33,3.54,2.38.03,4.49-1.64,6.87-1.52,2.61.14,4.6,2.05,7.35,1.6,1.56-.25,2.96-.81,4.57-.75s3.14.42,4.7.66c2.28.35,4.72.61,6.81-.58,1.05-.59,1.87-1.48,2.78-2.25,1.58-1.33,3.24-1.78,5.28-1.89,2.99-.15,5.55.48,8.11-1.44,1.98-1.49,3.27-3.71,3.5-6.18.09-1-1.51-1.2-1.74-.24-.78,3.27-2.99,6.16-6.6,6.36-1.67.09-3.24-.35-4.91-.13-1.24.16-2.45.52-3.52,1.18-1.38.86-2.39,2.22-3.82,3-1.58.86-3.38.81-5.11.53-2.8-.45-5.36-1.1-8.21-.47-2.19.48-3.74.57-5.82-.31-1.08-.46-2.17-.95-3.37-.97-2.65-.06-4.92,2.4-7.51,2.01-1.76-.27-2.57-2.16-4.04-2.99-1.11-.63-2.37-.93-3.61-1.19-3.28-.69-5.86-1.23-7.74-4.28-.27-.44-1.1-.3-1.04.28h0Z"/>
        <path class="cls-3" d="M48.37,34.69c1.83-.92,3.33-.53,5.24-.29.46.06.49-.56.21-.77-1.67-1.24-4.28-.73-5.98.15-.6.31-.07,1.21.53.91h0Z"/>
        <path class="cls-1" d="M65.4,36.1c1.35-.6,2.53-.31,3.94-.35.38-.01.58-.54.28-.79-1.33-1.09-3.33-.63-4.72.09-.58.3-.1,1.32.5,1.05h0Z"/>
        <path class="cls-3" d="M51.42,44.33c1.52-1.13,3.02-.34,4.7-.4.4-.01.74-.59.37-.88-1.68-1.33-4.31-1.21-5.87.24-.53.5.19,1.49.8,1.04h0Z"/>
        <path class="cls-3" d="M70.03,44.4c.28-.04.59-.03.87.01.32.05.62.18.94.16.47-.03.71-.56.38-.92-.58-.64-1.75-.58-2.53-.46-.34.05-.52.48-.44.77.1.36.44.49.77.44h0Z"/>
        <path class="cls-3" d="M31.53,39.43c.83-.51,1.71-.83,2.69-.89.84-.05,1.64.2,2.47.17.37-.01.68-.53.33-.81-1.68-1.33-4.46-.52-6.06.56-.59.4-.05,1.35.57.97h0Z"/>
        <path class="cls-1" d="M24.68,46.67c1.24-.32,2.52-.23,3.76-.51.42-.1.34-.64,0-.77-1.28-.49-2.77-.12-4.03.3-.62.21-.37,1.15.27.99h0Z"/>
        <path class="cls-3" d="M30.49,52.23c.76-.42,1.57-.68,2.45-.71.75-.02,1.46.22,2.2.19.37-.02.68-.53.33-.81-1.51-1.2-4.04-.53-5.54.38-.61.37-.07,1.3.56.95h0Z"/>
        <path class="cls-3" d="M44.37,57.93c.95-.35,1.91-.54,2.92-.54.92,0,1.81.3,2.72.27.52-.02.62-.63.25-.92-1.7-1.29-4.54-.57-6.27.28-.5.25-.15,1.11.38.91h0Z"/>
        <path class="cls-3" d="M61.95,54.62c.76-.31,1.52-.46,2.35-.43.75.03,1.47.33,2.22.31.46-.01.66-.55.37-.88-1.28-1.44-3.92-.85-5.39-.08-.58.3-.17,1.34.45,1.08h0Z"/>
        <path class="cls-1" d="M60.46,60.38c.34-.1.68-.17,1.03-.2s.7-.02,1.01-.15.48-.61.1-.8c-.72-.37-1.7-.11-2.43.12-.66.21-.38,1.22.29,1.03h0Z"/>
        <path class="cls-1" d="M75.83,53.93c.38-.1.76-.13,1.14-.07.35.05.7.21,1.06.17.39-.04.57-.45.31-.76-.61-.72-1.99-.5-2.76-.21-.54.2-.33,1.02.24.87h0Z"/>
        <path class="cls-1" d="M45.76,50.07c.29-.08.59-.14.89-.16s.61-.04.89-.18.24-.56,0-.72c-.57-.37-1.46-.16-2.08,0-.68.18-.39,1.24.29,1.05h0Z"/>
        <path class="cls-1" d="M39.26,30.92c-.5-.1-1.01-.18-1.52-.12s-1.2.23-1.26.83c-.07.6.59.73,1.04.72.52-.01,1.03-.1,1.56-.08.76.03.95-1.2.18-1.35h0Z"/>
        <path class="cls-3" d="M23.38,54.89c.53-.16,1.08-.12,1.61-.25.3-.07.4-.56.09-.7-.61-.28-1.33-.15-1.95.04-.58.17-.33,1.09.25.91h0Z"/>
        <path class="cls-3" d="M26.96,67.49c-.92,2.74-1.54,6.27.79,8.53.31.3.73-.08.56-.44-.57-1.23-1.16-2.35-1.21-3.73-.04-1.39.39-2.78.74-4.11.15-.57-.7-.8-.88-.24h0Z"/>
        <path class="cls-3" d="M31.53,77.28c-.28-.83-.44-1.66-.43-2.54,0-.89.27-1.69.39-2.55.06-.42-.49-.74-.74-.31-.95,1.63-.7,3.94-.12,5.65.19.56,1.08.32.89-.25h0Z"/>
        <path class="cls-3" d="M34.73,74.83c-.09-.86-.06-1.74-.18-2.6-.05-.38-.65-.34-.73,0-.2.84-.14,1.74-.07,2.6.05.63,1.05.63.98,0h0Z"/>
        <path class="cls-3" d="M59.31,80.71c.49-2,.96-4.31.45-6.34-.13-.49-.78-.34-.83.11-.22,2.01-.06,3.99-.46,5.99-.11.55.71.79.85.23h0Z"/>
        <path class="cls-3" d="M63.88,78.65c.57-1.37,1.04-3.3.23-4.67-.2-.33-.81-.31-.88.12-.12.65-.03,1.32-.04,1.99-.02.78-.1,1.55-.28,2.3-.16.65.73.85.98.27h0Z"/>
        <path class="cls-3" d="M68.31,78.4c.92-2.85,1.57-6.6.17-9.4-.2-.41-.79-.18-.81.22-.06,1.4.25,2.8.24,4.21-.01,1.59-.21,3.15-.58,4.7-.15.64.78.89.98.27h0Z"/>
        <path class="cls-3" d="M76.28,65.17c.34,1.14.59,2.34.69,3.53.1,1.11-.12,2.18-.09,3.28,0,.35.51.52.69.19,1.17-2.22.68-5.23-.31-7.41-.25-.56-1.15-.16-.98.41h0Z"/>
        <path class="cls-3" d="M81.32,70.13c.37-1.28.6-2.86-.12-4.06-.23-.39-.8-.21-.83.22-.07,1.2.18,2.36-.04,3.56-.12.64.8.91.99.27h0Z"/>
      </g>
      <rect class="cls-2" width="100" height="100"/>
    </g>
  </g>
</svg>