<?xml version="1.0" encoding="UTF-8"?>
<svg id="Capa_2" data-name="Capa 2" xmlns="http://www.w3.org/2000/svg" viewBox="0 0 100 100">
  <defs>
    <style>
      .cls-1 {
        fill: #fff;
      }

      .cls-2 {
        fill: none;
      }

      .cls-3 {
        fill: #4a2d2d;
      }

      .cls-4 {
        fill: #eeaca1;
      }
    </style>
  </defs>
  <g id="COLOR">
    <g>
      <g>
        <path class="cls-4" d="M90.39,58.8c-2.93-6.57-7.79-12.2-12.76-17.32-4.23-4.36-10.29-9.1-14.91-13,2.11.46,5.33,1.15,7.51,1.11.48,0,.94-.35.96-.83.05-1.72-2.18-2.94-3.6-3.69-2.41-1.28-3.6-1.89-6.06-3.06-3.94-1.86-7.57-2.32-11.83-.99-5.57,1.74-9.1,5.52-12.04,10.19-3.88-1.33-9.07-2.29-12.63.18-1.57,1.09-2.72,2.61-3.79,4.17-1.46,2.14-2.91,4.28-4.34,6.44-2.29,3.44-4.58,7.76-2.69,11.92.7,1.54,1.92,2.65,3.24,3.66,2.03,1.55,4.35,1.77,5.89,3.84,2.75,3.69,4.39,8.16,6.73,12.1,2.33,3.92,4.54,9.57,8.77,11.66,3.56,1.76,7.38,1.13,10.4-1.51,3.09-2.69,5.05-6.71,6.39-10.48,3.19-8.98,2.2-21.15,1.15-30.56,3.96,4.66,9.15,11.66,14.76,14.35,5.72,2.74,11.83,4.5,18.2,3.52.5-.08.69-.44.65-.81.12-.26.13-.58-.01-.91Z"/>
        <path class="cls-3" d="M43.41,78.53c1.67-.54,3.15-1.42,4.34-2.71.94-1.02,2.49-2.85,1.96-4.32-.16-.43-.62-.67-1.05-.43-1.13.64-1.56,2.3-2.4,3.27-.97,1.12-2.17,2.03-3.49,2.7-.82.42-.25,1.78.63,1.5h0Z"/>
        <path class="cls-3" d="M50.46,68.81c1.07,0,1.08-1.67,0-1.67s-1.08,1.67,0,1.67h0Z"/>
        <path class="cls-3" d="M61.48,41.54c.19-.14.37-.27.56-.41.1-.08.21-.16.31-.24.11-.1.19-.23.26-.36.11-.18.09-.43-.04-.6-.14-.18-.34-.23-.57-.19-.46.08-.83.38-1.21.62-.3.19-.45.61-.24.93.18.28.62.47.93.24h0Z"/>
        <path class="cls-3" d="M62.68,44.19c.86,0,.86-1.33,0-1.33s-.86,1.33,0,1.33h0Z"/>
        <path class="cls-3" d="M24.14,49.95s.03,0,.05,0l-.69-.19h.02c.11.06.23.11.34.15.19.06.38.07.56.03.13,0,.25-.03.36-.1.18-.06.33-.15.46-.29.2-.2.34-.45.41-.72l.05-.36c.01-.13,0-.26-.05-.38-.08-.24-.19-.41-.35-.6l.34.59v-.02c0,.12.02.23.04.35,0-.03,0-.05,0-.08,0-.22-.06-.47-.18-.65s-.27-.37-.46-.48c-.29-.15-.61-.2-.93-.11-.1.03-.25.09-.34.14-.11.06-.2.16-.3.23l.26-.2-.02.02.66-.18h-.02c.12.02.24.03.35.05-.06-.02-.12-.03-.19-.03-.18-.04-.36-.03-.54.02-.13.04-.25.1-.38.16l.33-.14c-.14.05-.29.09-.41.18l-.29.22c-.14.13-.24.28-.29.46-.06.11-.1.23-.1.36-.04.19-.03.38.03.56v.02c.05-.35.1-.7.14-1.05,0,.02-.02.03-.02.05-.23.42-.24.92,0,1.34.24.42.67.64,1.15.66h0Z"/>
        <path class="cls-3" d="M27.03,42.7c1.35,0,1.35-2.1,0-2.1s-1.35,2.1,0,2.1h0Z"/>
        <path class="cls-3" d="M30.42,48.92c1.26,0,1.26-1.96,0-1.96s-1.26,1.96,0,1.96h0Z"/>
        <path class="cls-3" d="M35.12,38.31c.96-1.96,1.81-3.98,2.76-5.94.88-1.8,1.71-3.34,2.79-5.3.28-.51-2.06,1.23-4.08,4.94-1.02,1.86-1.92,3.81-2.57,5.84-.2.64.79,1.08,1.09.46h0Z"/>
        <path class="cls-3" d="M55.65,41.03c3.29,6.32,9.04,13.25,15.26,16.86,2.96,1.72,6.25,2.97,9.63,3.51,3.14.5,7.12.7,10-.89.56-.31.35-1.36-.35-1.28-1.63.18-3.19.66-4.84.76-1.77.11-3.54-.03-5.28-.37-3.13-.61-6.12-1.82-8.84-3.47-5.84-3.52-9.35-7.94-13.52-13.3-.67-.86-2.41-2.47-2.07-1.81h0Z"/>
        <path class="cls-3" d="M14.07,54.25c.5,1.25,1.38,2.3,2.44,3.13,1.59,1.23,3.36,1.93,5.05,2.96,2.09,1.27,2.77,3.71,3.64,5.87.79,1.96,1.63,3.89,2.55,5.79,1.76,3.64,3.89,7.35,6.75,10.25,2.49,2.52,6.34,5.03,10.55,3.71-6.21-.47-9.92-6.04-11.22-7.79-2.33-3.16-4.12-6.7-5.83-10.22-1.37-2.82-2.62-6.75-5.15-8.77-1.35-1.08-3.1-1.55-4.54-2.5-2.75-1.82-3.55-3.29-4.66-5.15-.01-.02-.03-.04-.05-.04-.1.23-.02.58,0,.82.05.43.11.86.23,1.28.06.23.14.45.23.67Z"/>
        <path class="cls-1" d="M48.45,27.46c.59-.95,1.55-1.54,2.29-2.35.47-.52.13-1.31-.56-1.35-1.74-.1-2.97,1.47-3.48,2.96-.36,1.05,1.19,1.64,1.75.74h0Z"/>
        <path class="cls-1" d="M54.54,24.64c1.05,0,1.05-1.63,0-1.63s-1.05,1.63,0,1.63h0Z"/>
        <path class="cls-1" d="M79.38,50.58c.09,0,.18-.02.27-.03.2-.02.38-.03.56-.14.16-.11.26-.23.38-.38l-.35.35c.09-.07.19-.13.28-.21.35-.32.35-.96,0-1.28-.09-.08-.19-.14-.28-.21l.35.35c-.12-.15-.21-.28-.38-.38s-.36-.12-.56-.14c-.09,0-.18-.02-.27-.03-.25-.02-.57.13-.74.31-.18.18-.32.48-.31.74s.1.55.31.74c.19.18.47.33.74.31h0Z"/>
        <path class="cls-1" d="M51.56,54.61c.09-.06.18-.12.27-.18.16-.11.26-.22.37-.38.03-.04.06-.09.08-.13.13-.24.15-.5.04-.75-.09-.22-.3-.45-.55-.49-.23-.03-.47-.08-.69-.02-.1.03-.2.07-.3.1-.58.19-.9.79-.66,1.37.11.25.28.43.54.54.28.12.64.13.9-.05h0Z"/>
        <path class="cls-1" d="M52.94,57.87c1.01,0,1.01-1.57,0-1.57s-1.01,1.57,0,1.57h0Z"/>
      </g>
      <rect class="cls-2" width="100" height="100"/>
    </g>
  </g>
</svg>