<?xml version="1.0" encoding="UTF-8"?>
<svg id="Capa_2" data-name="Capa 2" xmlns="http://www.w3.org/2000/svg" viewBox="0 0 100 100">
  <defs>
    <style>
      .cls-1 {
        fill: #fff;
      }

      .cls-2 {
        fill: #f2bfb6;
      }

      .cls-3 {
        fill: none;
      }

      .cls-4 {
        fill: #4f3535;
      }

      .cls-5 {
        fill: #eeaca1;
      }
    </style>
  </defs>
  <g id="COLOR">
    <g>
      <g>
        <path class="cls-5" d="M81.76,63.66c-1.65.46-3.41.73-5.09.88-1.38.12-2.7.16-3.85.16-2.29,0-3.88-.16-3.88-.16,0,0-23.88-20.86-30.96-22.53s-18.95.03-18.95.03c0,0-.5-.72-1.01-1.88-.3-.7-.61-1.56-.81-2.52-.39-1.89-.36-4.17.93-6.37,3.03-5.16,6.04-5.96,9.71-6.08,3.68-.12,9.46.95,15.95.09,6.96-.92,15.13.49,18.8,3.52,3.66,3.02,7.58,9.31,13.97,13.57,6.38,4.26,11.8,11.52,12.19,14.79.39,3.28-1.26,4.9-6.99,6.5Z"/>
        <path class="cls-4" d="M76.68,64.54c-1.38.12-2.7.16-3.85.16-.05-.06-.1-.12-.15-.18-.9-1.06-1.9-2.03-2.93-2.97-1.93-1.77-3.98-3.41-5.87-5.23-3.95-3.81-6.34-9.46-11.02-12.44-5.33-3.39-12.14-4.62-18.36-4.86-3.19-.13-6.39.02-9.57.27-2.32.19-4.61.57-6.92.87-.3-.7-.61-1.56-.81-2.52,5.8-1.45,10.86-2.45,16.68-2.18,6.44.3,14.72,2.17,20.31,5.56,5.19,3.15,7.63,9.02,11.91,13.13,2.03,1.95,4.25,3.7,6.31,5.62,1.4,1.32,3.19,2.96,4.26,4.78Z"/>
        <path class="cls-2" d="M21.78,37.55c-4.45.73-10.88,3.66-11.09,8.81-.12,2.92.65,6.5,2.82,8.59,2.98,2.88,4.32,6.98,5.12,10.94.8,3.96,1.33,6.42,6.77,8.49,5.44,2.08,11.31.61,13.89,3.35s3.92,5.75,12.11,4.84c8.19-.91,14.46-1.01,19.09-.71s7.76,1.82,9.83-1.99c2.07-3.81-3.74-14.75-8.62-18.86-2.68-2.26-5.41-4.45-7.98-6.83-2.53-2.33-4.33-4.82-6.35-7.57-2.5-3.41-6.28-5.71-10.3-6.88-4.03-1.17-8.4-1.71-12.56-2.17-4.2-.47-8.53-.69-12.72,0Z"/>
        <path class="cls-4" d="M72.38,59.15c.35.23.77.27,1.18.34.37.06.73.12,1.1.16.76.09,1.53.15,2.3.18s1.49.07,2.22.02,1.45-.15,1.91-.74c.23-.3-.08-.68-.39-.69s-.65.08-.96.13-.64.07-.97.08c-.68.01-1.36,0-2.03-.03s-1.38-.08-2.06-.15c-.37-.04-.74-.07-1.1-.11s-.71-.1-1.07,0c-.4.1-.44.63-.11.84h0Z"/>
        <path class="cls-4" d="M84.04,58.4c.16-.12.32-.23.48-.35l.18-.14c.06-.05.11-.11.17-.17.07-.07.11-.15.12-.25s0-.2-.05-.28c-.04-.06-.09-.12-.15-.16-.05-.03-.1-.05-.16-.05-.06-.01-.11-.01-.17,0-.11.04-.22.07-.32.13l-.2.11c-.14.07-.27.16-.41.24-.12.07-.21.18-.24.31-.02.07-.03.14-.01.21,0,.07.02.14.06.2.07.11.18.21.31.24s.29.03.41-.05h0Z"/>
        <path class="cls-4" d="M52.28,37.08c.37-1.13,1.05-2.19,1.89-3.03.42-.42.89-.77,1.4-1.07.26-.16.54-.3.82-.42.14-.06.28-.12.42-.19.16-.07.29-.2.43-.3.34-.26.03-.75-.32-.78-.7-.06-1.39.33-1.98.68s-1.13.8-1.6,1.3c-.96,1-1.62,2.22-1.89,3.58-.11.54.65.76.82.23h0Z"/>
        <path class="cls-4" d="M39.49,33.7c.4-.92.94-1.76,1.6-2.48.34-.37.69-.71,1.08-1.03s.8-.6,1.2-.97c.35-.32,0-.94-.46-.8-1.05.32-1.98,1.15-2.68,1.96-.74.86-1.32,1.82-1.75,2.87-.24.58.77,1.02,1.02.44h0Z"/>
        <path class="cls-4" d="M33.61,51.77c.32-.57.54-1.19.85-1.76s.65-1.1,1.06-1.59.87-.95,1.37-1.35c.24-.2.5-.38.76-.55.28-.19.62-.38.84-.64.25-.31.13-.91-.36-.87-.75.06-1.42.61-1.99,1.06s-1.07.96-1.53,1.52-.87,1.17-1.2,1.81-.65,1.38-.69,2.13c-.03.47.65.64.87.24h0Z"/>
        <path class="cls-4" d="M47.59,56.43c.31-1.03.77-2,1.38-2.89.29-.42.62-.82.97-1.19.38-.4.8-.77,1.15-1.2.3-.36-.06-.87-.5-.65-1.03.52-1.82,1.57-2.43,2.52s-1.1,2.06-1.39,3.19c-.13.52.65.74.81.23h0Z"/>
        <path class="cls-4" d="M64.34,68.83c.39-.63.84-1.18,1.4-1.68.13-.12.27-.24.41-.35.04-.03.08-.06.12-.1-.05.04.03-.02.05-.03.08-.06.15-.11.23-.16.33-.23.66-.46.97-.71.33-.26-.02-.83-.4-.7-.79.26-1.46.81-2.04,1.4s-1.06,1.23-1.45,1.93c-.25.46.43.87.7.42h0Z"/>
        <path class="cls-4" d="M44.25,76.14c.56.25.95.79,1.4,1.19s.98.7,1.54.93c1.16.48,2.43.62,3.66.72,1.34.11,2.7.2,4.04.11,1.21-.08,2.82-.24,3.73-1.13.27-.26.09-.83-.32-.79-.61.05-1.23.27-1.83.39s-1.21.2-1.82.23c-1.26.07-2.53-.01-3.79-.08-1.13-.06-2.29-.14-3.36-.55s-1.8-1.47-2.96-1.71c-.4-.08-.71.51-.3.7h0Z"/>
        <path class="cls-4" d="M63.51,77.03c.97-.16,1.92-.26,2.9-.24s1.89.02,2.84.06,1.82.16,2.73.24c.78.06,1.71.06,2.28-.55.27-.29.09-.8-.32-.79s-.85.09-1.28.1c-.39,0-.79-.03-1.18-.06-.9-.09-1.8-.17-2.7-.17-1.84,0-3.68.31-5.48.65-.51.1-.29.86.21.77h0Z"/>
        <path class="cls-4" d="M23.61,60.91c1.57.18,3.14.37,4.69.7s3.06.79,4.55,1.32c2.96,1.05,5.85,2.34,8.69,3.68,1.36.64,2.84,1.4,3.93,2.45.28.27.71-.07.53-.4-.7-1.33-1.77-2.16-3.09-2.83-1.4-.71-2.85-1.33-4.28-1.96-3.06-1.35-6.19-2.6-9.46-3.34-1.82-.41-3.68-.71-5.54-.6-.64.04-.63.91,0,.98h0Z"/>
        <path class="cls-4" d="M48.24,71.4c.53,0,.53-.82,0-.82s-.53.82,0,.82h0Z"/>
        <path class="cls-1" d="M23.33,31.85c.15-.33.34-.63.56-.92l-.12.15c.25-.33.55-.61.86-.88.04-.03.08-.06.11-.1.02-.01.1-.1.12-.09,0,0-.14.11-.06.04.06-.04.12-.09.17-.13.04-.03.07-.06.11-.09.07-.06.13-.13.18-.21.06-.09-.08.09-.03.03.02-.02.03-.03.05-.05.11-.12.23-.23.27-.4.05-.2-.02-.45-.22-.55-.18-.09-.31-.09-.51-.07-.04,0-.07.01-.11.02-.14.02.08,0,.03,0-.08,0-.2,0-.26.03-.08.03-.16.06-.23.1-.07.03-.14.06-.2.1-.31.18-.59.4-.85.64-.47.46-.88,1.02-1.16,1.62-.09.19-.13.36-.08.57.05.17.18.36.34.44.33.17.84.11,1.01-.26h0Z"/>
        <path class="cls-1" d="M27.34,28.61l.26-.09c.09-.03.17-.06.25-.11l.11-.07.11-.08c.05-.05.09-.1.11-.17.02-.04.04-.09.04-.13.02-.07.01-.14,0-.21l-.05-.13-.08-.11c-.05-.05-.1-.09-.17-.11-.06-.03-.13-.05-.21-.05h-.13s-.05-.02-.07-.02c-.07,0-.15.02-.22.03l-.27.04c-.08.02-.15.06-.21.11-.07.04-.12.1-.16.17-.05.07-.07.15-.08.23-.02.08-.02.17,0,.25l.06.15c.05.09.13.17.22.23l.15.06c.11.03.22.03.33,0h0Z"/>
        <path class="cls-1" d="M79.19,53.13l.46-.2c.08-.03.15-.07.22-.11s.15-.08.21-.15c.03-.03.05-.06.08-.09.06-.07.11-.15.14-.24l.02-.14c0-.07-.01-.14-.05-.21-.01-.05-.04-.09-.07-.12-.02-.04-.06-.07-.1-.1-.1-.08-.2-.11-.32-.12-.04,0-.08,0-.12,0-.09,0-.18.02-.26.05-.08.02-.16.05-.24.08l-.46.19c-.11.03-.2.08-.28.16l-.1.13c-.06.1-.09.2-.09.32,0,.09.01.17.05.24.03.08.07.15.13.2.06.06.12.11.2.13.08.04.16.06.24.06.11,0,.22-.03.32-.08h0Z"/>
        <path class="cls-1" d="M76.94,49.91c.74,0,.75-1.15,0-1.16s-.75,1.15,0,1.16h0Z"/>
        <path class="cls-1" d="M59.57,57.63l.45-.4s.07-.06.1-.1l.1-.12c.06-.07.12-.14.17-.22.03-.04.05-.09.07-.14.11-.19.09-.42-.04-.6-.02-.04-.06-.07-.1-.1-.03-.03-.07-.06-.12-.07-.1-.04-.24-.07-.35-.03-.14.05-.27.1-.39.17l-.13.07c-.09.05-.16.12-.24.18l-.48.39c-.07.06-.11.13-.14.22-.04.08-.06.17-.06.26,0,.09.01.18.06.26.03.08.07.16.14.22.13.12.3.21.48.2l.18-.02c.12-.03.22-.09.3-.17h0Z"/>
        <path class="cls-1" d="M17.42,45.58l.7-1.08c.11-.18.22-.36.31-.55.05-.1.09-.2.13-.3.04-.09.08-.17.1-.26.03-.13.02-.24,0-.37-.06-.29-.39-.44-.66-.38-.28.06-.47.3-.65.51-.16.19-.32.4-.46.62l-.7,1.08c-.2.31-.08.8.25.98.35.19.76.08.98-.25h0Z"/>
        <path class="cls-1" d="M21.75,45.65c.84,0,.85-1.31,0-1.31s-.85,1.31,0,1.31h0Z"/>
        <path class="cls-1" d="M30.96,70.96l.37-.02c.12,0,.24,0,.34-.05l.08-.03s.07-.03.11-.04c.08-.02.14-.07.2-.13.04-.04.07-.08.1-.13.11-.17.11-.44,0-.61-.06-.09-.13-.17-.22-.23-.04-.03-.12-.05-.17-.07l-.08-.03c-.11-.05-.23-.05-.35-.06l-.37-.02c-.1,0-.19.02-.27.06-.09.03-.16.08-.23.15-.07.06-.12.14-.15.23-.04.08-.07.18-.06.27l.02.19c.03.12.09.23.18.31.13.12.31.22.5.21h0Z"/>
      </g>
      <rect class="cls-3" width="100" height="100"/>
    </g>
  </g>
</svg>