<?xml version="1.0" encoding="UTF-8"?>
<svg id="Capa_2" data-name="Capa 2" xmlns="http://www.w3.org/2000/svg" viewBox="0 0 100 100">
  <defs>
    <style>
      .cls-1 {
        fill: #fff;
      }

      .cls-2 {
        fill: none;
      }

      .cls-3 {
        fill: #4a2d2d;
      }

      .cls-4 {
        fill: #eeaca1;
      }
    </style>
  </defs>
  <g id="COLOR">
    <g>
      <g>
        <path class="cls-1" d="M65.56,62.01l10.69,11.82s6.15-1.94,9.23.16,3.4,5.99-.32,7.61-4.4,1.18-4.4,1.18c0,0,.19,4.81-4.5,5.46s-5.02-2.59-4.86-3.89,1.17-3.65,1.17-3.65l-12.99-12.05s-.49-6.48.16-6.8,5.83.16,5.83.16Z"/>
        <g>
          <path class="cls-3" d="M57.41,67.01c4.34,5.25,9.49,9.93,15.16,13.7-.05-.42-.11-.84-.16-1.26-2.87,2.97-2.37,8.16,1.84,9.59,3.91,1.33,7.57-2.36,6.51-6.26-.25.33-.5.66-.75.98,4.19.25,9.77-2.42,8.53-7.52-1.32-5.44-8.72-3.99-12.57-3.19l.84.34c-3.21-5.37-8.02-10.16-12.7-14.24-.76-.66-1.82.37-1.11,1.11,4.31,4.58,8.25,9.55,12.65,14.03.25.26.6.25.9.12,2.71-1.19,9.17-1.68,10.35,2.01,1.34,4.19-3.74,5.9-6.88,5.79-.5-.02-.89.51-.75.98.86,2.87-1.77,5.4-4.6,4.38-3.08-1.11-3.17-4.9-1.11-6.99.28-.28.35-.87,0-1.13-5.35-4.17-10.36-8.61-15.08-13.48-.68-.7-1.64.33-1.05,1.05h0Z"/>
          <path class="cls-4" d="M23.95,20.41c-8.89,6.38-12.2,16.53-10.55,26.53,1.65,10,5.59,15.9,17.71,17.24,12.12,1.34,15.9-.39,21.09,3.15,5.19,3.54,8.58,7.56,8.97,7.56s.79-3.38.47-5.27c-.31-1.89-1.1-2.83-1.1-2.83,0,0,4.72,3.86,6.45,4.25,1.73.39-.55-6.06-.55-6.06,0,0,3.62.24,5.43-.31,1.81-.55,1.97-1.18,2.05-1.57s-8.89-4.88-10.55-8.89c-1.65-4.01,1.65-16.06,0-24.09-1.65-8.03-10.47-12.99-15.82-14.48-5.35-1.5-14.72-1.57-23.61,4.8Z"/>
          <path class="cls-1" d="M23.72,42.8s-.04-.05-.06-.08c-.02-.03-.05-.06-.07-.09-.1-.17-.23-.3-.4-.4-.21-.2-.47-.33-.76-.4-.2-.03-.39-.05-.59-.08-.2.03-.39.05-.59.08-.29.07-.54.2-.76.4-.24.16-.43.36-.57.62-.22.38-.33.78-.33,1.22,0,.41.12.88.34,1.23.2.34.47.61.82.82.36.21.74.31,1.15.31.2-.03.4-.05.61-.08.39-.11.72-.3,1.01-.59.22-.21.38-.45.47-.73.14-.27.21-.56.2-.88,0-.49-.16-.97-.45-1.35,0,0,0,0,0,0Z"/>
          <path class="cls-1" d="M27.42,39.71c.23-.07.42-.2.59-.38.18-.17.3-.36.38-.59.11-.22.17-.45.16-.7-.02-.16-.04-.32-.07-.49-.09-.31-.24-.58-.47-.81-.12-.1-.25-.19-.37-.29-.29-.17-.59-.25-.92-.25-.25,0-.49.04-.7.16-.23.07-.42.2-.59.38-.18.17-.3.36-.38.59-.11.22-.17.45-.16.7.02.16.04.32.07.49.09.31.24.58.47.81.12.1.25.19.37.29.29.17.59.25.92.25.25,0,.49-.04.7-.16Z"/>
          <path class="cls-1" d="M30.48,48.16c-.15-.12-.3-.23-.45-.35-.35-.2-.72-.3-1.12-.3-.31-.01-.59.05-.86.19-.28.09-.51.24-.72.46-.22.2-.37.44-.46.72-.14.26-.2.55-.19.86.03.2.05.39.08.59.11.38.3.7.57.98.15.12.3.23.45.35.35.2.72.3,1.12.3.31.01.59-.05.86-.19.28-.09.51-.24.72-.46.22-.2.37-.44.46-.72.14-.26.2-.55.19-.86-.03-.2-.05-.39-.08-.59-.11-.38-.3-.7-.57-.98Z"/>
        </g>
      </g>
      <rect class="cls-2" width="100" height="100"/>
    </g>
  </g>
</svg>