<?xml version="1.0" encoding="UTF-8"?>
<svg id="Capa_2" data-name="Capa 2" xmlns="http://www.w3.org/2000/svg" viewBox="0 0 100 100">
  <defs>
    <style>
      .cls-1 {
        fill: #fff;
      }

      .cls-2 {
        fill: none;
      }

      .cls-3 {
        fill: #4a2d2d;
      }

      .cls-4 {
        fill: #d5343a;
      }

      .cls-5 {
        fill: #f2a480;
      }
    </style>
  </defs>
  <g id="COLOR">
    <g>
      <g>
        <path class="cls-1" d="M69.64,56.93c-4.24-8.24-5.68-20.2-14.84-24.78-8.11-4.05-17.2,1.09-21.67,8.02.14,4.56.06,9.42.35,13.98.06.9.13,1.79.2,2.69.06.41.09.82.11,1.23.28,3,.66,5.99,1.08,8.98.54,3.78,1.16,7.56,2.04,11.27.45,1.9.99,3.79,1.59,5.66.45,1.38,1.21,2.75,1.64,4.16,2.15-2.37,4.04-4.68,5.34-7.73.27-.62,1.11-.44,1.42,0,1.07,1.54,2.69,4.5,4.98,3.42,2.11-.99,2-4.45,1.47-6.33-.18-.65.1-1.42.57-.91,1.54,1.64,4.29,4.54,6.81,3.76,2.74-.84,2.79-5.2,1.5-7.3-.06-.08-.11-.17-.17-.25-1.09-1.29-.42-2.13.23-1.45,1.58,1.66,5.92,4.16,7.43,1.5,1.06-1.87,1.18-4.43.23-6.29-.61-1.2-.08-1.63.59-.93,1.8,1.87,6.23,2.73,8.57,1.45-4.14-2.24-7.34-5.99-9.49-10.16Z"/>
        <g>
          <path class="cls-4" d="M82.47,33.55c-1.75-6.09-9.05-3.42-9.05-3.42,0,0,7.15-9.21,2.28-12.1-4.87-2.89-10.42,4.95-10.42,4.95,0,0,.99-10.2-3.5-11.79-4.49-1.6-7.91,1.37-11.19,7.91-2.13,4.25-2.74,8.57-2.91,11.07.71-.12,1.42-.19,2.15-.18,1.09.02,2.19.15,3.25.41,3.87.95,7.12,3.43,9.51,6.56,1.29,1.7,2.36,3.59,3.22,5.55.39.89.75,1.8,1.06,2.72,6.21-1.78,17.26-5.9,15.6-11.67Z"/>
          <path class="cls-4" d="M32.02,53.79s-3.42,2.28-5.02,8.22c-1.6,5.94-1.67,9.36,1.52,10.2,3.2.84,4.87-7.91,5.17-10.12.3-2.21-1.67-8.29-1.67-8.29Z"/>
          <path class="cls-5" d="M32.63,42s-12.02-4.03-12.4-3.42.53,4.69,4.71,6.59c4.18,1.9,6.85,2.31,6.85,2.31,0,0-10.65,4.57-10.96,5.33-.3.76,11.79,1.22,11.79,1.22v-12.02Z"/>
          <g>
            <path class="cls-3" d="M81.64,66.22c-2.25-1.69-4.58-3.35-6.48-5.45-1.82-2.01-3.12-4.46-4.23-6.91-1.52-3.37-2.74-6.83-4.11-10.25-2.36-5.86-6.16-11.86-12.47-13.94-3.98-1.31-8.37-.74-12.17.9-3.32,1.43-6.39,3.69-8.56,6.59-.54.72-1.05,1.49-1.44,2.31-.42.88-.44,1.95-.54,2.93-.93,9.05.1,18.07,1.32,27.03.06.44.13.88.19,1.32.09.6.18,1.2.28,1.8.36,2.24.78,4.46,1.32,6.66.48,1.99,1.05,3.96,1.79,5.87.6,1.56,1.19,3.48,2.36,4.71.24.26.53.31.79.24.1,0,.22-.02.33-.09,2.75-1.74,4.87-4.62,6.34-7.55,1.55,2.1,3.5,4.63,6.34,3.06,2.23-1.24,2.54-3.37,2.35-5.53,1.89,1.94,4.38,3.33,7.04,1.73,2.29-1.38,2.81-3.93,2.45-6.36,1.83,1.01,4.12,1.2,5.73-.21,1.81-1.59,2.48-3.95,2.27-6.25,2.88,1.44,6.29.98,8.96-.86.54-.37.76-1.29.15-1.75ZM70.56,65.63c-.67-.7-1.2-.27-.59.93.94,1.86.83,4.42-.23,6.29-1.51,2.66-5.85.16-7.43-1.5-.65-.68-1.32.15-.23,1.45.05.09.11.17.17.25,1.3,2.1,1.24,6.45-1.5,7.3-2.52.78-5.27-2.12-6.81-3.76-.47-.51-.75.27-.57.91.53,1.89.64,5.34-1.47,6.33-2.29,1.07-3.91-1.88-4.98-3.42-.31-.44-1.16-.62-1.42,0-1.3,3.04-3.19,5.36-5.34,7.73-.42-1.4-1.19-2.77-1.64-4.16-.6-1.86-1.14-3.75-1.59-5.66-.88-3.71-1.51-7.49-2.04-11.27-.42-2.98-.8-5.98-1.08-8.98-.02-.42-.05-.83-.11-1.23-.08-.9-.15-1.79-.2-2.69-.29-4.55-.2-9.42-.35-13.98,4.47-6.93,13.56-12.07,21.67-8.02,9.15,4.57,10.6,16.54,14.84,24.78,2.15,4.17,5.34,7.91,9.49,10.16-2.34,1.27-6.77.42-8.57-1.45Z"/>
            <path class="cls-3" d="M43.12,44.92c-.56,2.44,1.09,5.18,3.88,4.56,2.41-.54,3.72-3.69,2.04-5.66-1.6-1.87-5.31-1.52-5.91,1.1Z"/>
          </g>
          <path class="cls-3" d="M31.88,46.82c-.08,0-.16-.01-.24-.02-1.52-.2-3.03-.56-4.46-1.1-3.16-1.19-5.43-3.78-6.56-6.94-.26-.72-1.33-.44-1.15.32.8,3.43,3.2,6.39,6.4,7.87,1.62.75,3.86,1.57,6.02,1.82-.03-.65-.03-1.3,0-1.94Z"/>
          <path class="cls-3" d="M21.3,53.03c1.64-.66,3.18-1.63,4.78-2.4,1.59-.76,3.4-1.31,4.79-2.4.52-.41-.06-1.14-.59-1.02-1.61.35-3.1,1.4-4.55,2.17-1.6.85-3.37,1.61-4.85,2.64-.48.33-.2,1.27.43,1.02h0Z"/>
        </g>
      </g>
      <rect class="cls-2" width="100" height="100"/>
    </g>
  </g>
</svg>