<?xml version="1.0" encoding="UTF-8"?>
<svg id="Capa_2" data-name="Capa 2" xmlns="http://www.w3.org/2000/svg" viewBox="0 0 100 100">
  <defs>
    <style>
      .cls-1 {
        fill: #fff;
      }

      .cls-2 {
        fill: #f2bfb6;
      }

      .cls-3 {
        fill: none;
      }

      .cls-4 {
        fill: #4a2d2d;
      }

      .cls-5 {
        fill: #eeaca1;
      }
    </style>
  </defs>
  <g id="COLOR">
    <g>
      <g>
        <path class="cls-1" d="M78.88,47.39l7.33-3.56s-.86-2.48-.43-4.42,2.91-3.45,4.74-2.48,2.26,2.26,1.83,3.99-.75,3.12-.75,3.12c0,0,4.96,0,5.28,2.59s-2.05,3.88-3.45,3.77-4.42-1.72-4.42-1.72l-8.51,3.77-1.62-5.06Z"/>
        <g>
          <path class="cls-4" d="M96.79,45.04c-1.21-1.43-2.86-1.6-4.55-1.46.82-1.35,1.31-2.84.85-4.46-.46-1.62-1.87-2.85-3.56-2.99-4.24-.36-4.95,4.07-3.89,7.19-2.13.87-4.38,1.74-6.3,2.95-.56.36-.21,1.29.46,1.1,2.43-.71,4.84-1.95,7.1-3.06.35-.17.42-.65.25-.96-.54-1-.87-2.16-.69-3.3.28-1.7,1.9-3.06,3.67-2.21,2.39,1.16,1.38,4.32.5,6.14-.2.42.13.95.62.81,1.32-.37,3.11-.17,4.11.88,1.12,1.18,1.22,3.09-.53,3.7-1,.35-2.41.59-4.3-.5-.22-.13-1.19-.92-1.37-.99-.2-.07-.36-.07-.56-.02-.49.11-2.5.92-3.03,1.14-.38.16-.76.33-1.12.52-1.17.6-2.69,1.2-3.41,2.35-.3.47.02.64.13,1.1.07.31,2.96-1.5,4.06-2.11,1.14-.64,2.26-1.32,3.42-1.93,1.31,2.72,6.62,2.78,8.32.47.96-1.31.86-3.12-.18-4.36Z"/>
          <path class="cls-5" d="M61.35,32.38c-10.9-6.2-24.77-10.18-38.87.8C8.37,44.16,4.79,54.96,3.4,58.11c-2.4,5.45-.82,10.86,2.64,13.71,4.97,4.09,16.67,6.73,33.02,6.57,16.35-.16,39.75-2.48,44.4-3.53,4.65-1.04,5.53-1.2,5.45-2.89s-2.97-2-5.45-5.93c-2.48-3.93-6.49-24.77-22.12-33.66Z"/>
          <path class="cls-2" d="M34.82,67.97c-5.05-3.21-13.36-1.72-13.36-1.72,0,0,5.44-4.99,5.93-12.28.48-7.29-.9-5.98-5.39-3.02-4.49,2.97-10.51,11.43-11.31,16.16-.8,4.73-1.99,11.6,11.47,13.04,13.47,1.44,14.76-1.79,15.24-2.59.48-.8,2.46-6.38-2.59-9.59Z"/>
          <path class="cls-2" d="M68.65,44.56c-8.98,1.28-19.56,5.18-23.49,12.63-3.93,7.45-3.44,16.3,2.09,20.55,5.53,4.25,14.27,5.85,21.32,4.33,7.05-1.52,8.76-4.33,10.21-7.85,1.44-3.53-3.81-8.54-5.49-9.26-1.68-.72-4.52-1.83-4.52-1.83,0,0,8.23-3.73,11.28-7.18,3.05-3.45,2.48-5.29,1.68-7.45s-4.09-5.21-13.06-3.93Z"/>
          <path class="cls-1" d="M21.96,38.87c1.76-1.43,3.55-2.77,5.56-3.83,1.87-.98,4.1-1.34,5.87-2.42.75-.46.45-1.69-.46-1.68-2.13.03-4.55,1.45-6.36,2.49-2.07,1.2-4.03,2.65-5.65,4.41-.65.7.31,1.61,1.03,1.03h0Z"/>
          <path class="cls-1" d="M37.51,31.87c1.14,0,1.15-1.78,0-1.78s-1.15,1.78,0,1.78h0Z"/>
          <path class="cls-1" d="M59.27,36.56c.13-.01.26-.03.38-.05l.27-.11c.13-.07.24-.17.32-.29.07-.07.12-.15.15-.25.07-.13.1-.28.1-.43l-.04-.3-.11-.27c-.07-.13-.17-.24-.29-.32-.11-.1-.24-.17-.38-.2-.13-.02-.25-.04-.38-.05-.16,0-.3.03-.44.1-.14.05-.26.12-.37.23-.11.1-.19.22-.23.37-.07.14-.1.28-.1.44l.04.3c.05.19.15.36.29.5l.23.18c.18.1.37.15.57.16h0Z"/>
          <path class="cls-1" d="M63.19,39.47c.09-.08.18-.16.26-.25.12-.13.2-.28.29-.42.28-.45-.08-1.15-.63-1.1-.17.01-.35.01-.51.05-.12.03-.23.07-.34.11-.31.11-.6.34-.68.68-.06.25-.04.52.1.74.32.54,1.07.62,1.52.2h0Z"/>
          <path class="cls-1" d="M15.03,71.93c-.23-1.13-.14-2.43.18-3.54.28-.99,1-1.76,1.11-2.78.05-.44-.48-.8-.88-.67-1.27.43-1.81,1.92-2.11,3.13-.36,1.48-.2,2.83.37,4.22.33.81,1.5.52,1.32-.36h0Z"/>
          <path class="cls-1" d="M17.79,63.39c1.17,0,1.17-1.82,0-1.82s-1.17,1.82,0,1.82h0Z"/>
          <path class="cls-1" d="M47.74,60.59c-1.01,2.71-2.07,7.85.85,9.77.53.35,1.48-.2,1.2-.92-.42-1.13-1.05-2.11-1.25-3.32-.28-1.74.16-3.48.56-5.16.21-.9-1.05-1.22-1.36-.38h0Z"/>
          <path class="cls-4" d="M11.75,75.88c.42-.27-.46-3.22-.54-4.72-.2-3.64,1.96-7.44,3.8-10.41,1.55-2.51,3.33-4.93,5.39-7.03.75-.76,1.53-1.49,2.35-2.17.72-.6,1.81-1.7,2.76-1.93,2.58-.61.74,6.71.28,8.1-1.16,3.5-3.26,5.9-5.41,8.82-.51.7.64,1.37,1.15.68,3.39-4.58,8.01-10.77,6.81-16.9-1-5.11-6.16-.34-8.04,1.35-4.28,3.85-7.92,9.1-9.81,14.61-.93,2.7-1.17,5.51.1,8.13.24.5.66.99,1.17,1.47Z"/>
          <path class="cls-4" d="M21.07,67.57c3.51-.8,7.27-1.02,10.79-.12,1.54.4,3.37,1.22,4.32,2.54,1.1,1.52,1.29,4.75,1.11,7.03-.03.43.29.81.45.33.84-2.52,1.11-5.51.09-7.45-.82-1.56-2.25-2.61-3.85-3.28-3.97-1.64-9.23-1.81-13.27-.36-.81.29-.49,1.49.36,1.29h0Z"/>
          <path class="cls-4" d="M63.71,45.49c-7.63,1.61-16.98,5.48-20.26,13.18-2.73,6.4-1.13,15.53,4.64,19.69.46.16-.1-.71-.22-.9-1.49-2.3-2.33-4.51-3.12-7.13-.02-.05-.03-.1-.05-.16-.75-2.52-.91-5.23-.45-7.82.12-.65.27-1.29.47-1.91,2.08-6.44,9.62-10.51,15.6-12.66,5.57-2,14.17-3.4,14.11-3.42-3.54-.23-7.35.42-10.73,1.14Z"/>
          <path class="cls-4" d="M69.95,63.16c3.04-1.55,5.95-3.68,8.54-5.77.31-.25.8-.77,1.12-1.03-.11-.06-.53-.19-1.89.53-.75.39-1.68.96-2.42,1.36-1.32.71-2.71,1.56-4.05,2.22s-2.54,1.17-3.77,2.01c-.68.47-.28,1.39.38,1.63,3.07,1.12,6.59,2.42,8.94,5.63,2.01,2.75,1.57,5.81,1.78,5.83.84-1.66,1.02-3.64.15-5.51-1.54-3.36-5.27-5.65-8.79-6.91Z"/>
          <path class="cls-4" d="M32.59,49.65c1.18,0,1.18-1.83,0-1.83s-1.18,1.83,0,1.83h0Z"/>
          <path class="cls-4" d="M31.04,62.21c.99,0,.99-1.54,0-1.54s-.99,1.54,0,1.54h0Z"/>
          <path class="cls-4" d="M38.2,58.72h.03s0-.01.01-.02c.05-.02.1-.04.14-.06.05-.02.1-.04.14-.06.17-.1.31-.24.41-.41.1-.18.15-.37.15-.57,0-.2-.05-.4-.15-.57-.1-.17-.24-.31-.41-.41-.11-.05-.22-.1-.33-.14-.2-.06-.41-.06-.61,0-.2.05-.37.15-.51.3l-.18.23c-.1.18-.16.38-.16.58,0,.16.03.31.1.45.05.14.13.27.24.37.14.14.31.24.51.3.2.06.41.06.61,0h0Z"/>
          <path class="cls-4" d="M60.46,56.87l-.04.07c-.04.08-.09.17-.11.26l-.04.27c0,.11.01.21.05.3v-.52.02c-.05.17-.05.34,0,.51.05.16.13.3.25.43.25.25.6.33.94.25h.02c-.17,0-.35,0-.52,0,.05.02.11.03.16.03.14.03.27.02.41-.02l.25-.1h.02s.04-.04.07-.05c.16-.09.29-.22.38-.38.1-.17.14-.34.14-.53l-.04-.28c-.05-.18-.14-.33-.27-.47-.1-.1-.21-.18-.34-.22-.13-.07-.26-.1-.41-.09-.19,0-.37.05-.53.14-.16.09-.29.22-.38.38h0Z"/>
          <path class="cls-4" d="M57.63,67.59c.17,0,.32-.03.47-.1.15-.05.28-.13.39-.25.12-.11.2-.24.25-.39.08-.14.11-.3.1-.47l-.04-.32c-.06-.21-.16-.38-.31-.54l-.25-.19c-.19-.11-.39-.16-.61-.17-.17,0-.32.03-.47.1-.15.05-.28.13-.39.25-.12.11-.2.24-.25.39-.08.14-.11.3-.1.47l.04.32c.06.21.16.38.31.54l.25.19c.19.11.39.16.61.17h0Z"/>
          <path class="cls-4" d="M55.07,62.9c1.06,0,1.06-1.65,0-1.65s-1.06,1.65,0,1.65h0Z"/>
        </g>
      </g>
      <rect class="cls-3" width="100" height="100"/>
    </g>
  </g>
</svg>