<?xml version="1.0" encoding="UTF-8"?>
<svg id="Capa_2" data-name="Capa 2" xmlns="http://www.w3.org/2000/svg" viewBox="0 0 100 100">
  <defs>
    <style>
      .cls-1 {
        fill: #fff;
      }

      .cls-2 {
        fill: none;
      }

      .cls-3 {
        fill: #4a2d2d;
      }

      .cls-4 {
        fill: #d5343a;
      }
    </style>
  </defs>
  <g id="COLOR">
    <g>
      <g>
        <path class="cls-1" d="M96.66,62.01s-1.22-3.22-2.78-4.56-7.78-8.89-11.56-11.33-26.67-14.56-45.67-13.22S7.99,41.24,6.33,50.9s31.14,24.72,31.89,24.33c3-1.56,8.67-13.11,15.11-18.22s22.78-6.78,27.56-4.22,8.11,7.89,8.33,9.44,2.22,5.33,4,5.11,3.56-2.33,3.44-5.33Z"/>
        <g>
          <path class="cls-4" d="M91.96,66.83c-.84-.6-1.4-1.65-1.71-2.58-.38-1.15-.39-2.39.05-3.51.02-.05.04-.11.06-.16,0-.01,0-.03.02-.04.06-.15.14-.3.23-.45,0-.01.01-.02.02-.04.7-1.19,1.93-1.76,3.24-2.02.29-.06.62-.11.94-.1-.15-.22-.27-.45-.37-.7-1.95-2-4.99-4.78-8.35-6.45-5.71-2.85-19.03-5.55-28.38-2.85-9.35,2.7-16.01,12.84-17.36,16.81-1.35,3.96-.55,7.29-3.25,7.45-2.7.16-5.13-5.87-6.45-7.14-1.32-1.27-5.6-2.22-8.93-3.33-3.33-1.11-8.4-2.22-10.78-5.55-1.86-2.61-2.85-6.09-3.19-7.71.47-1.28,1.1-2.49,1.92-3.57.4-.53-.51-1.25-.93-.72-3.3,4.13-3.68,9.25-3.61,14.34.07,5.05,1.96,9.54,6.27,12.4,4.78,3.18,10.82,3.33,15.77,6.13,1.28.73,2.42,1.6,3.49,2.6.83.77,1.6,1.52,2.66,1.96,1.97.84,4.14.64,5.93-.48.1,0,.2-.04.3-.1,1.73-1.03,2.87-2.91,3.88-4.59,1.42-2.37,2.61-4.87,3.96-7.28,3.28-5.88,8.81-11.41,15.3-13.55,5.96-1.97,13.15-1.55,18.69,1.45,2.85,1.54,5.2,3.7,7.1,6.31.94,1.28,2.01,2.89,3.51,3.57,0-.03-.01-.07-.01-.1Z"/>
          <path class="cls-4" d="M57.46,38.65c-5.43-2.19-11.22-3.21-17.08-3.11-5.8.1-11.56,1.16-17,3.17-2.95,1.09-10.98,4.68-5.75,8.33,2.11,1.48,4.76,1.87,7.26,2.2,3.23.42,6.5.37,9.74.14,1.61-.12,3.29-.45,4.91-.37,1.23.06,2.39.4,3.04,1.49.64,1.07.23,2.11-.32,3.13-1.22,2.28-5.44,6.03-8.19,4.36-1.67-1.01-1.77-2.84-1.07-4.43.35-.79.7-1.55.09-2.33-1.14-1.45-4.57-1.12-6.15-1.12-1.54,0-3.07.06-4.6-.15-1.8-.24-3.16-1.06-4.76-1.82-1.75-.83-3.61-.46-4.75,1.18-1.39,1.99-.75,4.47.77,6.18,2.1,2.37,5.44,3.04,8.37,3.79,6,1.54,16.28,4.28,15.9,12.3-.02.52.79.52.81,0,.02-.42,0-.83-.05-1.23.2-.75.76-2.82,1.7-5.63,1.19-3.57,6.66-11.3,11.18-13.91,4.31-2.49,10.45-3.37,12.04-3.75.16.28.64.39.89.04,3.13-4.37-4.01-7.25-6.99-8.46Z"/>
          <path class="cls-1" d="M30.08,76.02c-.07-3.27.35-6.53.32-9.78,0-.32-.48-.4-.57-.08-.82,3.1-.8,6.68-.53,9.86.04.49.79.51.77,0h0Z"/>
          <path class="cls-1" d="M26.2,65.43c-.06,1.18-.18,2.38-.04,3.56.04.31.52.45.6.08.25-1.19.23-2.43.28-3.64.02-.54-.81-.54-.84,0h0Z"/>
          <path class="cls-1" d="M22.9,65.42c-.06,2.17-.32,4.43-.03,6.58.05.35.63.33.69,0,.38-2.14.21-4.42.25-6.58,0-.58-.89-.58-.91,0h0Z"/>
          <path class="cls-1" d="M53.49,58.64c.19-1.22.5-2.62.3-3.85-.05-.31-.54-.29-.61,0-.29,1.19-.2,2.54-.33,3.77-.04.36.58.45.64.09h0Z"/>
          <path class="cls-1" d="M56.31,57.52c0-2.26.49-4.59.37-6.83-.02-.35-.5-.4-.62-.08-.78,2.11-.63,4.71-.56,6.91.02.49.8.5.8,0h0Z"/>
          <path class="cls-1" d="M60.35,54.86c.15-1,.41-2.3.03-3.27-.12-.31-.6-.37-.7,0-.26.98-.1,2.13-.22,3.15-.06.5.82.63.89.12h0Z"/>
          <path class="cls-1" d="M65.64,53.45c.13-.87.3-1.87.03-2.73-.09-.28-.54-.32-.61,0-.16.83-.07,1.69-.19,2.52-.07.49.68.71.76.21h0Z"/>
          <path class="cls-1" d="M71.85,53.28c.26-1.44.55-3.01.31-4.47-.04-.26-.55-.26-.6,0-.26,1.44-.22,2.93-.43,4.38-.05.35.65.43.71.08h0Z"/>
          <path class="cls-3" d="M95.98,59.64c-.92-1.55-2.89-1.85-4.36-.87-1.59,1.06-2.24,3.15-1.64,4.93.09.27.57.25.54-.07-.17-1.39,0-2.83,1.08-3.84,1.21-1.14,2.8-.91,3.89.23.25.25.67-.07.49-.38h0Z"/>
          <path class="cls-3" d="M91.08,65.47c.23,0,.23-.36,0-.36s-.23.36,0,.36h0Z"/>
          <path class="cls-1" d="M23.75,44.26c.62-.52,1.34-.92,2.07-1.25.68-.31,1.48-.48,1.91-1.13.23-.34.05-.77-.26-.98-.78-.54-1.95-.09-2.72.28-.89.43-1.63,1.08-2.27,1.83-.74.88.38,1.99,1.26,1.26h0Z"/>
          <path class="cls-1" d="M32.49,41.03c1.12,0,1.12-1.74,0-1.74s-1.12,1.74,0,1.74h0Z"/>
          <path class="cls-1" d="M56.76,44.35c.14.01.27.01.41-.02.17-.04.32-.14.44-.25.09-.08.15-.18.19-.3.02-.04.04-.08.05-.12.01-.04.02-.09.02-.13.02-.08.02-.17,0-.25,0-.09-.02-.17-.07-.24-.01-.04-.03-.08-.05-.12-.05-.09-.13-.17-.19-.25l-.07-.08c-.13-.13-.28-.22-.46-.27-.18-.05-.37-.05-.55,0-.18.05-.33.14-.46.27-.1.09-.17.2-.21.33-.06.12-.09.26-.09.4,0,.19.05.36.14.52.09.16.22.28.37.37.16.09.34.14.52.14h0Z"/>
          <path class="cls-1" d="M29,55.37s.08-.09.13-.13l-.14.11c.09-.06.17-.11.25-.18.24-.2.24-.66,0-.86-.08-.07-.17-.13-.25-.18l.14.11s-.09-.09-.13-.13c-.27-.24-.63-.33-.97-.18-.31.13-.56.46-.55.81.01.31.17.61.44.77.36.21.78.13,1.08-.14h0Z"/>
          <path class="cls-3" d="M96.59,59.15c-1.23-2.15-3.7-4.03-5.45-6.01-9.95-11.24-27.59-18.42-43.54-20.52-10.07-1.33-20.6-.88-29.82,3.76-4.05,2.04-8.09,4.91-9.92,9.23-1.78,4.21.12,9.1,3.33,12.06,4.36,4,10.42,4.74,15.9,6.26,1.84.51,3.59,1.14,4.56,2.92.66,1.21.97,2.59,1.69,3.76,1.08,1.75,2.86,2.79,4.82,2.17.2,1.21.37,2.44.47,3.65.11,1.36-.22,2.58-.25,3.9-.01.47.63.75.95.4.91-1,.77-2.81.7-4.06-.1-1.65-.44-3.21-1.01-4.74,1.02-2.86,1.62-5.77,2.94-8.55,1.31-2.77,2.92-5.37,5.01-7.62,3.17-3.42,7.21-5.95,11.74-7.06,7.91-1.94,16.91-1.44,24.39,1.83,2.32,1.02,4.57,2.26,6.6,3.79,1.28.97,2.35,2.11,3.41,3.26-.68.1-1.35.36-1.93.84-2.38,1.98-2.38,6.2-.3,8.37,3.98,4.16,8.17-4.04,5.72-7.63ZM71.83,46.25c-8.79-.94-18.01.84-24.63,7-2.57,2.39-4.77,5.37-6.36,8.49-1.46,2.87-2.92,6.29-3.06,9.57-2.93.76-3.79-3.66-5.04-5.44-1.14-1.64-2.86-2.32-4.7-2.88-4.69-1.45-9.68-2.4-13.83-5.15-4.04-2.67-7.15-7.74-4.42-12.45,2.4-4.14,6.82-6.71,11.12-8.49,8.62-3.58,18.23-3.62,27.34-2.34,9.48,1.33,19.36,3.94,27.74,8.65,3.18,1.79,6.36,3.94,9.23,6.41-4.18-1.9-8.83-2.88-13.37-3.37ZM95.89,63.16c-.3,1.87-2.66,4.49-4.29,2.05-.88-1.33-.85-3.59.1-4.9.76-1.06,2.28-1.56,3.29-.5.82.86,1.08,2.23.9,3.35Z"/>
        </g>
      </g>
      <rect class="cls-2" width="100" height="100"/>
    </g>
  </g>
</svg>