<?xml version="1.0" encoding="UTF-8"?>
<svg id="Capa_2" data-name="Capa 2" xmlns="http://www.w3.org/2000/svg" viewBox="0 0 100 100">
  <defs>
    <style>
      .cls-1 {
        fill: none;
      }

      .cls-2 {
        fill: #4a2d2d;
      }

      .cls-3 {
        fill: #c25d3d;
      }

      .cls-4 {
        fill: #f2c2c4;
      }

      .cls-5 {
        fill: #ea999c;
      }
    </style>
  </defs>
  <g id="COLOR">
    <g>
      <g>
        <path class="cls-3" d="M15.36,44.41s.49-5.07,6.39-9.94c5.91-4.86,12.79-5,12.79-5,0,0,1.81-3.34,7.5-4.79s8.55-.56,8.55-.56c0,0,6.05-6.39,17.65-3.89,11.6,2.5,20.92,7.64,25.5,20.78,4.59,13.13,5.07,23.9-.35,29.74-5.42,5.84-24.32,13.55-29.46,14.25-5.14.69-48.57-40.58-48.57-40.58Z"/>
        <g>
          <path class="cls-5" d="M19.46,39.43c-8.62,4.08-15.38,14.64-16.4,22.89-1.02,8.25-.28,13.25,11.21,15.75,11.49,2.5,33.08,6.21,41.32,6.58,8.25.37,9.73.56,11.77-5,2.04-5.56.85-24.19-6.67-31.59-11.49-11.3-32.61-12.69-41.23-8.62Z"/>
          <path class="cls-4" d="M26.33,45.66c-.67-.95-1.98-1.39-3.09-1.05-.54.17-1.04.52-1.29,1.02-.43.84-.09,1.9.5,2.64.7.88,1.75,1.47,2.87,1.63.32.04.67.05.96-.1.17-.09.31-.22.44-.36.32-.35.59-.77.67-1.25.12-.75-.61-1.93-1.04-2.53Z"/>
          <path class="cls-4" d="M34.49,43.39c-1.11.64-1.77,1.99-1.59,3.26.11.78.5,1.51.53,2.29.02.52-.11,1.04-.11,1.56,0,.81.34,1.59.82,2.24,1.57,2.13,4.4,2.88,7.03,3.12,2.63.24,5.37.12,7.82,1.1.95.38,1.83.91,2.81,1.21.92.27,1.91.33,2.75.79,2.47,1.37,2.23,5.33,4.52,6.99.26.19.55.34.87.35.65.03,1.19-.54,1.44-1.14.61-1.44.13-3.11-.62-4.48-.75-1.37-1.75-2.61-2.29-4.07-.27-.73-.42-1.51-.74-2.22-.35-.79-.91-1.47-1.54-2.07-1.83-1.75-4.33-2.78-6.86-2.85-.99-.03-2.02.09-2.93-.29-.52-.21-.96-.56-1.38-.93-1.12-.99-2.1-2.14-3.25-3.1-1.66-1.38-5.17-2.97-7.29-1.76Z"/>
          <path class="cls-4" d="M41.87,63.35c-.31.56-.31,1.25-.17,1.87.28,1.24,1.22,2.42,2.49,2.54.69.06,1.39-.21,1.88-.69s.78-1.15.83-1.84c.01-.2,0-.41-.04-.6-.14-.56-.62-.96-1.09-1.3-1.01-.72-3.11-1.37-3.9.02Z"/>
          <path class="cls-4" d="M53.63,67.23c.07,1.09-.35,2.16-.95,3.06-.33.49-.73,1.03-.6,1.6.16.69,1,.96,1.71,1.03,2.14.22,4.41-.17,6.37.7.73.32,1.43.91,1.51,1.7.04.39-.09.78-.28,1.13-.61,1.15-1.83,1.85-3.07,2.26-3.04.99-6.55.42-9.13-1.48-.26-.19-.53-.47-.45-.77.04-.14.14-.25.25-.33.42-.31.97-.32,1.45-.51s.93-.72.69-1.18c-.09-.17-.27-.29-.43-.41-.61-.46-1.07-1.14-1.27-1.88-.09-.34-.13-.71-.03-1.05.11-.38.37-.69.66-.97.49-.49,1.05-.91,1.44-1.49s.57-1.35.23-1.95c-.25-.44-.76-.74-.83-1.24-.15-1.01,1-.92,1.52-.54.72.54,1.15,1.42,1.21,2.31Z"/>
          <path class="cls-4" d="M32.13,56.79c-1.58-.7-3.38-.68-5.11-.59-1.34.07-2.74.17-3.99-.32-1.92-.75-3.08-2.72-4.82-3.82-2.33-1.47-5.6-1.11-7.69.68-2.09,1.8-2.94,4.84-2.27,7.52.66,2.67,2.73,4.91,5.28,5.98.98.41,2.01.65,3.04.9,3.9.93,7.83,1.86,11.84,1.93,1.59.03,3.28-.11,4.59-1.03.84-.59,1.45-1.47,2.28-2.06.47-.33,1-.58,1.42-.97.42-.4.7-1.02.48-1.55-.25-.61-1-.82-1.66-.85-1.71-.07-3.36.56-5.03.93-1.5.33-3.04.46-4.57.39-1.29-.07-2.63-.3-3.67-1.07-.32-.24-.61-.53-.77-.89-.41-.95.29-2.1,1.25-2.48s2.06-.15,3,.26,1.81,1,2.76,1.39c1.82.74,3.85.69,5.81.63.54-.02,1.45-.08,1.59-.76.11-.54-.47-.89-.75-1.28-.88-1.22-1.56-2.29-3.01-2.93Z"/>
          <path class="cls-4" d="M33.82,71.74c-4.06,1.05-8.41.93-12.4-.35-.71-.23-1.58-.46-2.13.04-.54.5-.39,1.41.04,2.01.79,1.11,2.23,1.55,3.58,1.76,4.01.62,8.09-.19,12.15-.23,1.14-.01,2.33.05,3.32.61,1.14.64,2.01,1.91,3.31,2.02,1.18.1,2.31-1.04,2.2-2.22-.1-1.12-1.08-1.94-2.01-2.57-2.59-1.77-5.1-1.83-8.06-1.07Z"/>
        </g>
        <path class="cls-2" d="M71.81,50.18c.56.5.97,1.07,1.28,1.75.29.64.43,1.35.78,1.96.31.55,1.08.38,1.27-.17.63-1.84-.98-3.8-2.35-4.81-.74-.55-1.66.66-.98,1.27h0Z"/>
        <path class="cls-2" d="M81.68,44.63c.35.54.67,1.09.96,1.66.28.57.5,1.15.95,1.61s1.25.11,1.25-.52c.01-1.29-.98-2.61-1.69-3.62-.62-.88-2.08-.07-1.47.86h0Z"/>
        <path class="cls-2" d="M34.38,30.24c6.67-.86,13.42-.37,19.78,1.91,2.73.98,5.39,2.29,7.71,4.04,2.09,1.58,3.43,3.42,4.81,5.61.54.86,2.02.32,1.7-.72-1.59-5.1-8.03-8.42-12.6-10.21-6.78-2.66-14.45-3.52-21.59-2.05-.78.16-.62,1.52.19,1.42h0Z"/>
        <path class="cls-2" d="M50.96,24.64c5.31.17,10.83,1.03,15.67,3.32,2.19,1.04,4.23,2.38,6.04,4.01,1.76,1.58,3.07,3.88,4.98,5.21.64.45,1.53-.29,1.3-1-.74-2.38-3.38-4.51-5.26-6.02-1.95-1.56-4.1-2.87-6.39-3.9-5.18-2.34-10.71-3.02-16.34-2.99-.89,0-.88,1.35,0,1.37h0Z"/>
        <path class="cls-2" d="M17.19,41.5c11.58-4.91,26.6-4.77,37.13,2.69,8.17,5.8,12.52,15.9,12.89,25.74.2,5.56-1.1,10.49-5.11,14.45-.7.69.22,1.97,1.08,1.39,8.75-5.84,6.97-19.69,3.86-28.09-1.95-5.25-5.19-10.06-9.53-13.63-5.18-4.26-11.57-6.41-18.16-7.29-3.88-.52-7.8-.48-11.68.05-3.67.5-8.2,1.11-11.22,3.42-.76.58-.13,1.64.74,1.27h0Z"/>
      </g>
      <rect class="cls-1" width="100" height="100"/>
    </g>
  </g>
</svg>