<?xml version="1.0" encoding="UTF-8"?>
<svg id="Capa_2" data-name="Capa 2" xmlns="http://www.w3.org/2000/svg" viewBox="0 0 100 100">
  <defs>
    <style>
      .cls-1 {
        fill: none;
      }

      .cls-2 {
        fill: #fedcc1;
      }

      .cls-3 {
        fill: #4a2d2d;
      }

      .cls-4 {
        fill: #f2a480;
      }
    </style>
  </defs>
  <g id="COLOR">
    <g>
      <g>
        <path class="cls-2" d="M42.07,22.05s11.89-9.13,26.54-7.7c14.65,1.42,18.42,12.22,17.75,23.28-.67,11.05-8.71,15.66-12.64,27.21-3.94,11.55-3.68,14.74-3.68,16.75s.67,5.27.42,6.28-4.52,2.09-12.39,2.01c-7.87-.08-12.14-1.26-12.81-2.26-.67-1,.08-5.44,2.76-12.73,2.68-7.28,5.19-10.8,4.52-16.16-.67-5.36-4.52-6.95-7.79-8.21-3.27-1.26-5.86-1.51-5.86-1.51,0,0-3.18-23.44,3.18-26.96Z"/>
        <path class="cls-4" d="M42.48,21.12s3.27-.42,5.19,4.6c1.93,5.02-.5,9.8,1.34,12.64s5.36,4.94,4.77,8.71c-.59,3.77-3.18,4.1-9.38,3.43-6.2-.67-12.31-.54-18.5-.71s-12.14.04-14.23-2.89c-2.09-2.93.92-4.69,3.85-4.6,2.93.08,9.29.84,12.39-1.51s6.7-10.8,8.71-14.23c2.01-3.43,3.43-4.86,5.86-5.44Z"/>
        <g>
          <path class="cls-3" d="M38.16,34.7c-.88,1.46-1.51,3.73-1.19,5.42.11.6,1.03.86,1.42.38.58-.71.92-1.56,1.19-2.43.27-.91.59-1.85.68-2.8.1-1.16-1.56-1.46-2.09-.57Z"/>
          <path class="cls-3" d="M59.93,24.89c-2.85.78-4.28,4.93-3.14,7.58,1.31,3.03,5.18,3.57,7.48,1.34,2.32-2.25,2.37-5.85-.03-8.04-1.32-1.21-2.93-1.38-4.31-.87Z"/>
        </g>
        <path class="cls-3" d="M52.08,40.62c-1.32-1.78-2.33-3.37-2.51-5.64-.17-2.12-.03-4.24-.33-6.36-.47-3.32-1.87-6.43-5-7.97-.95-.47-1.76.37-.82.91,6.37,3.62,2.63,11.68,5.18,17.12.71,1.52,1.9,2.75,2.77,4.17s1.49,3.46.53,5.03c-.6.97-1.59,1.41-2.69,1.49-2.8.18-5.64.05-8.43,0-2.91-.05-22.98.42-28.09-1.72-.76-.32-1.07-.62-.59,0,2.02,2.56,4.92,2.78,7.93,2.92,3.35.15,6.7.35,10.05.58,3.45.24,6.9.43,10.36.5,1.73.04,3.47.05,5.2,0,2.51-.06,5.28-.24,7.2-2.06,2.05-1.93,1.48-4.98.33-7.24-.31-.62-.68-1.21-1.09-1.76Z"/>
      </g>
      <rect class="cls-1" width="100" height="100"/>
    </g>
  </g>
</svg>