<?xml version="1.0" encoding="UTF-8"?>
<svg id="Capa_2" data-name="Capa 2" xmlns="http://www.w3.org/2000/svg" viewBox="0 0 100 100">
  <defs>
    <style>
      .cls-1 {
        fill: #f5d4d6;
      }

      .cls-2 {
        fill: #e6af7c;
      }

      .cls-3 {
        fill: none;
      }

      .cls-4 {
        fill: #fedcc1;
      }

      .cls-5 {
        fill: #4a2d2d;
      }
    </style>
  </defs>
  <g id="COLOR">
    <g>
      <g>
        <path class="cls-4" d="M52.01,33.16c.1-.33,4.75-7.99,9.15-10.08s7.88-2.32,11.47-1.97,5.33,1.16,5.33,1.16c0,0-4.52-7.53-10.77-8.8s-14.6,2.9-18.42,7.41c-3.82,4.52-5.79,9.73-6.37,11.01l-.58,1.27s-1.51,1.85,1.74,2.55c3.24.7,7.65.23,8.46-2.55Z"/>
        <path class="cls-5" d="M78.95,22.38c-.72-1.82-2.39-3.58-3.76-4.9-1.48-1.44-3.22-2.7-5.08-3.61-3.98-1.94-8.29-2.08-12.38-.4-2.28.94-4.36,2.26-6.24,3.85-.05.03-.09.06-.13.11-5.02,4.3-8.59,10.58-10.48,16.84.38-.18.78-.33,1.2-.39.22-.03.43-.05.65-.06.48-1.33,1.01-2.65,1.6-3.94,2.56-.7,5.18.43,7.12,2.14-.19.4-.37.8-.54,1.2-.08.18-.15.37-.22.56.61.14,1.21.36,1.76.67.4-.99.81-1.95,1.32-2.77,2.29-3.71,5.92-6.86,10.03-8.37,4.67-1.72,9.49-1.15,13.97.84,1.21.54,2.13-.92,1.18-1.76ZM51.93,31.08c-.76-.75-1.91-1.2-2.86-1.53-1.47-.52-2.91-.78-4.34-.54.88-1.83,1.87-3.6,3.03-5.23,1.23-.17,2.65.54,3.7,1.02,1.31.6,2.28,1.34,2.87,2.57-.91,1.16-1.71,2.41-2.4,3.71ZM57.2,24.38c-.81.69-1.55,1.45-2.25,2.26-.62-1.23-1.87-2.06-3.15-2.63-1.05-.47-2.28-1.01-3.45-1.02,1.37-1.8,2.94-3.41,4.78-4.75,1.25.22,2.31.65,3.2,1.86.87,1.19,1.24,2.37,1.6,3.69-.25.19-.49.38-.73.58ZM56.77,19.25c-.7-.88-1.61-1.43-2.62-1.71,1-.64,2.07-1.19,3.22-1.65.94-.38,1.89-.67,2.86-.87.9.62,1.5,1.96,1.84,2.88.41,1.09.47,2.17.39,3.28-1.3.55-2.54,1.22-3.69,2-.24-1.44-1.17-2.87-2.01-3.92ZM63.39,20.81c.15-1.4-.3-2.86-.94-4.11-.33-.65-.71-1.34-1.21-1.86,2.6-.37,5.24-.06,7.72,1.04.08.63.06,1.28.04,1.65-.05.78-.3,1.45-.56,2.14-1.71.16-3.41.55-5.04,1.14ZM69.4,19.61c.34-.93.44-2,.38-2.93,0-.13-.02-.27-.03-.43,1.42.74,2.67,1.73,3.83,2.83.37.36.73.74,1.07,1.15-1.69-.5-3.47-.69-5.25-.63Z"/>
        <path class="cls-2" d="M82.3,69.69s-1.15,10.21-10.48,15.72c-7.61,4.49-15.34,5.49-16.84,4.62-1.5-.88-1.37-4.62-4.74-10.85-1.81-3.35-3.62-4.98-4.91-5.76-1.01-.61-1.69-.71-1.81-.73h-.02s-4.24,2.62-15.09,4.74c-14.99,2.93-22.33-5.61-22.57-10.48-.25-4.86,5.89-7.11,13.22-13.22,7.48-6.24,10.35-16.22,21.08-19.71,6.65-2.16,11.23-1.17,14.92,1.24-.27.42-.47.89-.6,1.31-.39,1.25-.33,2.66.41,3.78,1.53,2.34,4.79,2.93,7.2,1.73,4.53,5.87,8.98,15.89,12.12,21.01,3.37,5.49,8.11,6.61,8.11,6.61Z"/>
        <path class="cls-2" d="M53.11,50.36s5.49-6.07,11.97-7.07c6.49-1,11.72.25,11.89.67.17.42-4.41,8.98-11.31,10.89-6.9,1.91-8.48.42-10.06-.83-1.58-1.25-2.49-3.66-2.49-3.66Z"/>
        <path class="cls-1" d="M71.63,47.68c-3.33-.09-6.56.53-9.52,2.09-2.22,1.17-4.27,2.79-5.9,4.73,1.46,1.1,3.42,2.03,9.46.36,3.86-1.07,6.99-4.22,8.97-6.87-.99-.19-2-.28-3.01-.31Z"/>
        <g>
          <path class="cls-4" d="M53.86,36.64s0,4.29,2.43,5.91,5.44-.12,6.26-.93,5.79-4.63,11.47-5.1,8.57-.23,12.74,2.32,6.72,6.83,6.72,6.83c0,0,1.04-6.6-3.82-12.74,0,0-4.05-7.18-15.52-6.14s-20.27,9.85-20.27,9.85Z"/>
          <path class="cls-5" d="M94.67,46.02c.47-2.01.02-4.54-.4-6.51-.43-2.02-1.17-4.01-2.18-5.81-2.2-3.89-5.8-6.53-10.17-7.46-1.46-.31-2.94-.47-4.43-.5-1.5-.03-2.99.08-4.47.31s-2.98.57-4.42,1.02c-1.46.45-2.89,1-4.29,1.63s-2.75,1.35-4.07,2.14c-1.3.78-2.55,1.63-3.76,2.55-.54.41-1.08.84-1.6,1.28-.3.25-.59.52-.89.77-.27.21-.57.41-.75.71-.31.53-.39,1.21-.38,1.81.01.72.19,1.44.48,2.1.54,1.2,1.47,2.22,2.59,2.89.57.34,1.19.6,1.84.73,1.8.37,3.46-.24,4.95-1.22,2.12-1.39,4.09-2.8,6.51-3.67,4.39-1.58,9.37-1.84,13.8-.27,4.24,1.51,7.39,4.59,9.71,8.37.61.99,2.38.36,1.95-.82,0-.02-.02-.04-.02-.06ZM89.33,33.74c-1.28.86-2.04,2.32-2.19,3.85-1.3-.72-2.69-1.3-4.12-1.72-1.29-2.05-.81-4.57.8-6.62,2.17,1.03,4.06,2.53,5.5,4.49ZM82.99,28.88c-1.97,1.76-2.16,4.5-1.06,6.7-1.33-.31-2.69-.5-4.03-.53-1.92-2.18-1.98-4.77-.84-7.46,1.23.07,2.46.26,3.71.57.76.19,1.5.44,2.21.73ZM58.52,42.09c-3.08-.24-4.2-2.78-3.92-5.32.9-.7,2.24-1.65,3.19-2.32-.13,1.36.39,2.72,1.16,3.89.68,1.03,1.55,2.27,2.71,2.81-.97.6-2,1.02-3.14.93ZM62.43,40.65c-1.2-.51-2.26-1.93-2.86-2.97-.71-1.22-.95-2.45-.94-3.81,1.29-.88,2.63-1.72,4-2.47-.09,2.66,1.42,5.19,3.62,6.66-.46.25-.91.52-1.35.8-.8.51-1.61,1.18-2.46,1.79ZM67.08,37.63c-2.34-1.48-3.51-3.92-3.62-6.67,1.84-.97,3.75-1.78,5.71-2.37-.62,2.5.26,5.52,2.11,7.38-1.45.43-2.85.99-4.2,1.67ZM72.39,35.66c-1.94-2.06-2.72-4.38-2.28-7.34,1.99-.52,4.03-.8,6.11-.77-1.47,2.35-.99,5.38.69,7.5-.13,0-.26,0-.39.01-1.39.07-2.77.27-4.12.6ZM87.91,38.03c.11-1.41.84-2.64,1.92-3.57.09.13.17.26.26.4.98,1.63,1.57,3.4,1.98,5.25.13.58.2,1.17.26,1.78-1.22-1.52-2.73-2.82-4.42-3.86Z"/>
        </g>
        <path class="cls-5" d="M54.33,50.63c2.68-2.81,5.6-4.62,9.43-5.53,3.96-.94,8.77-1.49,12.7-.19-.16-.4-.33-.81-.49-1.21-3.32,5.6-11.96,13.97-18.96,9.44-.89-.58-1.69.82-.83,1.42,7.82,5.39,17.81-3.11,21.21-10.02.28-.56-.06-1.22-.71-1.24-2.39-.07-4.77-.48-7.17-.54-2.13-.06-4.4.35-6.43.99-3.54,1.11-7.23,3.12-9.77,5.86-.63.68.38,1.7,1.03,1.03h0Z"/>
        <path class="cls-5" d="M57.08,53.78c2.3-2.23,5-3.66,8.11-4.37,2.94-.67,5.78-.57,8.76-.8.73-.06.91-1.07.18-1.29-6.05-1.88-13.63,1.35-17.9,5.61-.56.55.3,1.4.86.86h0Z"/>
        <path class="cls-5" d="M20.91,62.02c-2.14-.06-4.64,1.27-5.55,3.28-.32.7.38,1.68,1.16,1.16.78-.53,1.49-1.17,2.28-1.68s1.65-.94,2.47-1.4c.65-.36.33-1.33-.37-1.35h0Z"/>
        <path class="cls-5" d="M40.64,50.44c-.33-1.47-2.02-2.28-3.43-1.98-3.15.65-3.31,5.32-.41,6.41,2.62.99,4.34-2.2,3.84-4.43Z"/>
      </g>
      <rect class="cls-3" width="100" height="100"/>
    </g>
  </g>
</svg>