<?xml version="1.0" encoding="UTF-8"?>
<svg id="Capa_2" data-name="Capa 2" xmlns="http://www.w3.org/2000/svg" viewBox="0 0 100 100">
  <defs>
    <style>
      .cls-1 {
        fill: #fff;
      }

      .cls-2 {
        fill: none;
      }

      .cls-3 {
        fill: #feb672;
      }

      .cls-4 {
        fill: #4f3535;
      }

      .cls-5 {
        fill: #e27562;
      }
    </style>
  </defs>
  <g id="COLOR">
    <g>
      <g>
        <path class="cls-3" d="M49.03,63.01l-43.16-.58c-.08.23,3.04,11.48,4.26,14.9,1.22,3.42,1.75,5.02,7.75,5.93,5.63.86,24.79.91,31.15.79,6.36.12,25.51.07,31.15-.79,6-.91,6.54-2.51,7.75-5.93,1.22-3.42,4.33-14.67,4.26-14.9l-43.16.58Z"/>
        <path class="cls-1" d="M46.9,27.82s-24.11-.15-26.24,0c-2.13.15-8.01.73-10.07,2.57-2.06,1.84-3.97,7.28-5.29,11.32-1.32,4.04-3.97,13.82-3.82,16.61.15,2.79.66,5,3.67,5.66s25.8.59,25.8.59l44.98.07s15.43.59,18.82-.73c3.38-1.32,3.75-5.51,2.87-9.04s-5.51-20.14-7.28-22.78c-1.76-2.65-4.48-3.82-7.35-4.12s-36.09-.15-36.09-.15Z"/>
        <path class="cls-5" d="M91.62,60.72c-.24.1-.04.01.02-.01.12-.05.23-.11.34-.17.23-.12.45-.26.67-.41.05-.03.09-.07.14-.1.02-.01.03-.03.05-.04.1-.08.19-.16.29-.25.09-.08.17-.17.26-.26.03-.04.07-.08.1-.11,0,0,0,0,0,0,.02-.03.04-.07.06-.1-.28-1.23-.97-2.35-1.92-3.17.45-1.04.42-2.28-.18-3.27-.56-.93-1.48-1.47-2.51-1.63.14-1.33-.07-2.67-.65-3.9-.33-.7-.78-1.36-1.32-1.91-.35-.36-.62-.57-.48-1.11.1-.41.26-.79.35-1.21.27-1.38.13-2.95-.76-4.09-.22-.28-.47-.51-.75-.71-.34-.24-.78-.4-1.04-.73-.24-.29-.33-.68-.54-1-.2-.3-.44-.55-.73-.76-1.49-1.07-3.17-.52-4.69.12-.87-1.32-2.64-1.91-4.19-1.71-1.03.13-2.02.61-2.87,1.28-2.04-1.87-5.22-2.27-7.65-.7-2.72-1.83-6.58-1.59-8.98.68-2.1-1.15-4.72-1-6.72.28-.44-.44-.98-.75-1.61-.91-.92-.23-1.69-.04-2.53.31-.3.12-.37.14-.62-.09-.18-.17-.33-.36-.5-.52-.33-.3-.69-.58-1.08-.81-.78-.46-1.65-.74-2.55-.85-.89-.11-1.82-.04-2.67.23-.46.15-.87.39-1.31.55-.56.21-.96-.1-1.43-.37-1.54-.89-3.36-1.22-5.12-1-1.86.23-3.6,1.04-4.9,2.38-1.55-.56-3.28-1.08-4.89-.5-1.19.43-2.19,1.38-2.39,2.63-1.82.47-3.21,2.14-3.49,3.99-.07.49-.07.96.02,1.45.05.28.15.54.21.81.08.41-.09.58-.39.8-.96.72-1.87,1.42-2.45,2.51-.54,1.01-.73,2.16-.46,3.28.12.5.34.97.65,1.38.07.1.57.53.55.63-.02.13-.54.33-.64.39-1.73,1-3.01,2.65-3.7,4.51-.27.72-.45,1.5-.53,2.3,0,.01,0,.02.01.03.06.11.12.23.18.34.03.05.06.1.09.14.01.02.02.03.03.05.08.06.15.18.21.25.17.2.37.37.57.54,0,0,0,0,0,0,.15.1.29.19.45.28.1.05.19.1.29.14.02.01.13.05.1.04,0,0,.01,0,.02,0,.32.12.65.21.98.28,2.12-.04,4.25-.03,6.37-.04,3.35-.02,6.71-.03,10.06-.04,11.86-.03,23.72-.03,35.57-.03,10.14,0,20.27.03,30.41,0,.07-.03.13-.06.2-.09Z"/>
        <path class="cls-4" d="M16.51,48.2c.61-1.74,1.64-3.29,3.21-4.3,1.68-1.08,3.76-1.46,5.71-1.06.21.04.51-.06.55-.31.22-1.52,1.29-2.85,2.8-3.24s3.04.32,4.01,1.47c.33.39,1.01-.13.71-.55-1.07-1.54-3.07-2.24-4.89-1.8-1.81.44-3.23,2.06-3.5,3.89l.55-.31c-4.23-.86-8.89,1.66-9.89,6.01-.11.48.57.66.73.2h0Z"/>
        <path class="cls-4" d="M28.11,48.12c.46-.17.93-.26,1.42-.33.45-.07.9-.12,1.35-.02.36.08.71.22,1.02.44s.5.6.84.77c.2.1.5.03.55-.22.11-.54-.31-1.02-.7-1.33s-.86-.54-1.36-.65c-.57-.12-1.15-.09-1.72.02s-1.12.46-1.63.77c-.28.17-.1.68.23.55h0Z"/>
        <path class="cls-4" d="M37.67,53.11c.6-1.39,1.55-2.63,2.82-3.47s2.75-1.16,4.29-1.16c.29,0,.52-.29.44-.58-.2-.66.11-1.65.31-2.28.24-.77.8-1.52,1.45-2,.61-.44,1.33-.75,2.07-.9.79-.16,1.54.01,2.33-.02.36-.02.51-.49.18-.68-.77-.46-1.83-.37-2.67-.2-.92.19-1.76.6-2.47,1.21s-1.21,1.35-1.63,2.18c-.21.42-.37.85-.44,1.31-.08.5.02.99-.02,1.49l.46-.46c-3.28-.35-6.85,2.15-7.77,5.26-.11.38.49.66.66.28h0Z"/>
        <path class="cls-4" d="M50.37,48.91c.06-.04.12-.07.19-.11.02,0,.04-.02.06-.03,0,0,.05-.02.01,0s0,0,.01,0c.02,0,.05-.02.07-.03.07-.02.14-.04.21-.06.04,0,.07-.01.11-.02.04,0,.04.01-.02,0,.02,0,.04,0,.06,0,.07,0,.14,0,.22,0,.04,0,.07,0,.11,0,.03,0,.16.02.07,0-.09-.01.03,0,.05,0,.07.01.14.02.22.03.06,0-.07-.01-.06,0,.02,0,.04,0,.06,0,.08.01.15.03.23.04.1,0,.21.02.31,0,.22-.04.36-.24.37-.45.01-.31-.33-.52-.6-.58-.21-.04-.4-.06-.61-.03-.17.02-.33.05-.48.11-.37.13-.71.32-.99.6s.08.74.41.53h0Z"/>
        <path class="cls-4" d="M39.14,42.47s.03-.06.05-.09c0-.01.02-.03.03-.04-.05.06-.05.07-.02.03.02-.02.04-.05.07-.07.01-.01.02-.02.04-.03-.06.04-.07.05-.03.03.06-.03.12-.06.17-.1-.07.03-.08.03-.04.02.02,0,.03-.01.05-.02.03-.01.06-.02.1-.03,0,0,.1-.02.1-.02-.07,0-.08,0-.03,0,.02,0,.04,0,.06,0,.09,0,.17,0,.26,0s.17,0,.26,0c.12,0,.22-.03.33-.06.31-.09.38-.53.09-.7-.11-.06-.21-.12-.33-.14s-.25-.04-.38-.04c-.22,0-.44.02-.65.08-.37.11-.73.35-.89.71-.05.11-.08.22-.04.34.03.1.11.21.2.26.2.1.5.06.61-.16h0Z"/>
        <path class="cls-4" d="M50.11,54.32c2.09-1.8,5.24-1.11,6.53,1.28.18.33.61.27.8,0,.54-.77,1.32-1.38,2.2-1.72s1.76-.33,2.7-.33c.37,0,.4-.49.08-.61-1.01-.38-2.24-.17-3.22.22-1.03.41-1.89,1.08-2.56,1.97h.8c-1.53-3-5.48-3.64-7.97-1.45-.44.39.2,1.02.64.64h0Z"/>
        <path class="cls-4" d="M61.6,47.06c.73-.12,1.51-.02,2.2.23.34.12.66.3.96.51s.56.57.9.73c.32.14.72-.09.61-.47-.13-.46-.6-.79-.98-1.04s-.8-.44-1.22-.58c-.86-.27-1.78-.29-2.65-.03-.43.12-.24.73.18.65h0Z"/>
        <path class="cls-4" d="M67.81,44.26c.62-1.01,1.92-1.14,2.99-1.05.53.04,1.04.19,1.47.5.2.14.37.31.53.49.18.21.31.44.56.58.28.16.59-.05.61-.35.05-.65-.67-1.25-1.15-1.57-.6-.41-1.3-.58-2.02-.62-1.37-.08-3.02.24-3.64,1.63-.19.43.39.8.65.38h0Z"/>
        <path class="cls-4" d="M61.31,39.15c.08-.03.16-.05.24-.07.04,0,.08-.02.12-.02-.07.01.05,0,.07,0,.08,0,.17,0,.25,0,.04,0,.08,0,.13.01.04,0,.04,0,0,0,.02,0,.04,0,.06.01.17.03.33.08.48.14.04.02.04.02,0,0,.02,0,.04.02.06.03.04.02.07.04.11.06.06.03.11.07.18.09.04,0,.08.01.12.02.14.03.28,0,.37-.13.08-.11.1-.27.03-.39s-.16-.22-.29-.28c-.1-.05-.21-.1-.32-.14-.2-.08-.41-.11-.62-.13-.42-.03-.83.06-1.21.24-.14.07-.18.26-.13.39s.22.23.37.18h0Z"/>
        <path class="cls-4" d="M15.33,57.13c2.22-1.41,5.55-2.37,7.64-.21.16.17.49.19.66,0,.63-.73,1.45-1.19,2.39-1.38.44-.09.89-.1,1.33-.05s.92.32,1.38.3c.27-.01.53-.33.34-.59-.63-.84-2.22-.81-3.16-.65-1.14.2-2.2.81-2.94,1.7h.66c-1.11-1.1-2.67-1.65-4.22-1.55-1.69.11-3.15.88-4.47,1.91-.29.23.09.7.39.51h0Z"/>
        <path class="cls-4" d="M39.87,59.08c1.03-1.3,2.5-1.81,4.12-1.88.79-.03,1.59.05,2.32.36.32.14.62.32.89.54s.45.51.71.73c.29.25.81.02.68-.4-.24-.76-1.06-1.33-1.75-1.65-.87-.4-1.82-.54-2.77-.49-1.92.09-3.66.73-4.85,2.28-.29.37.36.88.65.51h0Z"/>
        <path class="cls-4" d="M78.63,47.64c.22-.59,1.06-.72,1.6-.74.43-.02.88,0,1.28.18.33.15.56.39.76.68.12.17.28.24.48.2.08-.01.13-.06.19-.11.11-.09.16-.29.11-.42-.41-1.13-1.79-1.45-2.86-1.39-.95.06-2,.4-2.35,1.38-.07.21.08.45.29.51.23.06.43-.08.51-.29h0Z"/>
        <path class="cls-4" d="M79.16,40.01c.13-.02.26-.02.4-.02.06,0,.12,0,.19.01.04,0,.04,0-.02,0,.02,0,.03,0,.05,0,.03,0,.06.01.09.02.13.03.25.06.37.11.02,0,.03.01.05.02.04.02.03.01-.01,0,.04,0,.1.05.14.06.07.02.13.04.2.06.13.04.3-.03.37-.15s.06-.29-.05-.39c-.06-.06-.14-.13-.21-.17-.08-.05-.17-.08-.26-.11-.13-.05-.26-.08-.4-.11-.3-.06-.6-.08-.9-.04-.1.01-.18.03-.25.1-.06.06-.11.16-.1.25,0,.17.16.38.35.35h0Z"/>
        <path class="cls-4" d="M71.84,52.58c1.01-.45,2.07-.73,3.17-.83.96-.09,2.05-.12,2.94.32,1.56.78,2.04,2.61,2.62,4.1.14.36.46.48.81.33,1.05-.45,2.33-.82,3.48-.6,1.03.2,1.59.79,2.16,1.61.22.32.89.26.83-.23-.15-1.23-1.37-2.04-2.49-2.34-1.51-.4-2.98.09-4.42.54l.68.39c-.51-1.82-1.48-3.95-3.31-4.75-2.11-.92-4.87-.07-6.84.85-.41.19-.05.78.35.6h0Z"/>
        <path class="cls-4" d="M72.14,57.88c.11-.04.23-.07.35-.1.03,0,.07-.01.1-.02-.05,0-.02,0,.01,0,.06,0,.11-.01.17-.01.12,0,.24,0,.36,0,.04,0,.07,0,.11,0,.05,0,.04,0,0,0,.06.01.12.02.19.04.12.03.23.06.35.09.05.02.11.03.16.05.03,0,.05.02.08.03-.1-.04,0,0,.01,0,.05.02.1.05.15.08.06.03.12.05.18.08-.04-.02-.05-.02,0,0,.11.05.23.11.33.18.18.12.43.05.56-.11.14-.18.11-.4-.03-.57-.19-.23-.41-.43-.68-.55-.32-.14-.62-.23-.97-.27-.59-.06-1.19.08-1.71.36-.37.2-.12.84.29.7h0Z"/>
        <path class="cls-1" d="M68.36,38.44l.4-.04c.08,0,.15-.01.23-.03l.1-.03s.03,0,.04-.01c.14-.05.24-.12.32-.25.01-.02.02-.03.03-.05l.04-.1c.02-.06.02-.12,0-.17,0-.04-.01-.08-.03-.11-.02-.05-.05-.1-.09-.14-.01-.02-.03-.03-.04-.05-.07-.07-.15-.11-.24-.14-.06-.02-.12-.02-.18-.02s-.12-.01-.19,0l-.39.04c-.08,0-.15.01-.22.05-.07.02-.13.06-.18.12-.05.05-.09.11-.12.18-.04.07-.05.14-.05.22,0,.15.05.3.16.4.1.1.25.18.4.16h0Z"/>
        <path class="cls-1" d="M72.77,48.67l.35-.04c.09,0,.19-.02.28-.03.03,0,.06,0,.08-.02.1-.03.18-.08.25-.16l-.09.07s.07-.03.11-.05c.06-.03.11-.06.16-.11.08-.07.11-.19.1-.3-.01-.11-.07-.2-.17-.26s-.2-.07-.3-.11l.11.05c-.15-.12-.35-.1-.53-.09l-.34.02c-.14,0-.26.05-.36.15-.09.09-.16.23-.15.36s.05.27.15.36c.09.09.23.16.36.15h0Z"/>
        <path class="cls-1" d="M85.7,52.34c.08,0,.15,0,.23.02l-.15-.02c.1.01.2.04.3.07.05.02.09.04.14.04s.1.02.15.03l.13.02c.07,0,.13-.01.19-.04.1-.04.19-.11.24-.2.04-.08.06-.16.07-.25,0-.12-.06-.27-.15-.35-.03-.03-.05-.05-.08-.07-.06-.05-.12-.11-.19-.14-.1-.05-.21-.09-.32-.13-.18-.06-.38-.08-.57-.09-.08,0-.15.01-.22.05-.07.02-.13.06-.18.12-.06.05-.09.11-.12.18-.04.07-.05.14-.05.22,0,.15.05.3.17.4s.25.17.4.17h0Z"/>
        <path class="cls-1" d="M66.81,57.7c.27-.03.53-.02.8,0,.11,0,.22-.03.31-.09.09-.06.17-.13.22-.22,0,0,0-.01.01-.02l-.09.12h0s-.07.05-.11.08c.04-.02.07-.04.11-.05.13-.06.2-.2.22-.33.02-.15-.02-.28-.13-.38-.03-.03-.06-.06-.09-.09l.09.11h0s.04.08.06.12c0,0,0-.01,0-.02l-.06-.15c-.04-.07-.09-.13-.16-.17-.04-.04-.08-.07-.14-.08-.07-.04-.15-.06-.24-.05-.26-.03-.53-.03-.8,0-.09,0-.16.01-.24.05-.08.02-.14.07-.2.13-.11.11-.19.28-.18.44s.06.33.18.44c.11.1.28.2.44.18h0Z"/>
        <path class="cls-1" d="M56.18,46.67c.05-.01.11-.02.16-.03l-.17.02c.15-.02.29-.02.44,0l-.16-.02c.08.01.17.02.25.03l-.16-.02c.1.01.21.04.31.03.07,0,.14,0,.21-.02.06-.02.12-.05.18-.07l-.12.05s.04-.01.05-.02c.11-.04.22-.1.27-.21s.09-.24.05-.35c-.03-.07-.05-.14-.09-.2-.04-.08-.1-.13-.17-.19-.12-.09-.15-.12-.3-.17-.02,0-.05-.02-.07-.02-.05-.01-.09-.02-.14-.03-.15-.02-.29-.04-.44-.04s-.3.02-.44.05-.31.17-.38.29c-.08.14-.11.34-.06.49s.14.3.29.38c.15.08.32.1.49.06h0Z"/>
        <path class="cls-1" d="M54.83,39.24c.14,0,.28.02.42.03l-.16-.02c.14.02.27.05.41.04.04,0,.08,0,.12,0,.11,0,.21-.02.31-.08.01,0,.03-.02.04-.03.24-.14.32-.45.18-.69-.06-.1-.13-.19-.24-.25-.03-.02-.07-.03-.1-.05-.02,0-.04-.02-.06-.03-.06-.03-.12-.06-.18-.08-.04-.01-.08-.01-.13-.02-.21-.03-.42-.06-.63-.06-.15,0-.33.07-.43.18s-.19.28-.18.43.06.32.18.43.27.17.43.18h0Z"/>
        <path class="cls-1" d="M45.21,38.59c.1-.01.2-.02.3-.04.08,0,.15-.03.22-.07,0,0,0,0,.01,0,0,0,.01,0,.02-.01l.04-.03.09-.05c.15-.09.24-.25.24-.42s-.09-.33-.24-.42l-.08-.05-.04-.03s-.01,0-.02-.01c0,0,0,0-.01,0-.07-.04-.14-.07-.22-.07-.1-.01-.2-.02-.3-.04-.09,0-.17.01-.24.05-.08.03-.15.07-.2.13-.06.06-.1.12-.13.2-.04.07-.06.16-.05.24l.02.17c.03.11.08.2.16.28l.13.1c.1.06.2.09.32.09h0Z"/>
        <path class="cls-1" d="M37.93,47.56c.63,0,.63-.98,0-.98s-.63.98,0,.98h0Z"/>
        <path class="cls-1" d="M28.45,36.32c.92,0,.92-1.42,0-1.42s-.92,1.42,0,1.42h0Z"/>
        <path class="cls-1" d="M19.11,39.87c.75,0,.75-1.16,0-1.16s-.75,1.16,0,1.16h0Z"/>
        <path class="cls-1" d="M23.09,50.72l.5-.07.24-.04c.16-.02.28-.15.4-.25s.15-.26.13-.4-.1-.28-.23-.35l-.09-.05c-.05-.03-.11-.05-.16-.07-.12-.04-.22-.02-.34,0-.08.01-.16.02-.24.03l-.51.07c-.08.02-.14.05-.2.1-.06.04-.11.1-.15.16-.07.12-.1.31-.06.45s.13.28.27.35l.14.06c.1.03.21.03.31,0h0Z"/>
        <path class="cls-1" d="M11.03,56.32c.74,0,.74-1.14,0-1.14s-.74,1.14,0,1.14h0Z"/>
        <path class="cls-1" d="M33.59,58.52l.15.02s.1,0,.15,0c.08,0,.19,0,.26-.02.04-.01.09-.03.13-.05l.09-.04.08-.06.06-.08s.04-.09.05-.15c0-.04,0-.07,0-.11,0-.04,0-.07-.03-.1,0-.03-.03-.06-.05-.09-.03-.04-.06-.08-.11-.1-.04-.03-.07-.06-.11-.08-.07-.04-.17-.06-.25-.09l-.07-.02c-.06-.02-.13-.02-.2-.03l-.16-.02c-.07,0-.14.01-.2.04-.06.02-.12.06-.16.11-.05.05-.08.1-.11.16-.03.06-.05.13-.04.2,0,.13.05.27.15.36l.1.08c.08.05.17.07.26.07h0Z"/>
        <g>
          <path class="cls-4" d="M90.43,40.04c-.73-2.25-1.33-4.74-2.87-6.6-1.2-1.45-2.94-2.3-4.77-2.63-1.09-.2-2.2-.24-3.3-.29-1.37-.07-2.74-.12-4.11-.15-2.75-.08-5.49-.11-8.24-.13-4.63-.03-9.25,0-13.88,0-1.6-.06-3.2-.05-4.8-.03-.74,0-1.48,0-2.22.03-.33,0-.66,0-.99,0-3,.02-5.99-.06-8.99-.04-5.4.03-10.81.05-16.2.31-2.09.1-4.22.22-6.08,1.27-1.69.95-2.82,2.54-3.5,4.32-1.97,5.1-3.44,10.48-4.51,15.85-.26,1.33-.5,2.67-.71,4.01-.2,1.3-.38,2.65.47,3.76,1.34,1.75,3.65,1.69,5.64,1.67,2.22-.02,4.5.14,6.72.15,3.26.01,65.82-.08,68.35-.07,1.31,0,3.18.03,4.47-.17,1.17-.18,2.32-.71,3.01-1.7.78-1.12.56-2.48.36-3.74-.85-5.38-2.16-10.66-3.85-15.83ZM92.06,59.52c-1.24.83-3.19.53-4.57.52-2.34-.01-4.69,0-7.03.01-9.56.05-19.11-.03-28.67-.02-.23,0-.46,0-.7,0-.43,0-.86,0-1.29,0-6.15.02-12.29.1-18.44.21-3.37.06-6.72-.16-10.08-.18-2.38-.01-4.87-.02-7.29-.02-1.96,0-4.82.52-6.56-.57-1.19-.75-1.04-2.02-.84-3.24.83-5.24,2.11-10.38,3.74-15.43.43-1.35.88-2.69,1.36-4.02.32-.88.74-1.75,1.36-2.47,1.15-1.34,2.79-2,4.51-2.23,1.14-.15,2.32-.16,3.47-.2,1.32-.05,2.64-.08,3.95-.11,2.68-.05,5.35-.06,8.03-.09,5.25-.05,10.5-.24,15.75-.27,1.7.01,3.4,0,5.1.01,2.97.03,5.94.12,8.91.21,5.32.16,10.64.04,15.95.25,1.99.08,4.12.04,5.93.97,1.69.86,2.67,2.39,3.28,4.13,1.77,5.05,3.3,10.18,4.34,15.43.33,1.67,1.45,4.68.54,6.28-.2.35-.46.62-.76.82Z"/>
          <path class="cls-4" d="M98.54,57.22c-.22-1.94-.73-3.83-1.23-5.71-.79-2.97-1.51-5.96-2.38-8.91-.47-1.6-1-3.19-1.51-4.78-.43-1.34-.86-2.67-1.43-3.96-.56-1.24-1.29-2.43-2.3-3.35-.91-.82-1.98-1.44-3.11-1.9-2.01-.83-4.22-1.19-6.38-1.29-2.74-.13-5.48.11-8.22,0-2.65-.11-5.31-.07-7.96-.08-4.43-.01-8.87-.05-13.3-.02-3.9-.06-7.8,0-11.69.01-2.42,0-4.85.01-7.27.02-3.02,0-6.02.15-9.04.07-4.38-.12-9.48.11-12.89,3.24-2.06,1.9-2.88,4.75-3.71,7.33-1.07,3.34-2.08,6.68-2.96,10.07-.55,2.14-1.15,4.27-1.64,6.42-.41,1.8-.75,3.7-.52,5.55.22,1.73,1.02,3.3,2.59,4.16,1.51.83,3.25.87,4.93.92,3.34.11,6.68.14,10.03.15,4.47.01,8.95,0,13.42.01,4.46,0,8.93,0,13.4.01,1.69,0,3.38,0,5.07,0,.28,0,.56,0,.83,0,4.32,0,8.64,0,12.96,0,4.56,0,9.11,0,13.67,0,3.73,0,7.47-.01,11.2-.1,3.01-.07,6.96.24,8.72-2.75.9-1.52.93-3.4.74-5.1ZM97.3,59.92c-.22,1.57-1.09,2.84-2.61,3.37-1.4.49-2.96.44-4.43.48-7.78.22-15.57.23-23.34.2-5.57,0-11.13-.16-16.7-.12-4.7.04-9.51.09-14.26.1-8.23.03-16.46.02-24.68-.15-1.27-.03-2.54-.05-3.81-.11-1.61-.07-3.44-.34-4.45-1.75-.94-1.31-.91-3.09-.75-4.62.2-1.88.71-3.72,1.18-5.54.75-2.89,1.43-5.8,2.25-8.67.45-1.57.95-3.13,1.45-4.69.43-1.34.82-2.71,1.39-4,.52-1.19,1.19-2.31,2.16-3.19.91-.82,2.03-1.41,3.18-1.83,1.89-.7,3.92-1.01,5.93-1.07,2.82-.09,5.66-.14,8.47,0,2.58.12,5.18.01,7.76,0,3.88,0,7.75.01,11.63.01,4.22.05,8.45-.03,12.67-.02,2.34,0,4.67.01,7.01.02,2.86,0,5.73-.15,8.59-.07,4.37.12,9.49-.17,12.97,3.02,2.04,1.87,2.74,4.75,3.55,7.29,1.05,3.28,2,6.57,2.83,9.91.51,2.05,1.07,4.1,1.53,6.17.38,1.7.73,3.51.48,5.25Z"/>
        </g>
        <path class="cls-4" d="M81.03,80.32c.57.1,1.14.12,1.72.07.29-.03.59-.06.88-.14s.56-.22.82-.38c.41-.24.14-.86-.32-.75-.26.06-.52.1-.77.17s-.49.13-.74.17c-.44.07-1,.07-1.48,0-.21-.02-.4.18-.42.37s.09.44.31.47h0Z"/>
        <path class="cls-4" d="M83.21,77.77c.13.02.27.04.41.04s.26-.02.39-.04c.09-.02.18-.04.27-.08.05-.02.11-.04.16-.07.04-.02.09-.07.13-.1.03-.03.06-.06.1-.09.11-.12.14-.28.08-.43-.03-.07-.07-.12-.12-.16-.06-.05-.16-.09-.24-.09-.06,0-.12,0-.17,0-.1,0-.2.03-.29.04l.13-.02c-.07,0-.13.02-.2.03l.13-.02c-.14.02-.29.02-.43,0l.14.02c-.07,0-.13-.02-.19-.04-.13-.03-.28-.02-.4.05-.11.06-.21.19-.24.31-.03.13-.02.28.05.4.07.11.18.22.31.24h0Z"/>
        <path class="cls-4" d="M9.58,67.31l.55.07.26.04c.12.02.23.04.35,0,.06-.02.13-.06.2-.08.11-.05.17-.18.19-.29.02-.12-.02-.25-.11-.33-.05-.05-.11-.1-.17-.14-.07-.04-.13-.06-.21-.07l-.27-.05-.53-.09c-.13-.02-.25-.02-.37.05-.1.06-.19.17-.22.29-.03.12-.02.26.05.37.06.1.17.2.29.22h0Z"/>
        <path class="cls-4" d="M10.59,70.66c.1,0,.2,0,.3-.02.13,0,.26-.05.38-.07l.09-.04s.08-.05.1-.09c.05-.06.08-.14.08-.22,0-.06-.02-.13-.05-.18-.02-.04-.05-.08-.09-.1-.03-.03-.08-.05-.12-.06-.13-.03-.26-.07-.38-.07-.1,0-.2-.01-.3-.02-.06,0-.12.01-.17.04-.05.02-.1.05-.14.09-.04.04-.07.09-.09.14-.03.05-.04.11-.04.17,0,.11.04.23.13.31s.19.13.31.13h0Z"/>
      </g>
      <rect class="cls-2" width="100" height="100"/>
    </g>
  </g>
</svg>