<?xml version="1.0" encoding="UTF-8"?>
<svg id="Capa_2" data-name="Capa 2" xmlns="http://www.w3.org/2000/svg" viewBox="0 0 100 100">
  <defs>
    <style>
      .cls-1 {
        fill: #d79682;
      }

      .cls-2 {
        fill: none;
      }

      .cls-3 {
        fill: #4a2d2d;
      }

      .cls-4 {
        fill: #905a4e;
      }
    </style>
  </defs>
  <g id="COLOR">
    <g>
      <g>
        <path class="cls-4" d="M29.86,23.71s-4.59-.32-7.32,3.86c-2.74,4.18-2.57,9.58-5.07,12.15-2.49,2.57-5.15,1.21-5.39-1.13-.24-2.33,2.01-2.09,2.25-1.13.24.97,2.01,1.29,1.93-.8-.08-2.09-4.18-4.43-5.95-.56-1.77,3.86.64,9.49,6.76,8.13,5.79-1.29,15.61-16.01,15.61-16.01l-2.82-4.51Z"/>
        <path class="cls-1" d="M96.2,62.34s-5.07,12.07-17.38,20.28c-12.31,8.21-24.98,10.86-24.98,10.86l-12.19-35.24s-2.05,2.9-7.24,5.91-9.29,4.1-9.29,4.1c0,0,1.69,10.38-5.79,12.31-7.48,1.93-15.93-5.67-16.29-11.47s7.48-16.78,10.5-21.36c3.02-4.59,15.33-20.52,15.33-20.52,0,0-3.02-9.41-1.81-13.64,1.21-4.22,5.07-2.17,7.85,1.21,2.78,3.38,4.35,7.72,4.35,7.72,0,0,11.29-1.05,26.92,10.14,18.71,13.4,30.05,29.69,30.05,29.69Z"/>
        <path class="cls-3" d="M9.18,67.65c-.24.24-.42.55-.51.9-.32,1.23.34,2.65,1.23,3.48,1.04.97,3.11,1.46,3.4-.46.24-1.56-.73-3.65-2.2-4.31-.7-.31-1.43-.11-1.92.38Z"/>
        <path class="cls-3" d="M28.14,37.98c-.26.11-.5.25-.73.43-1.25,1.03-1.24,3.11-.56,4.45.88,1.73,3.1,2.11,4.51.75,1.35-1.3,1.52-3.52.23-4.9-.86-.93-2.29-1.21-3.46-.73Z"/>
        <path class="cls-4" d="M39.23,22.55s3.51-2.59,17.02,2.29c12.73,4.61,30.58,22.85,34.68,27.6,4.1,4.75,5.71,8.77,5.23,10.22-.48,1.45-5.19,8.97-9.09,13.12-3.9,4.14-8.97,7.28-8.97,7.28,0,0-1.92-1.03-3.38-4.55-.97-2.33-.6-6.2-.6-6.2,0,0-5.59.32-8.97-4.55-3.16-4.55-2.05-8.53-2.05-8.53,0,0-7.89-.36-10.54-5.83-2.66-5.47,0-14.24-.56-19.55-.56-5.31-5.79-8.65-9.01-10.02-2.07-.88-3.74-1.29-3.74-1.29Z"/>
        <path class="cls-3" d="M28.43,12.47c1.78,2.6,3.54,4.97,4.64,7.96,1.04,2.83.98,5.72,1.54,8.63.07.39.67.36.76,0,.73-2.96-.27-6.44-1.29-9.22-1.05-2.86-2.68-5.87-5.06-7.84-.3-.25-.85.08-.59.46h0Z"/>
        <path class="cls-3" d="M25.48,68.73c6.31-2.75,12.69-6.02,17.02-11.55,3.58-4.58,5.65-11.36,3.06-16.89-.28-.59-1.21-.17-1.04.44,1.73,6.3.12,12.21-4.21,17.08-4.13,4.65-9.74,7.51-15.26,10.18-.51.24-.06.96.43.74h0Z"/>
        <path class="cls-3" d="M39.53,23.49c4.19.83,7.86,2.5,10.31,6.17,2.66,3.98,2.52,8.37,1.9,12.92-.48,3.55-1.02,7.34.39,10.76,1.04,2.52,3.3,4.98,6.19,5.06.68.02.76-.94.16-1.15-9.68-3.31-3.87-14.95-4.99-22.18-1.03-6.65-6.86-12.61-13.8-12.76-.65-.01-.82,1.03-.16,1.16h0Z"/>
        <path class="cls-3" d="M61.85,31.05c3.05,3.41,3.58,8.03,3.19,12.42-.39,4.44-1.34,8.83-1.94,13.25-.44,3.27-.66,6.81.81,9.87,1.36,2.81,4.22,5.29,7.39,5.68.82.1.81-1.06.18-1.33-3.91-1.61-6.65-4.06-7.11-8.49-.4-3.9.6-7.88,1.18-11.71,1.05-6.86,2.56-14.98-3.03-20.38-.45-.44-1.1.22-.68.68h0Z"/>
        <path class="cls-3" d="M76.46,41.61c1.12,3.95,1.61,8.2,1.48,12.29-.14,4.24-1.38,8.09-2.61,12.1-1.3,4.22-3.97,13.11,1.21,15.91.55.3,1.06-.39.66-.85-4.55-5.14-1.01-13.02.62-18.72,1.97-6.92,1.7-14.16-.25-21.04-.2-.71-1.31-.41-1.11.31h0Z"/>
      </g>
      <rect class="cls-2" width="100" height="100"/>
    </g>
  </g>
</svg>