<?xml version="1.0" encoding="UTF-8"?>
<svg id="Capa_2" data-name="Capa 2" xmlns="http://www.w3.org/2000/svg" viewBox="0 0 100 100">
  <defs>
    <style>
      .cls-1 {
        fill: #fff;
      }

      .cls-2 {
        fill: none;
      }

      .cls-3 {
        fill: #4a2d2d;
      }

      .cls-4 {
        fill: #c25d3d;
      }
    </style>
  </defs>
  <g id="COLOR">
    <g>
      <g>
        <path class="cls-3" d="M52.83,4.74c-.54-2.62-4.35-3.08-6.51-2.95-2.36.15-4.97,1.61-5.15,4.23-.16,2.41,2.07,3.39,4.13,3.39,0,.84.14,1.7.18,2.52.06,1.23-.02,2.52.26,3.71.14.6,1.06.59,1.2,0,.29-1.19.19-2.49.13-3.71-.04-.82-.02-1.65-.13-2.46-.05-.41-.08-.86-.29-1.22-.21-.36-.67-.44-1.05-.49-.51-.06-1.02-.05-1.52-.22-.36-.12-.71-.32-.94-.63-.41-.53-.29-1.2,0-1.76,1.09-2.13,4.02-2.09,6.02-1.67.11.02.22.04.33.07.65.16,1.25.42,1.66.98.44.6.52,1.29.02,1.9-.47.58-1.13.98-1.81,1.28-.54.23-1.48.36-1.57,1.08-.28,2.16-.31,4.63.05,6.78.15.89,1.36.55,1.44-.2.23-1.97.16-4.21-.02-6.21,1.98-.44,4.02-2.18,3.57-4.4Z"/>
        <path class="cls-3" d="M49.26,90.12c.18-2,.25-4.24.02-6.22-.09-.74-1.29-1.09-1.44-.2-.17,1-.25,2.01-.26,3.02s.06,2.01.12,3.02c.01.27.03.55.12.81.29.86,1.35.92,2.04,1.3.57.31,1.17.7,1.54,1.25.55.82.04,1.59-.68,2.09-.95.66-2.67.77-3.74.76-1.43-.01-3.12-.45-3.82-1.84-.31-.61-.46-1.36.06-1.89.31-.31.72-.48,1.14-.6.38-.1.77-.14,1.16-.16.32-.02.69.04.98-.14s.37-.51.42-.82c.16-1.05.11-2.12.17-3.17.06-1.22.16-2.52-.13-3.71-.14-.59-1.06-.6-1.2,0-.29,1.2-.2,2.49-.26,3.71-.04.82-.18,1.68-.18,2.52-2.01,0-4.22.93-4.14,3.27.09,2.67,2.78,4.2,5.16,4.35,2.12.13,5.72-.28,6.44-2.71.68-2.29-1.44-4.18-3.5-4.64Z"/>
        <path class="cls-4" d="M72.58,29.43c-2.06-12.44-17.12-16.79-28.12-15.62-12.12,1.28-25.29,9.67-23.58,23.63.41,3.31,1.64,6.46,3.38,9.29,1.93,3.13,4.48,5.53,6.74,8.37,2.5,3.14,2.67,6.56,2.23,10.4-.37,3.2-.99,6.6.08,9.74,1.08,3.15,3.69,5.34,6.5,6.95,2.99,1.71,6.25,2.86,9.73,2.37,6.78-.94,12.01-6.8,14.7-12.75,1.39-3.07,2.23-6.33,2.45-9.69.29-4.34-.68-8.78.19-13.07,1.39-6.79,6.9-12.32,5.69-19.62Z"/>
        <path class="cls-3" d="M30,28.89c2.75-1.93,6.01-2.84,9.35-2.88,3.57-.04,6.69,1.04,10.02,2.11,2.96.95,5.28.01,7.71-1.73,1.43-1.03,2.73-2.1,4.41-2.72,1.8-.66,3.7-.76,5.6-.65.52.03.65-.83.12-.92-3.18-.56-6.17.39-8.81,2.18-1.39.94-2.77,2.05-4.32,2.73-2.31,1.01-4.29.08-6.5-.69-5.91-2.06-12.88-2.09-18.04,1.8-.45.34-.03,1.1.45.77h0Z"/>
        <path class="cls-3" d="M25.76,43.43c3.22-4,7.43-6.38,12.39-7.59,2.72-.66,5.51-.97,8.3-1.09,2.92-.13,5.87.17,8.78-.04.68-.05.66-.97,0-1.05-3.08-.34-6.36-.15-9.45.05-2.84.19-5.68.57-8.42,1.35-4.6,1.32-9.31,3.84-12.28,7.68-.37.48.29,1.17.68.68h0Z"/>
        <path class="cls-3" d="M64.19,32.68c.93.11,1.85.26,2.77.43.76.14,1.52.41,2.29.35.4-.03.57-.54.21-.77-1.4-.88-3.68-.81-5.27-.79-.51,0-.48.72,0,.78h0Z"/>
        <path class="cls-3" d="M32.83,46.87c4.96-1.96,10.14-3.41,15.41-4.2,5.48-.81,10.95-.71,16.47-.55.37.01.47-.59.09-.66-10.7-1.94-22.45.3-32.34,4.53-.5.21-.14,1.08.37.88h0Z"/>
        <path class="cls-3" d="M64.74,49.16c-3.04-.57-6.1-.92-9.19-1.02-2.14-.07-5.31-.49-7.21.81-.8.55-1.12,1.3-1.53,2.15-.85,1.74-2.09,2.29-4.02,2.29-2.9,0-5.95-.38-8.83.05-.41.06-.4.74,0,.81,2.8.49,5.99.39,8.83.27,1.76-.07,3.38-.51,4.3-2.14.75-1.34,1.18-2.34,2.85-2.79,1.34-.36,2.83-.27,4.22-.26,3.45.03,6.9.36,10.3.9.69.11,1-.93.29-1.06h0Z"/>
        <path class="cls-3" d="M37.32,61.52c3.42-1.39,6.91-2.57,10.54-3.27,3.86-.75,7.64-.61,11.52-.9.43-.03.6-.73.11-.81-3.64-.65-7.66-.11-11.27.54-3.88.7-7.69,1.87-11.24,3.61-.46.22-.13,1.03.35.83h0Z"/>
        <path class="cls-3" d="M41.67,67.81c3.49-1.03,7.05-1.75,10.7-1.85,3.54-.1,6.82.74,10.3,1.09.41.04.59-.62.21-.79-3.11-1.42-7.15-1.58-10.51-1.48-3.74.11-7.45.81-10.92,2.24-.47.19-.3.94.22.79h0Z"/>
        <path class="cls-3" d="M52.83,72.48c-2.98.12-5.95.29-8.88.82-2.59.47-5.66,1.16-7.7,2.92-.29.25.02.75.37.64,2.59-.83,4.92-1.97,7.63-2.49s5.72-.74,8.59-.97c.58-.05.6-.95,0-.92h0Z"/>
        <path class="cls-3" d="M47.72,78.25c.74-.27,1.49-.49,2.26-.63s1.56-.13,2.31-.34c.39-.11.44-.76,0-.84-1.6-.31-3.44.4-4.9,1.02-.44.19-.13.95.33.79h0Z"/>
        <path class="cls-3" d="M55.21,61.69c1.19,0,2.47.14,3.64-.04.36-.06.36-.67,0-.73-1.18-.18-2.45-.05-3.64-.04-.52,0-.52.8,0,.81h0Z"/>
        <path class="cls-3" d="M37.38,72.55c.83-.2,1.73-.34,2.49-.72.39-.2.2-.81-.22-.81-.86,0-1.73.3-2.56.5-.67.16-.39,1.19.28,1.03h0Z"/>
        <path class="cls-3" d="M50.79,54.46c.35-.12.71-.22,1.07-.32s.66-.24,1-.39c.28-.13.22-.63-.09-.68-.43-.07-.76-.1-1.2,0-.41.1-.8.24-1.19.42-.55.25-.16,1.17.41.98h0Z"/>
        <path class="cls-3" d="M60.77,53.82c.46.05.93.15,1.39.1.36-.04.47-.53.09-.65-.47-.15-.99-.13-1.48-.17s-.45.67,0,.72h0Z"/>
        <path class="cls-3" d="M38.36,49.13c1.75-.68,3.71-.93,5.4-1.7.37-.17.16-.72-.2-.72-1.88-.03-3.82.97-5.48,1.76-.37.17-.1.81.28.66h0Z"/>
        <path class="cls-3" d="M58.37,45.31c.5,0,.98.02,1.47-.05.3-.05.3-.55,0-.6-.49-.08-.98-.06-1.47-.05-.45,0-.45.7,0,.7h0Z"/>
        <path class="cls-3" d="M38.11,39.94c1.77-.72,3.57-.9,5.45-1.05.38-.03.52-.62.1-.71-2.03-.43-4.05.08-5.89.95-.45.21-.13.99.34.81h0Z"/>
        <path class="cls-3" d="M26.29,35.92c1.46-1.04,3.08-1.78,4.57-2.76.35-.23.13-.79-.29-.68-1.75.47-3.38,1.7-4.72,2.86-.31.27.1.82.45.58h0Z"/>
        <path class="cls-3" d="M35.35,31.53c.37-.06.74-.1,1.07-.3.29-.18.23-.61-.09-.71-.37-.11-.74-.05-1.11-.01-.31.03-.55.26-.51.59s.34.48.65.43h0Z"/>
        <path class="cls-3" d="M49.12,20.82c1.09-.28,2.18-.24,3.28-.42.37-.06.35-.65,0-.73-1.11-.26-2.43.02-3.51.3-.55.14-.32.99.23.85h0Z"/>
        <path class="cls-3" d="M40.15,21.1c-.7-.06-1.5-.04-2.12.3-.42.23-.18.78.22.82.63.06,1.27-.03,1.9.04.74.08.75-1.1,0-1.16h0Z"/>
        <path class="cls-1" d="M31.44,23.67c.53-.27,1.12-.53,1.44-1.07s-.1-1.06-.64-1.11c-.61-.06-1.22.31-1.74.57-.44.21-.6.88-.34,1.28.29.45.81.57,1.28.34h0Z"/>
        <path class="cls-1" d="M62.4,29.14c.72.01,1.86.22,2.38-.41.25-.3.25-.65,0-.96-.52-.63-1.66-.42-2.38-.41-1.14.02-1.14,1.76,0,1.77h0Z"/>
        <path class="cls-1" d="M61.45,36.43c.93,0,.93-1.44,0-1.44s-.93,1.44,0,1.44h0Z"/>
        <path class="cls-1" d="M38.95,64.86c.34-.11.74-.23.98-.5.22-.25.23-.7-.11-.87-.13-.07-.25-.11-.4-.13-.07,0-.14-.01-.21-.02-.15,0-.3,0-.46.02-.46.04-.81.38-.75.86.06.43.51.78.95.63h0Z"/>
        <path class="cls-1" d="M56.93,73.72c.5.17.97.35,1.51.28.57-.07.88-.68.47-1.13s-.95-.63-1.5-.86c-.43-.18-.99.19-1.09.62-.11.49.15.93.62,1.09h0Z"/>
      </g>
      <rect class="cls-2" width="100" height="100"/>
    </g>
  </g>
</svg>