<?xml version="1.0" encoding="UTF-8"?>
<svg id="Capa_2" data-name="Capa 2" xmlns="http://www.w3.org/2000/svg" viewBox="0 0 100 100">
  <defs>
    <style>
      .cls-1 {
        fill: #fff;
      }

      .cls-2 {
        fill: none;
      }

      .cls-3 {
        fill: #4a2d2d;
      }

      .cls-4 {
        fill: #b7411b;
      }
    </style>
  </defs>
  <g id="COLOR">
    <g>
      <g>
        <path class="cls-4" d="M73.29,27.9c-3.37.63-6.12,1.25-6.12,1.25,0,0-9.96,2.43-20-.16-10.04-2.59-22.12-5.02-31.06,2.12-8.94,7.14-6.35,18.98-6.27,23.21s1.1,6.74.31,12.31c-.78,5.57-2.35,10.74,1.33,13.72,3.69,2.98,8.86,2.67,15.84-1.02,6.98-3.69,12.31-7.22,18.35-8.47,6.04-1.25,12.08-1.1,17.33-4.47,5.25-3.37,8.63-8.16,10.67-11.06,2.04-2.9,5.65-6.51,8.31-8.39,2.67-1.88,6.27-3.29,8.31-7.84,2.04-4.55,1.95-6.95.16-8.94-2.9-3.22-13.8-2.9-17.18-2.27Z"/>
        <path class="cls-3" d="M8.98,75.62c2.1,5.65,10.83,2.93,14.62,1.05,3.08-1.53,5.88-3.55,8.77-5.4,3.3-2.11,6.78-3.89,10.48-5.18,6.39-2.23,13.39-2.55,19.54-5.47,6.61-3.13,9.46-9.43,14.1-14.63,2.71-3.04,5.93-5.22,9.4-7.31,2.53-1.53,5.21-3.46,5.82-6.54.19-.96-1.2-1.37-1.48-.41-.83,2.89-3.39,4.39-5.84,5.83-2.61,1.53-5.07,3.2-7.26,5.3s-4.11,4.67-5.85,7.26c-1.92,2.84-3.86,5.74-6.75,7.69-5.2,3.51-11.79,4.08-17.73,5.57-6.43,1.61-12.07,4.58-17.56,8.22-2.93,1.94-5.91,3.94-9.25,5.1-3.26,1.13-7.81,1.85-10.01-1.51-.32-.49-1.22-.19-1,.42h0Z"/>
        <path class="cls-3" d="M18.31,81.45c.9,0,.9-1.4,0-1.4s-.9,1.4,0,1.4h0Z"/>
        <path class="cls-3" d="M21.32,79.82v-.27c0-.21-.04-.4-.16-.58-.11-.16-.26-.31-.45-.35s-.43-.04-.59.08c-.08.06-.16.11-.23.17-.13.13-.18.27-.24.44-.03.09-.06.18-.1.28-.08.23-.02.49.09.69.13.25.39.39.66.43.53.07,1.02-.34,1.02-.88h0Z"/>
        <path class="cls-3" d="M40.18,70.97c.08-.41.13-.79.04-1.21-.08-.36-.26-.76-.64-.87-.42-.12-.71.23-.9.54-.21.36-.26.59-.36,1.02-.11.49.15,1.07.67,1.19.48.11,1.08-.14,1.19-.67h0Z"/>
        <path class="cls-3" d="M44.25,70c.13-.16.23-.3.26-.51.02-.15.03-.32-.02-.47-.02-.06-.05-.11-.07-.17-.03-.07-.05-.14-.09-.21-.03-.06-.1-.13-.15-.19-.23-.25-.7-.25-.93,0-.03.04-.06.08-.1.12-.06.08-.1.17-.14.26-.03.06-.06.13-.08.19-.04.11-.04.24-.04.36.01.14.04.28.11.41.03.06.11.14.16.21.11.14.37.23.53.22.19,0,.41-.07.53-.22h0Z"/>
        <path class="cls-3" d="M46.1,68.52c-.04-.16-.07-.33-.21-.44-.05-.05-.1-.09-.17-.11-.06-.03-.13-.05-.2-.04l-.14.02c-.09.02-.16.07-.23.13-.14.11-.17.28-.21.44-.05.2,0,.43.15.58.12.11.26.17.42.17.15,0,.31-.07.42-.17.15-.15.2-.37.15-.58h0Z"/>
        <path class="cls-3" d="M62.29,64.76c.02-.72-.03-1.48-.52-2.04-.26-.3-.88-.25-1.05.14-.27.61-.21,1.26-.28,1.91-.05.5.46.93.93.93.51,0,.91-.42.93-.93h0Z"/>
        <path class="cls-3" d="M65.61,62.24l-.13-.11-.15-.11-.17-.07-.19-.03c-.1,0-.19.02-.28.06-.06.02-.11.05-.16.09-.05.03-.1.08-.13.13-.04.05-.08.1-.09.16-.05.09-.07.18-.06.28v.16c0,.14.05.28.12.4.07.12.17.21.28.28.12.07.26.11.4.11.11,0,.21-.02.31-.07.1-.03.18-.09.26-.16.1-.1.17-.22.2-.35.04-.14.04-.28,0-.42-.04-.13-.11-.25-.2-.35h0Z"/>
        <path class="cls-3" d="M77.75,48.68s.04-.06.06-.09c.1-.18.13-.39.08-.58-.04-.17-.11-.33-.24-.45-.25-.24-.64-.24-.89,0-.13.12-.19.29-.24.45-.05.2-.03.4.07.57.02.03.04.07.06.1.13.19.31.31.54.31s.41-.13.54-.31h0Z"/>
        <path class="cls-3" d="M82.03,45.23v-.05s0-.07-.01-.11c-.01-.11,0-.08-.05-.18-.02-.06-.04-.1-.08-.15-.03-.05-.07-.09-.12-.12-.05-.04-.04-.04-.08-.06-.1-.05-.21-.1-.33-.09l-.16.02-.15.06s0,0-.01,0,0,0-.01,0l-.13.1-.1.13-.07.16h0c-.02.08-.02.14-.02.21v.05c0,.09.02.18.06.26.03.08.07.15.14.21.06.06.13.11.21.14.08.04.16.06.26.06l.18-.02c.11-.03.21-.09.29-.17l.1-.13c.06-.1.09-.21.09-.33h0Z"/>
        <path class="cls-3" d="M87.79,40.17c.45,0,.45-.71,0-.71s-.45.71,0,.71h0Z"/>
        <path class="cls-3" d="M66.46,29.46c-7.06,2.47-13.31,7.5-16.99,14.04-.21.37.32.66.56.32,4.19-6.12,9.75-10.82,16.63-13.65.43-.18.26-.87-.2-.71h0Z"/>
        <path class="cls-3" d="M48.84,44.89c-.11.29-.22.57-.33.86-.07.19.08.41.26.46.21.06.39-.07.46-.26l.33-.86c.07-.19-.08-.41-.26-.46-.21-.06-.39.07-.46.26h0Z"/>
        <path class="cls-3" d="M47.98,47.51c-.94,2.51-1.57,5.2-1.71,7.89-.12,2.34.06,5.37,1.16,7.48.22.41.93.23.9-.24-.18-2.43-.83-4.75-.87-7.23-.04-2.66.35-5.18,1.18-7.7.14-.43-.52-.6-.67-.18h0Z"/>
        <path class="cls-1" d="M21.47,32.62c-2.64.85-4.61,2.85-5.95,5.24-1.15,2.04-2.54,5.65-1.14,7.83.49.77,1.61.8,2.1,0,.54-.89.56-1.82.73-2.82.2-1.18.57-2.31,1.07-3.4.96-2.08,2.48-3.76,4.02-5.43.55-.59.02-1.69-.83-1.42h0Z"/>
        <path class="cls-1" d="M14.23,50.48c0,.31.03.6.09.9l.11.27c.07.13.17.24.29.32.19.15.44.25.68.24.2,0,.39-.06.57-.15.23-.12.47-.42.52-.67.06-.3.09-.59.09-.9s-.13-.62-.35-.83-.54-.36-.83-.35c-.64.03-1.18.52-1.18,1.18h0Z"/>
        <path class="cls-1" d="M56.82,44.39c.07-.49.13-.95.07-1.44-.04-.33-.21-.67-.57-.75-.34-.08-.71.05-.88.36-.24.42-.39.85-.51,1.31-.13.5.16,1.09.68,1.21.46.11,1.13-.14,1.21-.68h0Z"/>
        <path class="cls-1" d="M66.17,35.25l-.05-.22-.06-.15c-.04-.07-.09-.13-.16-.17-.04-.04-.08-.07-.14-.08-.07-.04-.15-.06-.24-.05-.11,0-.22.03-.31.08-.07.04-.13.09-.17.16-.05.06-.09.13-.11.21l-.05.22c-.06.23,0,.49.17.66.13.12.3.2.48.2.17,0,.36-.08.48-.2.17-.17.23-.42.17-.66h0Z"/>
        <path class="cls-1" d="M85.52,34.14c1.08,0,1.08-1.67,0-1.67s-1.08,1.67,0,1.67h0Z"/>
        <path class="cls-1" d="M25.76,67.37c.12,0,.24-.02.34-.08.11-.04.2-.1.28-.18.09-.08.15-.17.18-.28.06-.11.08-.22.08-.34l-.03-.23c-.04-.15-.12-.28-.23-.39-.17-.16-.39-.26-.62-.26-.12,0-.24.02-.34.08-.11.04-.2.1-.28.18-.09.08-.15.17-.18.28-.06.11-.08.22-.08.34l.03.23c.04.15.12.28.23.39.17.16.39.26.62.26h0Z"/>
      </g>
      <rect class="cls-2" width="100" height="100"/>
    </g>
  </g>
</svg>