<?xml version="1.0" encoding="UTF-8"?>
<svg id="Capa_2" data-name="Capa 2" xmlns="http://www.w3.org/2000/svg" viewBox="0 0 100 100">
  <defs>
    <style>
      .cls-1 {
        fill: #fff;
      }

      .cls-2 {
        fill: none;
      }

      .cls-3 {
        fill: #4a2d2d;
      }

      .cls-4 {
        fill: #df6569;
      }

      .cls-5 {
        fill: #ea999c;
      }
    </style>
  </defs>
  <g id="COLOR">
    <g>
      <g>
        <path class="cls-3" d="M96.55,52.46c-.32-.26-1.11-.63-1.34-.76,1.75-.72,3.84-1.79,3.32-3.43-.39-1.22-1.53-1.49-2.8-1.33.23-.28.46-.58.67-.88.62-.91,2.01-2.76.93-3.8-.99-.95-2.44.04-3.36.59-1.71,1-3.5,2.34-4.59,4.02-.48.73.02,1.68.6,1.22.87-.69,4.46-5.06,5.92-4.45,1.51.64-3.66,4.86-4.21,5.21-.84.56-.41,1.4.45.84.78-.52,5.34-2.4,4.52-.61-.45.98-4.32,2.19-5.22,2.42-.98.25-.99.99.06.89.67-.06,5.04.32,4.26,1.96-.41.87-3.88-.64-4.67-.91-1.23-.41-1.8,1.6-.54,1.95,1.5.42,7.33,2.24,7.62-.7.1-1.06-.89-1.65-1.63-2.24Z"/>
        <path class="cls-5" d="M34.97,85.32c-3.15,1.08-11.14,2.02-18.84-3.69-2.47-1.83-4.9-4.34-7.14-7.74-.66-1.01-1.23-2.05-1.7-3.13-6.22-13.98,1.31-31.87,8.59-34.76,7.27-2.89,12.85,1.91,13.24,2.05,0,0,10.78,2.08,14.54,10.39,3.77,8.31-4.55,35.45-8.7,36.88Z"/>
        <path class="cls-1" d="M15.88,51.43c-5.44-3.11-8.99,6.12-5.3,9.6,2.62,2.47,5.75.57,7.1-2.17,1.26-2.55.82-5.93-1.8-7.43Z"/>
        <path class="cls-1" d="M27.24,78.76c-.64.62-.86,1.67-.42,2.46.29.53.87.91,1.48.89,1.69-.06,2.54-2.22,1.32-3.41-.68-.67-1.72-.59-2.38.06Z"/>
        <path class="cls-1" d="M16.02,43.74c.99.13,2.14-.02,2.92-.69.23-.19.36-.41.41-.61.24-.95-1-1.21-1.67-1.1-.54.08-1.11.31-1.55.64-.35.27-.96,1-.68,1.48.11.19.35.25.57.28Z"/>
        <path class="cls-1" d="M27.47,71.7c3.14,1.68,6.04-.86,7.2-3.72.83-2.06.45-4.9-1.09-6.55-3.24-3.47-7.17-.31-8.4,3.24-.91,2.66-.34,5.63,2.29,7.03Z"/>
        <path class="cls-4" d="M59.71,80.72c10.64-2.03,22.81-5.07,28.77-15.07,5.39-9.04,2.15-22.05-4.39-29.68-3.59-4.19-8.42-6.6-13.91-7.16-5.51-.56-11.05.35-16.52,1.02-10.68,1.3-28.58,3.3-36.85,5.43,1.02.27,14.22,2.81,19.16,12.68,4.98,9.97,6.49,22.03,1.03,31.9-1.25,2.25-3.1,4.38-5.14,6.12,6.71-.94,26.12-4.89,27.85-5.22Z"/>
        <path class="cls-3" d="M57.38,63.64c.37,2.68.3,5.54-.24,8.2-.53,2.61-1.66,4.89-2.75,7.29-.29.64.53,1.46,1.07.82,3.77-4.46,4.56-11.17,3.28-16.69-.21-.9-1.47-.49-1.35.37h0Z"/>
        <path class="cls-3" d="M71.46,59.05c.61,2.67.86,5.42.6,8.16s-1.22,5.25-2.27,7.83c-.29.71.78,1.05,1.17.49,3.31-4.74,3.86-11.52,2.06-16.91-.33-.98-1.79-.59-1.56.43h0Z"/>
        <path class="cls-3" d="M16.04,36.1c5.51.8,10.45,2.87,14.59,6.7,3.92,3.62,6.66,8.37,7.9,13.56,1.2,5.07,1.51,10.6.69,15.76-.42,2.61-1.12,5.27-2.34,7.63-1.22,2.36-2.76,4.06-4.61,5.91-.76.77.31,1.01,1.25.51,3.58-1.9,5.57-5.43,6.82-9.11,1.48-4.37,1.81-9.19,1.51-13.77-.59-9.01-4.18-17.91-11.51-23.49-4.07-3.1-8.77-4.89-13.71-4.63-.8.04-1.43.82-.58.94h0Z"/>
        <path class="cls-1" d="M13.11,73.71c.26.66.65,1.3,1.23,1.71.55.38,1.22.53,1.88.63.89.13,1.91.14,2.56-.48.21-.2.37-.46.49-.72.62-1.32.5-2.95-.29-4.17-1-1.56-3.64-2.84-5.41-1.74-1.53.95-1.03,3.39-.47,4.78Z"/>
        <path class="cls-1" d="M24.81,50.94c.7,1.14,2.01,1.87,3.34,1.89.39,0,.78-.05,1.13-.21.34-.15.64-.39.9-.66.46-.47.84-1.05,1.01-1.69s.12-1.36-.23-1.92c-.17-.29-.41-.53-.65-.76-.86-.83-1.9-1.6-3.1-1.67-2.8-.16-3.68,2.98-2.42,5.02Z"/>
        <path class="cls-1" d="M35.89,38.25c2.45.03,4.95-.57,7.38-.87s4.95-.57,7.44-.77,4.73-.34,7.1-.42c2.19-.08,5.07.36,6.92-1.04.68-.52.69-1.36,0-1.87-1.88-1.39-4.72-.84-6.92-.72-2.62.15-5.24.37-7.85.67-4.79.56-10.2.94-14.67,2.84-1.12.48-.48,2.16.59,2.17h0Z"/>
        <path class="cls-1" d="M71.18,34.48l.08-.11c.09-.15.13-.31.13-.48,0-.17-.04-.33-.13-.48l-.08-.11c-.07-.14-.17-.25-.3-.33-.07-.07-.16-.12-.26-.15-.14-.07-.29-.11-.45-.1l-.31.04-.28.12c-.14.07-.25.17-.33.3-.07.07-.12.16-.15.26-.07.14-.11.29-.1.45l.04.31.12.28c.07.14.17.25.3.33.07.07.16.12.26.15.14.07.29.11.45.1l.31-.04.28-.12c.18-.1.32-.24.42-.42h0Z"/>
      </g>
      <rect class="cls-2" width="100" height="100"/>
    </g>
  </g>
</svg>