<?xml version="1.0" encoding="UTF-8"?>
<svg id="Capa_2" data-name="Capa 2" xmlns="http://www.w3.org/2000/svg" viewBox="0 0 100 100">
  <defs>
    <style>
      .cls-1 {
        fill: #fff;
      }

      .cls-2 {
        fill: #ae877d;
      }

      .cls-3 {
        fill: none;
      }

      .cls-4 {
        fill: #4a2d2d;
      }
    </style>
  </defs>
  <g id="COLOR">
    <g>
      <g>
        <path class="cls-1" d="M28.11,88.29h40.44c13.2,0,23.86-10.77,23.73-23.96h0s.78-5.12-2.17-6.24c-2.49-.95-3.38.03-3.38.03,0,0,.46-2.77-1.62-4.05s-3.47-1.62-4.51-1.5-3.7,1.04-3.7,1.04c0,0-.12-3.58-2.77-4.74s-4.05-1.5-5.43-.81-3.93,2.08-3.93,2.08c0,0-24.97,11.1-26.13,11.56,0,0-3.93,1.85-4.28,5.67s.92,6.47.92,6.47c0,0-4.58.13-5.67,3.24-1.85,5.32,1.27,7.52,1.27,7.52,0,0-3.01,2.2-2.77,3.7Z"/>
        <g>
          <path class="cls-4" d="M39.6,62.39c.87-.11.9-1.48,0-1.39-2.63.26-4.58,2.49-5.51,4.83-.91,2.29-.69,5.05.25,7.36-2.51.25-4.62,1.62-5.64,4.1-1.05,2.56-.58,5.7,1.19,7.82-1.01.76-1.8,1.67-2.28,2.9-.22.56.7.95.97.41.6-1.22,1.4-2.1,2.79-2.38.66-.13.73-.94.36-1.37-1.53-1.82-2.69-4.15-1.88-6.57.73-2.16,3.22-3.88,5.5-3.61.51.06.82-.6.57-1-1.25-2.04-1.54-3.98-.82-6.29.6-1.91,2.33-4.53,4.49-4.8Z"/>
          <path class="cls-4" d="M91.82,58.42c-1.13-1.15-2.66-1.5-4.15-1.24-.2-1.86-1.24-3.58-2.94-4.48-2.27-1.19-4.83-.63-7.17.08-.42-2.22-1.96-4.04-4.14-4.87-2.73-1.04-5.65-.14-7.81,1.67-.51.43.22,1.13.72.72,1.75-1.4,4.12-2.16,6.33-1.48,2.11.66,3.54,2.74,3.55,4.91,0,.44.47.87.92.7,1.91-.69,4.23-1.57,6.22-.69,1.8.79,2.75,2.63,2.62,4.55-.05.72.75.98,1.29.74,2.89-1.25,4.71,1.69,4.01,4.23-.18.66.71.99,1.07.45,1.11-1.68.9-3.85-.52-5.3Z"/>
          <path class="cls-2" d="M64.89,57.45c.64-.96,1.53-1.84,2.57-2.35.44-.22.9-.35,1.36-.43-.04-.17-.06-.27-.06-.27,0,0-6.78-13.87-9.27-16.8-2.49-2.94-2.49-3.32-2.49-3.32,0,0,6.25-.68,7.61-3.99,1.36-3.32-.53-6.25-4.3-7.01-3.77-.75-9.42,3.01-9.42,3.01,0,0-4.6-6.93-12.28-5.58-7.69,1.36-11.38,7.46-18.46,11.83-7.08,4.37-12.59,5.73-13.41,10.85-.83,5.12,1.66,9.65,7.01,9.8,5.35.15,9.21-3.24,12.28-2.49,4.6,1.13,8.21,1.96,8.21,1.96,0,0,5.2,8.21,6.41,12.66.56,2.05.81,3.41.92,4.28.72-.53,1.51-.96,2.36-1.27,2.22-.81,4.67-.59,6.83.31.91.38,1.81.85,2.65,1.38-.01-.17-.03-.35-.03-.52-.03-.84.04-1.69.28-2.5.92-3.02,3.89-4.91,7-4.57,1.13.13,2.17.49,3.14,1.03-.4-2.08-.13-4.18,1.09-6.01Z"/>
          <path class="cls-4" d="M72.33,53.3c-2.73-.43-5.87,1.06-7.64,3.1-1.47,1.7-1.93,3.75-1.74,5.83-4.35-2.21-10.24,1.51-10.32,6.41-2.18-1.51-4.9-2.16-7.55-1.65-2.92.56-6.4,2.74-7.46,5.64-.24.66.69.92,1.04.44,1.85-2.5,3.38-4.39,6.67-4.81,2.86-.37,5.63.68,7.74,2.6.51.46,1.39.02,1.19-.69-.68-2.33.33-5.1,2.59-6.18,2.42-1.15,4.76-.13,6.92,1,.73.38,1.59-.4,1.15-1.15-1.28-2.21-.23-5.13,1.46-6.82,1.7-1.7,3.72-1.91,5.94-2.43.61-.14.66-1.18,0-1.28Z"/>
          <path class="cls-4" d="M65.6,25.75c-1.98-2.97-6.28-3.38-9.44-2.64-3.84.91-7.25,3.73-9.56,6.85-.41.56.49,1.24.96.74,2.08-2.25,4.06-4.41,6.99-5.57,2.69-1.07,6.26-1.02,8.55.95,1.14.97,1.21,1.94.74,2.81-4.53-2.82-11.88-.37-15.11,3.5-.11.13-.14.29-.12.45-.09.32-.01.7.33.85,3.86,1.76,8.36,2.03,12.25.23,2.91-1.34,6.71-4.73,4.42-8.18ZM58.71,32.16c-2.7.69-5.37.53-8.09.27,3.64-2.34,8.24-4.84,12.32-2.46-1.21,1.08-3.09,1.9-4.24,2.2Z"/>
          <path class="cls-4" d="M13.43,42.24c-.77-.39-1.52.17-1.76.89-.32.95-.68,2.33.33,3,.96.63,1.92,0,2.14-1.02.2-.93.31-2.36-.71-2.87Z"/>
          <path class="cls-4" d="M34.1,30.43c-1.56.77-2.11,3.44-.87,4.63,2.11,2.04,4.51-.55,4.26-2.63-.17-1.47-1.78-2.79-3.39-2Z"/>
          <path class="cls-4" d="M33.46,53.03c5.02,1.3,10.67.27,14.38-3.53,2.98-3.05,4.89-9.09,1.65-12.65-.41-.45-1.18.02-1.01.59.64,2.19,1.28,4.06.79,6.38-.43,2.01-1.55,3.76-3.06,5.13-3.46,3.12-8.18,3.55-12.62,3.11-.57-.06-.67.84-.13.98h0Z"/>
        </g>
      </g>
      <rect class="cls-3" width="100" height="100"/>
    </g>
  </g>
</svg>