<?xml version="1.0" encoding="UTF-8"?>
<svg id="Capa_2" data-name="Capa 2" xmlns="http://www.w3.org/2000/svg" viewBox="0 0 100 100">
  <defs>
    <style>
      .cls-1 {
        fill: #fff;
      }

      .cls-2 {
        fill: none;
      }

      .cls-3 {
        fill: #e58473;
      }

      .cls-4 {
        fill: #4f3535;
      }
    </style>
  </defs>
  <g id="COLOR">
    <g>
      <g>
        <path class="cls-3" d="M78.01,62.75s4.66-1.61,7.61-4.39,5.16-11.08,5.13-13.87c-.03-2.78-1.01-9.5-7.46-11.65s-10.3-.81-13.88-3.04c-3.58-2.24-14.41-7.97-21.31-7.88-6.89.09-18.71,3.85-21.75,6.71-3.04,2.86-5.82,8.59-6,10.92-.18,2.33,1.07,6.62,1.07,6.62,0,0-9.13,5.1-11.64,10.65-2.51,5.55-.54,10.21.36,13.97.9,3.76,3.85,10.56,5.91,12,2.06,1.43,8.24,4.21,13.7,3.76,5.46-.45,11.82-1.52,16.29-1.16,4.48.36,9.67,2.69,16.74.27,7.07-2.42,12.18-6.27,12.8-7.7s1.88-8.06,1.88-8.06c0,0,1.34-4.74.54-7.16Z"/>
        <path class="cls-1" d="M88.39,35.89c-1.52-3.31-7.79-4.12-11.55-4.12s-13.88-4.74-17.91-6.71c-4.03-1.97-11.46-3.94-18.71-2.33-7.25,1.61-12.98,5.37-15.49,7.79s-4.66,6.54-4.39,9.04c.27,2.51,1.07,6.62,1.07,6.62,0,0-3.31,2.51-5.46,3.85-2.15,1.34-5.19,5.19-6.18,7.25-.98,2.06-1.61,7.52.27,10.83,1.88,3.31,7.52,9.04,13.25,10.21,5.73,1.16,13.52,2.33,17.37,1.43,3.85-.9,12.26,1.16,15.76,1.16s13.7-3.04,16.56-5.19c2.86-2.15,4.66-5.91,5.01-9.04.36-3.13-.45-7.34-1.16-9.22,0,0,7.88-2.24,10.83-6.71,2.95-4.48,2.24-11.55.72-14.86ZM67.71,75.78c-4.97,2.42-9.6,2.95-13.5,2.75-3.89-.2-8.12-2.89-11.68-3.56-3.56-.67-10.61,1.48-15.85.81-4.2-.54-9.6-2.01-12.96-6.78-3.36-4.77-2.01-11.55.54-14.77,2.55-3.22,5.77-3.69,6.24-2.95.47.74-1.48,1.75-2.55,3.42-1.07,1.68-2.48,5.37-1.07,5.91,1.41.54,3.96-6.31,7.05-8.8,3.09-2.48,6.85-3.63,12.09-4.23,5.24-.6,12.69,3.22,15.31,5.44s1.01,9.74,1.21,12.09.6,5.91,3.42,6.78c2.82.87,9.4-1.21,11.55-2.28,2.15-1.07,5.51-3.36,6.71-2.69s-1.54,6.45-6.51,8.86ZM74.16,64.83c-1.34,1.21-2.48.6-5.44,1.07-2.95.47-6.85,4.23-10.41.87-3.56-3.36-1.95-9.87.27-10.68s3.16,1.41,5.51.87c2.35-.54,7.26-.89,9.4.67,2.48,1.81,2.01,5.98.67,7.18ZM81.95,52.9c-3.67,2.86-6,2.78-6,2.78-1.61-1.88-9.31-2.15-11.91-2.06-2.6.09-7.61-1.79-10.47-3.22-2.86-1.43-7.61-5.19-13.65-5.92-6.04-.72-15.54.9-15.54.9,0,0-.36-1.25-.9-3.22-.54-1.97-.36-4.92,1.97-8.59s6.36-5.19,7.07-3.58c.72,1.61-4.83,7.61-4.03,9.04s3.94-5.1,6.71-8.33c2.78-3.22,8.59-4.39,13.16-4.66,4.57-.27,12.35,3.31,14.77,5.73s.81,8.06,1.16,12.53c.36,4.48,2.51,6,5.28,6.27,2.78.27,9.85-2.42,12-4.03,2.15-1.61,3.76-1.61,4.48-.9s-.45,4.39-4.12,7.25ZM86.42,42.79c-1.07,1.7-2.6,1.43-5.64,1.79-3.04.36-5.28,2.78-10.12,1.07-4.83-1.7-2.6-9.31-1.16-10.47,1.43-1.16,3.58-.36,5.37,0,1.79.36,5.73.27,8.33.36,2.6.09,3.13,2.06,3.13,2.06.54,1.16,1.16,3.49.09,5.19Z"/>
        <path class="cls-4" d="M40.05,43.53c-.88-.17-1.73-.34-2.62-.39s-1.79-.06-2.68-.03c-1.76.05-3.52.22-5.26.47-3.11.45-6.38,1.05-9.22,2.45s-5.4,3.41-7.58,5.76c-2.06,2.22-3.72,4.9-4.26,7.91-.55,3.03-.07,6.35,1.35,9.09,1.33,2.54,3.25,4.83,5.52,6.57,5.5,4.22,12.47,5.26,19.22,5.41,3.46.08,6.92-.12,10.38,0,2.39.08,4.75.43,7.13.7,2.42.28,4.85.42,7.28.19,3.09-.29,6.17-1.06,9.04-2.24,1.24-.51,2.41-1.17,3.55-1.88s2.2-1.49,3.11-2.46c2.18-2.33,3.36-5.33,3.75-8.47.22-1.78.18-3.58-.04-5.36-.21-1.64-.44-3.35-1.2-4.84-1.38-2.73-4.74-3.35-7.5-3.63-1.54-.16-3.09-.18-4.64-.23-1.64-.06-3.24-.37-4.81-.84-3.18-.95-6.13-2.52-9.06-4.06-2.68-1.41-5.38-2.64-8.32-3.41-3.07-.8-6.28-1.19-9.46-1.09-1.5.05-2.94.42-4.41.7-.83.16-.48,1.42.35,1.26,1.4-.27,2.89-.17,4.3-.17s2.94.1,4.4.3c2.89.39,5.77,1.1,8.48,2.19,2.79,1.12,5.37,2.74,8.09,4,2.93,1.36,5.97,2.48,9.2,2.8,2.89.29,5.8,0,8.63.79,1.16.33,2.27.86,2.9,1.94.73,1.24.94,2.78,1.13,4.18.42,3.11.3,6.48-1.03,9.38-.58,1.27-1.35,2.44-2.33,3.44-.88.9-1.78,1.5-2.88,2.17-4.5,2.73-9.97,3.97-15.29,3.74-2.22-.1-4.42-.42-6.62-.65-2.71-.29-5.39-.29-8.12-.25-6.66.1-13.7.3-19.93-2.43-2.53-1.11-4.87-2.68-6.76-4.71-1.92-2.06-3.47-4.55-3.92-7.36s.11-5.77,1.5-8.25c1.4-2.48,3.52-4.63,5.84-6.27,1.26-.89,2.58-1.74,3.97-2.41,1.31-.63,2.75-1.02,4.16-1.36,3.12-.75,6.32-1.18,9.52-1.34.8-.04,1.6-.07,2.41-.11.87-.04,1.72-.16,2.59-.25.5-.06.71-.84.13-.95h0Z"/>
        <path class="cls-4" d="M88.2,34.17c-1.33-1.57-3.32-2.22-5.3-2.5-2.14-.3-4.29-.39-6.42-.77-2.21-.39-4.38-.96-6.48-1.75-1.97-.74-3.86-1.7-5.72-2.67-3.62-1.88-7.29-3.91-11.34-4.68-2.33-.44-4.71-.43-7.07-.29-2.08.13-4.16.35-6.21.72-4.09.73-8.14,2.1-11.58,4.46-1.56,1.07-2.99,2.35-4.19,3.82-1.25,1.51-2.2,3.14-2.94,4.95-1.49,3.62-1.5,7.48-.17,11.13.39-.3.8-.54,1.23-.74-.24-.8-.44-1.6-.59-2.42-.31-1.71-.22-3.48.19-5.17.84-3.44,2.98-6.52,5.63-8.82,2.91-2.53,6.57-4.06,10.27-4.98,3.9-.97,8.08-1.41,12.1-1.25,4.04.16,7.68,1.7,11.22,3.53,3.61,1.86,7.13,3.85,11.05,5.01,2.08.62,4.22,1.04,6.37,1.33,1.92.26,3.92.25,5.8.77.8.22,1.6.55,2.22,1.11.68.61,1.15,1.37,1.53,2.19.67,1.43,1.03,3.04,1.1,4.62.14,3.18-.8,6.36-2.65,8.95-2.1,2.96-5.4,4.67-8.79,5.74-.07.02-.14.04-.21.06.18.58.28,1.19.32,1.8,1.2-.34,2.38-.76,3.54-1.22,1.87-.75,3.63-1.82,5.09-3.22,2.56-2.46,4.09-5.87,4.54-9.36.45-3.49-.22-7.58-2.55-10.33Z"/>
        <path class="cls-4" d="M80.92,56.61l-.32,2.29-.16,1.12c-.03.2-.06.4-.08.6s-.07.43,0,.63c.12.33.54.39.73.1.12-.18.12-.4.15-.6.03-.18.05-.37.06-.55l.12-1.17.23-2.3c.04-.42-.68-.52-.74-.1h0Z"/>
        <path class="cls-4" d="M68.1,78.33c-.02.74-.03,1.47-.04,2.21v1.08c0,.39-.08.82.19,1.14.12.14.4.14.53,0,.26-.31.19-.71.19-1.1v-1.12c0-.74-.02-1.47-.04-2.21-.01-.54-.82-.54-.83,0h0Z"/>
        <path class="cls-4" d="M64.02,79.81c-.12.93-.13,1.89-.16,2.82-.02.45-.03.91-.04,1.36-.01.43-.08,1.22.55,1.22s.58-.79.6-1.22c.02-.45.04-.91.05-1.36.03-.94.09-1.89.03-2.82-.02-.28-.22-.51-.51-.51-.31,0-.48.24-.51.51h0Z"/>
        <path class="cls-4" d="M53.7,81.01c-.05.91-.1,1.83-.14,2.74l-.06,1.37c-.02.46-.07.93.11,1.36.11.26.53.41.68.09.21-.43.2-.87.21-1.35v-1.42c.02-.93.02-1.86.01-2.79,0-.53-.78-.52-.81,0h0Z"/>
        <path class="cls-4" d="M46.98,80.21c-.08.87-.06,1.74-.06,2.61v1.26c-.01.23-.02.45,0,.68.03.28.08.47.31.64.1.08.31.08.41,0,.24-.18.29-.36.31-.64.02-.23.02-.45.02-.68v-1.26c-.02-.87,0-1.74-.08-2.61-.06-.59-.86-.59-.91,0h0Z"/>
        <path class="cls-4" d="M30.26,79.27c-.13,1.11-.22,2.24-.22,3.36,0,.56.01,1.12.04,1.68s.04,1.12.2,1.65c.14.42.68.31.73-.1.07-.55-.02-1.12-.04-1.68s-.04-1.08-.04-1.62c0-1.1.02-2.19.11-3.29.04-.5-.72-.49-.78,0h0Z"/>
        <path class="cls-4" d="M23.9,79.4c-.07,1.03-.09,2.05-.02,3.08.03.49.08.99.14,1.48s.07,1.13.33,1.57c.17.29.72.27.78-.1.08-.48-.07-.99-.13-1.47-.07-.51-.11-1.02-.15-1.53-.07-1.01-.08-2.02-.03-3.02.03-.59-.87-.58-.91,0h0Z"/>
        <path class="cls-4" d="M15.91,76.04c.07,1.05.12,2.11.25,3.16.06.5.13,1,.2,1.5.08.53.11,1.09.32,1.59.15.36.65.14.67-.18.03-.49-.13-1.01-.21-1.5s-.16-1.01-.23-1.51c-.14-1.02-.3-2.03-.41-3.06-.04-.37-.62-.39-.6,0h0Z"/>
        <path class="cls-4" d="M25.35,65.08c1.85-2.02,3.77-3.96,5.69-5.92.95-.97,1.9-1.92,2.86-2.88s1.99-1.86,2.8-2.92c.19-.25-.19-.62-.44-.44-1.06.76-1.97,1.77-2.89,2.69-.98.98-1.94,1.98-2.9,2.98-1.89,1.98-3.71,4.04-5.52,6.09-.24.27.15.68.41.41h0Z"/>
        <path class="cls-4" d="M33.35,68.22l.44-.69c.04-.06.05-.17.03-.24-.02-.07-.06-.12-.11-.16s-.12-.07-.19-.07c-.08,0-.17.03-.22.09l-.53.62s-.08.1-.09.16v.1c-.02.11.04.22.13.29.08.06.17.09.27.07.12-.02.2-.08.27-.18h0Z"/>
        <path class="cls-4" d="M34.73,66.34c1.04-1.25,2.11-2.47,3.21-3.67.54-.58,1.07-1.16,1.61-1.74s1.16-1.17,1.65-1.82c.25-.33-.26-.62-.52-.4-.63.5-1.17,1.14-1.72,1.73s-1.1,1.2-1.62,1.82c-1.04,1.23-2.05,2.48-3.03,3.75-.19.24.23.57.43.33h0Z"/>
        <path class="cls-4" d="M44.94,67.91c.65-.63,1.31-1.26,1.98-1.88.32-.3.62-.63.93-.95.33-.34.65-.69.9-1.1.17-.28-.18-.66-.46-.46-.38.26-.7.59-1.01.93s-.63.66-.92,1.01c-.58.71-1.17,1.4-1.77,2.09-.21.24.12.59.36.36h0Z"/>
        <path class="cls-4" d="M63.16,75.17c.37-.2.73-.42,1.06-.68s.67-.52.88-.88c.08-.14.07-.35-.06-.47s-.32-.15-.47-.06c-.34.22-.62.52-.94.78-.02.01-.03.03-.05.04-.04.03,0,.01.01,0-.04.05-.12.09-.18.14-.04.03-.07.06-.11.09-.08.06.05-.03,0,0-.02.01-.03.03-.05.04-.16.12-.32.23-.49.34s-.26.35-.14.53.34.24.53.14h0Z"/>
        <path class="cls-4" d="M68.55,73.04c.3-.19.59-.4.86-.62s.51-.49.65-.82c.06-.14.07-.31-.05-.42-.11-.1-.28-.14-.42-.05s-.25.17-.37.26c-.15.11-.28.25-.42.38-.11.11-.23.21-.35.31-.06.05-.12.1-.18.15l.04-.03s-.02.02-.03.02c-.02.01-.03.03-.05.04-.03.03-.07.05-.1.07-.09.06-.16.14-.19.24-.03.1-.01.23.04.32.12.18.36.27.56.15h0Z"/>
        <path class="cls-4" d="M71.59,62.51c.28-.33.56-.65.85-.96.15-.15.29-.3.44-.45.16-.16.34-.32.46-.52.16-.26-.15-.56-.41-.41-.2.12-.36.29-.52.46s-.29.32-.43.49c-.29.34-.58.69-.85,1.04-.09.11-.03.3.07.38s.29.09.38-.02h0Z"/>
        <path class="cls-4" d="M60.94,63.85c.93-1.06,2.01-2.04,2.62-3.33.08-.16.06-.35-.09-.46-.13-.1-.35-.11-.47.03-.91,1.05-1.55,2.31-2.47,3.36-.24.28.16.68.41.41h0Z"/>
        <path class="cls-4" d="M66.84,63.49l.13-.14s.08-.1.11-.15l.05-.08.04-.09s.02-.1,0-.14c0-.03,0-.06-.02-.09-.01-.04-.04-.08-.07-.12l-.07-.06-.09-.04s-.1-.02-.14,0c-.05,0-.09.02-.13.04l-.08.05c-.05.03-.1.07-.15.12l-.14.13s-.07.08-.08.13c-.03.05-.04.1-.04.16,0,.06,0,.11.04.16.02.05.04.09.08.13l.08.06c.06.04.13.06.21.06h.11c.07-.03.13-.07.18-.12h0Z"/>
        <path class="cls-4" d="M76.13,53.71l.16-.2c.05-.06.1-.12.14-.19l.07-.11.04-.1c.02-.06.02-.11,0-.17,0-.04,0-.07-.03-.11-.02-.05-.05-.1-.09-.14l-.09-.07-.1-.04c-.06-.02-.11-.02-.17,0-.06,0-.11.02-.16.05l-.11.07c-.07.04-.13.09-.19.14l-.2.16s-.08.1-.11.16c-.03.06-.05.13-.04.2,0,.07.01.14.04.2.02.06.06.12.11.16l.1.08c.08.05.16.07.26.07l.14-.02c.09-.02.16-.07.22-.13h0Z"/>
        <path class="cls-4" d="M80.2,52.4c.56-.5,1.1-1.02,1.62-1.56.25-.26.5-.53.74-.81.25-.29.54-.58.73-.92.17-.29-.21-.56-.45-.35-.27.24-.49.54-.73.81s-.5.56-.76.83c-.51.54-1.04,1.06-1.59,1.55-.29.26.14.69.43.43h0Z"/>
        <path class="cls-4" d="M49.52,47.37c1.92-1.78,3.74-3.65,5.53-5.56.95-1,1.89-2.01,2.84-3.01.45-.47.9-.94,1.34-1.41.38-.41.82-.82,1.1-1.3.19-.33-.19-.73-.53-.53-.48.29-.86.75-1.25,1.14-.46.46-.89.94-1.34,1.42-.94,1.01-1.88,2.02-2.82,3.03-1.79,1.92-3.52,3.87-5.25,5.84-.23.26.12.61.38.38h0Z"/>
        <path class="cls-4" d="M40.75,44.58c1.48-1.46,2.97-2.91,4.45-4.37s3.06-2.84,4.42-4.4c.28-.33-.14-.72-.47-.47-1.63,1.27-3.08,2.82-4.56,4.26s-2.92,2.95-4.35,4.47c-.32.34.18.84.51.51h0Z"/>
        <path class="cls-4" d="M74.29,42.9c.21-.21.39-.44.56-.68.08-.11.15-.21.22-.33.03-.06.06-.11.09-.17.03-.05.06-.11.08-.17s.02-.13.02-.19-.02-.15-.05-.2c-.04-.07-.11-.13-.19-.16-.15-.06-.31-.03-.43.08-.14.13-.23.31-.34.47-.09.14-.18.28-.29.41l.07-.09c-.11.14-.23.28-.36.41-.16.16-.17.45,0,.61s.44.17.61,0h0Z"/>
        <path class="cls-4" d="M79.75,41.65c.47-.53.95-1.05,1.44-1.57.24-.25.47-.52.71-.78.12-.13.23-.26.33-.39.13-.15.28-.31.36-.49.15-.32-.15-.65-.48-.48-.17.08-.31.23-.45.35-.13.11-.25.23-.37.35-.25.26-.5.52-.74.79-.47.54-.93,1.08-1.38,1.63-.14.17-.17.41,0,.58.15.15.43.17.58,0h0Z"/>
        <path class="cls-1" d="M71.81,37.49l.06-.09s0,0,0-.01h0c.02-.06.05-.11.07-.17,0-.03.01-.06.01-.1,0-.03,0-.06.01-.09,0,0,0,0,0-.01v-.05c0-.12-.03-.23-.08-.33-.06-.1-.14-.18-.24-.24-.1-.06-.21-.09-.33-.09-.12,0-.23.03-.33.09l-.04.02s-.05.04-.09.06c-.08.05-.13.11-.18.19h0s0,.01,0,.02l-.06.09c-.05.08-.08.17-.08.26-.02.09-.02.18.01.28.02.09.06.17.12.24.05.08.11.13.19.18l.17.07c.12.03.25.03.37,0l.17-.07c.1-.06.19-.14.25-.25h0Z"/>
        <path class="cls-1" d="M69.85,41.01l-.11.15c-.03.06-.05.12-.05.18,0,.07.02.13.05.18.06.11.18.18.31.18h.19c.16,0,.32-.09.4-.23s.08-.32,0-.47-.24-.23-.4-.23c-.08,0-.16.02-.23.06-.07.04-.12.1-.17.17h0Z"/>
        <path class="cls-1" d="M34.62,36.87c.89,0,.89-1.38,0-1.38s-.89,1.38,0,1.38h0Z"/>
        <path class="cls-1" d="M38.5,32.23c.08-.13.15-.25.23-.38l.05-.13.02-.14-.02-.14c-.02-.07-.05-.13-.1-.18-.02-.04-.06-.07-.1-.1-.03-.03-.07-.06-.12-.07-.04-.02-.09-.04-.14-.04-.07-.02-.14-.01-.22,0-.14.04-.29.08-.43.11-.24.06-.44.26-.5.5-.03.13-.03.26,0,.38.02.09.07.18.13.25.05.08.12.14.2.19.11.07.23.1.36.1.26,0,.49-.14.62-.36h0Z"/>
        <path class="cls-1" d="M61.84,41.21l.16-.24.04-.06c.04-.06.07-.14.09-.21l.04-.13.02-.16-.02-.16-.06-.14c-.04-.07-.09-.12-.15-.17-.04-.04-.08-.06-.13-.08-.05-.03-.1-.04-.15-.04-.05-.01-.1-.01-.16,0-.08,0-.15.03-.22.07l-.12.06c-.09.05-.16.12-.23.19l-.2.2c-.09.09-.15.19-.18.31l-.02.19c0,.13.03.24.1.35.04.08.1.15.18.2.07.06.15.1.24.12.09.03.19.03.28.01.09,0,.18-.03.26-.08.1-.06.19-.15.25-.25h0Z"/>
        <path class="cls-1" d="M26.89,54.64s.03-.05.05-.07l-.12.15c.06-.07.12-.14.16-.22.02-.03.03-.06.05-.09.04-.06.08-.12.12-.18s.07-.12.1-.18.06-.11.09-.17c.02-.06.03-.08.04-.13,0-.02,0-.03.01-.05l-.07.16s.05-.08.07-.12c.05-.08.07-.16.1-.25.05-.17,0-.35-.1-.49s-.26-.22-.44-.22c-.02,0-.04,0-.06,0-.04,0-.07,0-.11.01-.13.02-.1.01-.25.08-.05.02-.09.04-.13.06l.16-.07c-.09.02-.18.05-.26.1-.07.04-.13.1-.19.15-.02.01-.03.03-.05.04-.11.1-.2.2-.27.33s-.12.25-.18.38-.07.28-.07.43l.03.19c.02.09.06.17.13.24.03.05.07.1.13.13.07.06.15.11.24.13.13.03.25.03.38,0,.09-.02.17-.06.24-.13.08-.05.14-.12.18-.2h0Z"/>
        <path class="cls-1" d="M30.02,51.76c.82,0,.83-1.28,0-1.28s-.83,1.28,0,1.28h0Z"/>
        <path class="cls-1" d="M14.22,64.94c.65,0,.65-1.01,0-1.01s-.65,1.01,0,1.01h0Z"/>
        <path class="cls-1" d="M52.19,73.95l.04-.07.02-.03v-.02s.01,0,.01,0c.02-.03.03-.06.04-.09.01-.03.03-.06.04-.09,0-.02.02-.05.02-.07v-.03s.01-.01.02-.02c.02-.06.03-.08.03-.19h0c0-.07-.02-.13-.02-.19,0-.01,0-.03-.01-.04l-.03-.07c-.03-.08-.07-.14-.13-.2l-.06-.05s-.08-.07-.14-.08c-.03-.01-.05-.02-.08-.03h-.02s0,0,0-.01c0,0-.18-.03-.19-.03h0c-.06,0-.12.02-.19.02-.01,0-.02,0-.04.01l-.07.02s-.01,0-.02,0c-.02,0-.17.07-.19.08,0,0,0,0-.01,0l-.04.02-.08.04c-.12.07-.22.17-.29.29-.07.13-.11.27-.11.41l.03.22c.04.14.11.26.21.36.07.08.16.14.26.17.1.05.2.07.32.07.15,0,.29-.04.41-.11.12-.07.22-.17.29-.29h0Z"/>
        <path class="cls-1" d="M67.87,59.72c.08-.03.15-.06.23-.1.01,0,.03-.02.04-.03.06-.05.13-.09.19-.15,0,0,.01-.01.02-.02.02-.02.04-.05.06-.08.02-.03.04-.05.06-.08,0,0,0,0,0-.01.04-.07.07-.15.09-.21,0-.01.01-.03.01-.04.02-.07.03-.16.03-.22,0-.08,0-.14-.02-.22-.03-.11-.09-.21-.17-.29-.08-.08-.18-.14-.29-.17-.12-.03-.24-.03-.36,0-.11.03-.21.09-.29.17-.02.01-.03.03-.04.04l.14-.11s-.05.03-.08.05l.17-.07s-.02,0-.03.01c0,0,0,0,0,0l-.18.08h0s-.01,0-.02.01l.18-.08s-.06.02-.09.02l.2-.03s-.03,0-.05,0c-.14,0-.27.04-.39.11l-.16.12c-.1.1-.16.21-.2.34-.03.1-.04.21-.01.31,0,.1.04.2.09.29.05.09.12.16.2.22.08.07.16.12.26.14.14.04.28.04.41,0h0Z"/>
        <path class="cls-1" d="M59.72,76.12c.5,0,.5-.77,0-.77s-.5.77,0,.77h0Z"/>
      </g>
      <rect class="cls-2" width="100" height="100"/>
    </g>
  </g>
</svg>