<?xml version="1.0" encoding="UTF-8"?>
<svg id="Capa_2" data-name="Capa 2" xmlns="http://www.w3.org/2000/svg" viewBox="0 0 100 100">
  <defs>
    <style>
      .cls-1 {
        fill: #fff;
      }

      .cls-2 {
        fill: none;
      }

      .cls-3 {
        fill: #e58473;
      }

      .cls-4 {
        fill: #4a2d2d;
      }

      .cls-5 {
        fill: #eda79a;
      }
    </style>
  </defs>
  <g id="COLOR">
    <g>
      <g>
        <path class="cls-1" d="M70.24,67.52l8.37,8.37s7.36-5.2,11.67-.76c4.31,4.44,1.27,8.24-1.4,9.51s-5.33.63-5.33.63c0,0-3.04,10.65-7.48,9.13-4.44-1.52-4.44-2.79-4.19-5.2s2.28-6.09,2.28-6.09l-11.41-8.52,7.48-7.08Z"/>
        <path class="cls-1" d="M57.04,15.64s-4.69-8.62-14.46-7.48-21.44,7.61-27.4,14.71c-5.96,7.1-10.27,17.25-8.75,23.85,1.52,6.6,8.5,14.97,22.2,11.42,13.7-3.55,25.75-20.04,27.78-24.23s3.3-8.88,2.79-13.06-2.16-5.2-2.16-5.2Z"/>
        <g>
          <path class="cls-4" d="M92.74,77.59c-1.97-5.49-10.2-6.77-14.14-2.84-2.61-2.37-4.58-5.55-7.5-7.5-.74-.5-1.77.5-1.25,1.25,2.21,3.16,5.71,5.34,8.17,8.3.33.4,1.04.36,1.38,0,2.55-2.71,9.07-2.48,11.01.81,2.37,4.02-3.39,8.49-6.99,6.14-.96-.63-1.98.4-1.79,1.38.62,3.21-2.14,8.64-5.98,7.7-1.73-.42-2.88-1.84-3.03-3.6-.18-2.11.83-3.07,1.94-4.63,1.5-2.13-1.47-3.69-2.93-4.85-2.52-2.01-5.33-4.11-7.53-6.47-.82-.88-2.13.44-1.32,1.32,1.75,1.88,3.26,3.85,5.19,5.58,1.59,1.43,3.2,2.69,5.01,3.78-.43.8-1.7,2.05-1.95,2.67-.44,1.13-.58,2.41-.36,3.6.43,2.29,2.14,4.1,4.38,4.73,4.96,1.39,8.63-3.8,9-8.39,4.87,1.02,10.56-3.81,8.7-8.99Z"/>
          <path class="cls-3" d="M73.4,38.09c-5.37-14.63-14.11-24.89-19.71-27.53,1.81,2.37,4.13,5.77,4.71,8.43,1.15,5.29-.38,12.31-5.1,19.24-4.71,6.93-9.14,12.6-14.72,15.49-5.58,2.89-13.66,5.96-18.09,5.48-4.43-.48-8.56-3.37-11.45-6.64-.21-.24-.43-.49-.66-.75.9,2.46,5.15,12.05,18.56,19.17,16.31,8.66,31.17,9.96,40.12,2.74,8.95-7.22,12.12-19.91,6.35-35.64Z"/>
          <path class="cls-4" d="M40.78,52.59c4.95-3.63,9.09-7.68,12.52-12.78,3.17-4.72,6.14-9.91,6.55-15.7.41-5.76-2.07-11.37-7.24-14.19-7.34-4-16.33-2.24-23.32,1.46-6.64,3.51-12.28,8.3-16.74,14.43-.28.38-.55.77-.82,1.17-3.2,4.75-6.38,9.99-6.22,15.93.14,5.09,1.98,10.17,6.1,13.36,9.1,7.06,21,2.31,29.17-3.67ZM7.06,43.1c-.03-5.61,2.44-10.61,5.67-15.03,3.23-4.44,7.02-8.53,11.46-11.73,7.1-5.13,16.82-8.98,25.49-5.92,5.34,1.89,8.32,6.71,8.15,12.41-.16,5.36-2.79,10.19-5.6,14.57-2.91,4.54-6.29,8.53-10.44,11.94-7.5,6.15-18.34,11.72-27.74,6.39-4.4-2.5-6.96-7.57-6.98-12.62Z"/>
          <path class="cls-5" d="M51.96,17.54s-4.42-7.59-17.25-4c-12.83,3.59-23.04,18.21-23.32,26.77-.28,8.55,6.35,16.42,18.9,12.28,12.56-4.14,19.59-15.87,21.52-20.7,1.93-4.83,3.59-8.69.14-14.35Z"/>
          <path class="cls-1" d="M27.09,67.53c6.72-.31,14.27-2.66,19.26-7.38.4-.38-.11-1.01-.58-.75-3.06,1.69-5.96,3.51-9.26,4.75-3.07,1.15-6.31,1.92-9.55,2.42-.55.08-.42.99.13.96h0Z"/>
          <path class="cls-1" d="M54.24,53.74c.24-.2.48-.39.71-.59.26-.24.55-.62.51-.99-.02-.25-.17-.52-.44-.58-.77-.17-1.35.58-1.87,1.08-.29.28-.3.81,0,1.09.33.3.76.28,1.09,0h0Z"/>
          <path class="cls-1" d="M60.29,44.57c2.86-3.28,5.62-7.94,6.09-12.35.05-.5-.77-.73-.97-.26-.89,2.05-1.39,4.22-2.48,6.21-1.07,1.95-2.35,3.84-3.69,5.6-.46.6.55,1.38,1.05.81h0Z"/>
          <path class="cls-1" d="M54.4,64.74c3.93-1.91,9.24-5.13,10.99-9.36.24-.57-.63-.93-.95-.55-1.53,1.82-2.93,3.42-4.56,4.96-1.78,1.68-3.76,3.06-5.91,4.23-.48.26-.06.96.42.73h0Z"/>
          <path class="cls-1" d="M69.64,48.9c.46-.72.95-1.55.66-2.43-.11-.33-.54-.58-.86-.35-.68.49-.88,1.22-1.25,1.93-.5.96.87,1.76,1.45.85h0Z"/>
          <path class="cls-1" d="M42.31,71.47c1-.09,2.24-.36,2.73-1.34.25-.51-.16-.99-.7-.91-.78.13-1.45.61-2.24.75-.84.15-.65,1.57.2,1.5h0Z"/>
          <path class="cls-1" d="M72.02,60.62c.41-.5.87-1.13.66-1.81-.1-.32-.47-.48-.77-.31-.25.14-.43.36-.59.59-.06.09-.11.18-.17.27-.04.05-.07.11-.11.16-.09.12.1-.13-.06.07-.25.3-.31.76,0,1.04.27.25.78.32,1.04,0h0Z"/>
          <path class="cls-1" d="M60.09,72.58c2.54-1.24,5.81-3.11,7.25-5.64.23-.41-.26-.99-.69-.69-1.13.79-2.03,1.88-3.11,2.75-1.25,1.01-2.58,1.91-3.98,2.69-.58.33-.07,1.18.52.89h0Z"/>
          <path class="cls-1" d="M39.73,27.56s-1.06-3.17-7.41-1.25c-6.35,1.92-10.29,11.83-5.68,13.66,4.62,1.83,11.06-4.71,12.12-6.06,1.06-1.35,2.12-4.43.96-6.35Z"/>
          <path class="cls-4" d="M26.59,40.86c4.47,1.25,9.67-2.25,12.16-5.62,1.22-1.64,2.14-3.72,2.41-5.76.19-1.51-.46-2.61-1.35-3.41-.99-.89-2.45-1.34-3.95-1.29-3.5.1-6.92,2.14-9.09,4.83-2.15,2.66-5.34,9.81-.18,11.26ZM26.19,32.88c.73-1.56,1.71-2.99,2.98-4.16,2.35-2.17,7.39-4.18,9.97-1.15,2.33,2.74-1.38,6.83-3.33,8.64-2.11,1.95-5.83,4.24-8.86,3.39-3.01-.84-1.63-4.83-.75-6.71Z"/>
        </g>
      </g>
      <rect class="cls-2" width="100" height="100"/>
    </g>
  </g>
</svg>