<?xml version="1.0" encoding="UTF-8"?>
<svg id="Capa_2" data-name="Capa 2" xmlns="http://www.w3.org/2000/svg" viewBox="0 0 100 100">
  <defs>
    <style>
      .cls-1 {
        fill: none;
      }

      .cls-2 {
        fill: #fedcc1;
      }

      .cls-3 {
        fill: #4a2d2d;
      }
    </style>
  </defs>
  <g id="COLOR">
    <g>
      <g>
        <path class="cls-2" d="M42.85,40.8c3.64-12.78,11.58-24.29,22.23-32.23,3.24-2.42,7.07-4.59,11.08-4.1,1.53.19,3.17.92,3.71,2.36.71,1.86-.03,4.2-.76,5.89-1.18,2.75-2.49,4.3-4.94,7.62l-24.38,22.97-6.96-2.51Z"/>
        <path class="cls-2" d="M90.09,28.19c-2.96,4.3-12.64,10.49-18.69,13.72-6.05,3.23-15.42,6.77-15.42,6.77,0,0,2.29,6.18,8.07,8.74,5.79,2.55,9.78,1.93,9.64,2.87-.13.94-2.28,11.07-13.58,22.1-11.3,11.03-18.2,10.8-18.2,10.8,0,0-2.9-4.51-4.44-8.34-1.93-4.8-2.64-8.38-2.64-8.38,0,0-8.02,1.93-17.3-2.65-3.83-1.89-6.58-4.15-7.1-7.51-.3-1.89.11-4.12,1.41-6.83.2-.42.44-.86.7-1.32,4.41-7.73,16.72-20.24,20.19-20.83,8.32-1.42,14.75,4.39,14.75,4.39,0,0,7.67-13.09,27.93-24.21,3.91-2.15,11.03-5.16,15.87-2.33,4.84,2.82,1.79,8.7-1.17,13Z"/>
        <path class="cls-3" d="M52.94,47.37c4.91-5.84,11.02-10.52,17.57-14.41,3.29-1.95,7.05-4.05,10.63-5.39,4.61-1.73,8.35-2.44,10.5-3.06.95-.27,1.69-1.2.78-1.29-3.9-.37-8.52,1.64-12.09,3.07-3.58,1.43-7.11,3.02-10.45,4.95-6.83,3.95-12.62,9.37-17.72,15.34-.46.54.32,1.33.78.78h0Z"/>
        <path class="cls-3" d="M34.98,77.07c3.91-.55,8.58-3.74,9.99-6.19.37-.64-.35-1.19-.86-.68-2.96,2.93-5.34,5.1-9.44,6.27-.04.33.3.61.3.61Z"/>
        <path class="cls-3" d="M13.83,64.63c-.16.35-.37.69-.65.94-.52.47-1.25.64-1.96.7-.27.02-.54.04-.81.04-.3-1.89.11-4.12,1.41-6.83.2-.42.44-.86.7-1.32.68.72,1.21,1.58,1.51,2.52.41,1.29.37,2.72-.19,3.95Z"/>
        <path class="cls-3" d="M32.09,63.69c.16,0,.31-.03.45-.1.15-.05.27-.13.38-.24.11-.11.2-.23.24-.38.07-.14.11-.29.1-.45l-.04-.31c-.06-.2-.16-.37-.3-.52l-.24-.18c-.18-.11-.38-.16-.59-.16-.16,0-.31.03-.45.1-.15.05-.27.13-.38.24-.11.11-.2.23-.24.38-.07.14-.11.29-.1.45l.04.31c.06.2.16.37.3.52l.24.18c.18.11.38.16.59.16h0Z"/>
        <path class="cls-3" d="M38.78,58.15c.18,0,.35-.03.51-.11.17-.05.31-.15.43-.28.13-.12.22-.26.28-.43.08-.16.12-.33.11-.51l-.05-.35c-.06-.23-.18-.42-.34-.59l-.27-.21c-.21-.12-.43-.18-.67-.18-.18,0-.35.03-.51.11-.17.05-.31.15-.43.28-.13.12-.22.26-.28.43-.08.16-.12.33-.11.51l.05.35c.06.23.18.42.34.59l.27.21c.21.12.43.18.67.18h0Z"/>
        <path class="cls-3" d="M39.07,63.63c1.18,0,1.18-1.83,0-1.83s-1.18,1.83,0,1.83h0Z"/>
        <path class="cls-3" d="M27.85,49.54c-1,1.04-1.41,2.73-.81,4.08.73,1.66,2.84,2.26,4.37,1.31,1.64-1.02,2.26-3.44,1.34-5.13-1.1-2.02-3.46-1.76-4.9-.26Z"/>
        <path class="cls-3" d="M83.9,14.04c-3.68.23-7.36,1.55-10.57,3.26-3.48,1.85-6.77,4.05-9.85,6.5-6.05,4.81-11.38,10.57-15.99,16.77-1.45-1.14-3.09-1.91-4.89-2.41-.59-.16-.8.69-.25.9,1.8.7,3.4,1.48,4.81,2.83.22.21.68.27.89,0,4.61-5.93,9.58-11.52,15.43-16.28,5.93-4.82,12.83-9.61,20.42-11.07.73-.14.75-.55,0-.5Z"/>
      </g>
      <rect class="cls-1" width="100" height="100"/>
    </g>
  </g>
</svg>