<?xml version="1.0" encoding="UTF-8"?>
<svg id="Capa_2" data-name="Capa 2" xmlns="http://www.w3.org/2000/svg" viewBox="0 0 100 100">
  <defs>
    <style>
      .cls-1 {
        fill: #fff;
      }

      .cls-2 {
        fill: none;
      }

      .cls-3 {
        fill: #4a2d2d;
      }

      .cls-4 {
        fill: #df6651;
      }
    </style>
  </defs>
  <g id="COLOR">
    <g>
      <g>
        <path class="cls-1" d="M53.48,15.79s-.8-2.5-3.5-2.9-6.8,1.2-7.5,3,.3,3.5,1.6,4.9,2.2,2.3,2.2,2.3l7.2-7.3Z"/>
        <path class="cls-1" d="M38.88,29.69s-3.5-3.8-6.3-4.6-4.6,1.1-6.2,3.6-.6,4.3.8,5.8,3.4,2.9,3.4,2.9l8.3-7.7Z"/>
        <path class="cls-1" d="M23.47,43.49s-2.6-3.5-5.6-4.7c-3-1.2-5.8.2-7.3,1.7s-2,3.6-1.3,4.8,4.9,5.4,4.9,5.4l9.3-7.2Z"/>
        <path class="cls-1" d="M50.88,75.7s-1.78-1.73-5.44-.17-3.36,4.17-2.26,6.47,5.3,8.7,8,8.9c2.7.2,5.9-2.3,6.6-3.7s.4-2.8-.5-5.1-6.4-6.4-6.4-6.4Z"/>
        <path class="cls-1" d="M65.88,61.1s-3.5-.5-4.8,2.5-.1,5.6,2.4,9.1,4.6,6.3,8.3,4.9c3.7-1.4,5-4,3.9-6.6s-5.1-7.5-6.5-8.5-3.3-1.4-3.3-1.4Z"/>
        <path class="cls-1" d="M79.38,47.49s-1.74.09-3.32,3.75c-1.58,3.65,1.32,7.95,2.62,9.86s3.9,3.7,6.8,2.9c2.9-.8,4.1-4.5,3.8-7.3s-1.7-5.5-4.2-7.5-5.7-1.7-5.7-1.7Z"/>
        <g>
          <path class="cls-3" d="M43.74,21.86c.11.02.24.19.34.23.47.17.56-.07,1,.18.21.12.42.26.62.39.12-.22.26-.44.41-.65-.1-.09-.2-.18-.29-.27-.19-.18-.36-.38-.54-.58-.17-.18-.35-.36-.5-.56-.08-.1-.1-.11-.11-.09-1.36-1.15-2.18-3.03-.87-4.54.8-.93,1.82-1.66,2.97-2.1,1.72-.66,3.15-.65,4.67.77.18.06,1.03.65,1.4,1.09.14.17.27.34.4.51.4-.19.8-.36,1.21-.51-.06-.1-.12-.19-.18-.29-.25-.41-.46-.81-.65-1.25-.06-.15-.23-.41-.26-.4-1.71-2.73-6.37-2.65-8.84-.99-1.36.91-3,2.39-3.32,4.08-.37,1.93,1.08,3.9,2.56,4.97Z"/>
          <path class="cls-3" d="M13.33,51c.08.06.17.12.25.18.4-.55.9-1.08,1.44-1.57-.01-.01-.02-.02-.04-.03-.34-.31-.67-.63-.99-.97-.15-.17-.29-.35-.43-.52,0,0,0,0,0,0-.09.08-.19.15-.27.23-.88-1.04-1.94-1.93-2.87-2.93-1.84-1.96.48-4.32,2.16-5.44,2.76-1.83,5.98-.17,8.38,1.81.73.61,1.33,1.46,1.58,1.71.13.13.26.26.39.39.12.13.23.27.34.41.45-.2.91-.37,1.37-.52-.18-.3-.37-.59-.52-.9-.19-.38-1.6-1.78-1.98-2.14-3.01-2.88-7.59-4.68-11.06-1.66-1.47,1.28-3.3,3.05-2.94,5.2.3,1.74,4.62,6.36,5.18,6.76Z"/>
          <path class="cls-3" d="M29.81,38.21c.23.13.47.27.71.41.11-.5.26-.99.46-1.46-.19-.15-.38-.31-.56-.48-.5-.45-3.67-3.35-4.07-4.9-.6-2.34,1.12-3.74,2.8-4.97,3.26-2.39,5.39.25,7.66,2.34-.04.02-.08.04-.12.06.42.28.78.6,1.13.97.22.23.41.48.6.73.35-.16.71-.32,1.06-.45-.08-.14-.16-.29-.24-.43-.21-.4-.43-.8-.65-1.2-.07-.12-.13-.25-.19-.38-.01,0-.03,0-.04.01-1.27-1.78-3.27-3.56-5.25-4.18-2.22-.7-4.17.16-5.81,1.68-1.55,1.43-2.94,3.26-2.73,5.48.16,1.72,1.21,3.37,2.53,4.6.38.35,2.17,1.89,2.71,2.19Z"/>
          <path class="cls-4" d="M77.47,58.7c-.48-.91-.91-1.87-1.22-2.86-.48-1.5-.69-3.07-.19-4.6.45-1.37,1.34-2.66,2.63-3.35,1.4-.75,3.16-.76,4.52.09,1.11.69,1.98,1.79,2.75,2.85,1.49-2.15,2.13-4.97,1.55-8.15-.72-3.94-4.3-10.48-8.87-15.59-4.57-5.11-14.24-14.06-20.96-14.06s-11.47,4.75-14.06,8.69c-2.6,3.94,0,6.81,0,6.81,0,0,3.22.36,9.67,6,6.45,5.64,18.01,24.46,18.01,24.46,0,0,.9,1.34,3.49,1.07.75-.08,1.69-.57,2.71-1.28-.01-.03-.03-.06-.04-.08Z"/>
          <path class="cls-4" d="M66.38,47.7c-5.11-7.61-12.72-17.38-20.16-19.44-7.44-2.06-13.35,3.05-13.35,3.05,0,0-3.05,1.97-4.21,4.93-1.16,2.96-.72,7.7,2.15,12,2.87,4.3,24.72,24.19,25.8,24.46,1.07.27,2.42.9,5.73-.54.08-.04.17-.08.25-.12-.51-.76-1-1.55-1.42-2.37-.83-1.63-1.3-3.39-.57-5.14.61-1.47,1.83-2.73,3.36-3.23,1.47-.48,3.06.02,4.32.82.92.58,1.88,1.39,2.36,2.4.74-1.05,1.27-2.01,1.45-2.76.72-2.87-.63-6.45-5.73-14.06Z"/>
          <path class="cls-4" d="M52.95,63.11c-3.4-4.21-14.96-19.62-23.2-21.41-8.24-1.79-18.54,6.27-19.17,11.29-.63,5.02,4.84,7.61,10.84,13.17,4.87,4.51,11.2,13.97,13.8,18.81,2.6,4.84,5.64,6.27,8.15,5.55.69-.2,2.09-1.28,3.77-2.82-.12-.2-.23-.4-.34-.61-.49-.89-1.07-1.72-1.6-2.59-.5-.83-1-1.68-1.45-2.54-.38-.74-.63-1.54-.52-2.38.21-1.59,1.73-2.92,3.09-3.6,1.72-.86,3.64-.43,5.28.41.8.41,1.49.95,2.14,1.57.45.43.84.91,1.25,1.37,1.78-2.21,3.08-4.16,3.25-5.21.54-3.31-1.88-6.81-5.29-11.02Z"/>
          <path class="cls-1" d="M45.84,34.28c-.71-.43-1.32.62-.66,1.09,1.51,1.08,3.02,2.19,4.45,3.38,1.23,1.03,2.28,2.25,3.54,3.24.52.41,1.05-.33.83-.81-1.44-3.2-5.31-5.18-8.16-6.9Z"/>
          <path class="cls-1" d="M58.47,45.97c-.33-.38-.97-.36-1.32-.02-.38.37-.34.93-.02,1.32.37.45.7.93,1.06,1.4.37.48,1.06,1.2,1.68.6.52-.51.14-1.26-.19-1.75-.36-.54-.79-1.05-1.21-1.54Z"/>
          <path class="cls-1" d="M63.47,21.91c-.86-.43-1.6.88-.74,1.29,1.65.78,3.25,1.77,4.66,2.93.55.45,1.3-.28.79-.8-1.41-1.41-2.92-2.52-4.71-3.41Z"/>
          <path class="cls-1" d="M75.86,34.59c.48.29,1.19-.21.98-.77-.47-1.27-1.61-2.28-2.54-3.24-1.07-1.12-2.19-2.18-3.35-3.21-.79-.7-1.94.46-1.15,1.17,1.09.99,2.15,2.01,3.16,3.09.92.98,1.74,2.26,2.9,2.96Z"/>
          <path class="cls-1" d="M78.54,38.69c.35.53.98,1.35,1.69.8,1.1-.87-.66-2.74-1.24-3.43-.65-.78-1.95.25-1.39,1.09.33.5.61,1.04.94,1.54Z"/>
          <path class="cls-1" d="M29.32,48.28c-.91-.14-1.29,1.1-.39,1.4,2.66.89,4.33,3.05,6.64,4.47.55.34,1.2-.33.87-.87-1.48-2.49-4.26-4.56-7.13-4.99Z"/>
          <path class="cls-1" d="M43.45,63.03c.26.36.52.73.79,1.09.3.4.72.87,1.24.95.51.07.9-.19.95-.72.08-.95-.94-1.8-1.51-2.45-.69-.79-2.1.27-1.47,1.14Z"/>
          <path class="cls-3" d="M71.35,63.68c-.37-.37-.75-.72-1.13-1.07-.75-.66-1.52-1.33-2.46-1.7-1.37-.54-2.93-.62-4.33-.12-.13.05-.26.1-.38.15-.76.33-1.44.83-1.99,1.44-1.49,1.64-1.65,3.73-.96,5.77.35,1.04.85,2.02,1.37,2.99.5.92.96,1.88,1.52,2.76.38.6.82,1.16,1.26,1.71,1.22,1.51,2.74,2.84,4.74,3.05,2.51.26,5.31-1.38,6.75-3.39,1.35-1.9.46-4.07-.43-5.98-.49-1.06-1.1-2.07-1.79-3.02-.35-.48-.71-.95-1.09-1.41-.34-.41-.7-.81-1.08-1.19ZM65.54,74.79c-.95-1.15-1.68-2.51-2.42-3.8-.88-1.54-2.21-3.43-2.15-5.3.07-2.01,1.87-3.8,3.87-3.9.79-.04,1.56.12,2.28.44.95.43,2.6,1.82,6.02,6.4.21.28.38.58.56.87.06.11.4.9.48.91-1.51-.21-3.34.49-4.5,1.15-1.65.95-2.84,2.49-3.08,4.31-.39-.32-.75-.69-1.08-1.09ZM70.66,76.88c-1.02.27-1.95.15-2.8-.23.03-1.87,1.24-3.34,2.95-4.13,1.38-.64,2.56-.61,3.93-.53.04.17.08.35.1.53.32,2.18-2.35,3.88-4.18,4.37Z"/>
          <path class="cls-3" d="M89.82,55.62c-.31-1.16-.76-2.29-1.33-3.35-.35-.66-.71-1.33-1.17-1.92-.81-1.05-1.82-1.97-2.95-2.67-1.06-.67-2.38-.98-3.63-.97-2.48.02-4.56,1.42-5.4,3.77-.4,1.13-.5,2.36-.38,3.55.18,1.7.85,3.31,1.59,4.83.68,1.42,1.44,2.76,2.54,3.91.92.96,2.05,1.77,3.34,2.13,1.13.32,2.32.25,3.42-.14,4.06-1.43,5.12-5.57,3.95-9.14ZM76.43,53.98c-.6-3.67,2.14-6.49,5.82-5.52,2.26.59,5.09,4.32,6,7.74-2.06-.39-4.76.94-6.11,2.24-1.03,1-1.56,2.41-1.38,3.74-2.34-1.99-3.94-5.82-4.33-8.2ZM88.57,59.37c-.41,2.23-2.37,4.1-4.71,4.1-.62,0-1.21-.15-1.77-.41-1.01-1.74.52-3.65,2.12-4.5,1.46-.78,2.89-.7,4.4-.99.08.58.09,1.18-.03,1.8Z"/>
          <path class="cls-3" d="M55.68,78.59c-.25-.26-.51-.51-.77-.77-.58-.56-1.14-1.15-1.78-1.64-1.2-.93-2.64-1.63-4.18-1.72-1.07-.06-2.12.21-3.04.76-.16.1-.32.2-.48.32-.94.67-1.97,1.21-2.62,2.17-1.33,1.95-.55,3.75.49,5.64.51.93.98,1.91,1.6,2.77.38.53.78,1.04,1.18,1.55.35.45.68.97,1.09,1.37,1.84,1.88,4.13,2.91,7,1.54,1.85-.88,4.49-2.28,4.9-4.5.42-2.27-1.1-4.66-2.41-6.37-.3-.39-.63-.76-.98-1.12ZM54.24,88.65c-2.09,1.21-3.94,1.52-5.75-.25,1.04-1.01,1.85-2.09,3.31-2.76,1.82-.83,3.56-.78,5.44-.5.08,1.73-1.46,2.62-3,3.51ZM47.43,87.22c-.76-.95-1.42-2-1.98-3.03-.75-1.38-2.43-3.66-1.69-5.29.74-1.65,2.82-2.78,4.6-2.62,1,.09,1.97.39,2.85.88.57.32,1.12.67,1.62,1.08.88.72,1.54,1.66,2.25,2.54.37.47.73.95,1.05,1.46.16.25.3.5.44.76.05.1.28.76.36.78-3.28-.77-7.89.45-9.48,3.44Z"/>
          <path class="cls-3" d="M27.64,41.5c7.23,1.47,13.1,7.59,17.78,12.92,4.99,5.69,9.59,11.65,12.41,18.7.4,1.01,1.64.62,1.43-.47-1.45-7.69-7.68-14.24-12.84-19.74-4.88-5.19-10.47-11.44-17.97-12.2-.78-.08-.81.78-.81.78Z"/>
          <path class="cls-3" d="M69.15,51.17c.49.9.96,1.8,1.36,2.75.67,1.6,1.21,3.27,1.55,4.97.07.37.12.85.34,1.17.16.35.31.63.55.74.06.03.12.05.17.06.33-.07.62-.31.76-.73.06-.17.1-.35.13-.53.22-1.37-.28-2.88-.66-4.19-.52-1.79-1.24-3.5-2.09-5.15-1.91-3.73-4.4-7.18-7.14-10.34-5.57-6.41-12.68-12.23-21.32-13.34-.87-.11-1.58,1.08-.72,1.23,7.8,1.33,15.36,7.46,20.36,13.38,2.2,2.6,4.17,5.39,5.81,8.37.3.54.6,1.07.89,1.61Z"/>
        </g>
      </g>
      <rect class="cls-2" width="100" height="100"/>
    </g>
  </g>
</svg>