<?xml version="1.0" encoding="UTF-8"?>
<svg id="Capa_2" data-name="Capa 2" xmlns="http://www.w3.org/2000/svg" viewBox="0 0 100 100">
  <defs>
    <style>
      .cls-1 {
        fill: #fff;
      }

      .cls-2 {
        fill: none;
      }

      .cls-3 {
        fill: #4a2d2d;
      }

      .cls-4 {
        fill: #d5343a;
      }

      .cls-5 {
        fill: #df676b;
      }
    </style>
  </defs>
  <g id="COLOR">
    <g>
      <g>
        <g>
          <path class="cls-4" d="M28.88,78.19s-3.41,6.04.16,10.23c3.57,4.19,11.59,5.88,20.06,3.74s9.45-6.06,8.92-9.63-2.67-6.33-6.24-7.76c-3.57-1.43-21.11,1.72-22.89,3.41Z"/>
          <path class="cls-5" d="M29.88,76.65c-3.68,3.81-1.34,8.63,5.55,10.03,6.89,1.4,12.37,1.07,16.72-1.54,4.35-2.61,5.28-5.62,3.95-8.23-1.34-2.61-4.81-4.08-8.43-4.48-3.61-.4-14.11.4-17.79,4.21Z"/>
          <path class="cls-3" d="M27.96,79.47c-.15,7.63,9.42,8.74,15.06,8.55,3.85-.13,7.97-1.16,10.45-3.21,1.8-1.49,4.58-3.98,3.62-6.61-.17-.47-.38-.86-.61-.29-1.06,2.66-1.88,3.79-4.57,5.52-2.23,1.43-5.3,2.28-8.18,2.34-4.75.09-14.21.32-14.65-6.18-.07-.98-1.09-1.12-1.1-.12h0Z"/>
          <path class="cls-1" d="M40.16,75.27c-.34.25-.63.63-.59,1.04.02.18.1.34.2.49.29.41.77.66,1.27.74s1.01,0,1.49-.12c.36-.09.71-.22.99-.46s.47-.61.41-.97c-.09-.59-1.15-1.01-1.66-1.13-.72-.16-1.52-.02-2.12.42Z"/>
          <path class="cls-1" d="M47.54,75.96c-.05.11-.07.24-.08.36,0,.07-.02.14.01.21.02.05.07.08.11.11.54.37,2.29.36,1.81-.68-.29-.64-1.57-.65-1.86,0Z"/>
          <path class="cls-1" d="M48.36,78.7c-.29.17-.55.41-.63.73-.1.41.15.85.5,1.09s.8.3,1.22.3c.74.01,3.04-.45,2.59-1.65-.43-1.16-2.89-.93-3.69-.47Z"/>
          <path class="cls-1" d="M42.18,81.35c-.27.19-.42.53-.44.86,0,.15.01.31.09.45.1.18.29.29.48.36.74.27,1.62.01,2.11-.6.1-.13.19-.28.2-.45.01-.76-1.98-.94-2.44-.61Z"/>
          <path class="cls-1" d="M32.89,79.9c-.01.11-.01.22.02.32.05.15.19.26.32.34.32.19.7.26,1.07.29.81.06,3.76-.24,3.26-1.62-.42-1.14-2.19-1.31-3.14-.95-.72.26-1.43.83-1.53,1.64Z"/>
        </g>
        <g>
          <path class="cls-4" d="M62.76,68.2s-3.41,6.04.16,10.23c3.57,4.19,11.59,5.88,20.06,3.74,8.47-2.14,9.45-6.06,8.92-9.63-.53-3.57-2.67-6.33-6.24-7.76s-21.11,1.72-22.89,3.41Z"/>
          <path class="cls-5" d="M63.76,66.67c-3.68,3.81-1.34,8.63,5.55,10.03,6.89,1.4,12.37,1.07,16.72-1.54,4.35-2.61,5.28-5.62,3.95-8.23-1.34-2.61-4.81-4.08-8.43-4.48s-14.11.4-17.79,4.21Z"/>
          <path class="cls-3" d="M61.84,69.49c-.15,7.63,9.42,8.74,15.06,8.55,3.85-.13,7.97-1.16,10.45-3.21,1.8-1.49,4.58-3.98,3.62-6.61-.17-.47-.38-.86-.61-.29-1.06,2.66-1.88,3.79-4.57,5.52-2.23,1.43-5.3,2.28-8.18,2.34-4.75.09-14.21.32-14.65-6.18-.07-.98-1.09-1.12-1.1-.12h0Z"/>
          <path class="cls-1" d="M75.51,66.2c-.17.12-.32.32-.3.53,0,.09.05.17.1.25.15.21.39.33.64.37s.51,0,.75-.06c.18-.05.36-.11.5-.23s.24-.31.21-.49c-.05-.3-.58-.51-.83-.57-.36-.08-.76-.01-1.07.21Z"/>
          <path class="cls-1" d="M82.96,69.88c-.05.11-.07.24-.08.36,0,.07-.02.14.01.21.02.05.07.08.11.11.54.37,2.29.36,1.81-.68-.29-.64-1.57-.65-1.86,0Z"/>
          <path class="cls-1" d="M71.02,72.34c-.04.08-.05.18-.06.27,0,.05-.01.11.01.16.02.03.05.06.08.08.41.28,1.72.27,1.36-.51-.22-.48-1.18-.49-1.4,0Z"/>
          <path class="cls-1" d="M81.97,65.35c-.26.17-.49.43-.56.76-.09.43.13.89.45,1.13s.71.31,1.09.32c.66.02,2.71-.47,2.31-1.72s-2.58-.97-3.29-.49Z"/>
          <path class="cls-1" d="M76.75,70.96c-.41.28-.64.78-.66,1.27-.01.23.02.46.14.66.15.26.44.42.73.53,1.1.4,2.46.05,3.19-.88.17-.22.31-.49.27-.76-.05-.34-.37-.57-.69-.72-.79-.38-2.19-.64-2.98-.11Z"/>
          <path class="cls-1" d="M66.88,68.64c-.02.12-.04.24,0,.36.05.17.19.31.34.41.35.24.77.35,1.19.42.91.14,4.3.05,3.84-1.57-.38-1.34-2.38-1.67-3.49-1.35-.84.24-1.7.83-1.88,1.73Z"/>
        </g>
        <g>
          <path class="cls-4" d="M72.28,27.44s1.4-5.35,3.41-5.15c2.01.2.74,3.54.74,3.54,0,0,4.28-.6,3.28,1.87-1,2.47-6.69,2.27-6.69,2.27l-.74-2.54Z"/>
          <path class="cls-4" d="M26.27,34.93s7.36.67,14.18-2.54c6.82-3.21,14.85-10.23,22.07-10.77,7.22-.53,10.9,2.61,12.57,8.36,1.67,5.75-.94,16.18-10.7,25.01-9.76,8.83-20.73,12.5-30.76,13.31-10.03.8-16.92-1.27-19.06-1.94,2.21-.47,3.95-1,9.09-4.81,5.76-4.27,7.51-8.71,8.49-13.91,1.6-8.49-5.88-12.71-5.88-12.71Z"/>
          <path class="cls-5" d="M31.93,39.47c-1.15-2.44-4.95-5.62-9.67-4.81-7.26,1.23-14.27,9.9-14.62,17.61-.36,7.71,2.18,14.04,8.65,13.55s12.26-6.82,15.07-13.42c2.81-6.6,2.01-9.9.58-12.93Z"/>
          <path class="cls-3" d="M75.59,29.31c-1.28-2.44-2.19-5.98-2.21-8.73-.02-3.43,2.87-6.01,5.9-7.2,3.46-1.36,7.62-.48,10.11,2.32,2.43,2.73,2.78,6.5,1.5,9.84-2.17,5.64-8.11,11.01-6.08,17.63.64,2.11,2.11,4.13,4.37,4.63,2.17.49,4.49-.41,5.17-2.61.33-1.07-1.03-1.71-1.78-1.04-2.11,1.88-4.88,1.4-5.84-1.52-.95-2.92.32-6.24,1.88-8.69,2.72-4.28,6.05-8.83,5.05-14.18-.86-4.61-4.64-8.24-9.28-8.91-4.62-.67-9.55,1.85-11.9,5.88-2.33,4-.2,9.69,2.19,13.1.39.56,1.25.08.92-.54h0Z"/>
          <path class="cls-3" d="M56.26,56.31c3.11-3.14,5.44-8.55,3.76-12.96-.19-.49-.94-.45-.95.13-.04,2.12.13,4.09-.47,6.17-.61,2.12-1.73,4.15-3.2,5.8-.52.58.3,1.42.86.86Z"/>
          <path class="cls-3" d="M65.14,49.24c1.35-2.81,2.05-6.23.86-9.23-.18-.45-.93-.44-.9.12.14,3.04.2,5.8-.94,8.69-.22.56.72.96.98.41Z"/>
          <path class="cls-3" d="M26.63,35.77c5.88,3.39,6.33,11.99,3.32,18.2-1.43,2.96-3.53,5.74-6.21,7.69-3.1,2.26-5.78,3.01-9.46,3.48-1.08.14-.87,1.34.22,1.47,7.91.96,14.67-6.06,17.57-12.8,2.78-6.46,2.67-16.49-5.18-19.21-.87-.3-1.11.73-.27,1.16h0Z"/>
          <path class="cls-1" d="M18.96,41.04c-.06.25-.09.53.06.74.12.18.35.27.58.3.41.05.85-.1,1.13-.41s.36-.79.17-1.16c-.53-1.02-1.73-.3-1.92.53Z"/>
          <path class="cls-1" d="M24.12,40.88c-.52.88-.62,2.05-.12,2.94.51.89,1.67,1.41,2.63,1.06.34-.12.63-.34.88-.59.76-.79,1.05-2,.73-3.05-.16-.51-.46-.98-.91-1.27-1.09-.7-2.6-.13-3.22.91Z"/>
          <path class="cls-1" d="M13.94,44.09c-.56.13-1.08.47-1.36.98-.41.74-.21,1.73.35,2.37.33.38.78.66,1.27.74,1,.16,2-.6,2.32-1.56.15-.45.17-.95.01-1.39-.37-1.04-1.6-1.36-2.58-1.13Z"/>
          <path class="cls-1" d="M19.47,48.06c-.36.23-.48.7-.57,1.12-.04.2-.08.41-.05.61.1.54.78.81,1.3.65s.88-.65,1.09-1.15c.15-.35.23-.77.07-1.11-.15-.32-.5-.52-.85-.54s-.7.15-.95.39"/>
          <path class="cls-1" d="M24.72,50.29c.06.79.79,1.48,1.59,1.47s1.52-.71,1.55-1.5c0-.19-.02-.38-.06-.57-.38-1.97-3.21-1.24-3.07.6Z"/>
          <path class="cls-1" d="M21.52,56.46c-.12.32-.06.72.2.95.25.22.65.24.94.08s.5-.46.59-.78c.04-.13.06-.27.04-.4-.03-.24-.2-.47-.42-.57-.54-.25-1.18.22-1.36.72Z"/>
          <path class="cls-1" d="M12.84,57.15c-.35.74-.47,1.6-.21,2.37.26.77.95,1.42,1.75,1.51.55.07,1.11-.12,1.57-.44s.81-.76,1.11-1.22c.66-1.04,1.11-3.01-.38-3.59-1.43-.55-3.19-.03-3.85,1.37Z"/>
          <path class="cls-1" d="M11.38,51.72c-.12.24-.16.51-.15.78.02.33.14.69.43.84.31.16.7.04.98-.17.2-.15.37-.33.47-.55.17-.36.14-.81-.1-1.12-.45-.58-1.32-.38-1.63.22Z"/>
          <path class="cls-1" d="M34.52,38.76c3.61.64,7.52-.54,10.82-1.95,1.77-.75,3.47-1.66,5.1-2.67,1.54-.96,3.6-2.04,4.34-3.77.43-1-.27-1.92-1.35-1.75-1.67.26-3.01,1.56-4.39,2.47-1.42.93-2.89,1.78-4.41,2.52-3.3,1.6-6.61,2.13-10.11,3.01-1.02.26-1.11,1.95,0,2.15h0Z"/>
          <path class="cls-1" d="M59.49,28.02c.32-.26.66-.5.96-.77.13-.12.26-.25.39-.38.32-.33.43-.63.48-1.08.05-.45-.39-1.07-.86-1.13-.41-.06-.75-.05-1.12.15-.18.1-.36.21-.52.32-.34.23-.66.5-.98.74-.65.49-.93,1.31-.39,2.02.54.7,1.41.65,2.05.14h0Z"/>
        </g>
      </g>
      <rect class="cls-2" width="100" height="100"/>
    </g>
  </g>
</svg>