<?xml version="1.0" encoding="UTF-8"?>
<svg id="Capa_2" data-name="Capa 2" xmlns="http://www.w3.org/2000/svg" viewBox="0 0 100 100">
  <defs>
    <style>
      .cls-1 {
        fill: #fff;
      }

      .cls-2 {
        fill: none;
      }

      .cls-3 {
        fill: #4a2d2d;
      }

      .cls-4 {
        fill: #c25d3d;
      }
    </style>
  </defs>
  <g id="COLOR">
    <g>
      <g>
        <path class="cls-3" d="M11.59,48.79c-1.52,1.98-3.84,3.38-3.97,2.68-.21-1.1,1.75-3.16,3.02-3.85-.33-.61-.41-.73-.64-1.38-2.28.37-4.86.11-5.27-.1-.09-.05-.17-.13-.18-.24,0-.08.02-.15.06-.22.33-.55,1.13-.73,1.72-.8.81-.1,2.31.01,3.09.16-.08-.53-.16-1.04-.13-1.58-2.35-.21-6.04.19-6.41,2.1-.39,2.07,2.42,2.53,4.89,2.52-.14.15-.28.3-.41.47-.64.83-1.62,2.54-1.15,3.64.41.95,1.74.89,2.57.63,1.1-.35,2.99-1.95,3.89-2.84-.39-.37-.75-.77-1.08-1.2Z"/>
        <path class="cls-3" d="M89.12,48.79c1.52,1.98,3.84,3.38,3.97,2.68.21-1.1-1.75-3.16-3.02-3.85.33-.61.41-.73.64-1.38,2.28.37,4.86.11,5.27-.1.09-.05.17-.13.18-.24,0-.08-.02-.15-.06-.22-.33-.55-1.13-.73-1.72-.8-.81-.1-2.31.01-3.09.16.08-.53.16-1.04.13-1.58,2.35-.21,6.04.19,6.41,2.1.39,2.07-2.42,2.53-4.89,2.52.14.15.28.3.41.47.64.83,1.62,2.54,1.15,3.64-.41.95-1.74.89-2.57.63-1.1-.35-2.99-1.95-3.89-2.84.39-.37.75-.77,1.08-1.2Z"/>
        <g>
          <path class="cls-3" d="M43.03,44.33c-.57.15-1.17.38-1.73.54-.02,0-.03.01-.05.01-.52,2.4-.65,5.02-.45,7.26.16,1.79.95,4.5,3.13,4.76,2.22.26,2.4-2.68,2.61-4.19.4-2.96.72-6.11.71-9.15-.54.07-1.19-.12-1.74-.01-.03,1.21-.02,2.42-.06,3.62-.04,1.02-.08,2.05-.14,3.07-.05.93.12,2.99-.43,3.68-1.24,1.59-2.16.21-2.41-1.24-.19-1.09-.16-2.2-.13-3.3.04-1.75.37-3.39.7-5.05Z"/>
          <path class="cls-3" d="M62.6,45.31c.72,3.72,1.35,8.27-.36,11.64-1.73,3.41-4.52,4.96-8.22,5.14-.34.02-.78.44-.84,2.65-.01.51.01,1.03.01,1.54,0,.96,0,1.91,0,2.87,0,1.91,0,3.82.03,5.74.01.97.05,1.93.07,2.9.15,4.47.53,8.97.48,13.44-1.93.29-3.85.65-5.77,1,.52-4.61.32-9.34.47-13.97.17-5.19.8-10.39.72-15.58,0-.45-.37-.6-.76-.64-.43-.04-.86-.02-1.29-.07-.33-.04-.67-.09-1-.15-.63-.12-1.25-.3-1.85-.54-1.16-.47-2.21-1.2-3.05-2.13-.6-.66-1.09-1.41-1.5-2.2-1.88-3.72-1.07-7.59-.28-11.46-.33.13-.67.27-.99.43-.3.15-.98.48-1.28.65-1.12,3.94-.93,8.72,1.13,12.2,1.75,2.95,5.39,5.57,8.97,5.22-.65,4.5-.71,9.09-.94,13.62-.26,5.13-.79,10.49-.15,15.6.04.32.27.72.66.66,2.51-.33,5.61-.68,8.1-1.11.33-.06.6-.45.59-.77-.18-4.7-.07-9.42-.15-14.12-.08-4.64-.28-9.31.01-13.94,3.27-.13,6.45-2.55,8.05-5.25,2.12-3.56,2.26-8.51,1.04-12.5-.56-.31-1.31-.66-1.92-.87Z"/>
          <path class="cls-3" d="M55.93,52.71c.2,1.51.39,4.46,2.61,4.19,2.18-.26,2.98-2.97,3.13-4.76.2-2.27.07-4.9-.46-7.31-.57-.18-1.2-.77-1.77-.93,0,0,.04.41.04.41.32,1.56.46,2.84.52,4.49.03,1.02.03,1.95-.07,2.97-.09.96-.81,4.96-2.23,2-.81-1.68-.49-4.54-.56-6.37-.05-1.33-.04-2.67-.07-4-.54-.08-1.29.28-1.83.22,0,3.02.31,6.15.7,9.08Z"/>
          <path class="cls-3" d="M50.47,42.96c-.58,0-1.22.42-1.79.46-.68,3-.78,6.37-.47,9.21.19,1.72,1.05,4.62,3.27,4.67,2.3.05,2.7-4.36,2.87-5.98.24-2.4.16-5.23-.3-7.8-.21-.02-.42-.03-.62-.05-.39-.03-.96-.44-1.35-.46.2,1.49.48,2.98.55,4.49.09,2.06.52,5.31-.69,7.1-1.01,1.51-1.87-1.12-2.04-1.97-.26-1.26-.19-2.62-.15-3.9.05-1.96.46-3.87.74-5.79Z"/>
        </g>
        <path class="cls-4" d="M28.05,23.92c-10.69,3.93-16.62,8.9-18.28,14.97-1.66,6.07.28,11.52,6.07,13.59,5.79,2.07,13.52-2,21.11-5.04,7.59-3.04,16.49-5.31,26.01-1.24,9.52,4.07,16.97,8.21,22.63,6.35,5.66-1.86,9.24-9.8,5.17-16.9-4.07-7.1-17.45-12.62-27.45-14.55-10-1.93-24.56-1.1-35.25,2.83Z"/>
        <path class="cls-3" d="M27.17,48.81c-1.71-.36-3.14-1.79-4.07-3.22s-1.1-2.91-1.63-4.44c-.21-.6-1.03-.47-1.09.15-.32,3.47,3.08,8.3,6.64,8.64.65.06.79-1,.15-1.13h0Z"/>
        <path class="cls-3" d="M37.39,43.67c-2.27-1.68-2.9-4.01-3.34-6.65-.09-.52-.95-.51-1.04,0-.57,3.02,1.39,6.03,3.77,7.69.64.45,1.22-.59.61-1.04h0Z"/>
        <path class="cls-3" d="M74.88,49.53c3.55-.34,6.96-5.17,6.64-8.64-.06-.62-.87-.76-1.09-.15-.53,1.54-.72,3.03-1.63,4.44-.93,1.43-2.36,2.86-4.07,3.22-.63.13-.5,1.2.15,1.13h0Z"/>
        <path class="cls-3" d="M65.11,44.3c2.39-1.66,4.34-4.68,3.77-7.69-.1-.51-.96-.52-1.04,0-.44,2.65-1.07,4.97-3.34,6.65-.61.45-.04,1.49.61,1.04h0Z"/>
        <path class="cls-3" d="M51.66,41.01c-.97-2.14-1-4.2-1.3-6.47-.08-.59-.87-.77-1.07-.15-.78,2.35.14,5.18,1.38,7.19.4.64,1.3.08,1-.58h0Z"/>
        <path class="cls-1" d="M17.8,35.83c2.1-1.46,4-2.97,6.36-4.02,2.11-.94,5.03-1.28,6.68-2.94.65-.65.4-1.95-.57-2.15-2.54-.54-5.56,1.12-7.77,2.25-2.39,1.23-4.91,2.89-6.31,5.25-.57.96.61,2.3,1.61,1.61h0Z"/>
        <path class="cls-1" d="M34.46,28.03l.32-.17c.58-.31.58-1.23,0-1.54l-.32-.17c-.35-.18-.75-.2-1.1,0s-.54.55-.54.94.21.74.54.94c.35.2.75.18,1.1,0h0Z"/>
        <path class="cls-1" d="M71,30.06c1.9.31,3.76.86,5.51,1.66,1.49.68,2.8,1.72,4.44,1.91.94.11,1.34-1.04.99-1.73-1.65-3.3-7.4-4-10.65-4.02-1.21,0-1.56,1.98-.29,2.18h0Z"/>
      </g>
      <rect class="cls-2" width="100" height="100"/>
    </g>
  </g>
</svg>