<?xml version="1.0" encoding="UTF-8"?>
<svg id="Capa_2" data-name="Capa 2" xmlns="http://www.w3.org/2000/svg" viewBox="0 0 100 100">
  <defs>
    <style>
      .cls-1 {
        fill: none;
      }

      .cls-2 {
        fill: #4a2d2d;
      }

      .cls-3 {
        fill: #d5343a;
      }
    </style>
  </defs>
  <g id="COLOR">
    <g>
      <g>
        <path class="cls-2" d="M38.89,13.56c-.68-2.73-3.62-1.19-5.5.17-.34-2.33-1.43-5.61-3.72-3.77-2.1,1.68-.69,5.52.19,7.43.33.72,1.54.21,1.29-.54-.47-1.42-1.36-3.96-.71-5.37.07-.16.75-.62,1.13.4.34.92.49,2.47.51,3.44.01.67.6,1.08,1.09.52.7-.81,4.01-3.36,4.31-1.83.31,1.54-3.11,2.48-4.34,3.6-.58.53-.07,1.13.61.98,1.8-.39,5.71-2.73,5.13-5.03Z"/>
        <path class="cls-2" d="M67.69,17.74c-1.88-.52-3.13,1.37-3.52,2.96-.23.92-.22,1.85-.12,2.77-1.92-.95-4.55-1.73-4.63.79-.09,3.02,4.19,5.39,6.79,4.96.83-.14.74-.89.12-1.13-.98-.39-2.15-.94-3.1-1.4-.87-.42-2.23-1.12-2.23-2.29,0-.87,2-.09,4.04,1.27.7.47,1.08.17.89-.56-.28-1.13-.43-2.58-.23-3.71.15-.86.94-2.58,1.89-1.42.65.79.74,2.61.81,3.37.13,1.28.18,2.56.18,3.85,0,1.14,1.7,1.12,1.75,0,.14-2.58.74-8.51-2.64-9.44Z"/>
        <path class="cls-3" d="M38.06,23.66c-.31-2.13-1.19-4.1-2.89-5.62-2.09-1.86-5.14-2.31-7.89-1.83-9.21,1.61-15.03,9.47-17.81,17.85-1.13,3.41-1.32,6.89.4,10.15,1.59,3.04,4.31,3.87,7.57,3.91,4.44.06,8.63-1.73,11.89-4.72,2.76-2.54,5.15-5.86,6.76-9.24,1.43-3,2.49-6.96,1.98-10.5Z"/>
        <path class="cls-3" d="M29.87,56.1c-.43-.67-.87-1.35-1.3-2.03-1.6-2.54-3.81-4.68-6.72-5.65-2.21-.73-4.67-.71-6.83.18-9.5,3.94-4.74,15.77-.73,21.98,3.51,5.43,8.77,13.48,16.33,10.53,7.2-2.8,5.94-11.8,3.5-17.51-1.15-2.67-2.69-5.09-4.25-7.52Z"/>
        <path class="cls-3" d="M66.73,80.16c-1.85-2.87-5.44-3.96-8.52-4.95-3.73-1.2-7.71-1.79-11.61-2.09-3.64-.28-6.77-.32-9.76,2-2.37,1.84-4.69,4.67-4.54,7.84.24,4.82,6.3,7.93,10.19,9.54,5.02,2.07,11.37,3.03,16.68,1.52,3.54-1.01,6.54-3.33,7.91-6.81.18-.45.31-.89.42-1.33.64-1.87.35-3.99-.77-5.72Z"/>
        <path class="cls-3" d="M89.17,55.59c-2.52-1.01-6.39-1.05-9.07.3-.63.22-1.24.48-1.79.75-3.31,1.62-6.03,4.32-8.36,7.13-2.25,2.71-4.45,5.42-5.06,8.98-.83,4.86.43,10.24,5.47,12.17,4.39,1.68,9.51-.7,13-3.36,5.27-4.03,9.85-10.84,10.15-17.63.15-3.4-.97-6.97-4.35-8.33Z"/>
        <path class="cls-3" d="M83.43,31.22c-2.56-3.03-6.34-5.05-10.3-5.5-2.2-.25-4.99.32-6.85,1.82-1.31.85-2.41,1.96-3.06,3.53-1.25,2.99-.55,6.26.65,9.15,2.33,5.57,6.89,11.99,12.37,14.84,5.37,2.78,11.13,1.26,12.81-4.88,1.9-6.94-1.17-13.72-5.62-18.96Z"/>
        <path class="cls-2" d="M15.75,49.13c1.5-.21,3.11-.1,4.51-.76.58-.28.36-1.11-.17-1.29-1.53-.5-3.27.06-4.78.45-1.06.28-.58,1.74.44,1.6h0Z"/>
        <path class="cls-2" d="M32.8,80.93c.57-.84,1.35-1.53,1.98-2.31s1.24-1.5,1.78-2.29c.37-.54-.35-1.21-.88-.88-.84.52-1.65,1.21-2.34,1.91-.75.76-1.28,1.67-1.96,2.48-.84.99.68,2.18,1.42,1.09h0Z"/>
        <path class="cls-2" d="M69.3,84.29c.07-2.17-.57-4.9-2.47-6.2-.72-.49-1.44.44-1.11,1.11.4.81.96,1.5,1.31,2.34.36.88.51,1.79.5,2.74,0,1.14,1.73,1.14,1.77,0h0Z"/>
        <path class="cls-2" d="M80.67,57.08c2.02.05,4.47-.31,5.97-1.79.64-.63-.01-1.72-.87-1.49s-1.73.7-2.61,1.01c-.88.31-1.79.55-2.71.7-.92.15-.66,1.56.21,1.58h0Z"/>
        <path class="cls-2" d="M17.97,24.06c2.26-.38,3.92.54,5.87,1.51.46.23,1.13-.27.77-.77-1.54-2.15-4.58-2.58-7.02-2.1-.9.18-.51,1.51.38,1.36h0Z"/>
        <path class="cls-2" d="M12.71,31.51c2.59-.3,4.8.49,7.1,1.6.56.27,1.21-.44.7-.91-2.1-1.92-5.04-2.41-7.8-2.06-.86.11-.88,1.47,0,1.37h0Z"/>
        <path class="cls-2" d="M17.22,28c1.24-.04,2.34.34,3.5.72.51.17.92-.55.53-.9-1.11-.99-2.58-1.27-4.03-1.17-.86.06-.88,1.38,0,1.35h0Z"/>
        <path class="cls-2" d="M12.65,64.42c2.12-2.97,5.29-4.16,8.65-5.2.54-.17.43-.95-.13-.98-3.97-.19-7.39,2.49-9.65,5.51-.5.67.64,1.35,1.14.66h0Z"/>
        <path class="cls-2" d="M16.27,68.53c1.15-1.37,2.7-2.15,4.31-2.86.47-.21.22-.97-.26-.95-2.14.07-3.84,1.36-5.1,3.01-.45.59.56,1.38,1.04.8h0Z"/>
        <path class="cls-2" d="M20.1,71.65c.82-.81,1.78-1.4,2.71-2.07.43-.31.18-1.01-.37-.87-1.27.31-2.36,1.11-3.28,2-.62.59.33,1.54.94.94h0Z"/>
        <path class="cls-2" d="M43.13,89.89c-.4-2.29.32-4.1,1.32-6.11.34-.67-.49-1.37-1.06-.82-1.9,1.82-2.21,4.86-1.52,7.27.24.82,1.4.47,1.26-.35h0Z"/>
        <path class="cls-2" d="M49.31,90.31c-.2-.76-.04-1.48-.14-2.24-.07-.51-.82-.52-1.04-.14-.46.77-.29,1.9-.08,2.73.21.82,1.48.47,1.27-.35h0Z"/>
        <path class="cls-2" d="M54.82,91.3c-.52-1.36-.38-2.65-.12-4.05.12-.65-.72-1.06-1.09-.46-.96,1.54-.72,3.43-.02,5.03.3.69,1.51.2,1.24-.52h0Z"/>
        <path class="cls-2" d="M82.55,79.49c.24-2.27-.86-5-3.26-5.61-.45-.11-.79.44-.45.78,1.35,1.36,2.53,2.8,2.44,4.83-.04.83,1.2.8,1.28,0h0Z"/>
        <path class="cls-2" d="M86.46,75.35c-.24-1.01-.64-2.05-1.42-2.77-.42-.39-1.22-.01-1.02.59.29.88.75,1.68,1.09,2.55.32.82,1.55.52,1.34-.37h0Z"/>
        <path class="cls-2" d="M88.79,71.28c-.24-1.27-.92-2.48-2.04-3.16-.6-.36-1.22.46-.74.96.73.75,1.3,1.52,1.52,2.55.18.82,1.41.47,1.26-.35h0Z"/>
        <path class="cls-2" d="M86.35,41.05c-1.96-.63-3.91-.61-5.76.34-.75.38-.22,1.54.56,1.34,1.57-.41,3.22-.65,4.83-.36.86.16,1.21-1.05.36-1.32h0Z"/>
        <path class="cls-2" d="M83.25,36.11c-1.67-.25-3.41.01-4.57,1.35-.37.43-.03,1.29.61,1.05,1.22-.47,2.46-.99,3.78-1.05.73-.03.99-1.23.18-1.35h0Z"/>
        <path class="cls-2" d="M80.38,31.94c-2-.15-4.37.51-5.43,2.36-.36.63.37,1.39,1,1,1.51-.92,2.78-1.92,4.58-2.19.7-.11.47-1.12-.16-1.17h0Z"/>
      </g>
      <rect class="cls-1" width="100" height="100"/>
    </g>
  </g>
</svg>