<?xml version="1.0" encoding="UTF-8"?>
<svg id="Capa_2" data-name="Capa 2" xmlns="http://www.w3.org/2000/svg" viewBox="0 0 100 100">
  <defs>
    <style>
      .cls-1 {
        fill: #fff;
      }

      .cls-2 {
        fill: none;
      }

      .cls-3 {
        fill: #4a2d2d;
      }

      .cls-4 {
        fill: #eca4a6;
      }

      .cls-5 {
        fill: #df6569;
      }
    </style>
  </defs>
  <g id="COLOR">
    <g>
      <g>
        <path class="cls-5" d="M15.85,51.93s1.48-6.65,13.96-14.32c12.48-7.67,34.66-15.99,44.36-15.25,9.7.74,18.17,8.4,20.7,16.91,2.03,6.84,2.4,14.6-10.81,24.58-13.26,10.01-25.97,15.62-31.98,16.54-6.01.92-32.62-1.48-36.14-7.39-3.51-5.91-.09-21.07-.09-21.07Z"/>
        <path class="cls-4" d="M21.21,44.26c-7.86,4.62-16.45,16.91-15.8,23.1.65,6.19,4.49,10.95,15.49,12.61,11,1.66,22.4,3,31.18.51,8.78-2.5,9.89-7.12,5.27-17.84-4.62-10.72-9.43-15.25-14.79-17.93-5.36-2.68-13.49-5.08-21.35-.46Z"/>
        <path class="cls-3" d="M89.05,44.86c-1.73.89-3.24,2-5.08,2.69-1.75.65-3.55,1.11-5.31,1.73-3.43,1.21-6.37,3.52-9.38,5.49-.68.44-.07,1.52.64,1.1,3.61-2.15,7.01-4.24,10.97-5.67,2.98-1.07,6.29-2.58,8.78-4.54.47-.37-.13-1.04-.61-.79Z"/>
        <path class="cls-3" d="M67.29,46.14c-2.2,1.35-4.45,2.74-6.86,3.7-1.63.65-3.29,1.01-4.45,2.42-.57.69.4,1.68.99.99,1.28-1.51,3.61-1.83,5.36-2.63,1.99-.91,3.82-2.09,5.67-3.25.77-.48.07-1.7-.72-1.22Z"/>
        <path class="cls-3" d="M71.41,43.67c2.57-1.08,5.13-2.19,7.64-3.41,2.44-1.18,5.17-2.26,7.29-3.97.49-.4-.04-1.21-.6-1.03-2.49.77-4.82,2.28-7.17,3.41-2.57,1.23-5.15,2.43-7.76,3.57-.8.35-.22,1.77.6,1.43Z"/>
        <path class="cls-3" d="M71.24,62.4c-1.45.39-2.72,1.24-3.9,2.14-.68.52-.07,1.7.7,1.2,1.2-.78,2.5-1.39,3.7-2.18.59-.39.23-1.35-.49-1.16Z"/>
        <path class="cls-3" d="M69.54,34.96c.72-.55.1-1.74-.73-1.25-2.77,1.62-5.4,3.35-8.36,4.66-2.58,1.14-5.18,2.13-7.28,4.08-.45.42.21,1.05.67.67,2.31-1.94,5.26-2.68,7.97-3.87,2.65-1.17,5.42-2.52,7.73-4.29Z"/>
        <path class="cls-3" d="M58.39,30.74c-1.6.88-2.95,1.5-4.72,1.98-1.3.35-2.6.84-3.82,1.43-3.1,1.49-5.87,3.33-9.11,4.59-.58.23-.35,1.16.26.96,1.48-.49,2.96-.92,4.39-1.55,1.59-.71,2.99-1.68,4.53-2.49,2.9-1.53,6.36-2.06,9.14-3.78.72-.45.08-1.55-.67-1.14Z"/>
        <path class="cls-3" d="M23.89,52.81c-.54,0-.54.83,0,.83s.54-.83,0-.83Z"/>
        <path class="cls-3" d="M18.94,54.75c-2.29,1.73-4.78,3.58-5.8,6.38-.85,2.35-.5,5.11,1.56,6.69.65.5,1.24-.51.81-1.05-3.45-4.35.6-8.56,3.93-11.36.36-.3-.13-.94-.5-.65Z"/>
        <path class="cls-3" d="M17.79,69.18c-.88,0-.88,1.37,0,1.37s.88-1.37,0-1.37Z"/>
        <path class="cls-3" d="M45.5,56.98c-.74-.4-1.48.54-.9,1.16,2.27,2.43,4.05,5.06,3.36,8.59-.64,3.29-3.32,5.82-6.49,6.68-.73.2-.42,1.29.31,1.13,3.84-.81,7.01-3.76,7.77-7.67.68-3.53-.73-8.09-4.05-9.89Z"/>
        <path class="cls-3" d="M36.35,54.2c-.66-.53-1.55.3-.94.94,1.33,1.42,2.36,3.11,2.83,5.01.56,2.25,0,4.17-.58,6.32-.2.72.78,1.1,1.18.5,2.69-4.09,1.14-9.85-2.48-12.78Z"/>
        <path class="cls-3" d="M25.65,66.87c-1.94-1.53-1.87-3.6-1.17-5.73.2-.6-.66-1.12-1.09-.63-1.88,2.17-.9,5.78,1.2,7.42.75.58,1.82-.46,1.06-1.06Z"/>
        <path class="cls-3" d="M29.93,61.35c-.16.17-.29.36-.43.54-.11.11-.19.24-.23.39-.04.16-.04.31,0,.47.07.27.26.47.51.57.26.11.54.1.79-.04.29-.17.41-.45.44-.77.02-.23.06-.46.06-.69,0-.57-.74-.9-1.14-.47Z"/>
        <path class="cls-3" d="M75.46,32.36c.57-.12,1.05-.32,1.57-.58.48-.24,1.02-.42,1.42-.78.37-.33.08-.99-.4-.97-.54.01-1.07.26-1.58.42-.55.17-1.04.36-1.54.66-.68.41-.22,1.41.53,1.25Z"/>
        <path class="cls-3" d="M20.8,44.63c5.12-2.49,12.23-3.16,17.58-.97,5.15,2.11,9.51,6.02,12.72,10.5,3.16,4.42,5.48,9.33,6.61,14.66.58,2.7.72,5.75-1.4,7.83-1.79,1.76-3.66,2.54-5.81,3.65-.72.37-1.38.98-.55.92,5.62-.41,11.1-3.89,10.97-9.84-.14-6.29-3.26-13.12-6.87-18.15-3.63-5.05-8.52-9.42-14.46-11.49-5.7-1.98-12.67-1.95-17.73,1.69-.75.54-1.9,1.6-1.06,1.19h0Z"/>
        <path class="cls-1" d="M62.11,59.52c.13-.08.26-.16.39-.24.11-.08.23-.16.32-.27.04-.05.08-.1.12-.16.09-.11.13-.23.18-.36.11-.26,0-.59-.16-.8-.19-.24-.42-.33-.72-.36-.26-.03-.57.09-.79.21-.13.07-.25.14-.37.21-.46.26-.66.93-.36,1.39s.91.66,1.39.36h0Z"/>
        <path class="cls-1" d="M85.98,42.51c.22-.16.49-.32.68-.52.21-.22.39-.48.49-.76.13-.37-.15-.89-.54-.95-.3-.05-.62-.02-.92.05-.27.07-.54.23-.79.34-.23.1-.43.41-.49.64-.07.26-.04.59.11.82s.37.43.64.49.6.06.82-.11h0Z"/>
        <path class="cls-1" d="M69.55,30.05c.53-.28,1.16-.52,1.48-1.07s-.09-1.17-.68-1.19c-.63-.02-1.18.41-1.7.71-.41.23-.58.82-.32,1.22.27.42.78.56,1.22.32h0Z"/>
        <path class="cls-1" d="M47.59,43.24c.88,0,.88-1.37,0-1.37s-.88,1.37,0,1.37h0Z"/>
        <path class="cls-1" d="M32.37,49.13c.19-.11,0,0,0,0,0,0,.18-.05.19-.05.05-.01.11-.03.16-.05.2-.05-.13,0,.03,0,.33-.02.67-.22.75-.57.07-.31-.04-.73-.36-.87-.26-.12-.53-.23-.82-.22s-.58.11-.85.24c-.42.2-.56.83-.32,1.21.26.41.78.56,1.21.32h0Z"/>
        <path class="cls-1" d="M23.8,76l.12.07.23.1c.13.04.26.05.39.02.09,0,.17-.02.25-.07.12-.04.23-.11.31-.2l.15-.2.1-.23c.04-.13.05-.26.02-.39,0-.13-.04-.25-.12-.36l-.07-.12c-.09-.15-.21-.27-.36-.36-.16-.09-.33-.14-.51-.14l-.27.04c-.17.05-.32.13-.45.26-.1.09-.17.2-.21.32-.06.12-.09.25-.09.39,0,.18.05.35.14.51.09.15.21.27.36.36h0Z"/>
        <path class="cls-1" d="M35.67,75.65c1.2,0,1.21-1.87,0-1.87s-1.21,1.87,0,1.87h0Z"/>
        <path class="cls-1" d="M84.25,56.8c.15-.23.34-.46.46-.71.15-.32.26-.67.29-1.02.06-.6-.66-.87-1.11-.64-.59.3-.95.87-1.31,1.39-.29.42-.09,1.09.35,1.32.49.26,1.02.1,1.32-.35h0Z"/>
      </g>
      <rect class="cls-2" width="100" height="100"/>
    </g>
  </g>
</svg>