<?xml version="1.0" encoding="UTF-8"?>
<svg id="Capa_2" data-name="Capa 2" xmlns="http://www.w3.org/2000/svg" viewBox="0 0 100 100">
  <defs>
    <style>
      .cls-1 {
        fill: #fff;
      }

      .cls-2 {
        fill: none;
      }

      .cls-3 {
        fill: #4a2d2d;
      }

      .cls-4 {
        fill: #c25d3d;
      }
    </style>
  </defs>
  <g id="COLOR">
    <g>
      <g>
        <g>
          <path class="cls-3" d="M17.42,25.95c.2-.15.4-.29.6-.43-1.36-2.07-2.72-4.14-4.06-6.22-.35-.54-1.21-.05-.87.51,1.29,2.17,2.58,4.34,3.87,6.5.15-.13.3-.25.45-.37Z"/>
          <path class="cls-4" d="M30,28.43c-1.22-1.84-3-3.39-5.05-4.23-2.3-.94-4.69-.39-6.79.78-2.03,1.12-4.05,2.63-5.26,4.65-.12.2-.23.41-.33.62-.99,2.08-.46,3.67.58,5.62,1.05,1.98,2.34,4,3.86,5.64,3.63,3.93,8.79-.43,12.04-2.76,1.55-1.12,3.03-2.57,3.17-4.59.14-2.01-1.15-4.12-2.22-5.74Z"/>
          <path class="cls-3" d="M24.61,35.88s-.08.03-.13.04c-.11.03-.22.06-.33.11-.02,0-.03.01-.03.01-.02,0-.04.02-.05.02-.02,0-.04.02-.06.03-.15.07-.29.15-.43.23-.02.02-.05.04-.07.05-.04.04-.08.07-.11.11-.07.07-.15.14-.22.21,1.65,2.74,3.31,5.48,4.96,8.22.09-.1.18-.19.27-.28.34-.33.71-.62,1.11-.88-1.63-2.63-3.27-5.25-4.91-7.88Z"/>
          <path class="cls-4" d="M41.11,46.93c-1.31-1.99-3.17-3.75-5.48-4.48-2.4-.75-4.75.08-6.82,1.31-2.11,1.26-4.04,2.71-5.13,5-.99,2.08-.46,3.67.58,5.62,1.05,1.98,2.34,4,3.86,5.64,3.63,3.93,8.79-.43,12.04-2.76,1.55-1.12,3.03-2.57,3.17-4.59.14-2.01-1.15-4.12-2.22-5.74Z"/>
          <path class="cls-3" d="M38.71,58.61c-.44-.72-.89-1.44-1.33-2.16-.22-.36-.44-.72-.67-1.08-.22-.36-.42-.76-.68-1.09-.03-.04-.55.24-.61.27-.31.17-.58.44-.79.72-.02.03-.05.07-.07.1-.02.02-.03.05-.05.07,1.51,2.49,3.02,4.97,4.53,7.46.11-.11.22-.22.34-.32.38-.32.83-.6,1.3-.77-.66-1.07-1.31-2.14-1.97-3.21Z"/>
          <path class="cls-4" d="M51.71,65.43c-1.01-1.53-2.32-2.9-3.92-3.8-3.63-2.04-7.35-.42-10.37,1.89-.77.59-1.47,1.26-2.07,2.02-.42.53-.78,1.1-1.07,1.71-.99,2.08-.46,3.67.58,5.62,1.05,1.98,2.34,4,3.86,5.64,3.63,3.93,8.79-.43,12.04-2.76,1.55-1.12,3.03-2.57,3.17-4.59.14-2.01-1.15-4.12-2.22-5.74Z"/>
          <path class="cls-3" d="M50.12,69.37c-2.65.07-4.84.48-6.92,2.2-1.42,1.18-3.08,3.09-2.25,5.03.21.49.93.29,1.06-.14.26-.82.37-1.65.94-2.33.54-.65,1.26-1.18,1.95-1.65,1.57-1.07,3.37-1.35,5.22-1.57.96-.11,1.02-1.57,0-1.55h0Z"/>
          <path class="cls-3" d="M48.57,66.27c-1.19-.15-2.84.74-3.41,1.78-.21.37.14.82.55.72.56-.14,1.05-.44,1.57-.69s1.11-.42,1.58-.76.28-.97-.28-1.04h0Z"/>
          <path class="cls-3" d="M45.85,64.28c-.73.08-1.63.33-1.88,1.1-.09.27.16.64.46.61.49-.05.92-.36,1.42-.41.35-.03.65-.28.65-.65,0-.32-.3-.69-.65-.65h0Z"/>
          <path class="cls-3" d="M39.51,50.87c-2.65.07-4.84.48-6.92,2.2-1.42,1.18-3.08,3.09-2.25,5.03.21.49.93.29,1.06-.14.26-.82.37-1.65.94-2.33.54-.65,1.26-1.18,1.95-1.65,1.57-1.07,3.37-1.35,5.22-1.57.96-.11,1.02-1.57,0-1.55h0Z"/>
          <path class="cls-3" d="M37.96,47.77c-1.19-.15-2.84.74-3.41,1.78-.21.37.14.82.55.72.56-.14,1.05-.44,1.57-.69s1.11-.42,1.58-.76.28-.97-.28-1.04h0Z"/>
          <path class="cls-3" d="M35.25,45.78c-.73.08-1.63.33-1.88,1.1-.09.27.16.64.46.61.49-.05.92-.36,1.42-.41.35-.03.65-.28.65-.65,0-.32-.3-.69-.65-.65h0Z"/>
          <path class="cls-3" d="M28.41,32.37c-2.65.07-4.84.48-6.92,2.2-1.42,1.18-3.08,3.09-2.25,5.03.21.49.93.29,1.06-.14.26-.82.37-1.65.94-2.33.54-.65,1.26-1.18,1.95-1.65,1.57-1.07,3.37-1.35,5.22-1.57.96-.11,1.02-1.57,0-1.55h0Z"/>
          <path class="cls-3" d="M26.85,29.26c-1.19-.15-2.84.74-3.41,1.78-.21.37.14.82.55.72.56-.14,1.05-.44,1.57-.69s1.11-.42,1.58-.76.28-.97-.28-1.04h0Z"/>
          <path class="cls-3" d="M24.14,27.28c-.73.08-1.63.33-1.88,1.1-.09.27.16.64.46.61.49-.05.92-.36,1.42-.41.35-.03.65-.28.65-.65,0-.32-.3-.69-.65-.65h0Z"/>
          <path class="cls-3" d="M52.81,82.27c-1.09-2.76-2.72-5.28-4.33-7.76-.24-.36-.47-.73-.7-1.09s-.36-.79-.85-.74c.02,0,.04,0,.06-.01-.67.12-1.1.57-1.44,1.13,1.82,3.19,3.63,6.5,5.99,9.21.48.55,1.55-.03,1.27-.74Z"/>
          <path class="cls-3" d="M50.13,80.27c.57,1.14,1.14,2.89,2.2,3.68,1.24.92,2.42-.13,3.69-.36,3.81-.68,6.8,3.34,5.39,6.79-1.18,2.87-4.98,4.23-7.22,1.74-.65-.72-1.2-1.87-.82-2.84.72-1.86,2.91-1.18,3.84.03.59.78,2.07.38,1.72-.72-1.21-3.8-6.91-2.71-7.42.95-.47,3.41,2.88,6.24,6.12,5.92,4.49-.44,7.35-5.43,5.68-9.55-.79-1.94-2.42-3.35-4.45-3.85-1.25-.31-2.6-.28-3.83.06-1.17.33-1.49.5-2.39-.49-.53-.58-.95-1.37-1.41-2.01-.48-.66-1.47-.1-1.1.64h0Z"/>
          <path class="cls-1" d="M14.07,31.3c.01.12.02.24.04.36.04.27.16.53.35.72.4.39,1.03.39,1.44,0,.2-.19.32-.45.35-.72.02-.12.03-.24.04-.36.02-.27-.14-.6-.33-.79s-.51-.34-.79-.33-.59.11-.79.33c-.19.21-.35.5-.33.79h0Z"/>
          <path class="cls-1" d="M25.2,49.53c.01.19.01.4.06.59.08.32.27.53.54.7.24.16.63.16.87,0,.27-.18.46-.39.54-.7.05-.18.05-.39.06-.59.02-.25-.13-.56-.3-.73s-.47-.31-.73-.3-.55.1-.73.3c-.18.19-.32.46-.3.73h0Z"/>
          <path class="cls-1" d="M36.86,67.59c-.09.16-.17.32-.2.5-.04.25-.04.41,0,.66,0,.05.02.1.03.15l.11.27c.07.13.17.23.29.31.19.15.43.25.68.24.2,0,.39-.06.56-.15.22-.12.46-.41.51-.67.01-.05.02-.1.03-.15.06-.32.05-.35,0-.66-.03-.18-.11-.34-.2-.5-.38-.69-1.44-.69-1.82,0h0Z"/>
        </g>
        <g>
          <path class="cls-3" d="M48.72,16.3c.2-.15.4-.29.6-.43-1.36-2.07-2.72-4.14-4.06-6.22-.35-.54-1.21-.05-.87.51,1.29,2.17,2.58,4.34,3.87,6.5.15-.13.3-.25.45-.37Z"/>
          <path class="cls-4" d="M61.3,18.78c-1.22-1.84-3-3.39-5.05-4.23-2.3-.94-4.69-.39-6.79.78s-4.05,2.63-5.26,4.65c-.12.2-.23.41-.33.62-.99,2.08-.46,3.67.58,5.62,1.05,1.98,2.34,4,3.86,5.64,3.63,3.93,8.79-.43,12.04-2.76,1.55-1.12,3.03-2.57,3.17-4.59.14-2.01-1.15-4.12-2.22-5.74Z"/>
          <path class="cls-3" d="M55.91,26.23s-.08.03-.13.04c-.11.03-.22.06-.33.11-.02,0-.03.01-.03.01-.02,0-.04.02-.05.02-.02,0-.04.02-.06.03-.15.07-.29.15-.43.23-.02.02-.05.04-.07.05-.04.04-.08.07-.11.11-.07.07-.15.14-.22.21,1.65,2.74,3.31,5.48,4.96,8.22.09-.1.18-.19.27-.28.34-.33.71-.62,1.11-.88-1.63-2.63-3.27-5.25-4.91-7.88Z"/>
          <path class="cls-4" d="M72.41,37.28c-1.31-1.99-3.17-3.75-5.48-4.48-2.4-.75-4.75.08-6.82,1.31-2.11,1.26-4.04,2.71-5.13,5-.99,2.08-.46,3.67.58,5.62,1.05,1.98,2.34,4,3.86,5.64,3.63,3.93,8.79-.43,12.04-2.76,1.55-1.12,3.03-2.57,3.17-4.59.14-2.01-1.15-4.12-2.22-5.74Z"/>
          <path class="cls-3" d="M70.01,48.96c-.44-.72-.89-1.44-1.33-2.16-.22-.36-.44-.72-.67-1.08-.22-.36-.42-.76-.68-1.09-.03-.04-.55.24-.61.27-.31.17-.58.44-.79.72-.02.03-.05.07-.07.1-.02.02-.03.05-.05.07,1.51,2.49,3.02,4.97,4.53,7.46.11-.11.22-.22.34-.32.38-.32.83-.6,1.3-.77-.66-1.07-1.31-2.14-1.97-3.21Z"/>
          <path class="cls-4" d="M83.01,55.78c-1.01-1.53-2.32-2.9-3.92-3.8-3.63-2.04-7.35-.42-10.37,1.89-.77.59-1.47,1.26-2.07,2.02-.42.53-.78,1.1-1.07,1.71-.99,2.08-.46,3.67.58,5.62,1.05,1.98,2.34,4,3.86,5.64,3.63,3.93,8.79-.43,12.04-2.76,1.55-1.12,3.03-2.57,3.17-4.59.14-2.01-1.15-4.12-2.22-5.74Z"/>
          <path class="cls-3" d="M81.42,59.72c-2.65.07-4.84.48-6.92,2.2-1.42,1.18-3.08,3.09-2.25,5.03.21.49.93.29,1.06-.14.26-.82.37-1.65.94-2.33.54-.65,1.26-1.18,1.95-1.65,1.57-1.07,3.37-1.35,5.22-1.57.96-.11,1.02-1.57,0-1.55h0Z"/>
          <path class="cls-3" d="M79.86,56.62c-1.19-.15-2.84.74-3.41,1.78-.21.37.14.82.55.72.56-.14,1.05-.44,1.57-.69s1.11-.42,1.58-.76.28-.97-.28-1.04h0Z"/>
          <path class="cls-3" d="M77.15,54.63c-.73.08-1.63.33-1.88,1.1-.09.27.16.64.46.61.49-.05.92-.36,1.42-.41.35-.03.65-.28.65-.65,0-.32-.3-.69-.65-.65h0Z"/>
          <path class="cls-3" d="M70.81,41.22c-2.65.07-4.84.48-6.92,2.2-1.42,1.18-3.08,3.09-2.25,5.03.21.49.93.29,1.06-.14.26-.82.37-1.65.94-2.33.54-.65,1.26-1.18,1.95-1.65,1.57-1.07,3.37-1.35,5.22-1.57.96-.11,1.02-1.57,0-1.55h0Z"/>
          <path class="cls-3" d="M69.26,38.12c-1.19-.15-2.84.74-3.41,1.78-.21.37.14.82.55.72.56-.14,1.05-.44,1.57-.69s1.11-.42,1.58-.76.28-.97-.28-1.04h0Z"/>
          <path class="cls-3" d="M66.55,36.13c-.73.08-1.63.33-1.88,1.1-.09.27.16.64.46.61.49-.05.92-.36,1.42-.41.35-.03.65-.28.65-.65,0-.32-.3-.69-.65-.65h0Z"/>
          <path class="cls-3" d="M59.71,22.72c-2.65.07-4.84.48-6.92,2.2-1.42,1.18-3.08,3.09-2.25,5.03.21.49.93.29,1.06-.14.26-.82.37-1.65.94-2.33.54-.65,1.26-1.18,1.95-1.65,1.57-1.07,3.37-1.35,5.22-1.57.96-.11,1.02-1.57,0-1.55h0Z"/>
          <path class="cls-3" d="M58.15,19.62c-1.19-.15-2.84.74-3.41,1.78-.21.37.14.82.55.72.56-.14,1.05-.44,1.57-.69s1.11-.42,1.58-.76c.47-.34.28-.97-.28-1.04h0Z"/>
          <path class="cls-3" d="M55.44,17.63c-.73.08-1.63.33-1.88,1.1-.09.27.16.64.46.61.49-.05.92-.36,1.42-.41.35-.03.65-.28.65-.65,0-.32-.3-.69-.65-.65h0Z"/>
          <path class="cls-3" d="M84.11,72.62c-1.09-2.76-2.72-5.28-4.33-7.76-.24-.36-.47-.73-.7-1.09s-.36-.79-.85-.74c.02,0,.04,0,.06-.01-.67.12-1.1.57-1.44,1.13,1.82,3.19,3.63,6.5,5.99,9.21.48.55,1.55-.03,1.27-.74Z"/>
          <path class="cls-3" d="M81.43,70.62c.57,1.14,1.14,2.89,2.2,3.68,1.24.92,2.42-.13,3.69-.36,3.81-.68,6.8,3.34,5.39,6.79-1.18,2.87-4.98,4.23-7.22,1.74-.65-.72-1.2-1.87-.82-2.84.72-1.86,2.91-1.18,3.84.03.59.78,2.07.38,1.72-.72-1.21-3.8-6.91-2.71-7.42.95-.47,3.41,2.88,6.24,6.12,5.92,4.49-.44,7.35-5.43,5.68-9.55-.79-1.94-2.42-3.35-4.45-3.85-1.25-.31-2.6-.28-3.83.06-1.17.33-1.49.5-2.39-.49-.53-.58-.95-1.37-1.41-2.01-.48-.66-1.47-.1-1.1.64h0Z"/>
          <path class="cls-1" d="M45.37,21.65c.01.12.02.24.04.36.04.27.16.53.35.72.4.39,1.03.39,1.44,0,.2-.19.32-.45.35-.72.02-.12.03-.24.04-.36.02-.27-.14-.6-.33-.79s-.51-.34-.79-.33-.59.11-.79.33c-.19.21-.35.5-.33.79h0Z"/>
          <path class="cls-1" d="M56.5,39.89c.01.19.01.4.06.59.08.32.27.53.54.7.24.16.63.16.87,0,.27-.18.46-.39.54-.7.05-.18.05-.39.06-.59.02-.25-.13-.56-.3-.73s-.47-.31-.73-.3-.55.1-.73.3-.32.46-.3.73h0Z"/>
          <path class="cls-1" d="M68.16,57.94c-.09.16-.17.32-.2.5-.04.25-.04.41,0,.66,0,.05.02.1.03.15l.11.27c.07.13.17.23.29.31.19.15.43.25.68.24.2,0,.39-.06.56-.15.22-.12.46-.41.51-.67.01-.05.02-.1.03-.15.06-.32.05-.35,0-.66-.03-.18-.11-.34-.2-.5-.38-.69-1.44-.69-1.82,0h0Z"/>
        </g>
      </g>
      <rect class="cls-2" width="100" height="100"/>
    </g>
  </g>
</svg>