<?xml version="1.0" encoding="UTF-8"?>
<svg id="Capa_2" data-name="Capa 2" xmlns="http://www.w3.org/2000/svg" viewBox="0 0 100 100">
  <defs>
    <style>
      .cls-1 {
        fill: #fff;
      }

      .cls-2 {
        fill: none;
      }

      .cls-3 {
        fill: #4a2d2d;
      }

      .cls-4 {
        fill: #d5343a;
      }
    </style>
  </defs>
  <g id="COLOR">
    <g>
      <g>
        <path class="cls-1" d="M69.95,46.49s-4-2.33-4.67-6,.67-9.83-4.17-11.83-11.67-3-19.83-2.5-18.67,3-24,8.83-10.83,14-2,23.17,25.67,11,38.5,10.83,25-5,29.5-7.67,5.5-6,5-8.33-3.67-2.33-8-3.5-10.33-3-10.33-3Z"/>
        <g>
          <g>
            <g>
              <path class="cls-4" d="M81.54,48.88s-.08-.02-.12-.03c1.11.48,2.1.9,2.89,1.33,1.18.63,4.08,1.97,4,4.81-.08,2.85-6.94,8.67-17.98,11.25-11.05,2.58-32.2,4.21-46.32-2.9-14.12-7.11-14.62-13.87-12.29-20.81.5-1.51,1.36-3.07,2.48-4.63-1.52,1.83-2.74,3.62-3.67,5.22-3.83,6.53-8.8,20.74,3.21,30.45,12.01,9.71,30.77,10.45,47.15,9.38,16.37-1.07,28.61-6.1,31.02-17.53,2.14-10.12-2.59-15.6-10.37-16.54Z"/>
              <path class="cls-4" d="M52.16,33.49c-3.15.86-2.9,6.29-7.71,9.32-4.81,3.02-9.81,2.84-9.44,0,.37-2.84,6.05-4.57,7.04-6.67.99-2.1-.74-4.13-6.79-3.46-6.05.68-16.42,7.59-16.6,15.06-.19,7.47,5.8,12.96,19.87,15.37s23.57-2.96,26.17-7.28c2.59-4.32-.62-11.91-1.97-14.63-2.53-5.06-7.41-8.58-10.55-7.71Z"/>
              <path class="cls-4" d="M73.02,52.81c-4.23,1.52-6.23,6.79-1.17,7.47,2.26.3,5.74-1,6.92-3.08,2.07-3.61-3.09-5.35-5.75-4.39Z"/>
              <path class="cls-1" d="M10.27,62.36s.02,0,.03,0l-.32-.14.07.04-.43-.43s.02.04.03.06c.23.35.58.58,1.01.58s.78-.23,1.01-.58c.01-.02.02-.04.03-.06l-.43.43.07-.04-.32.14c.39-.11.68-.34.9-.68s.23-.75.15-1.12c-.07-.25-.19-.46-.37-.64-.13-.14-.29-.24-.47-.3-.17-.09-.36-.13-.56-.13-.2,0-.39.03-.56.13-.18.06-.34.16-.47.3-.14.13-.24.29-.3.47-.09.17-.13.36-.13.56,0,.2.03.39.13.56.06.18.16.34.3.47.18.18.4.31.64.37h0Z"/>
              <path class="cls-1" d="M12.91,69.14c1.71,0,1.72-2.66,0-2.66s-1.72,2.66,0,2.66h0Z"/>
              <path class="cls-1" d="M18.34,67.95c1.45,0,1.46-2.26,0-2.26s-1.46,2.26,0,2.26h0Z"/>
              <path class="cls-1" d="M43.28,75.54c.23-.02.46-.02.68-.07.56-.14.98-.67.98-1.24s-.42-1.08-.98-1.24c-.22-.06-.46-.06-.68-.07-.32-.02-.71.16-.93.39s-.4.6-.39.93.13.69.39.93.58.41.93.39h0Z"/>
              <path class="cls-1" d="M50.44,74.73c1.29,0,1.29-2,0-2s-1.29,2,0,2h0Z"/>
              <path class="cls-1" d="M49.45,80.05c1.45,0,1.46-2.26,0-2.26s-1.46,2.26,0,2.26h0Z"/>
              <path class="cls-1" d="M30.19,76.66c1.23,0,1.23-1.91,0-1.91s-1.23,1.91,0,1.91h0Z"/>
              <path class="cls-1" d="M68.46,74.46c1.57,0,1.58-2.45,0-2.45s-1.58,2.45,0,2.45h0Z"/>
              <path class="cls-1" d="M74.88,77.75c1.36,0,1.36-2.11,0-2.11s-1.36,2.11,0,2.11h0Z"/>
              <path class="cls-1" d="M84.33,66.81l-.03-.08c-.12-.19-.27-.35-.46-.46-.2-.12-.42-.18-.65-.18-.23,0-.45.06-.65.18-.19.12-.35.27-.46.46l-.03.08c-.12.21-.18.43-.18.67,0,.24.06.46.18.67.24.41.68.66,1.15.66s.91-.25,1.15-.66c.12-.21.18-.43.18-.67,0-.24-.06-.46-.18-.67h0Z"/>
              <path class="cls-1" d="M88.62,63.58c1.33,0,1.33-2.07,0-2.07s-1.33,2.07,0,2.07h0Z"/>
              <path class="cls-1" d="M86.04,72.48c1.48,0,1.48-2.3,0-2.3s-1.48,2.3,0,2.3h0Z"/>
              <path class="cls-1" d="M63.27,77.56c.48,0,.48-.74,0-.74s-.48.74,0,.74h0Z"/>
              <path class="cls-1" d="M36.12,75.34c.48,0,.48-.74,0-.74s-.48.74,0,.74h0Z"/>
              <path class="cls-1" d="M19.83,73.05c.71,0,.71-1.1,0-1.1s-.71,1.1,0,1.1h0Z"/>
            </g>
            <path class="cls-1" d="M26.94,40.96c-.75.36-1.47.75-2.15,1.23-.6.42-1.61,1.05-1.5,1.89.05.41.23.66.62.81.75.29,1.53-.41,2.13-.81.66-.43,1.32-.85,2.01-1.24,1.24-.7.15-2.49-1.1-1.89h0Z"/>
            <path class="cls-1" d="M25.6,46.67c-.13.25-.28.51-.4.77-.18.4-.26.74-.17,1.18.08.37.55.64.91.52.41-.14.66-.38.91-.73.17-.23.31-.49.46-.73.27-.44.11-1.11-.36-1.36s-1.1-.13-1.36.36h0Z"/>
            <path class="cls-1" d="M54.75,46.55c.66,1.76.5,3.6.99,5.38.17.62.95.64,1.28.17,1.33-1.89.56-4.48-.46-6.32-.53-.96-2.22-.31-1.81.76h0Z"/>
            <path class="cls-1" d="M59.55,49.44c.06.11.12.22.17.33-.04-.09-.02-.04,0,.02.03.1.07.2.11.3.14.33.3.6.61.81.27.18.65.1.87-.11.59-.55.38-1.48.11-2.14-.23-.57-.77-.93-1.39-.67-.56.24-.8.92-.49,1.46h0Z"/>
            <path class="cls-1" d="M75.08,55.46c0,.07.01.14.01.21,0,.04-.03.2,0,.07.04-.15-.03.08-.04.11.06-.2-.02.04-.05.11.02-.04-.11.31-.06.16.05-.12-.05.07-.07.1-.09.16-.13.33-.19.49-.18.5.28.97.75.99.36.02.67-.08.94-.32.03-.03.07-.06.1-.09.06-.05.04-.04-.05.02.15-.09.28-.21.37-.37.03-.03.05-.07.07-.11.3-.51.31-1.11.23-1.67-.07-.5-.68-.8-1.13-.74s-.95.5-.89,1.01h0Z"/>
          </g>
          <path class="cls-3" d="M85.31,49.64c-4.11-1.29-8.37-2.06-12.46-3.4-1.7-.56-3.49-1.28-4.78-2.56-1.66-1.64-1.83-3.69-1.88-5.91-.1-4.15-1.27-7.5-4.96-9.78-1.77-1.1-3.97-1.39-6-1.74-11.51-2.01-24.33-.85-34.45,5.33-.4.25-.8.5-1.19.76-1.13.75-2.21,1.59-3.21,2.52-5.34,4.94-8.15,12.62-4.73,19.45,3.41,6.83,11.34,10.79,18.38,12.76,8.87,2.48,18.19,3.25,27.36,2.5,8.23-.67,17.12-2.02,24.45-6.05,2.98-1.64,6.62-4.06,7.66-7.5.98-3.25-1.26-5.47-4.18-6.38ZM85.08,58.23c-5.61,5.18-13.78,6.8-21.06,7.96-8.1,1.29-16.45,1.6-24.6.53-7.54-.99-15.39-3.02-21.55-7.67-2.87-2.17-5.22-5.2-5.95-8.78-.77-3.8.4-7.76,2.52-10.93,6.61-9.87,20.07-12.2,31.1-12.16,1.88,0,3.77.07,5.65.24,3.5.32,7.58.62,10.27,3.19,2.56,2.44,2.65,6.26,3.04,9.46.52,4.18,3.02,6.66,6.73,8.1,3.45,1.34,7.17,2.08,10.74,3.03,1.42.38,3.68.67,4.74,1.83,1.55,1.71-.35,4.01-1.64,5.2Z"/>
        </g>
      </g>
      <rect class="cls-2" width="100" height="100"/>
    </g>
  </g>
</svg>