<?xml version="1.0" encoding="UTF-8"?>
<svg id="Capa_2" data-name="Capa 2" xmlns="http://www.w3.org/2000/svg" viewBox="0 0 100 100">
  <defs>
    <style>
      .cls-1 {
        fill: #fff;
      }

      .cls-2 {
        fill: #d57924;
      }

      .cls-3 {
        fill: none;
      }

      .cls-4 {
        fill: #fedcc1;
      }

      .cls-5 {
        fill: #4a2d2d;
      }

      .cls-6 {
        fill: #783627;
      }

      .cls-7 {
        fill: #b7411b;
      }

      .cls-8 {
        fill: #eeaeb0;
      }
    </style>
  </defs>
  <g id="COLOR">
    <g>
      <g>
        <path class="cls-7" d="M18.01,27.53s3.34-3.63,13.06-4.06c9.72-.44,14.36,2.47,14.36,2.47,0,0,4.21-5.95,13.49-6.53,9.28-.58,14.8,6.96,14.8,6.96,0,0,4.79-6.09,12.04-2.03,7.25,4.06,11.6,19.15,8.41,33.8-3.19,14.65-11.31,17.41-15.09,18.13-3.77.73-7.54-1.31-7.54-1.31,0,0-2.93,3.86-10.59,4.64-5.66.58-8.7-2.61-8.7-2.61,0,0-4.64,5.37-14.65,6.53-10.01,1.16-15.96-.15-18.57-3.19-2.61-3.05-1.02-52.8-1.02-52.8Z"/>
        <path class="cls-8" d="M10.32,33.77c-7.4,10.3-9.28,31.33,1.89,43.08,10.46,11,21.32,3.48,25.68-8.56,4.35-12.04,1.25-26.54-1.57-31.95-6.53-12.47-18.59-12.88-25.99-2.58Z"/>
        <path class="cls-7" d="M14.4,39.14c-.28-.39-.47-.83-.8-1.18-.32-.35-.84-.59-1.28-.4-.48.2-.65.79-.68,1.3-.06.95.14,1.93.59,2.77.34.66.82,1.23,1.31,1.79.52.6,1.12,1.23,1.91,1.32.82.09,1.62-.5,1.91-1.27.29-.78.2-2.03-.55-2.5-.87-.54-1.78-.95-2.4-1.82Z"/>
        <path class="cls-2" d="M19.9,33.76c-.15.54-.09,1.11-.06,1.67.02.42.03.84.13,1.25s.32.8.67,1.03c.23.15.51.22.78.24,1.02.09,2.07-.46,2.58-1.35.51-.89.45-2.08-.14-2.91-.89-1.25-3.45-1.82-3.96.08Z"/>
        <path class="cls-4" d="M8.7,53.18c.04.87.33,1.77.99,2.34.66.57,1.73.69,2.39.12.28-.24.46-.57.6-.9.57-1.4.6-3.98-1.14-4.61s-2.9,1.59-2.84,3.05Z"/>
        <path class="cls-4" d="M31.41,48.87c-.38-.04-.76.05-1.12.16-1.24.38-2.4,1-3.4,1.81-.7.57-1.32,1.24-2.1,1.7-.53.32-1.17.56-1.47,1.11-.39.71.03,1.68.75,2.07.72.38,1.62.27,2.36-.07s1.35-.9,1.97-1.43c.95-.82,1.94-1.59,2.97-2.32.4-.29.83-.58,1.08-1.01.48-.82-.1-1.91-1.03-2.01Z"/>
        <path class="cls-7" d="M29.77,57.38c-.11.11-.22.23-.27.38-.04.13-.04.27-.03.41.02.61.05,1.22.07,1.82.02.39.03.79.21,1.14.35.67,1.24.93,1.97.75.74-.18,1.34-.71,1.83-1.29.49-.58.92-1.24,1.06-1.99.1-.58,0-1.27-.38-1.74-.3-.37-.79-.42-1.24-.49-1.15-.19-2.4.17-3.23,1Z"/>
        <path class="cls-2" d="M12.68,59.48c-1.05.97-1.49,2.47-1.48,3.9.01,1.71.6,3.38,1.51,4.83.27.43.57.84.91,1.21.36.39.77.72,1.19,1.04.83.63,1.73,1.19,2.71,1.55.98.35,2.06.49,3.08.27.58-.13,1.14-.37,1.66-.67,1.23-.71,2.33-1.88,2.39-3.3.05-1.07-.57-2.15-1.52-2.65-.93-.49-2.09-.45-2.95-1.06-1.01-.71-1.29-2.05-1.66-3.22-.13-.41-.28-.82-.53-1.17-1.21-1.7-3.74-2.16-5.32-.71Z"/>
        <path class="cls-1" d="M25.7,63.64c0,.11.06.2.13.29.3.42.78.67,1.21.96.5.33.97.72,1.38,1.16.14.15.34.33.54.27.13-.04.22-.18.23-.32s-.03-.28-.08-.41c-.31-.78-.88-1.44-1.59-1.88-.3-.19-1.86-1.03-1.81-.07Z"/>
        <path class="cls-1" d="M27.79,73.96c-.18.33-.37.65-.64.9-.35.32-.81.5-1.26.64-1.64.49-3.38.53-5.09.59-.11,0-.23.01-.3.09-.1.11-.04.29.07.39s.27.11.41.13c1.41.16,2.82.22,4.24.16.46-.02.92-.05,1.36-.17.78-.22,1.45-.74,1.94-1.38s.82-1.39,1.04-2.17c.09-.31.16-.66.03-.96-.22-.49-.71-.4-.93-.03-.33.56-.55,1.22-.86,1.79Z"/>
        <path class="cls-1" d="M27.66,42.02c-.27.6-.82,1.02-1.36,1.41-.42.31-.85.62-1.32.85-.46.23-.96.38-1.44.55-1.82.6-3.65,1.4-4.91,2.83-1.4,1.59-1.94,3.91-1.38,5.95.11.42.4.91.83.84.37-.05.54-.48.61-.85.2-.96.24-1.95.45-2.91.21-.96.63-1.92,1.4-2.52.46-.36,1.03-.57,1.58-.77,1.46-.53,2.93-1.07,4.31-1.81.75-.4,1.48-.87,2.04-1.51.94-1.1,1.13-2.68.29-3.91-.19-.28-.62-.84-.88-.38-.14.25-.01.78-.01,1.06,0,.4-.04.79-.2,1.16Z"/>
        <path class="cls-6" d="M35.04,35.58c4.84-3.47,11.78-5.11,16.89-1.36.31.23.67-.2.5-.5-1.58-2.75-5.31-3.02-8.15-2.75-3.61.35-6.9,1.73-9.74,3.96-.37.29.12.92.5.65h0Z"/>
        <path class="cls-6" d="M54.82,34.87c2.39-3.16,7.69-4.37,11.43-4.19,4.64.22,8.02,2.62,11.22,5.76.5.49,1.16-.23.75-.75-2.97-3.76-7.82-6.08-12.6-6.09-3.93-.02-9.27,1.32-11.52,4.85-.3.46.41.84.72.42h0Z"/>
        <path class="cls-6" d="M78.46,35.58c1.5-1.78,4.87-2.34,7.09-2.49,2.82-.19,5.53,1.39,7.39,3.42.27.29.78-.01.66-.39-.87-2.73-5.06-4.23-7.67-4.16s-6.45.79-8.19,2.89c-.41.5.3,1.23.72.72h0Z"/>
        <path class="cls-6" d="M39.82,52.66c2.64-1.27,5.16-2.53,8.09-3.05,1.51-.27,3.09-.46,4.63-.26,1.83.24,3.03,1.16,4.44,2.28.4.32,1.18-.11.8-.61-4.14-5.46-13.81-2.68-18.4.85-.45.35-.08,1.04.46.78h0Z"/>
        <path class="cls-6" d="M58.37,51.46c5.46-4.93,14.78-5.61,20.65-1.18.5.38,1-.4.63-.82-5.1-5.91-16.88-3.2-21.84,1.44-.37.35.18.9.56.56h0Z"/>
        <path class="cls-6" d="M79.55,49.97c2.59-1.71,5.44-2.57,8.55-2.14,2.76.38,4.3,1.96,6.65,3.15.41.21.86-.21.63-.63-1.3-2.36-4.31-3.56-6.86-3.87-3.62-.45-6.47.73-9.34,2.86-.37.27-.03.9.37.63h0Z"/>
        <path class="cls-6" d="M56.57,65.21c3.15,2.2,7.04,2.92,10.82,2.35,3.36-.5,7.78-2.02,10.08-4.64.33-.37-.08-.87-.52-.67-1.41.66-2.64,1.67-4.06,2.36-1.59.77-3.28,1.34-5.03,1.63-3.74.61-7.47-.08-10.78-1.91-.58-.32-1.05.51-.52.88h0Z"/>
        <path class="cls-6" d="M77.47,62.27c4.77,3.37,12.93,2.19,16.43-2.55.23-.32-.23-.76-.54-.54-2.19,1.53-4.15,2.93-6.85,3.44-3.08.58-5.79-.22-8.66-1.24-.56-.2-.8.59-.38.89h0Z"/>
        <path class="cls-6" d="M38.18,68.81c6.31,2.9,13.56,1.64,18.81-2.77.4-.33-.18-.92-.57-.57-4.86,4.27-11.92,5.12-17.8,2.59-.5-.22-.95.51-.44.75h0Z"/>
        <path class="cls-5" d="M18.79,27c14.73-.01,19.96,15.62,20.46,28,.44,10.95-5.51,25.3-17.69,26.83-.71.09-1.06,1.26-.19,1.39,9.41,1.47,15.86-9.42,18.43-16.92,2.14-6.23,1.81-12.82.68-19.22-1-5.62-2.88-11.13-6.72-15.47-3.81-4.31-9.33-6.11-14.98-5.85-.79.04-.8,1.24,0,1.24h0Z"/>
        <path class="cls-5" d="M42.6,25.3c8.34,4.95,13.67,14.42,14.52,24.05.42,4.75.11,9.59-.76,14.28s-2.75,8.88-4.67,13.32c-.32.74.6,1.69,1.23.95,3.1-3.62,4.45-9.18,5.32-13.75.99-5.24,1.24-10.64.63-15.94-.56-4.83-2.05-9.35-4.42-13.6-2.46-4.42-6.25-9.16-11.3-10.63-.79-.23-1.26.9-.56,1.32h0Z"/>
        <path class="cls-5" d="M73.08,26.73c3.98,8.06,6.6,17.74,5.55,26.78-.97,8.37-2.48,15.56-7.76,22.38-.56.72.6,1.09,1.22.46,3.1-3.16,4.29-5.77,5.7-9.91,1.36-3.98,2.35-8.13,2.82-12.32,1.05-9.24-1.57-20.2-6.31-28.1-.47-.78-1.61-.1-1.21.71h0Z"/>
      </g>
      <rect class="cls-3" width="100" height="100"/>
    </g>
  </g>
</svg>