<?xml version="1.0" encoding="UTF-8"?>
<svg id="Capa_2" data-name="Capa 2" xmlns="http://www.w3.org/2000/svg" viewBox="0 0 100 100">
  <defs>
    <style>
      .cls-1 {
        fill: none;
      }

      .cls-2 {
        fill: #4a2d2d;
      }

      .cls-3 {
        fill: #db5056;
      }

      .cls-4 {
        fill: #f2a480;
      }

      .cls-5 {
        fill: #f0d0b2;
      }
    </style>
  </defs>
  <g id="COLOR">
    <g>
      <g>
        <path class="cls-5" d="M34.08,21.36s8.49-11.18,21.87-9.29c13.38,1.9,17.67,13.28,18.37,20.87.7,7.59-3.49,19.67-3.39,27.06.1,7.39,2.9,16.18,5.59,19.87,2.7,3.69,5.19,5.49,4.89,6.29-.3.8-4.2,3.65-11.89,4.65-7.69,1-11.17-.26-11.27-.66-.1-.4,1.3-15.98-1.7-26.66s-8.09-18.57-14.68-22.87c-6.59-4.29-8.79-3.99-8.79-3.99,0,0-4.19-10.98,1-15.28Z"/>
        <path class="cls-4" d="M33.41,35.81c-.19-.78-.38-1.57-.55-2.36-.17-.78-.31-1.56-.33-2.37-.02-.7-.07-1.62.29-2.24.12-.2.39-.24.57-.12,0-.45,0-.9.01-1.35.08-2.26.41-4.55,1.31-6.62-2.05.84-10.34,4.47-15.3,10.3-5.69,6.69-6.09,10.18-5.29,10.08s4.49-3.1,10.58-3.79c3.92-.45,7.25-.24,9.14-.03-.18-.48-.3-.99-.42-1.49Z"/>
        <path class="cls-3" d="M34.76,20.58s-.79-1.92-4.08-.92c-3.3,1-5.89,12.98-4.39,20.47,1.5,7.49,5.69,13.68,5.19,19.87-.25,3.13-7.79,15.88-7.49,21.67.3,5.79,3.97,11.74,13.15,8.04,9.19-3.69,9.41-20.72,7.32-27.91-2.1-7.19-8.59-14.88-9.89-22.87-1.3-7.99.19-18.35.19-18.35Z"/>
        <path class="cls-2" d="M44.46,28.05c.06.85.39,1.71,1.04,2.49,2.04,2.45,6.06,2.13,7.71-.61.81-1.34.91-3.05.33-4.49-1.92-4.77-9.98-2.53-9.08,2.61Z"/>
        <path class="cls-2" d="M57.55,68.29c3.6,2.97,12.03.51,14.11-3.51.29-.56-.3-1.21-.88-.88-1.88,1.08-3.25,2.56-5.39,3.29s-4.9,1.08-7.03.06c-.63-.3-1.42.53-.8,1.04h0Z"/>
        <path class="cls-2" d="M58.05,78.57c3.03,1.52,6.72,1.87,9.91.6,2.34-.93,5.69-2.9,6.49-5.45.21-.65-.59-.95-1.04-.6-.97.75-1.64,1.83-2.61,2.61-1.08.87-2.24,1.45-3.56,1.84-2.91.86-5.76.63-8.59-.42-.82-.3-1.38,1.03-.6,1.42h0Z"/>
        <path class="cls-2" d="M34.12,20.5c-1.56,6.58-1.48,13.4,0,19.99.74,3.27,1.82,6.43,3.32,9.43,1.5,3.01,3.35,5.85,4.62,8.97,2.25,5.53,3.29,12.07,2.24,17.99-.53,2.97-1.68,5.95-3.63,8.29-.97,1.16-2.12,2.18-3.42,2.94-1.33.78-2.68,1.63-4.08,2.19-.73.29-.91.57-.13.66,4.09.46,8.52-3.42,10.45-6.64,2.4-4.01,3.25-8.94,3.11-13.56s-1.37-9.32-3.33-13.53c-2.45-5.28-5.69-9.88-7.23-15.58-1.84-6.79-2.06-13.92-.61-20.8.18-.86-1.11-1.22-1.32-.36h0Z"/>
      </g>
      <rect class="cls-1" width="100" height="100"/>
    </g>
  </g>
</svg>