<?xml version="1.0" encoding="UTF-8"?>
<svg id="Capa_2" data-name="Capa 2" xmlns="http://www.w3.org/2000/svg" viewBox="0 0 100 100">
  <defs>
    <style>
      .cls-1 {
        fill: none;
      }

      .cls-2 {
        fill: #8c5447;
      }

      .cls-3 {
        fill: #4a2d2d;
      }

      .cls-4 {
        fill: #c97054;
      }
    </style>
  </defs>
  <g id="COLOR">
    <g>
      <g>
        <path class="cls-2" d="M50.25,36.72s4.42-4.61,6.13-13.51c1.71-8.9-.53-17.6-2.77-19.11s-4.15,1.58-3.89,4.81c.26,3.23,1.52,7.51.86,8.9-.66,1.38-2.83.2-4.22-1.58-1.38-1.78-2.9-2.37-4.35-.53-1.45,1.85.79,4.61,2.9,6.26s3.23,3.1,3.36,5.21c.13,2.11-1.12,4.09-2.44,5.73-1.32,1.65-2.97,3.16-2.97,3.16,0,0,6.46-.13,7.38.66Z"/>
        <path class="cls-3" d="M51.37,36.6c3.2-4.94,5.34-10.41,6.19-16.24.4-2.72.48-5.53.18-8.26-.26-2.33-1.07-4.81-2.68-6.62-.44-.49-.76-.22-.51.43.96,2.41,1.54,4.5,1.68,7.15.14,2.67,0,5.35-.36,8-.72,5.31-2.62,10.45-5.44,15-.37.59.56,1.13.93.54h0Z"/>
        <path class="cls-4" d="M85.7,94.39s-8.08,2.46-23.9,2.46-21.62-1.23-21.62-1.23l3.08-23.81s-1.76,2.99-8.35,5.01c-7.12,2.18-13.27,2.19-20.39-1.76-4.36-2.42-6.66-4.94-7.38-7.3-.59-1.91-.15-3.71,1.05-5.26,1.4-1.82,3.57-2.47,6.68-4.32,2.14-1.27,4.73-3.12,7.82-6.32,5.66-5.86,7.47-13.36,16.96-16,9.49-2.63,14.55-.23,19.33,4.92,6.86,7.38,26.72,53.6,26.72,53.6Z"/>
        <path class="cls-4" d="M59.52,50.89s5.27-7.03,12.65-6.24c7.38.79,10.11,6.77,10.11,6.77,0,0-5.1,6.77-11.78,7.12s-9.67-6.15-9.67-6.15l-1.32-1.49Z"/>
        <path class="cls-2" d="M75.6,1.94c-.91.46-1.37,1.87-1.24,4.94.14,3.3.6,6.54-.54,11.35-.95,4.03-2.62,3.3-3.33,2.16-.7-1.14-1.67-6.85-4.13-7.73-2.46-.88-3.16,1.49-2.81,4.04.35,2.55,3.08,7.21,2.64,10.81-.44,3.6-2.37,6.33-4.83,7.82-2.46,1.49-7.65,2.28-7.65,2.28,0,0-2.37,1.58-1.41,5.1.97,3.52,5.36,4.31,8.7,3.16,3.34-1.14,12.39-6.42,16.26-14.68,3.87-8.26,5.27-15.73,4.57-21.62-.7-5.89-2.9-9.32-6.24-7.65Z"/>
        <path class="cls-3" d="M7.14,67.76c-.59-1.91-.15-3.71,1.05-5.26,1.4-1.82,3.57-2.47,6.68-4.32,2.22,7.11-2.75,11.35-7.74,9.58Z"/>
        <path class="cls-3" d="M34.18,52.56c-.13.16-.25.35-.34.56-.67,1.52-.86,3.97.86,4.91,1.54.85,3.49-.33,4.33-1.67,1.22-1.96.52-4.93-2.02-5.28-1.16-.16-2.16.51-2.83,1.48Z"/>
        <path class="cls-3" d="M62.58,52.74c4.97-3.05,10.09-4.04,15.09-.62.92.63,2.06-.82,1.2-1.56-5.08-4.4-12.26-2.74-16.9,1.39-.43.38.13,1.08.61.79h0Z"/>
        <path class="cls-3" d="M64.17,56.81c6.12,4.21,14,1.33,18.35-4.21.63-.8-.32-1.78-1.13-1.13-5.05,4.13-9.91,8.03-16.51,4.11-.8-.47-1.47.72-.72,1.23h0Z"/>
        <path class="cls-3" d="M36.37,76.33c2.96-1.02,6.01-2.21,8.11-4.55,1.7-1.9,4.39-5.04,4.25-7.73-.04-.73-.87-1.1-1.17-.48-.8,1.62-1.05,2.31-1.97,3.67-3.01,4.44-4.75,6.02-8.3,8.35-.54.35-1.53.96-.92.75h0Z"/>
        <path class="cls-3" d="M51.7,40.31c-.62,5.51,5.68,7.69,10.08,6.3,5.22-1.65,9.83-6.44,13.11-10.64,3.48-4.46,6.02-9.7,7.19-15.24,1.08-5.16,1.25-11.65-1.38-16.46-.35-.64-.65-.32-.46.37,1.33,4.83,1.47,9.37.55,14.36-.86,4.65-2.47,9.1-5,13.1-2.52,3.99-5.82,7.51-9.57,10.37-2.09,1.59-4.5,3.05-7.19,3.18-3.28.16-6.3-1.82-6.3-5.34,0-.67-.95-.64-1.02,0h0Z"/>
      </g>
      <rect class="cls-1" width="100" height="100"/>
    </g>
  </g>
</svg>