<?xml version="1.0" encoding="UTF-8"?>
<svg id="Capa_2" data-name="Capa 2" xmlns="http://www.w3.org/2000/svg" viewBox="0 0 100 100">
  <defs>
    <style>
      .cls-1 {
        fill: #fff;
      }

      .cls-2 {
        fill: #d2c4a0;
      }

      .cls-3 {
        fill: none;
      }

      .cls-4 {
        fill: #4a2d2d;
      }
    </style>
  </defs>
  <g id="COLOR">
    <g>
      <g>
        <g>
          <path class="cls-2" d="M34.95,30.56c-.2-2.72-.81-5.44-2.13-7.84-2.04-3.73-7.91-9.22-11.61-4.21-4.98,6.73.06,17.09,6.92,20.36,1.95.93,4.03.85,5.49-.89,1.62-1.92,1.49-5.06,1.32-7.41Z"/>
          <path class="cls-4" d="M23.44,18.13c.82,3.46,2.15,6.84,3.45,10.14,1.19,3.02,2.31,6.44,4.14,9.13.25.36.88.15.74-.31-.97-3.24-2.74-6.34-3.99-9.48-1.27-3.2-2.29-6.49-3.56-9.68-.19-.48-.91-.31-.79.22h0Z"/>
          <path class="cls-4" d="M29.41,38.48h.51s.09,0,.14-.02c.04-.01.07-.03.11-.05.07-.03.12-.07.17-.14,0-.01.02-.03.03-.05.04-.06.04-.15,0-.22,0-.02-.02-.03-.03-.05-.05-.07-.1-.11-.17-.14-.04-.02-.07-.03-.11-.05-.04-.02-.09-.02-.14-.02h-.51c-.09,0-.18.04-.25.1s-.11.16-.1.25.03.18.1.25.15.1.25.1h0Z"/>
          <path class="cls-4" d="M32.78,35.27h.21s.07.02.1.02c.07,0,.13-.01.2-.02l.2-.03c.18-.02.35-.21.35-.39s-.17-.36-.35-.39c-.07-.01-.14-.02-.2-.03-.06,0-.13-.02-.19-.02-.04,0-.07,0-.11,0h-.21c-.11.02-.21.05-.29.13-.07.07-.13.19-.12.29s.04.22.12.29.18.11.29.12h0Z"/>
          <path class="cls-1" d="M20.93,22.84l.12.23c.3.56,1.19.56,1.49,0l.12-.23c.17-.32.19-.69,0-1.01s-.51-.5-.86-.5-.69.19-.86.5-.17.69,0,1.01h0Z"/>
          <path class="cls-1" d="M20.92,26.3l.05.04c.07.07.15.13.25.16.09.05.19.07.29.07l.2-.03c.13-.04.24-.1.34-.2l.05-.04.13-.17.08-.2c.03-.11.04-.22.01-.33,0-.08-.02-.15-.06-.21-.02-.07-.06-.13-.11-.19-.04-.06-.09-.11-.15-.15-.05-.05-.11-.09-.19-.11-.1-.05-.21-.08-.32-.07l-.22.03-.2.08-.17.13-.13.17-.08.2c-.03.11-.04.22-.01.33,0,.08.02.15.06.21.03.1.09.19.17.27h0Z"/>
        </g>
        <g>
          <path class="cls-2" d="M62.13,14.45c-1-.69-2.12-1.26-3.05-1.76-3.96-2.12-8.7-3.17-13.17-2.61-2.19.27-5.03,1.25-5.88,3.54-.95,2.56,1.59,5.05,3.4,6.45,2.3,1.78,5.18,2.78,8.01,3.36,2.83.58,6.21,1.17,9.02.29,2.06-.65,4-2.21,4.35-4.45.34-2.15-1-3.66-2.67-4.81Z"/>
          <path class="cls-4" d="M59.66,21.54l.56.17c.09.03.19.04.29.06.08.01.15.02.22.02.09,0,.14-.02.22-.06.02-.01.04-.02.06-.03.18-.1.24-.4.07-.54-.08-.06-.15-.13-.25-.16-.07-.02-.15-.03-.22-.04-.1,0-.2-.01-.29,0l-.59.04c-.14.01-.26.1-.28.25s.07.27.2.31h0Z"/>
          <path class="cls-4" d="M61.95,19.95h.59c.13,0,.25,0,.37-.03l.29-.05c.14-.02.25-.19.25-.32,0-.06-.02-.12-.05-.17-.03-.07-.13-.14-.2-.15l-.29-.05c-.12-.02-.24-.02-.37-.02h-.59c-.21,0-.41.18-.4.4s.18.4.4.4h0Z"/>
          <path class="cls-1" d="M43.79,14.01c.09-.13.14-.21.2-.38.02-.05.03-.11.05-.16.1-.31-.01-.68-.24-.91s-.6-.34-.91-.24c-.05.02-.11.03-.16.05-.1.04-.21.07-.3.14l-.08.06c-.16.09-.28.22-.38.38-.1.16-.14.34-.14.53.01.28.11.54.31.74.1.1.21.17.34.22.13.07.26.1.4.09.19,0,.37-.05.53-.14.16-.09.28-.22.38-.38h0Z"/>
          <path class="cls-1" d="M48.18,13.48c1.36,0,1.37-2.12,0-2.12s-1.37,2.12,0,2.12h0Z"/>
        </g>
        <g>
          <path class="cls-2" d="M56.76,28.74c-3.14-4.84-10.53.07-13.39,2.71-2.72,2.52-7.65,9.02-4.69,12.88,1.31,1.71,3.55,1.4,5.3.63,3.47-1.54,6.59-3.84,9.21-6.58,2.26-2.36,5.81-6.2,3.58-9.64Z"/>
          <path class="cls-4" d="M51.18,38.05c.08.01.16.03.23.04.11.02.21.05.32.05.08,0,.16,0,.25,0,.1-.01.19-.02.27-.07.03-.02.06-.04.1-.06.21-.13.21-.43,0-.56-.03-.02-.06-.04-.1-.06-.09-.05-.18-.05-.27-.07-.08-.01-.16,0-.25,0-.19.01-.37.06-.56.1-.07.01-.13.06-.17.11-.04.05-.07.12-.07.19,0,.06.02.11.04.16.03.06.12.13.19.15h0Z"/>
          <path class="cls-4" d="M52.6,36.23c.24.04.49.07.73.05.13,0,.27-.04.4-.07.16-.05.33-.15.4-.31.03-.06.05-.12.04-.19,0-.06-.03-.13-.08-.17-.03-.02-.07-.06-.1-.08s-.08-.03-.12-.05c-.07-.03-.15-.04-.23-.03-.1,0-.2,0-.31,0-.21.02-.41.02-.62,0-.1,0-.24.05-.31.13s-.11.15-.12.25,0,.19.05.28c.06.09.15.18.26.2h0Z"/>
          <path class="cls-1" d="M40.01,38.61c-.39.43-.51,1.07-.18,1.58l-.11-.26c.04.14.08.3.15.42.07.11.15.2.24.29.23.26.7.31,1,.13.1-.07.23-.14.31-.22.1-.11.18-.24.26-.36l-.17.22c.17-.15.31-.39.36-.61.08-.34.02-.65-.13-.96-.31-.62-1.27-.72-1.73-.22h0Z"/>
          <path class="cls-1" d="M40.83,44.36c.2.08.42.07.63.01.09-.03.19-.06.27-.11l.17-.13c.08-.08.14-.17.18-.27.05-.12.08-.17.07-.33,0-.05-.02-.18-.03-.23-.03-.11-.08-.21-.15-.29-.04-.06-.09-.11-.15-.15-.11-.08-.21-.14-.35-.18-.21-.06-.44-.08-.64,0l-.21.09c-.1.05-.18.13-.24.22-.05.05-.09.12-.11.19-.05.1-.08.21-.07.33,0,.15.05.3.12.44.05.1.13.18.22.24.08.08.18.13.29.15h0Z"/>
        </g>
        <g>
          <path class="cls-2" d="M78.24,24.07c-3.08-3.12-7.46-.48-10.12,1.8-4,3.43-6.65,8.45-6.68,13.77-.02,2.87,1.03,6.2,4.55,4.77,2.9-1.18,5.88-3.7,8.15-5.83,2.2-2.06,4.07-4.64,4.9-7.57.62-2.21.97-5.15-.79-6.94Z"/>
          <path class="cls-4" d="M76.23,24.35c-4.74,5.77-8.96,11.86-12.61,18.38-.26.47.45.88.72.42,3.73-6.34,7.89-12.46,12.48-18.2.33-.42-.25-1.01-.59-.59h0Z"/>
          <path class="cls-4" d="M76.88,31.96c.11,0,.23,0,.34-.02.04,0,.08-.02.12-.03.06-.02.11-.05.17-.09.08-.06.14-.14.14-.25s-.06-.19-.14-.25c-.05-.04-.1-.07-.17-.09-.04-.01-.08-.02-.12-.03-.11-.02-.23-.02-.34-.02-.1,0-.2.04-.27.11-.04.03-.06.07-.08.12-.02.04-.03.09-.03.14,0,.1.04.2.11.27s.16.11.27.11h0Z"/>
          <path class="cls-1" d="M66.47,31.67c.11-.11.22-.21.33-.32.23-.23.43-.65.41-.99-.02-.53-.42-.93-.95-.95-.34-.02-.76.18-.99.41-.11.11-.21.22-.32.33-.19.2-.32.48-.32.76,0,.26.12.58.32.76s.47.33.76.32.55-.11.76-.32h0Z"/>
          <path class="cls-1" d="M68.69,28.83c.92,0,.92-1.43,0-1.43s-.92,1.43,0,1.43h0Z"/>
        </g>
        <g>
          <path class="cls-2" d="M93.73,48.48c-.54-1.05-1.62-1.75-2.64-2.32-.88-.49-1.83-.85-2.79-1.15-1.62-.51-3.31-.88-5-1.1-3.16-.42-6.53-.61-9.59.48-2.18.78-4.74,2.41-4.92,4.98-.39,5.52,9.22,6.79,12.96,6.86,2.97.06,6.46-.25,9.08-1.77,1.69-.98,3.56-3,3.18-5.11-.06-.31-.15-.59-.29-.85Z"/>
          <path class="cls-4" d="M90.17,53.09c.18,0,.37,0,.55,0,.04,0,.09,0,.13-.01.06,0,.13,0,.19-.02.07-.02.15-.05.2-.1.04-.05.08-.12.08-.19s-.04-.14-.08-.19c-.05-.06-.13-.09-.2-.1-.06-.02-.13-.02-.19-.02-.04,0-.09-.01-.13-.01-.18,0-.37,0-.55,0-.17,0-.33.15-.32.32s.14.32.32.32h0Z"/>
          <path class="cls-4" d="M91.72,51.24l.14-.04c.05-.01.1-.03.14-.06l.06-.03c.09-.06.15-.16.15-.27s-.06-.21-.15-.27l-.06-.03s-.09-.05-.14-.06l-.14-.04c-.07-.02-.15-.02-.22,0-.07.02-.13.05-.18.11l-.06.08c-.04.06-.06.13-.06.21,0,.06,0,.11.04.16.02.05.04.1.09.13.1.1.26.14.4.11h0Z"/>
          <path class="cls-1" d="M72.78,49.28c.1-.07.21-.14.29-.22s.15-.18.22-.28c.08-.12.15-.26.18-.4,0-.03,0-.06.01-.09l.04-.29c0-.06-.01-.11-.02-.17-.02-.17-.03-.24-.13-.41-.05-.09.02-.05-.16-.22-.32-.29-.74-.37-1.15-.25-.37.11-.69.36-.88.7l-.12.28c-.05.16-.06.31-.02.47,0,.11.03.21.08.3.05.15.13.27.24.38.15.14.33.24.52.3.16.05.31.06.47.02.16,0,.3-.05.44-.14h0Z"/>
          <path class="cls-1" d="M75.05,46.89c.74,0,.74-1.15,0-1.15s-.74,1.15,0,1.15h0Z"/>
        </g>
        <g>
          <path class="cls-2" d="M85.66,69.05c-1.66-2.43-4.11-4.63-6.42-6.41-2.57-1.98-6.35-3.87-9.68-3.1-3.14.73-3.47,4.53-2.32,7.02,2.25,4.9,7.55,10.48,13.07,11.47,5.62,1.01,8.36-4.59,5.36-8.99Z"/>
          <path class="cls-4" d="M83.65,75.65s.09-.02.14-.03l-.12.02c.12-.02.24-.01.36,0l-.12-.02c.08.01.16.02.24.03l-.11-.02c.05,0,.1.02.15.02.04,0,.09-.01.13-.02.03,0,.05-.01.08-.01.1-.02.19-.11.23-.2s.05-.22-.02-.31c-.04-.05-.07-.1-.11-.14-.07-.08-.16-.11-.25-.15-.07-.03-.13-.04-.2-.05-.1-.02-.21-.03-.31-.03-.11,0-.22.02-.33.03-.06.01-.11.04-.16.08-.05.03-.09.07-.12.13-.06.1-.08.24-.05.35s.1.22.21.27c.11.06.23.08.35.05h0Z"/>
          <path class="cls-4" d="M84.22,73.42c.05-.02.11-.03.16-.04l-.11.02c.07,0,.15-.02.22-.02.03,0,.07,0,.1,0,.06,0,.13-.01.19-.02h-.09s.08,0,.12,0c.01,0,.02-.01.04-.01.06-.02.13-.06.16-.12s.05-.14.03-.21c0,0,0-.02,0-.03,0,0,0,0,0-.01-.02-.05-.04-.1-.08-.14-.02-.02-.04-.04-.06-.06-.08-.08-.2-.12-.31-.16-.15-.05-.31-.06-.47-.04-.08,0-.15.02-.22.06l-.09.07c-.05.05-.09.12-.11.19-.02.06-.02.12,0,.17,0,.06.02.11.05.16.03.05.06.09.11.12.04.04.09.06.15.08.08.02.15.02.23,0h0Z"/>
          <path class="cls-1" d="M68.27,60.91c-.15.17-.3.35-.36.59s-.1.49,0,.72c.05.18.14.33.27.46.13.13.29.22.46.27.19.05.37.05.56,0,.18-.05.33-.14.46-.27.18-.14.27-.39.34-.6.01-.06.02-.12.03-.17.03-.14.03-.29-.02-.43,0-.03-.01-.07-.02-.1-.07-.34-.39-.63-.72-.72s-.76,0-1,.26h0Z"/>
          <path class="cls-1" d="M68.98,66.7c1.08,0,1.08-1.68,0-1.68s-1.08,1.68,0,1.68h0Z"/>
        </g>
        <g>
          <path class="cls-2" d="M52.27,51.78c-1.95-1.02-5.33-2.82-7.61-2.01-3.33,1.19-1.92,5.95-1.21,8.38,1.12,3.85,2.63,7.74,5.71,10.46.42.37.86.72,1.32,1.03,4.26,2.87,11.9,1.68,11.88-4.6-.02-5.51-5.58-10.9-10.08-13.27Z"/>
          <path class="cls-4" d="M44.05,52.47c2.36,2.76,4.86,5.4,7.29,8.1s4.58,5.8,7.34,8.03c.35.28.91-.07.65-.5-1.77-2.96-4.57-5.5-6.9-8.03-2.54-2.77-5.1-5.56-7.84-8.14-.37-.34-.87.17-.55.55h0Z"/>
          <path class="cls-4" d="M54.9,68.92l.19-.03h.09s.09-.05.13-.07c.12-.07.12-.25,0-.32-.04-.02-.08-.05-.13-.06h-.09c-.06-.02-.13-.03-.19-.04-.05-.01-.1-.01-.14,0-.05.01-.09.04-.12.07-.05.05-.08.12-.08.19,0,.07.03.14.08.19.03.03.07.06.12.07.05.01.1.01.14,0h0Z"/>
          <path class="cls-4" d="M60.7,66c.08,0,.15.02.23.02.07,0,.15,0,.22-.02.02,0,.03-.01.05-.02.05-.02.1-.04.14-.06.12-.07.2-.21.2-.35s-.08-.28-.2-.35c-.04-.02-.09-.04-.14-.06-.02,0-.03-.02-.05-.02-.07-.02-.15-.02-.23-.02-.08,0-.16.01-.23.02-.06,0-.11.01-.16.04-.05.02-.1.05-.14.09-.04.04-.07.08-.09.14-.03.05-.04.11-.04.16,0,.11.04.22.12.3l.09.07c.07.04.14.06.22.06h0Z"/>
          <path class="cls-1" d="M47.51,52.8s.1,0,.15,0l-.29-.04c.19.03.37.09.57.08.37-.02.71-.18.9-.52.17-.3.21-.76,0-1.05-.14-.19-.22-.31-.42-.44-.11-.07-.24-.12-.36-.15-.18-.04-.36-.07-.54-.06-.28,0-.56.11-.77.32-.19.19-.33.5-.32.77s.1.57.32.77.48.33.77.32h0Z"/>
          <path class="cls-1" d="M50.59,54.56c1.07,0,1.07-1.66,0-1.66s-1.07,1.66,0,1.66h0Z"/>
        </g>
        <g>
          <path class="cls-2" d="M34.96,51.92c-.3-.71-.82-1.38-1.51-1.99-.86-.77-1.86-1.46-2.86-2.02-2.92-1.64-6.21-2.84-9.51-3.41-4.36-.76-11.35.44-11.23,6.22.11,5.71,7.83,7.59,12.27,8,2.94.27,6.12.12,8.91-.92,1.32-.49,2.62-1.24,3.45-2.42.85-1.22.93-2.38.48-3.46Z"/>
          <path class="cls-4" d="M11.23,50.06c3.83.64,7.69.94,11.51,1.69,1.84.36,3.67.79,5.48,1.27,1.71.45,3.41,1.17,5.18,1.28.41.03.53-.55.2-.74-3.04-1.81-7.53-2.23-10.99-2.86-3.69-.67-7.54-1.31-11.3-1.22-.32,0-.43.53-.08.59h0Z"/>
          <path class="cls-4" d="M29.69,56.7l.45-.04c.18-.02.36-.07.53-.14.14-.07.14-.31,0-.38-.16-.08-.35-.13-.53-.14l-.45-.04c-.09,0-.2.05-.26.11s-.11.17-.11.26.04.2.11.26c.07.06.17.12.26.11h0Z"/>
          <path class="cls-4" d="M33.29,52.02l.07-.04s.05-.04.07-.07c.02-.03.03-.07.03-.1,0-.04,0-.07-.03-.1-.02-.03-.04-.05-.07-.07l-.07-.04s-.08-.03-.13-.03c-.05,0-.09.01-.13.03-.08.05-.13.13-.13.22s.05.17.13.22c.04.02.08.03.13.03.05,0,.09-.01.13-.03h0Z"/>
          <path class="cls-1" d="M14.35,48.34l.26-.18c.12-.08.23-.17.32-.28.03-.04.07-.08.1-.13.05-.07.07-.16.1-.24.09-.23,0-.53-.15-.71-.06-.09-.13-.16-.23-.21-.13-.07-.27-.11-.41-.11-.22-.03-.45.07-.64.17l-.27.13c-.2.1-.36.34-.42.54-.06.22-.03.51.09.7s.31.36.54.42.5.04.7-.09h0Z"/>
          <path class="cls-1" d="M16.6,46.88c.72,0,.72-1.12,0-1.12s-.72,1.12,0,1.12h0Z"/>
        </g>
        <g>
          <path class="cls-2" d="M37.5,66.16c-1.45-4.84-6.76-4.07-10.69-3.41-2.71.46-5.49,1.3-7.85,2.73-2.06,1.25-4.73,3.15-4.98,5.75-.52,5.42,8.64,4.56,11.8,3.99,2.47-.44,4.96-1.35,7.21-2.45,1.4-.68,2.89-1.46,3.91-2.68.91-1.09,1.02-2.58.61-3.95Z"/>
          <path class="cls-4" d="M33.64,70.8c.22-.02.45-.02.67,0h-.11c.1,0,.2.02.3.01.03,0,.06,0,.1,0,.04,0,.09,0,.13-.02.06-.02.11-.05.16-.1.08-.07.12-.22.09-.32-.03-.1-.08-.16-.16-.22-.02-.01-.03-.02-.05-.03-.06-.04-.12-.07-.19-.09-.12-.04-.25-.05-.37-.07-.19-.02-.38-.02-.56,0-.11.01-.21.04-.29.12-.07.07-.13.19-.12.29s.04.22.12.29c.08.07.18.13.29.12h0Z"/>
          <path class="cls-4" d="M34.99,69.26h.12c.07,0,.15,0,.22-.02.03,0,.07-.03.1-.04.06-.02.12-.04.18-.07.1-.05.16-.17.16-.28s-.06-.23-.16-.28c-.06-.03-.12-.05-.17-.07-.04-.01-.07-.03-.11-.04-.07-.02-.14-.02-.21-.02h-.12c-.06,0-.11,0-.16.03-.05.02-.09.04-.13.08-.04.04-.07.08-.08.13-.03.05-.04.1-.03.16,0,.11.04.21.12.29s.18.12.29.12h0Z"/>
          <path class="cls-1" d="M16.99,72.15l.12-.19c.08-.13.14-.26.19-.4l.03-.26-.03-.26-.1-.23c-.06-.11-.14-.2-.25-.27-.06-.06-.13-.1-.21-.12-.08-.04-.16-.07-.24-.07-.09-.02-.17-.02-.26,0-.13,0-.25.04-.36.11-.13.08-.24.17-.33.29l-.15.17c-.13.13-.21.27-.26.45l-.04.27c0,.18.05.35.14.51.06.12.15.21.26.28.1.09.21.15.34.18.13.04.27.05.4.02.13,0,.26-.05.38-.12.15-.09.27-.21.36-.36h0Z"/>
          <path class="cls-1" d="M17.66,70.01c.24-.03.45-.06.65-.19.07-.05.16-.11.22-.17.12-.11.2-.28.25-.43s.04-.4,0-.55l-.09-.21c-.06-.1-.13-.19-.23-.25-.06-.06-.12-.09-.2-.11-.11-.06-.22-.08-.34-.08-.11,0-.2,0-.31.03-.13.04-.2.09-.31.14l.23-.1s-.06.02-.1.03l.26-.03s-.02,0-.03,0c-.25,0-.5.1-.68.28-.09.09-.16.19-.2.31-.06.12-.09.24-.08.37.01.25.09.51.28.68l.2.15c.15.09.31.13.49.13h0Z"/>
        </g>
        <g>
          <path class="cls-2" d="M43.23,71.17c-2.56.26-4.97,3.06-6.69,4.73-2.3,2.22-4.94,4.71-6.41,7.59-2.23,4.37.06,9.85,5.55,8.9,2.78-.48,4.79-2.59,6.43-4.74,2.4-3.14,4.5-6.66,5.16-10.66.5-3.06-.32-6.19-4.04-5.82Z"/>
          <path class="cls-4" d="M42.88,83.13l.12-.04c.06-.02.12-.04.18-.07l.21-.12c.08-.05.13-.15.1-.24-.01-.04-.03-.07-.05-.09-.02-.02-.04-.04-.07-.04-.03-.01-.05-.02-.08-.02l-.24-.03s-.08,0-.12,0h-.12c-.06.01-.11.03-.16.05l-.07.05s-.07.09-.08.14c-.01.04-.02.09,0,.13,0,.04.01.08.04.12.02.04.05.07.08.09.03.03.07.05.11.06.06.02.12.02.17,0h0Z"/>
          <path class="cls-4" d="M43.27,81.09h.17c.06,0,.11,0,.17,0s.12-.02.17-.02c.01,0,.03,0,.04,0,.07-.01.13-.06.18-.1.03-.03.06-.05.1-.08.05-.04.08-.13.08-.19,0-.07-.03-.15-.08-.19-.03-.03-.06-.05-.09-.08-.06-.05-.11-.09-.19-.1-.01,0-.03,0-.04,0-.06,0-.12-.02-.17-.02-.05,0-.11,0-.16,0h-.18c-.1,0-.21.05-.28.12-.07.07-.12.18-.12.28s.04.21.12.28.17.12.28.12h0Z"/>
          <path class="cls-1" d="M32.3,87.6c.03-.1.06-.19.09-.29.1-.31.07-.63-.09-.91-.11-.18-.27-.31-.46-.39s-.43-.12-.62-.05-.34.14-.49.29c-.16.17-.2.29-.28.51-.04.1-.08.2-.12.3-.09.23-.02.59.1.79s.37.42.61.47c.56.13,1.09-.17,1.26-.72h0Z"/>
          <path class="cls-1" d="M33.26,91.51c1.16,0,1.16-1.8,0-1.8s-1.16,1.8,0,1.8h0Z"/>
        </g>
        <g>
          <path class="cls-2" d="M63.6,76.25c-2.52.24-5.03,1.01-7.27,2.01-2.43,1.07-4.74,2.63-6.35,4.78-1.18,1.57-1.45,3.88.38,5.1,2.22,1.49,5.89,1.65,8.48,1.64,4.78-.02,12.79-1.26,14.38-6.74.84-2.9-.7-5.09-3.41-6.09-1.98-.73-4.09-.9-6.2-.7Z"/>
          <path class="cls-4" d="M50.37,84.73c3.82-.65,7.6-1.42,11.44-1.92,3.37-.44,6.79-.58,10.15-1.09.61-.09.44-1.04-.14-1.05-3.5-.04-7.12.55-10.57,1.09-3.71.58-7.46,1.22-11.08,2.25-.47.13-.27.8.2.72h0Z"/>
          <path class="cls-4" d="M68.98,85.73c.17-.02.35-.04.52-.07.09-.02.18-.04.27-.08.06-.03.13-.06.19-.09.08-.04.11-.14.1-.22s-.07-.16-.16-.18c-.07-.02-.13-.03-.2-.05-.09-.02-.19-.02-.28-.02-.15,0-.29.02-.44.04-.09,0-.17.03-.24.1-.06.06-.1.15-.1.24s.03.18.1.24c.06.06.15.11.24.1h0Z"/>
          <path class="cls-4" d="M70.52,84.7h.36c.08,0,.16-.02.24-.04.03,0,.06-.01.09-.02.07-.02.12-.06.16-.11.09-.11.09-.25,0-.35-.04-.05-.1-.09-.16-.11-.03,0-.06-.02-.09-.02-.08-.02-.16-.04-.24-.04h-.36c-.09,0-.18.04-.25.1s-.11.16-.1.25.03.18.1.25.15.1.25.1h0Z"/>
          <path class="cls-1" d="M52.12,88.26l.11-.04.24-.1c.12-.06.21-.15.28-.26.06-.06.11-.14.13-.22.06-.12.09-.25.09-.39l-.04-.27-.1-.24c-.06-.12-.15-.21-.26-.28-.1-.09-.21-.15-.34-.18l-.11-.04c-.19-.05-.37-.05-.56,0-.18.05-.33.14-.46.27l-.16.21c-.1.16-.14.34-.14.53,0,.14.02.28.09.4.04.13.11.24.22.34.13.13.29.22.46.27.19.05.37.05.56,0h0Z"/>
          <path class="cls-1" d="M69.24,79.41h0c-.09.03-.17.07-.26.1.01,0,.02,0,.04,0l-.28.04s.03,0,.04,0l-.28-.04s.03,0,.04.01l-.25-.1s.03.01.04.02l-.21-.16c.06.05.14.12.21.16.15.09.23.1.38.12.11.02.09.01.15.02l-.26-.03s0,0,.01,0l-.22-.09c.15.07.29.13.47.13.03,0,.22-.03.25-.03.02,0,.21-.09.23-.1,0,0,0,0,0,0,.07-.04.14-.09.2-.16.03-.03.14-.17.16-.21.07-.12.11-.24.12-.37.01-.05.02-.09.02-.14l-.04-.27s0,0,0-.01c-.05-.19-.17-.39-.31-.53-.03-.04-.09-.07-.12-.1s-.08-.07-.12-.09c-.09-.06-.2-.1-.3-.13-.19-.05-.38-.05-.57,0-.18.05-.34.14-.48.28-.13.13-.23.29-.28.48-.04.14-.05.29-.02.43,0,.14.05.28.13.4.1.16.22.29.39.39.17.1.35.15.54.15.19,0,.38-.05.54-.15h0Z"/>
        </g>
      </g>
      <rect class="cls-3" width="100" height="100"/>
    </g>
  </g>
</svg>