<?xml version="1.0" encoding="UTF-8"?>
<svg id="Capa_2" data-name="Capa 2" xmlns="http://www.w3.org/2000/svg" viewBox="0 0 100 100">
  <defs>
    <style>
      .cls-1 {
        fill: #fff;
      }

      .cls-2 {
        fill: none;
      }

      .cls-3 {
        fill: #4a2d2d;
      }

      .cls-4 {
        fill: #ccbd94;
      }
    </style>
  </defs>
  <g id="COLOR">
    <g>
      <g>
        <g>
          <path class="cls-4" d="M6.57,49.83s1.48,7.4,6.5,12.5c5.02,5.1,8.29,11,6.48,14.95-1.81,3.95-6.11,3.74-8.7,1.23-2.59-2.51-3.87-5.37-3.78-12.19.08-6.83.99-10.03.49-11.43-.49-1.4-2.06-4.61-.99-5.06Z"/>
          <path class="cls-4" d="M53.73,67.35l-7.42,2.78s-8.37-1.05-13.8-.72c-5.43.33-8.76,2.34-9.87,5.18-1.11,2.84-.25,5.28,5.1,6.15,5.35.86,8.59-4.26,11.84-5.98s8.47-4.65,10.86-5.55c2.38-.9,3.29-1.85,3.29-1.85Z"/>
          <path class="cls-4" d="M39.4,52.98c2.04.06,2.65-.86,6.23-2.71s10.86-7.77,10.86-7.77c0,0-1.85,0-6.6-.74-4.75-.74-10.3.35-10.3.35l.49-1.15-1.97.06,2.28-3.45s2.22,1.67,4.87,2.04,3.15-.06,8.2-1.97c5.06-1.91,10.55-6.54,10.55-6.54,0,0-1.3-1.3-6.29-2.22-5-.93-8.08-.49-8.08-.49,0,0,2.78-4.01,4.87-7.46,1.81-2.98,2.42-5.73,2.64-6.31-.49.42-3.51,1.88-8.31,3.04-5.37,1.3-7.83,4.32-7.83,4.32l-.25-3.58-2.9,3.95s-1.3-2.71-2.41-4.44c-1.11-1.73-1.73-6.35-1.73-6.35,0,0-.93,4.75-2.96,9.37-2.04,4.63-2.28,10.42-2.28,10.42,0,0-1.05-1.48-1.6-2.41-.56-.93-2.41-6.48-2.41-6.48,0,0-.43,3.64-.68,6.23-.16,1.68-.74,7.65-.86,12.03-.12,4.38,4.44,8.2,4.44,8.2l-2.04,3.33-1.6-4.81-1.05,3.33s-1.73-3.02-4.19-7.22c-2.47-4.19-2.22-9.19-2.22-9.19-.62.12.68,7.34.31,8.39s-2.84,6.72-2.34,12.03c.49,5.3,3.7,8.02,3.7,8.02,0,0,.12,1.23.31,3.33.19,2.1.99,4.56,3.89,5.06,2.9.49,4.5-1.6,4.93-2.28.43-.68,1.05-3.45,1.05-3.45,0,0,2.22,1.05,5.12.86,2.9-.19,4.93-2.59,7.59-4.63,2.65-2.04,8.51-6.97,8.51-6.97,0,0-4.26-.12-7.65-.06-3.39.06-6.91.49-6.91.49l.99-2.65s1.6.43,3.64.49ZM35.06,42.42c-.07.11-.18.24-.3.3-.59.3-1.13.68-1.65,1.08h.01c-.15.1-.27.18-.46.2-.15.02-.29,0-.44-.06-.31-.13-.52-.43-.52-.77,0-.52-.03-1.05-.09-1.57-.02-.12-.04-.24-.04-.36,0-.1,0-.2,0-.3,0-.33.23-.6.53-.7.3-.1.67.06.82.33.02.04.04.07.05.11.08,0,.17,0,.26.01.16.03.28.11.4.2.08.06.16.1.24.15.22.07.45.11.67.14.17.02.33.17.43.3.09.12.14.24.16.39.02.18,0,.37-.1.53Z"/>
          <path class="cls-3" d="M42.09,32.49c4.06.36,7.93-3.91,10.08-6.88,1.54-2.13,2.75-4.43,3.78-6.85,1.06-2.5,1.77-5.22,3.8-7.14.4-.39-.15-1.15-.61-.79-1.51,1.14-2.36,2.67-3.08,4.39-.96,2.29-1.86,4.59-3,6.8-1.98,3.81-6.09,9.61-10.95,9.55-.6,0-.58.87,0,.92h0Z"/>
          <path class="cls-3" d="M72.62,26.28c-5.19.58-9.73,4.74-13.87,7.55-3.5,2.37-8.07,5.04-12.52,5.25.15-.2.12-.44-.22-.41-.66.07-1.33.17-2,.29-1.16-.18-2.3-.58-3.4-1.23.72-1.8,1.09-3.76,1.19-5.23.06.09.17.14.32.09,2.19-.71,4.37-1.4,6.28-2.73,1.91-1.34,3.31-3.18,4.53-5.14,2.75-4.43,4.45-9.37,7.62-13.51.32-.42-.31-1.04-.73-.73-1.4,1.03-2.28,2.63-3.03,4.18-.11-.07-.24-.09-.37-.02l.28-.52c-3.05,1.93-5.38,2.38-10.02,3.78-1.6.48-3.78,1.14-5.03,2.46-.24-2.53-.61-5.04-1.13-7.44-.11-.5-.94-.4-.91.12.1,1.69.23,3.38.34,5.06-.55,1.16-1.28,2.2-2.1,3.18-1.44-2.55-2.78-4.92-3.32-7.9-.61-3.38,0-6.4.7-9.68.1-.48-.6-.85-.84-.35-2.6,5.41-1.38,14.22,2.82,18.69-.82.93-1.68,1.83-2.48,2.76-1.6,1.88-2.84,4.07-3.53,6.45-.29,1.01-.52,2.48-.54,4.03-.53-1.33-1.16-2.64-1.86-3.93-1.17-2.17-2.46-4.25-2.99-6.69-.54-2.51-.63-5.12-.53-7.67.02-.6-.95-.75-1.06-.14-.68,4.02.24,8.97,2.13,12.56,2.41,4.58,5.18,9.13,5.2,14.48,0,.09.04.16.09.21-2.51,1.75-4.82,4.12-6.03,6.92-.77-2.5-1.58-5.06-2.69-7.39-.22-.46-.8-.1-.75.31.2,1.51.69,2.78,1.19,4.08-.13.54-.28,1.07-.46,1.58-1.31-2.47-2.9-4.76-3.97-7.39-1.16-2.84-1.75-5.73-2.41-8.71-.1-.44-.79-.34-.78.11.07,3.24,1.21,6.53,2.46,9.49,1.1,2.62,2.36,5.6,4.2,7.83-1.53,3.67-3.88,6.85-4.41,11.01-.42,3.28.34,8.41,3.58,9.69-.48,1.1-.96,2.2-1.43,3.31-.25-3.96-2.17-7.87-4.66-10.81-1.84-2.18-3.72-4.22-5.17-6.7-1.39-2.38-2.59-4.86-3.7-7.38-.2-.46-1.02-.13-.83.35,1.78,4.46,3.76,8.82,6.94,12.47,1.77,2.03,3.56,3.94,4.66,6.43,1.27,2.86,1.67,5.74,1.43,8.81-.05.12-.1.24-.15.36-1.21,2.95-2.35,5.92-3.46,8.91-1.1,2.96-2.36,5.94-3.1,9.01-.22.92,1.15,1.59,1.59.67,2.26-4.74,3.81-9.88,5.8-14.75.72-1.77,1.46-3.53,2.21-5.28.52,1.96,1.96,3.49,3.94,4.16,3.07,1.05,6.33-.31,8.86-2.04,2.95-2.02,5.57-4.45,8.65-6.3,1.56-.93,3.17-1.78,4.82-2.52,1.74-.78,3.65-1.24,5.31-2.16.47-.26.29-1.11-.29-1.05-2.56.25-5.22,1.63-7.5,2.77-2.68,1.34-5.21,2.94-7.57,4.77-2.38,1.84-4.64,4.06-7.55,5.03-3.18,1.06-7.55.35-8.13-3.6,0-.06-.04-.11-.08-.15.59-1.36,1.18-2.72,1.79-4.08.11-.02.22-.01.34-.04,2.49-.48,3.61-2.66,4.03-5.06,3.42,1.78,8.62-1.43,11.21-3.44,2.69-2.09,5.26-4.3,8.09-6.22,1.48-1,3-1.96,4.56-2.85,1.53-.88,3.28-1.56,4.68-2.64.4-.3.19-.99-.36-.85-2.55.64-5.04,2.42-7.25,3.81-2.41,1.52-4.73,3.2-6.94,5-2.15,1.75-4.21,3.64-6.65,4.98-2.05,1.12-4.99,2.12-7.18.98.1-1.29.04-2.57-.1-3.61-.05-.37-.13-.73-.19-1.1,3.53.35,6.33-3.82,7.63-6.58.21-.44.4-.89.59-1.35,4.98,1.57,8.79-1.45,12.45-4.49,4.56-3.78,9.36-7.14,14.95-9.21.69-.26.41-1.37-.31-1.12-4.56,1.55-8.67,4.16-12.45,7.1-4.35,3.38-8.25,8.22-14.27,6.74.46-1.22.86-2.47,1.23-3.72.69-2.33,1.26-5.53,2.98-7.39.96-.3,1.94-.58,2.93-.88,4.27.66,8.84-1.28,12.57-3.38,2.6-1.47,5-3.26,7.48-4.9,2.82-1.86,5.64-3.07,8.77-4.26.54-.2.52-1.17-.15-1.09ZM49.37,18.23c2.45-.61,4.89-1.24,6.97-2.67-.99,2.09-1.94,4.2-3.07,6.23-1.22,2.2-2.52,4.47-4.34,6.24-1.93,1.88-4.53,2.96-6.99,3.96-.06.02-.1.06-.13.1.2-3.26.2-6.65-.03-10.02,2.02-2.3,4.66-3.1,7.59-3.83ZM32.23,33.81c.26-2.22,1.09-4.35,2.31-6.22,1.5-2.31,4.14-4.22,5.6-6.66.16,2.57.28,5.14.28,7.73,0,2.49.06,5.13-.72,7.53-.64,1.96-3.56,6.6-6.07,4.18-1.56-1.51-1.63-4.57-1.4-6.55ZM32.11,41.03c.56.71,1.32,1.2,2.32,1.36-.52.28-1.03.57-1.52.86-.25.15-.51.33-.76.49.07-.92.04-1.83-.04-2.72ZM27.38,65.25c-.13,1.65-.96,4.69-2.75,5.3-3.05,1.05-5.13-2.89-5.42-5.3-.3-2.42.21-4.85,1.12-7.09,1.26-3.11,2.88-5.32,3.7-8.44.1.28.19.56.28.85.71,2.37,1.43,4.33,1.97,6.74.51,2.26,1.3,5.6,1.11,7.94ZM36.09,50.37c-1.35,4.13-3.58,8.24-8.08,9.33-.47-2.35-1.15-4.69-1.86-6.96,1.7-3.8,4.44-7.07,8.09-9.16,1.79-1.02,3.56-1.73,5.36-2.34-1.95,2.5-2.56,6.26-3.5,9.13ZM39.21,40.26c.39-.52.74-1.09,1.03-1.71.57.35,1.16.64,1.75.86-.93.24-1.87.52-2.79.85Z"/>
        </g>
        <g>
          <path class="cls-4" d="M69.48,71.33c-.33-1.12-.97-2.08-2.24-2.13-1.79-.07-3.05,2.06-4.18,3.13-1.75,1.66-3.73,3.11-5.06,5.16-1.3,2-1.77,4.37-2.09,6.69-.4,2.91-1.98,10.57,2.77,11.09,1.98.22,3.59-1.24,4.83-2.59,1.61-1.75,2.99-3.72,4.05-5.84,1.31-2.64,2.07-5.52,2.31-8.45.12-1.48.11-2.96,0-4.44-.05-.74-.13-1.73-.4-2.62Z"/>
          <path class="cls-3" d="M66.3,72.49c-1.97,2.91-2.91,6.53-4,9.84-.59,1.79-1.19,3.57-1.93,5.3-.77,1.81-1.96,3.41-2.75,5.2-.17.39.27.79.61.47,2.45-2.27,3.61-6.48,4.62-9.56,1.23-3.73,2.53-7.37,3.92-11.04.11-.3-.33-.44-.49-.21h0Z"/>
          <path class="cls-4" d="M89.86,70.01c-.37-3.01-.67-6.24-1.86-9.05-1.1-2.61-2.92-4.61-5.18-6.28-1.43-1.06-2.89-2.09-4.34-3.12-.66-.46-1.3-.94-1.99-1.35-.6-.35-1.46-.88-2.18-.85-.5.02-1.12.34-1.54.6-.46.28-.84.67-1.05,1.16-.63,1.49-.11,3.77.03,5.33.33,3.55.58,7.71,2.37,10.87,1.69,3,5.25,5.15,8.05,7.01,1.38.92,2.74,2.05,4.37,2.49,1.34.36,2.82-.22,3.41-1.52.74-1.63.12-3.61-.09-5.29Z"/>
          <path class="cls-3" d="M72.97,51.91c.37,1.09.59,2.23.91,3.33.16.54.35,1.08.56,1.6.2.48.44,1,.81,1.38.07.07.2,0,.17-.1-.14-.51-.38-1.01-.56-1.51-.19-.53-.34-1.07-.49-1.62-.31-1.08-.62-2.14-1.04-3.18-.09-.22-.45-.14-.37.1h0Z"/>
          <path class="cls-3" d="M75.4,53.59c.27.42.47.87.7,1.32s.47.87.71,1.31.49.86.75,1.29.49.84.83,1.19c.16.17.45,0,.39-.23-.13-.47-.37-.9-.6-1.33s-.48-.87-.73-1.3-.5-.86-.78-1.27-.57-.82-.81-1.25c-.16-.3-.64-.02-.46.27h0Z"/>
          <path class="cls-3" d="M82.6,68.81c.33.42.59.9.88,1.35.26.41.55.82.84,1.22s.58.8.89,1.18.64.85,1.03,1.18c.15.13.47.01.38-.22-.2-.47-.5-.9-.78-1.32s-.59-.84-.89-1.25-.61-.82-.93-1.21-.71-.81-1.01-1.25c-.21-.31-.64.02-.41.32h0Z"/>
          <path class="cls-3" d="M85.49,67.49c.24.83.5,1.64.79,2.45.15.4.3.8.48,1.19s.35.82.67,1.11c.17.16.5.06.49-.2-.03-.43-.23-.85-.4-1.24s-.33-.75-.49-1.12c-.34-.77-.64-1.56-.92-2.36-.13-.38-.72-.23-.61.17h0Z"/>
          <path class="cls-4" d="M96.57,82.53c.05-1.71-1.29-2.23-2.8-2.29-4.96-.21-10,1.27-14.24,3.8-2.16,1.29-4.06,2.89-5.73,4.76-1.22,1.37-2.91,3.4-2.34,5.4.55,1.92,2.78,2.21,4.46,2.34,2.56.2,5.15-.16,7.59-.95,4.81-1.56,10.06-4.57,12.2-9.4.51-1.15.82-2.41.85-3.67Z"/>
          <path class="cls-3" d="M74.02,93.57c6.84-3.81,13.45-7.87,20.64-11.04.43-.19.12-.94-.32-.76-7.21,3-14.11,6.99-20.65,11.23-.36.23-.04.79.34.58h0Z"/>
          <path class="cls-3" d="M66.64,85.94l.23-.37c.1-.17.15-.35.15-.55-.01-.33-.34-.51-.63-.36-.31.16-.45.48-.62.77-.13.23-.06.57.18.7s.55.06.7-.18h0Z"/>
          <path class="cls-3" d="M67.39,83.27c.31,0,.31-.48,0-.48s-.31.48,0,.48h0Z"/>
          <path class="cls-3" d="M85.62,93.21c.1-.02.18-.04.28-.08.07-.03-.09.03-.01,0,.03-.01.07-.02.1-.04.19-.07.42-.17.5-.37.07-.18.1-.42-.07-.56-.21-.18-.48-.22-.74-.12-.21.08-.4.16-.55.33s-.2.42-.08.61c.13.2.34.27.57.23h0Z"/>
          <path class="cls-3" d="M88.16,91.84c.21-.06.43-.16.52-.37.05-.11.09-.24.05-.36l-.05-.11c-.04-.07-.1-.13-.17-.17-.11-.08-.23-.09-.36-.11-.1-.01-.2.02-.29.04-.13.03-.27.14-.33.26-.07.12-.1.3-.06.43s.13.27.26.33.28.1.43.06h0Z"/>
          <path class="cls-1" d="M82.85,58.26c.39.48.73,1.05.99,1.61s.41,1.26.9,1.67c.36.3,1.06.36,1.29-.17.72-1.66-.94-3.49-2.21-4.37-.8-.55-1.5.6-.97,1.26h0Z"/>
          <path class="cls-1" d="M76.92,65.77l.14.09c.09.05.18.08.28.11.37.12.78-.2.77-.59,0-.1,0-.21-.04-.31l-.04-.16c-.07-.25-.27-.46-.53-.53-.13-.04-.27-.04-.4,0-.1.02-.18.07-.26.13-.08.05-.15.12-.19.21-.07.12-.1.24-.1.38,0,.27.15.51.37.65h0Z"/>
          <path class="cls-1" d="M60.05,77.18c-.95,1.26-2.08,3.13-.94,4.61.34.45.94.1,1.11-.29.23-.56.29-1.16.48-1.73.21-.61.51-1.16.83-1.71.58-.98-.84-1.73-1.49-.87h0Z"/>
          <path class="cls-1" d="M82.38,83.63c-.48,0-.92.13-1.34.37-.46.26-.94.75-.79,1.33.09.32.42.54.75.54.26,0,.54-.13.77-.24.35-.16.68-.35,1-.55.63-.4.4-1.46-.39-1.45h0Z"/>
        </g>
      </g>
      <rect class="cls-2" width="100" height="100"/>
    </g>
  </g>
</svg>