<?xml version="1.0" encoding="UTF-8"?>
<svg id="Capa_2" data-name="Capa 2" xmlns="http://www.w3.org/2000/svg" viewBox="0 0 100 100">
  <defs>
    <style>
      .cls-1 {
        fill: #cf923a;
      }

      .cls-2 {
        fill: #fff;
      }

      .cls-3 {
        fill: none;
      }

      .cls-4 {
        fill: #4a2d2d;
      }
    </style>
  </defs>
  <g id="COLOR">
    <g>
      <g>
        <g>
          <path class="cls-1" d="M49.68,15.16c-.34-3.75-4.26-5.03-7.47-5.35-1.94-.19-4.8-.48-6.36.95-1.26,1.16-.75,3.08-.37,4.5.98,3.57,2.78,9.67,7.57,9.2,3.93-.39,6.96-5.63,6.62-9.3Z"/>
          <g>
            <path class="cls-1" d="M55.89,27.79c1.49,1.4,3.37,3.72,5.35,4.41,1.79.63,3.5-.2,4.65-1.59.58-.71,1.03-1.53,1.35-2.39.75-1.99,1.08-4.12,1.14-6.24,0-.11,0-.22,0-.33-.06-1.41-.76-2.65-2.28-2.93-2.36-.43-5.5.25-7.71,1.04-1.76.63-3.69,1.58-4.32,3.48-.63,1.9.51,3.32,1.82,4.55Z"/>
            <path class="cls-1" d="M84.65,34.09c1.72-.79,1.81-2.76,1.95-4.42.12-1.46.15-2.95-.09-4.4-.16-.99-.5-2.14-1.04-3.15-.57-1.06-1.36-1.97-2.42-2.37-1.7-.65-2.82.38-3.96,1.51-2.46,2.44-7.83,4.26-5.06,8.69,1.7,2.72,7.48,5.59,10.61,4.15Z"/>
            <path class="cls-1" d="M63.43,40.64c.19,1.95-.3,4.3.98,5.97,1.13,1.48,3.11,1.9,4.87,1.82,2.93-.14,6.65-.94,8.71-3.19.56-.61,1.39-1.55,1.16-2.44-.06-.25-.19-.47-.34-.69-.18-.26-.38-.51-.52-.78-.3-.61-.56-1.25-.92-1.83-.54-.9-1.16-1.76-1.87-2.53-1.39-1.52-3.17-2.72-5.24-3.01-.13-.02-.25-.03-.38-.04-3.97-.34-6.84,2.9-6.47,6.73Z"/>
            <path class="cls-1" d="M89.02,55.82c-.61-1.82-2.79-2.93-4.43-3.63-1.57-.67-3.26-1.24-4.99-1.42-1.44-.15-3.56-.22-4.61,1-.46.53-.69,1.23-.83,1.91-.31,1.53-.2,3.16.07,4.69.37,2.09.91,4.56,2.68,5.95,1.62,1.27,3.96,1.38,5.89.91,3.71-.9,7.57-5.34,6.21-9.4Z"/>
            <path class="cls-1" d="M63.35,52.87c-.3-2.06-1.92-3.56-3.52-4.72-1.8-1.3-3.93-2.53-6.24-1.91-1.12.3-2.09,1.01-2.87,1.86-1.46,1.6-2.41,3.72-2.75,5.85-.26,1.62-.59,3.9.95,4.99,1.4.99,3.78.73,5.36.62,2.26-.15,4.54-.6,6.44-1.91,1.54-1.07,2.92-2.8,2.63-4.79Z"/>
            <path class="cls-1" d="M46.35,46.53c2.18-.47,4.01-2.79,5.26-4.46,1.37-1.82,2.33-3.96,2.4-6.27.05-1.74-.49-3.47-1.92-4.55-1.33-1-3.07-1.3-4.7-1.27-.81.01-1.66.08-2.5.19-1.68.22-3.28.6-4.58,1.76-1.4,1.25-1.36,3.17-1.12,4.9.44,3.11,2.75,10.65,7.15,9.7Z"/>
            <path class="cls-1" d="M25.08,35.84c4.04,1.17,8.6-1.49,10.75-4.85.76-1.19,1.69-3.05,1.05-4.47-.77-1.72-3.43-3.03-5-3.8-3.58-1.74-8.5-1.42-10.11,2.75-1.39,3.58-.97,9.13,3.31,10.36Z"/>
            <path class="cls-1" d="M34.83,49.75c.65-.47,1.17-1.21,1.12-2.03,0-.05,0-.1-.01-.15-.12-.91-.65-1.91-1.08-2.72-.49-.93-1.1-1.81-1.8-2.6-1.4-1.58-3.2-2.8-5.23-3.43-.1-.03-.21-.06-.31-.09-4.01-1.11-7.68,2.27-8.33,6.07-.71,4.13,1.31,7.92,5.82,7.86,2.59-.04,5.29-.9,7.67-1.87.73-.3,1.5-.58,2.14-1.04Z"/>
            <path class="cls-1" d="M19.91,56.35c-1.96-.15-3.11,1.77-4.55,2.72-1.36.9-2.94,1.54-3.8,3.01-.79,1.36-.76,3.09-.08,4.49.73,1.52,2.22,2.37,3.74,2.96,2.22.86,4.78,1.7,7.19,1.6.24-.01.44-.13.59-.29.03-.03.07-.07.1-.11,2.43-3.33,1.85-8.38.08-11.89-.63-1.25-1.78-2.39-3.25-2.5Z"/>
            <path class="cls-1" d="M44.11,58.33c-.26-.19-.56-.27-.87-.35-.23-.06-.46-.12-.66-.23-.59-.3-1.09-.77-1.69-1.06-.91-.43-1.86-.76-2.85-.95-1.94-.39-3.94-.21-5.76.59-4,1.77-4.35,5.73-2.35,9.24,1.98,3.47,5.03,5.3,8.73,2.96,1.74-1.1,3.22-2.65,4.25-4.43.52-.9.93-1.87,1.19-2.89.21-.82.89-2.24.01-2.88Z"/>
            <path class="cls-1" d="M41.69,76.48s-.02,0-.03-.01c-.95-.29-1.85-.78-2.79-1.11-.97-.35-1.97-.64-2.99-.81-1.95-.33-3.99-.21-5.74.79-3.48,1.98-3.3,6.04-1.8,9.32,1.43,3.1,4.74,5.19,8.03,3.42,3.4-1.82,6.08-7.15,6.02-10.91,0-.48-.34-.57-.72-.68Z"/>
            <path class="cls-1" d="M58.74,71.05c-.51-3.8-3.84-6.1-7.6-5.55-3.81.56-7.04,3.01-6.27,7.13.38,2.01,1.43,3.84,2.67,5.44.65.84,1.28,1.76,2.04,2.52.46.46,1.98,1.9,2.71,1.48,3.59-2.07,7.04-6.71,6.45-11.03Z"/>
            <path class="cls-1" d="M66.35,74.23c1.24.66,2.51,1.26,3.83,1.73.68.25,1.38.46,2.09.64.47.12,1.17.36,1.45-.21,1.79-3.65,1.71-9.09.06-12.78-1.67-3.73-5.04-3.02-8.05-1.23-2.82,1.68-5.77,4.6-3.89,8.08.97,1.81,2.76,2.83,4.52,3.76Z"/>
            <path class="cls-1" d="M70.9,79.78c-2.23-.32-4.52.31-6.55,1.21-1.07.47-2.1,1.04-3.08,1.68-.47.3-.92.63-1.37.96-.35.27-.93.59-1.17.96-.69,1.05,1.32,3.04,1.88,3.79.65.88,1.34,1.74,2.1,2.53,1.38,1.43,3.12,2.79,5.18,2.98,3.77.34,7.02-2.94,7.94-6.38.91-3.4-1.31-7.23-4.93-7.74Z"/>
          </g>
          <path class="cls-4" d="M59.41,85.33c4.03.27,8,.73,12.02,1.15.45.05.54-.69.11-.79-3.92-.87-8.13-1.16-12.13-1.04-.44.01-.43.64,0,.67h0Z"/>
          <path class="cls-4" d="M50.68,68.86c-.53,3.87-.5,8.3.83,12.03.19.55.95.33.86-.24-.67-3.99-1.26-7.63-1.04-11.7.02-.36-.59-.46-.65-.09h0Z"/>
          <path class="cls-4" d="M16.83,61.46c1.14,1.45,2.22,2.96,3.18,4.55.87,1.43,1.47,3.03,2.39,4.41.23.35.81.14.69-.29-.9-3.32-3.53-6.59-5.79-9.13-.29-.32-.72.14-.46.46h0Z"/>
          <path class="cls-4" d="M58.44,49.43c-1.88.66-3.59,2.05-5.11,3.31-1.65,1.37-3.4,2.95-4.45,4.84-.2.37.27.72.57.44,1.51-1.39,2.78-3.02,4.36-4.36s3.4-2.28,5.01-3.55c.32-.25-.03-.81-.39-.68h0Z"/>
          <path class="cls-4" d="M75.33,53.08c1.75,1.26,3.48,2.58,5.08,4.02,1.34,1.21,2.47,2.7,3.94,3.74.31.22.63-.2.48-.48-.9-1.77-2.63-3.18-4.12-4.45-1.56-1.34-3.2-2.49-4.99-3.49-.44-.25-.78.38-.39.67h0Z"/>
          <path class="cls-4" d="M23.03,46.24c2.19.18,4.38.42,6.54.83,1.94.37,3.84,1.02,5.78,1.33.46.07.85-.59.35-.82-3.75-1.76-8.59-2.1-12.67-2.02-.44,0-.43.65,0,.68h0Z"/>
          <path class="cls-4" d="M66.61,20.21c-1.56.83-3.01,1.8-4.43,2.85-1.15.86-2.45,1.72-3.33,2.86-.26.34.23.72.55.55,1.35-.73,2.53-1.91,3.76-2.83,1.27-.94,2.56-1.84,3.82-2.79.37-.28.06-.86-.37-.64h0Z"/>
          <path class="cls-4" d="M35.86,11.8c1.7.98,3.43,1.85,5.03,3.01s2.87,2.67,4.47,3.75c.29.2.64-.19.47-.47-.97-1.61-2.7-2.84-4.21-3.93-1.68-1.22-3.51-2.36-5.47-3.05-.41-.15-.66.48-.29.7h0Z"/>
        </g>
        <path class="cls-4" d="M30.11,33.98c.23,0,.53.03.75-.05s.43-.28.42-.55-.17-.46-.42-.55c-.22-.08-.51-.04-.75-.05-.31,0-.61.28-.59.59s.26.6.59.59h0Z"/>
        <path class="cls-4" d="M32.86,31.89s.05-.02.08-.04c.05-.03.09-.07.14-.11.15-.15.15-.42,0-.57-.04-.04-.08-.08-.14-.11-.02-.01-.05-.02-.08-.04-.08-.05-.16-.07-.26-.07-.09,0-.18.02-.26.07-.15.09-.25.26-.25.44s.1.35.25.44c.08.05.16.07.26.07.09,0,.18-.02.26-.07h0Z"/>
        <path class="cls-4" d="M44.38,22.48c.2.02.4.06.59,0,.26-.08.47-.33.46-.61s-.19-.52-.46-.61c-.19-.06-.4-.02-.59,0-.16.01-.31.06-.43.18-.11.11-.18.28-.18.43s.06.32.18.43.26.16.43.18h0Z"/>
        <path class="cls-4" d="M46.69,20.37c.32,0,.32-.5,0-.5s-.32.5,0,.5h0Z"/>
        <path class="cls-4" d="M63.26,29.43l.09.02s.03,0,.05,0l.17.02.17-.02c.21-.04.39-.16.48-.36.07-.16.07-.38-.03-.53-.04-.06-.09-.12-.14-.17-.08-.09-.18-.14-.28-.19-.1-.06-.22-.09-.34-.09l-.18.02c-.11.03-.21.09-.3.17-.07.06-.11.13-.14.22-.07.17-.07.34,0,.52.03.08.07.16.14.22.08.08.18.14.3.17h0Z"/>
        <path class="cls-4" d="M75.96,27.89h.17c.08-.01.15-.03.22-.06.07-.02.13-.06.18-.12.06-.05.09-.11.12-.18.04-.07.05-.14.05-.22,0-.15-.05-.3-.17-.4l-.11-.09c-.09-.05-.18-.08-.28-.08h-.17c-.08-.02-.15,0-.22.04-.07.02-.13.06-.19.12-.06.05-.1.11-.12.19-.04.07-.05.14-.05.22,0,.15.06.3.17.41.11.1.26.18.41.17h0Z"/>
        <path class="cls-4" d="M76.6,30.32c.15-.02.29-.03.44-.06.24-.05.43-.31.42-.55s-.17-.5-.42-.55c-.14-.03-.29-.04-.44-.06s-.34.08-.44.18c-.11.11-.19.28-.18.44s.06.33.18.44c.11.1.28.2.44.18h0Z"/>
        <path class="cls-4" d="M67.83,46.11c.16-.04.31-.07.45-.17.31-.2.31-.62,0-.82-.14-.09-.29-.12-.45-.17-.38-.1-.76.19-.76.58s.38.68.76.58h0Z"/>
        <path class="cls-4" d="M68.5,44.37h.09s.03,0,.04,0c.13,0,.2-.02.31-.08.17-.1.28-.29.28-.49s-.11-.39-.28-.49c-.05-.03-.1-.05-.15-.06l-.15-.02s-.03,0-.05,0h-.09c-.08,0-.16,0-.22.04-.07.02-.13.06-.19.12-.06.05-.1.12-.12.19-.04.07-.05.14-.05.22,0,.15.06.31.17.41s.26.18.41.17h0Z"/>
        <path class="cls-4" d="M46.96,44.37c.18,0,.36,0,.54-.03s.37-.22.4-.4c.02-.14.02-.17,0-.31-.03-.18-.23-.37-.4-.4s-.36-.03-.54-.03c-.31,0-.6.27-.59.59s.26.59.59.59h0Z"/>
        <path class="cls-4" d="M48.01,42.77c.2.05.42.07.63.01.27-.08.51-.34.52-.62,0-.32-.28-.48-.56-.49-.13,0,.21.03-.03,0-.06,0-.09,0-.15,0-.04,0-.07,0-.11,0-.11,0,.13.03.01,0-.29-.07-.64.09-.71.4s.09.62.4.71h0Z"/>
        <path class="cls-4" d="M24.22,51.46c.08-.01.17-.01.24-.03.08-.03.15-.07.21-.12s.1-.14.12-.21c.01-.04.02-.06.02-.13,0-.04,0-.09-.02-.12-.02-.06-.05-.12-.09-.17-.02-.04-.05-.06-.09-.09-.03-.03-.07-.05-.11-.06-.02-.01-.05-.02-.07-.03l-.13-.02s-.02,0-.03,0h-.07c-.07-.01-.13,0-.19.03-.06.02-.11.05-.16.1-.09.09-.15.23-.15.35s.05.26.15.35l.1.08c.08.04.16.07.25.07h0Z"/>
        <path class="cls-4" d="M26.22,50.19l.07-.05c.07-.04.12-.09.16-.16.04-.07.06-.14.06-.22,0-.08-.02-.15-.06-.22-.04-.07-.09-.12-.16-.16l-.07-.05c-.08-.04-.16-.07-.25-.07-.09,0-.17.02-.25.07-.15.09-.24.25-.24.42s.09.33.24.42c.08.04.16.07.25.07.09,0,.17-.02.25-.07h0Z"/>
        <path class="cls-4" d="M14.76,67.22l.05-.03s.02,0,.02-.02l.12-.09s.04-.04.05-.07c.03-.04.07-.09.1-.13.05-.08.07-.17.07-.26,0-.09-.02-.18-.07-.26-.09-.16-.27-.26-.45-.26-.03,0-.07,0-.1,0-.1,0-.16.02-.24.05-.1.03-.18.08-.26.15l-.09.12c-.05.09-.08.19-.08.29,0,.08.01.16.05.22.02.07.06.13.12.19.05.06.12.1.19.12.07.04.14.05.22.05.11,0,.2-.03.29-.08h0Z"/>
        <path class="cls-4" d="M15.66,68.55c.47,0,.47-.73,0-.73s-.47.73,0,.73h0Z"/>
        <path class="cls-4" d="M36.1,68.95s.07,0,.11,0c.1,0,.2-.03.29-.08.15-.09.29-.22.28-.41,0-.11-.05-.22-.13-.3-.04-.04-.09-.07-.14-.1-.03-.02-.05-.03-.09-.04-.07-.03-.13-.04-.21-.04-.04,0-.07,0-.11,0-.12,0-.27.06-.35.15s-.15.23-.15.35.05.26.15.35.22.16.35.15h0Z"/>
        <path class="cls-4" d="M38.25,67.62c.06.01.13.03.2.02.13,0,.21-.03.32-.09.05-.03.11-.07.15-.11.02-.02.04-.05.06-.07.02-.02.04-.05.06-.08.04-.06.06-.13.06-.2.02-.07.01-.14,0-.22l-.05-.13c-.03-.06-.08-.11-.14-.15-.03-.03-.07-.06-.12-.07-.06-.03-.13-.05-.21-.05-.14,0-.29.05-.39.16,0,0-.01.01-.02.02l.11-.09s-.03.02-.04.02l.13-.06s-.02,0-.04,0l.15-.02s-.02,0-.04,0l.15.02s-.02,0-.03,0l.13.06h0c-.09-.05-.18-.08-.28-.08l-.15.02c-.1.03-.18.08-.25.15-.06.05-.09.11-.12.18-.04.07-.05.14-.05.22,0,.08.01.15.05.22.02.07.06.13.12.18.07.07.15.12.25.15h0Z"/>
        <path class="cls-4" d="M60.13,56.19c.32,0,.32-.5,0-.5s-.32.5,0,.5h0Z"/>
        <path class="cls-4" d="M61.51,54.5c.07,0,.14,0,.21,0,.12,0,.22-.03.33-.09.05-.03.11-.08.16-.13.09-.08.16-.25.15-.36,0-.13-.05-.28-.15-.36-.05-.04-.11-.09-.16-.13-.11-.06-.21-.08-.33-.09-.07,0-.14,0-.21,0-.31-.01-.6.28-.59.59,0,.15.06.31.17.42s.26.18.42.17h0Z"/>
        <path class="cls-4" d="M79.66,62.99c.25.04.5.12.75.05.23-.06.39-.26.42-.49.01-.11,0-.2-.04-.3-.05-.13-.13-.2-.24-.28-.15-.12-.37-.14-.55-.18-.32-.07-.69.1-.77.43-.07.3.09.7.43.77h0Z"/>
        <path class="cls-4" d="M81.05,64.47l.08-.03.1-.04s.09-.06.12-.11c.03-.03.04-.06.05-.09.03-.05.04-.1.04-.16v-.11s-.04-.07-.06-.1c-.03-.05-.06-.09-.11-.12-.04-.04-.09-.06-.14-.07l-.08-.03c-.08-.02-.16-.02-.24,0-.08.02-.14.06-.2.12l-.07.09c-.04.07-.06.15-.06.23,0,.06.01.12.04.17.02.06.05.1.09.15.06.06.12.09.2.12.08.02.16.02.24,0h0Z"/>
        <path class="cls-4" d="M72.55,74.31h.23c.07,0,.15,0,.22-.02.15-.04.23-.13.32-.25.09-.13.09-.37,0-.5-.09-.12-.17-.21-.32-.25-.07-.02-.15-.02-.22-.02h-.23c-.27,0-.53.24-.52.52s.23.52.52.52h0Z"/>
        <path class="cls-4" d="M73.2,72.6c.59,0,.59-.91,0-.91s-.59.91,0,.91h0Z"/>
        <path class="cls-4" d="M55.79,75.54s.07-.03.11-.04c.14-.06.24-.1.36-.21s.23-.23.28-.4c.04-.14.02-.34-.06-.47-.09-.14-.21-.22-.36-.28s-.34-.02-.5.02c-.13.03-.23.1-.34.16-.28.17-.4.52-.27.83.05.13.15.25.27.32.15.08.35.13.51.07h0Z"/>
        <path class="cls-4" d="M57.14,73.11l.05-.04s.07-.08.08-.13c.03-.05.04-.1.04-.16v-.11c-.03-.07-.07-.13-.12-.18l-.05-.04-.09-.07-.11-.05c-.06-.02-.12-.02-.19,0-.04,0-.08.01-.12.03-.04.01-.07.03-.1.06-.04.02-.06.05-.08.08-.03.03-.05.06-.06.1-.03.06-.04.12-.04.18l.02.12.05.11.07.09.09.07.11.05c.06.02.12.02.19,0,.04,0,.08-.01.12-.03.06-.02.11-.05.15-.1h0Z"/>
        <path class="cls-4" d="M34.95,86.46c.06-.01.12-.02.18-.04.15-.04.27-.15.33-.29.03-.07.05-.11.04-.18,0-.04,0-.09-.02-.13-.04-.15-.16-.26-.29-.32-.08-.03-.16-.04-.24-.06-.18-.04-.38,0-.51.14-.09.1-.15.23-.15.37,0,.13.06.28.15.37.14.14.32.17.51.14h0Z"/>
        <path class="cls-4" d="M36.93,85.19c.68,0,.68-1.06,0-1.06s-.68,1.06,0,1.06h0Z"/>
        <path class="cls-4" d="M72.24,91.36l.23-.05c.11-.02.21-.07.32-.12.21-.1.32-.4.25-.62-.08-.24-.28-.39-.53-.4-.19,0-.39.05-.58.09-.29.06-.49.42-.4.7.1.31.39.46.7.4h0Z"/>
        <path class="cls-4" d="M73.62,89.62c.06-.01.12-.02.18-.04.12-.05.22-.09.3-.2.07-.09.12-.19.11-.31,0-.09-.03-.18-.07-.25-.07-.13-.2-.2-.33-.25-.06-.02-.13-.03-.19-.04-.1-.03-.2-.03-.3,0-.1.03-.18.08-.25.15-.1.11-.17.25-.17.4,0,.14.06.3.17.4.07.07.15.12.25.15.1.03.2.03.3,0h0Z"/>
        <path class="cls-2" d="M27.38,24.04c-.29-.84-1.52-.73-2.15-.38-.67.37-1.59,1.33-1.11,2.16.25.42.78.54,1.2.32.32-.17.54-.48.82-.69.38-.27,1.47-.73,1.23-1.41h0Z"/>
        <path class="cls-2" d="M43.37,12.51s.06,0,.1,0c-.13-.02-.15-.02-.06,0,.05.01.09.03.14.04.16.04-.16-.08-.01,0,.1.05.21.1.32.14.32.11.74-.07.9-.37s.15-.73-.12-.97c-.34-.29-.81-.42-1.26-.37-.21.03-.39.07-.54.22-.13.13-.23.35-.22.54.02.42.34.76.77.77h0Z"/>
        <path class="cls-2" d="M57.47,23.82c.28-.35.74-.62.86-1.07.06-.24.01-.47-.14-.66-.16-.2-.35-.27-.59-.3-.34-.04-.72.21-.95.44-.18.18-.33.39-.46.61-.2.35-.11.8.21,1.04.29.22.81.25,1.06-.06h0Z"/>
        <path class="cls-2" d="M83,24.24c.06.03.11.06.17.1l-.17-.13c.06.05.11.1.16.16l-.14-.17c.09.12.18.24.27.35l-.13-.17.02.03c.13.18.29.34.51.39.19.04.37.03.55-.04.38-.16.62-.6.49-1-.04-.12-.09-.24-.15-.35-.1-.17-.26-.29-.42-.41s-.35-.2-.53-.24c-.4-.09-.8.09-.97.48-.07.16-.1.36-.04.53.06.19.19.41.38.49h0Z"/>
        <path class="cls-2" d="M69.48,37.94c.35.06.67.11,1.03.03.47-.11.61-.73.28-1.06-.25-.26-.55-.38-.88-.51-.18-.07-.46-.01-.62.08s-.33.29-.37.48c-.09.39.12.91.56.99h0Z"/>
        <path class="cls-2" d="M42.44,32.37c-.35.43-.9.94-.68,1.55.13.36.42.6.81.61.66.03.97-.6,1.29-1.08.25-.37.1-.9-.23-1.16s-.9-.28-1.18.07h0Z"/>
        <path class="cls-2" d="M25.61,41.23l.37.04c.3.03.55-.08.78-.27.25-.21.3-.68.12-.95-.16-.24-.38-.41-.67-.46l-.37-.06c-.24-.04-.45-.03-.67.09-.24.13-.38.37-.41.63-.03.24.02.45.17.64.18.23.4.31.68.34h0Z"/>
        <path class="cls-2" d="M53.5,49.43c.48.04,1.03-.12,1.36-.47.27-.29.37-.77.14-1.11s-.63-.53-1.04-.42c-.15.04-.3.1-.46.12l.25-.03c-.09.01-.18.01-.26,0-.5-.04-.98.47-.96.96.02.55.42.91.96.96h0Z"/>
        <path class="cls-2" d="M84.64,56s.05.01.07.02l-.22-.09c.06.02.11.05.16.09l-.19-.15c.13.1.24.22.37.32l-.19-.15c.21.17.41.32.68.36.44.06.79-.28.89-.68.18-.71-.42-1.37-1.08-1.51-.24-.05-.5-.03-.72.09-.19.11-.38.34-.43.56-.11.5.15,1,.65,1.15h0Z"/>
        <path class="cls-2" d="M32.27,60.41c.39-.24.91-.47,1.1-.9.1-.23.13-.45,0-.68s-.34-.31-.58-.33c-.48-.04-.93.3-1.32.54-.36.21-.52.73-.29,1.1s.71.52,1.1.29h0Z"/>
        <path class="cls-2" d="M20.63,59.39c.13.01-.03,0-.03,0,0,0,.13.03.14.04.02,0,.15.05.05.01-.05-.02-.05-.02-.01,0,.07.03.14.06.21.09-.17-.08.05.03.11.04.08.03.17.03.25.04.16.01-.21-.03.05,0,.06,0,.11.02.17.01.32-.02.57-.25.58-.58,0-.09,0-.17-.03-.25,0,0-.17-.33-.05-.13-.08-.14-.12-.26-.23-.38-.05-.05-.18-.14-.25-.19-.28-.17-.64-.23-.96-.26-.41-.03-.8.38-.78.78.02.45.34.74.78.78h0Z"/>
        <path class="cls-2" d="M30.92,78.6c.25-.16.51-.33.64-.61.07-.12.11-.26.11-.4,0-.14-.04-.28-.11-.4-.15-.26-.4-.37-.69-.4-.32-.02-.58.12-.85.26-.19.11-.35.32-.41.53s-.03.5.09.69.31.36.53.41.49.04.69-.09h0Z"/>
        <path class="cls-2" d="M55.51,68.46s.05.04.08.06.06.03.09.04l.17.07c.09.03.19.03.28.01.06,0,.12-.02.18-.05.09-.03.16-.08.23-.14l.11-.14.07-.17c.03-.09.03-.19.01-.28,0-.09-.03-.18-.08-.26-.01-.03-.02-.06-.04-.09s-.04-.05-.06-.08c-.07-.11-.16-.2-.27-.27-.12-.07-.24-.1-.38-.1l-.2.03c-.13.04-.24.1-.33.19-.07.07-.12.15-.15.24-.05.09-.07.19-.06.29,0,.14.03.26.1.38.07.11.16.2.27.27h0Z"/>
        <path class="cls-2" d="M64.77,68.59c.1-.09.21-.17.3-.26.17-.17.27-.38.34-.61.12-.42-.22-.93-.68-.9-.25.02-.47.06-.69.19-.17.1-.32.24-.48.36s-.25.41-.25.61c0,.21.09.46.25.61s.38.26.61.25.42-.1.61-.25h0Z"/>
        <path class="cls-2" d="M70.9,83.04c.32,0,.67.01.98-.1s.6-.4.58-.77-.24-.64-.58-.77c-.31-.12-.65-.1-.98-.1-.46,0-.89.4-.87.87s.38.88.87.87h0Z"/>
      </g>
      <rect class="cls-3" width="100" height="100"/>
    </g>
  </g>
</svg>