<?xml version="1.0" encoding="UTF-8"?>
<svg id="Capa_2" data-name="Capa 2" xmlns="http://www.w3.org/2000/svg" viewBox="0 0 100 100">
  <defs>
    <style>
      .cls-1 {
        fill: none;
      }

      .cls-2 {
        fill: #4a2d2d;
      }

      .cls-3 {
        fill: #fee8ab;
      }
    </style>
  </defs>
  <g id="COLOR">
    <g>
      <g>
        <g>
          <path class="cls-3" d="M62.72,30.15c3.44-1.71,8.29-3.76,7.7-8.34-.23-1.79-.89-3.36-2.6-4.13-1.44-.64-2.94-.67-4.23.09-3.42,1.3-6.87,5.33-7.28,8.83-.47,4.04,3.37,5.07,6.42,3.55Z"/>
          <path class="cls-3" d="M78.82,37.33c1.4,1.01,3.09,2.11,4.88,1.45,1.26-.46,2.37-2.17,2.82-3.39.56-1.53-.65-3.17-1.53-4.32-1-1.31-2.3-2.33-3.59-3.34-1.17-.92-2.39-2.08-3.92-2.29-1.63-.23-3.11,1.53-3.95,2.71-2.69,3.8,2.58,7.21,5.29,9.18Z"/>
          <path class="cls-3" d="M46.78,27.7c1.31,1.07,3.06.79,4.34-.18,1.53-1.16,2.42-3.18,3.17-4.88.79-1.78,1.56-3.92,1.2-5.9-.33-1.79-1.61-3.06-3.36-3.49-.95-.24-1.98-.27-2.95-.15-1.15.15-2.06.35-2.67,1.43-.59,1.06-1,2.45-1.17,3.65-.23,1.54-.13,3.11-.13,4.67.08,1.62.21,3.73,1.58,4.84Z"/>
          <path class="cls-3" d="M31.17,28.88c.82.98,1.62,1.96,2.51,2.88,1.78,1.84,5.94,5.7,8.05,2.07.87-1.49.36-3.19-.25-4.67-.96-2.34-1.85-4.87-3.53-6.84-.83-.98-1.74-1.51-3.06-1.14-1.17.33-2.22,1.17-3.02,2.07-.85.95-2.29,2.4-1.96,3.82.17.72.8,1.28,1.25,1.82Z"/>
          <path class="cls-3" d="M57.89,43.08c.4-.73.55-1.44.51-2.13-.11-1.92-1.68-3.63-3.34-4.73-.74-.49-1.51-.92-2.29-1.34-1.4-.74-2.87-1.36-4.43-.71-1.35.57-2.42,1.91-2.85,3.28-1.24,3.9,3.49,6.02,6.24,7.47,2.17,1.15,4.97.3,6.15-1.85Z"/>
          <path class="cls-3" d="M66.31,32.05c-2.59.11-5.19,2.44-4.74,5.13.06.37.16.72.3,1.07,1.1,2.86,3.66,6.48,7.18,5.89,3.48-.58,3.49-4.57,2.41-7.15-.89-2.14-2.43-5.05-5.14-4.93Z"/>
          <path class="cls-3" d="M22.19,39.24c1.25.58,3.43.4,4.75.16,1.6-.28,2.53-1.53,2.8-3.07.2-1.16.2-2.43-.07-3.58-.04-.19-.1-.37-.17-.55-.55-1.4-1.87-2.47-3.1-3.26-1.58-1.01-3.44-1.52-5.31-1.15-1.15.23-1.73.92-1.84,2.08-.18,1.83.13,4.14.66,5.91.38,1.27.99,2.84,2.28,3.45Z"/>
          <path class="cls-3" d="M31.67,40.83c-1.82.72-2.37,2.7-2.29,4.51.1,2.33,1.74,3.99,3.46,5.38,3.22,2.6,7.66,4.96,11.27,1.65,1.55-1.42,2.22-3.79,1.77-5.82-.38-1.73-1.71-2.83-3.29-3.61-1.54-.75-3.31-1.19-4.7-1.59-1.81-.51-4.36-1.26-6.21-.52Z"/>
          <path class="cls-3" d="M17.94,58.15c3.31,1.05,6.63-3.34,8.09-5.74.69-1.13.93-2.63.72-3.93-.23-1.44-1.15-2.17-2.57-2.36-.07,0-.14-.02-.2-.03-1.31-.16-2.74-.09-3.81.76-1.62,1.29-3.28,2.99-4.47,4.69-1.65,2.37-.62,5.69,2.24,6.6Z"/>
          <path class="cls-3" d="M39.31,57.59c-1.3-.64-2.82-.99-4.11-1.31-2.51-.62-5.9-1.19-8.11.54-2.57,2.02-1.65,6.89,1.37,7.88,2.2.72,4.89.64,7.17.62,1.64-.02,4.48.26,5.79-1,1.13-1.09,1.03-2.9.46-4.24-.5-1.16-1.45-1.94-2.57-2.49Z"/>
          <path class="cls-3" d="M47.85,62.79c1.89.44,4.11-.62,5.79-1.34,2.12-.91,4.68-2.03,6.16-3.87,1.34-1.66,1.26-3.64-.22-5.17-.88-.92-2.03-1.53-3.2-2-.38-.15-.78-.32-1.2-.47-.8-.28-1.64-.51-2.43-.45-2.47.18-4.68,2.28-6,4.23-1.53,2.26-2.73,8.17,1.1,9.06Z"/>
          <path class="cls-3" d="M68.82,46.99c-.78-.51-1.67-.93-2.61-.97-1.44-.07-3.74.98-4.55,2.2-1.02,1.55.02,3.2.77,4.62,1.63,3.09,3.69,6.74,7.72,4.94,1.29-.58,3.64-1.76,4.42-3.04.92-1.53-.45-2.82-1.46-3.81-1.38-1.36-2.65-2.87-4.29-3.93Z"/>
          <path class="cls-3" d="M77.02,57.04c.71,1.43,2.68,2.02,4.12,2.26,3.71.63,4.41-4.93,4.76-7.6.21-1.64.25-3.5-.43-5.04-.6-1.35-2.04-1.79-3.4-1.91-.07,0-.14-.01-.2-.02-1.43-.1-3.43-.38-4.56.72-1.16,1.13-.56,4.23-.56,5.63,0,1.76-.55,4.32.26,5.95Z"/>
          <path class="cls-3" d="M72.95,67.18c.9-1.29.72-2.95-.22-4.16-.84-1.07-2.38-1.69-3.86-1.68-1.09,0-2.15.34-2.88,1.08-1.05,1.07-1.85,2.02-3.14,2.86-.79.51-1.61,1.03-2.25,1.73-2.13,2.31-.81,6.29,2.45,6.68,3.53.42,8.07-3.88,9.9-6.51Z"/>
          <path class="cls-3" d="M82.66,64.75c-1.28-.56-2.6-.3-3.78.37-1.01.58-2.39,1.41-2.76,2.58-.48,1.5.62,3.22,1.39,4.44,1.34,2.13,4.27,6.01,7.22,4.31,2.89-1.66,1.75-5.52.68-7.91-.63-1.41-1.24-3.14-2.75-3.81Z"/>
          <path class="cls-3" d="M68.44,75.23c-2.83,1.63-3.29,5.93-.94,8.2,1.75,1.68,4.66,2.67,6.84,3.67,2.32,1.06,4.62-.18,4.82-2.72.16-1.94-.63-3.95-1.63-5.58-1.89-3.05-5.54-5.62-9.09-3.57Z"/>
          <path class="cls-3" d="M59.46,77.47c-.76-.37-1.6-.58-2.33-.6-2.5-.07-4.45,2.2-6.08,3.79-1.23,1.2-2.66,2.49-2.56,4.36.08,1.58,1.15,3.46,2.33,4.48,3.2,2.78,6.95-2.01,8.86-4.25,1.09-1.27,2.1-2.99,2.11-4.71.01-1.38-1.06-2.45-2.34-3.07Z"/>
          <path class="cls-3" d="M54.61,70.65c-.33-1.48-2.21-2.35-3.46-2.85-2.93-1.16-9.29-2.58-11.72.33-1.69,2.01-1.22,6.73,1.71,7.27,2.12.39,4.79.15,6.94-.05,1.44-.13,2.81-.57,4.03-1.36,1.06-.69,2.83-1.84,2.5-3.34Z"/>
          <path class="cls-3" d="M42.09,80.41c-1.64-1.43-3.95-2.07-6.04-2.48-1.62-.32-3.34-.65-4.71.53-1.12.97-1.83,2.91-1.85,4.37-.07,4.19,5.19,4.47,8.25,4.98,1.67.28,3.41.36,4.65-.98.76-.82,1.13-1.98,1.11-3.13-.02-1.25-.5-2.49-1.41-3.29Z"/>
          <path class="cls-3" d="M28.15,69.23s-.08-.06-.12-.09c-1.15-.81-2.24-1.69-3.49-2.35-1.8-.94-4.01-1.71-6.06-1.22-1.5.36-2.88,1.97-3.47,3.34-.64,1.48.03,2.83,1.1,3.9,1.51,1.51,3.61,2.51,5.57,3.29,1.62.65,3.71,1.48,5.46.87,1.65-.57,2.5-2.55,2.62-4.17.12-1.54-.41-2.69-1.62-3.58Z"/>
        </g>
        <path class="cls-2" d="M37.93,51.18c.53.22,1.24.54,1.81.31.31-.13.59-.52.35-.86-.42-.58-1.13-.68-1.79-.79-.89-.15-1.2,1-.37,1.34h0Z"/>
        <path class="cls-2" d="M55.97,57.27c.66.07,1.34-.03,1.84-.5.27-.25.16-.83-.23-.89-.25-.04-.51-.06-.76-.07-.22,0-.43.02-.65-.01-.44-.06-.87.13-.93.62s.29.8.73.85h0Z"/>
        <path class="cls-2" d="M67.54,56.59c.35-.02.67-.05.97-.23s.31-.63,0-.82-.62-.21-.97-.23-.66.31-.64.64.28.67.64.64h0Z"/>
        <path class="cls-2" d="M64.51,37.44c.06,0,.13-.02.19-.03l.16-.07c.08-.04.14-.1.19-.17.09-.11.15-.26.14-.41,0-.12-.04-.23-.09-.34-.04-.08-.1-.14-.17-.19-.06-.06-.14-.1-.23-.12-.06-.01-.13-.02-.19-.03-.12-.03-.25-.03-.37,0-.12.03-.22.09-.31.18-.13.14-.21.31-.21.5,0,.18.08.37.21.5.09.09.19.15.31.18.12.03.25.03.37,0h0Z"/>
        <path class="cls-2" d="M54.95,42.45c.19-.02.38-.03.56-.07.28-.06.58-.33.56-.64s-.25-.56-.54-.64c-.19-.05-.39-.06-.58-.07-.17-.02-.39.09-.5.21-.12.12-.22.33-.21.5.02.36.31.75.71.71h0Z"/>
        <path class="cls-2" d="M81.75,36.84c.17,0,.34,0,.51-.02.23-.02.46-.03.66-.16.36-.26.36-.71,0-.97-.19-.14-.43-.14-.66-.16-.17-.02-.34-.02-.51-.02-.35,0-.69.31-.67.67s.29.68.67.67h0Z"/>
        <path class="cls-2" d="M66.8,25.97c.37-.18.78-.31,1-.68.19-.33-.06-.65-.4-.69-.42-.05-.8.24-1.16.42-.26.14-.35.51-.2.76.17.27.48.33.76.2h0Z"/>
        <path class="cls-2" d="M52.35,20.88c.24-.05.47-.08.65-.27.21-.22.21-.58,0-.8-.19-.19-.41-.22-.65-.27s-.5-.01-.67.18c-.12.14-.2.3-.2.49,0,.18.08.36.2.49.18.18.43.23.67.18h0Z"/>
        <path class="cls-2" d="M40.65,31.69l.16-.13c.09-.07.16-.25.15-.36,0-.13-.05-.28-.15-.36l-.16-.13-.14-.11-.17-.07c-.15-.05-.32-.02-.46.04-.06.02-.11.05-.15.09-.05.03-.09.07-.13.13-.09.12-.16.27-.15.42.01.24.13.48.35.61l.17.07c.09.03.19.03.28.01.06,0,.12-.02.18-.05.09-.03.16-.08.23-.14h0Z"/>
        <path class="cls-2" d="M25.41,36.27c.13-.06.26-.11.4-.15.22-.07.42-.28.41-.53s-.17-.45-.41-.53c-.14-.05-.27-.1-.4-.15-.22-.09-.54.02-.69.18-.13.14-.21.31-.21.5,0,.18.08.37.21.5.16.16.47.28.69.18h0Z"/>
        <path class="cls-2" d="M24.13,50.73c.17-.12.36-.23.46-.42s.12-.39.03-.59c-.03-.08-.07-.15-.14-.21-.08-.08-.18-.14-.29-.17-.08-.01-.16-.03-.23-.03-.11,0-.15.01-.23.04l-.15.05c-.12.03-.23.1-.32.19l-.11.15c-.07.11-.1.23-.1.36,0,.1.02.19.06.28.08.18.2.31.38.38.09.05.18.07.28.06.13,0,.25-.03.36-.1h0Z"/>
        <path class="cls-2" d="M38.14,63.24l.42-.18c.15-.06.26-.15.38-.24.18-.14.29-.32.23-.55-.06-.21-.26-.36-.47-.36-.37,0-.7.08-1.05.17-.37.09-.56.52-.41.86.16.38.55.46.91.31h0Z"/>
        <path class="cls-2" d="M50.63,72.88s.09-.07.12-.11c.02-.02.04-.04.06-.06.08-.08.14-.18.17-.29,0-.06.02-.12.02-.18,0-.11-.03-.22-.09-.32-.06-.09-.13-.17-.23-.23-.19-.11-.39-.1-.59-.06-.06.01-.11.02-.17.04-.46.1-.66.67-.43,1.06.09.16.26.28.43.33.13.03.26.03.38,0,.12-.03.23-.1.32-.19h0Z"/>
        <path class="cls-2" d="M69.3,67.38c.06,0,.11,0,.17-.01.2-.02.42-.07.56-.24l-.14.11c.08-.04.17-.09.23-.15.11-.11.2-.29.19-.45,0-.15-.05-.27-.14-.38-.08-.1-.17-.16-.28-.22l.14.11c-.18-.22-.47-.23-.73-.25-.18-.01-.4.09-.52.22s-.23.34-.22.52.07.39.22.52.33.23.52.22h0Z"/>
        <path class="cls-2" d="M81.31,57.8c.88,0,.88-1.37,0-1.37s-.88,1.37,0,1.37h0Z"/>
        <path class="cls-2" d="M83.36,75.05c.25.02.52-.05.73-.17.3-.16.57-.52.55-.87-.02-.24-.1-.44-.29-.59s-.4-.17-.65-.13c-.16.02-.3.14-.43.24l.16-.12c-.07.05-.15.1-.24.13l.19-.08s-.09.03-.13.04l.21-.03s-.07,0-.1,0c-.41,0-.81.36-.79.79s.35.76.79.79h0Z"/>
        <path class="cls-2" d="M76.18,85.11c.78,0,.78-1.22,0-1.22s-.78,1.22,0,1.22h0Z"/>
        <path class="cls-2" d="M58.94,82.43l.11-.07c.17-.11.28-.29.28-.49s-.11-.38-.28-.49l-.11-.07c-.19-.12-.46-.11-.65,0s-.32.33-.32.56.12.44.32.56.46.12.65,0h0Z"/>
        <path class="cls-2" d="M38.84,86.59c.51.06,1.17.22,1.58-.19.18-.19.21-.47.09-.69-.28-.5-.96-.52-1.46-.59-.45-.07-.87.14-.94.63s.29.8.74.85h0Z"/>
        <path class="cls-2" d="M25.85,74.82c.31-.08.61-.18.83-.41.34-.35.17-.9-.28-1.04-.32-.1-.63-.03-.95.04-.37.09-.63.54-.51.9s.5.62.9.51h0Z"/>
      </g>
      <rect class="cls-1" width="100" height="100"/>
    </g>
  </g>
</svg>