<?xml version="1.0" encoding="UTF-8"?>
<svg id="Capa_2" data-name="Capa 2" xmlns="http://www.w3.org/2000/svg" viewBox="0 0 100 100">
  <defs>
    <style>
      .cls-1 {
        fill: #fff3d2;
      }

      .cls-2 {
        fill: #fff;
      }

      .cls-3 {
        fill: none;
      }

      .cls-4 {
        fill: #4a2d2d;
      }

      .cls-5 {
        fill: #fdcf52;
      }
    </style>
  </defs>
  <g id="COLOR">
    <g>
      <g>
        <g>
          <path class="cls-5" d="M40.28,28.41c-.8-2.28-2.16-4.23-4.61-4.88-2.3-.61-4.66.04-6.67,1.2-1.93,1.11-3.93,2.61-4.78,4.74-.99,2.48.1,4.94,1.47,7.04,2.02,3.1,6.59,7.28,10.79,6.89.66-.06,1.32-.24,1.95-.55.72-.35,1.29-.84,1.74-1.42,2.58-3.29,1.28-9.68.11-13.01Z"/>
          <path class="cls-1" d="M40.17,41.43c-.45.58-1.02,1.06-1.74,1.42-.63.31-1.29.49-1.95.55-.94-1.56-2.22-4.23-2.54-5.24-.44-1.39-.76-3.91.89-3.91s3.03,2.71,3.03,2.71c0,0,1.52,2.84,2.31,4.47Z"/>
          <path class="cls-4" d="M36.61,42.19c-1-1.75-2.06-3.56-2.48-5.55-.09-.45-.24-1.03-.04-1.47.48-1.05,1.86,0,2.37.57,1.29,1.48,2.04,3.54,2.88,5.3.28.59,1.11.07.86-.51-.86-2.02-2.13-4.86-4.07-6.1-.93-.59-2.46-.7-2.91.53s.28,2.87.75,3.97c.54,1.25,1.15,2.67,2.06,3.71.28.32.78-.09.58-.44h0Z"/>
          <path class="cls-2" d="M33.81,26.84s.05-.01.07-.02l-.31.04c.05,0,.1,0,.15,0l-.31-.04c.13.02.25.05.38.05.31,0,.6-.12.82-.34s.33-.5.33-.81c0-.21-.05-.4-.16-.58-.07-.13-.17-.24-.3-.32-.14-.11-.25-.18-.44-.23-.12-.03-.25-.05-.38-.05-.16-.01-.33.02-.48.06-.15.04-.28.11-.4.21-.13.08-.23.19-.3.33-.09.13-.13.28-.14.43-.03.15-.03.31.02.46.09.28.27.55.53.7s.59.21.9.12h0Z"/>
        </g>
        <g>
          <path class="cls-5" d="M69.73,23.36c-.44-4.41-6.01-7.04-9.93-7.57-2.08-.28-4.46.06-6.18,1.36-1.64,1.24-2.57,3.38-3.35,5.2-1.04,2.43-2.47,5.27-2.03,7.99.24,1.49,1.14,3.15,2.39,4.52,1.14,1.25,2.56,2.25,4.04,2.66.72.2,1.45.25,2.16.12,1.81-.33,3.77-1.4,5.07-2.7,3.42-2.97,8.35-6.43,7.84-11.6Z"/>
          <path class="cls-1" d="M56.49,35.06c-.56.82-1.27,1.74-1.83,2.47-1.47-.41-2.9-1.41-4.04-2.66.86-1.41,3.03-4.75,4.61-5.49,2.02-.95,2.53-.19,2.78.95.25,1.14-.38,3.1-1.52,4.74Z"/>
          <path class="cls-4" d="M51.1,34.3c.71-1.03,5.02-6.81,6.38-4.36,1,1.8-1.82,5.44-2.82,6.81-.22.31.26.66.52.4,1.28-1.31,2.37-3,2.96-4.75.35-1.04.62-2.94-.4-3.75-1.09-.87-2.75.34-3.6,1-1.5,1.16-2.78,2.61-3.69,4.27-.23.43.38.77.65.38h0Z"/>
          <path class="cls-2" d="M55.74,17.64c-.6.28-.98.86-1,1.52-.02.69.68,1.16,1.32,1,.2-.05.38-.13.57-.22l-.29.12c.15-.06.31-.11.44-.2.06-.04.12-.08.18-.11.26-.14.48-.45.56-.73s.04-.68-.12-.94-.42-.49-.73-.56l-.33-.04c-.22,0-.43.06-.62.17h0Z"/>
        </g>
        <g>
          <path class="cls-5" d="M31.24,49.27c-1.36-1.88-3.22-2.55-5.5-2.55-2.78-.01-5.65.41-8.17,1.69-2.19,1.11-4.45,2.67-5.15,5.16-.05.17-.09.35-.12.52-.25,1.41.12,2.74.84,3.93,1.3,2.16,3.77,3.85,5.88,4.72,3.76,1.55,9.78,2.35,12.69-1.15,2.86-3.43,1.99-8.91-.48-12.32Z"/>
          <path class="cls-1" d="M20.93,55.9c-1.01.51-4.42,1.33-5.43,1.58-.57.14-1.59.37-2.36.53-.72-1.19-1.09-2.52-.84-3.93,1.29-.45,3.79-1.27,5.41-1.53,2.27-.38,3.79-.19,4.17.76s.06,2.08-.95,2.59Z"/>
          <path class="cls-4" d="M13.41,54.21c1.08-.42,2.22-.75,3.35-.99.59-.13,6.08-1.25,4.21,1.72-1.05,1.67-5.07,1.76-6.77,2.32-.45.15-.26.75.19.69,2.07-.28,8.78-1.11,7.93-4.61-.38-1.56-2.12-1.38-3.36-1.25-2.05.22-3.89.8-5.73,1.69-.24.11-.07.52.18.43h0Z"/>
          <path class="cls-2" d="M18.57,50.72l.06-.13c.06-.1.1-.2.1-.31.03-.11.02-.22-.02-.34l-.09-.2c-.08-.13-.18-.23-.3-.3l-.12-.08-.24-.1-.26-.04c-.14,0-.26.02-.38.09-.08.02-.16.07-.22.13-.07.04-.13.1-.18.18-.06.06-.1.14-.13.22-.04.08-.07.16-.07.25-.03.13-.02.26.02.4l.1.24.16.2.2.16.24.1.26.04c.14,0,.26-.02.38-.09.08-.02.16-.07.22-.13.11-.07.19-.16.26-.28h0Z"/>
        </g>
        <g>
          <path class="cls-5" d="M57.53,52.31c-.09-1.31-.08-2.73-.58-3.98-.41-1.01-1.13-1.83-2.03-2.41-.42-.28-.89-.51-1.38-.67-.3-.1-.61-.19-.91-.26h0c-1.88-.42-3.83-.2-5.49.88-2.7,1.75-4.71,4.51-5.79,7.53-.78,2.16-1.03,4.93.02,7.05,1.11,2.26,4.04,3.87,6.28,4.77,5.23,2.11,9.17-2.5,9.82-7.33.25-1.86.2-3.71.07-5.57Z"/>
          <path class="cls-1" d="M54.92,45.92c-.25,1.63-.77,4.38-1.46,5.37-1.01,1.45-1.83,2.9-3.54,2.59s-2.34-2.08-1.07-4.42c.88-1.61,2.66-3.47,3.77-4.47h0c.31.07.61.16.91.26.49.16.95.39,1.38.67Z"/>
          <path class="cls-4" d="M51.85,45.37c-2.1,1.63-6.34,6.49-2.88,8.84,3.55,2.41,6-4.98,5.99-7.28,0-.49-.73-.6-.86-.12-.45,1.69-1.83,8.23-4.54,6.37-2.95-2.02,1.34-5.62,2.8-7.16.31-.33-.12-.96-.51-.66h0Z"/>
          <path class="cls-2" d="M43.8,56.3c.16-.28.29-.58.29-.91,0-.58-.39-1.11-.98-1.19s-1.14.32-1.26.88c-.05.24-.07.51-.01.75.02.07.04.14.06.22.12.4.45.69.86.74s.82-.13,1.03-.5h0Z"/>
        </g>
        <g>
          <path class="cls-5" d="M84.67,40.18c-.11-.35-.25-.68-.41-.98-2.05-4-7.75-3.95-11.68-4.02-2.76-.05-5.64,0-7.76,2.02-3.51,3.33-3.92,11.49.85,13.93,2.68,1.37,6.24,1,9.08.43,2.88-.57,5.57-2.01,7.62-4.12,1.26-1.3,2.23-2.8,2.5-4.47.15-.89.1-1.82-.2-2.79Z"/>
          <path class="cls-1" d="M84.87,42.97c-1.11.34-2.58.74-3.56.81-1.77.13-4.17-.19-5.24-1.39-1.07-1.2.63-2.15,2.65-2.65,1.39-.35,4.02-.49,5.54-.54.16.3.3.63.41.98.31.97.35,1.9.2,2.79Z"/>
          <path class="cls-4" d="M82.57,38.98c-1.79-.23-3.88-.05-5.54.71-.9.41-2.15,1.24-1.84,2.37.8,2.87,6.86,2.89,8.74,1.5.23-.17.18-.59-.16-.59-1.96.04-5.57,1.37-7.15-.48-2.1-2.46,4.74-2.87,5.95-2.89.41,0,.38-.57,0-.62h0Z"/>
          <path class="cls-2" d="M66.56,40.08c.08-.1.17-.18.26-.26l-.22.17c.34-.25.63-.48.7-.94.03-.23,0-.47-.12-.67-.13-.23-.39-.43-.64-.49-.6-.14-1.15.19-1.55.61-.2.21-.33.49-.33.79,0,.27.12.6.33.79s.49.34.79.33c.28-.01.6-.1.79-.33h0Z"/>
        </g>
        <g>
          <path class="cls-5" d="M86.03,63.46c-.28-2.5-1.49-5.55-3.82-6.81-2.32-1.26-5.04-.48-7.31.47-2.4,1.01-4.92,2.04-7.09,3.48-1.76,1.17-3.11,2.68-3.63,4.67-.09.32-.15.65-.19.99-.15,1.31.06,2.37.55,3.22,1.93,3.43,8.14,3.53,11.77,3.62,2.85.07,5.65-.1,7.68-2.36,1.78-1.99,2.34-4.67,2.05-7.27Z"/>
          <path class="cls-1" d="M72.85,66.45c-.44,1.07-2.78,2.08-4.86,2.65-1.05.28-2.38.36-3.45.37-.48-.85-.7-1.91-.55-3.22.04-.34.1-.67.19-.99,1.42-.73,3.52-1.66,5.38-1.66,2.97,0,3.73,1.77,3.29,2.84Z"/>
          <path class="cls-4" d="M65.22,65.24c1.32-.66,2.7-1.09,4.18-1.17.57-.03,1.26-.05,1.81.08,1.33.31,1.52,1.52.63,2.43-1.75,1.78-4.44,1.57-6.63,2.24-.47.14-.36.8.11.83,2.33.16,8.64-1.05,8.18-4.5-.49-3.66-6.8-1.5-8.62-.49-.39.21-.05.79.34.59h0Z"/>
          <path class="cls-2" d="M78.86,59.81s.09-.02.14-.02l-.32.04c.14-.02.27-.02.41,0l-.33-.04c.33.05.71.13,1.03,0s.59-.31.74-.66c.13-.32.14-.71-.06-1.01-.5-.76-1.45-.85-2.26-.63-.61.16-1.04.87-.84,1.49.21.66.82.97,1.49.84h0Z"/>
        </g>
        <g>
          <path class="cls-5" d="M67.39,77.79c-1.87-2.4-4.93-3.61-7.62-4.81-1.94-.87-4.03-1.64-6.19-1.62-2.95.03-4.99,2.1-5.81,4.8-.8,2.6-1.47,5.63-.45,8.27,2.26,5.86,9.83,5.91,14.84,4.26,2.27-.75,4.45-2.19,5.67-4.02.51-.76.85-1.59.97-2.46.19-1.39-.2-2.89-1.4-4.42Z"/>
          <path class="cls-1" d="M68.79,82.21c-.12.88-.46,1.7-.97,2.46-1.08.13-2.46.22-3.62.09-2.34-.25-4.55-.57-4.23-2.34.31-1.77,2.97-2.65,5.49-2.14,1.5.3,2.65,1.22,3.33,1.93Z"/>
          <path class="cls-4" d="M68.69,82.04c-.51-1.63-2.97-2.25-4.47-2.4-1.6-.16-3.65.08-4.5,1.64-2.24,4.1,5.31,4.15,7.34,3.63.46-.12.38-.86-.11-.84-1.35.05-8.63.76-6.3-2.43,1.45-1.97,6.1-1.32,7.44.66.2.3.73.12.61-.26h0Z"/>
          <path class="cls-2" d="M53.02,75.52c.09-.02.19-.05.28-.07.26-.07.46-.22.64-.42.23-.25.33-.54.29-.87s-.22-.57-.5-.76c-.23-.15-.46-.23-.74-.24-.1,0-.19,0-.29,0-.32,0-.62.14-.85.35-.15.15-.25.33-.31.53-.05.16-.06.32-.02.48,0,.16.06.31.14.45.08.14.18.25.31.34.3.23.68.32,1.05.22h0Z"/>
        </g>
        <g>
          <path class="cls-5" d="M44.38,70.96c-.15-.66-.42-1.28-.87-1.84-.34-.42-.73-.75-1.16-1.01h0c-2.78-1.63-7.26-.07-9.83,1.06-2.53,1.11-5.53,2.51-7.19,4.82-3.31,4.63,1.61,10.63,6.5,11.28,5.39.72,10.16-4.85,11.92-9.36.59-1.51,1.01-3.33.64-4.96Z"/>
          <path class="cls-1" d="M44.38,70.96c-.54.75-1.24,1.58-2.04,2.18-1.83,1.39-4.23,3.22-6.57,3.16-2.34-.06-2.02-1.89-1.01-3.35.8-1.14,5.58-3.77,7.58-4.84h0c.44.25.83.58,1.16,1.01.44.56.72,1.19.87,1.84Z"/>
          <path class="cls-4" d="M40.98,68.63c-1.93.52-9.93,4.85-6.64,7.7,1.24,1.08,3.26.26,4.55-.3,1.74-.74,3.96-2.02,4.63-3.9.1-.28-.28-.6-.53-.41-.98.74-1.71,1.7-2.74,2.4-1.08.74-2.42,1.43-3.7,1.72-1.72.39-2.16-1.67-1.14-2.73.64-.67,1.42-1.26,2.17-1.79,1.16-.82,2.45-1.4,3.64-2.15.28-.18.1-.63-.23-.54h0Z"/>
          <path class="cls-2" d="M28.63,77.13l.03-.06.1-.24c.04-.13.05-.26.02-.4,0-.09-.02-.17-.07-.25-.04-.12-.11-.23-.21-.32l-.2-.16-.24-.1c-.13-.04-.26-.05-.4-.02-.13,0-.26.05-.37.12l-.06.03c-.15.09-.27.21-.36.36-.09.16-.14.33-.14.51l.04.27c.05.17.14.32.26.45.09.1.2.17.33.21.12.06.25.09.39.09.18,0,.35-.05.51-.14.15-.09.27-.21.36-.36h0Z"/>
        </g>
      </g>
      <rect class="cls-3" width="100" height="100"/>
    </g>
  </g>
</svg>