<?xml version="1.0" encoding="UTF-8"?>
<svg id="Capa_2" data-name="Capa 2" xmlns="http://www.w3.org/2000/svg" viewBox="0 0 100 100">
  <defs>
    <style>
      .cls-1 {
        fill: #fff;
      }

      .cls-2 {
        fill: none;
      }

      .cls-3 {
        fill: #4a2d2d;
      }

      .cls-4 {
        fill: #fedb7a;
      }
    </style>
  </defs>
  <g id="COLOR">
    <g>
      <g>
        <path class="cls-4" d="M53.15,13.39c-1.96-3.26-7.14-.92-5.91,2.73.62,1.83,2.65,2.87,4.38,1.93,1.73-.93,2.61-2.86,1.53-4.66Z"/>
        <path class="cls-4" d="M35.75,19.43c-2.07-5.06-10.65-2.32-9.56,3.01.59,2.87,3.39,4.67,6.23,3.89,2.91-.79,4.46-4.15,3.33-6.91Z"/>
        <path class="cls-4" d="M21.76,33.98c-3.14-3.27-9.24.61-6.79,4.74,1.25,2.1,4.14,2.58,6.08,1.17,1.88-1.37,2.39-4.15.71-5.91Z"/>
        <path class="cls-4" d="M39.15,35.52c-.45-.78-1.23-1.37-2.07-1.73-2.7-1.13-5.38,1-6.36,3.43-1.09,2.71,1,5.46,3.89,5.23,1.62-.13,3.08-1.16,4.01-2.49.8-1.16,1.25-2.68.74-3.99-.06-.16-.13-.3-.22-.45Z"/>
        <path class="cls-4" d="M55.26,27.91c-.82-1.96-3.1-2.75-5.07-2.19-2.45.7-3.85,3.37-3.55,5.82.32,2.61,3.23,3.69,5.48,2.79,2.45-.98,4.22-3.85,3.14-6.42Z"/>
        <path class="cls-4" d="M68.83,23.78c-3.71-2.79-8.72,2.35-5.6,5.97,1.55,1.79,4.34,2,6.08.35,1.83-1.74,1.51-4.82-.47-6.32Z"/>
        <path class="cls-4" d="M85.81,33.03c-1.25-1.46-3.56-2.23-5.41-1.45-2.14.9-3.24,3.9-2.01,5.91,1.17,1.9,4.35,2.62,6.25,1.41,1.79-1.14,2.62-4.17,1.17-5.87Z"/>
        <path class="cls-4" d="M68.37,39.51c-1.14-1.49-3.2-1.88-4.78-.85-2.21,1.44-3.25,4.52-1.82,6.87,1.28,2.11,4.06,2.36,5.84.74,1.81-1.64,2.27-4.78.76-6.76Z"/>
        <path class="cls-4" d="M77.87,49.94c-3.28-2.56-8.29,1.89-5.97,5.42,1.18,1.8,3.78,2.27,5.51,1.01,1.94-1.41,2.47-4.86.46-6.43Z"/>
        <path class="cls-4" d="M89.41,53.29c-4.22-1.27-7,5.34-2.64,6.82,1.97.67,3.98-.48,4.76-2.33.81-1.94-.1-3.88-2.11-4.49Z"/>
        <path class="cls-4" d="M77.91,66.67c-3.91-2.72-9,2.75-5.75,6.27,1.53,1.65,4.16,1.32,5.58-.29,1.32-1.49,2.08-4.65.16-5.98Z"/>
        <path class="cls-4" d="M63.41,62.41c-.14-1.83-1.24-3.45-3.49-3.55-2.59-.12-4.65,2.19-4.74,4.69-.1,2.59,2.25,4.6,4.81,4.05,2.35-.5,3.59-2.99,3.43-5.19Z"/>
        <path class="cls-4" d="M49.94,45.66c-1.72-1.01-4.01-1.07-5.87.56-2.52,2.21-1.81,5.8.82,7.6,2.5,1.71,5.82,1.14,7.14-1.71,1.24-2.66-.02-5.24-2.09-6.45Z"/>
        <path class="cls-4" d="M28.2,48.87c-4.93-1.59-7.8,6.61-3.61,9.05,2.34,1.37,5.62-.18,6.56-2.56,1.01-2.56-.27-5.62-2.95-6.49Z"/>
        <path class="cls-4" d="M18.52,60.66c-1.73-.86-3.99-.62-5.27.96-1.35,1.66-1.3,4.64.55,5.91,1.95,1.35,4.56.89,5.99-.98,1.53-2.01,1.04-4.75-1.26-5.89Z"/>
        <path class="cls-4" d="M41.18,63.85c-.69-.23-1.45-.26-2.2-.01-2.49.82-3.59,4.68-1.22,6.33,1.87,1.3,4.12.36,5.35-1.34,1.45-2.02.07-4.32-1.93-4.98Z"/>
        <path class="cls-4" d="M56.93,74.95c-1.36-1.97-4.39-2.69-6.22-.98-1.58,1.47-2.64,3.75-1.78,5.86,1.01,2.48,3.84,2.94,5.91,1.44,1.78-1.29,3.54-4.21,2.09-6.31Z"/>
        <path class="cls-4" d="M70.95,80.67c-3.25-1.84-7.71,2-5.11,5.26,1.49,1.87,4.04,2.07,5.65.19,1.41-1.64,1.49-4.3-.54-5.45Z"/>
        <path class="cls-4" d="M31.17,74.32c-3.74-2.45-8.03,2.73-5.5,6.18,1.57,2.14,4.6,2.28,6.34.27,1.7-1.97,1.38-5-.83-6.45Z"/>
        <path class="cls-4" d="M44.77,86.23c-1-1.13-2.62-1.53-4.04-1.05-2.37.79-3.87,3.5-2.92,5.9.99,2.5,4.28,2.73,6.23,1.25,1.92-1.46,2.4-4.24.74-6.1Z"/>
        <path class="cls-3" d="M20.35,38.49l.35.04h.09c.06.02.11,0,.17,0s.11-.02.17-.03l.08-.03s.07-.05.09-.08c.04-.05.07-.12.07-.19,0-.06-.02-.11-.04-.16-.03-.06-.12-.13-.19-.14-.05-.01-.11-.02-.16-.03s-.11-.02-.17-.02h-.09c-.12.02-.24.04-.35.05-.08,0-.15.03-.22.09-.05.05-.09.14-.09.22s.03.16.09.22l.06.05s.1.04.15.04h0Z"/>
        <path class="cls-3" d="M21.17,36.91h.07c.05,0,.11,0,.16-.02.05-.01.09-.04.14-.06.02,0,.04-.02.05-.03.05-.03.08-.06.11-.11.03-.05.04-.1.04-.15,0-.05-.01-.11-.04-.15-.03-.05-.06-.08-.11-.11-.02-.01-.04-.02-.05-.03l-.03-.02s0,0-.01,0c-.02,0-.03-.02-.05-.02-.02,0-.03-.02-.05-.02h-.1s0-.01-.01-.01h-.02s-.02,0-.04,0h-.07c-.05,0-.1,0-.14.03-.05.02-.09.04-.12.08-.04.03-.06.07-.08.12-.02.04-.03.09-.03.14v.1c.03.06.06.12.11.17l.08.06c.06.03.12.05.19.05h0Z"/>
        <path class="cls-3" d="M36.72,39.72c.15.04.3.06.45.08.06,0,.12,0,.18,0,.09-.01.19-.02.28-.04s.18-.06.25-.11c.13-.09.22-.23.22-.39,0-.18-.11-.34-.28-.4-.2-.08-.41,0-.61.02l.13-.02c-.12.02-.24.03-.36.05l.12-.02c-.09.01-.19.02-.29.02-.21,0-.38.16-.41.36s.1.4.3.46h0Z"/>
        <path class="cls-3" d="M37.76,37.35h.16c.06-.02.12-.02.17-.03.02,0,.05-.01.07-.02l.09-.04s.08-.05.1-.09c.02-.02.04-.05.05-.08.02-.04.03-.09.03-.14v-.1s-.04-.06-.05-.09c-.02-.04-.05-.08-.09-.1-.03-.03-.08-.05-.12-.06-.02,0-.05-.01-.07-.02-.06-.01-.12-.02-.17-.02h-.16c-.05-.01-.11,0-.15.02-.05.02-.09.04-.13.08-.04.04-.07.08-.08.13-.02.05-.04.1-.03.15v.11c.03.07.07.13.12.18l.08.06c.06.04.13.05.2.05h0Z"/>
        <path class="cls-3" d="M33.02,24.6h.49c.08,0,.16,0,.24,0,.07,0,.15,0,.22-.02.09-.03.17-.08.23-.16s.11-.15.11-.25v-.1c-.03-.06-.06-.11-.11-.16-.06-.07-.14-.13-.23-.16-.07-.02-.15-.02-.22-.02h-.24c-.16,0-.33,0-.49,0-.11,0-.23.05-.3.13s-.13.2-.13.3c.01.23.19.43.43.43h0Z"/>
        <path class="cls-3" d="M34.36,21.55l.14-.09s.09-.06.12-.1l.06-.05c.07-.07.1-.19.08-.29-.01-.05-.04-.09-.08-.13-.04-.04-.08-.06-.13-.08h-.07s-.02-.01-.03-.01c-.05,0-.07-.01-.11-.01h-.02c-.05,0-.11,0-.16.01-.07,0-.14.02-.2.05-.06.04-.11.08-.14.14l-.04.09c-.02.07-.02.14,0,.21.01.05.04.1.07.13.03.04.07.08.11.1.12.07.28.07.4,0h0Z"/>
        <path class="cls-3" d="M51.67,16.11l.45.04h.11c.08.02.14,0,.22,0,.07,0,.12-.02.19-.06.11-.07.19-.18.2-.3.02-.11-.02-.22-.09-.31-.04-.05-.08-.09-.14-.12-.02,0-.03-.01-.05-.02-.07-.03-.13-.06-.2-.07l-.11-.02-.45-.08c-.09-.02-.17-.02-.26,0l-.12.05c-.07.04-.13.1-.17.17-.04.06-.05.12-.06.18-.01.06-.01.13,0,.19.01.06.04.12.09.16.03.05.08.09.14.12.08.04.16.07.24.07h0Z"/>
        <path class="cls-3" d="M67.22,29.09h.4c.06,0,.13,0,.19,0,.06,0,.12,0,.18-.03.03,0,.06-.02.09-.03.08-.03.12-.08.17-.15.07-.09.07-.26,0-.35-.04-.05-.08-.1-.13-.13-.04-.02-.08-.03-.12-.05-.06-.02-.12-.03-.18-.03h-.2c-.13,0-.27,0-.4,0-.1,0-.2.04-.27.11s-.12.18-.11.27c0,.21.17.39.39.39h0Z"/>
        <path class="cls-3" d="M68.55,27.49l.25-.04.13-.02c.06,0,.11-.04.16-.07.07-.04.12-.12.12-.2s-.05-.16-.12-.2c-.05-.03-.1-.07-.16-.07l-.13-.02-.25-.04c-.06-.02-.12-.02-.18,0-.06.02-.11.05-.15.09-.06.07-.1.15-.1.24,0,.09.04.18.1.24.04.04.09.07.15.09.06.02.12.02.18,0h0Z"/>
        <path class="cls-3" d="M84.32,34.56c.1.01.19.02.29.03.07,0,.15,0,.21-.01.12-.03.22-.14.23-.26,0-.02,0-.03,0-.04,0-.03,0-.03-.01-.09-.02-.08-.08-.16-.15-.2-.04-.02-.08-.04-.12-.05-.07-.03-.14-.06-.21-.08l-.14-.04c-.1-.03-.2,0-.29.04-.06.03-.1.08-.14.14-.03.04-.04.09-.05.14-.01.05,0,.1,0,.15.01.05.03.09.07.13.03.04.06.07.11.1.06.03.12.05.19.05h0Z"/>
        <path class="cls-3" d="M84.06,37.82l.07-.05s.06-.05.08-.08c.02-.04.03-.08.03-.12,0-.04-.01-.08-.03-.12-.02-.04-.05-.06-.08-.08l-.07-.05s-.1-.04-.15-.04c-.05,0-.1.01-.15.04-.09.05-.15.15-.15.25s.06.2.15.25c.05.03.1.04.15.04.05,0,.1-.01.15-.04h0Z"/>
        <path class="cls-3" d="M52.08,32.4h.55c.11,0,.23-.02.34-.04.12-.02.24-.09.33-.17.1-.09.1-.28,0-.37-.09-.08-.21-.14-.33-.17-.11-.02-.22-.04-.34-.04h-.55c-.2,0-.4.18-.39.39s.17.39.39.39h0Z"/>
        <path class="cls-3" d="M53.52,30.05l.32-.03c.07,0,.13-.01.2-.02.02,0,.04,0,.06,0,.03-.01.06-.03.1-.04,0,0,.02,0,.03-.01l.07-.03c.09-.05.15-.16.15-.26s-.06-.22-.15-.26c-.06-.03-.13-.07-.2-.09-.05-.01-.11-.01-.17-.02h-.08c-.11-.02-.21-.03-.32-.04-.06,0-.11,0-.16.04-.05.02-.1.05-.13.09-.07.07-.13.19-.12.29s.04.22.12.29c.08.07.18.13.29.12h0Z"/>
        <path class="cls-3" d="M67.64,42.27l.15-.03c.05,0,.11-.01.16-.03s.1-.04.14-.05c.06-.02.12-.04.16-.09.01-.01.03-.03.04-.05.03-.04.06-.08.05-.13s-.02-.09-.05-.13c-.01-.02-.03-.03-.04-.05-.04-.05-.1-.07-.15-.09-.05-.02-.1-.04-.15-.06-.05-.02-.1-.02-.15-.03l-.16-.03c-.07-.02-.14-.02-.21,0-.07.02-.12.05-.17.1-.07.08-.11.17-.11.28,0,.1.04.21.11.28.05.05.11.08.17.1.07.02.14.02.21,0h0Z"/>
        <path class="cls-3" d="M67.25,45.01l.16-.08s.05-.04.06-.06c.02-.03.02-.06.02-.09,0-.03,0-.06-.02-.09-.02-.03-.04-.05-.06-.06l-.16-.08s-.09-.04-.13-.04c-.05,0-.09.01-.13.04-.08.05-.13.14-.13.23s.05.18.13.23c.04.02.09.04.13.04.05,0,.09-.01.13-.04h0Z"/>
        <path class="cls-3" d="M76.18,54.21h.61c.12,0,.25-.01.37-.03s.27-.11.35-.22c.04-.06.04-.16,0-.22-.07-.11-.22-.2-.35-.22s-.24-.02-.37-.02h-.61c-.19-.01-.37.16-.36.36s.16.37.36.36h0Z"/>
        <path class="cls-3" d="M77.63,52.59c.11-.02.22-.04.33-.06.03,0,.05-.02.08-.03.05-.02.1-.03.15-.06.09-.05.13-.13.18-.21.03-.05.04-.11.03-.16,0-.05-.03-.11-.07-.14l-.04-.03s-.01-.01-.02-.02c-.06-.05-.09-.07-.17-.09-.09-.02-.2-.02-.29,0-.13.02-.25.04-.38.06-.05.01-.09.03-.13.07-.04.03-.08.06-.1.11-.05.08-.07.2-.04.3s.09.18.18.23l.09.04c.07.02.14.02.21,0h0Z"/>
        <path class="cls-3" d="M89.58,57.74l.37-.04c.06,0,.13-.01.19-.02s.13-.01.18-.05c.01,0,.02-.02.03-.02l.07-.05s.07-.05.09-.09c.02-.04.03-.08.03-.12,0-.04-.01-.09-.03-.12-.02-.04-.05-.07-.09-.09l-.07-.05s-.02-.02-.03-.02c-.05-.04-.12-.05-.18-.05s-.12-.01-.19-.02l-.37-.04c-.1,0-.22.05-.28.12-.07.07-.12.18-.12.28s.04.21.12.28c.07.07.18.13.28.12h0Z"/>
        <path class="cls-3" d="M90.4,56.23h.13s.09,0,.14-.02c0,0,.02,0,.03-.01.02,0,.04-.02.06-.02l.09-.04s.08-.06.11-.1c.02-.02.04-.05.05-.09.02-.05.04-.1.03-.15v-.1s-.04-.06-.05-.09c-.02-.05-.06-.08-.1-.11-.04-.03-.08-.06-.13-.07-.02,0-.04-.02-.06-.02,0,0-.02,0-.03-.01-.02,0-.04-.01-.06,0-.02,0-.04,0-.06,0,0,0-.01,0-.02,0h-.13c-.06,0-.11.01-.17.04-.05.02-.1.05-.14.09-.04.04-.07.08-.09.14-.03.05-.04.11-.04.17l.02.11c.02.07.06.14.11.19l.09.07c.07.04.14.06.22.06h0Z"/>
        <path class="cls-3" d="M49.09,52.34h.36c.09,0,.18-.01.27-.03s.17-.06.24-.13c.02-.02.03-.03.05-.05.13-.13.13-.36,0-.49-.02-.02-.03-.03-.05-.05-.06-.06-.14-.11-.23-.13s-.19-.04-.28-.04h-.36c-.12,0-.24.05-.32.14-.08.08-.14.21-.13.32s.04.24.13.32.2.13.32.13h0Z"/>
        <path class="cls-3" d="M50.27,50.59l.15-.09c.05-.03.09-.09.09-.15s-.03-.12-.09-.15l-.15-.09c-.09-.05-.2-.05-.29,0s-.14.15-.14.25.06.2.14.25.2.05.29,0h0Z"/>
        <path class="cls-3" d="M60.53,64.53h.27c.05-.01.1-.01.15-.02.02,0,.04-.01.06-.02l.06-.03s.07-.02.09-.04c.03-.02.05-.04.08-.06.03-.03.05-.06.06-.09.02-.03.03-.07.03-.11,0-.07-.03-.16-.09-.21-.03-.02-.05-.05-.08-.06s-.06-.03-.09-.04l-.06-.03s-.04-.02-.05-.02c-.05-.02-.11-.01-.16-.02h-.27c-.05-.01-.1,0-.15.02-.05.02-.09.04-.12.08-.04.03-.06.08-.08.12-.02.05-.03.09-.03.15,0,.1.04.2.11.27s.17.11.27.11h0Z"/>
        <path class="cls-3" d="M61.14,62.78c.49,0,.49-.76,0-.76s-.49.76,0,.76h0Z"/>
        <path class="cls-3" d="M75.79,71.55l.11.04h.01s.03.01.05.01c.03,0,.03,0,.05,0h.01s.04,0,.05,0c.04,0,.08-.01.12-.03.04-.02.06-.05.08-.08.04-.07.04-.16,0-.24l-.03-.05s-.03-.05-.05-.08c-.02-.02-.05-.04-.08-.06l-.1-.06s-.1-.04-.15-.04h-.08s-.09.05-.13.09c-.03.03-.05.06-.06.09-.02.03-.03.07-.03.11,0,.04,0,.08.03.11.01.04.03.07.06.09.04.04.08.06.13.08h0Z"/>
        <path class="cls-3" d="M76.91,70.43h.25s.04,0,.06,0c.04,0,.08,0,.13-.01.04-.01.08-.03.11-.05.03-.01.07-.03.1-.05.1-.06.17-.18.17-.29s-.06-.24-.17-.29c-.03-.02-.07-.03-.1-.04-.04-.02-.08-.04-.12-.05s-.09-.01-.13-.01h-.06c-.08,0-.17,0-.25,0-.06,0-.11,0-.16.04-.05.02-.09.04-.13.08-.04.04-.07.08-.08.13-.03.05-.04.1-.04.16,0,.11.04.21.12.29s.18.12.29.12h0Z"/>
        <path class="cls-3" d="M27.25,56.31l.44-.02c.1,0,.2-.02.3-.03.02,0,.03,0,.05,0,.1-.03.16-.09.22-.17.01-.02.02-.03.03-.05.05-.07.05-.19,0-.26-.01-.02-.02-.03-.03-.05-.05-.07-.1-.12-.18-.15-.03-.01-.06-.02-.09-.03-.1-.02-.2-.03-.3-.03l-.44-.02c-.1,0-.22.05-.29.12s-.12.19-.12.29.04.21.12.29.18.12.29.12h0Z"/>
        <path class="cls-3" d="M29.1,54.59s.03-.05,0-.05-.03.05,0,.05h0Z"/>
        <path class="cls-3" d="M28.59,54.32l.15.05.08.02c.06.02.12.02.18.03l.16.02c.05,0,.1,0,.16,0h.1c.05-.03.09-.05.13-.08.06-.05.12-.12.14-.2.02-.07.02-.14,0-.21-.01-.05-.03-.09-.07-.13-.03-.04-.06-.08-.11-.1-.08-.03-.15-.07-.23-.09l-.16-.04c-.14-.03-.28-.03-.42-.04-.05,0-.1,0-.15.03-.05.02-.09.04-.13.08l-.06.08s-.04.09-.05.15c0,.03,0,.07,0,.1,0,.05.02.1.05.15.06.09.13.15.23.18h0Z"/>
        <path class="cls-3" d="M40.94,68.68l.18-.03c.06,0,.13-.01.19-.04l.17-.07s.07-.02.1-.04c.03-.02.05-.04.07-.06l.06-.06c.09-.09.07-.26-.04-.32l-.07-.04s-.06-.03-.09-.04c-.04-.01-.08-.01-.12-.01l-.18-.02c-.08,0-.17.02-.26.03l-.2.03c-.08.01-.16.09-.2.15-.04.07-.06.18-.03.26s.08.16.15.2l.08.03c.06.02.12.02.18,0h0Z"/>
        <path class="cls-3" d="M41.47,67.37c.44,0,.44-.68,0-.68s-.44.68,0,.68h0Z"/>
        <path class="cls-3" d="M54.76,76.69h.36c.06,0,.12.01.18.01.12,0,.23-.04.33-.09.11-.05.18-.2.18-.32s-.07-.27-.18-.32c-.1-.05-.21-.09-.33-.09-.06,0-.12,0-.18,0h-.36c-.1,0-.2.05-.28.12-.07.07-.12.18-.11.28,0,.22.17.39.39.39h0Z"/>
        <path class="cls-3" d="M54.45,79.05h.32c.08,0,.16-.03.24-.05.01,0,.02,0,.03,0,.07-.02.1-.04.15-.09.03-.03.06-.05.08-.09.05-.08.05-.2,0-.28-.02-.04-.05-.06-.08-.09-.05-.04-.09-.07-.15-.09-.01,0-.02,0-.03,0-.08-.02-.15-.04-.24-.04h-.32c-.1,0-.2.04-.27.11s-.12.17-.11.27.04.2.11.27.17.11.27.11h0Z"/>
        <path class="cls-3" d="M70.72,83.44h.05s.09,0,.14,0c.02,0,.03,0,.05-.01h.02c.06-.02.11-.05.16-.1.03-.03.05-.06.07-.1.02-.04.03-.08.03-.12v-.08c-.03-.05-.05-.1-.09-.14-.04-.05-.1-.07-.16-.09h-.02s-.03-.02-.05-.02c-.05-.01-.09-.01-.14-.01h-.05s-.09.01-.13.03c-.04.01-.08.04-.11.07-.03.03-.06.07-.07.11-.02.04-.03.08-.03.13v.09c.03.06.06.11.1.15l.07.05c.05.03.11.05.17.05h0Z"/>
        <path class="cls-3" d="M69.28,85.56h.35c.06,0,.12,0,.17,0,.08,0,.16-.02.24-.03l.06-.03s.06-.04.08-.07c.03-.05.06-.1.06-.16,0-.05-.01-.09-.04-.14-.03-.05-.1-.11-.16-.12-.08-.01-.15-.03-.23-.03h-.18c-.12,0-.24,0-.35,0-.15,0-.3.14-.29.29s.13.29.29.29h0Z"/>
        <path class="cls-3" d="M43.06,88.52l.16.1s.03.02.04.02c.04.02.08.04.12.05l.05.02s.08.02.13.02h.09s.06-.04.08-.05l.07-.05s.06-.07.07-.11c.02-.03.02-.06.02-.09,0-.03,0-.06,0-.09,0-.03,0-.06-.02-.09-.01-.04-.04-.08-.07-.11-.04-.04-.1-.07-.15-.1s-.11-.05-.16-.07l-.18-.06s-.09-.02-.13,0c-.04,0-.09.02-.12.04l-.07.05s-.06.07-.07.11c-.01.03-.02.05-.02.08,0,.04,0,.09,0,.13.03.08.08.15.15.2h0Z"/>
        <path class="cls-3" d="M42.29,91.72h.28s.09,0,.14,0c.05,0,.11-.01.16-.02.02,0,.05,0,.07-.02l.09-.04s.07-.05.1-.09c.05-.06.08-.14.08-.22,0-.06-.02-.12-.05-.18-.04-.08-.13-.13-.21-.16-.02,0-.05-.01-.07-.02-.05-.01-.11-.02-.16-.02-.05,0-.09,0-.14,0h-.28c-.1,0-.2.04-.27.11-.07.07-.11.17-.11.27s.04.2.11.27.16.11.27.11h0Z"/>
        <path class="cls-3" d="M30.65,80.29l.19-.04s.06-.02.09-.03c.03-.01.08-.03.1-.04l.07-.06s.03-.02.03-.04c.02-.02.03-.04.05-.07.02-.04.04-.08.04-.12,0-.04,0-.09,0-.13-.03-.08-.08-.15-.15-.2s-.16-.08-.24-.06c-.06,0-.13.01-.19.03l-.19.05s-.09.03-.13.07c-.04.03-.07.06-.1.1-.03.04-.04.09-.04.14-.01.05,0,.1,0,.15.03.09.08.18.17.22l.09.04c.07.02.13.02.2,0h0Z"/>
        <path class="cls-3" d="M31.14,78.04l.14-.03c.06-.02.13-.03.19-.06.04-.02.07-.05.11-.07,0,0,.02-.01.02-.02.04-.03.06-.05.09-.09,0-.01.02-.03.02-.04.02-.03.03-.08.02-.12-.01-.04-.04-.07-.07-.09-.01-.01-.03-.02-.04-.03-.03-.02-.07-.03-.1-.04-.06-.01-.13-.03-.19-.03-.04,0-.09.01-.13.02h-.07s-.09.03-.14.03c-.07.01-.14.08-.18.14-.04.06-.05.16-.03.23s.07.14.14.18.15.05.23.03h0Z"/>
        <path class="cls-3" d="M17.57,66.35h.3c.08,0,.15,0,.22-.03.07-.02.14-.04.2-.09.04-.02.07-.06.1-.1.02-.04.04-.09.04-.14,0-.05-.01-.1-.04-.14-.02-.04-.06-.07-.1-.1-.06-.04-.12-.06-.19-.08-.05-.02-.1-.03-.16-.03-.02,0-.05,0-.07,0h-.3c-.09,0-.18.04-.25.11-.06.06-.11.16-.1.25s.03.18.1.25.15.1.25.1h0Z"/>
        <path class="cls-3" d="M18.94,64.25l.05-.08s.03-.06.05-.08c.02-.04.04-.09.04-.13,0-.05-.01-.09-.04-.13-.02-.04-.06-.07-.1-.1-.04-.02-.09-.04-.13-.04-.03,0-.07,0-.1-.01h-.1c-.07,0-.14,0-.2.05-.06.03-.11.08-.14.14-.07.12-.07.27,0,.39s.2.19.34.19c.07,0,.14-.02.2-.05.06-.03.11-.08.14-.14h0Z"/>
        <path class="cls-1" d="M49.35,13.41s-.01,0-.02.01l.1-.08s-.06.04-.09.06c-.08.04-.13.1-.2.15l.11-.09c-.07.05-.14.1-.2.16l.11-.08s-.07.05-.11.07c-.02.01-.04.02-.05.04-.04.02-.07.05-.09.09-.03.04-.03.04-.04.06,0,0,0,.01-.01.02,0,.01-.02.02-.02.04l-.04.1c-.02.06-.02.11,0,.17,0,.04,0,.07.03.11.02.05.05.1.09.14.04.03.09.07.13.1,0,0,0,0,.01,0,0,0,0,0,0,0l.12.05c.09.03.15.02.23,0,.13-.02.24-.04.35-.1.02-.01.05-.03.07-.04.06-.04.12-.08.17-.13s.09-.11.12-.18.06-.13.08-.19l.02-.13c0-.07-.01-.13-.04-.19-.01-.04-.03-.08-.06-.11-.04-.06-.08-.1-.14-.13l-.12-.05-.13-.02c-.07,0-.13.01-.19.04-.06.02-.12.06-.16.1h0Z"/>
        <path class="cls-1" d="M17.99,34.18c-.17.05-.34.12-.49.2-.05.03-.1.06-.15.09-.1.06-.2.13-.28.21-.04.04-.08.09-.11.13-.05.07-.11.14-.16.21s-.08.15-.11.23c-.02.05-.04.1-.05.15-.04.15-.03.3.02.45.05.13.12.25.25.32l.13.05c.1.03.19.03.29,0,.03,0,.05,0,.08-.01l-.17.02c.14-.02.16-.02.26-.06.08-.03.15-.07.21-.13,0,0,.02-.01.02-.02l-.13.1c.07-.05.14-.1.2-.15.07-.05.13-.11.2-.17l-.15.11s.07-.05.11-.08c.09-.06.16-.13.24-.19l-.15.12c.12-.1.26-.18.4-.24l-.17.07s.07-.03.1-.04c.09-.02.18-.07.25-.13.08-.05.14-.12.19-.2.05-.08.08-.17.09-.27.02-.1.02-.19-.01-.29-.06-.18-.17-.35-.33-.44s-.37-.13-.56-.07h0Z"/>
        <path class="cls-1" d="M34.7,34.89c-.39.14-.73.34-1.03.62-.15.14-.27.31-.38.48-.07.11-.12.23-.15.35,0,.02-.01.03-.01.05-.01.06-.03.14-.03.21,0,.09.02.18.03.26l-.02-.16c0,.1,0,.19.02.29.04.14.14.28.27.36.16.09.37.07.53-.02.12-.07.19-.19.28-.3l-.09.12s.03-.04.06-.06l-.13.1s.03-.02.04-.03c.08-.06.14-.11.2-.19.04-.05.08-.1.12-.15l-.11.14c.07-.09.14-.19.2-.28.04-.05.07-.11.11-.16l-.11.14c.08-.1.15-.2.23-.3l-.11.14c.12-.15.25-.28.4-.4l-.13.1c.09-.07.19-.13.29-.19.27-.15.37-.5.25-.77s-.44-.46-.73-.36h0Z"/>
        <path class="cls-1" d="M49.73,27.53c-.22.14-.43.3-.63.48-.04.03-.07.07-.11.1-.08.08-.15.17-.22.27-.09.13-.17.26-.22.41-.01.04-.03.08-.04.13-.05.19-.04.41.07.58.09.14.2.24.37.28.06.02.21.03.2.03.13,0,.27-.04.37-.11.04-.03.08-.05.12-.08.09-.06.17-.14.25-.21.08-.07.15-.13.22-.2.15-.17.32-.33.5-.47l-.15.12s.02-.01.03-.02c.09-.05.16-.11.21-.2.07-.07.11-.16.14-.26.03-.1.04-.2.01-.3,0-.1-.03-.2-.09-.28-.1-.16-.26-.31-.45-.35s-.41-.03-.59.08h0Z"/>
        <path class="cls-1" d="M65.89,24.38c-.3.21-.54.46-.75.76-.1.14-.18.31-.22.48-.02.06-.03.13-.04.2-.02.12-.03.22,0,.34,0,.03.02.06.03.09.06.15.15.27.32.32s.32,0,.44-.12c.03-.02.05-.04.08-.06.06-.05.1-.11.14-.18s.08-.12.12-.19c.08-.13.16-.26.25-.38l-.09.12c.11-.15.25-.28.39-.39l-.12.09s.04-.03.06-.05c.13-.09.23-.2.28-.36.04-.14.02-.34-.06-.46s-.21-.24-.36-.28-.33-.03-.46.06h0Z"/>
        <path class="cls-1" d="M30.49,18.31c-.22.09-.42.18-.62.31s-.37.27-.54.43-.31.35-.42.55c-.04.09-.09.17-.11.27,0,.02-.01.04-.01.06-.01.06-.02.13-.03.2l.02.18c.02.11.05.21.12.3s.13.15.23.2.2.04.31.02c0,0,.02,0,.03,0l-.14.02c.15-.02.2-.03.34-.1.09-.04.15-.07.22-.15.1-.1.19-.22.28-.34l-.11.14c.1-.13.21-.27.31-.4l-.11.14c.14-.18.31-.35.49-.49l-.14.11c.12-.09.25-.18.38-.25s.27-.24.3-.39.03-.29-.03-.43c-.05-.13-.14-.25-.27-.31-.15-.08-.35-.13-.51-.07h0Z"/>
        <path class="cls-1" d="M80.9,32.75s-.02,0-.03,0c0,0-.01,0-.02,0l-.19.03s-.07.03-.1.04c-.04,0-.07.02-.09.04-.06.04-.11.09-.17.13-.04.03-.09.07-.13.11-.13.11-.23.26-.33.4-.03.05-.06.09-.08.14-.03.08-.07.15-.1.23s-.04.15-.04.24c0,.05,0,.09,0,.14,0,.09.02.18.04.27.02.11.12.24.22.29.11.06.25.09.38.05.11-.03.21-.08.31-.13.09-.05.15-.08.24-.15.03-.03.06-.05.1-.08.06-.05.12-.12.17-.18.03-.03.06-.06.09-.09.07-.07.13-.16.19-.24l-.12.15s.07-.08.1-.13c.03-.03.05-.06.07-.09.03-.02.05-.05.06-.09l.07-.17c.01-.05.02-.15.03-.2,0-.01,0-.02,0-.03,0-.09-.02-.18-.06-.26-.03-.08-.07-.15-.14-.21l-.13-.1c-.1-.06-.21-.09-.33-.09h0Z"/>
        <path class="cls-1" d="M65.17,39.01c-.35.17-.68.43-.93.73-.19.22-.31.44-.41.72-.04.13-.05.27-.05.4,0,.09.01.17.03.26.02.07.06.15.1.21.12.23.47.33.68.18.07-.05.15-.09.21-.15.03-.04.06-.08.1-.11.11-.11.19-.24.26-.38.11-.19.22-.37.35-.55l-.1.14c.13-.17.28-.32.45-.45l-.12.1s.04-.03.06-.04c.13-.1.23-.2.28-.36.04-.15.02-.34-.06-.47s-.21-.24-.36-.28c-.17-.04-.32-.01-.47.06h0Z"/>
        <path class="cls-1" d="M46.81,46.19c-.33.19-.64.41-.94.66-.16.14-.29.3-.42.47-.05.06-.08.14-.12.21,0,.02-.02.04-.03.06-.04.1-.06.17-.07.28,0,.03,0,.07-.01.1-.03.3.31.51.58.44.04-.01.08-.02.12-.03.09-.03.16-.07.24-.12.12-.08.24-.17.35-.26l-.13.1c.23-.18.45-.38.68-.56l-.13.1c.16-.13.33-.24.51-.35.14-.08.25-.22.29-.38s.02-.35-.06-.49c-.19-.29-.56-.4-.87-.23h0Z"/>
        <path class="cls-1" d="M25.46,50.63l-.12.16s-.04.06-.06.08-.03.06-.05.09c-.03.06-.05.12-.08.18-.02.05-.05.11-.06.16,0,.01,0,.03,0,.04l-.02.1c-.02.08-.02.16,0,.24.02.08.06.14.12.2.06.06.12.09.2.12.08.02.16.02.24,0,.09-.03.2-.07.28-.12.06-.03.11-.07.16-.11.01,0,.03-.02.04-.03,0,0,.01,0,.02-.01.04-.03.1-.07.13-.11.02-.02.05-.05.07-.07l.15-.15c.08-.08.14-.18.17-.29l.02-.17c0-.12-.03-.23-.09-.33-.04-.08-.1-.14-.17-.18-.06-.06-.14-.1-.22-.12-.09-.03-.17-.03-.26-.01-.09,0-.17.03-.24.08-.1.06-.17.13-.23.23h0Z"/>
        <path class="cls-1" d="M15.65,61.59c-.33.12-.61.28-.87.52-.12.11-.23.25-.31.39-.05.09-.09.2-.12.3-.05.15-.02.29.01.43l-.02-.14s0,.09,0,.13c.01.09.02.17.07.25,0,.01.02.03.03.04.05.08.13.15.23.17.1.02.2,0,.29-.04.1-.05.18-.12.26-.19l-.11.08h.01s-.08.03-.13.05c.07-.03.14-.05.21-.08.08-.05.12-.09.17-.15.05-.05.1-.11.15-.16.1-.11.2-.21.32-.31l-.13.1c.12-.09.24-.16.37-.22l-.15.06s.02,0,.03-.01c.08-.02.15-.06.22-.11.07-.04.12-.1.16-.18.08-.14.11-.34.06-.49s-.15-.3-.29-.38-.33-.12-.49-.06h0Z"/>
        <path class="cls-1" d="M28.25,75.41c-.29.16-.51.39-.7.65-.09.12-.18.28-.21.43-.02.1-.03.21-.04.31s.02.2.04.3l.06.14.09.12c.09.09.2.14.33.16.1.01.2,0,.3-.04.12-.05.2-.13.27-.23.06-.08.11-.17.17-.25l-.1.13c.05-.06.11-.13.15-.2.01-.03.03-.05.04-.08.03-.05.06-.1.1-.15l-.11.14c.07-.09.16-.18.25-.25l-.14.11c.06-.04.12-.08.18-.12.15-.08.27-.24.31-.4.03-.09.03-.18.01-.27,0-.09-.03-.17-.08-.25-.09-.14-.23-.27-.4-.31s-.36-.02-.52.07h0Z"/>
        <path class="cls-1" d="M38.95,65.57l-.16.24s-.06.08-.08.12c-.02.04-.04.08-.06.12s-.04.08-.06.13c-.04.09-.06.12-.07.2v.07c-.03.08-.05.17-.05.26,0,.04,0,.08,0,.12,0,.14.06.26.17.34.04.04.09.06.15.08.08.02.15.02.23,0,.03-.01.07-.03.1-.04.09-.04.15-.07.22-.11s.16-.1.22-.16c.03-.03.07-.07.1-.1.17-.18.3-.39.43-.59.05-.08.07-.16.08-.25.02-.09.02-.18-.01-.26-.02-.09-.06-.16-.12-.23-.05-.07-.11-.13-.19-.17-.15-.08-.34-.12-.51-.07l-.16.07c-.1.06-.18.14-.24.24h0Z"/>
        <path class="cls-1" d="M58.91,60.53c-.37.13-.7.33-.99.61-.09.09-.16.19-.24.29-.04.06-.08.11-.11.18-.08.17-.16.34-.17.53,0,.03,0,.07,0,.1,0,.01,0,.03,0,.04,0,.15.03.22.1.35s.24.26.39.3l.17.02c.12,0,.23-.03.33-.09.07-.03.13-.1.19-.15.02-.02.04-.04.07-.06.09-.09.14-.2.21-.3.07-.11.15-.22.23-.32l-.11.15c.1-.13.21-.24.34-.34l-.14.11c.09-.07.18-.12.27-.18.14-.07.27-.25.31-.4s.03-.3-.03-.44c-.05-.13-.15-.25-.28-.32-.15-.08-.35-.13-.52-.07h0Z"/>
        <path class="cls-1" d="M74.16,50.59c-.23.2-.44.42-.61.68-.06.09-.1.19-.14.3-.02.05-.04.11-.06.17-.04.15-.06.31-.05.47.01.15.07.28.2.36s.28.07.42,0c.07-.04.14-.07.2-.12.11-.07.21-.15.31-.23l-.13.1c.07-.05.15-.1.21-.16.03-.03.05-.06.08-.08.06-.06.11-.12.17-.18.11-.12.23-.23.35-.34s.2-.32.2-.48-.07-.36-.2-.48-.3-.21-.48-.2l-.18.02c-.11.03-.21.09-.3.17h0Z"/>
        <path class="cls-1" d="M87.4,54.52c-.32.25-.62.51-.86.85-.1.14-.2.28-.27.44-.05.12-.06.26-.08.4,0,.07-.02.14-.02.21-.01.16.11.32.26.38.07.03.14.04.22.03.1-.01.16-.05.24-.12.02-.01.03-.03.05-.04l-.09.07s.09-.07.14-.1c.08-.06.18-.11.25-.18.09-.1.17-.2.26-.29.19-.19.37-.38.58-.54l-.13.1s.07-.05.11-.08c.14-.1.25-.22.3-.39.04-.16.02-.36-.07-.5s-.22-.26-.39-.3-.37-.04-.5.07h0Z"/>
        <path class="cls-1" d="M74.6,67.15l-.49.37c-.08.06-.17.12-.24.2l-.1.12s-.03.04-.05.05c-.09.1-.15.19-.19.32-.01.04-.02.08-.04.13-.1.34.18.71.53.7.04,0,.08,0,.12,0,.14,0,.24-.04.36-.1.02-.01.04-.02.06-.03l.14-.07c.09-.05.17-.12.26-.19l.48-.38c.07-.06.12-.14.14-.23.04-.08.06-.17.06-.27l-.03-.19c-.02-.09-.06-.17-.13-.24-.03-.05-.07-.09-.13-.13-.07-.06-.15-.1-.24-.13l-.19-.03c-.13,0-.24.03-.35.1h0Z"/>
        <path class="cls-1" d="M52.04,74.54c-.11.18-.22.36-.32.54-.07.13-.14.27-.19.41-.02.05-.03.1-.05.15-.04.13-.02.26.03.39.04.12.11.23.22.29l.12.05c.09.02.17.02.26,0,.13-.02.25-.07.34-.17.04-.04.07-.08.11-.12.1-.11.19-.24.26-.36.11-.18.21-.36.32-.54.08-.14.11-.33.06-.49-.04-.15-.16-.31-.29-.38-.15-.08-.33-.12-.49-.06s-.3.15-.38.29h0Z"/>
        <path class="cls-1" d="M39.75,86.78c-.05.11-.1.22-.15.33-.04.09-.06.14-.08.23-.02.08-.04.16-.04.24,0,.09.03.19.04.29.02.09.07.16.13.23.05.05.1.08.16.11.06.03.13.05.2.04.09,0,.18-.02.26-.07.09-.05.18-.08.25-.16s.16-.16.21-.25c.06-.1.12-.21.18-.31.05-.08.08-.16.08-.25.02-.09.02-.18-.01-.27-.02-.09-.06-.16-.12-.23-.05-.07-.11-.13-.19-.17l-.16-.07c-.12-.03-.24-.03-.36,0l-.16.07c-.1.06-.18.14-.24.24h0Z"/>
        <path class="cls-1" d="M67.59,81.85c-.07.1-.16.2-.22.32-.04.07-.08.14-.1.22-.02.09-.03.16-.02.24l.02.16c0,.08.02.16.06.23.03.05.07.09.12.13.04.04.09.07.15.08.08.02.16.02.24,0l.15-.03c.08-.02.14-.04.21-.08.08-.05.13-.1.18-.16.12-.14.22-.29.32-.44.05-.07.07-.15.08-.24.02-.09.02-.17-.01-.26-.02-.08-.06-.16-.12-.22-.05-.07-.11-.13-.18-.17l-.15-.07c-.11-.03-.23-.03-.34,0l-.15.07c-.1.06-.17.13-.23.23h0Z"/>
      </g>
      <rect class="cls-2" width="100" height="100"/>
    </g>
  </g>
</svg>