<?xml version="1.0" encoding="UTF-8"?>
<svg id="Capa_2" data-name="Capa 2" xmlns="http://www.w3.org/2000/svg" viewBox="0 0 100 100">
  <defs>
    <style>
      .cls-1 {
        fill: #fff;
      }

      .cls-2 {
        fill: none;
      }

      .cls-3 {
        fill: #4a2d2d;
      }

      .cls-4 {
        fill: #dbae6d;
      }
    </style>
  </defs>
  <g id="COLOR">
    <g>
      <g>
        <g>
          <path class="cls-4" d="M74.19,21.12c-.02-.19-.11-.35-.24-.47-1.96-3.42-6.11-5.27-10-4.61-3.17.54-7.81,3.48-8.28,6.99-.58,4.28,6.72,5.82,9.72,5.6,4.16-.3,7.56-3.09,8.73-7.05.09-.13.12-.29.08-.46Z"/>
          <path class="cls-4" d="M88.2,27.13c-.15-.69-1.15-.56-1.67-.74-.81-.28-1.61-.45-2.47-.51-1.1-.07-2.2.02-3.28.24-2.04.42-3.91,1.44-5.42,2.87-1.48,1.41-2.49,3.37-2.85,5.37-.22,1.22-.47,3.42.55,4.38,1.21,1.13,4.23,1.02,5.73.91,2.1-.15,4.16-.86,5.9-2.06,3.48-2.38,4.35-6.52,3.51-10.48Z"/>
          <path class="cls-4" d="M86.23,49.35c-1.51-3.87-4.91-6.85-9.21-5.74-.22.06-.36.18-.43.33-.02.02-.03.03-.05.05-2.67,3.62-4.05,8.08-1.7,12.24,1.78,3.16,6.13,5.56,9.74,4.17,3.99-1.54,2.82-8.03,1.65-11.05Z"/>
          <path class="cls-4" d="M68.73,36.66c-2.32-3.14-7.4-5.64-11.19-3.76-.85.42-1.19,1.54-1.41,2.39-.3,1.13-.51,2.3-.48,3.48.06,2.33.91,4.65,2.38,6.46,1.44,1.77,3.5,3.05,5.72,3.57,1.54.35,4.08.67,5.34-.53,1.28-1.21,1.66-3.91,1.65-5.59,0-2.14-.75-4.3-2.02-6.01Z"/>
          <path class="cls-4" d="M45.78,12.24c-1.85-.87-4.01-1.13-6.03-.9-1.04.12-2.08.38-3.03.83-.82.38-1.92.99-2.37,1.81-.44.81-.4,2.09-.27,2.98.15,1.02.53,1.99,1.06,2.87,1.03,1.74,2.64,3.2,4.51,4,3.62,1.55,8.5,1.25,11.32-1.68,1.5-1.56.48-4.14-.53-5.72-1.12-1.75-2.77-3.31-4.66-4.19Z"/>
          <path class="cls-4" d="M30.15,25.28c-.46-.43-2.66-.33-3.48-.23-3.32.44-6.76,2.73-8.25,5.52-.99,1.86-1.14,4.14-.77,6.18.26,1.45.89,4.54,2.46,5.12,1.82.68,4.64-.43,6.21-1.28,1.83-.99,3.41-2.39,4.59-4.11,2.34-3.41,2.42-8.28-.76-11.21Z"/>
          <path class="cls-4" d="M53.14,34.13c-.04-.09-.07-.17-.12-.25-1.84-3.47-6.33-4.49-9.91-3.49-3,.83-8.4,4.3-7.87,8.06.25,1.81,2.46,3.26,3.94,3.97,2.17,1.04,4.6,1.29,6.94.74,2.08-.49,4.04-1.69,5.42-3.32,1.16-1.37,2.36-3.87,1.6-5.71Z"/>
          <path class="cls-4" d="M38.72,46.45c-.16-.64-.86-.55-1.38-.71-1.95-.59-3.71-1.14-5.79-.97s-3.97.91-5.61,2.11c-2.3,1.69-5.91,6.71-3.48,9.42,6.42,7.17,18.39-1.48,16.26-9.86Z"/>
          <path class="cls-4" d="M57.63,52.71c-.92-4.21-4.31-7.67-8.75-7.63-.5,0-.69.4-1.01.71-.79.76-1.52,1.46-2.08,2.41-.49.84-.85,1.75-1.08,2.69-.23.95-.34,1.93-.31,2.9.01.47.05.94.13,1.41.07.42.32.94.32,1.36.62,2.01,1.9,3.84,3.59,5.1,1.31.97,3.76,2.27,5.45,1.63,1.48-.57,2.71-3.01,3.24-4.35.78-1.94.95-4.18.51-6.22Z"/>
          <path class="cls-4" d="M70.3,57.03c-.2-.24-.44-.26-.74-.25-.97.01-1.88-.29-2.88-.21s-1.91.33-2.81.7c-1.76.73-3.36,1.94-4.44,3.52-1.98,2.89-2.7,8.46-.29,11.36,1.12,1.35,3.58.22,4.93-.28,2.06-.76,3.97-1.93,5.41-3.59,2.73-3.14,3.67-7.87.82-11.25Z"/>
          <path class="cls-4" d="M88.07,71.23c-.09-.08-.19-.15-.26-.22-.41-.4-.8-.8-1.26-1.15-1.08-.81-2.31-1.33-3.61-1.65-1.83-.45-3.87-.54-5.68.04-1.85.59-3.28,1.99-4.4,3.53-.89,1.23-2.57,3.73-2.13,5.37.42,1.58,2.61,2.83,3.97,3.45,1.9.87,4.21,1.17,6.23.58,3.83-1.11,7.26-5.15,7.69-9.11.04-.36-.27-.61-.55-.83Z"/>
          <path class="cls-4" d="M67.38,81.18c-.39-1.81-2.36-2.15-3.94-2.51-2.15-.49-4.35-.49-6.49.05-4.01,1.01-7.52,4.19-7.36,8.57.04,1,1.17,1.6,1.87,2.12.92.67,1.97,1.16,3.07,1.47,2.15.6,4.61.53,6.58-.61.08-.04.15-.09.23-.14,2.73-1.73,6.84-5.23,6.04-8.95Z"/>
          <path class="cls-4" d="M49.37,72.19c-.1-2.23-.71-4.39-1.96-6.25-2.5-3.71-6.98-5.54-11.12-3.5-.37.18-.99,2.38-1.14,3.22-.53,2.86.1,5.94,1.98,8.22,2.18,2.64,7.81,4.93,11.03,2.76,1.36-.92,1.28-2.98,1.21-4.45Z"/>
          <path class="cls-4" d="M27.26,66.42c-.77-1.88-1.85-3.53-3.46-4.81-1.64-1.3-3.7-2.01-5.8-1.88-1.02.06-2.03.31-2.96.72-.54.24-1.09.47-1.58.79-.24.16-.51.33-.69.57-.26.34-.16.68-.14,1.09.04.9-.12,1.76,0,2.66.12.92.38,1.82.76,2.66.76,1.7,2,3.18,3.56,4.2,1.73,1.13,3.86,1.74,5.93,1.67,1.53-.05,4.18-.42,5.12-1.84,1.06-1.61-.1-4.25-.74-5.82Z"/>
          <path class="cls-4" d="M37.93,78.8c-1.97-.93-4.27-1.1-6.37-.56-1.08.28-2.11.74-3.02,1.38-.62.44-2.16,1.53-2.14,2.38.06,3.77,3.75,7.15,7.1,8.26,2.98.99,9.24.77,10.65-2.78,1.48-3.73-3.42-7.35-6.22-8.68Z"/>
          <path class="cls-3" d="M28.91,25.92c-3.9,1.45-7.47,5.04-8.33,9.21-.09.41.53.74.73.31,1.78-3.91,4.04-6.78,7.9-8.83.37-.2.11-.84-.29-.69h0Z"/>
          <path class="cls-3" d="M52.23,34.18c-3.59-2.02-8.68-2.04-11.84.86-.37.34.1.84.5.65,3.71-1.76,7.11-2.4,11.05-.81.4.16.66-.49.29-.69h0Z"/>
          <path class="cls-3" d="M73.25,21.25c-2.81-1.78-8.99-2.94-11.58-.22-.33.35.08.83.49.64,3.59-1.72,7.18-.8,10.78.31.45.14.69-.5.31-.73h0Z"/>
          <path class="cls-3" d="M62.17,37.42c2.83,2.68,4.99,5.43,5.36,9.43.03.33.57.47.63.08.59-4.19-2.37-7.64-5.39-10.12-.41-.34-1,.22-.6.6h0Z"/>
          <path class="cls-3" d="M76.94,44.2c-1.56,3.59-1.19,8.49,1.93,11.19.3.26.85-.09.58-.45-2.35-3.14-3.47-6.55-1.83-10.35.2-.46-.48-.86-.68-.4h0Z"/>
          <path class="cls-3" d="M69.46,57.14c-4.14.53-8.07,5.45-8.41,9.47-.04.44.62.49.75.1.69-2.1,1.36-3.94,2.92-5.57,1.45-1.52,3.18-2.21,4.95-3.21.34-.19.22-.84-.21-.79h0Z"/>
          <path class="cls-3" d="M36.31,63.46c-.02,3.8,2.8,7.61,6.38,8.88.32.11.6-.36.34-.58-1.19-1.01-2.56-1.76-3.63-2.92-1.38-1.51-2.23-3.33-2.3-5.38-.02-.5-.78-.51-.79,0h0Z"/>
          <path class="cls-3" d="M22.73,55.82c3.9.68,8.34-.76,10.82-3.93.3-.38-.16-.87-.54-.54-3.01,2.67-6.12,3.91-10.18,3.68-.45-.03-.56.71-.11.79h0Z"/>
          <path class="cls-3" d="M50.16,87.34c4.03,1.13,8.66.28,11.87-2.49.37-.31-.11-.92-.51-.66-3.52,2.19-7.01,3.1-11.16,2.43-.47-.08-.68.59-.2.72h0Z"/>
        </g>
        <path class="cls-3" d="M43.88,41.74c.24,0,.48-.01.71-.1.25-.09.47-.31.46-.6s-.19-.5-.46-.6c-.23-.08-.47-.09-.71-.1-.37-.01-.72.33-.7.7s.31.71.7.7h0Z"/>
        <path class="cls-3" d="M25.48,39.74c.17-.09.38-.17.53-.29.21-.16.32-.39.21-.65-.1-.23-.36-.37-.61-.3-.23.07-.46.2-.68.31-.26.12-.34.51-.2.74.16.26.48.34.74.2h0Z"/>
        <path class="cls-3" d="M27.87,36.94c.1-.03.2-.07.3-.11.05-.02.11-.05.16-.07.12-.06.18-.15.26-.25.11-.15.1-.37.03-.53-.07-.17-.21-.29-.39-.34-.24-.07-.48.02-.7.09-.16.05-.29.15-.38.29-.08.14-.11.33-.06.49.1.31.44.55.78.44h0Z"/>
        <path class="cls-3" d="M47.58,22.41c.14-.03.28-.06.42-.09.06-.02.13-.03.19-.05.14-.05.24-.13.34-.22.33-.3.13-.81-.25-.93-.33-.11-.72.02-1.05.09s-.54.46-.44.77c.11.34.43.51.77.44h0Z"/>
        <path class="cls-3" d="M65.8,27c.14.02.27.06.41.05.15,0,.29-.04.44-.1.16-.06.28-.14.37-.29.08-.13.11-.33.06-.48s-.14-.3-.29-.37c-.16-.08-.3-.09-.48-.06-.15.02-.28.06-.42.13-.12.06-.22.16-.32.25-.29.24-.14.81.23.87h0Z"/>
        <path class="cls-3" d="M70.02,25.48s.05-.07.08-.1c0,0,0,0,0-.01.05-.07.07-.15.07-.23.02-.08.01-.16-.01-.25l-.06-.15s-.04-.08-.09-.13c-.03-.03-.09-.07-.12-.09,0,0,0,0,0,0-.05-.02-.1-.04-.15-.06l-.16-.02c-.1,0-.24.03-.32.09-.04.02-.07.05-.11.08-.1.06-.17.13-.23.23-.06.1-.09.21-.09.32l.02.17c.03.11.09.2.17.28.06.06.13.11.21.13.08.04.16.06.25.06.12,0,.22-.03.32-.09.1-.06.17-.13.23-.23h0Z"/>
        <path class="cls-3" d="M83,36.83c.53.04,1.69.17,1.69-.65s-1.16-.69-1.69-.65c-.35.03-.65.28-.65.65s.3.62.65.65h0Z"/>
        <path class="cls-3" d="M85.65,34.87l.08-.07c.05-.05.09-.11.11-.17.03-.06.05-.13.05-.21l-.02-.14c-.03-.09-.07-.17-.14-.24l-.08-.07-.13-.1-.15-.06c-.08-.03-.17-.03-.25-.01-.06,0-.11.01-.16.04-.05.02-.1.04-.14.08-.05.03-.09.07-.11.11-.04.04-.07.09-.08.14-.04.08-.06.16-.05.25l.02.17.06.15.1.13.13.1.15.06c.08.03.17.03.25.01.06,0,.11-.01.16-.04.08-.03.15-.07.2-.13h0Z"/>
        <path class="cls-3" d="M85.11,56.5s.02,0,.03-.01l-.17.07s.03,0,.04-.01l-.18.02s.04,0,.06,0l-.18-.02s.08.01.12.02c.09.01.19.01.28-.01.11-.03.2-.1.29-.17,0,0,0,0,0,0l-.13.1h0s-.1.04-.14.06h0c-.05,0-.1.01-.16.02.01,0,.02,0,.04,0l-.14-.02s.02,0,.03,0l.13.02c.07,0,.14-.01.2-.04.11-.05.17-.11.24-.21.03-.05.06-.11.07-.16.02-.06.02-.13.03-.19l-.02.16s0-.01,0-.01c.02-.12.04-.23,0-.35-.06-.17-.17-.33-.33-.42-.14-.07-.32-.14-.48-.12-.13,0-.24.03-.35.1-.11.06-.19.15-.25.25-.09.17-.12.35-.07.54.05.17.17.33.32.42.22.13.48.12.71,0h0Z"/>
        <path class="cls-3" d="M54.47,60.31c.14,0,.28-.01.42-.05.1-.03.19-.06.28-.12.12-.09.22-.26.21-.42,0-.14-.06-.27-.16-.38-.08-.09-.2-.13-.32-.16-.14-.04-.29-.05-.44-.05-.31-.02-.6.28-.59.59s.26.61.59.59h0Z"/>
        <path class="cls-3" d="M55.35,57.95c.76,0,.76-1.18,0-1.18s-.76,1.18,0,1.18h0Z"/>
        <path class="cls-3" d="M60.94,45.59c.54,0,1.14.04,1.5-.45.1-.14.1-.41,0-.55-.35-.49-.96-.44-1.5-.45-.38,0-.74.34-.72.72s.32.73.72.72h0Z"/>
        <path class="cls-3" d="M63.58,47.42l.27-.07c.18-.05.34-.24.33-.43s-.13-.38-.33-.43l-.27-.07c-.33-.08-.66.16-.66.5s.33.58.66.5h0Z"/>
        <path class="cls-3" d="M83.39,77.31c.28.04.56.07.83-.01.25-.08.47-.23.66-.4s.23-.51.09-.72c-.14-.22-.4-.34-.67-.27-.04,0-.18.03-.07.02-.07,0-.14,0-.21,0-.06,0-.12,0-.18,0-.03,0-.06,0-.09,0,.09.01.09.01.01,0-.37-.08-.8.11-.89.5-.08.34.1.83.5.89h0Z"/>
        <path class="cls-3" d="M86.57,74.03c.07-.08.13-.16.21-.24.08-.09.13-.19.15-.32s0-.25-.07-.35c-.05-.08-.12-.15-.2-.2-.06-.04-.13-.06-.2-.07-.07-.02-.15-.01-.22,0l-.15.02.16-.02c-.05,0-.1,0-.16,0-.24,0-.46.12-.58.33-.11.19-.12.4-.03.6s.23.33.44.39c.12.03.24.03.36,0,.11-.03.21-.09.3-.17h0Z"/>
        <path class="cls-3" d="M67.26,67.8h.15c.07,0,.15-.03.2-.09.05-.05.09-.13.08-.2,0-.16-.12-.27-.28-.28h-.15c-.07,0-.15.03-.2.08s-.09.13-.08.2.03.15.08.2.13.09.2.08h0Z"/>
        <path class="cls-3" d="M36.77,51.42c.05-.03.1-.06.15-.1.09-.07.08-.06.15-.15.05-.05.08-.1.1-.17.02-.04.03-.08.05-.12l-.19.32c.12-.09.22-.24.24-.39l.02-.18c0-.09-.02-.18-.06-.25-.05-.13-.14-.25-.27-.32-.12-.06-.25-.11-.38-.11-.09,0-.18.02-.26.04h.38c-.07-.02-.16-.04-.23-.04l-.2.03s-.08.02-.11.04c-.06.02-.11.05-.17.07-.09.05-.16.11-.21.2-.07.07-.11.16-.14.26-.03.1-.04.2-.01.3,0,.1.03.2.09.28.1.16.26.31.45.35s.4.03.59-.08h0Z"/>
        <path class="cls-3" d="M36.97,48.24c.75,0,.75-1.16,0-1.16s-.75,1.16,0,1.16h0Z"/>
        <path class="cls-3" d="M25.94,71.68c.82,0,.82-1.27,0-1.27s-.82,1.27,0,1.27h0Z"/>
        <path class="cls-3" d="M45.21,75.47c.07-.07.15-.15.22-.23.06-.07.11-.14.13-.23.03-.11.02-.23-.03-.33-.04-.08-.09-.15-.16-.21-.08-.07-.2-.12-.31-.11-.15.01-.31.04-.46.06-.2.03-.39.24-.43.43-.04.16-.02.33.06.48.2.35.69.41.98.13h0Z"/>
        <path class="cls-3" d="M48.14,75.48c.79,0,.79-1.23,0-1.23s-.79,1.23,0,1.23h0Z"/>
        <path class="cls-3" d="M39.91,88.54c.21-.01.47,0,.67-.06.3-.09.65-.33.63-.68s-.29-.58-.6-.68c-.21-.07-.47-.05-.7-.06-.39-.02-.76.36-.74.74s.33.76.74.74h0Z"/>
        <path class="cls-3" d="M65.24,84.06c.08-.02.16-.03.23-.06.13-.05.24-.11.33-.23.08-.11.14-.25.14-.38,0-.11-.03-.22-.09-.32-.08-.15-.23-.24-.38-.29-.08-.03-.16-.04-.23-.06-.24-.05-.5,0-.68.18-.12.14-.2.3-.2.49,0,.18.08.36.2.49.18.18.43.23.68.18h0Z"/>
        <path class="cls-1" d="M28.91,28.44c-.08.06-.19.12-.25.19-.07.07-.13.16-.18.24s-.09.17-.1.27c-.02.14-.04.25,0,.4.03.11.1.24.18.31.09.08.2.16.31.18l.19.03c.07,0,.13-.02.2-.03.1-.01.19-.04.27-.1.08-.05.2-.13.25-.19.07-.08.13-.17.19-.25l.08-.18c.03-.1.04-.2.01-.31,0-.07-.02-.13-.05-.19-.03-.09-.08-.18-.16-.25-.1-.09-.21-.16-.34-.2-.1-.03-.2-.04-.31-.01-.1,0-.2.03-.28.09h0Z"/>
        <path class="cls-1" d="M41.17,12.73c-.58-.31-1.21-.45-1.85-.24-.73.24-1.33.85-1.27,1.53.04.49.43.79.92.7.13-.03.26-.08.38-.15l-.43.12c.71-.08,1.16-.66,1.89-.58s.99-1.05.37-1.38h0Z"/>
        <path class="cls-1" d="M65.94,18.55h.16s.05,0,.07,0c.16,0,.27-.04.41-.11.47-.25.47-1,0-1.25-.14-.07-.25-.1-.41-.11-.02,0-.05,0-.07,0h-.16c-.19,0-.39.08-.52.21s-.23.34-.22.52.07.39.22.52.32.22.52.22h0Z"/>
        <path class="cls-1" d="M44.61,31.89c.34,0,.34-.53,0-.53s-.34.53,0,.53h0Z"/>
        <path class="cls-1" d="M27.18,50.08l.53-.5c.08-.07.16-.15.23-.23.09-.11.17-.22.23-.35,0,.01.12-.27.04-.12.12-.23.16-.55,0-.78-.09-.13-.15-.19-.28-.28-.23-.17-.55-.11-.78,0,.07-.03.04-.02-.02-.01-.14.02-.26.12-.37.2-.12.09-.23.18-.33.29l-.53.5c-.35.33-.36.96,0,1.29s.92.35,1.29,0h0Z"/>
        <path class="cls-1" d="M48.59,47.23c-.22.23-.4.51-.37.84l.03-.26c-.05.13-.08.26-.08.41,0,.25.15.56.39.67.01,0,.03.01.04.02.04.02.07.03.11.05.1.05.21.08.33.07.05,0,.1,0,.15.01l-.49-.13c.29.18.61.19.92.09.34-.11.66-.37.74-.74.06-.28.04-.57-.11-.82-.34-.58-1.19-.71-1.67-.21h0Z"/>
        <path class="cls-1" d="M46.31,52.59c.08.45.22.86.47,1.24.28.42.86.33,1.03-.13.16-.43.18-.87.15-1.33-.03-.51-.43-.9-.96-.83s-.79.55-.7,1.05h0Z"/>
        <path class="cls-1" d="M58.13,35.98c-.04.2-.08.39-.07.59.01.31.19.7.53.78s.66-.11.83-.39c.11-.17.17-.37.23-.57.12-.39-.14-.87-.55-.97s-.88.12-.97.55h0Z"/>
        <path class="cls-1" d="M77.07,32.26c.04-.07.08-.14.12-.2.03-.04.18-.2.04-.06.1-.1.19-.21.31-.31.05-.04.1-.08.15-.12.07-.06.08-.07.03-.02-.1.07-.04.03.16-.12.15-.13.28-.26.37-.44.25-.46.02-.99-.47-1.15-.98-.32-1.94.67-2.36,1.45-.24.44-.13,1.07.35,1.32.45.24,1.06.13,1.32-.35h0Z"/>
        <path class="cls-1" d="M82.24,48.71c.12.1.23.21.38.28.02,0,.04.02.06.03.09.06.19.09.29.09.1.02.21.02.31-.01.13-.04.26-.1.35-.2s.16-.22.2-.35l.03-.21c0-.14-.04-.27-.11-.4,0-.02-.02-.04-.03-.06-.07-.14-.18-.26-.28-.37-.08-.08-.17-.14-.27-.18-.1-.05-.21-.08-.33-.07-.12,0-.23.02-.33.07-.11.03-.2.09-.27.18-.15.16-.26.38-.25.6,0,.21.08.46.25.6h0Z"/>
        <path class="cls-1" d="M68.85,64.54s.09-.06.14-.09c.17-.12.32-.27.37-.48,0-.02,0-.04.01-.06l.03-.19c0-.1-.02-.19-.06-.28-.06-.14-.16-.28-.3-.35-.21-.11-.43-.18-.67-.1-.05.02-.1.04-.15.05-.14.04-.26.11-.36.21l-.13.17c-.07.13-.11.27-.11.42,0,.11.02.22.07.32.03.1.09.19.17.26.07.08.16.14.26.17.1.05.2.08.32.07.15,0,.29-.04.42-.11h0Z"/>
        <path class="cls-1" d="M40.31,64.94c.28.18.55.38.85.54.18.09.35.2.55.24.29.06.52.03.79-.09.23-.1.37-.41.37-.65,0-.84-.99-1.3-1.6-1.69-.42-.27-1.08-.1-1.31.34-.25.48-.1,1.02.34,1.31h0Z"/>
        <path class="cls-1" d="M16.21,63.52l.22-.13c.21-.12.34-.35.34-.59s-.13-.47-.34-.59l-.22-.13c-.26-.15-.59-.15-.84,0s-.41.43-.41.72.16.57.41.72.59.15.84,0h0Z"/>
        <path class="cls-1" d="M29.87,83.3c.6-.1,1.33-.16,1.78-.64.33-.35.31-1-.16-1.24-.67-.33-1.43-.12-2.13.02-.5.09-.82.72-.67,1.18.17.54.65.76,1.18.67h0Z"/>
        <path class="cls-1" d="M61.23,81.57c1.06,0,1.06-1.65,0-1.65s-1.06,1.65,0,1.65h0Z"/>
        <path class="cls-1" d="M74.74,75.43c.37-.47.89-.96.86-1.6-.01-.27-.12-.5-.33-.66-.23-.18-.46-.19-.74-.15-.54.08-.89.6-1.23.98-.18.21-.3.44-.3.72,0,.25.11.55.3.72.37.34,1.08.44,1.43,0h0Z"/>
      </g>
      <rect class="cls-2" width="100" height="100"/>
    </g>
  </g>
</svg>