<?xml version="1.0" encoding="UTF-8"?>
<svg id="Capa_2" data-name="Capa 2" xmlns="http://www.w3.org/2000/svg" viewBox="0 0 100 100">
  <defs>
    <style>
      .cls-1 {
        fill: #fff;
      }

      .cls-2 {
        fill: none;
      }

      .cls-3 {
        fill: #fccc86;
      }

      .cls-4 {
        fill: #4a2d2d;
      }

      .cls-5 {
        fill: #fddcac;
      }
    </style>
  </defs>
  <g id="COLOR">
    <g>
      <g>
        <g>
          <path class="cls-5" d="M79.46,66.17c-.43-2-1.06-4.44-2.59-5.9-1.91-1.81-4.48-.11-5.98,1.37-1.77,1.74-2.86,4.06-3.83,6.31-1.51,3.51-2.54,9.18.26,12.32,2.78,3.1,7.02,2.12,9.15-1.13,1.23-1.87,1.99-4.2,2.61-6.33.64-2.19.86-4.39.38-6.64Z"/>
          <path class="cls-5" d="M95,74.14c-3.42-.99-6.64,2.19-9.28,3.9-2.28,1.48-4.7,2.83-6.82,4.53-2.57,2.06-4.68,7.89-1.01,10.01,1.72.99,4.33.7,6.2.33,2.28-.45,4.01-1.71,5.47-3.49,1.53-1.87,2.92-3.72,4.67-5.41,1.6-1.55,3.14-3.31,3.44-5.6.26-1.97-.72-3.71-2.66-4.27Z"/>
          <path class="cls-5" d="M71.18,89.94c-1.37-2.89-3.58-5.64-5.48-8.21-1.57-2.13-3.62-4.13-6.09-5.17-1.71-.72-6.7-1.33-6.97,1.41-.26,2.65-.37,4.99.66,7.51.93,2.27,2.48,4.27,4.37,5.82,2.33,1.9,4.99,3.85,7.79,5,1.85.76,4.09.92,5.47-.79,1.28-1.59,1.07-3.83.25-5.56Z"/>
          <path class="cls-4" d="M53.36,78.33c2.06,3.44,4.41,6.84,7.12,9.8,2.49,2.71,5.4,5.71,8.54,7.65.44.27.9-.35.55-.71-1.32-1.34-2.92-2.42-4.33-3.68s-2.78-2.57-4.06-3.96c-2.72-2.95-4.8-6.38-7.29-9.51-.24-.3-.7.08-.52.4h0Z"/>
          <path class="cls-4" d="M77.67,91.57c3.51-1.76,6.77-4.23,9.77-6.74,2.97-2.48,6.09-5.27,8.32-8.46.24-.35-.29-.73-.58-.44-2.72,2.72-5.17,5.61-8.11,8.13-3.07,2.62-6.4,4.72-9.75,6.94-.36.24-.05.77.34.58h0Z"/>
          <path class="cls-1" d="M72.36,62.75c-.1.07-.2.14-.29.2-.18.13-.29.25-.43.42-.23.29-.46.57-.53.94-.13.65.38,1.16,1.04,1.04.37-.07.65-.3.94-.53.13-.1.23-.19.33-.32s.19-.26.29-.4c.24-.34.15-.92-.15-1.19s-.83-.41-1.19-.15h0Z"/>
          <path class="cls-1" d="M70.66,68.02l-.16.47c-.06.17.07.39.24.43.19.04.37-.06.43-.24l.16-.47c.06-.17-.07-.39-.24-.43-.19-.04-.37.06-.43.24h0Z"/>
          <path class="cls-1" d="M58.19,79.67c.26.23.51.48.86.57.3.07.62,0,.84-.22s.29-.54.22-.84c-.09-.35-.34-.6-.57-.86-.16-.18-.44-.28-.67-.28s-.51.1-.67.28-.29.42-.28.67.09.5.28.67h0Z"/>
          <path class="cls-1" d="M83.91,84.12c.11-.15.23-.3.31-.47.04-.09.09-.18.12-.28s.03-.22.04-.32c.01-.2-.03-.37-.12-.56-.12-.25-.41-.37-.67-.38-.31-.02-.69.2-.9.43-.17.19-.29.41-.43.62-.26.42-.1,1.07.34,1.3.22.12.49.18.73.1s.42-.23.57-.44h0Z"/>
          <path class="cls-4" d="M73.28,79.88l.18-.19c.11-.12.19-.23.25-.38l-.14.23c.09-.11.17-.21.21-.34.04-.17.02-.38-.11-.5s-.32-.16-.5-.11c-.14.04-.24.12-.34.21l.23-.14c-.15.06-.26.14-.38.25l-.18.18c-.21.2-.22.59,0,.79s.57.23.79,0h0Z"/>
          <path class="cls-4" d="M74.73,77.14c.61,0,.61-.95,0-.95s-.61.95,0,.95h0Z"/>
          <path class="cls-4" d="M84.22,90.89h.43c.2,0,.39-.18.38-.38s-.17-.38-.38-.38h-.43c-.2,0-.39.18-.38.38s.17.38.38.38h0Z"/>
          <path class="cls-4" d="M63.53,94.11h.08s.02-.01.04-.02c.08,0,.16-.02.24-.06.03-.03.07-.05.1-.08.05-.04.08-.09.1-.15.03-.06.04-.11.04-.18l-.02-.12c-.02-.08-.06-.15-.12-.2-.03-.03-.07-.05-.1-.08-.07-.04-.15-.06-.24-.06-.01,0-.02,0-.04,0h-.08c-.07-.01-.13,0-.19.03-.06.02-.11.05-.16.1-.05.04-.08.1-.1.16-.03.06-.04.12-.04.19,0,.13.05.26.14.34l.1.08c.08.04.16.07.24.07h0Z"/>
        </g>
        <g>
          <path class="cls-4" d="M44.15,56.6v.31c0,.05,0,.1,0,.15,0,.03,0,.06,0,.09,0,.03,0,.06.01.08.02.1.08.17.15.25.04.04.08.08.14.11.15.09.34.09.49,0,.05-.03.09-.07.13-.11.07-.08.12-.15.15-.25.02-.05.02-.11.02-.17,0-.05,0-.1,0-.15v-.31c0-.08-.01-.15-.05-.21-.02-.07-.06-.13-.11-.18-.05-.05-.11-.09-.18-.11-.07-.03-.14-.05-.21-.05-.14,0-.29.05-.39.16s-.16.24-.16.39h0Z"/>
          <g>
            <path class="cls-5" d="M30.57,71.67s.06,7.18.82,11.38.99,4.38,2.39,4.08,2.98-5.95,3.21-9.33.47-11.61-1.4-14.47-3.03-5.25-4.03-3.68-.93,11.78-.93,11.78l-.06.23Z"/>
            <path class="cls-3" d="M33.89,57.63s-3.91.41-6.53,6.88c-2.63,6.48-1.69,11.26-1.17,14.93s1.28,4.78,1.28,4.78c0,0,1.63-3.44,3.21-6.53,1.58-3.09,3.21-11.67,3.21-11.67,0,0,.23,4.9,1.75,10.15,1.52,5.25,3.03,8.98,3.79,9.1s2.1-4.32,2.39-10.5c.29-6.18-.7-9.28-2.39-12.54-1.69-3.27-4.08-4.84-5.54-4.61Z"/>
            <path class="cls-4" d="M31.85,62.15c-1.11.97-1.84,2.23-2.35,3.6-.3.8-.51,1.63-.69,2.46-.09.41-.16.83-.24,1.25-.07.38-.17.78-.1,1.17.01.08.14.09.17.02.18-.34.21-.73.27-1.1.07-.42.15-.83.24-1.25.16-.77.36-1.53.62-2.27.49-1.37,1.23-2.67,2.28-3.69.13-.13-.06-.31-.2-.2h0Z"/>
            <path class="cls-4" d="M28.21,73.17l-.05.49c0,.08-.02.16-.02.24,0,.04,0,.09,0,.13,0,.03,0,.06.02.09.01.02.03.04.04.05.04.04.1.03.14,0,.04-.03.06-.07.08-.12.01-.04.02-.08.03-.12.02-.09.02-.18.03-.26l.05-.49c0-.09-.09-.18-.17-.17-.1,0-.16.08-.17.17h0Z"/>
            <path class="cls-4" d="M36.72,64.07l.36.83c.06.14.12.28.19.41s.12.27.22.39c.05.07.18.01.18-.07-.02-.15-.08-.29-.13-.42s-.11-.28-.17-.42l-.35-.83c-.09-.22-.4-.09-.3.13h0Z"/>
            <path class="cls-4" d="M37.63,66.34c.26,1.21.47,2.44.62,3.66.07.59.14,1.18.19,1.77s0,1.19.19,1.73c.03.07.13.08.16,0,.16-.56.05-1.22,0-1.8s-.11-1.16-.19-1.74c-.18-1.24-.46-2.45-.82-3.66-.03-.09-.16-.05-.14.04h0Z"/>
            <path class="cls-4" d="M38.66,74.57v.49c0,.09,0,.19.02.27.02.08.05.17.09.23s.14.07.18,0c.04-.06.07-.15.09-.22.02-.08.03-.19.03-.28v-.49c0-.11-.1-.21-.21-.21s-.2.09-.21.21h0Z"/>
            <path class="cls-1" d="M33.77,84.25c.25-.02.4-.05.61-.14.07-.03.12-.05.18-.08.16-.1.29-.24.39-.39.05-.07.07-.13.1-.21.09-.22.11-.46.05-.7-.04-.16-.14-.33-.26-.45s-.28-.21-.45-.25c-.07-.02-.22-.04-.3-.04-.1,0-.21.03-.31.04l.28-.04c-.16.01-.31.04-.47.06l.3-.04s-.09,0-.14,0c-.15,0-.3.03-.43.1-.14.05-.26.12-.36.23-.19.19-.34.51-.33.79s.11.59.33.79.5.35.79.33h0Z"/>
            <path class="cls-1" d="M34.93,80.89l.03-.05c.05-.09.08-.18.08-.29,0-.1-.03-.2-.08-.29l-.03-.05c-.04-.08-.1-.14-.17-.19-.04-.04-.09-.07-.15-.09-.08-.04-.16-.06-.26-.06l-.18.02-.16.07c-.08.04-.14.1-.19.17-.04.04-.07.09-.09.15-.04.08-.06.16-.06.26l.02.18.07.16c.04.08.1.14.17.19.04.04.09.07.15.09.08.04.16.06.26.06l.18-.02.16-.07c.1-.06.18-.14.24-.24h0Z"/>
          </g>
          <g>
            <path class="cls-5" d="M46.9,55.1s.06,7.18.82,11.38.99,4.38,2.39,4.08,2.98-5.95,3.21-9.33.47-11.61-1.4-14.47c-1.87-2.86-3.03-5.25-4.03-3.68s-.93,11.78-.93,11.78l-.06.23Z"/>
            <path class="cls-3" d="M50.23,41.06s-3.91.41-6.53,6.88-1.69,11.26-1.17,14.93,1.28,4.78,1.28,4.78c0,0,1.63-3.44,3.21-6.53,1.58-3.09,3.21-11.67,3.21-11.67,0,0,.23,4.9,1.75,10.15,1.52,5.25,3.03,8.98,3.79,9.1s2.1-4.32,2.39-10.5c.29-6.18-.7-9.28-2.39-12.54s-4.08-4.84-5.54-4.61Z"/>
            <path class="cls-4" d="M48.18,45.58c-1.11.97-1.84,2.23-2.35,3.6-.3.8-.51,1.63-.69,2.46-.09.41-.16.83-.24,1.25-.07.38-.17.78-.1,1.17.01.08.14.09.17.02.18-.34.21-.73.27-1.1.07-.42.15-.83.24-1.25.16-.77.36-1.53.62-2.27.49-1.37,1.23-2.67,2.28-3.69.13-.13-.06-.31-.2-.2h0Z"/>
            <path class="cls-4" d="M44.55,56.6l-.05.49c0,.08-.02.16-.02.24,0,.04,0,.09,0,.13,0,.03,0,.06.02.09.01.02.03.04.04.05.04.04.1.03.14,0,.04-.03.06-.07.08-.12.01-.04.02-.08.03-.12.02-.09.02-.18.03-.26l.05-.49c0-.09-.09-.18-.17-.17-.1,0-.16.08-.17.17h0Z"/>
            <path class="cls-4" d="M53.05,47.5l.36.83c.06.14.12.28.19.41s.12.27.22.39c.05.07.18.01.18-.07-.02-.15-.08-.29-.13-.42s-.11-.28-.17-.42l-.35-.83c-.09-.22-.4-.09-.3.13h0Z"/>
            <path class="cls-4" d="M53.96,49.77c.26,1.21.47,2.44.62,3.66.07.59.14,1.18.19,1.77s0,1.19.19,1.73c.03.07.13.08.16,0,.16-.56.05-1.22,0-1.8s-.11-1.16-.19-1.74c-.18-1.24-.46-2.45-.82-3.66-.03-.09-.16-.05-.14.04h0Z"/>
            <path class="cls-4" d="M55,58v.49c0,.09,0,.19.02.27.02.08.05.17.09.23s.14.07.18,0c.04-.06.07-.15.09-.22.02-.08.03-.19.03-.28v-.49c0-.11-.1-.21-.21-.21s-.2.09-.21.21h0Z"/>
            <path class="cls-1" d="M50.11,67.68c.25-.02.4-.05.61-.14.07-.03.12-.05.18-.08.16-.1.29-.24.39-.39.05-.07.07-.13.1-.21.09-.22.11-.46.05-.7-.04-.16-.14-.33-.26-.45s-.28-.21-.45-.25c-.07-.02-.22-.04-.3-.04-.1,0-.21.03-.31.04l.28-.04c-.16.01-.31.04-.47.06l.3-.04s-.09,0-.14,0c-.15,0-.3.03-.43.1-.14.05-.26.12-.36.23-.19.19-.34.51-.33.79s.11.59.33.79.5.35.79.33h0Z"/>
            <path class="cls-1" d="M51.27,64.32l.03-.05c.05-.09.08-.18.08-.29,0-.1-.03-.2-.08-.29l-.03-.05c-.04-.08-.1-.14-.17-.19-.04-.04-.09-.07-.15-.09-.08-.04-.16-.06-.26-.06l-.18.02-.16.07c-.08.04-.14.1-.19.17-.04.04-.07.09-.09.15-.04.08-.06.16-.06.26l.02.18.07.16c.04.08.1.14.17.19.04.04.09.07.15.09.08.04.16.06.26.06l.18-.02.16-.07c.1-.06.18-.14.24-.24h0Z"/>
          </g>
          <g>
            <path class="cls-5" d="M63.24,41.22s.06,7.18.82,11.38.99,4.38,2.39,4.08c1.4-.29,2.98-5.95,3.21-9.33s.47-11.61-1.4-14.47c-1.87-2.86-3.03-5.25-4.03-3.68s-.93,11.78-.93,11.78l-.06.23Z"/>
            <path class="cls-3" d="M66.56,27.17s-3.91.41-6.53,6.88c-2.63,6.48-1.69,11.26-1.17,14.93s1.28,4.78,1.28,4.78c0,0,1.63-3.44,3.21-6.53s3.21-11.67,3.21-11.67c0,0,.23,4.9,1.75,10.15,1.52,5.25,3.03,8.98,3.79,9.1s2.1-4.32,2.39-10.5-.7-9.28-2.39-12.54c-1.69-3.27-4.08-4.84-5.54-4.61Z"/>
            <path class="cls-4" d="M72.55,54.28c-.64-2-1.68-3.87-2.38-5.86-.73-2.08-1.3-4.22-1.68-6.39-.81-4.66-1.22-10.4-1.14-15.13,0-.07-.02-.14-.05-.21.66-6.53-5.37-14.21-11.01-16.4-4.58-1.78-8.97-.52-12.52,2.18-.11.02-.22.07-.33.16-8.08,7.07-14.14,16.74-19.35,26.01-5.65,10.05-10.27,20.69-14.49,31.41-1.16,2.95-2.27,5.93-3.35,8.91-1.06,2.92-2.27,5.84-3.02,8.86-.22.87,1.09,1.51,1.5.63,2.22-4.76,3.77-9.88,5.7-14.77,2.12-5.38,4.31-10.73,6.67-16,1.6-3.57,3.26-7.12,5.02-10.63,2.89-.15,5.76-.02,7.87,2.35,2.08,2.34,3.13,5.25,3.54,8.3-.03,1.27-.1,2.27-.15,3.56-.15,3.54-.71,7.04-1.59,10.48-.54,2.12-1.21,4.2-1.98,6.24-.77,2.03-2.11,4.08-2.58,6.19-.06.28.3.54.52.3,1.36-1.5,2.1-3.78,2.86-5.63.95-2.31,2.95-11.37,3.18-12.42.16,1.26,2.46,15.11,4.89,18.81.39.6,1.45.24,1.21-.51-.64-2-1.68-3.87-2.38-5.86-.73-2.08-1.3-4.22-1.68-6.39-.79-4.54-1.2-10.09-1.14-14.75.21-3.36-1.59-6.77-3.83-9.19-1.9-2.06-5.22-2.95-8.15-2.66,3.15-6.21,6.59-12.28,10.47-18.05,1.52-2.25,3.12-4.41,4.78-6.53,4.02.51,7.41,3.24,9.33,6.76,2.15,3.94,2.09,7.96,2.74,12.23-.01.02-.03.04-.03.07l-.13.37c-.03,1.49-.11,2.54-.17,3.97-.15,3.54-.71,7.04-1.59,10.48-.54,2.12-1.21,4.2-1.98,6.24-.77,2.03-2.11,4.08-2.58,6.19-.06.28.3.54.52.3,1.36-1.5,2.1-3.78,2.86-5.63.95-2.31,2.95-11.37,3.18-12.42.16,1.26,2.46,15.11,4.89,18.81.39.6,1.45.24,1.21-.51-.64-2-1.68-3.87-2.38-5.86-.73-2.08-1.3-4.22-1.68-6.39-.81-4.66-1.22-10.4-1.14-15.13,0-.09-.03-.17-.07-.24.01-.03.03-.06.03-.1,1.03-8-3.49-19.15-12.46-19.88,1.89-2.37,3.86-4.68,5.89-6.97.12-.14.17-.29.18-.43.53-.41,1.08-.79,1.7-1.12,2.94-1.57,6.14-1.92,9.29-.77,6.19,2.26,10.36,9.43,10.61,15.86,0,.01,0,.02,0,.04-.03,1.32-.1,2.33-.16,3.66-.15,3.54-.71,7.04-1.59,10.48-.54,2.12-1.21,4.2-1.98,6.24-.77,2.03-2.11,4.08-2.58,6.19-.06.28.3.54.52.3,1.36-1.5,2.1-3.78,2.86-5.63.95-2.31,2.95-11.37,3.18-12.42.16,1.26,2.46,15.11,4.89,18.81.39.6,1.45.24,1.21-.51Z"/>
            <path class="cls-4" d="M64.52,31.7c-1.11.97-1.84,2.23-2.35,3.6-.3.8-.51,1.63-.69,2.46-.09.41-.16.83-.24,1.25-.07.38-.17.78-.1,1.17.01.08.14.09.17.02.18-.34.21-.73.27-1.1.07-.42.15-.83.24-1.25.16-.77.36-1.53.62-2.27.49-1.37,1.23-2.67,2.28-3.69.13-.13-.06-.31-.2-.2h0Z"/>
            <path class="cls-4" d="M60.88,42.71l-.05.49c0,.08-.02.16-.02.24,0,.04,0,.09,0,.13,0,.03,0,.06.02.09.01.02.03.04.04.05.04.04.1.03.14,0,.04-.03.06-.07.08-.12.01-.04.02-.08.03-.12.02-.09.02-.18.03-.26l.05-.49c0-.09-.09-.18-.17-.17-.1,0-.16.08-.17.17h0Z"/>
            <path class="cls-4" d="M69.39,33.61l.36.83c.06.14.12.28.19.41s.12.27.22.39c.05.07.18.01.18-.07-.02-.15-.08-.29-.13-.42s-.11-.28-.17-.42l-.35-.83c-.09-.22-.4-.09-.3.13h0Z"/>
            <path class="cls-4" d="M70.3,35.89c.26,1.21.47,2.44.62,3.66.07.59.14,1.18.19,1.77s0,1.19.19,1.73c.03.07.13.08.16,0,.16-.56.05-1.22,0-1.8s-.11-1.16-.19-1.74c-.18-1.24-.46-2.45-.82-3.66-.03-.09-.16-.05-.14.04h0Z"/>
            <path class="cls-4" d="M71.33,44.11v.49c0,.09,0,.19.02.27.02.08.05.17.09.23s.14.07.18,0c.04-.06.07-.15.09-.22.02-.08.03-.19.03-.28v-.49c0-.11-.1-.21-.21-.21s-.2.09-.21.21h0Z"/>
            <path class="cls-1" d="M66.44,53.8c.25-.02.4-.05.61-.14.07-.03.12-.05.18-.08.16-.1.29-.24.39-.39.05-.07.07-.13.1-.21.09-.22.11-.46.05-.7-.04-.16-.14-.33-.26-.45s-.28-.21-.45-.25c-.07-.02-.22-.04-.3-.04-.1,0-.21.03-.31.04l.28-.04c-.16.01-.31.04-.47.06l.3-.04s-.09,0-.14,0c-.15,0-.3.03-.43.1-.14.05-.26.12-.36.23-.19.19-.34.51-.33.79s.11.59.33.79.5.35.79.33h0Z"/>
            <path class="cls-1" d="M67.6,50.44l.03-.05c.05-.09.08-.18.08-.29,0-.1-.03-.2-.08-.29l-.03-.05c-.04-.08-.1-.14-.17-.19-.04-.04-.09-.07-.15-.09-.08-.04-.16-.06-.26-.06l-.18.02-.16.07c-.08.04-.14.1-.19.17-.04.04-.07.09-.09.15-.04.08-.06.16-.06.26l.02.18.07.16c.04.08.1.14.17.19.04.04.09.07.15.09.08.04.16.06.26.06l.18-.02.16-.07c.1-.06.18-.14.24-.24h0Z"/>
          </g>
        </g>
      </g>
      <rect class="cls-2" width="100" height="100"/>
    </g>
  </g>
</svg>