<?xml version="1.0" encoding="UTF-8"?>
<svg id="Capa_2" data-name="Capa 2" xmlns="http://www.w3.org/2000/svg" viewBox="0 0 100 100">
  <defs>
    <style>
      .cls-1 {
        fill: #fff;
      }

      .cls-2 {
        fill: none;
      }

      .cls-3 {
        fill: #4a2d2d;
      }

      .cls-4 {
        fill: #fddcac;
      }
    </style>
  </defs>
  <g id="COLOR">
    <g>
      <g>
        <g>
          <path class="cls-4" d="M31.24,31.42c-.13-1.26-.4-2.53-.84-3.82-.79-2.32-2.31-4.13-4.85-4.46-2.47-.32-4.5,1.3-5.98,3.08-1.98,2.37-3.89,4.85-5.76,7.3-3.2,4.19-6.17,10.35-2.92,15.4,2.75,4.28,9.6,5.95,13.57,2.41,2.53-2.26,3.96-5.89,5.06-9.02,1.28-3.66,2.1-7.22,1.72-10.89Z"/>
          <path class="cls-3" d="M26.82,24.84c-1.96,6.87-4.78,13.15-7.82,19.58-.29.61.51,1.08.9.53,4.07-5.73,6.64-12.98,7.88-19.84.11-.62-.78-.89-.96-.26h0Z"/>
          <path class="cls-3" d="M21.82,49.83c.44,0,1.03.11,1.43-.12.24-.14.24-.5,0-.64-.4-.23-.99-.13-1.43-.12-.57.01-.57.87,0,.88h0Z"/>
          <path class="cls-3" d="M23.61,47.56c.39,0,.97.12,1.25-.23.15-.19.15-.39,0-.58-.28-.35-.86-.24-1.25-.23-.67,0-.67,1.03,0,1.04h0Z"/>
          <path class="cls-1" d="M16.1,34.95c.18-.1.34-.22.48-.37.15-.16.25-.42.17-.64-.04-.11-.08-.21-.17-.29-.16-.15-.42-.25-.64-.17-.12.05-.24.1-.36.15s-.22.15-.32.23c-.12.1-.21.33-.2.49s.05.29.15.42c.21.27.58.34.89.18h0Z"/>
          <path class="cls-1" d="M18.93,31.07c.74,0,.74-1.16,0-1.16s-.74,1.16,0,1.16h0Z"/>
        </g>
        <g>
          <path class="cls-4" d="M54.11,18.67c-2.45-3.33-5.53-6.5-9.32-8.34-3.64-1.77-9.05-2.61-12.39.27-.07.06-.14.12-.2.19-1.88,1.79-2.11,4.54-1.51,6.94,1.32,5.37,5.28,10.54,9.7,13.77,4.29,3.14,11.45,5.75,16.12,1.88,4.78-3.96.41-10.91-2.39-14.71Z"/>
          <path class="cls-3" d="M35,10.5c2.29.82,3.96,2.98,5.54,4.74s2.97,3.4,4.38,5.16c2.94,3.68,5.48,7.62,8.32,11.37.48.63,1.47.11,1.09-.64-2.28-4.48-5.54-8.6-8.78-12.43-1.62-1.91-3.3-3.77-5.05-5.57-1.57-1.61-3.05-2.98-5.28-3.51-.58-.14-.79.68-.24.88h0Z"/>
          <path class="cls-3" d="M46.64,32.49c.26,0,.54.02.8-.04.57-.13.57-1.03,0-1.15-.26-.06-.53-.04-.8-.04-.32,0-.63.29-.62.62s.27.62.62.62h0Z"/>
          <path class="cls-3" d="M49.26,33.22c.23.05.46.1.7.1.21,0,.44-.16.48-.37s-.03-.47-.23-.56c-.12-.06-.24-.12-.36-.16-.1-.03-.2-.06-.29-.08-.28-.08-.61.1-.68.39s.08.61.39.68h0Z"/>
          <path class="cls-1" d="M31.58,15.74c0,.17,0,.35.03.51.06.27.25.55.56.54s.49-.24.55-.52c.04-.17.03-.36.03-.53,0-.31-.27-.6-.59-.59s-.59.26-.59.59h0Z"/>
        </g>
        <g>
          <path class="cls-4" d="M87.84,27.81c-.53-2.5-2.29-4.66-4.54-5.85-3.16-1.67-8.02-1.37-10.94.7-2,1.43-3.6,3.51-4.55,5.77-1.2,2.83-1.99,5.87-2.36,8.92-.29,2.4.02,4.87,1.93,6.54,4.19,3.68,10.31.49,13.98-2.39,3.98-3.13,7.61-8.38,6.48-13.69Z"/>
          <path class="cls-3" d="M81.57,22.11c-3.1,2.61-6.14,5.56-7.88,9.28-1.78,3.81-3.08,8.28-4.04,12.36-.18.79.91,1.06,1.19.33,1.53-3.93,2.26-8.17,3.98-12.03s4.67-6.34,7.72-8.96c.68-.58-.3-1.55-.98-.98h0Z"/>
          <path class="cls-3" d="M83.46,36.37c.26.05.5.06.76.01.28-.05.62-.2.67-.51.03-.21-.02-.44-.22-.55-.24-.12-.41-.07-.65,0-.04.01-.07.02-.11.03.05,0,.04,0-.03,0-.02,0-.21,0-.14,0-.27-.04-.58.07-.65.37-.06.26.08.59.37.65h0Z"/>
          <path class="cls-3" d="M84.98,34c.12,0,.25,0,.37-.04s.2-.09.3-.15c.32-.19.32-.67,0-.86-.1-.06-.19-.12-.3-.15-.11-.03-.25-.03-.37-.04-.15-.01-.33.08-.43.18s-.19.28-.18.43.06.32.18.43.27.19.43.18h0Z"/>
          <path class="cls-1" d="M74.03,23.27c-.09.09-.18.18-.25.29-.04.07-.08.15-.11.22-.04.13-.03.25,0,.38.03.18.22.36.39.39.13.02.24.04.37,0,.08-.02.16-.06.23-.11.11-.07.2-.16.29-.25.12-.12.19-.29.19-.46s-.07-.35-.19-.46-.29-.2-.46-.19-.34.07-.46.19h0Z"/>
          <path class="cls-1" d="M69.95,28.48c.78,0,.78-1.21,0-1.21s-.78,1.21,0,1.21h0Z"/>
        </g>
        <g>
          <path class="cls-4" d="M57.97,47.51c-3.02-2.83-6.5-6.06-10.77-6.76-2.04-.33-4.19,0-6.15.63-1.93.62-3.7,1.94-4.75,3.69-.55.92-.9,1.96-.92,3.04-.11,4.93,5.5,8.32,9.46,9.87,2.48.97,5.12,1.51,7.77,1.67,2.19.13,5.1.21,6.88-1.32,3.54-3.05,1.25-8.22-1.52-10.81Z"/>
          <path class="cls-3" d="M37,46.53c3.73,1.07,7.26,2.5,10.71,4.28,3.24,1.67,6.25,3.89,9.53,5.44.68.32,1.45-.51.85-1.1-2.69-2.58-6.53-4.39-9.92-5.84-3.52-1.51-7.21-2.71-10.91-3.7-.59-.16-.84.74-.25.91h0Z"/>
          <path class="cls-3" d="M53.27,58.04s.05,0,.06-.02c-.01.01-.12,0-.04,0,.02,0,.05,0,.07,0-.03.01-.12-.02-.02,0,.02,0,.08.03.02,0-.09-.04.09.04.11.04.07.02.15.03.23.03.23-.02.46-.19.44-.44-.04-.56-.66-.74-1.14-.63-.27.06-.45.38-.37.65s.37.46.65.37h0Z"/>
          <path class="cls-3" d="M48.99,58.18c.08,0,.16-.01.24-.02.14-.01.24-.03.36-.1.06-.04.12-.09.18-.14.1-.08.17-.27.16-.39,0-.14-.05-.3-.16-.39-.06-.05-.12-.1-.18-.14-.12-.08-.22-.09-.36-.1-.08,0-.16-.01-.24-.02-.16-.01-.35.08-.46.19s-.2.3-.19.46.06.35.19.46.29.2.46.19h0Z"/>
          <path class="cls-1" d="M44.16,43.38c.57-.07,2.01-.1,1.88-.98s-1.5-.43-2.05-.27c-.3.09-.5.39-.46.7.04.28.31.59.62.55h0Z"/>
          <path class="cls-1" d="M48.3,44.2c.78,0,.78-1.21,0-1.21s-.78,1.21,0,1.21h0Z"/>
        </g>
        <g>
          <path class="cls-4" d="M38.55,59.97c-1.7-1.73-4.25-2.34-6.61-2.16-2.8.21-5.42,1.3-7.95,2.44-4.45,2.01-9.78,5.05-10.08,10.55-.12,2.09.79,4.37,2.43,5.7,2.02,1.65,4.82,1.28,7.23.97,5.37-.68,11.14-2.41,14.69-6.76,1.62-1.98,2.42-4.8,1.99-7.33-.23-1.41-.84-2.55-1.7-3.42Z"/>
          <path class="cls-3" d="M15.64,73.54c4.16-.84,8.24-2.21,12.12-3.93,3.77-1.68,7.86-3.7,10.89-6.55.45-.42-.12-1.13-.65-.84-3.57,2.01-6.83,4.39-10.57,6.12-3.9,1.8-7.94,3.05-12.12,4-.79.18-.45,1.36.33,1.21h0Z"/>
          <path class="cls-3" d="M28.58,75s.1-.01.14-.02c.08-.02.15-.06.23-.09.15-.07.23-.25.23-.41s-.09-.34-.23-.41c-.07-.03-.15-.08-.23-.09-.05,0-.1-.01-.14-.02-.1-.03-.19-.03-.29,0-.09.03-.17.07-.24.14-.1.11-.16.24-.16.38,0,.14.06.28.16.38.07.07.15.11.24.14.1.03.19.03.29,0h0Z"/>
          <path class="cls-3" d="M31.61,73.51c.34,0,.34-.54,0-.54s-.34.54,0,.54h0Z"/>
          <path class="cls-1" d="M23.31,63.35s.05-.08.08-.13c.03-.05-.05.04.03-.03s.14-.13.22-.19c.03-.02.07-.05.02-.01.04-.03.08-.05.12-.08.11-.06.21-.13.31-.21.3-.25.09-.67-.21-.79-.64-.25-1.33.3-1.64.82-.17.28-.07.69.22.85s.68.08.85-.22h0Z"/>
          <path class="cls-1" d="M26,62.2c.13-.08.25-.16.38-.26.11-.09.19-.2.27-.32.09-.14.08-.33,0-.47-.09-.15-.24-.22-.4-.23-.26-.01-.48.05-.72.15-.16.06-.28.14-.37.28-.11.16-.1.37-.03.55.14.33.56.49.87.29h0Z"/>
        </g>
        <g>
          <path class="cls-4" d="M67.73,78.53c-1.47-2.69-3.52-5.23-5.93-7.14-3.02-2.38-6.95-5.46-11.11-4.71-3.69.66-6.08,4.36-6.6,7.86-.84,5.61,3.16,11.14,7.22,14.56,3.68,3.1,10.19,6.33,14.85,3.44,4.92-3.05,3.93-9.69,1.57-14.01Z"/>
          <path class="cls-3" d="M49.87,72.2c1.19,3.77,3.51,6.93,6.31,9.68,1.55,1.52,3.19,2.93,4.81,4.37,1.7,1.52,3.28,3.3,5.07,4.7.54.42,1.45-.1,1.03-.79-2.06-3.37-5.84-5.85-8.69-8.51-3.06-2.86-5.91-5.96-7.66-9.81-.22-.49-1.03-.14-.87.37h0Z"/>
          <path class="cls-3" d="M57.26,90.66c.18,0,.35-.02.53-.04l.14-.06c.07-.04.12-.08.16-.15.07-.1.13-.22.12-.34,0-.1-.03-.2-.08-.29-.06-.11-.21-.24-.34-.26-.18-.03-.35-.04-.53-.04-.31,0-.61.28-.59.59s.26.6.59.59h0Z"/>
          <path class="cls-3" d="M59.89,92.08c.13-.06.26-.12.38-.2.17-.11.29-.33.22-.54-.06-.19-.24-.36-.46-.35-.19,0-.37.04-.56.08-.32.07-.48.46-.36.74.06.14.15.23.29.29.17.07.32.05.49-.03h0Z"/>
          <path class="cls-1" d="M54.25,69.41c.07-.01.07-.02,0,0,.04,0,.07,0,.11,0,.04,0,.07,0,.11,0-.06,0-.07,0-.03,0,.14.06.33.08.48.08.4-.01.66-.44.45-.79-.28-.49-.94-.54-1.44-.42-.3.08-.51.42-.41.72.1.31.4.48.72.41h0Z"/>
          <path class="cls-1" d="M59.77,73.9l.1-.07c.08-.05.14-.11.18-.18.05-.08.07-.17.07-.26,0-.09-.02-.18-.07-.26-.05-.08-.11-.14-.18-.18l-.1-.07c-.09-.05-.19-.08-.3-.08-.11,0-.21.03-.3.08-.18.11-.3.31-.3.52s.11.41.3.52c.09.05.19.08.3.08.11,0,.21-.03.3-.08h0Z"/>
        </g>
        <g>
          <path class="cls-4" d="M86.61,62.28c-.19-3.06-1.3-6.22-3.62-8.31-4.47-4.03-10.91-1.83-13.7,3.11-1.32,2.33-1.42,4.57-1.42,7.16.41,3.09,1.98,5.84,4.13,8.05,2,2.06,4.93,4.32,7.9,4.51,2.79.18,4.46-1.77,5.22-4.23.98-3.18,1.7-6.97,1.49-10.29Z"/>
          <path class="cls-3" d="M72.51,55.17c2.21,2.93,4.14,6.02,5.43,9.48.59,1.59,1.05,3.22,1.32,4.9.29,1.78.2,3.6.51,5.37.1.59,1.06.57,1.17,0,.68-3.47-.51-7.73-1.66-10.99-1.25-3.54-3.2-6.81-5.87-9.45-.44-.44-1.3.16-.9.69h0Z"/>
          <path class="cls-3" d="M85.25,64.45c.76,0,.76-1.18,0-1.18s-.76,1.18,0,1.18h0Z"/>
          <path class="cls-3" d="M84.56,66.77c.08,0,.15-.01.22-.05.07-.02.13-.06.18-.12.05-.05.09-.11.12-.18.03-.07.05-.14.05-.22l-.02-.15c-.03-.09-.07-.18-.14-.25-.11-.1-.24-.16-.39-.16-.08,0-.15.01-.22.05-.07.02-.13.06-.18.12-.05.05-.09.11-.12.18-.03.07-.05.14-.05.22l.02.15c.03.09.07.18.14.25.11.1.24.16.39.16h0Z"/>
          <path class="cls-1" d="M70.59,67.86c.07.05.14.1.22.15.13.08.32.13.48.14.17,0,.33-.08.43-.22.1-.13.16-.32.1-.48-.02-.05-.04-.11-.07-.16-.02-.05-.08-.1-.12-.15-.06-.08-.11-.11-.19-.18-.08-.05-.15-.11-.23-.16-.12-.09-.33-.1-.48-.06s-.3.15-.37.28c-.16.31-.07.65.22.84h0Z"/>
          <path class="cls-1" d="M72.71,70.54c.79,0,.79-1.22,0-1.22s-.79,1.22,0,1.22h0Z"/>
        </g>
      </g>
      <rect class="cls-2" width="100" height="100"/>
    </g>
  </g>
</svg>