<?xml version="1.0" encoding="UTF-8"?>
<svg id="Capa_2" data-name="Capa 2" xmlns="http://www.w3.org/2000/svg" viewBox="0 0 100 100">
  <defs>
    <style>
      .cls-1 {
        fill: #fcd498;
      }

      .cls-2 {
        fill: none;
      }

      .cls-3 {
        fill: #4a2d2d;
      }
    </style>
  </defs>
  <g id="COLOR">
    <g>
      <g>
        <path class="cls-1" d="M37.94,10.17c-.48-.2-.78.27-.71.68.28.06.55.15.81.29.54.29.98.72,1.34,1.21.19.26.35.53.48.82.1.22.24.56.11.79-.03.06-.12.09-.18.07-.21-.06-.35-.33-.46-.51-.14-.23-.28-.47-.43-.7-.28-.42-.63-.81-1.07-1.07-.52-.32-1.12-.41-1.72-.44-.11,0-.23-.02-.35-.02-2.74.19-4.83,2.73-3.46,5.52,1.41,2.89,5.65,2.57,7.47.32,1.92-2.39.94-5.81-1.82-6.97Z"/>
        <path class="cls-1" d="M37.92,30.29c-1.11-3.24-4.94-4.48-8.03-3.5-.68.22-.66,1.28.01,1.4.6-.37,1.26-.63,1.96-.72.39-.05.79-.05,1.18,0,.34.04.82.07,1.04.36.07.1,0,.23-.11.26-.16.05-.35,0-.5-.04-.17-.04-.35-.08-.53-.11-.35-.05-.7-.05-1.05-.03-.51.04-1.01.16-1.48.36-1.16.76-1.98,2-2.05,3.63-.15,3.11,2.5,5.69,5.6,5.01,3.01-.66,4.99-3.6,3.95-6.62Z"/>
        <path class="cls-1" d="M52.27,13.05c-2.94,1.22-4.42,4.97-2.61,7.74.24.37.76.38,1.06.15-.24-.29-.35-.67-.43-1.03-.1-.44-.15-.89-.14-1.34.03-.9.24-1.87.8-2.59.16-.21.6-.1.48.2-.3.76-.56,1.52-.56,2.35,0,.32.03.63.08.94.41.52.93.96,1.56,1.22,2.75,1.17,5.94-.74,5.97-3.79.04-3.42-3.25-5.09-6.2-3.87Z"/>
        <path class="cls-1" d="M77.54,18.76c-1.22-3.09-5.28-3.98-7.86-2.13-.27.19-.24.62,0,.78.47-.33,1.03-.6,1.6-.72.29-.06.59-.09.89-.09.31,0,.58.12.88.19.07.02.05.13-.02.13-.29,0-.56.11-.84.15-.27.04-.53.12-.8.2-.51.17-.97.4-1.4.73-.15.11-.28.24-.41.36-.14.21-.27.43-.38.66-1.25,2.78.67,6.11,3.8,6.06,3.03-.04,5.69-3.38,4.53-6.32Z"/>
        <path class="cls-1" d="M77.19,33.52c-.19-.45-.68-.51-.95-.24.03.07.06.15.09.22.36,1.09.17,2.22-.29,3.24-.05.12-.23.03-.2-.08.24-.98.1-2.02-.22-2.96-.09-.28-.22-.55-.35-.81-.28-.38-.62-.71-1.02-.97-2.52-1.67-6.58-1.03-7.37,2.23-.86,3.56,1.82,6.23,5.36,5.96,3.07-.24,6.32-3.35,4.96-6.58Z"/>
        <path class="cls-1" d="M54.92,29.14c-3.37-1.33-7.68.82-9.02,4.09-.21.52.44.82.84.61.39-1.09,1.32-2.14,2.39-2.53.12-.04.22.11.16.21-.3.52-.75.87-1.13,1.32-.35.41-.6.86-.75,1.37-.08,1.24.21,2.47.95,3.4,2.05,2.58,6.57,2.05,8.55-.33,2.21-2.66,1.26-6.88-1.99-8.16Z"/>
        <path class="cls-1" d="M86.63,42.71c-2.75.85-4.49,3.8-3.28,6.54.13.29.45.32.69.19-.05-.22-.09-.44-.12-.66-.06-.53-.03-1.07.1-1.59.24-.97.87-1.88,1.7-2.42.28-.18.57.22.34.45-.63.62-1.11,1.31-1.37,2.16-.14.46-.2.92-.17,1.4,0,.15.03.3.06.45.36.56.9,1,1.64,1.21,2.7.77,6.63-.42,6.57-3.74-.06-3.12-3.39-4.85-6.16-4Z"/>
        <path class="cls-1" d="M76.27,50.84c-2.33-1.48-6.36-.84-7.65,1.77-.22.45,0,.86.35,1.01.03-.05.06-.1.09-.15.31-.53.72-1.02,1.19-1.41,1.01-.82,2.5-1.23,3.77-.88.18.05.15.34-.04.33-.62-.02-1.25,0-1.85.16-.56.16-1.11.43-1.58.77-.47.34-.85.78-1.14,1.28-.03.05-.05.1-.08.15-.21,1.06-.15,2.16.23,3.05,1.2,2.83,5.12,4.08,7.34,1.61,1.9-2.11,1.89-6.09-.62-7.69Z"/>
        <path class="cls-1" d="M59.7,49.49c-.65-.56-1.48-.87-2.35-.96.5.32.97.69,1.38,1.12.4.43.72.91.97,1.44.21.46.56,1.1.44,1.62-.03.13-.2.14-.27.03-.14-.22-.17-.49-.24-.74-.08-.27-.18-.53-.32-.78-.25-.46-.58-.89-.93-1.28-.54-.59-1.19-1.07-1.9-1.45-3.64-.6-7.76,1.64-6.9,5.68.82,3.86,5.56,5.56,8.9,3.82,3.28-1.7,4.11-6.03,1.22-8.51Z"/>
        <path class="cls-1" d="M36.21,43.51c-1.82.28-3.86,1.79-4.09,3.72-.31,1.12-.31,2.36.05,3.53.08.26.33.36.54.32-.12-.41-.18-.84-.22-1.27-.05-.62-.01-1.27.17-1.87.16-.53.42-1.02.76-1.44.31-.38.77-.79,1.27-.87.23-.04.47.25.25.44-.36.31-.74.54-1.04.92-.29.36-.5.78-.63,1.22-.17.56-.23,1.13-.21,1.72.01.26.04.53.07.79.4.55.89,1.04,1.44,1.38,3.08,1.9,6.7.15,7.25-3.38.47-3.07-2.64-5.65-5.62-5.19Z"/>
        <path class="cls-1" d="M17.61,48.01c-2.98,1.25-4,5.35-1.31,7.49,2.51,2.01,6.48.46,7-2.69-.02-.17-.04-.33-.08-.5-.11-.5-.27-.98-.53-1.42-.24-.41-.52-.8-.88-1.12-.36-.32-.78-.58-1.23-.77-.12-.05-.08-.24.06-.2,1,.28,1.98.92,2.55,1.79.31.47.56,1.05.66,1.65.11-.05.19-.14.21-.29.6-3.41-3.82-5.06-6.45-3.95Z"/>
        <path class="cls-1" d="M20.27,35.02c-.78-2.69-4.86-4.86-6.95-2.39.42-.05.85-.07,1.29-.05.62.02,1.24.08,1.83.27.54.17,1.15.4,1.45.9.08.14-.06.33-.22.28-.53-.16-.96-.52-1.49-.7-.55-.19-1.12-.29-1.7-.27-.66.03-1.25.25-1.87.44-.16.05-.32.1-.47.16-2.65,2.42-.46,6.34,2.66,6.91,3.17.58,6.41-2.27,5.46-5.55Z"/>
        <path class="cls-1" d="M18.49,70.28c-.31-.47-.76-.86-1.28-1.16-.13,0-.27-.01-.39-.03-.27-.02-.54-.04-.81-.03-.56,0-1.11.08-1.64.25-.9.29-1.73.88-2.22,1.7-.19.31-.65.04-.48-.28.51-.97,1.39-1.66,2.39-2.05.59-.23,1.21-.36,1.84-.41.27-.02.53-.03.8-.02.33-.41.27-1.15-.36-1.25-2.73-.43-5.26,2.2-5.7,4.75-.49,2.84,2.51,5.3,5.24,4.75,2.81-.57,4.19-3.81,2.6-6.2Z"/>
        <path class="cls-1" d="M29.76,62.82c-.05.04-.11.08-.16.12-.33.28-.57.64-.76,1.02-.21.43-.35.9-.47,1.37-.13.5-.24,1.03-.25,1.54,0,.26-.4.33-.47.06-.07-.29-.13-.61-.09-.91.03-.31.09-.62.16-.92.12-.55.29-1.08.55-1.57.09-.17.21-.35.34-.53-.8-.08-1.64.19-2.25.73-2.6,2.3-2.33,6.08.53,7.97,2.83,1.87,6.64-.09,7.42-3.22.68-2.75-1.62-6.37-4.54-5.67Z"/>
        <path class="cls-1" d="M48.11,66.92c-.58-.95-1.6-1.56-2.68-1.79,0,0,0,0,0,0-.47.14-.89.41-1.26.72-.69.59-1.44,1.44-1.47,2.4,0,.2-.32.25-.35.05-.19-1.18.62-2.18,1.47-2.91.14-.12.3-.24.48-.35-2.87.15-4.96,3.34-3.82,6.05.88,2.1,3.94,3.66,6.01,2.29,2.09-1.38,2.97-4.27,1.63-6.46Z"/>
        <path class="cls-1" d="M66.17,67.37c-.66-.22-1.35-.25-2.02-.14-.22.12-.45.23-.66.37-.41.27-.77.63-1.08,1.01-.33.42-.6.91-.82,1.4-.12.27-.21.55-.29.84-.08.29-.19.53-.33.79-.07.14-.31.11-.34-.04-.06-.34-.07-.64.02-.97.08-.32.18-.62.31-.93.24-.57.55-1.1.94-1.58.32-.4.71-.75,1.13-1.04.12-.13.24-.25.37-.35.73-.57-.29-1.58-1.02-1.02-2.78,2.16-4.3,6.75-1.92,9.69,2.05,2.53,6.17,2.6,8.17-.06,2.07-2.75.82-6.87-2.47-7.96Z"/>
        <path class="cls-1" d="M90.37,61.28c-.55-.45-1.21.03-1.12.58.13.08.26.16.37.24.52.36.94.92,1.24,1.47.68,1.25,1,2.88.61,4.27-.06.22-.38.17-.39-.05-.04-1.34-.02-2.67-.75-3.85-.31-.5-.71-.88-1.14-1.26-.14-.12-.28-.22-.43-.31-.41-.1-.85-.15-1.32-.13-3.54.14-6.2,3.12-4.65,6.61,1.44,3.22,6.2,4.5,8.58,1.56,2.2-2.71,1.63-6.97-1-9.13Z"/>
        <path class="cls-1" d="M77.25,80.62c-.51-.43-1.26-.01-1.18.58.2.12.4.24.58.4.54.48.9,1.18,1.01,1.89.13.79-.03,1.54-.44,2.21-.02.04-.09.01-.07-.03.42-1.3.07-2.73-1.03-3.57-.45-.34-.98-.49-1.53-.54-1.1.12-2.34.55-2.94,1.54-.63,1.06-.84,2.68-.22,3.78,1.18,2.13,4.18,2.24,5.87.7,1.99-1.81,2.03-5.2-.05-6.96Z"/>
        <path class="cls-1" d="M55.09,81.45c-2.43-1.3-4.93.23-6.32,2.29-.27.4.14.88.54.88.13-.26.27-.51.45-.75.62-.81,1.41-1.39,2.36-1.73.21-.08.35.26.15.36-.78.41-1.5,1.02-2.03,1.73-.21.28-.4.57-.57.87-.02.71.12,1.43.42,2.07,1.17,2.51,4.51,1.93,6.09.14,1.67-1.89,1.13-4.68-1.09-5.86Z"/>
        <path class="cls-1" d="M32.89,83.28c-3.18,1.18-4.16,4.66-1.91,7.18,1.53,1.72,4.47,1.62,6.13.14.07-.2.16-.39.22-.58.15-.5.23-1.02.21-1.54-.04-.94-.36-1.88-1.08-2.52-.17-.15.05-.43.24-.31.91.56,1.44,1.48,1.58,2.53.03.24.03.49.01.73.25-.35.42-.76.5-1.22.58-3.38-2.95-5.5-5.89-4.4Z"/>
        <path class="cls-3" d="M17.64,38.94s.01,0,.02,0l-.07.03c.08-.03.17-.06.26-.07h-.08s.07,0,.11,0c.06,0,.12-.01.17-.02h-.08s.04,0,.06,0h.07s.07-.04.09-.06c.05-.04.08-.08.1-.14,0,0,0,0,0,0l-.03.06s.04-.08.03-.13c0-.06-.02-.12-.06-.17s-.08-.08-.14-.1c-.06-.02-.14-.04-.21-.04-.07,0-.15.01-.22.02-.12.02-.23.06-.34.11-.06.03-.12.11-.14.18-.02.07-.01.17.03.23s.1.12.18.14h.08c.05.01.1,0,.15-.03h0Z"/>
        <path class="cls-3" d="M18.69,37.33l.03-.04s.02-.03.03-.04l-.06.05.07-.04c.07-.04.12-.13.12-.21s-.05-.17-.12-.21l-.07-.04.06.05s-.02-.03-.03-.04l-.03-.04-.08-.06-.1-.04c-.05-.02-.11-.02-.16,0-.04,0-.07,0-.1.03-.03,0-.07.03-.09.05-.03.02-.06.04-.07.07-.03.03-.04.06-.05.09-.03.05-.04.1-.04.16v.11s.04.07.06.1l.06.08.08.06.1.04c.05.02.11.02.16,0,.04,0,.07,0,.1-.03.05-.02.1-.05.13-.09h0Z"/>
        <path class="cls-3" d="M37.15,17.53h.2s.06,0,.1,0c.1,0,.19-.03.28-.07.06-.04.11-.08.14-.14.04-.06.05-.13.05-.2,0-.07-.02-.14-.05-.2-.04-.06-.08-.11-.14-.14-.04-.02-.09-.04-.13-.05,0,0,0,0-.02,0h-.11s-.02-.01-.02-.01h-.1c-.07,0-.13,0-.2,0-.06,0-.11,0-.16.04-.05.02-.09.04-.13.08-.04.04-.07.08-.08.13-.03.05-.04.1-.04.16v.11c.03.07.07.13.12.18l.08.06c.06.04.13.06.21.06h0Z"/>
        <path class="cls-3" d="M38.75,16.15l.12-.08s.06-.06.06-.11-.02-.09-.06-.11l-.12-.08c-.06-.04-.15-.04-.22,0s-.11.11-.11.19.04.15.11.19.15.04.22,0h0Z"/>
        <path class="cls-3" d="M55.85,19.68l.12-.07c.09-.05.15-.16.15-.26s-.06-.21-.15-.26l-.12-.07c-.06-.03-.12-.05-.19-.05-.07,0-.13.02-.19.05-.12.07-.19.2-.19.33s.07.26.19.33c.06.03.12.05.19.05.07,0,.13-.02.19-.05h0Z"/>
        <path class="cls-3" d="M56.82,18.17l.12-.07c.08-.05.13-.14.13-.23s-.05-.18-.13-.23l-.12-.07c-.05-.03-.11-.05-.18-.05-.06,0-.12.02-.18.05-.11.06-.17.18-.17.3s.07.24.17.3c.05.03.11.05.18.05.06,0,.12-.02.18-.05h0Z"/>
        <path class="cls-3" d="M74.82,23.15l.19.06.09.03s.02,0,.02,0c.07.02.12.01.2,0,.02,0,.03,0,.05,0l.08-.03.07-.05.05-.07s.04-.08.04-.13c0-.03,0-.06,0-.09,0-.03,0-.06-.02-.09,0-.03-.02-.05-.04-.07-.02-.04-.06-.07-.09-.09-.01,0-.03-.02-.04-.03-.07-.04-.14-.05-.21-.06h-.1c-.06-.02-.13-.03-.19-.03-.05,0-.09,0-.13.03-.04.01-.08.04-.11.07l-.05.07s-.04.08-.04.12c0,.03,0,.06,0,.09,0,.04.02.09.04.12.05.07.11.13.2.15h0Z"/>
        <path class="cls-3" d="M75.98,22.03c.46,0,.46-.72,0-.72s-.46.72,0,.72h0Z"/>
        <path class="cls-3" d="M73.17,38.38h.33c.06.01.11,0,.16,0,.07,0,.13-.01.19-.05.03-.02.06-.04.09-.07.02-.01.03-.03.05-.04.11-.1.11-.29,0-.39-.01-.01-.03-.03-.04-.04-.03-.03-.06-.05-.09-.07l-.08-.04s-.07,0-.11-.01c-.05,0-.11,0-.16,0h-.33c-.09.01-.18.05-.25.11-.06.06-.11.16-.1.25s.03.19.1.25.15.1.25.1h0Z"/>
        <path class="cls-3" d="M73.75,37.36c.52,0,.52-.81,0-.81s-.52.81,0,.81h0Z"/>
        <path class="cls-3" d="M55.31,36.94l.12-.02s.02,0,.03,0c0,0,.02,0,.03-.01l.06-.02.05-.02s.04-.03.05-.05c.01-.01.02-.03.02-.04.01-.02.02-.05.02-.07v-.05s-.02-.03-.03-.05c-.01-.02-.03-.04-.05-.05-.02-.02-.04-.03-.07-.03l-.06-.02s-.02,0-.03-.01c0,0-.02,0-.03,0l-.12-.02s-.09-.01-.13,0c-.04.01-.08.03-.11.06-.04.05-.07.11-.07.18,0,.03,0,.07.02.1.01.03.03.06.05.08.03.03.07.05.11.06.04.01.09.01.13,0h0Z"/>
        <path class="cls-3" d="M56.09,35.34s.01,0,.02,0h-.1c.08,0,.15,0,.23.01h-.1s.05,0,.08,0c.01,0,.02,0,.03,0h.1s.04,0,.06,0c.02,0,.04,0,.06,0h-.1s.03,0,.05,0c.03,0,.07,0,.1-.01.05-.01.08-.03.12-.06.02-.01.03-.02.04-.04.03-.03.04-.05.06-.09s.02-.06.02-.11c0-.1-.04-.19-.11-.27,0,0-.02-.02-.03-.03,0,0,0,0-.01-.01-.05-.05-.1-.08-.17-.1-.09-.03-.18-.04-.27-.05-.06,0-.13,0-.19,0-.07,0-.13.02-.19.05l-.08.06s-.08.1-.1.17c-.02.05-.02.1,0,.15,0,.05.02.1.05.14.02.04.06.08.1.11.04.03.08.06.13.07.07.02.14.02.2,0h0Z"/>
        <path class="cls-3" d="M34.85,34.91l.22-.03s.07,0,.11-.01c.03,0,.06-.03.09-.04,0,0,.02,0,.02-.01.05-.03.1-.07.13-.12.05-.09.05-.19,0-.28-.03-.05-.07-.09-.13-.12-.04-.02-.08-.04-.11-.05-.04,0-.07,0-.11-.01l-.22-.03c-.06-.02-.13-.02-.19,0-.06.02-.12.05-.16.09-.07.07-.11.16-.11.26,0,.09.04.19.11.26.05.05.1.08.16.09.06.02.13.02.19,0h0Z"/>
        <path class="cls-3" d="M36.16,33.63l.26-.02c.05,0,.11,0,.15-.02.02,0,.04-.01.06-.02.07-.02.14-.05.19-.1.01-.01.02-.02.03-.04.05-.05.09-.13.08-.2s-.03-.14-.08-.2c-.01-.01-.02-.02-.03-.04-.05-.05-.12-.08-.18-.1-.02,0-.04-.02-.06-.02-.05-.02-.1-.02-.15-.02l-.26-.02c-.05,0-.11,0-.15.03-.05.02-.09.04-.13.08-.04.04-.07.08-.08.13-.02.05-.04.1-.03.15,0,.1.04.21.12.28s.17.12.28.12h0Z"/>
        <path class="cls-3" d="M90.03,49h.23c.06-.01.12-.02.17-.04.08-.02.14-.07.18-.14.02-.04.04-.08.04-.13s-.02-.09-.04-.13c-.04-.07-.1-.12-.18-.14-.06-.02-.12-.03-.18-.03h-.23s-.08,0-.12.02c-.04.01-.07.03-.1.06-.03.03-.05.06-.06.1-.02.04-.03.08-.03.12,0,.08.03.17.09.22s.14.1.22.09h0Z"/>
        <path class="cls-3" d="M90.77,47.77h.22s.07,0,.11,0c0,0,.02,0,.02,0,.02,0,.04,0,.06,0,.05,0,.1-.02.15-.05,0,0,.02,0,.02-.01l.08-.06s.04-.05.06-.08c.03-.06.05-.12.05-.19,0-.07-.02-.13-.05-.19-.04-.06-.08-.11-.14-.14,0,0-.02,0-.02-.01l-.1-.04s-.08-.01-.11-.02c0,0-.02,0-.02,0h-.11c-.07,0-.15,0-.22,0-.1,0-.21.05-.29.12-.04.04-.07.08-.08.13-.03.05-.04.1-.04.16,0,.11.04.21.12.29s.18.12.29.12h0Z"/>
        <path class="cls-3" d="M75.3,57.73l.1.03c.07.02.14.02.21.03.04,0,.07,0,.11,0,.1,0,.22-.03.31-.08.06-.04.11-.09.15-.15.04-.07.06-.14.06-.21,0-.08-.02-.15-.06-.21-.04-.06-.09-.11-.15-.15-.05-.02-.09-.04-.15-.05,0,0-.02,0-.03,0l-.12-.02s0,0-.01,0c-.04,0-.07,0-.11.01-.07,0-.14.01-.21.03l-.11.03-.09.04s-.08.06-.11.1c-.02.02-.04.05-.05.08-.02.05-.04.09-.03.15v.1s.04.06.05.09c.02.04.06.08.1.11.04.03.08.06.13.07h0Z"/>
        <path class="cls-3" d="M76.51,56.28l.15-.04.09-.04s.08-.06.11-.1c.02-.02.04-.05.05-.08.02-.05.04-.09.03-.15v-.1s-.04-.06-.05-.09c-.02-.04-.06-.08-.1-.11-.04-.03-.08-.06-.13-.07l-.15-.04c-.08-.02-.15-.02-.23,0-.07.02-.14.06-.19.11l-.07.09c-.04.07-.06.14-.06.22,0,.06.01.11.04.17.02.05.05.1.09.14.11.11.27.15.42.11h0Z"/>
        <path class="cls-3" d="M88.37,70.7h.17s.08.01.12,0c.04,0,.08-.01.12-.02l.16-.03c.05,0,.1-.02.15-.04.08-.03.13-.09.15-.17s-.03-.16-.1-.2c-.04-.03-.09-.05-.14-.07l-.14-.06s-.04-.02-.07-.03c-.06-.03-.1-.04-.16-.05l-.17-.03c-.1-.02-.19-.01-.27.04-.1.05-.16.15-.17.26-.01.1,0,.18.07.26.07.09.16.13.28.14h0Z"/>
        <path class="cls-3" d="M89.2,69.91c.52,0,.52-.81,0-.81s-.52.81,0,.81h0Z"/>
        <path class="cls-3" d="M57.06,57.17h.24s.04,0,.06.01c0,0,.02,0,.03,0,.08,0,.14-.02.21-.06.03-.02.07-.03.1-.05.1-.07.17-.17.17-.29s-.07-.23-.17-.29c-.03-.02-.06-.03-.09-.05-.07-.04-.13-.06-.22-.06,0,0-.02,0-.03,0h-.06c-.08,0-.16,0-.24.01-.1,0-.2.04-.28.11-.04.04-.06.08-.08.13-.02.05-.04.1-.03.15,0,.1.04.21.11.28s.17.11.28.11h0Z"/>
        <path class="cls-3" d="M58.05,55.7c.53,0,.53-.82,0-.82s-.53.82,0,.82h0Z"/>
        <path class="cls-3" d="M38.39,51.1l.23.02c.08,0,.15.02.23.01.07,0,.14,0,.21,0,.15,0,.28-.07.35-.2.03-.05.06-.11.06-.17s-.03-.12-.06-.17c-.02-.04-.02-.05-.07-.09-.07-.07-.14-.09-.23-.11s-.17,0-.26-.01c-.08,0-.15,0-.23.01l-.23.02c-.09,0-.18.03-.25.1-.06.06-.11.16-.1.25s.03.18.1.25.15.09.25.1h0Z"/>
        <path class="cls-3" d="M39.66,49.75l.1-.02s.07-.02.1-.04c.07-.03.13-.05.18-.1,0-.01.02-.02.03-.03l.05-.06s.03-.04.04-.07c.01-.02.02-.05.02-.08v-.06s-.04-.07-.06-.09l-.05-.06-.02-.03c-.05-.06-.11-.08-.18-.11-.03-.01-.06-.03-.1-.04l-.1-.02c-.07-.02-.15-.02-.22,0-.07.02-.13.06-.18.11-.08.08-.12.18-.12.3,0,.06,0,.11.04.16.02.05.05.1.09.13.05.05.11.09.18.11.07.02.15.02.22,0h0Z"/>
        <path class="cls-3" d="M20.13,55.19h.27s.05,0,.07.01c.06,0,.1,0,.16-.01.04,0,.09-.01.13-.02l.09-.04s.08-.06.11-.1c.02-.02.04-.05.05-.08.02-.04.03-.09.03-.14,0-.07-.02-.13-.05-.19-.04-.08-.14-.15-.22-.17-.04-.01-.09-.02-.13-.02-.06-.01-.1-.02-.16-.01h-.07c-.09,0-.18,0-.27.01-.1,0-.2.04-.28.11-.07.07-.12.18-.11.28s.04.21.11.28.17.11.28.11h0Z"/>
        <path class="cls-3" d="M21.21,53.77c.49,0,.49-.76,0-.76s-.49.76,0,.76h0Z"/>
        <path class="cls-3" d="M16.17,74.98h.27c.07-.02.15-.02.21-.04.04-.01.08-.02.13-.04.06-.02.11-.05.15-.11.04-.05.07-.11.06-.18,0-.05-.02-.1-.04-.15-.04-.07-.11-.11-.18-.14-.04-.01-.08-.03-.13-.04-.07-.02-.14-.02-.21-.02h-.27c-.09-.02-.19.03-.25.09s-.11.16-.11.25.03.19.11.25.16.11.25.11h0Z"/>
        <path class="cls-3" d="M16.41,73.74l.21-.02s.07,0,.11,0c.07,0,.14-.02.19-.06l.04-.03s.08-.06.1-.1c.03-.04.04-.09.04-.14,0-.05-.01-.1-.04-.14-.02-.04-.06-.08-.1-.1l-.04-.03s-.01,0-.02-.01c-.05-.03-.11-.04-.17-.05-.04,0-.07,0-.11,0l-.21-.02s-.09,0-.14.03c-.04.01-.08.04-.11.07-.03.03-.06.07-.07.11-.02.04-.03.09-.03.14,0,.09.03.19.1.25s.16.11.25.1h0Z"/>
        <path class="cls-3" d="M31.45,69.68c.17-.02.34-.02.51,0h-.09c.18.01.37.07.53-.04.05-.03.08-.07.1-.12.02-.05.03-.11.01-.17-.04-.1-.08-.16-.17-.22-.05-.03-.1-.06-.16-.08-.09-.03-.2-.04-.29-.05-.15-.02-.3-.02-.46,0-.09.01-.17.03-.24.1-.06.06-.1.15-.1.24s.03.18.1.24c.06.06.15.11.24.1h0Z"/>
        <path class="cls-3" d="M32.69,68.47l.26-.12s.05-.04.07-.07c.02-.03.03-.06.03-.1,0-.04,0-.07-.03-.1-.02-.03-.04-.05-.07-.07l-.26-.12c-.05-.03-.11-.05-.17-.05-.06,0-.12.02-.17.05-.1.06-.17.17-.17.29s.06.23.17.29c.05.03.11.05.17.05.06,0,.12-.02.17-.05h0Z"/>
        <path class="cls-3" d="M45.83,71.62h.21s.07,0,.1-.01c.04,0,.08,0,.11-.02,0,0,.01,0,.02,0,.05-.01.08-.04.12-.07.01-.02.03-.04.04-.06.02-.04.04-.08.04-.13,0-.05-.01-.09-.04-.13-.01-.02-.03-.04-.04-.06-.02-.03-.05-.04-.09-.06-.02,0-.03-.01-.05-.02-.04-.02-.07-.02-.12-.02-.03,0-.07,0-.1,0h-.21s-.08,0-.12.02c-.04.01-.07.03-.1.06-.03.03-.05.06-.06.1-.02.04-.03.07-.03.12,0,.08.03.16.09.21s.13.09.21.09h0Z"/>
        <path class="cls-3" d="M46.07,70.44h.24s.09-.01.14-.03c.04-.01.08-.03.12-.05.03-.01.07-.03.1-.04.09-.04.14-.15.14-.24s-.05-.2-.14-.24c-.03-.02-.06-.03-.09-.04-.04-.02-.08-.04-.12-.05-.05-.02-.1-.02-.15-.02h-.24s-.1,0-.14.02c-.04.01-.08.04-.12.07-.04.03-.06.07-.07.12-.02.04-.03.09-.03.14,0,.09.03.19.11.25s.16.11.25.11h0Z"/>
        <path class="cls-3" d="M66.73,75.05h.32c.05.01.1.02.16.02.11,0,.21-.05.3-.09.2-.11.2-.42,0-.53-.09-.05-.19-.1-.29-.09-.05,0-.11,0-.16,0h-.32c-.09.01-.18.05-.24.11-.06.06-.1.16-.1.24,0,.19.15.34.34.34h0Z"/>
        <path class="cls-3" d="M66.98,73.83h.13s0-.02.01-.02c.03,0,.07,0,.1-.01.02,0,.03-.01.05-.02.04-.01.08-.04.11-.07h0s0,0,0-.01l.04-.03s.05-.06.06-.09c.02-.03.03-.07.03-.11v-.08s-.05-.09-.09-.13l-.04-.03h0s-.05-.05-.08-.06c-.06-.04-.13-.04-.2-.05h-.13c-.05-.02-.1,0-.14.02-.05.01-.08.04-.12.08-.04.03-.06.07-.08.12-.02.04-.03.09-.03.14v.1c.03.06.06.12.11.16l.07.06c.06.03.12.05.18.05h0Z"/>
        <path class="cls-3" d="M54.42,86.95h.16s.03,0,.04,0h.02s0,0,.01,0h.09c.06-.03.12-.07.16-.11,0,0,.02-.01.02-.02.03-.03.05-.06.06-.09.02-.03.03-.07.02-.11v-.08s-.05-.09-.08-.13c0,0-.01-.01-.02-.02,0,0,0,0-.01,0-.05-.05-.06-.05-.11-.07-.04-.02-.08-.03-.13-.03h-.01s-.01,0-.02,0h-.04c-.05,0-.11,0-.16,0-.05,0-.09,0-.13.03-.04.01-.08.04-.11.07-.03.03-.06.07-.07.11-.02.04-.03.08-.03.13v.09c.03.06.06.11.1.15l.07.05c.05.03.11.05.17.05h0Z"/>
        <path class="cls-3" d="M55.24,85.7c.43,0,.43-.67,0-.67s-.43.67,0,.67h0Z"/>
        <path class="cls-3" d="M34.42,90.47l.34.03c.09,0,.16.02.25,0,.02,0,.05-.02.07-.02.07-.02.13-.06.18-.11.11-.11.11-.29,0-.4-.05-.05-.11-.09-.18-.11-.02,0-.05-.02-.07-.02-.08-.03-.16-.02-.25,0l-.34.03c-.08,0-.16.03-.22.09-.05.05-.1.14-.09.22s.03.17.09.22.13.08.22.09h0Z"/>
        <path class="cls-3" d="M34.85,89.42c.05-.02.1-.04.16-.06.03,0,.05-.02.08-.02.06-.02.08-.03.12-.07,0,0,0,0,.01,0l.02-.02s.04-.04.05-.07c.01-.03.02-.05.02-.09,0-.06-.02-.12-.06-.16l-.02-.02s0,0-.01,0c-.02-.02-.04-.03-.06-.04l-.06-.03s-.05-.02-.08-.03c-.05-.02-.1-.04-.16-.06-.06-.02-.13-.02-.19,0-.06.02-.11.05-.16.09l-.06.07c-.03.06-.05.11-.05.18,0,.05,0,.09.03.14.01.04.04.08.07.11.04.04.1.07.16.09.06.02.13.02.19,0h0Z"/>
        <path class="cls-3" d="M74.23,87.23c.11.07.24.13.36.14.1,0,.21-.01.31-.03.06-.01.13-.04.19-.07.01,0,.03-.02.04-.03.06-.04.11-.09.15-.15s.05-.13.06-.2c0-.04,0-.08-.01-.11-.02-.07-.05-.11-.09-.16-.02-.02-.03-.02-.05-.04-.04-.03-.08-.06-.14-.07h-.11s-.08,0-.12,0h.11c-.07,0-.14,0-.2.02-.03,0-.07.02-.1.02h.11c-.09,0-.17-.01-.26.01-.05.01-.09.03-.14.03h.1s0-.01,0-.01h-.09s-.09.04-.12.08c-.06.05-.11.11-.13.18-.01.06-.01.13,0,.19.02.09.09.16.16.21h0Z"/>
        <path class="cls-3" d="M74.99,85.65h.2s.03-.02.05-.02c.03,0,.06,0,.09-.01s.05-.02.08-.03c.03-.01.06-.03.08-.04.14-.08.14-.3,0-.38-.03-.01-.05-.03-.08-.04s-.05-.03-.08-.03-.06,0-.09-.01h-.05c-.07,0-.13-.01-.2-.02-.04,0-.08,0-.11.03-.04.01-.07.03-.09.06-.03.03-.05.06-.06.09-.02.03-.03.07-.03.11,0,.08.03.15.09.21s.13.09.21.09h0Z"/>
      </g>
      <rect class="cls-2" width="100" height="100"/>
    </g>
  </g>
</svg>