<?xml version="1.0" encoding="UTF-8"?>
<svg id="Capa_2" data-name="Capa 2" xmlns="http://www.w3.org/2000/svg" viewBox="0 0 100 100">
  <defs>
    <style>
      .cls-1 {
        fill: #eee9ce;
      }

      .cls-2 {
        fill: #fff;
      }

      .cls-3 {
        fill: none;
      }

      .cls-4 {
        fill: #4a2d2d;
      }
    </style>
  </defs>
  <g id="COLOR">
    <g>
      <g>
        <g>
          <path class="cls-1" d="M38.14,13.32c-.18-.18-.38-.33-.59-.47-1.23-.77-2.5-.06-3.55.7-1.7,1.24-3.01,2.91-4.38,4.49-1.5,1.73-8.02,8.87-4.49,11.03,1.48.91,3.5-.36,4.74-1.12,2-1.24,3.81-2.78,5.31-4.59,1.7-2.04,4.06-4.86,4-7.69-.02-.88-.42-1.74-1.05-2.35Z"/>
          <path class="cls-4" d="M27.2,28.16l.42-.08c.16-.03.29-.1.43-.19.27-.17.25-.63-.09-.71-.07-.02-.14-.03-.22-.05-.12-.02-.23,0-.35.01l-.45.07c-.26.04-.42.38-.35.61.09.27.34.4.61.35h0Z"/>
          <path class="cls-4" d="M28.88,26.91c.7,0,.7-1.08,0-1.08s-.7,1.08,0,1.08h0Z"/>
          <path class="cls-2" d="M37.08,13.75c-1.34.09-2.96.91-3.34,2.31-.16.6.39,1.09.97.97.63-.14,1.12-.53,1.61-.92s.86-.72,1.24-1.18c.34-.42.16-1.22-.49-1.17h0Z"/>
          <path class="cls-2" d="M31.54,18.44v.13c.01.08.03.15.06.22.02.07.06.13.12.19l.12.09c.09.05.19.08.29.08h.13c.06,0,.13,0,.19-.01l.17-.07c.08-.05.15-.11.2-.19.04-.05.08-.1.09-.16.03-.06.05-.12.05-.18.02-.06.02-.13,0-.19,0-.07-.02-.13-.05-.18-.03-.09-.08-.17-.15-.23l-.15-.11-.17-.07-.19-.03-.19.03-.17.07c-.08.05-.15.11-.2.19-.04.05-.08.1-.09.16-.05.09-.07.18-.06.28h0Z"/>
        </g>
        <g>
          <path class="cls-1" d="M23.1,43.19c-.77-2.44-2.02-4.74-3.26-6.96-1.04-1.86-2.51-3.48-4.26-4.7-2.11-1.47-2.98,1.7-2.95,3.26.04,1.96.46,3.95,1.01,5.83.72,2.47,1.67,4.87,2.9,7.13.9,1.66,2.1,3.77,4.13,4.15,4.83.92,3.2-6.24,2.43-8.71Z"/>
          <path class="cls-4" d="M21.47,50.63s.05-.02.07-.03c.08-.03.15-.06.21-.12.08-.08.13-.2.13-.32s-.05-.24-.13-.32l-.09-.07s-.08-.04-.12-.05c-.02,0-.05-.02-.07-.03-.09-.02-.17-.02-.26,0-.08.02-.15.06-.21.12-.09.09-.14.21-.14.34,0,.07.01.13.04.19.02.06.05.11.1.16.06.06.13.1.21.12.09.02.17.02.26,0h0Z"/>
          <path class="cls-4" d="M22.41,48.36v-.02c-.07.1-.15.2-.22.29.08-.05.14-.1.18-.18.09-.15.09-.33,0-.48-.05-.08-.1-.13-.18-.18l.23.29s-.02-.06-.03-.09c-.02-.07-.06-.13-.12-.18-.05-.06-.11-.1-.18-.12-.07-.04-.14-.05-.22-.05l-.15.02c-.07.02-.14.05-.19.1-.06.04-.11.09-.15.16-.04.07-.06.14-.07.21-.02.08-.01.15.01.23l.06.14c.04.07.09.12.15.16.06.05.12.08.19.1l.15.02c.1,0,.2-.03.29-.08l.12-.09c.07-.07.12-.16.15-.25h0Z"/>
          <path class="cls-2" d="M14.37,34.12c.11.08.21.17.31.26.04.04.08.08.12.12.02.03.05.05.07.08-.06-.08-.08-.1-.04-.04.15.31.4.56.7.73.34.19.7.06.92-.24.66-.92-.38-2.08-1.25-2.34-.35-.1-.79.07-.97.39-.16.31-.17.8.13,1.04h0Z"/>
          <path class="cls-2" d="M15.75,37.88c.08.16.16.32.29.45.1.11.22.17.35.23.23.1.53.1.75-.04.35-.22.49-.65.4-1.04-.04-.18-.14-.35-.22-.52-.09-.2-.34-.36-.54-.42-.22-.06-.51-.03-.7.09-.43.28-.56.79-.33,1.24h0Z"/>
        </g>
        <g>
          <path class="cls-1" d="M44.56,41.98c-1.47-1.6-3.45-2.92-5.19-4.22-.9-.67-1.77-1.37-2.68-2.04s-1.79-1.35-2.81-1.74c-.87-.34-1.95-.43-2.84-.07-.64.26-1.11.79-1.27,1.46-.41,1.71.76,3.69,1.63,5.09,2.12,3.4,5.46,5.94,9.41,6.77,1.52.32,3.55.4,4.53-1.09.91-1.38.23-3.07-.78-4.16Z"/>
          <path class="cls-4" d="M42.01,46.28h.24c.08,0,.16,0,.23-.02.15-.04.24-.13.33-.26.1-.13.1-.38,0-.51-.09-.12-.18-.21-.33-.26-.08-.02-.15-.03-.23-.03h-.24c-.28,0-.55.25-.54.54s.24.53.54.54h0Z"/>
          <path class="cls-4" d="M44.1,45.09c.06-.02.12-.04.18-.07.15-.09.26-.27.26-.45s-.1-.36-.26-.45c-.06-.03-.12-.05-.18-.07-.17-.06-.4,0-.52.14-.1.1-.16.23-.16.38,0,.07.01.14.05.21.02.07.06.12.11.17.13.13.34.2.52.14h0Z"/>
          <path class="cls-2" d="M31.98,35.91c.42.64,1.2.95,1.81,1.37s1.21.98,1.96,1.2c.39.11.83-.28.69-.69-.28-.8-.94-1.34-1.62-1.81s-1.48-1.08-2.29-1.02c-.44.03-.82.52-.54.94h0Z"/>
          <path class="cls-2" d="M37.76,39.98l.28.24c.09.08.21.14.33.14.12,0,.25-.05.33-.14s.14-.21.14-.33-.05-.24-.14-.33l-.24-.28c-.08-.09-.23-.15-.35-.15s-.27.05-.35.15-.15.22-.15.35.05.26.15.35h0Z"/>
        </g>
        <g>
          <path class="cls-1" d="M68.95,16.9c-1.43-1.91-4.26-2.48-6.43-2.99-2.23-.53-4.52-.77-6.81-.83-2.05-.06-4.19-.24-6.14.55-.62.25-1.19.65-1.54,1.22-1.43,2.37,2.47,3.69,3.99,4.35,3.93,1.71,8.2,3.12,12.5,3.4,1.56.1,3.66-.02,4.66-1.37.96-1.28.68-3.11-.23-4.33Z"/>
          <path class="cls-4" d="M63.33,20.92c.07,0,.14.03.21.03.14,0,.29-.03.4-.12.15-.11.25-.25.25-.44s-.1-.33-.25-.44c-.11-.08-.27-.12-.4-.12-.07,0-.14.02-.21.03-.15.02-.26.05-.37.15-.09.09-.16.24-.15.37s.05.28.15.37l.11.08c.08.05.17.07.27.07h0Z"/>
          <path class="cls-4" d="M66.19,21.12c.08,0,.17,0,.25-.03s.14-.06.21-.1c.26-.15.26-.53,0-.68-.07-.04-.13-.08-.21-.1s-.17-.02-.25-.03c-.11-.01-.26.06-.33.14-.08.08-.14.22-.14.33s.05.25.14.33c.09.08.21.15.33.14h0Z"/>
          <path class="cls-2" d="M50.19,16.01c.53-.23,1.2-.38,1.78-.42s1.09.09,1.64-.01.58-.88.15-1.14c-1.22-.75-3.05-.08-4.11.65-.58.4-.08,1.2.54.92h0Z"/>
          <path class="cls-2" d="M56.4,16c.29-.09.62-.16.82-.41.15-.19.24-.37.2-.62-.03-.21-.15-.45-.35-.54-.09-.04-.18-.09-.28-.11-.18-.05-.34-.02-.51.02l-.32.06c-.2.04-.4.22-.5.38-.1.18-.15.44-.08.64.14.42.58.72,1.02.58h0Z"/>
        </g>
        <g>
          <path class="cls-1" d="M69.81,34.82c-.29-1.42-2.67-1.89-3.76-2.19-2-.54-4.14-.39-6.17-.06-2.09.34-4.19.61-6.29.94-1.32.21-2.92.6-3.17,2.15-.27,1.62,1.35,3.02,2.64,3.67,2.2,1.1,4.6,1.21,6.99.87,2.33-.33,4.57-1.21,6.73-2.12,1.18-.5,3.37-1.59,3.03-3.26Z"/>
          <path class="cls-4" d="M65.27,37.46c-.05-.04-.04-.03.04,0,.05.03.09.04.15.04.1.01.19.01.28-.01.11-.03.23-.08.33-.15.21-.13.36-.34.45-.57s-.1-.5-.32-.56c-.06-.02-.13-.03-.19-.03-.02,0-.04,0-.07,0h.07c-.07-.04-.27,0-.34.02-.04.01-.08.03-.12.04-.32.13-.58.34-.6.71l.07-.27-.03.08c-.06.14-.09.27-.02.42.05.13.16.24.31.27h0Z"/>
          <path class="cls-4" d="M67.75,35.9s.1,0,.15-.02c.06,0,.12,0,.17-.02s.11-.05.16-.07c.17-.08.34-.24.33-.45s-.14-.36-.32-.44c-.04-.02-.07-.03-.11-.05-.08-.03-.15-.04-.24-.05-.05,0-.1-.01-.15-.02-.13-.01-.3.07-.39.16-.1.1-.17.25-.16.39s.05.29.16.39c.1.09.25.18.39.16h0Z"/>
          <path class="cls-2" d="M52.8,36.88c.23,0,.44-.01.65-.13.11-.06.25-.14.32-.23.12-.15.23-.32.22-.53s-.09-.37-.22-.53c-.08-.1-.21-.17-.32-.23-.21-.11-.42-.12-.65-.13-.47-.02-.91.42-.89.89.01.23.09.47.26.63s.39.27.63.26h0Z"/>
          <path class="cls-2" d="M55.53,36.39l.26-.02c.14-.01.26-.05.36-.15.09-.09.15-.23.15-.36s-.05-.27-.15-.36l-.1-.08c-.08-.05-.16-.07-.25-.07l-.26-.02c-.13-.01-.29.07-.37.15s-.16.24-.15.37.05.28.15.37c.1.09.24.17.37.15h0Z"/>
        </g>
        <g>
          <path class="cls-1" d="M85.94,42.31c-.15-2.57-1.15-5.07-2.24-7.38-1.01-2.12-2.05-4.38-3.69-6.1-.8-.84-2.13-2.11-3.41-1.91-1.85.29-1.71,3.15-1.52,4.5.34,2.44,1.29,4.92,2.03,7.27.74,2.34,1.65,4.65,3.16,6.62.96,1.26,2.46,2.77,4.2,1.94,1.58-.76,1.55-3.5,1.47-4.95Z"/>
          <path class="cls-4" d="M83.47,46.13s.05.01.08.02c.15.03.18.02.32,0,.02,0,.05,0,.07,0,.1-.02.19-.08.27-.15.2-.19.2-.55,0-.74-.08-.07-.16-.13-.27-.15-.02,0-.04,0-.07,0-.15-.02-.18-.03-.32,0-.03,0-.05.01-.08.02l-.13.05c-.06.03-.11.08-.15.14-.07.09-.12.21-.11.32,0,.1.03.19.07.27.06.11.2.22.32.25h0Z"/>
          <path class="cls-4" d="M84.27,44.42c.17-.04.35-.1.43-.28l-.07.09.05-.03c.07-.05.12-.19.12-.28,0-.1-.04-.22-.12-.28l-.05-.03.07.09c-.06-.13-.19-.21-.32-.25-.03,0-.07-.02-.1-.03-.17-.04-.38,0-.5.13-.09.1-.15.23-.15.37,0,.13.06.27.15.37.13.13.32.18.5.13h0Z"/>
          <path class="cls-2" d="M77,29.6c.26.31.52.65.74.98.25.37.45.82.81,1.1s1.06.27,1.16-.31c.2-1.22-.84-2.36-1.86-2.88-.73-.37-1.37.49-.85,1.1h0Z"/>
          <path class="cls-2" d="M80.36,34.48c1.24,0,1.24-1.92,0-1.92s-1.24,1.92,0,1.92h0Z"/>
        </g>
        <g>
          <path class="cls-1" d="M75.47,54.74c-1.31-1.75-2.9-3.1-4.61-4.45-1.78-1.41-3.63-2.76-5.74-3.65-1.58-.66-3.3-.58-4.2,1.05-.96,1.74.02,3.65.89,5.2,1.15,2.02,2.6,3.75,4.44,5.17,1.99,1.53,9.48,6.21,11.02,1.97.68-1.87-.73-3.86-1.79-5.28,0,0,0-.01-.01-.02Z"/>
          <path class="cls-4" d="M75.24,60.51l.09-.11s.08-.09.1-.15c.03-.06.04-.12.04-.18,0-.06-.01-.12-.04-.18-.02-.06-.05-.11-.1-.15-.09-.08-.21-.14-.33-.14l-.12.02c-.08.02-.15.06-.21.12l-.11.09s-.08.09-.1.15c-.03.06-.04.12-.04.18,0,.07.01.13.04.18.02.06.05.11.1.15.09.08.21.15.34.14l.13-.02c.08-.02.15-.06.21-.12h0Z"/>
          <path class="cls-4" d="M72.44,60.31s.03-.02.04-.04c.09-.09.15-.23.15-.36s-.06-.27-.15-.36c-.01-.01-.03-.03-.04-.04l-.11-.09-.13-.06c-.07-.02-.15-.03-.22-.01-.05,0-.1.01-.14.04-.05.01-.09.04-.12.07-.04.03-.08.06-.1.1-.03.04-.06.08-.07.12-.04.07-.05.14-.05.22l.02.15.06.13.09.11.11.09.13.06c.07.02.15.03.22.01.05,0,.1-.01.14-.04.07-.02.13-.06.18-.12h0Z"/>
          <path class="cls-2" d="M63.36,48.97c.66.59,1.48.99,2.22,1.48s1.38,1.18,2.28,1.31c.56.08,1.12-.33.95-.95-.27-.97-1.11-1.51-1.91-2.03s-1.73-1.12-2.68-1.26c-.77-.12-1.56.81-.85,1.45h0Z"/>
          <path class="cls-2" d="M69.18,53.67c.13.11.26.23.39.33.15.12.31.21.5.26l.23.06c.52.14.98-.35.85-.85l-.06-.22c-.05-.2-.14-.36-.27-.52-.11-.13-.22-.26-.33-.4-.14-.18-.45-.27-.66-.27-.23,0-.51.1-.66.27s-.29.41-.27.66.09.5.27.66h0Z"/>
        </g>
        <g>
          <path class="cls-1" d="M56.9,53.65c-.91-3.05-4.7-1.27-6.41-.12-2.9,1.96-5.13,4.93-6.81,7.96-.91,1.64-2.16,4.15-1.68,6.09.42,1.72,1.96,2.38,3.55,1.71,3.98-1.66,7.47-5.96,9.54-9.6.94-1.65,2.39-4.08,1.8-6.04Z"/>
          <path class="cls-4" d="M44.89,68.39c.08-.03.16-.06.23-.09.13-.05.22-.11.3-.21.03-.04.06-.08.09-.12.08-.11.07-.27.02-.39-.05-.13-.15-.21-.28-.25-.14-.05-.27-.07-.42-.03-.08.02-.15.04-.22.07-.27.08-.46.38-.37.66.08.26.38.48.66.37h0Z"/>
          <path class="cls-4" d="M46.95,66.88l.09.03.13.02c.07,0,.13-.01.19-.04.1-.04.17-.11.23-.2h0c-.09.07-.19.14-.28.22h.03s-.08,0-.12,0h.12c.06.01.14-.01.2-.04.07-.04.13-.11.16-.19.03-.07.04-.13.03-.2-.01-.09-.05-.15-.11-.22l-.08-.1.11.2v-.03c0,.08,0,.17,0,.25h0s.01-.09.02-.13c0-.07-.01-.13-.04-.19-.04-.1-.11-.17-.2-.23l-.08-.05c-.11-.08-.26-.08-.39-.05-.15.03-.27.15-.33.29-.05.13-.05.26,0,.39.06.15.17.24.33.29h0Z"/>
          <path class="cls-2" d="M53.58,53.46c-1.33.12-2.34.65-3.13,1.73-.37.51.36,1.21.87.87.73-.5,1.6-.85,2.48-.98s.71-1.7-.22-1.62h0Z"/>
          <path class="cls-2" d="M48.06,57.23l-.09.15-.06.15c-.03.08-.03.17-.01.25,0,.06.01.11.04.16.03.08.07.14.13.2l.13.1.15.06c.08.03.17.03.25.01.08,0,.16-.03.23-.07l.15-.09c.1-.06.18-.14.24-.24.06-.1.09-.22.09-.34l-.02-.18c-.03-.11-.09-.21-.17-.3-.06-.07-.13-.11-.22-.14-.08-.04-.17-.06-.26-.06-.24,0-.46.13-.58.33h0Z"/>
        </g>
        <g>
          <path class="cls-1" d="M31.08,58.88c-1.11-.38-2.48-.47-3.32-.52-3.53-.21-7.03.7-10.1,2.43-1.84,1.04-4.01,2.47-4.8,4.53-.6,1.55-.07,3.53,1.4,4.38,2.01,1.16,4.52.04,6.49-.64,2.38-.82,4.81-1.68,7.02-2.91,1.81-1.01,4.17-2.56,4.91-4.61.52-1.46-.38-2.24-1.61-2.66Z"/>
          <path class="cls-4" d="M15.62,69.04s.06,0,.09,0c.08,0,.15-.02.22-.05s.13-.07.19-.12l-.11.08h.01s-.08.03-.13.04c.09-.02.17-.05.25-.11.12-.09.21-.24.2-.4-.01-.26-.2-.46-.45-.51l.13.05h-.01s.07.05.11.07c-.04-.03-.08-.07-.12-.1-.09-.05-.19-.07-.29-.07-.03,0-.06,0-.09,0-.14,0-.29.06-.39.16s-.17.25-.16.39.05.29.16.39.24.16.39.16h0Z"/>
          <path class="cls-4" d="M18.09,68.45l.1-.02.11-.05c.06-.03.1-.07.13-.12.03-.03.05-.06.06-.11.03-.06.04-.12.04-.18l-.02-.13-.05-.11c-.03-.06-.07-.1-.12-.13-.05-.04-.1-.07-.16-.09l-.1-.02c-.09-.02-.18-.02-.26,0-.08.02-.16.07-.22.13-.09.1-.14.22-.14.35,0,.07.01.13.04.19.02.06.05.11.1.16.06.06.13.1.22.13.09.02.18.02.26,0h0Z"/>
          <path class="cls-2" d="M29.04,59.88c-.61-.33-1.39-.72-2.06-.3-.36.22-.56.67-.44,1.09.21.76,1,1.01,1.68,1.18.52.13,1.06-.13,1.27-.62s.04-1.09-.44-1.34h0Z"/>
          <path class="cls-2" d="M24.07,60.95c.5,0,.5-.78,0-.78s-.5.78,0,.78h0Z"/>
        </g>
        <g>
          <path class="cls-1" d="M37.15,71.12c-.23-.18-.53-.3-.9-.33-1.13-.08-2.17.85-2.95,1.56-1.82,1.66-3.39,3.92-4.7,5.99-1.32,2.08-2.41,4.39-2.65,6.87-.17,1.76-.03,3.82,1.92,4.43,1.97.62,3.69-.79,4.9-2.18,1.69-1.93,3.04-4.2,3.97-6.6.47-1.21.83-2.47.99-3.76.17-1.34.17-2.7.16-4.05,0-.76-.2-1.53-.74-1.95Z"/>
          <path class="cls-4" d="M29.27,88.56h.24c.2,0,.4-.11.49-.28,0-.01.01-.03.02-.04l-.08.1c.2-.19.2-.51,0-.7l.08.1s-.01-.03-.02-.04c-.09-.17-.3-.29-.49-.28h-.24c-.3.01-.58.26-.57.57s.25.56.57.57h0Z"/>
          <path class="cls-4" d="M31.5,86.84s.04,0,.06-.01l.13-.06c.06-.03.12-.08.15-.14.03-.03.06-.07.07-.12.03-.07.05-.14.05-.21l-.02-.15-.06-.13c-.03-.06-.08-.12-.14-.15-.05-.05-.12-.08-.19-.1-.02,0-.04,0-.06-.01-.1-.03-.2-.03-.3,0-.1.03-.18.08-.25.14l-.09.11c-.05.09-.08.18-.08.28,0,.08.01.15.05.22.02.07.06.13.12.18.07.07.15.12.25.14.1.03.2.03.3,0h0Z"/>
          <path class="cls-2" d="M34.88,72.18c-.8.55-1.53,1.3-2.02,2.14-.44.75.42,1.5,1.14,1.14.79-.4,1.55-1.03,2.09-1.72.3-.39.41-.88.08-1.3-.29-.36-.87-.54-1.28-.26h0Z"/>
          <path class="cls-2" d="M31.13,77.11c-.06.07-.13.15-.19.22-.06.07-.13.15-.18.23-.11.17-.13.34-.15.53,0,.04,0,.07,0,.11,0,.13.02.24.08.35.04.11.1.21.19.3.17.16.41.29.65.27.03,0,.07,0,.1,0,.09,0,.19-.02.28-.04l.24-.1c.09-.05.17-.12.24-.19s.15-.13.22-.19c.1-.09.17-.21.22-.34.07-.12.1-.26.09-.4,0-.26-.11-.56-.31-.74s-.46-.32-.74-.31-.56.1-.74.31h0Z"/>
        </g>
        <g>
          <path class="cls-1" d="M62.45,85.64c-2.26-1.98-4.92-3.45-7.49-4.99-1.85-1.11-3.53-2.47-5.5-3.38-.96-.44-2.03-.84-3.1-.79-1.4.06-2.58.94-2.99,2.3-.69,2.32.97,4.77,2.36,6.47,1.47,1.8,3.32,3.3,5.36,4.4,2.36,1.27,4.98,2.13,7.65,2.38,1.85.17,4.93.3,5.69-1.89.64-1.83-.73-3.39-2-4.5Z"/>
          <path class="cls-4" d="M61.9,90.72c.12,0,.25,0,.37-.03.22-.05.44-.24.43-.48s-.18-.43-.41-.48c-.13-.03-.26-.03-.39-.04-.27-.01-.53.25-.52.52s.23.53.52.52h0Z"/>
          <path class="cls-4" d="M62.55,89.18h.12c.12-.02.22-.05.32-.12s.15-.16.19-.28h0c-.11.1-.23.22-.34.33.1-.03.19-.07.26-.14.08-.08.15-.21.14-.33,0-.11-.04-.2-.1-.29-.08-.1-.18-.15-.3-.19l.34.34h0c-.04-.12-.1-.21-.19-.29s-.2-.11-.32-.11h-.12c-.13-.02-.29.06-.38.15s-.16.25-.16.38.05.28.16.38.24.17.38.16h0Z"/>
          <path class="cls-2" d="M45.49,79.53c.62.51,1.39.73,2.1,1.07s1.4.78,2.23.88c.87.11,1.09-1.03.65-1.56-.51-.62-1.36-.89-2.09-1.18s-1.52-.64-2.32-.58c-.63.04-1.16.9-.57,1.38h0Z"/>
          <path class="cls-2" d="M52.23,82.58s.02.02.03.03c.07.08.15.13.25.16.09.05.19.07.3.07l.2-.03c.13-.04.24-.1.34-.2,0-.01.02-.02.03-.03l.13-.16.08-.19c.03-.11.04-.22.01-.32,0-.07-.02-.14-.06-.2-.02-.07-.05-.13-.1-.18-.04-.06-.08-.11-.15-.15-.05-.05-.11-.08-.18-.1-.1-.05-.2-.07-.31-.07l-.22.03-.19.08-.16.13-.13.16-.08.19c-.03.11-.04.22-.01.32,0,.07.02.14.06.2.03.1.09.19.17.26h0Z"/>
        </g>
        <g>
          <path class="cls-1" d="M71.28,74.3c-.52-2.35-1.09-4.8-2.15-6.98-.79-1.64-2.13-3.53-3.95-4.13-1.14-.37-2.68-.11-3.2,1.09-.44,1.01-.17,2.22-.15,3.28.02,1.36.1,2.72.28,4.07.34,2.64,1.07,5.25,2.44,7.55,1.15,1.93,6.26,7.11,7.3,2.3.49-2.27-.07-4.96-.57-7.19Z"/>
          <path class="cls-4" d="M69.7,81.79c.11,0,.26,0,.36-.04.11-.04.2-.1.28-.19.07-.09.12-.21.11-.32,0-.09-.03-.19-.07-.27-.07-.12-.19-.2-.32-.25-.07-.03-.16-.03-.24-.03h-.12c-.14-.02-.3.06-.39.15s-.17.26-.16.39.05.29.16.39c.1.1.25.18.39.16h0Z"/>
          <path class="cls-4" d="M70.36,79.92h.06c.1-.03.19-.08.26-.15.05-.05.08-.1.1-.16.03-.06.05-.12.04-.19l-.02-.13c-.02-.09-.07-.16-.13-.22-.03-.03-.07-.06-.11-.08l-.12-.05s-.02,0-.03,0h-.06c-.09-.04-.19-.04-.28-.01-.09.03-.17.07-.23.14-.09.1-.15.23-.15.37,0,.07.01.14.05.2.02.07.06.12.11.17.07.07.14.11.23.14.09.03.19.03.28,0h0Z"/>
          <path class="cls-2" d="M63.34,65.52c-.15-.19.1.12.13.15.09.09.19.15.3.22.11.08.23.15.34.24.26.19.53.35.83.45.62.19,1.22-.44,1.04-1.04-.24-.81-1.17-1.52-2.01-1.51-.35,0-.67.22-.8.54-.15.35-.04.67.18.96h0Z"/>
          <path class="cls-2" d="M66.17,69.35l.14.19s.05.06.07.09c.05.07.1.14.16.2.07.05.13.1.2.15l.21.09.23.03c.2,0,.38-.07.53-.19.12-.1.21-.21.27-.35.07-.18.1-.38.04-.57-.06-.21-.19-.38-.3-.56-.13-.2-.31-.35-.54-.41-.22-.06-.5-.03-.69.09s-.36.31-.41.54-.05.5.09.69h0Z"/>
        </g>
        <g>
          <path class="cls-1" d="M89.49,54.06c-1.69-.62-3.2.18-4.23,1.53-1.75,2.29-2.89,5-3.8,7.71s-1.81,5.68-1.96,8.64c-.09,1.85.1,4.27,2.22,4.91,2.19.67,3.98-1.69,5.13-3.18,1.54-2,2.7-4.25,3.55-6.62.85-2.36,1.61-4.82,1.82-7.33.17-2.13-.65-4.89-2.73-5.66Z"/>
          <path class="cls-4" d="M85.31,74.22c.07-.07.14-.13.19-.22.02-.04.04-.07.06-.12.05-.13.06-.29-.02-.41-.07-.1-.16-.17-.28-.21-.05-.02-.13-.02-.19-.02-.1-.01-.21.02-.31.03-.18.03-.36.22-.4.4-.03.15-.02.3.06.44.07.12.2.22.34.26.2.05.4,0,.55-.15h0Z"/>
          <path class="cls-4" d="M86.47,71.98c.65,0,.65-1.01,0-1.01s-.65,1.01,0,1.01h0Z"/>
          <path class="cls-2" d="M87.4,55.12c-.1.09-.2.18-.29.29-.17.2-.27.41-.35.65-.19.55.41,1.14.96.96.24-.08.46-.18.65-.35.1-.09.19-.19.29-.29.16-.17.26-.39.26-.63,0-.22-.1-.48-.26-.63-.36-.33-.89-.34-1.25,0h0Z"/>
          <path class="cls-2" d="M84.58,59.64l-.04.16c-.03.12-.04.24-.05.37,0,.11.02.22.07.31.03.1.09.19.17.26l.17.13c.13.07.26.11.41.11.12-.02.25-.02.37-.05l.16-.04c.34-.09.61-.37.71-.71s0-.73-.26-.99-.64-.36-.99-.26-.61.37-.71.71h0Z"/>
        </g>
      </g>
      <rect class="cls-3" width="100" height="100"/>
    </g>
  </g>
</svg>