<?xml version="1.0" encoding="UTF-8"?>
<svg id="Capa_2" data-name="Capa 2" xmlns="http://www.w3.org/2000/svg" viewBox="0 0 100 100">
  <defs>
    <style>
      .cls-1 {
        fill: #fff;
      }

      .cls-2 {
        fill: #deb579;
      }

      .cls-3 {
        fill: none;
      }

      .cls-4 {
        fill: #4a2d2d;
      }
    </style>
  </defs>
  <g id="COLOR">
    <g>
      <g>
        <path class="cls-2" d="M96.6,84.37c-.53-1.41-1.69-2.34-2.65-3.45-1.32-1.53-2.17-3.32-2.68-5.27-.96-3.68-.74-7.61-.37-11.36.72-7.3.54-14.44-4.57-20.23,2.44-4.44,3.17-9.82-1.12-13.58-2.95-2.58-6.89-4.03-10.08-6.34-3.5-2.54-6.4-5.56-9.36-8.68-2.63-2.77-5.17-4.34-8.9-5.12-2.69-.56-5.27-.44-7.77.38-1.99.58-3.83,1.54-5.47,2.87-2.87,2.34-5.68,3.91-9.25,4.94-5.78,1.66-12.55,1.88-17.64,5.4-4.5,3.12-6.25,8.8-5.28,14.05.4,2.17,1.24,4.15,2.37,5.95-.73,4.33-2.91,7.69-5.42,11.29-2.18,3.12-3.88,6.27-4.4,10.09-.44,3.2-.15,6.52,1.2,9.48.74,1.61,1.9,2.97,2.64,4.57,1.25,2.7-.22,4.4-1.62,6.56-1.4,2.15-1.89,4.8-.6,7.14,1.4,2.56,4.3,3.23,7.02,3.06,4.32-.28,8.53-1.31,12.89-1.46,4.64-.17,9.27.28,13.83,1.07,4.62.81,9.09,1.26,13.78.72,2.6-.3,5.19-.67,7.73-1.27,2.4-.57,4.8-1.25,7.27-1.43,2.54-.18,5.06.35,7.57.6,3.55.36,7.14.64,10.69.08,4.38-.7,12.37-4.19,10.16-10.04Z"/>
        <g>
          <g>
            <path class="cls-1" d="M75.27,29.42c-2.43-1.77-5.43-1.13-7.96.14.23-1.69.15-3.48-1.33-4.6-1.23-.93-3.14-.99-4.74-.64.22-1.75-.67-3.45-2.46-4.23-2.39-1.03-5.02-.09-6.81,1.63-1.23-2.59-4.36-4.27-7.17-3.59-3.47.83-4.27,3.59-4.03,6.58-3.48-1.13-7.88-.09-8.46,3.7-3.9-2.47-9.25-1.38-11.23,3.11-.08.11-.14.24-.16.38,0,0,0,.01,0,.02-.06.15-.03.29.03.4.78,5.27,5.87,10.61,10.46,12.87,5.41,2.67,12.14,3.78,18.11,4.31,4.35.39,8.8.07,13.03-1.05,4.21-1.12,8.25-3.08,11.44-6.07,1-.94,1.92-1.98,2.72-3.1,1.11-1.56,2.05-3.21,1.63-5.19-.38-1.81-1.54-3.59-3.04-4.67Z"/>
            <path class="cls-4" d="M38.7,36.48c-1.5-.77-3.35-.4-4.5.8-.34.35.1.98.54.69,1.03-.67,2.33-.91,3.44-.26,1.09.64,1.1,1.7,1.62,2.7.16.31.73.35.88,0,.64-1.49-.67-3.26-1.97-3.93Z"/>
            <path class="cls-4" d="M48.23,28.2c-1.53.01-2.75,1.09-3.42,2.39-.32.64.6,1.18.96.56.49-.83,1.28-1.63,2.32-1.66,1.04-.03,1.35.68,2.02,1.26.37.32.92.1.95-.39.09-1.36-1.67-2.17-2.83-2.16Z"/>
            <path class="cls-4" d="M55.01,35.2c-1.31-.23-2.45.61-3.4,1.4-.4.34.13,1.05.57.74.68-.48,1.46-1.05,2.34-.99.81.05.96.59,1.47,1.06.28.26.74.15.85-.22.32-1.07-.93-1.83-1.82-1.99Z"/>
            <path class="cls-4" d="M64.9,37.64c-1.25.42-1.99,1.62-1.98,2.91,0,.76,1.08.72,1.15,0,.08-.77.64-1.51,1.41-1.69.79-.18,1.33.28,1.96.65.52.3,1-.28.77-.77-.54-1.15-2.2-1.47-3.32-1.1Z"/>
          </g>
          <path class="cls-4" d="M85.22,30.48c-2.95-2.58-6.89-4.03-10.08-6.34-3.5-2.54-6.4-5.56-9.36-8.68-2.63-2.77-5.17-4.34-8.9-5.12-2.69-.56-5.27-.44-7.77.38-1.99.58-3.83,1.54-5.47,2.87-2.87,2.34-5.68,3.91-9.25,4.94-5.78,1.66-12.55,1.88-17.64,5.4-4.5,3.12-6.25,8.8-5.28,14.05,1.13,6.09,5.62,10.73,10.81,13.78,3.26,1.91,6.84,3.24,10.44,4.33,3.89,1.18,7.6,2.1,11.66,2.49,5.96.57,12.03.44,17.95-.46,7.89-1.2,15.18-3.81,20.79-9.69,4.45-4.66,7.92-12.81,2.07-17.93ZM81.76,47.55c-4.04,4.02-10.03,6.73-14.78,7.89-1.6.39-3.23.68-4.86.88-6.14.74-12.36.42-18.49-.31-5.62-.67-11.21-1.69-16.44-3.94-1.69-.73-3.32-1.58-4.88-2.55-6.27-3.9-12.31-12.38-8.38-19.94,3.59-6.91,12.11-7.21,18.82-8.83,3.1-.75,6.18-1.76,8.87-3.51,1.33-.87,2.46-1.98,3.73-2.93,1.51-1.13,3.18-1.9,4.95-2.43,1.92-.48,3.83-.63,5.96-.19,3.29.68,5.76,2.36,8.01,4.8,4.58,4.95,9.18,9.39,15.11,12.74,3.34,1.89,6.67,3.67,6.89,7.97.21,4.05-1.67,7.53-4.51,10.36Z"/>
          <path class="cls-4" d="M6.99,64.51c3.49,3.23,7.87,5.02,12.66,4.67.43-.03.44-.66,0-.68-4.45-.24-8.62-1.69-12-4.65-.45-.39-1.1.25-.66.66h0Z"/>
          <path class="cls-4" d="M9.92,73.45c1.63,1.3,3.74,2.3,5.88,2.09.47-.05.67-.8.12-.9-1.99-.35-3.75-.74-5.44-1.92-.43-.3-.97.4-.56.72h0Z"/>
          <path class="cls-4" d="M60.16,74.14c6.7.29,14.21-.12,19.8-4.28.41-.31.06-.96-.41-.7-6.02,3.23-12.61,4.29-19.39,4.08-.58-.02-.58.88,0,.91h0Z"/>
          <path class="cls-4" d="M69.14,80.63c2.83-.12,5.56-.87,7.82-2.62.36-.28-.1-.79-.47-.6-2.35,1.17-4.72,2.11-7.35,2.36-.54.05-.56.88,0,.86h0Z"/>
        </g>
        <path class="cls-4" d="M20.05,31.51c.4,5.65,4.25,10.74,8.85,13.78,5.58,3.69,12.37,4.65,18.91,5.09,6.76.45,13.48-.29,19.67-3.16,4.92-2.28,11.62-6.54,13.35-12.01.25-.8-.92-1.28-1.34-.57-6.35,10.73-18.89,14.75-30.79,14.23-5.96-.26-12.2-.91-17.54-3.76-5.52-2.95-8.91-7.63-10.02-13.74-.11-.6-1.12-.47-1.07.15h0Z"/>
      </g>
      <rect class="cls-3" width="100" height="100"/>
    </g>
  </g>
</svg>