<?xml version="1.0" encoding="UTF-8"?>
<svg id="Capa_2" data-name="Capa 2" xmlns="http://www.w3.org/2000/svg" viewBox="0 0 100 100">
  <defs>
    <style>
      .cls-1 {
        fill: #c6cb79;
      }

      .cls-2 {
        fill: #fff;
      }

      .cls-3 {
        fill: none;
      }

      .cls-4 {
        fill: #4a2d2d;
      }

      .cls-5 {
        fill: #f7bc3b;
      }
    </style>
  </defs>
  <g id="COLOR">
    <g>
      <rect class="cls-3" width="100" height="100"/>
      <g>
        <g>
          <g>
            <g>
              <path class="cls-1" d="M88.47,92.34c-.36-.9-.86-1.66-1.42-2.49-1.05-1.57-1.33-2.87-.98-4.73.59-3.14,1.14-6.26,1.48-9.44.72-6.73.81-13.5.41-20.26-.79-13.39-3.23-26.53-5.55-39.71.59-.73,1-1.6,1.45-2.42.43-.79.82-1.61,1.22-2.41.2-.4.41-.8.63-1.2.19-.35.46-.67.42-1.09-.05-.44-.37-.78-.8-.86-5.17-1.03-10.52-.74-15.76-.72-5.53.02-11.05.1-16.58.26-11.03.33-35.9.46-34.67,2.72.59,1.09,1.12,2.21,1.71,3.31.45.83.86,1.69,1.45,2.42-2.32,13.18-4.76,26.32-5.55,39.71-.4,6.75-.31,13.53.41,20.26.34,3.18.89,6.3,1.48,9.44.35,1.83.05,3.2-.98,4.73-.38.57-.77,1.14-1.08,1.75-.38.74-.69,1.52-.34,2.33.15.33.37.56.75.58,13.79.37,27.64-.44,41.45-.35,5.28.04,10.55.2,15.82.37,4.79.15,9.87.54,14.61-.38.85-.17.94-1.3.43-1.81Z"/>
              <path class="cls-4" d="M55.47,15.75c3.25-.02,6.72.39,9.92-.19.75-.14.72-1.33,0-1.49-3.04-.66-6.41-.32-9.51-.3-3.37.02-6.75.1-10.12.22-6.77.24-13.47.75-20.21,1.46-.75.08-.78,1.23,0,1.19,6.72-.35,13.47-.59,20.21-.75,3.24-.08,6.48-.12,9.71-.14Z"/>
              <path class="cls-4" d="M70.11,15.91c1.2.01,2.41.06,3.61.17,1.17.11,2.4.49,3.56.34.56-.07.84-.77.3-1.11-1.94-1.22-5.29-1.02-7.47-.8-.88.09-.92,1.39,0,1.4Z"/>
              <path class="cls-4" d="M77.48,85.37c-7.21-.03-14.42.03-21.62.28-3.47.12-6.94.3-10.41.39-3.44.08-7.25-.3-10.6.51-.66.16-.72,1.27,0,1.4,3.41.6,7.16,0,10.6-.11,3.47-.11,6.94-.12,10.41-.17,7.21-.11,14.42-.36,21.62-.67,1.05-.04,1.06-1.63,0-1.64Z"/>
              <path class="cls-4" d="M28.41,86.14c-.64,0-1.39-.13-1.95.25-.44.3-.4.82,0,1.13.53.4,1.32.32,1.95.34.46.02.86-.41.86-.86s-.39-.85-.86-.86Z"/>
            </g>
            <path class="cls-2" d="M79.51,43.98c-4.28-17.32-25.47-23.05-39.97-14.62-10.45,6.07-15.84,19.39-12.01,30.97,3.29,9.94,12.9,16.06,22.99,17.24,11.22,1.32,22.29-3.47,27.02-14.1,2.69-6.03,3.57-13.04,1.97-19.49Z"/>
            <path class="cls-4" d="M75.83,80.03c.18-.3.28-.67.15-1.02v.59c.06-.2.07-.43.02-.64-.02-.08-.08-.2-.12-.27-.08-.15-.16-.21-.28-.3-.11-.08-.23-.15-.36-.19-.05-.01-.25-.04-.3-.04-.05,0-.1,0-.15.02-.1,0-.19.03-.28.08-.09.04-.11.04-.18.09l.56-.15c-.35,0-.69.14-.92.41-.15.15-.25.32-.3.52l-.04.31c0,.21.05.41.16.59.07.14.17.25.3.33.11.1.25.17.4.21.16.05.31.06.47.02.16,0,.3-.05.44-.14.18-.1.32-.25.42-.42h0Z"/>
            <path class="cls-4" d="M79.77,75.93s.02,0,.03.01c.1.04.29.04.39,0,0,0,.01,0,.02,0,0,0,0,0,0,0,.11-.03.21-.08.29-.15.09-.06.16-.14.22-.24.06-.1.09-.2.1-.31.03-.11.02-.22-.02-.34-.04-.14-.11-.27-.22-.37l-.17-.13c-.13-.08-.27-.11-.43-.12l-.22.03c-.14.04-.27.11-.37.22l-.13.17c-.08.13-.11.27-.12.43,0,.12.02.22.07.32.03.1.09.19.17.27.11.1.23.18.37.22h0Z"/>
            <path class="cls-4" d="M29.56,32.3s.02-.09.04-.13c.06-.24.04-.49-.09-.71-.08-.13-.19-.25-.33-.33s-.3-.12-.46-.12c-.16,0-.32.04-.46.12l-.18.14s-.06.08-.09.11c-.12.12-.2.26-.24.41-.04.17-.04.33,0,.5.08.23.22.43.43.56.11.07.22.11.35.11.12.03.25.02.37-.02.31-.09.57-.34.66-.66h0Z"/>
            <path class="cls-4" d="M34.48,26.61c.67,0,.67-1.03,0-1.03s-.67,1.03,0,1.03h0Z"/>
          </g>
          <path class="cls-2" d="M72.81,25.84c.6.35,1.3.91,2.03.69.48-.14.74-.63.63-1.11-.17-.73-1.01-1.07-1.59-1.42-.48-.29-1.19-.12-1.46.38s-.13,1.16.38,1.46h0Z"/>
          <path class="cls-2" d="M77.02,30.97c.02.09.04.18.07.27.04.15.12.3.19.43.31.58,1.23.58,1.54,0,.08-.14.15-.28.19-.43.02-.09.04-.18.07-.27.09-.36,0-.78-.27-1.04-.21-.19-.46-.31-.75-.31-.27,0-.56.12-.75.31-.28.28-.36.66-.27,1.04h0Z"/>
          <path class="cls-2" d="M24.09,76.08c.44.85.84,1.76,1.68,2.28.57.35,1.16-.12,1.22-.7.1-.98-.46-1.91-.87-2.77-.27-.57-1.1-.72-1.61-.42-.57.34-.71,1.04-.42,1.61h0Z"/>
        </g>
        <path class="cls-5" d="M40.09,54.81c-.26.28-.52.58-.76.88-.5.62-.94,1.27-1.29,1.99-.34.7-.57,1.51-.57,2.29,0,.43.2.49.46.4.3-.19.54-.49.74-.78.45-.63.78-1.34,1.15-2.02.37-.68.75-1.38,1.02-2.1.15-.4.3-.82.38-1.24.01-.07.02-.25.02-.24,0,0-.23.04-.29.07-.34.16-.62.49-.87.76Z"/>
        <path class="cls-5" d="M44.07,59.23c.51.5,1.09.93,1.69,1.32.6.39,1.24.74,1.9,1.02.16.07,1.79.75,1.83.63,0-.03.03-.04.04-.07,0-.03,0-.06,0-.1-.08-.34-.47-.7-.71-.93-.25-.25-.52-.48-.78-.72-.54-.49-1.12-.95-1.74-1.34-.57-.36-1.31-.84-2-.89-.23-.02-.6.04-.66.32-.06.29.25.58.43.76Z"/>
        <path class="cls-5" d="M51.48,67.14c-.27-.18-.57-.3-.87-.42-.76-.29-1.56-.47-2.36-.63-.94-.19-1.89-.37-2.84-.42-.32-.02-1.01-.22-1.11.11-.21.68,1.7,1.22,2.68,1.58.84.31,1.72.49,2.62.5.4,0,.81-.03,1.21-.08,1.16-.14.85-.52.68-.63Z"/>
        <path class="cls-5" d="M56.31,38.74c-.59.07-1.22.36-1.76.6-.55.25-1.08.54-1.6.86-.17.11-.34.22-.51.33-.41.33-.8.7-1.12,1.1-.1.12-.2.26-.26.4-.02.06-.06.16-.06.21,0,.02,0,.04,0,.05.17.12.58.06.77.04.63-.08,1.25-.37,1.82-.66,1.07-.54,2.07-1.24,2.92-2.08.14-.14.51-.45.39-.68-.1-.19-.42-.18-.59-.16Z"/>
        <path class="cls-5" d="M37.35,44.08c1.1-.1,2.17-.26,3.22-.64.48-.17,1.06-.38,1.45-.71.1-.09.28-.24.19-.38-.07-.1-.25-.11-.35-.12-.27,0-.54.04-.81.07-1.32.15-2.67.33-3.95.72-.3.09-1.45.38-1.38.8.09.48,1.31.28,1.63.25Z"/>
        <path class="cls-5" d="M34.68,47.93c-.87-.14-.7,2.63-.69,3.06.04,1.44.28,2.89.87,4.21.11.24.38.81.73.62.23-.13.29-.62.34-.85.08-.37.12-.75.16-1.13.14-1.56-.05-3.15-.61-4.63-.13-.34-.35-1.21-.8-1.28Z"/>
        <path class="cls-5" d="M45.27,40.99s0,.08.02.11c.11.72.19,1.5.48,2.18.16.38.52.87.86.37.19-.27.28-.64.35-.95.17-.71.2-1.44.22-2.16.02-.73-.01-1.46-.15-2.17-.13-.67-.34-1.34-.67-1.93-.14-.25-.39-.62-.72-.47-.29.13-.38.48-.43.77-.12.74-.11,1.54-.1,2.29,0,.66.12,1.31.15,1.96Z"/>
        <path class="cls-5" d="M51.22,52.21c-.75.05-1.49.2-2.21.42-.72.22-1.41.52-2.07.91-.48.28-1.13.71-1.01,1.31.05.02.12.02.23.02.2.01.41,0,.61,0,.37-.03.73-.1,1.09-.2.79-.22,1.53-.58,2.24-.98.65-.37,1.36-.72,1.94-1.2.03-.02.17-.18.26-.28,0,0-.01,0-.02,0-.35-.04-.72-.01-1.07.01Z"/>
        <path class="cls-5" d="M39.6,62.3c-.28.72-.34,1.51-.42,2.28-.07.73-.17,1.45-.13,2.2.02.31,0,1.52.42,1.63.26.06.42-.78.47-.96.29-.99.45-2.03.48-3.06,0-.06,0-.12,0-.18.02-.67.04-1.41-.15-2.05-.16-.54-.55-.2-.68.16Z"/>
        <path class="cls-5" d="M48.85,46.64c1.14.97,2.63,1.68,4.06,2.09.35.1.71.19,1.07.27.3.06.66.15.96.02.68-.3-.12-1.1-.42-1.36-.5-.43-1.13-.76-1.75-.99-1.16-.43-2.6-.72-3.83-.52-.09.01-.2.04-.24.12-.03.06-.02.14,0,.21.03.06.09.11.14.16Z"/>
        <path class="cls-5" d="M49.69,34.73c.24.18.55.16.83.26.36.12.73.24,1.1.35,1.51.44,3.11.77,4.69.8.27,0,.56,0,.8-.14.04-.02.09-.05.11-.1.02-.05.02-.1,0-.15-.02-.05-.07-.1-.11-.14-1.19-1.12-3.12-1.5-4.68-1.61-.86-.06-1.99-.17-2.71.42-.07.06-.14.15-.1.23.01.04.04.06.08.08Z"/>
        <path class="cls-2" d="M64.73,38.07c.8-.26,1.56.21,2.13.73,1.17,1.07,2.15,2.5,2.6,4.03.21.69.23,1.82-.65,2.06-.49.13-1.01-.21-1.41-.46-.45-.28-.87-.62-1.21-1.03-.3-.35-.58-.71-.86-1.09-.55-.75-1.11-1.58-1.45-2.45-.31-.77.06-1.54.85-1.79Z"/>
        <path class="cls-2" d="M63.18,45.55c.53-.14,1.08-.23,1.62-.29,1.07-.1,2.18-.07,3.24.15.75.16,1.54.48,1.98,1.14.54.82-.05,1.57-.79,1.97-1.65.89-3.88.69-5.64.26-.78-.19-1.88-.43-2.38-1.12-.45-.63-.06-1.39.57-1.7.37-.18.78-.29,1.21-.37.06-.02.13-.03.19-.05Z"/>
        <path class="cls-2" d="M66.36,54.83c-.04.53-.5.89-1,.96-.52.07-1.1-.1-1.59-.26-.51-.16-1-.38-1.46-.64-.76-.43-1.42-.96-2.02-1.55-.4-.33-.78-.68-1.13-1.05-.63-.65-1.49-1.69-1.26-2.67.28-1.17,1.84-.84,2.67-.57,1.08.36,2.01,1.01,2.84,1.78.83.76,1.63,1.6,2.29,2.51.3.42.7.96.66,1.5Z"/>
        <path class="cls-2" d="M60.63,38.08c.83-.3,1.75.08,1.84,1.02.08.88-.2,1.9-.52,2.71-.34.88-.79,1.72-1.37,2.46-.52.66-1.17,1.53-2.03,1.74-.46.11-.94-.03-1.15-.47-.18-.37-.16-.88-.13-1.27.05-.65.2-1.27.42-1.88.25-.87.61-1.7,1.08-2.47.45-.74,1.01-1.53,1.86-1.84Z"/>
        <path class="cls-2" d="M57.12,40.42c-1.16,1.12-2.54,1.98-4.05,2.54-.74.28-1.71.54-2.47.2-.85-.38-.61-1.4-.16-2,.41-.54.95-.99,1.54-1.36.37-.3.79-.55,1.17-.76.78-.44,1.62-.8,2.47-1.09.72-.25,1.66-.31,2.13.42.5.77-.09,1.52-.64,2.05Z"/>
        <path class="cls-2" d="M48.99,34.13c.12-.23.3-.4.51-.55.62-.55,1.69-.52,2.47-.47,1.2.08,2.44.19,3.58.6.84.31,1.84.8,2.39,1.53.68.9-.4,1.69-1.21,1.86-.99.2-2.16-.04-3.14-.24-1.09-.22-2.17-.58-3.17-1.07-.6-.29-1.93-.77-1.43-1.68Z"/>
        <path class="cls-2" d="M49.42,45.17c.23,0,.46,0,.7.01.5-.02,1.01.03,1.44.08,1.02.11,1.99.41,2.86.96.75.47,1.54,1.14,1.72,2.06.16.86-.35,1.6-1.18,1.82-.9.24-1.97-.08-2.82-.38-.88-.31-1.7-.74-2.45-1.28-.39-.28-.73-.59-1.06-.92-.29-.29-.63-.6-.71-1.02-.18-.9.79-1.31,1.52-1.32Z"/>
        <path class="cls-2" d="M53.13,52.97c-.32.38-.75.66-1.16.92-.42.26-.85.52-1.29.75-.97.51-1.99.89-3.08,1.01-.57.06-1.16.05-1.73-.07-.34-.07-.63-.24-.71-.6-.21-.91.52-1.79,1.24-2.23.35-.21.73-.39,1.13-.53.55-.25,1.11-.46,1.67-.62.98-.28,2.03-.45,3.05-.44.42,0,.87.1,1.1.49.26.44.08.95-.22,1.31Z"/>
        <path class="cls-2" d="M44.44,36.64c.09-.65.39-1.33,1.07-1.51.59-.16,1.16.19,1.5.65.52.71.79,1.65.94,2.51.16.95.2,1.92.11,2.87-.08.9-.21,1.82-.62,2.64-.36.73-1.1,1.21-1.83.6-.7-.59-.83-1.66-.96-2.51-.08-.53-.15-1.07-.19-1.61-.16-1.15-.16-2.48,0-3.63Z"/>
        <path class="cls-2" d="M46.74,49.03c.38.36.83.74.81,1.3-.02.55-.52.95-1.01,1.08-1.18.32-2.51-.27-3.57-.73-.7-.3-1.4-.62-2.05-1.02-.5-.23-1.05-.48-1.42-.88-.38-.41-.52-1.01-.23-1.51.25-.44.75-.7,1.23-.81,1.13-.26,2.38-.03,3.42.45,1.08.51,1.96,1.31,2.82,2.12Z"/>
        <path class="cls-2" d="M36.28,42.52c1.15-.46,2.47-.71,3.7-.89.44-.06.89-.1,1.33-.11.39-.01.83-.04,1.19.14.65.34.62,1.07.19,1.58-.45.53-1.19.82-1.82,1.06-1.43.54-2.94.66-4.44.45-.58-.08-1.37-.26-1.4-.99-.03-.68.73-1.03,1.26-1.24Z"/>
        <path class="cls-2" d="M35.63,56.67c-.22.04-.45-.04-.64-.16-.33-.21-.58-.55-.78-.87-.91-1.48-1.39-3.35-1.35-5.08.03-1.1.14-2.87,1.2-3.5.96-.57,1.77.34,2.13,1.15.94,2.12,1.19,4.49.62,6.75-.16.62-.44,1.58-1.18,1.71Z"/>
        <path class="cls-2" d="M41.42,64.54c-.11,1-.35,2.01-.71,2.95-.22.59-.53,1.67-1.27,1.78-.65.1-.99-.48-1.15-1.02-.18-.6-.21-1.24-.23-1.86-.03-1.01.09-2.08.31-3.06.18-.77.48-1.77,1.13-2.28.75-.6,1.58-.05,1.82.76.25.85.2,1.86.1,2.73Z"/>
        <path class="cls-2" d="M42.07,55.26c-.34,1.07-.87,2.05-1.46,2.99-.44.69-.93,1.37-1.52,1.94-.19.19-.42.4-.68.57-.3.22-.64.41-1.01.38-.42-.03-.69-.37-.76-.77-.01-.07,0-.13-.01-.2-.05-.3-.03-.63-.01-.9.04-.62.2-1.23.42-1.8.4-1.02,1.05-1.93,1.79-2.73.63-.67,1.41-1.66,2.41-1.72.5-.03.92.26,1.03.75.11.48-.06,1.04-.2,1.5Z"/>
        <path class="cls-2" d="M42.82,58.05c.19-.46.62-.8,1.12-.88.98-.16,2.04.43,2.85.93.82.5,1.63,1.13,2.26,1.85.54.62,1.17,1.28,1.21,2.14.02.32-.09.66-.36.85-.62.42-1.6.02-2.23-.21-1.41-.51-2.88-1.39-3.98-2.48-.19-.19-.37-.38-.53-.58-.39-.47-.59-1.03-.35-1.62Z"/>
        <path class="cls-2" d="M52.36,68.46c-.9.55-2.05.62-3.08.48-.25,0-.5-.02-.72-.05-1.25-.14-2.45-.54-3.57-1.12-.77-.4-1.99-1-1.88-2.05.12-1.15,1.58-1.27,2.46-1.23,1.22.06,2.47.3,3.66.6.98.25,1.95.54,2.75,1.19.35.28.78.66.92,1.1.14.47-.16.85-.54,1.08Z"/>
        <path class="cls-2" d="M54.06,62.02c-.74.48-1.87.52-2.11-.51-.12-.53,0-1.16.1-1.68.1-.49.26-.97.45-1.44.4-.99.92-1.92,1.53-2.8.52-.76,1.31-1.81,2.31-1.93.36-.04.69.09.96.31.35.29.59.73.64,1.15.07.66-.14,1.34-.36,1.96-.34.96-.79,1.88-1.38,2.7-.57.8-1.3,1.68-2.14,2.23Z"/>
        <path class="cls-2" d="M60.86,68.93s-.02.04-.03.07c-.16.49-.57.86-1.11.84-.35-.01-.63-.16-.88-.37-.3-.22-.56-.51-.77-.8-.73-1.01-1.19-2.32-1.48-3.52-.16-.65-.26-1.31-.3-1.97-.04-.55-.11-1.27.15-1.78.27-.52.9-.67,1.42-.46.53.21.88.72,1.2,1.17.71.99,1.21,2.17,1.61,3.32.04.11.08.23.12.35.32,1.02.5,2.16.08,3.16Z"/>
        <path class="cls-2" d="M68.01,66c-.33.52-.97.45-1.5.34-.55-.11-1.08-.36-1.55-.66-.75-.48-1.35-1.21-1.91-1.91-.58-.72-1.11-1.49-1.57-2.29-.4-.7-.92-1.62-.58-2.44.28-.67,1-.97,1.69-.81.54.12.99.51,1.4.85.44.36.85.75,1.24,1.15.78.81,1.5,1.71,2.08,2.69.49.84,1.3,2.11.7,3.07Z"/>
        <path class="cls-2" d="M72.34,55.79c-.29,1.07-.78,2.09-1.33,3.04-.44.76-1.06,2.09-2.1,2.05-1.11-.04-1.11-1.44-1.07-2.24,0-.01,0-.02,0-.03,0-.13,0-.25,0-.36.07-1.21.45-2.4.97-3.49.46-.97,1.02-2.01,1.72-2.83.77-.92,1.81-.07,2.04.85.24.97.03,2.06-.23,3Z"/>
        <path class="cls-4" d="M36.43,44.75c1.5.21,3.02.1,4.44-.45.63-.24,1.37-.53,1.82-1.06.43-.51.46-1.24-.19-1.58-.36-.19-.8-.15-1.19-.14-.45.01-.89.05-1.33.11-1.23.18-2.54.43-3.7.89-.52.21-1.29.56-1.26,1.24.04.73.82.91,1.4.99ZM37.1,43.03c1.28-.39,2.62-.57,3.95-.72.27-.03.54-.07.81-.07.11,0,.28.02.35.12.09.13-.09.29-.19.38-.39.33-.97.54-1.45.71-1.05.38-2.11.54-3.22.64-.32.03-1.54.22-1.63-.25-.08-.42,1.07-.7,1.38-.8Z"/>
        <path class="cls-4" d="M44.64,41.88c.13.84.26,1.92.96,2.51.73.61,1.47.13,1.83-.6.41-.82.54-1.73.62-2.64.09-.96.05-1.93-.11-2.87-.15-.86-.42-1.8-.94-2.51-.34-.46-.91-.82-1.5-.65-.68.19-.99.86-1.07,1.51-.15,1.15-.15,2.48,0,3.63.04.54.11,1.08.19,1.61ZM45.23,36.73c.05-.28.14-.64.43-.77.33-.15.58.22.72.47.34.6.55,1.26.67,1.93.14.71.17,1.45.15,2.17-.02.72-.05,1.46-.22,2.16-.07.31-.17.68-.35.95-.35.5-.7,0-.86-.37-.29-.67-.37-1.46-.48-2.18,0-.04,0-.08-.02-.11-.03-.65-.14-1.3-.15-1.96,0-.75-.02-1.55.1-2.29Z"/>
        <path class="cls-4" d="M50.43,35.8c1.01.48,2.08.84,3.17,1.07.98.2,2.14.44,3.14.24.81-.16,1.89-.96,1.21-1.86-.55-.73-1.55-1.23-2.39-1.53-1.14-.42-2.38-.53-3.58-.6-.78-.05-1.86-.08-2.47.47-.2.14-.38.32-.51.55-.49.91.83,1.39,1.43,1.68ZM49.72,34.41c.72-.59,1.85-.49,2.71-.42,1.57.11,3.49.49,4.68,1.61.04.04.08.09.11.14.02.05.03.1,0,.15-.02.05-.07.07-.11.1-.24.13-.54.14-.8.14-1.58-.03-3.18-.36-4.69-.8-.37-.11-.74-.22-1.1-.35-.28-.09-.59-.08-.83-.26-.03-.02-.06-.05-.08-.08-.03-.08.03-.17.1-.23Z"/>
        <path class="cls-4" d="M57.76,38.37c-.47-.73-1.41-.67-2.13-.42-.85.29-1.69.65-2.47,1.09-.38.21-.81.46-1.17.76-.59.38-1.13.83-1.54,1.36-.45.6-.69,1.62.16,2,.76.34,1.73.08,2.47-.2,1.51-.56,2.89-1.42,4.05-2.54.55-.53,1.14-1.28.64-2.05ZM56.52,39.57c-.85.84-1.85,1.55-2.92,2.08-.57.28-1.19.57-1.82.66-.19.03-.6.09-.77-.04,0,0,0-.02,0-.05,0-.06.04-.16.06-.21.06-.14.16-.28.26-.4.33-.4.71-.77,1.12-1.1.17-.11.34-.22.51-.33.52-.32,1.04-.61,1.6-.86.54-.24,1.17-.52,1.76-.6.18-.02.49-.03.59.16.13.23-.25.54-.39.68Z"/>
        <path class="cls-4" d="M57.27,44.26c-.03.39-.05.91.13,1.27.22.44.69.58,1.15.47.86-.21,1.51-1.08,2.03-1.74.58-.74,1.03-1.58,1.37-2.46.31-.81.6-1.83.52-2.71-.09-.94-1.01-1.33-1.84-1.02-.84.31-1.41,1.1-1.86,1.84-.47.77-.83,1.6-1.08,2.47-.22.6-.37,1.23-.42,1.88ZM58.34,43.38c.14-.71.37-1.41.67-2.07.31-.66.68-1.34,1.2-1.86.17-.17,1.05-.84,1.18-.31.07.27-.04.67-.08.94-.07.38-.16.75-.28,1.12-.21.66-.5,1.29-.85,1.88-.36.61-.75,1.23-1.25,1.73-.12.12-.43.4-.65.39-.05-.22-.1-.43-.09-.66,0-.39.07-.77.15-1.15Z"/>
        <path class="cls-4" d="M65.33,42.32c.27.37.56.73.86,1.09.34.41.76.75,1.21,1.03.4.25.92.59,1.41.46.88-.24.86-1.37.65-2.06-.46-1.53-1.43-2.96-2.6-4.03-.57-.52-1.33-1-2.13-.73-.78.26-1.15,1.02-.85,1.79.34.87.9,1.7,1.45,2.45ZM64.75,39.1c.47-.5,1.31.35,1.63.67.98.95,2.15,2.45,2.31,3.85.01.09.01.19-.03.27-.25.44-1.6-.97-1.8-1.19-.5-.56-.95-1.16-1.35-1.79-.2-.32-1.09-1.48-.76-1.82Z"/>
        <path class="cls-4" d="M61.21,47.67c.5.7,1.6.94,2.38,1.12,1.76.42,3.99.63,5.64-.26.74-.4,1.34-1.16.79-1.97-.44-.66-1.24-.98-1.98-1.14-1.06-.22-2.17-.25-3.24-.15-.55.05-1.09.15-1.62.29-.06.02-.13.03-.19.05-.43.08-.84.19-1.21.37-.63.31-1.02,1.07-.57,1.7ZM61.87,46.84c.08-.1.21-.14.33-.16,1.36-.25,2.64-.6,4.04-.56.65.02,1.32.07,1.95.26.35.1,1.51.66.87,1.06-.55.34-1.31.45-1.94.5-.72.06-1.44.02-2.16-.05-.74-.07-1.45-.24-2.17-.41-.21-.05-1.26-.22-.93-.64Z"/>
        <path class="cls-4" d="M47.91,46.49c.08.41.42.73.71,1.02.34.33.68.64,1.06.92.76.54,1.58.97,2.45,1.28.85.3,1.92.62,2.82.38.83-.22,1.35-.96,1.18-1.82-.17-.91-.97-1.59-1.72-2.06-.87-.55-1.84-.85-2.86-.96-.43-.05-.94-.1-1.44-.08-.23,0-.47-.01-.7-.01-.72.01-1.7.43-1.52,1.32ZM48.7,46.27c.05-.08.15-.11.24-.12,1.23-.2,2.68.09,3.83.52.62.23,1.24.56,1.75.99.3.26,1.1,1.06.42,1.36-.29.13-.66.04-.96-.02-.36-.08-.71-.17-1.07-.27-1.43-.41-2.92-1.12-4.06-2.09-.05-.05-.11-.1-.14-.16-.03-.06-.04-.14,0-.21Z"/>
        <path class="cls-4" d="M60.29,53.33c.59.6,1.26,1.13,2.02,1.55.47.26.96.48,1.46.64.49.16,1.07.34,1.59.26.5-.07.96-.43,1-.96.04-.54-.36-1.08-.66-1.5-.66-.91-1.47-1.75-2.29-2.51-.83-.76-1.76-1.42-2.84-1.78-.82-.27-2.39-.59-2.67.57-.23.98.63,2.02,1.26,2.67.35.37.73.72,1.13,1.05ZM58.88,50.12c-.03-.09-.04-.2,0-.29.18-.32.94,0,1.18.07.47.16.93.37,1.35.63,1.07.65,1.93,1.57,2.75,2.5.3.33.65.67.88,1.06.08.15.66.89-1.08.22-.43-.17-.86-.35-1.28-.57-1.36-.71-2.72-1.72-3.54-3.04-.11-.18-.21-.38-.27-.59Z"/>
        <path class="cls-4" d="M67.85,58.26c0,.11,0,.23,0,.36,0,.01,0,.02,0,.03-.04.8-.04,2.2,1.07,2.24,1.04.04,1.66-1.3,2.1-2.05.56-.95,1.04-1.97,1.33-3.04.26-.94.47-2.04.23-3-.23-.92-1.26-1.77-2.04-.85-.7.82-1.26,1.86-1.72,2.83-.51,1.09-.89,2.28-.97,3.49ZM69.54,55.54c.43-.99.99-1.91,1.57-2.81.04-.06.09-.13.15-.15.31-.12.32.69.32.85,0,1.58-.5,3.14-1.21,4.54-.02.04-.04.07-.05.11-.18.36-.38.71-.6,1.05-.1.17-.32.71-.53.76-.35.08-.42-.7-.44-.92-.02-.37.01-.74.07-1.11.13-.8.39-1.57.71-2.31Z"/>
        <path class="cls-4" d="M56.2,59.79c.59-.83,1.04-1.75,1.38-2.7.22-.62.43-1.3.36-1.96-.05-.42-.29-.86-.64-1.15-.27-.22-.6-.36-.96-.31-.99.11-1.79,1.17-2.31,1.93-.6.88-1.13,1.81-1.53,2.8-.19.47-.35.95-.45,1.44-.11.53-.23,1.15-.1,1.68.24,1.03,1.37.99,2.11.51.84-.55,1.56-1.43,2.14-2.23ZM53.36,61.43c-.07.03-.16.06-.24.03-.29-.09-.02-1.11.03-1.32.13-.54.33-1.05.55-1.55.4-.91.87-1.8,1.4-2.65.29-.46.71-1.18,1.33-1.19.17,0,.34.08.4.24.03.08.02.16.01.24-.13,1.31-.74,2.48-1.35,3.62-.28.53-.64,1.19-1.09,1.73-.31.37-.65.68-1.05.85Z"/>
        <path class="cls-4" d="M65.23,60.24c-.39-.41-.81-.79-1.24-1.15-.42-.34-.86-.73-1.4-.85-.68-.16-1.41.14-1.69.81-.34.82.18,1.74.58,2.44.46.8.99,1.57,1.57,2.29.56.69,1.16,1.42,1.91,1.91.47.3,1,.55,1.55.66.52.11,1.17.18,1.5-.34.61-.97-.2-2.24-.7-3.07-.57-.97-1.29-1.87-2.08-2.69ZM67.02,64.87s-.1.03-.15.02c-.14-.01-.27-.06-.39-.11-1.13-.47-2.12-1.22-2.92-2.14-.53-.61-.98-1.3-1.38-2-.17-.31-.4-.64-.44-1-.05-.41.29-.48.62-.37.37.12.67.41.96.66.34.29.66.59.98.9.63.62,1.21,1.29,1.72,2.01.25.36.49.74.72,1.12.12.2.33.43.38.67.02.09-.01.19-.09.24Z"/>
        <path class="cls-4" d="M60.67,65.43c-.4-1.15-.9-2.33-1.61-3.32-.32-.44-.67-.96-1.2-1.17-.52-.2-1.14-.05-1.42.46-.27.51-.19,1.23-.15,1.78.04.66.14,1.33.3,1.97.29,1.2.75,2.51,1.48,3.52.21.29.47.58.77.8.25.21.53.36.88.37.54.02.95-.35,1.11-.84.01-.02.02-.04.03-.07.42-1,.24-2.14-.08-3.16-.04-.12-.08-.23-.12-.35ZM59.78,68.9c-.24-.02-.53-.3-.73-.54-.09-.13-.16-.25-.21-.32-.55-.85-.87-1.81-1.11-2.79-.2-.78-.42-1.56-.49-2.37-.02-.24-.17-1.29.35-1.01.34.19.61.68.82.99.5.75.88,1.58,1.15,2.44.28.88.43,1.8.44,2.73,0,.22.06.8-.22.87Z"/>
        <path class="cls-4" d="M52.25,51.17c-1.02-.01-2.07.16-3.05.44-.56.16-1.13.37-1.67.62-.4.14-.78.31-1.13.53-.72.44-1.45,1.31-1.24,2.23.08.36.37.53.71.6.57.12,1.15.13,1.73.07,1.1-.12,2.11-.5,3.08-1.01.44-.23.86-.49,1.29-.75.42-.26.85-.54,1.16-.92.3-.36.48-.87.22-1.31-.23-.39-.68-.49-1.1-.49ZM52.05,52.48c-.58.48-1.28.83-1.94,1.2-.71.4-1.46.76-2.24.98-.36.1-.72.17-1.09.2-.2.01-.41.02-.61,0-.11,0-.18,0-.23-.02-.12-.6.53-1.02,1.01-1.31.65-.39,1.34-.69,2.07-.91.72-.22,1.46-.37,2.21-.42.35-.02.72-.05,1.07-.01,0,0,.01,0,.02,0-.09.1-.23.26-.26.28Z"/>
        <path class="cls-4" d="M40.5,46.46c-.48.11-.98.37-1.23.81-.29.5-.15,1.11.23,1.51.37.4.92.65,1.42.88.65.4,1.36.72,2.05,1.02,1.06.46,2.39,1.05,3.57.73.49-.14.99-.53,1.01-1.08.02-.57-.44-.95-.81-1.3-.86-.81-1.74-1.61-2.82-2.12-1.04-.49-2.29-.71-3.42-.45ZM45.23,49.06c.31.24.62.49.92.74.11.09.38.26.43.41.07.21-.24.18-.38.18-.9,0-1.72-.27-2.56-.6-.84-.33-1.68-.67-2.47-1.1-.33-.18-.69-.35-.99-.58-.08-.06-.16-.12-.21-.2.04-.27.39-.42.62-.49,1.63-.47,3.4.69,4.63,1.64Z"/>
        <path class="cls-4" d="M36.19,48.21c-.36-.81-1.16-1.72-2.13-1.15-1.06.63-1.18,2.4-1.2,3.5-.04,1.73.44,3.6,1.35,5.08.2.33.46.66.78.87.19.12.42.19.64.16.74-.12,1.02-1.08,1.18-1.71.57-2.25.32-4.63-.62-6.75ZM36.08,53.83c-.03.38-.08.76-.16,1.13-.05.23-.1.72-.34.85-.35.19-.62-.38-.73-.62-.59-1.32-.83-2.77-.87-4.21-.01-.43-.18-3.19.69-3.06.45.07.67.93.8,1.28.55,1.47.74,3.06.61,4.63Z"/>
        <path class="cls-4" d="M41.24,53.01c-1,.07-1.77,1.05-2.41,1.72-.75.79-1.39,1.71-1.79,2.73-.23.57-.38,1.19-.42,1.8-.02.27-.03.59.01.9,0,.07,0,.14.01.2.06.39.34.73.76.77.37.03.71-.16,1.01-.38.25-.17.49-.37.68-.57.6-.57,1.08-1.25,1.52-1.94.6-.94,1.13-1.92,1.46-2.99.14-.46.31-1.02.2-1.5-.11-.49-.54-.78-1.03-.75ZM41.23,54.22c-.08.42-.22.84-.38,1.24-.28.73-.65,1.42-1.02,2.1-.37.68-.71,1.39-1.15,2.02-.2.29-.45.58-.74.78-.26.1-.46.04-.46-.4,0-.79.23-1.59.57-2.29.35-.72.79-1.37,1.29-1.99.24-.3.5-.59.76-.88.25-.27.53-.6.87-.76.07-.03.29-.08.29-.07,0,0-.01.17-.02.24Z"/>
        <path class="cls-4" d="M43.7,60.25c1.1,1.09,2.56,1.97,3.98,2.48.63.23,1.6.63,2.23.21.27-.19.38-.53.36-.85-.04-.87-.67-1.53-1.21-2.14-.64-.72-1.44-1.35-2.26-1.85-.81-.5-1.86-1.09-2.85-.93-.5.08-.92.41-1.12.88-.25.59-.05,1.14.35,1.62.16.2.34.39.53.58ZM43.65,58.47c.06-.28.43-.34.66-.32.69.06,1.42.53,2,.89.62.39,1.2.85,1.74,1.34.26.24.53.47.78.72.24.24.63.59.71.93,0,.04,0,.07,0,.1-.01.02-.03.04-.04.07-.04.11-1.67-.56-1.83-.63-.66-.28-1.3-.63-1.9-1.02-.6-.39-1.18-.82-1.69-1.32-.18-.18-.49-.47-.43-.76Z"/>
        <path class="cls-4" d="M39.5,61.06c-.65.51-.95,1.51-1.13,2.28-.22.98-.34,2.05-.31,3.06.02.62.05,1.26.23,1.86.16.54.5,1.12,1.15,1.02.74-.12,1.04-1.19,1.27-1.78.36-.94.59-1.95.71-2.95.1-.87.15-1.88-.1-2.73-.24-.81-1.06-1.35-1.82-.76ZM40.43,64.2c0,.06,0,.12,0,.18-.04,1.03-.2,2.07-.48,3.06-.05.18-.21,1.03-.47.96-.43-.1-.41-1.32-.42-1.63-.04-.74.06-1.46.13-2.2.08-.76.14-1.55.42-2.28.14-.36.53-.69.68-.16.19.64.17,1.38.15,2.05Z"/>
        <path class="cls-4" d="M51.98,66.28c-.8-.65-1.77-.93-2.75-1.19-1.19-.3-2.43-.54-3.66-.6-.89-.05-2.35.08-2.46,1.23-.11,1.05,1.11,1.65,1.88,2.05,1.12.58,2.31.99,3.57,1.12.23.02.47.04.72.05,1.03.14,2.18.07,3.08-.48.38-.23.69-.62.54-1.08-.14-.44-.57-.82-.92-1.1ZM50.8,67.78c-.4.05-.81.09-1.21.08-.89-.01-1.78-.19-2.62-.5-.98-.36-2.89-.9-2.68-1.58.1-.33.79-.13,1.11-.11.96.05,1.91.23,2.84.42.8.16,1.6.34,2.36.63.3.11.6.24.87.42.17.11.48.49-.68.63Z"/>
      </g>
    </g>
  </g>
</svg>