<?xml version="1.0" encoding="UTF-8"?>
<svg id="Capa_2" data-name="Capa 2" xmlns="http://www.w3.org/2000/svg" viewBox="0 0 100 100">
  <defs>
    <style>
      .cls-1 {
        fill: #bcb963;
      }

      .cls-2 {
        fill: #fff;
      }

      .cls-3 {
        fill: none;
      }

      .cls-4 {
        fill: #4a2d2d;
      }
    </style>
  </defs>
  <g id="COLOR">
    <g>
      <g>
        <g>
          <path class="cls-1" d="M30.18,34.37c-1.08-1.86-2.21-3.74-3.57-5.34-1.42-1.66-3.43-3.77-5.76-3.94-6.37-.45-2.58,7.77-1.16,10.47,2.03,3.85,6.77,10.81,11.98,9.94,4.5-.75.97-6.89-.28-9.02-.41-.69-.81-1.4-1.22-2.11Z"/>
          <path class="cls-2" d="M23.59,30.14c.1.13.19.26.31.37.17.16.36.3.58.37.1.03.23.05.34.06.22,0,.39-.08.59-.17.15-.09.27-.21.36-.36.09-.16.14-.33.14-.51.04-.5-.3-.92-.73-1.13-.21-.1-.43-.17-.64-.25-.39-.13-.9.08-1.09.44-.08.15-.12.32-.13.49-.01.27.13.48.28.68h0Z"/>
          <path class="cls-2" d="M26.26,32.85c.55,0,.55-.86,0-.86s-.55.86,0,.86h0Z"/>
          <path class="cls-4" d="M26.14,42.06c.46.55,1.11,1.22,1.83,1.4.42.1.63-.37.39-.67-.22-.28-.53-.46-.8-.67s-.55-.43-.83-.64c-.42-.33-.94.17-.59.59h0Z"/>
          <path class="cls-4" d="M30.74,44.39c.33,0,.33-.51,0-.51s-.33.51,0,.51h0Z"/>
        </g>
        <g>
          <path class="cls-1" d="M50.82,17.66c-1.84-1.78-5.87-1.25-8.15-1.2-3.24.07-6.52.5-9.51,1.78-2,.86-4.01,2.23-4.7,4.4-.61,1.95-.08,4,1.63,5.2,5.54,3.88,12.89.54,17.56-3.11,1.92-1.5,5.85-4.49,3.18-7.07Z"/>
          <path class="cls-4" d="M29.28,25.04c3.57-.81,7.12-1.69,10.69-2.53,3.51-.83,7.27-1.34,10.68-2.52.35-.12.33-.74-.09-.7-3.49.32-7.02,1.43-10.42,2.23-3.7.87-7.39,1.78-11.04,2.82-.45.13-.26.81.19.7h0Z"/>
          <path class="cls-2" d="M33.5,20.77l.13-.07s.04-.02.05-.03c.12-.07.21-.15.29-.26.08-.1.14-.21.17-.34.02-.07.03-.19.03-.26,0-.15-.03-.33-.11-.45-.19-.29-.49-.45-.83-.46-.24-.01-.48.13-.7.23-.11.06-.2.14-.27.24-.08.09-.14.2-.17.32-.06.23-.03.53.1.73s.32.38.57.44.5.03.73-.1h0Z"/>
          <path class="cls-2" d="M35.35,19.7l.09-.02.12-.05c.06-.03.11-.08.14-.13.03-.03.05-.07.07-.11.03-.06.05-.13.04-.2l-.02-.14-.05-.12c-.03-.06-.08-.11-.13-.14-.05-.05-.11-.08-.17-.09l-.09-.02c-.09-.03-.19-.03-.28,0-.09.03-.17.07-.23.14l-.08.11c-.05.08-.07.17-.07.27,0,.07.01.14.05.2.02.07.06.12.11.17.07.07.14.11.23.14.09.03.19.03.28,0h0Z"/>
          <path class="cls-4" d="M37.61,28.23c1.05.19,2.69.02,3.38-.9.13-.18-.05-.47-.26-.45-.51.05-.98.33-1.47.47-.53.15-1.1.23-1.64.32-.28.04-.28.52,0,.57h0Z"/>
          <path class="cls-4" d="M42.96,26.74c.09-.04.18-.08.26-.13.12-.08.2-.23.15-.37-.04-.13-.17-.26-.32-.24-.13.01-.26.04-.38.07-.22.06-.33.3-.24.5.04.09.1.16.2.2.12.05.22.03.33-.02h0Z"/>
        </g>
        <g>
          <path class="cls-1" d="M63.79,11.55c-2.16-.43-3.97,2.73-5.01,4.15-1.67,2.29-2.9,4.86-3.73,7.57-.74,2.42-3.1,11.46,2.22,10.61,2.27-.36,3.61-3.11,4.63-4.86,1.44-2.47,2.46-5.44,3.06-8.23.01-.07.02-.13.02-.19.43-1.55.61-3.21.69-4.74.08-1.51.03-3.93-1.88-4.31Z"/>
          <path class="cls-2" d="M57.54,18.98c-.32.28-.55.76-.5,1.19.02.24.07.44.22.63.13.17.32.32.54.37.44.1.94-.06,1.17-.48.11-.19.19-.39.27-.6l-.11.25s.03-.07.05-.1c.12-.24.19-.54.11-.81-.07-.22-.19-.4-.37-.54s-.4-.23-.63-.22c-.29.01-.52.12-.74.31h0Z"/>
          <path class="cls-2" d="M56.91,23.87c.99,0,.99-1.54,0-1.54s-.99,1.54,0,1.54h0Z"/>
          <path class="cls-4" d="M57.61,32.8c.9-.08,1.78-.72,1.87-1.68.02-.24-.3-.42-.5-.29-.55.39-.75,1.27-1.44,1.45-.27.07-.23.54.07.51h0Z"/>
          <path class="cls-4" d="M60,29.62c.25,0,.25-.39,0-.39s-.25.39,0,.39h0Z"/>
        </g>
        <g>
          <path class="cls-1" d="M81.01,26.07c-4.73.75-10.11,2.36-13.12,6.3-1.05,1.37-1.31,3.31.4,4.29,2.25,1.28,5.54.45,7.89-.02,2.97-.58,5.97-1.31,8.77-2.48,2.05-.85,4.88-2.27,5.07-4.81.33-4.4-5.92-3.75-8.67-3.34-.11.02-.23.03-.34.05Z"/>
          <path class="cls-2" d="M72.48,31.91l.31-.2c.19-.12.33-.28.42-.49s.12-.44.05-.67v-.02c-.04.24-.07.49-.1.73.07-.16.15-.31.14-.5,0-.16-.04-.34-.12-.47s-.2-.26-.34-.33l-.22-.09c-.09-.01-.19-.03-.28-.04l.67.28h-.01c-.07-.07-.14-.12-.21-.17-.12-.07-.24-.12-.38-.12-.24-.03-.43.02-.65.12l-.33.16c-.23.11-.42.39-.48.63-.07.25-.04.58.11.81s.36.42.63.48.57.05.81-.11h0Z"/>
          <path class="cls-4" d="M77.13,35.56c1.05-.12,2.39-.21,3.31-.77.28-.17.18-.67-.18-.65-.53.03-1.03.25-1.54.39-.56.15-1.11.3-1.67.44-.32.08-.26.62.08.59h0Z"/>
          <path class="cls-4" d="M82.26,34.19s.1-.04.14-.07c.12-.07.22-.2.26-.34.06-.21-.07-.47-.29-.52-.14-.03-.3-.02-.43.06-.04.03-.09.06-.13.09-.1.07-.17.15-.2.27-.03.11-.02.25.04.34s.15.18.27.2c.12.03.23,0,.34-.04h0Z"/>
        </g>
        <g>
          <path class="cls-1" d="M79.74,41.05c-.19-.09-.37-.18-.56-.26-2.84-1.22-6.04-1.25-9.04-.72-2.35.42-4.64,1.18-6.84,2.1-1.46.61-3.12,1.56-3.78,3.06-1.05,2.4,1.59,3.64,3.35,4.46,5.06,2.39,11.86,4.53,17.28,1.94,1.99-.95,3.61-3.05,3.57-5.33-.04-2.44-1.93-4.24-3.98-5.26Z"/>
          <path class="cls-4" d="M60.62,46.36c3.66.03,7.31,0,10.97.16,1.69.08,3.37.16,5.05.3,1.93.17,3.95.66,5.87.51.38-.03.47-.55.09-.68-1.61-.54-3.43-.52-5.13-.67-1.82-.15-3.65-.31-5.47-.42-3.78-.22-7.6-.33-11.39-.13-.59.03-.6.92,0,.92h0Z"/>
          <path class="cls-2" d="M71.19,42.91h.53c.38-.01.65-.11.93-.37.33-.3.33-.91,0-1.21-.29-.26-.55-.36-.93-.36h-.53c-.51-.01-1,.45-.97.97s.43.98.97.97h0Z"/>
          <path class="cls-2" d="M75.09,43.12c1.27,0,1.27-1.98,0-1.98s-1.27,1.98,0,1.98h0Z"/>
          <path class="cls-4" d="M76.37,51.73c.99.12,2.27,0,3.02-.73.23-.23-.01-.57-.3-.52-.44.08-.86.28-1.29.39-.46.12-.95.21-1.43.25-.4.03-.39.56,0,.61h0Z"/>
          <path class="cls-4" d="M80.37,50.37c.25,0,.25-.39,0-.39s-.25.39,0,.39h0Z"/>
        </g>
        <g>
          <path class="cls-1" d="M50.95,42.17c-.04-.16-.08-.32-.12-.48-.62-2.53-1.64-5.44-4.32-6.43-.62-.23-1.28-.33-1.94-.34-6.6-.1-6.52,8.65-5.19,12.97.9,2.93,2.33,5.62,4.36,7.92,1.47,1.65,3.5,3.57,5.9,2.68,2.38-.88,2.24-3.89,2.45-6,.35-3.48-.34-6.94-1.16-10.31Z"/>
          <path class="cls-4" d="M42.52,36.87c1.14,3.62,1.97,7.18,2.65,10.92.61,3.33,1.18,7.27,3.17,10.1.28.39,1.02.17.83-.35-1.25-3.6-2.34-6.97-3.06-10.74-.66-3.43-1.2-7.13-2.98-10.18-.19-.33-.74-.11-.62.26h0Z"/>
          <path class="cls-2" d="M39.49,41.66c0,.09.01.18.02.27.02.22.04.38.15.57.07.12.13.18.22.26.18.16.42.29.66.27s.47-.1.66-.27c.09-.08.15-.14.22-.26.11-.19.13-.35.15-.57,0-.09.01-.18.02-.27.02-.26-.13-.56-.31-.74s-.48-.32-.74-.31-.55.1-.74.31-.33.47-.31.74h0Z"/>
          <path class="cls-2" d="M40.73,46.24c1.12,0,1.12-1.74,0-1.74s-1.12,1.74,0,1.74h0Z"/>
          <path class="cls-4" d="M50.93,54.19c.24-.49.4-.93.47-1.48.07-.47.17-.95-.03-1.39-.11-.24-.45-.2-.57,0-.22.36-.17.78-.21,1.18-.04.47-.1.98-.23,1.44-.1.34.42.57.58.24h0Z"/>
          <path class="cls-4" d="M51.2,50.13c.25,0,.25-.39,0-.39s-.25.39,0,.39h0Z"/>
        </g>
        <g>
          <path class="cls-1" d="M30.61,52.73c-1.36-2.14-4.31-2.38-6.56-2.69-3.11-.43-6.31-.62-9.44-.47-1.9.09-5.14-.04-6.58,1.5-3.03,3.23,2.84,5.45,5.16,6.19,2.83.9,5.8,1.35,8.77,1.32,2.55-.03,6.01-.1,8.1-1.77,1.28-1.02,1.41-2.74.56-4.08Z"/>
          <path class="cls-2" d="M14.84,52c.27-.02.58-.02.84-.1.46-.14.86-.54.79-1.05s-.56-.77-1.04-.8c-.26-.01-.57.08-.84.13-.21.04-.45.24-.55.42s-.14.38-.11.59c.06.42.45.84.91.8h0Z"/>
          <path class="cls-2" d="M19.03,52.39c1.32,0,1.32-2.04,0-2.04s-1.32,2.04,0,2.04h0Z"/>
          <path class="cls-4" d="M26.83,56.87c.89-.05,1.78-.3,2.43-.94.23-.23-.06-.54-.32-.42-.68.31-1.35.61-2.11.68-.43.04-.44.7,0,.68h0Z"/>
          <path class="cls-4" d="M30.16,54.94s.03-.07.04-.11c.02-.06.02-.12.03-.19v-.09s-.03-.05-.05-.08c-.04-.06-.1-.11-.16-.14-.13-.06-.27-.02-.37.07-.05.04-.09.09-.13.14-.02.03-.04.06-.06.1-.06.09-.06.2-.04.3.03.12.12.2.22.25.1.04.2.04.3,0,.12-.05.18-.13.22-.25h0Z"/>
        </g>
        <g>
          <path class="cls-1" d="M38.35,59.96c-.05-.06-.1-.13-.14-.19-.09-.12-.18-.25-.31-.32-.16-.08-.35-.08-.53-.06-.94.09-1.82.38-2.68.76-1.3.58-2.46,1.42-3.49,2.38-2.07,1.93-3.68,4.33-5.02,6.8-1.78,3.27-4.93,10.26.57,11.73,3.74,1,6.98-2.43,8.87-5.2,2.26-3.32,4.06-7.49,4.22-11.56.03-.8,0-1.63-.22-2.4-.2-.71-.8-1.34-1.26-1.94Z"/>
          <path class="cls-4" d="M37.15,60.14c-2.17,3.33-4.2,6.76-6.29,10.14-1.8,2.91-4.08,5.95-5.17,9.22-.17.51.59.81.86.36,1.85-3.1,3.56-6.31,5.41-9.42,1.96-3.29,3.99-6.55,5.87-9.89.25-.45-.41-.83-.69-.4h0Z"/>
          <path class="cls-2" d="M31.8,66.21c.04-.06.09-.11.13-.17.19-.28.25-.69.12-1v.53l.04-.16c.09-.36-.03-.74-.33-.97-.13-.1-.27-.16-.44-.18-.21-.03-.39.01-.59.11l-.15.07.77-.1c-.12-.02-.24-.04-.36-.05l-.3.04c-.2.05-.39.18-.54.33-.05.06-.1.12-.15.18-.14.14-.24.31-.29.5l-.04.3c-.02.36.18.68.45.89.11.1.24.17.39.2.15.05.3.05.45.02.15,0,.29-.05.42-.14.17-.1.31-.24.41-.41h0Z"/>
          <path class="cls-4" d="M30.81,79.56c.75-.3,2.06-.81,2.09-1.79,0-.24-.3-.44-.51-.29-.32.22-.51.57-.81.83-.31.27-.65.51-.99.74-.24.17-.1.64.22.51h0Z"/>
          <path class="cls-4" d="M33.76,76.61l.04-.1s.01-.07,0-.1c0-.03-.01-.07-.03-.1l-.04-.05s-.05-.04-.08-.05c-.02-.01-.04-.02-.06-.02-.03,0-.07,0-.1,0-.07.02-.12.06-.15.12l-.06.09c-.04.06-.04.14-.03.21.01.05.04.08.07.12.02.03.05.04.09.06.03.02.07.02.1.02.04,0,.07,0,.1-.02.03-.01.06-.03.09-.06.03-.03.06-.07.07-.12h0Z"/>
        </g>
        <g>
          <path class="cls-1" d="M62.57,56.8c-.46-.1-.96-.1-1.45,0-2.21.5-4.02,1.94-5.8,3.25-2.42,1.78-4.46,3.95-6.35,6.28-1.46,1.8-3.35,3.91-3.32,6.38.03,2,1.33,3.67,3.37,3.84,5.11.41,9.3-6.17,11.83-9.74,1.49-2.09,3.54-4.95,3.62-7.63.04-1.31-.82-2.13-1.91-2.37Z"/>
          <path class="cls-2" d="M51.44,68.74c.12-.1.25-.19.36-.3.18-.18.32-.47.37-.71.08-.36-.05-.78-.39-.96-.13-.07-.28-.11-.43-.12-.24-.01-.42.11-.6.25-.2.16-.38.42-.46.66-.05.15-.07.3-.11.45-.07.31.05.69.34.84.31.17.64.1.9-.12h0Z"/>
          <path class="cls-2" d="M53.99,65.6v-.07c.05-.15.05-.31.01-.46-.04-.15-.12-.28-.22-.39-.11-.11-.24-.18-.39-.22-.15-.04-.31-.04-.46,0h-.07c-.16.06-.29.13-.41.25-.11.12-.19.25-.24.41-.09.32,0,.66.24.9s.58.32.9.24c.16-.04.29-.12.41-.24.11-.12.19-.25.24-.41h0Z"/>
          <path class="cls-4" d="M51.32,75.04c.8-.12,1.94-.53,2.32-1.32.13-.28-.14-.6-.43-.43-.34.19-.59.51-.92.72s-.71.42-1.1.55c-.31.11-.18.53.13.48h0Z"/>
          <path class="cls-4" d="M55.04,72.59l.03-.04s.02-.04.04-.07c.03-.08.03-.08.04-.19,0-.03,0-.05,0-.08,0-.05,0-.1-.03-.15-.02-.05-.04-.09-.08-.12-.07-.07-.17-.12-.27-.11-.03,0-.05,0-.08,0-.09,0-.18.02-.26.07l-.05.04c-.07.04-.13.1-.17.17-.04.07-.06.15-.06.24,0,.13.05.24.14.34.09.09.21.14.34.14.09,0,.17-.02.24-.06.07-.04.13-.1.17-.17h0Z"/>
        </g>
        <g>
          <path class="cls-1" d="M77.82,63.69c-1.59-2.03-3.83-4.78-6.35-5.64-.89-.3-1.95-.22-2.74.3-1.12.73-1.11,2.34-1.24,3.51-.2,1.7-.2,3.42-.02,5.12.35,3.4,1.39,6.75,3.04,9.75.01.03.03.05.05.08,2.23,4.01,7.3,6.32,10.31,1.69,3.16-4.86.12-10.77-3.03-14.8Z"/>
          <path class="cls-4" d="M69.71,59.78c1.78,3.37,3.08,6.96,4.31,10.55,1.1,3.2,2.09,6.56,3.89,9.46.34.55,1.13.07.86-.5-1.63-3.48-2.99-6.97-4.23-10.6-1.11-3.25-2.29-6.4-4.21-9.27-.25-.38-.83-.05-.62.36h0Z"/>
          <path class="cls-2" d="M74.49,64.72c.07.09.14.18.21.26.13.14.32.22.5.28.11.04.23.07.35.06.2-.01.37-.07.53-.19s.24-.26.31-.45c.04-.1.04-.23.04-.34,0-.2-.04-.41-.15-.58-.06-.1-.13-.19-.19-.28-.15-.23-.35-.39-.61-.47-.31-.1-.64,0-.89.18-.22.17-.35.39-.38.67-.03.14-.02.27.02.41.05.17.14.32.26.45h0Z"/>
          <path class="cls-2" d="M76.47,67.69l.03.06c.05.09.12.16.18.25.09.1.19.16.31.2.12.06.24.09.38.08l.26-.03c.17-.05.31-.13.43-.25.06-.08.13-.16.18-.25l.03-.06c.09-.16.14-.34.14-.53,0-.19-.05-.37-.14-.53-.19-.32-.54-.52-.9-.52s-.72.2-.9.52c-.09.16-.14.34-.14.53,0,.19.05.37.14.53h0Z"/>
          <path class="cls-4" d="M72.02,77.36c.1.13.2.27.3.4.12.15.27.25.44.34.14.07.3.07.42-.03.11-.09.2-.26.14-.4-.03-.07-.06-.15-.09-.22-.04-.1-.13-.2-.2-.28-.1-.12-.23-.21-.35-.32-.15-.14-.38-.16-.54-.03-.15.12-.23.37-.11.54h0Z"/>
          <path class="cls-4" d="M73.94,79.21c.07.06.14.14.22.18.05.03.1.05.16.07.09.04.17.06.26.05.09-.01.18-.05.24-.11.05-.05.08-.11.11-.18.03-.11,0-.22-.04-.32-.02-.05-.05-.11-.07-.16-.04-.08-.12-.15-.18-.22-.08-.09-.22-.14-.34-.14s-.26.05-.34.14-.15.21-.14.34.05.26.14.34h0Z"/>
        </g>
        <g>
          <path class="cls-1" d="M64.79,81.93c-.04-.34-.16-.65-.4-.89-.67-.67-1.89-.63-2.75-.8-1.42-.27-2.87-.44-4.31-.5-2.93-.12-5.89.2-8.71.99-3.08.86-9.99,3.13-6.78,7.56,2.55,3.52,8.78,2.6,12.32,1.57,2.56-.75,5.04-1.9,7.36-3.21,1.04-.59,2.06-1.35,2.67-2.4.34-.59.7-1.52.61-2.31Z"/>
          <path class="cls-2" d="M47.03,84.27c.29-.08.56-.16.83-.31.42-.23.66-.8.51-1.26-.06-.18-.16-.35-.29-.49-.18-.19-.53-.34-.79-.33-.31.02-.58.09-.88.17s-.54.27-.69.53-.2.61-.12.88c.19.59.79.98,1.41.8h0Z"/>
          <path class="cls-4" d="M60.07,86.13c.91-.12,1.7-.56,2.21-1.34.17-.26-.18-.63-.44-.44-.6.43-1.26.8-2,.95-.55.11-.3.9.23.83h0Z"/>
          <path class="cls-4" d="M63.34,83.72c.06-.06.11-.13.15-.2.04-.07.07-.14.09-.22.05-.13,0-.3-.1-.39s-.26-.15-.39-.1c-.07.03-.15.05-.22.09-.07.04-.14.09-.2.15-.09.09-.14.21-.14.33s.05.25.14.33.21.14.33.14.24-.05.33-.14h0Z"/>
        </g>
      </g>
      <rect class="cls-3" width="100" height="100"/>
    </g>
  </g>
</svg>