<?xml version="1.0" encoding="UTF-8"?>
<svg id="Capa_2" data-name="Capa 2" xmlns="http://www.w3.org/2000/svg" viewBox="0 0 100 100">
  <defs>
    <style>
      .cls-1 {
        fill: #bcb963;
      }

      .cls-2 {
        fill: #fff;
      }

      .cls-3 {
        fill: none;
      }

      .cls-4 {
        fill: #4a2d2d;
      }
    </style>
  </defs>
  <g id="COLOR">
    <g>
      <g>
        <g>
          <g>
            <path class="cls-1" d="M36.49,76.45c-4.1-.07-8.18.77-11.86,2.59-3.17,1.56-6.94,4.16-8.97,7.18-.05-.02-.1-.04-.15-.07-.13-.07-.26-.09-.38-.08,1.23-3.38,1.22-7.71.74-11.13-.56-4.06-2.19-7.93-4.57-11.25-.17-.24-.52-.4-.8-.21-1.59,1.09-1.73,4.1-2.01,5.84-.42,2.59-.58,5.21-.25,7.82.52,4.18,2.29,8.6,6.23,10.63.3.15.58.1.79-.06,4.02,1.85,8.64.69,12.39-1.38,2.02-1.12,3.86-2.55,5.54-4.14,1.4-1.32,3.68-3.12,3.89-5.13.03-.32-.3-.58-.59-.59Z"/>
            <path class="cls-1" d="M42.14,64.09c-4.09-.2-8.2.52-11.94,2.23-3.19,1.46-7.04,3.93-9.17,6.89-.05-.03-.11-.05-.16-.08-.15-.08-.29-.11-.43-.09,1.23-3.38,1.21-7.7.74-11.12-.56-4.06-2.19-7.93-4.57-11.25-.17-.24-.52-.4-.8-.21-1.59,1.09-1.73,4.1-2.01,5.84-.42,2.59-.58,5.21-.25,7.82.52,4.18,2.29,8.6,6.23,10.63.3.16.59.09.8-.07,3.97,1.99,8.65.96,12.46-1.01,2.06-1.06,3.93-2.44,5.66-3.97,1.45-1.28,3.76-3,4.03-5.01.04-.32-.3-.57-.59-.59Z"/>
            <path class="cls-1" d="M47.01,52.33c-4.1-.06-8.17.79-11.85,2.62-3.16,1.57-6.93,4.18-8.95,7.21-.05-.02-.1-.04-.14-.06,0,0,0,0,0,0,1.54-3.31,1.85-7.85,1.56-11.37-.34-4.1-1.7-8.03-3.87-11.51-.17-.27-.52-.38-.8-.21-1.55.92-1.9,3.81-2.28,5.4-.6,2.54-.96,5.17-.83,7.79.22,4.34,1.7,8.96,5.61,11.31.11.06.21.1.31.11,4.09,1.9,8.79.68,12.57-1.47,2.02-1.14,3.86-2.6,5.53-4.21,1.35-1.3,3.54-3.05,3.74-5.01.03-.32-.29-.58-.59-.59Z"/>
            <path class="cls-1" d="M53.82,39.18c-4.09.07-8.14,1.05-11.76,3-3.13,1.68-6.8,4.4-8.73,7.52-.04-.02-.08-.03-.12-.05-.87-.4-1.63.87-.76,1.29,4.26,2.07,9.12.7,12.98-1.66,1.98-1.21,3.77-2.72,5.39-4.38,1.28-1.31,3.46-3.2,3.59-5.13.02-.31-.29-.59-.59-.59Z"/>
            <path class="cls-1" d="M61.23,24.34c-4.06.48-7.99,1.83-11.4,4.13-2.96,1.99-6.39,5.07-7.99,8.39-.08-.03-.16-.04-.24-.07-.29-.1-.52-.03-.68.13,1.26-2.59,1.99-5.66,2.33-8.3.54-4.21-.07-8.51-1.61-12.46-.11-.28-.4-.53-.72-.41-1.72.63-2.57,3.32-3.25,4.85-1.07,2.4-1.89,4.89-2.26,7.49-.6,4.28-.02,9.15,3.39,12.17.72.64,1.77-.4,1.06-1.06-.06-.05-.11-.11-.17-.17.37-.53.71-1.1,1.02-1.69-.06.35.08.74.49.89,4.47,1.64,9.24-.38,12.8-3.13,1.77-1.36,3.32-2.97,4.71-4.71,1.16-1.45,3.17-3.52,3.1-5.46,0-.29-.26-.62-.59-.59Z"/>
          </g>
          <path class="cls-1" d="M31.55,49.84s-3.17-.77-4.28-7.2c-1.11-6.43,2.74-16.19,3.6-16.54s3.43,4.28,4.03,9.17c.6,4.88-.6,10.2-1.03,11.57s-2.31,3-2.31,3Z"/>
          <path class="cls-4" d="M72.02,14.22c-1.69,1.46-3.05,3.4-4.61,5-2.09,2.14-4.45,4.07-6.71,6.02-5.34,4.6-11.02,8.89-17.76,11.18,3.16-4.31,6.55-8.42,9.91-12.59.57-.71-.33-1.67-1.02-1.02-4.58,4.32-8.65,9.32-12.34,14.56-1.06-7.08.14-14.16,1.7-21.09.63-2.77,1.19-5.61,2.06-8.31.67-2.06,1.7-4.12,2.18-6.23.06-.27-.3-.55-.51-.3-1.27,1.54-1.86,4.01-2.48,5.87-1.01,3.05-1.66,6.24-2.34,9.37-1.52,6.95-2.69,14.33-1.09,21.37-2.38,3.42-4.61,6.93-6.71,10.44-1.91-6.82-1.62-13.89-.89-20.87.31-3,.55-6.06,1.14-9.02.43-2.16,1.23-4.35,1.46-6.54.03-.32-.42-.39-.57-.15-1.17,1.8-1.47,4.56-1.87,6.63-.58,2.99-.84,6.07-1.14,9.09-.72,7.14-1.03,14.69,1.46,21.53h0c-2.23,3.75-4.31,7.59-6.28,11.49-2.3-6.56-2.52-13.52-2.28-20.42.1-2.98.13-6.01.48-8.97.27-2.28.96-4.61,1.04-6.9.01-.3-.43-.42-.57-.15-1.03,1.86-1.14,4.58-1.4,6.66-.41,3.19-.45,6.47-.54,9.68-.18,7,.07,14.32,2.91,20.82-1.83,3.68-3.57,7.41-5.21,11.17,0,0,0,0,0-.01-2.98-6.66-3.62-13.93-3.82-21.13-.08-2.88-.23-5.79-.08-8.67.12-2.3.67-4.67.61-6.96,0-.28-.43-.44-.57-.15-.9,1.91-.86,4.65-.99,6.72-.21,3.21-.05,6.48.07,9.69.26,7.06.97,14.43,4.29,20.78.08.14.21.16.32.11-.88,2.03-1.75,4.07-2.59,6.11-.89,2.15-1.72,4.33-2.55,6.5-2.96-6.66-3.57-13.94-3.75-21.14-.07-2.88-.21-5.79-.05-8.67.13-2.29.69-4.67.63-6.96,0-.28-.43-.45-.57-.16-.91,1.91-.87,4.65-1.01,6.72-.22,3.21-.07,6.48.04,9.69.24,7.06.92,14.44,4.23,20.8.08.15.22.16.33.11-.26.69-.53,1.39-.79,2.08-1.11,2.98-2.38,5.99-3.13,9.08-.22.92,1.16,1.61,1.6.67,1.72-3.61,3.03-7.45,4.44-11.22,7.09-.91,13.54-4.48,19.48-8.27,2.6-1.65,5.26-3.3,7.7-5.19,1.71-1.32,4.11-2.89,5.21-4.78.15-.26-.16-.59-.42-.42-1.79,1.16-3.33,2.81-5.01,4.14-2.42,1.92-5.11,3.56-7.7,5.23-5.89,3.81-12.07,7.27-19.02,8.65.38-1.01.77-2.01,1.17-3.01,1.28-3.13,2.6-6.24,3.96-9.33,7.16-.69,13.77-4.12,19.86-7.74,2.68-1.6,5.43-3.18,7.94-5.03,1.69-1.25,4-2.66,5.13-4.46.16-.26-.16-.58-.42-.42-1.85,1.12-3.46,2.75-5.2,4.04-2.42,1.79-5.08,3.3-7.66,4.86-6.04,3.65-12.35,6.95-19.37,8.13.84-1.9,1.7-3.79,2.59-5.66.77-1.61,1.56-3.21,2.36-4.81,7.06-.94,13.49-4.52,19.4-8.31,2.59-1.66,5.25-3.32,7.68-5.21,1.7-1.32,4.1-2.9,5.2-4.8.15-.26-.16-.59-.42-.42-1.78,1.16-3.33,2.82-4.99,4.15-2.42,1.93-5.1,3.57-7.69,5.26-5.84,3.8-11.97,7.25-18.85,8.68,2.03-4.01,4.18-7.98,6.46-11.85.05.02.1.05.16.04,7.2-1.13,13.65-5.07,19.55-9.16,2.44-1.69,4.95-3.38,7.24-5.27,1.66-1.38,4.01-3.03,5.04-4.97.13-.25-.15-.61-.42-.42-1.74,1.22-3.23,2.93-4.85,4.31-2.35,2.01-4.97,3.74-7.51,5.51-5.8,4.06-11.91,7.77-18.88,9.38,2.1-3.53,4.31-7,6.64-10.37.47-.68.96-1.33,1.44-2,.06.06.14.1.25.07,6.89-1.81,12.78-6.22,18.15-10.74,2.44-2.06,4.96-4.13,7.18-6.42,1.49-1.53,3.6-3.38,4.43-5.39.13-.31-.31-.48-.51-.3Z"/>
        </g>
        <g>
          <path class="cls-1" d="M83.02,60.72c-3.22.19-6.58.5-9.63,1.62-1.74.63-4.04,1.74-4.13,3.88-.18,4.15,5.73,3.81,9.76,3,2.36-.44,4.66-1.2,6.94-1.93,1.94-.62,4.11-1.52,5.1-3.44,2.15-4.15-6.41-3.23-8.05-3.13Z"/>
          <path class="cls-1" d="M67.59,82.71c-1.15-2.7-2.56-5.18-3.19-6.37-.95-1.79-2.23-3.78-4.29-4.4-4.43-1.32-2.01,6.95-1.62,8.54.75,3.13,1.64,6.38,3.28,9.18.94,1.62,2.51,3.74,4.68,3.33,4.22-.82,3.05-5.84,1.16-10.29Z"/>
          <path class="cls-1" d="M90.93,77.56c-2.69-3.36-7.02,5.42-7.81,6.79-1.5,2.59-6.62,11.38-1.8,13.27,3.87,1.52,6.88-4.79,8.1-8.34.61-1.62,1.11-3.29,1.63-4.94.63-2,1.36-4.93-.12-6.78Z"/>
          <path class="cls-4" d="M89.93,77.82c-1.61,3.07-2.98,6.27-4.47,9.4-1.47,3.09-3.38,6.15-4.56,9.35-.16.42.45.61.68.29,2.02-2.87,3.31-6.54,4.8-9.71,1.41-3,2.92-6,4.08-9.11.12-.31-.38-.52-.53-.23h0Z"/>
          <path class="cls-4" d="M87.41,92.04c.06-.16.13-.33.19-.49.04-.1.06-.21.06-.32,0-.19-.06-.31-.17-.45s-.31-.15-.47-.12c-.45.07-.58.72-.72,1.08-.11.28.12.65.4.71.33.08.59-.1.71-.4h0Z"/>
          <path class="cls-4" d="M86.93,65.62c.49-.05,1-.18,1.33-.57.23-.27.02-.71-.36-.62-.32.08-.64.21-.97.23-.26.01-.48.21-.48.48,0,.24.22.5.48.48h0Z"/>
          <path class="cls-4" d="M89.52,64.05c.22-.02.41-.05.6-.15.29-.15.29-.61,0-.76-.2-.1-.39-.13-.6-.15-.13-.01-.29.07-.37.16-.09.09-.16.24-.16.37s.05.28.16.37c.1.09.24.17.37.16h0Z"/>
          <path class="cls-4" d="M67.23,90.51c.38-.08.96-.3,1.02-.73.03-.25-.1-.49-.38-.49-.21,0-.36.09-.53.18-.03.02-.06.03-.09.05-.01,0-.07.03-.03.01-.08.03-.16.05-.24.07-.25.06-.4.34-.33.58.07.26.33.38.58.33h0Z"/>
          <path class="cls-4" d="M67.1,88.23c.74,0,.74-1.15,0-1.15s-.74,1.15,0,1.15h0Z"/>
          <path class="cls-2" d="M74.58,63.52c-.76.05-1.64.2-2.21.75-.61.58-.79,1.31-.86,2.12-.05.57.83.8,1.08.29.22-.44.63-.78.99-1.1.38-.34.65-.7,1.15-.85.64-.2.56-1.26-.16-1.21h0Z"/>
          <path class="cls-2" d="M59.48,73.18c-.53.45-.73.99-.79,1.67-.05.59.1,1.36.67,1.65.32.16.65.06.85-.22.26-.38.22-.92.25-1.35s.09-.86.13-1.29c.05-.61-.72-.79-1.11-.46h0Z"/>
          <path class="cls-2" d="M84.92,82.78c-.12.33-.3.75-.17,1.1s.49.52.84.34c.39-.2.52-.7.67-1.07.14-.34-.15-.78-.49-.86-.39-.09-.73.12-.86.49h0Z"/>
          <path class="cls-2" d="M83.67,87.38c.63,0,.63-.97,0-.97s-.63.97,0,.97h0Z"/>
        </g>
      </g>
      <rect class="cls-3" width="100" height="100"/>
    </g>
  </g>
</svg>