<?xml version="1.0" encoding="UTF-8"?>
<svg id="Capa_2" data-name="Capa 2" xmlns="http://www.w3.org/2000/svg" viewBox="0 0 100 100">
  <defs>
    <style>
      .cls-1 {
        fill: none;
      }

      .cls-2 {
        fill: #4a2d2d;
      }

      .cls-3 {
        fill: #feeec2;
      }
    </style>
  </defs>
  <g id="COLOR">
    <g>
      <g>
        <path class="cls-3" d="M37.27,31.49c-.74-2.95-2.99-5.65-5.92-6.48-5.02-1.43-10.3,1.91-11.07,7.18-.79,5.41,3.59,9.66,8.87,9.4,5.04-.25,9.36-5.17,8.12-10.09Z"/>
        <path class="cls-3" d="M50.26,11.68c-2.38-1.89-5.8-2.52-8.68-1.39-4.29,1.68-6.87,6.8-4.97,11.13,2.04,4.65,8.15,5.97,12.19,3.13,4.18-2.94,5.82-9.4,1.46-12.87Z"/>
        <path class="cls-3" d="M56.93,29.2c-3.09-3.99-10.11-4.24-13.36-.28-2.05,2.5-2.55,6.27-1.29,9.24,2.25,5.29,8.39,5.77,12.76,2.81,3.91-2.65,4.81-7.99,1.88-11.77Z"/>
        <path class="cls-3" d="M66.08,18.56c-2.32.69-4.24,2.37-5.32,4.53-1.03,2.07-1.38,4.66-.5,6.86.89,2.23,3.11,4.17,5.52,4.49,4.9.64,10.54-2.84,10.94-8.04.41-5.41-5.73-9.3-10.64-7.85Z"/>
        <path class="cls-3" d="M87.82,41.63c-.87-2.16-2.94-3.66-5.12-4.31-5.93-1.77-11.65,3.79-11.11,9.69.01.12.03.25.04.37.78,5.45,5.83,8.07,10.91,6.08,4.6-1.8,7.14-7.18,5.27-11.84Z"/>
        <path class="cls-3" d="M69.69,44.98c-.9-2.23-2.89-3.91-5.14-4.67-5.81-1.96-12.35,3.15-11.42,9.32.79,5.23,6.09,8.3,11.07,6.77,4.81-1.48,7.4-6.71,5.49-11.42Z"/>
        <path class="cls-3" d="M47.98,46.97c-1.24-2.21-3.43-3.62-5.93-3.97-2.32-.33-5.2-.02-7.02,1.6-2.65,2.35-3.34,6.87-1.85,10.02,1.9,4.03,7.48,5.19,11.3,3.48,4.23-1.89,5.73-7.13,3.49-11.13Z"/>
        <path class="cls-3" d="M21.19,43.81c-2.09-.12-4.23.46-5.8,1.7-1.55,1.23-2.85,2.94-3.41,4.85-1.24,4.29,1.87,8.93,6.2,9.66,4.99.84,9.88-3.23,10.27-8.21.15-1.96-.47-3.94-1.74-5.44-1.35-1.6-3.41-2.44-5.52-2.57Z"/>
        <path class="cls-3" d="M55.82,58.66c-1.01-.48-2.13-.75-3.25-.76-.95-.01-1.89.19-2.76.54-1.78.72-3.3,2.05-4.32,3.66-1.2,1.88-2.22,4.47-1.49,6.69.65,2.01,2.41,3.69,4.28,4.6,3.73,1.84,8.96.84,10.85-3.12,1.05-2.2,1.25-4.9.57-7.24-.57-1.97-2.06-3.52-3.88-4.38Z"/>
        <path class="cls-3" d="M81.31,60.26c-1.11-2.22-3.37-3.75-5.79-4.19-2.86-.51-5.33.89-7.35,2.76-1.95,1.79-2.99,4.79-2.52,7.4.86,4.77,7.27,6.9,11.42,5.21,4.32-1.75,6.32-7.01,4.24-11.18Z"/>
        <path class="cls-3" d="M67.1,74.28c-1.08-.17-2.19-.16-3.22,0-2.6.4-5.06,1.91-6.39,4.22-.39.68-.68,1.42-.85,2.19-1.06,4.77,2.31,8.81,7.02,9.36,4.7.54,8.95-2.49,9.54-7.25.27-2.15-.32-4.44-1.68-6.14-1.09-1.35-2.71-2.1-4.42-2.37Z"/>
        <path class="cls-3" d="M36.08,67.28c-.73-2.33-2.74-4.51-5.16-5.09-3.18-.75-6.64.5-8.65,3.06-1.48,1.88-2.32,4.4-2.07,6.79.51,4.99,5.32,7.71,10.04,6.67,5.4-1.18,7.42-6.42,5.84-11.44Z"/>
        <path class="cls-3" d="M52,79.27c-.96-2.15-2.86-3.74-5.15-4.3-5.94-1.46-11.49,4.2-10.49,10.08.76,4.48,5.76,7.28,10.03,5.94,4.84-1.52,7.7-7.02,5.61-11.72Z"/>
        <path class="cls-2" d="M63.33,32.49c.42-.89,1.27-2.81,2.6-2.28.65.26.6,1.08.3,1.58s-.88.74-1.26,1.18c-.28.33-.01.8.42.71,1.66-.33,3.01-2.98,1.36-4.14s-3.85,1.08-4.21,2.62c-.11.46.58.8.8.34h0Z"/>
        <path class="cls-2" d="M42.81,31.8c-.04,2.36,3.42,4.23,5.01,2.07,1.61-2.17-2.22-4.6-4.12-3.82-.47.19-.39.81.12.87.72.08,1.39.08,2.06.4s1.64,1.1,1.08,1.88c-.4.56-1.32.54-1.9.32-.81-.31-1.22-1.04-1.44-1.83-.12-.45-.8-.35-.8.11h0Z"/>
        <path class="cls-2" d="M49.74,21.05c-.78-.19-1.47-1.1-1.32-1.91.11-.56.56-.85,1.12-.74.46.09.75.43,1.12.69s.81-.24.59-.59c-.82-1.3-3.01-1.5-3.64.08-.53,1.32.53,3.23,2.03,3.21.41,0,.51-.63.1-.73h0Z"/>
        <path class="cls-2" d="M36.21,35.56c-.15-2.11-4.04-2.48-5.05-.82-.55.9.14,1.89.87,2.43.98.73,2.29,1.04,3.46.68.44-.13.39-.88-.11-.84-1.07.09-2.81.03-3.34-1.13-.41-.91.68-1.21,1.36-1.18.53.03,1.89.39,2.08.96.12.38.77.34.74-.1h0Z"/>
        <path class="cls-2" d="M37.27,44.32c-.58,1.65.37,4.63,2.59,4.28,1.98-.31,2.06-3.93.34-4.61-.26-.1-.56.21-.47.47.2.55.59.94.63,1.55.04.57-.14,1.68-.93,1.57-1.29-.18-1.54-2.04-1.39-3.04.08-.5-.6-.71-.77-.21h0Z"/>
        <path class="cls-2" d="M26.53,53.93c-.63-.48-1.24-1.27-2.08-1.38-.71-.09-1.38.31-1.71.93-.73,1.41.81,3.25,2.1,3.72.41.15.68-.41.4-.69-.61-.63-2.34-1.51-1.77-2.6.65-1.26,2.09.01,2.76.52.3.23.59-.28.29-.5h0Z"/>
        <path class="cls-2" d="M22.24,74.85c.48-1.06,1.66-2.62,2.95-2.75,1.36-.13.69,1.29.41,1.94-.33.77-1.19,1.35-1.92,1.71-.39.2.2.55.59.48,1.61-.32,4.02-3.69,2.29-5.03-.91-.7-2.24-.05-3.04.5-1.01.69-1.68,1.67-2.09,2.81-.16.46.59.79.8.34h0Z"/>
        <path class="cls-2" d="M51.37,59.23c-.38,1.24-.74,4.06,1.22,4.2.8.06,1.41-.62,1.84-1.21s1-1.56.78-2.29c-.08-.26-.42-.37-.62-.16-.3.31-.34.69-.52,1.07-.21.46-.51.93-.87,1.29-.78.77-1.15-.14-1.13-.84.02-.61.11-1.21.27-1.8.16-.63-.78-.88-.97-.27h0Z"/>
        <path class="cls-2" d="M67.95,51.9c-.86.07-2.49-.32-2.7-1.34-.29-1.38,2.24-.39,2.7-.19.54.24.99-.48.47-.81-1.11-.69-3.93-1.28-4.12.7-.08.83.48,1.52,1.14,1.96.82.54,1.68.6,2.61.43.42-.08.33-.79-.1-.75h0Z"/>
        <path class="cls-2" d="M83.23,39.27c-1.4.81-2.56,3.25-.94,4.46,1.55,1.16,3.74-1.18,3.88-2.67.03-.3-.39-.45-.59-.24-.35.38-.55.85-.9,1.24-.32.35-1.03,1.15-1.58,1.03-.68-.15-.67-1.1-.53-1.61.17-.61.59-1.08,1.13-1.39s.05-1.11-.47-.81h0Z"/>
        <path class="cls-2" d="M67.18,66.53c.46-.27,2.16-.93,2.52-.15.21.45-.32.97-.64,1.19-.41.29-.86.36-1.31.54-.34.13-.47.76,0,.82,1.4.2,3.56-1.31,3.02-2.89-.56-1.63-3.14-1.04-4.07-.14-.32.31.09.84.48.62h0Z"/>
        <path class="cls-2" d="M57.87,80.82c.59,1.39,2.67,1.87,3.65.57.5-.66.28-1.38-.35-1.85-.7-.53-1.75-1.1-2.64-.94-.41.07-.41.75,0,.82.53.1.96.18,1.44.45.38.22,1.19.62.5,1.08-.61.41-1.61.09-2.01-.47-.26-.37-.77-.06-.59.35h0Z"/>
        <path class="cls-2" d="M44.27,89.52c-.37-.49-.74-1.09-.82-1.71-.09-.75.54-1.37,1.3-1.2,1.4.31.85,1.99,1.34,2.88.14.25.54.26.68,0,.41-.79.06-2.11-.41-2.82-.45-.66-1.19-1.05-1.99-.94s-1.45.73-1.68,1.49c-.28.96.23,2,.79,2.76.35.48,1.15,0,.79-.46h0Z"/>
      </g>
      <rect class="cls-1" width="100" height="100"/>
    </g>
  </g>
</svg>