<?xml version="1.0" encoding="UTF-8"?>
<svg id="Capa_2" data-name="Capa 2" xmlns="http://www.w3.org/2000/svg" viewBox="0 0 100 100">
  <defs>
    <style>
      .cls-1 {
        fill: #fff;
      }

      .cls-2 {
        fill: none;
      }

      .cls-3 {
        fill: #4a2d2d;
      }

      .cls-4 {
        fill: #fedd83;
      }
    </style>
  </defs>
  <g id="COLOR">
    <g>
      <g>
        <g>
          <path class="cls-4" d="M12.72,64.18c-1.87-2.25-3.36-4.36-4.46-7.08,0-1-.02-2-.03-3-.02-2.48-.15-4.8-1.24-7.07-.23-.47-1.04-.14-.85.36,1.19,3.22.94,6.86.99,10.24.05,3.53-.09,7.64-.05,11.17.06,4.4.64,11.85,6.33,12.72,5.61.86,5.02-8.42,3.56-11.47-1.05-2.19-2.7-4.03-4.24-5.88Z"/>
          <path class="cls-4" d="M23.69,57.61c-2-5.76-8.46-8.53-9.92-14.53.15-3.36.22-6.74-.12-10.03-.07-.66-1-.68-1.04,0-.19,3.36-.14,6.74-.27,10.11-.12,2.99-.2,5.97-.04,8.96.15,2.93.16,6.33,1.22,9.09.79,2.07,2.07,4.59,4.23,5.52,5.15,2.22,7.18-5.52,5.94-9.11Z"/>
          <path class="cls-4" d="M19.77,42.03c.23,4,1.29,11.64,6.25,12.6,2.07.4,3.56-1.28,4.33-3.07.97-2.26.61-4.66-.4-6.83-1.33-2.87-3.59-4.93-5.5-7.4-.64-.82-1.3-1.64-1.85-2.52-.56-.9-.81-1.88-1.16-2.84.21-2.95.29-5.88-.5-8.86-.13-.48-.93-.4-.88.12.51,6.14-.64,12.66-.29,18.8Z"/>
          <path class="cls-4" d="M27.51,23.23c.02,2.98-.63,6.43-.43,9.41.23,3.44,1.5,9.85,5.85,10.31,5.07.54,6.1-6.52,4.94-10-1.67-4.98-6.03-8.88-9.19-12.93-.03-.04-.07-.08-.1-.11-.23-2.3-.69-4.57-1.55-6.73-.22-.56-1.04-.36-.91.25.7,3.25,1.37,6.45,1.4,9.8Z"/>
          <path class="cls-4" d="M53.88,64.95c-2.29.11-4.24.93-6.25,1.98-1.07.56-2.13,1.13-3.19,1.69-3.13.33-5.92-.07-9-.68-2.62-.52-5.3-1.1-7.98-.66-3.31.55-10.1,4.8-6.63,8.76,3.68,4.21,10.1,1.26,14.04-.81,3.13-1.64,6.52-3.73,9.65-5.37,3-1.57,6.08-3.52,9.48-4,.52-.07.4-.94-.12-.92Z"/>
          <path class="cls-4" d="M59.36,51.84c-3.08,1.29-6.05,2.99-8.95,4.74-5.73,1.57-11.01-2.41-16.76-1.85-3.81.37-10.79,5.82-6.26,9.64,1.84,1.56,4.79,1.47,7.02,1.17,2.98-.4,5.81-1.58,8.5-2.87,2.66-1.28,5.58-3.29,8.11-4.8,2.89-1.73,5.88-3.3,8.74-5.07.47-.3.16-1.19-.4-.95Z"/>
          <path class="cls-4" d="M62.53,39.33c-2.85.96-5.4,2.62-7.87,4.43-1.01.23-2,.52-3.08.52-1.17,0-2.38-.12-3.55-.24-3.09-.31-6-1.01-9.12-.46-2.22.39-4.24,1.49-5.48,3.4-1.13,1.75-1.73,4.02-.01,5.46,1.87,1.56,4.83,1.32,7.04.83,2.89-.64,5.54-2.08,8.05-3.59,2.32-1.4,4.61-3.08,6.91-4.73.24-.13.47-.28.69-.45.05-.04.08-.08.12-.13,2.17-1.55,4.37-3.04,6.65-4.21.45-.23.14-.99-.35-.82Z"/>
          <path class="cls-4" d="M68.81,29.8c-2.29.43-4.49,1.26-6.58,2.3-.07-.03-.15-.05-.23-.06-5.36-.47-11.44-2.37-16.72-.53-3.27,1.14-7.77,5.53-5.05,9.15,2.92,3.89,9.84.76,12.98-1.13,2.37-1.43,4.99-3.66,7.36-5.08,2.69-1.61,5.57-2.67,8.5-3.74.57-.21.35-1.02-.25-.91Z"/>
          <path class="cls-4" d="M42.01,31.4c2.01,1.05,4.18-.35,5.44-1.92,1.87-2.32,2.64-5.85,2.78-8.72.33-6.47-1.19-12.94-4.31-18.62-.36-.66-1.36-.08-1.01.59,1.02,1.94,1.86,3.96,2.51,6.04-1.58,3.85-4.12,7.2-6.17,10.81-.99,1.74-2.16,4.1-2.11,6.14.05,2.02.96,4.68,2.86,5.68Z"/>
        </g>
        <path class="cls-4" d="M83.53,53.22c-.37-.21-.75-.39-1.12-.53-2.46-.91-5.15-.59-7.61.15-2.78.83-5.68,1.91-8.19,3.4-2.12,1.26-5.21,3.18-6.13,5.59-.78,2.03.3,3.8,2.35,4.31,2.94.74,6.48.12,9.41-.42,3.11-.57,5.98-1.65,8.67-3.31,1.92-1.19,4.62-2.97,4.94-5.43.22-1.68-.95-2.97-2.32-3.77Z"/>
        <path class="cls-4" d="M71.41,83.24c-1.74-2.48-3.75-4.99-6.08-6.93-1.85-1.55-4.43-3.72-6.95-3.86-2.17-.12-3.53,1.45-3.39,3.55.19,2.88,1.83,5.99,3.18,8.5,1.5,2.8,3.38,5.24,5.8,7.31,1.79,1.53,4.48,3.74,7.04,3.19,2.13-.46,2.87-2.75,2.91-4.68.06-2.58-1.06-5-2.51-7.07Z"/>
        <path class="cls-3" d="M61.74,64.48c3.87-1.05,7.67-2.76,11.46-4.09,3.82-1.34,7.73-2.51,11.51-3.96.67-.26.42-1.3-.3-1.1-4,1.14-7.94,2.67-11.85,4.1-3.69,1.34-7.64,2.5-11.17,4.24-.46.23-.14.94.34.81h0Z"/>
        <path class="cls-4" d="M94.94,69.95c-.72-1.99-2.63-2.72-4.5-1.81-2.62,1.27-4.77,4.17-6.5,6.41-1.78,2.31-3.18,4.8-4.08,7.58-.75,2.32-1.77,5.77-.52,8.1,1.08,2.03,3.49,2,5.4,1.3,2.38-.88,4.12-2.74,5.45-4.84,1.66-2.61,3.14-5.65,4.02-8.62.68-2.32,1.6-5.73.74-8.13Z"/>
        <path class="cls-3" d="M92.16,68.74c-2.13,3.41-3.74,7.24-5.62,10.79-1.89,3.58-3.96,7.1-5.74,10.74-.32.65.6,1.21.98.57,2.15-3.55,4-7.36,5.9-11.06,1.79-3.5,3.9-7.03,5.3-10.7.19-.49-.56-.76-.81-.34h0Z"/>
        <path class="cls-3" d="M80.21,60.96c.1-.03.2-.05.3-.08.19-.06.32-.15.44-.31.13-.19.04-.51-.16-.61-.18-.09-.35-.1-.55-.06-.1.02-.2.04-.3.07-.26.06-.44.38-.36.63s.35.44.63.36h0Z"/>
        <path class="cls-3" d="M91.51,77.69c.07,0,.15,0,.22-.01.24-.02.43-.1.56-.31.1-.15.1-.38,0-.53-.13-.2-.32-.29-.56-.31-.07,0-.15,0-.22-.01-.3-.02-.6.28-.58.58,0,.15.06.31.17.41s.26.18.41.17h0Z"/>
        <path class="cls-3" d="M92.48,75.74c.28,0,.28-.44,0-.44s-.28.44,0,.44h0Z"/>
        <path class="cls-3" d="M70.2,91.82c.17.05.32.1.5.12.06,0,.13.02.2.03.14,0,.24-.04.37-.09.3-.13.31-.59.1-.79-.27-.25-.68-.26-1.03-.27-.25-.01-.47.2-.5.44-.03.26.12.48.37.56h0Z"/>
        <path class="cls-3" d="M70.21,89.48c.73,0,.73-1.13,0-1.13s-.73,1.13,0,1.13h0Z"/>
        <g>
          <path class="cls-3" d="M26.55,33.16c.03,4.12,1.65,10.29,6.86,10.16.64-.02.79-.96.15-1.13-6-1.55-5.61-8.35-5.29-13.3.34-5.34.73-10.4-.99-15.56-.17-.51-.96-.3-.81.22,1.79,6.35.02,13.13.08,19.6Z"/>
          <path class="cls-3" d="M44.75,31.7c4.76-1.26,6.08-8.83,6.34-12.93.36-5.78-1.32-11.47-4.72-16.15-.33-.46-1.09-.05-.78.45,2.65,4.26,4.01,9.23,3.96,14.25-.04,4.6-1.15,10.66-5.22,13.39-.5.33-.2,1.15.42.99Z"/>
          <path class="cls-3" d="M68.66,29.64c-4.97,1.12-9.25,5.09-13.43,7.81-4.17,2.71-12.41,7.33-15.42.86,1.37-2.26,2.72-4.53,3.99-6.84.45-.82-.68-1.42-1.22-.71-3.48,4.54-6.47,9.58-9.37,14.5-1.58,2.68-3.13,5.39-4.62,8.12-6.89,2.01-8.02-7.6-8.11-12.14-.06-2.94.06-5.89.16-8.82.11-3.1.59-6.36.32-9.45-.04-.41-.65-.56-.76-.1-.85,3.63-.7,7.65-.89,11.37-.19,3.89-.48,7.85,0,11.73.33,2.66,1.12,5.5,3.17,7.38,1.46,1.33,3.43,1.97,5.3,1.54-1.13,2.1-2.24,4.21-3.31,6.34-2.82,5.62-5.46,11.34-7.92,17.13-.41.96-.8,1.92-1.19,2.88-.01,0-.02,0-.03,0-7.67.12-7.08-9.34-7.07-14.65,0-6.42.46-13.03-1.35-19.28-.16-.54-.89-.3-.82.23,1.12,8.09.36,16.08.61,24.2.09,2.83.43,5.86,2.23,8.17,1.39,1.79,3.65,3.1,5.9,2.61-.62,1.54-1.24,3.09-1.83,4.65-1.24,3.24-2.71,6.56-3.49,9.95-.21.9,1.12,1.57,1.57.66,1.43-2.91,2.4-6.09,3.6-9.11,1.26-3.18,2.58-6.34,3.93-9.48.41-.95.83-1.9,1.25-2.86,3.91,4.67,11,1.97,15.63-.42,3.21-1.66,6.28-3.55,9.38-5.39,3.3-1.96,6.7-3.51,10.16-5.17.69-.33.2-1.41-.51-1.21-5.78,1.61-11.01,5.55-16.12,8.56-4.64,2.73-13.63,8.2-18.03,2.48,1.84-4.12,3.78-8.2,5.8-12.24,0,.08.02.16.07.25,3.32,5.39,11.51,2.3,15.98.29,6.05-2.72,11.93-6.67,17.15-10.74.4-.31-.11-.83-.5-.65-5.08,2.33-9.5,6-14.42,8.65-2.5,1.34-5.12,2.49-7.87,3.23-3.06.82-7.3,1.71-9.53-1.24-.2-.26-.53-.24-.73-.08.09-.17.17-.34.25-.51,1.82-3.61,3.72-7.17,5.67-10.72,3.67,4.33,10.12,2.1,14.4-.3,2.8-1.57,5.39-3.49,8.02-5.32,2.72-1.89,5.58-3.48,8.37-5.23.48-.3.17-1.06-.39-.92-5.14,1.28-9.44,5.32-13.75,8.2-4.29,2.86-11.71,7.5-16.14,2.64.76-1.38,1.51-2.76,2.29-4.13,1.33-2.33,2.73-4.62,4.12-6.92.75,1.81,2.61,3.08,4.51,3.47,3.05.62,6.1-.6,8.77-1.98,2.82-1.45,5.4-3.31,8.03-5.07,2.82-1.89,5.74-3.33,8.73-4.9.72-.38.21-1.44-.53-1.27Z"/>
          <path class="cls-3" d="M20.58,67.3c.59-.09.48-.94,0-1.09-6.03-1.89-6.95-9.43-7.28-14.89-.36-5.99.16-12.02.19-18.02,0-.57-.8-.54-.87,0-.44,3.78-.68,7.59-.88,11.39-.19,3.51-.34,7.08.13,10.58.58,4.35,2.66,12.92,8.7,12.04Z"/>
        </g>
        <path class="cls-1" d="M69.42,58.28c.83-.38,1.59-.73,2.29-1.33.45-.39-.03-1.1-.56-.96-.89.23-1.62.68-2.4,1.15s-.09,1.5.67,1.15h0Z"/>
        <path class="cls-1" d="M74.62,55.97c.08-.08.17-.15.25-.23.14-.14.2-.36.14-.55-.05-.17-.21-.37-.39-.39-.17-.02-.34-.05-.52-.06-.25-.03-.51.16-.63.36s-.13.43-.04.64.25.36.47.42c.26.07.51-.01.7-.19h0Z"/>
        <path class="cls-1" d="M59.09,75.49c1.18.58,2.28,1.28,3.28,2.13.89.76,1.65,1.76,2.72,2.26.48.22,1.08-.15.93-.71-.65-2.44-3.99-4.13-6.11-5.09-.94-.42-1.77.94-.82,1.41h0Z"/>
        <path class="cls-1" d="M67.27,82.6l.21.27s.06.08.1.11c.15.14.33.2.53.22.14.01.28-.06.39-.14s.2-.2.23-.33c.03-.17.03-.34-.04-.5-.03-.08-.07-.14-.12-.21l-.2-.28c-.11-.16-.24-.27-.42-.32-.21-.07-.45,0-.62.13-.15.12-.24.27-.27.46-.02.09-.02.19.01.28.03.12.09.22.18.31h0Z"/>
        <path class="cls-1" d="M84.63,78.51c.14-.17.3-.34.41-.53s.16-.39.22-.6c.06-.24-.02-.48-.21-.63-.2-.16-.44-.15-.67-.05-.2.09-.36.18-.52.32-.13.11-.23.25-.33.38-.14.16-.23.33-.23.55,0,.19.09.42.23.55.29.27.83.34,1.11,0h0Z"/>
      </g>
      <rect class="cls-2" width="100" height="100"/>
    </g>
  </g>
</svg>