<?xml version="1.0" encoding="UTF-8"?>
<svg id="Capa_2" data-name="Capa 2" xmlns="http://www.w3.org/2000/svg" viewBox="0 0 100 100">
  <defs>
    <style>
      .cls-1 {
        fill: #fff;
      }

      .cls-2 {
        fill: none;
      }

      .cls-3 {
        fill: #4a2d2d;
      }

      .cls-4 {
        fill: #fedd83;
      }
    </style>
  </defs>
  <g id="COLOR">
    <g>
      <g>
        <path class="cls-4" d="M68.24,49.65c-2.14-5.35-9.28-2.76-13.04-1.22-2.39.98-4.84,1.99-6.9,3.57-1.3,1-2.65,2.62-2.77,4.33-.16,2.38,2.21,3.11,4.15,3.15,3.13.06,6.32-.21,9.33-1.08,3.5-1.01,11.26-3.64,9.22-8.75Z"/>
        <path class="cls-4" d="M76.74,21.45c-.74-1.68-2.72-1.76-4.17-1.02-2.62,1.35-4.92,4.25-6.78,6.46-1.87,2.23-3.68,4.67-4.76,7.39-.75,1.88-1.35,4.68.24,6.33,1.48,1.53,3.84.98,5.36-.14,2.3-1.69,4.1-4.36,5.68-6.71,1.21-1.8,2.44-3.7,3.35-5.71.86-1.9,1.98-4.54,1.08-6.6Z"/>
        <path class="cls-4" d="M83.36,34.65c-1.23-1.1-3.6-2.68-5.06-1.07-2.1,2.31-1.64,6.09-1.3,8.93.42,3.58,1.49,7.06,3.72,9.95,1.4,1.81,3.65,3.84,6.16,3.06,2.22-.69,3.03-3.05,3.12-5.15.23-5.71-2.36-11.91-6.63-15.71Z"/>
        <path class="cls-4" d="M56.79,21.58c-.53-3.81-2.04-7.76-4.29-10.89-1.28-1.78-3.35-2.89-5.45-1.8-5,2.6-2.59,11.43-.8,15.26,1.11,2.39,2.98,5.62,5.47,6.79,2.2,1.03,4.29-.04,5-2.27.71-2.24.4-4.82.08-7.09Z"/>
        <path class="cls-4" d="M50.42,37.55c-.92-2.7-2.76-4.95-4.86-6.83-1.98-1.76-4.05-3.58-6.5-4.63-1.13-.48-2.41-.82-3.64-.53-2.31.55-3.3,3.33-2.94,5.47.44,2.59,2.33,4.81,4.12,6.62,1.96,1.97,4.31,3.62,6.87,4.7,1.71.72,4.6,1.88,6.34.63,1.71-1.22,1.2-3.74.62-5.43Z"/>
        <path class="cls-4" d="M34.44,42.64c-.51-2.28-3.7-2.86-5.6-3.26-2.93-.61-5.95-.63-8.89-.04-2.55.51-5.52,1.41-7.19,3.55-1.32,1.68-1.59,4.09-.25,5.84,1.86,2.42,5.32,2.63,8.12,2.3,3.36-.39,6.51-1.73,9.52-3.21,1.92-.94,4.88-2.6,4.29-5.18Z"/>
        <path class="cls-4" d="M42.24,53.82c.05-1.76-.08-3.51-.5-5.05-.57-2.11-2.09-2.8-4.04-1.71-2.13,1.19-3.23,3.58-4.26,5.67-1.35,2.74-2.43,5.6-2.89,8.62-.29,1.87-.43,4.08.89,5.62,1.24,1.45,3.28,1.42,4.89.64,3.24-1.58,4.7-5.1,5.32-8.46.3-1.63.54-3.48.59-5.33Z"/>
        <path class="cls-4" d="M27.51,68.15c-.76-.97-1.58-1.89-2.43-2.77-2.05-2.13-4.77-5.55-8.06-5.35-6.07.36-1.36,9.79-.05,12.38,1.85,3.64,6.55,9.77,11.45,7.96,2.81-1.03,3.03-3.89,2.25-6.41-.66-2.13-1.8-4.05-3.16-5.8Z"/>
        <path class="cls-4" d="M50.69,67.85c-2.45-.11-4.57,2.22-5.94,3.95-1.89,2.4-3.52,5.07-4.74,7.87-.97,2.23-2.13,5.21-1.2,7.64.73,1.91,2.54,2.95,4.54,2.36,2.31-.68,4.28-2.93,5.67-4.78,1.41-1.89,2.35-4.08,3.03-6.32.62-2.05,1.34-4.35,1.48-6.49.13-2.02-.49-4.13-2.84-4.23Z"/>
        <path class="cls-4" d="M77.03,59.79c-1.28.15-2.54.39-3.78.71-2.29.6-6.83,1.61-7.3,4.46-.32,1.91,1.88,3.17,3.31,3.85,2.47,1.18,5.28,1.45,7.99,1.36,3.68-.13,11.66-.49,11.76-5.71.07-3.48-3.54-4.55-6.4-4.78-1.83-.15-3.71-.11-5.58.11Z"/>
        <path class="cls-4" d="M70.89,79.97c-1.05-2.97-2.62-5.59-4.55-8.07-1.3-1.66-3.08-3.09-5.3-2.86-1.22.13-2.1.75-2.68,1.62-3.39,4.04.28,10.61,3.08,13.9,1.71,2,9.53,9.58,10.74,3.33.49-2.55-.45-5.55-1.28-7.92Z"/>
        <path class="cls-3" d="M46.88,57.48c6.75-1.68,13.64-4.26,19.91-7.27.42-.2.12-.93-.32-.75-6.57,2.58-13.14,4.94-19.8,7.27-.47.17-.29.88.21.76h0Z"/>
        <path class="cls-3" d="M79.25,34.67c1.16,3.48,2.37,6.94,3.59,10.4,1.03,2.92,1.85,6.46,3.76,8.96.33.44.96.08.74-.43-2.74-6.26-4.94-12.74-7.45-19.1-.15-.39-.78-.24-.64.18h0Z"/>
        <path class="cls-3" d="M34.01,28.37c2.76,2.19,5.48,4.45,8.19,6.71,2.49,2.08,4.88,4.64,7.63,6.36.42.27.78-.31.5-.65-2.15-2.66-5.31-4.84-7.96-6.99-2.57-2.09-5.22-4.08-7.89-6.04-.35-.26-.82.34-.47.61h0Z"/>
        <path class="cls-3" d="M12.95,46.67c3.28-.3,6.53-.68,9.78-1.22,3.39-.56,7.07-1.04,10.28-2.28.38-.15.38-.84-.11-.79-3.24.39-6.46,1.39-9.66,2.02-3.44.68-6.9,1.26-10.37,1.74-.3.04-.23.56.07.53h0Z"/>
        <path class="cls-3" d="M50.07,69.18c-1.58,3.38-3.2,6.76-5.1,9.98-1.66,2.81-3.85,5.76-4.31,9.08-.07.49.59.7.76.21,1.13-3.43,2.93-6.39,4.63-9.56,1.65-3.07,3.24-6.16,4.64-9.35.18-.42-.42-.79-.62-.36h0Z"/>
        <path class="cls-3" d="M63.91,55.46c.05-.11.12-.22.14-.33.02-.07.02-.15,0-.22-.02-.07-.06-.13-.11-.18-.05-.05-.11-.09-.18-.11-.07-.02-.15-.02-.22,0-.12.02-.23.09-.33.14-.15.08-.26.27-.25.44,0,.14.05.27.15.36.09.09.23.15.36.15.17,0,.36-.1.44-.25h0Z"/>
        <path class="cls-3" d="M66.03,53.48c.51,0,.51-.79,0-.79s-.51.79,0,.79h0Z"/>
        <path class="cls-3" d="M65.34,39.65c.24.06.48.03.7-.08.27-.14.44-.44.36-.74-.03-.11-.11-.22-.21-.28-.12-.06-.23-.07-.36-.05.14-.02.13-.02-.04,0-.05.02-.1.04-.14.06-.02.01-.04.02-.07.03-.06.03-.06.01.04,0-.03,0-.06.02-.1.02l.14-.02s-.07,0-.1,0l.14.02s-.05,0-.07-.02c-.27-.08-.6.1-.67.38s.08.6.38.67h0Z"/>
        <path class="cls-3" d="M68.1,37.87c.05-.04.1-.07.15-.11.07-.05.13-.11.18-.19.02-.03.03-.05.05-.08.08-.14.06-.31-.03-.43-.04-.05-.09-.09-.16-.12-.09-.04-.16-.03-.25-.02s-.17.02-.25.07c-.05.03-.1.06-.15.09-.1.06-.18.16-.21.27s-.02.25.05.35.16.18.27.21.25.02.35-.05h0Z"/>
        <path class="cls-3" d="M88.45,52.11c.13-.06.24-.12.35-.21.09-.08.16-.18.19-.29.04-.13.03-.29-.04-.41-.15-.23-.43-.3-.68-.24-.14.04-.26.1-.39.17-.26.14-.37.52-.2.78.08.12.19.23.34.26.16.04.29.01.44-.06h0Z"/>
        <path class="cls-3" d="M89.04,49.5v-.09c0-.06-.01-.11-.04-.16-.02-.05-.05-.1-.09-.13l-.08-.07c-.07-.04-.14-.06-.21-.06h-.09s-.09,0-.14.01l-.12.05c-.06.03-.11.08-.14.13-.03.03-.05.07-.07.11-.02.04-.03.08-.04.13-.01.05-.01.09,0,.14,0,.05.01.09.04.13.02.06.06.12.11.17l.1.08.12.05.14.02.14-.02.12-.05c.06-.03.11-.08.14-.13.03-.03.05-.07.07-.11.03-.06.05-.13.04-.2h0Z"/>
        <path class="cls-3" d="M55.06,29.24c.38-.27.85-.85.45-1.3-.1-.11-.29-.16-.43-.11s-.26.12-.32.26l-.05.12s.02-.06,0-.03c-.02.03-.03.06-.05.09-.03.05-.05.11-.08.16-.02.03-.03.06-.05.08.04-.07,0,0-.03.03-.15.17-.18.41-.04.6.13.17.4.25.59.12h0Z"/>
        <path class="cls-3" d="M55.66,27.02c.71,0,.71-1.11,0-1.11s-.71,1.11,0,1.11h0Z"/>
        <path class="cls-3" d="M47.73,42.89l.09-.02s.06-.02.1-.03c.07-.02.12-.06.17-.11.03-.04.06-.08.09-.11.05-.08.07-.17.07-.27,0-.1-.02-.18-.07-.27-.03-.04-.06-.08-.09-.11l-.11-.08c-.06-.04-.1-.05-.16-.06l-.09-.02c-.1-.03-.2-.03-.3,0-.1.03-.18.07-.25.14-.1.11-.16.25-.16.4,0,.14.06.3.16.4.07.07.15.12.25.14.1.03.2.03.3,0h0Z"/>
        <path class="cls-3" d="M49.69,38.55c.32,0,.32-.5,0-.5s-.32.5,0,.5h0Z"/>
        <path class="cls-3" d="M36.17,66.49c.45-.15.97-.45,1-.98.02-.37-.36-.59-.68-.52-.19.04-.34.19-.48.32-.06.05.09-.06.02-.02-.03.02-.06.04-.08.05-.02.01-.05.03-.07.04-.12.07.12-.04,0,0-.28.11-.5.39-.4.7.09.28.4.5.7.4h0Z"/>
        <path class="cls-3" d="M37.97,64.5s.09-.08.13-.13c.09-.1.14-.21.18-.33.04-.14,0-.28-.08-.39-.09-.12-.21-.17-.35-.18-.03,0-.05,0-.08,0-.03,0-.06,0-.1.01-.05,0-.09.01-.13.04-.03.01-.05.02-.08.03-.06.02-.11.05-.17.07-.13.06-.22.21-.26.34-.05.17,0,.35.1.49.21.27.6.29.84.06h0Z"/>
        <path class="cls-3" d="M26.16,48.76c.16-.07.34-.12.49-.21s.25-.21.38-.32c.28-.23.05-.71-.29-.7h-.1s.04.02-.02,0c-.09-.02-.19-.02-.28,0-.03,0-.06,0-.08.01-.13.03-.27.09-.4.13-.28.09-.49.39-.39.69.08.26.4.51.69.39h0Z"/>
        <path class="cls-3" d="M28.58,47.64c.67,0,.68-1.05,0-1.05s-.68,1.05,0,1.05h0Z"/>
        <path class="cls-3" d="M27.7,79.21c.27.07.6.06.85-.09s.47-.39.51-.67c.03-.23-.02-.49-.25-.61-.21-.11-.48-.09-.65.08-.04.04-.09.08-.13.12-.01.01-.08.08-.02.02s-.03.01-.04.02c-.02.01-.14.07-.14.08,0-.01.11-.06,0-.01-.06.02.13,0,0,0-.27.01-.49.2-.52.46-.03.25.12.52.38.59h0Z"/>
        <path class="cls-3" d="M29.63,76.79c.05-.08.1-.15.12-.24.02-.08.02-.16.02-.24,0-.06-.01-.12-.04-.18-.02-.06-.05-.11-.1-.15-.09-.08-.2-.14-.33-.14h-.05s-.02,0-.03,0c-.03,0-.05,0-.08,0-.03,0-.06,0-.08.01-.09.03-.16.07-.24.12-.17.11-.3.29-.29.5,0,.15.06.3.17.41.11.11.26.17.41.17.21,0,.39-.11.5-.29h0Z"/>
        <path class="cls-3" d="M45.64,87.04c.1-.04.18-.08.26-.14s.14-.14.21-.22c.09-.1.16-.22.15-.36,0-.11-.04-.22-.11-.31-.07-.08-.16-.16-.26-.18-.14-.03-.26,0-.39.05-.09.04-.18.08-.26.14s-.14.13-.21.21c-.08.1-.16.22-.15.36,0,.12.04.22.11.31.07.08.16.16.27.18l.14.02c.09,0,.18-.02.26-.07h0Z"/>
        <path class="cls-3" d="M47.84,84.63c.01-.06.02-.12.04-.18.02-.11.03-.23-.01-.34-.06-.15-.14-.26-.29-.33-.23-.1-.49,0-.64.19-.05.07-.09.14-.13.22-.16.3-.05.67.27.8.15.06.29.06.44,0s.3-.2.33-.37h0Z"/>
        <path class="cls-3" d="M70.76,89.18c.08-.15.14-.3.19-.46s.06-.31.07-.47c.02-.41-.52-.6-.79-.33-.25.24-.39.5-.51.81-.1.26.09.57.33.68s.58.02.71-.23h0Z"/>
        <path class="cls-3" d="M71.21,86.27c.03-.09.06-.17.06-.26,0-.05-.01-.1-.02-.15,0-.08-.02-.15-.06-.22-.05-.08-.12-.14-.21-.18-.16-.07-.35-.04-.48.09-.03.04-.07.07-.1.11-.09.1-.13.21-.17.34s-.01.28.05.39c.06.11.18.21.3.23.13.03.28.02.39-.05l.1-.08c.06-.06.11-.14.13-.22h0Z"/>
        <path class="cls-3" d="M85.81,67.61c.27-.12.51-.26.75-.44.28-.21.63-.48.6-.86-.02-.33-.28-.49-.59-.45-.29.04-.47.34-.66.53-.17.17-.35.31-.55.44s-.29.4-.16.62c.13.23.39.26.62.16h0Z"/>
        <path class="cls-3" d="M87.97,64.93v-.18c-.02-.16-.09-.3-.23-.39-.13-.08-.32-.09-.45,0l-.14.1c-.08.05-.15.11-.2.2-.05.09-.07.18-.07.28,0,.19.1.38.27.47s.38.1.55,0c.16-.09.28-.28.27-.47h0Z"/>
        <path class="cls-1" d="M14.93,43.96c.73-.15,1.41-.64,2.08-.96.63-.29,1.47-.46,1.68-1.2.07-.25-.04-.53-.27-.66-.73-.41-1.54.17-2.19.52-.71.38-1.48.77-1.98,1.42-.35.46.22.98.68.88h0Z"/>
        <path class="cls-1" d="M20.72,41.78s.09-.04.14-.07c.08-.04.15-.11.21-.17.13-.14.19-.33.14-.52-.05-.17-.19-.34-.37-.37-.02,0-.05,0-.07-.01-.15-.03-.2-.03-.35,0-.05,0-.11.02-.16.03-.15.03-.28.15-.37.28-.1.16-.1.37-.03.54.06.15.17.26.32.32.07.04.15.06.24.05.11,0,.21-.03.31-.08h0Z"/>
        <path class="cls-1" d="M33.82,31.22c.05.06.09.13.14.18.03.03.06.05.09.07.07.05.13.12.21.15.11.05.22.09.34.09.15,0,.29-.05.41-.15.1-.07.16-.16.21-.27.06-.15.06-.28.03-.44-.01-.08-.06-.17-.1-.24-.03-.07-.06-.12-.11-.18-.07-.09-.13-.17-.2-.25-.11-.14-.35-.21-.52-.21-.18,0-.39.08-.52.21s-.22.32-.21.52l.03.19c.03.12.1.23.19.32h0Z"/>
        <path class="cls-1" d="M35.15,33.83l.11.04c.08.02.15.02.23,0,.07-.02.14-.06.19-.11.05-.05.09-.12.11-.19.02-.08.02-.15,0-.23l-.04-.11c-.02-.08-.07-.16-.13-.22-.06-.06-.13-.1-.22-.13-.17-.05-.36,0-.48.13s-.17.31-.13.48c.02.08.07.16.13.22.06.06.13.1.22.13h0Z"/>
        <path class="cls-1" d="M46,11.48c-.49,1.07-1.25,3.58.12,4.33.25.14.56.06.72-.19.3-.47.17-1.02.17-1.56,0-.62.1-1.23.34-1.8.39-.91-.92-1.71-1.35-.79h0Z"/>
        <path class="cls-1" d="M46.32,18.41l.03.08.04.1s.06.09.11.12c.03.03.06.04.09.05.05.03.1.04.16.04h.11s.07-.04.1-.06c.05-.03.09-.06.12-.11.04-.04.06-.09.07-.14l.03-.08c.02-.08.02-.16,0-.24-.02-.08-.06-.14-.12-.2l-.09-.07c-.07-.04-.15-.06-.23-.06-.06,0-.12.01-.17.04-.06.02-.1.05-.15.09-.06.06-.09.12-.12.2-.02.08-.02.16,0,.24h0Z"/>
        <path class="cls-1" d="M74.49,21.56c-.69-.44-2.45.07-2.17,1.11.17.62.87.53,1.31.3.33-.17.68-.26.98-.51s.17-.71-.12-.9h0Z"/>
        <path class="cls-1" d="M70.9,25.25c.57,0,.57-.88,0-.88s-.57.88,0,.88h0Z"/>
        <path class="cls-1" d="M81.76,36.09c.09.12.16.24.29.31.11.06.23.1.36.1.14,0,.17-.02.27-.06.09-.04.13-.05.22-.14.13-.14.2-.3.2-.49,0-.1-.02-.18-.04-.27-.03-.12-.09-.23-.18-.31l-.14-.11c-.11-.06-.23-.1-.36-.1-.1,0-.19.02-.27.06-.09.03-.16.08-.23.15-.07.06-.12.14-.15.23-.04.08-.07.18-.06.27,0,.13.03.25.1.36h0Z"/>
        <path class="cls-1" d="M78.97,46.94s.05.06.07.08c.09.1.21.15.34.18.08.02.15.03.23.01.08,0,.15-.03.21-.07l.12-.09c.07-.07.12-.16.15-.25.05-.13.05-.26.02-.4,0-.04-.02-.08-.02-.11-.03-.11-.09-.21-.17-.29-.08-.08-.18-.14-.29-.17-.17-.04-.35-.03-.51.07-.08.04-.14.1-.19.17-.06.06-.1.14-.12.23-.03.12-.03.24,0,.35.03.11.09.21.17.29h0Z"/>
        <path class="cls-1" d="M53.24,51.77c.07-.06.14-.11.2-.18.12-.15.24-.32.22-.52-.01-.11-.03-.2-.1-.29s-.14-.13-.25-.17c-.14-.06-.32-.03-.45.03-.08.03-.16.06-.23.11-.04.03-.08.05-.12.08-.14.09-.23.21-.28.36-.06.18,0,.38.11.53.1.13.23.21.4.23.2.03.36-.04.51-.17h0Z"/>
        <path class="cls-1" d="M56.67,50.12c.32,0,.32-.5,0-.5s-.32.5,0,.5h0Z"/>
        <path class="cls-1" d="M38.53,48.5c-.46-.07-.82.02-1.2.29s-.58.65-.66,1.12c-.09.54.51.96.95.55.11-.1.1-.08.24-.18s.26-.21.38-.33c.09-.09.19-.17.28-.26.05-.04.1-.09.14-.15l.1-.13c.04-.05.04-.06.02-.03.12-.16.19-.32.14-.52-.04-.16-.2-.35-.37-.37h0Z"/>
        <path class="cls-1" d="M34.48,53.56v.04c.04.11.1.21.18.3.08.08.18.14.3.17h.04c.1.04.2.04.29.02.07,0,.13-.02.19-.05.09-.03.17-.08.24-.15l.12-.15.07-.18c.03-.1.04-.2.01-.29,0-.07-.02-.13-.05-.19-.03-.09-.08-.17-.15-.24l-.15-.12-.18-.07c-.1-.03-.2-.04-.29-.01-.07,0-.13.02-.19.05-.09.03-.17.08-.24.15l-.12.15-.07.18c-.04.13-.04.26,0,.39h0Z"/>
        <path class="cls-1" d="M17.29,62.81c.4.06.81.16,1.19.29s.76.36,1.18.33c.49-.03.7-.48.51-.9-.39-.9-1.85-1.1-2.7-1.06-.72.04-.98,1.21-.18,1.33h0Z"/>
        <path class="cls-1" d="M21.24,64.9c.32,0,.32-.5,0-.5s-.32.5,0,.5h0Z"/>
        <path class="cls-1" d="M44.46,73.49c-.38.24-.73.56-.87,1-.06.21,0,.44.16.59.17.17.37.19.59.16.39-.06.73-.35.98-.64.24-.27.28-.64.06-.94-.21-.27-.62-.38-.92-.18h0Z"/>
        <path class="cls-1" d="M59.81,70.69c-.56.39-.92.98-1.11,1.62-.18.59-.29,1.59.43,1.88s1.11-.42,1.19-1.02.31-1.16.46-1.75c.14-.52-.48-1.08-.96-.74h0Z"/>
        <path class="cls-1" d="M58.74,76.87c.03.13.06.27.13.39s.16.23.28.29c.15.08.34.13.51.07s.3-.16.39-.3c.08-.12.1-.26.11-.4s-.04-.29-.08-.42c-.05-.17-.17-.33-.32-.42s-.37-.12-.54-.07c-.37.12-.58.48-.49.86h0Z"/>
        <path class="cls-1" d="M69.71,62.73c-.39.06-.76.22-1.05.49s-.61.79-.46,1.22c.12.32.4.49.74.42.3-.06.55-.34.77-.55.09-.08.18-.16.27-.25.05-.04.09-.09.14-.13-.09.07.06-.04.08-.05.26-.17.39-.5.26-.79-.14-.31-.43-.42-.75-.37h0Z"/>
        <path class="cls-1" d="M68.42,67.11c.92,0,.92-1.43,0-1.43s-.92,1.43,0,1.43h0Z"/>
      </g>
      <rect class="cls-2" width="100" height="100"/>
    </g>
  </g>
</svg>