<?xml version="1.0" encoding="UTF-8"?>
<svg id="Capa_2" data-name="Capa 2" xmlns="http://www.w3.org/2000/svg" viewBox="0 0 100 100">
  <defs>
    <style>
      .cls-1 {
        fill: #fff;
      }

      .cls-2 {
        fill: none;
      }

      .cls-3 {
        fill: #4a2d2d;
      }

      .cls-4 {
        fill: #afaa43;
      }
    </style>
  </defs>
  <g id="COLOR">
    <g>
      <g>
        <path class="cls-4" d="M40.26,24.63s1.48-6.51,4.76-11.07c3.29-4.56,5.77-4.83,8.79-1.95,3.02,2.88,6.24,11.47,6.24,11.47,0,0,2.88-3.35,5.7-2.15,2.82,1.21,6.51,6.71,8.18,9.79,1.68,3.09,2.01,4.43,2.01,4.43,0,0,1.95-3.49,4.83-1.54,2.88,1.95,3.42,8.12,2.68,14.36-.74,6.24-4.09,11.81-4.09,11.81,0,0,1.01,4.63-1.68,9.46-2.68,4.83-5.43,6.71-9.66,8.12-4.23,1.41-10.33,1.54-10.33,1.54l-1.95,2.08s2.15,7.38.8,9.73c-1.34,2.35-5.97,2.15-8.65,1.74s-2.62-1.95-2.75-3.62c-.13-1.68,1.01-9.79,1.01-9.79,0,0-1.27-.74-1.88-1.41s-.87-.8-.87-.8c0,0-8.05,1.81-14.76-1.27-6.71-3.09-7.78-9.59-7.92-12.28-.13-2.68.2-4.49.67-4.83s.74-.47.74-.47c0,0-4.43-3.82-4.83-10.33-.4-6.51,2.28-12.28,3.62-12.95s3.69,1.61,3.69,1.61c0,0,.07-7.51,4.76-14.22,4.7-6.71,10.87,2.55,10.87,2.55Z"/>
        <path class="cls-3" d="M46.92,84.19c1.71.92,3.86,1.39,5.73.66.35-.14.35-.77-.1-.73-1.84.17-3.5.19-5.21-.65-.48-.24-.9.46-.42.72h0Z"/>
        <path class="cls-3" d="M46.95,87.17c1.11.49,2.53.97,3.72.51.32-.12.38-.62,0-.71-1.12-.29-2.26-.24-3.37-.63-.48-.17-.83.63-.35.83h0Z"/>
        <path class="cls-3" d="M48.25,90.61c.51,0,1.01-.02,1.52-.11.31-.05.31-.57,0-.62-.5-.08-1.01-.1-1.52-.11-.54,0-.54.84,0,.83h0Z"/>
        <path class="cls-1" d="M52.13,78.28c-2.95-3.72-2.15-7.89-2.29-12.26-.01-.4-.63-.52-.73-.1-1.02,4.31-.82,9.63,2.42,12.96.39.41.94-.19.61-.61h0Z"/>
        <path class="cls-1" d="M59.78,76.15c3.06-2.69,5.54-6.7,5.89-10.84.03-.38-.54-.43-.64-.09-1.25,4.02-2.76,7.37-5.74,10.42-.32.33.16.8.5.5h0Z"/>
        <path class="cls-1" d="M70.63,71.75c.94-.69,1.82-1.49,2.42-2.5.19-.33-.27-.7-.53-.41-.72.78-1.43,1.58-2.29,2.22-.41.31-.01,1,.41.69h0Z"/>
        <path class="cls-1" d="M40.17,70.8c-1.11-.83-1.57-2.22-2.1-3.45-.58-1.35-1.12-2.72-1.83-4.01-.21-.38-.86-.12-.71.3.57,1.7,1.36,3.34,2.1,4.98.52,1.15,1.07,2.14,2.16,2.83.42.26.75-.37.38-.65h0Z"/>
        <path class="cls-1" d="M33.01,71.95c-2.38-.84-4.26-2.23-6.22-3.78-.39-.31-.86.16-.55.55,1.63,2.04,4.07,3.33,6.51,4.13.58.19.81-.7.25-.9h0Z"/>
        <path class="cls-1" d="M23.63,49.06c-1.53-2.61-1.87-5.29-1.74-8.26.02-.44-.66-.53-.77-.1-.74,3.05.04,6.23,1.6,8.9.34.59,1.26.05.91-.53h0Z"/>
        <path class="cls-1" d="M38.84,46.01c-.15-1.49-.04-2.99-.22-4.48-.05-.39-.63-.55-.74-.1-.35,1.49-.17,3.07.02,4.58.07.59,1,.61.94,0h0Z"/>
        <path class="cls-1" d="M65.79,52.85c.45-1.06.77-2.21.57-3.37-.07-.41-.64-.33-.75,0-.34.96-.45,2.02-.65,3.01-.09.47.62.86.83.35h0Z"/>
        <path class="cls-1" d="M77.36,51.38c1.36-2.18,2.5-4.73,2.6-7.33.02-.43-.6-.48-.73-.1-.82,2.39-1.44,4.74-2.58,7.01-.24.47.43.87.71.42h0Z"/>
        <path class="cls-1" d="M51.97,54.95c0-.45.04-.87-.16-1.28-.12-.27-.58-.27-.7,0-.19.41-.16.83-.16,1.28,0,.65,1.01.65,1.02,0h0Z"/>
        <path class="cls-1" d="M62.66,42.25c.05-.59.13-1.19.1-1.79-.02-.39-.59-.49-.7-.09-.17.61-.22,1.25-.3,1.88-.07.57.85.58.9,0h0Z"/>
        <path class="cls-1" d="M50.75,40.55c.04-2.15.23-4.4-.09-6.54-.05-.35-.66-.35-.71,0-.32,2.14-.13,4.38-.09,6.54.01.58.89.58.9,0h0Z"/>
        <path class="cls-1" d="M66.1,29.23c-.04-.29-.08-.57-.13-.86-.06-.36-.67-.36-.74,0-.05.29-.09.57-.13.86-.05.33.13.66.5.66s.55-.33.5-.66h0Z"/>
        <path class="cls-1" d="M33.54,31.74c-.39-1.03-.33-2-.26-3.08.02-.4-.56-.55-.75-.2-.59,1.1-.46,2.44,0,3.56.25.62,1.26.36,1.02-.28h0Z"/>
        <path class="cls-1" d="M50,20.96c.04-.76.29-1.56.24-2.32-.02-.37-.47-.48-.68-.18-.49.69-.55,1.68-.61,2.5-.05.67,1.01.67,1.05,0h0Z"/>
        <path class="cls-3" d="M76.47,57.33c-.54.26-1.08.57-1.61.91.25-2.45-.79-5.62-1.45-7.3-.18-.47-.39-.94-.61-1.41,0-.02.01-.04.02-.06.25-2.43-.24-5.09-1.01-7.55,2.34-2.75,3.68-6.39,7.04-8.15.64-.34.08-1.27-.56-.96-1.87.88-3.2,2.33-4.48,3.91-.87,1.07-1.87,2.2-2.62,3.42-.14-.36-.28-.72-.43-1.07-1.12-2.63-3.28-6.42-6.27-7.28-2.49-.72-4.33,1.72-5.69,3.72-.26-1.88-1.11-3.8-2.1-5.53,1.31-2.87,2.8-5.3,5.07-7.59.47-.47-.25-1.18-.72-.72-2.08,1.97-3.92,4.54-4.97,7.27-.28-.44-.56-.88-.83-1.28-1.2-1.78-2.88-4.4-5.33-4.39-2.38.02-3.69,2.63-4.72,4.4-.35.6-.68,1.21-.99,1.84-.71-2.18-2.55-4.25-4.06-5.78-.42-.43-.99.19-.64.64.87,1.11,1.66,2.31,2.39,3.52.58.96,1.03,2.03,1.7,2.92-.65,1.45-1.22,2.94-1.65,4.47-.98-1.15-2.05-2.18-3.16-3.04-.84-.65-1.76-1.4-2.85-.9-1.2.55-2.24,2.25-2.95,3.33-1.48,2.25-2.46,4.76-3.24,7.32-1.06-2.55-3.25-4.86-5.22-6.52-.57-.48-1.4.33-.83.83,1.28,1.1,2.42,2.32,3.39,3.71.82,1.19,1.4,2.52,2.16,3.74-.07.26-.15.53-.22.79-.32,0-.63.03-.93.07-2.67.41-2.75,4.46-2.92,6.62-.22,2.89.1,6.05,1.15,8.84-1.28-1.33-2.6-2.51-4.52-2.68-.69-.06-.79.99-.16,1.18,2.21.65,3.58,2.47,5.08,4.11,1.44,1.57,2.85,3.31,4.54,4.61.01,0,.02,0,.03.02,1.71,5.06,5.9,9.53,11.27,9.77.17,0,.32-.06.43-.16,1.5,2.17,3.78,3.73,6.54,3.49.62-.05.88-1.08.16-1.18-4.8-.71-7.65-4.46-7.25-9.35.37-4.53,3.44-7.82,5.88-11.38,3.26,2.24,6.01,6.08,7.69,9.52,2.05,4.21,2.11,8.79-1.32,12.29-.55.56.15,1.48.84,1.09.89-.52,1.59-1.17,2.12-1.91,7.56-1.58,12.96-8.94,12.63-16.02.99-.84,1.99-1.67,3.07-2.43,1.17-.82,4.95-3.92,5.59-.9.13.62,1.01.54,1.18,0,.73-2.31-1.66-3.79-3.68-2.8ZM65.52,34.08c1.98,2.01,3.32,4.84,4.17,7.49.47,1.46.75,2.98,1.04,4.49-1.22-1.65-2.71-3.08-4.45-4.03-.36-.2-.73-.06-.96.25-1.41,1.89-3.35,3.44-4.81,5.33-.79,1.02-1.59,2.06-2.28,3.16-.17-.25-.34-.5-.5-.74-1-1.45-2.09-2.86-3.26-4.18.87-2.34,1.99-4.56,3.34-6.67,1.44-2.24,4.64-8.21,7.71-5.09ZM45.27,30.56c.77-1.63,2.74-6.68,5.31-5.53,1.74.78,3.07,3.94,3.94,5.52,1.12,2.05,1.82,4.42,3.19,6.32.04.05.08.09.12.12-1.67,2.51-2.97,5.26-4.04,8.08-.82-.88-2.15-2.8-3.59-2.46-1.21.29-2.32,2.05-3.03,2.97-.04.05-.07.1-.11.15-.58-3.22-2.06-6.41-4.05-9.1.63-2.07,1.33-4.09,2.25-6.06ZM35.7,33.15c.84-.59,1.1-.58,1.96.04.56.4,1.04,1.08,1.48,1.6,1.9,2.21,3.53,4.67,4.65,7.36.82,2,1.24,4.01,1.61,6.07-.51.89-.97,1.82-1.37,2.78-.16.38-.32.77-.47,1.17-1.18-1.61-2.79-2.97-4.39-3.99-2.35-1.5-5.82-3.27-8.95-3.6.78-2.49,1.58-5,2.75-7.33.61-1.23,1.57-3.28,2.73-4.09ZM28.67,62.46c-1.14-2.8-2.24-6.17-2.33-9.19-.05-1.65.1-3.32.48-4.93.47-2.02.87-2.83,3.14-2.23,2.8.74,5.76,2.24,8.18,3.82,1.99,1.3,3.4,2.87,4.62,4.73-.48,1.79-.77,3.66-.79,5.49-1.19-1.01-2.34-2.08-3.46-3.18-1.01-1-2.53-3.2-3.94-3.55-1.36-.34-1.99,1.32-2.49,2.31-.86,1.71-1.4,3.59-1.58,5.5-.1,1.1-.04,2.24.14,3.39-.62-.74-1.29-1.46-1.98-2.16ZM41.14,71.88c.12,1.2.48,2.44,1.04,3.6-2.52-1.17-4.87-2.29-6.77-4.46-2.24-2.54-3.39-5.77-3.36-9.15.02-1.73.28-3.46.91-5.08.04-.11.75-1.99,1.05-2.13.72-.34,1.7,1.32,2.07,1.72,2.15,2.31,4.54,4.44,7.12,6.26-1.5,2.88-2.36,6.09-2.05,9.23ZM54.27,62.55c-1.66-2.17-3.68-3.83-5.57-5.76-.31-.32-.84-.31-1.15,0-1.4,1.38-2.7,3.02-3.76,4.81-.16-.12-.32-.24-.48-.36.09-1.71.28-3.42.63-5.1.42-2.04,1.07-4.03,1.97-5.92.49-1.04,1.08-2.02,1.72-2.97.33-.48.67-.94,1.02-1.4.33-.42.65-.91,1.04-1.27.05-.04.1-.09.15-.13.33-.25.85-.38,1.2-.12,1.15.87,4.05,5.32,4.93,6.73,1.93,3.08,3.42,5.99,3.7,9.64-1.17,1.63-2.29,3.29-3.21,5.07-.66-1.12-1.4-2.2-2.19-3.23ZM67.38,69.42c-1.88,4.09-4.85,6.57-8.75,8.19.91-2.59.52-5.74-.46-8.32-.27-.72-.6-1.43-.95-2.12,1.18-2.14,2.32-4.3,3.73-6.29,1.33-1.87,3.14-3.63,4.31-5.62,3.82,3.65,4.27,9.47,2.11,14.16ZM65.65,54.28c-.09-.23-.4-.34-.64-.15-1.38,1.08-2.54,2.63-3.62,4.16-.11-2.19-1.17-4.37-2.37-6.31.93-1.35,1.81-2.73,2.85-4.01,1.15-1.43,2.46-3.22,3.97-4.38,1.98,2.32,3.89,4.53,5.16,7.36.64,1.42,1.11,2.9,1.44,4.42.34,1.56.3,2.88.23,4.38-.88.67-1.73,1.39-2.53,2.12-.48-2.77-1.89-5.43-4.48-7.59Z"/>
      </g>
      <rect class="cls-2" width="100" height="100"/>
    </g>
  </g>
</svg>