<?xml version="1.0" encoding="UTF-8"?>
<svg id="Capa_2" data-name="Capa 2" xmlns="http://www.w3.org/2000/svg" viewBox="0 0 100 100">
  <defs>
    <style>
      .cls-1 {
        fill: #fff;
      }

      .cls-2 {
        fill: #cfdb9d;
      }

      .cls-3 {
        fill: none;
      }

      .cls-4 {
        fill: #4a2d2d;
      }

      .cls-5 {
        fill: #9bb533;
      }
    </style>
  </defs>
  <g id="COLOR">
    <g>
      <g>
        <path class="cls-5" d="M85.07,40.21c-1.02-.64-2.25-.61-3.4-.46-.55.07-1.11.16-1.67.21-.2.02-.41.02-.59-.06-.24-.1-.4-.34-.46-.59-.13-.56.16-1.1.54-1.48.65-.65,1.51-1.06,2.25-1.59,1.48-1.08,3.01-2.12,4.22-3.52,1.8-2.1,3.93-6.41.9-8.54-1.18-.83-2.55-.31-3.74.3-1.38.71-2.59,2.77-4.05,2.26-1.43-.5,2.88-8.05,3.42-12.34.18-1.44-.18-3.04-.99-4.25-.38-.56-.89-1.06-1.52-1.32-1.51-.64-2.98.07-4.06,1.17-1.24,1.27-2.23,2.99-2.9,4.62-.51,1.24-.84,2.53-1.01,3.86-.05.45-.07.9-.12,1.35-.15,1.14-1.22,2.91-2.2,1.22-1.06-1.83-1.5-3.92-3.36-5.19-1.52-1.04-3.67-1.24-5.01.21-3.73,4.05,1.82,9.73,3.46,13.35.53,1.18.93,2.56.91,3.86-.02,1.16-.58,1.82-1.78,1.8-.54,0-1.09-.14-1.61-.24-.87-.18-1.69-.53-2.52-.85-1.66-.63-3.39-1.03-4.91.18-2,1.59-1.28,3.89.52,5.26,2.13,1.62,4.86,2.48,6.75,4.41.21.22,1.29,1.24.98,1.58-.23.25-2.12-.42-2.45-.47-.99-.15-2-.1-2.82.56-1.69,1.36-1.01,3.89.29,5.27.7.75,1.71,1.15,2.44,1.88.36.36.94.76.99,1.27.07.72-.57.99-.99,1.51-1.16,1.41-.91,3.36,0,4.81.29.46.74.8,1.11,1.18.18.18.35.39.43.64.39,1.27-1.25,1.42-2.06,1.33-2.38-.26-3.98,1.8-4.08,4.02-.15,3.31,2.75,5.99,4.41,8.56,1.63,2.5,3.17,5.24,3.8,8.18.2.97.31,1.96.29,2.97,0,.39.29.78.67.87.65.16,1.29.34,1.93.52.42.12.76-.02,1.01-.27.18-.2.3-.46.33-.75.53-4.14,1.41-8.06,3.31-11.81.81-1.6,1.77-3.1,2.79-4.57.92-1.33,1.97-2.84,1.42-4.54-.38-1.14-1.42-1.72-1.99-2.72-1.28-2.21,2.79-3.52,4.24-4.25,1.89-.95,7.1-2.54,6.11-5.56-.34-1.05-1.28-1.76-2.25-2.18-.67-.29-1.37-.38-2.07-.58-.36-.11-1.11-.24-1.31-.6-.41-.73.49-1.69.97-2.08,1.94-1.58,6.46-2.98,6.77-5.9.11-1.02-.44-1.94-1.29-2.48Z"/>
        <path class="cls-5" d="M53.2,88.62c-1.24-2.26-2.23-4.47-2.85-6.83-.32-1.2-.54-2.44-.65-3.75-.15-1.74-.19-3.5-.23-5.25-.03-1.55.12-3.17-.24-4.69-.24-1.05-.73-2.02-1.68-2.6-.9-.55-2.18-.46-2.23-1.83-.04-1.02.5-2.24.94-3.14,1.1-2.29,4-5.48,2.5-8.19-.5-.9-1.37-1.4-2.4-1.34-1.42.08-3.59,2.07-3.6-.5-.01-3.09,4.08-5.8,2.78-9-.37-.9-1.18-1.45-2.15-1.53-.77-.07-1.6.13-2.3.45-1.03.47-2.56,1.66-3.59.56-.95-1.02-.09-2.63.42-3.63.37-.73.82-1.43,1.19-2.16.8-1.61,1.58-3.28,1.72-5.1.23-2.88-1.67-6.12-4.96-5.61-1.21.19-2.03.92-2.54,2-.37.8-.42,1.74-.9,2.49-.5.79-1.73,1.26-2.17.35-1.34-2.73-.78-6.09-1.34-9.08-.42-2.21-1.42-4.7-3.81-5.36-1.87-.52-3.73.59-4.67,2.19-1.31,2.22-.7,4.87.11,7.16.44,1.25.97,2.48,1.23,3.79.08.41.3.94.22,1.36-.16.82-1.32.3-1.78.08-.62-.3-1.16-.74-1.76-1.07-1.78-1-4.12-2.31-6.1-.99-1.5,1.01-1.88,3.17-1.38,4.81.75,2.46,3.23,4.11,5.12,5.64,1.27,1.03,2.53,2.05,3.8,3.08.63.51,1.27,1.02,1.9,1.54.87.71,2.21,1.81.68,2.55-1.08.52-2.55.57-3.7.91-1.15.35-2.31.8-3.28,1.52-1.45,1.09-2.53,3.01-1.22,4.65,1.33,1.67,3.88,1.62,5.79,1.54,1.51-.06,3.01-.25,4.52-.16.9.05,2.91.18,1.99,1.53-.41.59-1.36.82-1.97,1.12-1.51.76-3,2.57-1.85,4.26,1.25,1.84,4.34,1.66,6.08,2.87.94.66.19,1.47.45,2.54.23.94.88,1.75,1.65,2.31.84.62,4.63,1.61,3.65,2.94-.7.94-1.83,1.18-2.35,2.37-1.06,2.42.36,4.95,2.2,6.51,2.4,2.03,5.25,3.61,7.9,5.29,2.58,1.62,5.12,3.36,7.8,4.82.38.21.77.42,1.16.61.56.29,2.55-.78,1.89-1.99Z"/>
        <path class="cls-2" d="M51.31,90.61c-.39-.2-.78-.4-1.16-.61-2.16-3.13-10.02-16.87-14.42-27.56-4.72-11.47-7.21-22.52-7.31-22.96.22.53,6.48,16.01,8.04,19.42,1.58,3.47,7.37,14.99,9.44,17.98,1.39,2,3.31,3.88,4.44,4.91.62,2.37,1.61,4.57,2.85,6.83.66,1.21-1.32,2.27-1.89,1.99Z"/>
        <path class="cls-2" d="M70.95,50.49c-.49,3.54-2.68,21.21-2.62,24.5.05,2.75-.07,10.13-.29,13.23-.24.26-.59.39-1.01.27-.64-.18-1.28-.36-1.93-.52-.38-.09-.68-.49-.67-.87.03-1.01-.08-2-.29-2.97.57-4.12,1.45-10.61,1.74-12.92.43-3.47,2.8-20.78,3.29-22.79.49-2.01,2.07-8.78,2.56-10.24s-.3,8.78-.79,12.31Z"/>
        <path class="cls-1" d="M67,53.45c-.18-.57-.68-.98-1.07-1.41-.46-.52-.91-1.03-1.44-1.48-.22-.18-.59.05-.42.32.35.54.78,1.02,1.2,1.51.4.46.8,1.09,1.36,1.35.18.08.44-.06.37-.28h0Z"/>
        <path class="cls-1" d="M73.09,47.81c1.18-.98,2.42-1.93,3.71-2.76,1.18-.76,2.53-1.28,3.66-2.09.26-.18.11-.61-.22-.53-2.78.69-5.56,3-7.57,4.96-.28.27.13.66.42.42h0Z"/>
        <path class="cls-1" d="M71.61,58.04c1.73-1.17,3.69-2.04,5.36-3.3.24-.18.12-.64-.22-.53-2,.62-3.8,2.01-5.49,3.22-.36.26-.02.86.35.61h0Z"/>
        <path class="cls-1" d="M65.91,72.16c-.29-.98-1.11-1.59-1.89-2.2-.95-.74-1.95-1.36-3.05-1.83-.3-.13-.53.25-.26.44.81.58,1.63,1.14,2.43,1.72s1.8,1.2,2.21,2.1c.15.32.66.09.56-.24h0Z"/>
        <path class="cls-1" d="M69.22,43.9c-.79-1.63-2.26-3.51-4.07-4.08-.3-.09-.58.34-.32.55.7.56,1.47.98,2.12,1.61s1.24,1.42,1.7,2.25c.21.37.75.05.57-.33h0Z"/>
        <path class="cls-1" d="M70.46,32.5c-.2-1.63-.53-3.2-1.37-4.62-.16-.27-.55-.09-.48.2.32,1.52.78,3,1.05,4.53.08.45.86.35.81-.11h0Z"/>
        <path class="cls-1" d="M76.94,34.23c1.16-1.08,2.41-2.05,3.62-3.07.25-.21-.07-.6-.34-.44-1.41.82-2.62,1.88-3.77,3.02-.32.32.17.8.5.5h0Z"/>
        <path class="cls-1" d="M37.56,76.48c1.45.12,2.94.56,4.4.49.32-.02.36-.43.07-.54-1.36-.51-3.03-.56-4.47-.6-.42-.01-.41.62,0,.65h0Z"/>
        <path class="cls-1" d="M42.62,55.62c-1.05,1.55-1.85,3.03-2.05,4.92-.03.32.41.31.51.07.65-1.56,1.25-3.21,2.18-4.62.26-.4-.37-.76-.64-.37h0Z"/>
        <path class="cls-1" d="M40.03,44.13c-1.55,2.13-3.62,4.86-3.47,7.65.02.33.44.37.56.08.51-1.35.86-2.7,1.52-3.99.6-1.17,1.29-2.28,1.96-3.4.22-.37-.32-.67-.57-.33h0Z"/>
        <path class="cls-1" d="M23.65,49.14c1.53-.21,3.01-.07,4.54,0,.26.01.39-.4.14-.51-1.55-.66-3.27-.6-4.88-.19-.46.12-.25.76.19.7h0Z"/>
        <path class="cls-1" d="M21.97,36.56c.53.12,1.05.28,1.54.51.43.21.83.53,1.3.64.29.07.57-.25.4-.52-.57-.89-2.03-1.26-3.01-1.45-.53-.1-.76.7-.22.81h0Z"/>
        <path class="cls-1" d="M34.79,32.44c-1.17,2.29-2.29,4.78-2.48,7.38-.02.29.4.31.49.07.86-2.4,1.42-4.82,2.54-7.13.18-.36-.36-.68-.54-.32h0Z"/>
        <path class="cls-1" d="M28.05,58.45c1.83.21,3.78.69,5.62.62.36-.01.43-.51.08-.63-1.77-.57-3.86-.56-5.7-.68-.44-.03-.43.63,0,.68h0Z"/>
        <path class="cls-4" d="M27.27,35.11c.26,8.94,3.75,17.79,7.1,25.95,3.82,9.31,9.49,21.05,15.19,29.37.44.64,1.39.09,1.04-.61-4.54-8.93-10.9-19.88-14.72-29.18-1.71-4.17-3.29-8.4-4.61-12.72-1.27-4.18-2.59-8.47-3.08-12.82-.07-.57-.94-.61-.92,0h0Z"/>
        <path class="cls-4" d="M68.33,88c.52-4.93.65-10.7.81-15.65.16-4.85.7-9.72,1.29-14.53s1.37-10,2.18-14.98c.38-2.34.76-4.68,1.16-7.02.4-2.34,1.15-4.83,1.06-7.22-.02-.5-.8-.83-1.04-.28-.95,2.19-1.14,4.74-1.53,7.08-.4,2.34-.77,4.69-1.1,7.04-.7,4.88-1.25,9.77-1.76,14.67-.52,4.95-.84,9.95-1.47,14.89-.64,4.99-.95,10.98-.81,16.01.02.8,1,.86,1.08.1l.13-.1Z"/>
      </g>
      <rect class="cls-3" width="100" height="100"/>
    </g>
  </g>
</svg>