<?xml version="1.0" encoding="UTF-8"?>
<svg id="Capa_2" data-name="Capa 2" xmlns="http://www.w3.org/2000/svg" viewBox="0 0 100 100">
  <defs>
    <style>
      .cls-1 {
        fill: #fff;
      }

      .cls-2 {
        fill: none;
      }

      .cls-3 {
        fill: #4a2d2d;
      }

      .cls-4 {
        fill: #9bb533;
      }
    </style>
  </defs>
  <g id="COLOR">
    <g>
      <g>
        <g>
          <path class="cls-4" d="M30.62,4.07s-.48-.65-1.5.83c-.87,1.27-1.68,3.11-1.93,4.9-.26,1.79-.2,2.46-.2,2.46,0,0-3.07,2.71-3.99,6.55-.92,3.84.26,6.91.26,6.91,0,0-2.3,4.1-1.48,7.12.82,3.02,3.28,4.71,3.28,4.71,0,0-.61,19.76-.61,24.17s.15,9.93.15,9.93c0,0-1.64,3.48-1.18,5.07.46,1.59,1.54,1.79,1.59,5.12.05,3.33-.15,12.85.77,14.34s5.17,2.15,7.73,1.48,2.51-1.59,2.71-3.74.26-2.3.26-2.3c0,0-1.74-16.49-1.69-19.66.05-3.17.2-5.38,1.02-6.86s.87-2,.72-2.92c-.15-.92-1.23-3.38-1.64-3.58s-.77-.2-.77-.2c0,0,.1-9.57-.15-12.9l-.26-3.33-.15-1.08s3.94-4.45,2.97-7.68c-.97-3.23-1.38-3.79-1.38-3.79,0,0,2.92-2.51,2.76-6.76-.15-4.25-3.53-8.14-3.53-8.14,0,0,.97-1.38-.46-3.94s-2.46-4.51-2.87-5.43-.41-1.28-.41-1.28Z"/>
          <path class="cls-3" d="M31.99,19.02c.42-1.31.52-3.1.82-4.4,1.37.75,2.59,1.89,3.53,3.15-.25-.85-.6-1.66-1.07-2.41-.67-.76-1.45-1.39-2.31-1.85-.33-.17-.72-.02-.83.34-.36,1.21-.72,2.4-1,3.61-.31-.53-.61-1.05-.9-1.53-.28-.48-.93-.43-1.22,0,0,.01-.02.02-.02.03-.08-.45-.22-1.03-.24-1.11-.55-1.62-1.53-3.24-1.8-2.54.32,1.09.97,3.67,1.21,4.92-1.02,1.61-2.08,3.56-2.27,5.37-.26-.14-.52-.26-.8-.33-.35-.09-.34.41-.49.72-.82,1.75-2.01,3.71-2.62,5.83,1.08-1.95,2.8-4.3,3.3-5.68,1.19.92,1.95,2.08,2.5,3.23.74,1.56.85,3.5.65,5.47-.36,1.06-.54,2.19-.39,3.44.31,2.59,2.07,5.47,4.54,6.47.59.24.38-.23.07-.62-1.62-1.99-3.45-3.52-3.52-6.37-.07-2.57,1.56-5.56,3.11-7.57,1.86,1.4,2.9,2.98,3.59,4.15-.52-1.76-1.47-3.06-2.43-4.13.99-2.64-.04-5.59-1.4-8.2ZM29.57,29.46c-.15-2.21-1.19-4.77-2.75-6.19.04-1.96,1.57-4.73,2.68-6.42,1.46,2.57,4.29,5.96,2.66,9.34-.19,0-.39.1-.51.27-.72,1-1.46,1.98-2.08,3Z"/>
          <path class="cls-3" d="M27.96,74.35c-.64-1.16-1.52-2.63-2.2-3.77-.25-.42-.72-.16-.95.32-.84,1.75-1.84,4.02-1.45,5.99.12.64.75.39.92-.17.25-.85.25-1.75.44-2.61.12-.52.5-2.1.69-2.58.43.76,1.3,2.5,1.74,3.25.45.77,1.24.35.81-.43Z"/>
          <path class="cls-3" d="M36.04,60.73c-.29-.73-.62-1.86-1.4-2.21-1.67-.75-2.57,2.66-2.78,3.73-.18.9.77,1.05.97.14.33-1.54,1.41-2.96,1.43-3,1.23,1.84,1.2,3.69,1.56,4.27.25.39.54.49.66.03.26-.94-.09-2.09-.44-2.97Z"/>
          <path class="cls-3" d="M31.96,50.45c-.24-.81-1.3-4.42-2.71-3.03-.58.58-.93,1.58-1.23,2.33-.39.98-.77,2.05-.71,3.11.03.55.59.38.78-.1.51-1.29,1-3.3,1.69-4.63.36.26,1.07,2.05,1.31,2.64.25.62,1.06.32.87-.31Z"/>
          <path class="cls-1" d="M33.58,37.98c.46-2.19.47-4.98-.42-7.07-.14-.34-.68-.16-.67.18.04,1.13.29,2.24.33,3.37.04,1.14-.06,2.26-.13,3.4-.03.5.78.62.89.12h0Z"/>
          <path class="cls-1" d="M26.7,34.51c-.14-1.27-.61-2.58-1.07-3.76-.14-.37-.74-.35-.74.1.02,1.3.34,2.78,1.14,3.84.18.25.71.21.66-.18h0Z"/>
          <path class="cls-1" d="M30.7,25.42c.07-.71.11-1.38-.14-2.05-.15-.41-.69-.32-.74.1-.07.65,0,1.29-.03,1.95-.02.59.84.57.9,0h0Z"/>
          <path class="cls-1" d="M34.86,21.74c0-.61.12-1.38-.16-1.94-.13-.26-.55-.26-.68,0-.29.55-.16,1.33-.16,1.94,0,.64,1,.64,1,0h0Z"/>
          <path class="cls-1" d="M26.45,18.94c-.02-.11,0,.07,0-.03,0-.05,0-.1,0-.15,0-.01,0-.14,0-.09,0,.04.02-.09.02-.1.05-.17-.03-.38-.19-.47-.15-.08-.39-.08-.5.06-.21.27-.35.56-.31.91.03.3.25.54.57.5s.48-.33.42-.63h0Z"/>
          <path class="cls-1" d="M30.79,12.28l-.24-.49c-.1-.2-.36-.26-.55-.18s-.32.31-.25.52l.17.52c.09.27.38.42.64.31s.35-.42.23-.68h0Z"/>
        </g>
        <g>
          <path class="cls-4" d="M52.33,4.07s-.48-.65-1.5.83c-.87,1.27-1.68,3.11-1.93,4.9-.26,1.79-.2,2.46-.2,2.46,0,0-3.07,2.71-3.99,6.55-.92,3.84.26,6.91.26,6.91,0,0-2.3,4.1-1.48,7.12.82,3.02,3.28,4.71,3.28,4.71,0,0-.61,19.76-.61,24.17s.15,9.93.15,9.93c0,0-1.64,3.48-1.18,5.07.46,1.59,1.54,1.79,1.59,5.12s-.15,12.85.77,14.34,5.17,2.15,7.73,1.48c2.56-.67,2.51-1.59,2.71-3.74s.26-2.3.26-2.3c0,0-1.74-16.49-1.69-19.66s.2-5.38,1.02-6.86.87-2,.72-2.92c-.15-.92-1.23-3.38-1.64-3.58s-.77-.2-.77-.2c0,0,.1-9.57-.15-12.9l-.26-3.33-.15-1.08s3.94-4.45,2.97-7.68-1.38-3.79-1.38-3.79c0,0,2.92-2.51,2.76-6.76-.15-4.25-3.53-8.14-3.53-8.14,0,0,.97-1.38-.46-3.94s-2.46-4.51-2.87-5.43-.41-1.28-.41-1.28Z"/>
          <path class="cls-3" d="M53.7,19.02c.42-1.31.52-3.1.82-4.4,1.37.75,2.59,1.89,3.53,3.15-.25-.85-.6-1.66-1.07-2.41-.67-.76-1.45-1.39-2.31-1.85-.33-.17-.72-.02-.83.34-.36,1.21-.72,2.4-1,3.61-.31-.53-.61-1.05-.9-1.53-.28-.48-.93-.43-1.22,0,0,.01-.02.02-.02.03-.08-.45-.22-1.03-.24-1.11-.55-1.62-1.53-3.24-1.8-2.54.32,1.09.97,3.67,1.21,4.92-1.02,1.61-2.08,3.56-2.27,5.37-.26-.14-.52-.26-.8-.33-.35-.09-.34.41-.49.72-.82,1.75-2.01,3.71-2.62,5.83,1.08-1.95,2.8-4.3,3.3-5.68,1.19.92,1.95,2.08,2.5,3.23.74,1.56.85,3.5.65,5.47-.36,1.06-.54,2.19-.39,3.44.31,2.59,2.07,5.47,4.54,6.47.59.24.38-.23.07-.62-1.62-1.99-3.45-3.52-3.52-6.37-.07-2.57,1.56-5.56,3.11-7.57,1.86,1.4,2.9,2.98,3.59,4.15-.52-1.76-1.47-3.06-2.43-4.13.99-2.64-.04-5.59-1.4-8.2ZM51.28,29.46c-.15-2.21-1.19-4.77-2.75-6.19.04-1.96,1.57-4.73,2.68-6.42,1.46,2.57,4.29,5.96,2.66,9.34-.19,0-.39.1-.51.27-.72,1-1.46,1.98-2.08,3Z"/>
          <path class="cls-3" d="M49.66,74.35c-.64-1.16-1.52-2.63-2.2-3.77-.25-.42-.72-.16-.95.32-.84,1.75-1.84,4.02-1.45,5.99.12.64.75.39.92-.17.25-.85.25-1.75.44-2.61.12-.52.5-2.1.69-2.58.43.76,1.3,2.5,1.74,3.25.45.77,1.24.35.81-.43Z"/>
          <path class="cls-3" d="M57.75,60.73c-.29-.73-.62-1.86-1.4-2.21-1.67-.75-2.57,2.66-2.78,3.73-.18.9.77,1.05.97.14.33-1.54,1.41-2.96,1.43-3,1.23,1.84,1.2,3.69,1.56,4.27.25.39.54.49.66.03.26-.94-.09-2.09-.44-2.97Z"/>
          <path class="cls-3" d="M53.66,50.45c-.24-.81-1.3-4.42-2.71-3.03-.58.58-.93,1.58-1.23,2.33-.39.98-.77,2.05-.71,3.11.03.55.59.38.78-.1.51-1.29,1-3.3,1.69-4.63.36.26,1.07,2.05,1.31,2.64.25.62,1.06.32.87-.31Z"/>
          <path class="cls-1" d="M55.28,37.98c.46-2.19.47-4.98-.42-7.07-.14-.34-.68-.16-.67.18.04,1.13.29,2.24.33,3.37.04,1.14-.06,2.26-.13,3.4-.03.5.78.62.89.12h0Z"/>
          <path class="cls-1" d="M48.41,34.51c-.14-1.27-.61-2.58-1.07-3.76-.14-.37-.74-.35-.74.1.02,1.3.34,2.78,1.14,3.84.18.25.71.21.66-.18h0Z"/>
          <path class="cls-1" d="M52.41,25.42c.07-.71.11-1.38-.14-2.05-.15-.41-.69-.32-.74.1-.07.65,0,1.29-.03,1.95-.02.59.84.57.9,0h0Z"/>
          <path class="cls-1" d="M56.57,21.74c0-.61.12-1.38-.16-1.94-.13-.26-.55-.26-.68,0-.29.55-.16,1.33-.16,1.94,0,.64,1,.64,1,0h0Z"/>
          <path class="cls-1" d="M48.16,18.94c-.02-.11,0,.07,0-.03,0-.05,0-.1,0-.15,0-.01,0-.14,0-.09,0,.04.02-.09.02-.1.05-.17-.03-.38-.19-.47-.15-.08-.39-.08-.5.06-.21.27-.35.56-.31.91.03.3.25.54.57.5s.48-.33.42-.63h0Z"/>
          <path class="cls-1" d="M52.5,12.28l-.24-.49c-.1-.2-.36-.26-.55-.18s-.32.31-.25.52l.17.52c.09.27.38.42.64.31s.35-.42.23-.68h0Z"/>
        </g>
        <g>
          <path class="cls-4" d="M74.24,4.07s-.48-.65-1.5.83c-.87,1.27-1.68,3.11-1.93,4.9s-.2,2.46-.2,2.46c0,0-3.07,2.71-3.99,6.55-.92,3.84.26,6.91.26,6.91,0,0-2.3,4.1-1.48,7.12s3.28,4.71,3.28,4.71c0,0-.61,19.76-.61,24.17s.15,9.93.15,9.93c0,0-1.64,3.48-1.18,5.07.46,1.59,1.54,1.79,1.59,5.12.05,3.33-.15,12.85.77,14.34.92,1.48,5.17,2.15,7.73,1.48s2.51-1.59,2.71-3.74.26-2.3.26-2.3c0,0-1.74-16.49-1.69-19.66.05-3.17.2-5.38,1.02-6.86s.87-2,.72-2.92c-.15-.92-1.23-3.38-1.64-3.58s-.77-.2-.77-.2c0,0,.1-9.57-.15-12.9l-.26-3.33-.15-1.08s3.94-4.45,2.97-7.68-1.38-3.79-1.38-3.79c0,0,2.92-2.51,2.76-6.76-.15-4.25-3.53-8.14-3.53-8.14,0,0,.97-1.38-.46-3.94s-2.46-4.51-2.87-5.43c-.41-.92-.41-1.28-.41-1.28Z"/>
          <path class="cls-3" d="M75.61,19.02c.42-1.31.52-3.1.82-4.4,1.37.75,2.59,1.89,3.53,3.15-.25-.85-.6-1.66-1.07-2.41-.67-.76-1.45-1.39-2.31-1.85-.33-.17-.72-.02-.83.34-.36,1.21-.72,2.4-1,3.61-.31-.53-.61-1.05-.9-1.53-.28-.48-.93-.43-1.22,0,0,.01-.02.02-.02.03-.08-.45-.22-1.03-.24-1.11-.55-1.62-1.53-3.24-1.8-2.54.32,1.09.97,3.67,1.21,4.92-1.02,1.61-2.08,3.56-2.27,5.37-.26-.14-.52-.26-.8-.33-.35-.09-.34.41-.49.72-.82,1.75-2.01,3.71-2.62,5.83,1.08-1.95,2.8-4.3,3.3-5.68,1.19.92,1.95,2.08,2.5,3.23.74,1.56.85,3.5.65,5.47-.36,1.06-.54,2.19-.39,3.44.31,2.59,2.07,5.47,4.54,6.47.59.24.38-.23.07-.62-1.62-1.99-3.45-3.52-3.52-6.37-.07-2.57,1.56-5.56,3.11-7.57,1.86,1.4,2.9,2.98,3.59,4.15-.52-1.76-1.47-3.06-2.43-4.13.99-2.64-.04-5.59-1.4-8.2ZM73.19,29.46c-.15-2.21-1.19-4.77-2.75-6.19.04-1.96,1.57-4.73,2.68-6.42,1.46,2.57,4.29,5.96,2.66,9.34-.19,0-.39.1-.51.27-.72,1-1.46,1.98-2.08,3Z"/>
          <path class="cls-3" d="M71.58,74.35c-.64-1.16-1.52-2.63-2.2-3.77-.25-.42-.72-.16-.95.32-.84,1.75-1.84,4.02-1.45,5.99.12.64.75.39.92-.17.25-.85.25-1.75.44-2.61.12-.52.5-2.1.69-2.58.43.76,1.3,2.5,1.74,3.25.45.77,1.24.35.81-.43Z"/>
          <path class="cls-3" d="M79.66,60.73c-.29-.73-.62-1.86-1.4-2.21-1.67-.75-2.57,2.66-2.78,3.73-.18.9.77,1.05.97.14.33-1.54,1.41-2.96,1.43-3,1.23,1.84,1.2,3.69,1.56,4.27.25.39.54.49.66.03.26-.94-.09-2.09-.44-2.97Z"/>
          <path class="cls-3" d="M75.58,50.45c-.24-.81-1.3-4.42-2.71-3.03-.58.58-.93,1.58-1.23,2.33-.39.98-.77,2.05-.71,3.11.03.55.59.38.78-.1.51-1.29,1-3.3,1.69-4.63.36.26,1.07,2.05,1.31,2.64.25.62,1.06.32.87-.31Z"/>
          <path class="cls-1" d="M77.2,37.98c.46-2.19.47-4.98-.42-7.07-.14-.34-.68-.16-.67.18.04,1.13.29,2.24.33,3.37.04,1.14-.06,2.26-.13,3.4-.03.5.78.62.89.12h0Z"/>
          <path class="cls-1" d="M70.32,34.51c-.14-1.27-.61-2.58-1.07-3.76-.14-.37-.74-.35-.74.1.02,1.3.34,2.78,1.14,3.84.18.25.71.21.66-.18h0Z"/>
          <path class="cls-1" d="M74.32,25.42c.07-.71.11-1.38-.14-2.05-.15-.41-.69-.32-.74.1-.07.65,0,1.29-.03,1.95-.02.59.84.57.9,0h0Z"/>
          <path class="cls-1" d="M78.48,21.74c0-.61.12-1.38-.16-1.94-.13-.26-.55-.26-.68,0-.29.55-.16,1.33-.16,1.94,0,.64,1,.64,1,0h0Z"/>
          <path class="cls-1" d="M70.07,18.94c-.02-.11,0,.07,0-.03,0-.05,0-.1,0-.15,0-.01,0-.14,0-.09,0,.04.02-.09.02-.1.05-.17-.03-.38-.19-.47-.15-.08-.39-.08-.5.06-.21.27-.35.56-.31.91.03.3.25.54.57.5s.48-.33.42-.63h0Z"/>
          <path class="cls-1" d="M74.41,12.28l-.24-.49c-.1-.2-.36-.26-.55-.18s-.32.31-.25.52l.17.52c.09.27.38.42.64.31s.35-.42.23-.68h0Z"/>
        </g>
      </g>
      <rect class="cls-2" width="100" height="100"/>
    </g>
  </g>
</svg>