<?xml version="1.0" encoding="UTF-8"?>
<svg id="Capa_2" data-name="Capa 2" xmlns="http://www.w3.org/2000/svg" viewBox="0 0 100 100">
  <defs>
    <style>
      .cls-1 {
        fill: #72ab4c;
      }

      .cls-2 {
        fill: #ae4166;
      }

      .cls-3 {
        fill: none;
      }

      .cls-4 {
        fill: #4a2d2d;
      }
    </style>
  </defs>
  <g id="COLOR">
    <g>
      <g>
        <path class="cls-2" d="M48.11,32.38s.18,5.32-.36,5.95-19.73,6.4-21.53,18.56,9.91,14.78,15.59,17.57,6.76,4.5,7.03,7.3c.27,2.79-1.44,5.14-.81,9.19.63,4.05.81,6.4,2.34,6.4s.63-5.59.63-7.21,1.71-3.51,1.8-5.23-1.17-3.69.72-5.32c1.35-1.16,15.77-7.3,21.08-16.76,5.32-9.46-1.08-15.77-7.48-19.73-7.67-4.75-13.6-4.41-13.6-5.41s.36-4.23.36-4.23c0,0-5.23-2.25-5.77-1.08Z"/>
        <path class="cls-1" d="M51.33,35.33c-1.22-.34-2.23-11.28-.68-14.12,1.55-2.84,3.65-2.3,4.46-4.59.81-2.3-1.01-10.2,2.77-12.16,3.78-1.96,5.14,2.37,7.7,2.37s4.97-2.59,7.1-.81c2.91,2.43-.61,6.82-1.76,9.39-.99,2.21,1.49,5.47.07,8.04s-6.96.74-6.96,2.23,2.5,3.24,1.49,5.81c-.87,2.2-12.5,4.32-14.19,3.85Z"/>
        <path class="cls-1" d="M51.2,33.84c-.07-.27-1.69-4.73-2.84-7.03s-1.15-7.57-1.22-10.2c-.07-2.64-2.3-3.92-3.85-4.46s-2.03-6.15-4.59-8.18c-2.57-2.03-6.82-1.49-8.85,1.55-2.03,3.04-.79,6.25,1.96,8.04,1.35.88-5.2,2.77-3.58,6.96,1.62,4.19,8.31,4.32,7.84,5s-4.05,4.87.14,7.5,10.85.79,11.96,1.28c1.69.74,2.23,2.23,2.91,1.76s.14-2.23.14-2.23Z"/>
        <path class="cls-4" d="M67.35,19.58c-2.75,1.2-5.74,1.25-8.52,2.32.12-.28.25-.56.41-.83,1.05-1.87,2.59-3.31,3.86-5.01.48-.64-.52-1.32-1.07-.82-.78.71-1.52,1.53-2.2,2.39-.52-1.72-.92-3.14-.02-4.95.51-1.03.53-1.91.19-3.02-.08-.27-.55-.24-.51.07.12,1.13,0,1.95-.44,2.98-.24.54-.46,1.03-.53,1.62-.19,1.42.17,2.81.71,4.11-.38.53-.73,1.07-1.05,1.61-1.07,1.84-1.4,4.05-2.69,5.73-.29-.72-.4-1.45-.59-2.23-.07-.31-.55-.3-.62,0-.24.99.09,2.06.58,2.95-1.28,1.31-2.5,2.33-3.27,4.09-.6,1.37-1.01,2.87-1.18,4.37-.99-1.32-2.12-2.54-3.01-3.93-1.33-2.06-1.57-4.27-2.38-6.51-.55-1.5-1.45-2.86-2.36-4.18.19-1.25.31-2.54.41-3.8.09-1.14.05-2.23-.54-3.23-.19-.31-.72-.11-.6.25.65,1.94.29,3.84.05,5.79,0,0-.01-.02-.02-.03-1.22-1.77-2.45-3.81-4.08-5.23-.45-.4-1.06.09-.81.63.88,1.91,2.17,3.6,3.44,5.29-.32-.07-.65-.1-1-.12-1.11-.05-2.22.14-3.32-.1-.89-.19-1.67-.64-2.51-.96-.32-.12-.54.33-.32.55.84.83,2.03,1.24,3.19,1.41,1.7.25,3.6-.33,5.06.71,1.17,1.63,2.21,3.32,2.78,5.28.24.83.53,1.65.88,2.46-1.8-.91-4.22-.72-6.14-.71-.55,0-.53.8,0,.84,1.15.1,2.38.03,3.55.12,1,.08,2.17.17,2.96.89.99.89,1.46,2.39,2.26,3.44.75.98,1.59,1.9,2.52,2.7.06.05.13.08.19.09.26.1.6.01.71-.31.63-1.97.78-4.08,1.84-5.91.11-.2.24-.38.37-.56.04,0,.08-.02.13-.04,2.57-1.42,4.93-.64,7.63-.97.32-.04.42-.48.08-.58-1.96-.63-4.42-.53-6.5.15.76-.71,1.55-1.4,2.15-2.28.72-1.06,1.08-2.31,1.54-3.51.07.04.15.05.25.01,2.88-.98,6.33-.7,8.91-2.46.37-.26.05-.77-.35-.6Z"/>
        <path class="cls-4" d="M34.93,51.67c3.2,1.29,6.79,1.96,10.21,2.34,3.04.34,6.78.56,9.6-.84.44-.22.22-.93-.25-.92-3.16.06-6.15.67-9.35.38-3.39-.31-6.63-1.29-9.99-1.78-.54-.08-.73.61-.22.81h0Z"/>
        <path class="cls-4" d="M56.56,52.86c.33-.06.74-.11,1.02-.31.32-.23.27-.7-.11-.83-.33-.11-.73-.05-1.07-.02s-.63.29-.58.66.38.55.73.49h0Z"/>
        <path class="cls-4" d="M64.76,52.17l.5-.22c.18-.08.32-.2.48-.32.13-.11.14-.34.06-.48-.1-.16-.27-.21-.44-.18s-.33.05-.5.12l-.48.19c-.27.11-.44.36-.31.65s.42.35.69.23h0Z"/>
        <path class="cls-4" d="M48.16,58.85c1.8.19,3.76.3,5.51-.25.41-.13.35-.76-.1-.76-1.82,0-3.58.21-5.4.04-.62-.06-.61.9,0,.97h0Z"/>
        <path class="cls-4" d="M59.51,58.15c3.07-.09,6.99-.54,9.49-2.47.33-.25.16-.81-.3-.7-1.45.34-2.81,1.05-4.25,1.45-1.62.45-3.27.71-4.95.83-.56.04-.58.91,0,.89h0Z"/>
        <path class="cls-4" d="M40.18,64.23c.72.05,1.56.23,2.23-.09.29-.14.23-.54,0-.69-.61-.4-1.53-.31-2.23-.36s-.73,1.09,0,1.14h0Z"/>
        <path class="cls-4" d="M62.08,69.57c.67,0,.67-1.04,0-1.04s-.67,1.04,0,1.04h0Z"/>
        <path class="cls-4" d="M32.88,58.57c1.11.09,2.24.24,3.35.09.41-.06.33-.65,0-.76-1.07-.34-2.24-.36-3.35-.46-.72-.06-.72,1.07,0,1.13h0Z"/>
        <path class="cls-4" d="M47.33,66.21c3.5.44,7,.4,10.48-.13s7.02-1.23,10.02-2.88c.32-.18.1-.66-.24-.57-3.47.84-6.7,2.04-10.28,2.45-3.31.38-6.65.39-9.97.16-.64-.05-.61.9,0,.98h0Z"/>
      </g>
      <rect class="cls-3" width="100" height="100"/>
    </g>
  </g>
</svg>