<?xml version="1.0" encoding="UTF-8"?>
<svg id="Capa_2" data-name="Capa 2" xmlns="http://www.w3.org/2000/svg" viewBox="0 0 100 100">
  <defs>
    <style>
      .cls-1 {
        fill: #fff;
      }

      .cls-2 {
        fill: none;
      }

      .cls-3 {
        fill: #6a8c2a;
      }

      .cls-4 {
        fill: #4a2d2d;
      }

      .cls-5 {
        fill: #f4f5d8;
      }
    </style>
  </defs>
  <g id="COLOR">
    <g>
      <g>
        <g>
          <path class="cls-3" d="M90.52,43.22c-.61-3.67-.79-7.77-.17-12.75.61-4.98.17-8.82-3.67-10.39-3.84-1.57-5.59,0-8.82,1.75-3.23,1.75-3.84.87-9.08,3.14-.66.28-1.25.74-1.78,1.26-1.56-2.99-3.65-4.3-4.77-5.8-1.31-1.75-.26-9.08-2.62-13.01s-6.2-4.1-10.13-2.62-3.41,4.63-5.41,6.64c-2.01,2.01-4.28,2.1-5.5,4.72-1.22,2.62-.09,6.72.7,11.18.3,1.69.12,3.26-.22,4.55-1.47-2.17-2.36-4.88-3.01-8.13-.79-3.93-5.59-10.74-13.54-9.17-7.95,1.57-12.49,9.34-10.13,19.56,2.36,10.22,12.05,13.71,12.49,16.07s-1.66,6.72.26,10.04c1.92,3.32,6.64,3.93,9,7.42,2.36,3.49,1.83,10.48,1.83,10.48l10.19-2.45c1.44,1.86,2.95,3.3,4.31,3.76,2.12.72,4.48.34,6.62-.74,2.1,1.97,5.03,3.42,8.32,3.8,5.33.61,10.22-3.58,10.39-5.15.17-1.57-3.41-6.9-2.53-11.35.87-4.45,3.23-8.03,8.65-11.96,5.41-3.93,9.26-7.16,8.65-10.83Z"/>
          <path class="cls-1" d="M35.26,51.48c1.21-2.61,1.68-5.86,2.29-8.67.5-2.28.92-4.78-.13-6.96-.18-.37-.68-.09-.62.26.49,2.88.16,5.33-.52,8.15-.55,2.29-1.43,4.72-1.53,7.08-.01.26.39.39.51.14h0Z"/>
          <path class="cls-1" d="M31.83,40.87c-2.19-.83-4.39-1.64-6.56-2.52s-4.82-1.51-5.97-3.62c-.18-.33-.66-.1-.58.25.45,2.07,2.73,2.81,4.48,3.54,2.76,1.16,5.57,2.21,8.44,3.08.48.14.65-.56.2-.73h0Z"/>
          <path class="cls-1" d="M29.76,35.03c.72-2.87.83-6-.28-8.79-.15-.39-.69-.24-.62.17.44,2.88.68,5.51.12,8.4-.1.51.66.73.79.22h0Z"/>
          <path class="cls-1" d="M54.04,51.01c3.34-4.4,7.84-10.33,6.6-16.24-.08-.39-.64-.27-.66.09-.21,3.22-.83,6-2.35,8.87-1.26,2.39-2.84,4.59-4.23,6.9-.26.43.37.76.65.38h0Z"/>
          <path class="cls-1" d="M52.1,39.65c-1.97-1.83-3.87-3.55-5.37-5.82s-2.41-4.67-3.27-7.23c-.1-.3-.63-.27-.59.08.66,5.2,4.22,10.91,8.83,13.5.33.18.7-.26.41-.53h0Z"/>
          <path class="cls-1" d="M52.67,28c1.34-1.7,2.6-3.54,3.45-5.54.13-.31-.26-.56-.46-.27-1.2,1.78-2.31,3.62-3.55,5.38-.23.32.31.75.56.43h0Z"/>
          <path class="cls-1" d="M69.01,60.81c-.79-2.11-1.57-4.18-2.03-6.4-.45-2.21-.44-4.45-.81-6.65-.05-.32-.61-.33-.66,0-.61,4.31.83,9.53,2.83,13.33.19.36.82.11.67-.28h0Z"/>
          <path class="cls-1" d="M75.48,44.61c-.46-2.47-1.03-4.88-1.11-7.41-.07-2.35.27-4.66.31-7,0-.35-.52-.42-.6-.08-1.21,4.63-.98,10.21.73,14.68.16.42.76.26.68-.19h0Z"/>
          <path class="cls-1" d="M72.28,54.07c4.47-2.29,9.52-5.54,12.29-9.85.21-.32-.24-.62-.5-.39-1.88,1.64-3.58,3.46-5.53,5.02-2.1,1.67-4.36,3.15-6.69,4.47-.49.27-.06.99.43.74h0Z"/>
          <path class="cls-5" d="M61.59,67.85c-5.48-6.36-7.58-14.98-8.16-23.15-.58-8.19-.47-16.41-1-24.6-.03-.46-.67-.51-.78-.14-.05.06-.08.14-.09.24-.57,8.31-.02,16.61-.28,24.92-.12,3.97-.55,7.95-1.6,11.8-1.07,3.9-2.85,7.24-5.08,10.57-.25.37.32.81.62.48.06-.06.11-.13.17-.2,1.09,1.96,7.17,12.65,10.03,12.57,3.14-.09.87-3.49.87-3.49,0,0,2.1-3.93,3.14-5.5,1.05-1.57,1.14-1.83,1.14-1.83l.69-.95c.32.03.61-.39.34-.71Z"/>
          <path class="cls-5" d="M82.84,30.26c-.19-.21-.56-.26-.77.05-4.91,7.28-8.44,15.74-11.54,23.92-1.68,4.43-3,9.04-5.2,13.25-2.13,4.09-5.06,7.31-9,9.72-.16.1-.15.31-.05.43-.28.18-.53.34-.77.49-1.35-1.19-3.03-2.52-4.79-3.93.51.09.62-.67.23-.92-3.61-2.31-6.6-4.47-9.09-8.04-2.54-3.64-4.35-7.71-6.01-11.81-1.7-7.79-4.31-15.99-8.67-22.67-.3-.46-.95-.06-.72.42,3.3,7.21,6.45,14.17,8.14,21.98.78,3.62,1.09,7.31,1.55,10.98.28,2.25.19,4.55-.36,6.76-.57,2.31-1.76,4.38-2.62,6.58-1,2.58-2.23,5.12-2.59,7.9-.58,4.47,1.64,8.1,5.74,9.88,3.15,1.37,6.87,1.63,10.26,1.84,2.46.16,5.11.32,7.7.19,4.01.09,8.06-.37,11.73-2.04,4.18-1.9,7.84-5.36,9.66-9.6,1.16-2.72,1.65-5.73.35-8.49-.61-1.29-1.52-2.35-2.26-3.55-.72-1.16-1.27-2.45-1.79-3.71-.7-1.7-1.17-3.59-1.32-5.42-.34-4.07,1.01-8.11,2.27-11.92,1.5-4.53,3.28-8.96,5.37-13.25,1.26-2.4,2.59-4.77,3.88-7.16.28-.46.55-.93.84-1.39.14-.22.02-.42-.16-.5Z"/>
        </g>
        <path class="cls-4" d="M35.57,69.4c-.23,2.44-1.49,4.98-2.48,7.18-.26.57.52,1.06.85.5,1.47-2.52,2.52-4.72,2.51-7.68,0-.57-.83-.55-.88,0h0Z"/>
        <g>
          <path class="cls-4" d="M52.97,95.89c-4.9-.38-10.29-.27-15.04-1.64-2.33-.67-4.52-1.99-5.64-4.23-1.34-2.68-.93-6.11-.03-8.87.15-.47-.59-.79-.8-.34-2.35,5-1.93,11.16,3.42,14.04,2.33,1.26,5,1.73,7.6,2.07,3.57.47,6.94.53,10.5.13.74-.08.76-1.11,0-1.17Z"/>
          <path class="cls-4" d="M76.72,77.92c-.38-1.46-1.06-2.68-1.55-4.11-.55-1.63-1.36-3.26-1.64-4.95-.13-.81-.63-.65-.71.03-.27,2.41.86,4.75,1.53,7.02.82,2.78,1.4,5.47.48,8.31-1.4,4.3-4.87,7.57-8.79,9.75-1.44-5.48-4.13-10.22-7.93-14.47-.53-.59-1.09-1.16-1.67-1.71,2.78-3.57,6.05-6.84,6.65-11.52.28-2.17.3-4.47.13-6.66-.19-2.38-1.15-4.46-1.71-6.74-.7-2.85.53-4.59,1.75-6.99.95-1.87,1.16-3.69.93-5.76-.32-2.85-.75-5.44.17-8.24.86-2.63,2.27-5.1,4.67-6.46.8-.45.28-1.05-.53-.68-3.79,1.74-5.39,5.82-5.72,9.73-.22,2.63.34,5.22.16,7.82-.18,2.57-2.13,4.2-2.96,6.51-.74,2.06-.24,4.14.4,6.16.82,2.56,1.2,4.92,1.2,7.62,0,2.76-.19,5.44-1.65,7.86-1.34,2.22-3.03,4.28-4.6,6.34-3.35-3.02-7.1-5.74-9.43-9.6-3.48-5.76-2.26-13.33-1.78-19.69.24-3.17.74-6.48-.38-9.54-.9-2.47-2.62-4.84-4.5-6.67-.42-.41-1.19.13-.84.65,1.93,2.86,4.32,5.24,4.66,8.87.3,3.21-.53,6.54-.78,9.74-.44,5.63-.86,12.11,2.1,17.17,2.74,4.69,7.52,7.73,11.22,11.58,4.12,4.29,7.64,9.49,9.54,15.17-.7.35-1.4.67-2.11.95-.67.27-.43,1.32.31,1.11,5.44-1.5,10.43-5.53,12.7-10.75,1.1-2.53,1.38-5.18.69-7.85Z"/>
        </g>
      </g>
      <rect class="cls-2" width="100" height="100"/>
    </g>
  </g>
</svg>