<?xml version="1.0" encoding="UTF-8"?>
<svg id="Capa_2" data-name="Capa 2" xmlns="http://www.w3.org/2000/svg" viewBox="0 0 100 100">
  <defs>
    <style>
      .cls-1 {
        fill: #fff;
      }

      .cls-2 {
        fill: none;
      }

      .cls-3 {
        fill: #4a2d2d;
      }

      .cls-4 {
        fill: #9bb533;
      }

      .cls-5 {
        fill: #c0c728;
      }
    </style>
  </defs>
  <g id="COLOR">
    <g>
      <g>
        <path class="cls-5" d="M44.76,62.8s3.49,4.19,5.5,7.34,2.36,6.46,2.36,6.46c0,0,.79-3.49,3.06-7.25s3.23-5.85,3.23-5.85c0,0,9.09,1.14,8.82,1.31s-2.88,7.25-4.02,14.33c-1.14,7.08-.35,11.88-.87,12.84s-17.04.87-17.91.26-.17-9.52-2.8-15.55-8.82-15.29-8.3-16.51,10.92,2.62,10.92,2.62Z"/>
        <path class="cls-4" d="M55.68,22.17s7.25-11.09,15.11-8.47c8.16,2.72,5.42,14.68,5.42,14.68,0,0,6.81-3.17,9.96,1.75,3.58,5.59-3.58,9.52-3.58,9.52,0,0,10.83-2.01,12.06,7.51,1.01,7.9-10.31,9-10.31,9,0,0,6.08,7.7-.52,12.49-8.3,6.03-13.54-2.97-13.54-2.97,0,0-3.14,5.42-10.05,3.76-6.9-1.66-10.75-11.44-12.49-16.77s7.95-30.49,7.95-30.49Z"/>
        <path class="cls-4" d="M74.37,37.48c-.77-3.18-3.76-5.09-8.39-5.61,2.03-2.6,3.84-7.06,1.54-9.67-2.01-2.28-5.84-.82-7.75,1.11-1.01-6.13-7.54-11.92-13.73-11.19-6.58.77-10.71,7.64-10.82,13.99-3.7-2.3-8.94-3.53-12.74-1.11-3.33,2.13-4.79,7.72-3.51,11.68-4.52-.05-9.88,2.17-10.53,6.98-.51,3.8,3.49,6.8,6.86,7.61-2.69,2.1-5.52,6.03-4.16,9.49,1.61,4.1,7.22,4.48,11.06,2.83.06,3.57,1.4,8.72,5.16,9.09,2.07.2,3.84-.29,5.45-2.49,1.53-2.1.84-4.65,1.09-6.51,2.68,3.05,8.11,5.4,11.78,3.7,3.26-1.51,5.21-7.22,4.73-11.04,3.32,1.9,8.44,3.82,11.65,1.48,3.23-2.34,3.98-6.81,1.97-10.92,5.24.79,11.58-4.2,10.31-9.42Z"/>
        <path class="cls-1" d="M29.33,38.66c-2.2-.72-4.77.12-5.88,2.22-.92,1.72-.78,4.94,1.24,5.86.33.15.69-.16.51-.51-.82-1.55-1.85-2.88-.96-4.73.87-1.81,2.98-2.5,4.83-1.89.6.2.86-.75.26-.94h0Z"/>
        <path class="cls-1" d="M29.25,57.58c-.62-1.1-.14-2.11.59-2.99.3-.36-.07-.82-.48-.63-1.46.66-1.57,2.82-.76,4,.27.4.9.05.66-.38h0Z"/>
        <path class="cls-1" d="M43.57,40.1c.12-.84,1.07-1.02,1.75-.86s.74.37,1.37.63c.39.16.75-.33.49-.66-.72-.88-1.55-1.23-2.72-1.05-.98.15-1.77.84-1.9,1.83-.08.65.92.76,1.02.11h0Z"/>
        <path class="cls-1" d="M46.76,28.9c2.18-2.28,4.95-1.21,6.46,1.13.22.35.75.13.66-.28-.8-3.62-5.54-3.92-7.73-1.47-.37.41.23,1.02.61.61h0Z"/>
        <path class="cls-1" d="M71.4,56.89c1.73-1.02,3.37.22,4.42,1.71.22.32.62-.04.56-.36-.47-2.58-3.56-3.14-5.38-2.1-.45.26-.05,1.01.39.74h0Z"/>
        <path class="cls-1" d="M80.57,45.17c.63.02,1.17.35,1.53.86.34.48.42,1.02.54,1.58.08.39.59.3.71,0,.68-1.68-1.3-3.23-2.79-3.31-.56-.03-.56.85,0,.87h0Z"/>
        <path class="cls-1" d="M46.52,53.19c.51-1.01,1.76-.99,2.43-.18.26.31.72-.09.54-.42-.88-1.62-3-1.44-3.87.07-.34.58.6,1.12.9.52h0Z"/>
        <g>
          <path class="cls-3" d="M59.18,23.63c.06.4.6.46.85.22,1.7-1.66,5.92-3.46,7.52-.6,1.28,2.27-.21,5.12-1.15,7.17-.17.36.24.76.6.46,2.37-2.01,4.12-6.65,1.42-9.35-2.19-2.19-6.4-1.19-8.41.98-.38-1.96-1.11-3.83-2.31-5.45-.29-.39-.89-.06-.66.38,1.05,1.99,1.82,3.95,2.13,6.18Z"/>
          <path class="cls-3" d="M66.49,31.64s.02-.09.04-.13c.09-.33-.36-.51-.54-.23-.11.17-.22.34-.32.52-.13.2,0,.51.23.57,3.79.86,8.5,3.32,7.48,8.02-.86,3.98-5.04,5.59-8.62,6.14-.41.06-.52.58-.36.89,1.75,3.49.78,7.78-2.73,9.76-3.24,1.82-7.81.53-10.97-.96-.48-.23-1.04.15-.91.7.59,2.43.18,4.99-1.32,7.02-1.02,1.38-2.26,2.13-3.68,2.74-1.22.42-2.54.55-3.86.39-2.46-.29-5.57-1.5-6.74-3.83-.27-.53-1.19-.16-.98.41,2.14,5.72,10.33,6.83,14.77,3.39,3.78-2.93,3.72-8.88,3.21-9.13,3.51,2.16,8.75,2.99,12.04.59,3.28-2.38,4.58-7.4,2.56-10.91,4.09-.74,8.67-2.33,9.43-7.48.7-4.77-4.41-8.1-8.72-8.47Z"/>
        </g>
        <path class="cls-3" d="M53.91,65.94c2.42,2.66,5.25,4.86,9,4.73,3.01-.11,6.25-1.97,7.88-4.58.29-.47-.38-.99-.77-.59-2.05,2.13-4.35,3.54-7.42,3.47-2.91-.06-6.07-1.55-7.92-3.8-.44-.54-1.25.25-.77.77h0Z"/>
      </g>
      <rect class="cls-2" width="100" height="100"/>
    </g>
  </g>
</svg>