<?xml version="1.0" encoding="UTF-8"?>
<svg id="Capa_2" data-name="Capa 2" xmlns="http://www.w3.org/2000/svg" viewBox="0 0 100 100">
  <defs>
    <style>
      .cls-1 {
        fill: #fff;
      }

      .cls-2 {
        fill: none;
      }

      .cls-3 {
        fill: #4a2d2d;
      }

      .cls-4 {
        fill: #9bb533;
      }
    </style>
  </defs>
  <g id="COLOR">
    <g>
      <g>
        <g>
          <path class="cls-4" d="M29.68,12.1s3.27-4.5,10.35-4.68c7.09-.18,11.09,3.7,11.95,4.5s1.23,1.66,1.23,1.66c0,0,2.71-1.17,5.61,2.65,2.9,3.82,4.26,16.56-.18,21.81-6.04,7.15-13.18,7.64-13.18,7.64,0,0,.31,4.56-6.16,4.44s-5.36-3.45-5.36-3.45c0,0-10.23-2.34-13.68-11.46-3.45-9.12.99-17.37,2.65-19.65,1.66-2.28,3.88-3.76,4.81-3.82s1.97.37,1.97.37Z"/>
          <path class="cls-1" d="M52.08,25.49c-.16-.6-.35-1.22-.73-1.72-.17-.23-.59-.11-.5.21.18.57.44,1.11.61,1.68.12.39.72.23.61-.17h0Z"/>
          <path class="cls-1" d="M56.97,26.64c.17-.19.37-.38.48-.61.16-.31-.16-.63-.47-.47-.23.11-.42.31-.6.48-.16.15-.16.45,0,.59s.44.17.59,0h0Z"/>
          <g>
            <path class="cls-3" d="M41.58,27.28c-.45-1.95.45-4.02-.39-5.91,1.36-1.11,2.5-1.53,4.27-1.67.91-.07,1.92.04,2.7-.53.67-.49,1.04-1.39,1.56-2.01,1-1.2,2.13-2.05,3.63-2.52.66-.21.39-1.18-.29-1.04-1.15.24-2.13.82-3.01,1.6-1.03.93-1.66,2.39-2.92,2.93-2.15.93-4.97.23-6.53,2.32-.68-.81-1.65-1.34-2.65-1.7-1.16-.42-2.65-.48-3.7-1.13-1.05-.65-1.25-1.87-1.7-2.91-.65-1.49-1.71-2.63-3.29-3.12-.53-.17-.85.61-.38.89,1.86,1.1,2.33,2.41,3.19,4.28.48,1.05,1.12,1.71,2.21,2.14,1.93.77,4.4.7,5.57,2.68,1,1.69.13,3.73.37,5.58.4,3.14,3.31,5.16,3.68,8.38.51,4.47-2.17,7.77-5.67,10.1-.65.43-.09,1.38.61,1.04,3.26-1.61,5.9-4.95,6.45-8.56.28-1.83.08-3.73-.67-5.43-.83-1.88-2.59-3.41-3.06-5.43Z"/>
            <path class="cls-3" d="M32.47,39.61c-1.12-1.66-1.89-3.48-2.37-5.43-.25-1.02-.44-2.04-.6-3.06.07.03.16.03.23-.05,2.33-2.44,5.38-5.84,4.67-9.52-.07-.37-.58-.24-.61.08-.17,1.8-.38,3.3-1.29,4.89-.85,1.5-1.98,2.82-3.07,4.15-.47-3.44-.42-6.88-.06-10.39.06-.6-.87-.59-.93,0-.56,5.06-.94,10.47.86,15.33,1.2,3.25,3.32,8.05,6.85,9.32.5.18.73-.47.46-.8-1.28-1.62-2.97-2.77-4.16-4.52Z"/>
            <path class="cls-3" d="M57.39,29.04c-.87,1.07-1.52,2.27-2.47,3.29-.91.97-1.94,1.81-3.07,2.5.13-.29.29-.57.41-.86,1.3-3.15,2.53-7.26,1.94-10.7-.07-.41-.77-.41-.84,0-.28,1.65-.25,3.34-.54,5-.29,1.66-.76,3.29-1.36,4.86-.61,1.57-1.38,3.09-2.27,4.53,1.05-3.88.56-8.33-1.24-11.88-.16-.32-.68-.1-.58.25,1.28,4.53,2.28,8.64.66,13.26-.01.04,0,.06,0,.09-.76,1.05-1.59,2.06-2.48,3-.36.38.19.93.57.57,2.21-2.11,3.97-4.54,5.32-7.24.02,0,.04,0,.06,0,2.56-1.26,5.43-3.58,6.37-6.39.09-.25-.29-.49-.47-.27Z"/>
            <path class="cls-3" d="M25.92,33.61c-1.1-1.24-1.94-2.77-2.52-4.32-.14-.36-.7-.23-.59.16.78,2.93,3.11,6.46,6.15,7.43.3.1.58-.34.32-.55-1.12-.93-2.37-1.62-3.35-2.72Z"/>
            <path class="cls-3" d="M33.66,40.53c2.13-2.69,6.67-6.16,5.14-10.14-.11-.28-.58-.27-.56.08.19,4.24-2.69,6.58-5,9.74-.18.24.23.56.42.32Z"/>
          </g>
          <path class="cls-1" d="M34.98,31.55c.39-.4.94-1.06.78-1.66-.06-.24-.36-.3-.53-.14-.18.17-.27.43-.37.64s-.23.45-.39.65c-.28.36.18.85.51.51h0Z"/>
          <path class="cls-1" d="M26.07,24.72c-.2-.21-.38-.43-.55-.66s-.35-.5-.61-.64c-.22-.12-.54.03-.52.3.03.64.64,1.19,1.08,1.61.4.38.99-.2.61-.61h0Z"/>
          <path class="cls-1" d="M29.01,39.81c-.1-.05-.21-.1-.31-.16-.13-.06-.24-.09-.38-.11-.12-.02-.25,0-.33.11-.07.09-.1.25-.02.35.03.04.06.08.09.12.07.09.13.14.22.21.1.07.2.15.3.22.18.13.48.04.58-.15s.06-.48-.15-.58h0Z"/>
          <path class="cls-1" d="M36.44,13.54c.2-.31.41-.61.66-.89s.5-.51.7-.81-.18-.59-.46-.46c-.69.34-1.21,1.11-1.61,1.74-.28.45.43.86.71.41h0Z"/>
          <path class="cls-1" d="M45.42,15.06c.02-.45,0-.98-.3-1.33-.18-.21-.63-.12-.67.18-.06.38.06.77.05,1.15,0,.25.22.46.46.46.26,0,.45-.21.46-.46h0Z"/>
          <path class="cls-1" d="M49.31,13.59c-.14-.43-.35-.92-.76-1.15-.27-.15-.7.11-.57.44.15.37.41.66.57,1.03.08.19.35.24.52.17.18-.08.31-.29.24-.49h0Z"/>
        </g>
        <g>
          <path class="cls-4" d="M14.37,62.52s1.36-5.39,7.87-8.19c6.51-2.8,11.67-.69,12.77-.27s1.76,1.09,1.76,1.09c0,0,2.08-2.09,6.19.38s10.1,13.79,7.93,20.32c-2.95,8.88-9.4,11.99-9.4,11.99,0,0,1.98,4.12-4.07,6.41-6.05,2.29-6.26-1.21-6.26-1.21,0,0-10.37,1.63-16.96-5.56-6.59-7.18-5.54-16.5-4.84-19.23.7-2.73,2.21-4.93,3.04-5.33s1.97-.39,1.97-.39Z"/>
          <path class="cls-1" d="M40.14,66.63c-.37-.5-.78-1-1.31-1.33-.24-.15-.59.12-.38.38.38.46.82.86,1.19,1.33.25.32.76-.06.51-.39h0Z"/>
          <path class="cls-1" d="M45.11,65.87c.09-.24.2-.49.22-.74.03-.35-.38-.52-.61-.26-.17.19-.27.45-.38.67-.1.2.02.47.22.55s.47,0,.55-.22h0Z"/>
          <g>
            <path class="cls-3" d="M35.92,76.1c-1.46-1.44-3.67-2.2-4.86-3.91-1.15-1.64-1.08-3.9-2.56-5.35.85-1.54,1.76-2.35,3.35-3.14.82-.41,1.8-.68,2.31-1.5.44-.7.45-1.67.7-2.45.48-1.49,1.21-2.69,2.44-3.69.54-.44-.08-1.24-.65-.86-.98.65-1.68,1.55-2.2,2.61-.61,1.24-.65,2.83-1.62,3.81-1.65,1.66-4.49,2.09-5.17,4.6-.94-.51-2.05-.65-3.13-.61-1.23.04-2.64.54-3.86.33-1.21-.21-1.86-1.27-2.66-2.06-1.16-1.14-2.56-1.81-4.21-1.67-.56.05-.56.88-.02.97,2.14.33,3.06,1.37,4.56,2.79.84.8,1.67,1.17,2.85,1.17,2.08,0,4.34-.99,6.17.42,1.56,1.2,1.51,3.41,2.42,5.05,1.54,2.77,4.99,3.56,6.53,6.41,2.14,3.96.88,8.02-1.51,11.48-.44.64.43,1.32.95.74,2.43-2.7,3.64-6.78,2.81-10.34-.42-1.8-1.32-3.49-2.64-4.79Z"/>
            <path class="cls-3" d="M27.18,87.02c-1.66-1.12-3.05-2.53-4.21-4.16-.61-.85-1.17-1.73-1.69-2.62.08,0,.15-.03.2-.13,1.26-3.13,2.82-7.42.8-10.58-.2-.32-.63,0-.54.3.51,1.74.87,3.2.62,5.02-.23,1.7-.79,3.36-1.31,4.99-1.71-3.02-2.95-6.23-3.91-9.63-.16-.58-1.03-.23-.87.35,1.36,4.91,3.02,10.06,6.5,13.91,2.32,2.57,6.07,6.24,9.83,6.11.53-.02.5-.7.13-.91-1.79-1.03-3.79-1.47-5.54-2.65Z"/>
            <path class="cls-3" d="M46.93,68.02c-.02-.27-.45-.35-.53-.08-.41,1.32-.57,2.68-1.07,3.97-.48,1.23-1.12,2.38-1.9,3.43.01-.31.03-.61.03-.92.03-3.41-.35-7.68-2.18-10.65-.22-.36-.87-.1-.78.31.35,1.64,1.01,3.19,1.36,4.84.34,1.65.52,3.34.54,5.02.02,1.69-.13,3.38-.43,5.05-.47-3.99-2.57-7.95-5.56-10.57-.27-.24-.67.16-.45.44,2.87,3.73,5.32,7.17,5.54,12.07,0,.04.03.06.04.08-.32,1.26-.72,2.5-1.19,3.71-.19.48.52.79.74.32,1.27-2.79,2.02-5.69,2.27-8.71.01,0,.02,0,.03-.02,1.91-2.12,3.71-5.34,3.54-8.3Z"/>
            <path class="cls-3" d="M23,85.17c-1.38-.45-2.8-.62-4.13-1.28-1.49-.74-2.83-1.85-3.95-3.07-.26-.29-.73.05-.49.37,1.81,2.43,5.29,4.84,8.47,4.61.32-.02.41-.53.09-.63Z"/>
            <path class="cls-3" d="M28.63,87.43c.98-3.29,3.9-8.2,1-11.32-.2-.22-.64-.04-.49.28,1.75,3.87-.06,7.11-1.02,10.9-.07.29.42.44.51.15Z"/>
          </g>
          <path class="cls-1" d="M26.52,78.61c.22-.52.48-1.33.11-1.83-.15-.2-.45-.14-.55.07-.1.22-.09.49-.11.74s-.05.5-.12.74c-.13.43.48.72.67.28h0Z"/>
          <path class="cls-1" d="M15.71,75.58c-.26-.12-.51-.26-.76-.41s-.51-.33-.81-.37c-.25-.03-.49.23-.37.47.27.58,1.04.87,1.6,1.09.52.21.84-.56.34-.79h0Z"/>
          <path class="cls-1" d="M24.04,88.49c-.12,0-.23-.02-.35-.03-.14-.01-.26,0-.39.03-.12.03-.23.1-.26.23-.03.11,0,.27.11.33.04.03.09.05.13.08.1.06.17.09.28.11.12.03.24.06.36.09.22.06.46-.15.49-.36s-.12-.47-.36-.49h0Z"/>
          <path class="cls-1" d="M21.18,61.34c.07-.36.16-.72.28-1.07s.27-.66.35-1.01-.39-.48-.59-.25c-.52.57-.71,1.48-.84,2.21-.09.52.71.64.81.12h0Z"/>
          <path class="cls-1" d="M30.09,59.42c-.15-.42-.36-.91-.78-1.12-.25-.13-.63.13-.56.41.09.37.34.69.47,1.05.08.24.38.35.6.26.24-.1.34-.36.26-.6h0Z"/>
          <path class="cls-1" d="M33.15,56.61c-.29-.35-.66-.72-1.13-.78-.3-.04-.61.36-.37.62.28.29.63.46.91.74.14.14.42.1.55-.03.14-.14.18-.38.04-.54h0Z"/>
        </g>
        <g>
          <path class="cls-4" d="M69.85,38.86s4.71-2.96,11.35-.49c6.64,2.47,8.91,7.56,9.42,8.63.5,1.06.52,2,.52,2,0,0,2.95-.08,4.22,4.55s-2.22,16.95-8.3,20.17c-8.27,4.38-15.08,2.18-15.08,2.18,0,0-1.41,4.35-7.37,1.82-5.96-2.52-3.69-5.2-3.69-5.2,0,0-8.62-5.98-8.42-15.73.2-9.75,7.39-15.76,9.78-17.25,2.39-1.5,5-2.04,5.88-1.75s1.69,1.08,1.69,1.08Z"/>
          <path class="cls-1" d="M85.64,59.63c.07-.62.13-1.26-.03-1.87-.07-.28-.51-.32-.54,0-.05.59,0,1.19-.06,1.79-.04.41.59.48.63.07h0Z"/>
          <path class="cls-1" d="M89.76,62.51c.22-.11.48-.22.67-.38.26-.23.09-.64-.26-.61-.25.02-.5.14-.74.22-.21.08-.32.35-.22.55s.34.33.55.22h0Z"/>
          <g>
            <path class="cls-3" d="M91.01,48.96c-1.16-.21-2.29-.04-3.39.37-1.3.48-2.43,1.6-3.8,1.63-2.35.06-4.7-1.63-6.93-.28-.33-1.01-1.03-1.86-1.83-2.57-.92-.82-2.28-1.43-3.01-2.43-.73-.99-.46-2.2-.5-3.33-.05-1.63-.6-3.08-1.89-4.12-.43-.35-1.02.25-.68.69,1.32,1.72,1.27,3.1,1.37,5.16.06,1.16.4,2,1.25,2.81,1.5,1.44,3.82,2.28,4.17,4.57.3,1.95-1.27,3.51-1.74,5.32-.8,3.07,1.15,6.02.29,9.14-1.19,4.34-4.91,6.41-9.02,7.26-.76.16-.6,1.25.18,1.19,3.62-.27,7.32-2.39,9.17-5.54.94-1.59,1.46-3.44,1.4-5.29-.07-2.05-1.13-4.13-.81-6.18.31-1.98,1.91-3.56,1.84-5.63,1.67-.52,2.9-.49,4.59.03.87.27,1.77.75,2.71.52.8-.2,1.48-.9,2.2-1.29,1.37-.74,2.74-1.11,4.31-.99.69.05.8-.95.12-1.07Z"/>
            <path class="cls-3" d="M62.19,65.42c-.42-1.96-.45-3.94-.18-5.92.15-1.04.35-2.06.59-3.06.06.05.13.08.23.04,3.07-1.39,7.16-3.42,7.88-7.1.07-.37-.45-.44-.6-.15-.83,1.61-1.58,2.92-3.02,4.06-1.34,1.07-2.89,1.88-4.4,2.7.85-3.37,2.17-6.54,3.82-9.66.28-.53-.59-.87-.87-.35-2.41,4.49-4.77,9.36-4.91,14.55-.09,3.46.08,8.7,2.89,11.2.4.35.85-.16.73-.57-.58-1.98-1.72-3.68-2.17-5.75Z"/>
            <path class="cls-3" d="M89.26,64.9c-1.21.67-2.26,1.54-3.52,2.13-1.21.56-2.47.96-3.78,1.17.23-.22.48-.42.7-.65,2.38-2.44,5.05-5.8,5.79-9.21.09-.41-.56-.67-.78-.31-.88,1.43-1.47,3.01-2.36,4.44-.89,1.43-1.93,2.77-3.08,4.01-1.14,1.23-2.42,2.33-3.77,3.32,2.4-3.21,3.6-7.51,3.26-11.46-.03-.36-.59-.34-.63.01-.5,4.68-1.11,8.86-4.33,12.55-.01.02,0,.03-.02.05-1.11.7-2.25,1.35-3.43,1.9-.47.22-.17.93.32.74,2.84-1.14,5.37-2.73,7.64-4.74.02,0,.04.02.06.02,2.85-.22,6.37-1.3,8.29-3.56.17-.2-.09-.56-.33-.43Z"/>
            <path class="cls-3" d="M58.35,57.42c-.56-1.57-.77-3.29-.73-4.95,0-.39-.56-.47-.61-.07-.36,3.01.48,7.15,2.94,9.18.24.2.66-.1.5-.39-.69-1.28-1.6-2.38-2.1-3.78Z"/>
            <path class="cls-3" d="M62.95,66.72c2.98-1.7,8.48-3.23,8.54-7.5,0-.3-.43-.47-.55-.14-1.4,4.01-4.95,5.1-8.26,7.18-.26.16,0,.61.27.46Z"/>
          </g>
          <path class="cls-1" d="M67.52,58.88c.51-.22,1.26-.63,1.34-1.25.03-.24-.22-.41-.44-.33-.23.09-.41.3-.58.46s-.38.33-.6.45c-.39.22-.15.85.28.67h0Z"/>
          <path class="cls-1" d="M61.8,49.22c-.1-.27-.19-.54-.27-.82s-.14-.59-.33-.82c-.16-.19-.51-.17-.6.08-.21.61.15,1.35.4,1.9.23.51.99.18.79-.34h0Z"/>
          <path class="cls-1" d="M58.9,64.32c-.08-.09-.15-.17-.23-.26-.09-.1-.19-.17-.31-.25-.11-.07-.23-.09-.35-.02-.1.06-.19.19-.15.31.01.05.03.1.04.15.03.11.06.18.12.27.06.11.13.21.2.31.12.19.44.21.6.08s.23-.42.08-.6h0Z"/>
          <path class="cls-1" d="M75.58,42.71c.3-.22.61-.41.94-.58s.65-.29.95-.49.05-.62-.25-.59c-.77.06-1.53.58-2.14,1.02-.43.31.08.95.5.65h0Z"/>
          <path class="cls-1" d="M83.36,47.47c.19-.41.36-.91.22-1.35-.09-.27-.54-.34-.69-.09-.19.33-.23.74-.39,1.09-.1.23.03.51.26.6.24.1.5-.03.6-.26h0Z"/>
          <path class="cls-1" d="M87.51,47.55c.03-.45.02-.98-.28-1.35-.19-.24-.69-.16-.69.19,0,.4.14.77.15,1.17,0,.2.23.36.42.35.2,0,.39-.16.41-.37h0Z"/>
        </g>
      </g>
      <rect class="cls-2" width="100" height="100"/>
    </g>
  </g>
</svg>