<?xml version="1.0" encoding="UTF-8"?>
<svg id="Capa_2" data-name="Capa 2" xmlns="http://www.w3.org/2000/svg" viewBox="0 0 100 100">
  <defs>
    <style>
      .cls-1 {
        fill: #fff;
      }

      .cls-2 {
        fill: none;
      }

      .cls-3 {
        fill: #4a2d2d;
      }

      .cls-4 {
        fill: #e5e7a5;
      }

      .cls-5 {
        fill: #c0c728;
      }
    </style>
  </defs>
  <g id="INFO">
    <g>
      <rect class="cls-2" width="100" height="100"/>
      <g>
        <path class="cls-5" d="M87.14,78c-3.72,4.66-9.52,8.31-15.98,10.91,0,0-.01,0-.02,0-.24.09-.49.19-.74.29-.3.11-.59.23-.89.33-.1.04-.21.08-.31.11-.01,0-.02,0-.03.01-2.73.99-5.56,1.8-8.37,2.42h0c-.51.11-1.01.22-1.52.32-6.1,1.21-12.08,1.54-16.92.96-.22-.03-.43-.05-.65-.08-.38-.05-.78-.11-1.17-.17-.05,0-.1-.02-.16-.03-.57-.09-1.16-.2-1.75-.32-.4-.08-.79-.16-1.19-.25-.2-.05-.4-.09-.6-.14-.2-.05-.4-.1-.61-.15-.2-.05-.41-.11-.61-.16h0c-.18-.05-.35-.09-.53-.14-.01,0-.02,0-.03,0-12.41-3.44-26.55-12.64-28.57-33.31C4.03,33.68,22.47,17.05,26.05,15.13c3.65-1.96,4.68-.75,5.25-.09.17.2.29.55.37.95,1.94-1.83,5.55-4.95,8.72-5.92,4.59-1.4,6.56,2.06,6.56,2.06,0,0,9.18-1.96,16.02.19,6.84,2.15,10.22,4.68,10.22,4.68,0,0,1.31-1.4,1.69-1.4s10.3,3.74,15.74,18.08c5.43,14.34,5.81,32.7-3.47,44.32Z"/>
        <path class="cls-1" d="M43.98,49.51c-.23-.35-.82-.13-.76.28.4,2.8.03,5.17-1.77,7.44-1.57,1.98-3.76,3.35-5.77,4.84-2.49,1.84-5.12,4.14-6.07,7.12.26.55.51,1.11.74,1.67,1.37-5.54,6.69-7.6,10.62-11.23,2.57-2.38,5.21-6.72,3.01-10.14Z"/>
        <path class="cls-1" d="M18.65,42.71c-.71,7.41,1.66,15.62,7.18,20.84.52.49,1.38-.29.93-.85-4.7-5.78-7.57-12.24-7.22-19.83.03-.57-.84-.75-.89-.15h0Z"/>
        <path class="cls-1" d="M41.46,59.47c3.32-.12,7.32-1.23,9.72-3.67.29-.3-.09-.84-.47-.67-1.45.67-2.77,1.58-4.26,2.19-1.62.66-3.34,1.1-5.06,1.42-.46.09-.4.74.07.72h0Z"/>
        <path class="cls-1" d="M77.2,74.68c2.35-3.93,2.5-9.32,1.2-13.61-.83-2.74-2.63-4.94-3.79-7.52-1.45-3.24-1-6.16-.56-9.54.06-.45-.52-.61-.73-.23-2.64,4.58-.21,9.88,2.16,13.94,3.06,5.24,3.17,11.05,1.05,16.65-.17.45.42.72.66.31h0Z"/>
        <path class="cls-1" d="M83.08,67.99c3.84-3.61,9.13-8.91,8.38-14.74-.06-.47-.73-.5-.83-.03-.57,2.81-1.19,5.34-2.76,7.78-1.52,2.36-3.47,4.43-5.34,6.52-.31.35.22.77.55.46h0Z"/>
        <path class="cls-1" d="M43.77,30.64c1.82-3.63,5.04-5.28,7.9-7.91.24-.22-.08-.66-.37-.52-3.39,1.57-6.83,4.6-8.32,8.06-.22.52.54.88.79.37h0Z"/>
        <path class="cls-1" d="M35.75,27.6c.94-3.09,2.74-5.18,4.71-7.63.25-.31-.13-.73-.47-.51-2.63,1.74-4.19,5.07-4.94,8.02-.11.45.57.55.7.12h0Z"/>
        <path class="cls-1" d="M67.3,29.21c.65,3.18,1.8,7.14,4.39,9.31.3.25.82-.07.65-.46-.7-1.51-1.74-2.84-2.47-4.34s-1.35-3.07-1.76-4.7c-.11-.45-.9-.28-.81.19h0Z"/>
        <path class="cls-1" d="M65.09,43.37c-.84-.69-1.62-1.43-2.37-2.21s-1.35-1.68-2.15-2.39c-.29-.26-.77.07-.62.44.82,2,2.86,3.63,4.57,4.85.46.33,1.02-.31.57-.68h0Z"/>
        <path class="cls-1" d="M44.73,80.37c4.66-3.99,8.73-9.5,9.88-15.65.08-.41-.55-.63-.71-.22-2.27,5.8-4.93,10.97-9.65,15.19-.39.35.07,1.03.48.68h0Z"/>
        <path class="cls-1" d="M55.86,75.11c2.55-.92,5.15-2.11,7.28-3.82.38-.31-.02-.87-.44-.62-2.33,1.37-4.6,2.69-7.15,3.61-.54.19-.23,1.03.31.83h0Z"/>
        <path class="cls-1" d="M23.96,39.57c-.87-3.66-.62-7.29.36-10.89.09-.35-.48-.53-.61-.19-1.45,3.69-1.52,7.55-.53,11.37.13.52.9.22.78-.29h0Z"/>
        <path class="cls-1" d="M21.92,70.54c-3.12-1.31-5.36-3.5-7.33-6.2-.26-.36-.92-.05-.71.37,1.52,3.16,4.42,5.41,7.63,6.69.57.23.98-.63.41-.87h0Z"/>
        <path class="cls-1" d="M35.82,48.89c.84-.86,1.7-1.71,2.52-2.6.25-.27-.16-.73-.44-.48-.91.79-1.79,1.61-2.68,2.42-.48.44.15,1.12.6.66h0Z"/>
        <path class="cls-1" d="M62.71,18.08l.95-.32c.3-.1.64-.19.88-.4.2-.17.19-.61-.14-.63-.66-.05-1.39.32-2.01.52-.55.17-.23,1.02.31.83h0Z"/>
        <path class="cls-4" d="M41.7,93.28c-.38-.05-.78-.11-1.17-.17-.05,0-.1-.02-.16-.03-.57-.09-1.16-.2-1.75-.32-.4-.08-.79-.16-1.19-.25-.2-.05-.4-.09-.6-.14-.2-.05-.4-.1-.61-.15-.2-.05-.41-.11-.61-.16h0c-.16.03-.34,0-.53-.13-.01,0-.03-.02-.04-.03-3.65-2.46-5.55-7.29-6.87-11.34-1.51-4.6-2.41-9.41-2.72-14.25-.32-4.95,0-9.98.96-14.85.92-4.63,2.23-9.61,4.57-13.73.31-.55,1.08-.18.87.41-1.94,5.52-3.86,10.71-3.88,16.64-.02,5.64,1.05,11.27,2.63,16.66,1.08,3.69,2.49,7.28,4.23,10.7,1.64,3.21,4.04,7.61,6.87,11.12Z"/>
        <path class="cls-4" d="M86.36,56.75c-.4,6.46-3.24,13.82-6.03,19.65-2.05,4.28-4.86,10.03-9.18,12.51,0,0-.01,0-.02,0-.39.22-1.64.62-1.65.62-.1.04-.19.08-.29.12-.01,0-.02,0-.03.01-2.73.99-5.56,1.8-8.37,2.42h0c-.51.11-1.01.22-1.52.32,7.77-5.26,15.49-13.36,19.35-22.07,1.94-4.37,3.25-9.03,3.94-13.75.36-2.42.69-5.03.67-7.48-.02-1.97-.26-4.36-.59-6.68-1.51-6.06-3.41-11.43-6.82-16.65-.27-.41.06-1.37.35-.98,7.02,9.22,10.92,20.31,10.19,31.97Z"/>
        <path class="cls-3" d="M74.11,15.68c-1.72,2.43-3.89,5.23-6.67,6.52-1.65.76-3.43.96-5.2,1.22-.76-2.82-3.8-4.21-6.39-5.04-2.28-.73-4.5-1.34-6.13-3.22-1.08-1.26-1.93-2.7-3.18-3.82-2.57-2.29-5.72-1.88-8.56-.31-2.9,1.6-5.5,3.83-7.75,6.29-.15-.52-.81-.87-1.2-.31-1.62,2.34-1.43,4.93-.02,7.34,1.67,2.88,4.79,4.15,7.84,5.08,3.62,1.1,8.35,1.92,10.32,5.59,1.54,2.88.56,6.46,2.31,9.31,1.93,3.13,5.84,4.88,8.65,7.09,2.94,2.31,5.41,5.2,7.09,8.55,3.3,6.59,3.36,14.52-.48,20.89-2.19,3.64-5.43,6.32-9.26,8.11-1.58.74-3.23,1.36-4.93,1.71-2.12.44-4.26.33-6.39.61-1.03.14-1.08,1.59-.07,1.81,6.2,1.36,14.02-1.83,18.57-5.97,5.02-4.57,7.95-11.55,7.58-18.33-.38-7.04-4.01-13.97-9.45-18.42-1.49-1.22-3.13-2.23-4.73-3.28-1.67-1.09-3.77-2.25-4.79-4.03-1.22-2.14-1.01-4.65-1.5-6.99,1.39-2.47,2.53-5.08,4.54-7.16,1.2-1.25,2.65-2.28,4.3-2.84,1.64-.55,3.34-.51,5.02-.81,4.61-.84,9.84-4.26,11.98-8.52.48-.96-.86-1.97-1.5-1.07ZM49,33.91c-.14-.26-.29-.53-.48-.78-2.26-3.11-6.12-4.23-9.65-5.19-2.44-.66-5.08-1.33-7.03-3.04-1.31-1.15-2.35-2.97-2.35-4.76,2.46-2.24,4.97-4.61,7.66-6.56,1.54-1.11,3.42-2.27,5.41-2.03,1.92.23,2.99,1.8,4.04,3.24,1.73,2.37,3.41,4,6.23,5.01,2.91,1.04,5.38,1.6,7.21,4.02-.49.12-.97.25-1.45.43-4.22,1.63-7.63,5.49-9.61,9.65Z"/>
      </g>
    </g>
  </g>
</svg>