<?xml version="1.0" encoding="UTF-8"?>
<svg id="Capa_2" data-name="Capa 2" xmlns="http://www.w3.org/2000/svg" viewBox="0 0 100 100">
  <defs>
    <style>
      .cls-1 {
        fill: none;
      }

      .cls-2 {
        fill: #4a2d2d;
      }

      .cls-3 {
        fill: #fe9736;
      }
    </style>
  </defs>
  <g id="COLOR">
    <g>
      <g>
        <path class="cls-3" d="M59.05,32.61s-4.74-3.38-11.09.41c-6.36,3.79-13.93,17.45-20.56,29.9-6.63,12.45-15.02,25.16-12.85,28.95s8.12,0,14.75-4.74c6.63-4.74,27.6-27.73,32.33-33.28,4.74-5.55,6.49-11.23,5.82-14.48-.68-3.25-1.62-2.98-1.62-2.98,0,0-6.49,4.46-7.17,2.3s.41-6.09.41-6.09Z"/>
        <path class="cls-2" d="M90.07,26.93c-.43-1.96-3.46-1.72-4.89-1.54-3.33.42-6.49,1.6-9.54,2.95-4.41,1.96-9.04,4.07-13,6.97,4.07-4.47,8.01-9.06,12.1-13.5,2.42-2.62,5.11-5.27,7.15-8.21.84-1.21,1.95-4.06-.33-4.49-2.24-.42-4.89,1.8-6.32,3.24-2.32,2.35-4.31,5.15-6.25,7.81-2.06,2.84-4.01,5.77-5.81,8.78.62-2.37,1.06-4.78,1.34-7.13.38-3.16.4-6.36.11-9.52-.15-1.61.03-5.04-1.83-5.85-1.89-.81-2.45,1.09-2.61,2.55-.36,3.18-.42,6.39-.6,9.59-.36,6.64-1.03,13.25-2.61,19.72-.25,1.01-.05,2.82,2.55,2.21,1.88-.44,3.17-1.17,4.71-1.83,1.65-.71,3.3-1.39,4.97-2.05,2.86-1.13,5.76-2.16,8.67-3.13,2.9-.97,5.84-1.84,8.76-2.75,1.6-.5,3.89-1.69,3.42-3.81ZM73.61,17.23c1.56-1.93,3.17-4.1,5.35-5.37.19-.11,1.41-.92,1.67-.74.95.67-.35,2.05-.75,2.53-.98,1.17-2.09,2.24-3.12,3.38-2.06,2.29-4.11,4.6-6.1,6.95-2.37,2.81-4.89,5.49-7.38,8.19,1.51-2.53,3.09-5.03,4.76-7.45,1.76-2.56,3.62-5.06,5.58-7.49ZM61.03,23.36c.21-2.38.34-4.77.46-7.16.06-1.25.11-2.5.17-3.75.04-.89-.28-3.07.12-3.8.59-1.09,1.01.56,1.07,1.19.07.7.09,1.41.11,2.11.04,1.18.03,2.36-.01,3.53-.09,2.72-.41,5.47-.92,8.14-.48,2.53-1.18,4.95-2,7.33.45-2.51.78-5.04,1-7.59ZM86.58,28.56c-4.46,1.62-9.08,2.83-13.54,4.5-2.31.86-4.61,1.76-6.9,2.69-.85.35-1.78.67-2.71,1.02,3.19-2.14,6.7-3.79,10.16-5.45,2.67-1.28,5.37-2.51,8.23-3.28,1.41-.38,2.88-.7,4.35-.75.1,0,1.55-.1,1.67.16.3.63-.95.98-1.26,1.1Z"/>
        <path class="cls-2" d="M30.2,72.36c1.16,3.13,4.72,5.73,8.15,4.76.47-.13.38-.86-.12-.86-3.07.01-5.96-1.09-7.21-4.13-.21-.5-1.02-.3-.83.23h0Z"/>
        <path class="cls-2" d="M37.16,65.06c1.69,2.41,4.32,5.06,7.44,5.3.42.03.57-.59.21-.78-1.18-.63-2.45-1.03-3.58-1.77-1.28-.84-2.46-1.9-3.33-3.17-.31-.45-1.05-.02-.73.43h0Z"/>
        <path class="cls-2" d="M44.39,57.65c1.45,2.54,4.6,5.12,7.73,4.48.36-.07.33-.61,0-.7-1.34-.37-2.62-.5-3.86-1.19s-2.36-1.77-3.1-3.04c-.29-.49-1.05-.05-.77.45h0Z"/>
        <path class="cls-2" d="M52.25,50.57c1.42,2.4,4.01,4.37,6.89,4.4.45,0,.55-.68.11-.79-2.6-.63-4.79-1.71-6.25-4.05-.3-.48-1.04-.04-.75.44h0Z"/>
        <path class="cls-2" d="M25.02,83.5c1.2,1.44,3.3,2.03,4.99,1.1.35-.19.11-.74-.27-.64-1.51.38-3.05.12-4.13-1.05-.37-.4-.93.18-.59.59h0Z"/>
      </g>
      <rect class="cls-1" width="100" height="100"/>
    </g>
  </g>
</svg>