<?xml version="1.0" encoding="UTF-8"?>
<svg id="Capa_2" data-name="Capa 2" xmlns="http://www.w3.org/2000/svg" viewBox="0 0 100 100">
  <defs>
    <style>
      .cls-1 {
        fill: #fff;
      }

      .cls-2 {
        fill: none;
      }

      .cls-3 {
        fill: #6a8c2a;
      }

      .cls-4 {
        fill: #4a2d2d;
      }

      .cls-5 {
        fill: #feeec2;
      }
    </style>
  </defs>
  <g id="COLOR">
    <g>
      <g>
        <path class="cls-5" d="M91.07,49.57c.21-.06.42-.12.63-.16-.48-1.67-2.27-2.86-4.06-3.2.99-1.83.57-3.55-.59-5.52-1.09-1.85-3.6-3.12-5.72-2.95.44-1.94.7-4.26-.69-5.77-1.6-1.73-3.9-2.39-6.18-2.46.38-4.26-5.18-7.45-8.63-5.12-.34-2.72-3.2-5.06-5.71-5.62-2.76-.61-4.3.27-6.06,2.39-1.67-2.23-5.02-3.62-7.77-2.82-2.05.6-4.5,3.08-4.9,5.31-2.04-1.88-5.96-2.05-8.18-.91-2.68,1.38-4.22,4.31-4.15,7.25-4.23-1.51-8.41,3.32-6.89,7.5-4.14.3-7.51,4.26-7.42,8.21.3-.17.62-.29.96-.37-.16,1.18-.21,2.1-.21,2.1,0,0,27.38,38.01,30.77,38.95s6.53.08,14.36-3.58c7.83-3.66,31.12-28.84,30.57-32.62-.03-.22-.08-.42-.13-.61Z"/>
        <path class="cls-4" d="M88.24,45.55c1.12-4.29-2.14-7.76-6.56-8.17,1.03-5.55-2.4-8.26-6.92-8.69-.16-4.33-4.73-6.33-8.69-4.74-1.26-2.47-3.27-5.26-6.09-5.75-2.31-.4-4.44.86-6.01,2.54-1.41-2.11-4.36-3.41-6.83-2.97-2.75.49-4.99,2.52-5.83,5.14-5.31-4.06-12.92.4-12.9,6.85-2.1-.02-4.39.31-5.83,1.98-1.54,1.78-1.11,3.92-.58,5.98-5.37-.15-9.99,5.7-7.05,10.82.25.44,1.01.15.84-.35-.85-2.49-1.01-5.05.86-7.17,1.53-1.74,3.82-2.45,6.07-2.15.44.06.64-.5.47-.82-1.02-1.92-1.23-5.01.8-6.37,1.41-.95,3.32-.93,4.95-.87.26,0,.53-.24.51-.51-.18-2.86,1.2-5.73,3.81-7.07,2.7-1.39,5.59-.66,7.95,1,.11.08.22.1.32.08.21.03.44-.07.52-.34.69-2.38,2.36-4.62,4.87-5.19,2.42-.54,5.49.64,6.6,3.03.19.42.4.4.62.09,1.48-2.1,4.01-2.96,6.41-2.18,2.65.87,3.91,2.62,4.83,4.72.14.33.59.36.86.23,3.58-1.8,7.32.67,7.31,4.6,0,.3.28.65.6.6,4.15-.53,7.82,2.47,6.79,7.48-.08.37.15.75.57.75,1.61,0,3.25.56,4.42,1.7,1.69,1.66,1.81,3.88,1.43,6.09-.22.37-.15.92.37.99,2.39.34,3.74,1.72,4.75,3.83.22.45.92.22.92-.25,0-2.63-2.65-4.78-5.16-4.9Z"/>
        <path class="cls-3" d="M49.57,86.14s-2.36-1.73-4.33-5.11-1.1-8.26-.47-11.33c.63-3.07.71-4.8-1.81-6.06-2.52-1.26-4.8-.71-5.9-3.07-1.1-2.36-1.18-5.74-4.17-6.53s-3.93.79-6.85-2.36c-2.91-3.15-5.51-7.24-9.29-6.77s-3.54,3.15-5.67,4.49c-2.12,1.34-6.06-.71-8.1,4.56-2.05,5.27,1.89,9.05,3.7,10.39s2.83,1.65,2.75,2.2-2.91,4.8-.31,7.55,6.85,1.73,7.95,2.28c.79.39-3.78,3.7-.47,7.16,2.73,2.86,10.86,4.64,19.83,4.8,8.97.16,12.35-.94,13.3-1.1s-.16-1.1-.16-1.1Z"/>
        <path class="cls-3" d="M49.1,85.9s3.23-1.34,7.4-7.79,3.7-19.91,7.16-22.58c3.46-2.68,7.55,1.34,7.55,1.34,0,0,1.89-7.71,6.3-8.73,4.41-1.02,6.14,4.49,7.08,4.41s8.18-5.9,11.72-3.3c3.54,2.6-2.83,10.15-2.12,11.8.71,1.65,4.09,3.15,3.07,6.61-1.02,3.46-6.92,4.09-6.61,6.22s3.11,4.55,1.36,6.57c-3.62,4.17-14.18,1.52-14.34,2.63-.16,1.1,2.54,1.36,0,3.87-2.3,2.27-12.59,2.75-20.07,1.89-7.48-.87-8.89-2.44-8.89-2.44l.39-.47Z"/>
        <path class="cls-4" d="M53.26,30.46c-2.19-.97-4.5-.28-6.25,1.14-1.84-2.53-5.68-3.36-8.34-1.54-2.54,1.74-3.13,5.28-1.82,7.93-2.62-.27-5.39-.2-7.64,1.31-2,1.35-3.28,3.65-2.74,6.07.09.39.76.31.71-.1-.81-6.09,6.38-6.66,10.64-6.13.5.06.61-.58.37-.89-1.77-2.21-1.29-5.87,1.22-7.35,2.4-1.42,5.51-.32,6.94,1.91.26.4.78.37,1.04,0,1.24-1.78,3.9-2.28,5.76-1.21,1.82,1.05,2.27,2.93,2.39,4.87.03.51.76.64.91.12.72-2.43-.97-5.16-3.19-6.14Z"/>
        <path class="cls-4" d="M74.8,41.6c-1.52-.96-3.22-.56-4.69.22.07-.81-.13-1.62-.64-2.33-1.05-1.46-2.83-1.57-4.47-1.35-.41.05-.43.62,0,.65,1.17.09,2.42.06,3.31.93.85.83.96,1.86.62,2.96-.12.37.35.77.69.53,1.08-.76,2.56-1.41,3.91-.96,1.38.46,1.72,1.69,1.84,2.98.03.37.47.49.68.19.93-1.31-.02-3.05-1.25-3.82Z"/>
        <path class="cls-4" d="M64.13,52.06c-1.53-4.58-7.31-3.76-8.75.23-3.05-3.15-8.4-1.38-9.74,2.79-.13.42.48.66.7.29.91-1.55,2.04-3.03,3.83-3.59,1.83-.57,3.91.03,5.03,1.61.2.28.69.28.78-.1.87-3.5,5.85-4.98,7.43-1.05.17.43.86.26.71-.2Z"/>
        <path class="cls-4" d="M49.83,66.31c1.12-.75,2.4-1.28,3.71-.62,1.22.62,1.58,1.82,1.63,3.1.01.33.49.51.66.18.77-1.5-.06-3.31-1.45-4.14-1.69-1-3.71-.45-5.08.79-.36.33.11.96.53.69h0Z"/>
        <path class="cls-4" d="M41.72,45.8c-.31-.98,1.46-.79,1.95-.93.27-.08.3-.44.08-.58-.65-.42-1.64-.43-2.29,0-.58.37-.92,1.11-.66,1.77.22.56,1.11.35.92-.25h0Z"/>
        <path class="cls-4" d="M62.76,31.26c.83-.68,1.72-.06,2.44.42.21.13.55-.04.52-.3-.19-1.72-2.61-1.72-3.62-.78-.44.42.2,1.03.66.66h0Z"/>
        <path class="cls-4" d="M59.3,43.63c.64-.17,1.3.29,1.65.8.16.24.57.16.56-.15-.02-1.23-1.37-1.87-2.44-1.49-.52.18-.32.99.23.84h0Z"/>
        <path class="cls-4" d="M56.11,59.44c-.52-.04-1.05-.11-1.57-.05-.32.04-.4.46-.08.57.49.17,1.03.21,1.54.28.58.08.7-.75.11-.8h0Z"/>
        <path class="cls-4" d="M50.34,75.49c.25-.48.82-.26,1.12.02.17.16.56.07.52-.22-.15-1.13-1.86-1.08-2.28-.17-.2.43.42.8.64.37h0Z"/>
        <path class="cls-1" d="M33.15,49.05c.67-.34,1.46-.72,1.67-1.51.19-.68-.34-1.38-1.05-1.38-.82,0-1.39.66-1.9,1.22-.36.39-.41.96-.08,1.39s.89.52,1.37.27h0Z"/>
        <path class="cls-1" d="M45.39,39.92c.55-.03,1.12,0,1.63-.26.37-.18.54-.65.49-1.03-.05-.4-.34-.75-.74-.86-.53-.15-1.12.01-1.66.09-.23.03-.52.28-.62.48-.11.21-.16.43-.12.67.07.49.5.93,1.03.91h0Z"/>
        <path class="cls-1" d="M53.49,46.01l.1-.12c.08-.07.13-.16.16-.26.05-.09.07-.2.07-.31l-.03-.21c-.04-.13-.11-.25-.2-.35l-.1-.12-.2-.15-.23-.1c-.13-.04-.26-.05-.39-.02-.09,0-.17.02-.24.07-.08.02-.15.06-.21.12-.07.04-.13.1-.17.17-.06.06-.1.13-.12.21-.06.12-.09.24-.08.37l.03.26.1.23.15.2.2.15.23.1c.13.04.26.05.39.02.09,0,.17-.02.24-.07.12-.04.22-.11.31-.2h0Z"/>
        <path class="cls-1" d="M46.13,61.59c.07-.02.13-.05.2-.07.23-.08.44-.18.6-.37.13-.14.23-.3.28-.48.05-.19.05-.38,0-.58-.05-.18-.14-.34-.28-.48-.14-.13-.3-.23-.48-.28-.25-.09-.48-.06-.73-.02-.07.01-.14.02-.2.04-.15.04-.28.1-.39.21-.13.08-.23.19-.3.32-.08.13-.13.28-.14.43-.03.15-.03.31.02.46.09.28.26.55.53.69s.6.22.89.12h0Z"/>
        <path class="cls-1" d="M53.59,71.17s0,.05,0,.08c.02.18.03.29.12.46.02.04.05.08.08.12.14.22.37.37.64.37s.5-.15.64-.37c.03-.04.05-.08.08-.12.1-.17.1-.25.12-.45,0-.03,0-.06.01-.09,0-.12-.02-.23-.07-.33-.03-.11-.09-.2-.18-.27-.15-.15-.39-.26-.6-.25s-.45.08-.6.25l-.13.17c-.08.13-.12.28-.12.43h0Z"/>
        <path class="cls-1" d="M76.83,40.71c.09.01.18.04.26.07l-.26-.11c.07.03.13.07.2.12l-.22-.17c.12.09.22.21.32.32.31.32.89.41,1.27.16.4-.26.59-.71.48-1.18-.1-.44-.4-.76-.76-1-.31-.21-.65-.28-1.01-.32-.25-.02-.59.13-.75.31s-.26.37-.29.61,0,.48.13.68c.14.22.37.45.64.49h0Z"/>
        <path class="cls-1" d="M59.02,27.06c.37-.02.84.01,1.19-.12.51-.19.85-.62.77-1.18-.03-.23-.12-.46-.3-.62-.23-.21-.46-.28-.76-.32-.22-.03-.48.05-.7.08l-.48.08c-.23.04-.52.28-.63.48s-.16.43-.12.67c.07.49.51.94,1.03.91h0Z"/>
        <path class="cls-1" d="M47.35,26.05c.37,0,.75.05,1.09-.14.56-.33.56-1.17,0-1.5-.33-.2-.72-.15-1.09-.14-.47,0-.92.41-.89.89s.39.89.89.89h0Z"/>
        <path class="cls-1" d="M68.8,49.89l.09.13c.08.14.2.26.34.34.15.09.31.13.48.13.17,0,.33-.04.48-.13.14-.08.26-.2.34-.34l.09-.13c.1-.16.14-.34.14-.53,0-.19-.05-.37-.14-.53-.19-.32-.54-.52-.91-.52s-.72.2-.91.52c-.1.16-.14.34-.14.53,0,.19.05.37.14.53h0Z"/>
        <path class="cls-1" d="M31.35,35.21c.27-.26.56-.51.66-.88s0-.79-.28-1.07-.69-.38-1.07-.28-.62.39-.88.66c-.2.21-.33.5-.33.79,0,.27.12.6.33.79s.49.34.79.33.57-.12.79-.33h0Z"/>
        <g>
          <path class="cls-1" d="M87.21,70.18c-2.85,3.23-5.69,5.63-9.89,6.91-2.61.79-5.29,1.3-7.88,2.11.98-.68,1.96-1.39,2.9-2.14,2.99-2.39,5.67-5.1,8.1-8.06,2.2-2.69,4.99-5.86,5.98-9.25.19-.67-.75-1.3-1.23-.71-1.05,1.29-1.75,2.82-2.63,4.23-1,1.59-2.08,3.14-3.27,4.6-.41.5-.84.98-1.27,1.46,1.51-3.35,2.09-7.41,2.06-10.89,0-.31-.49-.4-.56-.08-1.01,4.46-.94,8.76-3.25,12.84-1.5,1.52-3.09,2.97-4.76,4.3-2.01,1.61-4.15,3.05-6.37,4.36,1.33-1.64,2.39-3.51,3.11-5.42,1.76-4.69,1.36-9.97,2.35-14.84.09-.43-.49-.58-.65-.18-1.65,4.18-.86,8.93-2,13.24-.95,3.6-3,6.41-5.67,8.79-3.32,1.71-6.8,3.11-10.37,4.21-.72.22-.42,1.28.31,1.12,5.03-1.05,9.78-2.99,14.16-5.59.03,0,.05,0,.08-.02,4.17-1.9,8.84-2.13,13.07-3.84,3.2-1.3,6.48-3.65,8.22-6.7.19-.33-.28-.72-.54-.42Z"/>
          <path class="cls-1" d="M47.94,85.28c-2.66-.95-5.24-1.75-7.75-3.09-2.54-1.36-5.03-2.89-7.34-4.6-.04-.03-.08-.07-.13-.1,0-.04,0-.09-.02-.13-.65-1.65-1.27-3.35-1.42-5.13-.14-1.66.27-3.18.69-4.77.68-2.53.81-5.36-.37-7.76-.16-.33-.62-.09-.56.24.33,1.8.71,3.53.5,5.37-.17,1.53-.77,2.96-1,4.47-.36,2.37.21,4.69,1.11,6.87-2.92-2.33-5.55-5.05-7.88-8,.24-2.28.2-4.58-.11-6.86-.04-.27-.48-.2-.48.06.01,2.01.01,4.03,0,6.04-1.11-1.46-2.16-2.96-3.12-4.49-.36-.58-1.27-.06-.92.54,1.67,2.9,3.5,5.57,5.58,8.02-1.33-.42-2.76-.55-4.14-.73-2.62-.34-4.67-1.36-7.08-2.31-.33-.13-.6.36-.34.59,3.48,3.1,8.72,2.22,12.81,3.84,1.78,1.94,3.73,3.74,5.92,5.39.86.65,1.74,1.28,2.63,1.89-3.14-.17-6.31.41-9.43-.2-.41-.08-.59.52-.17.63,3.63.96,7.27.32,10.95.48,1.29.84,2.61,1.62,3.98,2.33,2.37,1.22,5.19,2.69,7.92,2.67.75,0,.84-1.03.17-1.27Z"/>
        </g>
      </g>
      <rect class="cls-2" width="100" height="100"/>
    </g>
  </g>
</svg>