<?xml version="1.0" encoding="UTF-8"?>
<svg id="Capa_2" data-name="Capa 2" xmlns="http://www.w3.org/2000/svg" viewBox="0 0 100 100">
  <defs>
    <style>
      .cls-1 {
        fill: #fff;
      }

      .cls-2 {
        fill: none;
      }

      .cls-3 {
        fill: #cdda99;
      }

      .cls-4 {
        fill: #4a2d2d;
      }

      .cls-5 {
        fill: #9bb533;
      }
    </style>
  </defs>
  <g id="COLOR">
    <g>
      <g>
        <path class="cls-3" d="M49.14,48.62s.65,1,.65,6.52-.13,13.79.31,21.94,1.07,12.16,1.07,12.16c0,0,2.38,1.25,4.51.31,2.13-.94,2.44-2.19,2.44-2.19,0,0-1.88-16.55-1.76-23.82s.56-16.14.56-16.14c0,0-1.31-3.54-3.76-3.42-2.44.13-4.04,4.64-4.04,4.64Z"/>
        <path class="cls-3" d="M64.15,54.76s.5,7.77-1.88,16.49-4.07,13.16-8.53,13.92-7.33-2.82-9.84-8.4c-2.51-5.58-2.38-24.07-2.38-24.07,0,0-1.69-3.82-3.07-2.63-1.38,1.19-2.07,4.07-2.07,4.07,0,0,.63,1.5.5,5.96s-.13,18.74,3.2,25.26c3.32,6.52,7.65,10.59,14.98,10.22,7.33-.38,11.6-10.59,12.79-19.43,1.19-8.84,1.32-18.56,1.94-21.25.63-2.7-1-4.95-2.01-4.83s-3.64,3.39-3.64,4.7Z"/>
        <path class="cls-5" d="M59.13,31.09s5.56-13.5,3.13-15.17c-2.42-1.67-6.94,5.85-6.94,5.85,0,0,1.25-5.52,1-8.61-.25-3.09-2.01-11.87-6.35-9.36-4.35,2.51-2.22,12.04-2.22,12.04,0,0-4.72-5.85-5.81-1.34-.95,3.93,3.93,12.83,4.93,14.71-.71-.84-2.74-2.7-4.89-3.8-3.09-1.59-6.45-1.79-5.64,2.17.71,3.47,4.98,8.13,8.48,13.12,2.78,3.95,4.3,7.9,4.3,7.9,0,0,0,0,0,.02,3.89,1.44,6.07.59,7.78-.81.01-.12.03-.24.04-.35.92-6.44,9.15-12.65,9.11-16.33-.06-5.05-6.94-.04-6.94-.04Z"/>
        <path class="cls-5" d="M64.15,54.76s-1.57-5.83-4.07-9.65-6.77-8.53-4.2-10.59,6.96,2.82,6.96,2.82c0,0-2.32-5.83-.88-11.72,1.44-5.89,3.51-7.15,4.89-6.21s1.19,5.52,1.19,5.52c0,0,3.26-8.9,6.96-7.9,3.7,1-1.76,15.99-1.76,15.99,0,0,4.01-4.39,6.27-2.7s-1.5,6.83-2.88,8.53c-1.38,1.69-3.57,3.45-3.57,3.45,0,0,4.51-3.26,5.58-.25,1.07,3.01-4.42,5.33-6.71,9.22-1.84,3.13-2.26,4.06-2.26,4.06,0,0-.85.97-3.1.75-1.46-.14-2.41-1.3-2.41-1.3Z"/>
        <path class="cls-5" d="M41.52,52.69s.5-6.08,2.44-10.28c1.94-4.2,4.89-8.4,3.76-10.28s-2.88-1.44-4.83-.5c-1.71.83-3.13,2.51-3.13,2.51,0,0,2.95-10.34.38-12.79-2.57-2.44-4.83,4.83-4.83,4.83,0,0-1.25-8.53-5.7-11.35s-4.95-.13-4.64,1.94,3.32,8.4,3.32,8.4c0,0-2.95-2.95-4.95-.88s1,6.58,2.19,8.09c1.19,1.5,2.51,2.51,2.51,2.51,0,0-5.45-2.95-7.08-.06-1.63,2.88,2.95,6.33,8.96,10.41,6.02,4.07,6.46,8.9,6.46,8.9,0,0,1.88.5,3.32.19s1.82-1.63,1.82-1.63Z"/>
        <path class="cls-4" d="M48.05,32.54c-1.02-3.39-4.59-1.97-6.91-.41.88-3.18.85-6.79.02-9.91-.11-.4-.8-.34-.75.1.39,3.82.14,7.16-.59,10.92-.09.44.42.77.77.45,1.09-1.02,3.82-2.92,5.49-1.9,2.09,1.28.12,4.84-.52,6.27-1.17,2.6-2.47,5.2-3.36,7.91-.23.69.8.93,1.06.29.58-1.44.96-2.9,1.67-4.3.62-1.2,1.26-2.38,1.82-3.61.79-1.73,1.89-3.86,1.31-5.81Z"/>
        <path class="cls-4" d="M63.08,36.55c-.96-2.58-1.06-5.02-1.06-7.74,0-.44-.67-.54-.77-.1-.46,1.9-.35,3.92.07,5.85-.96-.79-2.1-1.28-3.46-1.08-1.67.24-2.9,1.36-3.03,3.07-.18,2.31,1.2,4.34,2.5,6.11,1.68,2.29,3.16,4.3,4.13,7,.19.54,1.15.51,1.08-.15-.32-2.91-2.47-5.22-4.15-7.47-.94-1.25-2.08-2.71-2.48-4.25-.49-1.89.99-3.48,2.89-3.14,1.35.24,2.42,1.28,3.21,2.35.36.48,1.32.22,1.06-.45Z"/>
        <path class="cls-4" d="M49,84.67c3.6,2.38,7.99.9,9.83-2.87.14-.28-.24-.64-.47-.36-2.17,2.67-5.66,4.17-8.94,2.51-.48-.25-.88.43-.43.73h0Z"/>
        <path class="cls-1" d="M38.7,58.21c0,.69-.12,1.54.09,2.21.09.28.49.28.58,0,.21-.67.08-1.52.09-2.21,0-.48-.75-.48-.75,0h0Z"/>
        <path class="cls-1" d="M40.07,74.01c.45,5.95,3.55,12.34,8.64,15.67.33.22.72-.28.42-.55-4.55-4.18-7.6-8.86-8.34-15.12-.05-.46-.76-.47-.73,0h0Z"/>
        <path class="cls-1" d="M51.12,90.59c.29.08.57.17.86.2.15.02.31-.12.34-.26.04-.15-.03-.32-.16-.4-.26-.15-.54-.24-.82-.35-.21-.08-.46.09-.52.3-.06.22.07.46.3.52h0Z"/>
        <path class="cls-1" d="M57.81,88.61c2.73-2.28,5.21-5.7,5.82-9.27.07-.4-.45-.53-.6-.16-1.41,3.48-2.91,6.36-5.73,8.93-.35.32.16.8.51.51h0Z"/>
        <path class="cls-1" d="M65.04,76c.06-.26.12-.51.18-.77s.14-.53-.02-.75c-.1-.14-.27-.2-.43-.11-.24.13-.29.39-.34.64s-.11.51-.16.77c-.11.51.66.73.78.22h0Z"/>
        <g>
          <path class="cls-4" d="M73.25,35.46c-1.97,1.55-3.71,3.44-5.48,5.21.09-1.54.23-3.07.5-4.59.37-2.1,1.13-4.05,1.64-6.1.09-.35-.38-.54-.58-.24-1.06,1.63-1.62,3.63-1.94,5.68-.58-2.14-1.45-4.12-1.48-6.42,0-.35-.55-.45-.63-.09-.59,2.66,1.14,5.22,1.77,7.73.02.1.08.16.15.19-.16,1.45-.24,2.89-.31,4.22-.11,1.94-.16,3.89-.24,5.83-.01-.03-.02-.05-.04-.08-.89-1.14-1.82-2.24-2.67-3.4-.78-1.07-1.35-2.24-2.08-3.33-.19-.28-.64-.11-.55.23.69,2.64,3.01,5.04,4.86,6.95.18.18.39.1.48-.07-.1,2.44-.25,4.88-.63,7.31-.06.41.55.6.64.18.84-3.96.87-7.98,1.03-12.01.01-.36.03-.73.05-1.09.05-.01.11-.03.16-.08,2-1.76,4.12-3.53,5.8-5.61.25-.3-.12-.67-.43-.43Z"/>
          <path class="cls-4" d="M72.08,45.1c-1.37,1.29-2.56,2.59-4.21,3.56-.43.25-.05.88.39.66,1.68-.84,3.48-2.09,4.42-3.76.21-.38-.28-.76-.6-.46Z"/>
        </g>
        <g>
          <path class="cls-4" d="M51.31,19.63c-.1-.33-.65-.28-.62.08.09,1.29.22,2.57.37,3.86-.65-.53-1.26-1.09-1.8-1.73-.63-.73-1.1-1.58-1.73-2.31-.18-.21-.57.01-.47.28.68,1.88,2.53,3.48,4.11,4.63.34,2.89.72,5.78.83,8.71.06,1.51.06,3.01.05,4.52-.64-.15-1.18-.47-1.67-.91-.35-.31-.78.15-.5.5.49.64,1.23,1,2.02,1.14.05,0,.1,0,.14,0-.05,2.76-.18,5.51-.38,8.26-.04.54.76.51.82,0,.58-4.59.69-9.25.49-13.87-.19-4.31-.43-8.99-1.65-13.15Z"/>
          <path class="cls-4" d="M58.1,23.19c-1.61,2.41-3.1,4.85-4.91,7.12-.27.34.2.83.48.48,1.86-2.25,3.7-4.65,4.98-7.28.18-.37-.33-.68-.56-.33Z"/>
        </g>
        <g>
          <path class="cls-4" d="M30.73,24.56c-.19-.36-.7-.04-.53.31.8,1.71,1.55,3.45,2.26,5.2-1.31-.7-2.64-1.47-4.05-1.92-.37-.12-.54.4-.25.6,1.27.9,2.77,1.52,4.16,2.19.18.09.35.04.47-.06,1.06,2.67,2.01,5.39,2.78,8.15,1.32,4.71,1.92,9.49,2.96,14.25.08.35.62.27.61-.08-.03-4.9-1.36-10.07-2.77-14.74-1.45-4.81-3.3-9.45-5.64-13.9Z"/>
          <path class="cls-4" d="M42.03,35.33c-1.77,1.86-3.15,4.23-4.26,6.53-.18.36.34.68.55.32,1.28-2.25,2.78-4.32,4.16-6.5.17-.28-.23-.58-.45-.35Z"/>
          <path class="cls-4" d="M35.75,33.6c.49-1.26,1.19-2.58,1.46-3.9.07-.32-.37-.53-.55-.23-.7,1.19-1.07,2.67-1.56,3.95-.15.41.49.57.65.18Z"/>
          <path class="cls-4" d="M36.6,43.89c-2.51-1.64-5.09-3.25-7.86-4.41-.36-.15-.55.41-.25.6,2.48,1.63,5.17,2.97,7.79,4.36.36.19.66-.32.32-.55Z"/>
        </g>
        <path class="cls-1" d="M53.21,56.33c-.27,4.99-.29,10.17.43,15.13.05.32.57.24.56-.08-.26-5.04-.53-10-.31-15.05.02-.43-.65-.43-.67,0h0Z"/>
        <path class="cls-1" d="M54.16,75.76c0,.44-.03.9.05,1.33.05.28.52.28.57,0,.08-.43.04-.9.05-1.33s-.67-.43-.66,0h0Z"/>
        <path class="cls-1" d="M65.63,69.59c.03-.2.07-.4.09-.6.02-.16-.14-.3-.28-.32-.17-.02-.29.08-.36.23-.06.16-.12.32-.18.49-.06.19.07.42.26.46s.43-.06.46-.26h0Z"/>
      </g>
      <rect class="cls-2" width="100" height="100"/>
    </g>
  </g>
</svg>