<?xml version="1.0" encoding="UTF-8"?>
<svg id="Capa_2" data-name="Capa 2" xmlns="http://www.w3.org/2000/svg" viewBox="0 0 100 100">
  <defs>
    <style>
      .cls-1 {
        fill: none;
      }

      .cls-2 {
        fill: #4a2d2d;
      }

      .cls-3 {
        fill: #faae55;
      }

      .cls-4 {
        fill: #ab745b;
      }
    </style>
  </defs>
  <g id="COLOR">
    <g>
      <rect class="cls-1" width="100" height="100"/>
      <g>
        <path class="cls-4" d="M35.39,40.36s-21.61-4.59-25.14-10.65c-3.53-6.06,1.95-12.47,12.98-11.51s19.61,5.49,29.67,4.52c14.05-1.36,24.56-8.91,32.91-3.16s3.49,11.75-6.71,14.44c-10.2,2.69-21.73,2.44-21.73,2.44l-21.97,3.93Z"/>
        <path class="cls-3" d="M55.51,27.34c7.8-1.26,19.64-5.84,24.3-4.48,4.67,1.37,3.21,4.25-.67,6.19-3.88,1.94-12.2,3.92-16.85,10.46-4.65,6.55-4.72,24.25-4.98,31.95-.26,7.7-.1,18.1-6.39,19.2-6.3,1.11-7.46-9.25-8.05-14.23-.59-4.98-.34-19.11-2.38-26.35-2.04-7.24-12.51-15.78-16.53-18-4.02-2.22-8.57-2.2-8.8-3.4s.65-5.9,6.59-6.03c5.94-.14,19.46,7,33.74,4.69Z"/>
        <path class="cls-2" d="M17.83,26.28c6.18,1.73,12.27,5.52,17.07,9.74,2.41,2.12,4.54,4.55,6.23,7.28.77,1.26,1.47,2.57,2.02,3.94.57,1.45.85,3,1.44,4.43.15.37.76.23.77-.16.07-2.87-1.55-6.13-2.96-8.54-1.69-2.88-3.91-5.43-6.4-7.64-5.01-4.44-11.35-8.24-17.89-9.81-.49-.12-.76.62-.26.76h0Z"/>
        <path class="cls-2" d="M45.87,55.93c.29,3.45.58,6.89.64,10.36.05,3.09-.26,6.25.06,9.32.05.48.71.34.78-.06.62-3.28.32-6.86.19-10.18s-.29-6.45-.67-9.65c-.08-.66-1.06-.43-1.01.21h0Z"/>
        <path class="cls-2" d="M50.87,84.86c.24-6.62.34-13.38.11-20-.01-.36-.52-.4-.56-.03-.8,6.53-.91,13.41-.51,19.98.04.6.93.69.96.06h0Z"/>
        <path class="cls-2" d="M49.59,57.39c.57-6.19-1.95-12.56-5.21-17.7-1.62-2.57-3.51-4.96-5.56-7.2-1.94-2.12-4.17-4.93-7.06-5.69-.61-.16-1.11.68-.51,1.04,4.87,2.93,9.06,7.96,12.11,12.69,3.33,5.16,4.96,10.71,5.31,16.81.03.58.86.66.92.06h0Z"/>
        <path class="cls-2" d="M41.57,29.61c3.92,4.3,6.65,9.01,8.11,14.68.77,2.98,1.21,6.04,1.47,9.11s.12,6.52.84,9.62c.09.41.63.33.69-.05.54-3.19.16-6.66-.12-9.87-.3-3.42-.81-6.84-1.76-10.14-1.51-5.25-4.12-10.74-8.56-14.12-.47-.36-1.07.35-.68.78h0Z"/>
        <path class="cls-2" d="M52.83,69.58c-.01,2.89-.02,5.79.32,8.66.05.42.66.33.7-.05.32-2.83.11-5.7.09-8.54,0-.71-1.11-.79-1.11-.07h0Z"/>
        <path class="cls-2" d="M54.93,56.35c.1-5.95,1.44-11.98,4.41-17.18,1.29-2.26,2.88-4.33,4.75-6.14.89-.86,1.83-1.66,2.82-2.4,1.05-.79,2.26-1.36,3.22-2.26.3-.28.05-.81-.36-.72-2.35.52-4.67,2.57-6.38,4.18-2.03,1.92-3.79,4.15-5.2,6.56-3.2,5.43-4.5,11.63-4.42,17.88,0,.75,1.16.83,1.17.07h0Z"/>
        <path class="cls-2" d="M53.54,43.77c.21-2.71.55-5.29,1.55-7.83.49-1.26,1.09-2.48,1.8-3.63.62-.99,1.4-1.89,1.85-2.97.14-.34-.29-.74-.62-.53-2.12,1.37-3.43,4.42-4.25,6.72-.94,2.63-1.47,5.52-1.22,8.32.05.52.86.43.9-.07h0Z"/>
      </g>
    </g>
  </g>
</svg>