<?xml version="1.0" encoding="UTF-8"?>
<svg id="Capa_2" data-name="Capa 2" xmlns="http://www.w3.org/2000/svg" viewBox="0 0 100 100">
  <defs>
    <style>
      .cls-1 {
        fill: #d6db73;
      }

      .cls-2 {
        fill: #fff;
      }

      .cls-3 {
        fill: none;
      }

      .cls-4 {
        fill: #6a8c2a;
      }

      .cls-5 {
        fill: #4a2d2d;
      }
    </style>
  </defs>
  <g id="COLOR">
    <g>
      <g>
        <g>
          <path class="cls-1" d="M37.34,66.15s.41-.41,1.9,3.14c1.49,3.55,2.97,11.56,2.97,11.56,0,0-2.64,9.91,2.48,13.95,5.12,4.05,8.67-.41,8.67-.41,0,0,3.22-.66,6.19-6.36s3.38-11.31,4.87-16.26c1.49-4.95,2.15-6.93,2.89-8.09s1.16-13.29-.41-16.84c-1.57-3.55-8.83-33.11-14.2-30.38s-18.33,22.54-19.98,26.25,4.62,23.45,4.62,23.45Z"/>
          <path class="cls-4" d="M35.44,11.99s-2.81-4.46-7.18-2.89c-4.38,1.57-5.37,8.67-4.87,12.88.5,4.21,1.24,5.37-.17,8.17s-6.77,8.67-5.7,13.62c1.07,4.95,5.04,7.1,6.03,8.83s-.99,6.6,1.49,9.58c2.48,2.97,6.52,2.64,8.67,2.81,2.15.17,3.63,1.16,3.63,1.16,0,0,.74-1.82,1.16-4.13.41-2.31.58-4.05.58-4.05,0,0,1.4,1.82,2.81,3.47s1.9,3.05,1.9,3.05c0,0,1.67-3.08,3.9-10.09,2.23-7.02,2.17-13.66,2.66-18.45.5-4.79,1.49-16.59,1.49-16.59,0,0,1.22,17.77,2.04,25.7.83,7.93,1.38,12.59,2.95,15.98s2.97,4.79,2.97,4.79c0,0,.33-2.72,1.4-3.8s2.48-2.23,3.05-3.63.58.99,1.32,3.05,1.4,2.97,1.4,2.97c0,0,1.9-2.64,4.87-2.72s4.13-.91,4.79-3.14-.5-4.13.5-6.03c.99-1.9,1.98-2.81,1.32-5.53-.66-2.72-2.06-4.38-1.57-6.93s3.88-9.08,1.98-12.88c-1.9-3.8-4.95-3.14-6.11-7.35-1.16-4.21,1.82-10.24-2.56-11.97s-7.43,1.24-7.43,1.24c0,0-.49-4.16-5.94-5.04-4.62-.74-5.7,1.82-9,2.23-3.3.41-4.71-1.07-8.26.74-3.33,1.7-4.13,4.95-4.13,4.95Z"/>
          <path class="cls-2" d="M34.93,29.82c.19-1.76-.22-3.65-.6-5.37s-.58-3.6-1.42-5.18c-.28-.52-1.24-.31-1.17.32.22,1.83.96,3.56,1.22,5.4.24,1.66.25,3.38.63,5.02.19.8,1.27.54,1.34-.18h0Z"/>
          <path class="cls-2" d="M68.18,38.8c1.85-1.4,3.73-3.01,4.97-5,.21-.34-.27-.71-.55-.42-1.6,1.66-3.03,3.45-4.75,4.99-.23.2.08.62.33.43h0Z"/>
          <path class="cls-2" d="M66.75,52.93c2.66-1.93,5.18-4.18,7.06-6.89.2-.29-.25-.64-.49-.38-2.22,2.39-4.42,4.71-7,6.72-.31.24.1.79.43.55h0Z"/>
          <path class="cls-2" d="M28.55,34.23c1.77,3.04,4.11,6.5,7.1,8.46.31.2.59-.23.37-.49-1.1-1.32-2.43-2.45-3.54-3.77-1.22-1.44-2.32-2.97-3.32-4.56-.24-.38-.84-.04-.61.36h0Z"/>
          <path class="cls-2" d="M26.17,46.78c1.19,1.15,1.98,2.62,3.07,3.86s2.45,2.43,3.81,3.5c1.73,1.36,4.13,3.81,6.52,3.45.34-.05.24-.49,0-.59-2.79-1.16-5.04-2.79-7.36-4.77-2.09-1.79-3.49-4.15-5.5-5.99-.36-.33-.9.2-.54.54h0Z"/>
          <path class="cls-2" d="M37.93,60.36c-1.7-.51-3.27-1.27-4.94-1.84-.33-.11-.61.36-.34.59,1.38,1.21,3.39,1.81,5.18,2.03.46.06.52-.66.11-.79h0Z"/>
        </g>
        <path class="cls-2" d="M63.28,40.72c-1.16,2.46-2.13,4.7-3.86,6.84-1.47,1.83-3.14,3.5-4.81,5.15.02.11.03.22.04.33.02.19.04.38.06.58.02-.01.04-.02.05-.03,3.51-3.3,8.35-7.56,9.08-12.62.05-.31-.4-.59-.56-.24Z"/>
        <path class="cls-2" d="M53.91,44.09c2.5-3.17,4.89-6.58,6.55-10.27.16-.37-.34-.68-.55-.32-2.09,3.48-4.08,6.94-6.52,10.19-.23.3.29.7.53.41h0Z"/>
        <path class="cls-2" d="M58.67,19.46c-.83,2.6-1.8,5.14-2.95,7.61-.99,2.13-2.36,4.13-3.18,6.32-.14.38.42.7.68.4,1.63-1.91,2.65-4.52,3.65-6.81,1.03-2.37,1.91-4.8,2.67-7.28.17-.56-.7-.8-.88-.24h0Z"/>
        <path class="cls-2" d="M42.95,17.7c1.22,3.1,2.42,6.21,3.66,9.3.83,2.08,1.77,4.42,3.77,5.63.42.25.87-.33.52-.68-1.97-1.99-2.96-4.18-4.02-6.75-1.07-2.57-2.14-5.13-3.21-7.7-.18-.43-.89-.25-.72.2h0Z"/>
        <path class="cls-2" d="M49.61,44.11c.03-.22.1-.43.14-.65.01-.08.05-.14.09-.2-1.37-2.22-3.68-3.82-5.39-5.75-2.53-2.85-4-6.38-4.44-10.15-.06-.52-.87-.55-.84,0,.25,3.46,1.41,6.75,3.49,9.54,1,1.35,2.2,2.52,3.42,3.67,1.3,1.24,2.36,2.57,3.47,3.96.02-.14.03-.28.05-.42Z"/>
        <path class="cls-2" d="M47.99,54.44c.03-.16.06-.33.08-.49,0-.05.02-.1.02-.16,0-.03,0-.05,0-.08,0-.11,0-.23,0-.34,0-.07.01-.14.04-.2-1.03-1.93-2.7-3.65-3.95-5.39-1.71-2.37-2.89-4.94-4.39-7.41-.23-.37-.77-.12-.68.29.56,2.58,2.31,5,3.81,7.12,1.6,2.25,3.39,4.34,4.99,6.59.02.03.04.04.07.06Z"/>
        <path class="cls-1" d="M44.29,64.32c3.68-6.73,5.19-14.33,6.19-21.86.52-3.86.89-7.74,1.28-11.62.37-3.64.97-7.38.71-11.04-.05-.66-1.08-.67-1.04,0,.33,5.08.69,10.15,1.12,15.22.61,7.2.93,14.54,2.47,21.62.72,3.33,2.02,6.51,4.54,8.92.33.32.84-.19.51-.51-4.86-4.65-5.1-12.69-5.71-18.93-.68-6.96-1.05-13.93-1.53-20.91-.12-1.81-.24-3.61-.36-5.42h-1.04c.24,3.36-.29,6.74-.56,10.08-.31,3.76-.53,7.53-.93,11.29-.84,7.95-2.74,15.6-6.3,22.78-.21.43.42.81.65.38h0Z"/>
        <path class="cls-5" d="M67.57,35.1c-.38-2.65.55-4.96,1.27-7.46,1.13-3.92.33-6.93-3-9.44-.87-.66-1.83-1.26-2.29-2.29-.52-1.14-.24-2.4-.2-3.6.07-1.74.03-3.62-.98-5.06-.73-1.04-1.78-1.79-2.89-2.36.19.1,1.54,1.61,1.8,2.3.39,1.02.62,2.1.69,3.19.09,1.57-.51,3.16-.22,4.72.26,1.43.77,2.74,1.86,3.66,1.07.9,3,1.77,3.66,3.05.97,1.87.31,4.13-.28,6-1.12,3.53-1.54,6.32-.51,9.94.46,1.63,1.07,3.24,1.34,4.93.34,2.21-.82,3.84-1.84,5.77-.67,1.26-1.31,2.47-1.58,3.88-.37,1.95.29,4.11-.94,5.83-.9,1.24-2.07,2.26-2.91,3.56-.86,1.34-1.26,2.87-1.47,4.44-.53,4.08-.39,8.19-1.08,12.27-.64,3.76-1.39,8.33-3.03,11.79-1.55,3.28-5.87,7.96-9.41,3.87-4.58-5.3-1.44-14.03-.61-19.99.44-3.12.58-7.02-.58-9.99-1.2-3.08-2.82-5.64-5.02-8.05-1.25-1.37-2.61-2.8-3.2-4.6-.65-1.97,0-3.94.53-5.85.92-3.26.04-5.41-1.6-8.22-2.2-3.77-.11-6.47,1.5-9.93.61-1.3,1.1-2.7,1.07-4.16-.03-1.85-1.02-4.5-1.42-6.27-.33-1.48-.44-3.1-.19-4.63.28-1.75,1.28-2.91,1.99-4.41-.66.48-1.26,1.16-1.67,1.86-2,3.41-1.29,7.39-.25,10.96,1.18,4.06-1.9,6.95-3.22,10.52-1.28,3.45.48,5.72,1.92,8.74,1.8,3.78-1.23,7.41-.35,11.27.86,3.76,4.31,6.4,6.47,9.4,2.53,3.52,3.53,7.25,3.02,11.55-.81,6.8-4.82,14.95-.58,21.39,1.68,2.56,4.68,3.99,7.57,2.5,3.21-1.65,5.2-5.12,6.39-8.39,1.51-4.13,2.31-8.56,2.81-12.92.48-4.27-.43-9.74,2.46-13.28.96-1.17,2.1-2.21,2.78-3.59.97-1.96.24-4.04.8-6.06.49-1.75,1.7-3.23,2.4-4.89.73-1.73.81-3.49.53-5.33-.35-2.24-1.19-4.36-1.51-6.6Z"/>
        <path class="cls-5" d="M57.08,91.6c2.41-2.33,3.85-5.36,4.83-8.54,1.18-3.84,1.98-7.94,2.66-11.89.08-.45-.54-.63-.69-.19-1.17,3.44-1.45,7.19-2.37,10.7-.92,3.52-2.4,6.79-4.8,9.54-.22.25.13.61.37.37h0Z"/>
        <path class="cls-5" d="M33.24,65.22c2.17.42,4.43.97,5.43,3.16.9,1.96,1.15,4.17,1.63,6.25.09.39.74.32.71-.1-.16-2.34-.66-5.57-2.1-7.51-1.3-1.75-3.51-2.11-5.52-2.39-.37-.05-.54.5-.16.58h0Z"/>
      </g>
      <rect class="cls-3" width="100" height="100"/>
    </g>
  </g>
</svg>