<?xml version="1.0" encoding="UTF-8"?>
<svg id="Capa_2" data-name="Capa 2" xmlns="http://www.w3.org/2000/svg" viewBox="0 0 100 100">
  <defs>
    <style>
      .cls-1 {
        fill: none;
      }

      .cls-2 {
        fill: #6a8c2a;
      }

      .cls-3 {
        fill: #4a2d2d;
      }

      .cls-4 {
        fill: #f4f5d8;
      }
    </style>
  </defs>
  <g id="COLOR">
    <g>
      <g>
        <path class="cls-2" d="M39.29,67.13s-.6-5.27-2.87-9.1c-2.28-3.83-4.31-6.83-4.43-11.74s2.52-6.59,1.8-9.94c-.72-3.35-4.31-7.55-.48-9.94,3.83-2.4,5.27-1.2,7.91-4.91s2.64-6.35,6.59-8.5c3.95-2.16,6.35-.72,9.22-4.67s5.75-6.59,9.58-5.15,3.83,5.75,5.99,6.47c2.16.72,4.31.12,4.55,2.87s-3.71,6.23-2.16,8.98c1.56,2.76,3.71,7.19,2.99,12.1-.72,4.91-3.11,7.43-2.16,9.22.96,1.8,2.04,3.71,1.08,6.35s-4.19,3.47-5.27,6.23c-1.08,2.76-.6,8.15-5.27,11.26-4.67,3.11-12.22,1.56-15.93,2.28s-6.95,1.44-6.95,1.44l-4.19-3.23Z"/>
        <path class="cls-4" d="M31.08,95.54c-1.99,0-3.54-1.27-4.05-3.3-.89-3.55,1.34-7.43,3.13-10.55.16-.28.31-.54.46-.81.36-.63.72-1.26,1.09-1.89.65-1.12,1.31-2.23,1.98-3.34.97-1.62,1.97-3.3,2.92-4.97l.21-.37c1.71-2.99,3.32-5.81,4.41-9.04.2-.6.43-1.21.65-1.8.41-1.11.84-2.25,1.14-3.42,1.04-4.02-.83-6.94-2.81-10.03-.43-.67-.87-1.37-1.29-2.07-.6-1.03-1.1-2.08-1.49-3.13-.5-1.36-.83-2.76-.96-4.16-.13-1.37-.24-2.94.17-4.29.03-.11.17-.49.45-.49.28.03.36.36.41.93.03.4.14,1.09.23,1.5.33,1.64.94,3.24,1.81,4.76l.07.13c.85,1.49,2.13,3.74,3.82,4.61l.17.09-.1-.16c-1.4-2.34-1.98-5.63-2.44-8.26l-.08-.47c-.63-3.6-.3-7.21.07-9.95.05-.41.3-.59.52-.59,0,0,.04,0,.05,0,.21,0,.44.15.49.36.56,2.19.97,4.38,1.37,6.49.38,2,.77,4.06,1.27,6.12.88,3.58,2.01,7.35,3.35,11.22l.05.14.05-.14c.98-2.62,1.37-4.75,1.27-6.9-.07-1.58-.46-3.12-.82-4.62-.28-1.14-.57-2.32-.72-3.5-.65-5.06.78-11.21,3.74-16.03.12-.2.3-.32.48-.32.1,0,.19.04.26.11.09.1.12.26.09.44l-.07.42c-.41,2.61-1.09,6.97-1.13,9.64l.11.02c.43-1.39,1.24-3.89,1.8-5.05,1.2-2.5,2.68-5.27,4.64-6.91.18-.15.39-.24.59-.24.18,0,.33.07.42.18.09.11.12.26.08.42h0v.04c-.59,2.47-1.53,4.89-2.44,7.23-.54,1.38-1.09,2.82-1.57,4.23-.57,1.7-1.26,3.96-1.52,6.33-.16,1.48-.12,3.65.27,4.92l.06.19.05-.19c.28-1.11.88-2.91,1.8-5.34.33-.87.6-1.68.87-2.46.39-1.13.75-2.19,1.24-3.39,1.56-3.84,3.4-7.75,5.63-11.97.13-.25.32-.42.45-.42.05,0,.09.02.12.06.07.09.2.39-.05,1.36-1.68,5.28-2.76,10.72-3.73,15.82l-.03.13.11-.08c.59-.43,1.13-1.16,1.56-1.75.15-.2.28-.38.4-.53.53-.66,1.05-1.35,1.55-2.02.21-.28.42-.56.64-.84.81-1.07,1.86-2.17,2.87-3.23.52-.55,1.02-1.07,1.49-1.59.15-.17.38-.27.61-.27.18,0,.34.06.45.17.1.1.15.25.14.42-.2,3.48-2.46,6.61-4.41,8.94-.59.71-1.22,1.41-1.83,2.09-.65.72-1.32,1.47-1.95,2.24-.91,1.1-1.6,2.14-2.32,3.23-.18.27-.36.54-.55.82l-.1.15.17-.07c.99-.43,2.03-.82,3.03-1.2,1.22-.46,2.49-.94,3.68-1.49,1.31-.6,2.65-1.32,3.99-2.13.62-.37,1.24-.77,1.92-1.22.32-.21.63-.42.95-.64.06-.04.12-.09.19-.13.27-.19.54-.39.81-.39.18,0,.34.08.51.25.2.2.24.48.1.69-2.2,3.32-5.98,6.2-9.41,7.16l-.13.04.52.29c.82.46,1.66.93,2.53,1.33.71.33,1.48.54,2.23.74l.1.03c.13.04.27.07.41.11.61.15,1.24.31,1.75.63.13.08.26.23.21.42-.02.09-.09.17-.19.24-.23.15-.53.23-.82.3-.07.02-.15.04-.22.06-.36.1-.73.17-1.11.21-.25.03-.51.04-.77.04-.44,0-.91-.04-1.4-.11-1.1-.17-2.18-.48-3.23-.79-1.47-.43-2.99-.88-4.57-.91h-.13c-4.22,0-5.91,4.2-7.41,7.91-.21.51-.41,1.01-.62,1.5l.09.06c2.05-1.82,4.1-3.18,6.09-4.04,1.84-.8,3.77-1.24,5.44-1.24,1.32,0,2.49.27,3.47.8.12.06.18.16.19.27,0,.13-.06.26-.18.35-.04.03-.06.04-.08.05-.04.02-.06.03-.08.04-.68.27-1.7.52-2.6.75-.42.11-.81.2-1.14.3-.9.25-1.89.72-2.75,1.13-.18.09-.36.17-.53.25-.82.38-1.59.86-2.33,1.32-.27.17-.54.34-.81.5l.06.09s.12-.03.24-.03c.05,0,.22,0,.26,0h.04c.2-.01.41-.02.61-.02.17,0,.34,0,.5,0,.23,0,.45,0,.68.01,1.53.05,2.98.26,4.33.62.71.19,1.39.43,2.01.7l.06.03c.45.19,1.06.46.94,1.03-.08.41-.48.56-.8.56-.03,0-.05,0-.08,0-1.26-.09-2.38-.14-3.45-.14-3.59,0-6.39.52-8.56,1.6-3.04,1.51-4.64,4.91-5.89,7.99-.96,2.4-1.88,4.85-2.77,7.23-1.25,3.33-2.54,6.77-3.95,10.09-.14.32-.28.66-.42.99-1.39,3.34-3.13,7.49-6.07,9.68-.97.72-2.11,1.12-3.21,1.12h0Z"/>
        <path class="cls-3" d="M43.53,43.85c.53.56,1.2.9,1.43.8.11-.09.18-.22.08-.4-3.28-6.26-3.73-12.78-3.72-19.8-.16.09-.3.28-.34.58-.44,3.33-.65,6.66-.07,9.97.48,2.72,1.12,6.36,2.61,8.85Z"/>
        <path class="cls-3" d="M49.41,41.76c.11,2.34-.49,4.87-1.26,6.99.1.54.31,1.08.39,1.27,1.32-3.51,2.33-8.94,1.12-13.85-.78-3.14-.82-7.44-.12-10.6.2-.9,2-6.52,2.78-8.29-.21-.11-.51-.03-.71.3-2.78,4.54-4.43,10.76-3.74,16.07.35,2.74,1.42,5.34,1.55,8.11Z"/>
        <path class="cls-3" d="M65.82,56.65c-2.18-1-5.02-1.1-7.34-.85-2.44.26-4.9,1.07-6.85,2.6-.5.39-.96.82-1.37,1.3-.25.29-.49.6-.71.92-2.3,3.38-3.66,7.31-5.14,11.1-1.66,4.26-7.34,17.23-8.36,19-1.11,1.94-5.02,6.11-7.11,2.95-2.51-3.8,1.55-10.3,2.64-12.22,4.18-7.35,10.53-15.82,12.93-24.01,1.28-4.35.27-7.71-2.25-11.35-1.3-1.89-2.97-3.54-3.79-5.71-.22-.58-.46-1.28-.67-2.1-.31-.78-.54-1.6-.67-2.45-.2-1.29-.3-2.7-.13-4.02-.22.05-.36.31-.42.51-.41,1.35-.31,2.92-.17,4.31.14,1.42.47,2.83.97,4.17.4,1.09.91,2.14,1.49,3.14,2.3,3.93,5.35,7.19,4.1,12.07-.46,1.79-1.2,3.48-1.79,5.22-1.14,3.36-2.87,6.34-4.62,9.41-1.59,2.79-3.27,5.53-4.9,8.31-.37.63-.73,1.26-1.09,1.89-1.82,3.22-4.57,7.5-3.6,11.39.89,3.55,4.6,4.25,7.35,2.21,3.24-2.42,4.98-7.1,6.51-10.69,2.42-5.7,4.42-11.57,6.72-17.32,1.22-2.98,2.82-6.45,5.87-7.96,3.5-1.73,8.17-1.74,11.98-1.45.26.02.53-.05.71-.23-.1-.05-.2-.1-.3-.15Z"/>
        <path class="cls-3" d="M51.61,29.25c.31-.41.39-.99.54-1.46.19-.59.39-1.17.59-1.76.39-1.15.89-2.25,1.44-3.34,1.17-2.35,2.62-4.65,4.6-6.4.53-.46-.26-1.25-.77-.77-2.03,1.88-3.46,4.31-4.71,6.75-.58,1.14-1.11,2.28-1.49,3.51-.19.61-.34,1.23-.48,1.86-.11.5-.3,1.05-.19,1.56.05.24.36.22.48.06h0Z"/>
        <path class="cls-3" d="M63.7,15.33c-.64.35-1.01,1.12-1.37,1.73-.43.74-.86,1.49-1.27,2.25-.82,1.51-1.57,3.05-2.3,4.61-1.44,3.11-2.72,6.28-3.86,9.5-.31.89-.61,1.79-.89,2.68s-.6,1.48-.69,2.43c-.04.43.38.94.57.59.39-.7.66-1.52.91-2.28.27-.79.55-1.57.83-2.36.57-1.59,1.15-3.18,1.78-4.75,1.25-3.12,2.61-6.18,4.07-9.22.78-1.63,1.51-3.37,2.56-4.84.16-.22-.14-.47-.35-.35h0Z"/>
        <path class="cls-3" d="M60.28,32.98c.93-.47,1.73-1.23,2.42-2.01.72-.81,1.36-1.68,2.01-2.56s1.27-1.74,1.93-2.6c.3-.39.61-.77.94-1.13.36-.41.73-.88,1.13-1.25.14-.13.45-.47.68-.39.25.09.08.52.04.72-.12.57-.3,1.14-.46,1.7-.32,1.11-.93,2.21-1.58,3.16-1.3,1.92-2.69,3.76-4.14,5.56-.79.98-1.59,1.96-2.39,2.93-.81.99-1.72,2.01-2.34,3.13-.27.5.52.82.93.43.91-.88,1.53-1.78,2.31-2.76.79-.98,1.57-1.97,2.33-2.97s1.52-2.06,2.23-3.14,1.28-2.14,1.87-3.25c.58-1.09,1.21-2.19,1.7-3.33.23-.53.37-1.13.45-1.7s-.05-1.08-.62-1.28c-.44-.15-.9,0-1.27.25-.51.35-1,.75-1.45,1.19-.84.82-1.61,1.73-2.32,2.66-.8,1.06-1.58,2.13-2.36,3.21s-1.61,2.05-2.3,3.14c-.11.18.11.36.27.27h0Z"/>
        <path class="cls-3" d="M64.71,41.71c1-.1,2.05-.6,2.96-1,1.01-.44,1.95-1.07,2.82-1.75s1.66-1.39,2.35-2.23c.34-.41.66-.83.98-1.25.3-.4.6-.84.66-1.34.01-.13-.14-.19-.24-.14-.42.23-.72.65-1.01,1.02-.33.4-.68.78-1.05,1.14-.72.71-1.48,1.4-2.29,2.02s-1.67,1.16-2.54,1.68c-.44.27-.89.53-1.35.76s-.96.39-1.4.65c-.18.11-.12.45.11.42h0Z"/>
        <path class="cls-3" d="M72.13,44.86c-.85.63-1.83.67-2.84.58-1.09-.09-2.16-.25-3.22-.49-1.03-.22-2.04-.48-3.05-.76s-2.03-.52-3.08-.55c-1.97-.04-3.72.97-4.96,2.46-.79.95-1.34,2.08-1.9,3.18-.59,1.17-1.08,2.37-1.59,3.57-.21.51.52.96.76.44.45-.98.99-1.9,1.47-2.86.55-1.09,1.08-2.24,1.8-3.23,1.09-1.49,2.71-2.48,4.59-2.41,1.06.04,2.09.33,3.1.6s2.03.52,3.07.69c1.11.18,2.25.3,3.37.12,1.01-.16,2-.28,2.83-.93.24-.19-.08-.62-.33-.43h0Z"/>
        <path class="cls-3" d="M55.99,54.42c.94-.45,1.9-.86,2.84-1.3s1.9-.9,2.89-1.28,1.9-.69,2.88-.96c.51-.14,1.02-.26,1.52-.39.42-.11.95-.29,1.23-.64.21-.26.02-.61-.32-.55-.48.09-.96.29-1.45.41-.51.13-1.03.26-1.54.41-1,.29-1.98.63-2.94,1.02s-1.9.79-2.78,1.3-1.71,1.14-2.5,1.8c-.12.1.03.27.16.21h0Z"/>
      </g>
      <rect class="cls-1" width="100" height="100"/>
    </g>
  </g>
</svg>