<?xml version="1.0" encoding="UTF-8"?>
<svg id="Capa_2" data-name="Capa 2" xmlns="http://www.w3.org/2000/svg" viewBox="0 0 100 100">
  <defs>
    <style>
      .cls-1 {
        fill: #e01f4c;
      }

      .cls-2 {
        fill: #fff;
      }

      .cls-3 {
        fill: none;
      }

      .cls-4 {
        fill: #4a2d2d;
      }
    </style>
  </defs>
  <g id="COLOR">
    <g>
      <g>
        <path class="cls-1" d="M80.05,70.43c-1.91-7.63-11.79-12.97-22.29-7.98.28.47.59.88,1.2,1.09.83.29,1.86-.13,2.64-.44,1.79-.7,3.48-1.75,5.46-1.74.68,0,1.06,1.05.37,1.36-1.23.55-2.36,1.27-3.54,1.93-.52.29-1.06.56-1.55.9-.04.03-.08.06-.12.1.12.03.22.05.25.06.32.05.64.1.96.15.61.1,1.21.2,1.81.33,1.26.27,2.47.67,3.62,1.26.68.35.4,1.25-.19,1.49-1.27.5-2.72.6-4.05.35-.93-.17-1.93-.55-2.89-.51.16.94.16,1.89.28,2.85.16,1.29.39,2.55.43,3.85.02.66-1.01.99-1.3.35-.49-1.1-.77-2.29-1.23-3.41-.35-.83-.73-1.71-1.39-2.34-.32-.31-.65-.5-1.11-.45-.67.06-1.33.44-1.93.71-1.31.59-2.58,1.22-3.77,2.02-.63.43-1.42-.59-.82-1.06.81-.63,1.31-1.55,2.08-2.22.7-.6,1.48-1.08,2.22-1.62.37-.27.72-.55,1.04-.89.12-.13.35-.34.4-.52.04-.16-.06-.32-.13-.46-.32-.67-.59-1.33-.82-2.02-10.67,6.46-13.7,18.97-6.14,24.99,7.67,6.1,18.57,4.45,25.19-2.62,6.62-7.06,5.96-12.94,5.32-15.52Z"/>
        <path class="cls-4" d="M70.43,67.74c-1.95-1.13-4.59-2.1-6.7-2.37,1.53-.61,3.43-1.64,4.64-2.52.69-.5.71-1.71-.25-1.94-2.23-.53-4.33-.03-6.34,1.02-.46.24-1.2,1-1.66,1.03-.94.06-1.28-1.21-1.54-1.85-.32-.81-.74-2.5-.88-3.35-.55-.17-1.07-.44-1.52-.72-.14-.08-.26-.18-.39-.27.18,2.36.87,6.17,2.83,7.35,1.11.67,2.21-.11,3.23-.58.78-.35,3.31-1.34,5.43-1.43-.97.63-4.21,2.6-5.23,3.16-.91.5-.56.84.31.87,1.68.07,4.71,1.02,6.58,2.11-2.81.78-5.03.3-6.76.04-.71-.1-1.17-.16-.94.63.5,1.75.85,4.86.57,6.91-.48-.79-1.38-3.29-1.79-4.12-.43-.9-.61-2.21-1.77-2.44-1.04-.21-6.69,2.59-7.47,2.92,2.03-3.23,4.94-4.69,6.3-5.51.45-.27.75-.78.41-1.24-1.1-1.52-1.52-2.95-2.22-4.7-.71-1.77-.88-4.36-1.53-6.13-.2-.56-1.26-1.19-1.39-.48-.65,3.5,1.27,8.82,3.32,11.76-2.69,1.7-5.48,3.85-6.46,6.91-.18.56.39,1.04.92.92,1.45-.33,2.82-.94,4.21-1.46.58-.22,1.16-.44,1.74-.66.84-.32,1.06-.57,1.61.15,1.47,1.93,1.59,4.19,3.71,5.7.51.36,1.4,0,1.51-.61.4-2.27.44-4.51.08-6.75,2.39.45,4.98.22,7.24-.58.76-.27.99-1.33.23-1.76Z"/>
        <path class="cls-1" d="M51.37,55.87c-.58-4.27-3.69-8.85-7.98-11.97-.04.88-.22,1.77-.4,2.59-.12.56-.33,1.1-.44,1.67-.08.43-.15.79.24,1.01.56.31,1.26.38,1.88.51.71.15,1.42.34,2.01.78.57.42,1.01.95,1.43,1.51.16.21.32.43.49.65.36.3.7.62,1,.96.72.8-.37,1.88-1.17,1.17-1.51-1.32-3.07-2.39-5.03-2.92-.33-.09-.71-.2-1.07-.28-.13,1.65-.1,3.31-.1,4.97,0,.73-1.03,1.04-1.4.38-.49-.9-.8-1.86-.95-2.87-.07-.49-.11-.96-.11-1.45-.05-.03-.1-.06-.14-.1-.27-.26-.41-.56-.44-.85-2.2.39-4.25,1.55-6.45,1.96-.84.16-1.33-.91-.58-1.39,1.1-.7,2.15-1.5,3.38-1.96.5-.19,1.03-.33,1.53-.54.17-.07.5-.18.62-.33.08-.11.06.05.06-.1,0-.06-.07-.14-.13-.21-.79-.54-1.41-1.27-1.94-2.08-.03-.05-.07-.1-.1-.16-.79-.83-1.52-1.7-1.9-2.79-.06-.1-.12-.2-.17-.3-.27-.54.18-1.31.83-1.08,1.39.47,2.45,1.67,3.41,2.73.43.48.82.97,1.12,1.55.09.17.21.34.3.51.79-1.57,1.59-3.42,1.49-5.23-2.9-1.51-6.15-2.33-9.43-2.03-9.68.87-14.03,11.24-11.77,20.83,2.27,9.59,10.02,14.64,20.92,11.07,10.9-3.57,11.36-13.44,10.98-16.21Z"/>
        <path class="cls-1" d="M81.62,35.91c-3.66-11.85-16.65-12.73-23.88-8.02-3.58,2.33-5.74,6.34-6.91,10.45,1.49.24,2.95.69,4.42,1.02,1.36.3,3.02.82,4.32.06,1.11-.65,1.85-1.95,2.6-2.95.91-1.22,1.66-2.63,2.96-3.48.5-.33,1.28.23,1.05.81-.37.95-.98,1.78-1.52,2.64-.5.8-1.07,1.65-1.27,2.58-.03.12-.04.32-.03.41,0,.1.02.11.06.16.04.05.2.14.32.2.16.07.39.14.58.18.94.23,1.89.31,2.85.38.49.04.96.11,1.45.17.72.1,1.45.12,2.17.22,0,0,0,0,0,0h0c.07.01.15.02.22.03.97.15.69,1.64-.22,1.66-1.47.03-2.89.51-4.31.87-.53.14-1.06.24-1.6.34.05.1.09.2.14.28.18.3.35.61.49.93.27.6.48,1.22.62,1.86.28,1.24.38,2.51.67,3.75.24,1.04-1.2,1.4-1.57.43-.59-1.54-1.56-2.9-2.46-4.29-1.79,1.94-3.82,3.67-6.11,4.99-.53.3-1.39-.22-1.12-.86.36-.87.9-1.59,1.46-2.34.61-.82,1.1-1.71,1.64-2.57.36-.57.75-1.1,1.21-1.6.34-.37.74-.73.97-1.19-.17-.04-.52-.1-.6-.11-.86-.03-1.71.18-2.57.12-.94-.06-1.88-.26-2.8-.42-.82-.14-1.63-.29-2.44-.47-.78-.18-1.54-.4-2.28-.7-.53,3.13-.52,6.09-.15,8.14.96,5.4,8.46,13.77,21.01,7.76,12.55-6.01,11.68-18.05,10.63-21.44Z"/>
        <path class="cls-4" d="M72.79,40.66c-2.6-1.1-5.28-1.66-8.05-1.87,1.24-1.78,2.04-3.74,2.39-5.96.11-.69-.54-1.33-1.22-.94-2.87,1.63-5.16,3.94-6.76,6.81-1.36.08-2.42.03-3.74-.24-1.9-.38-3.71-1.41-5.45-2.27-3.16-1.57-6.03-3.71-8.65-6.06-4.25-3.8-9.15-10.6-15.53-10.33-2.4.1-3.95,1.97-3.11,4.36.89,2.52,4.08,4.3,6.14,5.77,5.13,3.64,12.52,8.88,10.2,16.03-1.25-2-3.59-3.39-5.55-4.56-.55-.33-1.3.22-1.11.85.78,2.48,1.99,4.78,3.74,6.67-2.25,1.09-4.07,2.59-5.85,4.45-.58.6,0,1.6.81,1.39,1.29-.33,5.2-1.14,7.38-1.97.13.52.96,3.86,2.72,5.56.36.35.89.13,1.03-.27.54-1.52.82-3.35,1-4.94,2.13.62,4.2,2.02,6.18,2.97.79.38,1.69-.24,1.48-1.14-.82-3.42-3.63-6.32-7.14-6.38,1.06-2.58,1.01-5.67.24-8.44,1.96,1.46,4.11,2.66,6.45,3.41,2.37.76,5.2,1.32,7.86,1.16-1.5,2-2.58,4.35-3.04,6.78-.13.7.46,1.52,1.25,1.25,2.56-.9,4.44-2.66,6.16-4.64.72,1.44,1.65,2.72,2.83,3.89.51.51,1.64.35,1.76-.47.4-2.53-.02-4.85-1.18-6.99,2.39-.16,4.62-.86,6.75-2.13.58-.35.72-1.42,0-1.72ZM64.48,42.97c-.68-.03-1.03.13-.4.81,1.11,1.19,2.49,4.59,2.06,7.08-.53-.77-2.3-3.88-2.64-4.79-.24-.64-.91-.65-1.43,0-1.32,1.62-3.57,3.85-5.33,4.97.75-2.21,2.74-5.69,4.34-7.32.48-.49-.09-1.05-.49-1.23-1.06-.47-1.74-.37-2.85-.44-1.28-.08-2.56-.15-3.83-.33-.76-.11-1.51-.25-2.24-.45-3.43-.93-6.56-2.47-9.3-4.74-.79-.66-1.77.15-1.38,1.06.86,1.99,1.47,4.1,1.55,6.27.04,1.11-.08,2.22-.24,3.32-.08.55-.32,1.98,0,2.26.54.47,1.48.36,3.6,1.26,1.77.75,2.06,1.21,3.19,3.34-1.65-.84-4.82-2.66-6.66-2.74-.67-.03-.74.79-.68,1.36.17,1.55.08,2.9-.17,4.12-.49-1.12-.96-2.3-1.22-3.46-.17-.78-.24-1.63-1.13-1.94-1.06-.37-5.34,1.22-6.65,1.57,1.29-1.07,3.93-2.52,5.14-2.96.6-.22.62-.62.07-1.11-1.53-1.38-2.83-3.75-3.73-5.51,1.5,1.02,3.54,2.55,4.57,4.33,0,.01.01.03.02.04.06.1.11.2.16.3.47.94,1.31-.75,1.48-1.13.56-1.24.81-2.58.77-3.94-.09-2.84-1.34-5.58-3.01-7.84-.44-.59-.91-1.16-1.42-1.69-2.22-2.33-4.93-4.09-7.53-5.96-1.27-.92-2.68-1.85-3.73-3.02-.98-1.09-1.15-2.54.67-2.67.88-.06,1.79.21,2.59.52,3.06,1.2,5.38,3.86,7.66,6.13,2.41,2.39,4.84,4.79,7.51,6.89,2.51,1.97,5.34,3.3,8.37,4.34,1.28.44,2.72.83,4.17.98,1.24.13,2.68-.03,3.62-.93.53-.51.78-.94,1.21-1.53.47-.65.97-1.28,1.51-1.88.87-.97,1.83-1.88,2.91-2.62-.56,1.84-1.53,3.93-2.64,5.31-.47.58-.56,1.03.2,1.1,2.29.19,5.67.9,7.84,1.57-1.69.71-4.63,1.43-6.52,1.34Z"/>
        <path class="cls-2" d="M26.52,44.05c-1.42.95-2.68,2.06-3.44,3.63-.69,1.41-1.33,3.39.2,4.45.31.22.82.2,1.14,0,1.09-.7,1-1.95,1.49-3.03.51-1.13,1.31-2.18,2.07-3.15s-.21-2.72-1.46-1.89h0Z"/>
        <path class="cls-2" d="M23.37,55.98c.15,0,.3-.03.43-.1.14-.05.26-.12.36-.23.11-.1.19-.22.23-.36.07-.13.1-.28.1-.43l-.04-.3c-.05-.19-.15-.35-.29-.49l-.23-.18c-.17-.1-.36-.15-.57-.15-.15,0-.3.03-.43.1-.14.05-.26.12-.36.23-.11.1-.19.22-.23.36-.07.13-.1.28-.1.43l.04.3c.05.19.15.35.29.49l.23.18c.17.1.36.15.57.15h0Z"/>
        <path class="cls-2" d="M43.74,67.05c1.06,0,1.06-1.64,0-1.64s-1.06,1.64,0,1.64h0Z"/>
        <path class="cls-2" d="M48.62,77.97c-.59,1.31-.76,2.52-.33,3.93.38,1.25,1.28,2.8,2.68,3.01.84.12,1.7-.5,1.43-1.43s-.94-1.57-1.34-2.41c-.37-.78-.63-1.76-.67-2.62s-1.36-1.4-1.77-.48h0Z"/>
        <path class="cls-2" d="M74.7,82.4c1.23-.66,2.11-2.31,2.73-3.52.59-1.16,1.44-2.81.63-4.03-.33-.49-.97-.59-1.41-.18-.89.83-.91,2.33-1.43,3.41s-1.51,2.2-1.69,3.42c-.1.67.51,1.26,1.17.9h0Z"/>
        <path class="cls-2" d="M78.78,71.99l-.09-.4-.11-.26c-.07-.13-.16-.23-.28-.31-.19-.14-.43-.25-.67-.24-.2,0-.38.06-.56.15-.23.12-.45.41-.51.66l-.09.4c-.1.41-.01.87.31,1.16.23.21.52.35.85.35.31,0,.63-.13.85-.35.31-.31.41-.74.31-1.16h0Z"/>
        <path class="cls-2" d="M71.23,30.02c1.66,1.09,3.27,2.65,4.08,4.47.42.95,1.31,3.27,2.71,1.88,1.27-1.26-.3-3.75-1.12-4.81-1.25-1.62-2.78-2.52-4.59-3.39-1.23-.59-2.23,1.08-1.08,1.84h0Z"/>
        <path class="cls-2" d="M77.63,40.21s0,.04,0,.07l.02-.13s0,.04-.02.06l.05-.11s-.02.05-.04.07l.07-.09s-.02.03-.04.04c-.08.07-.14.21-.13.32,0,.1.03.19.1.27.06.07.14.14.24.16l.12.02c.08,0,.16-.02.23-.06.02-.01.05-.02.07-.04.05-.04.1-.07.14-.11.09-.1.15-.2.18-.33s.01-.27-.05-.38c-.04-.08-.1-.13-.18-.18-.06-.04-.12-.06-.19-.06-.14-.02-.26.01-.37.1-.12.09-.21.24-.2.39h0Z"/>
      </g>
      <rect class="cls-3" width="100" height="100"/>
    </g>
  </g>
</svg>