<?xml version="1.0" encoding="UTF-8"?>
<svg id="Capa_2" data-name="Capa 2" xmlns="http://www.w3.org/2000/svg" viewBox="0 0 100 100">
  <defs>
    <style>
      .cls-1 {
        fill: #e3365e;
      }

      .cls-2 {
        fill: #fff;
      }

      .cls-3 {
        fill: none;
      }

      .cls-4 {
        fill: #4a2d2d;
      }
    </style>
  </defs>
  <g id="COLOR">
    <g>
      <g>
        <path class="cls-1" d="M67.95,79.53c-2.87-1.95-12.27-9.16-15.24-13.94-2.97-4.78-2.22-23.97-2.22-28.83,0-1.08.25-2.05.03-2.85-1.03-.12-2.45-.56-3.28-1.12-.61-.41-1.11-.99-1.67-1.47-.02.39-.06.79-.13,1.18-.15.77-.43,1.52-.73,2.24-.36.85-.82,1.9-1.52,2.54-.41.38-1,.39-1.38-.05-.36-.42-.34-.98-.41-1.5-.12-.81-.24-1.63-.26-2.44,0-.38.03-.76.06-1.14-.63.38-1.29.7-1.97,1.03-.88.42-1.82.83-2.8.88-.83,3.61-3.05,14.2-2.17,20.08,1.07,7.17,5.52,17.38,15.57,24.63,10.05,7.25,18.7,9.8,21.91,8.48,3.21-1.32-.51-5.5-3.79-7.72Z"/>
        <path class="cls-4" d="M53.52,33.57c-.76-1.68-2.12-2.77-3.65-3.78-.69-.45-1.54-.94-2.2-1.39-1.03-.69-.81-2-.95-3.09-.48-3.52-1.79-8.3-5.2-10.11-2.45-1.3-5.75.48-3.63,3.25,1.23,1.61,2.74,2.63,3.51,4.62.63,1.62.72,3.36.4,5.04-.09,0-.18,0-.28.04-3.49,1.02-6.08,3.11-8.21,6.01-.4.55.15,1.21.72,1.25,2.39.17,4.84-.47,6.9-1.71-.04,1.49.14,2.97.56,4.46.13.47.69.7,1.11.45,2.12-1.25,3.26-3.48,3.54-5.84,1.94,1.34,4.16,2.05,6.59,2.2.77.05,1.07-.81.8-1.4ZM44.91,31.06c.45,2.08-.51,4.74-2.45,6.22-.33-1.3-.51-2.49-.19-4.96.12-.92-.15-1.5-.84-.86-1.69,1.55-4.6,2.44-6.71,2.68,1.62-1.75,4.62-3.83,6.96-4.26.56-.1.9-.48,1.05-.84,1.05-2.6.88-4.76-.19-7.34-.49-1.19-1.22-2.23-2.16-3.11-.53-.5-1.93-2.1-.61-2.19,1.08-.08,2.14,1.27,2.64,2.05.94,1.47,1.51,3.2,1.91,4.88.41,1.69.19,2.46.72,4.09.45,1.38,2.01,2.33,3.17,2.88,1.13.54,3.54,2.1,3.95,3.42-3.19-.41-5.07-1.85-6.44-3.21-.7-.69-1-.33-.8.58Z"/>
        <path class="cls-2" d="M36.55,46.33c.55.14,1.23.28,1.79.12.4-.11.74-.52.72-.95s-.29-.85-.72-.95c-.27-.06-.53-.05-.8-.07-.05,0-.1,0-.15-.01.09.01.1.02.02,0-.11-.02-.22-.04-.34-.07-.51-.12-1.1.15-1.22.69s.15,1.08.69,1.22h0Z"/>
        <path class="cls-2" d="M36.85,50.08c.34-.08.68-.14.98-.32.51-.3.51-1.05,0-1.35-.3-.18-.65-.24-.98-.32-.65-.16-1.31.32-1.31,1s.66,1.16,1.31,1h0Z"/>
        <path class="cls-4" d="M58.44,81.09c.97,0,.97-1.51,0-1.51s-.97,1.51,0,1.51h0Z"/>
        <path class="cls-4" d="M62.02,83.67c.48,0,.48-.74,0-.74s-.48.74,0,.74h0Z"/>
        <path class="cls-4" d="M63.75,81.08c.48,0,.48-.74,0-.74s-.48.74,0,.74h0Z"/>
      </g>
      <rect class="cls-3" width="100" height="100"/>
    </g>
  </g>
</svg>