<?xml version="1.0" encoding="UTF-8"?>
<svg id="Capa_2" data-name="Capa 2" xmlns="http://www.w3.org/2000/svg" viewBox="0 0 100 100">
  <defs>
    <style>
      .cls-1 {
        fill: #fff;
      }

      .cls-2 {
        fill: none;
      }

      .cls-3 {
        fill: #4a2d2d;
      }

      .cls-4 {
        fill: #f4f5d8;
      }

      .cls-5 {
        fill: #c0c728;
      }
    </style>
  </defs>
  <g id="COLOR">
    <g>
      <g>
        <g>
          <path class="cls-5" d="M83.41,54.6c-.73,6.31-3.64,15.66-8.13,21.73-1.73,2.34-4.88,4.85-8.4,7.06-5.62,3.52-8.99,10.09-12.2,10.02-3.03-.07-6.26-.92-9.47-2.02-2.32-.8-8.42-5.83-8.42-5.83,0,0-13.84-14.93-18.09-29.5-4.25-14.57-4.01-16.87.24-27.55,4.25-10.68,7.77-14.33,10.32-15.17,2.55-.85,3.77-.36,3.77-.36,0,0,2.31-5.34,11.04-6.8,1.95-.32,3.82-.5,5.61-.54.53-.01,1.05-.02,1.56-.01,5.51.09,10.01,1.41,12.86,3.23,4.01,2.55,4.73,5.46,4.73,5.46,0,0,9.35-.61,14.45,7.77s.85,26.22.12,32.53Z"/>
          <path class="cls-1" d="M76.9,26.3c-4.85,6.96-1.94,15.68-.26,23.17,1.98,8.87,2.02,18.64-2.89,26.55-.21.34.26.7.54.43,2.65-2.52,3.79-6.26,4.36-9.78.7-4.32.66-8.74.03-13.06-1.29-8.82-6.28-18.4-1.03-26.87.3-.48-.43-.9-.75-.45h0Z"/>
          <path class="cls-1" d="M82.35,33.8c-1.55,2.24-2.98,4.71-4.18,7.15-1,2.03-1.87,4.22-1.7,6.52.02.32.52.44.59.09.53-2.46,1.28-4.67,2.47-6.9s2.51-4.21,3.57-6.41c.24-.5-.43-.91-.75-.45h0Z"/>
          <path class="cls-1" d="M58.9,13.87c-.78,3.08-1.77,6.1-2.97,9.04-1.27,3.13-3.08,5.95-4.46,9.01-.16.35.3.82.59.45,1.88-2.43,3.16-5.5,4.33-8.33,1.35-3.24,2.35-6.59,3.11-10.01.09-.39-.51-.56-.6-.17h0Z"/>
          <path class="cls-1" d="M66.91,20.96c-1.61,4.67-2.62,9.43-4.7,13.96-1.81,3.95-3.93,8.37-7.22,11.29-.32.28.09.78.44.58,1.76-1.01,2.86-2.53,3.86-4.25,1.35-2.32,2.67-4.67,3.79-7.11,2.04-4.49,3.84-9.47,4.5-14.37.05-.4-.55-.43-.67-.09h0Z"/>
          <path class="cls-1" d="M68.78,42.5c-1.63,5.85-4.84,10.3-8.71,14.86-.24.28.11.61.39.39,4.61-3.62,7.5-9.51,8.88-15.09.09-.37-.47-.52-.57-.16h0Z"/>
          <path class="cls-1" d="M36.21,15.65c.32,5.11,1.6,10.1,3.38,14.89.88,2.38,1.89,4.71,3.03,6.97,1.05,2.07,2.16,4.5,3.84,6.13.24.24.76,0,.61-.36-.8-2.03-2.18-3.87-3.2-5.8-1.23-2.34-2.34-4.75-3.29-7.22-1.81-4.69-3.03-9.62-3.59-14.61-.06-.49-.82-.52-.79,0h0Z"/>
          <path class="cls-1" d="M30.35,38.7c.28,3.77,3.23,6.75,5.7,9.36,2.81,2.96,6.17,6.38,9.88,8.19.45.22.97-.35.56-.73-2.76-2.49-5.91-4.5-8.59-7.12-2.64-2.57-6.3-5.83-6.67-9.71-.05-.56-.93-.57-.88,0h0Z"/>
          <path class="cls-1" d="M43.46,67.85c-1.72-.66-3.61-.91-5.34-1.57-2.27-.86-4.38-2.03-6.35-3.44-.4-.29-.93.38-.54.69,1.84,1.44,3.8,2.66,5.94,3.6,1.73.75,3.84,1.62,5.82,1.66.14-.32.3-.63.47-.94Z"/>
          <path class="cls-1" d="M29.75,30.8c-1.46.09-3.01-3.34-3.61-4.44-.79-1.46-1.34-3.06-2.19-4.49-.2-.34-.65-.1-.6.25.34,2.36,1.74,4.68,3.02,6.64.81,1.24,1.75,3.04,3.46,2.71.38-.07.3-.7-.09-.68h0Z"/>
          <path class="cls-1" d="M16.87,40.22c1.63,2.72,3.53,5.26,5.74,7.55s4.62,4.65,7.42,5.88c.3.13.68-.24.38-.5-2.25-2.03-4.82-3.62-6.98-5.79-2.26-2.27-4.21-4.8-5.88-7.53-.26-.43-.94-.04-.68.4h0Z"/>
          <path class="cls-3" d="M68.32,13.94c.91,3.05,1.84,5.87,1.89,9.1.05,3.15-.9,6.22-.71,9.37.33,5.67,3.61,10.86,3.36,16.59-.13,3.08-1.37,5.94-.99,9.06.38,3.07,1.25,5.83.91,8.96-.35,3.3-1.48,6.49-2.67,9.57-1.13,2.92-2.72,7.01-4.74,9.45-.56.67.33,1.61.97.97,1.95-1.92,3.47-5.63,4.47-8.13,1.26-3.15,2.51-6.34,3.14-9.68.57-3.01.48-5.9-.15-8.89-.43-2.03-.69-3.87-.35-5.94.25-1.49.64-2.95.8-4.45.65-6.22-3.07-11.72-3.34-17.82-.14-3.36.86-6.64.68-10.02-.15-2.91-.98-5.59-2.45-8.15-.33-.58-1.02-.65-.83,0h0Z"/>
        </g>
        <path class="cls-4" d="M66.88,83.39c-.29.78-.72,3.54-1.19,4.19-2.91,3.97-7.04,7.44-15.29,6.15-4.55-.71-7.42-4.32-8.66-8.42-.48-1.6-1.19-4.04-1.21-5.99-.08-6.96,2.77-14.41,4.47-21.44,1.7-7.04,1.62-14.5,1.7-28.1.07-11.09,2.4-21.01,3-24.15.53-.01,1.05-.02,1.56-.01-.24,1.54-2.52,10.5-.62,24.43.66,4.84,3.16,12.87,5.1,17.8,1.94,4.93,5.58,10.68,8.5,16.18,2.57,4.86,4.83,13.5,2.65,19.36Z"/>
        <g>
          <path class="cls-3" d="M64.16,89.14c-2.69,2.62-5.32,4.7-9.28,4.78-3.94.08-7.77-1.82-10.08-5.02-5.12-7.08-2.04-15.68-1.48-23.52.03-.48-.63-.49-.79-.11-1.78,4.53-2.49,10.21-2.14,15.05.21,2.9.95,5.81,2.36,8.35-6.79-5.76-11.78-14.35-12.11-23.23-.21-5.61,2.28-11.49-.06-16.91-1.12-2.59-3.36-4.75-3.28-7.74.08-2.89,1.92-5.45,2.82-8.12,2.14-6.36-1.43-14.11,3.36-19.64.48-.56.17-.96-.51-.46-4.82,3.5-3.34,10.52-3.59,15.59-.29,5.78-5.66,11.11-2.6,16.87.81,1.52,1.94,2.86,2.55,4.48.63,1.66.75,3.44.68,5.19-.13,3.19-.94,6.32-1.07,9.5-.23,5.29,1.57,10.6,4.12,15.18,2.92,5.24,7.17,10.25,12.63,12.95,2.77,2.43,6.65,3.62,10.29,3.17,3.45-.43,7.49-2.43,9.24-5.57.37-.67-.51-1.36-1.06-.82Z"/>
          <path class="cls-3" d="M68.29,73.97c-1.08-5.4-3.23-10.91-6.44-15.43-.42-.59-1.32-.09-.99.58,2.52,4.93,4.74,9.84,6.4,15.13.2.65,1.15.38,1.02-.28Z"/>
        </g>
        <path class="cls-3" d="M60.39,55.76c.03-.16.06-.32.04-.49s-.09-.32-.18-.47c-.17-.27-.35-.48-.67-.56-.28-.07-.68.09-.73.41-.02.13-.05.25-.03.38.01.11.05.21.07.31,0,.03.02.14,0,.02-.01-.18.01.13.04.2.04.13.12.23.19.35.15.24.42.37.7.33.25-.03.53-.23.58-.5h0Z"/>
      </g>
      <rect class="cls-2" width="100" height="100"/>
    </g>
  </g>
</svg>