<?xml version="1.0" encoding="UTF-8"?>
<svg id="Capa_2" data-name="Capa 2" xmlns="http://www.w3.org/2000/svg" viewBox="0 0 100 100">
  <defs>
    <style>
      .cls-1 {
        fill: none;
      }

      .cls-2 {
        fill: #4a2d2d;
      }

      .cls-3 {
        fill: #9bb533;
      }
    </style>
  </defs>
  <g id="COLOR">
    <g>
      <g>
        <path class="cls-3" d="M41.52,16.83c.67-2.21,1.87-7.01,1.01-9.18-1.27-3.2-2.61,1.72-3.13,4.4s-2.16,8.8-5.52,20.52-8.28,23.87-11.86,31.19-10.52,19.4-10.67,20.82.3,1.42,2.98-1.42,8.65-14.32,13.06-23.35c4.4-9.03,9.18-25.14,10.3-28.87,1.12-3.73,2.78-10.61,3.84-14.1Z"/>
        <path class="cls-3" d="M59.05,14.22s1.12-1.6.63-2.61-1.01-1.49-1.94-.41-7.16,12.38-9.36,16.38c-2.2,3.99-10.15,19.06-13.09,25.07-2.95,6.01-8.43,18.73-10.18,23.13s-5.26,12.16-5.15,13.35,2.13.3,4.03-3.88c1.9-4.18,6.49-15.93,8.65-20.55s7.91-15.7,9.85-19.47,7.95-16.34,10.59-20.82,5.97-10.18,5.97-10.18Z"/>
        <path class="cls-3" d="M74.72,9.52s.07-1.98-2.13-.63-8.39,9.7-12.01,15.44-14.85,22.64-17.94,28.76-9.7,17.94-11.6,22.98-5.93,15.35-5.11,16.58,2.31-.8,4.07-5.35,4.74-13.47,7.01-17.53c2.28-4.07,8.28-15.7,11.04-20.44s9.36-16.3,13.09-21.64,8.58-12.12,9.85-13.8c1.27-1.68,3.58-3.36,3.73-4.36Z"/>
        <path class="cls-3" d="M86.17,6.53c-.93.45-6.42,8.69-9.92,13.65-3.51,4.96-16.75,24.28-19.62,28.72-1.89,2.93-11.15,17.57-14.14,23.31-2.02,3.9-10.03,21.15-9.85,22.61s1.31,1.01,1.9.04,7.31-15.26,9.36-19.06c2.05-3.8,10.78-18.69,13.84-23.13s13.88-20.48,16.75-24.28c2.87-3.8,10.9-15.34,12.16-17.68,1.64-3.06.45-4.63-.48-4.18Z"/>
        <path class="cls-3" d="M39.88,96.43c.04,1.83,1.79.75,3.73-2.09s7.47-15.29,9.03-18.69,7.12-13.62,9.81-17.65c2.69-4.03,11.56-16.97,14.1-20.22,2.54-3.25,8.95-11.49,10.74-13.5s4.36-4.89,4.48-6.3-.6-2.09-2.61-.52-11.19,13.24-14.96,18.02c-3.77,4.77-11.44,16.65-15.11,22.68-8.73,14.36-19.25,36.45-19.21,38.27Z"/>
        <path class="cls-2" d="M41.47,7.09c1.02,3.76.02,7.41-.93,11.07-.89,3.48-1.87,6.94-2.9,10.39-2,6.62-4.24,13.17-6.75,19.61s-5.43,13.25-8.59,19.67-6.64,11.8-10.71,17.42c-.37.51.24,1.06.67.61,4.91-5.06,8.41-11.78,11.45-18.07,3.12-6.43,5.94-13.01,8.49-19.69,2.62-6.84,4.92-13.8,6.93-20.85,1.06-3.71,2.07-7.44,2.96-11.2.72-3.05,1.25-6.16.22-9.2-.18-.53-.99-.32-.84.23h0Z"/>
        <path class="cls-2" d="M20.86,89.87c3.03-1.55,4.13-4.85,5.46-7.79,1.65-3.66,3.04-7.42,4.54-11.14,2.42-5.99,5.18-11.82,8.1-17.59,5.51-10.87,11.57-21.45,17.08-32.33,1.52-3.01,3.9-6.61,3.75-9.39-.04-.68-.81-1.31-.91-.63-.43,2.9-2.21,5.77-3.51,8.35-2.33,4.65-4.81,9.23-7.27,13.81-5.79,10.78-11.71,21.56-16.55,32.81-1.53,3.55-2.8,7.19-4.2,10.78-1.54,3.95-3.28,10.28-7.31,12.4-.62.33.19,1.05.82.73h0Z"/>
        <path class="cls-2" d="M27.23,93.04c4.68-6.39,6.32-14.12,9.39-21.29,3.23-7.54,7.41-14.61,11.73-21.57,4.29-6.92,8.76-13.72,12.74-20.83,2.15-3.84,4.35-7.65,7.14-11.08,2.29-2.82,4.68-4.75,6.49-7.93.42-.75-.24-1.82-.67-1.08-2.02,3.47-5.27,6.1-7.73,9.25-2.39,3.06-4.33,6.39-6.23,9.77-4.06,7.23-8.52,14.19-12.92,21.21-4.17,6.65-8.2,13.46-11.24,20.71-3.16,7.52-4.76,15.6-9.46,22.4-.38.54.39.96.77.44h0Z"/>
        <path class="cls-2" d="M34.2,95.92c2.13-2.09,2.97-5.31,4.21-7.95,1.54-3.29,3.17-6.53,4.86-9.74,3.32-6.3,6.91-12.46,10.68-18.51,7.57-12.15,15.81-23.84,24-35.57,2.24-3.21,4.48-6.42,6.69-9.65,1.75-2.55,3.17-4.5,3.01-7.68-.04-.91-1.47-.91-1.41,0,.2,3.29-1.75,5.36-3.53,7.96-1.91,2.78-3.83,5.56-5.76,8.33-3.94,5.65-7.9,11.29-11.79,16.97-7.77,11.32-15.31,22.84-21.72,34.99-1.76,3.33-3.43,6.7-5,10.13s-2.79,7.06-4.86,10.25c-.25.38.3.78.62.48h0Z"/>
        <path class="cls-2" d="M40.37,97.73c1.22-.13,1.8-.71,2.54-1.67,1.27-1.65,2.33-3.54,3.33-5.35,1.9-3.45,3.75-6.94,5.49-10.47,3.68-7.49,6.98-15.16,11.45-22.23,4.71-7.46,10.19-14.44,15.59-21.4,2.69-3.46,5.4-6.9,8.1-10.35,2.17-2.78,4.86-5.5,5.81-8.98.23-.84-1.07-1.19-1.3-.36-1.09,3.97-4.68,7.1-7.26,10.18-2.41,2.87-4.7,5.83-6.98,8.8-4.89,6.4-9.71,12.92-14.09,19.68s-7.59,13.39-10.87,20.39c-1.57,3.34-3.05,6.72-4.71,10.02-.83,1.65-1.75,3.23-2.69,4.81-.81,1.36-2.59,5.65-4.42,5.76-.77.05-.76,1.28,0,1.2h0Z"/>
      </g>
      <rect class="cls-1" width="100" height="100"/>
    </g>
  </g>
</svg>