<?xml version="1.0" encoding="UTF-8"?>
<svg id="Capa_2" data-name="Capa 2" xmlns="http://www.w3.org/2000/svg" viewBox="0 0 100 100">
  <defs>
    <style>
      .cls-1 {
        fill: #fff;
      }

      .cls-2 {
        fill: none;
      }

      .cls-3 {
        fill: #4a2d2d;
      }

      .cls-4 {
        fill: #9bb533;
      }
    </style>
  </defs>
  <g id="COLOR">
    <g>
      <g>
        <path class="cls-4" d="M21.92,23.96s1.61-5.66,5.98-7.51c4.37-1.85,6.29-1.49,7.75-.86s4.21,2.62,4.21,2.62c0,0,6.08-6.69,15.11-5.46,9.04,1.23,11.34,5.69,11.34,5.69,0,0,4.36-4.4,10.48-1.97s8.62,8.53,8.62,8.53c0,0,4.1-1.57,7.21,1.79,3.12,3.36-3.44,6.04-3.49,12.42s5.29,18.76,1.88,28.72c-3.42,9.96-9.13,17.1-20.6,21.17s-19.22,4.75-27.54,1.51c-5.9-2.3-9.44-8.25-9.44-8.25,0,0-12.05-2.22-19.31-12.95-6.02-8.9-6.38-17.66-4.68-23.96,1.7-6.3,3.41-10.6,2.12-14.06s-3.8-7.68,1.04-10.13c3.82-1.93,9.32,2.69,9.32,2.69Z"/>
        <path class="cls-1" d="M25.67,39.65c2.71,1.99,1.51,5.53.42,8.06-.83,1.92-1.67,3.82-2.37,5.79-1.38,3.89-2.72,8.18-2.3,12.36.65,6.41,5.23,12.55,11.35,14.72.58.2.95-.7.41-.99-7.63-4.01-11.9-11.28-9.9-19.93,1-4.33,2.55-8.45,4.12-12.59,1.07-2.81,1.33-6.1-1.37-8.05-.38-.28-.74.36-.37.63h0Z"/>
        <path class="cls-1" d="M22.47,62.37c2.46-4.35,7.4-5.32,11.36-7.8,2.74-1.72,5.33-4.57,4.82-8.03-.08-.54-.89-.37-.91.13-.44,9.06-12.65,8.04-15.92,15.32-.19.43.41.81.65.38h0Z"/>
        <path class="cls-1" d="M15.81,39.54c.13,2.77,2.17,4.21,4.14,5.86,2.92,2.44,3.68,5.2,4.21,8.82.05.31.54.28.6,0,.53-2.39-.39-5.01-1.79-6.95-1.95-2.72-6.2-4.07-6.56-7.72-.04-.38-.62-.39-.6,0h0Z"/>
        <path class="cls-1" d="M56.08,91.86c7-5.07,13.1-12.46,14.52-21.19.75-4.64.68-9.42,1.9-13.97,1.39-5.19,4.82-8.93,8.11-13,.39-.49-.25-1.17-.71-.7-3.08,3.16-6.08,6.79-7.76,10.91-1.65,4.04-1.85,8.47-2.22,12.76-.43,5.04-1.57,9.6-4.37,13.87-2.69,4.1-6.1,7.68-9.89,10.77-.3.25.1.78.43.55h0Z"/>
        <path class="cls-1" d="M64.13,64.95c-3.91-4.14-4.95-10.14-1.64-14.95.23-.33-.31-.75-.56-.43-2.55,3.22-3.17,7.84-1.64,11.66.8,2,2.07,3.79,3.66,5.24,1.87,1.71,5.13,3.51,5.11,6.23,0,0-.09,1.18-.09,1.19.11.52-.04-.36-.06.2.09,0,.19-.05.25-.14,2.57-3.85-2.89-6.73-5.02-8.99Z"/>
        <path class="cls-1" d="M70.67,69.2c2.02-2.78,4.84-4.14,7.87-5.56,2.35-1.1,5.32-2.44,6.62-4.84.25-.46-.33-.89-.72-.55-1.44,1.27-2.72,2.49-4.42,3.43-1.3.72-2.66,1.33-3.98,2.02-2.35,1.22-4.73,2.72-6.03,5.12-.23.43.37.76.65.37h0Z"/>
        <path class="cls-1" d="M60.36,88.32c1.39-1.69,2.53-3.85,2.26-6.1-.3-2.46-2.26-3.44-4.26-4.46-2.33-1.19-4.82-2.31-6.62-4.27-2.44-2.68-2.19-5.82-2.1-9.17.01-.48-.73-.58-.84-.11-.99,4.24.12,8.44,3.63,11.12,1.85,1.4,3.95,2.42,6,3.48,1.6.83,3.08,1.64,3.35,3.59.29,2.07-1.01,3.82-1.84,5.6-.12.26.22.58.42.32h0Z"/>
        <path class="cls-1" d="M66.36,81.36c4.59-3.27,11.5-2.75,15.34-7.18.33-.39-.17-.88-.56-.55-4.46,3.76-10.58,3.61-15.21,7.02-.43.31-.02,1.03.43.72h0Z"/>
        <path class="cls-1" d="M35.55,31.53c1.46-2.58,3.2-5.97,2.25-9-.12-.4-.74-.33-.74.1.03,3.19-.91,5.61-2.26,8.46-.24.5.47.93.75.43h0Z"/>
        <path class="cls-1" d="M46.73,32.99c.5-.92,1.09-1.82,1.8-2.59s1.48-1.32,2.21-2.02c.28-.27-.01-.84-.4-.68-2.08.82-3.58,2.97-4.33,4.99-.16.42.52.7.73.3h0Z"/>
        <path class="cls-1" d="M70.05,34.49c.76-1.61.95-3.22.26-4.91-.89-2.19-2.79-3.35-3.21-5.82-.07-.42-.7-.36-.8,0-.35,1.27.18,2.35.93,3.38,1.64,2.27,3.12,4.04,2.05,7.03-.16.45.57.75.77.32h0Z"/>
        <path class="cls-1" d="M75.51,20.57c-.69,3.18-.98,7.01.53,10.01.16.32.72.17.69-.19-.33-3.32-.94-6.22-.31-9.57.11-.59-.78-.84-.91-.25h0Z"/>
        <path class="cls-3" d="M88.12,23.92c-3.38.3-6.43,1.39-9,3.67-1.2,1.07-2.1,2.39-3.2,3.55-1.69,1.79-3.45,1.99-5.81,2.1-1.77.09-3.6.18-5.37.52-.9-2.24-2.66-4.06-4.84-5.1-1.63-.77-3.27-1.14-4.63-1.87.54-1.87,1.87-3.17,3.93-3.33,1.37-.11,2.76.12,4.07-.39,2.53-.98,3.42-4.5,5.67-5.94.72-.46.4-1.22-.48-.92-1.49.5-2.46,1.67-3.42,2.87-.56.7-1.08,1.61-1.89,2.06-1.15.64-2.68.45-3.95.57-2.54.24-4.65,1.8-5.21,4.16-.59-.57-1.07-1.3-1.39-2.33-.76-2.38-1.53-4.29-4.2-4.95-3.29-.81-7.21,1.22-9.8-1.71-.34-.39-.99.12-.72.56,1.41,2.27,3.99,2.41,6.43,2.38,1.65-.02,3.6-.21,5.02.8,1.47,1.05,1.49,2.89,2.09,4.42.84,2.13,2.56,3.17,4.63,3.95,3.15,1.19,5.32,2.35,7.05,5.18-1,.3-1.96.71-2.85,1.29-1.88,1.22-3.13,3.02-4.23,4.92-.8-2.8-3.3-5.44-5.55-6.85-3.99-2.52-8.84-2.92-13.43-2.99-2.68-.04-5.41-.07-7.84-1.33-1.68-.87-3.03-2.22-4.36-3.54-2.5-2.46-5.05-4.75-8.69-5-.68-.05-.7.71-.05.84,3.58.71,5.85,3.51,8.38,5.98,2.46,2.4,4.91,4.13,8.4,4.57,4.48.57,8.91.01,13.27,1.54,2.04.72,3.91,1.78,5.47,3.28,1.77,1.7,2.28,3.44,3.1,5.65.01.04.04.06.05.09-.74,1.35-1.51,2.72-2.58,3.84-1.43,1.49-3.32,2.15-5.17,2.96-2.92,1.29-5.26,3.39-6.51,6.38-1.46,3.51.04,7.47-1.47,10.86-1.39,3.12-4.77,4.84-6.23,7.96-3.15,6.72,2.57,14.54,9.29,16.28.96.25,1.08-.4.25-.92-2.71-1.69-5.33-3.37-6.95-6.28-1.96-3.52-1.74-7.42.94-10.45,1.79-2.03,4.05-3.76,4.95-6.42,1.06-3.12-.09-6.5.98-9.62,1.23-3.61,4.09-5.14,7.37-6.58,2.65-1.16,4.54-2.83,6.05-5.3,1.45-2.36,2.44-5.15,4.46-7.12,2.64-2.58,6.48-2.75,9.95-2.96,3.48-.2,5.62-.92,7.92-3.62,2.71-3.17,5.84-5.95,10.14-6.47.95-.12.93-1.33-.06-1.24Z"/>
      </g>
      <rect class="cls-2" width="100" height="100"/>
    </g>
  </g>
</svg>