<?xml version="1.0" encoding="UTF-8"?>
<svg id="Capa_2" data-name="Capa 2" xmlns="http://www.w3.org/2000/svg" viewBox="0 0 100 100">
  <defs>
    <style>
      .cls-1 {
        fill: none;
      }

      .cls-2 {
        fill: #4a2d2d;
      }

      .cls-3 {
        fill: #f4f5d8;
      }

      .cls-4 {
        fill: #9bb533;
      }
    </style>
  </defs>
  <g id="COLOR">
    <g>
      <g>
        <path class="cls-4" d="M83.7,47.19c-2.11,5.46-6.23,10.42-9.52,17.02-3.28,6.61-5.39,11.88-12.1,15.73-5.54,3.18-16.04,4.21-21.59,5.84-.92.27-1.83.6-2.71.98-1.85.83-3.54,1.95-5.05,3.3-1.46,1.31-2.74,3.12-4.74,3.55-.11.02-.22.04-.33.06-1.05.14-2.09-.18-2.97-.73-.44-.28-.8-.62-1.07-1.06-.21-.35-.23-1-.23-1.12.34-.72,1.53-3.89,1.31-6.09-.25-2.51-5.36-15.13-6.64-19.58-1.28-4.46-.51-16.88,2.98-25.03,3.5-8.14,8.09-11.93,8.99-14.14.9-2.2,1.38-8.27,7.33-12.52,5.95-4.25,21.41-6.71,28.23-4.77,6.82,1.94,16.46,8.54,19.06,15.24,2.6,6.69,1.18,17.86-.93,23.32Z"/>
        <path class="cls-3" d="M47.77,59.06c-.91,1.33-.83,1.66-.83,1.66,0,0,6.06-1.99,10.86-2.74,4.81-.75,11.59-3.32,16.09-5.8,0,.58-2.57,4.72-6.06,6.3-3.48,1.57-11.94,3.4-14.01,3.98-2.07.58-5.14,2.49-6.55,3.57s-4.56,3.73-4.4,4.31c.17.58,4.9.58,8.46-.5,3.57-1.08,6.3-2.73,9.2-4.23s5.97-4.39,6.05-3.82c.08.58-3.32,7.13-10.7,10.28-7.38,3.15-13.1,3.57-15.34,4.89-2.24,1.33-4.15,2.57-5.31,4.73s-4.81,9.29-6.05,10.69c-.31.35-.71.77-1.17,1.2-.11.03-.22.04-.33.06-1.05.16-2.09-.15-2.98-.69-.44-.27-.81-.6-1.09-1.04-.22-.35-.32-.64-.37-.97t0,0c1.04-1.66,2.38-3.37,3.12-4.44,1.66-2.41,6.22-12.6,7.13-15.92.91-3.32,1.16-11.69-.33-14.18s-3.31-12.35-2.65-16.08c.66-3.73,2.49-5.97,2.49-5.97,0,0-.75,6.05.25,12.6.99,6.55,4.35,10.36,4.68,11.52.33,1.16,1.53-1.74,1.53-1.74,0,0,1.82-3.65,1.41-8.29-.41-4.64-2.57-12.02-2.07-16.58.5-4.56,3.65-13.1,4.89-15.26,1.24-2.15,2.24-2.82,2.24-2.82,0,0-1.25,5.89-1.99,10.69-.75,4.81-1.66,11.03-1.41,16.92.25,5.89,2.32,9.37,2.32,9.37,0,0,6.63-8.87,8.87-13.76s3.23-10.11,3.07-13.51c-.17-3.4-.33-8.87.58-10.36.91-1.49,1.25-1.41,1.25-1.41,0,0-.75,4.73.16,7.88.91,3.15,1.24,6.47,1.16,7.63s-.16,2.48-.16,2.48c0,0,3.4-8.04,4.97-10.77,1.57-2.74,2.82-5.22,3.07-4.81.25.41-.5,3.15-1.66,6.63-1.16,3.48-4.77,10.76-5.18,12.33-.35,1.36-.7,1.9-.7,1.93.21-.14,6.76-4.69,9.7-7.46,2.98-2.82,7.54-6.8,7.79-6.38.25.41-2.98,4.89-4.89,7.13-1.91,2.24-6.88,6.05-9.45,7.71-2.57,1.66-3.9,2.49-4.9,3.98-.99,1.49-7.21,11.11-7.13,11.36.09.25,7.22-3.73,12.27-6.55,5.06-2.82,11.03-7.21,11.03-6.63s-2.24,4.31-5.97,7.13c-3.73,2.82-10.11,6.05-13.19,7.88-3.07,1.82-6.88,4.56-7.79,5.89Z"/>
        <path class="cls-2" d="M61.03,67.53c-1.79,1.41-3.65,2.74-5.65,3.84-1.67.92-3.37,1.6-5.24,2s-3.86.62-5.75,1.11c-4.33,1.12-7.55,3.65-10.02,7.34-2.52,3.77-3.68,8.32-7.41,11.12-.17.12-1.26.41-2.24-.48-.21-.19-.5-1.07-.38-1.24,3.12-4.08,5.28-8.85,7.31-13.54,1.84-4.27,4.04-8.74,3.81-13.5-.16-3.37-1.14-6.6-2.02-9.85-.49-1.37-.99-2.74-1.31-4.18-.45-2.02-.68-4.12-.61-6.19.07-2.01.29-4.11.81-6.05.21-.77.52-1.52.72-2.29.12-.48.27-1.17-.16-1.54-.03-.02-.04-.05-.06-.08-.16.02-.33.1-.47.25-2.75,3.03-2.82,8.67-2.45,12.48.46,4.89,2.21,9.42,3.19,14.19,1.13,5.52-.63,10.4-2.72,15.46-1.07,2.6-2.34,5.11-3.64,7.6-.62,1.19-1.24,2.37-1.86,3.56-.31.6-.62,1.21-.92,1.81-.24.47-.54.92-.69,1.43-.15.48.12.9.34,1.32.41.75.98,1.36,1.79,1.67.6.24,1.29.28,1.92.12,1.22-.31,2.03-1.32,2.81-2.26.81-.98,1.51-2.04,2.17-3.13.82-1.37,1.55-2.79,2.3-4.2,1.12-2.12,2.37-4.29,4.33-5.72,2.35-1.72,5.22-2.4,8.04-2.9,3.77-.67,6.88-1.64,10.17-3.7,2.41-1.51,4.84-3.13,6.83-5.19.89-.92,2.72-3.14,2.66-5.05-.98,2.04-3.81,4.37-5.57,5.76Z"/>
        <path class="cls-2" d="M45.28,13.65c-2.19,1.61-3.62,4.71-4.63,7.13-1.6,3.82-2.41,7.92-2.55,12.06s1.03,7.89,1.57,11.89c.66,4.82-.19,9.17-1.86,13.68-.24.66.81,1.1,1.13.48,1.74-3.42,2.42-7.49,2.24-11.3-.18-4-1.47-7.82-1.8-11.8-.66-7.9,2.03-15.14,6.6-21.42.3-.41-.3-1.01-.7-.7h0Z"/>
        <path class="cls-2" d="M57.93,11.63c-2.11,2.41-2.19,5.96-2.12,8.98.09,4.06-.1,7.9-1.08,11.87-1.65,6.69-6.09,12.45-10.11,17.93-.44.61.58,1.41,1.05.81,1.91-2.47,3.64-5.07,5.31-7.7,1.8-2.83,3.53-5.61,4.56-8.83,1.09-3.39,1.34-6.73,1.4-10.27.08-4.37-.46-8.29,1.63-12.3.21-.4-.33-.88-.65-.5h0Z"/>
        <path class="cls-2" d="M67.22,14.08c-1.83,2.1-3,4.89-4.22,7.37s-2.56,5.12-3.49,7.78c-.19.54.66.89.92.39,1.3-2.47,2.28-5.12,3.5-7.63s2.85-4.83,4-7.36c.2-.43-.35-.97-.71-.55h0Z"/>
        <path class="cls-2" d="M60.68,35.08c2.97-1.39,5.53-3.84,8.02-5.93,3.01-2.53,5.99-5.11,8.98-7.67.53-.45-.24-1.22-.77-.77-5.51,4.68-11.01,9.32-16.66,13.82-.33.26.09.71.43.55h0Z"/>
        <path class="cls-2" d="M66.14,33.98c-3.05,1.89-5.93,3.84-8.1,6.76-2.35,3.16-4.93,6.7-6.61,10.27-.27.57.5,1.04.85.5,1.96-3.04,3.76-6.14,5.84-9.11,1.18-1.68,2.26-3.31,3.86-4.61,1.44-1.17,2.95-2.2,4.5-3.2.37-.24.03-.83-.35-.6h0Z"/>
        <path class="cls-2" d="M74.23,38.02c-1.58,2.92-3.67,4.89-6.33,6.83-2.39,1.73-4.83,3.46-7.43,4.86-5.24,2.84-10.4,5.58-13.85,10.67-.38.55.48,1.21.93.72,2.21-2.41,4.34-4.68,7.05-6.54,2.78-1.9,5.91-3.17,8.71-5.03,4.34-2.87,9.9-6.02,11.99-11.06.26-.62-.76-1.03-1.07-.45h0Z"/>
        <path class="cls-2" d="M43.29,70.61c2.36-2.2,4.28-4.53,7.15-6.16,3.12-1.78,6.48-2.32,9.98-2.84,5.96-.88,11.11-3.43,14.12-8.89.35-.64-.62-1.21-.97-.57-1.58,2.87-4,5.24-6.98,6.64-3.18,1.49-6.74,1.64-10.15,2.25-5.33.96-11.13,4.13-13.98,8.92-.32.53.4,1.06.84.65h0Z"/>
      </g>
      <rect class="cls-1" width="100" height="100"/>
    </g>
  </g>
</svg>