<?xml version="1.0" encoding="UTF-8"?>
<svg id="Capa_2" data-name="Capa 2" xmlns="http://www.w3.org/2000/svg" viewBox="0 0 100 100">
  <defs>
    <style>
      .cls-1 {
        fill: #fdc733;
      }

      .cls-2 {
        fill: none;
      }

      .cls-3 {
        fill: #4a2d2d;
      }

      .cls-4 {
        fill: #9bb533;
      }
    </style>
  </defs>
  <g id="COLOR">
    <g>
      <g>
        <path class="cls-4" d="M64.25,37.34c.21-.15,2.65-4.36,6.75-7.61s6.41-5.21,7.95-9.57c2.01-5.7.68-8.63,1.79-8.55s6.75,8.89,5.81,19.14c-.94,10.26-3.08,12.48-8.2,19.31-5.13,6.84-6.15,11.54-6.32,14.61s.09,5.81-.6,8.12c-.68,2.31-8.46,16.49-12.56,15.13s1.45-47.69,5.38-50.59Z"/>
        <path class="cls-3" d="M66.35,52.9c.77-3.38,1.72-6.66,3.25-9.78,1.45-2.97,3.36-5.57,5.34-8.19.21-.28-.24-.62-.48-.37-4.66,4.71-7.83,11.65-8.72,18.18-.05.39.52.58.62.17h0Z"/>
        <path class="cls-3" d="M67.54,60.36c-.22-2.29.93-4.76,1.86-6.8s2.01-3.7,3.09-5.54c.18-.31-.27-.68-.51-.39-1.6,1.9-2.81,4.17-3.78,6.45-.83,1.95-1.39,4.22-1.37,6.38,0,.4.76.32.72-.1h0Z"/>
        <path class="cls-4" d="M40.32,31.62s-1.11-5.13-4.96-8.72c-3.85-3.59-5.38-4.96-6.32-7.44s-.26-4.96-1.28-5.13-4.02,10.68-3.42,18.63c.6,7.95,3.33,14.61,8.03,18.63,4.7,4.02,7.61,4.44,7.61,4.44l.34-20.43Z"/>
        <path class="cls-1" d="M36.6,57.39c.38-11.04.73-27.27,2.31-35,2.56-12.56,5.51-18.97,14.1-16.15,8.59,2.82,11.28,10.64,12.56,23.2s1.28,24.23-1.15,38.71-4.1,24.36-8.33,24.61c-4.23.26-10.64-2.05-13.84-6.92-3.2-4.87-5.88-21.56-5.64-28.46Z"/>
        <path class="cls-3" d="M64.69,62.81c-1.73.87-3.51,1.5-5.32,1.93-.04-2.55-.08-5.1-.14-7.64,1.74-.63,3.37-1.48,4.82-2.6.34-.26-.09-.75-.44-.57-1.48.77-2.93,1.49-4.41,2.07-.06-2.34-.13-4.68-.22-7.02,1.68-.53,3.3-1.23,4.85-2.09.37-.21.05-.72-.33-.56-1.5.65-3.02,1.19-4.55,1.63,0-.02,0-.05,0-.07-.08-2.02-.17-4.04-.28-6.06,1.56-.27,3.08-.71,4.49-1.42.41-.21.13-.88-.31-.74-1.42.44-2.83.77-4.24,1.01-.16-2.94-.35-5.87-.57-8.8,1.83-.46,3.62-1.12,5.34-1.97.44-.22.06-.86-.38-.66-1.63.74-3.31,1.31-5.02,1.71-.24-3.04-.53-6.08-.86-9.11,1.69-.63,3.29-1.47,4.75-2.55.37-.27.04-.87-.36-.62-1.45.87-2.96,1.59-4.49,2.16-.22-1.9-.46-3.8-.72-5.7.72-.23,1.42-.5,2.11-.82.3-.14.09-.65-.23-.54-.66.22-1.32.42-1.99.6-.1-.68-.18-1.37-.28-2.05-.06-.41-.78-.32-.73.1.09.72.16,1.43.24,2.15-1.26.31-2.51.53-3.78.65.25-1.94.52-3.87.83-5.8.08-.5-.67-.71-.76-.21-.36,2.03-.68,4.05-.97,6.08-1.47.1-2.96.07-4.46-.11.5-2.63,1.02-5.25,1.52-7.88.09-.48-.62-.69-.74-.2-.66,2.63-1.25,5.28-1.77,7.95-.4-.06-.8-.13-1.2-.21-.33-.07-.48.43-.14.52.4.11.81.2,1.22.29-.39,2.02-.74,4.04-1.05,6.07-.74-.17-1.49-.37-2.23-.62-.43-.14-.59.51-.18.67.75.28,1.52.52,2.3.72-.39,2.6-.73,5.21-1.02,7.82-.38-.13-.76-.26-1.14-.4-.51-.19-.72.61-.22.81.42.17.84.33,1.26.48-.11,1.06-.22,2.13-.32,3.19-.16,1.74-.3,3.52-.42,5.32-.76-.32-1.5-.71-2.17-1.21-.4-.3-.93.39-.53.69.82.64,1.71,1.11,2.65,1.48-.14,2.51-.22,5.04-.18,7.57-1.06-.28-2.12-.62-3.17-1.01-.51-.19-.71.6-.22.81,1.11.46,2.25.85,3.41,1.17.11,4.29.54,8.54,1.51,12.59.09.38.73.31.69-.09-.32-4.08-.86-8.11-1.04-12.2,2.12.5,4.3.78,6.49.82.16,2.4.37,4.81.64,7.21-1.89-.07-3.76-.37-5.6-.89-.48-.14-.68.61-.21.75,1.87.55,3.87.88,5.9.98.27,2.36.6,4.71.99,7.04-1.69-.09-3.38-.3-5.08-.61.49.37.96.76,1.4,1.19,1.26.2,2.56.35,3.86.43.55,3.11,1.21,6.18,2.02,9.21.15.56.96.32.86-.24-.06-.3-.11-.61-.17-.91.02.04.04.07.06.11,1.39-.06,2.76-.22,4.11-.5,0,3.4.03,6.79.25,10.17.03.47.7.47.73,0,.23-3.47.24-6.96.2-10.45,1.22-.33,2.41-.77,3.55-1.34.12-.41.25-.81.35-1.22-1.28.6-2.59,1.06-3.91,1.42-.03-2.22-.09-4.44-.11-6.66,0-.04,0-.09,0-.13,2.02-.46,3.95-1.21,5.72-2.35.45-.29.06-.95-.42-.71ZM58.15,56.38c-1.19.41-2.43.74-3.75.93-.99.14-1.97.21-2.96.23-.3-2.4-.56-4.81-.76-7.22,2.45-.04,4.89-.38,7.25-1.03.09,2.36.16,4.73.22,7.09ZM57.89,48.24c-2.41.61-4.85.95-7.29,1-.17-2.24-.29-4.48-.35-6.74,0-.16,0-.32,0-.47.06,0,.12,0,.19.01,2.33.16,4.79.23,7.18-.06.11,2.08.2,4.17.29,6.25ZM57.55,40.82c-2.11.28-4.23.37-6.45.25-.29-.02-.59-.03-.88-.05-.05-2.8-.04-5.6.05-8.4,2.26.11,4.52-.06,6.74-.53.21,2.91.39,5.82.54,8.73ZM56.94,31.17c-2.19.43-4.42.59-6.65.48.1-2.84.26-5.68.5-8.51,1.83-.1,3.65-.43,5.4-.99.28,3,.53,6.01.75,9.02ZM55.49,15.37c.21,1.92.42,3.84.6,5.76-1.71.55-3.45.92-5.22,1.06.18-2.05.39-4.09.64-6.13,1.34-.1,2.68-.33,3.97-.7ZM46.13,15.82c1.48.24,2.98.35,4.47.29-.28,2.04-.52,4.09-.72,6.14-1.61.06-3.23-.05-4.85-.35.34-2.03.71-4.05,1.09-6.08ZM44.91,22.68c1.6.34,3.25.5,4.89.48-.26,2.8-.44,5.6-.55,8.41-1.83-.16-3.66-.51-5.44-1.03.3-2.63.67-5.25,1.1-7.86ZM43.41,34.74c.08-1.1.18-2.2.3-3.29,1.81.57,3.65.93,5.51,1.1-.09,2.8-.11,5.61-.06,8.42-2.04-.12-4.14-.31-6.06-.93.07-1.77.17-3.54.31-5.3ZM43.04,48.5s0-.05,0-.07c-.07-2.48-.05-4.96.03-7.43,1.95.61,4.06.81,6.12.96,0,.18,0,.36.01.55.07,2.24.17,4.49.31,6.75-2.16-.02-4.32-.27-6.46-.75ZM51.55,58.39c2.24,0,4.5-.31,6.63-.95.06,2.51.11,5.01.14,7.52-1.89.36-3.8.51-5.73.49-.38-2.35-.73-4.7-1.04-7.06ZM58.35,72.95c-1.43.31-2.88.5-4.35.58-.44-2.35-.86-4.7-1.25-7.05,1.88.05,3.76-.06,5.58-.38.03,2.28.02,4.57.01,6.86Z"/>
        <path class="cls-4" d="M18.36,24.95c-.56-2.38-.26-4.02-1.28-3.85s-3.76,13.5-2.39,20.34,7.78,14.19,10.51,19.83c2.73,5.64.37,19.83,7.69,27.78,5.98,6.5,13.93,7.61,19.31,6.92s6.24-1.54,6.24-1.54c0,0,4.44,1.88,10.08-2.05,5.64-3.93,7.04-15.29,9.4-20.6,2.73-6.15,7.26-10.77,7.18-11.62s-7.44-.51-14.44,5.47-12.05,17.86-12.05,17.86c0,0-3.59-11.45-10.85-19.31-7.26-7.86-15.72-13.59-20.34-19.14s-7.35-12.82-9.06-20.08Z"/>
        <path class="cls-3" d="M34.36,73.07c2.11,7.7,6.31,16.95,14.64,19.54.46.14.76-.56.33-.78-3.62-1.91-6.64-4.13-9.03-7.51-2.44-3.46-4.06-7.39-5.25-11.44-.13-.45-.82-.26-.7.19h0Z"/>
        <path class="cls-3" d="M52.16,87.67c-3.31-4.66-4.24-10.57-7.6-15.17-.26-.35-.82-.05-.6.35,2.75,4.92,4.28,10.58,7.67,15.13.23.31.76.02.53-.31h0Z"/>
        <path class="cls-3" d="M84.94,59.22c-5.89-.14-11.53,3.33-15.59,7.33-4.21,4.15-8.07,9.52-10.49,15-.46-1.64-1.06-3.23-1.77-4.73-2.21-4.7-4.87-8.92-8.29-12.8-3.19-3.63-6.53-6.82-10.26-9.89-5.14-4.22-10.54-8.27-14.27-13.86-3.79-5.7-5.61-12.45-6.62-19.16-.07-.47-.87-.36-.83.11.41,5.64,1.6,11.05,4.15,16.13,2.58,5.14,6.37,9.31,10.74,13,7.5,6.33,15.69,12.57,20.74,21.18,1.97,3.37,3.9,6.84,5.03,10.59,1.26,4.19.67,8.11-.35,12.25-.17.7.88,1.21,1.21.51,1.7-3.65,1.79-7.72.96-11.62,0-.01.02-.02.03-.03,3.6-4.99,5.96-10.61,10.45-14.98,4.25-4.15,9.32-6.56,15.18-7.34,1.05-.14,1.13-1.67,0-1.7Z"/>
      </g>
      <rect class="cls-2" width="100" height="100"/>
    </g>
  </g>
</svg>