<?xml version="1.0" encoding="UTF-8"?>
<svg id="Capa_2" data-name="Capa 2" xmlns="http://www.w3.org/2000/svg" viewBox="0 0 100 100">
  <defs>
    <style>
      .cls-1 {
        fill: none;
      }

      .cls-2 {
        fill: #4a2d2d;
      }

      .cls-3 {
        fill: #928181;
      }

      .cls-4 {
        fill: #ab745b;
      }

      .cls-5 {
        fill: #e5d2c4;
      }
    </style>
  </defs>
  <g id="COLOR">
    <g>
      <rect class="cls-1" width="100" height="100"/>
      <g>
        <path class="cls-4" d="M82.18,58.5c-2.1,3.09-4.96,5.52-8.1,7.49-4.31,2.71-9.1,4.56-13.07,6.08-6.85,2.62-17.06,4.48-17.06,4.48,0,0-2.27.25-5.6.24-6.41-.02-16.76-1.02-22.41-6.59-8.59-8.47-4.36-24.65,10.09-36.23,14.44-11.58,37.47-16.56,51.79-6.97,14.32,9.58,9.34,24.15,4.36,31.5Z"/>
        <path class="cls-3" d="M74.09,65.99c-4.31,2.71-9.1,4.56-13.07,6.08-6.85,2.62-17.06,4.48-17.06,4.48,0,0-2.27.25-5.6.24-2.13-1.37-4.73-3.65-6.44-7.28-3.32-7.09,2.97-13.61,11.89-17.15s23.33-5.03,29.27.92c3.61,3.61,2.46,9.02,1,12.72Z"/>
        <path class="cls-2" d="M23.09,69.87c.61.31,1.32.57,2.01.44.39-.08.71-.52.7-.91-.02-.45-.29-.75-.7-.91-.14-.06-.29-.07-.44-.09.2.03-.12-.03-.16-.04-.09-.02-.18-.05-.27-.08-.03-.01-.32-.12-.17-.06-.46-.2-1.05-.15-1.31.34-.23.43-.14,1.07.34,1.31h0Z"/>
        <path class="cls-2" d="M20.69,66.42c.27.11.55.21.83.27.45.1.8.05,1.21-.13.26-.11.41-.45.41-.71,0-.32-.17-.53-.41-.71-.43-.33-1.04-.37-1.54-.56-.47-.18-1.07.2-1.18.67-.13.56.17.98.67,1.18h0Z"/>
        <path class="cls-2" d="M79.15,52.53h.39c.19,0,.39-.08.53-.22s.23-.34.22-.53c-.02-.4-.33-.75-.75-.75h-.39c-.19,0-.39.08-.53.22s-.23.34-.22.53c.02.4.33.75.75.75h0Z"/>
        <path class="cls-2" d="M79.3,50.04l.13-.21.08-.19c.03-.1.04-.21.01-.31,0-.07-.02-.14-.05-.2-.03-.1-.09-.18-.16-.25l-.16-.12-.19-.08c-.1-.03-.21-.04-.31-.01-.1,0-.2.04-.29.09l-.2.13c-.13.07-.22.17-.3.3-.08.13-.11.27-.11.42,0,.22.08.43.24.59.08.08.16.14.27.17.1.05.21.08.32.07.3,0,.56-.16.72-.41h0Z"/>
        <path class="cls-2" d="M39.5,76.57c-1.65-1.32-3.72-2.06-5.19-3.64-1.59-1.71-2.4-4.03-2.52-6.34-.27-5.24,3.1-8.91,7.36-11.42,4.52-2.65,9.59-4.4,14.79-5.09s11.03-.67,15.62,1.76c2.49,1.31,4.32,3.48,4.94,6.25.63,2.8-.19,5.26-1.29,7.8-.19.44.3.89.69.53,3.47-3.17,2.75-9.52,0-12.92-3.65-4.51-10.51-5.19-15.91-5.05-6.36.17-12.65,1.92-18.23,4.97-4.55,2.49-8.64,6.03-9.05,11.52-.41,5.42,2.95,10.9,8.42,12.23.32.08.65-.37.35-.61h0Z"/>
        <path class="cls-2" d="M34.87,74.02c1.64-.17,3.23-.59,4.88-.71,1.79-.14,3.47.11,5.23.45.41.08.68-.47.3-.7-2.98-1.79-7.44-1.31-10.55-.1-.51.2-.51,1.13.14,1.06h0Z"/>
        <path class="cls-2" d="M31.92,66.81c2.25-.06,4.5.09,6.72.52,2.06.39,4.01,1.17,6.07,1.59.42.09.66-.45.29-.69-3.65-2.33-8.87-2.68-13.08-2.49-.68.03-.69,1.08,0,1.07h0Z"/>
        <path class="cls-2" d="M36.47,57.13c1.84,1.23,3.68,2.46,5.48,3.76,1.74,1.26,3.37,2.98,5.31,3.91.36.17.82-.2.58-.58-1.12-1.75-3.03-3-4.67-4.23-1.94-1.46-3.95-2.76-6.09-3.9-.69-.36-1.24.61-.6,1.03h0Z"/>
        <path class="cls-2" d="M48.29,50.79c.62,3.58,1.38,7.72,3.12,10.94.2.37.83.21.81-.22-.21-3.72-1.95-7.42-2.8-11.03-.17-.74-1.25-.42-1.13.31h0Z"/>
        <path class="cls-2" d="M58.74,49.32c-.7,2.01-1.2,4.05-1.51,6.15-.25,1.73-.62,3.61-.31,5.35.08.46.73.38.85,0,.57-1.77.57-3.76.91-5.6.35-1.87.75-3.74,1.17-5.59.17-.73-.87-1.01-1.12-.31h0Z"/>
        <path class="cls-2" d="M70.34,51.55c-2.55,2.17-5.5,5.47-5.96,8.93-.07.51.66.59.89.24,1.91-2.86,3.54-5.76,6-8.24.61-.61-.29-1.48-.93-.93h0Z"/>
        <path class="cls-2" d="M68.17,64.25c1.08-1.02,2.25-1.9,3.54-2.62,1.19-.66,2.49-1.06,3.67-1.72.35-.2.21-.82-.21-.79-2.92.21-5.76,2.37-7.77,4.35-.5.49.26,1.25.77.77h0Z"/>
        <path class="cls-5" d="M66.42,61.54c-2.59-3.13-7.55-2.21-12.04-1.22s-8.84,2.36-10.06,6.94c-1.22,4.57-1.45,10.67-.38,14.1,1.07,3.43,3.89,6.02,11.82,5.03,7.93-.99,12.26-3.11,13.65-4.96,2.29-3.05-.38-16.77-2.97-19.9Z"/>
        <path class="cls-2" d="M64.03,79.48c.27.05.54.09.82.06.25-.03.45-.07.67-.2.31-.18.54-.5.53-.87-.02-.61-.53-.97-1.11-.94-.12,0-.24.03-.36.05-.18.03.17,0,.05,0-.12,0-.23,0-.34-.01-.22-.03-.55.13-.69.29s-.24.34-.27.56c-.06.45.22.98.7,1.07h0Z"/>
      </g>
    </g>
  </g>
</svg>