<?xml version="1.0" encoding="UTF-8"?>
<svg id="Capa_2" data-name="Capa 2" xmlns="http://www.w3.org/2000/svg" viewBox="0 0 100 100">
  <defs>
    <style>
      .cls-1 {
        fill: #fff;
      }

      .cls-2 {
        fill: none;
      }

      .cls-3 {
        fill: #6a8c2a;
      }

      .cls-4 {
        fill: #4a2d2d;
      }
    </style>
  </defs>
  <g id="COLOR">
    <g>
      <g>
        <path class="cls-3" d="M85.57,32.23c-1.95-5.72-4.51-12.65-10.02-15.86-4.53-2.64-10.45-.92-13.62,3.03-1.7,2.12-2.88,4.7-3.45,7.36-.93,4.32-1.18,8.74-2.29,13.03-1.04,4-2.58,7.87-4.92,11.3-2.29,3.35-5.31,6.16-8.97,7.94-3.81,1.85-8.01,2.58-12.16,3.21-5.53.84-15.6,1.14-17.21,8.09-1.82,7.88,8.29,12.48,14.21,14.18,8.13,2.34,17.26,2.89,25.6,1.49,14.67-2.47,25.33-13.86,30.61-27.28,3.26-8.29,5.18-17.84,2.23-26.49Z"/>
        <path class="cls-4" d="M23.76,69.12c10.29.89,21.22-2.64,29.43-8.82s12.97-14.26,15.41-23.82c1.48-5.8,2.25-12.01,2.45-18,.01-.45-.63-.42-.68,0-.77,6.62-1.23,13.19-3.1,19.62-1.74,6.03-4.66,11.54-8.92,16.18-3.88,4.24-8.67,7.6-13.89,9.98-6.62,3-13.5,4.01-20.7,4.13-.47,0-.46.68,0,.72h0Z"/>
        <path class="cls-4" d="M24.49,74.4c13.2,3.76,28.03,1.93,39.16-6.42,9.1-6.83,14.77-17.05,15.32-28.41.24-5.03.46-11.75-2.75-15.99-.3-.4-.97-.04-.69.4,2.54,3.85,2.54,9.36,2.43,13.8-.11,4.68-.8,9.16-2.59,13.51-4.83,11.72-15.59,20.1-27.84,22.88-7.51,1.7-15.41,1.41-22.86-.45-.44-.11-.62.55-.19.67h0Z"/>
        <path class="cls-1" d="M65.12,26.08c.3-.02.59.14.64.46.05.29-.18.55-.4.72s-.04.56.22.53c.72-.07,1.16-.78,1.01-1.48s-.91-1.06-1.57-.92c-.38.08-.3.71.09.68h0Z"/>
        <path class="cls-1" d="M73.29,33.72c.92.25.66,1.16.25,1.73-.2.28.13.59.41.54.76-.15,1.16-.99,1.06-1.7-.11-.76-.72-1.34-1.48-1.45-.57-.08-.83.72-.24.88h0Z"/>
        <path class="cls-1" d="M70.35,48.13c.3-.1.66.05.7.4.05.42-.47.49-.61.78-.07.13-.07.32.05.42.35.3.83.08,1.11-.22s.43-.77.35-1.2c-.18-.84-1.15-1.18-1.88-.87-.39.17-.11.81.29.68h0Z"/>
        <path class="cls-1" d="M81.83,39.03c.1.22,0,.45.05.71v-.22c-.02.1-.04.2-.05.3-.03.21.24.39.42.32.67-.25.74-1.13.25-1.63-.15-.15-.4-.16-.56-.03-.18.14-.2.35-.11.55h0Z"/>
        <path class="cls-1" d="M79.45,52.99c.29.17.14.72-.1.9-.26.2-.17.58.17.61,1.25.12,1.37-1.83.39-2.29-.52-.24-.96.48-.46.78h0Z"/>
        <path class="cls-1" d="M61.52,38.87c.43-.16.38.58.32.79-.11.39-.33.78-.2,1.18.06.17.27.29.44.18.6-.4,1-1.52.77-2.21s-.99-1.16-1.68-.78c-.44.25-.14,1.03.35.84h0Z"/>
        <path class="cls-1" d="M60.46,59.69c.18.11.22.33.2.53-.01.13-.04.25-.11.36-.03.05-.06.11-.1.16-.03.07-.03.07.01-.01-.04.04-.06.08-.08.13-.08.17-.02.41.19.46.61.13,1.05-.53,1.07-1.07.02-.6-.31-1.1-.86-1.33-.46-.19-.72.53-.33.77h0Z"/>
        <path class="cls-1" d="M68.27,69.25c.44,0,.73.37.57.79-.08.19-.27.29-.32.49-.06.22.03.43.22.55.14.09.35.09.49,0,.56-.38.88-1.05.66-1.73s-.93-1.11-1.62-1.04c-.59.06-.62.96,0,.95h0Z"/>
        <path class="cls-1" d="M48.39,78.49c.27-.02.73-.02.89.26.06.1.03.38-.14.39-.51.03-.56.66-.11.85.85.35,1.57-.74,1.35-1.49-.27-.89-1.32-1.1-2.11-.92-.5.11-.41.96.12.92h0Z"/>
        <path class="cls-1" d="M49.45,67.73c.06,0,.08.04.01-.01.07.05-.05-.05,0-.01.05.04.03.03,0-.01.02.03.04.06.06.09.05.07,0-.06,0-.01,0,0,.03.08.02.08,0,0-.02-.12-.01,0,0,.06.01.13.03.19v-.25s-.02.08-.03.13c-.02.08-.02.16,0,.24,0-.08-.01-.09-.01-.04,0,.21.18.37.38.38.14,0,.28-.04.39-.14.04-.04.08-.08.11-.13.04-.06,0-.04-.02,0,.05-.09.11-.14.14-.25.01-.05.02-.14.02-.2,0-.09-.02-.2-.04-.29-.11-.39-.49-.73-.92-.68-.23.03-.42.15-.45.4-.02.2.1.48.33.51h0Z"/>
        <path class="cls-1" d="M34.46,64.92c.1.65.86.96,1.45.82s1.36-1.02,1.16-1.68c-.07-.24-.32-.31-.53-.22-.36.16-.44.6-.72.85-.13.11-.46.23-.52,0-.14-.55-.92-.31-.84.23h0Z"/>
        <path class="cls-1" d="M30.54,78.47c.67.36-.19,1.2-.32,1.62-.08.26.2.41.41.32.95-.43,1.33-2.06.3-2.6-.44-.23-.83.43-.39.67h0Z"/>
        <path class="cls-1" d="M17.56,71.24c.66.44.53.96.43,1.64-.09.62.44,1.04,1.02.78.8-.35.97-1.42.76-2.19s-.8-1.53-1.6-1.67c-.87-.14-1.38.92-.61,1.44h0Z"/>
      </g>
      <rect class="cls-2" width="100" height="100"/>
    </g>
  </g>
</svg>