<?xml version="1.0" encoding="UTF-8"?>
<svg id="Capa_2" data-name="Capa 2" xmlns="http://www.w3.org/2000/svg" viewBox="0 0 100 100">
  <defs>
    <style>
      .cls-1 {
        fill: #fff;
      }

      .cls-2 {
        fill: none;
      }

      .cls-3 {
        fill: #4a2d2d;
      }

      .cls-4 {
        fill: #754680;
      }

      .cls-5 {
        fill: #c0c728;
      }
    </style>
  </defs>
  <g id="COLOR">
    <g>
      <g>
        <path class="cls-4" d="M58.07,28.85s.13,9.69-11.88,14.21c-12.01,4.52-24.67,6.33-29.19,19.63-4.52,13.3-1.03,25.64,17.95,28.41,17.69,2.58,28.8-7.36,36.81-20.4,8.01-13.04,9.56-30.99,9.3-35.51-.26-4.52-19.24-13.82-22.99-6.33Z"/>
        <path class="cls-5" d="M73.95,19.1s-6.8-2.5-14.46,3.53c-7.66,6.03-7.75,11.62-6.63,12.14s7.83-2.15,7.83-2.15c0,0-1.29,9.38-.09,10.07,1.21.69,7.92-4.39,7.92-4.39,0,0,2.07,7.83,3.01,8.09s6.63-5.51,6.63-5.51c0,0,.8,10.59,2.01,10.36,1.1-.22,6.8-8.38,4.97-18.79-1.51-8.57-8.01-12.48-8.01-12.48,0,0,3.97-4.65,3.57-8.78-.43-4.48-1.98-5.47-4.39-4.86-2.93.73-1.12,5.55-1.21,8.52-.05,1.89-1.16,4.26-1.16,4.26Z"/>
        <path class="cls-1" d="M31.45,53.18c-2.8,1.25-5.18,2.89-7,5.41-1.47,2.04-3.53,5.55-2.69,8.14.36,1.09,1.64,1.14,2.27.3.7-.93.87-2.13,1.26-3.21.43-1.2,1.03-2.34,1.74-3.39,1.42-2.1,3.29-4.1,5.52-5.36,1.25-.71.15-2.45-1.1-1.88h0Z"/>
        <path class="cls-1" d="M22.36,73.15l.08.05s.02.01.03.02c.13.09.38.16.54.15.14,0,.27-.02.39-.09.13-.04.23-.11.33-.21l.16-.21c.09-.16.14-.33.14-.51.02-.16-.06-.4-.15-.54,0-.01-.01-.02-.02-.03l-.05-.08c-.09-.16-.22-.28-.38-.38-.16-.1-.34-.14-.53-.14l-.28.04c-.18.05-.33.14-.46.27-.1.1-.18.21-.22.34-.07.13-.1.26-.09.41,0,.19.05.37.14.53.09.16.22.28.38.38h0Z"/>
        <path class="cls-3" d="M80.6,50.65c-.89-2.97-1.39-6.21-2.01-9.25-.16-.81-1.13-.86-1.66-.44-1.36,1.07-6.02,4.68-6.04,4.69-.24-.68-1.72-5.68-2.04-7.15-.13-.58-.73-.33-1.21-.08-2.24,1.17-4.53,2.65-6.98,3.4-.13-3.05.01-6.08.36-9.12.06-.53-.57-.94-1.04-.79-2.39.75-4.79,1.46-7.15,2.29-.86.3-.52,1.61.38,1.37,2.02-.52,4.02-1.13,6.01-1.72-.36,3.01-.41,6.02-.19,9.05.04.56.51.94,1.07.81,2.59-.57,5-1.95,7.35-3.2.29,1.42.61,2.83,1.03,4.21.28.91.57,2.29,1.25,3.02.26.27.72.41,1.08.29,1.11-.37,2.13-1.43,3.04-2.13,1.05-.8,2.08-1.63,3.11-2.45.49,2.54,1.04,5.06,1.84,7.52.41,1.24,2.17.95,1.79-.32Z"/>
        <path class="cls-3" d="M79.49,27.61c.11-.03.21-.07.32-.11.17-.07.29-.17.39-.32.02-.03.03-.05.05-.08.08-.14.12-.35.07-.5-.06-.17-.16-.29-.3-.39s-.31-.17-.5-.16c-.08,0-.15.01-.23.02-.22.02-.4.08-.56.23-.18.17-.25.42-.22.66.03.21.13.38.3.51.19.15.45.22.69.14h0Z"/>
        <path class="cls-3" d="M79.03,31.51c.29.03-.19-.04.09.01.09.02.17.03.26.05.23.05.45.1.7.12.5.03.92-.4.99-.87.07-.52-.24-.92-.72-1.1-.39-.15-.89-.13-1.31-.12-.5.01-.98.43-.95.95.03.57.42.89.95.95h0Z"/>
      </g>
      <rect class="cls-2" width="100" height="100"/>
    </g>
  </g>
</svg>