<?xml version="1.0" encoding="UTF-8"?>
<svg id="Capa_2" data-name="Capa 2" xmlns="http://www.w3.org/2000/svg" viewBox="0 0 100 100">
  <defs>
    <style>
      .cls-1 {
        fill: #fafbee;
      }

      .cls-2 {
        fill: #fff;
      }

      .cls-3 {
        fill: none;
      }

      .cls-4 {
        fill: #4a2d2d;
      }

      .cls-5 {
        fill: #9bb533;
      }
    </style>
  </defs>
  <g id="COLOR">
    <g>
      <g>
        <path class="cls-1" d="M56.24,8.97s9.69,8.16,13.01,16.7c3.32,8.54,6.25,21.68,4.97,27.8s-4.97,13.39-6.5,15.43-3.7,5.74-3.7,5.74c0,0-1.91,15.43-6.89,17.85-4.97,2.42-11.73,2.3-16.32-.89-4.59-3.19-6.76-11.22-8.42-17.98-1.66-6.76-1.91-13.64-1.91-13.64,0,0,.64-33.79,3.19-35.83s11.73-5.74,11.73-5.74l10.84-9.44Z"/>
        <g>
          <path class="cls-4" d="M68.24,24.64c3.1,8.78,6.04,18.68,4.89,28.07-.56,4.6-2.4,8.64-4.69,12.61-2.05,3.55-4.65,7.18-5.69,11.2-.2.77.97,1.33,1.33.56,1.91-4.05,4.1-7.85,6.31-11.75s3.83-7.83,4.41-12.28c1.32-10.1-2.21-19.37-5.41-28.73-.25-.73-1.41-.41-1.16.32h0Z"/>
          <path class="cls-5" d="M38.09,22.86s-.25-7.64,3.02-13.44c3.28-5.8,5.38-6.47,7.98-5.96s7.64,5.63,7.64,5.63c0,0-1.76,4.12-3.53,6.64s-3.36,4.7-4.2,8.06-1.01,5.38-1.01,5.38l-9.91-6.3Z"/>
          <path class="cls-4" d="M55.35,8.89c1.33,1.3,2.66,2.58,3.83,4.03s1.99,3.23,3.28,4.46c.4.38,1.05,0,.92-.53-.43-1.7-1.93-3.37-3.06-4.67-1.3-1.5-2.75-2.9-4.39-4.04-.46-.32-.97.38-.59.76h0Z"/>
          <path class="cls-5" d="M27.34,56.88c-1.26-3.61-1.09-7.81,0-12.52,1.09-4.7,1.6-7.9,1.93-11.09s-1.34-5.46.25-9.07,2.6-5.46,4.54-6.3c1.93-.84,4.62,2.94,9.16,5.88s12.94,9.16,16.21,15.88c3.28,6.72,5.21,13.36,5.71,19.32.5,5.96-.59,12.35-.5,12.68l.08.34s0-4.12-2.6-7.98c-2.6-3.86-7.22-5.38-7.9-8.15s-1.43-6.97-3.28-8.48-5.54-1.93-7.06-5.12-3.28-9.66-5.96-10.92c-2.69-1.26-3.36,1.6-3.36,3.86s-2.18,5.21-2.6,7.22,1.01,5.46,1.6,10.5-.76,11.09-1.26,12.18-1.09,2.35-1.09,2.35c0,0-2.6-6.97-3.86-10.58Z"/>
          <path class="cls-5" d="M70.01,25.72s-2.02-.34-4.03,4.2c-2.02,4.54-5.63,13.78-5.63,13.78l-8.06-9.58s.67-4.2,3.28-7.39c2.6-3.19,4.03-5.21,5.71-7.64s1.68-4.2,3.19-3.78,3.61,5.21,4.28,6.8,1.26,3.61,1.26,3.61Z"/>
          <path class="cls-2" d="M58.22,58.45c1.32-1.49,2.49-3.23,3.22-5.09.13-.34-.4-.55-.58-.25-1.01,1.68-1.96,3.38-3.04,5.03-.16.24.21.53.4.31h0Z"/>
          <path class="cls-2" d="M51.08,47.27c1.98-2.3,3.66-5.2,4.3-8.2.08-.38-.42-.5-.56-.16-1.19,2.85-2.42,5.45-4.23,7.97-.21.29.26.66.5.39h0Z"/>
          <path class="cls-2" d="M43.2,38.45c1.94-2.81,3.5-6.42,3.57-9.88,0-.34-.52-.42-.6-.08-.84,3.48-1.7,6.51-3.6,9.59-.25.4.36.75.63.37h0Z"/>
          <path class="cls-2" d="M36.74,30.5c-.75-3.29-1.35-7.1-2.14-10.38-.08-.33-.62-.27-.6.08.25,3.39,1.14,7.23,2.06,10.49.12.44.78.25.68-.19h0Z"/>
          <path class="cls-2" d="M33.33,37.54c-.44-.34-.82-.78-1.18-1.2s-.63-.92-1.01-1.33c-.29-.3-.76.02-.67.39.28,1.21,1.41,2.11,2.37,2.77.38.26.87-.36.5-.64h0Z"/>
          <path class="cls-2" d="M32.86,56.38c-1.67-1.22-3.1-2.61-4.44-4.18-.23-.26-.63.07-.47.36,1.05,1.87,2.66,3.43,4.52,4.49.45.26.8-.39.4-.68h0Z"/>
          <path class="cls-2" d="M48.71,40.94c.27-.65.67-1.33.8-2.03.07-.38-.4-.59-.63-.27-.41.61-.63,1.41-.91,2.09-.19.46.55.65.73.2h0Z"/>
          <path class="cls-2" d="M56.91,48.59c.46,0,.46-.72,0-.72s-.46.72,0,.72h0Z"/>
          <path class="cls-2" d="M40,29.35c.17-.47.38-.95.42-1.46.03-.35-.43-.39-.59-.16-.3.4-.45.93-.63,1.39-.19.5.63.73.81.22h0Z"/>
          <path class="cls-2" d="M48.65,22.43c-1.31-.89-2.54-1.89-3.61-3.06-1.16-1.26-2.59-2.81-2.75-4.58-.03-.36-.57-.49-.67-.09-.39,1.64.99,3.13,2,4.3,1.35,1.57,2.94,2.92,4.66,4.07.39.26.76-.37.37-.63h0Z"/>
          <path class="cls-2" d="M52.15,16.37c-2.1-3.08-4.1-6.57-6.67-9.27-.27-.29-.69.08-.53.41,1.67,3.32,4.46,6.2,6.63,9.2.24.34.81.02.57-.33h0Z"/>
          <path class="cls-2" d="M53.01,9.92c-.44-.63-.84-1.38-1.39-1.92-.28-.27-.65.07-.51.39.3.67.84,1.29,1.26,1.9.27.39.91.02.64-.37h0Z"/>
          <path class="cls-2" d="M47.37,15.42c-.23-.45-.42-1.02-.78-1.39-.28-.29-.67.02-.62.36.08.5.43,1.02.66,1.46.25.5,1,.06.75-.44h0Z"/>
          <path class="cls-2" d="M64.32,28.69c-.55-.72-1.02-1.49-1.41-2.3s-.6-1.68-.99-2.48c-.12-.26-.49-.11-.5.14-.1,1.86,1.11,3.78,2.29,5.11.29.33.89-.12.62-.48h0Z"/>
          <path class="cls-2" d="M62.04,33.66c-.55-1.39-1.4-2.99-2.75-3.74-.31-.17-.77.2-.53.53.87,1.15,1.86,2.09,2.43,3.45.21.51,1.06.3.85-.23h0Z"/>
          <path class="cls-2" d="M59.91,35.31c-.35-.41-.84-.91-1.39-1.04-.35-.08-.54.31-.33.56.3.37.71.64,1,1.03.39.53,1.15-.05.72-.56h0Z"/>
          <path class="cls-4" d="M46.77,88.47c-1.21-3.87-2.01-7.8-2.79-11.78-.07-.36-.69-.28-.65.09.49,4.03,1.56,8,2.82,11.86.13.39.74.22.61-.17h0Z"/>
          <path class="cls-4" d="M52.92,85.86c0-1.11.05-2.25-.07-3.36-.05-.4-.58-.4-.63,0-.12,1.11-.06,2.25-.07,3.36,0,.5.77.5.77,0h0Z"/>
          <path class="cls-4" d="M67.5,56.49c.55-.87,1.07-1.85,1.12-2.9.01-.32-.49-.48-.63-.17-.41.89-.66,1.83-1.11,2.71-.22.41.38.76.63.37h0Z"/>
          <path class="cls-4" d="M37.26,19.83c2.8,2.6,6.06,4.68,9.11,6.96,3.23,2.42,6.15,5.15,8.63,8.35,2.21,2.85,4.09,5.93,5.68,9.15,1.73,3.5,2.28,7.12,3.2,10.85.12.5.93.4.9-.12-.16-3.62-1.55-7.26-2.78-10.63s-3.1-6.8-5.38-9.74c-5.07-6.55-12.18-10.77-18.71-15.67-.5-.37-1.11.44-.66.85h0Z"/>
          <path class="cls-4" d="M30.23,65.66c.72,3.75,1.38,7.52,2.16,11.26.64,3.05,1.43,5.99,2.78,8.81,1.22,2.53,2.88,5.08,5.19,6.73s5.13,2.2,7.9,2.37,5.69.06,8.2-1.16c2.35-1.15,3.98-3.28,5.01-5.63,1.36-3.11,1.75-6.54,2.4-9.85.63-3.22,1.5-6.82,1.01-10.09-.08-.56-.98-.52-1.09,0-.61,2.95-.6,6.06-1.06,9.04-.41,2.71-1.01,5.41-1.78,8.04-.83,2.82-2.27,5.63-4.99,7.02-2.5,1.28-5.57,1.33-8.31,1.06-13.1-1.28-14.07-17.95-16.34-27.9-.16-.71-1.21-.4-1.08.3h0Z"/>
        </g>
      </g>
      <rect class="cls-3" width="100" height="100"/>
    </g>
  </g>
</svg>