<?xml version="1.0" encoding="UTF-8"?>
<svg id="Capa_2" data-name="Capa 2" xmlns="http://www.w3.org/2000/svg" viewBox="0 0 100 100">
  <defs>
    <style>
      .cls-1 {
        fill: none;
      }

      .cls-2 {
        fill: #4a2d2d;
      }

      .cls-3 {
        fill: #f4f5d8;
      }

      .cls-4 {
        fill: #c0c728;
      }
    </style>
  </defs>
  <g id="COLOR">
    <g>
      <g>
        <path class="cls-4" d="M39.61,47.18s-.59-9.57-2.96-21c-2.37-11.43-4.67-17.62-7.45-19.39-1.86-1.19-7.71-1.78-10.58-.17-2.88,1.61-3.05,3.73-1.27,5,1.78,1.27,5.17,6.44,7.54,12.28,2.37,5.84,5.08,19.73,5.08,19.73,0,0,8.04,2.96,9.65,3.56Z"/>
        <path class="cls-4" d="M55.62,10.35s-.42-2.54-5.5-3.81-7.03-1.44-7.87,5.08c-.85,6.52-.42,15.5.08,23.88s1.69,14.23,1.69,14.23c0,0,2.54,2.12,6.77,1.95s5.42-3.05,5.42-3.05c0,0-2.29-10.16-2.79-17.27-.51-7.11.93-15.07,1.35-17.1s.85-3.9.85-3.9Z"/>
        <path class="cls-4" d="M70.35,11.03c-1.61,3.05-3.05,14.65-5.67,21.93-2.62,7.28-5,8.98-7.54,10.92-2.54,1.95-3.56,2.46-3.56,2.46,0,0,8.47,6.77,15.41,7.45,6.94.68,8.04-.42,8.04-.42,0,0-1.95-7.37.25-15.67s4.4-11.52,5.5-18.8c1.1-7.28-.97-10.46-2.29-11.6-2.54-2.2-8.55.68-10.16,3.73Z"/>
        <path class="cls-3" d="M56.21,44.3s-9.23,4.4-16.09,2.12-7.71-5.59-11.69-3.22-6.6,13.04-5.42,22.02,5.59,20.49,13.63,25.4,14.06,4.66,17.1,4.66,4.23-.51,4.23-.51c0,0,9.57,4.23,16.43-.93,6.86-5.17,10.08-13.89,9.4-20.32-.68-6.44-6.6-20.24-6.94-20.66s-6.1.08-13.38-3.13c-6.03-2.66-7.28-5.42-7.28-5.42Z"/>
        <path class="cls-2" d="M69.78,13.06c1.29,1.24,3.83.82,5.42.52,2.24-.43,4.69-1.46,6.19-3.23.36-.42-.1-1.16-.63-.81-1.55,1.01-2.93,2.06-4.73,2.62-1.29.4-4.32,1.16-5.5.17-.51-.43-1.25.27-.75.75h0Z"/>
        <path class="cls-2" d="M44.08,6.43c-3.27,4.49,8.58,9.52,11.38,4.66.29-.51-.45-1.13-.84-.65-1.29,1.6-3.5,1.56-5.35,1.11-1.62-.39-5.71-2.19-4.3-4.6.34-.59-.51-1.05-.9-.52h0Z"/>
        <path class="cls-2" d="M16.41,9.15c-.31,2.79,3.45,2.91,5.37,2.67,2.86-.35,5.98-1.5,8.1-3.5.42-.4-.15-1.18-.63-.82-1.61,1.18-3.16,2.07-5.08,2.66-1.51.47-6.68,1.82-6.71-1.02,0-.69-.97-.66-1.05,0h0Z"/>
        <g>
          <path class="cls-2" d="M33.65,59c2.5-3.96,5.62-7.21,10.06-8.92,2.21-.85,4.43-1.67,6.63-2.54,1.94-.77,4.29-1.26,5.93-2.58.37-.3.06-.95-.39-.93-2.54.14-5.28,1.76-7.66,2.64-2.42.9-4.9,1.8-7.17,3.05-3.85,2.13-7.14,5.73-9.47,9.43-2.34,3.71-3.79,8.02-4.37,12.36-.54,4.12-.73,9.64,2.01,13.07.58.72,1.63-.2,1.23-.95-4.02-7.63-1.18-17.74,3.19-24.64Z"/>
          <path class="cls-2" d="M82.8,80.72c-.7.97-1.05,2.2-1.61,3.26-.53,1-1.09,1.99-1.73,2.93-1.45,2.1-3.33,3.92-5.51,5.25-.59.36-1.19.67-1.79.95,1.15-1.16,2.05-2.63,2.74-4.07,1.68-3.54,2.71-7.4,3.2-11.27.51-4.02.36-8.13-.41-12.12-.06-.3-.12-.59-.19-.88-.07-.29-.15-.59-.23-.88-.08-.29-.17-.59-.27-.88-.09-.29-.19-.58-.29-.88-.1-.29-.2-.58-.31-.87-.1-.29-.21-.58-.32-.87-.11-.29-.21-.58-.32-.88-.11-.29-.21-.58-.31-.88-.1-.29-.2-.58-.29-.88-.09-.29-.19-.59-.27-.88-.09-.29-.17-.59-.24-.88-.07-.29-.14-.59-.2-.89-.02-.12-.05-.23-.07-.35-.01-.08-.03-.16-.04-.24-.01-.06-.04-.12-.1-.15-.07-.03-.13-.06-.21-.08-.06-.02-.13-.03-.19-.03-.14,0-.29.09-.33.23-.02.07,0,.14.01.21.02.17.05.33.08.49.02.09.03.18.05.28.06.31.12.61.19.92.07.3.15.61.23.91.08.3.17.6.26.9.09.3.19.6.28.9.1.3.19.6.29.9.1.3.2.6.29.91.1.3.19.61.28.91.09.31.18.61.26.92.03.11.06.21.08.32.99,3.82,1.41,7.78,1.23,11.72-.31,6.61-2.04,15.91-8.33,19.47-1.27.27-2.56.39-3.86.36,4.79-3.62,5.64-10.66,5.16-16.29-.39-4.62-1.26-9.15-1.11-13.81.02-.63.06-1.26.11-1.88.05-.62.12-1.25.21-1.87.08-.62.18-1.23.3-1.85.11-.61.24-1.22.39-1.83.14-.61.3-1.21.47-1.81.06-.2.12-.4.18-.6.06-.19.14-.39.18-.58.03-.15-.02-.36-.15-.46-.18-.13-.52-.02-.65.14-.09.11-.11.27-.16.4-.05.15-.1.3-.14.45-.09.3-.19.6-.27.91-.17.61-.33,1.22-.48,1.83-.15.61-.28,1.23-.4,1.85-.12.62-.23,1.25-.32,1.87-.03.22-.07.44-.1.66-.59,4.23-.14,8.4.37,12.61.85,6.96,1.26,15.59-5,20.16-1.79-.17-3.58-.6-5.35-1.24-1.35-8.03-.54-16.03,1.89-23.83,1.29-4.16,2.99-8.19,4.85-12.12.75-1.58,1.15-2.33,1.97-3.89.05-.25.11-.78-.29-.91-.4-.13-.85.41-.9.51-.95,1.93-1.46,3.14-2.33,5.05-1.8,3.93-3.38,7.96-4.59,12.11-2.14,7.38-3.1,15.44-1.49,23.03-.05,0-.09-.01-.14,0-1.9.35-3.86.58-5.81.65-4.2-2.63-7.09-8.18-7.35-13.05-.28-5.28,2.49-10.12,5.74-14.07,2.64-3.22,5.69-6.09,8.47-9.19,1.06-1.19,3.44-3.99,4.16-5.59.1-.21.5-1.03.07-1.06-.36-.03-.7.58-.87.82-.37.51-4.63,5.61-6.16,7.26-3.27,3.52-6.68,6.94-9.22,11.05-2.52,4.07-4.05,8.74-2.86,13.52.99,3.95,3.3,7.89,6.63,10.33-1.98-.01-3.95-.21-5.88-.68-.27-.06-.52-.15-.78-.22-.02-.05-.05-.1-.1-.14-4.77-4.43-7.88-9.93-7.73-16.6.15-6.59,3.69-13.06,8.41-17.54,3.13-2.96,7.29-4.85,10.74-7.42.59-.44,1.19-.87,1.79-1.32.33-.25.76-.61,1.09-.87.26-.21,1.07-.84.84-1.27-.18-.33-1.59.81-1.93,1.08-.47.38-1.09.77-1.57,1.14-.97.73-1.96,1.43-2.97,2.11-.26.18-.53.35-.79.52-1.53,1-3.13,1.87-4.67,2.84-2.48,1.57-4.61,3.67-6.41,5.98-3.87,4.98-6.31,10.95-5.66,17.33.5,4.92,2.83,9.87,6.51,13.25-2.41-1.09-4.53-2.63-6.53-4.54-.74-.7-1.71.33-1.1,1.1,5.69,7.06,16.18,8.51,24.49,6.54.09-.02.16-.07.23-.11,5.22,2.65,11.97,1.98,16.92-.94,2.35-1.39,4.38-3.27,6.02-5.46,1.49-1.99,3.38-5.03,3.2-7.63-.05-.65-.81-.83-1.18-.32Z"/>
        </g>
        <path class="cls-2" d="M27.28,43.29c-2.22,1.73-3.6,5.35-4.03,8.05-.28,1.72-.7,3.41-.9,5.14-.23,1.99-.14,4.04-.06,6.04.03.68,1.02.68,1.06,0,.09-1.66.2-3.32.28-4.97.08-1.76-.01-3.7.49-5.41.44-1.51,1.04-3.1,1.76-4.48.68-1.3,1.69-2.32,2.47-3.54.45-.7-.5-1.26-1.07-.82h0Z"/>
        <path class="cls-2" d="M22.44,66.69c.03.2.04.42.12.62.07.18.16.34.34.44.15.08.3.11.47.09.38-.05.6-.35.64-.72.02-.27-.05-.56-.1-.82-.03-.18-.2-.37-.35-.45-.16-.1-.4-.14-.59-.08s-.36.17-.45.35c-.1.19-.11.37-.08.59h0Z"/>
      </g>
      <rect class="cls-1" width="100" height="100"/>
    </g>
  </g>
</svg>