<?xml version="1.0" encoding="UTF-8"?>
<svg id="Capa_2" data-name="Capa 2" xmlns="http://www.w3.org/2000/svg" viewBox="0 0 100 100">
  <defs>
    <style>
      .cls-1 {
        fill: none;
      }

      .cls-2 {
        fill: #4a2d2d;
      }

      .cls-3 {
        fill: #cf8ea4;
      }

      .cls-4 {
        fill: #ecd2db;
      }
    </style>
  </defs>
  <g id="COLOR">
    <g>
      <g>
        <g>
          <path class="cls-3" d="M82.09,66.61c-1.6-.92-1.91,2.71-8.62,7.2-6.71,4.49-13.85,7.08-15.02,10.83s2.28,9.3,11.33,9.23,13.01-7.01,14.4-10.4c2.95-7.2-.49-15.94-2.09-16.87Z"/>
          <path class="cls-2" d="M63.82,85.61c3.35.44,6.75-1.57,9.37-3.46,2.29-1.65,5.43-4.01,6.43-6.74.13-.36-.33-.51-.57-.33-1.09.85-1.87,2.1-2.85,3.09-1.1,1.11-2.3,2.11-3.58,3-2.47,1.71-5.72,3.71-8.8,3.57-.57-.03-.54.8,0,.87h0Z"/>
          <path class="cls-2" d="M80.72,72.73c.65,0,.65-1.01,0-1.01s-.65,1.01,0,1.01h0Z"/>
        </g>
        <g>
          <path class="cls-4" d="M69.2,70.88c-2.09,2.38-5.54,4.43-9.32,4.64-1.22.07-2.34-.09-3.17-.26-.83-.17-1.35-.36-1.35-.36,0,0-.08.09-.25.24-.89.8-4.15,3.31-9.84,3.45-4.2.1-7.48-1.74-9.37-3.15-1.16-.86-1.79-1.57-1.79-1.57,0,0-.3.15-.83.35-2.47.94-9.87,2.99-14.43-3.8-4.47-6.66-2.12-14.22,3.45-19.66,5.54-5.42,13.83-9.61,16.58-14.2,2.5-4.18.74-7.84-.37-10.09-1.11-2.26-1.48-3.28-.9-3.2.58.08,2.95,1.31,4.43,3.28,1.39,1.85,1.69,3.01,1.72,3.15-.01-.25-.23-3.53,1.03-6.92,1.31-3.53,2.95-5.46,3.49-5.21.54.25-.2,4.47-.49,6.94-.29,2.46.04,4.59.04,4.59,0,0,1.11-1.89,3.2-3.2,2.09-1.31,3.32-1.39,3.49-1.06.16.32-3.32,3.53-2.83,7.96.49,4.43,4.23,7.06,7.35,8.99,3.12,1.93,11.41,6.04,13.54,13.63,2.13,7.59-1.27,13.09-3.36,15.47Z"/>
          <path class="cls-2" d="M31.86,58c.94-2.18,2.11-4.16,3.49-6.08,1.26-1.75,2.75-3.46,3.55-5.48.13-.34-.38-.63-.61-.36-1.45,1.74-2.65,3.76-3.91,5.64s-2.47,3.83-3.2,5.99c-.13.39.51.67.68.28h0Z"/>
          <path class="cls-2" d="M40.19,44.34c2.45-2.56,4.31-6.92,3.29-10.49-.09-.31-.57-.32-.59.04-.11,1.84,0,3.53-.56,5.34-.54,1.74-1.48,3.28-2.61,4.7-.23.28.22.69.48.42h0Z"/>
          <path class="cls-2" d="M47.63,32.01c-1.03,3.82.93,7.59,2.95,10.74,1.11,1.73,2.45,3.33,3.66,5,1.4,1.93,2.28,3.85,3.05,6.1.1.3.64.28.6-.08-.99-8.3-11.18-12.44-9.6-21.57.07-.43-.54-.62-.66-.18h0Z"/>
          <path class="cls-2" d="M33.28,74.23c-2.66-3.51-3.49-8.42-2.56-12.69.08-.4.76-.31.71.1-.54,4.3.39,8.32,2.72,11.68.52.75-.34.72-.87.92Z"/>
          <path class="cls-2" d="M59.49,69.42c-.55,1.91-1.46,4.11-2.77,5.84-.83-.17-1.35-.36-1.35-.36,0,0,.27-.48.53-.85s.53-.77.75-1.19c.7-1.29,1.26-2.66,1.66-4.07.83-2.9.85-5.63.52-8.59-.06-.49.72-.57.85-.11.82,2.98.65,6.37-.2,9.33Z"/>
        </g>
      </g>
      <rect class="cls-1" width="100" height="100"/>
    </g>
  </g>
</svg>