<?xml version="1.0" encoding="UTF-8"?>
<svg id="Capa_2" data-name="Capa 2" xmlns="http://www.w3.org/2000/svg" viewBox="0 0 100 100">
  <defs>
    <style>
      .cls-1 {
        fill: none;
      }

      .cls-2 {
        fill: #6a8c2a;
      }

      .cls-3 {
        fill: #4a2d2d;
      }

      .cls-4 {
        fill: #4f3535;
      }
    </style>
  </defs>
  <g id="COLOR">
    <g>
      <g>
        <g>
          <path class="cls-2" d="M60.05,42.87c-2.67-6.77-11.11-3.86-14.25,2.19-3.13,6.06-4.08,13.1-9.55,18.05-5.47,4.95-16.05,12.86-12.94,19.8,3.11,6.94,11.12,8.33,19.5.75,8.38-7.58,22.49-27.48,17.23-40.79Z"/>
          <path class="cls-4" d="M53.7,41.25c-5.05,3.62-6.98,10.09-9.34,15.56-1.24,2.88-2.62,5.74-4.55,8.23-2.31,2.97-5.4,5.09-8.15,7.61-2.72,2.5-5.56,5.67-5.97,9.49-.06.51.72.57.86.12,1.11-3.43,3.12-6.17,5.75-8.61,2.62-2.44,5.52-4.65,7.8-7.42,3.91-4.73,5.62-10.74,8.19-16.2,1.45-3.08,3.28-6.03,5.56-8.58.09-.1-.03-.29-.16-.2h0Z"/>
          <path class="cls-3" d="M32.42,85.64c2.94-1.17,5.31-3.31,7.55-5.48,2.38-2.32,4.62-4.79,6.66-7.42,4.09-5.28,7.35-11.25,9.09-17.72.5-1.84.87-3.72,1.09-5.62.1-.92.18-1.84.21-2.77.04-.98.12-1.95-.27-2.87-.13-.31-.55-.34-.66,0-.26.74-.24,1.44-.26,2.21-.02.88-.08,1.76-.17,2.64-.16,1.66-.43,3.31-.79,4.94-.72,3.24-1.82,6.39-3.25,9.39-2.76,5.79-6.67,10.99-11.1,15.61-2.44,2.54-5,5.27-8.26,6.73-.21.09-.06.47.16.38h0Z"/>
        </g>
        <g>
          <path class="cls-2" d="M75.7,29.5c-5.68-4.55-11.56,2.16-11.28,8.98.29,6.81,2.96,13.4.68,20.41s-7.55,19.13-1.4,23.61c6.15,4.48,13.78,1.71,17.3-9.03,3.51-10.74,5.88-35.02-5.3-43.96Z"/>
          <path class="cls-4" d="M70.44,28.97c-1.07,1.02-1.93,2.16-2.5,3.53s-.86,2.81-1.02,4.26c-.38,3.3.09,6.62.6,9.88.57,3.62,1.12,7.23.74,10.9-.39,3.73-1.57,7.29-2.61,10.87-1.06,3.64-2.16,8.03-.65,11.7.27.66,1.25.43,1.1-.3-.36-1.69-.55-3.37-.39-5.09.17-1.79.6-3.55,1.08-5.28.94-3.39,2.06-6.72,2.56-10.21s.27-6.94-.28-10.43c-.52-3.3-1.24-6.61-1.11-9.98s1.01-6.72,3.06-9.28c.32-.4-.19-.94-.57-.57h0Z"/>
          <path class="cls-4" d="M72.86,30.02c1.21,3.2,2.13,6.49,2.74,9.86.31,1.72.6,3.44.79,5.18s.4,3.41.38,5.11c-.07,6.79-.95,13.64-2.64,20.21-.47,1.84-1.01,3.66-1.61,5.45-.3.9-.61,1.79-.91,2.69-.33.96-.69,1.82-.73,2.84-.02.36.48.56.72.3,1.14-1.24,1.68-3.1,2.22-4.66s1.08-3.27,1.53-4.94c.93-3.39,1.64-6.84,2.06-10.34.41-3.42.56-6.83.36-10.27-.2-3.46-.4-6.89-1.01-10.31-.69-3.86-1.86-7.66-3.34-11.28-.14-.35-.72-.21-.58.16h0Z"/>
        </g>
        <g>
          <path class="cls-2" d="M62.83,25.56c.45-5.26-3.64-11.02-10.54-10.66-6.9.36-22.26,9.63-27.98,16.35-5.72,6.72-8.75,14.93-3.23,19.22,5.52,4.29,13.7-2.43,16.89-6.31,3.19-3.88,7.63-6.17,10.15-7.37,2.52-1.2,14.26-5.98,14.71-11.24Z"/>
          <path class="cls-4" d="M58.66,18.09c-1.59.28-3.14.47-4.71.92-1.54.44-3.07.95-4.57,1.52-2.97,1.12-5.85,2.47-8.59,4.07-5.59,3.25-10.75,7.5-14.72,12.63-1.15,1.49-2.25,3.03-3.29,4.61s-2.28,3.32-2.81,5.15c-.12.42.43.6.66.28,1-1.38,1.68-3.06,2.55-4.53s1.81-2.86,2.87-4.19c2.03-2.54,4.25-4.92,6.69-7.07,4.73-4.17,10.23-7.45,16.1-9.75,1.63-.64,3.28-1.2,4.96-1.69.8-.23,1.6-.46,2.41-.69.87-.24,1.7-.57,2.58-.78.31-.07.17-.52-.13-.47h0Z"/>
          <path class="cls-4" d="M26.07,50.53c1.55-2.73,2.98-5.41,5.03-7.83,1.89-2.23,4.07-4.22,6.45-5.93,2.23-1.6,4.66-2.95,7.22-3.95,3.16-1.23,6.48-2.02,9.56-3.45,1.48-.69,2.89-1.55,4.14-2.61,1.15-.98,2.38-2.25,2.79-3.75.1-.36-.41-.72-.68-.39-.94,1.17-1.72,2.39-2.87,3.38-1.11.96-2.39,1.72-3.71,2.36-3.15,1.52-6.59,2.29-9.82,3.59-5.2,2.1-9.81,5.48-13.4,9.79-2.11,2.53-4.16,5.44-5.29,8.54-.12.34.41.56.58.25h0Z"/>
        </g>
      </g>
      <rect class="cls-1" width="100" height="100"/>
    </g>
  </g>
</svg>