<?xml version="1.0" encoding="UTF-8"?>
<svg id="Capa_2" data-name="Capa 2" xmlns="http://www.w3.org/2000/svg" viewBox="0 0 100 100">
  <defs>
    <style>
      .cls-1 {
        fill: #fff;
      }

      .cls-2 {
        fill: none;
      }

      .cls-3 {
        fill: #4a2d2d;
      }

      .cls-4 {
        fill: #dbdf84;
      }

      .cls-5 {
        fill: #9bb533;
      }
    </style>
  </defs>
  <g id="COLOR">
    <g>
      <g>
        <g>
          <path class="cls-5" d="M83.63,23.93c1.14-3.11.83-6.71-1.42-9.25-4.4-4.96-13.51-2.7-15.72,3.29-.6,1.64-.59,3.85-.2,6.47.25,1.64-1.75,1.44-3.08,2.23-3.08,1.84-3.12,5.93-2.1,9.15.13.4.3.78.43,1.17.28.89.34.71-.39,1.22-.58.41-1.08.94-1.43,1.56-.85,1.5-.74,3.26-.08,4.8.79,1.83,2.25,3.15,3.79,4.35,1.98,1.54,4.7,3.67,4.73,6.49,0,.25.11.42.26.51.02.08.04.14.06.21.08-.6.16-1.2.25-1.8.19-1.34.88-3.34,1.13-4.67.44-2.38.23-4.55.68-6.93,0-.08,0-.17-.01-.25-.01-.18.04-.31.13-.4.02-.08.03-.15.04-.23.12-.59,1.02-.43,1.03.14,0,.36,0,.73-.02,1.09.27,2.7.11,5.43.13,8.14,0,.72,0,1.43-.01,2.15,3.06-2.52,7.01-5.55,8.47-7.89,1.94-3.11,2.78-7.05,1.54-10.58-.77-2.17-2.04-3.86-.89-6.18.83-1.66,2.03-3.06,2.68-4.82Z"/>
          <path class="cls-5" d="M39.88,37.33c-.78-1.81-2.51-2.62-3.01-4.64-.84-3.47.24-7.67-2.82-10.36-1.18-1.04-2.39-.71-3.75-1.19-1.19-.43-1.58-1.72-2.23-2.67-.57-.83-1.26-1.56-2.05-2.18-2.37-1.84-5.8-2.3-8.34-.51-2.47,1.74-3.19,5.02-2.67,7.86.34,1.85,1.18,3.58,2.14,5.18,1.11,1.85,2.75,3.64,1.91,5.94-.98,2.67-3.89,4.82-2.95,7.98.42,1.42,1.66,2.75,2.85,3.61,2.6,1.89,5.24,1.07,5.52,2.11.24.93-.93,2.16-.31,3.53.31.7.78,1.25,1.42,1.68,2.47,1.68,5.9,1.42,7.4,3.22.13.16.81-.54,1.25-.9-.25-1.11-1.87-2.8-2.03-3.89-.23-1.5-.38-3-.58-4.5-.09-.72-.19-1.45-.31-2.17-.13-.76-.21-1.55-.42-2.3-.06-.2,0-.36.12-.47,0,0,0,0,0-.01-.19-.63.39-.35.6.26.47,1.4,1.02,3.22,1.35,4.66.32,1.43.69,2.35,1.02,3.78.18.8.07,1.76.29,2.55.16-.21.83-1.03.96-1.23.03-.02.06-.04.08-.07,2.54-2.41,4.72-5.9,5.16-9.42.23-1.86.17-4.09-.59-5.84Z"/>
          <path class="cls-5" d="M60.17,25.71c-.19-1.68-1.18-2.8-2-4.21-1.25-2.16.36-3.7,1.28-5.6.67-1.38.87-2.77.38-4.25-1.02-3.05-4.25-4.12-7.17-3.79-1.57.18-2.52.58-3.7-.85-.43-.52-.72-1.02-1.26-1.46-1.14-.92-2.62-1.3-4.07-1.32-2.76-.04-5.99,1.36-7.12,4.02-1.42,3.32,1.18,6.25,3.23,8.56,1.49,1.68,3.01,3.81,2.06,6.13-.74,1.82-2.4,3.11-2.99,5.03-.49,1.6-.09,3.19,1.06,4.4,1.35,1.42,3.34,1.87,4.76,3.17,2.69,2.46,3.34,7.46,4.12,10.77.05.22.45,2.77.59,2.7-.05-.69.39-6.42.47-7.36.2-2.22.38-3.46.57-5.68.02-.22-.18-1.33-.03-1.42.19-.55,1.11-.69,1.22,0,0,.06.01.11.02.17h0s0,.01,0,.02c.21,1.54.08,3.08-.05,4.63.03.76.07,1.52.11,2.28.02.53.05,1.05.07,1.59,2.7-3.89,6.08-9.22,7.38-12.28.7-1.64,1.28-3.42,1.08-5.22Z"/>
          <path class="cls-4" d="M49.66,29.43s-.55,12.45-.87,15.6-.58,9.82-.58,9.82c0,0-4.6.77-6.78,1.49-2.18.73-4.13,1.45-4.13,1.45,0,0-3.83-18.1-9.05-24.08-.16-.18,3.97,20.92,3.97,22.69s.32,3.55.32,3.55c0,0-3.95,2.37-5.72,9.63s-1.78,16.06,5.49,18.56c7.26,2.5,17.43,1.45,17.83,2.5l.4,1.05s.32,4.03.97,3.63l.65-.4s.97-2.91,1.45-2.58c0,0,1.53,2.18,1.94,1.45s0-3.15.65-2.99,13.64.97,18.48-8.88c4.84-9.84,2.34-16.22.56-18.48s-3.19-3.15-3.19-3.15c0,0,.5-6.37.67-11.14s-.48-17.19-.48-17.19c0,0-3.43,14.14-4.4,19.51-.69,3.8-1.17,5.61-1.17,5.61,0,0-.95-1.15-5.55-1.71s-8.25-.46-8.25-.46c0,0-.6-15.28-.85-19.31-.61-9.8-2.18-13.74-2.18-13.74l-.18,7.57Z"/>
          <path class="cls-3" d="M44.26,65.73c2.22.34,4.45.56,6.7.6,1.96.04,4.24.24,6.07-.55.3-.13.21-.62-.09-.68-1.9-.41-4.04.04-5.98.03-2.19-.02-4.38-.18-6.56-.46-.6-.08-.74.97-.14,1.06h0Z"/>
          <path class="cls-3" d="M60.05,65.8c.42-.08.94-.13,1.28-.39.26-.21.07-.58-.18-.68-.2-.07-.42-.03-.63-.02s-.4.04-.61.07c-.31.04-.56.25-.51.59s.34.49.65.43h0Z"/>
          <path class="cls-3" d="M30.33,70.67c1.34.97,3.04,1.8,4.73,1.58.33-.04.44-.5.08-.61-1.56-.47-3.01-.76-4.38-1.7-.45-.31-.86.41-.43.73h0Z"/>
          <path class="cls-3" d="M43.17,73.67c3.15.55,6.33.95,9.52,1.09,3.01.13,6.6.33,9.44-.86.34-.14.32-.65-.09-.66-3.11-.13-6.22.41-9.36.28-3.14-.13-6.27-.5-9.41-.72-.5-.03-.62.79-.12.88h0Z"/>
          <path class="cls-3" d="M66.53,72.93c2.17-.02,5.14-.28,6.83-1.78.27-.24-.03-.58-.31-.53-1.04.15-2.02.66-3.04.94-1.14.3-2.3.51-3.48.61-.48.04-.5.77,0,.77h0Z"/>
          <path class="cls-3" d="M33.8,79.8c2.32.94,5.18,1.83,7.72,1.49.44-.06.62-.71.11-.84-2.5-.65-5.07-.84-7.57-1.58-.61-.18-.82.7-.26.93h0Z"/>
          <path class="cls-3" d="M54.09,82.24c4.27.43,9,.85,12.98-1.11.36-.18.1-.69-.26-.62-4.27.84-8.38.91-12.71.79-.61-.02-.59.88,0,.94h0Z"/>
          <path class="cls-3" d="M27.53,34.28c.09,2.12.96,4.25,1.48,6.3.54,2.16,1.03,4.33,1.47,6.51.44,2.18.81,4.38,1.19,6.57.39,2.28.55,4.69,1.15,6.91.19.69,1.24.55,1.24-.17,0-4.39-1.27-9.06-2.17-13.34-.46-2.18-.94-4.35-1.45-6.51s-.82-4.61-1.88-6.55c-.26-.48-1.07-.27-1.05.28h0Z"/>
          <path class="cls-3" d="M49.5,21.99c1.18,5.63,1.82,11.3,2.03,17.04.1,2.74.11,5.48.06,8.22-.05,2.83-.35,5.73-.18,8.56.06.98,1.37.93,1.49,0,.37-2.91.26-5.97.3-8.9.04-2.85.03-5.71-.09-8.56-.24-5.62-.93-11.26-2.58-16.65-.2-.67-1.19-.39-1.04.29h0Z"/>
          <path class="cls-3" d="M71.29,32.83c-.16,4.8.15,9.62.09,14.42-.03,2.35-.1,4.69-.25,7.03s-.64,4.96-.48,7.36c.05.78,1.19,1.01,1.41.19.62-2.28.57-4.85.71-7.2.14-2.46.26-4.92.33-7.38.13-4.83.21-9.8-.51-14.59-.12-.76-1.27-.54-1.3.18h0Z"/>
          <path class="cls-3" d="M55.11,91.28c-.05.48-.07.96-.09,1.44-.44-.28-.89-.53-1.38-.73-.3-.12-.79.08-.92.37-.29.66-.67,1.29-1.08,1.88-.02.03-.1.13-.2.23-.11-.64-.37-1.26-.48-1.9-.11-.63-.03-1.37-.3-1.96-.6-1.32-2.55-1.16-3.74-1.32-2.51-.33-5.03-.62-7.54-.88-4.29-.44-9.49-.36-11.69-4.82-2.06-4.19-1.22-9.45-.22-13.79.19-.84-1.04-1.18-1.29-.36-1.37,4.48-2.12,10.1-.16,14.53,1.95,4.39,6.23,5.44,10.61,5.99,2.97.38,5.94.73,8.92,1.02.69.07,1.37.12,2.06.18,1.02.09,1.43-.15,1.61.91.12.73.26,1.44.48,2.15.23.77.57,2.51,1.71,2.31.9-.16,1.72-1.57,2.29-2.6.55.37,1.1.75,1.65,1.12.55.36,1.32-.11,1.3-.75-.03-1.01.09-2.02.06-3.03-.03-1.05-1.5-1.01-1.61,0Z"/>
          <path class="cls-3" d="M64.13,90.72c4.54-.08,8.56-3.01,11.02-6.68,1.39-2.08,2.32-4.47,2.87-6.9s1.19-5.56.36-7.84c-.21-.56-1.03-.62-1.21,0-.62,2.12-.28,4.57-.7,6.77-.43,2.25-1.2,4.44-2.38,6.4-2.26,3.76-5.86,6.16-10.12,7.09-.65.14-.5,1.17.16,1.16h0Z"/>
        </g>
        <path class="cls-1" d="M33.24,67.31c1.35-1.48,2.61-3.11,4.39-4.1,1.61-.89,3.64-.96,5.05-2.14.55-.46.29-1.59-.45-1.7-2.02-.29-4.36.91-5.99,2.07-1.77,1.26-3.11,3.07-4.25,4.9-.47.76.64,1.64,1.25.96h0Z"/>
        <path class="cls-1" d="M45.79,60.51l.19-.09s.06-.02.09-.04c.16-.09.27-.24.37-.38.13-.18.17-.54.1-.75-.08-.24-.22-.45-.45-.58-.26-.16-.56-.15-.85-.16-.7-.02-1.21.7-1.03,1.36.07.26.26.5.49.64.17.1.35.15.54.15.19,0,.37-.05.54-.15h0Z"/>
        <path class="cls-1" d="M63.95,86.8s.04,0,.06-.01l-.3.04c.06,0,.12,0,.18,0,.16-.01.31-.04.47-.07l-.31.04s.04,0,.06,0c.26-.02.48-.08.69-.24.19-.14.35-.35.41-.59.05-.2.05-.4,0-.6-.06-.24-.29-.57-.52-.68-.13-.06-.26-.12-.39-.16-.11-.03-.26-.05-.37-.05s-.26.02-.36.06-.29.11-.32.14c-.09.06-.19.14-.27.21-.1.09-.19.22-.26.33l-.11.26-.04.29c0,.24.09.47.23.66.27.36.71.49,1.15.39h0Z"/>
        <path class="cls-1" d="M70.2,82.98l.15-.18s.07-.09.1-.13c.09-.1.15-.22.18-.35l.04-.27s0-.06,0-.09c0-.13-.02-.25-.08-.36-.04-.12-.1-.22-.19-.3l-.19-.15c-.15-.08-.3-.13-.47-.13-.03,0-.05,0-.08,0-.09,0-.19.02-.28.04l-.25.1c-.08.05-.16.12-.24.18l-.18.15c-.1.1-.17.21-.22.34-.07.13-.1.26-.09.4,0,.14.02.28.09.4.04.13.11.24.22.34.2.18.46.32.74.31s.56-.1.74-.31h0Z"/>
      </g>
      <rect class="cls-2" width="100" height="100"/>
    </g>
  </g>
</svg>