<?xml version="1.0" encoding="UTF-8"?>
<svg id="Capa_2" data-name="Capa 2" xmlns="http://www.w3.org/2000/svg" viewBox="0 0 100 100">
  <defs>
    <style>
      .cls-1 {
        fill: #fff;
      }

      .cls-2 {
        fill: none;
      }

      .cls-3 {
        fill: #4a2d2d;
      }

      .cls-4 {
        fill: #dbdf84;
      }

      .cls-5 {
        fill: #51780a;
      }
    </style>
  </defs>
  <g id="COLOR">
    <g>
      <g>
        <g>
          <path class="cls-5" d="M87.75,47c-1.19-.57-1.89-.82-2.03-2.32-.07-.77,0-1.58-.25-2.33-1.07-3.1-4.95-1.85-6.84-.42-1.64,1.24-2.91,2.96-4.73,3.95-.38.21-1.74.87-2.22.6-.55-.3-.23-1-.11-1.31.23-.65.69-1.13.61-1.88-.05-.47-.24-.82-.61-1.1-.52-.39-1.95-.27-2.25-.97-1.06-2.47,5.28-2.29,6.51-2.79,1.26-.51,2.36-1.6,2.5-3.02.13-1.33-1.14-2.46-1.38-2.85-.83-1.35,1-1.21,1.91-1.38,2.88-.55,6.69-3.1,6.04-6.53-.28-1.46-1.43-2.52-2.67-3.21-.78-.44-1.65-.71-2.48-1.03-.3-.12-1.77-.6-1.97-1.02-.52-1.13.37-2.2,1.01-2.97.99-1.19,2.06-2.93.98-4.41-.38-.52-.94-.79-1.53-.99-.25-.09-.59-.11-.83-.22-1.03-.48-1.08-1.45-1.24-2.44-.15-.91-.54-1.78-1.08-2.52-.64-.89-1.38-1.65-2.39-2.12s-2.05-.61-3.09-.41c-1.51.28-2.83,1.23-4.02,2.15-1.07.82-2.13,1.51-3.55,1.08-.91-.27-1.69-.86-2.56-1.21-1.41-.57-2.7-.48-3.77.69-1.07,1.17-.97,2.76-1.28,4.21-.27,1.27-.9,2.36-2.32,2.35-.9,0-1.54,0-2.3.53-1.36.94-1.75,2.58-1.81,4.13-.08,2.55.28,5.1-.27,7.64-.11.49-.24,1.03-.52,1.45-.81,1.23-1.26.65-2.36.71-.53.03-.98.13-1.36.51-.37.37-.45.87-.55,1.35-.06.31-.01.78-.15,1.08-.61,1.28-1.98.53-2.7-.22-2.22-2.29-2.85-7.3-7.13-6.67-1.52.22-2.36,1.39-2.57,2.84-.24,1.67,1.04,5.74-1.9,5.14-1.18-.24-2.26-.85-3.08.51-.31.51-.36,1.16-.33,1.75.02.41.16.8.23,1.21.24,1.25-.27,1.6-1.38,1.79-1.69.29-3.04,1.03-3.4,2.85-.33,1.7.57,3.32,1.9,4.33,1.23.94,2.91,1.18,2.56,3.22-.14.82-.53,1.39-.39,2.25.26,1.54,2.34,2.88,2.39,4.39-2.02.28-3.97-.96-6-.52-1.98.43-2.78,2.29-3.5,3.98-1.6,3.78-.77,8.37,4.08,8.06,1.35-.08,1.84-.23,1.67,1.91-.04.49-.22.72-.12,1.21.1.52.37.93.78,1.26,1.45,1.16,5.96.07,4.92,2.89-.52,1.4-1.37,2.74.34,3.68,1.42.78,3.11.4,4.65.47,1.72.07,3.12,1.17,3.91,2.65.73,1.37,1.81,3.09,3.51,3.31.42.05.84,0,1.23-.15,1.12-.4,1.78-1.47,2.62-2.24.76-.69,1.69-1.34,2.75-1.42,1.22-.1,1.72.58,2.38,1.48.57.78,1.02,1.42,2.05,1.57.85.12,1.75-.34,2.51.31.51.44.71,1.36.95,1.97.78,1.92,2.2,3.52,4.37,3.79,2.06.26,4.05-.96,4.88-2.85.4-.9.47-1.85.35-2.82-.18-1.53-1.59-4.46.11-5.61,1.04-.71,2.61.12,3.77.04.97-.07,1.75-.51,2.26-1.35.54-.89.88-1.73,2.07-1.93.73-.12,1.58.28,2.29.44,1.23.27,2.49.36,3.64-.25,2.28-1.21,4.67-3.99,5.04-6.6.19-1.4-.18-2.55-.93-3.72-.63-.98-1.22-1.81-.82-3.02.16-.49.43-.89.77-1.24,1.4-1.1,2.8-2.61,3.92-3.99,1.05-1.28,1.79-2.81,1.88-4.47.08-1.43-.22-2.54-1.56-3.18Z"/>
          <path class="cls-1" d="M46.85,54.76c.96-3.37,1.43-6.73,1.32-10.24-.1-3.14-.41-6.75-1.86-9.58-.16-.31-.73-.18-.69.19.41,3.16,1.34,6.18,1.48,9.4.15,3.36-.15,6.79-.85,10.08-.08.38.48.54.59.16h0Z"/>
          <path class="cls-1" d="M40.88,52.43c-1.74-2.31-3.9-5.18-6.59-6.43-.46-.21-.92.32-.55.72,1.01,1.09,2.31,1.94,3.42,2.93,1.12,1.01,2.15,2.09,3.11,3.26.28.34.89-.12.62-.48h0Z"/>
          <path class="cls-1" d="M53.62,53.49c1.81-1.74,3.51-3.32,5.74-4.54,2.07-1.12,4.33-1.81,6.41-2.89.45-.23.14-.93-.34-.8-4.27,1.13-10.08,3.82-12.38,7.79-.21.36.27.72.57.44h0Z"/>
          <path class="cls-1" d="M57.15,61.12c4.77-.38,8.65.33,12.97,2.42.44.21.77-.37.38-.65-3.67-2.64-9.07-3.65-13.45-2.52-.41.1-.34.79.1.75h0Z"/>
          <path class="cls-4" d="M65.83,54.78c-3.26.25-7.53,2.01-11.54,3.76-4.02,1.76-5.86,2.59-5.86,2.59,0,0,6.78-12.46,8.87-16.48,2.09-4.02,3.96-8.61,3.96-8.61l12.27-8.54s-2.43-.08-4.52.67c-1.55.56-4.89,2.49-6.52,3.46.82-2.63,2.97-9.65,3.17-12.08.25-3.01-.67-3.68-.67-3.68,0,0-3.1,10.71-3.85,12.13s-3.76,7.95-3.76,7.95c0,0-1.59-6.94-2.76-9.2-1.17-2.26-1.84-2.43-1.84-2.43,0,0,2.26,10.04,1.51,14.39-.75,4.35-3.26,12.55-4.94,15.14-1.67,2.59-3.1,5.69-3.1,5.69,0,0-.17-5.94-2.59-9.87-2.43-3.93-5.93-7.08-5.93-7.08,0,0,4.97,7.34,5.55,12.61.59,5.27-.46,10.78-.46,10.78l-5.59-10.69s.74,3.74,1.33,5.42c.59,1.67.84,3.35.84,3.35,0,0-2.51-.75-4.43-.25s-3.1,1.84-3.1,1.84c0,0,4.02-1.09,6.27.84s1.51,4.68.84,6.61c-.67,1.92-13.47,18.66-13.39,20.08.08,1.42.84,2.34,2.59,1.59,1.76-.75,11.54-19.24,13.39-21.25,1.84-2.01,3.93-5.19,7.7-5.44,3.76-.25,9.74,1.15,9.74,1.15,0,0-1.35-1.76-5.3-2.74-2.31-.57-5.27-1-5.27-1,0,0,4.1-3.85,10.21-6.02,6.11-2.18,13.29-3.2,13.46-3.62.17-.42-3-1.32-6.26-1.07Z"/>
          <path class="cls-3" d="M59.23,70.03c.21-.21.29-.56-.15-.77-3.18-1.54-6.97-1.65-8.15-1.65-3.41,0-5.77,1.22-7.95,3.86-2.72,3.29-4.81,7.32-7,10.98-1.27,2.12-7.29,11.53-7.47,11.76-1.07.69-2.95.38-2.38-1.54,2.63-3.11,4.78-6.86,7.18-10.13,2.32-3.16,4.99-7.72,6.18-10.2,1.15-2.4,1.06-4.39-1.25-6.21-1.39-1.09-4.29-1.22-6.42-.46-.11.14-.2.21-.2.4,0,.19.07.39.23.42.08.02,1.76-.38,2.14-.43.74-.1,1.51-.07,2.24.12.69.18,1.34.53,1.83,1.07.42.46.69,1.03.83,1.64.7,3.04-1.81,5.88-3.42,8.16-1.76,2.5-3.22,5.19-5.01,7.67-1.8,2.5-3.84,4.91-5.3,7.64-.02.01-.03.03-.05.04-.86.94-.58,2.11.35,2.92,1.06.92,2.41.84,3.49-.03,1.78-1.45,2.84-4.1,4.01-6.03,1.48-2.43,2.97-4.86,4.45-7.29,1.39-2.28,2.77-4.57,4.18-6.85,1.32-2.13,2.76-4.21,5.09-5.33,1.88-.9,4.02-1.19,6.09-.99,1.27.12,2.67.33,3.9.63s2.46.7,2.55.61Z"/>
        </g>
        <path class="cls-3" d="M48.83,65.99c7.02-4.96,14.82-8.29,23.32-9.65.67-.11.38-1.12-.28-1.02-8.48,1.31-16.69,4.61-23.57,9.76-.53.4-.03,1.31.53.91h0Z"/>
        <path class="cls-3" d="M36.71,55.37c-.1,2.9,1.09,5.93,2.26,8.52.16.36.74.1.63-.27-.79-2.74-1.12-5.68-2.02-8.37-.16-.47-.85-.39-.87.12h0Z"/>
        <path class="cls-3" d="M37.45,42.99c1.95,3.42,3.95,6.63,4.9,10.51.97,3.98.98,7.98.39,12.01-.1.7.94,1.03,1.09.3.85-4.05.64-8.3-.36-12.31-.97-3.88-2.57-8.08-5.43-10.97-.3-.31-.81.08-.59.46h0Z"/>
        <path class="cls-3" d="M52.14,24.51c.96,6.11,1.53,11.96.38,18.1-1.1,5.82-3.25,11.08-6.43,16.07-.45.7.64,1.32,1.11.65,3.44-4.99,5.73-11.02,6.66-17s1.12-12.44-.79-18.08c-.2-.6-1.03-.35-.93.26h0Z"/>
        <path class="cls-3" d="M64.55,15.84c-.95,3.5-1.8,6.97-3.06,10.38-1.21,3.28-2.78,6.29-4.36,9.38-.2.39.27.76.6.46,2.39-2.15,3.37-6.01,4.53-8.91,1.43-3.57,3.02-7.3,3.25-11.19.03-.56-.82-.65-.96-.13h0Z"/>
        <path class="cls-3" d="M73.4,27.02c-3.13,1.82-6.11,3.91-8.98,6.12-1.3,1-2.96,2.03-3.99,3.33-.85,1.08-1.21,2.69-1.73,3.93-1.48,3.5-3.19,6.94-4.97,10.3-1.69,3.19-3.86,6.4-4.94,9.86-.18.58.69.95.98.41,1.73-3.18,2.98-6.64,4.67-9.86,1.57-2.99,3.25-5.9,4.64-8.99.68-1.51,1.13-3.21,1.91-4.65s2.72-2.53,3.98-3.5c2.86-2.2,5.86-4.18,8.89-6.14.5-.32.05-1.11-.47-.8h0Z"/>
      </g>
      <rect class="cls-2" width="100" height="100"/>
    </g>
  </g>
</svg>