<?xml version="1.0" encoding="UTF-8"?>
<svg id="Capa_2" data-name="Capa 2" xmlns="http://www.w3.org/2000/svg" viewBox="0 0 100 100">
  <defs>
    <style>
      .cls-1 {
        fill: #fff;
      }

      .cls-2 {
        fill: none;
      }

      .cls-3 {
        fill: #6a8c2a;
      }

      .cls-4 {
        fill: #4a2d2d;
      }
    </style>
  </defs>
  <g id="COLOR">
    <g>
      <g>
        <path class="cls-3" d="M22.1,22.05s-1.23-5.22,3.86-9.49c5.08-4.27,8.26-1.82,9.08-1s1.73,3.9,1.73,3.9c0,0,1.18-6.54,5.63-8.72s5.18,1.82,8.17,1.82,5.9-4.63,9.71-3,2.09,4.63,3.27,5.54,2.09.73,2.81,1.54.73,1.54.73,1.54c0,0,2.54-5.72,7.17-4.45s1.36,4.45,4.54,6.08c3.18,1.63,5.36,1.91,5.99,3.27.64,1.36.27,2.54.27,2.54,0,0,2.72.45,2.91,3.45.18,3-.91,5.08,1.09,6.81s4.81,2.09,3.9,6.54-5.18,4.45-5.18,9.17,3.81,5.81,2.45,9.81c-1.36,3.99-6.36,6.17-7.26,9.71-.91,3.54,2.36,5.27.27,10.26-2.09,4.99-11.17,9.08-20.06,10.62-8.9,1.54-12.71-.64-12.71-.64,0,0-13.71,1.18-22.15-4.63-8.44-5.81-9.62-14.16-9.17-17.89s2.81-5.72.18-8.17c-2.63-2.45-6.72-4.72-5.72-7.54s2.45-3.72,1.63-5.18c-.82-1.45-4.63-3.81-2-6.63,2.63-2.81,3.36-2.22,3.54-5.04.18-2.81-3.49-6.08-.45-9.58,2.41-2.77,5.77-.68,5.77-.68Z"/>
        <path class="cls-1" d="M23.32,34.57c2.62,6.79,3.74,14.1,6.64,20.77,1.54,3.54,3.65,6.79,5.84,9.96,2.14,3.09,4.4,6.41,7.04,9.09.34.35.99-.11.7-.54-4.39-6.36-9.63-12.14-12.7-19.35-2.78-6.55-3.35-13.95-6.7-20.27-.23-.44-1.01-.14-.83.35h0Z"/>
        <path class="cls-1" d="M32.42,57.73c1.14-3.51,1.77-7.36,2.29-11.02.45-3.24.82-6.87-.19-10.03-.13-.42-.81-.37-.79.11.16,3.82.31,7.33-.31,11.14-.52,3.24-1.45,6.44-1.76,9.7-.04.45.63.5.76.1h0Z"/>
        <path class="cls-1" d="M27.76,49.45c-2.34.29-4.22-.13-6.42-.91-.57-.2-.81.61-.38.91,1.93,1.38,4.69,1.63,6.94,1,.53-.15.45-1.07-.13-1h0Z"/>
        <path class="cls-1" d="M37.71,65.62c1.68-1.8,2.38-3.99,2.86-6.36.56-2.75,1.09-5.78.66-8.58-.06-.37-.68-.37-.75,0-.81,4.69-.05,10.46-3.36,14.36-.34.4.22.97.58.58h0Z"/>
        <path class="cls-1" d="M38.86,68.92c-3.4.42-8.14,1.89-10.98-.62-.38-.34-.85.16-.55.55,2.57,3.31,8.06,1.65,11.53,1.24.74-.09.75-1.27,0-1.17h0Z"/>
        <path class="cls-1" d="M53.13,81.4c6.33-6.35,11.78-13.48,16.2-21.29,2.13-3.77,4.02-7.68,5.66-11.69,1.72-4.2,3.47-8.69,4.21-13.19.1-.61-.72-.85-.93-.26-1.43,4.04-2.49,8.18-4.06,12.18-1.67,4.25-3.64,8.39-5.87,12.37-4.33,7.73-9.65,14.89-15.78,21.29-.36.38.2.94.57.57h0Z"/>
        <path class="cls-1" d="M73.65,50.84c-.56-2.84-1.26-5.66-1.91-8.49s-1.99-6.26-1.46-9.24c.07-.37-.49-.69-.67-.28-1.07,2.44.17,5.42.74,7.86.81,3.46,1.56,6.94,2.48,10.37.14.53.91.3.81-.22h0Z"/>
        <path class="cls-1" d="M67.13,58.77c-2.11-3.17-3.13-6.58-3.46-10.35-.04-.47-.74-.49-.74,0-.04,3.89,1.32,7.59,3.57,10.72.27.37.89.03.63-.37h0Z"/>
        <path class="cls-1" d="M68.45,64.37c5.16-.38,10.7-1.73,15.01-4.71.5-.35.07-1.09-.48-.82-4.73,2.32-9.23,4.14-14.53,4.6-.59.05-.6.98,0,.94h0Z"/>
        <path class="cls-1" d="M76.18,45.55c2.57-.86,5.27-2.22,7.09-4.28.3-.34-.11-.99-.52-.67-2.1,1.61-4.37,3.03-6.82,4.04-.55.23-.34,1.12.25.92h0Z"/>
        <path class="cls-1" d="M59.61,73.3c-1.79-4.25-4.27-8.15-4.36-12.89,0-.4-.63-.51-.71-.1-.93,4.52,2.18,9.5,4.19,13.36.25.48,1.1.14.88-.37h0Z"/>
        <path class="cls-1" d="M57.91,78.24c5.07.54,10.71,1.04,15.22-1.84.4-.25.05-.83-.37-.63-4.77,2.25-9.72,2.03-14.86,1.62-.55-.04-.53.79,0,.85h0Z"/>
        <path class="cls-1" d="M62.63,29.16c-1.24-2.07-2.53-4.16-3.89-6.15-.23-.34-.85-.14-.7.3.81,2.33,2.2,4.59,3.83,6.43.37.41,1.03-.12.75-.58h0Z"/>
        <path class="cls-1" d="M76.46,20.98c.51-.39,1.03-.76,1.5-1.19.3-.28-.09-.77-.43-.56-.52.31-.99.69-1.48,1.04-.18.13-.26.35-.15.56.1.17.38.28.56.15h0Z"/>
        <path class="cls-1" d="M40.86,28.12c1.1-1.51,2.24-3.19,2.74-5.01.12-.45-.51-.72-.75-.32-.96,1.61-1.69,3.32-2.75,4.89-.32.47.43.89.76.44h0Z"/>
        <path class="cls-1" d="M31.3,24.09c.1-1.29.15-2.66-.16-3.93-.11-.45-.8-.35-.8.11-.02,1.28.12,2.54.05,3.82-.03.59.87.58.91,0h0Z"/>
        <path class="cls-1" d="M54.17,15.25c-.22-1.27.14-2.34.32-3.58.04-.3-.34-.65-.58-.34-.9,1.14-.89,2.8-.63,4.16.11.58.99.33.89-.24h0Z"/>
        <path class="cls-1" d="M48.42,12.91c-.23-.45-.47-.97-.88-1.29-.24-.19-.68-.1-.66.27.03.56.33,1.09.58,1.58.33.63,1.29.07.96-.56h0Z"/>
        <path class="cls-4" d="M86.91,21.9c-2.63-1.53-5.38-.33-7.76,1.12-1.75,1.07-3.77,2.2-5.89,1.84-1.62-.27-3.1-1.29-4.79-1.12-3.12.3-3.59,3.95-4.56,6.27-.83,1.99-2.28,3.65-4.1,4.8-1.4.89-2.98,1.52-4.07,2.82-.77.91-1.21,2.02-1.4,3.19-.31,1.86.59,3.25.61,5.05.02,1.44-.83,2.55-1.81,3.51.1-3.16-1.43-6.57-3.96-8.22-1.22-.79-2.63-1.22-4.01-1.71-.21-1.68-.34-3.5.12-5.11.64-2.22,2.76-2.82,4.61-3.7,2.29-1.09,3.5-2.67,4.01-4.84.04-.09.07-.19.07-.3.09-.45.16-.91.2-1.41.16-2.21.61-4.29,2.61-5.59,1.68-1.1,3.73-.95,5.64-1.32,1.41-.28,3.17-.59,4.3-1.54,1.18-.98,1.64-2.54,2.78-3.56.4-.36-.11-.97-.56-.73-1.42.78-1.75,2.22-2.88,3.27-1.73,1.61-5.02,1.25-7.19,1.73-3.1.68-5.56,3.03-5.97,6.24-.06.49-.1.97-.15,1.44-.84-.76-1.67-1.51-1.95-2.67-.25-1-.19-2.06-.6-3.02-.65-1.54-2.11-2.36-3.73-2.49-2.5-.2-4.68,1.58-7.12,1.46-3.11-.15-2.9-4.45-4.7-6.28-.38-.38-1.1.13-.76.59,1.33,1.81,1.12,4.55,2.84,6.1,1.51,1.35,3.5.91,5.25.4,1.55-.45,3.2-1.16,4.85-.75,2,.5,2.09,2.13,2.39,3.81.38,2.07,1.66,3.4,3.27,4.61-.26,1.15-.77,2.19-2.02,2.96-1.49.92-3.31,1.16-4.74,2.19-2.49,1.79-2.59,5.02-2.18,7.87-.74-.34-1.45-.74-2.06-1.3-2.1-1.9-1.14-4.65-1.37-7.13-.38-4.17-4.76-4.57-7.98-3.19-1.67.71-2.96.88-4.5-.2-1.25-.87-2.12-2.04-3.11-3.17-1.44-1.64-3.07-2.99-5.35-2.97-.87,0-.87,1.33,0,1.35,4.66.13,5.67,6.95,10.33,7.33,1.98.16,3.55-1.44,5.53-1.48,1.36-.03,2.77.28,3.26,1.68.3.86.13,1.96.12,2.85-.02,1.61,0,3.37.88,4.8.99,1.62,2.76,2.68,4.45,3.42,2.32,1.02,4.88,1.57,6.23,3.93,1.15,2,1.56,4.69.76,6.89-.7.71-1.34,1.47-1.87,2.33-1.76,2.9-1.62,5.59-.75,8.74.61,2.23.6,3.92-.92,5.73-.97,1.15-2.11,2.14-2.89,3.44-3.32,5.53-.05,11.66,4.61,15.19-.84,1.54-1.87,2.92-3.05,4.25-.99,1.12-2.03,2.4-1.89,3.97.08.91,1.22,1.28,1.74.47,1.54-2.38,3.42-4.35,4.6-6.84.06,1.16.11,2.32.12,3.48.02,1.43-.17,2.96.38,4.31.22.54,1,.77,1.33.17.97-1.75.9-4.2.59-6.46.34.48.71.94,1.05,1.39,1.09,1.42,2.25,3,3.86,3.86.87.46,1.64-.44,1.27-1.27-.55-1.24-1.53-2.28-2.39-3.32-.8-.97-2.58-2.47-2.55-3.81.03-1.33-1.6-1.41-2.13-.47-.22-.14-.5-.18-.77-.13-.06-.58-.7-.97-1.22-.83-1.83-1.65-3.45-3.65-4.31-5.82-1.23-3.15-.57-6.27,1.65-8.76,1.56-1.75,3.23-3.43,3.25-5.93.02-3.48-2.43-6.14-.59-9.64.53-1.01,1.26-1.85,2.04-2.64.19-.06.37-.18.47-.4.02-.04.04-.09.05-.13,1-.97,2.03-1.92,2.84-3.08,1.72-2.49.44-4.56.41-7.29-.04-3.93,3.83-5.05,6.37-7.07,2.34-1.86,2.93-4.29,3.86-6.98.54-1.56,1.43-2.88,3.18-2.93,1.13-.03,2.04.56,3.06.97,1.18.48,2.34.69,3.61.37,3.37-.85,6.78-5.7,10.5-3.44.73.44,1.4-.71.67-1.14Z"/>
      </g>
      <rect class="cls-2" width="100" height="100"/>
    </g>
  </g>
</svg>