<?xml version="1.0" encoding="UTF-8"?>
<svg id="Capa_2" data-name="Capa 2" xmlns="http://www.w3.org/2000/svg" viewBox="0 0 100 100">
  <defs>
    <style>
      .cls-1 {
        fill: #c49e8c;
      }

      .cls-2 {
        fill: none;
      }

      .cls-3 {
        fill: #4a2d2d;
      }

      .cls-4 {
        fill: #ab745b;
      }

      .cls-5 {
        fill: #e5d2c4;
      }
    </style>
  </defs>
  <g id="COLOR">
    <g>
      <rect class="cls-2" width="100" height="100"/>
      <g>
        <path class="cls-1" d="M23.64,28.89c-4.5-6-3.94-12.24,3.39-15.18,8.99-3.59,13.97.82,21.96,1,8.99.2,18.44-6.95,25.96-1.2,6.79,5.19,3.59,13.98-5.19,17.37-8.25,3.19-40.14,5.99-46.13-2Z"/>
        <path class="cls-4" d="M40.21,31.82s-7.29.25-9.02-2.54-.08-6.35,8.17-7.41,22.4-1.87,26.13,1.45,2.94,5.85-1.06,6.91-13.31,1.2-13.31,1.2l-10.92.4Z"/>
        <path class="cls-3" d="M31.84,29.02c.72-.47,1.49-.85,2.31-1.12.4-.14.82-.25,1.22-.4s.83-.26,1.22-.43c.18-.08.13-.39-.06-.42-.88-.14-1.85.06-2.67.4s-1.65.81-2.39,1.37c-.15.12-.23.31-.13.49.09.16.33.23.49.13h0Z"/>
        <path class="cls-3" d="M65.29,28.7c.04-.21.07-.4-.05-.63s-.34-.37-.58-.5c-.51-.27-1.04-.49-1.59-.67-1.07-.35-2.17-.5-3.29-.52-.29,0-.33.4-.07.49.49.16.96.35,1.44.52.45.16.9.32,1.35.5s.88.38,1.33.55c.2.07.38.15.57.24.09.04.17.07.26.1.05.03.11.05.16.06.15.02.15.02,0-.01.14.14.44.09.48-.13h0Z"/>
        <path class="cls-5" d="M60.38,38.07c.85-6.81,3.3-12.02,5.12-14.77-1.93-1.2-3.9-2.04-6.32-2.22-3.06-.22-6.16,0-9.19.47-5.42.82-12.47-.37-16.35,2.33,2.39,2.59,6.61,8.77,7.58,16.79,1.4,11.58-6.99,31.35-5.39,40.14,1.6,8.79,6.79,13.38,18.17,11.98,11.38-1.4,16.57-10.98,13.58-23.96-3-12.98-8.19-22.76-7.19-30.75Z"/>
        <path class="cls-3" d="M61.76,31.57c.25-.87.54-1.69.83-2.46,1.16-.26,2.32-.67,2.87-1.75.59-1.15.12-2.14-.7-2.89-.75-.68-1.78-1.15-2.6-1.37-2.15-.58-4.44-.56-6.64-.59-2.45-.03-4.88-.04-7.33-.05-4.5,0-9.3-.23-13.5,1.66-.18.08-.38.18-.59.3-1.73,1.01-3.96,3.31-1.55,4.85,1.56.99,3.67.93,5.52,1.22.19.38.38.79.57,1.19-3.54.81-10.32-.94-8.24-5.79,1.66-3.83,7.47-4.64,11.07-5,5.02-.53,10.19-.55,15.25-.6,3.92-.05,9.91.3,11.16,4.95,1.04,3.86-2.94,5.83-6.13,6.32Z"/>
        <path class="cls-3" d="M25.94,20.84l.98-.39c.22-.09.45-.17.66-.28.19-.1.34-.24.45-.43.03-.06.07-.13.1-.19.21-.4.02-.86-.41-1-.07-.02-.14-.05-.21-.07-.21-.07-.41-.06-.62,0-.17.05-.32.11-.49.18l-.96.38c-.23.09-.43.2-.56.43-.12.2-.17.5-.09.72s.21.44.43.56.49.19.72.09h0Z"/>
        <path class="cls-3" d="M26.26,24.52l.22-.18.05-.07s.04-.08.04-.13c0-.03,0-.06,0-.09,0-.05-.02-.09-.04-.13l-.05-.07-.07-.05s-.08-.04-.13-.04c-.05-.01-.09,0-.14,0l-.29.06c-.07.02-.13.06-.18.11-.05.05-.09.11-.11.18v.11c-.01.07,0,.14.04.21.03.05.06.09.11.12.04.04.09.06.14.07.07.02.15.02.22,0,.07-.02.13-.06.18-.11h0Z"/>
        <path class="cls-3" d="M70.92,22.98l.54.28c.14.07.3.18.46.21.05.01.1.02.14.03.02,0,.05,0,.07.01.14.04.29.04.43,0,.07-.02.14-.05.2-.09.12-.07.21-.17.28-.28.07-.12.11-.26.11-.4,0-.08-.02-.15-.03-.22-.04-.14-.11-.26-.21-.36-.01-.01-.03-.03-.04-.04-.03-.03-.07-.07-.1-.1-.1-.09-.18-.14-.29-.2l-.14-.07-.55-.26c-.1-.06-.21-.1-.32-.1-.11-.03-.23-.02-.34.02-.11.03-.21.08-.29.15-.09.06-.17.14-.22.24-.11.2-.16.44-.09.67.07.21.2.41.4.52h0Z"/>
        <path class="cls-3" d="M72.93,19.22l.25-.06.2-.08c.1-.05.17-.12.23-.21.05-.05.09-.11.11-.18.05-.1.07-.2.07-.32l-.03-.22-.08-.2c-.05-.1-.12-.17-.21-.23-.08-.07-.17-.12-.28-.15l-.25-.06c-.16-.04-.31-.04-.47,0-.15.04-.28.12-.39.23l-.14.18c-.08.14-.12.28-.12.44,0,.12.02.23.08.34.04.11.1.2.18.28.11.11.24.18.39.23.16.04.31.04.47,0h0Z"/>
        <path class="cls-3" d="M59.11,81.75l.44-.13s.07-.02.1-.03c.11-.03.16-.07.24-.13l.17-.12c.07-.04.13-.1.18-.18.05-.08.07-.16.07-.25,0-.09-.02-.17-.07-.25-.04-.07-.1-.13-.18-.18l-.17-.12c-.05-.04-.1-.06-.16-.09s-.12-.05-.18-.07l-.44-.13c-.28-.08-.64,0-.84.22-.16.17-.25.38-.25.61,0,.12.02.23.07.33.03.11.09.2.18.28.22.22.55.31.84.22h0Z"/>
        <path class="cls-3" d="M62.03,74.56l.44-.13s.07-.02.1-.03c.11-.03.16-.07.24-.13l.17-.12c.07-.04.13-.1.18-.18.05-.08.07-.16.07-.25,0-.09-.02-.17-.07-.25-.04-.07-.1-.13-.18-.18l-.17-.12c-.05-.04-.1-.06-.16-.09s-.12-.05-.18-.07l-.44-.13c-.28-.08-.64,0-.84.22-.16.17-.25.38-.25.61,0,.12.02.23.07.33.03.11.09.2.18.28.22.22.55.31.84.22h0Z"/>
      </g>
    </g>
  </g>
</svg>