<?xml version="1.0" encoding="UTF-8"?>
<svg id="Capa_2" data-name="Capa 2" xmlns="http://www.w3.org/2000/svg" viewBox="0 0 100 100">
  <defs>
    <style>
      .cls-1 {
        fill: #fafbee;
      }

      .cls-2 {
        fill: #fff;
      }

      .cls-3 {
        fill: none;
      }

      .cls-4 {
        fill: #4a2d2d;
      }

      .cls-5 {
        fill: #9bb533;
      }
    </style>
  </defs>
  <g id="COLOR">
    <g>
      <g>
        <path class="cls-1" d="M43.41,47.65s-11.83,17.3-16.41,23.28-10.18,12.34-9.16,15.9c1.02,3.56,4.58,6.36,8.65,4.83,4.07-1.53,7.38-10.56,11.83-16.16,4.45-5.6,11.7-17.3,12.85-19.34s-7.76-8.52-7.76-8.52Z"/>
        <g>
          <path class="cls-5" d="M59.85,9.09s-11.49,0-11.49.53,1.96,12.56-.53,22.99c-2.49,10.42-5.54,15.18-5.54,15.18,0,0,1.69,5.32,6.52,8.61,2.3,1.57,2.23,1.43,2.23,1.43,0,0,9.89-13.63,22.36-22.01,12.47-8.37,18.43-8.16,18.53-9,.22-1.78-3.09-9.16-4.99-11.54-1.43.13-3.14.37-8.37,2.98-3.92,1.96-7.22,4.63-7.22,4.63,0,0,10.25-14.43,10.07-16.39s-10.6-5.43-11.05-4.9-5.43,9.89-6.95,13.19-2.85,7.39-2.85,7.39c0,0,.71-12.03-.71-13.1Z"/>
          <path class="cls-2" d="M53.16,19.43c.21,8.45-1.63,16.21-4.33,24.15-.14.4.51.68.7.29,3.54-7.46,4.73-16.25,4.48-24.44-.02-.54-.86-.55-.85,0h0Z"/>
          <path class="cls-2" d="M47.83,46.53c-.12.27-.24.53-.34.8-.11.3.34.46.5.21.14-.22.27-.46.4-.69.08-.15.04-.35-.11-.43-.14-.08-.37-.04-.43.11h0Z"/>
          <path class="cls-2" d="M49.98,51.49c1.93-3.54,3.81-7.69,4.08-11.75.02-.35-.51-.41-.6-.08-1.17,4.02-2.01,7.78-4.03,11.51-.19.36.35.68.55.32h0Z"/>
          <path class="cls-2" d="M64.24,24.59c2.17-4.06,4.69-7.87,7.06-11.81.18-.29-.26-.66-.49-.38-2.86,3.59-5.13,7.73-7.17,11.83-.2.4.38.74.6.35h0Z"/>
          <path class="cls-2" d="M61.16,37.13c3.56-3.97,7.7-6.88,12.08-9.86.32-.21.05-.67-.3-.51-4.75,2.2-8.87,5.97-12.29,9.86-.3.34.2.85.5.5h0Z"/>
          <path class="cls-2" d="M77.6,24.46c.67-.18,1.4-.52,1.79-1.11.19-.28-.17-.6-.45-.45-.53.29-.97.61-1.57.74-.53.11-.31.96.23.82h0Z"/>
          <path class="cls-2" d="M67.57,36.94c4.47-4,9.37-6.97,14.49-10.03.26-.16.09-.64-.22-.52-5.47,2.25-10.48,6.04-14.8,10.02-.36.33.17.85.53.53h0Z"/>
          <path class="cls-2" d="M60.61,42.62c.48-.3.95-.6,1.4-.94.37-.28.06-.85-.37-.64-.5.25-.98.54-1.46.83s-.04,1.04.44.75h0Z"/>
          <path class="cls-4" d="M85.93,14.69c-9.54,2.77-19.09,8.26-25.81,15.71.87-6.84.92-13.8.25-20.63-.11-1.1-1.31-1.08-1.22.04.89,12.14-.51,24.22-4.49,35.79-2.12,6.16-5.22,11.75-8.87,17.11-3.9,5.73-7.88,11.39-11.75,17.14-1.48,2.2-2.8,4.39-4.07,6.71-1.36,2.49-3.02,4.95-6.23,4.39-2.56-.44-5.29-1.75-5.14-4.72.1-2.12,1.34-4.33,2.54-6.02,4.15-5.86,8.67-11.51,13.18-17.1,2.02-2.51,3.56-4.82,5.47-7.41,1.24-1.68,2.73-3.76,3.62-5.63-.07-.1-.71-1.3-.93-1.9-.05-.15-.1-.27-.16-.41-2.77,5.44-8.07,12.98-12.67,19.04-2.26,2.98-4.7,5.81-7.01,8.75-1.7,2.16-3.66,4.37-4.71,6.94-.97,2.38-.8,4.91.43,6.92-.69.34-1.32.78-1.91,1.27-.7.57-1.59,1.24-1.82,2.15-.15.58.36,1.01.91.91.84-.15,1.53-.93,2.16-1.45.59-.49,1.22-.96,1.8-1.47.22.21.46.4.72.58-.5.63-.99,1.27-1.38,1.96-.4.71-.9,1.47-.85,2.31.03.52.59.92,1.07.62.68-.42,1.02-1.14,1.46-1.79.46-.68.91-1.38,1.4-2.05.02-.02.02-.05.03-.07.17.07.34.13.51.18,0,0,0,0,0,0-.08,1.45-.24,3.32.5,4.63.3.52,1.16.43,1.31-.17.31-1.3.05-2.77.06-4.12,3.33.06,5.78-2.9,7.58-6.12,6.73-12.05,16.64-22.3,22.33-34.94,2.73-6.07,4.55-12.51,5.58-19.09,3.8-3.57,7.62-6.97,12.02-9.82,4.55-2.94,9.73-5.49,14.81-7.31,1.1-.39.46-1.29-.69-.96Z"/>
        </g>
      </g>
      <rect class="cls-3" width="100" height="100"/>
    </g>
  </g>
</svg>