<?xml version="1.0" encoding="UTF-8"?>
<svg id="Capa_2" data-name="Capa 2" xmlns="http://www.w3.org/2000/svg" viewBox="0 0 100 100">
  <defs>
    <style>
      .cls-1 {
        fill: #fff;
      }

      .cls-2 {
        fill: none;
      }

      .cls-3 {
        fill: #4a2d2d;
      }

      .cls-4 {
        fill: #c0c728;
      }
    </style>
  </defs>
  <g id="COLOR">
    <g>
      <g>
        <path class="cls-4" d="M6.98,38.58s-3.13,1.84-2.65,3.46,1.81.43,7.33,2.69c5.52,2.27,11.45,8.04,14.25,15.47,2.8,7.44,1.1,21.41,5.42,27.75s8.3,8.08,14.78,7.63c6.48-.45,8.26-1.73,8.26-1.73,0,0,6.97,2.88,12.76-1.52,5.79-4.4,6.14-12.42,7.77-18.02,1.64-5.6,4.61-11.68,9.34-15.43,4.72-3.76,10.1-5.81,12.13-8.18,2.04-2.37.94-3.7-.89-5.66-1.83-1.96-4.72-2.82-4.72-2.82,0,0,3.64-3.83,1.53-6.95-2.11-3.12-6.68-1.08-6.68-1.08,0,0,4.96-6.1,1.4-9.47s-8.01.47-8.01.47c0,0,3.44-5.09.09-6.75-3.35-1.67-5.92,1.61-5.92,1.61,0,0,1.03-6.34-2.8-7.26-5.33-1.28-7.67,5.33-7.67,5.33,0,0-1.34-5.74-6.19-5.05s-6.84,6.67-6.84,6.67c0,0-1.61-6.1-6.03-6.49-4.08-.36-4.62,4.47-4.62,4.47,0,0-3.97-6.75-8.36-5.38-5.74,1.79-3.22,7.97-3.22,7.97,0,0-1.16.74-1.67,2.81s.05,3.96.05,3.96c0,0-8.23-9.34-15.1-4.39-6.87,4.95,3.2,10.22,3.2,10.22,0,0-5.62-2.45-7.92.29-2.3,2.73.97,5.39.97,5.39Z"/>
        <path class="cls-1" d="M45.85,90.88c-6.05-2.19-8.28-7.55-9.13-13.56-.67-4.78-.41-10.75-3.28-14.88-.29-.41-1.02-.16-.84.37,1.04,3.13,1.92,6.03,2.32,9.33s.6,6.33,1.44,9.4c1.31,4.76,4.26,8.98,9.27,10.13.52.12.69-.61.2-.78h0Z"/>
        <path class="cls-1" d="M56.76,90.25c5.25-2.6,6.76-8.38,8.27-13.57.91-3.14,2.1-6.16,3.77-8.98,1.62-2.73,3.83-4.93,5.65-7.5.28-.39-.29-.93-.67-.65-4.2,3.02-7.08,8.76-8.77,13.5-2.08,5.82-2.55,13.3-8.62,16.57-.42.22-.04.83.38.62h0Z"/>
        <path class="cls-1" d="M58.54,75.54c1.22-3.47,1.96-7.36,1.23-11.02-.08-.42-.71-.29-.72.11-.09,3.68-.13,7.16-1.14,10.75-.11.41.49.55.63.16h0Z"/>
        <path class="cls-1" d="M78.37,56.86c.83-.24,1.8-.61,2.38-1.27.26-.29-.07-.69-.42-.52-.74.36-1.37.81-2.18,1.05-.47.14-.26.88.21.74h0Z"/>
        <path class="cls-1" d="M41.3,72.77c.25-2.25,1.52-3.88,3.23-5.26.38-.31-.12-.85-.51-.65-2.17,1.14-3.38,3.56-3.6,5.92-.05.57.82.54.88-.01h0Z"/>
        <path class="cls-1" d="M31.76,56.33c-.31-1.06-.54-2.19-.99-3.2-.15-.34-.77-.17-.71.2.16,1.09.56,2.18.86,3.24.15.54,1,.3.84-.24h0Z"/>
        <path class="cls-1" d="M45.69,54.06c-.51-3.41.03-6.68,1.26-9.88.14-.35-.43-.56-.61-.25-1.8,3.2-2.2,6.79-1.51,10.37.11.57.94.31.86-.25h0Z"/>
        <path class="cls-1" d="M33.85,38.67c.07-2.04.28-4.08.31-6.13,0-.34-.54-.42-.61-.07-.42,2.05-.51,4.12-.57,6.21-.02.56.84.54.86-.01h0Z"/>
        <path class="cls-1" d="M68.49,43.42c.08-1.61.1-3.22-.25-4.8-.11-.47-.81-.34-.82.12-.01,1.56.12,3.12.07,4.69-.02.65.97.62,1-.01h0Z"/>
        <path class="cls-1" d="M79.2,35.54c-.02-.59.13-1.12.23-1.7.08-.46-.5-.72-.76-.31-.38.59-.47,1.33-.47,2.02,0,.65,1.02.64,1.01-.01h0Z"/>
        <path class="cls-1" d="M54.08,32.58c.21-1.5.84-2.76,1.34-4.17.13-.37-.41-.67-.67-.38-1,1.15-1.41,2.82-1.59,4.3-.07.6.84.85.92.24h0Z"/>
        <path class="cls-1" d="M45.43,28.11c-.11-.73-.18-1.44-.47-2.12-.16-.38-.66-.31-.71.11-.09.78.07,1.54.18,2.31.04.28.4.42.64.35.3-.08.39-.37.35-.64h0Z"/>
        <path class="cls-1" d="M67.81,26.33c-.01-1.33.11-2.77-.2-4.08-.1-.42-.77-.41-.86.01-.28,1.31-.11,2.75-.09,4.08.01.74,1.16.72,1.15-.02h0Z"/>
        <g>
          <path class="cls-3" d="M57.81,58.54c-.13-.1-.25-.2-.38-.3-.13-.2-.4-.27-.63-.23-2.97-1.33-6.74-.68-9.38,1.05-2.3-.87-4.93-.73-7.37-.45.26-2.75.29-5.52.39-8.27.08-2.3.35-5.45-1.07-7.44-2.36-3.3-5.09-.52-6.85,2.07-.61-4.69-2.45-9.84-7.35-11.18-4-1.09-8.61,2.29-7.23,6.52-2.16.52-4.29.84-6.44,1.05-.53-.41-1.21-.63-1.83-.88-.74-.3-1.39-.65-2.04-1.11-.31-.22-.69.29-.4.53.6.5,1.31,1.14,2.08,1.63-1.46.1-2.94.16-4.44.21-.7.02-.66,1.02.01,1.07,4.58.33,9.46-.5,13.9-1.62.36-.09.44-.48.3-.78-1.03-2.29.41-4.77,2.78-5.35,2.1-.51,4.27.29,5.75,1.8,2.84,2.88,2.99,7.02,3.57,10.78.13.84,1.34.66,1.55-.02.4-1.32,2.59-5.65,4.72-4.62,1.67.81,1.41,3.94,1.51,5.44.24,3.7-.03,7.19-.53,10.86-.06.46.21,1.06.78,1,3.73-.39,8.66-.66,10.58,3.32,1.89,3.92.13,8.98-.62,13.01-.68,3.69-1.66,7.64-.66,11.37.76,2.85,2.85,5.5,5.89,5.83.83.09,1.15-1.25.41-1.59-4.8-2.17-5.14-6.78-4.32-11.47.72-4.15,1.97-8.4,2.09-12.63.09-3.1-.79-6.37-3.44-8.23-.05-.04-.11-.06-.16-.09,2.73-1.44,5.39-1.09,8.3.06.78.31,1.31-1,.55-1.37Z"/>
          <path class="cls-3" d="M90.27,44.67c-.28-.13-.56-.22-.85-.3.14-.15.28-.29.41-.45.33-.4.71-.76,1.05-1.15.31-.36-.09-.9-.52-.66-.48.28-.92.65-1.34,1.02-.2.17-.38.36-.55.55-.15.17-.26.35-.37.54-1.23.02-2.42.48-3.32,1.32-.61-2.25-1.44-4.83-3.22-6.16-1.68-1.25-3.89-1.25-5.74-.39-2.13.98-3.57,2.94-4.29,5.13-.51,1.53-1.03,3.61-1.06,5.51-1.09-.96-2.3-1.78-3.55-2.55-1.78-1.1-3.58-1.86-5.68-1.18-.68.22-1.26.52-1.77.88-.97-2.78-4.37-3.63-6.97-2.55,0-1.35.02-2.74-.05-4.12.6-1.15,1.22-2.19,2.57-2.6,2.11-.64,4.19,0,5.87,1.34.42.34,1.31.16,1.22-.53-.21-1.61-.54-2.97.26-4.51.73-1.41,1.92-2.48,3.42-2.97,3.02-.99,5.87.2,8.32,1.95.5.36,1.16-.15,1.16-.69.01-3.26,3.12-5.32,5.39-6.99.53-.39.21-1.27-.48-1.09-1.61.43-3.01,1.6-4.03,2.88-1.02,1.27-1.4,2.63-1.98,4.03-2.78-1.88-6.39-2.82-9.5-1.13-.47.25-.88.55-1.27.87.22-3.16-.61-7.27-3.05-8.96-2.69-1.87-6.55-.29-9.2,1.26-.46-1.93-1.05-3.8-1.87-5.61-.27-.59-1.26-.16-1.05.46.72,2.11,1.39,4.2,1.85,6.38.09.4.65.62.98.38,2.21-1.57,7.33-3.66,9.17-.68,1.66,2.68,1.13,5.65,1.6,8.56,0,.02.01.03.02.05-.15.27-.31.55-.42.86-.4,1.06-.72,2.41-.79,3.67-2.93-1.53-6.32-1.19-8.37,1.24-.34-2.62-1.2-5.07-3.4-6.91-2.57-2.15-6.19-2.07-8.99-.52-.28-4.91-.96-10.97-6.25-12.76-2.27-.77-4.44.28-6.05,1.9-2,1.99-2.43,4.06-2.36,6.77.02.76,1.18.74,1.18-.02,0-1.88.49-4.3,1.8-5.69,2.11-2.24,4.81-2.41,7.04-.21,2.9,2.86,2.71,7.82,2.95,11.61.05.77.95,1.15,1.52.61,2.87-2.75,7.34-1.87,9.38,1.4,1.97,3.17,2.08,7.58,1.78,11.17-.05.6.75,1.01,1.23.68,2.12-1.45,5.08-.85,6.08,1.62,0,0,0,0,0,.01-1.91,2.31-2.19,5.85-2.08,8.88.02.57.88.56.88-.01-.02-3.55.77-8.54,4.93-9.51,3.16-.73,7.34,3.1,9.13,5.28.61.74,1.73-.23,1.27-1.01-1.83-3.16.47-9.01,3.47-10.89,4.87-3.04,6.91,3.35,7.85,6.83.17.64,1.14.78,1.45.17,1.14-2.25,3.74-2.34,5.54-.84,1.78,1.48,1.83,3.52,2.19,5.62.12.68,1.27.66,1.38-.02.45-3.02-1.11-6.47-3.96-7.78Z"/>
        </g>
      </g>
      <rect class="cls-2" width="100" height="100"/>
    </g>
  </g>
</svg>