<?xml version="1.0" encoding="UTF-8"?>
<svg id="Capa_2" data-name="Capa 2" xmlns="http://www.w3.org/2000/svg" viewBox="0 0 100 100">
  <defs>
    <style>
      .cls-1 {
        fill: #fff;
      }

      .cls-2 {
        fill: none;
      }

      .cls-3 {
        fill: #4a2d2d;
      }

      .cls-4 {
        fill: #c0c728;
      }
    </style>
  </defs>
  <g id="COLOR">
    <g>
      <g>
        <g>
          <path class="cls-4" d="M84.77,41.45c.56,2.52,2.94,4.84,1.54,7.78-1.4,2.94-4,4.28-4.06,7.64-.07,3.37.56,7.92-5.26,12.2-5.82,4.27-9.89,2.45-12.34,5.54-2.45,3.09.84,7.01-3.71,9.61-4.56,2.59-10.52,1.12-13.74,3.22-3.22,2.1-2.66,6.03-7.22,7.51-4.56,1.47-8.74,1.99-10.8,1.75-.42-.05-.87-.15-1.34-.3-1.3-.4-2.74-1.16-3.94-2.06-1.6-1.2-2.78-2.67-2.64-3.95.28-2.59,1.05-1.89.7-5.26-.35-3.37-.98-5.54.77-7.64,1.75-2.1,2.31-3.86,1.47-5.47-.84-1.62-6.52-5.75-6.87-9.75-.35-4,1.54-6.03,1.54-7.71s-4.07-5.26-2.81-8.7c1.26-3.44,3.58-4,3.86-6.24.28-2.25-1.12-5.47,1.4-7.78s3.86-2.04,4.7-5.61c.84-3.58,1.68-8.27,5.4-11.15,3.72-2.87,5.19-4.35,7.15-7.5,1.96-3.16,6.03-2.17,13.18-2.66,7.15-.49,12.27-3.3,18.65.42,6.38,3.71,8.28,9.26,9.47,12.76,1.19,3.5,6.38,9.26,6.94,13.6.56,4.35-2.6,7.22-2.03,9.75Z"/>
          <g>
            <path class="cls-1" d="M49.64,57.36c1.47-1.75,7.01-5.4,8.62-6.66,1.61-1.26,6.45-6.1,8.41-7.92,1.96-1.83,6.17-2.88,7.64-3.65,1.47-.77,5.26-2.52,5.33-3.16.07-.63-5.47.14-9.47,1.54-4,1.4-8.97,6.1-11.29,8.34-2.31,2.24-6.52,5.05-6.52,5.05,0,0,.91-2.17,2.03-5.05.27-.69.64-1.76,1.06-2.99,3.77-2.4,6.79-5.78,9.07-9.6.02,0,.04.01.07,0,4.02-1.22,9.41-1.16,12.52-4.37.27-.28-.07-.74-.42-.54-2,1.16-3.89,2.06-6.14,2.66-1.88.5-3.77.93-5.61,1.53.14-.25.29-.5.43-.76,1.94-3.65,3.35-7.53,6.01-10.75.21-.26-.12-.61-.37-.37-2.76,2.68-4.05,6.25-5.72,9.63-2.28,4.63-5.47,8-9.37,11.2,1.2-3.66,2.51-7.99,2.56-8.46.07-.7-10.24,18.58-10.24,18.58,0,0-1.12-9.04-.63-10.94.49-1.89,1.74-9.44,1.82-12.06.21-6.8-1.26-9.26-1.26-9.26,0,0-1.26,9.68-1.61,12.62-.22,1.85-1.08,4.95-1.77,7.7-1.59-4.87-2.3-9.56-2.21-14.68.07-3.96.48-8.75-1.47-12.37-.19-.36-.71-.1-.63.27.5,2.43,1.04,4.68,1.11,7.19.07,2.27-.04,4.54-.04,6.81,0,4.58.89,8.76,2.42,13.06.12.33.49.37.7.22-.36,1.44-.65,2.76-.77,3.72,0,.07-.01.16-.02.24-.94-3.28-2.31-6.54-4.33-9.16-2.77-3.61-7.13-5.31-10.06-8.76-.18-.21-.59.01-.48.28,1.57,3.76,6.07,5.13,8.74,7.94,3.48,3.67,4.65,8.48,6.27,13.09.34,3.09,1.08,6.65,1.22,7.37.21,1.05.14,4.35-2.04,7.64-2.17,3.29-6.1,9.74-6.1,9.74,0,0-.31-3.09-.7-5.61-.3-1.96-.79-3.81-1.4-5.54-.02-4.09.27-8.13.33-12.22.04-2.99-.37-6.53-2.81-8.58-.27-.23-.76.07-.53.41,2.2,3.23,2.57,6.35,2.34,10.21-.16,2.61-.3,5.21-.27,7.82-.73-1.63-1.57-3.14-2.48-4.5-2.2-3.3-7.39-7.56-7.57-7.71.11.19,2.43,3.44,3.93,5.82,1.54,2.45,3.86,9.18,5.12,13.67,1.26,4.49-.07,9.81-.35,11.92-.28,2.1-3.22,8.06-4.56,10.17-.97,1.53-3.13,4.62-4.23,6.19,1.2.9,2.64,1.66,3.94,2.06,1.4-2.46,3.71-6.34,5.06-7.69,2.04-2.03,6.94-5.47,10.94-7.15,1.18-.5,2.58-1.02,3.96-1.51-.02.23.11.48.41.47,3-.11,5.75.9,8.66,1.32.37.05.66-.44.28-.65-2.37-1.33-5.47-1.55-8.19-1.54,2.84-.98,5.33-1.73,5.33-1.73,0,0-1.33-.7-6.52,0-.56.08-1.12.16-1.66.26,1.03-.64,2.02-1.36,2.99-2.13,2.04-1.61,4.24-3.09,6.18-4.81.23-.21-.01-.65-.31-.54-1.99.73-3.62,2.23-5.25,3.56-1.95,1.6-3.92,3.14-6.11,4.4-3.27.71-5.67,1.51-5.67,1.51,0,0,1.54-3.16,2.39-4.98.84-1.83,4.56-5.4,7.85-7.29,3.29-1.89,9.47-2.59,12.13-3.01,1.17-.18,3.13-.74,5.13-1.47.03.15.14.27.34.26,3.38-.21,6.39.61,9.6,1.5.4.11.66-.47.29-.68-2.66-1.48-5.78-1.82-8.78-1.65,1.89-.79,3.65-1.7,4.59-2.59-.25.03-7.38,1.71-13.97,2.45-.21.02-.42.05-.62.08,2.39-3.84,6.69-6.04,9.99-9.04,3.99-.63,8.79-.37,11.7-3.63.31-.35-.17-.83-.52-.52-2.92,2.61-6.66,2.56-10.27,3.27,1.28-1.32,2.34-2.81,2.96-4.65.12-.37-.47-.63-.63-.27-2.89,6.65-10.96,8.64-14.32,14.98-5.88.84-9.92,2.3-9.92,2.3,0,0-.14-.28.07-1.75.21-1.47,2.25-4.35,3.72-6.1Z"/>
            <path class="cls-1" d="M55.12,37.72c-1.27-5.24-2.04-10.16-.34-15.39,1.12-3.44,3.45-7.61,2.67-11.32-.07-.33-.59-.32-.66,0-.51,2.28-.76,4.49-1.53,6.71-.73,2.1-1.59,4.17-2.11,6.34-1.11,4.67-.04,9.34,1.22,13.87.13.48.86.28.75-.21Z"/>
          </g>
          <path class="cls-3" d="M37.91,73.49c2.51-4.17,5.58-8.4,7.32-12.96,1.77-4.63-.18-9.21-.27-13.93-.09-4.84,1.28-9.53,2.39-14.19.98-4.13,2.14-8.84,1.11-13.06-.17-.7-1.2-.52-1.23.17-.19,4.64-.68,8.96-1.78,13.49-1,4.11-2.1,8.27-2.2,12.53-.12,4.59,2.03,9.4.53,13.89-.77,2.32-2.19,4.45-3.38,6.56-1.27,2.25-2.48,4.52-3.7,6.79-.43.79.74,1.48,1.21.71h0Z"/>
          <path class="cls-3" d="M28.26,96.63c2.72-4.71,7.23-9.82,11.98-12.51s10.64-3.71,15.71-6.18c.53-.26.28-1.27-.31-1.14-3.99.89-12.16,3.39-17.05,6.5-4.7,3-9.4,7.57-11.48,12.81-.23.58.8,1.06,1.1.54l.04-.03Z"/>
          <path class="cls-3" d="M38.07,80.37c2.07-3.23,3.86-6.62,6.77-9.2,2.6-2.3,5.72-3.56,9.05-4.41,5.64-1.44,13.04-1.73,17.55-5.84.72-.65.1-.93-.63-.46-3.16,2.04-6.32,2.45-9.82,3.23-3.38.75-7.01.93-10.28,2.1-6.8,2.43-10.74,7.74-13.61,14.18-.29.66.56,1.04.96.41h0Z"/>
        </g>
        <path class="cls-3" d="M22.95,47.17c3.61,5.48,6.84,11.17,8.51,17.56.85,3.26,1.19,6.59.76,9.94s-1.46,6.44-2.89,9.39c-1.58,3.26-3.61,6.29-5.85,9.13-.27.34-.32.79,0,1.12.27.28.85.33,1.12,0,4.17-5.3,7.75-11.28,8.96-18,.62-3.46.54-6.93-.18-10.37-.71-3.34-1.86-6.58-3.31-9.66-1.63-3.46-3.64-6.72-5.74-9.91-.56-.84-1.92-.06-1.36.8h0Z"/>
        <path class="cls-3" d="M48.78,51.3c.5-1.11,1.12-2.16,1.61-3.28.74-1.66,1.5-3.29,2.36-4.89,1.72-3.21,3.71-6.27,5.7-9.32.44-.68-.65-1.32-1.09-.64-1.98,3.05-3.97,6.11-5.7,9.32-.86,1.6-1.62,3.24-2.36,4.89-.5,1.12-1.12,2.17-1.61,3.28-.33.74.76,1.38,1.09.64h0Z"/>
        <path class="cls-3" d="M53.06,51.23c.98-.43,1.82-1.09,2.66-1.74.85-.66,1.68-1.34,2.51-2.03,1.6-1.33,3.15-2.72,4.7-4.1,2.9-2.57,6.01-5.12,9.82-6.16,2.4-.66,4.91-.74,7.38-.82.81-.03.81-1.29,0-1.26-2.23.07-4.47.16-6.66.61-2,.42-3.88,1.2-5.63,2.26-3.45,2.08-6.31,5-9.35,7.6-.97.83-1.96,1.64-2.95,2.44s-1.95,1.61-3.11,2.11c-.74.32-.1,1.41.64,1.09h0Z"/>
        <path class="cls-3" d="M46.51,65.31c.8-2.37,1.87-4.68,3.42-6.65,1.39-1.78,3.13-3.25,4.94-4.59,1.79-1.32,3.65-2.53,5.44-3.85,1.92-1.42,3.6-3,5.23-4.73.99-1.05,2.02-2.05,3.25-2.82s2.55-1.37,3.89-1.93c.32-.13.54-.42.44-.78-.08-.3-.46-.57-.78-.44-2.46,1.03-4.79,2.19-6.72,4.07-.95.93-1.81,1.94-2.77,2.87-.83.81-1.73,1.56-2.65,2.26-3.67,2.8-7.85,5.07-10.85,8.66-1.86,2.23-3.13,4.86-4.06,7.6-.26.77.96,1.1,1.22.34h0Z"/>
      </g>
      <rect class="cls-2" width="100" height="100"/>
    </g>
  </g>
</svg>