<?xml version="1.0" encoding="UTF-8"?>
<svg id="Capa_2" data-name="Capa 2" xmlns="http://www.w3.org/2000/svg" viewBox="0 0 100 100">
  <defs>
    <style>
      .cls-1 {
        fill: none;
      }

      .cls-2 {
        fill: #6a8c2a;
      }

      .cls-3 {
        fill: #4a2d2d;
      }
    </style>
  </defs>
  <g id="COLOR">
    <g>
      <g>
        <path class="cls-2" d="M75.86,49.67c-4.96-.45-11.13.26-14.69.78-.29-.28-.65-.54-1.07-.78-.48-.27-1.05-.42-1.67-.5,4.19-1.81,9.36-4.56,12.84-8.17,6.75-7,7-13.58.92-18-6.08-4.42-11.42-3.67-14.83-.67-1.5,1.32-2.42,2.62-3.14,4.11-3.89.23-7.63,2.84-9.28,7.39-2.08,5.75,2.17,10.83,3.25,13.17.62,1.33.53,2.62.34,3.5-.71-1.19-1.93-2.88-3.68-4.14-.5-1.7-1.03-3.76-1.32-5.69-.67-4.33-.75-8.67-8.08-13.5s-16.33-3.08-19.83,4c-3.5,7.08,0,16.33,9.25,19.67,5.12,1.84,9.18,1.9,12.05,1.59,1.5,1.52,4.64,1.81,7.12,1.66.3-.02.6-.05.9-.09-.61.41-1.26.88-1.91,1.4-3.39,1.22-10.34,4.36-14.74,10.78-6,8.75-1.33,20.08,8.92,21.92,10.25,1.83,13.67-7.17,14.42-11.17.57-3.04.46-5.99-.35-9.09.27-.83.44-1.65.52-2.41.25-2.27-.76-6.75-1.63-10.03.28.26.55.48.79.62.4.23.97.56,1.66.86.58,2.33,1.55,5.68,2.67,7.47,1.83,2.92,5.33,12.08,16.25,12.33,10.92.25,16.42-7.75,16.75-15.08.33-7.33-5-11.25-12.42-11.92Z"/>
        <g>
          <path class="cls-3" d="M83.64,64.26c-2.64-1.59-5.61-2.76-8.54-3.89,2.09-.48,4.48-.96,6.22-2.04.23-.14.15-.56-.14-.53-2.4.19-4.96,1.38-7.26,2.07-.02,0-.04.02-.06.03-.41-.16-.82-.31-1.22-.47-2.52-.99-5.04-2.06-7.6-3,1.27-.42,2.52-.91,3.8-1.32,1.44-.46,2.95-.73,4.35-1.29.27-.11.27-.57-.07-.55-2.9.22-6.2,1.45-8.75,2.83-.02.01-.02.03-.04.05-.69-.25-1.39-.46-2.09-.68.48-.69.76-1.51.74-2.47-.06-2.13-2.05-3.86-4.04-4.16-2.02-.31-4.28.26-6.36,1.02.51-.52,1.02-1.04,1.54-1.52,1.39-1.28,2.88-2.42,4.36-3.6,2.63-2.09,5.16-4.64,6-8.01.37-1.48.31-2.88-.05-4.16.99-1.86,1.98-3.78,2.77-5.72.12-.3-.33-.44-.49-.21-1.01,1.48-1.89,3.15-2.68,4.81-1.61-3.56-5.74-5.91-9.89-5.73-.61.03-.83,1.03-.15,1.14,2.92.47,5.69.99,7.73,3.38,2.34,2.74,2.13,6.27.11,9.15-2.99,4.27-8.27,6.52-11.55,10.51.49-1.45.9-2.94,1.29-4.44,1.08-.97,2.04-2.08,3.14-3.03,1.2-1.04,2.52-1.91,3.76-2.89.25-.2-.07-.55-.32-.42-2.13,1.07-4.49,2.86-6.18,4.81.22-.8.46-1.59.74-2.37,1.17-3.29,2.59-6.48,4.21-9.58.23-.44-.44-.84-.67-.39-.53,1-1.03,2.02-1.52,3.05-.25-.95-.56-1.89-1.08-2.73-.16-.26-.56-.09-.49.21.28,1.19.76,2.33,1.11,3.5-.75,1.64-1.45,3.31-2.08,5.01-1.03-1.5-1.87-3.12-2.9-4.61-.17-.25-.64-.1-.52.22.68,1.82,1.89,3.42,3.08,4.95.03.04.07.04.1.05-1.11,3.04-2.46,6.49-2.6,9.73,0,.05.02.08.04.12,0,0,0,.01-.01.02-.06.09-.08.19-.08.28-.12.37.32.86.8.66,2.14-.91,4.51-1.86,6.85-1.99,2.04-.11,5.12.55,4.79,3.23-.2,1.62-1.95,2.67-3.33,3.22-1.81.72-3.47.62-5.28-.07-.68-.26-1.16.88-.5,1.18,2.41,1.08,6.89.66,9.09-1.49,1.38.48,2.74,1.03,4.1,1.62,0,.02-.02.05-.02.07-.12,3.13-.29,6.38.04,9.5.04.35.53.36.55,0,.19-3.07.07-6.18.17-9.26,1.83.8,3.64,1.63,5.46,2.37.06.02.12.05.17.07,0,.01,0,.03,0,.04.6,2.24,1.47,4.35,2.77,6.27.19.29.61.04.46-.27-.89-1.85-1.72-3.73-2.38-5.68,3.41,1.43,6.77,3.03,10.25,4.27.51.18.8-.59.36-.85Z"/>
          <path class="cls-3" d="M31.5,44.92c1.59-.93,3.2-1.82,4.95-2.41.07-.02.12-.06.16-.09.99.65,1.99,1.28,3.02,1.84-1.39.62-2.37,1.91-2.99,3.27-.7,1.52-1.05,3.23-.16,4.76.74,1.27,2.23,2.2,3.7,1.95.4-.07.44-.67.11-.85-.99-.53-2.13-.66-2.77-1.71-.69-1.12-.44-2.61.11-3.73.51-1.04,1.39-2.05,2.45-2.56,1.58-.76,2.88.09,4.17.94.45.3,1.01-.4.59-.76-1.33-1.14-2.82-1.99-4.58-1.52,0-.07-.03-.14-.09-.2-1.67-1.54-3.65-2.82-5.65-4.03-1.24-3.27-2.1-6.66-3.34-9.91-.1-.27-.56-.24-.53.09.32,3.12,1.55,6.33,2.89,9.23-.63-.38-1.27-.76-1.88-1.13-3.11-1.89-6.34-3.51-9.55-5.22-.46-.24-.85.48-.38.7,1.95.93,3.87,1.99,5.76,3.08-2.78.66-5.52,1.52-7.97,3.04-.24.15-.07.57.21.46,2.85-1.07,5.62-2.28,8.57-3.03,0,0,0,0,0,0,.88.52,1.76,1.04,2.63,1.56,1.65.99,3.25,2.11,4.86,3.19-1.74.51-3.34,1.3-4.66,2.58-.25.24.09.63.38.46Z"/>
          <path class="cls-3" d="M39.51,42.25c-.01-1.13-.04-2.21-.23-3.32-.05-.27-.51-.25-.54.02-.13,1.12-.09,2.2-.04,3.33.02.52.82.5.81-.02Z"/>
          <path class="cls-3" d="M50.72,66.54c-1.33,3.38-3.68,5.91-7.55,5.89-3.19-.02-5.33-3.01-5.39-6.02-.05-2.56.9-5.17,2.37-7.23,1.64-2.31,3.85-3.49,6.24-4.85.51-.29.16-1.04-.39-.92-6.21,1.4-11.42,9.93-8.94,16,.51,1.25,1.26,2.2,2.14,2.9-.73,1.12-1.46,2.26-2.16,3.43-2.04.3-3.92.85-5.82,1.7-.27.12-.08.55.2.47,1.67-.51,3.39-.92,5.1-1.27-1.16,2.02-2.22,4.1-3.06,6.22-.12.31.35.47.52.22,1.75-2.69,3.31-5.56,4.84-8.42.73,2.46,1.48,5.02,2.89,7.18.18.28.69.11.57-.24-.85-2.56-2.17-4.94-3.11-7.47,0-.02-.03-.03-.04-.05.24-.44.47-.88.71-1.32,4.34,2.65,11.21-.16,12.19-5.85.15-.87-.99-1.18-1.32-.36Z"/>
          <path class="cls-3" d="M49.03,53.36c3.47-.32,6.98-.21,10.42.34.36.06.53-.46.16-.57-3.36-.94-7.14-.84-10.58-.49-.09,0-.16.05-.21.1,0-.06-.02-.13-.09-.19-1.19-1.08-2.46-2.06-3.82-2.92-1.19-.76-2.59-1.68-4.05-1.58-.29.02-.4.49-.07.54,2.81.48,5.33,2.63,7.53,4.34-.11-.02-.22.02-.3.16-1.29,2.41-2.23,4.98-3.11,7.57-.18.52-.35,1.05-.53,1.57-1.47.51-3.23,1.38-4.07,2.75-.15.24.16.58.41.41.61-.43,1.12-.98,1.73-1.41.52-.36,1.08-.65,1.66-.9-.64,1.98-1.23,4-1.53,6.04-.05.31.39.45.48.13.72-2.49,1.26-5.02,2.08-7.48.66,1.37,1.52,2.66,2.37,3.91.19.28.6.04.46-.27-.72-1.53-1.45-3.15-2.46-4.52-.01-.01-.03-.02-.04-.04.91-2.53,2.06-4.96,3.12-7.43.08-.19,0-.36-.14-.45.1.03.19.02.26-.04-.05.21.06.44.33.42Z"/>
        </g>
      </g>
      <rect class="cls-1" width="100" height="100"/>
    </g>
  </g>
</svg>