<?xml version="1.0" encoding="UTF-8"?>
<svg id="Capa_2" data-name="Capa 2" xmlns="http://www.w3.org/2000/svg" viewBox="0 0 100 100">
  <defs>
    <style>
      .cls-1 {
        fill: #be7b67;
      }

      .cls-2 {
        fill: none;
      }

      .cls-3 {
        fill: #4a2d2d;
      }

      .cls-4 {
        fill: #fbf7f6;
      }
    </style>
  </defs>
  <g id="COLOR">
    <g>
      <g>
        <g>
          <path class="cls-1" d="M37.37,20.39s.7-1.04,1.04-4.17c.35-3.13.17-5.39.61-5.22s2.78,4.43,2.96,5.04,3.22-3.48,4.17-3.65-.7,5.04,1.13,8,16.01,9.17,20.43,15.06c5.09,6.78,4.82,19.22-1.04,27.71-6.98,10.11-18.6,10-18.78,11.21s4.26,6.13,3.39,6.39-3.06-.39-5.35-2.41c-1.7-1.51-2.61-2.8-2.61-2.8,0,0-.78,7.28-1.83,7.89s-2.22-7.43-2.22-7.43c0,0-1.74,3.61-4.17,5.35-2.43,1.74-3.65,1.65-3.39,1.04s3.72-7.69,3.72-7.69c0,0-18.08-3.35-23.21-17.34-5.13-14,2.11-23.58,8.89-28.36s16.26-8.61,16.26-8.61Z"/>
          <path class="cls-3" d="M34.46,27.28c-6.69,3.08-11.81,10.49-12.91,17.66-.58,3.77-.08,7.56,1.35,11.09,1.42,3.49,3.63,7.37,6.46,9.92.45.41,1.2-.11.87-.67-1.82-3.04-4.19-5.6-5.67-8.88-1.67-3.7-2.27-7.74-1.56-11.75.66-3.74,2.32-7.25,4.68-10.22,2.09-2.63,4.65-4.46,7.24-6.54.36-.29-.1-.77-.46-.6h0Z"/>
          <path class="cls-3" d="M46.66,27.8c6.69,3.08,11.81,10.49,12.91,17.66.58,3.77.08,7.56-1.35,11.09-1.42,3.49-3.63,7.37-6.46,9.92-.45.41-1.2-.11-.87-.67,1.82-3.04,4.19-5.6,5.67-8.88,1.67-3.7,2.27-7.74,1.56-11.75-.66-3.74-2.32-7.25-4.68-10.22-2.09-2.63-4.65-4.46-7.24-6.54-.36-.29.1-.77.46-.6h0Z"/>
          <path class="cls-3" d="M40.63,27.43c-.74,7.09-.89,14.3-1.06,21.42-.08,3.5-.11,7.01-.05,10.51.05,3.36-.09,6.92.53,10.23.09.5.82.35.84-.11.18-3.59-.29-7.29-.34-10.89-.05-3.38-.02-6.75.06-10.13.16-7.01.78-14.02.82-21.03,0-.52-.74-.5-.8,0h0Z"/>
        </g>
        <g>
          <g>
            <path class="cls-4" d="M85.7,54.99s-7.82-7.21-16.69-6.87-15.65,3.82-17.82,6.61c-2.17,2.78-3.04,8-.78,12.34,2.26,4.35,12.69,10.08,18.86,11.82s14.69,0,17.99-3.3c3.3-3.3,4.35-7.3,4.09-10.78s-5.65-9.82-5.65-9.82Z"/>
            <path class="cls-1" d="M52.32,53.06s-5.8,4.56-6.45,13.23c-.65,8.67,4.76,14.86,7.3,17.02,2.54,2.15,4.82,3.39,4.82,3.91s-2.09,3.59-1.7,4.11,4.43-2.35,4.63-2.02,1.76,3.78,2.48,3.91.52-4.43,1.04-4.5,8.87,4.43,17.28-2.87c8.41-7.3,9.58-12.84,10.04-15.32.46-2.48-.07-4.95-.07-4.95,0,0-.78,8.87-7.95,11.93-7.17,3.06-20.73.91-26.79-4.3s-9.65-9.32-7.95-14.08c1.7-4.76,3.32-6.06,3.32-6.06Z"/>
            <g>
              <path class="cls-3" d="M72.27,64.98c.95-.27.88-1.47.4-2.12-.33-.45-.86-.77-1.32-1.06-.42-.26-.89-.42-1.39-.32-1.22.24-1.25,1.8-.51,2.56.65.67,1.89,1.21,2.82.94ZM70.54,62.16c.6.1,1.34.51,1.71.99.2.26.28.75-.03.98-.24.17-.61.04-.86-.03-.5-.13-1.13-.39-1.46-.8-.45-.56-.07-1.25.64-1.14Z"/>
              <path class="cls-3" d="M60.97,59.06c-4.4,4.29,2.97,9.24,6.38,10.62,3.71,1.49,11.98,3.48,13.21-2.4.88-4.2-3.71-7.1-7.51-8.52-3.8-1.68-9.17-2.53-12.07.3ZM70.92,58.92c2.98,1.24,7.73,2.98,8.86,6.24,1.07,3.07-2.32,5.03-4.87,5.16-2.25.11-4.58-.57-6.67-1.35-1.98-.74-4.17-1.69-5.69-3.22-.95-.96-1.93-2.45-1.92-3.85.02-1.75,1.53-2.78,3.03-3.27,2.17-.71,4.83-.44,7.26.28Z"/>
              <path class="cls-3" d="M54.83,65.14c-3.82-7.95,5.87-12.36,12.35-12.16.35.01.44-.57.08-.62-6.86-1.06-17.75,5.16-12.97,13.1.21.35.71.04.54-.31Z"/>
              <path class="cls-3" d="M69.72,52.22c-.49-.03-.6.76-.12.86,4.74,1.03,8.9,2.45,12.59,5.74,1.83,1.64,3.97,3.69,4.72,6.09.87,2.82-.65,5.64-2.94,7.27-4.17,2.95-10.35,2.51-15.07,1.35-5.11-1.25-9.66-3.77-13.56-7.29-.28-.25-.69.14-.42.42,4.18,4.26,9.69,7.14,15.56,8.21,5.03.92,11.94,1.07,15.5-3.29,1.42-1.74,2.35-3.99,1.97-6.26-.4-2.43-2.43-4.51-4.1-6.19-3.71-3.72-8.81-6.62-14.15-6.93Z"/>
            </g>
            <path class="cls-3" d="M62.26,86.35c1.01-.96,1.95-1.98,2.78-3.09.69-.91,1.53-1.94,1.79-3.06.08-.33-.34-.53-.57-.29-.8.86-1.3,2.05-1.98,3.02-.75,1.07-1.59,2.07-2.5,3.01-.28.29.17.7.46.42h0Z"/>
            <path class="cls-3" d="M67,88.72c4.24-.79,8.78-3.14,11.14-6.88.19-.3-.24-.62-.49-.38-3.18,3.21-6.31,5.61-10.84,6.58-.45.1-.25.76.19.68h0Z"/>
          </g>
          <path class="cls-3" d="M91.11,61.17c-1.73-4.19-5.1-7.33-8.93-9.63-3.75-2.26-8.57-4.25-13.06-4.04-6.82-.36-14.33,1.76-18.47,7.12-.27.35-.52.72-.76,1.1-3.26,3.4-4.86,7.97-4.79,12.71.05,3.02,1.06,8.9,6.34,13.39.05.04.1.09.15.14-3.05-4.58-6.12-11.9-4.94-17.4.32-1.51.88-2.95,1.58-4.31-.23,1.58-.14,3.2.38,4.8.92,2.87,2.84,5.12,5.12,6.97-1.07,3.68-.37,8.31,1.21,11.72.16.35.86.75.77.37-.44-1.87-1.24-4.25-1.48-6.17-.23-1.83-.12-3.61.15-5.42.66.5,1.34.98,2.03,1.42,7.27,4.66,17.58,8.42,26.12,5.38,7.69-2.74,11.8-10.37,8.59-18.14ZM89.97,69.09c-.75,3.33-3.28,5.91-6.23,7.46-7.19,3.79-15.45.82-22.35-2.2-3.59-1.57-7.15-3.21-9.56-6.44-2.45-3.28-2.88-7.24-.88-10.86,4.69-8.49,16.04-9,24.32-6.47,1.28.39,2.54.87,3.74,1.47,3.19,1.61,6.27,3.82,8.4,6.73,2.13,2.91,3.38,6.7,2.57,10.29Z"/>
        </g>
      </g>
      <rect class="cls-2" width="100" height="100"/>
    </g>
  </g>
</svg>