<?xml version="1.0" encoding="UTF-8"?>
<svg id="Capa_2" data-name="Capa 2" xmlns="http://www.w3.org/2000/svg" viewBox="0 0 100 100">
  <defs>
    <style>
      .cls-1 {
        fill: #d9987c;
      }

      .cls-2 {
        fill: none;
      }

      .cls-3 {
        fill: #e5d2c4;
      }

      .cls-4 {
        fill: #4a2d2d;
      }
    </style>
  </defs>
  <g id="COLOR">
    <g>
      <rect class="cls-2" width="100" height="100"/>
      <g>
        <path class="cls-1" d="M41.33,39.57s-13.04.68-17.46-2.95c-4.42-3.63-3.18-7.26,3.74-9.64s14.97-6.58,19.39-10.09c4.42-3.52,17.01-9.87,27.9-5.44,10.89,4.42,16.67,15.54,13.15,23.36-3.52,7.82-12.93,7.14-17.58,6.58-4.65-.57-11.34-1.93-15.31-2.49s-13.84.68-13.84.68Z"/>
        <path class="cls-4" d="M77.54,36.84c.61,0,1.46.12,1.98-.24.57-.4.57-1.13,0-1.52-.52-.37-1.37-.24-1.98-.24-.53,0-1.03.46-1,1s.44,1,1,1h0Z"/>
        <path class="cls-4" d="M79.96,34.8c.34,0,.73,0,1.02-.21s.5-.49.5-.88-.2-.66-.5-.88-.68-.21-1.02-.21c-.28,0-.57.12-.77.32s-.33.5-.32.77c.03.59.48,1.08,1.08,1.08h0Z"/>
        <path class="cls-4" d="M30.03,35.04c.05-.05.1-.09.16-.14l-.19.15c.09-.07.18-.14.27-.21.25-.2.4-.56.3-.88-.09-.28-.3-.49-.58-.58-.13-.04-.31-.04-.45-.06l.25.03c-.07-.01-.14-.03-.2-.04-.37-.07-.73,0-1,.27-.26.26-.36.65-.27,1s.37.62.72.72c.37.1.72-.02,1-.27h0Z"/>
        <path class="cls-3" d="M25.68,67.02s1.7,3.74,6.58,6.12,9.19,3.74,12.47,6.8,6.58,8.51,6.58,8.51c0,0,.23-6.46-2.61-11-2.84-4.54-10.43-10.21-14.18-13.04-3.74-2.84-7.26-4.88-9.07-5.56s-.23-6.35,3.4-8.62c3.63-2.27,11.57-.68,11.57-.68,0,0-.91,7.94,1.7,13.27,2.61,5.33,4.99,6.12,6.58,7.48,1.59,1.36,2.15,2.27,2.15,2.27,0,0-1.47-5.56-.11-10.09s-.26-9.98-1.63-12.81-9.53-10.21-9.53-10.21c0,0,4.65-13.23,16.33-13.68,11.68-.45,16.37,4.95,17.05,7.67s-6.35,10.77-8.62,14.74c-2.27,3.97-4.65,5.33-5.78,12.93-1.13,7.6,0,12.25.23,15.42.23,3.18-1.59,8.17-2.04,9.75-.45,1.59-1.13,2.84-1.13,2.84,0,0,3.63-2.72,6.12-9.19,2.49-6.46,2.27-14.63,2.15-18.03-.11-3.4-.79-4.65-.91-5.22s5.1-1.7,8.28.23c3.18,1.93,3.18,3.63,3.18,3.63,0,0,0,10.55-4.2,18.6s-12.7,15.54-17.69,15.31c-4.99-.23-8.17-7.37-12.36-9.98-4.2-2.61-7.71-5.67-12.93-6.46-5.22-.79-9.41.57-9.41.57,0,0-1.59-2.84-.91-4.88s8.73-6.69,8.73-6.69Z"/>
        <path class="cls-1" d="M24.43,44.45c-8.28,4.54-9.41,16.1-6.69,17.8,2.72,1.7,5.22.91,9.07-3.74,3.86-4.65,8.05-6.01,11-6.12,2.95-.11,5.33.57,6.8-2.61,2.27-4.88-11.91-9.87-20.19-5.33Z"/>
        <path class="cls-1" d="M22.05,73.37c-3.18,4.54-1.7,13.38-5.9,14.06s-6.35-1.36-6.69-10.21c-.34-8.85,1.36-12.59,5.33-13.38,3.97-.79,16.7-.36,17.69,1.02,2.27,3.18-7.26,3.97-10.43,8.51Z"/>
        <path class="cls-4" d="M53.07,75.88c-.9-3.23-2-6.44-2.06-9.8-.04-1.91.32-3.82.39-5.73.04-.94.04-1.88-.08-2.82-.07-.6-.21-1.18-.38-1.76.03.42.04.85.03,1.27-.08,2.46-.86,4.86-1.19,7.29-.68,5.01,1.29,9.73,1.75,14.68.23,2.39.29,4.82.21,7.23-.09,2.54-.58,5.02-.74,7.55-.07,1.06,1.36,1.05,1.7.23,1.89-4.56,1.49-10.5.85-15.28-.13-.96-.3-1.91-.48-2.86Z"/>
        <path class="cls-4" d="M64.41,30.51c-3.22,6.64-5.42,14.39-5.73,21.79-.02.36.58.45.64.09.53-3.61,1.02-7.18,1.93-10.73.94-3.69,2.35-7.27,3.83-10.77.19-.44-.44-.83-.66-.38h0Z"/>
        <path class="cls-4" d="M64.02,43.65c1.23-3.54,3.91-6.28,5.39-9.67.13-.31-.25-.7-.51-.39-1.27,1.5-2.21,3.34-3.25,5.01-.96,1.55-1.83,3.1-2.37,4.85-.15.48.58.67.74.2h0Z"/>
        <path class="cls-4" d="M52.76,29.43c-.99,8.96,3.9,17.34,2.84,26.31-.53,4.5-2.07,8.87-2,13.44.08,4.75,1.69,9.31,1.98,14.04.03.49.74.49.76,0,.17-4.64-1.43-9.1-1.52-13.73-.1-4.66,1.39-9.16,1.93-13.75,1.05-8.99-3.87-17.35-2.93-26.31.07-.68-.98-.67-1.06,0h0Z"/>
        <path class="cls-4" d="M43.06,36.04c1.97,1.76,3.77,3.7,5.29,5.87,1.44,2.05,2.35,4.47,3.82,6.46.28.38.83.15.76-.32-.39-2.48-2.19-5.02-3.66-6.99-1.6-2.14-3.43-4.04-5.5-5.73-.49-.4-1.21.28-.71.71h0Z"/>
        <path class="cls-4" d="M67.12,62.03c-.31,4.06-.42,8.01-1.42,11.98-1.01,3.99-2.83,7.47-4.49,11.2-.22.49.39.84.72.42,2.5-3.26,3.99-7.65,4.94-11.61s1.54-8.13.89-12.08c-.06-.38-.61-.26-.64.09h0Z"/>
        <path class="cls-4" d="M68.16,78.02c.63-1.27.89-2.56.74-3.97-.03-.29-.48-.41-.54-.07-.25,1.25-.57,2.51-.95,3.73-.14.44.54.74.75.32h0Z"/>
        <path class="cls-4" d="M35.91,54.66c.35,4.03,1.88,8.64,5.01,11.4.29.26.78-.07.56-.43-1.03-1.68-2.2-3.22-3.02-5.03-.87-1.91-1.45-3.97-1.78-6.04-.07-.43-.8-.33-.77.1h0Z"/>
        <path class="cls-4" d="M31.46,56.87c1.93,1.14,3.35,2.78,4.72,4.52.23.29.75-.02.62-.36-.84-2.28-2.74-3.91-4.9-4.91-.5-.23-.93.46-.44.75h0Z"/>
        <path class="cls-4" d="M25.25,73.37c4.41,1.9,8.61,4.15,12.92,6.26.4.2.72-.35.35-.6-3.98-2.67-8.49-4.69-12.95-6.42-.43-.17-.75.57-.32.76h0Z"/>
        <path class="cls-4" d="M43.33,83.39c1.95,1.82,3.3,3.93,4.8,6.1.19.28.73.11.59-.25-1.01-2.46-2.95-4.58-4.92-6.32-.32-.28-.78.17-.47.47h0Z"/>
        <path class="cls-4" d="M22.16,75.47c1.48.17,2.94.53,4.43.55.5,0,.53-.66.11-.82-1.43-.56-3.02-.62-4.54-.71-.65-.04-.61.91,0,.99h0Z"/>
        <path class="cls-4" d="M19.8,57.89l.07.06c.09.1.21.17.33.21.12.06.26.09.4.09.14,0,.28-.02.4-.09.13-.04.24-.11.33-.21l.16-.21c.09-.16.14-.34.14-.52l-.04-.28c-.05-.18-.14-.33-.27-.46l-.06-.07c-.09-.1-.21-.17-.34-.22-.12-.07-.26-.1-.4-.09-.14,0-.28.02-.4.09-.13.04-.24.11-.34.22l-.16.21c-.09.16-.14.34-.14.53l.04.28c.05.18.14.33.27.46h0Z"/>
        <path class="cls-4" d="M14.49,83c.96,0,.96-1.49,0-1.49s-.96,1.49,0,1.49h0Z"/>
        <path class="cls-1" d="M58.68,50.46c.31-.19,9.75-6.24,17.35-3.52,7.6,2.72,10.77,16.1,9.19,18.48-1.59,2.38-6.58,2.04-10.55-.57-3.97-2.61-5.44-4.88-9.98-5.1-4.54-.23-6.69,1.59-8.73-.11s-2.49-6.01,2.72-9.19Z"/>
        <path class="cls-4" d="M79.51,62.48c.15,0,.29-.03.42-.09.14-.04.25-.12.35-.23.11-.1.18-.22.23-.35.07-.13.1-.27.09-.42l-.04-.29c-.05-.19-.15-.35-.28-.48l-.22-.17c-.17-.1-.36-.15-.55-.15-.15,0-.29.03-.42.09-.14.04-.25.12-.35.23-.11.1-.18.22-.23.35-.07.13-.1.27-.09.42l.04.29c.05.19.15.35.28.48l.22.17c.17.1.36.15.55.15h0Z"/>
      </g>
    </g>
  </g>
</svg>