<?xml version="1.0" encoding="UTF-8"?>
<svg id="Capa_2" data-name="Capa 2" xmlns="http://www.w3.org/2000/svg" viewBox="0 0 100 100">
  <defs>
    <style>
      .cls-1 {
        fill: #fff;
      }

      .cls-2 {
        fill: #fdc733;
      }

      .cls-3 {
        fill: none;
      }

      .cls-4 {
        fill: #4a2d2d;
      }
    </style>
  </defs>
  <g id="COLOR">
    <g>
      <g>
        <path class="cls-2" d="M81.59,47.03c-.65-13.61-6.35-18.41-14.91-18.93-1.99-.12-4.14.05-6.29.39-.03.02-.05.05-.08.07-.69.47-1.25,1.08-1.85,1.66-.58.56-1.19,1.07-1.85,1.53-1.07.74-2.21,1.37-3.33,2.04,1.5,1.5,2.65,3.35,3.87,5.07.34.48-.02,1.06-.51,1.22.05.18.03.38-.05.56-.25.51-.97.61-1.47.57-.48-.05-.92-.19-1.36-.4-.39-.19-.76-.45-1.1-.72-.04-.03-.08-.06-.12-.09-.58-.02-1.2-.32-1.7-.59-.48-.26-.94-.56-1.38-.89-.89-.65-1.74-1.37-2.68-1.96-.5.4-.95.85-1.5,1.19-1.18.73-2.44,1.22-3.72,1.75-1.17.48-2.45,1-3.74.93-.6-.04-.87-.7-.48-1.15,1.71-1.98,3.77-3.55,5.88-5.07-.35-.36-.72-.71-1.09-1.06-.54-.52-1.02-1.09-1.52-1.64-.83-.92-1.82-1.94-2.05-3.21-3.52-1.57-8.08-2.67-12.73-1.2-9.85,3.11-12.45,14.78-9.34,28.01,3.11,13.23,10.24,28.27,18.67,29.69,8.43,1.43,10.76-5.71,13.36-4.41,2.59,1.3,5.32,7.13,14,4.02,8.69-3.11,19.71-23.73,19.06-37.34Z"/>
        <path class="cls-1" d="M30.17,31.37c-3.19.08-5.76,2.22-7.39,4.83s-2.83,6.7-.51,9.12c.61.63,1.71.47,2.14-.28,1.18-2.06.8-4.6,1.99-6.72,1.11-1.98,3.03-3.25,4.7-4.71.86-.75.17-2.27-.93-2.24h0Z"/>
        <path class="cls-1" d="M23.17,51.24c.08.23.15.47.24.69.08.21.18.38.36.52.17.13.39.22.61.21.18,0,.35-.05.5-.14.24-.13.36-.36.46-.6s.17-.46.24-.69c.25-.78-.42-1.58-1.21-1.58s-1.46.8-1.21,1.58h0Z"/>
        <path class="cls-4" d="M62.39,76.22l1.16.03c.44.01.87.04,1.25-.24.5-.37.5-.98,0-1.35-.38-.28-.8-.25-1.25-.24l-1.16.03c-1.14.03-1.15,1.75,0,1.78h0Z"/>
        <path class="cls-4" d="M63.2,72.75c.42-.05.84-.07,1.26-.01.47.07.93.17,1.4.06.69-.17.8-.99.39-1.47-.74-.88-2.31-.74-3.32-.59-1.13.16-.88,2.15.27,2.02h0Z"/>
        <path class="cls-4" d="M60.91,26.47c-2.84.8-6.13,2.18-9.19,2.46,1.98-5.42,2.16-16.67-5.02-16.66-2.78,0-6.63,2.31-6.24,5.48.24,1.94,1.75,3.75,2.68,5.42,1.09,1.97,2.11,3.95,2.28,6.16-2.3-1.4-4.72-2.53-7.28-3.41-.66-.23-1.17.46-1.05,1.05.57,2.8,1.94,5.55,4.2,7.29-2.01,1.57-3.83,3.35-5.4,5.39-.5.65.2,1.42.85,1.48,2.04.16,4.1-.02,5.97-.86,2.65-1.2,3.93-2.51,4.35-2.43.56.11,1.67,1.42,4.46,2.64,1.78.78,3.77,1.01,5.71.95.92-.03,1.48-1,1.04-1.81-1.01-1.82-2.21-3.49-3.63-4.99,3.01-1.54,5.59-3.73,7.5-6.59.53-.79-.34-1.82-1.21-1.58ZM43.11,16c.56-.61,1.44-1.04,2.21-1.29.92-.29,1.69-.28,2.34-.05-.75,1.73-2.82,2.86-4.97,3.28-.16-.68-.12-1.35.43-1.95ZM52.51,33.58c-.74.3-1.05.43-.36,1.08,1.24,1.15,3.31,3.46,4.21,4.84-3.33.82-8.04-2.97-8.85-3.3-1.33-.53-1.73.4-4.15,1.74-2.91,1.62-4.38,1.54-5.83,1.79,1.4-1.46,4.13-3.88,5.95-4.9.77-.44.69-.78-.03-1.23-2.11-1.32-4.14-4.21-5.02-6.4,2.29.93,5.43,2.79,7.52,4.15,0,0,.01,0,.02,0,.64.5,1.06.58,1.2-.51.34-2.82-.24-5.71-1.73-8.07-.75-1.18-1.6-2.24-2.22-3.49,2.31-.48,4.7-2.25,4.93-4.43,1.59.88,2.31,3.16,2.58,5.15.43,3.21.57,6.27-1.04,9.16-.35.63-.08,1.59.62,1.63,1.79.1,3.25-.52,4.97-.94.91-.23,3.83-1.11,4.6-1.49-1.67,1.65-5.11,4.29-7.35,5.2Z"/>
      </g>
      <rect class="cls-3" width="100" height="100"/>
    </g>
  </g>
</svg>