<?xml version="1.0" encoding="UTF-8"?>
<svg id="Capa_2" data-name="Capa 2" xmlns="http://www.w3.org/2000/svg" viewBox="0 0 100 100">
  <defs>
    <style>
      .cls-1 {
        fill: #fff;
      }

      .cls-2 {
        fill: none;
      }

      .cls-3 {
        fill: #6a8c2a;
      }

      .cls-4 {
        fill: #4a2d2d;
      }
    </style>
  </defs>
  <g id="COLOR">
    <g>
      <g>
        <g>
          <path class="cls-3" d="M18.03,77.79c4.7-1.08,18.33-9.33,24.58-14.04,6.25-4.7,8.96-21.23,10.85-27.72,1.24-4.26,3.73-8.67,6.61-9.8,1.4.36,6.98,1.68,8.33,1.36,1-.23,1.94-.72,2.91-1.06-.17.52-.32,1.05-.42,1.6-.19,1.07-.21,2.19-.18,3.27.04,1.29.11,2.88.69,4.05.35.7,1.1,1.01,1.82.63.68-.36.93-1.11,1.29-1.74.56-.99,1.13-1.99,1.57-3.04.2-.49.35-1,.49-1.51.63.81,1.32,1.56,2.04,2.32.94.99,4.73,3.82,5.97,4.38,2.05,5.3,4.38,17.07-8.14,30.57-6.85,7.39-17.83,14.5-34.51,18.84-16.68,4.35-29.18,3.31-32.68-.02-3.5-3.33,3.43-6.87,8.8-8.11Z"/>
          <path class="cls-4" d="M60.2,27.65c3.23,1.03,6.47,1.22,9.66.46-.83,3.2-.47,6.68,1.65,9.36.42.54,1.26.51,1.66-.03,1.29-1.71,2.28-3.54,2.97-5.5,2.04,2.65,4.9,4.71,8.09,5.7.75.23,1.8-.34,1.56-1.26-1.3-4.83-3.61-8.85-7.62-11.92-.11-.09-.23-.15-.35-.19.42-2.34,1.42-4.55,3.05-6.34,2-2.19,4.47-2.76,6.88-4.22,4.15-2.52.77-6.49-3.07-6.04-5.34.63-9.45,6.17-11.84,10.49-.74,1.34-1.11,3.15-2.79,3.53-1.09.25-2.43.45-3.56.69-2.49.53-4.8,1.27-6.63,3.06-.65.63-.68,1.89.34,2.22ZM71.54,25.37c-2.47,1.07-5.63,2-9.97.92,1.2-1.5,5.11-2.32,6.85-2.44,1.79-.13,4.28-.58,5.56-2.14,1.5-1.84,1.62-2.95,3-4.94,1.37-1.98,2.99-3.94,4.94-5.37,1.04-.76,3.1-1.98,4.46-1.33,1.66.79-.96,2.16-1.9,2.54-1.66.67-3.13,1.66-4.37,2.95-2.69,2.81-4.01,5.53-3.95,9.42,0,.54.27,1.21.94,1.62,2.82,1.74,5.67,5.94,6.88,9.03-2.63-1.37-5.94-3.98-7.36-6.85-.58-1.18-1.22-.56-1.53.7-.82,3.37-1.66,4.83-2.74,6.34-1.76-2.9-1.68-6.83-.05-9.3.71-1.08.5-1.69-.75-1.15Z"/>
          <path class="cls-1" d="M80.33,52.96c-.78-.1-1.73-.26-2.38-.75-.46-.35-.7-1.04-.46-1.59s.8-.96,1.41-.87c.38.06.71.2,1.07.32.06.02.13.04.2.06-.12-.03-.13-.03-.03,0,.16.03.31.06.47.08.71.1,1.35.75,1.24,1.51s-.75,1.33-1.51,1.24h0Z"/>
          <path class="cls-1" d="M78.06,57.68c-.39-.28-.81-.53-1.11-.91-.51-.65-.13-1.62.68-1.75.48-.08.96.02,1.44.08.93.11,1.54,1.07,1.2,1.96s-1.44,1.18-2.2.64h0Z"/>
          <path class="cls-4" d="M29.58,84.6c-1.26-.49-.5-2.45.76-1.96,1.26.49.5,2.45-.76,1.96h0Z"/>
          <path class="cls-4" d="M23.64,86.14c-.62-.24-.25-1.2.37-.96s.25,1.2-.37.96h0Z"/>
          <path class="cls-4" d="M22.7,81.91c-.62-.24-.25-1.2.37-.96s.25,1.2-.37.96h0Z"/>
        </g>
        <path class="cls-4" d="M63.2,30.94c-2.97.75-4.12,4.41-4.28,7.11-.25,4.38,1.78,8.77,0,13.04-1.29,3.1-3.89,5.44-6.19,7.79-1.91,1.95-5.12,4.73-5.07,7.71,0,.39.51.43.72.2,1.04-1.11,1.63-2.61,2.56-3.82.97-1.26,2.06-2.41,3.18-3.55,2.06-2.11,4.24-4.21,5.6-6.86,1.73-3.37,1.28-6.88.78-10.49-.27-1.95-.46-3.9-.03-5.84.44-2.01,1.5-3.21,3.05-4.47.32-.26.14-.94-.33-.82h0Z"/>
        <path class="cls-4" d="M75.07,46.05c-1.57,1.74-2.99,3.6-3.04,6.04-.03,1.32.32,2.63.32,3.95s-.33,2.67-.86,3.9c-1.05,2.46-2.82,4.43-4.95,6.01-1.05.79-2.16,1.48-3.26,2.2-1.02.68-2.53,1.39-3.22,2.41-.21.31,0,.68.37.67,1.24-.06,2.63-.99,3.69-1.59,1.15-.64,2.25-1.4,3.26-2.24,1.95-1.61,3.7-3.52,4.89-5.76,1.09-2.07,1.68-4.53,1.3-6.87-.24-1.51-.9-3.06-.52-4.6.36-1.48,1.47-2.67,2.45-3.78.25-.28-.2-.63-.45-.36h0Z"/>
        <path class="cls-4" d="M36.72,79.7c4.36-.62,8.04-2.56,11.79-4.79,1.76-1.05,2.92-2.29,4.11-3.93.77-1.06,1.59-1.94,2.76-2.56.85-.45,1.97-.62,2.68-1.27.23-.21.09-.54-.22-.55-1.51-.01-3.55,1.42-4.6,2.43-.74.71-1.27,1.59-1.95,2.34-.73.8-1.62,1.42-2.56,1.96-3.74,2.18-7.79,4.76-12.1,5.57-.49.09-.41.84.09.77h0Z"/>
        <path class="cls-4" d="M70.25,41.23c-1.68,2.32-2.95,4.96-3.3,7.83-.19,1.54-.17,3.13-.65,4.62-.21.63-.51,1.24-.92,1.77-.44.55-1.01.88-1.55,1.31-.19.15-.07.46.18.44,1.16-.09,2.03-1.2,2.54-2.14.72-1.31.89-2.82,1.03-4.28.15-1.62.36-3.2.92-4.74s1.38-3,2.33-4.35c.27-.38-.29-.83-.57-.45h0Z"/>
      </g>
      <rect class="cls-2" width="100" height="100"/>
    </g>
  </g>
</svg>