<?xml version="1.0" encoding="UTF-8"?>
<svg id="Capa_2" data-name="Capa 2" xmlns="http://www.w3.org/2000/svg" viewBox="0 0 100 100">
  <defs>
    <style>
      .cls-1 {
        fill: none;
      }

      .cls-2 {
        fill: #e5d2c4;
      }

      .cls-3 {
        fill: #4a2d2d;
      }

      .cls-4 {
        fill: #ab745b;
      }
    </style>
  </defs>
  <g id="COLOR">
    <g>
      <rect class="cls-1" width="100" height="100"/>
      <g>
        <path class="cls-2" d="M67.7,68.05c-1.08-7.41-3.35-14.65-6.7-21.36-2.61-5.24-5.98-10.57-5.51-16.41l-14.19,2.51c1.05,6.38.92,12.94-.4,19.27-.98,4.72-2.6,9.29-3.61,14-.68,3.18-1.07,3.41-1.17,6.65-.14,4.36.33,8.97,2.85,12.54,4.4,6.22,11.86,7.06,18.69,4.58,9.94-3.61,11.36-12.71,10.04-21.79Z"/>
        <g>
          <path class="cls-4" d="M21.43,35.32c-3.05-6.03-1.13-14.45,15.43-22.57,16.56-8.12,33.91.3,39.31,10.17,5.4,9.87.35,13.38-8.11,16.34-8.46,2.96-43.58,2.08-46.64-3.95Z"/>
          <path class="cls-3" d="M66.61,32.89c.24.1.5.14.77.14.41,0,.75-.12,1.07-.39.19-.16.32-.51.31-.75-.01-.29-.12-.53-.31-.75-.43-.49-1.25-.51-1.83-.36-.45.11-.82.59-.8,1.05,0,.19.06.38.15.55.14.27.39.4.65.5h0Z"/>
          <path class="cls-3" d="M67.05,29.49c.27-.02.54-.04.81-.1.38-.09.79-.43.77-.86s-.34-.75-.74-.85c-.28-.07-.56-.1-.84-.11-.51-.03-.99.46-.97.97s.43,1,.97.97h0Z"/>
          <path class="cls-3" d="M25.14,31.97c.38.06.71.09,1.09,0,.08-.02.15-.04.22-.08.05-.02.37-.27.23-.15.16-.13.3-.24.39-.42.14-.28.09-.7-.22-.85-.06-.03-.47-.2-.47-.15.25.09.24.08-.02-.02-.1-.03-.21-.04-.31-.03-.23,0-.45.03-.68.03-.42,0-.78.33-.83.74-.05.38.19.87.61.93h0Z"/>
          <path class="cls-3" d="M61.6,80.51l.24-.17c.09-.06.18-.12.25-.19.18-.17.25-.4.27-.64l-.03-.22c-.03-.11-.07-.2-.15-.28-.11-.15-.25-.24-.43-.3-.15-.05-.35-.05-.5,0-.11.03-.21.09-.3.14l-.24.15c-.19.12-.34.31-.4.52s-.03.49.09.67.3.35.52.4.49.05.67-.09h0Z"/>
          <path class="cls-3" d="M40.59,41.77c2.11.47,4.26.72,6.42.83,1.9.09,9.51.26,11.23-.67.59-.32.52-1.41-.2-1.53-1.88-.3-9.11.3-11.03.32-2.09.02-4.16-.19-6.25-.23-.72-.02-.9,1.11-.17,1.28h0Z"/>
        </g>
      </g>
    </g>
  </g>
</svg>