<?xml version="1.0" encoding="UTF-8"?>
<svg id="Capa_2" data-name="Capa 2" xmlns="http://www.w3.org/2000/svg" viewBox="0 0 100 100">
  <defs>
    <style>
      .cls-1 {
        fill: #c49e8c;
      }

      .cls-2 {
        fill: none;
      }

      .cls-3 {
        fill: #4a2d2d;
      }

      .cls-4 {
        fill: #ab745b;
      }

      .cls-5 {
        fill: #f7ede4;
      }
    </style>
  </defs>
  <g id="COLOR">
    <g>
      <rect class="cls-2" width="100" height="100"/>
      <g>
        <path class="cls-1" d="M32.46,76.03c-.49-.16-19.31,0-25.32-11.69-6-11.69-.16-28.89,22.88-35.38,23.05-6.49,48.2,2.43,57.78,12.5,9.58,10.06,8.6,25.48-8.28,32.62-16.88,7.14-47.07,1.95-47.07,1.95Z"/>
        <path class="cls-4" d="M35.38,71.49s-12.33-.32-17.04-4.38c-4.71-4.06-3.08-10.06,3.08-13.47,6.17-3.41,27.1-2.76,39.44-2.11s20.29,3.9,21.1,9.74c.81,5.84-3.9,8.11-9.9,9.58-6,1.46-36.68.65-36.68.65Z"/>
        <path class="cls-3" d="M33.1,55.22c-6.03.32-12.49,2.48-17.19,6.36-.39.32.11.91.53.68,2.71-1.46,5.38-2.96,8.31-3.93,2.75-.92,5.65-1.52,8.52-1.92.67-.1.52-1.23-.16-1.19h0Z"/>
        <path class="cls-3" d="M28.87,63.54c-3.38.49-6.27,1.71-8.86,3.94-.34.29.1.84.47.61,2.69-1.58,5.65-2.79,8.72-3.35.8-.14.45-1.32-.33-1.21h0Z"/>
        <path class="cls-3" d="M64.43,56.92c2.41.41,4.84.81,7.2,1.44,2.54.68,4.71,1.87,7.07,2.96.48.22,1.01-.35.59-.77-3.61-3.6-9.93-4.14-14.71-4.73-.62-.08-.77.99-.15,1.09h0Z"/>
        <path class="cls-3" d="M66.86,63.01c3.62.7,7,2.12,10.33,3.66.49.23.84-.4.42-.71-3.08-2.3-6.66-3.47-10.43-4.09-.74-.12-1.07.99-.31,1.14h0Z"/>
        <path class="cls-3" d="M15.55,52.48c.6-.65,1.4-.89,2.06-1.48.3-.26.36-.76.21-1.1-.18-.4-.5-.57-.92-.62-1.13-.15-2.29.77-2.99,1.57-.41.47-.46,1.17,0,1.64.43.43,1.21.46,1.64,0h0Z"/>
        <path class="cls-3" d="M15.09,46.07c1.54,0,1.55-2.4,0-2.4s-1.55,2.4,0,2.4h0Z"/>
        <path class="cls-5" d="M35.86,51.36s-8.76,20.45-4.22,26.45c4.54,6,24.18,4.22,29.38,2.27,5.19-1.95,7.63-6.17,6-12.5-1.62-6.33-3.9-15.74-3.9-15.74l-27.27-.49Z"/>
        <path class="cls-3" d="M78.87,69.56c-3.2,1.75-7.64,2.86-11.4,2.78.07-.69.07-1.42,0-2.19,3.52-.7,7.24-.96,10.39-2.86,3.39-2.03,3.56-5.95,1.21-8.91-2-2.51-5.32-3.54-8.33-4.19-2.41-.53-4.87-.92-7.33-1.22-1.25-.16-2.49-.29-3.74-.41-7.46-.72-14.92-.66-22.39-.1-.62.05-1.26.09-1.91.13-6.2.41-13.72.91-17.62,6.16-5.5,7.38,6.97,10.9,12.77,11.06-.08.69-.13,1.37-.16,2.02-4.18.24-8.8-1.62-12.17-3.79-3.45-2.21-4.77-5.61-2.65-9.34,4.08-7.2,13.79-7.58,21.04-8.18,9.49-.79,19.19-1.08,28.65.14,6.82.88,16.75,2.48,17.95,10.86.5,3.45-1.31,6.41-4.31,8.04Z"/>
        <path class="cls-3" d="M57.13,72.49c.41.17.87.18,1.31.12.27-.04.5-.09.75-.22.1-.05.18-.11.27-.18.05-.04.42-.44.25-.26.65-.7.18-1.81-.76-1.84.32.01-.21-.04-.33-.04-.15,0-.3,0-.45.04.12-.02.14-.02.05-.01-.04,0-.39,0-.24,0,.22,0-.44-.05-.51-.05-.61-.07-1.14.52-1.21,1.07-.09.66.31,1.11.88,1.36h0Z"/>
        <path class="cls-3" d="M59.43,67.79s.08-.08.12-.12c.21-.18.34-.44.34-.72,0-.26-.13-.55-.33-.72-.05-.04-.09-.08-.13-.13-.15-.14-.33-.24-.53-.31-.25-.08-.54-.04-.78.06-.1.03-.19.08-.26.15-.09.05-.16.12-.21.21-.16.2-.27.46-.26.72.02.42.22.82.59,1.03.46.27,1.07.18,1.45-.19h0Z"/>
      </g>
    </g>
  </g>
</svg>