<?xml version="1.0" encoding="UTF-8"?>
<svg id="Capa_2" data-name="Capa 2" xmlns="http://www.w3.org/2000/svg" viewBox="0 0 100 100">
  <defs>
    <style>
      .cls-1 {
        fill: none;
      }

      .cls-2 {
        fill: #4a2d2d;
      }

      .cls-3 {
        fill: #b37e4c;
      }
    </style>
  </defs>
  <g id="COLOR">
    <g>
      <g>
        <path class="cls-3" d="M51.04,17.43c-14.38,6.78-16.83,15.19-17.73,17.56-.9,2.37-1.55,4.74-3.19,6.7-1.63,1.96-12.91,10.29-13.81,21.57-.9,11.27,5.88,21.81,19.36,23.85s23.85-.08,34.96-9.31c11.11-9.23,10.3-23.08,12.25-29.16,2.7-8.41,2.05-16.19-1.06-21.65-4.33-7.6-16.42-16.34-30.8-9.56Z"/>
        <path class="cls-2" d="M37.91,53.3c.71-.08,1.82-.23,2.02.69.16.77-.41,1.54-.77,2.18-.18.32.23.6.49.38.91-.77,1.74-1.93,1.16-3.16s-1.92-1.09-3-.88c-.44.09-.35.85.11.79h0Z"/>
        <path class="cls-2" d="M54.07,52.55c.72.15.63,1.03.02,1.28-.34.14-.31.63.09.66.75.05,1.43-.59,1.41-1.34s-.66-1.35-1.41-1.44c-.48-.06-.59.75-.11.85h0Z"/>
        <path class="cls-2" d="M68.42,42.17c1.55.57,1.79,2.02,1.93,3.47.03.33.43.46.62.17,1.13-1.73-.69-3.94-2.36-4.36-.48-.12-.65.56-.2.73h0Z"/>
        <path class="cls-2" d="M60.31,36.38c.82-.34,1.31.33,1.67.96.16.28.58.21.67-.09.19-.67-.27-1.28-.82-1.61-.58-.35-1.26-.38-1.87-.1-.46.21-.13,1.03.35.83h0Z"/>
        <path class="cls-2" d="M45.61,33.85c.18-.18.44-.25.66-.11.23.15.28.44.36.68.12.32.51.37.7.09.39-.58-.02-1.39-.58-1.69-.6-.32-1.37-.16-1.82.34-.41.46.24,1.13.68.68h0Z"/>
        <path class="cls-2" d="M65.22,24.12c.79.2,1.16.8,1.58,1.44.18.27.6.17.61-.17.03-1.06-1.02-1.87-1.96-2.1-.53-.13-.76.69-.23.83h0Z"/>
        <path class="cls-2" d="M51.08,42.38c-.11.13-.21.26-.25.43-.04.15-.05.34,0,.5.07.26.34.45.61.41.12-.02.21-.07.3-.15.13-.12.16-.27.18-.43l-.02.15s.01-.06.02-.08c.02-.09-.05.1-.02.04.01-.02.02-.04.03-.06.05-.09-.09.1-.02.02.2-.23.24-.6,0-.82-.21-.2-.62-.25-.82,0h0Z"/>
        <path class="cls-2" d="M70.43,56.53c.09.06-.1-.09-.02-.02.03.02.05.05.07.07.04.04.07.09.12.13.1.09.19.19.32.22.18.04.37,0,.5-.13.22-.22.18-.58.03-.83-.11-.18-.27-.31-.44-.43-.12-.08-.31-.09-.45-.06s-.28.14-.35.27c-.16.29-.06.61.21.79h0Z"/>
        <path class="cls-2" d="M76.36,38.26c.47,0,.47-.73,0-.73s-.47.73,0,.73h0Z"/>
        <path class="cls-2" d="M39.96,69.04c1.29-.04,1.96.96,2.34,2.04.12.34.64.39.74,0,.44-1.71-1.53-3.14-3.08-2.93-.55.07-.59.91,0,.89h0Z"/>
        <path class="cls-2" d="M27.57,58.79c.1.04.19.07.29.09.15.02.29.03.42-.06.1-.07.18-.15.23-.26.1-.25.01-.55-.23-.69-.13-.07-.27-.12-.42-.17-.28-.09-.63.11-.69.39-.03.14-.03.31.06.43s.19.21.34.26h0Z"/>
        <path class="cls-2" d="M56.4,72.56c.18-.22.44-.37.73-.27.33.11.45.41.61.69.15.26.49.17.59-.08.25-.64-.33-1.38-.93-1.55-.66-.18-1.31.13-1.69.66-.29.41.39.94.71.54h0Z"/>
        <path class="cls-2" d="M54.61,62.33l-.05.06c-.04.05-.09.1-.12.16-.03.05-.05.11-.07.17-.03.11-.03.23.02.34.07.16.21.26.38.31.09.03.19.02.28.02.22,0,.42-.12.53-.31.06-.1.08-.2.08-.31,0-.09-.01-.16-.05-.24-.02-.08-.07-.14-.13-.2-.08-.08-.17-.13-.27-.16-.11-.03-.22-.03-.33,0-.1.03-.2.08-.27.16h0Z"/>
        <path class="cls-2" d="M32.17,77.22s.03-.01.05-.02c.03,0,.05-.02.08-.03.08-.02.14-.07.2-.13,0,0,.01,0,.02-.01.06-.05.1-.12.12-.19.04-.07.05-.15.05-.23l-.02-.16c-.03-.1-.08-.19-.15-.26,0,0-.01,0-.02-.01l-.12-.1s-.1-.05-.15-.06c-.02,0-.03-.01-.05-.02-.11-.03-.22-.03-.34,0-.11.03-.2.08-.28.16l-.1.13c-.06.1-.09.21-.09.32,0,.09.01.17.05.24.03.08.07.15.13.2.08.08.17.13.28.16.11.03.22.03.34,0h0Z"/>
      </g>
      <rect class="cls-1" width="100" height="100"/>
    </g>
  </g>
</svg>