<?xml version="1.0" encoding="UTF-8"?>
<svg id="Capa_2" data-name="Capa 2" xmlns="http://www.w3.org/2000/svg" viewBox="0 0 100 100">
  <defs>
    <style>
      .cls-1 {
        fill: #fff5da;
      }

      .cls-2 {
        fill: none;
      }

      .cls-3 {
        fill: #4a2d2d;
      }

      .cls-4 {
        fill: #b37e4c;
      }
    </style>
  </defs>
  <g id="COLOR">
    <g>
      <g>
        <path class="cls-4" d="M30.93,35.99s11.9-12.79,17.35-15.65c5.46-2.86,18.6-7.24,29.16-3.49,10.55,3.76,13.24,13.86,10.37,23.7-2.86,9.84-4.81,20.26-7.07,25.04-2.95,6.26-16.01,19.14-31.3,21.11-15.29,1.97-25.76-6.44-32.02-13.77-6.26-7.33,0-31.21,13.51-36.94Z"/>
        <path class="cls-1" d="M48.91,40.11s-7.87-7.78-17.35-6.26-18.25,15.12-19.32,20.57c-1.07,5.46,1.16,14.4,7.69,20.48,6.53,6.08,14.22,7.07,21.82,1.88,7.6-5.19,11.63-15.83,11.72-22.18.09-6.35-2.24-11.9-4.56-14.49Z"/>
        <path class="cls-3" d="M62.49,33.79c.68-.27,1.77-.7,2.35-.02.61.71.47,2.01.73,2.86.1.33.54.31.65,0,.38-1.08.13-3.04-.85-3.77s-2.23-.23-3.19.18c-.42.18-.12.92.32.75h0Z"/>
        <path class="cls-3" d="M75.68,25.86c.32-.08.54.21.68.46.13.23.52.19.58-.08.18-.82-.77-1.37-1.48-1.19-.52.13-.3.94.22.81h0Z"/>
        <path class="cls-3" d="M74.93,41.65c.45.29.82.68,1.05,1.16.21.44.21,1.01.56,1.36.22.22.52.13.69-.09.4-.53,0-1.42-.29-1.92-.36-.6-.87-1.08-1.47-1.42s-1.1.55-.53.9h0Z"/>
        <path class="cls-3" d="M49.27,29.41c.97-.07,1.48.83,1.63,1.66.05.28.48.32.6.08.36-.66.11-1.43-.39-1.94s-1.23-.74-1.95-.58c-.43.1-.35.81.11.78h0Z"/>
        <path class="cls-3" d="M66.75,23.95c-.12.02.09.02-.03,0,0,0,.15.04.06,0,.04.01.07.04.1.06.03.02.03.02,0,0,.02.01.04.03.05.05.03.03.06.06.08.08.06.07,0-.03.03.05.04.1.12.18.18.26.16.2.48.11.59-.08.22-.35.05-.82-.24-1.08-.31-.28-.7-.37-1.1-.31-.27.04-.41.38-.35.61.08.29.35.39.61.35h0Z"/>
        <path class="cls-3" d="M65.32,53.15c.1-.05.27.01.42.14-.05-.04.12.13.08.08,0,0,.17.28.1.13-.05-.12.01.09.02.11.02.07.05.14.07.21.1.3.5.46.74.19.45-.5.2-1.23-.26-1.63s-1.18-.5-1.71-.16c-.59.37-.08,1.23.54.92h0Z"/>
        <path class="cls-3" d="M60.72,67.61c.86-.03.77.85.71,1.45-.02.2.23.38.41.32.72-.25.93-1.13.62-1.77s-1.03-1.04-1.74-.95c-.59.08-.64.98,0,.96h0Z"/>
        <path class="cls-3" d="M73.9,58.76c.13.13.21.26.32.43.11.19.18.39.35.54.27.23.59.12.72-.19.22-.54-.24-1.2-.59-1.57-.5-.53-1.31.28-.8.8h0Z"/>
        <path class="cls-3" d="M25.3,44.93l1.59,1.52c.5.47.98,1.01,1.61,1.3.31.14.65-.15.48-.48-.33-.62-.88-1.06-1.39-1.52-.54-.5-1.08-1-1.62-1.5-.45-.42-1.13.25-.68.68h0Z"/>
        <path class="cls-3" d="M21.94,51.15c.94.43,1.87.91,2.86,1.2.4.12.61-.44.28-.66-.83-.55-1.76-.94-2.66-1.36-.54-.25-1.02.56-.47.81h0Z"/>
        <path class="cls-3" d="M35.08,73.03c-.59-.27-1.17-.51-1.81-.64-.32-.07-.66.36-.35.61.5.4,1.03.7,1.61.99.64.31,1.2-.66.56-.95h0Z"/>
        <path class="cls-3" d="M47.12,53.93c.63,0,.63-.98,0-.98s-.63.98,0,.98h0Z"/>
        <path class="cls-3" d="M53.38,48.07c-1.08-4.02-3.24-7.95-6.44-10.55-3.63-2.96-8.3-4.88-13.04-4.39-4.93.51-9.08,3.7-12.58,6.98-.96.9-1.9,1.83-2.82,2.78-3.65,3.74-6.35,8.08-6.83,13.37-.91,9.96,4.97,19.7,13.62,23.71,8.85,4.1,14.31-.63,17.93-3.48,4.12-3.25,7-7.99,9.01-12.77,2.09-4.96,2.57-10.36,1.15-15.64ZM45.61,70.36c-3.09,4.62-7.64,8.4-13.46,8.48-5.59.08-9.88-3.49-13.39-7.37-.66-.72-1.15-1.58-1.65-2.42-2.44-4.07-3.68-9.03-2.92-13.77.77-4.8,3.67-8.68,7.03-12.05,3.24-3.25,6.99-6.93,11.6-8.02,4.81-1.14,10.25,2,13.62,5.24,8.34,8,4.81,21.44-.84,29.89Z"/>
      </g>
      <rect class="cls-2" width="100" height="100"/>
    </g>
  </g>
</svg>