<?xml version="1.0" encoding="UTF-8"?>
<svg id="Capa_2" data-name="Capa 2" xmlns="http://www.w3.org/2000/svg" viewBox="0 0 100 100">
  <defs>
    <style>
      .cls-1 {
        fill: none;
      }

      .cls-2 {
        fill: #4a2d2d;
      }

      .cls-3 {
        fill: #fe9736;
      }
    </style>
  </defs>
  <g id="COLOR">
    <g>
      <g>
        <path class="cls-3" d="M93.46,74.31c-4.74,8.82-9.4,11.81-16.55,12.89-3.77.57-6.98-.39-8.63-1.05-.69-.27-1.11-.49-1.18-.53,0,0,0,0,0,0,0,0-4.49,5.99-13.72,5.99-5.53,0-9.3-2-11.43-3.6-1.43-1.07-2.12-1.96-2.12-1.96,0,0-.45.23-1.25.55-3.66,1.47-14.76,4.9-25.86-2.05C-.86,76.05.89,59.84,4.63,50.69c3.74-9.15,10.9-19.05,19.63-20.96,8.74-1.91,12.81,1.91,12.81,1.91l2.74,11.06,2.99,3.33s3.24-1.75,6.9-1.75,4.16.16,4.16.16l4.49-4.07s-5.99-5.33-5.66-6.32c.33-1,7.57-6.49,17.97-6.16,10.4.33,19.22,9.65,23.37,18.05,4.16,8.4,4.88,18.2-.58,28.36Z"/>
        <path class="cls-2" d="M34.32,57.69c-1.86,4.25-2.63,9.1-1.73,13.68.05.28.51.22.5-.07-.24-4.64.18-8.99,1.81-13.37.12-.33-.43-.57-.58-.24h0Z"/>
        <path class="cls-2" d="M64.72,53.47c3.48,3.56,4.09,8.83,5.26,13.43.07.29.54.24.53-.07-.09-2.8-.93-5.66-1.89-8.27-.77-2.1-1.72-4.08-3.34-5.66-.37-.36-.92.2-.56.56h0Z"/>
        <path class="cls-2" d="M17.31,50.69c-4.51,6.9-6.27,16.59-3.08,24.4.12.3.58.2.5-.14-2-8.33-1.42-16.47,3.32-23.83.3-.47-.44-.89-.74-.43h0Z"/>
        <path class="cls-2" d="M17.44,79.49c.24,0,.24-.37,0-.37s-.24.37,0,.37h0Z"/>
        <path class="cls-2" d="M78.78,43.55c5.12,3.18,7.64,9.1,8.53,14.86.46,2.99.55,6.04.15,9.04-.38,2.82-1.41,5.28-2.31,7.94-.13.4.41.55.62.26,1.69-2.23,2.25-5.44,2.6-8.14.41-3.18.4-6.44-.12-9.6-.96-5.88-3.68-11.99-9.09-15-.42-.23-.78.39-.37.64h0Z"/>
        <path class="cls-2" d="M44.14,19.78c-2.16,3.67-3.64,7.2-3.29,11.55.3,3.61,1.16,8.14,3.56,10.99.22.26.6-.07.45-.35-1.8-3.48-2.96-7.05-3.24-10.98-.29-4.1,1.14-7.36,3.19-10.81.26-.44-.43-.84-.68-.4h0Z"/>
        <path class="cls-2" d="M48.15,39.44c-1.99-2.11-2.95-4.69-3.21-7.55-.03-.33-.5-.34-.52,0-.21,3.07,1.06,5.93,3.18,8.1.35.36.9-.19.55-.55h0Z"/>
        <path class="cls-2" d="M45.86,26.15c.33-.92.79-1.88.98-2.83.06-.28-.33-.48-.48-.2-.48.87-.75,1.93-1.1,2.87-.14.38.47.54.6.17h0Z"/>
        <path class="cls-2" d="M54.06,40.81c-2.1-1.43-3.7-3.43-4.66-5.78s-1.07-4.83-1.32-7.39c-.02-.25-.45-.37-.49-.07-.75,5.2,1.7,10.95,6.2,13.69.29.18.54-.26.26-.45h0Z"/>
        <path class="cls-2" d="M39.81,86.04s-.45.23-1.25.55c-1.96-2.35-3.34-5.41-4.15-8.07-.19-.65.77-.89,1-.28.73,2.01,1.64,3.97,2.84,5.75,1.06,1.58,1.57,2.04,1.57,2.04Z"/>
        <path class="cls-2" d="M68.27,86.15c-.69-.27-1.11-.49-1.18-.53.75-1.36,1.46-2.73,1.97-4.23.71-2.11,1.06-4.29,1.26-6.5.05-.61.95-.63.97,0,.11,3.76-.9,8-3.02,11.26Z"/>
        <path class="cls-2" d="M75.35,40c-.02-.07-.07-.12-.13-.16-.03-.02-.05-.04-.08-.06-.87-.64-1.82-1.13-2.85-1.45-1.64-.51-3.32-.76-5.04-.73-2.34.05-4.85.39-7.07,1.28-.59.26-1.19.56-1.78.9-2.15-2.28-4.72-4.24-6.12-7.12-1.48-3.05-1.75-6.39-.93-9.65.62-2.46,2.39-5.83,1.79-8.44-.53-2.31-3.58-1.7-5.32-1.38-2.73.5-4.64,2.11-6.08,4.43-1.61,2.59-2.95,5.54-3.82,8.46-1.42,4.82-1.17,10.55.92,15.28-2.05-.94-4.43-1.27-6.58-1.02-2.75.32-5.43,1.28-7.85,2.62-.63.35-1.25.75-1.81,1.2-.2.16-1.64,1.44-.62,1.19.84-.2,1.56-.9,2.28-1.35.78-.48,1.6-.9,2.45-1.25,1.79-.74,3.77-1.25,5.72-1.25s3.88.36,5.65,1.15c1.79.8,2.98,2.19,4.12,3.74-.2.12-.4.23-.59.35-2.38,1.57-4.35,3.72-5.66,6.25-.21.4-.21.76.37.76.13,0,.36-.04.51-.29,2.81-4.64,6.77-7.32,11.8-7.97.71-.09,1.44-.14,2.17-.14,1.9,0,3.8.31,5.63.92,2.1.7,3.67,1.85,5.34,3.06.37.27.74.54,1.13.81.1.07.21.11.33.11.2,0,.4-.11.54-.27.15-.17-1.19-2.22-4.77-4.29-1.23-.71-2.57-1.19-3.95-1.51,2.8-2.26,5.19-3.93,8.55-4.74,1.26-.3,2.58-.46,3.91-.46.63,0,1.26.03,1.89.1,1,.11,1.98.37,2.92.63.85.23,1.74.47,2.63.59.02,0,.04,0,.06,0,.18,0,.42-.11.34-.34ZM50.81,14.69c.35.13.52.49.57.97-.79.05-1.56.3-2.38.3-1.01,0-1.91-.24-2.8-.59,1.08-.51,3.47-1.1,4.61-.68ZM46.52,44.51c-1.11.32-2.18.76-3.21,1.28-.46-1.13-1.17-2.08-2.05-2.86-.68-2.59-1.98-5.01-2.5-7.67-.58-2.99-.28-5.88.64-8.76.89-2.78,2.16-5.6,3.72-8.07.46-.72.98-1.4,1.59-1.98,1.13.75,2.5,1.14,3.84,1.22.81.05,1.83.05,2.68-.24-.4,1.91-1.35,4.25-1.58,5.11-.61,2.25-.78,4.44-.38,6.74.83,4.86,4.01,8.36,7.58,11.52-1.21.88-2.3,1.94-3.12,3.18-2.38-.33-4.86-.14-7.2.54Z"/>
      </g>
      <rect class="cls-1" width="100" height="100"/>
    </g>
  </g>
</svg>