<?xml version="1.0" encoding="UTF-8"?>
<svg id="Capa_2" data-name="Capa 2" xmlns="http://www.w3.org/2000/svg" viewBox="0 0 100 100">
  <defs>
    <style>
      .cls-1 {
        fill: none;
      }

      .cls-2 {
        fill: #4a2d2d;
      }

      .cls-3 {
        fill: #ebb238;
      }
    </style>
  </defs>
  <g id="COLOR">
    <g>
      <g>
        <path class="cls-3" d="M65.86,16.98c-.37.06-2.58,1.53-5.64,2.21s-5.7.37-8.46,3.56c-2.76,3.19-5.15,11.77-8.52,16.31-3.37,4.54-7.54,6.5-10.85,7.97-3.31,1.47-10.92,4.72-13.31,13.61-2.39,8.89-.92,16.19,1.41,19.44,2.33,3.25,7.89,9.02,20.05,12.39,11.53,3.19,16.07,3.19,22.57-.86s6.5-12.27,5.4-16.68-3.56-9.08-4.05-13.25c-.49-4.17,2.7-7.48,6.32-13.8,3.62-6.32,7.73-12.42,6.93-16.9-1.04-5.8-4.84-11.43-5.52-10.91-.54.42.61,5.66.98,6.95.77,2.71-1.84,2.39-2.88,2.09s-4.23-3.62-5.09-4.91-1.1-2.21-.37-3.5c.74-1.29,1.04-3.74,1.04-3.74Z"/>
        <path class="cls-2" d="M75.79,4.06c-.15-.32-.63-.57-1.15-.66-1.6-.3-2.87-.05-4.41.64-1.45.65-2.66,1.8-3.54,3.11-.18.27.26,2.77-.11,5.24-.34,2.3-.74,4.86-1.76,6.97-.47.97-1.35,1.89-1.28,3.04.06,1.11.65,2.12,1.26,2.97,1.48,2.09,3.4,4.24,6.01,4.85,2.04.49,3.52-.77,3.56-2.89.05-2.32-2.45-4.6-1.82-6.89.39-1.44,1.71-2.91,2.37-4.25.66-1.33,1.19-2.6,1.53-4.05.67-2.78.54-5.47-.67-8.07ZM74.47,4.32c-.32.48-1.22,1.24-1.77,1.57-.53.31-2.93,1.34-4.38,1.23,1.26-1.54,3.21-2.9,6.16-2.8ZM74.67,13.16c-.39,1.38-.84,2.63-1.84,4.17-.61.94-1.49,1.64-1.78,2.74-.49,1.82.45,3.48,1.12,5.11.55,1.32,1.22,3.16-.9,3.39-1.23.13-2.9-1.66-3.66-2.5-.88-.98-2.2-2.34-2.31-3.68-.08-1.02.6-1.77,1-2.71.74-1.73,1.16-3.58,1.47-5.42.27-1.59.5-3.24.53-4.86,0-.17.02-.67.02-.93,2.19.06,5.14-1.05,6.66-2.41.56,2.17.31,4.87-.33,7.11Z"/>
        <path class="cls-2" d="M62.69,28.32c1.83,10.86-5.07,19.75-10.05,28.68-2.27,4.07-3.72,7.88-3.95,12.57-.24,4.77-.64,10.04,1.09,14.59.17.45.83.28.73-.2-1.09-5.17-1.19-10.43-.74-15.69.45-5.24,3.19-9.73,5.84-14.14,4.63-7.69,10.21-16.6,7.73-25.99-.11-.42-.72-.24-.65.18h0Z"/>
        <path class="cls-2" d="M59.55,82.31c.4-2.65-.13-5.11-.78-7.68-.76-3.02-1.14-6.1-.75-9.21.03-.26-.38-.3-.45-.06-.68,2.56-.8,4.98-.24,7.59.67,3.09,1.97,6.07,1.66,9.29-.03.31.5.39.55.07h0Z"/>
        <path class="cls-2" d="M59.12,59.97c.16-.74.34-1.48.37-2.25.01-.31-.48-.47-.61-.17-.3.7-.47,1.43-.64,2.17-.14.57.75.82.88.24h0Z"/>
        <path class="cls-2" d="M67.19,42.7c1.36-1.8,2.21-4.14,2.27-6.4,0-.3-.46-.37-.53-.07-.56,2.19-1.29,4.11-2.4,6.09-.25.44.37.77.66.39h0Z"/>
        <path class="cls-2" d="M57.92,33.54c-2.48,8.79-7.92,16.29-13.31,23.5-2.7,3.62-5.4,7.22-7.87,11.01-2.3,3.52-4.75,7.38-5.99,11.43-.12.39.49.66.67.28,1.97-4.06,3.81-8,6.33-11.77,2.56-3.83,5.4-7.48,8.15-11.17,5.3-7.11,10.35-14.44,12.78-23.07.14-.49-.63-.7-.76-.21h0Z"/>
        <path class="cls-2" d="M39.11,80.07c.42-1.3.94-2.61,1.25-3.94.08-.36-.47-.64-.63-.27-.55,1.29-.91,2.68-1.34,4.01-.15.46.58.66.73.2h0Z"/>
        <path class="cls-2" d="M24.26,70.47c1.77-3.36,4.28-6.19,6.98-8.85,2.53-2.5,5.56-4.75,7.71-7.59.23-.3-.22-.74-.52-.52-3.04,2.17-5.62,5.31-8.23,7.97-2.55,2.6-4.91,5.34-6.59,8.6-.22.44.43.82.66.39h0Z"/>
        <path class="cls-2" d="M43.91,48.18c.58-.51,1.09-1.07,1.49-1.73.17-.28-.23-.59-.46-.35-.51.53-1.02,1.06-1.58,1.53-.39.32.17.89.55.55h0Z"/>
        <path class="cls-2" d="M57.67,24.81c-1.34,1.27-2.2,2.86-2.95,4.53s-1.65,3.54-2.18,5.37c-.11.39.46.64.66.28,1.8-3.21,2.57-6.74,5.06-9.58.36-.41-.2-.99-.61-.61h0Z"/>
        <path class="cls-2" d="M29.45,55.45c.4-.29.84-.57,1.19-.92.29-.29-.08-.72-.42-.55-.42.2-.79.51-1.17.77-.18.12-.26.35-.14.55.1.17.38.27.55.14h0Z"/>
      </g>
      <rect class="cls-1" width="100" height="100"/>
    </g>
  </g>
</svg>