<?xml version="1.0" encoding="UTF-8"?>
<svg id="Capa_2" data-name="Capa 2" xmlns="http://www.w3.org/2000/svg" viewBox="0 0 100 100">
  <defs>
    <style>
      .cls-1 {
        fill: #72ab4c;
      }

      .cls-2 {
        fill: #e54167;
      }

      .cls-3 {
        fill: none;
      }

      .cls-4 {
        fill: #4a2d2d;
      }
    </style>
  </defs>
  <g id="COLOR">
    <g>
      <rect class="cls-3" width="100" height="100"/>
      <g>
        <path class="cls-1" d="M51.13,31.43s4.15-6.26,12.45-8.69c8.3-2.44,13.5-1.71,14.09-.2s-2.44,9.68-11.85,11.39c-9.42,1.71-14.69-2.5-14.69-2.5Z"/>
        <path class="cls-1" d="M49.02,15.03c-3.59-5.01-6.92-6.52-7.64-5.99s-3.29,9.75-.07,14.88,10.21,6.85,10.21,6.85c0,0,2.17-9.22-2.5-15.74Z"/>
        <path class="cls-4" d="M51.43,40.42c.37-5.37.71-10.37,2.57-15.5s4.96-9.09,7.98-13.5c.67-.98-.73-1.83-1.53-1.18-4.22,3.43-7.03,8.99-8.84,14.02-1.81,5.03-2.99,11.08-2.08,16.42.19,1.13,1.83.77,1.9-.26h0Z"/>
        <path class="cls-2" d="M48.1,39.86c-10.54,1.19-14.82,6.92-16.86,10.47s-6.19,13.96,2.24,21.21c8.43,7.24,14.56,5.66,15.87,8.89s-.59,12.71.86,14.36c1.45,1.65,3.56-1.19,4.08-4.35s-.46-10.14.59-10.21,15.27-2.65,18.38-16c3.89-16.73-14.62-25.55-25.16-24.37Z"/>
        <path class="cls-4" d="M34.12,54.05c3.76,1.51,9.21,3.15,13.23,1.77.33-.11.41-.69,0-.75-2.07-.31-4.2-.02-6.29-.28-2.28-.28-4.54-.81-6.69-1.61-.55-.21-.77.66-.24.87h0Z"/>
        <path class="cls-4" d="M53.04,55.18c.28-.02.55-.05.82-.1.44-.08.44-.8,0-.88-.27-.05-.55-.08-.82-.1s-.55.27-.54.54.24.57.54.54h0Z"/>
        <path class="cls-4" d="M61.12,61.14c1.26.12,2.66.03,3.72-.71.39-.27.15-.84-.32-.76-1.16.21-2.21.5-3.4.39-.69-.06-.68,1.01,0,1.07h0Z"/>
        <path class="cls-4" d="M64.94,55.81c.21-.08.41-.16.61-.27.15-.08.24-.29.18-.45-.05-.15-.21-.32-.38-.29-.22.03-.43.07-.65.13-.23.06-.4.33-.32.57.07.22.33.42.57.32h0Z"/>
        <path class="cls-4" d="M58.25,65.73c3.21.92,7.36.6,10.11-1.41.27-.2.13-.71-.25-.59-1.51.5-2.94,1.13-4.51,1.39-1.76.29-3.51.17-5.27-.03-.37-.04-.43.54-.09.64h0Z"/>
        <path class="cls-4" d="M36.26,65.19c2.95,1.21,6.47,2.17,9.68,1.61.43-.07.27-.66-.09-.7-3.27-.34-6.27-.48-9.37-1.68-.48-.19-.68.58-.21.77h0Z"/>
        <path class="cls-4" d="M48.48,66.98l.7-.08c.42-.05.42-.6,0-.65l-.7-.08c-.22-.02-.4.2-.4.4s.18.43.4.4h0Z"/>
      </g>
    </g>
  </g>
</svg>