<?xml version="1.0" encoding="UTF-8"?>
<svg id="Capa_2" data-name="Capa 2" xmlns="http://www.w3.org/2000/svg" viewBox="0 0 100 100">
  <defs>
    <style>
      .cls-1 {
        fill: #b75778;
      }

      .cls-2 {
        fill: #edd4dc;
      }

      .cls-3 {
        fill: #fff;
      }

      .cls-4 {
        fill: none;
      }

      .cls-5 {
        fill: #4a2d2d;
      }
    </style>
  </defs>
  <g id="COLOR">
    <g>
      <rect class="cls-4" width="100" height="100"/>
      <g>
        <path class="cls-1" d="M86.3,78.26c-3.65,4.58-9.34,8.16-15.68,10.71,0,0-.01,0-.02,0-.24.09-.48.19-.72.28-.29.11-.58.22-.88.33-.1.04-.2.08-.3.11-.01,0-.02,0-.03.01-2.68.97-5.45,1.76-8.22,2.37h0c-.5.11-.99.22-1.49.31-5.99,1.18-11.85,1.51-16.61.94-.21-.02-.42-.05-.64-.08-.38-.05-.76-.1-1.15-.17-.05,0-.1-.02-.15-.02-.56-.09-1.14-.19-1.72-.31-.39-.07-.78-.16-1.17-.25-.2-.05-.4-.09-.59-.14-.2-.05-.4-.1-.6-.14-.2-.05-.4-.1-.6-.16h0c-.17-.05-.35-.09-.52-.14-.01,0-.02,0-.03,0-12.18-3.38-26.05-12.4-28.04-32.69-2.39-24.46,15.7-40.77,19.22-42.66,3.58-1.93,4.6-.73,5.15-.09.17.19.29.54.36.93,1.9-1.8,5.44-4.85,8.56-5.8,4.51-1.38,6.43,2.02,6.43,2.02,0,0,9.01-1.93,15.72.19,6.71,2.11,10.02,4.6,10.02,4.6,0,0,1.29-1.38,1.65-1.38s10.11,3.67,15.44,17.74c5.33,14.07,5.7,32.09-3.4,43.49Z"/>
        <path class="cls-3" d="M43.95,50.3c-.22-.34-.81-.13-.75.28.39,2.74.03,5.07-1.74,7.3-1.54,1.94-3.69,3.29-5.66,4.75-2.44,1.81-5.02,4.06-5.96,6.99.26.54.5,1.09.73,1.64,1.35-5.44,6.57-7.46,10.42-11.02,2.53-2.33,5.11-6.6,2.95-9.95Z"/>
        <path class="cls-3" d="M19.1,43.63c-.69,7.27,1.63,15.33,7.05,20.45.51.48,1.36-.28.91-.84-4.61-5.67-7.42-12.01-7.08-19.46.03-.56-.82-.73-.88-.15h0Z"/>
        <path class="cls-3" d="M41.48,60.08c3.26-.12,7.18-1.21,9.53-3.6.29-.29-.09-.82-.46-.65-1.43.66-2.71,1.55-4.18,2.15-1.59.64-3.28,1.08-4.96,1.39-.45.08-.39.73.07.71h0Z"/>
        <path class="cls-3" d="M76.55,75c2.31-3.85,2.45-9.14,1.18-13.36-.81-2.68-2.58-4.85-3.71-7.38-1.43-3.18-.98-6.05-.55-9.36.06-.44-.51-.6-.72-.23-2.59,4.5-.21,9.69,2.12,13.68,3,5.14,3.11,10.84,1.03,16.34-.17.44.41.7.65.31h0Z"/>
        <path class="cls-3" d="M82.32,68.44c3.77-3.55,8.96-8.74,8.22-14.46-.06-.46-.72-.49-.81-.03-.56,2.75-1.17,5.24-2.71,7.64s-3.41,4.35-5.24,6.4c-.31.35.22.76.54.45h0Z"/>
        <path class="cls-3" d="M43.75,31.79c1.79-3.56,4.95-5.18,7.75-7.76.24-.22-.08-.64-.36-.51-3.32,1.54-6.7,4.51-8.16,7.91-.22.51.53.86.78.37h0Z"/>
        <path class="cls-3" d="M35.88,28.8c.92-3.04,2.69-5.08,4.62-7.49.24-.3-.13-.71-.46-.5-2.58,1.71-4.11,4.97-4.85,7.87-.11.44.56.54.69.12h0Z"/>
        <path class="cls-3" d="M66.84,30.38c.64,3.12,1.76,7,4.31,9.14.29.25.81-.07.63-.45-.68-1.48-1.71-2.79-2.43-4.26s-1.32-3.01-1.72-4.62c-.11-.44-.88-.27-.79.18h0Z"/>
        <path class="cls-3" d="M64.66,44.28c-.82-.67-1.59-1.4-2.33-2.17s-1.33-1.65-2.11-2.35c-.29-.25-.75.07-.61.43.8,1.97,2.8,3.57,4.48,4.76.45.32,1.01-.31.56-.67h0Z"/>
        <path class="cls-3" d="M44.69,80.58c4.57-3.92,8.57-9.32,9.69-15.35.07-.4-.54-.61-.7-.22-2.23,5.69-4.84,10.77-9.46,14.91-.39.34.07,1.01.47.67h0Z"/>
        <path class="cls-3" d="M55.61,75.42c2.5-.9,5.06-2.07,7.14-3.75.38-.3-.02-.85-.43-.61-2.29,1.34-4.51,2.63-7.02,3.54-.53.19-.22,1.01.31.82h0Z"/>
        <path class="cls-3" d="M24.31,40.54c-.85-3.59-.61-7.15.35-10.69.09-.34-.47-.52-.6-.19-1.43,3.62-1.49,7.41-.52,11.16.13.51.89.22.77-.29h0Z"/>
        <path class="cls-3" d="M22.31,70.94c-3.06-1.29-5.26-3.43-7.19-6.08-.26-.35-.9-.05-.7.37,1.5,3.1,4.33,5.31,7.49,6.56.56.22.96-.61.4-.85h0Z"/>
        <path class="cls-3" d="M35.95,49.7c.83-.85,1.67-1.68,2.47-2.55.25-.27-.15-.72-.43-.47-.89.77-1.75,1.58-2.63,2.38-.47.43.14,1.1.59.64h0Z"/>
        <path class="cls-3" d="M62.34,19.47l.94-.31c.29-.1.63-.19.87-.39.2-.17.19-.6-.14-.62-.65-.05-1.36.31-1.97.51-.53.17-.23,1,.31.82h0Z"/>
        <path class="cls-2" d="M41.72,93.25c-.38-.05-.76-.1-1.15-.17-.05,0-.1-.02-.15-.02-.56-.09-1.14-.19-1.72-.31-.39-.07-.78-.16-1.17-.25-.2-.05-.4-.09-.59-.14-.2-.05-.4-.1-.6-.14-.2-.05-.4-.1-.6-.16h0c-.15.03-.34,0-.52-.12-.01,0-.02-.02-.04-.02-3.58-2.42-5.44-7.15-6.74-11.12-1.48-4.51-2.36-9.23-2.67-13.98-.31-4.86,0-9.8.94-14.58.9-4.54,2.19-9.43,4.48-13.47.31-.54,1.06-.17.86.41-1.9,5.42-3.79,10.51-3.81,16.33-.02,5.54,1.03,11.05,2.58,16.35,1.06,3.62,2.45,7.14,4.15,10.5,1.61,3.15,3.96,7.47,6.74,10.91Z"/>
        <path class="cls-2" d="M85.54,57.41c-.4,6.34-3.17,13.56-5.91,19.28-2.01,4.2-4.77,9.84-9.01,12.27,0,0-.01,0-.02,0-.38.22-1.61.6-1.62.6-.1.04-.19.07-.29.12-.01,0-.02,0-.03.01-2.68.97-5.45,1.76-8.22,2.37h0c-.5.11-.99.22-1.49.31,7.63-5.16,15.2-13.11,18.99-21.65,1.9-4.29,3.19-8.86,3.87-13.5.35-2.38.68-4.94.65-7.34-.02-1.94-.25-4.28-.58-6.56-1.48-5.95-3.34-11.21-6.7-16.34-.26-.41.06-1.35.34-.97,6.88,9.04,10.71,19.93,10,31.37Z"/>
        <path class="cls-5" d="M73.51,17.11c-1.68,2.39-3.82,5.13-6.55,6.4-1.62.75-3.37.95-5.1,1.2-.75-2.77-3.73-4.13-6.27-4.95-2.24-.72-4.42-1.31-6.01-3.16-1.06-1.23-1.89-2.65-3.12-3.74-2.52-2.24-5.61-1.84-8.4-.31-2.85,1.57-5.39,3.76-7.61,6.17-.15-.51-.8-.85-1.18-.3-1.59,2.3-1.4,4.83-.02,7.2,1.64,2.82,4.7,4.07,7.69,4.99,3.55,1.08,8.2,1.88,10.13,5.49,1.51,2.83.55,6.34,2.27,9.13,1.89,3.08,5.73,4.78,8.49,6.96,2.88,2.27,5.31,5.1,6.96,8.39,3.23,6.47,3.3,14.24-.47,20.5-2.15,3.58-5.33,6.2-9.08,7.95-1.55.72-3.17,1.33-4.84,1.68-2.08.43-4.18.32-6.27.6-1.01.13-1.06,1.56-.07,1.78,6.09,1.34,13.76-1.8,18.23-5.86,4.93-4.48,7.8-11.33,7.44-17.99-.37-6.9-3.93-13.71-9.28-18.08-1.46-1.19-3.07-2.19-4.64-3.22-1.64-1.07-3.7-2.2-4.7-3.95-1.19-2.1-.99-4.56-1.47-6.86,1.37-2.43,2.48-4.98,4.45-7.03,1.18-1.23,2.6-2.24,4.22-2.78,1.61-.54,3.28-.5,4.93-.8,4.52-.83,9.65-4.18,11.76-8.36.47-.94-.85-1.94-1.47-1.05ZM48.88,35c-.14-.26-.29-.52-.47-.76-2.22-3.05-6.01-4.15-9.47-5.09-2.39-.65-4.99-1.31-6.9-2.98-1.28-1.12-2.31-2.92-2.3-4.67,2.41-2.2,4.88-4.52,7.52-6.43,1.51-1.09,3.36-2.23,5.31-1.99,1.89.23,2.94,1.77,3.97,3.18,1.7,2.32,3.35,3.92,6.12,4.91,2.85,1.02,5.28,1.57,7.08,3.94-.48.12-.95.25-1.42.43-4.14,1.6-7.49,5.38-9.43,9.47Z"/>
      </g>
    </g>
  </g>
</svg>