<?xml version="1.0" encoding="UTF-8"?>
<svg id="Capa_2" data-name="Capa 2" xmlns="http://www.w3.org/2000/svg" viewBox="0 0 100 100">
  <defs>
    <style>
      .cls-1 {
        fill: none;
      }

      .cls-2 {
        fill: #4a2d2d;
      }

      .cls-3 {
        fill: #b3644c;
      }

      .cls-4 {
        fill: #fbf7f6;
      }
    </style>
  </defs>
  <g id="COLOR">
    <g>
      <rect class="cls-1" width="100" height="100"/>
      <g>
        <g>
          <path class="cls-3" d="M29.81,18.68s2.1-5.25,3.5-5.18c1.4.07-.98,2.66,0,6.79s11.71,12.49,14.7,23.6c3.08,11.41,2.1,20.02-2.52,28.57-3.06,5.65-8.33,9.03-9.52,9.8.21.7,4.34,4.34,3.64,5.88s-5.04-3.15-5.04-3.15c0,0-.07,5.11-1.12,4.69s-2.38-4.97-2.38-4.97c0,0-4.13,4.62-5.32,4.13s2.59-6.23,2.59-6.23c0,0-15.26-8.8-14.7-25.14s5.46-22.47,8.89-27.31c3.43-4.83,5.6-7,5.53-7.63s-3.85-7.63-2.59-8.33,4.34,4.48,4.34,4.48Z"/>
          <path class="cls-2" d="M26.74,31.44c-6.24,13.68-9.06,31.96,0,45.18.29.42.92.05.68-.4-3.64-6.83-5.83-13.92-5.63-21.74.21-7.9,2.31-15.51,5.57-22.67.19-.43-.44-.8-.63-.37h0Z"/>
          <path class="cls-2" d="M30.63,32.33c1.33,7.18,2.13,14.41,2.1,21.71-.03,7.37-1.2,14.44-2.37,21.68-.08.48.61.7.75.21,1.98-6.99,2.55-14.66,2.61-21.89s-.66-14.75-2.31-21.92c-.12-.51-.87-.29-.78.21h0Z"/>
          <path class="cls-2" d="M34.06,32.49c4.73,5.95,5.89,13.86,6.51,21.22.32,3.71.13,7.5-.49,11.17-.65,3.87-2.11,7.19-3.63,10.77-.19.46.36.78.66.39,4.79-6.26,4.98-15.54,4.52-23.03s-1.93-15.44-7.02-21.07c-.35-.39-.88.17-.56.56h0Z"/>
        </g>
        <g>
          <path class="cls-4" d="M80.83,41.8s4.74,8.12,3.48,16.82-5.7,17.11-8.8,20.4-7.54,7.06-11.99,8.6-10.44,1.16-10.44,1.16c0,0-.68,4.64-1.64,4.64s-1.55,0-1.55-1.35.1-2.8.1-2.8c0,0-2.9,1.64-3.96,1.16s.39-1.84,1.45-3.09,2.22-3.87,2.13-5.9,2.03-15.56,4.45-20.69c2.42-5.12,9.96-13.44,13.82-15.47s9.18-5.12,9.18-5.12c0,0,2.03-7.06,3.67-7.83s2.13,0,2.03,1.16-1.16,4.35-1.16,4.35c0,0,4.64-2.61,5.12-1.45s-.29,2.32-1.64,3-4.25,2.42-4.25,2.42Z"/>
          <g>
            <path class="cls-3" d="M79.8,41.15s5.6,8.47,4.13,18.48c-1.47,10.01-6.3,17.01-9.94,20.79-3.64,3.78-9.66,7.07-12.04,7.91s-9.31,0-9.31,0c0,0,2.66,3.78,13.09,3.43,10.43-.35,21.56-8.12,24.37-21.84,2.8-13.72-2.17-22.47-4.13-25.21-1.96-2.73-5.39-4.41-6.16-3.57Z"/>
            <path class="cls-2" d="M87.06,35.75c-1.42,0-2.74.23-3.99.71.8-2.41,1.28-5.37-1.15-5.41-1.5-.02-2.79,1.94-3.47,3.06-1.05,1.72-1.68,3.66-2.2,5.6-9.19,3.92-17.77,10.86-22.1,19.99-2.54,5.36-4.17,11.34-5.14,17.18-.23,1.36-.41,2.74-.53,4.12-.13,1.44.14,3.45-.53,4.78-.92,1.82-2.82,2.42-2.77,4.72.01.52.5.9,1,.76,1.08-.29,2.08-.65,3.04-1.13-.24,1.97-.3,4.53,1.87,4.24,1.79-.23,2.35-2.83,2.48-4.67,11.06,1.72,20.99-6.46,26.46-15.45,5.8-9.52,8.2-22.32,2.03-32.17,1.23-.58,2.38-1.37,3.47-2.14,1.06-.75,2.12-1.63,2.51-2.91.2-.63-.33-1.27-.97-1.27ZM86.29,37.48c-.49,1.28-4.33,2.65-5.94,2.93-.76.13-1.08,1.09-.71,1.7,5.81,9.55,4.25,20.92-1.19,30.36-5.1,8.84-14.26,17.55-25.26,15.33-.58-.12-1.23.26-1.21.92.02.49.1,4.51-1.1,3.93-.48-.23-.01-3.53.02-4.11.04-.68-.43-.93-1-.54-.83.58-2.5,2.16-3.27,1.52-.7-.58,2.97-2.47,3.35-3.55,0,0,0,0,0-.01.25.36.6.67,1.03.87,2,.93,4.76-.21,6.58-1.07,5.01-2.37,9.47-6.32,12.93-10.61,3.53-4.38,6.18-9.42,7.69-14.84,1.62-5.82,2.49-12.78.86-18.69-.36-1.3-3.05,1.21-3.42,1.52-.06.05-.11.09-.17.14-.83.69-1.63,1.41-2.4,2.16-1.55,1.5-2.99,3.1-4.36,4.76-1.37,1.67-2.65,3.41-3.87,5.19-1.22,1.78-2.39,3.6-3.53,5.44-.23.38-.46.75-.69,1.13-2.55,4.18-5.06,8.37-7,12.87-.94,2.17-1.78,4.37-2.5,6.62-.2.62-.47,1.29-.63,1.97,0,0-.02,0-.03,0,.16-1.75.09-3.59.34-5.24.86-5.79,2.41-11.8,4.88-17.12,4.33-9.31,12.4-15.22,21.34-19.66.56-.24.95-.82,1.1-1.39.54-2,1.41-4.67,2.57-6.41.59-.88,1.54-1.3,1.08.68-.29,1.23-.93,2.73-1.46,3.87-.38.83.13,1.25,1.05.59,1.14-.81,5.37-2.48,4.9-1.26ZM72.74,54.99c-1.89,3.73-3.83,7.45-5.93,11.07-4.12,7.1-8.98,13.94-15.43,19.11-.53-1.78,1.16-4.94,1.7-6.37.85-2.25,1.81-4.45,2.88-6.6,1.86-3.76,4.09-7.33,6.29-10.9,4.23-6.86,8.9-13.84,15.35-18.83-.77,4.49-2.82,8.49-4.86,12.53ZM78.32,44.07c.3,4.15.51,8.14-.23,12.36-.84,4.76-2.59,9.38-5.08,13.53-2.25,3.76-5.14,7.14-8.47,9.99-1.74,1.49-3.6,2.85-5.58,4.01-1.16.68-2.37,1.31-3.65,1.74-.43.15-.88.27-1.33.37-.47.12-.94.18-1.42.18-.35.04-.65-.03-.91-.18,6.69-5.5,11.84-12.36,16.2-19.8,2.24-3.81,4.26-7.74,6.27-11.68,1.72-3.38,3.52-6.79,4.19-10.52Z"/>
          </g>
        </g>
      </g>
    </g>
  </g>
</svg>