<?xml version="1.0" encoding="UTF-8"?>
<svg id="Capa_2" data-name="Capa 2" xmlns="http://www.w3.org/2000/svg" viewBox="0 0 100 100">
  <defs>
    <style>
      .cls-1 {
        fill: none;
      }

      .cls-2 {
        fill: #4a2d2d;
      }

      .cls-3 {
        fill: #928181;
      }

      .cls-4 {
        fill: #bc907b;
      }

      .cls-5 {
        fill: #ab745b;
      }
    </style>
  </defs>
  <g id="COLOR">
    <g>
      <rect class="cls-1" width="100" height="100"/>
      <g>
        <path class="cls-5" d="M16.53,45.16c-5.42-11.88,3.65-19.07,13.65-24.8,10-5.73,21.98-10.73,34.07-7.29,12.09,3.44,26.46,26.57,24.38,38.34-2.08,11.77-13.73,12.82-25.11,13.13-15.63.42-41.57-7.5-46.99-19.38Z"/>
        <path class="cls-3" d="M36.18,30.18c-9.72.5-12.96,4.61-14.09,9.35-1.12,4.74,4.11,9.6,12.34,13.21,8.23,3.61,22.69,5.86,29.54,5.98,6.86.12,14.33-1.87,15.83-5.86s-3.86-9.24-6.73-10.97c-7.48-4.49-27.17-12.22-36.9-11.72Z"/>
        <path class="cls-2" d="M29.33,49.51c2.61.05,5.22.04,7.84.04,2.38,0,4.9.26,7.26-.14.48-.08.48-.88,0-.96-2.35-.41-4.88-.16-7.26-.14-2.61.02-5.22.07-7.84.19-.65.03-.65,1,0,1.01h0Z"/>
        <path class="cls-2" d="M24.27,40.22c6.05,1.99,12.16,3.75,18.32,5.33.48.12.65-.57.2-.73-5.99-2.18-12.1-3.93-18.22-5.7-.71-.21-1,.87-.3,1.1h0Z"/>
        <path class="cls-2" d="M36.02,32.96c1.77,1.63,3.48,3.32,5.12,5.08,1.49,1.6,2.78,3.56,4.53,4.87.41.31.77-.26.62-.62-.85-2-2.67-3.7-4.15-5.26-1.66-1.76-3.43-3.37-5.3-4.9-.57-.47-1.38.31-.82.82h0Z"/>
        <path class="cls-2" d="M53.36,43.53s.1.02.16.03c.88-2.86.83-6.54.67-9.39-.04-.73-1.07-.72-1.13,0-.15,1.67-.23,3.34-.35,5-.1,1.42-.4,2.88-.4,4.3.35-.02.7,0,1.05.05Z"/>
        <path class="cls-2" d="M57.73,44.42c2.16-.81,4.34-1.57,6.54-2.28,2.01-.65,4.15-1.04,6.07-1.92.41-.19.2-.85-.22-.83-2.21.09-4.43.93-6.51,1.61s-4.21,1.56-6.25,2.51c-.5.23-.14,1.1.38.9h0Z"/>
        <path class="cls-2" d="M59.37,48.47c3.03-.15,6.08-.13,9.11.13,3.02.25,5.99.88,9,1.14.48.04.49-.64.11-.79-5.58-2.18-12.34-2.16-18.22-1.59-.7.07-.72,1.14,0,1.11h0Z"/>
        <path class="cls-2" d="M57.57,51.4c4.28,1.77,8.23,4.17,12.47,6.02.37.16.83-.29.47-.61-3.51-3.23-8.13-5.15-12.59-6.65-.81-.27-1.09.94-.34,1.25h0Z"/>
        <path class="cls-2" d="M75.42,38.31c.15.53.64.96,1.07,1.28s.84.61,1.36.76c1.2.35,2.15-1.24,1.23-2.11-.4-.37-.84-.58-1.34-.79s-1.12-.42-1.67-.28c-.48.12-.78.66-.64,1.13h0Z"/>
        <path class="cls-2" d="M75.56,34.62c.21.1.41.21.64.26.18.04.38.09.56.03s.37-.18.47-.36c.18-.35.09-.77-.22-1.02-.11-.09-.21-.19-.33-.26-.08-.05-.17-.09-.26-.13-.4-.2-.95-.12-1.17.31-.2.39-.12.96.31,1.17h0Z"/>
        <path class="cls-2" d="M33.61,26.59c.26-.02.51-.04.77-.07.16-.02.35-.02.5-.07.17-.05.3-.14.45-.23.49-.32.49-.99,0-1.31-.14-.09-.28-.19-.45-.23-.15-.04-.34-.05-.5-.07-.26-.03-.51-.05-.77-.07-.54-.03-1.05.5-1.02,1.02s.45,1.06,1.02,1.02h0Z"/>
        <path class="cls-2" d="M79.57,46.7c-2.71-3.96-7.66-6.66-11.8-8.85-8.61-4.53-18.61-7.32-28.32-8.08-7.53-.59-19.17,1.71-18.23,11.61.46,4.78,4.77,7.81,8.6,10.02,4.22,2.44,9.07,4.87,13.99,5.82.05-.13.1-.27.15-.4.17-.45.31-.91.43-1.37-3.71-1.32-7.51-2.34-11.09-4.08-3.38-1.64-7.43-3.82-9.41-7.14-2.15-3.59-.78-8.24,2.75-10.3,3.45-2.01,7.48-2.49,11.4-2.3,7.93.37,16.15,2.67,23.41,5.78,4,1.71,7.82,3.82,11.38,6.31,2.87,2.01,8.07,6.25,4.96,10.14-1.91,2.39-5.85,3-8.7,3.32-4.57.5-8.93.01-13.38-.72-.2.59-.43,1.17-.69,1.75-.06.13-.12.26-.18.38,4.42,1.4,9.33,1.53,13.87,1.07,3.31-.33,6.91-.93,9.61-3.03,3.2-2.49,3.5-6.64,1.25-9.93Z"/>
        <path class="cls-4" d="M56.38,43.1c-2.83-1.41-8.73-1.99-11.14,1.58-2.41,3.57,0,5.65-2.58,13.71-2.58,8.06-8.89,20.11-6.65,25.93,2.24,5.82,8.48,7.89,14.04,6.56,5.57-1.33,6.48-6.81,5.4-9.81s-3.41-6.07-2.49-13.38,3.46-12.7,4.24-15.04c1.33-3.99,1.99-8.14-.83-9.56Z"/>
        <path class="cls-2" d="M48.15,48.96h.21c.13,0,.25-.04.36-.1.12-.04.22-.1.3-.2.09-.09.16-.19.2-.3.06-.11.09-.23.08-.36l-.03-.25c-.04-.16-.13-.3-.24-.42l-.19-.15c-.15-.09-.31-.13-.48-.13h-.21c-.13-.02-.25,0-.37.07-.12.04-.22.1-.31.2-.09.09-.16.19-.2.31-.06.11-.09.24-.08.37l.03.25c.05.16.13.3.25.42.18.17.42.3.68.28h0Z"/>
        <path class="cls-2" d="M48.15,52.88c.13-.03.25-.08.36-.14.26-.16.43-.44.43-.74s-.17-.58-.43-.74c-.11-.07-.24-.11-.36-.14-.31-.08-.68,0-.9.24-.17.18-.27.4-.27.65,0,.13.02.25.08.36.04.11.1.21.19.3.23.23.58.32.9.24h0Z"/>
        <path class="cls-2" d="M49.63,84.61s.19.06.02,0c-.09-.04-.1-.04-.04,0l-.13-.1s.28.36.03.02c.1.14.21.26.35.35-.28-.18-.3-.35-.21-.19.07.12.19.27.32.33l-.29-.36c.02.07.02.05,0-.06.03.25.11.45.34.59.19.11.5.14.69,0,.08-.06.16-.12.23-.19.06-.06.18-.31.11-.14-.04.05-.05.07-.03.04.03-.03.06-.06.08-.1.12-.16.16-.31.19-.5.02-.15.02-.16,0-.04-.01.09-.02.11,0,.06.08-.09.02-.47,0-.54-.15-.54-.6-.97-1.14-1.1-.51-.13-1.12.17-1.24.7-.12.51.15,1.12.7,1.24h0Z"/>
      </g>
    </g>
  </g>
</svg>