<?xml version="1.0" encoding="UTF-8"?>
<svg id="Capa_2" data-name="Capa 2" xmlns="http://www.w3.org/2000/svg" viewBox="0 0 100 100">
  <defs>
    <style>
      .cls-1 {
        fill: none;
      }

      .cls-2 {
        fill: #6a8c2a;
      }

      .cls-3 {
        fill: #4a2d2d;
      }
    </style>
  </defs>
  <g id="COLOR">
    <g>
      <rect class="cls-1" width="100" height="100"/>
      <g>
        <path class="cls-2" d="M48.63,89.78s-4.18-3.99-7.69-9.02c-3.51-5.03-7.03-10.06-7.41-13.1-.38-3.04,2.85-7.31,3.51-13.01s.38-7.69-5.51-12.25c-5.89-4.56-15.19-12.91-20.13-10.25-4.94,2.66-5.79,17.38-1.14,23.93,4.65,6.55,11.2,9.97,14.15,10.63,2.94.66,5.41.19,6.55,1.61s3.61,8.55,6.65,13.29c3.04,4.75,7.12,8.74,8.64,9.49s3.89-.19,2.37-1.33Z"/>
        <path class="cls-2" d="M49.39,60.73s-1.04-3.61-7.69-11.2-10.54-15.95-7.31-24.88c3.23-8.93,11.77-14.24,20.22-10.25,8.45,3.99,9.78,16.24,8.26,26.11-1.52,9.87-5.79,13.39-7.6,19.08s-2.56,14.81-3.61,21.08c-1.04,6.27-2.28,10.25-3.13,10.35s-1.99-1.23-1.8-2.37,1.99-7.03,2.85-16.14c.85-9.11-.19-11.77-.19-11.77Z"/>
        <path class="cls-2" d="M58.51,75.16c4.39-7.26,7.22-14.72,6.93-17.47s-4.18-10.73-.19-17.66c3.99-6.93,14.05-12.53,20.98-9.78,6.93,2.75,5.79,17.19-.09,28.48-5.89,11.3-14.05,6.36-17,7.22-2.94.85-11.49,17.19-15,21.55-3.51,4.37-5.51,4.18-6.36,3.23s3.89-4.27,10.73-15.57Z"/>
        <g>
          <path class="cls-3" d="M31.87,65.03c-.36-.77-1.03-1.89-1.44-2.63-2.62-3.85-5.08-7.24-7.65-11.12-1.42-2.14-2.78-4.32-4.03-6.56-1.24-2.23-2.16-4.67-3.45-6.86-.3-.5-1.08-.17-.93.39,1.18,4.61,4.35,9.1,6.91,13.05,2.88,4.43,6,8.7,9,13.05,1.68,2.43,2.03,1.63,1.59.68Z"/>
          <path class="cls-3" d="M10.93,40.95c1.14,1.97,3.25,3.36,5.36,4.12.36.13.54-.4.25-.59-1.82-1.2-3.77-1.97-4.97-3.9-.25-.4-.88-.04-.64.37h0Z"/>
          <path class="cls-3" d="M23.37,41.12c.37,1.7.53,3.46.46,5.2-.06,1.56-.59,3-.79,4.54-.04.31.43.4.57.15,1.62-2.92,1.35-6.99.56-10.12-.13-.52-.92-.3-.81.22h0Z"/>
          <path class="cls-3" d="M14.26,51.51c2.49,1.84,6.44,3.02,9.51,3.16.28.01.43-.44.15-.56-2.99-1.28-6.54-1.42-9.27-3.27-.42-.29-.79.38-.39.67h0Z"/>
          <path class="cls-3" d="M30.33,46.94c-.05,4.06-.74,7.84-1.63,11.78-.08.33.43.59.58.25,1.63-3.74,2.18-7.97,1.99-12.02-.03-.6-.94-.61-.94,0h0Z"/>
          <path class="cls-3" d="M21.2,60.69c.84.71,2.3,1.08,3.29.45.33-.21.24-.85-.22-.8-.97.09-1.67.18-2.57-.29-.4-.21-.88.33-.5.65h0Z"/>
          <path class="cls-3" d="M44.85,19.18c2.12,6.87,4.37,13.66,5.6,20.77.63,3.64,1.08,7.33,1.19,11.03.1,3.63-.3,7.21-.52,10.83-.03.45.68.54.78.11,1.68-6.86,1.09-14.63-.06-21.54-1.22-7.35-3.27-14.67-6.25-21.5-.18-.42-.87-.12-.73.31h0Z"/>
          <path class="cls-3" d="M50.45,34.49c2.14-3.46,4.68-8.05,4.12-12.27-.05-.39-.71-.6-.78-.11-.28,2.01-.53,3.94-1.26,5.84-.8,2.1-1.93,4.03-2.94,6.03-.29.57.52,1.05.86.5h0Z"/>
          <path class="cls-3" d="M38.88,26.13c2.45,1.49,4.74,3.25,6.68,5.36,1.98,2.16,3.23,4.67,4.91,7.01.23.32.79.14.67-.28-1.6-5.58-6.92-10.17-11.81-12.87-.51-.28-.94.47-.45.77h0Z"/>
          <path class="cls-3" d="M53.9,49.81c2.65-4.06,5.21-9.34,5.13-14.31,0-.39-.59-.48-.69-.09-.62,2.33-.93,4.7-1.69,6.99-.82,2.49-1.97,4.82-3.36,7.04-.25.4.37.75.62.36h0Z"/>
          <path class="cls-3" d="M38.74,38.11c2.4,1.22,4.82,2.44,7.06,3.93,2.47,1.64,4.12,3.66,6.12,5.77.38.4.91-.11.71-.55-2.24-4.99-8.74-7.9-13.45-9.89-.5-.21-.94.49-.44.74h0Z"/>
          <path class="cls-3" d="M66.93,64.44c4.47-3.89,8.02-8.81,10.91-13.96,1.49-2.66,2.67-5.41,3.88-8.21,1.17-2.7,2.39-5.43,3.07-8.3.11-.47-.61-.83-.82-.34-1.08,2.49-1.84,5.11-2.83,7.64-1.12,2.86-2.6,5.66-4.08,8.35-2.9,5.27-6.5,9.95-10.73,14.22-.39.39.19.95.6.6h0Z"/>
          <path class="cls-3" d="M75.44,54.46c2.97-1.95,5.83-3.92,8.49-6.29,1.59-1.42,3.46-3.1,3.97-5.26.08-.33-.36-.65-.61-.35-1.48,1.74-2.57,3.51-4.31,5.07-2.54,2.27-5.47,3.98-8.04,6.19-.35.3.11.9.5.64h0Z"/>
          <path class="cls-3" d="M76.25,35.41c-1.03,4.43-1.52,9.07-.86,13.59.05.34.61.26.59-.08-.15-4.52-.05-8.88.95-13.33.1-.44-.58-.63-.68-.19h0Z"/>
          <path class="cls-3" d="M70.93,60.88c4.05.46,8.84-.08,11.84-3.12.32-.32-.1-.9-.49-.64-3.58,2.42-7.16,2.61-11.35,2.91-.55.04-.54.78,0,.85h0Z"/>
          <path class="cls-3" d="M71.77,58.24c-2.18-3.43-2.66-8.37-2.96-12.29-.03-.4-.69-.56-.76-.1-.36,2.3.1,4.64.72,6.87.51,1.85.92,4.65,2.48,5.93.27.22.73-.06.51-.4h0Z"/>
        </g>
      </g>
    </g>
  </g>
</svg>