<?xml version="1.0" encoding="UTF-8"?>
<svg id="Capa_2" data-name="Capa 2" xmlns="http://www.w3.org/2000/svg" viewBox="0 0 100 100">
  <defs>
    <style>
      .cls-1 {
        fill: #fafbee;
      }

      .cls-2 {
        fill: #fff;
      }

      .cls-3 {
        fill: none;
      }

      .cls-4 {
        fill: #4a2d2d;
      }

      .cls-5 {
        fill: #9bb533;
      }
    </style>
  </defs>
  <g id="COLOR">
    <g>
      <rect class="cls-3" width="100" height="100"/>
      <g>
        <path class="cls-1" d="M41.71,52.23s-5.24,8.91-6.51,9.53-11.34,3.18-13.98,6.56-4.97,8.96-.41,15.25,10.93,8.2,16.37,5.92,8.41-7.46,8.36-11.76-1.49-8.16-.3-10.66,3.11-7.44,3.11-7.44l-6.64-7.4Z"/>
        <g>
          <path class="cls-4" d="M46.49,76.98c.21-3.75-2.64-6.98.57-12.42.43-.72-.39-2.05-.86-1.37-2.87,4.15-2.57,7.17-2.04,10.39.59,3.59.32,7.86-1.94,10.9-4.39,5.9-13.81,5.92-18.89,1.1-4.93-4.68-5.74-12.55-.57-17.36,2.26-2.1,5.01-2.99,7.96-3.58,1.66-.33,3.31-.92,4.59-2.07,1.49-1.33,2.44-3.24,3.54-4.88.95-1.42,1.92-2.77,2.74-4.27-.22-.45-.27-.52-.48-.98-.14-.31-.32-.46-.44-.78-2.11,3.89-4.55,7.58-6.88,9.99-1.52,1.2-3.29,1.15-5.4,1.7-2.35.62-4.8,2.02-6.65,3.56-3.88,3.23-5.3,8.2-3.86,13.02,1.47,4.92,5.7,9.08,10.59,10.56,4.95,1.51,11.48-.09,14.72-4.31,1.92-2.51,3.14-6.07,3.32-9.21Z"/>
          <path class="cls-5" d="M55.77,32.16c.13-.29,6.07-17.02,7.99-21.82,1.91-4.81,2.53-7.66,5.59-7.72s11.57,3.65,11.45,5.74c-.07,1.24-6.26,10.88-9.03,15.68-2.77,4.8-10.16,19.62-10.16,19.62,0,0-8.63,6.84-10.2,5.61s4.37-17.1,4.37-17.1Z"/>
          <path class="cls-5" d="M54.01,41.14s8.82-10.79,15.37-15.67,14.54-9.18,15.55-8.68,5.14,6.83,5.7,9.28.53,3.85-1.16,4.56c-1.7.7-14.7,7.5-23.38,14.18-8.68,6.67-16.31,14.01-17.7,15.63s5.63-19.29,5.63-19.29Z"/>
          <path class="cls-5" d="M40.4,52.06s4.33-7.25,5.81-18.55c1.48-11.3-.62-22.65-.29-22.74s10.76-1.9,11.58-1.28,2.84,7.02,1.61,19.86c-1.22,12.84-4.71,21.89-7.75,27.27-3.04,5.38-4.7,7.18-4.7,7.18,0,0-2.6-2.44-4.24-5.8-1.51-3.09-2.02-5.93-2.02-5.93Z"/>
          <path class="cls-4" d="M84.58,16.28c-5.2,2.04-10.19,5.19-14.78,8.35-3.94,2.72-7.68,5.86-10.65,9.64,1.29-8.25,1.46-17.05-1.32-24.91-.16-.45-.77-.2-.68.24,2.02,9.09,1.54,18.66-.12,27.77-.9,4.94-2.45,9.78-4.55,14.34-2.02,4.4-4.76,8.39-6.92,12.71-.33.65.67,1.36,1.1.72,5.63-8.51,10.04-17.8,11.96-27.86.06-.31.11-.62.17-.93,3.77-3.87,7.68-7.56,12.08-10.73,4.5-3.25,9.44-5.55,14.24-8.29.59-.33.09-1.29-.53-1.05Z"/>
          <path class="cls-2" d="M50.28,22.66c.52,5.49.26,10.98-.45,16.44-.69,5.29-2.35,10.25-3.81,15.36-.1.35.44.51.59.2,2.4-4.84,3.53-10.41,4.28-15.73s.62-10.9,0-16.32c-.05-.4-.66-.35-.62.05h0Z"/>
          <path class="cls-2" d="M53.79,42.24c.31-.94.48-1.84.48-2.83,0-.35-.5-.33-.59-.03-.23.86-.45,1.73-.73,2.58-.21.61.64.9.84.28h0Z"/>
          <path class="cls-2" d="M62.22,27.73c1.38-3.01,2.87-5.99,4.49-8.88s3.63-5.56,5.25-8.44c.18-.32-.3-.63-.54-.35-2.08,2.4-3.7,5.37-5.28,8.11-1.72,2.99-3.24,6.06-4.6,9.23-.19.44.47.77.67.33h0Z"/>
          <path class="cls-2" d="M60.88,41.2c6.1-6.45,13.29-10.83,21.21-14.67.39-.19.2-.79-.23-.65-8.31,2.71-15.74,8.41-21.54,14.83-.32.36.24.84.57.49h0Z"/>
          <path class="cls-2" d="M72.31,35.17c1.21-.64,2.46-1.29,3.51-2.18.32-.26,0-.71-.36-.52-1.22.64-2.36,1.42-3.57,2.09-.42.23,0,.82.41.6h0Z"/>
          <path class="cls-4" d="M22.1,85.24c-1.35.33-2.52,1.45-3.86,1.92-1.25.45-2.8.52-3.67,1.63-.4.5-.04,1.27.62,1.22,1.49-.11,3.16-.58,4.53-1.19,1.22-.53,2.76-1.24,3.36-2.49.32-.67-.33-1.26-.98-1.1h0Z"/>
          <path class="cls-4" d="M23.37,88.21c-2,2.14-3.78,5.83-2.67,8.8.2.53,1.13.7,1.35.07.44-1.27.5-2.63.92-3.92.46-1.39,1.1-2.74,1.88-3.97.56-.89-.82-1.69-1.48-.98h0Z"/>
          <path class="cls-4" d="M26.57,89.43c-.25.92-.38,1.87-.32,2.82s.37,1.72.96,2.51c.44.59,1.31.25,1.31-.47,0-.77-.04-1.46-.12-2.23s-.09-1.53,0-2.3c.15-1.2-1.52-1.5-1.84-.34h0Z"/>
          <path class="cls-4" d="M22.1,71.29c-1.06,1.89-1.68,4.22-.89,6.32.11.28.61.29.63-.05.13-2.06.16-3.98,1.01-5.91.22-.49-.49-.83-.75-.37h0Z"/>
          <path class="cls-4" d="M22.21,79.86c.25.41.49.92.91,1.2.23.16.63.04.59-.3-.07-.53-.42-.99-.7-1.44-.14-.22-.46-.27-.67-.12-.22.15-.26.44-.12.67h0Z"/>
        </g>
      </g>
    </g>
  </g>
</svg>