<?xml version="1.0" encoding="UTF-8"?>
<svg id="Capa_2" data-name="Capa 2" xmlns="http://www.w3.org/2000/svg" viewBox="0 0 100 100">
  <defs>
    <style>
      .cls-1 {
        fill: none;
      }

      .cls-2 {
        fill: #4a2d2d;
      }

      .cls-3 {
        fill: #b3644c;
      }
    </style>
  </defs>
  <g id="COLOR">
    <g>
      <rect class="cls-1" width="100" height="100"/>
      <g>
        <path class="cls-3" d="M78.08,12.18c-1.16.43-.31,3.66-2.26,5.68s-5.49,3.42-9.04,3.48c-3.54.06-7.75,0-11.97,2.01s-6.41,6.65-9.28,7.39-8.49-.18-13.98,3.3-8.49,8.55-9.28,12.88-.37,10.38.92,15.14,1.16,6.96.31,9.16-10.01,13.49-8.73,16.12,9.04,5.01,17.28,1.89c8.24-3.11,13.07-13.37,16.12-14.41,3.05-1.04,9.34-.67,16.97-5.74,7.63-5.07,13.68-11.91,15.63-18.32s-1.34-13.74-1.04-16.18,3.99-6.02,4.52-11.23c.61-6.04-5.01-11.6-6.17-11.17Z"/>
        <g>
          <path class="cls-2" d="M37.59,53.5c1.16.08,2.26.33,2.6,1.58.09.32.52.29.62,0,.24-.71-.16-1.39-.74-1.79-.73-.51-1.63-.51-2.48-.51-.47,0-.46.69,0,.72h0Z"/>
          <path class="cls-2" d="M29.3,70.14c.34,0,.66.1.92.32s.39.53.6.79.61.03.62-.26c.05-1.03-1.26-1.7-2.14-1.66-.51.03-.52.81,0,.8h0Z"/>
          <path class="cls-2" d="M67.03,42.87c.44-.09.88.05,1.22.34s.37.8.7,1.06c.2.16.45.14.6-.08.41-.59-.3-1.44-.75-1.78-.58-.43-1.3-.58-2-.4-.56.15-.32.98.24.86h0Z"/>
          <path class="cls-2" d="M40.03,66.31c1.99,3.16,5.29,6.23,9.09,6.91.38.07.68-.48.28-.67-3.5-1.66-6.43-3.34-8.59-6.7-.31-.49-1.09-.04-.78.46h0Z"/>
          <path class="cls-2" d="M61.93,56.14c1.88,2.92,4.63,7.14,8.65,6.83.36-.03.44-.51.08-.63-1.75-.57-3.21-1.19-4.58-2.45-1.33-1.22-2.37-2.72-3.39-4.2-.32-.46-1.07-.04-.76.44h0Z"/>
          <path class="cls-2" d="M48.85,46.51c1.16,2.25,2.63,5.15,5.39,5.64.37.07.64-.44.27-.64-2.33-1.29-3.67-3.13-4.96-5.41-.26-.46-.95-.05-.71.41h0Z"/>
          <path class="cls-2" d="M49.16,28.23c.67,2.57,1.97,5.38,4.17,7,.28.21.68-.2.48-.48-1.58-2.19-3.08-4.09-3.88-6.73-.15-.49-.9-.29-.77.21h0Z"/>
          <path class="cls-2" d="M64.76,28.73c.51,1.23,1.42,2.85,2.76,3.32.3.11.62-.29.43-.56-.37-.5-.88-.89-1.29-1.37-.45-.53-.79-1.12-1.07-1.75-.21-.46-1.02-.13-.83.35h0Z"/>
          <path class="cls-2" d="M75.54,25.19c1.32,1.85,2.76,3.96,4.67,5.25.25.17.6-.17.43-.43-1.3-1.86-3.03-3.41-4.41-5.22-.3-.39-.98-.02-.68.4h0Z"/>
          <path class="cls-2" d="M27.66,39.35c.71,2.37,2.27,5.13,4.63,6.18.35.16.73-.25.43-.56-.83-.85-1.75-1.56-2.47-2.52-.77-1.01-1.34-2.14-1.73-3.35-.17-.54-1.02-.32-.86.24h0Z"/>
          <path class="cls-2" d="M28.52,78.96c1.42,2.27,3.45,4.34,6.05,5.19.38.12.59-.43.27-.63-2.18-1.38-4.19-2.78-5.68-4.93-.27-.38-.88-.04-.63.37h0Z"/>
          <path class="cls-2" d="M22.66,85.31c.21.15.42.3.64.43.28.17.57-.22.34-.44-.18-.18-.38-.35-.57-.53-.15-.14-.38-.13-.51.03s-.07.39.1.51h0Z"/>
        </g>
      </g>
    </g>
  </g>
</svg>