<?xml version="1.0" encoding="UTF-8"?>
<svg id="Capa_2" data-name="Capa 2" xmlns="http://www.w3.org/2000/svg" viewBox="0 0 100 100">
  <defs>
    <style>
      .cls-1 {
        fill: none;
      }

      .cls-2 {
        fill: #4a2d2d;
      }

      .cls-3 {
        fill: #fe9736;
      }

      .cls-4 {
        fill: #b3644c;
      }
    </style>
  </defs>
  <g id="COLOR">
    <g>
      <rect class="cls-1" width="100" height="100"/>
      <g>
        <path class="cls-4" d="M32.52,37.34s2.23-.74,7.15-1.21,10.22-7.52,15.51-9.57,14.86-3.16,17.28-4.37c2.42-1.21,4.92-6.13,9.1-6.04,4.18.09,5.3,4.74,4.18,8.64-1.11,3.9-5.95,9.38-6.22,15.14-.28,5.76,5.3,12.54,1.02,22.48-4.27,9.94-10.87,18.02-18.77,21.55-7.9,3.53-18.58,4.46-24.43,3.44-5.85-1.02-13.66-18.86-13.01-27.87.65-9.01,7.06-22.02,8.17-22.2Z"/>
        <path class="cls-3" d="M35.4,36.97c-8.83.74-16.16,9.1-18.49,18.39-2.32,9.29-2.6,22.95,5.95,28.61,8.55,5.67,17.09,3.16,20.53,1.39,3.44-1.77,9.48-10.13,11.05-17.93,1.29-6.36.55-12.75-.37-15.51-2.23-6.69-9.85-15.7-18.67-14.96Z"/>
        <g>
          <path class="cls-2" d="M47.97,41.01c-6.98-6.88-18.12-6.06-24.55,1.39-6.33,7.33-9.84,18.61-8.18,28.2.73,4.21,2.51,8.66,5.31,11.92,3.18,3.72,7.87,5.36,12.63,5.73,4.93.38,9.54-.57,13.31-3.9,3.61-3.2,5.87-7.8,7.52-12.25,2.12-5.71,3.17-12.11,1.91-18.13-1.1-5.25-3.98-9.53-7.94-12.95ZM53.18,66.34c-1.72,7.53-6.15,17.75-14.82,19.05-8.85,1.34-17.88-2.73-20.4-11.73-2.33-8.32-.9-18.18,3.55-25.56,2.76-4.58,6.59-8.76,12.08-9.74,5.14-.92,10.36.94,13.95,4.68.07.07.14.12.21.16,5.74,6.17,7.3,14.99,5.44,23.14Z"/>
          <path class="cls-2" d="M66.49,47.79c.55-.25,1.21-.13,1.61.33.35.4.3.89.54,1.32.16.3.55.25.73,0,.5-.71-.15-1.82-.74-2.27-.76-.57-1.76-.58-2.59-.17-.53.27-.07,1.02.46.78Z"/>
          <path class="cls-2" d="M50.49,31.27c3.07,1.89,4.82,4.66,6.39,7.81.24.48.95.14.84-.35-.82-3.58-3.7-6.43-6.8-8.18-.47-.27-.89.44-.43.73Z"/>
          <path class="cls-2" d="M74.18,29.78c-.45-.36-1.09.25-.64.64,1.84,1.63,3.05,3.62,4.56,5.52.28.35.91-.03.76-.44-.83-2.31-2.8-4.22-4.67-5.72Z"/>
          <path class="cls-2" d="M62.04,65.32c-.6-.42-1.15.56-.57.97,1.73,1.24,3.28,2.69,4.61,4.36,1.22,1.53,2.08,3.3,3.29,4.83.24.3.65-.04.59-.34-.8-4.04-4.68-7.58-7.92-9.81Z"/>
          <path class="cls-2" d="M72.74,56.68c-.59.03-.59.89,0,.92,1.07.05,1.28,1.25.79,2.03-.2.31.2.72.51.51,1.71-1.1.58-3.55-1.31-3.46Z"/>
          <path class="cls-2" d="M65.13,31.52c.3.02.56.19.74.42.19.26.22.55.34.83.08.2.32.37.54.22.61-.42.45-1.3.07-1.82-.41-.56-1.14-.87-1.82-.65-.55.18-.44.96.13,1Z"/>
          <path class="cls-2" d="M79.03,24.16c-.48-.33-1.06-.48-1.64-.48-.66,0-.66,1.01,0,1.02.4,0,.78.13,1.11.37.32.24.49.62.88.75.2.07.46-.08.51-.29.13-.58-.42-1.08-.86-1.37Z"/>
          <path class="cls-2" d="M57.2,74.46c-.54-.31-1.03.53-.49.83.45.25.65.88.5,1.36-.12.39.42.58.63.26.58-.85.24-1.96-.64-2.46Z"/>
          <path class="cls-2" d="M23.63,53.82c-.57-.11-.82.76-.24.88,2.02.42,3.72,1.38,5.64,2.07.35.13.63-.38.36-.62-1.55-1.37-3.77-1.96-5.76-2.33Z"/>
          <path class="cls-2" d="M26.41,62.5c-1.06-.43-2.22-.63-3.33-.9-.56-.13-.8.72-.24.86,1.14.28,2.3.63,3.47.73.43.04.43-.55.09-.69Z"/>
          <path class="cls-2" d="M46.38,57.49c-.35-.03-.41.45-.17.61.52.35,1.11.57,1.69.81.61.25.94-.81.28-1.01-.6-.18-1.18-.35-1.8-.41Z"/>
          <path class="cls-2" d="M39.34,79.79c-.65-.28-1.28-.39-1.97-.19-.34.1-.25.57.08.6.49.04,1.01.13,1.45.35.51.25.95-.54.44-.76Z"/>
          <path class="cls-2" d="M42.46,75.28c-.55,0-.55.86,0,.86s.55-.86,0-.86Z"/>
        </g>
      </g>
    </g>
  </g>
</svg>