<?xml version="1.0" encoding="UTF-8"?>
<svg id="Capa_2" data-name="Capa 2" xmlns="http://www.w3.org/2000/svg" viewBox="0 0 100 100">
  <defs>
    <style>
      .cls-1 {
        fill: #e01f4c;
      }

      .cls-2 {
        fill: #fff;
      }

      .cls-3 {
        fill: none;
      }

      .cls-4 {
        fill: #4a2d2d;
      }
    </style>
  </defs>
  <g id="COLOR">
    <g>
      <rect class="cls-3" width="100" height="100"/>
      <g>
        <path class="cls-1" d="M79.82,44.49c-3.12-5.47-7.89-9.17-15.6-9.55-.79.69-1.74,1.19-2.73,1.59-1.32.54-2.72.87-4.12,1.13-.63.12-1.26.22-1.88.33-.53.09-1.12.17-1.61.41-.4.19-.37.24-.21.64.25.6.65,1.15,1.02,1.69.4.6.76,1.22,1.18,1.8.13.18.26.35.38.52,1.68,1.37,3.53,2.51,5.2,3.89.28.23.31.71.13,1.01-.2.35-.57.44-.94.38-1.45-.2-2.89-.51-4.26-1.02-1.42-.54-2.72-1.26-3.99-2.1-1.24-.82-2.37-1.8-3.18-3.06-.4-.63-.7-1.32-.91-2.04-.16-.54-.27-1.11-.45-1.64-1.23.6-2.35,1.42-3.54,2.07-1.51.82-3.14,1.44-4.72,2.11-1.31.56-2.54,1.19-3.79,1.85-1.08.57-2.3,1.2-3.55,1.13-.67-.03-.96-.79-.53-1.28,1.08-1.23,2.45-2.15,3.74-3.13,1.31-1,2.68-1.88,4.13-2.65,1.14-.6,2.31-1.12,3.46-1.69.69-.34,1.45-.73,1.96-1.32-.95-.22-1.91-.36-2.83-.68-1.23-.43-2.32-1.16-3.57-1.52-4.37-.26-9.21.15-13.17,2.21-9.86,5.13-13.5,19.98-9.99,30.11,3.51,10.13,10.8,15.39,20.39,13.77,9.59-1.62,13.77-1.89,19.85-.13,6.08,1.76,18.36,2.84,24.71-6.75,6.35-9.59,2.7-22.41-.54-28.08Z"/>
        <path class="cls-2" d="M32.16,37.35c-2.68.66-5.18,2.26-7.14,4.18-1.75,1.71-3.7,4.32-2.96,6.89.21.73,1.11.95,1.66.44,1.59-1.48,2.26-3.73,3.72-5.36,1.58-1.77,3.61-2.91,5.51-4.3.9-.65.4-2.15-.78-1.85h0Z"/>
        <path class="cls-2" d="M21.33,53.22l.23.4c.26.46.96.46,1.22,0l.23-.4c.37-.64-.1-1.47-.84-1.47s-1.21.83-.84,1.47h0Z"/>
        <path class="cls-2" d="M70.38,73.85c1.54-.04,2.9-.44,4.01-1.57,1.04-1.06,2.14-2.98.92-4.28-.36-.38-.92-.39-1.36-.18-.95.47-1.07,1.57-1.67,2.34-.52.67-1.34,1.41-2.18,1.65-1.1.32-.92,2.07.28,2.04h0Z"/>
        <path class="cls-4" d="M67.51,26.99c-2.02,1.75-4.24,3.16-6.65,4.3-1.2.57-2.45,1.04-3.72,1.42-.53.16-3.03.98-3.29.69-.53-.59,1.04-2.92,1.38-3.39.66-.91,1.46-1.74,2.24-2.55,1.3-1.34,2.88-2.8,3.49-4.62,1.49-4.46-3.7-5.48-6.51-3.1-3.49,2.96-4.99,8.33-5.65,12.75-5.74-.3-10.93-3.87-12.94-9.33-.19-.52-.94-.87-1.36-.36-2.27,2.76-2.04,6.74.04,9.57,1.71,2.33,4.61,3.8,7.56,4.23-1.82.84-3.67,1.62-5.37,2.74-2.55,1.68-4.6,3.77-6.7,5.96-.6.63.02,1.5.8,1.37,5.42-.91,11.57-2.65,16.07-6.09,1.49,2.73,3.1,4.97,6,6.62,3.01,1.71,6.4,2.3,9.8,1.76.92-.15.99-1.51.25-1.93-3.53-1.98-6.08-4.76-8.41-7.94,3.36-.21,6.54-.74,9.44-2.81,2.84-2.02,4.6-4.95,5.12-8.39.14-.93-.83-1.58-1.59-.93ZM53.66,37.68c-.5,0-1.09.59-.88,1.11,1.38,3.42,5.12,6.56,8.07,8.74-5.74-.1-11.63-4.04-12.56-8.67-.15-.75-.86-.86-1.45-.57-2.62,1.26-5.2,2.55-7.85,3.76-1.86.85-4.95,2.13-6.9,2.75,1.42-1.35,3.62-3.24,5.2-4.35,2.27-1.6,5.72-3.83,8.51-4.25.84-.13.73-1.04-.04-1.22-3.01-.72-6.07-.77-8.62-2.78-2.08-1.64-3.25-4.63-2.19-7.07-.08.18.61,1.13.72,1.32.27.44.56.87.87,1.29.62.82,1.32,1.59,2.08,2.28,1.52,1.38,3.3,2.48,5.23,3.18.93.34,1.88.65,2.86.8.96.15,2.15.34,2.95-.38,1.09-.99,1.41-2.59,1.75-3.95.42-1.66,1.3-3.34,2.1-4.85.73-1.37,2.89-5.39,4.95-3.65.72.61.49,1,.07,1.8-.29.56-.73,1.13-1.12,1.62-.59.74-1.25,1.44-1.89,2.14-1.23,1.32-2.48,2.66-3.16,4.36-.46,1.14-.72,2.82.33,3.8,1.13,1.05,3.4.19,4.64-.14,3.31-.88,7.17-3.55,9.91-5.53-2.09,5.5-8.56,8.52-13.57,8.47Z"/>
      </g>
    </g>
  </g>
</svg>