<?xml version="1.0" encoding="UTF-8"?>
<svg id="Capa_2" data-name="Capa 2" xmlns="http://www.w3.org/2000/svg" viewBox="0 0 100 100">
  <defs>
    <style>
      .cls-1 {
        fill: #fff;
      }

      .cls-2 {
        fill: #897777;
      }

      .cls-3 {
        fill: none;
      }

      .cls-4 {
        fill: #4a2d2d;
      }
    </style>
  </defs>
  <g id="COLOR">
    <g>
      <rect class="cls-3" width="100" height="100"/>
      <g>
        <path class="cls-2" d="M52.92,13.69c-7.18,2.56-9.48,4.23-14.99,3.46-5.51-.77-11.15-3.46-16.14,2.05-5,5.51,0,13.97-1.15,17.3-1.15,3.33-10.63,9.23-9.87,17.3.77,8.07,4.23,24.35,18.58,31.39,14.35,7.05,24.09,1.67,29.73-2.56,5.64-4.23,11.4-7.18,18.32-9.74,6.92-2.56,12.94-12.94,11.92-21.27-1.03-8.33-5.25-9.87-7.82-16.91s-2.88-12.75-6.02-15.76c-6.02-5.77-15.38-7.82-22.55-5.25Z"/>
        <path class="cls-4" d="M29.21,77.59c.24,0,.47-.04.67-.15.22-.07.4-.19.56-.36.17-.16.29-.35.36-.56.11-.21.16-.43.15-.67l-.06-.47c-.08-.3-.23-.55-.45-.77l-.35-.27c-.27-.16-.57-.24-.88-.24-.24,0-.47.04-.67.15-.22.07-.4.19-.56.36-.17.16-.29.35-.36.56-.11.21-.16.43-.15.67l.06.47c.08.3.23.55.45.77l.35.27c.27.16.57.24.88.24h0Z"/>
        <path class="cls-4" d="M38.8,67.87s-.02.02-.03.03l-.23.3s-.01.02-.02.02c-.07.13-.12.27-.18.41-.07.26-.07.51,0,.77.07.24.19.46.37.64.03.03.26.21.3.23l-.49-.49h0c.08.17.2.3.35.39.13.12.28.2.46.24l.36.05c.24,0,.47-.06.68-.18h.01c-.35.04-.7.08-1.05.13,0,0,0,0,.01,0l.38.05c.2,0,.38-.03.56-.12.12-.03.23-.1.32-.19.06-.03.11-.07.15-.12.01-.01.02-.02.04-.03l-.29.23s.03-.02.05-.03l-.35.15h.02c.25-.08.47-.2.65-.39.18-.18.31-.4.38-.65l.05-.39c0-.27-.07-.51-.2-.74-.09-.17-.22-.31-.38-.41-.14-.13-.31-.22-.5-.26-.51-.14-1.06.01-1.43.38h0Z"/>
        <path class="cls-4" d="M40.49,80.72c.28.01.55-.05.79-.18.26-.08.48-.22.66-.43.2-.19.34-.41.43-.66.13-.25.19-.51.18-.79l-.07-.55c-.1-.35-.27-.65-.53-.91l-.42-.32c-.32-.19-.67-.28-1.04-.28-.28-.01-.55.05-.79.18-.26.08-.48.22-.66.43-.2.19-.34.41-.43.66-.13.25-.19.51-.18.79l.07.55c.1.35.27.65.53.91l.42.32c.32.19.67.28,1.04.28h0Z"/>
        <path class="cls-4" d="M67.94,28.17s0-.02,0-.04c0-.22-.03-.31-.11-.48-.03-.1-.08-.19-.16-.27-.05-.09-.13-.17-.22-.22-.05-.04-.1-.08-.16-.12s-.06-.03-.17-.08c-.1-.06-.21-.09-.33-.09-.17-.04-.35-.03-.52.02l-.31.13-.27.21-.21.27-.13.31-.05.35.05.35.13.31.21.27.27.21.31.13c.17.05.35.06.52.02.12,0,.23-.03.33-.09.11-.03.21-.09.29-.17.1-.06.18-.14.24-.24.08-.08.14-.18.17-.29.08-.16.12-.33.11-.51h0Z"/>
        <path class="cls-4" d="M69,22.16c-.06.16-.1.3-.12.47-.04.2-.04.4.03.6v.07c.02.06.03.11.05.16l.15.34c.09.17.21.3.37.4.24.19.56.32.87.31.26-.01.5-.08.73-.2.17-.09.3-.21.4-.37.13-.14.21-.3.26-.49.02-.05.03-.09.04-.14l.02-.09c.06-.2.07-.4.03-.6-.02-.17-.06-.31-.12-.47-.1-.29-.25-.53-.5-.73-.24-.18-.54-.31-.85-.3-.25.01-.49.07-.71.19-.32.17-.53.5-.64.84h0Z"/>
        <path class="cls-4" d="M78.19,55.49c-.19.13-.29.21-.42.38-.09.09-.15.2-.18.32-.04.06-.06.12-.08.19l.6-.79h-.02c-.39.27-.64.66-.64,1.14,0,.45.25.9.64,1.12h.02c-.22-.37-.43-.74-.65-1.12,0,.3.07.49.21.76l.23.3.3.23c.17.11.35.16.54.17.13.03.26.03.39,0,.13,0,.25-.03.37-.1.12-.03.23-.1.32-.19.11-.06.2-.15.26-.26.13-.14.22-.31.26-.5l.05-.39-.05-.39-.15-.35-.23-.3-.3-.23c-.17-.11-.35-.16-.54-.17-.13-.03-.26-.03-.39,0-.19,0-.37.07-.54.17h0Z"/>
        <path class="cls-4" d="M69.58,50.84s0,.01,0,.02c-.02.04-.03.08-.05.12-.06.12-.09.24-.08.38l.04.26.1.23h0s0,.01,0,.02c0,0,0,0,0,0,.02.04.05.08.08.11.07.11.17.2.29.27l.25.1.28.04.28-.04.25-.1c.12-.07.22-.15.29-.27.06-.06.11-.14.13-.23.05-.08.07-.17.07-.26.02-.09.02-.18,0-.28,0-.14-.05-.27-.12-.39l-.16-.21-.21-.16-.25-.1-.28-.04c-.14,0-.28.02-.4.09-.09.02-.16.07-.23.13-.11.07-.2.17-.27.29h0Z"/>
        <path class="cls-4" d="M34.84,30.45c.25,0,.47-.04.69-.15.22-.07.41-.19.57-.37.17-.16.3-.35.37-.57.11-.21.16-.44.15-.69l-.06-.47c-.08-.3-.24-.56-.46-.79l-.36-.28c-.28-.16-.58-.24-.9-.24-.25,0-.47.04-.69.15-.22.07-.41.19-.57.37-.17.16-.3.35-.37.57-.11.21-.16.44-.15.69l.06.47c.08.3.24.56.46.79l.36.28c.28.16.58.24.9.24h0Z"/>
        <path class="cls-4" d="M29.34,25.8c1.73,0,1.73-2.69,0-2.69s-1.73,2.69,0,2.69h0Z"/>
        <path class="cls-4" d="M72.46,31.05l-.04.06.52-.52h-.01c-.17.1-.31.23-.41.39-.09.09-.16.2-.19.33-.09.18-.14.37-.13.57l.05.39.15.35c.09.17.22.31.38.41.09.09.2.16.33.19.18.09.37.14.57.13l.39-.05.35-.15c.17-.09.31-.22.41-.38.09-.09.16-.2.19-.33.09-.18.14-.37.13-.57l-.05-.39-.15-.35c-.13-.22-.31-.4-.53-.53h-.01c.17.17.35.34.52.51l-.04-.06c-.12-.21-.29-.38-.5-.5-.22-.13-.46-.19-.71-.19-.25,0-.49.06-.71.19-.21.12-.38.29-.5.5h0Z"/>
        <path class="cls-4" d="M61.24,67.16c.22,0,.42-.04.6-.13.19-.06.36-.17.5-.32.15-.14.26-.31.32-.5.1-.19.14-.39.13-.6l-.06-.42c-.07-.26-.21-.49-.4-.69-.31-.28-.68-.46-1.11-.46-.22,0-.42.04-.6.13-.19.06-.36.17-.5.32-.15.14-.26.31-.32.5-.1.19-.14.39-.13.6l.06.42c.07.26.21.49.4.69.31.28.68.46,1.11.46h0Z"/>
        <path class="cls-4" d="M32.92,53.75s.03-.05.04-.08l-.16.21h.02c-.07.04-.13.09-.2.14.05-.03.09-.06.14-.1.07-.04.13-.1.17-.17.03-.04.06-.07.08-.11.18-.26.18-.7,0-.95-.09-.13-.14-.2-.26-.28-.05-.04-.09-.07-.14-.1l.2.16h-.02c.05.05.11.12.16.19-.01-.03-.03-.05-.04-.08-.07-.14-.17-.25-.3-.33-.07-.07-.16-.12-.26-.15-.14-.07-.29-.11-.45-.1l-.31.04-.28.12c-.14.07-.25.17-.33.3-.07.07-.12.16-.15.26-.07.14-.11.29-.1.45,0,.21.06.41.16.59.07.14.17.25.3.33.07.07.16.12.26.15.14.07.29.11.45.1l.31-.04.28-.12c.18-.1.32-.24.42-.42h0Z"/>
        <path class="cls-4" d="M29.52,44.51c1.6-.1,3.36-.26,4.8.58s2.13,2.28,2.61,3.73c.83,2.51.72,5.19,1.94,7.58.2.39.91.33.99-.13.54-3.14-.13-7.42-1.88-10.13-2.01-3.11-4.97-3.63-8.46-3.27-1.03.11-1.07,1.71,0,1.64h0Z"/>
        <path class="cls-4" d="M51.27,71.26c1.93,1.52,4.76,2.34,6.91.73.45-.34.38-1.25-.32-1.19-1.95.16-3.86.27-5.59-.83-.77-.49-1.74.71-.99,1.29h0Z"/>
        <path class="cls-4" d="M54.85,22.4c-.46,1.22-.59,3.35.77,4.08.48.26,1.01-.07,1.04-.6s-.17-1.02-.28-1.52-.05-1.01.1-1.5c.32-1.07-1.26-1.46-1.64-.45h0Z"/>
        <path class="cls-4" d="M69.73,42.23c.56.21,1.09.48,1.62.76.6.3,1.6.51,1.84-.36.21-.75-.45-1.24-1.04-1.54s-1.24-.57-1.89-.8c-.51-.18-1.1.21-1.24.7-.16.57.19,1.05.7,1.24h0Z"/>
        <path class="cls-1" d="M25.07,62.97c.24,0,.46-.04.67-.15.22-.07.4-.19.56-.36.17-.16.29-.34.36-.56.11-.21.16-.43.15-.67l-.06-.46c-.08-.29-.23-.55-.45-.77l-.35-.27c-.27-.16-.56-.24-.88-.24-.24,0-.46.04-.67.15-.22.07-.4.19-.56.36-.17.16-.29.34-.36.56-.11.21-.16.43-.15.67l.06.46c.08.29.23.55.45.77l.35.27c.27.16.56.24.88.24h0Z"/>
        <path class="cls-1" d="M30.09,64.31v.16c0,.16.03.3.1.43.05.14.12.26.23.36.1.11.22.19.36.23.13.07.28.1.43.1l.3-.04c.19-.05.36-.15.5-.29l.18-.23c.1-.18.15-.37.15-.57v-.16c.01-.16-.02-.3-.09-.44-.05-.14-.12-.26-.23-.37-.1-.11-.22-.19-.37-.23-.14-.07-.28-.1-.44-.1l-.3.04c-.19.05-.36.15-.5.29l-.18.23c-.1.18-.15.37-.15.57h0Z"/>
        <path class="cls-1" d="M47.62,36.4c.23,0,.44-.04.64-.14.2-.07.38-.18.53-.34.16-.15.28-.33.34-.53.1-.2.15-.41.14-.64l-.06-.44c-.08-.28-.22-.52-.43-.73l-.33-.26c-.26-.15-.54-.22-.83-.23-.23,0-.44.04-.64.14-.2.07-.38.18-.53.34-.16.15-.28.33-.34.53-.1.2-.15.41-.14.64l.06.44c.08.28.22.52.43.73l.33.26c.26.15.54.22.83.23h0Z"/>
        <path class="cls-1" d="M60.26,33.24c1.35,0,1.36-2.11,0-2.11s-1.36,2.11,0,2.11h0Z"/>
        <path class="cls-1" d="M62.14,23.98h.13c.11,0,.22-.03.32-.09.1-.03.19-.09.27-.17.08-.08.14-.16.17-.27.05-.1.08-.21.07-.32l-.03-.22c-.04-.14-.11-.26-.21-.37l-.17-.13c-.13-.07-.27-.11-.42-.11h-.13c-.12-.02-.22,0-.32.06-.1.03-.19.09-.27.17-.08.08-.14.17-.17.27-.05.1-.08.21-.07.32l.03.22c.04.14.11.27.22.37l.17.13c.13.08.27.11.43.12h0Z"/>
        <path class="cls-1" d="M61.29,53.03c1.76,0,1.76-2.74,0-2.74s-1.76,2.74,0,2.74h0Z"/>
        <path class="cls-1" d="M74.44,64.17c.12,0,.24-.02.34-.08.11-.04.21-.1.29-.18.09-.08.15-.18.18-.29.06-.11.08-.22.08-.34l-.03-.24c-.04-.15-.12-.28-.23-.39l-.18-.14c-.14-.08-.29-.12-.45-.12-.12,0-.24.02-.34.08-.11.04-.21.1-.29.18-.09.08-.15.18-.18.29-.06.11-.08.22-.08.34l.03.24c.04.15.12.28.23.39l.18.14c.14.08.29.12.45.12h0Z"/>
      </g>
    </g>
  </g>
</svg>