<?xml version="1.0" encoding="UTF-8"?>
<svg id="Capa_2" data-name="Capa 2" xmlns="http://www.w3.org/2000/svg" viewBox="0 0 100 100">
  <defs>
    <style>
      .cls-1 {
        fill: #72ab4c;
      }

      .cls-2 {
        fill: none;
      }

      .cls-3 {
        fill: #4a2d2d;
      }

      .cls-4 {
        fill: #f2e2e7;
      }

      .cls-5 {
        fill: #8f6998;
      }
    </style>
  </defs>
  <g id="COLOR">
    <g>
      <rect class="cls-2" width="100" height="100"/>
      <g>
        <path class="cls-1" d="M52.21,32.42s6.93-15.45,10.17-17.04c3.24-1.59,3.56,2.35,3.56,2.35,0,0,5.59-7.63,11.63-9.66,6.04-2.03,7.44.06,6.67,3.43s-4.32,7.31-4.32,7.31c0,0,6.1.57,6.29,5.47.19,4.89-7.12,6.48-12.9,6.74s-10.43-.19-15.13.32c-3.24.35-5.98,1.08-5.98,1.08Z"/>
        <path class="cls-1" d="M51.57,37.51s-3.05-12.52-7.06-18.63-6.31-3.96-6.8-2.86c-.49,1.11-.44,2.22-.44,2.22,0,0-8.98-10.66-15.32-8.33-5.53,2.03-.89,9.79,3.62,11.95s7.18,2.48,7.18,2.48c0,0-9.07,1.3-6.93,6.42,1.78,4.26,13.03,2.73,18.37,5.09,5.34,2.35,7.18,3.18,7.18,3.18l.19-1.53Z"/>
        <g>
          <path class="cls-3" d="M72.81,19.13c-.65.21-1.3.46-1.95.72.63-.86,1.23-1.75,1.72-2.7.18-.35-.31-.63-.52-.31-.82,1.21-1.65,2.43-2.56,3.58-2.31,1.02-4.56,2.24-6.7,3.45-.69.39-1.37.8-2.05,1.21.52-1.08,1.11-2.13,1.68-3.18.16-.29-.24-.64-.48-.37-1.07,1.2-1.75,2.74-2.36,4.22-.01.03,0,.05-.01.08-1.88,1.24-3.68,2.6-5.36,4.12.16-1.04.28-2.09.35-3.14.19-2.97,0-5.95-.44-8.89-.39-2.65-.85-6.23-2.46-8.44-.52-.72-1.84-.55-1.81.49.08,2.64,1.24,5.36,1.64,8,.43,2.82.56,5.66.52,8.51-.04,2.85-.22,5.76-.74,8.56-.08.41-.17.81-.27,1.21-1.55-3.86-4.64-7.53-7.45-10.42-3.4-3.51-7.34-6.37-11.71-8.54-.43-.21-.8.42-.38.64,4.13,2.21,7.92,5.02,11.18,8.39.84.87,1.64,1.78,2.41,2.72-3.18-.12-6.51.22-9.36,1.69-.34.18-.1.67.25.59,3.29-.71,6.38-1.43,9.76-1.46.46.6.92,1.2,1.35,1.82,1.32,1.89,2.29,3.98,3.56,5.9-.61,1.88-1.38,3.7-1.84,5.62-.17.71.75,1.07,1.15.48,1.59-2.34,2.28-5.49,3.04-8.18.44-1.54.81-3.09,1.09-4.66.1.02.21,0,.3-.08,2.77-2.5,5.86-4.55,9.14-6.32,3.12-1.69,6.49-2.95,9.54-4.74.3-.18.1-.69-.24-.58Z"/>
          <path class="cls-3" d="M78.93,23.92c-4.25-.47-8.62-.33-12.88-.11-.4.02-.4.65,0,.63,4.31-.23,8.57-.05,12.88,0,.34,0,.32-.48,0-.52Z"/>
          <path class="cls-3" d="M42.93,23.77c-.02-1.17-.16-2.32-.62-3.41-.14-.31-.71-.16-.66.18.14,1.08.36,2.14.4,3.23.02.56.89.57.88,0Z"/>
        </g>
        <path class="cls-4" d="M81.79,64.69c-.56,2.55-1.77,5.33-3.7,8.33-6.95,10.76-19.49,13.39-21.36,13.65-1.87.26-1.78,2.2-1.95,3.56-.17,1.36-1.1,4.24-2.8,4.24s-1.1-1.1-1.19-3.05c-.08-1.95-.26-5-2.63-5.68-2.37-.68-18.82-1.86-24.5-9.49-2.13-2.86-2.89-6.35-2.54-10.02.58-6.1,4.23-12.66,9.74-17.53,8.81-7.8,28.73-9.49,44.07.68,5.47,3.63,8.3,8.72,6.84,15.32Z"/>
        <path class="cls-5" d="M81.79,64.69c-3.59,2.7-10.82,6.59-23.37,7.4-17.5,1.13-33.8-4.05-37.29-5.86.58-6.1,4.23-12.66,9.74-17.53,8.81-7.8,28.73-9.49,44.07.68,5.47,3.63,8.3,8.72,6.84,15.32Z"/>
        <g>
          <path class="cls-3" d="M31.78,55.8c3.15,1.48,6.46,2.56,9.85,3.31,3.09.68,6.63,1.44,9.79,1,.48-.07.45-.84,0-.94-3.22-.66-6.58-.61-9.82-1.29-3.25-.67-6.39-1.7-9.5-2.85-.44-.16-.76.57-.32.77Z"/>
          <path class="cls-3" d="M57.74,59.37c.71,0,1.64.14,2.31-.13.37-.15.37-.6,0-.76-.67-.27-1.6-.13-2.31-.13-.65,0-.65,1.01,0,1.01Z"/>
          <path class="cls-3" d="M67.52,58.09c.47-.11.99-.19,1.43-.41.32-.16.16-.65-.18-.65-.49,0-1,.17-1.47.28-.51.12-.3.92.22.79Z"/>
          <path class="cls-3" d="M72.89,64.94c-2.88.72-5.57,1.77-8.56,2.13-2.93.35-5.9.28-8.82-.15-.55-.08-.8.76-.23.85,5.62.92,12.81.79,17.87-2.21.33-.2.11-.71-.26-.61Z"/>
          <path class="cls-3" d="M42.8,66.65c-.64-.19-.9.79-.27.99,1.45.48,3.28,1.04,4.81.59.37-.11.36-.63,0-.74-1.46-.46-3.05-.42-4.53-.84Z"/>
          <path class="cls-3" d="M32.5,64.85c-.37-.17-.74-.34-1.11-.51-.61-.28-1.15.62-.53.91.39.18.78.37,1.18.55.38.18.73.37,1.15.4.4.03.57-.5.32-.76-.28-.29-.65-.42-1.01-.58Z"/>
          <path class="cls-3" d="M56.48,76.14c-5.48-.76-11.27.67-16.6-1.24-.53-.19-.74.64-.23.83,2.55.97,5.22,1.13,7.93,1.2,2.91.08,6.02.37,8.9-.12.33-.06.34-.64,0-.68Z"/>
          <path class="cls-3" d="M63.5,75.46c-.25,0-.25.38,0,.38s.25-.38,0-.38Z"/>
        </g>
      </g>
    </g>
  </g>
</svg>