<?xml version="1.0" encoding="UTF-8"?>
<svg id="Capa_2" data-name="Capa 2" xmlns="http://www.w3.org/2000/svg" viewBox="0 0 100 100">
  <defs>
    <style>
      .cls-1 {
        fill: none;
      }

      .cls-2 {
        fill: #4a2d2d;
      }

      .cls-3 {
        fill: #9bb533;
      }
    </style>
  </defs>
  <g id="COLOR">
    <g>
      <rect class="cls-1" width="100" height="100"/>
      <g>
        <path class="cls-3" d="M62.35,40.73s1.88-2.71,0-5.94-5.89-7.59-1.88-13.89c4-6.3,14.24-4.71,18.89.59,4.65,5.3,3.8,12.68-1.18,15.95-3.59,2.35-6.47,2.59-9.77,2.94-2.53.27-6.12,1.24-6.12,1.24l.06-.88Z"/>
        <path class="cls-3" d="M46.51,33.02s7.47-6.24,10.18-11.77c2.71-5.53.24-11.89-6.59-12.18-6.83-.29-10.21,5.77-10.3,10.89-.12,6.47,6.71,13.07,6.71,13.07Z"/>
        <path class="cls-3" d="M40.51,41.67s.24-11.3-.77-14.95c-1-3.65-6.18-9.18-13.01-6.89-6.83,2.3-8.89,9.12-4.77,14.95,4.12,5.83,11.71,6.47,14.07,6.59s4.47.29,4.47.29Z"/>
        <path class="cls-3" d="M37.92,62.03s-2-10.18-9.24-13.77c-7.24-3.59-14.6-1.24-16.6,6.12-2,7.36,1.87,12.89,8.36,13.77,5.59.77,10.59-3.41,13.01-4.47,2.41-1.06,4.47-1.65,4.47-1.65Z"/>
        <path class="cls-3" d="M47.4,54.03s-4.3-3.77-8.18-3.3-2.53,4.3-.06,4.65,4.12-.47,6.36-.35,2.65.29,2.65.29l-.77-1.29Z"/>
        <path class="cls-3" d="M46.34,48.38s.88-4.94,4.18-7.47c3.3-2.53,5.06-1.41,5.77.12.71,1.53-1.88,3.3-3.71,4.24-1.82.94-4.94,2.41-5.59,3.18s-.65-.06-.65-.06Z"/>
        <path class="cls-3" d="M57.11,52.5s3.24-3.41,6.53-3.94c3.3-.53,3.71.65,3.59,1.88s-1.82,1.88-4.36,2.35-5.83.82-5.83.82l.06-1.12Z"/>
        <path class="cls-3" d="M60.82,71.39s-.41-8.12,5.36-13.13c5.77-5,14.71-4.59,17.95-.12,3.24,4.47,1.12,12.42-6.12,15.01s-17.19-1.77-17.19-1.77Z"/>
        <path class="cls-2" d="M70.65,62.87c-2.17,1.1-4.13,2.81-5.99,4.37-1.97,1.65-3.93,3.36-5.7,5.22-2.09,2.19-4.53,4.88-6.13,7.79.11-1.81.25-3.61.44-5.42.6-5.61,1.48-11.19,3.06-16.61,1.42-4.87,3.11-9.65,5.36-14.2,1.07-2.16,2.25-4.26,3.53-6.3,1.38-2.19,3.14-4.21,4.37-6.47.31-.56-.4-1.09-.87-.67-1.79,1.59-3.18,3.88-4.45,5.89-1.4,2.2-2.67,4.49-3.82,6.83-2.24,4.56-4.14,9.33-5.49,14.23-.73,2.65-1.38,5.33-1.93,8.03-1.12-4.24-2.98-8.3-5.08-12.22-1.34-5.86-1.72-11.7-1.17-17.68.57-6.17,2.09-12.11,3.25-18.17.11-.6-.73-.84-.92-.25-1.92,5.89-2.87,12.27-3.5,18.43-.46,4.52-.63,9.23.15,13.74-.57-.99-1.13-1.97-1.69-2.94-3.77-6.53-8.48-12.48-13.92-17.69-.35-.34-.84.17-.53.53,4.96,5.64,9.55,11.67,13.52,18.05,3.92,6.31,6.29,13.27,9.37,19.98.04.08.09.13.15.17-.41,2.21-.78,4.42-1.06,6.65-.23,1.87-.4,3.76-.55,5.64-.2-.46-.41-.91-.61-1.35-.76-1.71-1.55-3.4-2.45-5.04-1.78-3.23-3.95-6.24-6.54-8.88-4.91-5.02-11.21-8.43-18.22-9.19-.57-.06-.71.92-.14,1.01,6.7,1.07,12.8,4.61,17.47,9.47,2.33,2.42,4.32,5.17,6.04,8.06.85,1.43,1.65,2.91,2.35,4.42.66,1.42,1.08,3.05,1.88,4.41,0,.08-.01.17-.02.25-.19,2.72-.53,5.68-.07,8.38.14.79,1.46.79,1.6,0,.43-2.41.28-4.98.32-7.45,1.02-1.76,1.86-3.59,3.04-5.27,1.41-2,3.06-3.77,4.78-5.49,1.61-1.61,3.26-3.16,5.01-4.62,1.92-1.6,4.07-2.97,5.91-4.66.55-.5-.15-1.3-.76-.99Z"/>
      </g>
    </g>
  </g>
</svg>