<?xml version="1.0" encoding="UTF-8"?>
<svg id="Capa_2" data-name="Capa 2" xmlns="http://www.w3.org/2000/svg" viewBox="0 0 100 100">
  <defs>
    <style>
      .cls-1 {
        fill: none;
      }

      .cls-2 {
        fill: #e5d2c4;
      }

      .cls-3 {
        fill: #f7ede4;
      }

      .cls-4 {
        fill: #4a2d2d;
      }

      .cls-5 {
        fill: #bc907b;
      }
    </style>
  </defs>
  <g id="COLOR">
    <g>
      <rect class="cls-1" width="100" height="100"/>
      <g>
        <path class="cls-2" d="M82.55,58.03c-1.34,5.27-5.68,8.59-11.18,10.58-2.49.9-5.22,1.53-8.03,1.95-6.72,1-22.46,2.81-35.47-2.11-4.41-1.67-8.51-4.11-11.84-7.62-8.59-9.07,1.22-26.02,5.11-32.95,3.89-6.93,13.26-12.65,28.7-12.89,15.44-.24,26.27,6.33,29.18,13.86,2.92,7.54,5.47,21.52,3.53,29.18Z"/>
        <path class="cls-5" d="M71.36,68.61c-2.49.9-5.22,1.53-8.03,1.95-6.72,1-22.46,2.81-35.47-2.11,1.07-4.6,3.49-11.63,8.74-15.11,8.18-5.41,21.08-4.56,26.91-.24,5.75,4.27,7.12,12.06,7.85,15.5Z"/>
        <path class="cls-4" d="M28.5,67.77c.5-.88.63-1.88.93-2.84.38-1.22.87-2.4,1.46-3.53,1.13-2.15,2.61-4.09,4.4-5.73,4.02-3.68,9.27-5.42,14.68-5.3,5.05.11,10.63,1.13,14.29,4.87,1.57,1.61,2.78,3.5,3.7,5.55.49,1.09.9,2.21,1.24,3.36.29,1,.41,2.06.92,2.98.22.39.67.41,1.11.2.79-.36-.75-5.22-1.58-7.21-.99-2.37-2.36-4.63-4.22-6.42-4.06-3.88-10-5.08-15.45-5.16s-11.11,2-15.3,5.66c-2.06,1.8-3.79,4.02-5.05,6.45-1.04,2-2.37,4.72-1.99,6.99.07.41.67.44.86.11h0Z"/>
        <path class="cls-4" d="M36.11,64.29c-.99-.63-2.13-1.02-3.2-1.5-.88-.4-2.04-1.27-3.02-1.29-.41,0-.83.58-.61.85.65.81,2.41,1.33,3.34,1.74,1,.44,2,.95,3.08,1.16.58.12.93-.64.41-.97h0Z"/>
        <path class="cls-4" d="M40.58,56.96c-.19-.81-.88-1.46-1.39-2.1-.27-.34-.54-.67-.8-1.01-.24-.32-.39-.67-.77-.85-.25-.12-.49-.05-.65.17-.53.76.37,1.56.81,2.12.59.74,1.19,1.81,2.05,2.24.4.19.84-.12.74-.57h0Z"/>
        <path class="cls-4" d="M46.44,55.73s.01,0,.02,0c.31-.06.63-.11.95-.11.03,0,.07,0,.1,0,.01-.82-.16-1.63-.27-2.44-.12-.85-.01-2.76-.5-3.48-.23-.35-1.03-.12-1.16.3-.23.79.23,2.33.36,3.13.14.87.22,1.76.5,2.6Z"/>
        <path class="cls-4" d="M54.49,56.2c.35-1.12.59-2.21.75-3.38.13-.93.35-1.88.15-2.81-.08-.36-.68-.47-.83-.11-.41.95-.4,2.04-.54,3.06s-.26,2.08-.35,3.13c-.04.48.69.54.82.11h0Z"/>
        <path class="cls-4" d="M60.84,58.35c.57-.6.91-1.4,1.37-2.08s1.53-1.59,1.86-2.37c.18-.42-.12-.99-.55-.79-.78.36-1.71,1.64-2.21,2.32-.52.72-1.14,1.57-1.26,2.47-.06.42.43.84.79.46h0Z"/>
        <path class="cls-4" d="M63.86,64.77c1.01-.44,1.92-1.09,2.89-1.6s1.98-.93,2.89-1.57c.28-.2.22-.74-.19-.71-2.13.16-4.73,1.57-6.09,3.22-.31.38.07.86.51.66h0Z"/>
        <path class="cls-4" d="M74.43,60.61c.36-.07.71-.24,1-.46.34-.26.68-.76.63-1.21-.05-.48-.35-.83-.86-.86-.57-.03-1.08.4-1.56.65-.45.23-.61.84-.42,1.28.21.49.7.7,1.21.59h0Z"/>
        <path class="cls-4" d="M74.49,56.57l.17-.27c.16-.25.19-.55.1-.83-.1-.34-.4-.56-.75-.57-.29,0-.57.1-.76.31l-.22.24c-.38.41-.36,1.04.09,1.38s1.06.21,1.36-.26h0Z"/>
        <path class="cls-4" d="M23.87,59.99c.07.22.14.45.31.62.06.06.15.12.22.16.01,0,.03.02.05.02.21.11.47.18.71.1.14-.05.28-.12.39-.23.04-.04.13-.15.15-.19.03-.06.06-.13.08-.18.06-.13.09-.25.08-.41,0-.09-.02-.2-.05-.29-.01-.04-.03-.09-.05-.13-.03-.13-.09-.24-.18-.33-.07-.11-.16-.19-.28-.25-.11-.07-.24-.11-.37-.12-.13-.03-.26-.02-.39.02-.24.08-.47.22-.59.45s-.17.5-.1.76h0Z"/>
        <path class="cls-3" d="M61.82,58.48c-3.8-3.8-16.15-3.56-19.83-2.26s-5.58,3.09-6.89,9.5-2.61,16.98,1.9,18.76,18.68,3.11,22.67,1.78c2.85-.95,4.87-2.97,5.22-6.29.19-1.77.71-17.69-3.09-21.49Z"/>
        <path class="cls-4" d="M40.72,62.38c.75.02,2.43.22,2.43-.94s-1.68-.97-2.43-.94c-1.21.04-1.21,1.84,0,1.88h0Z"/>
        <path class="cls-4" d="M40.19,66.08c.31-.04.62-.09.94-.13.26-.04.48-.37.47-.62s-.19-.58-.47-.62c-.31-.04-.62-.09-.94-.13-.28-.04-.55-.02-.76.2-.14.15-.23.34-.23.55,0,.2.09.41.23.55.22.22.47.24.76.2h0Z"/>
      </g>
    </g>
  </g>
</svg>