<?xml version="1.0" encoding="UTF-8"?>
<svg id="Capa_2" data-name="Capa 2" xmlns="http://www.w3.org/2000/svg" viewBox="0 0 100 100">
  <defs>
    <style>
      .cls-1 {
        fill: #fff5da;
      }

      .cls-2 {
        fill: none;
      }

      .cls-3 {
        fill: #be7a65;
      }

      .cls-4 {
        fill: #4a2d2d;
      }
    </style>
  </defs>
  <g id="COLOR">
    <g>
      <rect class="cls-2" width="100" height="100"/>
      <g>
        <path class="cls-3" d="M24.34,50.4s5.61-5.83,10.15-9.18c4.53-3.35,17.6-14.25,23-17.81,5.4-3.56,13.28-11.55,21.92-11.01,8.64.54,11.01,6.8,10.8,12.09s-3.99,16.73-6.59,22.78c-2.59,6.05-8.96,12.2-12.96,15.12-3.99,2.92-7.99,5.72-11.23,8.96s-9.29,5.18-14.79,8.21c-5.51,3.02-10.9,6.48-13.93,5.29s-12.52-28.61-6.37-34.44Z"/>
        <path class="cls-1" d="M43.34,53.42s-1.62-6.69-10.15-7.23-14.79,8.53-16.95,19.11c-2.16,10.58-.11,17.17,6.48,19.76,6.59,2.59,11.77,1.19,15.33-3.24,3.56-4.43,5.61-9.07,6.8-15.01,1.19-5.94-1.51-13.39-1.51-13.39Z"/>
        <path class="cls-4" d="M42.76,49.93c-.38-.48-.79-.92-1.25-1.32-3.21-2.88-8.24-3.9-12.34-2.61-8.47,2.66-12.26,11.08-13.9,19.12-1.49,7.31-1.64,16.21,5.82,20.35,3.45,1.91,8.28,2.4,12.06,1.03,3.84-1.39,6.45-4.41,8.43-7.82,2.71-4.66,4.45-10,4.68-15.4.18-4.38-.63-9.76-3.5-13.35ZM42.02,72.05c-1.28,3.25-3.72,7.64-6.17,10.16-2.85,2.93-6.34,3.62-10.28,2.77-3.44-.74-6.36-2.87-7.88-6.24-1.33-2.95-1.29-6.41-.95-9.56.73-6.77,2.92-14.21,8.4-18.67,2.99-2.44,7.04-3.87,10.86-2.84,4.33,1.17,6.21,5.12,7.1,9.18,1.13,5.18.87,10.3-1.08,15.21Z"/>
        <path class="cls-4" d="M51.62,56.26c2.07-.65,2.41,2.31,2.46,3.65.02.39.6.5.7.09.3-1.3.37-2.65-.52-3.75-.69-.86-1.84-1.31-2.9-.93-.58.21-.35,1.13.26.94h0Z"/>
        <path class="cls-4" d="M65.47,47.89c.49-.25,1.12-.23,1.53.16.36.35.38.83.56,1.27.13.33.6.46.8.1.46-.8-.07-1.81-.74-2.31-.78-.58-1.83-.57-2.64-.07-.53.33-.06,1.13.49.84h0Z"/>
        <path class="cls-4" d="M59.4,32c1.15.14,1.32,1.34,1.32,2.26,0,.34.46.57.7.29,1.24-1.44-.49-3.45-2.02-3.57-.66-.05-.64.94,0,1.02h0Z"/>
        <path class="cls-4" d="M76.07,24.44c.58-.08,1.16.08,1.53.56s.39,1.13.34,1.72c-.04.46.57.52.78.21.59-.82.38-1.97-.27-2.7s-1.62-.94-2.52-.75c-.53.11-.42,1.03.13.96h0Z"/>
        <path class="cls-4" d="M72.67,37.53c.75-.23,1.51-.09,2.14.37.64.46.75,1.1,1.18,1.69.21.29.68.27.79-.1.28-.97-.62-1.98-1.38-2.46-.88-.56-1.98-.72-2.96-.36-.53.19-.32,1.02.24.85h0Z"/>
        <path class="cls-4" d="M49.85,42.39c.43,0,.83.11,1.2.33s.62.53.96.75c.32.2.74-.13.64-.49-.33-1.09-1.78-1.58-2.8-1.57-.64,0-.64.98,0,.99h0Z"/>
        <path class="cls-4" d="M22.1,61.6c1.42-.11,2.7.2,4.08.48.43.09.73-.51.31-.74-1.32-.73-2.9-.84-4.39-.75-.64.04-.64,1.05,0,1h0Z"/>
        <path class="cls-4" d="M23.29,68.11c.9-.03,1.76.15,2.6.49.38.15.63-.46.28-.66-.89-.5-1.85-.72-2.87-.71-.56,0-.56.9,0,.88h0Z"/>
        <path class="cls-4" d="M32.69,78.45c-.72.22-1.44.04-2.08-.32-.42-.24-.74.28-.48.62.67.86,1.84,1.06,2.84.75.67-.21.38-1.26-.29-1.05h0Z"/>
        <path class="cls-4" d="M40.77,55.18c-.56-.1-1-.38-1.44-.71-.36-.28-.75.24-.58.58.34.65,1.02,1.06,1.72,1.2s.99-.95.29-1.07h0Z"/>
      </g>
    </g>
  </g>
</svg>