<?xml version="1.0" encoding="UTF-8"?>
<svg id="Capa_2" data-name="Capa 2" xmlns="http://www.w3.org/2000/svg" viewBox="0 0 100 100">
  <defs>
    <style>
      .cls-1 {
        fill: none;
      }

      .cls-2 {
        fill: #be7a65;
      }

      .cls-3 {
        fill: #4a2d2d;
      }
    </style>
  </defs>
  <g id="COLOR">
    <g>
      <rect class="cls-1" width="100" height="100"/>
      <g>
        <path class="cls-2" d="M84.78,5.17c-8.05-1.65-24.89,13.73-31.2,19.12-6.31,5.4-24.43,24.61-31.2,32.12-6.77,7.5-14.27,17.29-14.91,24.34-.64,7.05,3.75,13.27,15.19,12.17,11.44-1.1,31.02-17.84,37.97-23.24l6.95-5.4s12.17-12.35,15.83-17.2c4.56-6.04,7.28-15.07,8.33-20.31,1.92-9.61,1.1-19.95-6.95-21.59Z"/>
        <path class="cls-3" d="M17.35,76.4c.5-.21,1.49-.59,1.9-.05.22.29.21.84.27,1.18.08.42.16.83.37,1.2.15.26.61.23.67-.09.13-.65,0-1.38-.14-2.03-.1-.49-.31-.93-.74-1.21-.85-.54-1.94-.13-2.76.25-.5.23-.06.95.43.74h0Z"/>
        <path class="cls-3" d="M26.91,68.09c.33-.06.66,0,.96.15s.55.51.92.49c.19,0,.35-.13.41-.31.17-.56-.48-1.01-.92-1.21-.52-.23-1.09-.25-1.63-.11-.64.17-.37,1.1.27.98h0Z"/>
        <path class="cls-3" d="M30.87,72.78c1.44-.93,2.75.54,2.46,1.99-.07.34.34.5.55.23.67-.91.45-2.22-.4-2.94-.86-.73-2.18-.73-3.08-.08-.47.34-.04,1.12.46.79h0Z"/>
        <path class="cls-3" d="M34.64,54.3c.34,0,.66.1.95.27s.51.45.81.61c.38.21.75-.13.68-.52-.08-.5-.61-.89-1.05-1.08-.49-.21-.99-.25-1.51-.15s-.37.86.12.87h0Z"/>
        <path class="cls-3" d="M43.03,65.21c.37-.14.73-.1,1.07.12.29.19.66.55.76.88.12.4.67.3.7-.1.07-.75-.2-1.33-.84-1.75-.58-.38-1.35-.49-2-.25s-.39,1.34.3,1.09h0Z"/>
        <path class="cls-3" d="M40.79,59.22c.26.15.53.29.79.44.32.19.67-.25.4-.52-.22-.21-.42-.43-.63-.65-.19-.2-.53-.17-.69.05s-.11.55.13.68h0Z"/>
        <path class="cls-3" d="M41.82,43.45c1.56-.67,2.7.5,3.15,1.88.09.26.5.3.57,0,.24-.99-.23-1.96-1.05-2.54-.94-.67-2.13-.63-3.11-.1-.51.28-.06.97.44.76h0Z"/>
        <path class="cls-3" d="M47.63,49.77c.17,0,.33.02.49.08s.33.16.51.18c.37.05.63-.26.47-.61-.23-.51-.96-.65-1.46-.64-.63.02-.63.99,0,.98h0Z"/>
        <path class="cls-3" d="M55.12,58.73c1.71-.17,1.82,1.91,2.63,2.9.17.21.55.09.61-.16.44-1.9-1.33-4.23-3.37-3.73-.54.13-.44,1.05.13.99h0Z"/>
        <path class="cls-3" d="M60.98,52.9c.33-.88-.31-2.34-1.42-2.08-.4.09-.45.57-.22.85.14.16.34.3.44.46s.11.28.06.46c-.09.31.11.65.42.73.34.09.62-.11.73-.42h0Z"/>
        <path class="cls-3" d="M51.37,35.37c.29.08.56.23.81.39.29.19.81.36.95-.11.12-.4-.28-.72-.6-.88s-.69-.21-1.05-.19c-.44.02-.56.66-.11.78h0Z"/>
        <path class="cls-3" d="M57.02,42.38c1.16-.49,2.05.35,2.75,1.16.22.25.73.06.69-.29-.2-1.77-2.49-2.3-3.88-1.62-.51.25-.06.96.44.75h0Z"/>
        <path class="cls-3" d="M67.78,48.75c.32.44.63.94,1.06,1.29.22.18.69.02.55-.32-.2-.51-.56-.95-.88-1.4-.13-.18-.37-.28-.58-.15-.18.11-.29.39-.15.58h0Z"/>
        <path class="cls-3" d="M74.89,42.51c-.16-1.26-1.29-2.44-2.64-2.15-.28.06-.29.53,0,.58.83.15,1.69.65,1.81,1.57.07.52.9.53.83,0h0Z"/>
        <path class="cls-3" d="M62.39,32.16c.84-.15,1.53.46,2.02,1.06.17.21.57.04.55-.23-.11-1.35-1.6-1.99-2.81-1.68-.56.14-.31.94.23.85h0Z"/>
        <path class="cls-3" d="M62.37,24.56c1.37-.27,2.34.5,3.24,1.4.27.27.72,0,.63-.37-.42-1.71-2.6-2.33-4.1-1.84-.52.17-.3.91.22.81h0Z"/>
        <path class="cls-3" d="M71.6,34.76s.09,0,.13,0c.03,0,.03,0,0,0h.05s.08.03.12.05c.07.03-.07-.05.05.03.15.09.24.17.39.27.23.15.47-.06.5-.29.07-.64-.69-1.06-1.24-1.03-.26.02-.48.21-.48.48,0,.25.22.5.48.48h0Z"/>
        <path class="cls-3" d="M80.38,34.52c.37,0,.7.17.91.47.23.32.23.66.36,1.02.08.23.43.4.62.16.43-.54.21-1.31-.2-1.8s-1.04-.81-1.7-.76c-.58.04-.59.92,0,.91h0Z"/>
        <path class="cls-3" d="M79.14,28.23c-.14-2.63-2.9-4.17-5.1-2.59-.29.21-.05.63.28.48,1.7-.76,3.73.23,3.94,2.11.06.54.9.57.87,0h0Z"/>
        <path class="cls-3" d="M75.31,16.08c.3.09.58.21.85.37s.52.39.82.48.64-.21.52-.52c-.27-.71-1.24-1.1-1.92-1.3-.62-.18-.89.78-.27.97h0Z"/>
        <path class="cls-3" d="M82.95,20.36c.86.03,1.19.68,1.6,1.32.17.26.67.27.74-.1.22-1.28-1.19-2.24-2.34-2.28-.68-.02-.68,1.03,0,1.06h0Z"/>
        <path class="cls-3" d="M26.58,83.53c.16,0,.32.09.44.19.18.15.25.36.46.49.17.1.45.05.53-.14.11-.24.1-.42-.02-.65-.1-.19-.25-.34-.42-.46-.33-.23-.71-.29-1.1-.2-.46.1-.33.76.11.78h0Z"/>
      </g>
    </g>
  </g>
</svg>