<?xml version="1.0" encoding="UTF-8"?>
<svg id="Capa_2" data-name="Capa 2" xmlns="http://www.w3.org/2000/svg" viewBox="0 0 100 100">
  <defs>
    <style>
      .cls-1 {
        fill: #fff;
      }

      .cls-2 {
        fill: none;
      }

      .cls-3 {
        fill: #4a2d2d;
      }

      .cls-4 {
        fill: #51780a;
      }
    </style>
  </defs>
  <g id="COLOR">
    <g>
      <rect class="cls-2" width="100" height="100"/>
      <g>
        <path class="cls-4" d="M82.16,23.05c-1.34.22-2.76-.05-4.05-.4-1.07-.29-2.09-.68-3.01-1.31-1.97-1.36-5.05-3.35-4.54-5.89-2.78.03-5.37.45-6.8,1.3-3.96,2.35-11.05,13.46-17.07,22.36-6.02,8.91-10.82,15.63-15.67,19.77-4.85,4.13-16.88,11.32-18.39,19.65-1.51,8.33,4.1,18.78,19.73,17.54,15.63-1.24,25.45-15.39,32.21-27.53,6.76-12.14,12.23-24.4,15.01-33.91,1.68-5.76,2.6-9.11,2.79-11.62-.07.02-.14.03-.21.04Z"/>
        <path class="cls-3" d="M84.93,18.05c-.83-1.88-.35-2.41.61-4.02.63-1.06,1.26-2.13,1.22-3.41-.17-4.51-6.63-8.01-10.06-4.7-1.74,1.68-2.24,4.2-4.26,5.63-1.36.96-3.1,1.72-4.1,3.13-1.4,1.98.75,3.53,2.1,4.85,1.16,1.13,2.46,2.1,3.85,2.93,2.07,1.24,4.77,2.78,7.22,1.72,1.81-.78,4.47-2.84,3.89-5.11-.1-.37-.31-.68-.46-1.02ZM84.22,12.3c-.72,1.56-1.94,2.8-1.81,4.65.04.64.3,1.06.51,1.64.5,1.36-.09,2.08-1.27,2.9-2.04,1.41-4.43.51-6.28-.76-1.04-.71-1.99-1.57-2.89-2.45-.49-.48-2.46-2.23-1.27-3.27.82-.72,1.52-1.02,2.43-1.64,1.25-.79,1.98-1.52,2.76-2.77.19-.3.36-.63.53-.95,1.29,2.06,3.91,3.65,6.23,2.64.6-.26.47-1.05-.05-1.3-.95-.46-1.99-.71-2.91-1.25-.82-.49-1.49-1.2-2.09-1.94.3-.32.65-.59,1.08-.78,1.27-.54,2.6.05,3.63.85,1.45,1.13,2.24,2.59,1.39,4.43Z"/>
        <path class="cls-3" d="M20.95,81.31c9.5-6.79,18.01-15.05,25.47-24.01,3.8-4.57,7.33-9.36,10.58-14.33,1.56-2.39,3.04-4.82,4.46-7.3,1.4-2.44,3.14-5.05,3.97-7.75.16-.52-.52-.94-.86-.47-1.65,2.27-2.75,5.02-4.14,7.47-1.41,2.48-2.89,4.92-4.44,7.31-3.17,4.89-6.62,9.58-10.34,14.06-7.51,9.05-16.1,16.98-25.31,24.25-.51.4.12,1.13.63.76h0Z"/>
        <path class="cls-3" d="M34.48,86.87c9.07-7.05,16.96-15.79,23.56-25.17,3.23-4.6,6.17-9.41,8.79-14.38,2.57-4.88,5.58-10.35,6.73-15.78.13-.6-.73-.67-.96-.23-1.33,2.49-2.19,5.26-3.33,7.85-1.1,2.49-2.28,4.94-3.53,7.36-2.64,5.1-5.63,10.01-8.95,14.7-6.56,9.29-14.37,17.42-22.93,24.89-.47.41.12,1.14.62.75h0Z"/>
        <path class="cls-1" d="M18.58,75.36c.16.03.18.03.06,0,.09.02.17.05.26.07.15.05.3.09.46.14.59.17,1.04.25,1.64.03s.97-1.16.63-1.72c-.23-.38-.47-.62-.87-.82-.26-.13-.54-.19-.83-.23-.47-.07-.97-.02-1.44.06-.61.1-1.04.67-1.01,1.27.03.65.5,1.07,1.11,1.19h0Z"/>
        <path class="cls-1" d="M25,70.33h.44c.18.02.35,0,.51-.06.17-.04.31-.11.44-.23.25-.2.45-.56.47-.88s-.06-.69-.29-.95l-.24-.23c-.19-.14-.4-.22-.64-.24l-.43-.08c-.32-.06-.74.1-.98.3-.25.21-.46.57-.48.91s.06.72.3.98c.23.25.56.48.91.48h0Z"/>
      </g>
    </g>
  </g>
</svg>