<?xml version="1.0" encoding="UTF-8"?>
<svg id="Capa_2" data-name="Capa 2" xmlns="http://www.w3.org/2000/svg" viewBox="0 0 100 100">
  <defs>
    <style>
      .cls-1 {
        fill: #72ab4c;
      }

      .cls-2 {
        fill: #fff;
      }

      .cls-3 {
        fill: none;
      }

      .cls-4 {
        fill: #ef2b45;
      }

      .cls-5 {
        fill: #4a2d2d;
      }

      .cls-6 {
        fill: #fee7a9;
      }
    </style>
  </defs>
  <g id="COLOR">
    <g>
      <g>
        <path class="cls-4" d="M68.25,26.91c-5.7-2.44-11.66-.39-16.72,2.62.06-.04-.92.62-.95.79-.02,0-.05-.02-.07-.01-.24.02-.58-.11-.86-.2-.2,2.47.16,5.02.17,7.48,0,.45-.42.73-.84.64-.74-.16-1.15-.83-1.38-1.5-.52-1.53-.4-3.32-.27-4.91.06-.74.15-1.49.28-2.22-.69-.17-1.39-.34-2.08-.51-3.41-.84-6.8-1.72-10.21-2.55-1.86-.45-4.32-1.59-6.19-.86-5.01,1.94-9.14,6.2-11.74,10.82-3,5.36-3.36,11.53-1.82,17.41,1.77,6.77,5.88,12.98,10.51,18.13,2.19,2.43,4.76,4.81,7.7,6.3,3.09,1.56,6.31,1.39,9.39-.03.07-.03.12-.07.17-.11,1.96-.44,3.75-1.21,5.4-2.45.29-.22,1.02-1.06,1.35-1.11.65-.09,1.25.84,1.69,1.21.8.67,1.69,1.22,2.63,1.65,4.21,1.95,9.11,1.42,12.98-1.1,4.27-2.78,7.09-7.57,9.03-12.17,1.83-4.34,3.52-8.81,3.52-13.56,0-.09-.02-.17-.04-.24.76-9.35-2.77-19.73-11.66-23.53Z"/>
        <g>
          <path class="cls-4" d="M83.84,57.39c-2.61-1.53-4.18-1.56-12.26-.21-8.08,1.35-26.08,5.17-27.28,6.17s-2.13,7.3-1.63,12.33,1.13,8.36,6.09,11.2c4.96,2.83,16.28,4.15,26.7.75,10.42-3.4,13.91-12.3,13.84-17.9-.07-5.6-.99-9.71-5.46-12.33Z"/>
          <path class="cls-6" d="M87.24,64.2c-.59-3.23-1.87-5.24-3.3-6.74-.03-.02-.07-.04-.1-.06-2.61-1.53-4.18-1.56-12.26-.21-7.51,1.25-23.57,4.64-26.78,5.91.34,2.8,1.46,8.64,5.03,13.5,4.89,6.66,14.53,10.84,25.37,7.09,10.84-3.76,13.04-14.03,12.05-19.49Z"/>
        </g>
        <path class="cls-1" d="M47.82,30.33c0-.05-.02-.11-.04-.16-.01-.06-.04-.12-.07-.17-3.44-8.97-11.57-15.56-21.1-16.99-.48-.07-.95.19-.96.73-.08,6.03.07,12.17,5.1,16.27,4.6,3.75,11.08,4.44,16.63,2.66.38-.12.7-.48.69-.91-.02-.48-.15-.96-.26-1.42Z"/>
        <path class="cls-5" d="M80.87,55.58c-1.71-.15-3.6.39-5.27.65-3.31.52-6.64.99-9.93,1.64-3.78.75-7.54,1.61-11.31,2.39-3.21.66-6.54,1.2-9.64,2.27-.04.01-.07.04-.1.06-.27-.09-.58-.02-.77.32-1.45,2.68-2.3,6-2.23,9.05.06,2.92.17,6.46,1.61,9.08.25.45.82.11.76-.32-.42-2.88-1.19-5.55-.94-8.51.26-3.01.73-5.83,2.04-8.58.05-.11.07-.23.07-.33,2.94-.41,5.86-1.13,8.77-1.72,3.85-.78,7.71-1.43,11.58-2.07,3.36-.56,6.69-1.28,10.04-1.85,1.68-.28,3.6-.76,5.32-.65.93.06.91-1.35,0-1.43Z"/>
        <path class="cls-5" d="M70.88,61.97s-.05-.02-.08-.02c-1.88-.3-4-.27-5.71.69-1.05.59-2.43,2.02-2.01,3.37.46,1.49,2.61,1.15,3.68.78,2.02-.7,3.3-2.28,4.61-3.88.35-.43-.06-1.02-.49-.94Z"/>
        <path class="cls-5" d="M55.29,16.94c-1.49-.72-3.23-.15-4.4.91-2.44,2.2-2.98,6.38-3.56,9.43-.24,1.28-.38,2.57-.44,3.86-1.87-2.05-3.85-4.05-5.91-5.97-.28-2.14-.74-4.39-1.51-6.38-.14-.37-.83-.37-.77.1.22,1.82.83,3.62,1.32,5.41-3.66-3.32-7.55-6.41-11.55-9.13-.31-.21-.69.28-.4.52,2.9,2.43,5.84,4.81,8.73,7.24-2.31.41-4.65,1.3-6.89,1.82-.54.13-.31.95.23.83,2.41-.53,5.24-.9,7.54-1.92,1.58,1.35,3.14,2.72,4.66,4.13-2.66.59-5.27,1.55-7.79,2.55-.45.18-.26.91.2.73,2.7-1.02,5.51-1.72,8.22-2.68,1.33,1.25,2.63,2.54,3.89,3.87-.03,1.76.05,3.53.2,5.29-.43-.17-.84-.44-1.19-.78-.72-.71-1.77.36-1.1,1.1,2.17,2.4,7.33,2.2,7.86-1.62.11-.82-.82-1.25-1.33-.56-.24.32-.48.62-.73.91-.35-2.81.26-5.86.91-8.46.43-1.73.99-3.28,1.99-4.78.81-1.22,2.09-1.92,2.91-3.11.88-1.27.23-2.69-1.07-3.32ZM54.11,20.53c-2.27,2.05-3.58,4.71-4.27,7.66-.4,1.7-.61,3.43-.81,5.16-.17,1.49-.31,2.87.11,4.25-.08.03-.15.07-.24.1-.19.05-.38.07-.56.08-.13-3.04-.14-5.99.15-9.03.23-2.4.99-6.1,2.37-8.54.69-1.22,1.99-2.51,3.53-2.1,1.85.49.52,1.69-.28,2.42Z"/>
        <path class="cls-2" d="M22.03,38.83c-.68,1.69-1.94,5.97-.66,7.65,3.27,4.31,10.01-7.89,7.85-11.47-1.61-2.67-4.22-.59-5.62,1.12-.67.82-1.19,1.73-1.57,2.69Z"/>
      </g>
      <rect class="cls-3" width="100" height="100"/>
    </g>
  </g>
</svg>