<?xml version="1.0" encoding="UTF-8"?>
<svg id="Capa_2" data-name="Capa 2" xmlns="http://www.w3.org/2000/svg" viewBox="0 0 100 100">
  <defs>
    <style>
      .cls-1 {
        fill: #72ab4c;
      }

      .cls-2 {
        fill: #fff;
      }

      .cls-3 {
        fill: #ffd0a5;
      }

      .cls-4 {
        fill: none;
      }

      .cls-5 {
        fill: #4a2d2d;
      }

      .cls-6 {
        fill: #945031;
      }

      .cls-7 {
        fill: #feac5e;
      }
    </style>
  </defs>
  <g id="COLOR">
    <g>
      <g>
        <g>
          <path class="cls-1" d="M81.93,42.81c.3-.42.6-.84.9-1.26-.23-3.16-1.1-9.24-4.29-15.25-4.6-8.66-11.08-11.32-11.78-10.22s-1.56,13.97,3.9,19.59c4.01,4.12,8.72,6.56,10.95,7.57.11-.14.22-.28.32-.42Z"/>
          <path class="cls-5" d="M86.35,33.89c-2.79-2.46-3.46,4.18-3.68,5.39-.12.65-.25,1.24-.39,1.79-2.67-7.04-7.19-13.25-12.18-18.83-.36-.4-.93.18-.59.59,5.09,6.02,8.96,12.53,12.19,19.7.02.05.06.09.09.13-.81,2.27-1.74,3.38-2.07,3.82-.13.17-1.63,1.82-1.97,2.14.05.07.09.14.14.19.22.23.45.41.72.54,1.42-1.27,2.52-2.83,3.47-4.56,1.44-2.6,1.72-5.23,2.38-8.08.09-.42,1.13-2.46,1.37-.2.06.6-.12,2.54-2.22,7.45-1.05,2.44-2.53,3.83-4.19,5.67.53.13,1.02.18,1.59.17,1.99-1.87,3.5-4.53,4.48-6.92.66-1.6,1.12-3.27,1.36-4.99.17-1.21.57-3.08-.48-4.01Z"/>
          <path class="cls-5" d="M28.9,32.74c.04-.11.05-.25.04-.37-.04-1.61-.27-3.19-.37-4.79-.09-1.45-.34-2.61-1.16-3.83-1.34-2-3.82-4.56-6.53-3.49-2.52,1,.45,3.09,1.47,3.82,1.5,1.08,2.19,2.77,2.7,4.48.35,1.16.51,4.83,2.39,4.74.59-.03.86-.15,1.28-.36.09-.04.14-.12.17-.21ZM27.09,32.64c.07-1.5-.43-4.18-.87-5.53-.57-1.71-1.46-3.02-2.96-4.03-.36-.24-1.45-.7-1.54-1.1-.22-.96,1.33-.44,1.87-.18,1.26.6,2.27,1.89,2.95,3.08,1.14,1.96,1.02,5.58,1.36,7.88-.18-.04-.62-.07-.8-.12Z"/>
          <path class="cls-7" d="M44.27,83.27c-10.93,6.32-28.33-1.56-35.9-16-7.57-14.44-5.46-25.13,1.01-31.45,0,0,4.45-4.84,9.52-5.07,2.5-.12,4.49.28,6.03.64,1.53.35,2.61.67,3.28.4.02,0,.04-.02.06-.02,1.32-.62,3.04-4.37,12.17-4.06,9.13.31,14.28,8.9,15.3,20.13,1.01,11.24-.55,29.11-11.47,35.43Z"/>
          <path class="cls-7" d="M79.39,49.08s-4.29-7.02-8.43-8.43c-4.14-1.4-11.63,0-16.47,4.76s-10.22,12.8-9.83,23.26c.39,10.46,3.04,17.25,12.02,21.23,8.98,3.98,22.63,2.81,33.09-8.43,10.46-11.24,7.8-22.63,6.32-25.83s-6.01-5.93-8.98-5.93-7.73-.62-7.73-.62Z"/>
          <path class="cls-3" d="M82.9,49.08c-1.48.07-3.95.11-5.34-2.56s-4.16-7.47-12.71-6.73c-8.54.75-18.15,8.75-20.18,20.39s-1.84,22.61,11.85,26.59c12.49,3.63,27.76-4.59,35.23-16.55s2.56-17.3-.21-19.43c-2.78-2.14-6.45-1.82-8.65-1.71Z"/>
          <g>
            <path class="cls-6" d="M59.9,64.98c-.08-.13-.12-.24-.15-.38-.06-.22-.06-.45,0-.67.06-.21.17-.4.32-.56.11-.12.25-.21.41-.26.15-.08.31-.12.49-.11.23,0,.44.06.64.17.09.07.17.13.26.2.16.16.26.34.32.56.06.22.06.45,0,.67,0,.02,0,.03,0,.05,0,.06-.03.12-.07.17-.02.06-.04.11-.07.16-.23.37-.63.62-1.07.62s-.84-.24-1.07-.62ZM61.68,70.1c-.89,0-.88-1.37,0-1.37s.88,1.37,0,1.37ZM64.81,59.58c-.14-.1-.29-.2-.37-.37,0-.02-.01-.03-.02-.05-.09-.16-.14-.33-.14-.52,0-.18.05-.36.14-.52.18-.31.52-.51.88-.51s.7.2.88.51c.09.16.14.33.14.52,0,.18-.05.36-.14.52,0,.02-.01.03-.02.05-.08.17-.23.26-.37.37-.15.09-.32.13-.49.13-.18,0-.34-.05-.49-.13ZM66.04,64.19c-.06-.04-.12-.09-.17-.13-.11-.11-.18-.23-.22-.38-.01-.08-.02-.15-.03-.23,0-.12.02-.23.07-.33.03-.11.09-.2.18-.28.08-.08.17-.14.28-.18.1-.05.21-.08.33-.07.16,0,.3.04.43.12l.17.13c.11.11.18.23.22.38.01.08.02.15.03.23,0,.12-.02.23-.07.33-.03.11-.09.2-.18.28-.08.08-.17.14-.28.18-.1.05-.21.08-.33.07-.16,0-.3-.04-.43-.12ZM67.76,68.08c-1.29,0-1.29-2.01,0-2.01s1.29,2.01,0,2.01ZM70.08,56.42c-.09.04-.18.07-.26.11-.1.01-.2.03-.29.04-.15,0-.29-.03-.43-.1-.09-.03-.18-.07-.24-.14-.12-.08-.22-.18-.29-.31-.04-.09-.07-.18-.11-.26,0-.03-.02-.06-.02-.09-.11-.39,0-.82.29-1.1.1-.11.22-.19.36-.23.14-.07.28-.1.44-.1.2,0,.4.05.57.15.08.06.15.12.23.18.14.14.24.31.29.5.05.2.05.4,0,.6,0,.03-.02.06-.02.09-.03.14-.1.27-.2.38-.08.12-.18.22-.31.29ZM71.39,58.83c1.28,0,1.27,1.98,0,1.98s-1.27-1.98,0-1.98ZM73.27,64.53c-.05.16-.14.3-.27.42-.12.13-.26.22-.42.27-.15.08-.32.12-.5.11-.23,0-.45-.06-.66-.18-.09-.07-.18-.14-.26-.2-.16-.16-.27-.35-.33-.57l-.05-.34c0-.18.03-.35.11-.5.05-.16.14-.3.27-.42.12-.13.26-.22.42-.27.15-.08.32-.12.5-.11.23,0,.45.06.66.18.09.07.18.14.26.2.16.16.27.35.33.57.02.11.03.23.05.35,0,.18-.03.35-.11.5ZM74.41,54.94c-.14.08-.28.12-.44.12-.16,0-.3-.04-.44-.12-.02-.01-.04-.03-.06-.04-.12-.07-.22-.17-.29-.29-.07-.13-.11-.26-.11-.41,0-.15.04-.28.11-.41.07-.12.17-.22.29-.29.02-.01.04-.03.06-.04.14-.08.28-.12.44-.12.16,0,.3.04.44.12.26.15.43.44.43.75s-.17.59-.43.75ZM76.19,58.77c-1.07,0-1.07-1.66,0-1.66s1.07,1.66,0,1.66Z"/>
            <g>
              <path class="cls-6" d="M63.99,73.74c4.92-.66,9.92-3.43,12.92-7.4,1.72-2.27,2.85-5.02,3.05-7.87.16-2.33-.12-5.3-2.07-6.8-.05-.06-.11-.11-.2-.15-4.31-1.97-9.77-.64-13.47,2.06-3.89,2.83-6.29,7.38-6.81,12.13-.49,4.5,1.44,8.73,6.59,8.04Z"/>
              <path class="cls-5" d="M73.47,54.9s.04.03.06.04c.14.08.28.12.44.12.16,0,.3-.04.44-.12.26-.15.43-.44.43-.75s-.17-.59-.43-.75c-.14-.08-.28-.12-.44-.12-.16,0-.3.04-.44.12-.02.01-.04.03-.06.04-.12.07-.22.17-.29.29-.07.13-.11.26-.11.41,0,.15.04.28.11.41.07.12.17.22.29.29Z"/>
              <path class="cls-5" d="M68.45,55.76c.04.09.07.18.11.26.07.13.16.23.29.31.07.07.15.12.24.14.13.07.27.1.43.1.1-.01.2-.03.29-.04.09-.04.18-.07.26-.11.13-.07.23-.16.31-.29.1-.11.16-.23.2-.38,0-.03.02-.06.02-.09.05-.2.05-.4,0-.6-.05-.19-.15-.36-.29-.5-.08-.06-.15-.12-.23-.18-.18-.1-.37-.15-.57-.15-.16,0-.3.03-.44.1-.14.05-.26.12-.36.23-.29.29-.4.71-.29,1.1,0,.03.02.06.02.09Z"/>
              <path class="cls-5" d="M71.39,60.8c1.27,0,1.28-1.98,0-1.98s-1.28,1.98,0,1.98Z"/>
              <path class="cls-5" d="M76.19,58.77c1.07,0,1.07-1.66,0-1.66s-1.07,1.66,0,1.66Z"/>
              <path class="cls-5" d="M71.58,62.85c-.16.05-.3.14-.42.27-.13.12-.22.26-.27.42-.08.15-.12.32-.11.5l.05.34c.06.22.17.41.33.57.09.07.18.14.26.2.2.12.42.18.66.18.18,0,.35-.03.5-.11.16-.05.3-.14.42-.27.13-.12.22-.26.27-.42.08-.15.12-.32.11-.5-.02-.11-.03-.23-.05-.35-.06-.22-.17-.41-.33-.57-.09-.07-.18-.14-.26-.2-.2-.12-.42-.18-.66-.18-.18,0-.35.03-.5.11Z"/>
              <path class="cls-5" d="M64.44,59.21c.08.17.23.26.37.37.15.09.32.13.49.13.18,0,.34-.05.49-.13.14-.1.29-.2.37-.37,0-.02.01-.03.02-.05.09-.16.14-.33.14-.52,0-.18-.05-.36-.14-.52-.18-.31-.52-.51-.88-.51s-.7.2-.88.51c-.09.16-.14.33-.14.52,0,.18.05.36.14.52,0,.02.01.03.02.05Z"/>
              <path class="cls-5" d="M65.87,62.84c-.08.08-.14.17-.18.28-.05.1-.08.21-.07.33.01.08.02.15.03.23.04.15.11.27.22.38.06.04.12.09.17.13.13.08.28.12.43.12.12,0,.23-.02.33-.07.11-.03.2-.09.28-.18.08-.08.14-.17.18-.28.05-.1.08-.21.07-.33-.01-.08-.02-.15-.03-.23-.04-.15-.11-.27-.22-.38l-.17-.13c-.13-.08-.28-.12-.43-.12-.12,0-.23.02-.33.07-.11.03-.2.09-.28.18Z"/>
              <path class="cls-5" d="M59.9,64.98c.23.37.63.62,1.07.62s.84-.24,1.07-.62c.03-.05.06-.1.07-.16.04-.05.06-.11.07-.17,0-.02,0-.03,0-.05.06-.22.06-.45,0-.67-.06-.21-.17-.4-.32-.56-.09-.07-.17-.13-.26-.2-.2-.11-.41-.17-.64-.17-.17,0-.34.03-.49.11-.16.05-.29.14-.41.26-.16.16-.26.34-.32.56-.06.22-.06.45,0,.67.02.14.07.26.15.38Z"/>
              <path class="cls-5" d="M61.68,68.73c-.88,0-.89,1.37,0,1.37s.89-1.37,0-1.37Z"/>
              <path class="cls-5" d="M67.76,68.08c1.29,0,1.29-2.01,0-2.01s-1.29,2.01,0,2.01Z"/>
            </g>
          </g>
          <path class="cls-5" d="M41.74,56.28c0,.71-1.01.82-1.22.17-.81-2.65-1.14-5.39-2.07-8.02-.91-2.57-2.1-5.04-3.58-7.33-2.42-3.73-5.83-7.65-9.94-9.71,1.53.35,2.61.67,3.28.4,3.02,2.03,5.57,4.85,7.54,7.79,1.63,2.44,2.92,5.11,3.92,7.86,1.01,2.77,2.04,5.89,2.06,8.85Z"/>
          <path class="cls-5" d="M55.96,42.35c-6.11,2.99-10.43,10.58-12,16.95-1.89,7.66-1.13,16.85,2.82,23.79.37.65,1.25.08.98-.57-3.12-7.38-4.53-14.95-2.61-22.89,1.67-6.92,5.66-12.24,11.31-16.42.51-.38.08-1.14-.5-.85h0Z"/>
        </g>
        <path class="cls-2" d="M13.91,39.24c.55.23,1.13.39,1.7.53,1.15.29,1.63-1.45.49-1.78-.65-.18-1.3-.33-1.97-.42-.41-.05-.79.36-.83.73-.05.45.2.76.61.93h0Z"/>
        <path class="cls-2" d="M13.26,43.5c-.12.05-.14.06-.03.02.11-.02.09-.02-.05,0,0-.01.34.02.03,0,.3.04.34.05.14.02.04,0,.07.02.1.03.04.02.28.12.08.02.26.14.49.27.8.18.37-.11.58-.48.54-.85-.12-1.07-1.47-1.58-2.38-1.2-.54.23-.89.73-.64,1.33s.86.72,1.39.47h0Z"/>
      </g>
      <rect class="cls-4" width="100" height="100"/>
    </g>
  </g>
</svg>