<?xml version="1.0" encoding="UTF-8"?>
<svg id="Capa_2" data-name="Capa 2" xmlns="http://www.w3.org/2000/svg" viewBox="0 0 100 100">
  <defs>
    <style>
      .cls-1 {
        fill: #fff;
      }

      .cls-2 {
        fill: none;
      }

      .cls-3 {
        fill: #4a2d2d;
      }

      .cls-4 {
        fill: #b7abab;
      }

      .cls-5 {
        fill: #776262;
      }

      .cls-6 {
        fill: #945031;
      }

      .cls-7 {
        fill: #c0c728;
      }
    </style>
  </defs>
  <g id="COLOR">
    <g>
      <g>
        <g>
          <path class="cls-5" d="M52.93,42.14c-.67-1.08-1.35-2.15-2-3.26-1.88-3.21-3.15-7.02-3.59-10.71-.3-2.51-.51-5.01-1.42-7.4-1.22-3.19-3.2-6.41-6.05-8.38-2.58-1.78-5.76-2.46-8.86-2.51-6.88-.1-14.58,2.69-18.14,8.93-.53.92-.94,1.91-1.23,2.93-1.61,5.74.6,11.62-2.13,17.2-2.3,4.68-4.74,9.07-5.42,14.34-.62,4.79.38,9.59,2.82,13.76,3.32,5.66,9.17,9.6,15.52,11.06,3.83.88,7.84,1.04,11.74.58,3.38-.4,6.69-1.41,9.74-2.93,3.56-1.78,6.82-4.27,9.27-7.43,4.31-5.55,5.24-12.74,3.15-19.36-.79-2.5-2.06-4.67-3.4-6.82Z"/>
          <path class="cls-4" d="M27.45,14.17c-.11-.4-.42-2.63-.26-3.61.11-.65.59-1.18,1.18-1.48s1.25-.39,1.9-.42c.25-.01.51-.01.76.06.52.16.86.65,1.07,1.15.46,1.1.38,3.13.33,4.33l-4.98-.02Z"/>
          <path class="cls-3" d="M11.5,47.58c-.5-.14-1.04.06-1.39.43-.86.94-.29,2.52,1.04,2.51,1.7-.02,1.94-2.51.34-2.94ZM11.37,49.18s0,0,0,0c0,0,0,0,0,0,0,0,0,0,0,0ZM11.1,48.95s0,0,0,0c0,0,0,0,0,0,.04,0,.07-.02,0,0ZM11.15,49.82s.02-.03.03-.04c0,0,0,0,0,0,.15-.15,0,0-.03.05Z"/>
          <path class="cls-3" d="M11.25,57.09c-.66-.41-1.4-.38-1.77.54-.31.78.1,1.9.6,2.51.6.71,1.65.82,2.17-.05.63-1.04-.11-2.43-1.01-3Z"/>
          <path class="cls-3" d="M18.81,55.59c-.48-.84-1.72-.82-2.31.07-.85,1.29.48,2.9,1.84,1.91.44-.32.71-.89.64-1.43-.03-.21-.09-.39-.17-.54ZM17.76,55.57c-.05-.03-.11-.05-.16-.07,0,0,0,0,0,0,.05.02.11.04.16.07Z"/>
          <path class="cls-3" d="M25.49,13.5c2.39,2.01,6.29,2.46,8.67.11.56-.55-.15-1.44-.83-1.07-2.44,1.34-4.65,1.66-7.02-.1-.61-.45-1.4.57-.82,1.06h0Z"/>
        </g>
        <path class="cls-5" d="M78.34,33.35c-8.96,1.3-12.52,6.5-16.01,8.14-6.89,3.25-14.81,3.28-21.59,6.86-6.13,3.23-9.23,8.89-9.76,15.69-.27,3.52-.19,7.45,1,10.81,1.07,3.02,3.75,6.27,5.92,8.59,9.65,10.35,24.52,12.09,37.18,7.47,6.01-2.2,11.22-5.6,14.7-11.02,3.34-5.2,4.86-11.27,5.64-17.33.75-5.79,1.35-11.97-.34-17.61-3.69-12.29-13.89-12.01-16.73-11.59Z"/>
        <path class="cls-1" d="M88.25,37.79s-4.35-4.09-11.13-3.65-11.83,5.65-16.35,7.48c-4.52,1.83-16.96,3.13-22.78,7.65-5.83,4.52-9.74,10.52-8,19.48,1.74,8.96,10.09,18.7,25.39,18.35,15.31-.35,29.22-12.17,33.57-22.26,4.35-10.09,3.39-18.78,2.87-21.48-.52-2.7-3.57-5.57-3.57-5.57Z"/>
        <path class="cls-7" d="M77.78,37.48c-6.19.77-11.62,4.77-17.13,7.36-3.08,1.45-6.2,2.31-9.53,3-5.58,1.15-13.08,3.8-15.45,9.59-2.07,5.07-2.41,11.19.23,16.1,2.66,4.94,7.66,8.69,13.16,9.57,5.33.85,10.79.11,15.81-1.81,9.67-3.69,17.62-11.34,21.27-21.06,2.79-7.45,3.87-24.26-8.36-22.74Z"/>
        <path class="cls-6" d="M70.49,54.66c-.02-.07-.05-.14-.08-.21-.54-1.34-2.01-2.4-3.18-3.15-2.82-1.82-6.27-2.75-9.6-2.9-4.37-.2-8.74,1.43-11.51,4.88-1.74,2.16-2.76,4.85-3.16,7.58-.42,2.82-.64,6.48,1.09,8.94,3.5,4.96,11.47,3.87,16.22,1.69,3.42-1.57,6.32-4.25,8.18-7.51.91-1.6,1.58-3.36,1.91-5.18.24-1.3.58-2.84.15-4.14Z"/>
        <path class="cls-1" d="M54.13,51.02c-.32.01-.63.1-.93.21-1.8.67-3.46,1.64-4.76,3.08-1.45,1.61-2.6,4.2-1.71,6.3.25.6,1.22.8,1.73.45,1.61-1.11,1.41-3.05,2.45-4.56s2.68-2.41,4.09-3.4c.85-.6.53-1.86-.45-2.05-.13-.03-.26-.03-.4-.03Z"/>
        <path class="cls-1" d="M46.1,64.79c.12.24.22.49.44.67.23.19.45.28.75.24s.49-.19.65-.42.19-.49.24-.76c.07-.41.01-.8-.29-1.1-.26-.26-.6-.36-.95-.31s-.65.23-.83.54c-.21.37-.19.78,0,1.14h0Z"/>
        <path class="cls-3" d="M92.65,44.48c-.91-4.92-4.32-8.76-9.06-10.33-4.56-1.51-9.5-.88-13.68,1.41-2.67,1.47-5.14,3.28-7.85,4.67-2.86,1.46-5.87,2.17-8.89,3.07-8.57,1.29-17.54,4.32-21.78,12.45-2.16,4.15-2.87,9.13-2.09,13.74.95,5.63,4.67,9.99,9.14,13.31.97.72,1.98,1.46,3.07,2.01,2.35,1.29,4.91,2.2,7.54,2.7,8.22,1.56,16.86-.82,24.01-4.92,7.03-4.03,13.27-10.17,16.56-17.65,2.67-6.08,4.26-13.84,3.03-20.46ZM88.61,62.61c-5.2,14.05-21.6,24.73-36.56,23.7-5.61-.39-15.81-3.57-20.23-13.69-2.39-5.46-1.38-11.86,1.47-16.9,2.44-4.3,6.93-7.27,11.51-8.92,2.02-.73,4.1-1.3,6.22-1.67,3.15-.55,6.32-1.16,9.29-2.4,2.58-1.07,4.97-2.71,7.33-4.19,3.93-2.45,7.89-4.1,12.32-3.63,5.25.86,9.49,3.56,10.73,9.23,1.3,5.95,0,12.85-2.09,18.48Z"/>
      </g>
      <rect class="cls-2" width="100" height="100"/>
    </g>
  </g>
</svg>