<?xml version="1.0" encoding="UTF-8"?>
<svg id="Capa_2" data-name="Capa 2" xmlns="http://www.w3.org/2000/svg" viewBox="0 0 100 100">
  <defs>
    <style>
      .cls-1 {
        fill: #fdc733;
      }

      .cls-2 {
        fill: none;
      }

      .cls-3 {
        fill: #4a2d2d;
      }
    </style>
  </defs>
  <g id="COLOR">
    <g>
      <g>
        <path class="cls-1" d="M25.77,17.3s-1.55,1.89-4.99,1.46c-3.44-.43-5.16-1.46-5.16-1.46l.86,13.24s-12.64,5.59-11.44,21.24c1.2,15.65,9.89,28.2,26.31,36.2,16.42,8,36.89,4.56,48.67-4.04,11.78-8.6,16.94-25.88,14.36-33.45s-10.06,1.46-12.73,3.61c-2.67,2.15-12.12,9.54-25.54,9.37-13.41-.17-21.58-4.99-26.23-14.1s-4.47-18.49-4.47-23.13.34-8.94.34-8.94Z"/>
        <g>
          <path class="cls-1" d="M92.44,50.87s.06.03.1.05c0-.11.01-.22.04-.31-.29-.53-.71-.72-1.21-.68.27.4.69.73,1.07.94Z"/>
          <g>
            <path class="cls-3" d="M86.66,59.19c-3.65,4.43-7.81,8.05-13.08,10.42-5.23,2.36-10.86,3.54-16.6,3.45-11.72-.17-22.98-6.75-29.46-16.42-4.2-6.28-6.65-14.16-6.85-21.7-.01-.5-.73-.49-.76,0-.48,6.82,2.06,14.46,5.48,20.29,3.04,5.19,7.35,9.64,12.33,12.99,10.11,6.79,23.13,8.46,34.49,3.96,6.07-2.4,11.85-6.73,15.46-12.2.4-.61-.55-1.36-1.02-.79Z"/>
            <path class="cls-3" d="M79.98,75.52c-5.87,4.18-12.03,7.37-19.17,8.73-7.4,1.41-15.09.82-22.21-1.59-7.56-2.56-14.28-7.92-19.1-14.23-3.92-5.14-6.45-11.12-7.41-17.52-.08-.56-1.06-.43-.99.13,1.39,10.87,7.78,20.23,16.38,26.81,8.84,6.77,20.23,9.56,31.27,8.13,7.88-1.02,15.99-4.19,22.05-9.41.58-.5-.19-1.51-.82-1.06Z"/>
          </g>
        </g>
        <path class="cls-3" d="M21.53,13.85c-1.3.05-2.62.38-3.77.86-.81.33-1.94.79-2.41,1.58-.61,1.04.51,1.81,1.33,2.29,1.67.96,3.66,1.33,5.57,1.09,1.3-.16,2.98-.55,3.72-1.76.4-.66.44-1.52.1-2.21-.41-.82-1.28-1.33-2.16-1.58-.76-.22-1.57-.3-2.38-.27ZM20.75,18.14c-1-.07-2-.29-2.84-.56-.18-.06-.36-.12-.49-.26-.6-.59.6-1.06.99-1.24.7-.32,1.45-.52,2.21-.62,1.14-.15,2.65-.07,3.58.71.11.09.21.2.27.33.12.27.04.6-.15.83s-.46.37-.74.48c-.84.32-1.83.4-2.83.33Z"/>
        <path class="cls-3" d="M89.69,49.68c.17.75.66,1.36,1.33,1.73.62.34,1.66.71,2.31.28.41-.28.57-.9.16-1.27-.57-.51-1.82-.36-2.15-1.2-.4-1.02-1.92-.65-1.66.46h0Z"/>
      </g>
      <rect class="cls-2" width="100" height="100"/>
    </g>
  </g>
</svg>