<?xml version="1.0" encoding="UTF-8"?>
<svg id="Capa_2" data-name="Capa 2" xmlns="http://www.w3.org/2000/svg" viewBox="0 0 100 100">
  <defs>
    <style>
      .cls-1 {
        fill: #fff;
      }

      .cls-2 {
        fill: none;
      }

      .cls-3 {
        fill: #4a2d2d;
      }

      .cls-4 {
        fill: #754680;
      }
    </style>
  </defs>
  <g id="COLOR">
    <g>
      <g>
        <path class="cls-3" d="M37.98,36.4c-2.67-4.79-8.03-6.97-13.11-8.16-.53-.12-1.14.36-.94.94.9,2.61,2.45,5.02,4.52,6.86,1.84,1.64,4.65,3.44,7.21,3.35.66-.02,1.06-1.03.37-1.35-2.24-1.05-4.43-1.56-6.41-3.17-1.98-1.61-3.41-3.67-4.21-6.1l-.94.94c4.86,1.19,10.57,3.9,13.41,8.24.47.72.53-.79.1-1.56h0Z"/>
        <path class="cls-4" d="M74.12,49.16c-.29-3.36-4.79-5.72-4.79-5.72,0,0,.29-1.43-.5-3.93-.02-.07-.07-.14-.14-.21-.63.3-1.29.53-1.9.73-.73.25-1.47.48-2.23.62-.86.15-1.73.24-2.59.34-.16.02-.32.04-.49.06,0,0-.01,0-.02,0-.03,0-.06,0-.09.01-.15.02-.31.04-.46.06-.5.07-1,.13-1.5.18-1.05.1-2.13.16-3.18-.02-.58-.1-1.22-.33-1.62-.77-1.12.53-2.34.87-3.56.99-.58.06-1.13-.08-1.68-.25-.49-.15-.94-.17-1.45-.1-.65.1-1.31.26-1.97.23-.58-.02-1.17-.11-1.74-.25-2.04-.51-3.95-1.75-5.24-3.41-.14,0-.22,0-.22,0,0,0-3.86-.5-6.14,1.79-2.29,2.29-2,5-2,5,0,0-3.36,1.57-3.57,5.43-.21,3.86,2.57,5.14,2.57,5.14,0,0-2,3.43-1.14,6.14.86,2.72,2.07,3.22,2.07,3.22,0,0-1.79,5.64.71,8.65s4,3.36,4,3.36c0,0-1.36,4.64,2.14,7.14,3.5,2.5,7.14,1.36,7.14,1.36,0,0,1.29,3.22,5.86,3.36,4.57.14,5.79-3,5.79-3,0,0,5.22.64,8-2.64,2.79-3.29,1.86-6.29,1.86-6.29,0,0,3.14-1.29,4.14-5.14,1-3.86-.29-5.72-.29-5.72,0,0,3-1.57,3-5.43s-1.79-5.57-1.79-5.57c0,0,3.29-2,3-5.36Z"/>
        <g>
          <path class="cls-3" d="M74.71,30.48c-5.64.56-11.27,2.72-15.83,6.14,1.88-3.28,2.94-7.32,3.64-10.36.13-.58-.48-1.08-1.03-.77-3.47,1.95-6.45,4.79-8.84,8.04.09-3.71-.15-7.4-1.44-10.95-.87-2.39-3.58-8.45-7.19-6.02-3.71,2.5.25,7.16,1.57,9.77,1.12,2.2,1.97,4.47,2.36,6.9.3,1.84.23,3.57.04,5.33-1.28-2.65-3.3-5.11-5.2-7.14-1.46-1.56-3-3.1-4.64-4.48-.83-.7-2.26-1.74-3.17-.6-.98,1.22-.56,3.74-.27,5.11.43,2.07,1.4,4.36,2.71,6.05,1.1,1.42,2.46,2.98,4.13,3.78.37.18.76.32,1.15.44-2.29,1.13-3.71,4.27-3.57,6.63.01.21.06.41.09.62,0,0-.02,0-.03,0-1.5.31-2.96.44-4.35-.09-.07-.05-.14-.08-.22-.08-.2-.09-.41-.19-.61-.31-1.46-.87-2.52-2.35-3.07-3.94-.13-.37-.68-.22-.59.16.5,2.09,1.83,3.79,3.55,4.76-1.29,1.77-1.55,4.19-.98,6.37-.51-.11-1.02-.16-1.52-.34-.56-.2-1.08-.47-1.56-.8-.2-.14-.48.05-.48.28,0,.69.81,1.02,1.35,1.27.71.32,1.6.63,2.39.53.04,0,.07-.04.1-.05.05.14.11.27.17.41,0,0,0,0,0,0-1.19,2.48-1.58,5.2-.64,7.74-.18-.06-.39-.08-.58-.12-.3-.06-.63-.13-.9-.28-.34-.19-.74.28-.43.56.32.28.6.52,1.01.66.37.12.88.21,1.17-.1.01-.01,0-.03.02-.04.08.17.14.33.23.5.71,1.29,1.85,2.44,3.18,3.13-.01.02-.03.04-.04.08-1,3.37.7,7.11,3.77,8.77,1.12.61,2.46.9,3.79.88-.82,1.7-.7,3.94.26,5.55.19.31.68.11.59-.25-.49-1.91-.46-3.45-.05-5.36,1.75-.19,3.4-.94,4.52-2.28.17.32.36.62.57.87,1.34,1.62,4.27,2.43,6.3,2.31.3-.02.6-.06.9-.11-.21.75-.07,1.56-.14,2.33-.1,1.13-.43,2.16-.93,3.18-.18.37.36.7.56.33.84-1.54,2.01-4.26,1.12-5.97,1.51-.41,2.86-1.29,3.81-2.58.04-.05.08-.11.12-.17,1.19.75,2.97.88,4.15.08.33-.22.12-.69-.26-.62-.66.11-1.24.42-1.93.3-.52-.09-1-.29-1.45-.56.89-1.54,1.5-3.46,1.16-5.13-.03-.13-.1-.21-.19-.27.4-.19.78-.41,1.13-.68,1.15-.88,2-2.1,2.52-3.46,1.07.51,2.67.6,3.4-.44.21-.29-.13-.6-.42-.55-.47.08-.88.31-1.38.32-.46.01-.89-.08-1.3-.28.62-2.36.3-4.99-1.11-7,.73-.41,1.38-.95,1.88-1.61.37-.48.64-1.03.88-1.61.87.24,2.02.18,2.62-.57.19-.24.02-.68-.33-.56-.7.24-1.29.5-2.01.39.82-2.7.33-5.97-1.55-7.98,1.03-.66,2.07-1.84,2.2-3.02.03-.29-.42-.49-.61-.25-.7.89-1.05,1.73-2.07,2.36-1.32.81-2.79.88-4.28.52-.02,0-.04,0-.06,0-.09-1.79-.69-3.56-1.88-4.55,2.16-.09,4.37-.45,6.36-1.22,4.1-1.58,7.21-4.72,8.39-8.9.13-.45-.24-1.04-.77-.99ZM60.77,27.56c-.79,2.94-2.11,5.85-3.63,8.45-.75,1.28-1.65,2.56-2.83,3.5-1.48,1.17-3.07,1.2-4.79,1.58,3.21-5.06,6.21-10.1,11.26-13.53ZM46.96,25.84c-.81-1.72-2.17-3.33-2.73-5.14-.28-.92-.3-2.4.74-2.93,1.23-.63,2.27.82,2.79,1.65,1.02,1.64,1.78,3.45,2.28,5.3.97,3.56,1.02,7.37,1.09,11.04-.65,1.04-1.24,2.11-1.77,3.19.46-2.68.04-5.63-.63-8.15-.45-1.7-1.03-3.37-1.78-4.96ZM39.08,36.93c-1.17-1.39-1.92-3.13-2.52-4.81-.33-.93-.59-1.88-.67-2.86-.07-.82-.24-2.26.91-1.69,1.27.62,2.5,2.02,3.52,2.97,1.08,1.01,2.08,2.1,3.01,3.23,1.68,2.04,2.78,4.18,3.82,6.47-1.35-.15-2.71-.28-4.04-.6-1.62-.4-2.97-1.46-4.02-2.71ZM44.28,42.09c1.23.21,2.5.28,3.71.31.1,0,.19,0,.28-.03.18.05.39-.02.55-.15,2.81.99,3.64,4.57,2.71,7.2-.86,2.42-3.29,4.23-5.88,4.17-2.67-.06-4.97-1.94-5.49-4.58-.55-2.79,1.09-6.41,4.12-6.93ZM56.47,53.16c.93,0,1.86-.23,2.7-.62.26,2.07.28,4.01-.88,5.89-.98,1.59-2.64,2.77-4.48,3.12-1.94.37-4.07-.3-5.37-1.79-1.23-1.4-1.46-3.28-1.47-5.08,2.06-.36,3.83-1.67,4.89-3.47.95,1.41,2.97,1.96,4.61,1.95ZM52.81,68.37c-1.36,1.4-3.46,2.13-5.39,2.01-4.68-.28-7.02-4.97-5.88-9.14,2.06-.38,3.96-1.52,5.03-3.33.95,2.97,3.39,5.17,7.07,4.74.35-.04.68-.11,1.01-.2.1,1.9-.54,4.56-1.85,5.91ZM34.63,49.79c1.46.6,3.13.71,4.81.12.79,2.66,3.08,4.68,5.98,4.87.24.02.48-.01.71-.02-.01.68.04,1.36.16,2.01-.04.02-.07.04-.11.08-2.4,2.61-5.43,4.55-9.04,2.84-3.47-1.65-4.98-6.8-2.51-9.9ZM48.92,75.8c-2.56,1.65-4.99,2.76-8.05,1.42-3.15-1.39-4.27-4.53-3.76-7.77.87.33,1.8.47,2.75.31.31-.05.3-.55,0-.62-2.34-.53-4.48-1.44-5.77-3.6-1.33-2.24-1.21-5.15-.23-7.51.55.92,1.27,1.7,2.14,2.26,1.37.88,3.06,1.22,4.72,1.08-.99,2.72-.3,5.64,1.47,7.68-.21-.01-.43,0-.63.04-.37.06-.72.12-1.09.15-.35.02-.35.57,0,.55.38-.03.74-.02,1.11,0,.33.02.68.02.97-.13.05-.03.09-.07.11-.11,1.11,1.08,2.54,1.85,4.21,2.09.46.07.93.08,1.39.06-.06,1.28.18,2.82.7,4.11,0,0-.02,0-.03.01ZM62.36,73.68c-.21.82-.5,1.53-.99,2.19-.07.06-.13.14-.16.22,0,.01-.02.02-.03.04-1.23,1.46-3.12,2.38-5.02,2.5-1.71.1-3.4-.54-4.86-1.39-1.91-1.11-2.44-3.52-2.34-5.6,1.62-.22,3.17-.94,4.35-2.1.39-.39.71-.83.98-1.29,1.48,2.79,5.15,3.59,8.05,2.6,0,.03-.02.06-.01.09.05.95.27,1.82.04,2.75ZM63.97,68.48c-1.44,1.32-3.41,1.87-5.33,1.49-1.7-.33-2.78-1.38-3.95-2.53.69-1.62.84-3.51.74-5.24,1.92-.77,3.43-2.36,4.27-4.24,1.39,1.38,3.42,1.57,5.21.94,1.37,3.25,1.97,6.89-.95,9.58ZM66.45,47c1.87,2.41,2.44,5.59.99,8.39-.67,1.3-1.81,2.29-3.22,2.7-1.65.48-2.96-.02-4.17-1.03.52-1.62.57-3.39.02-5.03.61-.41,1.15-.93,1.57-1.55.61-.89.94-2.22.98-3.61,1.24.52,2.58.58,3.83.12ZM61.13,49.43c-.84,1.35-2.22,2.26-3.78,2.54-1.67.3-4.1-.03-5.04-1.63.15-.37.29-.74.38-1.13.5-2.04.09-5.26-1.6-6.85,1.06-.09,2.03-.34,2.9-.76,1.51-.18,3.04-.06,4.56,0,0,0,0,0,0,0,2.85,1.27,4.29,5.08,2.57,7.84ZM64.6,39.56c-2.72.83-5.46.61-8.21.66,4.79-4.44,10.56-7.24,17.13-8.06-1.56,3.68-5.06,6.21-8.93,7.39Z"/>
          <path class="cls-3" d="M38.02,76.55c-.4-.16-.83-.15-1.25-.21-.47-.07-.94-.17-1.41-.29-.55-.14-.73.63-.23.83.87.34,2.08.64,2.96.23.27-.12.14-.48-.07-.56Z"/>
        </g>
        <path class="cls-1" d="M35.32,39.46c-.63.26-1.28.52-1.76,1.04-.65.7-.84,1.91.07,2.49l-.37-.37c.09.12.17.24.28.34.43.37,1.12.36,1.42-.18.03-.05.06-.1.09-.16l-.37.37c.45-.22.56-.69.81-1.07.1-.15-.1.1.03-.04.07-.07.15-.15.23-.21-.08.06.06-.04.08-.04.11-.07.21-.14.32-.2.45-.28.65-.84.44-1.33-.19-.44-.76-.82-1.26-.62h0Z"/>
        <path class="cls-1" d="M43.79,44.21c-.59.42-1.1.92-1.44,1.57-.37.68-.57,1.68-.16,2.37.45.76,1.39.63,1.86,0,.28-.37.32-.94.5-1.36.14-.33.32-.59.58-.84.88-.85-.3-2.48-1.34-1.74h0Z"/>
        <path class="cls-1" d="M57.35,44.61c.43.77.27,1.98,1,2.56.25.2.52.26.82.11,1.5-.77.4-2.92-.31-3.83-.29-.37-.93-.34-1.26-.08-.38.3-.49.81-.25,1.24h0Z"/>
        <path class="cls-1" d="M66.87,43.42c.11,0,.21-.02.31-.07.1-.03.18-.09.26-.17.08-.07.13-.16.17-.26.05-.1.07-.2.07-.31l-.03-.21c-.04-.14-.11-.25-.21-.35l-.16-.12c-.12-.07-.26-.11-.4-.11-.11,0-.21.02-.31.07-.1.03-.18.09-.26.17-.08.07-.13.16-.17.26-.05.1-.07.2-.07.31l.03.21c.04.14.11.25.21.35l.16.12c.12.07.26.11.4.11h0Z"/>
        <path class="cls-1" d="M29.24,47.43c-.78.73-1.54,2.3-.62,3.21.44.43,1.09.29,1.42-.18.26-.37.22-.84.29-1.17.05-.24.17-.5.35-.75.27-.36.1-.93-.23-1.18-.37-.28-.86-.25-1.2.07h0Z"/>
        <path class="cls-1" d="M35.79,51.97c-.64.99-1.39,2.98-.29,3.92.37.32.89.27,1.17-.15.29-.45.28-1,.35-1.51.07-.46.22-.88.45-1.28.64-1.09-1-2.03-1.68-.98h0Z"/>
        <path class="cls-1" d="M55.83,58.36c1.04-.67,1.93-2.48.92-3.55-.38-.4-1.05-.28-1.33.17-.22.37-.22.81-.32,1.22-.09.36-.25.67-.44.99-.43.72.44,1.64,1.17,1.17h0Z"/>
        <path class="cls-1" d="M64.71,50.45c0,.05-.01.14,0,.19l.02-.14c-.02.1-.03.2-.04.3-.05.12.05-.23,0-.05-.03.12-.07.27-.06.39,0,.53.31,1.1.91,1.08,1.01-.03,1.38-1.21,1.08-2.03-.17-.46-.57-.77-1.07-.7-.46.06-.86.47-.85.96h0Z"/>
        <path class="cls-1" d="M72.66,49.67c-.02-.09-.04-.18-.07-.27-.01-.04-.02-.08-.03-.11-.05-.16-.12-.27-.23-.4-.26-.29-.8-.29-1.06,0-.11.13-.18.24-.23.4-.01.04-.02.08-.03.11-.03.09-.05.18-.07.27-.14.56.27,1.13.86,1.13s1-.57.86-1.13h0Z"/>
        <path class="cls-1" d="M69.73,59.34c.02.3.01.62.07.91.09.43.47.88.94.86.5-.02.83-.44.89-.91.04-.29-.03-.58-.07-.87-.03-.25-.08-.46-.27-.65-.16-.16-.42-.28-.65-.27-.47.02-.95.4-.92.92h0Z"/>
        <path class="cls-1" d="M62.32,62.3c.1.32.14.54.14.86,0,.45,0,.88.27,1.28.36.53,1.12.7,1.6.21.84-.86.37-2.22-.15-3.13-.57-.99-2.21-.33-1.86.78h0Z"/>
        <path class="cls-1" d="M43.36,62.81c-.41,1-.33,2.14.15,3.1s1.59,1.91,2.73,1.4c.41-.18.49-.68.43-1.07-.09-.6-.71-.99-.99-1.5-.24-.42-.39-.9-.29-1.38.27-1.35-1.52-1.79-2.02-.56h0Z"/>
        <path class="cls-1" d="M34.45,62.01c-.06.41-.09.83.02,1.24.12.44.47.95.98.93.6-.03.8-.61.71-1.12-.03-.19.01.11-.02-.15-.01-.1-.03-.19-.05-.29.02.15,0-.12,0-.12,0-.09,0-.18.01-.26.04-.42-.35-.78-.73-.83s-.87.19-.92.6h0Z"/>
        <path class="cls-1" d="M29.43,58.91c-.02.18-.05.37-.05.56,0,.09,0,.17.02.26.03.27.11.41.27.62.11.14.38.23.55.23.22,0,.38-.09.55-.23.39-.31.38-.98.44-1.44.03-.21-.12-.48-.26-.62-.15-.15-.4-.27-.62-.26-.52.02-.83.39-.88.88h0Z"/>
        <path class="cls-1" d="M31.74,69.05c.02.14.04.27.08.41.06.23.3.42.54.41s.47-.17.54-.41c.04-.14.06-.27.08-.41.03-.11.03-.23,0-.34-.03-.11-.09-.2-.17-.28-.13-.12-.28-.19-.45-.19-.16,0-.34.07-.45.19-.08.08-.13.17-.17.28-.03.11-.03.23,0,.34h0Z"/>
        <path class="cls-1" d="M36.52,79.13c.05.21.09.42.16.63.1.31.25.54.56.67.17.07.39-.01.51-.14.38-.39.16-1.04.08-1.52-.06-.35-.51-.58-.84-.47-.36.12-.57.47-.47.84h0Z"/>
        <path class="cls-1" d="M38.78,72.01c.21.73.34,1.84,1.19,2.08.34.1.64-.07.83-.34.47-.64-.09-1.58-.33-2.21-.17-.44-.59-.75-1.08-.61-.45.12-.75.62-.61,1.08h0Z"/>
        <path class="cls-1" d="M50.98,72.25c-.16,1.09.03,2.37,1.08,2.97.72.42,1.82-.29,1.5-1.15-.13-.34-.3-.65-.45-.98-.06-.12-.07-.14-.02-.05-.03-.07-.05-.15-.06-.22-.02-.13-.03-.15-.02-.06,0-.08-.01-.15-.01-.23,0-.51-.38-.95-.89-1.01-.45-.05-1.05.22-1.12.73h0Z"/>
        <path class="cls-1" d="M67.02,69.41c.01.17.02.34.05.51.03.14.1.31.17.43.25.44.93.44,1.18,0,.07-.13.14-.29.17-.43.04-.16.04-.34.05-.51.03-.42-.4-.83-.81-.81s-.85.36-.81.81h0Z"/>
        <path class="cls-1" d="M62.15,79.33l-.12.5c-.07.3-.1.58.01.87s.3.53.62.62.62-.02.87-.23c.23-.2.35-.44.42-.73l.13-.49c.13-.51-.17-1.12-.7-1.24s-1.11.16-1.24.7h0Z"/>
        <path class="cls-1" d="M45.75,80.26c-.14.55-.16,1.13-.02,1.69s.69,1.19,1.29,1.29,1.05-.24,1.11-.85c.02-.19,0-.38-.04-.57-.02-.14-.02-.15,0-.03,0-.14-.03-.28-.05-.42-.01-.05-.09-.47-.07-.24,0-.05.03-.47,0-.26.1-.59-.16-1.26-.8-1.41-.6-.14-1.25.18-1.41.8h0Z"/>
      </g>
      <rect class="cls-2" width="100" height="100"/>
    </g>
  </g>
</svg>