<?xml version="1.0" encoding="UTF-8"?>
<svg id="Capa_2" data-name="Capa 2" xmlns="http://www.w3.org/2000/svg" viewBox="0 0 100 100">
  <defs>
    <style>
      .cls-1 {
        fill: #fff;
      }

      .cls-2 {
        fill: none;
      }

      .cls-3 {
        fill: #4a2d2d;
      }

      .cls-4 {
        fill: #8a6293;
      }
    </style>
  </defs>
  <g id="COLOR">
    <g>
      <g>
        <g>
          <path class="cls-4" d="M67.75,59.03c-11.06.45-14.82,10.29-15.01,14.43-.19,4.14,2.33,13.13,15.01,13.39,12.68.26,15.27-9.58,15.07-13.2-.45-8.35-4.01-15.07-15.07-14.62Z"/>
          <path class="cls-1" d="M75.16,81.71c1.15-.42,2.14-1.02,2.97-1.93.77-.85,1.65-2.11,1.32-3.31-.2-.71-.99-.8-1.5-.4-.69.54-.97,1.56-1.46,2.28s-1.21,1.39-1.95,1.88-.29,1.81.62,1.48h0Z"/>
          <path class="cls-1" d="M79.78,73.94l-.07-.18-.05-.13c-.03-.06-.08-.11-.14-.15-.03-.03-.07-.06-.12-.07-.06-.03-.13-.05-.21-.05-.1,0-.19.03-.27.07-.06.03-.11.08-.15.14-.05.05-.08.11-.1.18l-.07.18c-.03.11-.03.21,0,.32.03.1.08.19.16.27.12.11.26.18.43.18.15,0,.32-.07.43-.18.07-.08.13-.16.16-.27.03-.11.03-.21,0-.32h0Z"/>
          <path class="cls-3" d="M72.31,71.14c-.69-.31-1.52-.53-2.28-.39-1.32.24-2.13,2.31-.97,3.23.06.04.11.08.18.12.94.51,2.29.21,3.07-.45.44-.37.74-.95.71-1.53-.02-.51-.33-.8-.72-.98ZM71.96,72.58c-.41.6-1.37.81-2.05.75-.1,0-.2-.03-.29-.08-.14-.09-.22-.26-.22-.43,0-.41.29-.95.67-1.11.25-.1.53-.12.8-.12.48.01,1.56.3,1.08.99Z"/>
          <path class="cls-3" d="M73.43,69.04c-.53-.31-1.13-.5-1.74-.55-.47-.04-.95-.01-1.43.07-2.31.4-4.46,2.15-4.62,4.59-.19,2.8,2.79,3.96,5.16,3.7,2.35-.26,4.56-2.22,4.45-4.71-.06-1.28-.73-2.45-1.83-3.1ZM70.74,75.84c-1.87.23-4.53-.56-4.18-2.93.38-2.56,3.47-4.1,5.82-3.26,1.06.38,1.83,1.27,1.89,2.42.1,2.03-1.64,3.53-3.53,3.77Z"/>
        </g>
        <g>
          <path class="cls-4" d="M21.94,46.02s-.39-7.63.26-7.83,1.49,1.16,2.39,4.08,1.68,5.43,1.68,5.43c0,0,6.47-4.46,14.62,2.14,8.15,6.6,4.59,15.85,1.36,20.57-3.23,4.72-12.16,5.56-18.5,2.33-6.34-3.23-6.66-10.03-5.95-13.59s3.43-7.05,3.43-7.05c0,0-8.02-1.1-7.7-2.2s6.28-1.29,6.28-1.29c0,0-5.05-5.05-4.14-5.82s6.28,3.23,6.28,3.23Z"/>
          <path class="cls-3" d="M13.2,50.85c1.39.55,2.9.84,4.35,1.17,1.32.3,2.68.71,4.03.76.69.03.73-.91.15-1.13-1.39-.52-2.94-.7-4.39-1.02-1.33-.3-2.65-.67-4.01-.83-.65-.08-.66.86-.14,1.06h0Z"/>
          <path class="cls-3" d="M14.68,43.62c.49.89,1.3,1.55,2.02,2.25.86.84,1.72,1.71,2.63,2.5.6.53,1.45-.29.89-.89-1.49-1.57-3.22-2.91-4.63-4.56-.43-.51-1.21.14-.9.7h0Z"/>
          <path class="cls-3" d="M21.6,38.36c-.7,2.08-.65,5.27.05,7.34.17.5.93.43.94-.13.02-1.18-.2-2.35-.19-3.54s.21-2.36.17-3.54c-.02-.57-.8-.66-.97-.13h0Z"/>
          <path class="cls-1" d="M29.38,51.29c2.42-.62,5.08,0,7.03,1.57.86.7,1.59,1.52,2.16,2.47s.95,1.9,1.78,2.59c.49.41,1.28.29,1.47-.39.75-2.7-2.01-5.69-4.05-7.08-2.64-1.79-5.93-2.13-8.86-.9-1.03.43-.68,2.03.48,1.73h0Z"/>
          <path class="cls-1" d="M40.2,61.89c.04.24.02.47.09.76.07.27.17.53.38.76.22.25.62.21.85,0,.56-.51.43-1.31.33-1.98-.07-.45-.65-.73-1.06-.6-.48.16-.68.58-.6,1.06h0Z"/>
          <path class="cls-1" d="M20.77,64.51c.44,1.01,1.23,2.07,2.38,2.2.51.06.73-.57.54-.94-.21-.41-.53-.73-.83-1.07-.27-.31-.47-.67-.63-1.05-.18-.42-.8-.52-1.16-.3-.43.25-.49.74-.3,1.16h0Z"/>
        </g>
        <g>
          <path class="cls-4" d="M57.91,27.26s-5.69-7.12-4.85-7.38,6.6,4.98,6.6,5.24,1.62-8.54,2.33-8.54,1.04,7.63,1.04,7.63c0,0,5.31-5.56,6.08-5.31s-4.53,9.19-4.53,9.19c0,0,9.06,2.33,9.77,9.64.71,7.31-3.43,13.46-8.48,15.79-3.86,1.78-12.55,1.62-18.05-4.46-5.5-6.08-3.69-14.04.84-18.12s9.25-3.69,9.25-3.69Z"/>
          <path class="cls-1" d="M56.21,29.44c-2.39-.03-4.42.87-5.95,2.75-1.23,1.52-2.88,4.57-1.62,6.45.31.46.99.63,1.4.18,1.13-1.23,1.1-3.2,2.07-4.61s2.65-2.62,4.32-3.08c.94-.26.74-1.68-.23-1.69h0Z"/>
          <path class="cls-1" d="M49.81,42.97l.18.13c.11.08.31.1.43.06.14-.04.27-.13.34-.26l.1-.2c.06-.12.1-.25.11-.39,0-.17-.07-.34-.17-.47-.03-.06-.08-.1-.14-.14-.05-.05-.11-.08-.17-.1-.06-.04-.13-.05-.2-.05-.1-.02-.21-.02-.31.01-.12.04-.25.11-.34.2s-.17.22-.2.34l-.03.21c0,.11.02.21.07.3.02.07.05.12.1.17.05.08.13.15.22.2h0Z"/>
          <path class="cls-1" d="M64.75,50.85c1.54-.33,3.19-1.51,3.3-3.2.04-.7-.84-.94-1.29-.54-.82.74-1.4,1.64-2.47,2.06s-.65,1.92.46,1.68h0Z"/>
          <path class="cls-3" d="M65.31,28.55c.9-1.53,1.61-3.17,2.47-4.72.78-1.39,1.85-2.84,2.25-4.4.13-.52-.55-.97-.93-.54-1.13,1.26-1.8,3.03-2.58,4.52s-1.71,3.05-2.3,4.68c-.24.65.76,1.03,1.09.46h0Z"/>
          <path class="cls-3" d="M63.46,24.11c.22-2.46-.37-5.11-.78-7.53-.09-.53-.95-.4-.93.13.09,2.46.43,4.95.62,7.41.06.71,1.03.7,1.09,0h0Z"/>
          <path class="cls-3" d="M59.95,24.8c-.8-1.1-2.06-1.85-3.08-2.74s-2.05-1.92-3.22-2.66c-.68-.43-1.28.5-.81,1.06.85,1,2.02,1.73,3.08,2.48,1.13.8,2.14,1.88,3.36,2.53.4.21.98-.25.67-.67h0Z"/>
        </g>
      </g>
      <rect class="cls-2" width="100" height="100"/>
    </g>
  </g>
</svg>