<?xml version="1.0" encoding="UTF-8"?>
<svg id="Capa_2" data-name="Capa 2" xmlns="http://www.w3.org/2000/svg" viewBox="0 0 100 100">
  <defs>
    <style>
      .cls-1 {
        fill: #72ab4c;
      }

      .cls-2 {
        fill: #f1475d;
      }

      .cls-3 {
        fill: #fff;
      }

      .cls-4 {
        fill: none;
      }

      .cls-5 {
        fill: #4a2d2d;
      }
    </style>
  </defs>
  <g id="COLOR">
    <g>
      <g>
        <path class="cls-2" d="M25.78,49.48c-7.1.38-11.07,8.32-11.53,14.27-.46,5.95,1.53,10.41,3.36,10.76,3.59.69,3.51,2.98,5.95,3.59,3.49.87,15.41-1.78,19.16-7.63,6.95-10.84-9.85-21.37-16.94-20.99Z"/>
        <path class="cls-2" d="M49.59,69.47c-5.34,5.19-2.98,13.05,1.14,18.09,4.12,5.04,6.34,6.11,8.78,5.72s4.2-.46,6.26.15,7.94-3.28,10-10.53.84-13.89-4.5-16.33-16.33-2.29-21.68,2.9Z"/>
        <path class="cls-1" d="M54.45,22.16s-10.58-3.9-17.34-1.69-16.72,8.09-16.32,9.64,9.29,9.91,18.96,6.59c9.67-3.32,14.7-14.54,14.7-14.54Z"/>
        <path class="cls-1" d="M56.39,23.45s7.33-2.86,10.99-6.07c3.66-3.21,8.47-9.73,16.03-9.73s8.82.57,8.82,1.49-.57,14.31-13.97,17.75c-13.4,3.43-21.98-2.52-21.98-2.52l.11-.92Z"/>
        <path class="cls-5" d="M82.49,13.26c-6.94,6.16-16.42,9.74-25.64,10.4-.19-.53-.42-1.03-.68-1.5.63-1.88.13-4.32-.48-6.04-.59-1.64-1.95-4.16-4.03-4.1-2.63.07-1.57,2.99-1.09,4.42.66,1.94,1.38,4.02,2.64,5.66-7.85,1.8-14.84,6.3-23.03,6.83-.55.04-.56.86,0,.87,8.31.09,15.73-4.75,23.57-6.84.03,0,.05-.02.07-.03-.06,1.53-.04,3.03-.34,4.57-.38,1.94-.99,3.86-1.77,5.68-1.47,3.42-3.5,6.58-5.56,9.67-3.68,5.53-7.66,10.9-13.37,14.46-.16-.5-.21-1.04-.14-1.56.08-.68-.98-.77-1.16-.16-.43,1.43.02,2.99,1.18,3.96,1.04.87,2.81,1.27,4,.45.4-.28.31-1.05-.27-1-1.02.08-1.98.18-2.83-.52,0,0-.01-.02-.02-.02,6.21-3.3,10.62-9.15,14.49-14.88,2.25-3.33,4.39-6.74,5.89-10.48.74-1.83,1.45-4.04,1.78-6.25.59,1.65,1.09,3.34,1.56,5.03,1.11,3.97,2.01,8,2.68,12.06.71,4.33,1.26,8.74,1.36,13.13.1,4.29-.37,8.48-.67,12.74-.84-.09-1.76-.58-2.24-1.24-.55-.75-1.78-.08-1.28.75.85,1.41,2.14,2.24,3.85,2.08,1.33-.13,3.09-1,3.36-2.43.11-.59-.51-.92-.97-.56-.38.3-.68.63-1.02.9.75-3.88.8-8.01.73-11.92-.08-4.39-.37-8.75-1.04-13.09-.64-4.19-1.54-8.34-2.66-12.43-.49-1.79-1.04-3.56-1.6-5.34-.22-.7-.42-1.43-.65-2.16,9.2-.39,19.61-3.57,25.99-10.51.36-.39-.19-.94-.58-.58ZM52.29,17.08c-.22-.53-.44-1.06-.63-1.6-.2-.58-.64-1.09.03-1.41,1.36-.66,2.53,2.84,2.82,3.8.31,1.07.33,2.01.28,2.97-.2-.02-.41.05-.57.18-.4-.63-.78-1.28-1.08-2.02-.27-.64-.56-1.28-.83-1.92Z"/>
        <path class="cls-3" d="M28.79,52.53c-1.86-.85-3.66-1.23-5.62-.44-1.51.61-3.23,1.95-3.2,3.74.01.71.71,1.01,1.3.75,1-.45,1.73-1.37,2.73-1.86,1.22-.59,2.72-.77,4.01-.36,1.06.34,1.82-1.36.77-1.83h0Z"/>
        <path class="cls-3" d="M51.47,71.04c-2.95,1.76-3.3,6.69-.78,9.02.61.57,1.87.22,1.79-.74-.11-1.25-.7-2.38-.79-3.64s.29-2.42.98-3.44c.5-.74-.48-1.64-1.2-1.2h0Z"/>
      </g>
      <rect class="cls-4" width="100" height="100"/>
    </g>
  </g>
</svg>