<?xml version="1.0" encoding="UTF-8"?>
<svg id="Capa_2" data-name="Capa 2" xmlns="http://www.w3.org/2000/svg" viewBox="0 0 100 100">
  <defs>
    <style>
      .cls-1 {
        fill: #fff;
      }

      .cls-2 {
        fill: none;
      }

      .cls-3 {
        fill: #4a2d2d;
      }

      .cls-4 {
        fill: #a46a50;
      }

      .cls-5 {
        fill: #cdad9e;
      }
    </style>
  </defs>
  <g id="COLOR">
    <g>
      <g>
        <g>
          <g>
            <path class="cls-4" d="M64.36,44.68c-1.48-10.28-7.3-20.01-15.45-26.35-1.84-1.43-3.81-2.71-5.88-3.79-2.27-1.18-4.78-2.25-7.39-2.11-2.44.13-4.57,1.26-6.66,2.44-4.38,2.48-8.39,5.55-11.8,9.26-6.25,6.79-10.23,15.48-9.71,24.83.46,8.33,4.26,16.37,10.32,22.09,5.97,5.62,15.59,10.51,24,8.56,7-1.41,12.8-6.2,17.02-11.78,4.99-6.59,6.74-14.98,5.56-23.15Z"/>
            <path class="cls-3" d="M35.11,18.98c-2.02,3.95-3.26,7.58-2.65,12.06.34,2.49.93,4.94.99,7.47.07,2.57-.36,5.04-1.16,7.47-.14.42.5.57.65.18,1.53-3.99,1.72-8.01,1.03-12.2-.42-2.53-.96-5.1-.55-7.67.38-2.4,1.49-4.64,2.54-6.81.27-.56-.56-1.06-.84-.49h0Z"/>
            <path class="cls-3" d="M38.54,31.5c-2.09,3.8-2.93,9.27-.58,13.17.25.42.89.14.78-.33-.46-2.02-1.03-3.92-.97-6.02s.65-4.35,1.64-6.31c.29-.57-.55-1.08-.87-.51h0Z"/>
            <path class="cls-3" d="M40.04,20.55c.63,3.13,2.43,5.73,3.55,8.68,1.34,3.54.7,6.52-.36,9.99-.14.47.5.7.76.32,1.71-2.56,1.81-6.34,1.02-9.23-.95-3.51-3.3-6.44-4.08-10.01-.13-.58-1-.33-.88.24h0Z"/>
            <path class="cls-3" d="M50.77,35.52c-.93-2.88-1.05-5.67-.75-8.65.05-.47-.73-.58-.83-.11-.64,3.01-.3,6.12.66,9.02.19.58,1.11.33.92-.25h0Z"/>
            <path class="cls-3" d="M29.59,24.46c-2.46,2.88-4.62,7.11-5.18,10.87-.35,2.34-.1,4.71.38,7.01.53,2.48,1.72,4.91,1.95,7.43s-1.14,5.12-1.95,7.47c-.71,2.05-1.46,4.14-1.65,6.31-.16,1.92.27,3.67,1.23,5.33,1.13,1.94,2.59,3.58,3.18,5.81.14.53.91.3.81-.22-.76-3.95-4.58-6.31-4.37-10.62.22-4.51,3.3-8.35,3.74-12.77.2-2-.61-4.03-1.09-5.94-.58-2.3-1.13-4.64-1.2-7.02-.07-2.53.55-4.8,1.62-7.07.94-1.99,1.94-4.06,3.37-5.75.5-.58-.35-1.44-.85-.85h0Z"/>
            <path class="cls-3" d="M33.56,74.64c1.35-3.01.31-5.93-1.14-8.69-.92-1.76-1.93-3.49-2.29-5.47-.41-2.26.08-4.42.79-6.56.13-.39-.44-.6-.64-.27-1.77,2.81-1.72,6.4-.51,9.41,1.43,3.57,4.66,7.21,3.06,11.27-.17.42.55.73.74.31h0Z"/>
            <path class="cls-3" d="M20.53,43.08c.63,2.62,1.25,5.2.66,7.88-.43,1.95-.92,3.81-1.18,5.8-.46,3.51-.5,7.77,1.49,10.86.21.32.8.12.65-.28-1.56-4.22-2.49-8.29-1.03-12.72.58-1.76,1.31-3.47,1.47-5.34.19-2.25-.37-4.37-1.01-6.51-.2-.67-1.22-.39-1.05.29h0Z"/>
            <path class="cls-3" d="M16.61,56.45c-.98-2.57-1.7-5.33-1.27-8.1.37-2.41,1.51-4.64,2.64-6.77,1.83-3.45,4.61-7.72,3.76-11.81-.12-.56-.89-.37-.94.13-.28,2.79-.74,5.14-1.95,7.7-.96,2.02-2.1,3.95-2.98,6.01-1.88,4.4-1.77,8.62-.08,13.07.19.51,1.01.28.82-.23h0Z"/>
            <path class="cls-3" d="M14.87,35.91c.64-1.16.55-2.36-.04-3.53-1.05-2.1-3.06-3.27-3.13-5.84-.01-.44-.59-.49-.74-.1-1.36,3.67,4.47,5.54,3.07,9.12-.19.48.58.79.83.35h0Z"/>
            <path class="cls-3" d="M11.36,46.35c-3.1-1.96-5.08-4.23-5.07-8.03,0-.46-.62-.5-.76-.1-1.44,3.87,2.45,7.2,5.35,8.95.53.32,1-.5.48-.82h0Z"/>
            <path class="cls-3" d="M25.25,23.88c.1-1.27-.26-2.36-.74-3.53-.81-1.96-.88-3.52-.89-5.6,0-.46-.62-.5-.77-.1-.52,1.38-.56,2.87-.16,4.29.47,1.68,1.56,3.13,1.5,4.94-.02.69,1.01.67,1.06,0h0Z"/>
            <path class="cls-3" d="M20.64,22.58c-.41-1.47-.63-3.05-1.22-4.46-.16-.39-.75-.37-.77.1-.07,1.57.47,3.17.96,4.64.22.65,1.22.39,1.04-.29h0Z"/>
            <path class="cls-3" d="M37.87,16c-.93-2.66-1.01-5.07-.45-7.82.09-.43-.54-.76-.75-.32-1.28,2.7-1.14,5.92.13,8.59.28.6,1.3.18,1.08-.45h0Z"/>
            <path class="cls-3" d="M42.48,17.37c.69-1.47,1.38-3.28,1.05-4.92-.09-.45-.68-.35-.82,0-.56,1.44-.71,3.02-1.29,4.48-.24.6.78,1.04,1.05.44h0Z"/>
            <path class="cls-3" d="M52.36,27.33c1.13-3.16,3.04-6.44.82-9.61-.23-.32-.84-.14-.69.29.63,1.74.83,3.22.34,5.03-.37,1.37-.94,2.68-1.28,4.07-.13.53.63.73.81.22h0Z"/>
            <path class="cls-3" d="M56.07,30.71c.06-.25.12-.5.17-.75s.12-.53.09-.78c-.05-.42-.57-.61-.82-.22-.27.41-.33,1-.44,1.48-.15.65.85.93,1,.28h0Z"/>
            <path class="cls-3" d="M31.84,18.76l.1-.35c.04-.14-.05-.31-.2-.35-.16-.04-.29.05-.35.2l-.13.34c-.05.15.06.33.21.36.16.04.32-.05.36-.21h0Z"/>
            <path class="cls-3" d="M38.74,27.46c.04-.53.24-1.28-.15-1.71-.18-.2-.46-.15-.65,0-.26.21-.27.55-.3.86l-.08.85c-.03.32.29.59.59.59.34,0,.57-.27.59-.59h0Z"/>
            <path class="cls-3" d="M29.01,37.68l-.12-.69c-.02-.13-.18-.2-.29-.17-.13.04-.19.17-.17.29l.12.69c.02.13.18.2.29.17.13-.04.19-.17.17-.29h0Z"/>
            <path class="cls-3" d="M34.9,46.86c.29,0,.29-.45,0-.45s-.29.45,0,.45h0Z"/>
            <path class="cls-3" d="M12.67,57.9c-2.69-2.2-5.97-4.23-6.52-7.92-.08-.56-.86-.35-.92.12-.43,3.76,4.11,6.61,6.62,8.61.57.46,1.39-.34.82-.82h0Z"/>
            <path class="cls-3" d="M16.21,67.22c-.98-.59-2.02-.65-3.14-.76-.77-.08-1.53-.17-2.12-.72-.54-.5-.67-1.25-.99-1.9-.21-.42-.82-.19-.84.23-.05,1.34.58,2.57,1.82,3.14,1.48.69,3.23.2,4.66,1.03.66.39,1.26-.63.6-1.03h0Z"/>
            <path class="cls-3" d="M18.88,51.95c-.02-.49.05-1.09-.28-1.49-.15-.18-.51-.18-.66,0-.33.4-.26,1-.28,1.49-.03.79,1.26.79,1.22,0h0Z"/>
            <path class="cls-3" d="M13.13,52.21c-.33-.45-.68-1.11-1.21-1.35-.26-.12-.69.01-.65.37.06.6.5,1.1.84,1.57.18.26.52.38.81.21.25-.15.4-.55.21-.81h0Z"/>
            <path class="cls-3" d="M30.08,69.39c-.01-.67.18-1.45.02-2.1-.11-.46-.72-.49-.96-.13-.39.6-.32,1.54-.28,2.23.05.78,1.24.79,1.22,0h0Z"/>
            <path class="cls-3" d="M14.72,40.46c-.07-.41-.09-.96-.49-1.19-.19-.11-.46-.08-.61.08-.32.33-.2.87-.16,1.28.04.38.32.69.73.63s.6-.42.53-.8h0Z"/>
            <path class="cls-3" d="M49.55,33.84c.51,3.39,3.2,6.41,2.35,9.88-.11.43.46.66.7.3.87-1.31.64-2.89.12-4.31-.75-2.05-1.75-3.99-2.5-6.05-.16-.43-.74-.25-.67.19h0Z"/>
            <path class="cls-3" d="M43.72,47.83c1.12,4.42-2.23,7.96-2.74,12.17-.4,3.26.64,6.72,2.94,9.09.4.41.95-.19.61-.61-2.74-3.46-3.29-7.47-1.6-11.54,1.27-3.05,3.04-6.15,1.6-9.46-.21-.47-.93-.13-.81.34h0Z"/>
            <path class="cls-3" d="M53.92,61.72c2.85-2.28,3.54-7.03.99-9.82-.33-.36-.81.1-.63.49,1.45,3.21,1.4,5.97-.99,8.71-.38.44.18.97.62.62h0Z"/>
            <path class="cls-3" d="M57.81,39.35c-.31.92-.51,1.96-.22,2.91.12.41.68.3.72-.1.08-.89.1-1.72.39-2.57.19-.56-.69-.8-.88-.24h0Z"/>
            <path class="cls-3" d="M48.72,71.47c.6-.95,1.12-2.3.62-3.4-.18-.38-.7-.22-.81.11-.16.44-.16.92-.24,1.37-.09.49-.22.96-.42,1.42-.26.57.51,1.06.86.5h0Z"/>
            <path class="cls-3" d="M47.52,62.35c0-.58.06-1.25-.13-1.81-.15-.45-.76-.45-.91,0-.19.56-.12,1.23-.13,1.81-.01.75,1.18.76,1.17,0h0Z"/>
            <path class="cls-3" d="M63.15,42.16c.48-1.41.24-2.73.38-4.18.16-1.68,1.45-2.75,1.79-4.33.11-.51-.53-.76-.82-.35-.77,1.09-1.7,2.34-2.01,3.66-.38,1.65.2,3.32-.17,4.97-.12.55.65.75.83.23h0Z"/>
            <path class="cls-3" d="M63.31,51.93c.54-3.27,2.05-5.65,3.83-8.35.29-.45-.33-.85-.7-.54-2.47,2.1-3.67,5.64-4.01,8.77-.05.5.8.62.88.12h0Z"/>
            <path class="cls-3" d="M62.49,61.98c2.34-1.9,5.1-3.98,4.81-7.36-.04-.48-.82-.68-.92-.12-.25,1.45-.54,2.79-1.45,3.99-.84,1.11-1.94,2.04-2.93,3.01-.32.32.15.76.49.49h0Z"/>
            <path class="cls-3" d="M24.42,75.12c-2.45-.39-4.74.64-6.95-.85-.39-.26-.78.24-.6.6,1.33,2.6,5.21,1.19,7.4,1.3.58.03.74-.94.14-1.04h0Z"/>
            <path class="cls-3" d="M32.45,78.82c-.12.43-.29.83-.51,1.22s-.52.69-.73,1.06.21.83.59.59c.84-.55,1.31-1.68,1.56-2.61.16-.59-.74-.83-.91-.25h0Z"/>
            <path class="cls-3" d="M43.29,78.4c.76,1.11,1.77,2.13,3.08,2.55.49.16.7-.52.33-.78-.95-.67-1.89-1.3-2.61-2.24-.35-.46-1.14-.03-.8.47h0Z"/>
            <path class="cls-3" d="M51.15,74.74c1.35,1.06,3.28,1.68,4.89.84.41-.21.22-.9-.24-.88-1.48.08-2.73.08-3.99-.83-.5-.36-1.16.48-.67.87h0Z"/>
          </g>
          <g>
            <path class="cls-4" d="M43.91,41.55s-7.74,6.7-9.47,14.79c-1.73,8.09,1.39,27.26,19.41,32.92,18.02,5.66,30.96-3.93,36.85-12.59s6.01-18.94.46-29.57c-5.54-10.63-15.71-14.44-26.45-14.32-10.74.12-20.79,8.78-20.79,8.78Z"/>
            <path class="cls-1" d="M84.88,43.66c-4.11-5.15-10.96-8.9-17.18-9.91-1.14-.19-2.3-.28-3.46-.28-11.9,0-21.48,7.28-25.3,15.36-3.17,6.72-3.5,14.86-.62,21.73,3.11,7.41,10.37,12.08,18.01,13.91,3.38.81,6.88.99,10.33.63,13.4-1.39,18.34-10,20.56-14.9,3.39-7.47,3.47-17.13-.78-24.29-.46-.77-.99-1.53-1.56-2.25Z"/>
            <path class="cls-5" d="M74.32,49.64c-2.55-3.36-6.64-5.62-11.13-5.72-10.55-.24-17.12,10.82-14.1,20.45,2,6.39,8.74,9.65,15.17,8.9,6.82-.79,11.45-7.12,12.58-13.57.65-3.71-.4-7.27-2.52-10.06Z"/>
            <path class="cls-3" d="M91.25,63.3c1.82.66,2.95,1.89,4.38,3.1.43.36,1.01-.08.77-.59-.86-1.83-3.03-2.98-4.86-3.55-.67-.21-.93.8-.29,1.04h0Z"/>
            <path class="cls-3" d="M93.57,57.72c.42.06.84.13,1.25.21.39.08.78.21,1.18.16.36-.04.51-.48.19-.69-.64-.42-1.64-.46-2.38-.57-.58-.09-.83.81-.25.89h0Z"/>
            <path class="cls-3" d="M88.68,73.02c.75.97,1.75,2.07,2.92,2.51.48.18.82-.5.48-.83-.42-.42-.94-.74-1.39-1.15s-.85-.86-1.22-1.33c-.45-.57-1.24.23-.8.8h0Z"/>
            <path class="cls-3" d="M58.49,87.64c.52,1.83,1.44,3.46,2.85,4.74.41.38.95-.18.6-.6-1.08-1.31-1.93-2.78-2.42-4.42-.2-.66-1.23-.38-1.04.29h0Z"/>
            <path class="cls-3" d="M67.48,88.1c.16.19.32.37.51.52.16.13.36.16.53.03s.19-.33.1-.52c-.11-.22-.25-.42-.4-.62-.17-.23-.45-.32-.7-.13s-.23.49-.05.71h0Z"/>
            <path class="cls-3" d="M76.06,86.1c.52.47,1.01.97,1.44,1.53s.74,1.13,1.2,1.62c.35.37.96-.01.83-.48-.36-1.36-1.62-2.59-2.64-3.49-.56-.49-1.39.32-.83.83h0Z"/>
            <path class="cls-3" d="M83.23,80.21c.62.84,1.43,1.85,2.47,2.17.55.17.84-.51.52-.89-.29-.35-.67-.61-1.01-.91s-.64-.63-.91-.99c-.2-.27-.53-.4-.85-.22-.27.15-.42.58-.22.85h0Z"/>
            <path class="cls-3" d="M56.85,67.88c.61-1.75,1.6-3.08,2.93-4.36,1.11-1.07,2.54-1.9,3.54-3.06.27-.31-.06-.75-.43-.56-1.54.77-3.01,2.28-4.16,3.55s-2.05,2.68-2.64,4.21c-.18.47.6.69.77.21h0Z"/>
            <path class="cls-3" d="M66.68,59.24c2.41-.58,4.8-.57,7.26-.36.48.04.58-.73.11-.84-2.55-.57-5.1-.33-7.59.38-.52.15-.3.94.23.82h0Z"/>
            <path class="cls-3" d="M49.19,60.23c.7-4.04,2.8-7.7,6.02-10.24,3.82-3.01,8.07-3.57,12.79-3.26.47.03.59-.72.12-.83-9.16-2.09-18,5.45-19.47,14.18-.06.35.48.51.54.16h0Z"/>
          </g>
          <path class="cls-3" d="M61.29,32.85c-9.73.29-19.16,7.16-23.9,15.35-2.69,4.65-4.06,10.06-3.73,15.44.36,5.9,3.03,11.81,6.3,16.66.45.66,1.49.07,1.08-.63-2.93-5.02-5.96-10.35-6.27-16.3-.27-5.19,1.01-10.39,3.68-14.84,2.39-3.99,5.7-7.49,9.62-10,4.19-2.68,8.54-3.79,13.35-4.73.54-.11.42-.98-.13-.96h0Z"/>
        </g>
        <path class="cls-3" d="M65.59,86.33c7.52.21,16.34-4.3,20.15-10.92.27-.46-.4-1.03-.77-.59-2.47,2.98-4.85,5.55-8.28,7.44-3.44,1.9-7.2,2.77-11.09,3.11-.61.05-.62.94,0,.96h0Z"/>
        <path class="cls-3" d="M88.02,71.68c.41-.54.66-1.23.34-1.87-.14-.28-.57-.26-.71,0-.24.42-.32.9-.61,1.3-.18.25-.04.63.2.78.29.17.59.04.78-.2h0Z"/>
        <path class="cls-3" d="M86.15,46.21c.33.53.67,1.03.93,1.6.23.52.32,1.15.69,1.6.2.25.59.13.69-.14.23-.61-.2-1.31-.43-1.89-.25-.63-.72-1.34-1.23-1.79-.41-.37-.99.06-.65.62h0Z"/>
      </g>
      <rect class="cls-2" width="100" height="100"/>
    </g>
  </g>
</svg>