<?xml version="1.0" encoding="UTF-8"?>
<svg id="Capa_2" data-name="Capa 2" xmlns="http://www.w3.org/2000/svg" viewBox="0 0 100 100">
  <defs>
    <style>
      .cls-1 {
        fill: #fff;
      }

      .cls-2 {
        fill: none;
      }

      .cls-3 {
        fill: #ef2b45;
      }

      .cls-4 {
        fill: #4a2d2d;
      }
    </style>
  </defs>
  <g id="COLOR">
    <g>
      <g>
        <path class="cls-4" d="M42.76,33.09c-1.4-.47-2.32,1.74-2.07,2.81.34,1.49,2.04,1.62,3.28,1.54.43-.03.43-.7,0-.67-.8.04-2,.14-2.46-.7-.39-.72.45-1.87,1.18-2.01.6-.11.44-1.04-.14-1.04,0,0,.22.07.22.07Z"/>
        <path class="cls-3" d="M60.16,29.58s-1.61-7.06-9.46-6.61c-7.85.45-11.8,9.89-6.96,15.6,4.84,5.71,11.96,3.11,14.69-.62,2.73-3.73,1.72-8.36,1.72-8.36Z"/>
        <path class="cls-4" d="M65.53,20.31c0-1.32-2.05-1.32-2.05,0,0,1.04-.05,2.08-.13,3.11-2.13,2.02-4.34,4.11-7.23,4.96-.08.02-.14.06-.19.1,0-.24.01-.49.06-.72.1-.47-.53-.62-.71-.19-.32.77-.43,1.55-.09,2.33.27.62.87,1.33,1.6,1.3.39-.02.6-.49.32-.78-.34-.36-.77-.51-.99-.99,0-.02-.01-.04-.02-.05.09.03.18.04.29.02,1.96-.41,3.8-1.51,5.46-2.61.42-.28.85-.58,1.27-.91-.96,7.74-3.73,15.2-7.12,22.21-.92.68-1.84,1.38-2.92,1.87-1.88.85-3.9,1.29-5.92,1.63-.73.12-.41,1.21.3,1.1,2.25-.34,4.52-.8,6.63-1.68.18-.07.36-.15.55-.24-3.79,7.15-8.72,13.06-15.16,18.06-.65.51.19,1.57.88,1.14,4.49-2.81,8.21-6.46,11.34-10.59.16,1.58.58,3.14,1.43,4.48.34.54,1.23.2,1.04-.44-.57-1.95-1.1-3.8-1.18-5.83,1.59-2.3,3.04-4.71,4.32-7.22,4.74-9.27,8.28-19.54,8.23-30.05Z"/>
        <path class="cls-1" d="M51.13,24.53c-2.53.05-6.47,1.98-5.95,5.06.08.48.78.77,1.18.48.79-.59,1.28-1.47,2.02-2.12s1.75-1.16,2.75-1.28c1.33-.16,1.42-2.17,0-2.15h0Z"/>
        <path class="cls-1" d="M45.76,33.97c.44,0,.44-.68,0-.68s-.44.68,0,.68h0Z"/>
        <path class="cls-3" d="M35.49,63.94c-6.54,0-12.79,7.44-10.8,12.16,1.99,4.72,7.44,9.83,15.46,6.71,5.73-2.23,8.1-10.77,3.76-15.38-2.11-2.24-5.37-3.49-8.42-3.49Z"/>
        <path class="cls-3" d="M55.21,59.74s-3.52.85-5.46,5.17c-1.93,4.32-1.65,11.08,4.55,12.9,6.19,1.82,10.57-2.1,11.88-5.11,1.31-3.01,1.08-7.62-1.59-10.4-2.67-2.78-7.05-3.18-9.38-2.56Z"/>
        <path class="cls-3" d="M38.27,44.74c-7.17.65-10.23,6.65-9.55,11.08.68,4.43,5.97,8.75,12.62,6.99,6.65-1.76,7.03-9.19,6.71-10.57-.8-3.35-3.52-8.07-9.77-7.5Z"/>
        <path class="cls-3" d="M58.45,39.39c-6.42,3.18-6.99,12.05-1.99,16.2,5,4.15,11.88,2.96,15.12-1.42,1.79-2.42,2.37-5.7,1.59-8.6-.81-3.02-3.29-5.38-6.1-6.62s-5.91-.9-8.62.45Z"/>
        <path class="cls-4" d="M68.72,49.79c-.05-.24-.2-.47-.47-.66-.87-.61-2.1-.54-2.93.09-.8.61-1.1,1.93-.12,2.52.91.55,2.14.2,2.88-.48.43-.4.75-.97.64-1.47ZM66.81,50.8c-.6.31-1.31.5-1.26-.13.05-.62,1.04-.92,1.53-.93.13,0,.28.01.38.09.52.4-.41.83-.66.96Z"/>
        <path class="cls-4" d="M36.73,54.02c-.63-.67-1.53-1.02-2.18-.49-.71.58-.35,1.78.09,2.42.46.67,1.6,1.37,2.36.75.85-.69.47-1.9-.27-2.68ZM36.37,55.85c-.21.14-.78-.14-1.05-.44-.17-.19-.63-.91-.34-1.18.42-.38,1.17.73,1.32,1,.19.36.18.54.07.61Z"/>
        <path class="cls-4" d="M31.99,73.65c-1.18-.68-2.8-.7-2.94.67-.12,1.13.71,2.38,1.73,2.82,1.22.53,2.27-.38,2.42-1.6.09-.77-.47-1.46-1.21-1.88ZM31.03,76.24c-.48-.23-.95-.76-1.06-1.29-.23-1.14,2.01-.46,2.18.22s-.43,1.39-1.13,1.06Z"/>
        <path class="cls-4" d="M66.02,70.42c-1.37-.77-2.68.36-3.17,1.63-.4,1.04-.11,3.08,1.43,2.89.51-.06.63-.71.12-.9-1.46-.55,0-3.03,1.18-2.59.6.22.98-.72.43-1.02h0Z"/>
        <path class="cls-1" d="M41.51,46.86c-1.43-.78-3.03-1.06-4.61-.58-1.39.42-3.01,1.41-3.15,2.97-.05.62.62,1,1.16.88.96-.22,1.72-1.03,2.68-1.33,1.02-.33,2.11-.4,3.15-.12s1.77-1.27.77-1.82h0Z"/>
        <path class="cls-1" d="M38.65,66.33c-2.38-1.34-6.45-1.25-8.11,1.22-.43.63.28,1.36.93,1.22,1.05-.24,2-.75,3.07-.92,1.14-.18,2.24.01,3.35.28s1.75-1.23.76-1.79h0Z"/>
        <path class="cls-1" d="M37.63,80.9c.3.09.6.09.9.03.4-.08.7-.35.81-.74s-.13-.79-.51-.9c-.12-.04-.18-.07-.33-.07-.02,0-.31.02-.37.06.14-.02.17-.02.08-.02-.03,0-.07,0-.1,0,.15.02.17.02.08,0-.03,0-.06-.02-.09-.03-.43-.15-.97.17-1.07.61-.11.46.14.93.61,1.07h0Z"/>
        <path class="cls-1" d="M41.65,59.91c1.08,0,1.08-1.68,0-1.68s-1.08,1.68,0,1.68h0Z"/>
        <path class="cls-1" d="M61.46,42.15c1.3-.24,2.9.11,4.12.61,1.14.46,1.58,1.32,2.48,2.03.51.4,1.55.39,1.67-.44.28-1.86-1.38-3.05-2.95-3.66-1.96-.76-4.02-.91-5.93.03-.85.42-.22,1.59.61,1.44h0Z"/>
        <path class="cls-1" d="M57.99,54.43c.1.09.22.21.34.28.17.09.36.15.55.14.17,0,.36-.07.48-.2s.19-.29.2-.48c0-.17-.05-.4-.14-.55-.08-.12-.18-.23-.28-.34-.13-.15-.38-.24-.57-.24s-.43.09-.57.24-.25.36-.24.57.08.43.24.57h0Z"/>
        <path class="cls-1" d="M57.45,64.15c1.38-.34,2.77-.06,3.86.87.8.69,1.16,1.85,2.12,2.33.36.18.85.11,1.06-.28.84-1.59-.71-3.38-1.96-4.25-1.64-1.13-3.76-1.3-5.63-.69-1.28.41-.76,2.34.56,2.02h0Z"/>
        <path class="cls-1" d="M54.12,73.06c.13.28.26.57.5.78.18.16.36.26.6.29.22.03.47,0,.67-.12.15-.1.28-.22.38-.38.16-.24.15-.53.11-.81-.05-.31-.24-.58-.41-.83-.15-.23-.36-.41-.63-.49-.25-.07-.59-.04-.82.11s-.43.36-.49.63l-.04.28c0,.19.05.37.14.54h0Z"/>
      </g>
      <rect class="cls-2" width="100" height="100"/>
    </g>
  </g>
</svg>