<?xml version="1.0" encoding="UTF-8"?>
<svg id="Capa_2" data-name="Capa 2" xmlns="http://www.w3.org/2000/svg" viewBox="0 0 100 100">
  <defs>
    <style>
      .cls-1 {
        fill: #fff;
      }

      .cls-2 {
        fill: none;
      }

      .cls-3 {
        fill: #4a2d2d;
      }

      .cls-4 {
        fill: #fee7a9;
      }

      .cls-5 {
        fill: #c0c728;
      }
    </style>
  </defs>
  <g id="COLOR">
    <g>
      <g>
        <path class="cls-3" d="M35.04,22.76c.36-1.21.05-2.33-.6-3.42-.9-1.51-3.43-4.02-1.7-5.67,2.29-2.2,4.58,1.83,4.74,3.6.17,1.88-.42,3.81-.44,5.66,0,.71.69,1.14,1.03.42,1.56-3.24,1.55-11.41-3.94-11.44-2.04-.01-3.5,1.49-3.44,3.33.09,2.78,3.35,4.5,3.26,7.35-.02.72.89.84,1.09.15h0Z"/>
        <g>
          <path class="cls-5" d="M56.01,57.61c-3,6.17-7.3,12.14-13.3,15.6-2.94,1.69-6.46,2.98-9.87,2.48-3.96-.58-7.49-2.98-10.34-5.71-4.46-4.26-8.74-8.93-12.42-13.91-3.47-4.7-5.66-9.88-5.85-15.79-.19-6.12,2.13-11.42,6-16.06,1.94-2.32,4.35-5.38,7.44-6.02,3.01-.63,5.76.62,8.54,1.59,3.18,1.1,6.3,1.21,9.61.68,4.42-.71,8.7-2.21,13.21-2.33,4.16-.12,8.06,1.4,10.82,4.59,1.43,1.66,2.04,3.71,2.63,5.78.29,1.02.47,2.07.55,3.13,0,.9-.05,1.82-.04,2.77,0,.09.02.17.04.25-.16,2.3-.64,4.57-1.22,6.81-1.44,5.55-3.3,11.01-5.8,16.16Z"/>
          <path class="cls-3" d="M62.14,36.13c-.64-.56-1.45-.84-2.03-1.49-.34-.37-.61-.79-.88-1.22-.27-.42-.64-.87-.8-1.35.05-.03.1-.06.15-.09,2.46-1.65,2.7-5.85,1.56-8.29-.26-.55-1.07-.15-.94.4.54,2.34,1.1,5.6-1.5,6.95-2.41,1.25-4.78-.54-6.59-2.1,1.28-.77,1.9-2.3,1.85-3.89-.07-2-1.45-5.43-3.35-6.28-.47-.21-1.06.38-.6.78,1.27,1.11,2.43,2.89,2.87,4.55.84,3.16-1.92,4.79-4.69,3.64-3.33-1.38-4.98-4.39-6.25-7.56-.35-.88-.89.36-1,.71-.42,1.32.16,2.55.23,3.87.06,1.21,0,2.43-.28,3.61-.54,2.23-2.29,4.92-4.99,4.37-1.93-.39-2.85-2.61-3.17-4.34-.44-2.37.03-4.66.7-6.93.05-.16.1-.33.06-.49-.18-.76-1.03.05-1.29.32-.59.61-.8,1.32-1.19,2.05-.55,1.05-1.16,2.06-1.85,3.03-1.32,1.88-2.95,3.65-5,4.73-1.97,1.05-3.68-.1-3.65-2.27.01-1.04.29-2.22.66-3.19.87-2.27,2.49-4.09,4.13-5.81.36-.38-.12-1.09-.59-.76-.15.11-.29.22-.43.33-2.75,1.14-4.87,3.19-8.09,1.77-.48-.21-.91.49-.42.72,1.92.92,4.33.78,6.36-.11-.9,1.34-1.53,2.87-1.99,4.46-.52,1.78-1.08,4.63.79,5.77-1.24,1.11-2.4,2.37-4.07,2.84-2.35.66-4.35-.76-5.04-2.99-1.07-3.47.92-7.22,3.05-9.84.3-.37-.17-.87-.53-.53-3.08,2.88-5.41,8.63-2.65,12.46.48.66,1,1.14,1.56,1.48-1.09,1-1.9,2.4-2.99,3.42-1.33,1.24-2.81,2.31-4.38,3.22-.43.25-.05.86.38.66,1.73-.82,3.31-1.86,4.71-3.17.49-.46,1.05-.98,1.58-1.56-.99,4.06-1.23,9.3,3.04,10.78.09.03.19.06.28.08,0,.01,0,.03,0,.04-.54,1.11-.88,2.28-1.58,3.32-.86,1.26-1.97,2.33-3.21,3.2-.47.33-.05,1.08.45.78,1.81-1.09,3.78-3.03,4.66-5.19.41,1.95,1.13,3.73,2.08,5.6,1.07,2.1,2.56,3.67,5.07,3.7.22,0,.44-.01.66-.03,0,.16,0,.31.01.46-.34.91-.44,1.89-.87,2.78-.53,1.1-1.3,2.17-2.28,2.91-.42.31-.05,1.01.42.72,1.28-.77,2.63-2.4,3.29-4.09.57,1.37,1.47,2.63,2.39,3.76,1.52,1.87,3.48,3.57,5.98,3.8.57.05,1.13,0,1.66-.11-.34,1.2-.97,2.34-1.86,3.19-.31.3.14.73.47.47.9-.72,1.59-1.54,2.07-2.49.39,1.47,1.11,2.91,2.58,3.12.53.07.89-.58.38-.9-1.2-.75-2.06-2.42-2.23-3.9,3.11-1.6,5.29-5.84,6.02-9.03.33.03.67.03,1.01.02.19,2.36,2.24,5.26,4.24,6.23,2.09,1.02,4.74-.14,5.49-2.3.14-.4-.39-.64-.67-.39-.59.53-1.12,1.21-1.84,1.58-1.57.8-2.66,0-3.71-1.19-1.09-1.24-1.84-2.55-2.34-4.08.18-.04.36-.08.54-.14,2.63-.78,4.69-2.9,5.74-5.38.58-1.37.94-2.82,1.15-4.29.13-.98.34-2.16.32-3.26.17.04.33.07.5.09.27,1.56.94,3.01,2.1,4.15.95.94,3.11,2.67,4.39,1.47.17-.16.15-.51-.08-.62-.64-.3-1.33-.37-1.96-.71-.63-.34-1.18-.8-1.67-1.31-.8-.84-1.39-1.84-1.74-2.93.38-.02.76-.08,1.13-.19,2.57-.76,3.7-3.5,4.04-5.91.39-2.78.56-6.45-.55-9.16.18-.04.36-.09.55-.16.4,1.78,2.25,4.82,4.31,4.38.3-.06.43-.51.19-.71ZM41.36,23.62c1.47,2.67,3.81,5.25,6.61,5.76.1,2.88.5,6.44-2.68,7.86-.63.28-1.27.38-1.91.35-.09-.03-.2-.04-.3-.03-2.2-.27-4.31-2.11-5.57-3.87,3.33-1.23,4.22-6.25,3.85-10.06ZM35.23,33.93c.48.05.92.04,1.34-.01,1.23,2.08,3.5,4.29,5.98,4.79-.62,4.32-1.28,10.41-6.19,11.79-2.35.66-5.13-.31-6.8-2.03-1.87-1.93-2.41-4.65-2.31-7.25,3.42-.75,6.76-4.1,7.36-7.31,0-.03,0-.06,0-.09.2.05.4.09.62.11ZM26.88,29.39c1.59-1.54,2.86-3.25,3.85-5.14-.47,3.65.06,8.18,3.33,9.39,0,0-.01.01-.02.02-1.73,2.65-3.36,5.13-6.52,6.22-4.92,1.7-6.38-3.77-5.14-7.5,0,0,0-.01,0-.02,1.72-.38,3.34-1.85,4.49-2.97ZM13.17,35.86c2.71.86,5.9-1.12,7.78-3.46.19.04.39.06.58.06-1.37,2.83-.69,7.01,2.15,8.43-.77,1.52-1.45,2.96-2.65,4.24-1.41,1.51-3.73,3.25-5.9,2.63-4.85-1.38-3.06-8.23-1.96-11.9ZM15.83,49.03c3.95.25,7.85-4.42,8.97-7.77.22.04.44.08.68.09.24.02.48.02.72,0-.31,3.37,1.07,6.84,3.58,8.82-1.12,3.49-2.8,8.52-7.16,8.87-4.71.37-6.33-6.35-6.78-10.01ZM32.72,69.4c-4.43.33-8.08-5.39-8.56-9.35,3.67-1.1,6.01-5.54,6.69-9.16.52.29,1.08.52,1.68.68.33,2.74,1.28,5.34,3.43,7.21,1.09.94,2.4,1.64,3.79,1.97-.97,3.45-3.16,8.35-7.02,8.64ZM49.36,49.09c-.07,1.35-.24,2.71-.55,4.03-.58,2.48-1.98,4.78-4.3,5.97-2.63,1.36-5.79.61-7.91-1.33-1.76-1.61-2.47-3.72-2.88-5.96.67.07,1.37.05,2.1-.06,2.69-.43,4.68-2.31,5.91-4.66.9-1.71,1.68-3.82,1.97-5.9,1,2.46,3.22,4.9,5.69,6.05-.04.62,0,1.25-.03,1.87ZM56.43,39.63c-.08,2.36-.41,5.83-3.02,6.79-2.37.87-5.01-1.01-6.56-2.68-1.37-1.47-1.92-3.2-2.68-4.97.37-.05.73-.14,1.1-.28,3.4-1.33,4.12-5.72,3.85-9.03.24,0,.48-.03.72-.07.1-.02.2-.04.3-.07,1.49,1.45,3.54,3.18,5.68,3.37.07,2.31.68,4.57.59,6.93Z"/>
        </g>
        <g>
          <path class="cls-4" d="M71.05,44.96s-3.09-8.54-7.97-9.85c-4.88-1.3-13.1,2.28-17.49,8.71-4.39,6.43-8.87,17.9-8.95,23.19-.08,5.29-.16,16.35,7.08,21.97,7.24,5.61,21.81,7.24,35.47-.65,13.67-7.89,18.06-18.14,18.06-26.52s-4.48-13.34-9.68-14.89c-5.21-1.55-14.56,1.63-16.52-1.95Z"/>
          <path class="cls-5" d="M97.25,61.8c0-7.33-3.42-12.04-7.76-14.14.37.36.71.74,1.01,1.13,1.71,2.28,4.23,7.08,3.25,12.77-.98,5.7-4.15,11.47-13.18,19.85-9.03,8.38-23.11,10.74-35.07,3.99-7.31-4.13-8.79-12.95-8.83-19.17-.02.27-.04.54-.04.78-.08,5.29-.16,16.35,7.08,21.97,7.24,5.61,21.81,7.24,35.47-.65,13.67-7.89,18.06-18.14,18.06-26.52Z"/>
          <g>
            <path class="cls-1" d="M71.72,45.49c-1.55,2.12-17.87,23.52-12.76,25.23,1.55.52,3-1.75,3.75-2.7,1.59-2.02,2.93-4.21,4.19-6.46,2.65-4.75,5.1-9.55,8.07-14.12.33-.5-.46-1.14-.85-.65-2.58,3.27-4.36,7.03-6.28,10.7-1,1.9-2.01,3.79-3.12,5.63-.53.87-1.08,1.73-1.65,2.56-.66.95-1.38,2.37-2.33,3.04-.56.4-1.14.43-1.33-.41-.27-1.15.99-3.71,1.51-4.78.94-1.94,2.13-3.76,3.35-5.54,2.76-4.01,5.54-8,8.27-12.04.34-.51-.46-.95-.81-.47h0Z"/>
            <path class="cls-3" d="M93.48,52.28c-1.29-2.77-3.56-4.99-6.79-5.89-2.31-.64-4.74-.76-7.11-.56-1.98.17-4.11.32-6.01-.38-1.84-.68-2.8-2.38-3.51-4.1-.79-1.92-2.09-3.66-3.72-4.96-2.22-1.77-5-2.44-7.8-2.06-5.38.72-9.65,4.66-12.88,8.77-3.53,4.5-6.18,9.7-7.77,15.2-1.25,4.33-1.9,8.89-1.48,13.4.37,3.99,1.54,7.85,4.13,10.86,6.42,8.72,20.11,9.33,29.8,5.64,11.35-4.33,21.67-14.91,24.13-27.03.61-2.99.27-6.19-.98-8.88ZM92.84,62.42c-1.38,5.45-4.52,10.51-8.29,14.64-7.65,8.38-19.65,13.77-31.03,11.27-3.95-.87-7.9-2.72-10.86-5.51-3.53-3.33-4.37-7.77-4.48-12.47-.14-5.67.87-11.34,2.99-16.6,2.37-5.89,6.84-12.38,12.15-16.02,2.85-1.96,7-2.81,10.33-1.3,1.61.73,3.03,3.08,4.01,4.52.84,1.25,1.34,2.77,2.26,3.94,2.25,2.86,6.44,2.67,9.67,2.57,3.47-.11,7.36.63,10.14,2.9,3.45,2.81,4.17,7.97,3.12,12.08Z"/>
            <g>
              <path class="cls-3" d="M53.97,72.48s-.08-.01-.12-.02c-1.01-.12-2.23.14-3.22.3-1.12.18-2.23.46-3.27.92-1.49.65-3.76,2.14-3.32,4.12.4,1.83,2.68,1.51,3.97.97,1.4-.59,2.67-1.45,3.81-2.44.58-.5,1.12-1.03,1.64-1.59.46-.49,1.81-2.01.52-2.26Z"/>
              <path class="cls-3" d="M63.1,73.55c-.97-.74-1.37,2.87-1.41,3.24-.24,2.19.07,4.44.93,6.47.65,1.54,2,2.89,3.74,1.85,1.8-1.08,1.65-3.68,1.2-5.43-.67-2.61-2.36-4.54-4.46-6.13Z"/>
              <path class="cls-3" d="M71.42,67.53c-.42-.1-.71.21-.76.54-.03.08-.04.18-.01.28.68,2.79,1.62,5.62,3.48,7.87,1.01,1.23,3.04,2.5,4.38.92,1.34-1.58.24-4.59-.74-6.05-1.45-2.17-3.9-3-6.34-3.56Z"/>
              <path class="cls-3" d="M82.2,60.92c-1.06-.73-2.27-1.28-3.53-1.54-1.14-.24-4.08-.61-2.83,1.49.63,1.06,1.37,2.14,2.16,3.09,1.13,1.36,2.39,2.44,4.05,3.07,1.24.47,2.75.38,3.03-1.16.36-1.94-1.42-3.93-2.87-4.94Z"/>
              <path class="cls-3" d="M86.21,52.33c-2.38-.91-4.93-.49-7.32.14-.31.08-.62.48-.51.82.12.35.6.6.88.82.41.33.84.64,1.28.94,1.39.94,2.89,1.84,4.59,1.98,1.29.1,3.77-.09,3.97-1.78.17-1.47-1.77-2.49-2.88-2.91Z"/>
              <path class="cls-3" d="M56.19,63.87c-.11-.09-.23-.16-.36-.23-2.28-1.21-4.86-1.96-7.46-1.86-1.68.07-4.03.76-4.37,2.7-.39,2.24,2.15,3.02,3.89,3.1,1.57.07,3.14-.27,4.61-.79.75-.26,1.47-.58,2.19-.91.41-.19.9-.35,1.26-.66.33-.28.66-.85.33-1.24-.03-.04-.06-.07-.1-.1Z"/>
              <path class="cls-3" d="M59.01,55.06c-.61-1.02-1.8-1.91-2.77-2.56-1.06-.72-2.24-1.28-3.47-1.65-1.7-.5-4.23-.9-5.22,1.03-.87,1.69.44,3.39,1.94,4.06,2.67,1.19,6.23.73,9.02.44.62-.07.78-.83.5-1.3,0,0,0,0,0-.01Z"/>
              <path class="cls-3" d="M62.95,49.98c1.21.4.84-1.86.78-2.41-.21-1.89-.97-3.76-2.03-5.33-.96-1.42-2.94-2.71-4.64-1.64-1.72,1.09-1.27,3.23-.29,4.62,1.48,2.11,3.72,3.94,6.18,4.75Z"/>
            </g>
          </g>
        </g>
        <path class="cls-1" d="M58.97,43.21c.1.12.19.23.29.35.2.23.48.34.77.37s.63-.24.69-.53.01-.6-.15-.86c-.08-.13-.17-.25-.25-.38-.29-.43-.84-.57-1.26-.24-.19.14-.29.33-.32.56-.04.29.06.51.24.72h0Z"/>
        <path class="cls-1" d="M50.52,53.78c.11-.02.21-.03.32-.08.1-.04.2-.09.3-.13.17-.08.33-.31.37-.48s.03-.35-.04-.52c-.16-.38-.55-.55-.95-.47-.08.02-.16.03-.23.05-.13.04-.25.11-.37.18-.35.19-.47.64-.33.99.06.15.17.3.33.38l.19.08c.14.04.28.04.42,0h0Z"/>
        <path class="cls-1" d="M47.08,64.86c.14-.09.31-.18.42-.3.07-.08.15-.17.21-.26.04-.06.08-.14.1-.21.05-.15.02-.29,0-.44v.37c.06-.15.03-.29.01-.44-.03-.19-.25-.41-.44-.44-.15-.02-.29-.04-.44.01h.37c-.12-.02-.22-.04-.34-.02-.11.01-.2.05-.3.1-.09.05-.2.14-.27.22-.12.11-.21.28-.31.42s-.11.31-.09.46.08.31.2.42c.09.08.2.15.32.19.16.05.41.02.56-.07h0Z"/>
        <path class="cls-1" d="M45.85,77.09c.17.04.34.06.51.01.09-.03.18-.07.26-.11.12-.07.22-.17.29-.29.07-.13.11-.27.11-.41,0-.15-.04-.29-.11-.41-.07-.12-.17-.22-.29-.29-.09-.04-.17-.09-.26-.11-.11-.04-.23-.04-.34-.02-.04,0-.08,0-.12.02-.02,0-.03,0-.05.01l-.2.08c-.1.05-.18.12-.24.22-.05.05-.09.11-.11.18-.05.1-.08.21-.07.32l.03.22.08.2c.05.1.12.18.22.24.08.07.18.12.29.15h0Z"/>
        <path class="cls-1" d="M66.48,81.82c0-.27-.02-.54-.14-.78-.22-.43-.92-.43-1.14,0-.13.25-.14.51-.14.78,0,.37.33.73.72.72s.72-.31.72-.72h0Z"/>
        <path class="cls-1" d="M73.73,70.71c.26.06.54.17.81.09.17-.05.29-.16.36-.32.06-.15.07-.36-.03-.5-.07-.1-.14-.19-.25-.26-.04-.02-.09-.04-.13-.06l-.26-.12c-.17-.07-.31-.1-.49-.06-.19.04-.34.19-.41.37-.14.34.04.77.41.86h0Z"/>
        <path class="cls-1" d="M79.9,62.78l.19.07c.15.06.32.08.48.01.08-.02.15-.05.2-.11.07-.04.12-.1.16-.17.08-.15.1-.3.06-.46-.02-.07-.05-.14-.09-.2-.07-.12-.18-.2-.29-.27l-.19-.12c-.16-.1-.35-.11-.52-.07-.2.05-.36.21-.44.39-.07.18-.07.35,0,.52.03.08.07.16.14.22.08.08.19.14.3.18h0Z"/>
        <path class="cls-1" d="M83.34,54.35c.63.03,1.6.26,1.99-.38.11-.18.11-.43,0-.62-.39-.64-1.36-.41-1.99-.38-.88.04-.89,1.33,0,1.38h0Z"/>
      </g>
      <rect class="cls-2" width="100" height="100"/>
    </g>
  </g>
</svg>