<?xml version="1.0" encoding="UTF-8"?>
<svg id="Capa_2" data-name="Capa 2" xmlns="http://www.w3.org/2000/svg" viewBox="0 0 100 100">
  <defs>
    <style>
      .cls-1 {
        fill: #fff;
      }

      .cls-2 {
        fill: none;
      }

      .cls-3 {
        fill: #4a2d2d;
      }

      .cls-4 {
        fill: #f36477;
      }

      .cls-5 {
        fill: #c0c728;
      }
    </style>
  </defs>
  <g id="COLOR">
    <g>
      <g>
        <path class="cls-4" d="M64.4,43.6c-.09-.31-.42-.49-.73-.49-.28,0-.54.16-.59.49-.17,1.19-.54,2.28-1.04,3.29-.18-1.6-.66-3.24-1.04-4.67-.86-3.17-2.09-6.26-3.66-9.15-1.15-2.12-2.51-4.09-3.95-6.01-2.23-2.97-4.66-5.8-6.79-8.83-.11-.16-.32-.26-.52-.27-.26-.02-.51.1-.56.41-.31,1.99-.92,3.86-1.79,5.59-1.61-2.04-3.47-3.84-4.95-6.01-.06-.09-.12-.17-.17-.25-1.72-2.61-2.94-5.41-3.96-8.35-.2-.57-.95-.43-1.01.14-.36,3.26-1.31,6.44-2.73,9.4-1.88,3.93-4.59,7.48-7.85,10.34-1.32-2.07-2.2-4.42-2.48-6.97-.02-.15-.09-.3-.2-.43-.25-.29-.69-.43-.98-.06-2.51,3.16-4.58,6.52-5.94,10.25-.42,1.15-.77,2.33-1.05,3.55-.92,4.04-1.38,8.83-.43,13.05-.95-1.33-1.73-2.79-2.31-4.38-.16-.43-.72-.63-1.08-.43-.15.08-.26.22-.3.43-.77,3.92-1.61,8.11-1.95,12.3-.53,6.33.06,12.65,3.73,18.04,3.24,4.77,8.18,7.9,13.66,9.45,8.97,2.54,19.49,2.77,27.64-2.3,3.73-2.31,6.79-5.72,8.96-9.61,2.59-3.66,3.75-8.52,4.68-12.79.37-1.71.6-3.42.68-5.11.17-3.55-.27-7.07-1.29-10.61Z"/>
        <path class="cls-5" d="M38.79,17.95c-.47.52-.77,1.2-1.12,1.82-.43.77-1.06,1.54-1.93,1.64-.97.12-1.82-.62-2.53-1.3-.65-.62-1.44-1.26-2.3-1.23,1.42-2.96,2.37-6.14,2.73-9.4.06-.57.81-.7,1.01-.14,1.02,2.94,2.24,5.75,3.96,8.35.06.09.11.17.17.25Z"/>
        <path class="cls-5" d="M21.77,28.18c-.68.41-1.21,1.08-1.45,1.84-.22.7-.23,1.49-.68,2.06-.5.64-1.46.79-2.22.51-.48-.17-.9-.49-1.4-.62-.76-.21-1.56.05-2.34.06-.07,0-.14,0-.2-.02,1.36-3.73,3.43-7.09,5.94-10.25.29-.37.73-.23.98.06-.34,2.17.27,4.45,1.38,6.35Z"/>
        <path class="cls-5" d="M53.4,27.06c-.21.04-.44.06-.66.08-.76.09-1.51.32-2.19.69-.59.33-1.19.77-1.86.67-.87-.13-1.35-1.09-2.09-1.57-1.04-.66-2.41-.26-3.57.16.09-.77.5-1.45.86-2.13.98-1.83,1.67-3.82,2.04-5.87.06-.33.06-.76.14-1.14.2.01.41.11.52.27,2.13,3.04,4.56,5.87,6.79,8.83Z"/>
        <path class="cls-5" d="M65.7,54.2c-.46.17-.98.17-1.43,0-1.01-.4-1.52-1.53-2.38-2.19-.54-.41-1.23-.64-1.92-.62,1.68-1.87,2.62-4.26,3.33-6.64.12-.39.21-1.11.39-1.64.31,0,.64.18.73.49,1.03,3.54,1.47,7.05,1.29,10.61Z"/>
        <path class="cls-5" d="M37.68,49.74c1.36-.22,2.82.35,3.67,1.43.43.54.78,1.25,1.46,1.4.12.03.24.03.34-.03.1-.06.15-.17.2-.28.37-.82.82-1.74,1.67-2.03.34-.11.8-.21.83-.57,0-.14-.07-.28-.14-.4-.75-1.25-1.5-2.51-2.25-3.76-.37-.63-.75-1.25-1.12-1.88-.28-.47-.47-1.05-.94-.54-.33.36-.47,1.29-.69,1.76-.28.59-.59,1.17-.92,1.73s-.69,1.12-1.06,1.67c-.15.22-.84,1.52-1.05,1.52Z"/>
        <path class="cls-5" d="M13.24,51.92c-.45-.21-1.01.04-1.33.42-.33.38-.49.87-.7,1.32-.22.45-.52.91-1,1.07-.7.25-1.52-.22-2.22.04-.75.29-1.06,1.29-1.65,1.75.34-4.18,1.19-8.37,1.95-12.3.04-.21.15-.35.3-.43.47,1.32.98,2.62,1.62,3.87.78,1.56,1.76,3.04,3.02,4.25Z"/>
        <path class="cls-5" d="M25.3,57.86c.62,2.5,1.85,4.98,3.99,6.43-.64-.45-1.55-.38-2.24-.01s-1.21,1-1.68,1.63c-.2.28-.43.58-.76.67-.6.16-1.1-.43-1.66-.7-.69-.34-1.51-.17-2.28-.08-.44.05-.91.07-1.34-.07-.65-.2-.69-.36-.27-.82.7-.76,1.57-1.4,2.3-2.14,1.46-1.5,2.78-3.14,3.93-4.9Z"/>
        <path class="cls-3" d="M17.58,66.85c3.36-2.56,6.02-5.83,8.25-9.39l-1.14-.15c.61,3.4,2.96,7.54,6.62,8.34.9.2,1.39-.96.62-1.47-1.34-.88-2.7-1.5-3.8-2.72s-1.91-2.8-2.23-4.48c-.11-.55-.87-.58-1.14-.15-2.13,3.49-4.82,6.46-7.73,9.3-.36.35.13,1.04.55.72h0Z"/>
        <path class="cls-3" d="M35.98,52.2c2.64-2.8,5.13-5.73,6.31-9.46l-1.18.15c1.81,3.17,3.31,8.82,7.59,9.45.78.12,1.38-.92.58-1.37-1.78-1-3.22-2-4.33-3.77-1.01-1.6-1.77-3.34-2.72-4.97-.29-.49-1.02-.37-1.18.15-1.08,3.52-3.46,6.3-5.79,9.08-.42.5.27,1.22.73.73h0Z"/>
        <path class="cls-3" d="M33.78,36.86c-6.91-1.71-12.39-7.44-13.2-14.61-.1-.86-1.45-.89-1.37,0,.67,7.64,6.56,14.56,14.23,15.86.81.14,1.17-1.05.35-1.25h0Z"/>
        <path class="cls-3" d="M19.85,55.07c-4.74-2.25-8.3-5.92-10.19-10.84-.31-.81-1.62-.49-1.33.37,1.73,5.26,5.87,9.61,11.1,11.47.58.2.98-.73.42-1h0Z"/>
        <path class="cls-3" d="M56.81,54.35c3.45-2.73,6.85-5.83,7.61-10.38.15-.89-1.23-1.25-1.35-.37-.59,4.37-3.77,7.34-7,10.02-.52.43.22,1.14.74.74h0Z"/>
        <path class="cls-3" d="M35.93,33.25c5.76-2.66,9.87-8.29,10.74-14.57.1-.73-1.01-1.06-1.13-.31-.97,6.07-4.68,11.15-10.13,13.99-.6.31-.07,1.17.52.9h0Z"/>
        <g>
          <path class="cls-4" d="M93.35,63.56c-2.83,5.23-4.17,11.65-3.76,17.65h0c.13,1.9.43,3.74.91,5.5-1.47-.36-2.96-.66-4.46-.86-3.82-.52-7.7-.46-11.41.52-3.45.92-6.74,2.71-9.23,5.23-1.25,1.25-2.3,2.69-3.07,4.28-.85-1.16-1.79-2.27-2.79-3.3-2.04-2.1-4.41-3.89-7.1-5.05-2.11-.91-4.43-1.41-6.72-1.39-2.07.02-4.11.46-5.95,1.4.42-1.53.68-3.1.79-4.68.35-4.79-.59-9.75-2.24-14.53-.64-1.85-1.38-3.67-2.2-5.44l1.74-.08,55.27-2.45,2.34-.1c-.78,1.03-1.49,2.14-2.12,3.32Z"/>
          <path class="cls-1" d="M89.86,60.36s-50.24,2.07-50.36,2.72c-.12.65,2.72,11.75,8.74,16.53,6.02,4.78,13.28,6.32,19.31,5.31,6.02-1,12.34-4.25,16.47-8.8s5.9-12.75,6.02-13.87-.18-1.89-.18-1.89Z"/>
          <path class="cls-3" d="M90.97,60.29c-.06-.2-.24-.36-.52-.37-8.62-.26-17.37.29-25.96,1-8.34.69-16.72.66-25.05,1.51-.52.05-.65.68-.37.95,1.87,9.66,8.08,19.4,18.15,21.85,10.19,2.48,20.95-.69,27.47-8.99,3.5-4.46,5.73-9.91,6.4-15.53.02-.17-.03-.31-.12-.42ZM82.38,76.51c-4.27,4.74-9.92,7.5-16.3,7.82-6.41.32-12.51-.81-17.39-5.23-4.59-4.15-7.11-9.79-8.78-15.63,8.19-.62,16.4-.67,24.59-1.32,8.38-.66,16.79-.61,25.17-1.06-1.28,5.63-3.37,11.07-7.29,15.42Z"/>
          <path class="cls-3" d="M52.52,67.32l-.07-.02c-.22-.06-.44-.06-.66,0-.21.06-.39.17-.55.32-.15.15-.26.34-.32.55-.06.22-.06.44,0,.66l.02.07c.06.22.17.41.33.57.16.16.35.27.57.33.44.12.92,0,1.25-.33s.45-.81.33-1.25c-.06-.22-.17-.41-.33-.57-.16-.16-.35-.27-.57-.33h0Z"/>
          <path class="cls-3" d="M60.68,69.46c.15,0,.28-.03.41-.09.13-.04.25-.12.34-.22.1-.1.18-.21.22-.34.07-.13.1-.26.09-.41l-.04-.28c-.05-.18-.14-.34-.27-.47l-.22-.17c-.17-.1-.35-.15-.54-.15-.15,0-.28.03-.41.09-.13.04-.25.12-.34.22-.1.1-.18.21-.22.34-.07.13-.1.26-.09.41l.04.28c.05.18.14.34.27.47l.22.17c.17.1.35.15.54.15h0Z"/>
          <path class="cls-3" d="M59.71,76.04s.07-.01.1-.02l.25-.11c.12-.07.22-.16.3-.27.07-.07.11-.14.14-.23.07-.13.1-.26.09-.41l-.04-.28-.11-.25c-.07-.12-.16-.22-.27-.3-.1-.09-.22-.16-.36-.19-.03,0-.07-.01-.1-.02-.19-.05-.38-.05-.57,0-.18.05-.34.14-.47.28l-.17.22c-.1.17-.15.35-.15.54,0,.15.03.29.09.41.04.13.12.25.22.35.13.13.29.23.47.28.19.05.38.05.57,0h0Z"/>
          <path class="cls-3" d="M69.18,76.13c.13,0,.26-.02.37-.08.12-.04.22-.11.31-.2.09-.09.16-.19.2-.31.06-.12.09-.24.08-.37l-.03-.26c-.05-.16-.13-.31-.25-.43l-.2-.15c-.15-.09-.31-.13-.49-.13-.13,0-.26.02-.37.08-.12.04-.22.11-.31.2-.09.09-.16.19-.2.31-.06.12-.09.24-.08.37l.03.26c.05.16.13.31.25.43l.2.15c.15.09.31.13.49.13h0Z"/>
          <path class="cls-3" d="M68.24,70.91c.15,0,.29-.03.42-.09.14-.04.25-.12.35-.23.11-.1.18-.22.23-.35.07-.13.1-.27.09-.42-.01-.28-.11-.58-.32-.77s-.48-.32-.77-.32c-.15,0-.29.03-.42.09-.14.04-.25.12-.35.23-.11.1-.18.22-.23.35-.07.13-.1.27-.09.42.01.28.11.58.32.77s.48.32.77.32h0Z"/>
          <path class="cls-3" d="M72.8,65.67c1.15,0,1.15-1.79,0-1.79s-1.15,1.79,0,1.79h0Z"/>
          <path class="cls-3" d="M75.79,72.56c1.31,0,1.31-2.04,0-2.04s-1.31,2.04,0,2.04h0Z"/>
          <path class="cls-3" d="M75.64,78.36c.14,0,.26-.02.38-.09.12-.04.23-.11.32-.2.1-.09.16-.2.2-.32.06-.12.09-.25.09-.38l-.04-.26c-.05-.17-.13-.31-.25-.44l-.2-.15c-.15-.09-.32-.13-.5-.14-.14,0-.26.02-.38.09-.12.04-.23.11-.32.2-.1.09-.16.2-.2.32-.06.12-.09.25-.09.38l.04.26c.05.17.13.31.25.44l.2.15c.15.09.32.13.5.14h0Z"/>
          <path class="cls-3" d="M65.06,79.05l-.14.05-.16.07c-.08.04-.14.1-.18.17-.04.04-.07.09-.08.14-.04.08-.06.16-.06.25l.02.17.07.16c.04.08.1.14.17.18.06.06.14.1.22.12l.14.05c.13.03.25.03.38,0,.12-.03.22-.09.31-.18l.11-.14c.06-.11.1-.23.1-.36,0-.1-.02-.19-.06-.27-.03-.09-.08-.16-.15-.23-.09-.09-.19-.15-.31-.18-.13-.03-.25-.03-.38,0h0Z"/>
          <path class="cls-3" d="M52.43,75.91c.1-.02.2-.05.29-.11.14-.08.25-.19.33-.33.08-.14.12-.3.13-.46,0-.17-.04-.32-.13-.46-.08-.14-.19-.25-.33-.33-.09-.06-.19-.09-.29-.11-.17-.04-.33-.04-.5,0-.16.04-.3.12-.41.24l-.15.19c-.08.15-.13.3-.13.47,0,.13.02.25.08.36.04.12.1.22.19.3.12.12.25.2.41.24.17.04.33.04.5,0h0Z"/>
          <path class="cls-3" d="M46.83,67.62c1.23,0,1.23-1.91,0-1.91s-1.23,1.91,0,1.91h0Z"/>
          <path class="cls-3" d="M56.27,64.65c.46,0,.46-.71,0-.71s-.46.71,0,.71h0Z"/>
          <path class="cls-3" d="M79.47,64.32l-.09.03-.22.09c-.11.06-.2.14-.26.24-.06.06-.1.13-.12.21-.06.11-.09.23-.08.36l.03.25.09.22c.06.11.14.2.24.26.09.08.2.14.32.17l.09.03c.17.05.34.05.51,0,.16-.05.3-.13.42-.25l.15-.19c.09-.15.13-.31.13-.49,0-.13-.02-.26-.08-.37-.04-.12-.11-.22-.2-.31-.24-.24-.61-.34-.94-.25h0Z"/>
          <path class="cls-3" d="M82.25,69.65c.61,0,.61-.94,0-.94s-.61.94,0,.94h0Z"/>
          <path class="cls-3" d="M85.71,65.46c1.29,0,1.29-2.01,0-2.01s-1.29,2.01,0,2.01h0Z"/>
          <path class="cls-5" d="M45.72,86.14c-2.07.02-4.11.46-5.95,1.4.42-1.53.68-3.1.79-4.68.09.07.19.13.3.16.28.08.57.01.85-.06.49-.13.98-.25,1.48-.38.15-.04.31-.07.46-.03.31.1.39.51.32.83-.07.32-.24.62-.24.95.01.5.44.9.87,1.14.38.22.8.39,1.12.67Z"/>
          <path class="cls-5" d="M65.41,91.61c-1.25,1.25-2.3,2.69-3.07,4.28-.85-1.16-1.79-2.27-2.79-3.3.08-.07.16-.14.23-.21.38-.31.77-.57,1.28-.49.45.07.8.53,1.28.45.22-.03.39-.18.57-.31.66-.5,1.54-.85,2.3-.53.07.03.14.07.21.11Z"/>
          <path class="cls-5" d="M90.51,86.72c-1.47-.36-2.96-.66-4.46-.86,0-.18,0-.36,0-.54,0-.22,0-.46.13-.64.34-.47,1.09-.1,1.67-.19.56-.08.93-.62,1.09-1.16.17-.54.19-1.12.39-1.64.06-.17.16-.33.27-.47.13,1.89.43,3.74.91,5.49Z"/>
          <path class="cls-5" d="M95.47,60.25c-.78,1.03-1.49,2.14-2.12,3.32-.34-.17-.67-.36-.98-.59-.07-.05-.14-.11-.17-.19-.04-.12.03-.24.1-.34.27-.4.58-.78.74-1.22.1-.27.13-.58.08-.86l2.34-.1Z"/>
          <path class="cls-5" d="M39.12,67c-.01.33-.04.68-.26.95-.14.17-.34.28-.55.38-.64-1.85-1.38-3.67-2.2-5.44l1.74-.08c.01.08.02.16,0,.24-.05.34-.45.57-.45.93-.01.5.68.69,1.1,1.01.61.46.64,1.29.61,2.02Z"/>
        </g>
        <path class="cls-3" d="M40.92,62.41c-1.47-.08-2.89.06-4.35.22-.39.04-.59.38-.42.74,3.44,7.36,4.92,15.42,3.24,23.43-.17.82,1.02,1.16,1.26.35,2.47-8.19-.04-16.84-3.65-24.27-.14.25-.28.49-.42.74,1.51-.08,2.97-.18,4.45-.49.41-.09.29-.69-.1-.71h0Z"/>
        <path class="cls-1" d="M13.76,38.35c.46.08.92.19,1.38.07.41-.11.75-.53.73-.96s-.29-.84-.73-.96c-.46-.12-.92,0-1.38.07-.38.06-.69.52-.68.89s.27.82.68.89h0Z"/>
        <path class="cls-1" d="M14.24,41.75c1.27,0,1.27-1.97,0-1.97s-1.27,1.97,0,1.97h0Z"/>
        <path class="cls-1" d="M29.59,27.29c.37-.02.73-.05,1.09-.14.78-.2.78-1.39,0-1.58-.36-.09-.72-.12-1.09-.14-.49-.03-.95.45-.93.93s.41.96.93.93h0Z"/>
        <path class="cls-1" d="M55.07,36.84c.21-.07.42-.13.61-.23.28-.15.44-.37.54-.67.1-.32-.07-.61-.32-.79-.41-.29-.87-.15-1.3,0s-.77.61-.61,1.08c.14.43.62.77,1.08.61h0Z"/>
        <path class="cls-1" d="M8.76,65.03c.22.11.43.23.67.28l.27.04c.14,0,.27-.02.39-.09.2-.08.39-.22.49-.42.08-.16.13-.33.14-.52.01-.25-.12-.55-.3-.72-.11-.11-.24-.22-.38-.29l-.22-.11c-.25-.13-.54-.18-.82-.11-.25.07-.51.26-.63.49-.13.25-.2.54-.11.82.08.25.24.51.49.63h0Z"/>
        <path class="cls-1" d="M10.7,68.89c.08-.06.16-.13.24-.19.05-.04.02-.02-.07.05l.07-.04.15-.1c.27-.18.45-.52.34-.85-.1-.31-.38-.56-.72-.55-.24.01-.47,0-.71-.01-.71-.04-1.16.76-.91,1.37.12.28.34.49.64.57.37.1.68-.03.96-.25h0Z"/>
      </g>
      <rect class="cls-2" width="100" height="100"/>
    </g>
  </g>
</svg>