<?xml version="1.0" encoding="UTF-8"?>
<svg id="Capa_2" data-name="Capa 2" xmlns="http://www.w3.org/2000/svg" viewBox="0 0 100 100">
  <defs>
    <style>
      .cls-1 {
        fill: #f1475d;
      }

      .cls-2 {
        fill: #fff;
      }

      .cls-3 {
        fill: none;
      }

      .cls-4 {
        fill: #fdeaec;
      }

      .cls-5 {
        fill: #4a2d2d;
      }

      .cls-6 {
        fill: #806c6c;
      }
    </style>
  </defs>
  <g id="COLOR">
    <g>
      <g>
        <g>
          <path class="cls-6" d="M65.64,46.5c-.83-4.11-2.84-8.32-6.09-11.06-1.34-1.38-2.85-2.59-4.46-3.64-3.52-2.29-7.45-3.83-10.78-6.43-1.73-1.34-2.94-2.93-3.94-4.86-.8-1.53-1.56-3.2-2.9-4.35-.88-.75-2.22-1.44-3.41-1.09-1.8.52-1.7,2.78-1.67,4.27.02.91.09,1.8.28,2.69.26,1.26.83,2.51.45,3.81-.67,2.27-3.39,3.94-5.18,5.25-3.6,2.64-7.47,4.97-10.59,8.2-2.63,2.72-4.75,6.07-5.23,9.88-.48,3.79.69,7.64,2.74,10.81,2.49,3.83,6.12,6.59,10.28,8.4,2.35,1.02,4.79,1.84,7.28,2.43,2.7.63,5.57.98,8.38.78s5.8-.38,8.59-.97c2.8-.59,5.54-1.58,7.93-3.17,6.84-4.57,9.95-12.98,8.34-20.95Z"/>
          <path class="cls-5" d="M25.93,38.41c-4.76,3.63-8.57,10.8-6.69,16.9.17.55,1.02.46,1.02-.14.02-2.99-.02-5.77,1.04-8.63,1.06-2.87,2.89-5.4,5.23-7.36.43-.35-.15-1.12-.6-.78Z"/>
          <path class="cls-5" d="M33.1,38.77c-4.13,5.8-5.98,14.64-3.98,21.55.13.45.9.39.85-.12-.32-3.67-.59-7.2.1-10.86.68-3.59,2.1-6.91,3.85-10.1.3-.55-.47-.97-.82-.48Z"/>
          <path class="cls-5" d="M40.53,38.81c.86,3.7,1.26,7.58,1.39,11.37.12,3.66-.32,7.27-.42,10.92-.01.51.74.6.88.12,2.03-7.29.83-15.46-.91-22.67-.15-.61-1.08-.35-.94.26Z"/>
          <path class="cls-5" d="M50.95,37.71c-.4-.44-1.06.21-.66.66,2.3,2.53,3.83,6.04,4.42,9.39.62,3.54-.06,6.79-1.02,10.19-.14.49.56.78.82.34,1.81-3.13,2.04-7.14,1.47-10.63-.63-3.91-2.41-7.06-5.03-9.95Z"/>
        </g>
        <path class="cls-5" d="M35.91,17.11c-.28-.84-1.09-.58-1.48-.02-.34.48-1.09,1.31-.38,1.87.4.37.93.34,1.34,0,.27-.22.47-.53.58-.86.11-.33.06-.67-.05-.99ZM34.15,17.53s-.04.06-.05.06c.02-.02.03-.04.05-.06ZM34.46,17.07s0,0,0,0c0,.02-.02.03-.02.05,0-.02.01-.03.02-.04Z"/>
        <g>
          <path class="cls-4" d="M73.35,28.78s-2.1-.68-3.23.3-4.2,6.83-6.98,8.48-13.2,5.03-16.35,7.2c-3.15,2.18-7.88,7.58-8.78,10.8-.9,3.23-2.63,11.33,3.75,18.15,6.38,6.83,19.5,8.48,27,7.43,7.5-1.05,12.68-6.08,15-12.3,2.33-6.23.23-15.08-1.5-18.68-1.73-3.6-7.28-9.6-7.88-12.98-.6-3.38-.08-6-.23-7.13s-.83-1.28-.83-1.28Z"/>
          <path class="cls-6" d="M44.84,46.1s-7.13,5.1-9.53,14.18-.45,20.18,8.85,25.65,22.95,7.35,34.88-.75c11.93-8.1,7.43-26.93,5.78-31.58-1.65-4.65-6.68-10.88-6.68-10.88,0,0,10.13,15.68,5.93,24.68s-8.78,15-19.35,14.33c-10.58-.68-19.35-3.68-22.95-8.03s-6.3-11.78-4.43-16.65c1.88-4.88,7.5-10.95,7.5-10.95Z"/>
          <path class="cls-5" d="M85.48,58.08c-.62-4.55-2.47-8.64-4.88-12.61-.37-.61-.75-1.22-1.13-1.82-1.06-1.69-2.29-3.27-3.35-4.96-.92-1.46-1.18-3.14-1.15-4.84.02-1.24.06-2.54-.29-3.74-.45-1.55-2.21-2.45-3.76-1.97-1.66.51-2.59,2.44-3.53,3.74-2.24,3.11-4.65,5.46-8.17,7.08-2.91,1.33-6,2.21-8.95,3.42-8.71,3.57-15.2,12.78-13.67,22.42.06.36.12.72.2,1.08.31,1.43.79,2.82,1.41,4.15,2.35,5.02,6.61,7.95,11.71,9.79,10.66,3.85,24.88,4.49,32.16-5.92,2.82-4.03,3.88-9.05,3.6-13.91-.04-.64-.1-1.27-.18-1.89ZM81.91,71.34c-2.22,4.51-6.77,7.3-11.51,8.52-5.67,1.45-11.52.75-17.09-.76-5.16-1.4-10.17-3.39-13.22-8.02-2.69-4.09-3.4-9.26-1.97-13.91,1.3-4.21,4.74-8.67,8.37-11.17,4.28-2.95,9.41-4.03,14-6.32,2.69-1.34,4.85-3.17,6.67-5.56,1.03-1.35,2.17-3.88,3.67-4.67,1.06-.56,2.24-.2,2.71.93.56,1.36-.11,3-.19,4.4-.09,1.52.12,2.98.89,4.33,1.53,2.71,3.51,5.13,5.06,7.83,2.06,3.58,3.95,7.49,4.61,11.65.69,4.3-.08,8.85-2,12.76Z"/>
          <path class="cls-1" d="M77.06,55.28c-2.08-3.54-5.6-6.12-9.48-7.38-5-1.62-10.21-.36-14.98,1.41-3.8,1.41-7.2,3.71-8.3,7.83-.91,3.4.44,6.99,1.99,10,1.65,3.21,4.47,4.98,7.76,6.28,6.17,2.44,13.47,2.3,18.79-1.98,4.65-3.73,7.48-10.6,4.21-16.15Z"/>
          <path class="cls-5" d="M50.22,57.32c.14.04.3.06.48.07.41.01.82-.05,1.19-.22.91-.42,1.61-1.86.88-2.73-.53-.71-1.63-.76-2.34-.28-.5.34-.84.94-.99,1.52-.22.85.05,1.45.76,1.65ZM50.53,56.12c.06-.55.56-1.5,1.27-1.13,1.05.55-1.01,2.01-1.25,1.39-.03-.08-.03-.18-.02-.27Z"/>
          <path class="cls-5" d="M57.75,54.01c.4.15.98.11,1.34-.12.44-.28.64-.81.52-1.32-.13-.53-.66-.94-1.21-.8-.7.17-1.53,1.54-.9,2.09.07.06.15.11.26.15ZM58.15,52.84c.17-.33.86-.33.85.12,0,.07-.02.13-.05.19-.06.11-.17.2-.3.23-.3.09-.49-.12-.53-.39,0-.05,0-.1.03-.15Z"/>
          <path class="cls-5" d="M56.58,62.07c.7-.36,1.15-1.15,1.08-1.93-.06-.76-.7-1.37-1.49-1.25-.83.13-1.45.94-1.52,1.76-.01.16,0,.31.02.46.17.85,1.01,1.43,1.9.97ZM55.51,60.98c.04-.15.32-.58.6-.84.24-.23.49-.32.58.03.11.43-.63,1.65-1.13,1.18-.09-.09-.08-.24-.05-.37Z"/>
          <path class="cls-5" d="M50.56,65.11c-.21.37.05.89.38,1.09.47.28.86-.17.73-.66-.12-.44-.78-1.02-1.11-.43Z"/>
          <path class="cls-5" d="M58.35,67.64c-.28.48-.37,1.29-.21,1.82.32,1.05,1.92.53,2.42-.09.51-.64.38-1.57-.23-2.1-.64-.54-1.57-.33-1.98.38ZM59.98,68.74c-.02.07-.04.14-.08.2-.54.94-1.68-.53-.74-.97.21-.1.48-.06.65.1.18.17.22.44.16.67Z"/>
          <path class="cls-5" d="M65.44,61.18c.43-.5.39-1.21-.06-1.68-.26-.28-.79-.43-1.16-.37-.8.15-.81,1.73-.35,2.17.46.45,1.17.34,1.57-.12ZM64.17,60.28c.07-.42.68-.55.9-.17.04.07.07.16.07.24,0,.09-.02.17-.07.24,0,0,0,0,0,.02-.15.2-.41.3-.65.17-.17-.1-.28-.31-.24-.5Z"/>
          <path class="cls-5" d="M67.3,55.82c.75.5,1.55-.19,1.92-.83.39-.66.35-1.55-.37-1.97-.48-.28-1.01-.14-1.39.24-.37.37-.64.93-.67,1.45-.03.44.13.85.51,1.1ZM67.68,54.37c.08-.19.5-.52.77-.58.17-.04.28.02.19.3-.08.26-.57,1.35-.95.82-.11-.15-.09-.37-.01-.54Z"/>
          <path class="cls-5" d="M68.22,66.24c-.57.68-.98,1.78-.2,2.51.75.7,1.55.02,2.04-.61.5-.64,1.01-1.49.43-2.24-.3-.39-.85-.58-1.32-.41-.38.14-.7.45-.96.75ZM69.74,66.56c.26.3-.07.78-.24,1.04-.17.24-.6.85-.82.32-.17-.43.67-1.81,1.06-1.35Z"/>
          <path class="cls-5" d="M65.11,65.52c-.06-.1-.16-.2-.26-.26-.17-.1-.37-.11-.56-.07-.16.04-.28.14-.38.26-.09.09-.16.21-.2.34-.04.13-.04.27,0,.4.06.19.17.35.35.45.17.1.4.13.59.08.25-.07.47-.28.53-.53,0-.02.01-.05.02-.07,0,0,0-.02,0-.02.03-.1.04-.2.01-.29-.01-.11-.03-.18-.1-.28Z"/>
          <path class="cls-5" d="M68.61,62.91c.15,0,.29-.04.42-.11.25-.15.41-.42.41-.71s-.16-.57-.41-.71c-.13-.07-.27-.11-.42-.11-.41,0-.8.32-.84.74-.04.33.14.62.4.79.13.08.28.13.44.13Z"/>
          <path class="cls-5" d="M61.72,57.48c.83,0,.84-1.3,0-1.3s-.84,1.3,0,1.3Z"/>
          <path class="cls-5" d="M64.68,51.48c.03.06.06.12.09.19.04.07.1.13.17.17.07.04.15.06.24.06.13,0,.24-.05.33-.14.09-.09.14-.21.14-.33,0-.09-.02-.16-.06-.24-.04-.07-.1-.13-.17-.17-.06-.03-.12-.06-.19-.09-.03-.01-.06-.03-.1-.04-.05-.02-.11-.02-.16,0-.04,0-.07,0-.1.03-.05.02-.09.04-.13.08-.05.05-.08.11-.1.18-.02.05-.02.11,0,.16,0,.05.02.1.05.15Z"/>
          <path class="cls-5" d="M50.96,60.26c-.82,0-.82,1.27,0,1.27s.82-1.27,0-1.27Z"/>
          <path class="cls-5" d="M55.42,66.77c-.1,0-.21.05-.29.12-.4.4.27,1.14.61.59.17-.28.04-.71-.33-.71Z"/>
          <path class="cls-5" d="M72.67,56.39c.6,0,.6-.93,0-.93s-.6.93,0,.93Z"/>
          <path class="cls-5" d="M72.62,61.83c.84.39,1.7-.33,1.93-1.12.21-.72-.09-1.7-.88-1.92-1.54-.43-2.43,2.39-1.05,3.04ZM72.78,60.33c.06-.36.46-.71.82-.48.22.14.28.44.22.7-.04.17-.14.33-.28.41-.43.25-.82-.2-.75-.63Z"/>
          <path class="cls-5" d="M41.45,49.01c-6.07,5.45-8.41,13.94-7.84,21.92.05.72,1.18.72,1.12,0-.6-7.86,2.62-15.14,7.44-21.2.4-.5-.22-1.17-.72-.72h0Z"/>
        </g>
        <path class="cls-2" d="M29.64,32.4l-.42.27c-.09.06-.17.11-.26.17-.18.14-.25.3-.33.5-.09.22,0,.49.13.66.15.2.35.27.59.3.4.04.79-.26,1.12-.45.38-.22.54-.77.3-1.15s-.75-.55-1.15-.3h0Z"/>
        <path class="cls-2" d="M22.4,37.66l-.09.19-.05.11c-.02.06-.02.12,0,.18,0,.04.01.08.03.12.02.06.05.11.1.15.06.05.13.09.2.12.06.02.12.02.18,0,.06,0,.12-.02.17-.05l.19-.09c.08-.05.14-.11.19-.19.05-.08.07-.17.07-.27,0-.14-.05-.28-.16-.38-.05-.05-.11-.09-.17-.11-.06-.03-.13-.05-.21-.05-.1,0-.19.02-.27.07-.08.05-.14.11-.19.19h0Z"/>
        <path class="cls-2" d="M69.72,32.72l-.28.53c-.04.08-.09.16-.13.24-.11.24-.15.49-.07.74.12.4.53.64.93.53.54-.14.78-.73,1.04-1.17.23-.39.1-.97-.31-1.18s-.96-.12-1.18.31h0Z"/>
        <path class="cls-2" d="M64.42,40.62c1.34,0,1.34-2.09,0-2.09s-1.34,2.09,0,2.09h0Z"/>
        <path class="cls-2" d="M61.36,61.63l-.12.04-.18.07c-.09.05-.16.11-.21.19-.05.05-.08.1-.1.16-.05.09-.07.18-.06.29l.03.2.07.18c.05.09.11.16.19.21.07.07.16.11.25.13l.12.04c.14.04.28.04.41,0,.13-.04.25-.1.34-.2l.12-.16c.07-.12.11-.25.11-.39,0-.11-.02-.21-.07-.3-.03-.1-.09-.18-.16-.25-.1-.1-.21-.16-.34-.2-.14-.04-.28-.04-.41,0h0Z"/>
        <path class="cls-2" d="M48.66,60.28s0-.07,0-.1l-.02.17v-.06c.04-.11.04-.21,0-.32-.03-.1-.08-.19-.15-.26-.07-.07-.16-.12-.26-.15-.11-.03-.21-.03-.32,0h-.06c.06,0,.11,0,.17-.01-.03,0-.07,0-.1,0l-.2.03-.18.07c-.09.05-.16.11-.21.19-.05.05-.08.1-.1.16-.03.06-.05.12-.05.19-.02.07-.02.13,0,.2,0,.07.02.13.05.19.03.09.08.17.15.24l.15.12.18.07.2.03.2-.03.18-.07c.09-.05.16-.11.21-.19.05-.05.08-.1.1-.16.05-.09.07-.18.06-.28h0Z"/>
        <path class="cls-2" d="M55.42,51.17c.43,0,.44-.68,0-.68s-.44.68,0,.68h0Z"/>
        <path class="cls-2" d="M71.43,63.96l.02.04s.04.05.06.08c.03.05.07.09.13.13.02.02.05.04.08.06.21.13.49.13.7,0h0s.09-.08.14-.11l.11-.14h0s.02-.04.02-.05c.14-.23.13-.52,0-.75s-.38-.37-.64-.37-.51.14-.64.37-.14.52,0,.75h0Z"/>
        <path class="cls-2" d="M64.34,54.01s0-.02,0-.04c.03-.11.02-.22,0-.32,0,0,0,0,0,0-.02-.09-.06-.17-.12-.24-.05-.08-.11-.14-.19-.18-.08-.05-.17-.08-.26-.08-.09-.02-.18-.02-.28.01-.12.03-.22.09-.31.18l-.11.14c-.06.11-.09.22-.09.35l.02.18c.03.12.09.22.18.31l.14.11c.11.06.22.09.35.09.1,0,.18-.02.27-.06.09-.03.16-.08.22-.14.09-.09.15-.19.18-.31h0Z"/>
        <path class="cls-2" d="M64.12,70.33c.77,0,.77-1.19,0-1.19s-.77,1.19,0,1.19h0Z"/>
        <path class="cls-2" d="M69.22,58.75c.73,0,.73-1.14,0-1.14s-.73,1.14,0,1.14h0Z"/>
        <path class="cls-2" d="M56.46,55.64l-.07-.08c-.05-.05-.1-.09-.17-.11-.06-.03-.13-.05-.2-.04-.14,0-.27.05-.36.15l-.07.08-.1.13-.06.15c-.03.08-.03.17-.01.25,0,.06.01.11.04.16.01.05.04.1.08.14.03.05.06.08.11.11.04.04.08.07.14.08.07.04.15.06.24.05l.17-.02.15-.06.13-.1.1-.13.06-.15c.03-.08.03-.17.01-.25,0-.06-.01-.11-.04-.16-.03-.08-.07-.14-.13-.2h0Z"/>
        <path class="cls-2" d="M53.62,64.26c.87,0,.87-1.35,0-1.35s-.87,1.35,0,1.35h0Z"/>
      </g>
      <rect class="cls-3" width="100" height="100"/>
    </g>
  </g>
</svg>