<?xml version="1.0" encoding="UTF-8"?>
<svg id="Capa_2" data-name="Capa 2" xmlns="http://www.w3.org/2000/svg" viewBox="0 0 100 100">
  <defs>
    <style>
      .cls-1 {
        fill: #fff;
      }

      .cls-2 {
        fill: #fdc733;
      }

      .cls-3 {
        fill: none;
      }

      .cls-4 {
        fill: #4a2d2d;
      }

      .cls-5 {
        fill: #f2556a;
      }
    </style>
  </defs>
  <g id="COLOR">
    <g>
      <g>
        <g>
          <path class="cls-2" d="M65.93,45.07c-5.01-12.6-17.59-24.41-23.84-26.24-.73-.22-1.48-.42-2.26-.58.22,2.27-.11,4.54-.65,6.75-.08.31-.39.49-.69.45-.34-.04-.51-.31-.55-.62-.16-1.26-.08-2.56-.19-3.83-.09-1.05-.25-2.1-.47-3.13-4.29-.29-9.37,1.16-16.02,8.02C11.96,35.48,3.09,42.35,3.38,55.95c.29,13.6,12.02,31.2,20.33,32.64,8.3,1.43,27.48.14,33.78-2.29,6.3-2.43,10.02-21.18,10.02-21.18,0,0,3.44-7.44-1.57-20.04Z"/>
          <path class="cls-2" d="M96.37,66.88c.14-1.73,0-4.41-.88-4.52-1.62-.2-54.89-1.15-55.25-.43s-4.31,18.88,9.49,26.91c13.14,7.64,27.19,6.42,36.13.43,7.91-5.3,9.96-15.61,10.51-22.39Z"/>
          <path class="cls-1" d="M81.85,86.83c-9.49,4.88-26.28,4.09-33.57-3.59-5.93-6.24-5.84-17.52-5.59-21.51.68-.02,1.5-.04,2.42-.05,4.88-.06,12.85-.02,21.01.07,1,0,2,.02,3,.03,7.13.09,14.15.21,19.16.33,1.76.04,3.26.08,4.44.12.04.88.09,1.87.15,2.93.22,3.73-1.53,16.79-11.02,21.67Z"/>
          <path class="cls-5" d="M66.11,61.76c-2.34,1.49-8.99,5.68-12.73,7.49-4.6,2.22-6.49,1.58-8.03-1.44-.92-1.81-.63-4.38-.25-6.13,4.88-.06,12.85-.02,21.01.07Z"/>
          <path class="cls-5" d="M66.23,65.38c-2.34-1.58-16.71,6.6-17.44,8.83s2.63,6.67,5.26,8.83c2.63,2.15,4.01,2.58,6.71-.22s7.81-15.86,5.47-17.44Z"/>
          <path class="cls-5" d="M71.19,67.1s-1.53-1.08-2.55-.07c-1.02,1-2.19,13.42-1.9,15.71s1.39,4.45,6.57,3.73c5.18-.72,7.59-4.31,7.66-6.39s-5.55-9.47-6.93-10.83-2.85-2.15-2.85-2.15Z"/>
          <path class="cls-5" d="M82.94,75.06c-4.63-1.65-10.89-10.12-12.96-13.06,7.13.09,14.15.21,19.16.33.45,1.17.82,2.67.87,4.48.15,4.81-1.46,10.26-7.08,8.25Z"/>
          <path class="cls-4" d="M39.69,61.71c-1.42,4.75-.74,10.33.58,15.03,1.24,4.42,3.71,9.6,7.99,11.91.62.34,1.1-.52.54-.92-8.1-5.81-9.28-16.81-8.28-25.91.05-.48-.7-.55-.83-.11h0Z"/>
          <path class="cls-1" d="M50.65,65.74c2.31-1.22,4.74-2.09,7.08-3.22.3-.15.08-.58-.22-.51-2.52.57-4.97,1.91-7.16,3.22-.33.2-.04.69.3.51h0Z"/>
          <path class="cls-1" d="M56.42,76.05c1.93-1.66,3.8-3.48,5.44-5.41.23-.27-.13-.65-.4-.4-1.88,1.74-3.59,3.65-5.51,5.35-.32.28.15.73.47.46h0Z"/>
          <path class="cls-1" d="M60.27,76.6c.3-.55.66-1.07.99-1.61.14-.23-.19-.49-.38-.29-.45.47-.8,1.04-1.11,1.61-.18.33.33.62.51.29h0Z"/>
          <path class="cls-1" d="M71.41,80.12c-.36-2.68-.16-5.51-.83-8.14-.07-.29-.55-.23-.54.07.12,2.71.3,5.48.73,8.16.06.35.69.27.64-.08h0Z"/>
          <path class="cls-1" d="M74.82,78.2c-.23-.33-.39-.7-.62-1.04-.16-.24-.62-.18-.6.16.03.48.25.89.51,1.28.29.43,1,.02.7-.4h0Z"/>
          <path class="cls-1" d="M75.91,65.29c2.89.84,5.38,2.75,8.22,3.74.36.13.6-.43.26-.61-2.62-1.35-5.42-3.03-8.28-3.82-.45-.12-.64.56-.19.69h0Z"/>
          <path class="cls-4" d="M40.1,62.17c5.43.25,10.89.14,16.33.24,3.16.06,6.31.1,9.47.17,3.18.07,6.39.33,9.57.2.82-.03.8-1.18,0-1.24-3.17-.24-6.39-.11-9.57-.16s-6.31-.13-9.47-.18c-5.43-.09-10.9-.36-16.33-.06-.68.04-.68,1.01,0,1.04h0Z"/>
          <g>
            <path class="cls-4" d="M20.26,33.34c-.68.32-1.23,1.02-1.45,1.73-.4,1.31.71,2.31,1.94,1.66.7-.37,1.4-1.04,1.61-1.83.33-1.25-1.04-2.06-2.1-1.56ZM20.95,34.74s0,0,0-.01c.05,0,.06.09,0,.01Z"/>
            <path class="cls-4" d="M29.25,28.1c-.85-.22-1.57.31-1.99,1.01-.23.39-.43.92-.32,1.37.16.62.87.78,1.43.74.72-.05,1.26-.4,1.64-1.02.5-.81.2-1.86-.76-2.11ZM28.26,29.84s0,0-.01,0c0,0,0,0,.02,0,0,0,0,0,0,0ZM28.84,29.55s0,0,0,0c.04-.05.03.03,0,0Z"/>
            <path class="cls-4" d="M29.56,36.99c-.88-.7-2.14.02-2.26,1.06-.07.61-.15,1.69.78,1.54.55-.09,1.1-.37,1.49-.77.5-.52.59-1.35,0-1.82ZM28.83,38.22s.04-.02,0,0h0Z"/>
            <path class="cls-4" d="M35.86,17.6s-.02,0-.04,0c.15,0,.5,1.99.53,2.15.13.77.22,1.54.27,2.32.02.25-.07,2.06,0,2.1-.51-.25-1.01-.62-1.48-1.13-.74-.81-1.91.38-1.2,1.2,2.15,2.5,6.49,3.3,8.73.45.47-.59-.1-1.48-.84-1.09-.56.3-1.12.54-1.68.71.5-3.55.26-7.11-.33-10.64-.29-1.72-.9-5.01-3.29-4.75-.02,0-.04,0-.06,0-2.42.32-1.87,3.33-1.52,4.96.27,1.25.61,2.48.9,3.72ZM36.17,10.75c.91-1,1.96.78,2.16,1.5.57,2.02.68,4.14.66,6.23-.01,2.03-.06,4.08-.28,6.1-.17,0-.35,0-.52,0,.53-4.18-.85-8.38-2.11-12.3-.16-.48-.3-1.09.09-1.52Z"/>
          </g>
        </g>
        <path class="cls-1" d="M11.91,60.18c.67.02,1.34.09,2,0,.44-.06.76-.59.76-1s-.32-.94-.76-1c-.66-.1-1.34-.03-2,0-1.3.04-1.3,1.97,0,2.01h0Z"/>
        <path class="cls-1" d="M11.91,65.88c.77,0,1.77.1,2.37-.46.35-.33.35-.95,0-1.28-.6-.57-1.6-.47-2.37-.46-.6,0-1.1.5-1.1,1.1s.51,1.1,1.1,1.1h0Z"/>
      </g>
      <rect class="cls-3" width="100" height="100"/>
    </g>
  </g>
</svg>