<?xml version="1.0" encoding="UTF-8"?>
<svg id="Capa_2" data-name="Capa 2" xmlns="http://www.w3.org/2000/svg" viewBox="0 0 100 100">
  <defs>
    <style>
      .cls-1 {
        fill: #72ab4c;
      }

      .cls-2 {
        fill: #fff;
      }

      .cls-3 {
        fill: none;
      }

      .cls-4 {
        fill: #4a2d2d;
      }

      .cls-5 {
        fill: #c0c728;
      }
    </style>
  </defs>
  <g id="COLOR">
    <g>
      <g>
        <path class="cls-1" d="M86.63,31.06c-.39-2.75-4.02-3.78-6.66-4.23,2.29-1.25,5.27-3.4,5.16-5.88-.14-3.14-4.54-2.54-6.53-2.08-3.9.91-7.4,3.08-10.99,4.77-4.22,1.98-8.6,3.64-13.05,5-.05-.01-.1-.02-.15-.04-.31-.07-.54.07-.64.27.02-.07.03-.14.03-.21.11-.05.2-.14.24-.29,1.08-4.07,1.5-8.28,1.12-12.49-.29-3.23-.8-7.26-2.97-9.84-1.94-2.31-4.14-1.57-5.62.76-1.87,2.95-1.82,6.05-1.84,9.35-1.81-1.82-4.08-3.17-6.53-3.93-1.94-.6-5.03-1.28-6.58.49-1.5,1.71-.81,4.14.47,5.73,1.28,1.6,3.07,2.77,5,3.5-1.39.19-2.74.62-3.85,1.5-1.57,1.24-2.38,3.31-.41,4.57,2.51,1.59,5.97,1.63,8.83,1.64,3.84.02,7.69-.08,11.52-.31.26-.02.44-.16.54-.34-.07.26.04.58.38.72,4,1.68,7.58,4.33,11.15,6.76,3.14,2.13,6.23,4.6,9.9,5.75,2.47.78,6.08,1.04,7.72-1.44,1.53-2.3.56-4.92-1.1-6.78,2.25.02,5.28.03,4.86-2.96Z"/>
        <g>
          <path class="cls-4" d="M68.34,16.06c2.89-1.19,5.79-1.49,8.81-2.08.87-.17.59-1.4-.2-1.46-3.22-.25-6.79.87-9.71,2.12-3.18,1.35-6.02,3.29-8.52,5.67-2.16,2.07-3.96,4.38-5.37,6.99-3.35-4.28-8.22-7.47-13.24-9.42-.32-.12-.55.42-.24.56,5.08,2.29,9.15,5.55,13.05,9.48.02.02.05.03.07.05-.09.18-.19.34-.28.52-1.28,2.72-2.73,6.45-2.19,9.5.15.85,1.26.63,1.51,0,.56-1.38.68-2.96,1.08-4.4.43-1.56,1-3.07,1.69-4.53,1.32-2.8,3.11-5.55,5.34-7.71,2.33-2.25,5.19-4.04,8.18-5.27Z"/>
          <path class="cls-4" d="M73.2,28.27c-1.71-.2-3.44-.3-5.16-.31-4.28-.02-8.54.57-12.8.88-.34.03-.35.56,0,.54,4.05-.26,8.15-.64,12.2-.59,1.61.02,3.24.08,4.84.24,1.62.16,3.13.67,4.72.89.41.06.68-.45.29-.7-1.14-.73-2.78-.8-4.1-.95Z"/>
        </g>
        <path class="cls-5" d="M71.71,42.23c-5.68-3.4-10.08-2-12.15-.91-1.47-2.89-4.27-5.29-8.26-6.13-3.19-.67-5.7.31-7.58,1.95-1.63-2.72-4.94-6.28-10.72-5.23-9.07,1.64-8.76,12.9-6.49,15.64.6.72,1.32,1.44,2.2,2.08-3.04,2.51-4.79,6.45-3.76,9.49.9,2.67,2.67,4.51,4.99,5.57-4.57,1.56-6.2,6.73-5.14,10.53.42,1.52,1.13,2.71,2.03,3.64-1.82.75-3.97,2.22-4.69,5.11-1.33,5.32,2.11,10.79,9.77,10.32,5.84-.36,8.94-5.47,10.06-8.65.82.43,1.73.78,2.76.99,7.11,1.49,10.71-4.61,11.34-7.35.31-1.36.16-3.35-.42-5.22.8,1.05,1.81,1.92,3.08,2.48,6.02,2.66,11.65-1.95,14.07-5.79,2.42-3.83,1.17-8.29-.39-10.24-.47-.59-1.07-1.09-1.73-1.51.19-.07.37-.13.56-.21,6.49-2.74,8.44-11.81.47-16.57ZM53.85,70.69s.08-.04.12-.07c.03.11.06.21.09.32-.07-.09-.14-.17-.22-.25Z"/>
        <path class="cls-4" d="M70.6,58.44c-2.52.73-4.64,1.5-7.3.75-2.4-.67-4.28-2.35-5.53-4.46.41-.32.79-.67,1.14-1.07,2.82-3.11,3.66-8.68,1.5-12.34-.43-.74-1.53-.09-1.14.67,1.72,3.33,1.12,8.17-1.48,10.92-2.72,2.88-6.91,3.43-10.49,1.95-2.71-1.12-5.03-3.31-6.22-6.01,0-.1-.02-.19-.09-.29-.01-.02-.03-.04-.05-.06-.22-.55-.39-1.11-.51-1.69-.83-4.03.94-6.93,3.93-9.43.44-.36-.12-.93-.56-.73-3.63,1.65-5.21,6.78-4.44,10.45,0,.04.02.08.03.12-3.22-1.65-8.45-.06-10.85,2.01-.43.37.14,1.12.61.79,1.59-1.12,3.3-1.76,5.23-2.02,2.2-.3,3.81.1,5.64,1.17.72,1.75,1.86,3.3,3.27,4.55-3.85,2.16-5.92,5.84-5.08,10.35.09.48.21.95.36,1.4-.04,0-.07,0-.11,0-2.7.46-6.41.67-8.75-1.19-.58-.46-1.4.29-.84.84,2.17,2.1,7.49,3.18,10.02,1.21.45,1.09,1.06,2.09,1.81,2.97-2.85,1.91-4.69,5.02-4.59,8.54.03,1,.25,2.15.66,3.26-1.6.05-3.03.23-4.69-.13-1.93-.42-3.84-1.31-5.37-2.55-.5-.41-1.16.16-.69.78,1.43,1.88,3.58,2.98,5.86,3.52,1.6.38,3.96.61,5.45-.31.93,1.85,2.38,3.43,4.24,3.87.61.14,1-.57.59-1.02-1-1.12-2.22-1.88-3.05-3.19-.8-1.26-1.29-2.73-1.37-4.23-.15-2.99,1.38-5.94,3.78-7.68,1.19,1.11,2.63,1.96,4.26,2.4,2.73.74,5.4.35,7.72-.87.51.53,1.03,1.05,1.37,1.71.38.72.79,1.91,1.21,2.6.28.45.81.3.87-.17.17-1.55-1.28-3.6-2.42-4.74.87-.57,1.67-1.27,2.4-2.07,2.26-2.47,3.61-6.74,2.82-10.24,3.31,2.58,8.11,3.51,11.52.72.53-.43-.04-1.29-.65-1.11ZM58.45,62.22c-.12,1.91-.74,3.74-1.82,5.31-2.17,3.16-6.22,4.45-9.93,3.65-3.33-.72-6.12-3.43-7.08-6.68-1.26-4.26.84-7.89,4.54-9.96.02,0,.03-.02.04-.03.98.72,2.07,1.31,3.23,1.72,3.08,1.1,6.61.85,9.38-.83.29.56.64,1.09,1.04,1.6.22,1.77.71,3.4.59,5.23Z"/>
        <path class="cls-2" d="M34.62,33.95c-1.65-.14-3.16.55-4.36,1.66-1.05.97-2.27,2.84-1.45,4.27.25.43.89.64,1.33.35.91-.61,1.22-1.79,1.96-2.58.75-.8,1.76-1.32,2.79-1.64,1.16-.36.88-1.95-.28-2.05h0Z"/>
        <path class="cls-2" d="M49.1,37.93c-1.61.15-2.99.9-3.98,2.18-.88,1.14-2.09,3.39-1.13,4.75.28.41.73.52,1.18.31,1.09-.52,1.3-2,1.83-2.97.53-.98,1.29-1.74,2.41-1.95,1.3-.24,1.02-2.45-.31-2.32h0Z"/>
        <path class="cls-2" d="M70.09,47.1c.54.67.83,1.5.92,2.35s-.16,1.68.05,2.51,1.21.99,1.81.48c2.04-1.78.41-5.46-1.12-6.99-1.09-1.09-2.58.51-1.65,1.65h0Z"/>
        <path class="cls-2" d="M32.3,50.42c-2.37.96-5.34,4.27-3.65,6.99.41.66,1.33.48,1.57-.21.33-.91.34-1.9.8-2.78s1.18-1.57,2.12-2.02c1.1-.52.31-2.45-.84-1.99h0Z"/>
        <path class="cls-2" d="M43.07,58.76c-1.19,1.66-1.96,4.8-.02,6.21.51.37,1.4,0,1.51-.61.14-.79-.1-1.49-.15-2.28s.13-1.53.51-2.24c.68-1.23-1.06-2.19-1.85-1.08h0Z"/>
        <path class="cls-2" d="M68.04,65.43c.1.65-.05,1.32-.32,1.91-.29.64-.82,1.14-1.09,1.78s.02,1.65.89,1.55c2.67-.31,3.49-3.71,2.98-5.92-.38-1.62-2.71-.91-2.45.68h0Z"/>
        <path class="cls-2" d="M41.79,73.26c-1.34,1.52-2.53,4.69-.67,6.28.42.36,1.3.31,1.4-.37.12-.81-.04-1.57.02-2.37.07-.85.4-1.58.91-2.25.73-.95-.87-2.18-1.66-1.28h0Z"/>
        <path class="cls-2" d="M28.98,68.84c-1.13,1.6-1.88,3.85-1.13,5.76.4,1.03,2.08.99,2.05-.28-.03-1.63-.21-3.12.48-4.67.42-.95-.79-1.69-1.4-.82h0Z"/>
        <path class="cls-2" d="M24.78,84.64c-1.07,1.79-.82,5.71,1.93,5.8.51.02,1.01-.56.82-1.07-.46-1.22-1.6-2.26-.92-3.66.59-1.21-1.12-2.25-1.83-1.07h0Z"/>
      </g>
      <rect class="cls-3" width="100" height="100"/>
    </g>
  </g>
</svg>