<?xml version="1.0" encoding="UTF-8"?>
<svg id="Capa_2" data-name="Capa 2" xmlns="http://www.w3.org/2000/svg" viewBox="0 0 100 100">
  <defs>
    <style>
      .cls-1 {
        fill: #fff;
      }

      .cls-2 {
        fill: none;
      }

      .cls-3 {
        fill: #f5a77e;
      }

      .cls-4 {
        fill: #4a2d2d;
      }

      .cls-5 {
        fill: #ef7738;
      }
    </style>
  </defs>
  <g id="COLOR">
    <g>
      <g>
        <path class="cls-5" d="M69.09,41.33c-2.06-14.79-13.58-17.31-19.75-18.22-1.04,1.44-2.64,2.49-4.11,3.41-.77.49-1.55.97-2.3,1.49-.04.03-.08.05-.11.08.13.02.26.05.39.08.62.15,1.23.38,1.83.6.96.36,2.07.65,2.91,1.27.98.73,1.06,1.84.29,2.77-.69.83-1.75,1.19-2.79,1.22-2.12.08-4.05-1.07-6.15-1.07-1.19,0-2.33.41-3.44.79-1.12.38-2.25.73-3.43.81-1.25.08-3.92.3-4.25-1.37-.12-.59.21-1.1.63-1.48.4-.35.78-.7,1.15-1.09.63-.66,1.26-1.32,1.98-1.88-.03,0-.06,0-.09,0-1.65.03-3.04-.79-4.26-1.81-.88-.73-1.68-1.47-2.7-1.99-.81-.41-1.82-.83-2.32-1.64-.15-.24-.22-.45-.23-.65-2.75.44-5.38,1.17-7.36,2.35-7.17,4.24-13.48,16.63-10.76,28.59,2.72,11.96,13.37,29.89,18.91,31.63,5.54,1.74,9.24-1.74,13.26-.65s8.48,4.02,14.89.65c6.41-3.37,20.33-25.98,17.83-43.91Z"/>
        <path class="cls-5" d="M36.95,67.3s-1.25,3.07,3.07,10.09c4.32,7.02,12.09,14.29,22.62,14.98,10.53.69,21.5-3.7,27.32-11.84,5.83-8.15,7.08-16.98,6.52-22.56s-3.57-8.02-3.57-8.02c0,0-11.21,4.33-23.81,8.15-15.13,4.58-32.11,8.8-32.15,9.21Z"/>
        <path class="cls-3" d="M92.6,50.31l-54.42,16.67s1.15,11.53,11.55,16.86c10.4,5.33,22.06,5.51,31.02-2.32,8.96-7.83,10.78-14.35,11.78-19.55s.94-11.34.06-11.66Z"/>
        <path class="cls-5" d="M34.94,24.31c.56.27,1.15.45,1.72.68.31.13.43.45.37.71.05.07.1.15.14.23.12-.71.13-1.45.08-2.17-.03-.41-.07-.83-.13-1.24-.01-.08-.02-.16-.04-.25-.89-.07-2.88-.21-5.38-.23.47.44.94.86,1.48,1.23.56.38,1.14.73,1.76,1.02Z"/>
        <path class="cls-5" d="M39.4,22.2s0,.07,0,.11c-.01.5-.07,1-.21,1.48-.18.61-.42,1.21-.59,1.83-.04.33-.1.66-.19.98-.02.06-.05.12-.08.17.08.05.14.12.2.19.15-.16.28-.34.41-.5,1.06-1.32,1.59-3,2.62-4.3-.8,0-1.55.01-2.16.04Z"/>
        <path class="cls-4" d="M52.36,15.51c-.85-.72-2.37-1.79-3.54-1.42-1.25.4-1.91,2.04-2.55,3.06-.7,1.12-1.41,1.75-2.63,2.27-.6.26-1.22.49-1.73.92-.53.45-.84,1.04-1.17,1.64-.03.06-.07.12-.1.18.03-.71,0-1.41-.06-2.05-.16-1.41-.52-2.79-1.11-4.08-.48-1.05-1.18-2.93-2.4-3.3-1.04-.32-2.57.35-3.33,1.02-1.01.9-.7,1.98-.24,3.12.64,1.6,1.65,3.01,2.15,4.68.28.94.33,1.85.31,2.74-2.02-.87-4.35-1.87-4.92-4.18-.44-1.78-.89-2.93-2.41-4.09-.88-.67-2.02-1.66-3.18-1.17-.75.32-1.39,1.1-2.02,1.61-.74.6-1.44,1.22-2.01,2-2.11,2.9-.49,5.17,2.32,6.5,1.85.87,3.95,3.19,6.16,3.81-.84.66-1.62,1.42-2.35,2.18-.54.57-1.27,1.24-1.31,2.09-.09,1.73,2.65,2.11,3.84,2.4,1.07.26,2.14.39,3.24.2,1.35-.23,2.65-1.36,3.98-1.42,1.38-.06,2.87.73,4.24.92,1.29.18,2.56.15,3.85-.02,1.46-.2,3.54-.52,4.21-2.05.68-1.57-.62-2.98-1.8-3.85-.88-.64-1.89-1.08-2.94-1.36,2.31-1.05,4.43-2.43,6.03-4.5,1.33-1.71,3.63-6.02,1.47-7.86ZM35.08,15.35c.85-2.18,2.38.69,2.8,1.61.54,1.18.82,2.44.88,3.73.09,1.94-.47,3.59-.99,5.34.18-1.22.04-2.52-.18-3.7-.21-1.12-.55-2.2-1.02-3.23-.45-.98-1.89-2.74-1.49-3.75ZM22.35,19.78c.56-.98,2.31-2.51,3.39-3,.66-.3.72-.21,1.42.25.52.35,1.09.73,1.49,1.22.89,1.08.7,2.54,1.37,3.73,1.23,2.19,3.49,3.09,5.73,3.8.05.02.1.02.15.03-.01.36-.02.72-.01,1.09-1.58-.32-3.13.08-4.53.87-2.75-.21-4.79-3.34-6.8-4.23-1.56-.7-3.42-1.65-2.22-3.76ZM51.3,18.73c-.14,1.44-1.17,2.94-2.03,4-1.8,2.22-4.42,3.68-7.04,4.77-.45-.02-.89,0-1.33.01-.9.05-1.19,1.43-.22,1.65,1.65.37,3.33.22,4.9.89.48.21,2,1.25,2.24,1.75.57,1.23-.62,1.28-1.4,1.43-1.35.26-3.21-.12-4.57-.28-1.51-.19-3-.88-4.54-.84-1.5.04-2.44,1-3.78,1.49-.97.35-1.98.33-2.98.15-.45-.08-1.55-.17-1.83-.48-.81-.87,2.21-2.88,2.75-3.27,1.72-1.24,4.18-2.35,6.34-1.75.13.04.21.04.25.02.11,0,.21-.03.3-.12.76-.71,1.3-1.65,1.67-2.68.57-.6.92-1.41,1.37-2.15.28-.46.43-1.05.75-1.48.6-.81,1.4-.95,2.25-1.34.91-.41,2.02-.62,2.66-1.39.65-.79,1.34-3.51,2.7-3.17.29.07.54.26.75.47.68.69.88,1.49.8,2.31Z"/>
        <g>
          <path class="cls-4" d="M55.82,73.28s-.05,0-.07-.01c-.06-.02-.1-.05-.15-.13-.21-.43-.2-1.58,1.01-4.62l.1-.25c1.15-2.97,2.92-5.76,4.66-8.36.08.03.17.05.27.05.03,0,.06,0,.08,0,.2-.02.38-.12.51-.28.03,0,.08-.02.14-.02.07,0,.14,0,.2.02-.92,3.24-2.36,6.25-3.88,9.29-.07.14-.16.33-.27.57-1.41,3.09-2.19,3.74-2.59,3.74,0,0,0,0,0,0Z"/>
          <path class="cls-4" d="M68.9,72.49c-.92.28-2.46-5.45-2.59-5.83-.81-2.34-1.63-5.09-1.74-7.89.09-.02.18-.05.25-.1.1-.06.18-.15.24-.24,1.19,2.23,2.17,4.87,3,8.05.08.31,1.7,5.75.83,6.02Z"/>
          <path class="cls-4" d="M73.12,63.18c-2.17-1.3-4.26-2.91-6.21-4.79.05-.02.09-.05.13-.09,2.38.71,5.04,1.85,7.93,3.39.16.09.36.19.58.3,1.02.51,4.34,2.14,3.64,2.88-.63.67-4.74-.9-6.07-1.69Z"/>
        </g>
        <path class="cls-4" d="M67.91,57.11c-5.35,1-10.68,2.99-15.87,4.63-2.52.79-5.01,1.63-7.56,2.32s-5.15,1.16-7.57,2.12c-.37.15-.52.43-.46.82.58,4.05,1.36,7.85,3.44,11.44,1.94,3.35,4.65,6.29,7.73,8.62.68.51,1.32-.63.66-1.13-5.77-4.42-10.38-11.64-10.53-19.1l-.49.64c5-1.63,10.07-3,15.11-4.5,5.24-1.56,10.69-2.94,15.8-4.86.62-.23.38-1.11-.27-.99h0Z"/>
        <path class="cls-1" d="M18.85,27.16c-2.75,1.03-5.25,3.86-6.67,6.36-1.35,2.39-2.64,5.91-1.26,8.53.36.69,1.5.71,1.85,0,1.08-2.17,1.03-4.7,2.21-6.89,1.24-2.31,3.2-4.26,4.88-6.26.6-.71.06-2.15-1.02-1.75h0Z"/>
        <path class="cls-1" d="M11.24,47.28c.06.2.12.41.21.6.06.13.16.24.24.36.18.26.45.42.78.37.29-.04.58-.26.65-.56.04-.19.11-.4.11-.59,0-.15-.02-.3-.04-.45-.03-.28-.1-.5-.29-.7-.21-.23-.53-.31-.83-.27-.57.08-1,.66-.83,1.24h0Z"/>
        <path class="cls-1" d="M46.79,72.92c.08,0,.15,0,.23-.02l.31-.04c.15-.04.28-.1.39-.21.09-.05.16-.12.21-.21.1-.11.17-.24.21-.39.06-.21.06-.4,0-.61l-.12-.28c-.07-.13-.17-.24-.3-.32-.07-.07-.16-.12-.25-.15-.14-.07-.29-.11-.44-.1-.08,0-.15-.01-.23-.02-.16,0-.31.03-.45.1-.14.05-.27.13-.38.24-.11.11-.19.23-.24.38-.07.14-.11.29-.1.45.01.3.11.62.34.83s.52.36.83.34h0Z"/>
        <path class="cls-1" d="M48.63,77.89c1.24,0,1.24-1.93,0-1.93s-1.24,1.93,0,1.93h0Z"/>
        <path class="cls-1" d="M83.72,61.43c.48,0,.48-.75,0-.75s-.48.75,0,.75h0Z"/>
        <path class="cls-1" d="M79.71,71.45c1.33,0,1.34-2.07,0-2.07s-1.34,2.07,0,2.07h0Z"/>
      </g>
      <rect class="cls-2" width="100" height="100"/>
    </g>
  </g>
</svg>