<?xml version="1.0" encoding="UTF-8"?>
<svg id="Capa_2" data-name="Capa 2" xmlns="http://www.w3.org/2000/svg" viewBox="0 0 100 100">
  <defs>
    <style>
      .cls-1 {
        fill: #fff;
      }

      .cls-2 {
        fill: none;
      }

      .cls-3 {
        fill: #4a2d2d;
      }

      .cls-4 {
        fill: #c7cd3d;
      }

      .cls-5 {
        fill: #9e991c;
      }
    </style>
  </defs>
  <g id="COLOR">
    <g>
      <g>
        <path class="cls-5" d="M47.6,21.62c-12.06-5.25-28.81.11-31.71,14.74-2.9,14.63,4.58,38.3,14.07,41.76,9.49,3.46,15.74,2.9,23.11-.89,7.6-3.91,11.28-8.93,11.83-18.2.65-10.82-5.25-32.16-17.31-37.4Z"/>
        <path class="cls-5" d="M39.78,60.58s-1.12,16.97,8.71,24.79c9.83,7.82,21.77,7.15,29.92,1.9,8.15-5.25,9.41-14.67,9.91-19.6.85-8.53-.17-12.85-3.3-16.31s-45.24,9.23-45.24,9.23Z"/>
        <path class="cls-4" d="M62.07,41.44c-12.37,1.26-21.76,9.96-22.45,17.75-.69,7.79,4.35,19.13,15.92,21.42,11.57,2.29,21.3-1.83,26.23-6.64,4.92-4.81,7.38-13.15,6.18-17.41-2.41-8.59-13.51-16.38-25.88-15.12Z"/>
        <path class="cls-3" d="M29.67,30.91c3.37,1.34,8.85.67,8.87-3.96,0-.8-1.13-.92-1.36-.18-1.03,3.19-4.29,3.53-7.09,2.64-.98-.31-1.32,1.14-.41,1.5h0Z"/>
        <path class="cls-1" d="M70.44,58.13c-2.52-4.15-10.65-3.87-13.42-.19-1.63,2.17-.92,5.18,1.31,6.62,1.19.77,2.62,1.09,4.03,1.21,1.41.13,2.85.07,4.21-.33,2.86-.86,5.72-4.27,3.87-7.3Z"/>
        <path class="cls-3" d="M73.39,57.2c1.71-.46,3.48-.82,5.1-1.52.41-.18.09-.72-.28-.66-1.72.26-3.39.88-5.05,1.37-.51.15-.3.94.22.81h0Z"/>
        <path class="cls-3" d="M74.39,61.48c.89-.05,1.81.08,2.68-.08.46-.09.34-.68,0-.82-.83-.34-1.81-.23-2.68-.15-.67.06-.68,1.1,0,1.06h0Z"/>
        <path class="cls-3" d="M72.79,65.5c1.78.81,3.61,1.83,5.5,2.34.52.14.8-.57.36-.85-1.65-1.05-3.65-1.7-5.45-2.45-.55-.23-.95.72-.41.97h0Z"/>
        <path class="cls-3" d="M69.29,69.04c.6.94,1.26,2.16,2.28,2.7.47.25.91-.24.69-.69-.23-.48-.63-.9-.96-1.31s-.66-.86-.97-1.3c-.44-.63-1.47-.06-1.04.61h0Z"/>
        <path class="cls-3" d="M63.23,69.74c-.06.63-.03,1.28,0,1.91.02.55.02,1.27.33,1.75.18.27.64.25.72-.09.14-.55,0-1.19-.04-1.74-.06-.6-.12-1.22-.1-1.82s-.86-.58-.91,0h0Z"/>
        <path class="cls-3" d="M57.29,69.49c-.82.91-1.89,1.83-2.46,2.93-.16.32.18.74.52.52,1.03-.68,1.83-1.82,2.65-2.74.43-.48-.28-1.19-.71-.71h0Z"/>
        <path class="cls-3" d="M53.72,64.02c-1.48.3-2.97.52-4.44.86-.42.1-.33.76.1.75,1.55-.05,3.08-.34,4.6-.66.62-.13.36-1.07-.26-.94h0Z"/>
        <path class="cls-3" d="M52.82,58.54c-1.48-.31-2.99-.73-4.5-.88-.42-.04-.47.59-.1.71,1.41.46,2.92.68,4.37.99.54.11.76-.71.23-.82h0Z"/>
        <path class="cls-3" d="M57.12,53.96c-.95-.87-2.04-1.9-3.27-2.37-.38-.14-.61.38-.37.64.42.45.97.82,1.45,1.22s.98.81,1.45,1.25c.49.46,1.24-.28.74-.74h0Z"/>
        <path class="cls-3" d="M63.49,52.32c.01-1,.08-2.07-.3-3.02-.17-.44-.83-.4-.85.11-.03.96.13,1.95.19,2.9.04.61.95.62.95,0h0Z"/>
        <path class="cls-3" d="M69.07,53.2c.51-.89,1.15-1.69,1.63-2.59.2-.37-.27-.75-.58-.45-.76.73-1.28,1.7-1.78,2.62-.26.48.46.9.73.43h0Z"/>
        <path class="cls-3" d="M22.25,40.44c.19,0,.37-.03.54-.12.17-.06.33-.15.45-.29.14-.13.23-.28.29-.45.09-.17.13-.35.12-.54l-.05-.37c-.07-.24-.19-.45-.36-.62l-.28-.22c-.22-.13-.46-.19-.71-.19-.19,0-.37.03-.54.12-.17.06-.33.15-.45.29-.14.13-.23.28-.29.45-.09.17-.13.35-.12.54l.05.37c.07.24.19.45.36.62l.28.22c.22.13.46.19.71.19h0Z"/>
        <path class="cls-3" d="M26.83,44.42c1.32,0,1.33-2.06,0-2.06s-1.33,2.06,0,2.06h0Z"/>
        <path class="cls-3" d="M22.48,49.47h.07c.15,0,.29-.02.42-.09.14-.04.25-.12.35-.23l.17-.22c.1-.17.15-.36.15-.56v-.07c-.02-.1-.03-.21-.04-.31l-.12-.28c-.07-.14-.17-.25-.3-.33-.07-.07-.16-.12-.26-.15-.09-.05-.19-.08-.3-.08-.1-.03-.21-.03-.31,0-.11,0-.2.03-.3.08-.15.05-.27.13-.38.24l-.18.24-.12.28-.04.31.04.31.12.28c.07.14.17.25.3.33.07.07.16.12.26.15.14.07.29.11.45.1h0Z"/>
        <path class="cls-3" d="M28.51,68.34c.16,0,.31-.03.45-.1.14-.05.27-.13.38-.24.11-.11.19-.23.24-.38.07-.14.11-.29.1-.45l-.04-.31c-.06-.2-.16-.37-.3-.51l-.24-.18c-.18-.11-.38-.16-.59-.16-.16,0-.31.03-.45.1-.14.05-.27.13-.38.24-.11.11-.19.23-.24.38-.07.14-.11.29-.1.45l.04.31c.06.2.16.37.3.51l.24.18c.18.11.38.16.59.16h0Z"/>
        <path class="cls-3" d="M62.05,40.65c-4.29-.34-9.13,1.87-12.66,4.12-3.8,2.43-7.18,5.77-9.25,9.81-2.14,4.18-2.31,8.9-1.75,13.49.53,4.3,1.7,8.72,4.19,12.33.66.95,2.22.05,1.56-.91-2.27-3.3-3.43-7.25-4.13-11.16-.81-4.56-.75-9.09,1.67-13.18,2.16-3.66,5.16-6.79,8.78-9.03,1.78-1.1,3.69-2,5.67-2.67s4.08-.98,6.07-1.62c.66-.21.51-1.12-.16-1.17h0Z"/>
      </g>
      <rect class="cls-2" width="100" height="100"/>
    </g>
  </g>
</svg>