<?xml version="1.0" encoding="UTF-8"?>
<svg id="Capa_2" data-name="Capa 2" xmlns="http://www.w3.org/2000/svg" viewBox="0 0 100 100">
  <defs>
    <style>
      .cls-1 {
        fill: #f1de17;
      }

      .cls-2 {
        fill: #72ab4c;
      }

      .cls-3 {
        fill: #fff;
      }

      .cls-4 {
        fill: none;
      }

      .cls-5 {
        fill: #4a2d2d;
      }
    </style>
  </defs>
  <g id="COLOR">
    <g>
      <g>
        <path class="cls-1" d="M57.58,26c.59-1.02,1.56-1.76,2.19-2.76.62-1,.76-2.5-.19-3.19h-.07c-.12.06-.24.13-.37.19-.62.31-1.37.63-2.08.57-.43-.03-.83-.2-1.07-.58-.17-.27-.21-.58-.18-.89-4.14,1.78-8.86,1.39-13.37,1.09-2.11-.14-4.25-.26-6.33.14-1.65.31-3.23.94-4.75,1.67-10.06,4.85-17.43,14.34-21.14,24.87-1.58,4.47-2.56,9.19-2.41,13.93.15,4.74,1.46,9.49,4.17,13.38.22.31.45.65.42,1.03-.04.44-.42.76-.7,1.1-1.42,1.73-.08,4.65,2.06,5.3,2.14.65,4.49-.44,6.04-2.06,2.71.93,5.63,1.05,8.48.8,10.58-.9,20.61-6.92,26.38-15.83,5.78-8.91,7.17-20.52,3.68-30.54-.94-2.69-2.18-5.75-.76-8.22Z"/>
        <path class="cls-2" d="M86.02,41.1c-.32-4.18-2.04-8.07-3.99-11.73-1.87-3.51-3.88-6.94-7.09-9.38-3.18-2.42-6.94-3.85-10.66-5.22-.43-.16-.78-.06-1.03.17-.63-.26-1.3.55-.77,1.16,1.42,1.63,1.29,3.93,1.26,5.97-.04,2.33-.61,4.62-.65,6.96-.06,3.9,1.15,7.6,3.05,10.97,3.76,6.67,9.23,12.02,16.51,14.59.58.2,1.21-.23,1.37-.78,1.22-4.02,2.31-8.47,2-12.7Z"/>
        <g>
          <path class="cls-5" d="M26.18,33.65c-.25,1.11.57,2.67,1.87,2.38,1.32-.3,1.89-2.08.99-3.09-.64-.71-1.81-.75-2.47-.06-.2.21-.33.48-.4.76Z"/>
          <path class="cls-5" d="M38.78,27.76c.16-.65.07-1.41-.52-1.76-.52-.3-1.38-.2-1.93-.05-1.19.32-2.32,1.32-2.32,2.63,0,1.18.89,1.65,1.97,1.46.99-.17,1.9-.74,2.49-1.56.14-.2.25-.45.32-.72ZM36.15,27.9c.27-.19.59-.3.92-.32-.17.46-.98.83-1.48,1.05.01-.05.04-.11.05-.15.08-.22.32-.45.51-.58Z"/>
          <path class="cls-5" d="M39.61,35.09c-1.63-.59-3.17.84-2.85,2.48.45,2.31,5.88-1.39,2.85-2.48ZM38.81,36.51c-.05.07-.12.14-.18.2-.05,0-.1,0-.16-.01.02-.02.03-.04.05-.05.06-.05.17-.11.29-.14Z"/>
        </g>
        <path class="cls-5" d="M83.36,33.27c-3.19-1.41-7.29-1.9-10.76-2.1-.04,0-.07,0-.11.02-2.7-5.34-5.45-10.65-8.28-15.91.44-.67.85-1.35,1.24-2.04.86-1.52,1.64-3.25,1.33-5.03-.24-1.34-1.55-2.79-2.99-2-1.39.76-1.79,2.48-2.1,3.9-.52,2.38-1.5,4.66-3.19,6.45-.91.96-3.05,1.85-3.22,3.34-.13,1.14.9,1.92,1.97,1.88,1.71-.07,3.3-1.88,4.35-3.05.74-.82,1.43-1.71,2.07-2.63,1.74,3.48,3.5,6.96,5.26,10.43-.97,3.69-2.04,7.6-2.16,11.42-.01.37.56.45.64.09.82-3.39,1.35-6.84,2.16-10.23,1.06,2.08,2.12,4.15,3.17,6.24.46.91.9,1.83,1.34,2.75,0,0,0,0,0,0-.95,3.01-1.71,6.61-1.68,9.79,0,.35.54.44.63.09.69-2.8,1.15-5.73,1.68-8.59,2.31,4.84,4.51,9.75,7.02,14.47.28.53,1.22.16.99-.42-2.5-6.27-5.87-12.28-8.9-18.31-.29-.57-.58-1.13-.87-1.7,1.71.33,3.44.59,5.15.94,1.67.34,3.33.89,5.03,1.05.43.04.62-.65.22-.83ZM62.33,15.17c-.81,1.22-1.64,2.43-2.68,3.46-.29.29-2.5,2.07-2.71,1.09-.05-.22.93-.76,1.11-.89,1.66-1.27,2.94-2.94,3.82-4.83.4-.86.72-1.75.96-2.67.19-.75.26-1.54.48-2.28.12-.39.27-.77.5-1.09.69-.96,1.36.66,1.37,1.25.01.55-.16,1.1-.36,1.61-.58,1.47-1.46,2.8-2.33,4.12-.05.08-.11.16-.16.24Z"/>
        <path class="cls-1" d="M91.94,65.59c.14-1.76,0-4.48-.87-4.59-1.62-.2-54.83-1.17-55.19-.44s-4.31,19.18,9.48,27.34,27.16,6.53,36.09.44c7.9-5.39,9.95-15.86,10.5-22.75Z"/>
        <path class="cls-3" d="M77.43,85.86c-9.48,4.96-26.25,4.16-33.54-3.64-5.93-6.35-5.83-17.8-5.59-21.86.68-.02,1.5-.04,2.42-.05,4.88-.07,12.83-.02,20.99.08,1,0,1.99.02,2.99.03,7.12.09,14.14.22,19.14.33,1.76.04,3.26.08,4.44.12.04.89.09,1.9.15,2.98.22,3.79-1.53,17.06-11.01,22.02Z"/>
        <path class="cls-1" d="M61.72,60.38c-2.34,1.52-8.98,5.77-12.72,7.61-4.59,2.26-6.49,1.6-8.02-1.46-.92-1.84-.63-4.45-.25-6.23,4.88-.07,12.83-.02,20.99.08Z"/>
        <path class="cls-1" d="M61.83,64.06c-2.33-1.6-16.7,6.71-17.42,8.97-.73,2.26,2.62,6.78,5.25,8.97,2.62,2.19,4.01,2.62,6.71-.22,2.7-2.84,7.8-16.11,5.47-17.72Z"/>
        <path class="cls-1" d="M66.79,65.81s-1.53-1.09-2.55-.07-2.19,13.63-1.9,15.97,1.39,4.52,6.56,3.79c5.18-.73,7.58-4.37,7.66-6.49s-5.54-9.62-6.93-11.01c-1.39-1.39-2.84-2.19-2.84-2.19Z"/>
        <path class="cls-1" d="M78.53,73.9c-4.62-1.68-10.88-10.28-12.94-13.27,7.12.09,14.14.22,19.14.33.45,1.19.82,2.72.87,4.55.15,4.89-1.46,10.43-7.07,8.39Z"/>
        <path class="cls-5" d="M35.32,60.34c-1.42,4.82-.74,10.49.58,15.27,1.24,4.49,3.71,9.75,7.98,12.1.62.34,1.1-.53.54-.93-8.09-5.91-9.27-17.08-8.27-26.33.05-.49-.7-.56-.83-.11h0Z"/>
        <path class="cls-3" d="M46.27,64.43c2.3-1.24,4.73-2.12,7.07-3.27.3-.15.08-.59-.22-.52-2.52.58-4.97,1.94-7.15,3.28-.33.2-.04.7.3.52h0Z"/>
        <path class="cls-3" d="M52.04,74.9c1.93-1.69,3.79-3.53,5.44-5.5.23-.28-.13-.66-.4-.4-1.88,1.77-3.59,3.7-5.5,5.43-.32.29.15.75.47.47h0Z"/>
        <path class="cls-3" d="M55.88,75.47c.3-.56.66-1.08.99-1.63.14-.24-.19-.5-.38-.3-.45.48-.79,1.06-1.11,1.63-.18.33.33.63.5.29h0Z"/>
        <path class="cls-3" d="M67.01,79.04c-.36-2.73-.16-5.6-.83-8.27-.07-.29-.55-.24-.54.07.12,2.75.3,5.57.73,8.29.06.36.69.28.64-.09h0Z"/>
        <path class="cls-3" d="M70.42,77.09c-.23-.34-.39-.71-.61-1.05-.16-.24-.62-.18-.6.16.03.48.25.9.51,1.3.29.44,1,.02.7-.41h0Z"/>
        <path class="cls-3" d="M71.5,63.97c2.89.85,5.37,2.79,8.21,3.8.36.13.6-.44.26-.62-2.62-1.37-5.42-3.08-8.28-3.89-.45-.13-.64.57-.19.7h0Z"/>
        <path class="cls-5" d="M35.73,60.8c5.43.25,10.88.14,16.31.24,3.15.06,6.3.1,9.46.17,3.18.07,6.39.33,9.56.2.82-.03.8-1.2,0-1.26-3.17-.25-6.39-.11-9.56-.17-3.15-.06-6.3-.13-9.46-.18-5.42-.09-10.89-.37-16.31-.06-.68.04-.68,1.03,0,1.06h0Z"/>
      </g>
      <rect class="cls-4" width="100" height="100"/>
    </g>
  </g>
</svg>