<?xml version="1.0" encoding="UTF-8"?>
<svg id="Capa_2" data-name="Capa 2" xmlns="http://www.w3.org/2000/svg" viewBox="0 0 100 100">
  <defs>
    <style>
      .cls-1 {
        fill: #72ab4c;
      }

      .cls-2 {
        fill: #fff;
      }

      .cls-3 {
        fill: none;
      }

      .cls-4 {
        fill: #c2c92e;
      }

      .cls-5 {
        fill: #4a2d2d;
      }
    </style>
  </defs>
  <g id="COLOR">
    <g>
      <g>
        <path class="cls-1" d="M51.53,23.12s3.53,1.6,9.45,2.16c5.93.56,11.38.4,14.58,5.85,3.2,5.45,5.13,17.23,3.77,19.31s-12.58,1.12-19.15-7.29c-6.57-8.41-6.89-17.47-8.73-18.51-1.84-1.04.08-1.52.08-1.52Z"/>
        <path class="cls-1" d="M48.97,31.13c.13-1.34,1.84-4.01-.16-5.05s-3.77,2.4-5.69,2.48-15.14-3.2-25.72,4.17-11.38,18.67-11.06,24.36c.32,5.69,4.73,12.02,4.65,13.06-.08,1.04-1.52,2.96.56,5.21s4.57-.72,7.05.48,12.74,3.77,23.39-2.56c10.66-6.33,13.78-17.61,13.78-22.83,0-10.58-7.05-16.74-6.81-19.31Z"/>
        <g>
          <path class="cls-5" d="M13.39,57.47c-.04-.11-.09-.22-.14-.33-.07-.09-.14-.18-.21-.27-.18-.2-.36-.25-.6-.35-.03-.01-.05-.02-.08-.03-.02,0-.05-.02-.07-.03-.29-.08-.58-.08-.87,0-.21.05-.4.15-.56.29-.18.12-.32.27-.42.46-.15.26-.22.53-.22.83.02.15.04.29.06.44.08.28.22.52.42.72.15.16.32.27.53.34.2.1.41.15.63.14.3,0,.57-.08.83-.22.11-.09.22-.17.33-.26.2-.2.34-.45.42-.72.08-.29.08-.58,0-.87-.02-.05-.04-.1-.06-.15Z"/>
          <path class="cls-5" d="M14.43,50.34c-1.48,0-1.48,2.3,0,2.3s1.48-2.3,0-2.3Z"/>
          <path class="cls-5" d="M17.16,54.95c-.3,0-.62.13-.83.34-.31.31-.39.73-.3,1.15.01.06.02.12.04.17.02.1.07.21.12.3.06.1.13.18.22.26,0,0-.01,0-.02-.01,0,0,.01.01.02.02.38.42,1.08.44,1.48.04.18-.15.32-.39.37-.6.01-.06.02-.12.04-.17.09-.4.02-.85-.3-1.15-.23-.21-.51-.34-.83-.34Z"/>
        </g>
        <path class="cls-5" d="M75.32,33.43c-2.81-1.04-5.93-1.32-8.89-1.02-.14.01-.24.1-.29.2-1.73-1.31-3.58-2.5-5.45-3.68,2.89-.73,5.74-1.02,8.74-.71.34.04.42-.53.08-.6-3.25-.6-6.57-.41-9.67.77-2.5-1.57-5-3.14-7.29-4.94.61-1.2,1.03-2.57.49-3.76-.2-.43-.91-.51-1.21-.16-.96,1.14-.96,2.86-1.57,4.21-.71,1.55-1.89,2.87-3.21,3.93-.56.45.16,1.35.76.99,1.67-1.02,2.98-2.35,4.03-3.99.05-.08.1-.16.15-.24,2.84,2.23,6.13,4.14,9.32,6.16-.02.04-.04.08-.04.13-.52,3.9-1.24,8.39.09,12.21.11.31.65.29.61-.08-.45-4.06-.41-7.82-.03-11.87,2.42,1.55,4.75,3.2,6.76,5.13-.58,3.89-.87,8.01-.36,11.92.05.39.63.42.64,0,.08-3.75.1-7.44.48-11.17,1.59,1.65,2.94,3.51,3.91,5.69.24.55,1.05.07.8-.47-1.7-3.8-4.35-6.59-7.39-8.99,2.88-.13,5.58.21,8.39.86.35.08.48-.41.15-.54Z"/>
        <g>
          <path class="cls-1" d="M92.87,63.66c-.48,3.61-1.04,15.94-15.14,22.43-14.1,6.49-26.28,2.4-34.69-5.45-8.41-7.85-8.01-19.31-7.13-20.27.08-.09.65-.17,1.6-.23,7.86-.53,42.26-.22,52.19-.12,1.71.02,2.69.03,2.69.03,0,0,.82,1.06.48,3.61Z"/>
          <path class="cls-2" d="M89.7,60.03c-.36,4.76-2.21,13.77-10.69,19.34-11.94,7.85-23.07,6.17-32.21-.88-6.73-5.19-8.72-14.04-9.29-18.34.87-.06,2.05-.1,3.49-.15,4.62-.12,11.85-.16,19.44-.15h0c.68,0,1.37,0,2.06,0,2.17,0,4.35.01,6.5.02.42,0,.84,0,1.25,0,5.93.03,11.49.07,15.55.11,1.54.01,2.86.03,3.91.04Z"/>
          <path class="cls-4" d="M60.43,59.85c-2.11,4.81-7.08,15.08-11.07,15.51-5.21.56-9.05-10.1-9.37-12.34-.17-1.15.41-2.24,1.01-3.02,4.62-.12,11.85-.16,19.44-.15Z"/>
          <path class="cls-4" d="M73.24,75.84c-1.36,3.21-4.49,5.77-10.98,5.85-6.49.08-6.49-2.24-6.01-6.41.38-3.25,4.46-11.82,6.24-15.43,2.17,0,4.35.01,6.5.02.47,1.25,1.15,2.97,1.85,4.51,1.28,2.8,3.76,8.25,2.4,11.46Z"/>
          <path class="cls-4" d="M80.85,70.63c-4.18.47-8.57-6.84-10.61-10.75,5.93.03,11.49.07,15.55.11.1,3.97-.84,10.18-4.94,10.64Z"/>
          <path class="cls-2" d="M45.7,64.69c.34-.26.69-.51,1.02-.8.29-.26-.09-.74-.41-.53s-.65.47-.97.7c-.16.12-.24.31-.13.5.09.15.34.25.5.13h0Z"/>
          <path class="cls-2" d="M48.37,71.44c1.69-1.98,3.67-3.74,5.31-5.75.3-.37-.1-1.05-.56-.72-2.11,1.54-3.82,3.76-5.41,5.81-.36.46.26,1.13.66.66h0Z"/>
          <path class="cls-2" d="M62.15,74.83c.49-1.95,1.1-3.91,1.41-5.9.08-.52-.63-.74-.81-.22-.63,1.91-.98,3.93-1.44,5.89-.13.54.7.77.83.23h0Z"/>
          <path class="cls-2" d="M67.21,75.8c.12-3.73.25-8.02-.9-11.62-.12-.38-.7-.32-.7.1-.02,1.91.36,3.84.52,5.74.15,1.92.25,3.85.3,5.78.01.5.76.5.78,0h0Z"/>
          <path class="cls-2" d="M80.51,65.33c-.54-.67-1.05-1.46-1.73-2-.41-.33-1.01.07-.75.58.41.81,1.13,1.5,1.71,2.19.46.54,1.2-.23.77-.77h0Z"/>
        </g>
        <path class="cls-5" d="M63.58,59.4c-1.32-.45-2.93-.29-4.32-.32-1.89-.05-3.78-.08-5.67-.05-4.04.07-8.09-.01-12.13.16-1.48.06-2.99.07-4.47.19-1.58.12-1.99.78-2.21,2.33-.66,4.75.29,10.29,3.11,14.25.5.7,1.53.11,1.16-.68-1.02-2.14-2-4.24-2.51-6.57-.45-2.06-.91-4.9-.41-7.01.29-1.22.92-1.14,1.93-1.25.66-.07,1.31-.14,1.98-.14,1.59,0,3.17-.05,4.76-.08,3.49-.06,6.97-.08,10.46-.05,1.6.02,3.2.04,4.8.08,1.15.03,2.38.22,3.51-.03.45-.1.38-.71,0-.84h0Z"/>
        <path class="cls-2" d="M39.18,31.35c-3.13-.95-6.28-1.05-9.5-.47-2.89.52-6.57,1.66-8.59,3.91-.71.79-.04,2.32,1.12,1.92,2.62-.91,4.89-2.36,7.65-2.97s5.86-.61,8.71-.18c1.42.21,2.05-1.76.61-2.2h0Z"/>
        <path class="cls-2" d="M17.77,38.05c-.2.34-.43.67-.59,1.03-.25.54-.39,1.43.26,1.77,1.11.58,1.89-.85,2.41-1.59.36-.52.11-1.36-.43-1.65-.58-.31-1.31-.15-1.65.43h0Z"/>
        <path class="cls-2" d="M26.51,73.78c.82.01,2.43.26,2.43-.99s-1.61-1-2.43-.99c-.52,0-1.01.45-.99.99s.43.98.99.99h0Z"/>
      </g>
      <rect class="cls-3" width="100" height="100"/>
    </g>
  </g>
</svg>