<?xml version="1.0" encoding="UTF-8"?>
<svg id="Capa_2" data-name="Capa 2" xmlns="http://www.w3.org/2000/svg" viewBox="0 0 100 100">
  <defs>
    <style>
      .cls-1 {
        fill: #fff;
      }

      .cls-2 {
        fill: none;
      }

      .cls-3 {
        fill: #4a2d2d;
      }

      .cls-4 {
        fill: #f5808f;
      }
    </style>
  </defs>
  <g id="COLOR">
    <g>
      <g>
        <g>
          <path class="cls-4" d="M39.61,25.15c-.08.37-.16.74-.22,1.11-.12.77-.24,1.6-.19,2.38.07,1,.24,2.02.14,3.03-.05.5-.15,1.06-.62,1.34-.54.33-1.22.04-1.53-.46-.34-.55-.39-1.27-.42-1.9-.03-.65-.08-1.29-.12-1.93-.09-1.26-.09-2.54.14-3.79-.53,0-1.07.03-1.6.09-13.26,1.41-19.36,13.7-19.51,24.28-.15,10.57,2.68,20.33,17.05,24.43,14.37,4.1,22.32-9.65,24.35-16.75,4.63-16.21-5.79-29.96-17.48-31.82Z"/>
          <g>
            <path class="cls-3" d="M41.58,30.95c-.45.22-.84.47-1.23.72-.08-1.36-.12-2.72.03-4.09.21-1.97.84-3.8,1.33-5.72.32-1.27,1.05-5.53-1.63-4.79-2.36.65-3.5,3.9-3.83,6-.48,3.04-.36,6.25.09,9.3-.96-.34-1.79-1-2.45-1.82-.5-.62-1.48.18-1.09.84,1.06,1.8,2.87,2.93,4.99,2.97,1.81.04,4.14-.85,4.73-2.7.18-.56-.46-.94-.93-.71ZM37.45,24.98c.11-1.37.3-2.79.89-4.04.37-.79.9-1.57,1.58-2.14.08-.06.16-.12.25-.15.21-.05.31.08.34.27.08.6-.02,1.22-.21,1.79-.23.72-.59,1.39-.83,2.1-.4,1.18-.75,2.33-.95,3.57-.32,2.02-.33,4.1.07,6.11-.26.06-.52.11-.82.12,0,0-.02,0-.03,0-.35-2.54-.5-5.07-.29-7.63Z"/>
            <path class="cls-3" d="M48.52,35.27c.79-.81,1.57-1.61,2.35-2.42.7-.73,1.54-1.48,2.04-2.37.18-.32-.2-.75-.53-.53-.85.57-1.54,1.43-2.22,2.19-.76.84-1.51,1.68-2.26,2.52-.37.41.22,1.02.61.61h0Z"/>
            <path class="cls-3" d="M53.11,38.27c1.94-1.02,4.16-1.98,5.8-3.47.31-.28-.01-.89-.43-.73-2.07.78-3.96,2.25-5.83,3.43-.49.31-.06,1.04.45.77h0Z"/>
            <path class="cls-3" d="M40.62,41.8c-.41,1-.99,2.07-1.19,3.14-.1.52.56.83.86.36.61-.95.94-2.18,1.34-3.22.25-.64-.77-.9-1.02-.28h0Z"/>
            <path class="cls-3" d="M46.52,42.63l1.93,1.13c.58.34,1.15.7,1.83.77.5.05.6-.57.36-.88-.4-.52-1.07-.8-1.64-1.1-.62-.33-1.25-.65-1.87-.98-.7-.36-1.3.66-.62,1.06h0Z"/>
            <path class="cls-3" d="M41.57,51.76c-.03.71-.17,1.54,0,2.24.11.46.73.39.87,0,.24-.67.18-1.54.22-2.24s-1.06-.7-1.09,0h0Z"/>
            <path class="cls-3" d="M30.53,49.41c-.08.92-.17,1.84-.25,2.77-.08.83-.25,1.68,0,2.5.11.36.68.49.86.11.37-.76.36-1.58.43-2.41.08-.99.15-1.98.23-2.97.06-.81-1.18-.8-1.26,0h0Z"/>
            <path class="cls-3" d="M29.82,40.46c-2.29.76-5.19,1.72-6.87,3.54-.27.3,0,.85.41.71,1.08-.34,2.04-.99,3.04-1.51,1.21-.62,2.44-1.19,3.7-1.69.63-.25.39-1.27-.29-1.05h0Z"/>
            <path class="cls-3" d="M23.62,35.67c-2.03-.84-3.8-2.21-5.82-3.02-.45-.18-.66.43-.42.72,1.42,1.74,3.88,2.69,5.93,3.41.72.25.98-.84.31-1.11h0Z"/>
            <path class="cls-3" d="M29.22,31.69c-.51-.96-.99-1.93-1.44-2.92-.44-.98-.76-2.04-1.35-2.94-.31-.48-.95-.15-.88.37.3,2.1,1.64,4.25,2.64,6.09.37.67,1.38.07,1.02-.6h0Z"/>
            <path class="cls-3" d="M19.11,43.27c-1.89-.11-4.22-.47-6.05.1-.44.14-.47.8,0,.92,1.87.49,4.12.17,6.05.24.81.03.8-1.21,0-1.26h0Z"/>
            <path class="cls-3" d="M17.05,50.2c-1.13.36-2.26.74-3.37,1.15-.91.34-1.88.63-2.64,1.24-.29.23-.06.82.32.78,1-.13,1.91-.61,2.84-.96,1.04-.39,2.09-.75,3.15-1.09.71-.23.41-1.34-.31-1.11h0Z"/>
            <path class="cls-3" d="M23.41,51.49c-.59.57-1.17,1.15-1.73,1.76-.52.56-1.1,1.14-1.42,1.85-.17.37.22.94.63.63.63-.46,1.09-1.09,1.61-1.67.55-.61,1.11-1.21,1.69-1.79.51-.51-.27-1.28-.79-.79h0Z"/>
            <path class="cls-3" d="M25.83,58.59c-.5,1.06-1.15,2.15-1.36,3.31-.07.38.41.77.71.41.77-.89,1.22-2.04,1.73-3.1.35-.72-.73-1.36-1.08-.63h0Z"/>
            <path class="cls-3" d="M33.33,60.53c.2.93.38,1.87.51,2.82.12.85.17,1.7.55,2.49.17.36.73.25.83-.11.46-1.68-.27-3.89-.67-5.53-.2-.79-1.39-.46-1.22.34h0Z"/>
            <path class="cls-3" d="M30.19,69.88c-1.06,2.08-2.23,4.42-2.36,6.79-.02.41.59.58.78.21,1.06-2.03,1.64-4.31,2.64-6.38.34-.7-.7-1.32-1.06-.62h0Z"/>
            <path class="cls-3" d="M20.63,61.99c-1.39,1.14-3.12,2.24-4.16,3.72-.3.43.26.82.65.65,1.65-.74,3.09-2.27,4.47-3.41.67-.55-.29-1.49-.95-.95h0Z"/>
            <path class="cls-3" d="M39.1,71.91c.41,1.42.7,3.02,1.38,4.34.22.43.99.25.94-.26-.14-1.48-.75-2.98-1.18-4.4-.22-.73-1.36-.42-1.15.32h0Z"/>
            <path class="cls-3" d="M48.77,51.14c.62.68,1.22,1.39,1.86,2.05.59.61,1.09,1.23,1.91,1.51.29.1.61-.22.51-.51-.27-.82-.89-1.33-1.5-1.92-.66-.64-1.36-1.24-2.04-1.86-.5-.46-1.19.24-.74.74h0Z"/>
            <path class="cls-3" d="M55.13,48.78c1.5.56,3.6,1.53,5.22,1.16.42-.09.45-.68.12-.89-.7-.44-1.59-.5-2.39-.68-.89-.2-1.77-.44-2.63-.72-.72-.23-1,.87-.31,1.12h0Z"/>
            <path class="cls-3" d="M50.49,61.82c.8.68,1.62,1.33,2.46,1.95.74.54,1.65,1.33,2.61,1.3.4-.01.66-.44.46-.79-.42-.74-1.36-1.12-2.07-1.55-.89-.55-1.75-1.14-2.56-1.8-.62-.5-1.51.36-.89.89h0Z"/>
            <path class="cls-3" d="M42.97,61.32c.4.77.42,1.62.77,2.4.17.39.7.22.82-.11.34-.92-.16-2.07-.6-2.87-.36-.65-1.34-.07-1,.58h0Z"/>
            <path class="cls-3" d="M47.02,68.97c.68.77,1.33,1.56,1.95,2.37.51.68.99,1.38,1.67,1.9.33.25.79-.16.68-.52-.27-.87-.87-1.58-1.43-2.29-.64-.8-1.31-1.57-2.01-2.32-.54-.58-1.38.28-.87.87h0Z"/>
          </g>
        </g>
        <g>
          <path class="cls-1" d="M45.41,59.71s3.15-11.73,9.35-16.66c6.21-4.93,14.79-2.47,19.64,1.7,4.85,4.17,6.38,11.48,6.97,13.01s-.17,2.72-.17,2.72l-35.8-.77Z"/>
          <path class="cls-4" d="M42.34,60.02c.19-.07,43.73.06,43.95.45s.45,15.19-10.22,21.22c-10.67,6.03-22.68,4.36-27.81-1.01-5.14-5.36-9.05-19.55-5.92-20.66Z"/>
          <g>
            <path class="cls-3" d="M85.59,59.89c-1.05-.11-2.11-.21-3.16-.3-.07-2.53-1.03-5.63-1.87-7.7-.93-2.27-2.18-4.39-3.75-6.27-2.99-3.6-7.35-6.24-12.07-6.63-4.74-.39-9.54,1.35-12.58,5.05-3.43,4.18-5.4,9.84-7.11,14.92-1.09.03-2.24,0-3.28.21-.87.33-1.3,1.14-1.4,2.13-.14,1.42.14,2.82.39,4.2.48,2.65,1.22,5.43,2.63,7.77.21.35.44.69.68,1.02.16.22.33.44.5.65-.75-1.73-1.23-3.59-1.65-5.42-.41-1.78-.81-3.59-.99-5.41-.09-.96-.56-2.36.38-2.9.68-.39,2.5-.07,3.33-.08,4-.02,7.99-.16,11.99-.17,4.65,0,9.3.06,13.95.18,4.7.12,9.51.63,14.18-.18.14-.02.27-.05.39-.12.55-.35-.18-.9-.56-.94ZM56.3,58.63c-2.22.02-4.44.06-6.66.13-1.15.03-2.29.08-3.44.15,1.74-4.53,3.66-9.55,6.69-13.34,2.81-3.52,7.4-5.16,11.82-4.43,4.11.68,7.72,3.05,10.34,6.24,1.52,1.84,2.68,4.02,3.51,6.25.61,1.63,1.07,3.86,1.53,5.77-7.91-.63-15.84-.84-23.79-.76Z"/>
            <path class="cls-3" d="M50.27,67.85c-.88.31-1.69.78-2.5,1.23s-1.73.85-2.31,1.53c-.3.36-.01.82.44.75.88-.14,1.75-.75,2.51-1.19.8-.46,1.61-.92,2.33-1.51.38-.31-.03-.98-.48-.82h0Z"/>
            <path class="cls-3" d="M45.69,63.69c-1.04.1-2.08.16-3.13.18-.94.02-1.89-.06-2.81.17-.46.12-.42.76,0,.89,1.79.59,4.1.17,5.93-.03.76-.09.78-1.28,0-1.21h0Z"/>
            <path class="cls-3" d="M61.02,67.42c-.87,1.5-2.11,3-2.66,4.65-.19.56.56.92.95.55,1.26-1.18,2.01-3.07,2.73-4.61.32-.68-.63-1.26-1.02-.6h0Z"/>
            <path class="cls-3" d="M52.95,74.44c-.74,1.27-1.74,2.58-2.17,3.99-.16.51.53.91.9.52,1.01-1.08,1.66-2.59,2.39-3.86.42-.72-.69-1.37-1.12-.65h0Z"/>
            <path class="cls-3" d="M63.19,75.6c.42,1.37.54,2.9,1.1,4.21.21.5.84.16.9-.24.17-1.38-.41-2.99-.83-4.29-.24-.73-1.39-.43-1.16.32h0Z"/>
            <path class="cls-3" d="M72.15,65.73c.59.57,1.16,1.16,1.7,1.78.51.58.98,1.23,1.61,1.69.37.27.95-.18.79-.6-.56-1.48-2.04-2.73-3.18-3.79-.61-.57-1.52.34-.92.92h0Z"/>
            <path class="cls-3" d="M71.65,72.79c.09.46.12,1.03.46,1.38.24.25.6.09.71-.19.1-.25.05-.49.01-.75s-.08-.49-.13-.73c-.05-.29-.4-.45-.67-.38-.3.08-.44.38-.38.67h0Z"/>
            <path class="cls-3" d="M81.81,70.31c.93.27,1.84.57,2.74.93.82.33,1.6.83,2.49.93.51.05.68-.62.39-.94-.59-.65-1.53-.94-2.34-1.26-.95-.38-1.93-.69-2.91-.96-.83-.23-1.19,1.06-.36,1.29h0Z"/>
            <path class="cls-3" d="M56.65,63.61c-.33.31-.66.62-.97.95-.3.31-.69.69-.8,1.11-.09.34.25.79.63.63.42-.18.72-.54,1.04-.87s.64-.64.97-.95c.59-.54-.29-1.41-.87-.87h0Z"/>
            <path class="cls-3" d="M58.48,82.12c-.59,1.92-1.11,3.92-1.13,5.94,0,.43.64.52.75.1.53-1.91.88-3.85,1.44-5.75.2-.68-.86-.97-1.07-.29h0Z"/>
            <path class="cls-3" d="M47.15,78.24c-.69.79-1.39,1.56-2.08,2.34-.63.7-1.41,1.45-1.81,2.31-.19.4.2.86.62.62.83-.47,1.49-1.3,2.13-2,.7-.77,1.38-1.57,2.06-2.36.54-.63-.37-1.55-.92-.92h0Z"/>
            <path class="cls-3" d="M70.65,80.53c.31.96.57,1.93.75,2.93.18.98.23,2.01.59,2.94.15.39.77.48.88,0,.44-1.98-.38-4.34-1.03-6.19-.26-.74-1.43-.43-1.19.33h0Z"/>
            <path class="cls-3" d="M78.99,77.55c.72.65,1.44,1.28,2.18,1.9.69.58,1.39,1.23,2.22,1.6.57.25,1.04-.36.65-.84-.56-.71-1.35-1.23-2.05-1.8s-1.41-1.16-2.11-1.75c-.61-.52-1.5.34-.89.89h0Z"/>
          </g>
        </g>
        <path class="cls-1" d="M31.17,37.53c1.24,0,1.24-1.93,0-1.93s-1.24,1.93,0,1.93h0Z"/>
        <path class="cls-1" d="M33.85,41.2c.79,0,.79-1.23,0-1.23s-.79,1.23,0,1.23h0Z"/>
        <path class="cls-1" d="M22.01,58.81c1.31,0,1.31-2.03,0-2.03s-1.31,2.03,0,2.03h0Z"/>
        <path class="cls-1" d="M36.31,56.36c.12-.02.25-.02.36-.05.09-.01.17-.05.25-.1.12-.06.21-.15.28-.26.04-.05.06-.08.09-.12.18-.28.18-.71,0-.98,0,0,0-.01-.01-.02-.09-.15-.21-.27-.36-.36-.08-.06-.16-.09-.25-.1-.11-.03-.25-.03-.36-.05-.14,0-.27.02-.4.09-.13.04-.24.11-.33.21-.1.09-.17.2-.21.33-.06.12-.09.25-.09.4l.04.27c.05.17.14.33.26.45l.21.16c.16.09.33.14.52.14h0Z"/>
        <path class="cls-1" d="M49.26,64.19c1.33,0,1.33-2.07,0-2.07s-1.33,2.07,0,2.07h0Z"/>
        <path class="cls-1" d="M45.44,67.85c.08.01.16.02.25.03.07,0,.15-.02.22-.03.09-.01.17-.04.25-.1.11-.06.2-.14.26-.24.08-.09.14-.2.17-.32.04-.16.04-.33,0-.49l-.09-.22c-.08-.14-.19-.25-.33-.33-.11-.07-.22-.1-.35-.11-.12-.03-.25-.02-.37.02-.24.07-.42.22-.56.43-.08.15-.13.3-.13.47l.03.25c.04.16.12.29.24.41.12.12.25.2.41.24h0Z"/>
        <path class="cls-1" d="M68.25,69.23c.93,0,.93-1.44,0-1.44s-.93,1.44,0,1.44h0Z"/>
        <path class="cls-1" d="M80.76,66.56c1.52,0,1.52-2.36,0-2.36s-1.52,2.36,0,2.36h0Z"/>
        <path class="cls-1" d="M73.54,75.68s-.07.09-.1.14h0c-.03.08-.06.15-.08.21-.01.04-.02.08-.02.12,0,.04-.01.08-.01.11,0,.02,0,.05,0,.07,0,.1.02.2.06.29.03.09.08.17.15.24.14.13.33.23.53.22.02,0,.04,0,.06,0,.08,0,.16,0,.24-.03.04,0,.07-.02.11-.04.04,0,.08-.03.11-.05.05-.03.09-.07.14-.1.13-.08.23-.18.31-.31.08-.13.12-.28.12-.43l-.03-.23c-.04-.15-.11-.27-.22-.38-.08-.08-.17-.14-.28-.18-.1-.05-.21-.08-.33-.07-.16,0-.3.04-.43.12-.13.08-.23.18-.31.31h0Z"/>
      </g>
      <rect class="cls-2" width="100" height="100"/>
    </g>
  </g>
</svg>