<?xml version="1.0" encoding="UTF-8"?>
<svg id="Capa_2" data-name="Capa 2" xmlns="http://www.w3.org/2000/svg" xmlns:xlink="http://www.w3.org/1999/xlink" viewBox="0 0 100 100">
  <defs>
    <style>
      .cls-1 {
        fill: #72ab4c;
      }

      .cls-2 {
        fill: none;
      }

      .cls-3 {
        fill: #4a2d2d;
      }

      .cls-4 {
        fill: url(#Degradado_sin_nombre_50);
      }
    </style>
    <linearGradient id="Degradado_sin_nombre_50" data-name="Degradado sin nombre 50" x1="34.32" y1="31.97" x2="60.51" y2="80.76" gradientUnits="userSpaceOnUse">
      <stop offset="0" stop-color="#ef2b45"/>
      <stop offset="1" stop-color="#c0c728"/>
    </linearGradient>
  </defs>
  <g id="COLOR">
    <g>
      <g>
        <path class="cls-1" d="M87.7,9.75c-.06-.61-.63-.98-1.2-.69-2.52,1.29-5.33,2.21-8.11,2.72-2.26.42-4.58.61-6.73,1.48-4.26,1.73-5.77,5.75-6.47,9.99-.03.19.03.34.13.45.03.23.17.43.45.47,2.9.46,5.61,1.8,8.56,1.98,2.52.16,5.08-.7,7.14-2.11,4.5-3.07,6.74-8.96,6.23-14.3Z"/>
        <path class="cls-4" d="M65.41,27.43c0,.22-.03.44-.06.67-.01.1-.03.2-.04.29,0,.05-.01.1-.02.14,0,.02,0,.03,0,.04,0,0,0,0,0,.02-.03.25-.06.5-.11.75-.12.72-.28,1.52-.76,2.1-.54.64-1.47.55-2.04-.02-.71-.71-.5-1.9-.23-2.75.16-.51.36-1,.57-1.49.07-.16.15-.33.23-.49-1.02-.26-2.09-.49-3.22-.68-18.55-3.14-23.77,10.85-24.84,19-.9,6.88-.15,14.36-4.64,19.6-4.49,5.24-11.37,10.02-9.28,18.4,2.09,8.38,16.02,14.8,33.66,6.28,17.36-8.38,22.89-20.72,25.58-31.27,3.52-13.8-1.07-25.92-14.81-30.6Z"/>
        <path class="cls-3" d="M85.01,18.24c-2.59-.41-5.25-.38-7.73-1.24,2.43-.64,5.01-1.25,6.77-3.09.31-.32-.1-.9-.49-.64-3.07,2.03-6.57,2.44-9.92,3.73.62-1.71,1.55-3.12,2.5-4.68.17-.28-.23-.59-.46-.36-1.39,1.41-2.22,3.45-2.77,5.32-1.94.82-4.78,2.29-6.27,4.23,0-1.15-.08-2.31-.24-3.45-.43-3.11-1.61-9.32-5.41-10.03-1.33-.25-2.81.44-3.08,1.84-.37,1.91,1.51,3.89,2.33,5.43,2.36,4.44,3.28,9.93,1.35,14.7-.33-.44-.55-.97-.65-1.53-.11-.62-1.15-.48-1.1.15.13,1.66,1.09,3.23,2.71,3.81,1.55.56,3.61.21,4.53-1.24.36-.56-.33-1.15-.87-.87-.34.18-.67.36-1,.51.71-2.41,1.2-4.9,1.36-7.41.9-1.17,1.74-2.12,2.87-2.96.01.06.04.11.11.15,3.09,1.84,6.81,3.41,10.39,3.9.29.04.43-.38.12-.45-3.51-.82-7.11-2.09-10.25-3.87.2-.14.4-.27.62-.4,1.73-1.05,3.6-1.85,5.53-2.43.15-.04.3-.08.46-.13,2.59,1.17,5.71,1.67,8.52,1.59.32,0,.42-.53.08-.58ZM62.58,30.85c1.49-2.95,1.97-6.11,1.4-9.39-.31-1.79-.89-3.55-1.6-5.22-.37-.86-.78-1.69-1.23-2.51-.43-.77-1.25-1.67-1.45-2.54-.23-1.01.24-2.01,1.55-1.36.41.2.78.63,1.03,1,.55.8.91,1.76,1.24,2.66.69,1.92,1.26,3.9,1.47,5.93.49,4.68-.25,8-1.38,11.74-.16-.02-.33-.04-.51-.09-.18-.05-.35-.13-.52-.22Z"/>
      </g>
      <rect class="cls-2" width="100" height="100"/>
    </g>
  </g>
</svg>