<?xml version="1.0" encoding="UTF-8"?>
<svg id="Capa_2" data-name="Capa 2" xmlns="http://www.w3.org/2000/svg" viewBox="0 0 100 100">
  <defs>
    <style>
      .cls-1 {
        fill: #fff;
      }

      .cls-2 {
        fill: none;
      }

      .cls-3 {
        fill: #febb7c;
      }

      .cls-4 {
        fill: #4a2d2d;
      }

      .cls-5 {
        fill: #fe9736;
      }

      .cls-6 {
        fill: #945031;
      }
    </style>
  </defs>
  <g id="COLOR">
    <g>
      <g>
        <path class="cls-5" d="M35.54,29.75c-.97-.13-2.2.02-3.56.4.03.12.07.24.12.36.33.79,1.04,1.34,1.29,2.18.37,1.24.06,2.62-.82,3.56-.88.93-2.19,1.28-3.43,1.07-1.24-.21-2.18-1.09-2.69-2.22-.23-.52-.4-1.06-.54-1.61-.03-.1-.06-.21-.08-.32-2.78,1.95-5.31,4.62-6.6,7.77-2.91,7.09-8.64,28.77-.43,36.85,8.22,8.08,20.62,8.86,27.56,6.16,6.94-2.69,14.24-10.22,15.45-19.13,2.05-15.16-22.04-34.51-26.29-35.07Z"/>
        <path class="cls-5" d="M41.28,68.73s1.35,10.77,8.15,15.52,15.45,8.36,26.43.35,10.27-19.77,9.14-24.8-5.95-13.89-13.18-16.3-17.29.5-22.32,5.03c-5.03,4.53-7.94,13.11-8.08,15.45-.14,2.34-.14,4.75-.14,4.75Z"/>
        <path class="cls-3" d="M82.87,57.51c-1.53-7.19-7.04-13.57-14.8-14.93-12.19-2.13-22.53,8.64-25.23,17.01-2.69,8.36-1.13,18.56,10.49,22.25,11.62,3.68,20.69-2.83,25.93-9.07,3.73-4.43,4.71-10.05,3.61-15.26Z"/>
        <path class="cls-4" d="M25.67,35.97c.03.07.07.13.1.2.78,1.43,2.39,1.99,3.95,1.87,3.03-.23,5-2.53,4.24-5.36-.37-1.37-1.04-2.62-1.53-3.94s-.68-2.64-.9-3.96c-.11-.69-.51-1.41-1.1-1.82-.76-.52-1.66-.28-2.47-.01-.71.24-1.32.69-1.73,1.32-1.08,1.67-.82,4.15-.98,6.04-.16,1.82-.39,3.96.44,5.66ZM27.58,24.82c.46-.53,2-1.42,2.47-.42.1.21.16.44.2.67-.27.35-.52.71-.92.96-.73.45-1.78.63-2.29-.23,0-.01-.02-.02-.03-.03.14-.34.33-.67.57-.94ZM26.41,30.31c.1-1.14.15-2.33.33-3.47.63.56,1.56.66,2.39.34.41-.16.88-.44,1.28-.8.03.36.05.73.12,1.08.21,1.1.58,2.17,1.04,3.2.54,1.22,1.62,2.63,1.22,4.03-.36,1.24-1.77,1.89-2.94,2.05-3.93.54-3.66-3.77-3.43-6.43Z"/>
        <path class="cls-6" d="M63.39,54.41s-.78-3.97-5.46-2.98c-4.68.99-8.64,7.79-7.72,9.92.92,2.13,3.4,2.98,3.4,2.98,0,0-2.55,1.35-2.34,4.89.21,3.54,3.68,7.3,11.12,5.67,7.44-1.63,5.95-8.57,5.95-8.57,0,0,3.12.43,5.17-3.33,2.05-3.76,1.06-6.24-1.91-8.93-2.98-2.69-6.38-1.28-7.23-.64s-.99.99-.99.99Z"/>
        <path class="cls-4" d="M52.9,65.55c2.34-1.77,5.58-4.73,8.78-4.1,2.6.51,5.12,3.58,6.18,5.83.27.57,1.1.15.97-.41-.36-1.59-1.53-2.88-2.73-3.93s-2.54-2.23-4.13-2.56c-1.64-.34-3.31.21-4.74.97-1.69.9-3.59,2.06-4.84,3.54-.28.34.1.97.51.66h0Z"/>
        <path class="cls-4" d="M65.07,52.76c-3.08,1.15-4.78,4.88-4.41,8.04.06.47.83.7.92.12.48-3.06.76-5.76,3.88-7.25.51-.24.15-1.11-.39-.92h0Z"/>
        <path class="cls-4" d="M54.04,44.79c-3.38,1.68-6.06,4.47-8.35,7.41-2.59,3.33-4.59,6.92-5.24,11.14-.6,3.86-.2,7.84,1.14,11.51,1.18,3.22,3.25,7.41,6.37,9.15.55.31,1.09-.3.83-.83-.76-1.52-1.97-2.82-2.9-4.25-.98-1.52-1.83-3.15-2.47-4.85-1.29-3.42-1.75-7.17-1.17-10.79,1.15-7.16,6.59-13.41,12.42-17.39.68-.47.1-1.48-.65-1.11h0Z"/>
        <path class="cls-1" d="M57.7,52.94c-1.09-.09-2.19.66-2.92,1.41s-1.69,2.1-1.04,3.19c.21.36.71.6,1.13.46.89-.31,1.15-1.18,1.7-1.86.52-.63,1.24-1.02,1.78-1.62s.15-1.51-.65-1.58h0Z"/>
        <path class="cls-1" d="M66.89,54.67c-.56.34-1.14.86-1.27,1.53-.07.36.04.78.39.96s.75.14,1.03-.13c.09-.09.18-.18.26-.28.05-.07.1-.13.15-.2.1-.14-.08.08,0,0,.07-.07.13-.15.21-.22.03-.03.07-.06.1-.09.17-.15-.15.11.03-.02.38-.27.6-.79.32-1.22-.26-.4-.79-.58-1.22-.32h0Z"/>
        <path class="cls-1" d="M65.51,60.2c1.16,0,1.16-1.8,0-1.8s-1.16,1.8,0,1.8h0Z"/>
        <path class="cls-1" d="M57.2,64.24c-.98.31-1.85.84-2.51,1.63-.62.74-1.2,1.86-.9,2.85.15.49.88.79,1.25.33.44-.55.66-1.24,1.09-1.82.39-.53.94-.99,1.55-1.24,1.06-.43.66-2.11-.48-1.76h0Z"/>
        <path class="cls-1" d="M23.53,41.27c-1.27.99-1.96,2.62-2.55,4.08-.58,1.44-1.23,3.14-.79,4.68.2.72,1.14.79,1.53.2.78-1.17.92-2.7,1.41-4.01.53-1.4,1.41-2.68,1.82-4.12.25-.89-.8-1.31-1.42-.83h0Z"/>
        <path class="cls-1" d="M19.77,54.34c.08.69.1,1.41.59,1.95.33.36.94.25,1.18-.15.33-.56.23-1.18.17-1.79-.05-.5-.41-.99-.97-.97-.47.02-1.03.43-.97.97h0Z"/>
      </g>
      <rect class="cls-2" width="100" height="100"/>
    </g>
  </g>
</svg>