<?xml version="1.0" encoding="UTF-8"?>
<svg id="Capa_2" data-name="Capa 2" xmlns="http://www.w3.org/2000/svg" viewBox="0 0 100 100">
  <defs>
    <style>
      .cls-1 {
        fill: #fff;
      }

      .cls-2 {
        fill: none;
      }

      .cls-3 {
        fill: #4a2d2d;
      }

      .cls-4 {
        fill: #9e991c;
      }

      .cls-5 {
        fill: #fee7a9;
      }
    </style>
  </defs>
  <g id="COLOR">
    <g>
      <g>
        <g>
          <g>
            <path class="cls-4" d="M79.41,43.15c-1.22-12.84-10.96-23.54-23.51-26.46-7.32-1.7-15.04-1.08-22.38.17-3.88.66-7.72,1.59-11.47,2.78-3.18,1.01-6.31,2.37-8.5,5-2.67,3.2-4.82,6.91-6.88,10.52-.98,1.72-2.07,3.37-2.98,5.13-.7,1.33-1.21,2.75-1.6,4.2-.2.75-.41,1.55-.34,2.33s.54,1.39.84,2.1c.37.87.75,1.73,1.15,2.58.79,1.71,1.65,3.4,2.58,5.04,1.86,3.26,4.04,6.36,6.68,9.04,1.51,1.53,3.16,2.92,4.94,4.12,3.28,2.2,7.06,3.66,10.92,4.49,2.52.55,5.11.84,7.69.99,10.84.62,21.95-2.65,30.73-9.03,2.96-2.15,5.41-4.58,7.39-7.66,2.74-4.27,5.25-10.15,4.75-15.35Z"/>
            <path class="cls-3" d="M23.03,28.05c3.91-2.36,7.73-3.81,12.26-4.44,5.07-.71,10.06-.64,15.16-.68.58,0,.75-.94.14-1.04-4.88-.86-10.1-.25-14.97.45-4.68.67-8.81,2.3-12.83,4.73-7.05,4.27-13.54,10.22-16.98,17.83-.23.5.51.95.75.44,3.57-7.43,9.48-13.05,16.48-17.29Z"/>
            <path class="cls-3" d="M55.58,24.19c2.98.82,6,1.65,8.73,3.14,2.52,1.37,4.22,3.21,6.02,5.39.3.36.99-.03.81-.47-2.35-5.76-9.86-7.8-15.24-9.25-.77-.21-1.1.98-.33,1.19Z"/>
            <path class="cls-3" d="M42.44,27.47c-2.57.05-6.34-.33-8.43,1.48-.27.23-.06.77.3.73,1.41-.14,2.75-.6,4.17-.73,1.54-.14,3.11-.15,4.65-.18,3.14-.07,6.3-.03,9.42.32,6,.67,11.89,2.61,16.54,6.58.47.4,1.16-.26.69-.69-4.62-4.21-10.59-6.27-16.72-7.06-3.53-.46-7.08-.51-10.64-.44Z"/>
            <path class="cls-3" d="M26.43,31.76c1.18-.37,2.24-1.09,3.41-1.5.65-.23.38-1.27-.29-1.05-1.21.39-2.66.85-3.58,1.77-.32.32,0,.92.45.78Z"/>
            <path class="cls-3" d="M51.18,35.77c2.03.13,4.04.58,6.07.7.5.03.53-.67.11-.83-3.54-1.27-7.91-1.23-11.62-1.12-4.05.13-8.09.68-12.06,1.5-7.23,1.49-15.39,3.11-21.63,7.26-.5.33-.04,1.14.48.81,6.27-4,13.9-5.55,21.12-6.91,3.88-.73,7.8-1.29,11.75-1.46,1.92-.08,3.86-.09,5.78.04Z"/>
            <path class="cls-3" d="M72.07,43.84c-10.59-4.3-22.44-3.1-33.54-2.2-.6.05-.61.99,0,.94,11.22-.82,22.42-1.19,33.3,2.12.57.17.76-.65.24-.86Z"/>
            <path class="cls-3" d="M27.54,45.24c.71-.11.4-1.16-.29-1.07-5.96.82-12.38,2.08-17.91,4.5-.43.19-.12.85.31.74,2.97-.76,5.86-1.79,8.85-2.49,2.99-.7,6.01-1.22,9.04-1.68Z"/>
            <path class="cls-3" d="M71.33,50.15c-4.92,1.05-9.67,2.53-14.68,3.25-5.04.73-10.12,1.03-15.2,1.17-10.37.29-20.76-.8-31.06-1.9-.59-.06-.58.85,0,.91,10.66,1.25,21.34,2.19,32.08,2.1,4.84-.04,9.7-.44,14.49-1.12,4.89-.7,10.19-1.51,14.76-3.45.57-.24.14-1.07-.4-.95Z"/>
            <path class="cls-3" d="M34.68,49.17c4.05.76,8.48,1.45,12.6.93.47-.06.48-.69,0-.74-4.13-.43-8.25-.4-12.37-1.02-.53-.08-.78.72-.23.83Z"/>
            <path class="cls-3" d="M55.88,50.02c1.57-.2,3.2-.31,4.72-.73.39-.11.31-.7-.1-.71-1.54-.02-3.1.28-4.62.48-.6.08-.61,1.04,0,.96Z"/>
            <path class="cls-3" d="M67.66,58.17c-.45.1-.83.36-1.23.58-.41.23-.83.46-1.24.69-.61.34-.05,1.29.54.93.41-.24.81-.49,1.22-.73.39-.23.8-.44,1.11-.78.28-.31,0-.78-.4-.69Z"/>
            <path class="cls-3" d="M56.01,62.46c-3.34.58-6.6,1.7-9.95,2.33-3.39.63-6.79,1.13-10.25,1.26-6.63.24-13.25-1.25-19.09-4.41-.44-.24-.82.41-.39.67,5.78,3.54,12.45,4.84,19.16,4.95,3.44.05,6.89-.31,10.27-.99,3.47-.69,7.33-1.61,10.52-3.16.38-.19.09-.7-.27-.64Z"/>
          </g>
          <path class="cls-1" d="M13.11,32.89c1.4-1.45,2.86-2.85,4.38-4.17,1.37-1.19,3.18-2.32,4.04-3.94.35-.66-.23-1.44-.96-1.25-1.78.45-3.27,2.05-4.53,3.32-1.5,1.51-2.88,3.11-4.19,4.79-.69.88.44,2.1,1.26,1.26h0Z"/>
          <path class="cls-1" d="M26.99,22.77c.2-.2.41-.4.6-.61.23-.25.31-.64.12-.94-.18-.28-.55-.47-.88-.36-.26.09-.52.2-.78.3-.31.13-.59.32-.67.67-.06.25-.04.51.1.74.31.53,1.07.63,1.51.19h0Z"/>
          <path class="cls-1" d="M77.12,41.2c.36-1.18-.56-2.59-1.33-3.43-.87-.94-2.1-1.62-3.4-1.41-.59.1-.82,1.01-.36,1.38.71.57,1.55.94,2.21,1.58s.9,1.58,1.53,2.23c.43.45,1.18.21,1.36-.36h0Z"/>
          <path class="cls-1" d="M67.29,37.78c-.48-.02-.95-.06-1.43.03-.31.06-.54.38-.58.67-.04.33.11.62.38.8.39.27.89.4,1.34.57.6.23,1.24-.3,1.31-.88.09-.64-.4-1.17-1.03-1.19h0Z"/>
          <path class="cls-1" d="M31.18,42.45c.76-.11,1.62-.11,2.19-.7.31-.33.27-.89-.15-1.13-.78-.45-1.72-.15-2.55-.02-.51.08-.8.72-.67,1.18.15.55.67.74,1.18.67h0Z"/>
          <path class="cls-1" d="M52.74,46.04c.67-.03,1.44.04,2.01-.38.4-.29.4-.78,0-1.07-.57-.42-1.34-.36-2.01-.38-.5-.02-.92.44-.92.92s.42.94.92.92h0Z"/>
          <path class="cls-1" d="M64.35,48.08l.22-.13-.18.08c.06-.02.11-.04.17-.06.28-.09.52-.35.51-.67s-.21-.57-.51-.67c-.06-.02-.11-.04-.17-.06l.18.08-.22-.13c-.59-.35-1.36.1-1.36.78s.77,1.13,1.36.78h0Z"/>
          <path class="cls-1" d="M25.34,51.14c.09,0,.19,0,.28-.01.21-.02.39-.06.58-.17.27-.15.54-.41.53-.74s-.22-.57-.51-.73c-.19-.11-.37-.16-.6-.18-.09,0-.19,0-.28-.01-.48-.02-.95.44-.93.93s.41.95.93.93h0Z"/>
          <path class="cls-1" d="M47.64,25.59c.87-.09,1.74-.14,2.61-.13.8,0,1.64.17,2.4-.13.44-.17.6-.79.14-1.05-1.44-.82-3.77-.26-5.33.01-.73.13-.57,1.37.18,1.3h0Z"/>
          <path class="cls-1" d="M8.41,46.63c.22-.25.44-.53.52-.86.11-.44-.28-.84-.73-.73-.33.08-.61.3-.86.52-.14.12-.22.35-.22.53s.08.41.22.53.33.23.53.22.4-.07.53-.22h0Z"/>
          <path class="cls-1" d="M4.99,50.26l.53.09c.14.02.27.03.4-.03.12-.05.23-.14.3-.25.13-.24.11-.56-.1-.75l-.37-.35c-.36-.34-.96-.28-1.22.16-.1.17-.13.4-.08.6.07.24.28.5.54.54h0Z"/>
          <path class="cls-1" d="M12.98,58.82c.87.17,2.31.27,2.74-.73.12-.29.12-.72-.23-.88-.39-.17-.78-.19-1.2-.13-.28.04-.56.07-.84.02-.47-.08-.96.12-1.09.62-.12.44.15,1,.62,1.09h0Z"/>
          <path class="cls-1" d="M72.76,55.91l.11-.14c.06-.08.09-.2.13-.3.03-.11.03-.23,0-.34-.03-.11-.09-.2-.16-.28-.08-.08-.17-.13-.28-.16-.11-.03-.23-.03-.34,0l-.07.03c-.08.03-.16.05-.23.1l-.14.11c-.11.06-.19.15-.26.26-.07.11-.1.23-.1.36,0,.19.07.37.21.51.13.13.32.21.51.21.13,0,.25-.03.36-.1.11-.06.19-.15.26-.26h0Z"/>
        </g>
        <g>
          <path class="cls-1" d="M37.46,60.56s2.26-1.29,3.23-.49c.97.81,1.37,2.02,1.21,2.75s-.57,1.62-.57,1.62c0,0,2.75-1.13,3.8-.24s.24,3.15.24,3.15c0,0,2.75-1.46,3.8-.4s.49,2.67.49,2.67c0,0,2.75-1.86,3.96-.57,1.21,1.29.89,2.75.89,2.75,0,0,1.29-1.62,2.43-.89s1.21,2.18,1.21,2.18c0,0,2.1-2.99,3.64-2.26,1.54.73,2.1,2.67,2.1,2.67,0,0,1.78-2.1,3.23-1.94s2.02,1.05,2.02,1.05c0,0,.73-2.91,2.02-2.43s2.02,2.18,2.02,2.18c0,0,.49-3.8,2.26-3.88s2.14,1.77,2.14,1.77c0,0,.21-3.63,1.91-3.87s2.83.57,2.83.57c0,0-.73-3.56.81-3.64s2.1.24,2.1.24c0,0-1.78-2.02-.08-2.59,1.7-.57,3.56.24,3.56.24,0,0-5.25,14.55-19.97,15.92-14.71,1.37-30.39-11.56-31.28-16.57Z"/>
          <g>
            <path class="cls-3" d="M87.49,60.63c-.94-.41-2.29-.45-3.09.33-.47.46-.42,1.12-.2,1.75-.67-.11-1.38-.03-1.87.34-.83.63-.96,1.71-.88,2.75-.77-.33-1.74-.32-2.41.05-1.07.58-1.43,1.63-1.46,2.74-.73-.64-1.79-.9-2.72-.49-1.16.51-1.61,1.74-1.7,2.96-.62-.94-1.73-1.59-2.82-1.19-.93.34-1.37,1.09-1.52,1.94-.54-.56-1.3-.91-2.08-.85-1.11.09-1.93.87-2.5,1.8-.33-1.18-1.17-2.26-2.38-2.48-1.55-.29-2.6.88-3.45,2.09-.08-.75-.37-1.49-.95-1.84-.87-.51-1.73-.04-2.45.6.03-1.2-.32-2.42-1.41-3.05-1.26-.73-2.57-.05-3.61.84.12-.4.22-.82.18-1.24-.06-.7-.52-1.4-1.16-1.71-.99-.48-2.13.03-3.06.73.32-1.03.31-2.14-.49-2.86-.92-.83-2.28-.55-3.38.04.31-1.12.16-2.41-.46-3.35-1-1.53-2.55-1.1-4.01-.54-.48.18-.3.93.22.79,1.15-.32,2.48-.81,3.12.54.51,1.07.24,2.19-.21,3.23-.08.18-.06.35.02.47-.02.36.47.67.84.38.72-.57,2.88-1.83,3.39-.43.37,1.04-.4,2.24-.61,3.23-.07.32.36.66.6.35.04-.05.08-.11.13-.17.04-.01.09-.04.13-.07.67-.57,2.36-1.75,3.24-1.28,1.19.64.26,2.35.23,3.31-.01.53.68.54.85.12,0,0,0,0,0,0,.96-.92,2.97-2.34,3.94-.72.55.92.26,1.98.21,3-.03.53.7.67.95.26.43-.68,1.73-2.51,2.55-.69.17.37,0,1.07-.02,1.45-.01.32.22.51.48.53.16.1.38.11.52-.06.81-.94,1.45-2.6,2.78-2.91,1.97-.46,2.06,1.95,2.53,3.14.02.19.2.31.38.31.2.04.41-.03.45-.29.01-.09.02-.18.03-.27.46-.95.97-2.08,2.11-2.24,1.37-.18,1.87.99,2.41,1.97.1.19.3.21.45.13.19-.04.35-.22.31-.46-.16-.9-.17-2.63,1.11-2.72,1.11-.07,1.44,1.26,2.05,1.9.16.17.44.16.62.04.27.08.65-.07.62-.41-.09-.98-.03-2.38.71-3.13,1.06-1.08,2.24.07,2.8.98.19.3.57.25.74.03.12-.07.2-.18.19-.34-.09-.97-.11-2.27.75-2.93.38-.29.84-.4,1.31-.32.57.11.76.49,1.18.81.06.05.13.08.2.1.02,0,.04.01.06.01.3.05.62-.13.6-.47,0-.04,0-.09,0-.14-.11-.73-.29-1.68,0-2.38.22-.52.38-.68.97-.8.45-.09,1.04,0,1.36.35.44.46,1.2-.13.88-.68-.23-.4-.73-1.1-.67-1.58.15-1.1,1.29-.67,1.96-.47.48.15.84-.63.35-.84Z"/>
            <path class="cls-5" d="M27.03,61.37s9.94-2.51,10.83-2.02,5.82,11.07,19.48,13.66c13.66,2.59,23.44-4.69,26.19-7.84,2.75-3.15,2.43-5.34,3.96-5.42s9.94,0,10.43.89c.49.89,2.18,15.6-14.39,26.43-16.57,10.83-39.12,4.12-46.97-3.72-7.84-7.84-10.83-20.37-9.54-21.99Z"/>
            <path class="cls-4" d="M97.93,60.64c-.18-.33-1.43-.54-3.01-.68-.51,4.36-3.03,15.67-10.97,22.03-8.89,7.11-25.06,9.94-38.96,2.34-11.36-6.21-14.68-19.06-15.51-23.55-1.41.33-2.43.59-2.43.59-1.29,1.62,1.7,14.15,9.54,21.99,7.84,7.84,30.39,14.55,46.97,3.72,16.57-10.83,14.87-25.54,14.39-26.43Z"/>
          </g>
          <path class="cls-3" d="M37.22,58.48c-2.73.02-5.58.75-8.22,1.41-1.68.42-3.19.47-3.25,2.43-.14,4.7,1.1,9.92,4.19,13.56.49.57,1.29-.16.99-.76-1.86-3.71-3.62-7.35-3.92-11.56-.09-1.21-.24-1.7,1-2.13.95-.33,2.01-.5,2.99-.72,2.1-.46,4.29-.75,6.34-1.34.49-.14.4-.9-.12-.89h0Z"/>
          <path class="cls-1" d="M32.38,63.05l.05.11c.1.23.33.4.57.46l.23.03c.12,0,.23-.02.34-.08.07-.02.14-.06.19-.11.1-.06.17-.14.23-.25.14-.19.15-.48.1-.7,0-.02,0-.04-.01-.05l-.03-.12c-.06-.23-.22-.42-.42-.55-.14-.08-.3-.12-.46-.12-.13,0-.24.02-.35.08-.11.04-.21.1-.29.19-.09.08-.15.18-.19.29-.06.11-.08.23-.08.35,0,.16.04.32.12.46h0Z"/>
          <path class="cls-1" d="M35.52,62.37c.35,0,.35-.55,0-.55s-.35.55,0,.55h0Z"/>
          <path class="cls-1" d="M46.59,71.62l-.02.03c-.05.05-.09.11-.11.18-.03.07-.05.14-.05.21l.02.15c.03.09.07.17.14.24l.02.03.12.09.14.06c.08.02.16.03.23.01.05,0,.1-.01.15-.04.05-.01.09-.04.13-.08.04-.03.08-.06.11-.11.04-.04.06-.08.08-.13.04-.07.05-.15.05-.23l-.02-.16-.06-.14-.09-.12-.12-.09-.14-.06c-.08-.02-.16-.03-.23-.01-.05,0-.1.01-.15.04-.07.02-.14.06-.19.12h0Z"/>
          <path class="cls-1" d="M43.04,77.41c.35,0,.35-.55,0-.55s-.35.55,0,.55h0Z"/>
          <path class="cls-1" d="M59.13,85.63c.1,0,.2-.02.29-.06.09-.03.17-.08.24-.15.07-.07.12-.15.15-.24.05-.09.07-.18.06-.29l-.03-.2c-.04-.13-.1-.23-.19-.33l-.15-.12c-.12-.07-.24-.1-.37-.1-.1,0-.2.02-.29.06-.09.03-.17.08-.24.15-.07.07-.12.15-.15.24-.05.09-.07.18-.06.29l.03.2c.04.13.1.23.19.33l.15.12c.12.07.24.1.37.1h0Z"/>
          <path class="cls-1" d="M54.6,82.95c.73,0,.73-1.13,0-1.13s-.73,1.13,0,1.13h0Z"/>
          <path class="cls-1" d="M76.02,76c.09,0,.17-.02.25-.06.08-.03.15-.07.21-.13.06-.06.11-.13.13-.21.04-.08.06-.16.06-.25l-.02-.17c-.03-.11-.09-.2-.17-.28l-.13-.1c-.1-.06-.21-.09-.33-.09-.09,0-.17.02-.25.06-.08.03-.15.07-.21.13-.06.06-.11.13-.13.21-.04.08-.06.16-.06.25l.02.17c.03.11.09.2.17.28l.13.1c.1.06.21.09.33.09h0Z"/>
          <path class="cls-1" d="M82.16,80.13l.04-.02s.09-.03.13-.05c.07-.04.13-.1.18-.18.02-.04.03-.08.05-.12,0,0,0-.01,0-.02v-.02c.03-.05.03-.07.03-.17,0-.21-.11-.41-.3-.52-.09-.05-.19-.08-.3-.08l-.16.02c-.1.03-.19.08-.26.15-.07.07-.13.16-.15.26-.06.21,0,.43.15.58.07.07.16.13.26.15.11.03.21.03.32,0h0Z"/>
          <path class="cls-1" d="M89.6,66.89c.87,0,.87-1.34,0-1.34s-.87,1.34,0,1.34h0Z"/>
        </g>
      </g>
      <rect class="cls-2" width="100" height="100"/>
    </g>
  </g>
</svg>