<?xml version="1.0" encoding="UTF-8"?>
<svg id="Capa_2" data-name="Capa 2" xmlns="http://www.w3.org/2000/svg" viewBox="0 0 100 100">
  <defs>
    <style>
      .cls-1 {
        fill: #72ab4c;
      }

      .cls-2 {
        fill: #fff;
      }

      .cls-3 {
        fill: none;
      }

      .cls-4 {
        fill: #4a2d2d;
      }

      .cls-5 {
        fill: #9e991c;
      }
    </style>
  </defs>
  <g id="COLOR">
    <g>
      <g>
        <g>
          <path class="cls-1" d="M55.21,40.51s3.45.94,11.53-2.43,16.01-7.92,22.52-5.02c6.51,2.9,5.41,9.42-6.2,12.63-11.61,3.22-23.77-.55-25.89-1.65-2.12-1.1-2.82-1.57-2.82-1.57l.86-1.96Z"/>
          <path class="cls-1" d="M54.66,39.88s-5.65-13.42-15.61-19.46c-9.96-6.04-13.18-4.94-14.99-2.43-1.8,2.51,2.59,9.18,11.85,12.87,9.26,3.69,12.71,5.41,15.14,7.3,2.43,1.88,2.98,3.61,2.98,3.61l.63-1.88Z"/>
          <path class="cls-5" d="M42.73,50.55s2.43-7.06-6.36-10.83c-8.79-3.77-19.46-.16-21.58,6.51-2.12,6.67,3.06,11.06,13.57,12.32,10.51,1.26,13.5-4.86,14.36-8Z"/>
          <path class="cls-5" d="M44.85,63.58s-4.63-6.36-16.08-2.2c-11.46,4.16-14.83,16.32-8.08,20.09,6.75,3.77,12.4,3.69,19.22-1.33,6.83-5.02,6.9-13.1,4.94-16.56Z"/>
          <path class="cls-4" d="M57.77,50.92c-.6-2.24-1.4-4.48-2.97-6.2,1.11-4.01,1.8-8.13,2.21-12.27.27-2.67.42-5.35.47-8.04.04-2.45.18-5.14-.3-7.55-.23-1.16-1.85-.77-1.94.26-.22,2.38.06,4.89.02,7.29-.04,2.46-.18,4.92-.43,7.37-.45,4.49-1.33,8.96-2.55,13.31-.27.96-.57,1.9-.89,2.84-.86.27-1.67.7-2.54.97-1.19.36-2.41.57-3.65.62-2.25.09-4.2-.5-6.28-1.11.14-.45.32-.88.52-1.28.33-.64-.42-1.14-.94-.73-1.58,1.25-2.13,4-.73,5.6.35.4,1.11.09,1.07-.44-.03-.53-.12-1.06-.14-1.59,2.04,1.02,4.58,1.3,6.79,1.21,1.52-.06,3.44-.29,5.05-.92-2.38,6.06-5.84,11.63-10.54,16.23-.23-.35-.38-.77-.39-1.26-.03-1.05-1.64-1.06-1.64,0,0,1.98,1.52,4.08,3.67,3.85.74-.08.89-1.02.17-1.29-.25-.1-.49-.21-.72-.34,6.52-5.37,10.66-12.83,13.16-20.81,1,1.71,1.6,3.57,2.07,5.53.68,2.83.76,5.89,1.59,8.66.27.92,1.62.73,1.66-.22.12-3.15-.98-6.66-1.79-9.68Z"/>
          <path class="cls-2" d="M32.19,43c-3.47-1.85-10.61-3.08-12.79,1.39-.42.87.42,1.67,1.28,1.28,1.59-.73,3.04-1.52,4.84-1.63,2.1-.13,4.19.39,6.29.4.74,0,1.07-1.07.39-1.43h0Z"/>
          <path class="cls-2" d="M29.59,63.84c-3.16.78-7.97,3.59-8,7.34,0,.89,1.02,1.17,1.63.67,1.15-.94,1.83-2.36,2.92-3.38,1.16-1.08,2.57-1.89,4.07-2.39,1.42-.47.85-2.61-.62-2.25h0Z"/>
          <path class="cls-2" d="M19.64,74.91c-.07.35-.13.7-.18,1.06-.07.53.15,1.17.73,1.31.65.15,1.14-.3,1.32-.89.09-.29.14-.6.2-.9.12-.55-.16-1.19-.75-1.33-.53-.12-1.21.16-1.33.75h0Z"/>
        </g>
        <path class="cls-5" d="M52.77,62.25c-2.43,4.55-2.2,18.28,4.47,22.13s12.63,1.65,14.44-6.59c1.8-8.24-.52-14.06-3.77-17.1-6.51-6.12-12.71-2.98-15.14,1.57Z"/>
        <path class="cls-2" d="M57.59,60.59c-1.76,1.2-2.96,2.91-3.46,4.99-.49,2.05-.91,5.01.47,6.75.36.46,1.12.26,1.39-.18.92-1.5.36-3.5.59-5.19.25-1.81.93-3.45,2.38-4.61.99-.8-.31-2.48-1.36-1.77h0Z"/>
        <path class="cls-2" d="M56.07,77.72l.05.22.06.14c.04.07.09.13.15.17.1.08.23.14.36.13.11,0,.21-.03.3-.08.07-.04.13-.09.17-.15.05-.06.09-.13.11-.2l.05-.22c.03-.12.03-.23,0-.35-.03-.11-.09-.21-.17-.29-.13-.12-.28-.19-.46-.19-.17,0-.34.07-.46.19-.08.08-.14.18-.17.29-.03.12-.03.23,0,.35h0Z"/>
      </g>
      <rect class="cls-3" width="100" height="100"/>
    </g>
  </g>
</svg>