<?xml version="1.0" encoding="UTF-8"?>
<svg id="Capa_2" data-name="Capa 2" xmlns="http://www.w3.org/2000/svg" viewBox="0 0 100 100">
  <defs>
    <style>
      .cls-1 {
        fill: #fff;
      }

      .cls-2 {
        fill: none;
      }

      .cls-3 {
        fill: #4a2d2d;
      }

      .cls-4 {
        fill: #fe9736;
      }
    </style>
  </defs>
  <g id="COLOR">
    <g>
      <g>
        <path class="cls-4" d="M71.3,33.39c-6.54-12.36-19.85-19.54-43.46-13.25.04.24.12.45.24.6.28.35.91.58,1.37.77.62.26,1.21.52,1.73.95.26.21.23.59.11.86-1.08,2.48-4.59,2.56-6.85,2.15-.47-.09-.56-.64-.41-1,.35-.8.65-1.61.87-2.45.09-.36.15-.72.2-1.08-3.14,1.17-15.8,6.66-19.4,20.35-4.28,16.31,3.22,40.87,33.12,41.03,29.83.16,40.05-34.61,32.46-48.94Z"/>
        <path class="cls-3" d="M32.14,22.42c-.31-.86-1.09-1.25-1.92-1.51-.94-.29-1.39-.14-1.61-1.09-.2-.86.07-1.96-.01-2.85-.09-1.01-.31-1.99-.74-2.9-.89-1.9-2.73-2.87-4.64-3.52-1.59-.55-5.31-1.42-5.27,1.45.01.98.94,1.75,1.96,2.38.98.85,2.07,1.58,3,2.46,1.75,1.65,1.83,3.53.84,5.64-.57,1.21-1.87,3.19.1,3.9,1.4.5,3.73,0,5.11-.38,1.47-.41,3.89-1.61,3.19-3.56ZM29.66,24.07c-.68.36-1.51.51-2.27.63-.78.12-1.63.22-2.43.21-.65-.01-.79.19-.7-.41.1-.64.71-1.39.96-2.01,1.84-4.6-1.62-7.94-5.4-9.94-.27-.14-.55-.29-.7-.55-.64-1.12,1.62-1.03,2.13-.94.93.16,1.91.5,2.75.95,1.77.93,2.85,2.41,3.17,4.39.22,1.36-.32,3.12.25,4.38.6,1.34,2.81,1.46,3.22,2.15.17.29-.31.8-.97,1.15Z"/>
        <path class="cls-3" d="M14.84,34.17l-.05.03c-.23.13-.41.31-.54.54-.14.23-.2.49-.21.76l.05.4c.07.26.2.48.39.66.14.15.3.25.48.31.18.09.37.14.58.13.27,0,.53-.07.76-.21.23-.13.41-.31.54-.54l.03-.05.15-.36c.06-.2.07-.4.03-.59,0-.13-.03-.26-.1-.38-.06-.18-.16-.34-.31-.48l-.3-.23-.36-.15c-.2-.06-.4-.07-.59-.03-.2,0-.38.07-.55.18h0Z"/>
        <path class="cls-3" d="M21.94,35.09c.13,0,.25-.02.37-.08.12-.04.22-.1.31-.2.09-.09.16-.19.2-.31.06-.11.09-.24.08-.37l-.03-.25c-.05-.16-.13-.3-.24-.42l-.19-.15c-.15-.09-.31-.13-.48-.13-.13,0-.25.02-.37.08-.12.04-.22.1-.31.2-.09.09-.16.19-.2.31-.06.11-.09.24-.08.37l.03.25c.05.16.13.3.24.42l.19.15c.15.09.31.13.48.13h0Z"/>
        <path class="cls-3" d="M18.36,42.07c.03.07.05.13.08.21.05.16.14.3.27.42.09.09.19.16.29.22l-.55-.72c.03.11.09.22.14.33l-.11-.27c.09.21.12.33.29.5.14.14.31.23.5.29.11.03.22.04.33.04.26,0,.39-.06.62-.17l-.61.16h.03c.12-.02.23-.03.35-.05.17-.04.32-.12.44-.23.1-.06.18-.14.23-.23.12-.13.19-.27.23-.44,0-.02,0-.03.01-.05.06-.23.06-.47,0-.7-.06-.22-.18-.42-.34-.58-.26-.24-.58-.39-.93-.39-.18,0-.35.03-.51.11-.16.05-.31.14-.43.27-.16.16-.28.36-.34.58-.06.23-.06.47,0,.7h0Z"/>
        <path class="cls-4" d="M95.44,62.65c.16-1.99,0-5.07-.99-5.19-1.83-.23-61.96-1.32-62.37-.49s-4.87,21.68,10.71,30.9c14.83,8.78,30.69,7.37,40.79.49,8.93-6.09,11.25-17.92,11.87-25.71Z"/>
        <path class="cls-1" d="M79.04,85.55c-10.71,5.6-29.66,4.7-37.9-4.12-6.7-7.17-6.59-20.12-6.31-24.7.77-.02,1.69-.04,2.74-.06,5.51-.07,14.5-.02,23.72.09,1.13.01,2.25.03,3.38.04,8.05.1,15.98.24,21.63.37,1.98.05,3.69.09,5.02.13.04,1.01.1,2.14.17,3.36.24,4.29-1.73,19.28-12.44,24.88Z"/>
        <path class="cls-4" d="M61.28,56.76c-2.64,1.71-10.15,6.53-14.38,8.61-5.19,2.55-7.33,1.81-9.06-1.65-1.04-2.08-.71-5.02-.28-7.04,5.51-.07,14.5-.02,23.72.09Z"/>
        <path class="cls-4" d="M61.41,60.92c-2.64-1.81-18.87,7.58-19.69,10.13-.82,2.55,2.97,7.66,5.93,10.13s4.53,2.97,7.58-.25c3.05-3.21,8.82-18.21,6.18-20.02Z"/>
        <path class="cls-4" d="M67.01,62.89s-1.73-1.24-2.88-.08c-1.15,1.15-2.47,15.41-2.14,18.05.33,2.64,1.57,5.11,7.42,4.28,5.85-.82,8.57-4.94,8.65-7.33.08-2.39-6.26-10.88-7.83-12.44-1.57-1.57-3.21-2.47-3.21-2.47Z"/>
        <path class="cls-4" d="M80.28,72.04c-5.22-1.9-12.29-11.62-14.63-14.99,8.05.1,15.98.24,21.63.37.5,1.35.92,3.07.99,5.14.17,5.52-1.65,11.78-7.99,9.48Z"/>
        <path class="cls-3" d="M31.45,56.71c-1.6,5.45-.83,11.86.66,17.26,1.4,5.07,4.19,11.02,9.02,13.68.7.39,1.24-.6.62-1.05-9.14-6.67-10.48-19.3-9.35-29.75.06-.55-.79-.63-.94-.13h0Z"/>
        <path class="cls-1" d="M43.83,61.34c2.6-1.4,5.35-2.4,7.99-3.7.34-.17.1-.67-.25-.59-2.84.66-5.61,2.19-8.08,3.7-.37.23-.04.79.34.58h0Z"/>
        <path class="cls-1" d="M50.34,73.17c2.18-1.91,4.29-3.99,6.15-6.21.26-.32-.15-.75-.46-.46-2.12,2-4.06,4.19-6.22,6.14-.36.32.17.84.53.53h0Z"/>
        <path class="cls-1" d="M54.68,73.81c.34-.64.75-1.23,1.12-1.85.16-.27-.22-.57-.43-.33-.51.54-.9,1.19-1.25,1.85-.2.37.37.71.57.33h0Z"/>
        <path class="cls-1" d="M67.26,77.85c-.41-3.08-.18-6.33-.94-9.35-.08-.33-.62-.27-.61.08.13,3.11.34,6.29.83,9.37.06.4.77.31.72-.1h0Z"/>
        <path class="cls-1" d="M71.11,75.64c-.26-.38-.44-.81-.69-1.19-.19-.28-.7-.2-.68.18.04.55.28,1.02.58,1.47.32.5,1.13.03.8-.46h0Z"/>
        <path class="cls-1" d="M72.34,60.82c3.27.96,6.07,3.16,9.28,4.3.41.14.67-.5.29-.7-2.96-1.55-6.12-3.48-9.35-4.39-.51-.14-.72.64-.22.79h0Z"/>
        <path class="cls-3" d="M31.91,57.23c6.13.28,12.29.16,18.43.27,3.56.06,7.12.12,10.69.19s7.22.38,10.81.23c.92-.04.91-1.35,0-1.43-3.58-.28-7.22-.12-10.81-.19-3.56-.06-7.12-.15-10.69-.21-6.13-.1-12.31-.41-18.43-.07-.77.04-.77,1.16,0,1.2h0Z"/>
      </g>
      <rect class="cls-2" width="100" height="100"/>
    </g>
  </g>
</svg>