<?xml version="1.0" encoding="UTF-8"?>
<svg id="Capa_2" data-name="Capa 2" xmlns="http://www.w3.org/2000/svg" viewBox="0 0 100 100">
  <defs>
    <style>
      .cls-1 {
        fill: #f1854c;
      }

      .cls-2 {
        fill: #fff;
      }

      .cls-3 {
        fill: none;
      }

      .cls-4 {
        fill: #4a2d2d;
      }

      .cls-5 {
        fill: #c0c728;
      }

      .cls-6 {
        fill: #fdcd47;
      }
    </style>
  </defs>
  <g id="COLOR">
    <g>
      <g>
        <g>
          <path class="cls-5" d="M61.99,53.04c-.92-9.3-4.77-18.13-10.06-25.76-4.11-5.93-8.8-11.97-14.82-16.16s-14.94-6.53-20.51-.67c-3.5,3.69-3.93,9.09-3.78,13.92.1,3.2.5,6.56-.15,9.72-.62,3-2.04,5.72-3.26,8.51-4.08,9.38-7.72,22.09-1.13,31.24,3.78,5.25,9.84,7.69,16.09,8.44,3.2.38,6.43.37,9.64.17,6.27-.38,12.99-.29,18.77-3.1,7.73-3.76,9.32-13.95,9.41-21.64.02-1.58-.05-3.13-.2-4.66Z"/>
          <path class="cls-4" d="M19.42,14.3c1.99,1.98,5.42.05,4.83-2.68-.23-1.06-1.83-.79-1.85.25,0,.51-.08,1.05-.56,1.34-.45.28-1.09.19-1.54-.06-.71-.41-1.47.55-.88,1.14h0Z"/>
          <path class="cls-2" d="M16.36,21.18c.83.74,1.98,1.32,3.12,1.08.49-.1.84-.62.84-1.1s-.35-1.03-.84-1.1c-.7-.1-1.34,0-1.98-.35-.9-.49-1.95.73-1.13,1.47h0Z"/>
          <path class="cls-2" d="M17.04,26.28c.27.03.52.04.79.04s.56-.03.8-.18c.28-.18.47-.44.51-.77.09-.64-.41-1.07-.97-1.25-.27-.09-.54-.15-.81-.2-.71-.13-1.4.24-1.5,1-.04.33.03.62.24.89.25.32.55.44.94.47h0Z"/>
          <path class="cls-2" d="M8.97,62.87c.09,2.17.36,4.32,1.45,6.24.87,1.53,2.47,3.25,4.36,3.16,1.02-.04,1.36-1.14.78-1.88-.92-1.16-2.14-1.83-2.88-3.19-.78-1.43-1.16-3.05-1.45-4.64-.23-1.28-2.31-.98-2.26.31h0Z"/>
        </g>
        <g>
          <path class="cls-6" d="M78.07,23.2s-3.85-3.44-8.18-1.15c-4.34,2.29-8.75,12.84-12.76,18.33-4.01,5.48-16.28,15.05-18.24,26.26-1.96,11.21.49,21.6,9.98,24.87,9.49,3.27,11.86-.98,16.69.57s10.23,6.22,17.51,3.03c7.28-3.19,12.84-11.62,11.54-28.8-1.31-17.18-7.04-28.06-9.9-34.03-2.86-5.97-6.63-9.08-6.63-9.08Z"/>
          <path class="cls-1" d="M71.12,28.44c.99,1.17,2.03,2.88,1.29,5.99-2.48,10.47-12.13,18.02-13.4,28.86-.57,4.91-.08,12.35,3.85,14.73,3.93,2.37,5.97,1.88,9.57-1.23,4.13-3.57,6.37-10.49,6.91-15.76.44-4.24-.04-8.58-1.4-12.62-1.31-3.91-3.56-7.42-3.96-11.63-.25-2.54.74-8.67,3.19-8.34,2.45.33,5.24,5.73,6.79,11.21,1.55,5.48,5.89,19.88,6.46,25.77.57,5.89.49,16.12-4.01,20.94-4.5,4.83-8.92,5.32-12.03,4.5-3.11-.82-8.59-4.01-10.88-3.6s-5.97,2.45-12.35-.08c-6.38-2.54-9.08-9.98-7.85-17.51,1.23-7.53,7.28-16.03,8.43-17.43,1.15-1.39,6.95-7.69,9.49-11.62s4.09-7.44,5.24-9.74,3.17-4.22,4.66-2.45Z"/>
          <g>
            <path class="cls-4" d="M75.8,50.36c.7-.6,1.05-1.44.76-2.35-.4-1.28-1.55-2.24-2.95-2.06-1.68.22-2.6,2.15-1.91,3.64.76,1.65,2.78,1.91,4.1.77Z"/>
            <path class="cls-4" d="M68.65,53.35c1.68-.06,2.72-1.55,2.39-3.14-.54-2.6-4.5-1.93-4.75.49-.15,1.41.9,2.7,2.36,2.65Z"/>
            <path class="cls-4" d="M72.13,55.6c1.02.86,2.65.95,3.46-.24.7-1.03.38-2.73-.82-3.24-.96-.41-2.46-.13-3.06.78-.55.83-.33,2.07.42,2.7Z"/>
            <path class="cls-4" d="M68.52,58.09c1.22.2,2.54-.93,2.43-2.18-.02-.26-.12-.5-.27-.7-.01-.04-.04-.09-.07-.13-.78-.99-2.52-.96-3.22.09-.71,1.06-.19,2.7,1.12,2.92Z"/>
            <path class="cls-4" d="M76.39,57.95c-.9-.72-2.59-1.11-3.46-.17-.76.83-.56,2.31.19,3.08.89.91,2.39,1.27,3.43.39,1.09-.92.92-2.45-.15-3.3Z"/>
            <path class="cls-4" d="M68.76,63.99c.67.17,1.34.21,1.89-.28.58-.52.87-1.3.81-2.07-.16-2.18-3.56-3.79-4.51-1.21-.53,1.45.33,3.18,1.81,3.55Z"/>
            <path class="cls-4" d="M63.66,60.63c.57.33,1.27.28,1.95-.44.82-.87,1.02-2.69,0-3.47-.99-.76-2.47-.57-3.01.61-.51,1.13.09,2.74,1.06,3.29Z"/>
            <path class="cls-4" d="M67.28,64.68c-.75-.01-1.47.32-1.8,1.09-.54,1.28.05,3.19,1.54,3.5,1.4.29,2.54-1.21,2.6-2.48.05-1.25-1.18-2.09-2.34-2.11Z"/>
            <path class="cls-4" d="M62.53,65.68c1.37.42,3.18-1.85,1.91-3.22-.76-.82-2.07-.65-2.64.29-.4.67-.44,1.68,0,2.34.21.31.46.5.73.58Z"/>
            <path class="cls-4" d="M73.42,62.4c-.65.15-1.54,1.06-1.6,1.84-.16,1.07.64,2.11,1.73,2.32,1.19.23,2.82-.52,2.77-1.9-.05-1.26-1.64-2.55-2.9-2.26Z"/>
            <path class="cls-4" d="M72.64,67.57c-.32-.09-.64-.09-.94.01-.53.18-.83.62-.89,1.15-.06.53.35.95.75,1.24.75.54,2.31.78,2.55-.43.18-.89-.6-1.74-1.47-1.97Z"/>
            <path class="cls-4" d="M71.12,71.37c-1.41.07-1.29,2.69.04,2.85.8.1,1.28-.63,1.28-1.36,0-.76-.5-1.54-1.33-1.5Z"/>
            <path class="cls-4" d="M64.75,69.52c.05-.83-.33-1.75-1.23-1.9-.78-.13-1.58.39-1.82,1.13-.32.96-.07,2.33,1.08,2.56,1.09.21,1.91-.77,1.97-1.78Z"/>
            <path class="cls-4" d="M65.13,71.45c-.22.24-.42.52-.6.82-.52.85-.65,1.88-.23,2.8.63,1.36,2.32,1.99,3.58,1.07,1.34-.97,1.59-3.13.56-4.39-.47-.57-1.24-.96-2-.93-.56.02-.97.27-1.31.63Z"/>
          </g>
          <path class="cls-4" d="M60.6,33.98c-2.44,4.42-5.49,8.23-9.09,11.76-3.48,3.42-7.23,6.34-9.84,10.55-2.39,3.84-3.91,8.19-4.51,12.66-.57,4.26-.52,9.23,1.18,13.25.31.72,1.3.17,1.18-.5-.41-2.36-1-4.62-1.12-7.03s.04-4.76.47-7.1c.83-4.47,2.6-8.76,5.27-12.45,5.27-7.3,13.99-12.02,17.41-20.75.22-.56-.68-.92-.96-.4h0Z"/>
          <path class="cls-2" d="M47.25,70.21l.04.03c.16.09.33.14.51.14.18,0,.35-.05.51-.14l.04-.03c.13-.07.23-.16.31-.28.07-.07.12-.15.14-.24.07-.13.1-.27.09-.42l-.04-.29-.11-.26c-.07-.13-.16-.23-.28-.31-.07-.07-.15-.12-.24-.14-.13-.07-.27-.1-.42-.09l-.29.04-.26.11c-.13.07-.23.16-.31.28-.07.07-.12.15-.14.24-.07.13-.1.27-.09.42l.04.29.11.26c.1.17.23.3.4.4h0Z"/>
          <path class="cls-2" d="M47.64,74.87c1.54,0,1.54-2.39,0-2.39s-1.54,2.39,0,2.39h0Z"/>
          <path class="cls-2" d="M81.34,44.3c1.35,0,1.36-2.1,0-2.1s-1.36,2.1,0,2.1h0Z"/>
          <path class="cls-2" d="M83.47,50.22c1.19,0,1.19-1.84,0-1.84s-1.19,1.84,0,1.84h0Z"/>
          <path class="cls-2" d="M80.63,84.05l.05.05c.08.09.19.16.3.19.11.06.23.09.36.08l.25-.03c.16-.04.3-.12.41-.24l.05-.05.16-.21.1-.24c.04-.13.05-.27.02-.4,0-.09-.02-.18-.07-.26-.02-.09-.07-.16-.13-.22-.05-.08-.11-.14-.18-.18-.06-.06-.14-.11-.22-.13-.12-.06-.25-.09-.39-.09l-.27.04-.24.1-.21.16-.16.21-.1.24c-.04.13-.05.27-.02.4,0,.09.02.18.07.26.04.13.11.23.21.33h0Z"/>
        </g>
      </g>
      <rect class="cls-3" width="100" height="100"/>
    </g>
  </g>
</svg>