<?xml version="1.0" encoding="UTF-8"?>
<svg id="Capa_2" data-name="Capa 2" xmlns="http://www.w3.org/2000/svg" viewBox="0 0 100 100">
  <defs>
    <style>
      .cls-1 {
        fill: #6e5757;
      }

      .cls-2 {
        fill: #fff;
      }

      .cls-3 {
        fill: none;
      }

      .cls-4 {
        fill: #4a2d2d;
      }

      .cls-5 {
        fill: #754680;
      }

      .cls-6 {
        fill: #feac5e;
      }
    </style>
  </defs>
  <g id="COLOR">
    <g>
      <g>
        <path class="cls-5" d="M64.28,48.33c-1.19-15.78-12.01-20.81-18-23.31-3.06-1.28-6.44-1.79-9.8-1.65.02.15.03.29.05.43.06.75.06,1.51.06,2.26,0,.64-.01,1.35-.32,1.93-.16.31-.43.56-.76.68-.38.14-.71.04-1.09-.03-.4-.07-.59-.54-.51-.89.11-.49.22-.97.23-1.48,0-.41-.03-.83-.09-1.23-.07-.45-.18-.93-.26-1.4-5.25.78-10.18,3.17-13.35,6.78-5.71,6.5-10.94,18.39-8.8,32.11,2.14,13.72,17.76,21.88,31.71,19.58,13.95-2.3,22.12-18,20.93-33.78Z"/>
        <path class="cls-4" d="M31.91,23.17c.04.06.08.11.12.17.7,1.03,1.16,1.92,1.14,3.15-.01.68-.06.91-.2,1.15-.41-.19-.8-.43-1.16-.67-.63-.43-1.4.56-.82,1.06,1.5,1.3,3.56,2.1,5.51,1.32,1.41-.57,2.91-2.19,2.2-3.77-.19-.42-.8-.34-1.01,0-.11.19-.21.37-.31.56.31-2.32,0-4.69-.68-6.92-.16-.52-.35-1.04-.56-1.54-1.15-2.76-3.07-5.88-6.5-5.44-2.77.35-4.21,2.9-2.49,5.22,1.51,2.04,3.53,3.69,4.75,5.72ZM30.26,13.93c.96-.04,1.74.34,2.42.99,1.12,1.08,1.88,2.73,2.4,4.16,1.11,3.06.78,5.7.56,8.84,0,.02,0,.03,0,.04,0,0,0,0-.01,0-.37.12-.74.15-1.11.12,1.07-1.67.44-3.81-.47-5.47-.62-1.13-1.42-2.19-2.25-3.18-.53-.62-1.09-1.23-1.69-1.78-.49-.45-1.21-.84-1.57-1.41-.85-1.37.49-2.26,1.73-2.32Z"/>
        <g>
          <path class="cls-5" d="M45.1,73.62s6.42,13.24,19.42,14.75c13,1.51,21.72-3.25,26.01-15.94,4.28-12.69,1.11-22.28-4.04-27.59-5.15-5.31-14.43-7.93-22.6-6.1-8.17,1.82-16.89,15.86-18.87,20.61-1.98,4.76-2.06,11.1.08,14.27Z"/>
          <path class="cls-2" d="M52.63,80.36c9.59,3.96,19.03,3.49,27.12-3.73s9.91-17.2,9.2-23.39c-.64-5.56-5.71-10.61-8.86-12.78-1.51-.68-3.12-1.22-4.79-1.61-3.7-.86-7.67-.95-11.41-.12-8.17,1.82-16.89,15.86-18.87,20.61-1.68,4.03-1.99,9.2-.74,12.61,1.36,3.12,3.84,6.53,8.35,8.4Z"/>
          <g>
            <path class="cls-4" d="M87.71,48.12c-1.46-2.86-3.63-5.35-6.49-7.13-.51-.31-1.03-.61-1.56-.88-1.22-.63-2.5-1.15-3.81-1.53-2.4-.69-4.98-1.15-7.48-1.06-7.75.28-14.24,5.77-18.6,11.76-2.34,3.21-3.87,6.62-5.48,10.19-1.56,3.46-1.9,7.47-.9,11.15,2.08,7.67,9.89,12.63,17.49,13.45,1.96.21,3.98.15,5.93-.12,7.03-.98,13.36-5.11,17.58-10.74,4.93-6.58,7.22-15.64,4.07-23.48-.22-.54-.46-1.08-.73-1.6ZM87.15,64.24c-2.04,6.39-6.31,11.69-12.13,15.03-5.42,3.11-12.01,4.08-18.02,2.23-6.13-1.89-12.25-6.78-12.79-13.6-.32-4.06,1.07-7.98,2.9-11.54,2.24-4.34,5.09-8.29,8.6-11.69,2.2-2.14,4.67-4.02,7.64-4.92,2.61-.79,5.4-.93,8.11-.67,7.84.74,15.19,5.99,16.81,14.03.1.48.17.96.21,1.44.32,3.24-.35,6.61-1.34,9.69Z"/>
            <path class="cls-6" d="M69.49,77.14c7.81-1.97,12.43-10.12,13.77-17.55.71-3.92.52-8.35-1.98-11.63-1.28-1.68-3.02-2.98-4.93-3.85-4.93-2.26-10.83-1.73-15.5.84-2.38,1.31-4.53,3.06-6.31,5.11-4.51,5.21-9.83,14.27-5.44,20.97,4.12,6.27,13.52,7.85,20.38,6.11Z"/>
            <path class="cls-1" d="M68.04,50.97c1.42-.62,2.08-2.43,1.42-3.82-.62-1.28-1.83-2.53-3.4-1.97-1.62.58-2.43,2.67-1.78,4.22.61,1.46,2.29,2.22,3.76,1.57Z"/>
            <path class="cls-1" d="M73.66,52.53c1.73.22,3.29-1.66,3.62-3.2.16-.72-.01-1.45-.56-1.95-.93-.87-1.86-1.58-3.19-1.16-1.13.36-2.08,1.38-2.26,2.57-.26,1.72.46,3.5,2.39,3.74Z"/>
            <path class="cls-1" d="M73.69,58.54c.56,1.89,2.75,3.66,4.73,2.65,1.2-.61,1.94-1.83,2.24-3.11.3-1.23.46-2.76-.49-3.75-.44-.46-1.13-1-1.73-1.21-.69-.25-1.46-.24-2.15,0-2.15.75-3.23,3.31-2.6,5.42Z"/>
            <path class="cls-1" d="M67.37,60.21c1.68.73,4.01-.05,4.69-1.77.33-.86.41-1.91.2-2.81-.44-1.89-3.15-2.24-4.53-1.15-1.22.96-2.16,2.89-1.61,4.43.21.6.67,1.05,1.24,1.3Z"/>
            <path class="cls-1" d="M58.6,56.97c1.93.71,5.09-.07,6.08-1.97.59-1.13.38-2.43-.38-3.42-.38-.49-.87-.89-1.41-1.19-.91-.49-2.46-.5-3.45-.25-1.11.28-2.07.99-2.61,2.01-.94,1.79-.15,4.12,1.78,4.83Z"/>
            <path class="cls-1" d="M54.07,63.88c1.87-.35,3.26-2.31,3.15-4.18-.06-1.02-.81-1.97-1.65-2.49-3.66-2.27-6.63,3.95-3.72,6.23.63.5,1.45.59,2.23.45Z"/>
            <path class="cls-1" d="M67.35,63.49c.09-.99-.31-1.96-1.18-2.48-.71-.42-1.55-.42-2.35-.39s-1.57,0-2.27.36c-1.01.52-1.6,1.77-1.87,2.83-.22.88-.33,1.94.3,2.67.7.81,2.09.98,3.09.89,2.01-.18,4.09-1.78,4.28-3.89Z"/>
            <path class="cls-1" d="M74.2,63.21c-.4-.09-.81-.14-1.2-.12-1.16.05-2.07,1.1-2.37,2.15-.56,1.95.25,4.08,2.32,4.6,1.99.5,4.09-.69,4.36-2.79.13-1-.27-2.01-.98-2.72-.55-.55-1.32-.94-2.13-1.13Z"/>
            <path class="cls-1" d="M67.11,69.05c-.66.03-1.3.21-1.79.54-.97.67-1.49,1.95-1.5,3.1-.01,2.02,2.47,2.31,4,2.16,1.59-.15,3.01-1.92,2.69-3.54-.15-.77-.73-1.42-1.38-1.81-.55-.33-1.29-.48-2.02-.45Z"/>
            <path class="cls-1" d="M58.44,67.45c-1.61-1.54-4.03-2.28-5.51-.49-1.44,1.75-.51,3.9.89,5.33,1.4,1.42,3.93,1.59,5.43.2,1.49-1.39.71-3.57-.82-5.03Z"/>
          </g>
          <path class="cls-2" d="M59.76,54.1c1.41,0,1.41-2.19,0-2.19s-1.41,2.19,0,2.19h0Z"/>
          <path class="cls-2" d="M66.58,48.93c1.08,0,1.08-1.68,0-1.68s-1.08,1.68,0,1.68h0Z"/>
          <path class="cls-2" d="M74.51,51.06c.97,0,.97-1.51,0-1.51s-.97,1.51,0,1.51h0Z"/>
          <path class="cls-2" d="M76.89,57.65c1.49,0,1.49-2.32,0-2.32s-1.49,2.32,0,2.32h0Z"/>
          <path class="cls-2" d="M69.44,57.33c1.07,0,1.07-1.66,0-1.66s-1.07,1.66,0,1.66h0Z"/>
          <path class="cls-2" d="M64.04,64.81c1.11,0,1.12-1.73,0-1.73s-1.12,1.73,0,1.73h0Z"/>
          <path class="cls-2" d="M52.39,59.51v.1c.11,1.52,2.28,1.53,2.38,0v-.1c.11-1.53-2.48-1.54-2.38,0h0Z"/>
          <path class="cls-2" d="M54.85,70.08c.15,0,.28-.02.41-.09.13-.04.25-.12.34-.22.1-.1.18-.21.22-.34.07-.13.1-.26.09-.41l-.04-.28c-.05-.18-.14-.34-.27-.47l-.21-.17c-.17-.1-.34-.14-.54-.14-.15,0-.28.02-.41.09-.13.04-.25.12-.34.22-.1.1-.18.21-.22.34-.07.13-.1.26-.09.41l.04.28c.05.18.14.34.27.47l.21.17c.17.1.34.14.54.14h0Z"/>
          <path class="cls-2" d="M67.22,73.11c1.18,0,1.18-1.83,0-1.83s-1.18,1.83,0,1.83h0Z"/>
          <path class="cls-2" d="M73.72,67.49c1.3,0,1.3-2.02,0-2.02s-1.3,2.02,0,2.02h0Z"/>
        </g>
        <path class="cls-2" d="M26.63,31.24c-2.46,1.67-4.47,3.75-5.95,6.34-1.28,2.24-2.92,5.56-2.06,8.18.28.86,1.38.99,1.87.25,1.35-2.02,1.56-4.78,2.7-6.95,1.2-2.3,2.8-4.4,4.67-6.21.81-.79-.26-2.26-1.23-1.6h0Z"/>
        <path class="cls-2" d="M17.38,50.03s.09.4.07.19c.01.13,0,.25,0,.37,0,.26-.02.54.04.8.08.36.53.62.88.5,1-.34,1.14-1.5.99-2.39-.09-.53-.77-.87-1.25-.71s-.89.71-.71,1.25h0Z"/>
      </g>
      <rect class="cls-3" width="100" height="100"/>
    </g>
  </g>
</svg>