<?xml version="1.0" encoding="UTF-8"?>
<svg id="Capa_2" data-name="Capa 2" xmlns="http://www.w3.org/2000/svg" viewBox="0 0 100 100">
  <defs>
    <style>
      .cls-1 {
        fill: #72ab4c;
      }

      .cls-2 {
        fill: #fff;
      }

      .cls-3 {
        fill: #ffd0a5;
      }

      .cls-4 {
        fill: none;
      }

      .cls-5 {
        fill: #4a2d2d;
      }

      .cls-6 {
        fill: #fe9736;
      }

      .cls-7 {
        fill: #a46a50;
      }
    </style>
  </defs>
  <g id="COLOR">
    <g>
      <g>
        <path class="cls-6" d="M59.69,41.55c-2.25-5.2-6.32-9.46-11.82-11.81-5.69-2.43-12.18-2.69-17.88-.39-1.13.46-1.9.94-2.06.9-1.13-.25-2.32-.34-3.57-.25-4.25.3-8.47,2.82-11.65,5.5-3.59,3.02-6.27,6.75-7.51,11.3-1.18,4.31-1.16,9-.52,13.4,1.46,9.99,9.79,15.79,18.33,19.77,4.18,1.95,8.71,3.4,13.33,3.73,5.19.37,10.21-.88,14.27-4.19,4.1-3.34,6.76-8.14,8.47-13.07.28-.8.53-1.6.76-2.41,1.29-4.53,2.09-9.3,1.83-14.02-.16-2.98-.84-5.85-1.98-8.47Z"/>
        <path class="cls-6" d="M78.67,48.13s7.25,1.67,8.84,1.99,6.21,2.79,8.28,7.97,3.9,17.76-11.23,28.76c-15.13,10.99-35.21,3.27-40.7-11.95-5.5-15.21,2.95-27.16,8.36-31.86,5.42-4.7,13.38-5.74,16.81-4.46,3.43,1.27,5.89,3.9,6.77,6.05s2.87,3.5,2.87,3.5Z"/>
        <path class="cls-3" d="M42.16,63.17c0,1.89.24,3.77.62,5.62.18.88.37,1.77.71,2.61.3.77.72,1.5,1.16,2.19.91,1.43,1.96,2.79,2.94,4.18.95,1.35,2.05,2.6,3.25,3.74,2.44,2.32,5.35,4.19,8.51,5.35,3.14,1.16,6.41,1.51,9.74,1.15,6.59-.7,12.86-3.81,17.65-8.34,2.29-2.16,4.23-4.67,5.56-7.54.66-1.42,1.15-2.92,1.48-4.45.38-1.77.62-3.63.52-5.44-.1-1.9-.84-3.56-1.73-5.21-.83-1.55-1.81-3.02-2.98-4.34-.95-1.07-2.02-2-3.18-2.82-2.9-.83-5.66-1.23-7.48-2.02-1.04-.45-2.2-1.67-3.07-3.83s-3.4-4.19-6.82-5.46c-3.43-1.27-11.39-.24-16.81,4.46-3.88,3.37-9.32,10.47-10.07,19.83,0,.1,0,.21,0,.31Z"/>
        <path class="cls-1" d="M41.42,7.36c-.07-.21-.31-.4-.54-.31-4.31,1.69-9.24,2.94-12.56,6.36-2.71,2.79-4.17,6.36-4.29,10.19,0,0-.02,0-.03,0-.43.08-.34.67.02.77,0,.03,0,.06,0,.09,0,.31.47.31.48,0,0-.02,0-.04,0-.06,4.4.11,9.68-1.24,13.11-3.98,3.93-3.14,5.42-8.31,3.8-13.06Z"/>
        <g>
          <path class="cls-5" d="M25.22,23.19c1.72-2.05,3.16-4.21,5.1-6.09,1.81-1.75,3.84-3.19,5.82-4.74.27-.22-.08-.64-.37-.47-2.16,1.27-4.14,2.99-5.92,4.75-1.85,1.82-3.86,3.89-5.24,6.09-.23.36.32.8.6.46Z"/>
          <path class="cls-5" d="M37.12,36.38c-2.46-3.27-5.6-5.51-9.35-6.21.01-.1,0-.22-.04-.35-1.09-2.87-2.75-5.49-5.01-7.59-1.97-1.84-4.98-4.12-7.81-4.04-.7.02-.83.85-.33,1.23,2.13,1.61,4.77,2.32,6.86,4.09,2.08,1.76,3.69,3.96,4.77,6.46-1.92-.13-3.99.14-6.18.87-.73.24-.76.63-.16.43,2.92-.96,6.91-.74,9.8.36,3.11,1.19,5.26,3.92,7.02,6.65,1.85,2.86,3.11,6.11,3.42,9.52.16,1.74.13,3.55,0,5.29-.13,1.8-.66,3.52-.83,5.3-.04.44.62.49.74.1,2.5-7.51,1.94-15.67-2.91-22.12Z"/>
        </g>
        <path class="cls-7" d="M77.48,51.86c-.15-.14-.31-.27-.48-.4-3.26-2.48-7.54-1.91-11.05-.33-4.8,2.15-8.25,6.95-9.43,12-.62,2.67-.75,5.72.94,8.04,1.58,2.16,3.75,2.31,6.24,2.26,5.16-.11,10.27-2.08,13.43-6.32,3.05-4.09,4.61-11.42.36-15.25Z"/>
        <path class="cls-5" d="M73.43,53.39c.15,0,.3-.04.43-.11.14-.05.26-.13.35-.24.11-.11.18-.23.22-.37.07-.14.09-.28.08-.44l-.05-.3c-.06-.19-.16-.35-.31-.49l-.23-.17c-.18-.1-.37-.14-.57-.13-.15,0-.3.04-.43.11-.14.05-.26.13-.35.24-.11.11-.18.23-.22.37-.07.14-.09.28-.08.44l.05.3c.06.19.16.35.31.49l.23.17c.18.1.37.14.57.13h0Z"/>
        <path class="cls-5" d="M72.13,56.16c.6-.02.57-.95-.03-.93s-.57.95.03.93h0Z"/>
        <path class="cls-5" d="M75.78,58.24c.14,0,.26-.03.38-.1.12-.04.23-.12.31-.22.09-.09.16-.2.19-.33.06-.12.08-.25.07-.39l-.04-.26c-.05-.17-.14-.31-.27-.43l-.21-.15c-.16-.08-.33-.12-.51-.12-.14,0-.26.03-.38.1-.12.04-.23.12-.31.22-.09.09-.16.2-.19.33-.06.12-.08.25-.07.39l.04.26c.05.17.14.31.27.43l.21.15c.16.08.33.12.51.12h0Z"/>
        <path class="cls-5" d="M74.83,61.59h-.02c-.16-.04-.33-.04-.49.01-.15.05-.29.13-.4.25-.11.12-.18.26-.22.41-.04.16-.03.33.02.49v.02c.05.16.14.29.26.4.12.11.26.19.42.22.17.04.33.03.49-.02.16-.05.29-.13.4-.25.11-.12.19-.26.22-.42.04-.17.03-.33-.02-.49-.05-.16-.13-.29-.25-.4-.12-.11-.26-.19-.42-.22h0Z"/>
        <path class="cls-5" d="M71.88,60.01c.15,0,.28-.03.4-.1.13-.05.24-.12.33-.23.1-.1.17-.21.21-.35.06-.13.09-.26.08-.41l-.05-.28c-.06-.18-.15-.33-.29-.46l-.22-.16c-.17-.09-.35-.13-.54-.13-.15,0-.28.03-.4.1-.13.05-.24.12-.33.23-.1.1-.17.21-.21.35-.06.13-.09.26-.08.41l.05.28c.06.18.15.33.29.46l.22.16c.17.09.35.13.54.13h0Z"/>
        <path class="cls-5" d="M68.48,54.53c.12,0,.23-.03.33-.08.1-.04.19-.1.27-.19.08-.08.14-.17.17-.28.05-.1.07-.21.06-.33l-.04-.23c-.05-.14-.12-.27-.23-.37l-.18-.13c-.14-.07-.28-.11-.44-.1-.12,0-.23.03-.33.08-.1.04-.19.1-.27.19-.08.08-.14.17-.17.28-.05.1-.07.21-.06.33l.04.23c.05.14.12.27.23.37l.18.13c.14.07.28.11.44.1h0Z"/>
        <path class="cls-5" d="M64.34,55.31v.07c-.02.07-.02.14-.03.21,0,.11.03.21.08.3.02.07.06.12.11.17.06.08.14.15.23.2l.19.07.21.02c.11,0,.21-.03.3-.08.1-.04.18-.09.25-.17l.05-.05c.1-.11.16-.23.2-.37.03-.15.03-.29-.01-.43l-.09-.19c-.08-.12-.18-.21-.3-.28-.1-.06-.2-.09-.31-.09-.11-.02-.22-.01-.32.03-.14.04-.25.12-.35.22-.1.11-.16.23-.2.37h0Z"/>
        <path class="cls-5" d="M66.82,59.26l-.04.02-.22.1c-.11.06-.19.15-.26.25-.06.06-.09.13-.11.21-.05.11-.08.24-.07.36l.04.25.1.22c.06.11.15.19.25.26.09.08.2.13.32.16l.04.02c.17.04.34.03.51-.02.16-.05.3-.14.41-.26l.14-.2c.08-.15.12-.31.11-.49,0-.13-.03-.25-.09-.37-.04-.12-.11-.22-.21-.3-.12-.11-.27-.19-.43-.23-.17-.04-.34-.03-.51.02h0Z"/>
        <path class="cls-5" d="M70.62,64.01c.78-.03.74-1.24-.04-1.21s-.74,1.24.04,1.21h0Z"/>
        <path class="cls-5" d="M71.37,66.29c-.11.09-.22.17-.32.26-.07.07-.11.15-.14.23-.04.09-.06.18-.05.28.01.18.08.39.23.5.11.08.23.16.34.24.14.07.29.11.45.1.16,0,.3-.05.44-.13.26-.16.42-.46.41-.77s-.19-.59-.46-.74c-.14-.07-.29-.11-.45-.1-.16,0-.3.05-.44.13h0Z"/>
        <path class="cls-5" d="M65.56,66.76v.09c0,.24.1.48.28.64.08.08.17.13.28.16.1.05.21.07.33.06l.22-.04c.14-.04.26-.12.36-.23.17-.17.25-.42.24-.66v-.09c0-.12-.03-.23-.09-.33-.04-.1-.1-.19-.19-.27-.08-.08-.17-.14-.28-.17-.1-.05-.21-.07-.33-.06l-.23.04c-.14.05-.27.12-.37.23l-.13.18c-.07.14-.11.28-.1.43h0Z"/>
        <path class="cls-5" d="M62.96,70.39l.12.02-.4-.21s.06.06.11.08c.03.02.07.05.1.07.14.08.3.11.46.11.16,0,.31-.05.45-.14.27-.17.43-.48.42-.8s-.19-.62-.48-.77c-.14-.08-.3-.11-.46-.11-.16,0-.31.05-.45.14-.03.03-.06.05-.1.08-.04.02-.07.05-.1.09l.38-.24-.12.03-.2.09c-.1.06-.18.13-.23.23-.05.06-.09.12-.1.19-.05.1-.07.21-.06.33l.04.23.09.2c.06.1.13.18.23.23.09.07.18.12.3.14h0Z"/>
        <path class="cls-5" d="M59.89,67.32c.88-.03.84-1.41-.05-1.38s-.84,1.41.05,1.38h0Z"/>
        <path class="cls-5" d="M63.7,64.63c.14,0,.26-.03.38-.1.12-.04.23-.12.31-.22.09-.09.16-.2.19-.33.06-.12.08-.25.07-.39l-.04-.26c-.05-.17-.14-.31-.27-.43l-.21-.15c-.16-.08-.33-.12-.51-.12-.14,0-.26.03-.38.1-.12.04-.23.12-.31.22-.09.09-.16.2-.19.33-.06.12-.08.25-.07.39l.04.26c.05.17.14.31.27.43l.21.15c.16.08.33.12.51.12h0Z"/>
        <path class="cls-5" d="M61.6,58.73c-.15.08-.25.2-.34.34l.24-.26s-.04.02-.06.03c-.42.25-.4.91.04,1.13.02,0,.04.02.06.03l-.26-.24c.09.13.21.25.36.32.12.07.26.1.4.09.14,0,.27-.05.39-.12.23-.15.37-.41.36-.69s-.17-.53-.41-.66c-.12-.07-.26-.1-.4-.09-.14,0-.27.05-.39.12h0Z"/>
        <path class="cls-5" d="M60.56,63.44c.63-.02.6-1.01-.03-.98s-.6,1.01.03.98h0Z"/>
        <path class="cls-5" d="M55.44,41.93c.71-.46,1.44-.88,2.18-1.26.86-.45,1.74-.86,2.64-1.25.04-.02.08-.04.12-.05.32-.38.06-1.05-.55-.91-7.9,1.85-13.95,8.46-16.36,16.03-1.4,4.41-1.98,9.36-1.61,13.97.36,4.45,1.57,10.12,4.56,13.59.48.55,1.46-.03,1.23-.72-.77-2.26-2.07-4.29-2.79-6.59-.64-2.04-1.05-4.15-1.21-6.28-.33-4.32.12-8.85,1.32-13.02,1.68-5.82,5.52-10.41,10.46-13.52Z"/>
        <path class="cls-2" d="M15.22,38.63c.58.24,1.16.5,1.8.49.39,0,.8-.21.99-.57.1-.19.15-.35.16-.58,0-.39-.22-.79-.57-.99-.64-.35-1.38-.39-2.09-.46-.53-.05-.99.45-1.05.93-.08.57.27.97.77,1.18h0Z"/>
        <path class="cls-2" d="M13.83,41.77c.35.11.72.22,1.1.22.42,0,.85-.3.95-.72.1-.44-.07-.87-.45-1.11-.31-.2-.69-.29-1.04-.39-.52-.14-1.15.18-1.28.72s.17,1.1.72,1.28h0Z"/>
      </g>
      <rect class="cls-4" width="100" height="100"/>
    </g>
  </g>
</svg>