<?xml version="1.0" encoding="UTF-8"?>
<svg id="Capa_2" data-name="Capa 2" xmlns="http://www.w3.org/2000/svg" viewBox="0 0 100 100">
  <defs>
    <style>
      .cls-1 {
        fill: #72ab4c;
      }

      .cls-2 {
        fill: none;
      }

      .cls-3 {
        fill: #4a2d2d;
      }

      .cls-4 {
        fill: #c0c728;
      }
    </style>
  </defs>
  <g id="COLOR">
    <g>
      <g>
        <path class="cls-1" d="M50.01,20.16s3.33-8.6,10.07-11.15,14.02-1.47,16.19-1.47,2.79-.39,2.87.54-3.02,10.84-13.79,13.94c-10.77,3.1-15.34-1.86-15.34-1.86Z"/>
        <path class="cls-3" d="M52.22,82.78c-.39-.65-1.27-.08-.99.58.17.4,2.05,5.23.18,4.29-.39-.19-.79-1.67-.92-2.06-.26-.77-.42-1.56-.54-2.37-.1-.67-1.16-.49-1.16.16,0,.95-.05,1.89-.2,2.83-.07.47-.09,1.41-.38,1.76-.69.84-.58-.91-.61-1.42-.07-1.06,0-2.1.16-3.15.09-.56-.73-1.05-1.01-.43-.41.94-.85,1.86-1.38,2.74-.32.52-1.47,2.72-2.08,2.75-1.04.04,1.91-5.4,2.3-5.98.32-.47-.43-.89-.75-.44-1.1,1.53-1.88,3.21-2.43,5-.22.7-.73,2.07.21,2.54,1,.5,2.04-.99,2.54-1.59.46-.55.86-1.14,1.23-1.75-.03,1.84.25,3.74,1.59,3.73,1.01-.01,1.5-1.28,1.74-2.73.59,1.57,1.47,2.89,2.71,2.38,2.17-.89.58-5.51-.23-6.85Z"/>
        <path class="cls-4" d="M69.07,50.52c-3.49-4.65-5.38-15.99-8.21-20.91-2.36-4.1-6.69-5.63-11.04-5.6.05,1.14.05,2.29-.1,3.43-.13,1.03-.61,2.87-2.06,2.29-.26-.11-.52-.33-.5-.65.12-1.61.32-3.26.11-4.87-4.03.57-7.74,2.34-9.51,4.48-4.03,4.88-1.55,13.25-4.96,18.98-3.41,5.73-13.32,13.48-12.78,24.17.54,10.69,8.75,16.19,17.12,14.8,8.37-1.39,11.54-2.48,17.97-.23,6.43,2.25,14.41,3.49,21.38-6.66,6.97-10.15-3.95-24.56-7.44-29.2Z"/>
        <path class="cls-3" d="M42.35,31.71c.05-.09.07-.18.06-.29,0-.07-.02-.13-.03-.2-.04-.13-.1-.23-.19-.33-.05-.04-.1-.08-.15-.12-.12-.07-.24-.1-.37-.1-.1,0-.2.02-.28.06-.09.03-.17.08-.24.15-.07.07-.12.15-.15.24-.05.09-.07.18-.06.28,0,.07.02.13.03.2.04.13.1.23.19.33l.15.12c.12.07.24.1.37.1.1,0,.2-.02.28-.06.09-.03.17-.08.24-.15.07-.07.12-.15.15-.24Z"/>
        <path class="cls-3" d="M39.6,34.14s-.09-.07-.13-.1c-.1-.06-.21-.09-.33-.09-.06,0-.12.02-.18.02-.11.03-.21.09-.29.17-.03.02-.06.05-.09.07-.07.06-.11.13-.14.22-.04.08-.06.17-.06.26,0,.09.02.18.06.26.03.08.07.16.14.22.05.04.09.07.14.11.11.06.22.09.34.09.06,0,.12-.02.18-.02.11-.03.21-.09.3-.17.02-.03.05-.06.07-.09.06-.06.11-.13.14-.21.04-.08.06-.16.06-.25,0-.09-.02-.18-.06-.25-.03-.08-.07-.15-.14-.21Z"/>
        <path class="cls-3" d="M43.68,35.45c-.06-.05-.13-.1-.19-.15-.15-.09-.31-.13-.48-.13-.13,0-.25.02-.37.08-.12.04-.22.1-.31.2-.09.09-.16.19-.2.31-.06.11-.09.24-.08.37.01.08.02.17.03.25.05.16.13.3.25.42.06.05.13.1.19.15.15.09.31.13.48.13.13,0,.25-.02.37-.08.12-.04.22-.1.31-.2.09-.09.16-.19.2-.31.06-.11.09-.24.08-.37-.01-.08-.02-.17-.03-.25-.05-.16-.13-.3-.25-.42Z"/>
        <path class="cls-3" d="M28.8,74.35c-.03-.07-.06-.13-.08-.2-.05-.1-.12-.17-.21-.23-.05-.05-.11-.09-.18-.11-.1-.05-.2-.07-.32-.07-.07,0-.15.02-.22.03-.07.03-.13.05-.2.08-.1.05-.17.12-.23.21-.07.08-.12.17-.15.28,0,.03,0,.05-.01.08-.04.15-.04.3,0,.44.04.14.11.26.21.37.06.04.11.09.17.13.13.08.27.11.42.11.11,0,.22-.02.32-.07.1-.03.19-.09.27-.17.1-.1.17-.23.21-.37.04-.15.04-.3,0-.44,0-.03,0-.05-.01-.08Z"/>
        <path class="cls-3" d="M34.41,79.2c-.05-.06-.09-.12-.14-.18-.06-.07-.14-.12-.22-.16-.14-.08-.3-.12-.46-.13-.17,0-.32.04-.46.13-.28.16-.45.47-.45.79s.18.63.45.79c.14.08.3.12.46.13.17,0,.32-.04.46-.13.08-.05.15-.1.22-.16.06-.06.11-.12.15-.19.03-.07.06-.14.09-.21.03-.07.04-.15.03-.23,0-.15-.04-.32-.12-.44,0,0,0,0,0,0Z"/>
        <path class="cls-3" d="M66.82,80.08c1.31,0,1.31-2.03,0-2.03s-1.31,2.03,0,2.03Z"/>
        <path class="cls-3" d="M71.38,74.57c.02.08.06.16.1.23.01.02.02.05.03.07.08.13.18.24.32.32.14.08.29.12.45.12.16,0,.31-.04.45-.12.16-.12.24-.17.35-.35.02-.04.03-.07.06-.13.02-.04.04-.09.05-.14.04-.17.04-.33,0-.5-.03-.12-.08-.23-.17-.32-.05-.08-.13-.15-.21-.2-.06-.05-.13-.09-.2-.11-.11-.06-.22-.08-.35-.08-.08.01-.16.02-.24.03-.1.03-.18.07-.26.13-.06.03-.11.07-.16.12-.1.1-.16.21-.2.34,0,0,0,.02,0,.03-.03.08-.04.17-.04.26,0,.02,0,.03,0,.05.01.08.02.17.03.25Z"/>
        <path class="cls-3" d="M68.14,73.6c.19.04.38.03.55-.07.15-.09.28-.25.33-.43.03-.13.03-.25,0-.38-.03-.12-.1-.23-.18-.31-.02-.02-.04-.05-.06-.08-.06-.06-.13-.11-.2-.15-.2-.12-.46-.12-.66,0-.1.06-.18.14-.23.23-.06.1-.09.21-.09.33-.01.12.02.24.05.36.06.23.26.44.5.5Z"/>
        <path class="cls-3" d="M76.27,8.91c-1.2.41-2.25,1.21-3.45,1.69-1.04.42-2.13.72-3.22,1.01-.61.16-1.23.31-1.85.45.32-.54.64-1.07,1-1.58.61-.86,1.36-1.59,2-2.42.2-.26-.07-.75-.39-.5-1.5,1.15-2.69,2.97-3.48,4.71-1.51.35-3.02.72-4.49,1.23-1.89.66-3.76,1.48-5.58,2.43.88-2.18,2.14-4.01,3.51-5.95.25-.35-.28-.71-.57-.44-1.97,1.82-3.21,4.43-4,6.95-1.65.92-3.23,1.95-4.71,3.07-.13-.91-.29-1.81-.49-2.64-.59-2.46-2.13-6.27-5.16-6.39-3.26-.13-2.83,3.46-1.96,5.49.88,2.05,1.91,3.98,2.56,6.13.64,2.11.68,4.13.86,6.28-.39-.15-.78-.34-1.12-.6-.57-.43-1.21.48-.74.96,1.02,1.08,2.4,1.65,3.9,1.45,1.36-.18,2.91-1.09,3.28-2.48.13-.49-.47-1.08-.94-.72-.13.1-.25.2-.37.3.48-2.11.53-4.45.31-6.69.8-.62,1.62-1.21,2.45-1.76.03.03.03.07.08.1,3.55,1.81,8.03,3.01,12.03,2.34.36-.06.25-.59-.08-.61-4.05-.26-7.69-.62-11.48-2.19,2.17-1.39,4.45-2.52,6.87-3.42,0,0,0,0,.01,0,3.5,1.32,7.59,2.33,11.36,1.93.4-.04.41-.6,0-.63-3.5-.26-6.86-.68-10.21-1.71.8-.27,1.61-.52,2.44-.73,2.29-.59,4.64-.94,6.91-1.62,1.79-.53,4.06-1.22,5.22-2.78.24-.32-.16-.79-.51-.67ZM48.82,28.6c-.22.05-.44.06-.65.06.49-2.41-.11-5.24-.82-7.53-.39-1.26-.91-2.48-1.46-3.68-.65-1.39-1.66-2.83-1.39-4.4.49-2.9,3.39,1.07,3.82,2.23.51,1.38.76,2.89.92,4.35.17,1.52.28,3.07.19,4.59-.08,1.47-.43,2.9-.58,4.36,0,0-.02,0-.03,0Z"/>
      </g>
      <rect class="cls-2" width="100" height="100"/>
    </g>
  </g>
</svg>