<?xml version="1.0" encoding="UTF-8"?>
<svg id="Capa_2" data-name="Capa 2" xmlns="http://www.w3.org/2000/svg" viewBox="0 0 100 100">
  <defs>
    <style>
      .cls-1 {
        fill: #d9b229;
      }

      .cls-2 {
        fill: none;
      }

      .cls-3 {
        fill: #4a2d2d;
      }

      .cls-4 {
        fill: #569a28;
      }

      .cls-5 {
        fill: #438f10;
      }
    </style>
  </defs>
  <g id="COLOR">
    <g>
      <g>
        <path class="cls-5" d="M44.82,20.77s-3.32-7.89-5.65-11.55-3.24-6.56-1.66-6.48,6.71,2.69,9.55,7.14c2.49,3.9,2.82,6.4,2.82,6.4,0,0,2.82-8.14,8.97-11.46,6.15-3.32,7.89-3.07,7.64-2.24s-4.82,4.24-7.06,10.13c-1.68,4.43-2.57,8.72-2.57,8.72,0,0-2.99,4.9-5.65,4.57-2.66-.33-6.4-5.23-6.4-5.23Z"/>
        <path class="cls-4" d="M46.32,31.48s-2.91-7.48-8.39-10.71c-5.48-3.24-9.8-3.65-9.39-4.32s3.74-3.16,11.46-.33,9.88,7.97,9.88,7.97c0,0,3.32-5.98,10.3-8.31,6.98-2.33,10.8-.83,10.55-.17s-7.31,3.41-10.47,7.23l-3.16,3.82-1.16,4.57s-5.9,2.91-7.64,2.57-1.99-2.33-1.99-2.33Z"/>
        <path class="cls-5" d="M42.42,37.46s-3.32-4.15-8.97-5.32c-5.65-1.16-8.47-.25-8.39-.83s3.24-5.65,11.13-5.56c7.89.08,13.54,5.9,13.54,5.9,0,0,4.24-5.73,11.71-6.23,7.48-.5,13.21,4.65,13.21,5.32s-7.81,0-10.88,2.57-3.99,4.57-3.99,4.57l-17.36-.42Z"/>
        <path class="cls-1" d="M31.12,39.95c-7.23,6.15-9.22,21.84-9.22,32.97s5.07,20.6,14.45,23.01c9.39,2.41,25.67,2.49,34.39-1.66,8.72-4.15,9.8-19.02,6.56-35.3-3.24-16.28-9.55-22.43-19.35-23.26-9.8-.83-19.6-1.91-26.83,4.24Z"/>
        <path class="cls-3" d="M75.03,65.99c-1.5,4.09-3.51,7.98-5.94,11.59-1.79-1.37-3.57-2.75-5.27-4.23-1.28-1.11-2.52-2.25-3.76-3.4,2.84-3.34,5.51-6.82,8-10.43,1.97,1.75,4.01,3.39,6.13,4.84.57.39,1.15-.45.71-.92-1.81-1.94-3.78-3.72-5.78-5.48,1.2-1.79,2.35-3.61,3.46-5.47.41-.69-.64-1.3-1.07-.63-1.11,1.74-2.27,3.46-3.46,5.15-2.22-1.95-4.45-3.89-6.52-5.99-.49-.5-.98-1.01-1.45-1.51.3-.44.6-.88.89-1.32s.59-.89.87-1.33.57-.89.86-1.35.56-.9.84-1.36.55-.91.82-1.37.54-.92.8-1.38c.08-.15.17-.3.25-.44.04-.08.09-.15.13-.23.11-.23-.17-.55-.39-.65-.19-.09-.69-.16-.96.27-.04.07-.08.13-.12.2-.1.17-.2.33-.3.5s-.86,1.39-1.14,1.85-.57.91-.86,1.36-.58.9-.87,1.35-.59.89-.89,1.34-.6.89-.9,1.33c-.02.03-.05.07-.07.1.03-.04-1.05-1.19-1.15-1.3-.39-.45-.77-.9-1.15-1.36-.75-.91-1.48-1.84-2.18-2.8-.65-.88-1.27-1.77-1.87-2.67-.3-.45-1.17-2.7-2.6-2.75-.77-.03-2.05,2.31-2.55,3.08-.68,1.03-1.38,2.05-2.13,3.04-1.25,1.65-2.58,3.23-3.97,4.76-2.06-2.99-4.16-5.97-5.85-9.2-.47-.9-1.59-.37-1.2.54,1.54,3.62,3.85,6.62,6.01,9.79-.48.51-.96,1.02-1.45,1.51-2.07,2.1-4.3,4.04-6.52,5.99-1.19-1.69-2.34-3.41-3.46-5.15-.43-.67-1.48-.06-1.07.63,1.11,1.85,2.26,3.67,3.46,5.47-2,1.76-3.96,3.55-5.78,5.48-.43.46.14,1.31.71.92,2.13-1.45,4.17-3.1,6.14-4.84,2.49,3.61,5.16,7.09,8,10.43-1.16,1.08-2.33,2.16-3.53,3.2-1.78,1.55-3.64,3-5.51,4.43,0,0-1.73-2.73-1.87-2.99-1.24-2.12-2.33-4.32-3.27-6.59-.19-.46-.37-.92-.55-1.38-.12-.32-.22-1.03-.73-.78-.63.31-.35,1.16-.2,1.67.21.75.51,1.48.81,2.2.5,1.16,1.03,2.31,1.6,3.43.46.92.95,1.82,1.46,2.72.13.22,1.59,2.6,1.59,2.6-.74.57-1.48,1.13-2.22,1.71-.3.23-.59.47-.88.7s-.58.4-.81.68c-.22.26-.37.63-.29.98.08.34.47.71.84.59.42-.14.84-.5,1.21-.74.7-.46,3.18-2.3,3.25-2.3.92,1.32,1.91,2.6,2.95,3.84,1.2,1.42,2.48,2.82,3.84,4.17-1.14.94-2.28,1.89-3.42,2.84-.63.53.18,1.53.86,1.12,1.36-.8,2.74-1.75,4.04-2.67,2.47,2.28,8.78,7.37,10.59,7.37s8.29-5.01,10.76-7.29c1.3.92,2.63,1.79,3.99,2.59.68.4,1.5-.59.86-1.12-1.14-.96-2.28-1.9-3.42-2.84,1.36-1.35,2.64-2.75,3.84-4.17,1.04-1.24,2.03-2.52,2.95-3.84,1.72,1.31,3.49,2.54,5.34,3.59.54.31,1.03-.19,1.06-.73,0-.1,0-.21-.05-.3-.09-.18-.3-.3-.46-.43-.2-.16-.4-.33-.6-.49-.4-.32-.81-.65-1.22-.96-.82-.64-1.64-1.27-2.46-1.9-.04-.03-.52-.39-.52-.4,2.46-3.79,4.45-7.87,5.98-12.14.27-.76-.93-1.08-1.21-.33ZM59.2,50.78c.34.37.68.74,1.03,1.1,2.15,2.24,4.39,4.51,6.74,6.66-2.55,3.54-5.25,6.98-8.12,10.27-2.02-1.93-3.98-3.92-5.88-5.96-.57-.61-1.12-1.23-1.68-1.85,2.79-3.28,5.44-6.68,7.91-10.21ZM57.71,70.1c-.96,1.08-1.94,2.14-2.93,3.19-1.47,1.54-2.99,3.02-4.54,4.45-1.55-1.43-3.06-2.91-4.54-4.45-1-1.04-1.97-2.11-2.93-3.19,2.11-2.04,4.14-4.15,6.1-6.34.46-.51.92-1.03,1.37-1.55.45.52.91,1.04,1.37,1.55,1.96,2.18,3.99,4.29,6.1,6.33ZM50.24,39.19c2.28,3.75,4.98,7.21,7.92,10.47-2.47,3.51-5.1,6.9-7.92,10.15-2.82-3.25-5.45-6.64-7.92-10.15,2.94-3.26,5.64-6.72,7.92-10.47ZM33.51,58.54c2.34-2.15,4.58-4.42,6.74-6.66.35-.36.69-.73,1.03-1.1,2.47,3.53,5.12,6.94,7.91,10.21-.55.62-1.11,1.24-1.68,1.85-1.9,2.05-3.87,4.03-5.88,5.96-2.87-3.29-5.57-6.72-8.12-10.27ZM39.4,87.02c-1.27-1.18-2.5-2.42-3.66-3.76-1.14-1.32-2.23-2.68-3.25-4.1,1.86-1.48,3.66-3.04,5.42-4.57,1.24-1.08,2.46-2.19,3.65-3.32.89,1.02,1.79,2.03,2.71,3.02,1.47,1.59,2.99,3.18,4.56,4.75-3.06,2.75-6.24,5.37-9.42,7.99ZM50.24,95.32c-3.23-2.19-6.36-4.4-9.27-6.9,3.26-2.42,6.34-5.15,9.27-7.99,2.93,2.85,6.01,5.57,9.27,7.99-2.91,2.5-6.04,4.71-9.27,6.9ZM64.74,83.26c-1.16,1.34-2.39,2.58-3.66,3.76-3.19-2.62-6.36-5.23-9.42-7.99,1.56-1.57,3.08-3.16,4.56-4.75.92-.99,1.82-2,2.71-3.02,1.2,1.13,2.41,2.24,3.65,3.32,1.76,1.53,3.55,3.09,5.41,4.57-1.02,1.41-2.1,2.78-3.25,4.1Z"/>
        <g>
          <path class="cls-3" d="M68.06,25.94c-3.06-1.36-6.78-1.6-9.93-.68-3.28.96-6.22,2.79-8.58,5.24-3.78-4.46-10.02-5.79-15.66-4.93-.71.11-1.02.57-.31.53,5.61-.29,11.24,1.79,15.57,5.42,0,0,0,0,0,0,.17.28.56.42.86.12,2.36-2.41,5.53-4.08,8.79-4.98,3.4-.93,4.55-.81,9.09-.22.72.09.85-.19.16-.5Z"/>
          <path class="cls-3" d="M38.38,15.75c3.82,2.01,8.05,4.05,10.44,7.83.25.4.94.6,1.28.17,1.75-2.19,3.75-4.02,6.23-5.34,2.55-1.35,4.47-2.56,7.68-3.34.86-.21,1.06-.36.22-.44-2.74-.23-5.98,1.18-8.34,2.44-2.32,1.23-4.47,2.85-6.27,4.77-2.57-3.59-5.98-4.87-10.49-6.31-.67-.21-1.37-.11-.75.22Z"/>
        </g>
      </g>
      <rect class="cls-2" width="100" height="100"/>
    </g>
  </g>
</svg>