<?xml version="1.0" encoding="UTF-8"?>
<svg id="Capa_2" data-name="Capa 2" xmlns="http://www.w3.org/2000/svg" viewBox="0 0 100 100">
  <defs>
    <style>
      .cls-1 {
        fill: #72ab4c;
      }

      .cls-2 {
        fill: #fff;
      }

      .cls-3 {
        fill: none;
      }

      .cls-4 {
        fill: #4a2d2d;
      }

      .cls-5 {
        fill: #754680;
      }

      .cls-6 {
        fill: #fec48c;
      }

      .cls-7 {
        fill: #945031;
      }
    </style>
  </defs>
  <g id="COLOR">
    <g>
      <g>
        <path class="cls-1" d="M24.52,23.27s1.17-13.56,11.71-14.34c10.54-.78,19.02,6.34,18.83,7.12s-5.66,10.15-14.54,11.61-16-4.39-16-4.39Z"/>
        <path class="cls-4" d="M47.43,15.09c-3.89-.95-8.66-.16-12.39,1.13-3.82,1.32-7.63,3.61-10.27,6.71-.75-1.01-1.57-1.97-2.44-2.88-1.23-1.27-2.89-2.95-4.83-2.77-1.41.13-2.33,1.28-1.8,2.66.43,1.11,1.57,2,2.35,2.83.95,1.01,1.9,2,2.85,3.01,1.89,2.01,3.44,4.21,4.6,6.72,1.19,2.57,1.62,5.28,2.08,8.05.12.7,1.18.5,1.2-.16.11-3.67-1.21-7.52-3.01-10.68-1.23-2.17-2.93-4.01-4.69-5.76-.67-.66-1.36-1.3-2.03-1.96-.63-.61-1.33-1.24-1.83-1.96-.26-.37-.38-.97,0-1.31.24-.21.59-.22.91-.16.72.15,1.33.62,1.89,1.08.64.54,1.21,1.15,1.78,1.76,1.43,1.55,2.69,3.25,3.76,5.06,1.07,1.82,1.94,3.75,2.61,5.75.69,2.08,1.64,4.62,1.26,6.81-.08.45.6.65.69.19.94-4.35-1.2-9.43-3.3-13.16-.47-.84-1-1.65-1.56-2.45,3.08-2.88,6.3-5.14,10.31-6.57,3.97-1.41,7.66-1.35,11.79-1.21.42.01.51-.64.1-.74Z"/>
        <path class="cls-4" d="M81.59,49.39c.59-.81,1.14-1.66,1.75-2.45.26-.33.54-.67.87-.9.19-.14.39-.23.6-.29.31.05.36,0,.15-.16.02.7-.86,1.81-1.27,2.26-.59.66-1.32.97-1.96,1.53-.51.44-.2,1.36.43,1.27,1.16-.17,2.29-1.3,3.02-2.28.66-.88,1.83-2.62,1.09-3.75-.66-1-2.02-.59-2.83,0-1.25.9-2.09,2.49-2.92,3.82-.52.83.48,1.75,1.06.95h0Z"/>
        <path class="cls-5" d="M29.36,37.59c1.07-.77,4.83-6.75,14.57-4.45s11.81,16.71,11.73,21.31.31,24.15-15.41,27.83c-15.72,3.68-29.29-10.19-31.13-22.62s3.51-18.51,8.74-20.78c6.36-2.76,10.43-.54,11.5-1.3Z"/>
        <path class="cls-5" d="M43.35,70.88s.41,9.53,4.87,14.78c5.21,6.13,15.33,9.22,25.96,5.32,10.63-3.9,16.1-14.73,16.78-20.59s.82-11.81-2.46-15.84c-3.08-3.78-45.15,16.33-45.15,16.33Z"/>
        <path class="cls-6" d="M79.84,47.37s-3.32-4.29-8.68-4.39c-5.37-.1-14.63,3.32-18.73,8.2-4.1,4.88-8.98,11.51-8.59,20.49.39,8.98,8.59,14.24,15.61,15.02,7.02.78,13.56.29,21.66-7.41,4.87-4.63,8.54-11.28,8.84-18.11.16-3.64-.98-8.76-4.84-10.19-2.18-.8-4.59-2.73-5.27-3.61Z"/>
        <path class="cls-7" d="M60.2,74.76c4.55.36,8.34-1.82,11.4-5.08,1.64-1.75,3.04-3.92,3.63-6.26.6-2.34.83-5.11-.23-7.36-.32-.69-1.98-.87-2.66-.98-.96-.17-1.94-.22-2.91-.16-1.97.1-3.9.63-5.68,1.47-3.54,1.67-6.58,4.63-7.94,8.34-.25.7-.45,1.41-.57,2.14-.66,3.84.7,7.56,4.96,7.9Z"/>
        <path class="cls-4" d="M61.82,62.31c1.89-1.71,3.9-2.94,6.46-3.31.61-.09.35-1.01-.25-.92-2.62.37-5.2,1.61-6.79,3.78-.26.36.29.72.59.45Z"/>
        <path class="cls-4" d="M59.28,70.58c.87-4.19,5.25-6.84,8.76-8.65.35-.18.11-.78-.27-.64-3.86,1.38-8.44,4.83-9.27,9.08-.1.51.67.73.78.21Z"/>
        <path class="cls-4" d="M57.99,67.99c.18-.62.44-1.21.75-1.78.29-.53.7-1,.99-1.53.18-.32-.19-.75-.52-.52-1.16.78-1.75,2.29-1.98,3.61-.09.49.62.71.76.21Z"/>
        <path class="cls-4" d="M66.98,66.87c-1.59,1.4-3.42,2.49-5.37,3.31-.47.2-.13,1.02.35.83,3.74-1.46,8-4.33,9.56-8.2.15-.38-.43-.7-.69-.4-1.31,1.5-2.35,3.13-3.86,4.46Z"/>
        <path class="cls-4" d="M71.07,59.23s.02,0,.03,0c0,0,.01,0,.02,0,.08.03.17.04.25.07.42.12.82-.37.58-.76-.13-.21-.32-.36-.56-.41-.21-.05-.42-.05-.63,0-.29.08-.49.41-.4.7.09.29.39.48.7.4Z"/>
        <path class="cls-2" d="M19.83,42.54c-2.91.91-5.1,2.86-6.28,5.68-1.11,2.64-1.9,7.47.26,9.76.57.6,1.48.24,1.73-.46.4-1.12.13-2.2.07-3.36-.07-1.42.05-2.84.46-4.21.65-2.16,2.24-4.35,4.38-5.19,1.35-.53.84-2.68-.61-2.22h0Z"/>
        <path class="cls-2" d="M15.87,63.25l.18.06c.26.08.55,0,.74-.19s.27-.48.19-.74l-.06-.18c-.04-.15-.11-.27-.22-.38-.11-.11-.23-.18-.38-.22-.29-.08-.62,0-.83.22s-.3.54-.22.83c.04.15.11.27.22.38.11.11.23.18.38.22h0Z"/>
        <path class="cls-4" d="M54.89,47.77c-2.74,1.37-4.72,3.74-6.52,6.16-1.92,2.59-3.56,5.44-4.66,8.48s-1.58,6.14-1.54,9.28c.04,2.96.5,6.52,2.19,9.03.33.5,1.22.2,1.02-.43-.98-3.03-1.91-5.65-1.95-8.9-.04-2.85.39-5.71,1.3-8.41,1.84-5.48,5.78-11.21,10.64-14.41.51-.33.07-1.09-.48-.81h0Z"/>
        <path class="cls-2" d="M66.99,47.17l.23.1c.1.04.21.1.3.13.17.05.36.04.53,0,.54-.16.8-.78.52-1.27-.08-.14-.21-.28-.35-.36-.09-.05-.2-.09-.3-.12l-.23-.08c-.12-.04-.24-.04-.35-.02-.12,0-.23.04-.33.1-.16.11-.29.24-.36.42s-.1.39-.04.58c.07.21.2.44.41.53h0Z"/>
        <path class="cls-2" d="M64.62,48.94h.16s.05,0,.07,0c.17,0,.29-.04.44-.12l.16-.12c.08-.07.13-.16.16-.25.04-.06.05-.13.05-.2.02-.1.02-.21-.01-.31-.03-.18-.16-.31-.27-.45l-.11-.14c-.12-.12-.25-.2-.41-.24-.17-.04-.33-.04-.5,0-.16.04-.29.12-.41.24-.09.08-.15.18-.19.3-.06.11-.09.23-.08.36,0,.17.04.32.13.47.17.29.47.46.8.46h0Z"/>
        <path class="cls-2" d="M71.42,80.7l.29.06c.11.03.22.03.33,0,.1-.03.19-.08.27-.16.08-.08.13-.17.16-.27.03-.11.03-.22,0-.33l-.06-.29c-.04-.14-.11-.25-.21-.35-.1-.1-.22-.17-.35-.21-.28-.08-.58,0-.78.21s-.28.51-.21.78c.04.14.11.25.21.35.1.1.22.17.35.21h0Z"/>
      </g>
      <rect class="cls-3" width="100" height="100"/>
    </g>
  </g>
</svg>