<?xml version="1.0" encoding="UTF-8"?>
<svg id="Capa_2" data-name="Capa 2" xmlns="http://www.w3.org/2000/svg" viewBox="0 0 100 100">
  <defs>
    <style>
      .cls-1 {
        fill: #ffdab7;
      }

      .cls-2 {
        fill: #fff;
      }

      .cls-3 {
        fill: none;
      }

      .cls-4 {
        fill: #ef2b45;
      }

      .cls-5 {
        fill: #4a2d2d;
      }
    </style>
  </defs>
  <g id="COLOR">
    <g>
      <g>
        <path class="cls-4" d="M63.5,44.04c-1.3-3.65-4.25-12.05-7.24-13.7-2.99-1.65-14.01-2.76-15.59-4.49-1.57-1.73-1.65-4.88.63-6.93,2.28-2.05,4.96-1.57,4.96-1.57,0,0-.55-2.76-3.39-2.68-2.83.08-5.35,3.23-5.35,3.23,0,0,.63-3.94,1.57-5.43s1.57-1.89,1.26-1.97-3.07.63-4.8,3.7-1.81,4.41-1.81,4.41c0,0,0-3.86-2.13-5.67-2.13-1.81-3.7-2.05-3.86-1.81s1.65,2.13,2.05,4.33.24,2.76.24,2.76c0,0-1.34-3.15-3.78-3.07s-4.33,1.81-3.94,2.2,3.23-.55,4.96,1.89,1.89,6.53,1.73,6.93-14.41,4.17-16.38,6.77-7.09,12.36-7.09,18.11,3.15,15.51,6.53,18.34,13.3,7.95,23.54,7.56c10.23-.39,15.04-2.13,20.71-5.98s9.11-21.48,7.16-26.92Z"/>
        <path class="cls-4" d="M70.19,36.09s1.42.31,3.31,1.57,1.81,2.52,1.81,2.52c0,0,.47-2.68,2.6-3.86s3.15-.63,3.15-.63c0,0-1.5,1.42-1.97,2.44s-.55,1.42-.55,1.42c0,0,2.99-.87,4.96.08s2.13,1.57,2.13,1.57c0,0-3.78.16-4.72,1.73s-1.1,1.97-.63,2.68,9.29,6.93,12.52,10.47,5.27,11.49,1.73,19.76c-3.54,8.27-10.63,18.66-25.04,19.29s-28.34-13.15-29.92-18.19c-1.57-5.04-2.13-10.94.16-16.22,2.28-5.27,6.69-12.99,13.3-16.22s15.75-.94,17.4-1.65c1.65-.71.39-6.3-.24-6.77Z"/>
        <path class="cls-1" d="M91.05,61.78c-.13-.31-.26-.61-.41-.91-.89-1.84-2.15-3.47-3.52-4.97-.69-.75-1.42-1.47-2.15-2.18-.69-.66-1.37-1.28-2.17-1.82-.72-.48-1.49-.95-2.1-1.54-1.06-1.02-1.94-2.27-2.47-3.65-.74-1.89-.27-3.7.38-5.46-1.39.85-2.58,2.36-3.4,3.8-.25.43-.9.23-.91-.25-.02-1.09-.21-2.1-.45-3.12-.24,1.23-.86,2.35-1.89,3.14-1.44,1.12-3.33,1.12-5.07,1.15-2.55.05-5.04.12-7.48.91-2.44.79-4.7,2.05-6.69,3.66-3.49,2.83-5.97,6.66-7.74,10.76-1.99,4.6-3.43,9.81-.78,14.46,2.13,3.74,5.95,6.61,9.38,9.09,4.17,3.03,9.03,4.62,14.2,4.65,4.55.03,10.02-.95,13.88-3.48,3.61-2.36,6.11-6.18,8.25-9.83,1.38-2.36,2.45-4.69,2.5-7.47.04-2.3-.48-4.82-1.35-6.96ZM77.63,52.92c.46-.86,1.27-1.28,2.23-1.15.89.12,1.56.65,2.33,1.05.69.36,1.5.61,2.01,1.23.34.41.51.93.56,1.46.09,1.1-.34,2.26-1.05,3.09-1.27,1.5-3.95,3.67-5.87,2.01-1.99-1.72-1.29-5.67-.21-7.69ZM78.22,61.76c1.56.73,2.51,2.46,3.05,4.03.25.71.36,1.46.33,2.22-.06,1.51-.7,2.98-1.85,3.98-2.18,1.89-4.21.5-5.64-1.58-1.49-2.16-2.94-6.23-.36-8.11,1.29-.95,3-1.21,4.47-.53ZM68.17,56.59c.05-.6.1-1.2.16-1.8.11-1.21.27-2.43.59-3.61.3-1.08.58-2.49,1.68-3.04,2.2-1.1,4.58.91,5.23,2.94.71,2.23.38,6.39-2.09,7.45-1.03.44-2.25.56-3.34.33-.7-.14-1.48-.4-1.96-.95-.34-.38-.31-.85-.27-1.33ZM60.73,63c.4.97.45,2.25.48,3.28.04,1.4-.2,2.96-1.41,3.84-1.4,1.02-3.75,1.25-4.86-.3-1.12-1.56-1.29-4.7-.4-6.36.69-1.29,2.18-1.73,3.56-1.67.96.05,2.21.19,2.63,1.2ZM59.04,57.1c.51-1.01,1.73-1.4,2.76-1.57,1.86-.32,4.34-.58,5.15,1.59.35.93.17,2-.75,2.52-1.47.83-4.31,1.93-6.03,1.44-.76-.22-1.09-.77-1.2-1.5-.12-.77-.32-1.75.06-2.47ZM59.51,71.2c1.08-1.24,3.32-1.99,4.64-.67.53.53.45,1.13.3,1.81-.33,1.48-1.16,3.07-2.8,3.32-1.49.23-2.82-1.02-2.84-2.49-.01-.72.24-1.42.71-1.97ZM63.46,68.24c-1.4-1.32-2.07-4.65-.63-6.13.91-.94,2.25-1.29,3.51-1.44.67-.08,1.36-.11,2.03-.11.76,0,1.68-.28,2.37.17.48.32.64.84.8,1.36.2.64.26,1.32.19,1.98-.15,1.31-.84,2.54-1.9,3.33-1.71,1.28-4.52,2.59-6.37.85ZM58.12,48.58c.91-1.11,2.46-1.33,3.8-1.31,1.37.02,2.72.24,4.05.56.65.16,1.22.36,1.55.99.28.53.31,1.18.23,1.76-.14,1.11-.67,2.51-1.68,3.11-1.74,1.04-5.23,1.59-7.03.4-1.63-1.07-2.18-3.98-.92-5.52ZM49.49,55.88c.21-2.22,1.89-4.91,4.45-4.39,1.5.31,2.36,1.83,2.81,3.17.51,1.53.86,3.44-.04,4.89-.72,1.16-2.02,1.8-3.37,1.75-2.39-.08-4.06-3.32-3.85-5.42ZM45.54,70.28c-2.49-1.17-1.28-4.05-.37-6.01.53-1.14,1.44-2.32,2.54-2.96.76-.44,1.64-.47,2.48-.29.64.14,1.27.31,1.74.8.41.44.66.99.91,1.53.35.77.51,1.59.48,2.43-.04,1.24-.39,2.49-1.04,3.54-1.58,2.53-4.35,2.07-6.73.95ZM50.23,79.92c-1.97-1.38-3.76-4.49-1.85-6.55.88-.96,1.86-2.13,3.17-2.45,1.24-.3,2.75.12,3.88.63,1.22.56,1.81,1.7,2.07,2.97.24,1.17.18,2.53-.48,3.55-1.29,2.01-4.73,3.29-6.79,1.84ZM67.4,82.95c-.39,1.16-1.06,2.46-2.27,2.9-1.34.48-3.1.21-4.45-.13-1.71-.43-6.01-2.02-5.12-4.38.53-1.4,1.56-2.46,2.91-3.07,1.57-.71,3.11-.9,4.73-.58.32.06.64.15.97.25.31.1.6.22.89.36.57.29,1.11.66,1.54,1.14.89.96,1.22,2.25.8,3.5ZM64.85,74.49c.05-.75.2-1.5.56-2.16,1.13-2.09,3.74-2.15,5.76-1.54,1.17.35,2.28.92,3.25,1.67.78.6,1.85,1.37,1.98,2.44.03.22.01.44-.04.66-.16.75-.71,1.42-1.25,1.9-1.7,1.5-4.3,1.88-6.46,1.4-2.14-.48-3.94-2.02-3.8-4.37ZM76.83,84.52c-.68,2.52-3.78,2.43-5.88,2.38-1.01-.02-2.1.04-2.74-.87-.58-.81-.4-1.97-.21-2.87.3-1.4,1.37-2.31,2.65-2.83,1.01-.41,2.37-.96,3.48-.76.12.02.23.05.34.08.86.27,1.57.97,1.97,1.76.47.93.66,2.09.38,3.11ZM86.2,78.53c-.09.57-.35,1.11-.68,1.58-.67.96-1.64,1.74-2.67,2.29-1.07.57-2.4,1.05-3.63.8-1.14-.23-1.57-1.05-2.02-2.05-1.14-2.49-.46-4.65,1.62-6.38,1.08-.9,2.52-.92,3.81-.49,1.01.33,2.09.92,2.81,1.75.59.68.93,1.52.77,2.51ZM89.29,71.48c-.75,1.62-2.39,3.56-4.4,2.94-1.55-.48-2.78-2.95-2.39-4.48.2-.78.71-1.39,1.46-1.68.76-.29,1.8-.32,2.62-.29.03,0,.07,0,.1,0,.88.04,1.78.29,2.35,1,.57.72.65,1.67.27,2.5ZM89.42,65.56c-1.15,1.51-4.46,1.56-6.11,1.07-1.94-.57-2.25-2.37-1.15-3.96.39-.39.67-.86,1.08-1.24.4-.37.84-.69,1.31-.96.87-.5,1.91-.96,2.93-.81.76.11,1.09.74,1.45,1.34.29.49.55,1,.73,1.53.34.99.43,2.14-.24,3.02Z"/>
        <path class="cls-2" d="M61.1,52.17c.07-.05.13-.1.2-.15.04-.02.08-.05.11-.09.12-.12.21-.27.25-.44,0-.01.01-.03.02-.05.04-.12.04-.25.02-.37,0-.12-.04-.24-.11-.35l-.15-.19c-.12-.12-.25-.2-.41-.24-.02,0-.03-.01-.05-.02l-.26-.04c-.09.01-.19.02-.28.04-.04.01-.08.03-.11.04-.17.05-.32.13-.45.26l-.16.2c-.09.16-.14.33-.14.51,0,.14.02.27.09.39.04.13.11.23.21.33.09.1.2.17.33.21.12.06.25.09.39.09.18,0,.35-.05.51-.14h0Z"/>
        <path class="cls-2" d="M72.94,52.54s.07-.07.1-.1c.16-.16.23-.3.3-.52,0-.02.01-.04.02-.06.05-.19.05-.38,0-.57-.05-.18-.14-.34-.27-.47-.13-.13-.29-.22-.47-.27-.19-.05-.38-.05-.57,0-.02,0-.04.01-.06.02-.22.07-.35.14-.52.3-.04.03-.07.07-.1.1-.11.1-.18.22-.23.36-.07.13-.1.27-.1.43,0,.15.03.29.1.43.04.14.12.26.23.36l.22.17c.17.1.36.15.56.15l.29-.04c.19-.05.35-.15.49-.29h0Z"/>
        <path class="cls-2" d="M52.32,56.78c.13-.01.27-.02.4-.06.23-.06.37-.18.54-.32.26-.21.42-.53.42-.87,0-.26-.09-.51-.27-.7s-.42-.28-.67-.27c-.2,0-.4.04-.57.14-.05.03-.1.06-.15.08l.25-.1c-.15.06-.29.12-.43.18l.24-.1h-.03c-.13.04-.25.1-.35.19-.11.07-.2.17-.26.29-.11.21-.15.42-.12.65.03.21.12.43.28.58.19.17.45.32.72.3h0Z"/>
        <path class="cls-2" d="M61.65,59.43c1.21,0,1.21-1.88,0-1.88s-1.21,1.88,0,1.88h0Z"/>
        <path class="cls-2" d="M65.55,65.73c1.42,0,1.42-2.2,0-2.2s-1.42,2.2,0,2.2h0Z"/>
        <path class="cls-2" d="M57.69,63.83c-.22-.1-.37-.17-.62-.16-.23,0-.43.06-.63.18-.18.1-.36.28-.46.46-.12.24-.15.38-.17.65,0,.15.03.29.09.42.04.14.12.25.23.35l.22.17c.13.08.26.12.41.13.1.03.2.03.29,0,.15,0,.28-.05.41-.13.23-.15.45-.38.51-.66,0-.02,0-.04.02-.06l-.11.26s.04-.08.07-.12l-.17.22s.02-.02.03-.03l-.22.17s.03-.02.05-.03l-.25.11s.03,0,.04-.01l-.28.04h.02c.09-.01.19-.03.28-.04.14-.03.26-.1.36-.19.08-.05.14-.11.19-.19.09-.1.16-.22.19-.36.04-.19.04-.37,0-.56-.03-.14-.1-.26-.19-.36-.07-.11-.17-.21-.3-.27h0Z"/>
        <path class="cls-2" d="M48.56,67.93c0-.23,0-.47-.05-.7-.07-.25-.21-.52-.38-.71-.32-.35-.97-.35-1.29,0-.17.19-.31.46-.38.71-.06.22-.05.47-.05.7,0,.57.5,1.11,1.08,1.08s1.09-.48,1.08-1.08h0Z"/>
        <path class="cls-2" d="M51.17,76.29s.04-.01.06-.02c.15-.04.28-.1.39-.2.12-.08.22-.19.29-.32.03-.04.05-.07.08-.11.07-.09.1-.19.12-.3l.04-.3c0-.11,0-.22-.04-.33-.04-.17-.1-.26-.2-.38-.11-.14-.06-.09-.19-.19-.07-.05-.07-.06-.11-.08-.12-.08-.26-.12-.4-.13-.05-.01-.11-.02-.16-.02l-.29.04h-.04c-.09.05-.18.09-.27.13-.05.02-.1.06-.14.1-.12.08-.22.19-.29.32l-.02.02s-.03.04-.05.06c-.04.05-.06.1-.07.16-.07.14-.1.28-.1.44,0,.02,0,.04,0,.06,0,.2.05.38.15.55.07.13.16.23.28.31.11.1.23.16.37.2.19.05.39.05.58,0h0Z"/>
        <path class="cls-2" d="M59.77,82.18c.05-.01.1-.02.15-.04l.21-.09c.1-.06.19-.13.25-.23.06-.06.09-.12.12-.2.06-.11.08-.22.08-.35l-.03-.24-.09-.21c-.06-.1-.13-.19-.23-.25-.09-.08-.19-.13-.31-.16-.05-.02-.1-.03-.15-.04-.32-.08-.69,0-.92.24-.17.18-.28.41-.28.67,0,.13.02.25.08.36.04.12.1.22.19.3.24.24.59.33.92.24h0Z"/>
        <path class="cls-2" d="M69.46,75.22c.21-.32.35-.68.34-1.07-.02-.35-.18-.67-.49-.85s-.67-.15-.99,0c-.34.16-.58.48-.76.8-.14.25-.19.57-.11.85.07.26.27.53.51.66.55.29,1.17.12,1.51-.4h0Z"/>
        <path class="cls-2" d="M62,73.92c1.02,0,1.02-1.58,0-1.58s-1.02,1.58,0,1.58h0Z"/>
        <path class="cls-2" d="M76.44,66.55s.05-.05.08-.07c.12-.11.16-.21.24-.33l-.2.26c.08-.09.17-.2.23-.3s.1-.23.14-.34l-.12.29s.04-.07.06-.1l-.18.24s.03-.04.05-.05c.29-.28.39-.71.29-1.09s-.41-.68-.78-.78c-.29-.08-.61-.08-.89,0-.6.18-1.03.77-1.01,1.41,0,.21.06.44.17.62l.19.25c.11.12.24.21.4.25.1.06.2.08.31.08.11.03.22.03.33,0,.11,0,.22-.03.31-.08.15-.05.29-.13.4-.25h0Z"/>
        <path class="cls-2" d="M79.36,59.1c.15,0,.29-.03.42-.09.13-.04.25-.12.35-.22.11-.1.18-.22.22-.35.07-.13.1-.27.09-.42l-.04-.29c-.05-.18-.14-.34-.28-.48l-.22-.17c-.17-.1-.35-.15-.55-.15-.15,0-.29.03-.42.09-.13.04-.25.12-.35.22-.11.1-.18.22-.22.35-.07.13-.1.27-.09.42l.04.29c.05.18.14.34.28.48l.22.17c.17.1.35.15.55.15h0Z"/>
        <path class="cls-2" d="M85.27,64.75c.15,0,.28-.03.41-.09.13-.04.25-.12.34-.22.1-.1.18-.21.22-.34.07-.13.1-.26.09-.41l-.04-.28c-.05-.18-.14-.34-.27-.47l-.22-.17c-.17-.1-.35-.15-.54-.15-.15,0-.28.03-.41.09-.13.04-.25.12-.34.22-.1.1-.18.21-.22.34-.07.13-.1.26-.09.41l.04.28c.05.18.14.34.27.47l.22.17c.17.1.35.15.54.15h0Z"/>
        <path class="cls-2" d="M85.5,72.06c1.05,0,1.05-1.64,0-1.64s-1.05,1.64,0,1.64h0Z"/>
        <path class="cls-2" d="M81.05,78.89s-.03-.05-.04-.07c-.05-.08-.12-.18-.19-.25l-.23-.17s-.09-.04-.14-.06c-.09-.05-.18-.07-.28-.07-.05,0-.1-.01-.15-.02-.11,0-.22,0-.32.05-.02,0-.05.02-.07.03l-.3.12c-.14.08-.26.18-.35.32-.08.08-.13.17-.16.27-.06.1-.08.2-.08.31-.04.16-.03.33.02.49l.12.3.19.25c.11.12.25.21.4.26.1.06.2.08.31.08.11.03.22.03.33,0,.17,0,.32-.06.46-.15l.25-.19.19-.25.12-.3c.05-.16.06-.33.02-.49,0-.17-.06-.32-.15-.46h0Z"/>
        <path class="cls-2" d="M70.86,84.95c.51-.18.97-.59.94-1.18-.02-.34-.2-.64-.52-.77s-.67-.06-.92.17c-.03.02-.05.05-.08.07-.08.07-.13.16-.19.24l.14-.18s-.07.08-.11.11l.18-.14s-.08.05-.12.07c-.18.08-.36.34-.4.53-.04.2-.03.39.04.57.16.38.62.65,1.04.51h0Z"/>
        <path class="cls-5" d="M56.11,44.3c.94-.32,1.9-.57,2.87-.77.43-.09,3.52-.69,5.94-.75,0-.29-.26-.67-.61-.76-2.93-.74-8.32.3-11.74,2.05-3.63,1.85-6.99,5.25-9.45,8.46-3.62,4.73-6.42,9.8-5.99,15.96.09,1.34.3,2.68.59,4,.29,1.32.66,2.59,1.21,3.82.27.61.56,1.22.84,1.83.09.21.18.42.26.63.17-.16.27-.4.2-.73-.94-4.2-2.19-8.38-1.75-12.74.41-4.11,3.02-8.04,5.36-11.34,1.13-1.6,2.35-3.15,3.73-4.55,1.43-1.45,3.02-2.42,4.77-3.42,1.2-.69,2.46-1.24,3.77-1.68Z"/>
        <path class="cls-2" d="M13.55,35.4c1.67,2.09,4.69,4.16,7.51,3.65.89-.16.67-1.32,0-1.59-1.12-.45-2.31-.57-3.41-1.12s-2.06-1.26-2.91-2.13c-.77-.79-1.84.36-1.19,1.19h0Z"/>
        <path class="cls-2" d="M24.64,40.47l.29-.08c.25-.07.47-.33.46-.6s-.18-.53-.46-.6l-.29-.08c-.44-.12-.9.22-.9.68s.45.8.9.68h0Z"/>
        <path class="cls-2" d="M52.55,34.94c.11-.06.22-.12.32-.19.14-.09.27-.2.39-.31.22-.18.25-.58.1-.81-.16-.26-.45-.38-.75-.31s-.56.19-.83.31c-.16.07-.3.29-.35.45-.05.18-.03.42.08.58.22.34.67.48,1.03.27h0Z"/>
        <path class="cls-5" d="M22.95,18.28c1.95-.21,3.6.94,4.47,2.64.81,1.58.58,3.33,1.12,4.96.2.6,1.08.65,1.27,0,1.23-4.3-2.4-9.79-7.07-9.08-.83.13-.65,1.58.2,1.48h0Z"/>
        <path class="cls-5" d="M40.17,25.27c.15-1.87-.43-3.79.9-5.4,1.17-1.41,2.92-1.88,4.67-2.07.75-.08.78-1.14,0-1.19-2.23-.16-4.44.53-5.9,2.32-1.39,1.71-1.76,4.66-.74,6.62.28.54,1.02.24,1.06-.29h0Z"/>
        <path class="cls-5" d="M34.29,26.04c-.08-.64.19-1.44-.31-1.96-.19-.2-.49-.27-.75-.2-.88.24-.95,1.41-.86,2.15.06.49.4.98.96.96.47-.02,1.02-.42.96-.96h0Z"/>
        <path class="cls-5" d="M37.01,24.84c.14-.53.45-1.24.27-1.78-.16-.47-.69-.6-1.07-.28-.43.37-.51,1.14-.66,1.66-.11.39.13.82.53.93s.82-.13.93-.53h0Z"/>
        <path class="cls-5" d="M73.36,44.96c.95-1.02,1.81-2.89,1.05-4.24-.24-.43-1.05-.39-1.13.15s0,1.09-.09,1.63c-.11.57-.37,1.1-.75,1.54-.54.63.34,1.54.92.92h0Z"/>
        <path class="cls-5" d="M78.33,44.86c.02-.51.11-1.01.28-1.49s.44-.89.59-1.38c.15-.51-.49-1.09-.97-.74-1.08.79-1.4,2.34-1.34,3.61.05.92,1.41.93,1.44,0h0Z"/>
        <path class="cls-5" d="M80.71,45.54c.15-.96.61-1.87,1.33-2.54.35-.32.76-.58,1.21-.74s.94-.17,1.32-.46c.36-.27.41-.77,0-1.03-1.09-.68-2.73.32-3.55,1.05-1.03.92-1.61,2.17-1.58,3.54.01.69,1.15.92,1.27.17h0Z"/>
        <path class="cls-5" d="M71.13,43.27c.59-.8,1.45-2.74.47-3.55-.27-.22-.74-.25-.93.12-.23.46-.12.93-.11,1.43,0,.53-.17.97-.45,1.41-.42.65.58,1.19,1.02.6h0Z"/>
        <path class="cls-5" d="M12.65,62.76c.23.72.53,2.51,1.63,2.21s.31-1.99.06-2.68c-.16-.45-.6-.75-1.08-.61-.45.12-.76.63-.61,1.08h0Z"/>
        <path class="cls-5" d="M15.92,64.7c.3.99.71,2.07,1.73,2.49.42.17.93-.26.9-.69-.04-.83-.58-1.52-.84-2.29-.16-.48-.64-.79-1.14-.65-.48.13-.79.66-.65,1.14h0Z"/>
      </g>
      <rect class="cls-3" width="100" height="100"/>
    </g>
  </g>
</svg>