<?xml version="1.0" encoding="UTF-8"?>
<svg id="Capa_2" data-name="Capa 2" xmlns="http://www.w3.org/2000/svg" viewBox="0 0 100 100">
  <defs>
    <style>
      .cls-1 {
        fill: #f1475d;
      }

      .cls-2 {
        fill: #fff;
      }

      .cls-3 {
        fill: none;
      }

      .cls-4 {
        fill: #4a2d2d;
      }
    </style>
  </defs>
  <g id="COLOR">
    <g>
      <g>
        <path class="cls-4" d="M37.6,37.51c-2.66-4.77-8-6.95-13.06-8.13-.53-.12-1.14.36-.94.94.9,2.6,2.44,5,4.51,6.84,1.84,1.64,4.63,3.43,7.19,3.34.66-.02,1.05-1.02.36-1.34-2.24-1.04-4.41-1.56-6.39-3.16-1.6-1.3-2.81-2.9-3.65-4.74,4.29,1.2,8.28,3.07,10.83,6.94.47.72,1.58.08,1.16-.68Z"/>
        <path class="cls-1" d="M71.44,48.97s1.42-1.92.43-6.27c-.29-1.28-.94-2.31-1.76-3.1-.68.49-1.45.89-2.15,1.21-1.41.65-2.9,1.12-4.4,1.49-1.85.46-3.67.62-5.58.62-.97,0-2.03.05-2.97-.25-.21-.07-.42-.16-.6-.29-.94.66-2.02,1.14-3.12,1.37-.77.16-1.54.19-2.31,0-.72-.18-1.38-.52-2.09-.72-.72-.2-1.49-.14-2.23-.21-.81-.07-1.53-.27-2.28-.59-1.28-.55-2.3-1.51-3.13-2.6-.48-.64-.9-1.32-1.34-1.99-1.18-.38-4.1-1-7.28.92-4.13,2.49-3.42,7.34-2.07,8.9s2.28,1.92,2.28,1.92c0,0-4,2.47-3.63,7.41.43,5.77,5.91,7.19,5.91,7.19,0,0-3.06,5.48.07,9.12,3.13,3.63,7.69,3.49,7.69,3.49,0,0-1,8.85,9.19,9.19,8.48.28,9.4-8.76,9.4-8.76,0,0,5.63-.5,7.83-4.99,2.56-5.2-.57-9.19-.57-9.19,0,0,5.48,0,6.91-5.48,1.42-5.48-2.21-8.4-2.21-8.4Z"/>
        <path class="cls-4" d="M74.21,31.95c-5.62.57-11.23,2.78-15.78,6.26,1.87-3.35,2.93-7.47,3.63-10.58.13-.59-.48-1.11-1.03-.79-3.46,1.99-6.43,4.89-8.81,8.21.09-3.78-.15-7.56-1.44-11.17-.87-2.44-3.57-8.63-7.17-6.14-3.7,2.55.25,7.31,1.56,9.97,1.11,2.24,1.96,4.57,2.36,7.05.3,1.87.23,3.64.04,5.44-1.27-2.7-3.29-5.21-5.19-7.29-1.45-1.6-2.99-3.16-4.63-4.58-.83-.71-2.25-1.78-3.16-.62-.98,1.24-.56,3.81-.27,5.22.43,2.11,1.4,4.45,2.7,6.17,1.1,1.45,2.45,3.05,4.12,3.86.42.2.85.36,1.3.5-.99,1.07-1.65,2.41-1.95,3.85-1.37.94-2.43,1.97-4.11,2.41-1.91.49-3.86.24-5.65-.54-.37-.16-.68.34-.32.55,2.82,1.65,7.54,1.68,9.89-.93-.05,1.21.13,2.43.57,3.56.77,1.98,2.32,3.58,4.18,4.59-.78,2.3-2.19,4.61-4.34,5.88-2.43,1.43-5.05,1.3-7.67.61-.41-.11-.71.52-.3.71,4.26,2,8.81.16,11.35-3.31-.25,2.47.59,4.91,2.67,6.54.88.69,1.84,1.14,2.85,1.41.01.1.03.19.04.28-.83,1.64-1.66,3.14-3.12,4.39-1.69,1.45-3.69,2.18-5.82,2.71-.4.1-.32.73.1.72,3.59-.05,7.66-2.71,9.31-6.12.56,1.37,1.52,2.56,2.7,3.55,1.61,1.35,4,3.23,6.23,2.97.43-.05.61-.7.11-.82-3.51-.81-7.58-3.44-8.49-7.16.03-.1.05-.21.07-.31,1.97.24,4.04-.19,5.87-1.07,2.7-1.31,5.06-3.63,5.95-6.52.52.42,1.05.76,1.69,1.02.75.3,1.79.72,2.59.46.34-.11.34-.5.09-.69-.59-.45-1.46-.43-2.16-.67-.69-.24-1.38-.6-2-1,.03-.18.07-.35.09-.53.35-2.75-.53-5.61-2.46-7.56,1.63.99,3.59,1.36,5.52,1.02,2.12-.37,5.41-2.08,5.76-4.46.05-.34-.3-.57-.58-.34-.69.59-1.11,1.41-1.8,2.01-.92.79-2.04,1.36-3.22,1.62-2.44.54-4.91-.31-6.79-1.87.34-2.46-.13-5.51-1.84-7.14.73.03,1.47.06,2.2.05,2.34-.04,4.78-.41,6.96-1.27,4.09-1.61,7.19-4.82,8.37-9.08.13-.46-.24-1.06-.77-1.01ZM60.32,28.97c-.79,3.01-2.1,5.97-3.62,8.62-.75,1.31-1.64,2.61-2.82,3.57-1.48,1.19-3.06,1.22-4.78,1.61,3.2-5.16,6.19-10.3,11.22-13.8ZM46.55,27.22c-.81-1.76-2.17-3.4-2.72-5.25-.28-.94-.3-2.44.74-2.99,1.22-.64,2.26.83,2.78,1.68,1.02,1.67,1.77,3.52,2.27,5.41.97,3.64,1.01,7.52,1.09,11.27-.64,1.06-1.23,2.15-1.76,3.26.45-2.74.04-5.74-.63-8.32-.45-1.73-1.03-3.44-1.77-5.07ZM38.7,38.54c-1.17-1.41-1.91-3.19-2.52-4.91-.33-.95-.59-1.92-.67-2.92-.07-.83-.24-2.3.91-1.72,1.26.64,2.49,2.06,3.51,3.03,1.07,1.03,2.07,2.14,3,3.3,1.68,2.08,2.78,4.26,3.8,6.61-1.35-.15-2.7-.28-4.02-.62-1.62-.41-2.96-1.49-4.01-2.76ZM61.79,59.49c-.31,3.22-2.38,5.42-5.11,6.95-2.57,1.44-5.87,2.03-8.59.59-2.66-1.41-3.68-4.55-3.24-7.41.4-.73.71-1.51.92-2.33,1.23.55,2.57.86,3.9.87,3.72.03,7.54-2.13,9.04-5.61,1.96,1.82,3.34,4.15,3.07,6.94ZM57.37,52.56c-1.5,2.98-4.87,4.68-8.15,4.49-3.18-.19-6.17-2.16-7.52-5.06-1.34-2.89-.45-6.1,1.67-8.3,1.38.3,2.83.38,4.21.41.1,0,.19,0,.28-.03.19.05.41-.02.58-.16.07.06.15.1.26.12,1.87.25,3.48-.05,4.87-.74.55-.07,1.1-.09,1.65-.09,3.01,2.06,3.76,6.16,2.15,9.36ZM64.14,41.22c-2.71.85-5.44.62-8.18.67,4.78-4.54,10.52-7.39,17.08-8.22-1.55,3.76-5.05,6.34-8.9,7.55Z"/>
        <path class="cls-2" d="M32.87,38.86c-1.07.38-2.06,1.07-2.68,2.04s-.97,2.41-.23,3.43c.43.59,1.55.84,1.92,0,.56-1.26.44-2.71,1.88-3.36,1.18-.54.34-2.55-.89-2.11h0Z"/>
        <path class="cls-2" d="M44.33,46.29c-.79.77-1.21,1.86-1.18,2.96s.74,2.72,2.03,2.57c.43-.05.89-.28.99-.75.21-1.02-.94-2.18-.18-3.13.93-1.15-.56-2.74-1.66-1.66h0Z"/>
        <path class="cls-2" d="M68.36,44.71v.02c-.04-.07-.1-.14-.15-.21.02.02.03.05.04.07l-.11-.26s.03.1.04.15l-.04-.29c.01.12.01.26.05.38l.11.26c.07.13.16.23.28.31.18.14.42.24.66.23.19,0,.38-.06.55-.15.13-.07.23-.16.31-.28.1-.11.16-.23.2-.37.02-.05.03-.11.03-.17.01-.06.02-.11.02-.17l-.04-.29s0-.02,0-.03c-.04-.12-.09-.24-.15-.35-.05-.08-.13-.18-.19-.24-.07-.07-.16-.13-.24-.19-.1-.07-.23-.12-.35-.15l-.28-.04c-.14,0-.28.02-.4.09-.2.08-.39.23-.5.43-.09.16-.13.34-.14.53,0,.14.02.28.09.4.04.13.11.24.22.33h0Z"/>
        <path class="cls-2" d="M68.94,47.73c.41,0,.41-.64,0-.64s-.41.64,0,.64h0Z"/>
        <path class="cls-2" d="M69.23,59.91c2.02-.83,3.69-3.63,2.08-5.6-.43-.53-1.38-.23-1.52.4-.15.68-.1,1.37-.32,2.04s-.63,1.18-1.14,1.61c-.68.58.04,1.9.9,1.55h0Z"/>
        <path class="cls-2" d="M46.97,59.68c-.46,1.51-.18,3.17.84,4.39.96,1.16,2.55,1.74,3.95,1.05.73-.36.54-1.55-.23-1.73s-1.52-.39-2.03-1.02-.61-1.63-.65-2.44c-.05-1.08-1.57-1.32-1.9-.26h0Z"/>
        <path class="cls-2" d="M30.38,52.28c-1.68,1.81-2.57,5.86.03,7.36.75.43,1.54-.28,1.38-1.06-.35-1.69-1.17-3.2.1-4.78.84-1.05-.56-2.55-1.52-1.52h0Z"/>
        <path class="cls-2" d="M34.32,66.99c-.82,1.28-.97,2.9-.2,4.25.67,1.18,2.06,2.18,3.45,1.72.6-.2.88-.99.38-1.46-1.03-.96-2.58-1.77-1.85-3.48.5-1.19-1.04-2.19-1.78-1.04h0Z"/>
        <path class="cls-2" d="M43.66,78.16c0,2.46,1.96,5.16,4.54,5.34.73.05,1.16-.84.82-1.42-.83-1.42-3.21-2.07-3.32-3.91-.08-1.3-2.04-1.33-2.04,0h0Z"/>
        <path class="cls-2" d="M52.99,83.27c.69,0,.7-1.08,0-1.08s-.7,1.08,0,1.08h0Z"/>
        <path class="cls-2" d="M55.23,70.73c.23.96.78,1.82,1.55,2.44s1.93,1.15,2.9.66c.43-.22.57-.97.16-1.28-.53-.41-1.22-.53-1.78-.9-.51-.34-.86-.83-1.04-1.41-.35-1.14-2.07-.67-1.79.49h0Z"/>
        <path class="cls-2" d="M66.81,68c.47,0,.47-.73,0-.73s-.47.73,0,.73h0Z"/>
      </g>
      <rect class="cls-3" width="100" height="100"/>
    </g>
  </g>
</svg>