<?xml version="1.0" encoding="UTF-8"?>
<svg id="Capa_2" data-name="Capa 2" xmlns="http://www.w3.org/2000/svg" viewBox="0 0 100 100">
  <defs>
    <style>
      .cls-1 {
        fill: #fff;
      }

      .cls-2 {
        fill: #fdc733;
      }

      .cls-3 {
        fill: none;
      }

      .cls-4 {
        fill: #4a2d2d;
      }

      .cls-5 {
        fill: #fedb7a;
      }
    </style>
  </defs>
  <g id="COLOR">
    <g>
      <g>
        <g>
          <path class="cls-2" d="M55.24,21.66c-4.17-4.95-10.25-8.89-16.17-11.51-.16-.11-.36-.15-.58-.07-6.35,2.47-12.08,6.56-17.09,11.12-5.22,4.75-9,10.46-10.44,17.45-2.77,13.49,2.48,27.57,12.07,37.18,5.23,5.24,12.55,9.61,19.51,12.14.02,0,.05.01.07.02,0,0,.02,0,.02,0,.04,0,.07.01.1.02.11.01.23,0,.36-.05,2.75-.97,5.13-3.39,7.02-5.55,2.01-2.29,3.73-4.84,5.31-7.44,3.39-5.6,6.62-11.47,8.1-17.89,2.86-12.4-.09-25.68-8.3-35.43Z"/>
          <path class="cls-4" d="M35.74,77.36c-1.28-1.83-2.42-3.75-3.43-5.74-2.07-4.09-3.57-8.46-4.6-12.92-1.2-5.15-1.07-10.21-.71-15.45.36-5.17,1.01-10.34,2.62-15.29,1.63-5.03,4.22-9.73,7.98-13.49.41-.41-.23-1.06-.64-.64-7.06,7.01-9.74,16.84-10.82,26.47-.59,5.29-1.19,10.79-.26,16.07.85,4.83,2.37,9.6,4.42,14.06,1.11,2.42,2.4,4.75,3.9,6.95,1.42,2.1,2.99,4.34,5.03,5.88.38.29.93-.28.66-.66-1.28-1.82-2.85-3.41-4.13-5.24Z"/>
          <path class="cls-4" d="M48.76,30.95c-1.67-5.83-4.59-10.95-7.85-16.01-.33-.51-1.11-.06-.81.48,2.93,5.23,5.68,10.41,7.27,16.22,1.5,5.46,2.61,11.27,3.06,16.93.46,5.67-.35,11.37-1.82,16.84-1.5,5.58-3.94,10.78-5.92,16.19-.21.56.7.95.97.41,2.58-5.15,4.54-10.74,6.09-16.28,1.59-5.67,2.51-11.54,2.09-17.44-.41-5.79-1.5-11.75-3.09-17.33Z"/>
        </g>
        <path class="cls-5" d="M92.75,62.26c-1.23-.64-2.73-.74-4.08-.97-1.97-.34-3.94-.67-5.88-1.19-1.67-.44-4.18-.63-5.46-1.86-1.22-1.18-1.77-3.06-2.21-4.65-.47-1.7-.85-3.42-1.33-5.11-.44-1.53-.67-3.14-1.49-4.55-.89-1.53-2.58-1.22-3.55.03-.95,1.22-1.44,2.71-2.22,4.03-.9,1.52-1.8,3.05-2.71,4.57-.93,1.55-1.78,3.32-2.89,4.75-.63.81-.84.86-1.83.66-.87-.17-1.73-.34-2.6-.52-2.96-.62-6-1.63-9.05-1.63-2.22,0-3.45,1.51-2.32,3.56,1.37,2.47,3.48,4.61,5.5,6.55,1.05,1.01,2.16,1.96,3.18,2.99.48.49,1.15,1.04,1.51,1.63.67,1.09-.17,1.97-.71,2.9-1.72,3.03-3.12,6.24-4.48,9.44-.63,1.49-2.5,4.86.42,5.14,1.38.13,2.9-.66,4.16-1.12,1.65-.61,3.29-1.26,4.94-1.86,1.65-.6,3.32-1.19,5.02-1.61,1.96-.49,3.5-.31,5.18.81,2.86,1.91,5.54,4.09,8.41,6,.94.63,2.22,1.85,3.44,1.73,1.3-.13,1.47-1.37,1.48-2.43.03-3.34-.93-6.69-1.48-9.96-.2-1.18-1-3.84-.23-4.9.44-.61,1.52-1.18,2.13-1.65.65-.5,1.29-.98,1.9-1.52,2.11-1.89,4.5-3.47,6.62-5.36,1.26-1.12,2.71-2.82.62-3.9Z"/>
        <g>
          <path class="cls-4" d="M68.91,64.43c.8-1.42,3.52-5.79.43-6.53-3.08-.73-1.71,5.07-1.12,6.4.16.37.47.53.69.12Z"/>
          <path class="cls-4" d="M65.45,66.73c-1.02-1.32-2.1-2.38-3.61-3.13-.88-.44-2.44-1.23-3.23-.21-.9,1.15.38,2.34,1.28,2.94,1.52,1,3.37,1.59,5.19,1.37.42-.05.67-.63.41-.89,0-.02-.02-.05-.03-.07Z"/>
          <path class="cls-4" d="M63.34,70.71c-1.15.63-2.17,1.37-2.84,2.5-.54.91-1.12,2.36-.11,3.17,2.27,1.83,3.72-3.82,3.83-5.08.06-.74-.48-.81-.88-.59Z"/>
          <path class="cls-4" d="M69.16,71.15c-.41-.18-.79.14-.72.51l-.04.24c-.18,1.28-.12,2.35.63,3.41.53.75,1.62,1.86,2.67,1.61,2.67-.63-1.45-5.3-2.54-5.77Z"/>
          <path class="cls-4" d="M77.44,66.32c-.54-2.77-5.69.12-7.28,1.31-.43.12-.49.9.02.99,1.43.25,7.8.49,7.25-2.3Z"/>
        </g>
        <path class="cls-4" d="M65.88,47.91c-1.07,1.86-2.14,3.7-3.36,5.47-.7,1.02-1.34,2.15-2.11,3.12-1.32,1.66-3.29.58-5.03.14-2.68-.68-11.67-3.5-10.71,2.34.35,2.12,2.33,4,3.69,5.53,1.68,1.88,3.45,3.67,5.1,5.57.76.87.96,1.47.69,2.66-.18.8-.64,1.59-.97,2.34-.54,1.21-1.08,2.43-1.61,3.64-1.06,2.46-2.02,4.94-2.92,7.47-.22.63.83,1.09,1.1.46,1.09-2.57,2.34-5.07,3.49-7.62.5-1.1.97-2.21,1.42-3.33s1.14-2.35,1.41-3.54c.47-2.06-1.89-4.05-3.15-5.36-1.74-1.82-3.69-3.43-5.26-5.41-.93-1.17-2.81-3.78-.28-4.53,1.43-.43,3.25.22,4.69.49s2.96.54,4.43.83c.98.2,2.33.82,3.34.5.75-.24,1.13-1.01,1.52-1.62.68-1.05,1.35-2.11,2.03-3.17,1.16-1.81,2.45-3.51,3.41-5.44.3-.61-.58-1.14-.92-.54h0Z"/>
        <path class="cls-1" d="M28.69,18.06c-3.02,2.04-5.66,4.51-7.84,7.44-1.07,1.44-2.04,2.98-2.85,4.58s-1.75,3.38-1.55,5.17c.07.61.82,1.08,1.31.54,1.1-1.19,1.56-2.82,2.25-4.25.76-1.55,1.61-3.04,2.59-4.46,1.99-2.88,4.45-5.43,7.22-7.57.83-.64-.25-2.04-1.12-1.46h0Z"/>
        <path class="cls-1" d="M14.95,40.29c0,.96-.19,2.22.22,3.11.23.5,1.09.5,1.32,0,.41-.89.21-2.14.22-3.11,0-1.13-1.76-1.13-1.76,0h0Z"/>
        <path class="cls-1" d="M36.99,17.96c-.32.69-.82,1.46-.87,2.23-.03.56.69.78,1.06.44.51-.48.77-1.32,1.07-1.93.17-.36.1-.79-.26-1-.32-.18-.83-.1-1,.26h0Z"/>
        <path class="cls-1" d="M33.86,25.57l.07.17c.05.09.13.16.22.22.09.05.2.08.3.08.11,0,.21-.03.3-.08.09-.05.16-.13.22-.22l.07-.17c.06-.11.09-.22.09-.35,0-.12-.03-.24-.09-.35-.12-.21-.35-.34-.59-.34s-.47.13-.59.34c-.06.11-.09.22-.09.35,0,.12.03.24.09.35h0Z"/>
        <path class="cls-1" d="M49.77,22.47c1.54,1.65,2.89,3.42,4.1,5.32,1.14,1.8,1.97,3.82,3.21,5.54.52.72,1.6.29,1.43-.6-.43-2.2-1.82-4.34-3.12-6.14-1.35-1.87-2.89-3.6-4.56-5.18-.7-.66-1.72.35-1.06,1.06h0Z"/>
        <path class="cls-1" d="M59.15,39.58c.97,0,.97-1.51,0-1.51s-.97,1.51,0,1.51h0Z"/>
        <path class="cls-1" d="M69.56,48.36l-.1.36c-.11.39,0,.87.3,1.15l.03.03-.32-.77v.09c.03.19.06.37.15.53.12.2.29.34.5.43.38.16.86.09,1.15-.22l.06-.06-.77.32h.03c.1-.02.21-.03.31-.05.15-.04.29-.11.4-.21.22-.17.32-.36.42-.61l.14-.35c.11-.27.02-.68-.12-.92s-.43-.49-.72-.55c-.31-.07-.65-.05-.92.12s-.46.41-.55.72h0Z"/>
        <path class="cls-1" d="M71.92,54.96c1.37,0,1.37-2.12,0-2.12s-1.37,2.12,0,2.12h0Z"/>
        <path class="cls-1" d="M56.47,68.08l.04-.03-.55.07.08.02c.12.03.23.03.35,0,.11-.03.21-.09.29-.17.08-.08.14-.18.17-.29.03-.12.03-.23,0-.35l-.02-.08-.07.55s.06-.09.08-.15c.06-.11.08-.22.08-.35,0-.13-.02-.24-.08-.35-.04-.11-.1-.21-.19-.29l-.18-.14c-.1-.07-.22-.1-.34-.11-.12-.03-.24-.02-.36.02-.12.03-.22.08-.31.16-.1.06-.18.15-.23.25l-.09.22c-.04.12-.04.24-.02.36,0,.12.04.23.11.34l.14.18c.11.11.25.19.4.23l.24.03c.16,0,.32-.04.46-.12h0Z"/>
        <path class="cls-1" d="M65.22,80.17c.16,0,.31-.03.45-.1.14-.05.27-.13.37-.24.11-.11.19-.23.24-.37.07-.14.11-.29.1-.45l-.04-.31c-.06-.2-.15-.37-.3-.51l-.23-.18c-.18-.1-.38-.16-.59-.16-.16,0-.31.03-.45.1-.14.05-.27.13-.37.24-.11.11-.19.23-.24.37-.07.14-.11.29-.1.45l.04.31c.06.2.15.37.3.51l.23.18c.18.1.38.16.59.16h0Z"/>
        <path class="cls-1" d="M71.5,82.05c.67,0,.67-1.04,0-1.04s-.67,1.04,0,1.04h0Z"/>
      </g>
      <rect class="cls-3" width="100" height="100"/>
    </g>
  </g>
</svg>