<?xml version="1.0" encoding="UTF-8"?>
<svg id="Capa_2" data-name="Capa 2" xmlns="http://www.w3.org/2000/svg" viewBox="0 0 100 100">
  <defs>
    <style>
      .cls-1 {
        fill: #f1475d;
      }

      .cls-2 {
        fill: #fff;
      }

      .cls-3 {
        fill: none;
      }

      .cls-4 {
        fill: #4a2d2d;
      }
    </style>
  </defs>
  <g id="COLOR">
    <g>
      <g>
        <path class="cls-1" d="M65.35,32.95c-1.85-.54-4.01-.76-6.2-.79-.13.15-.29.29-.47.42-.39.28-.86.46-1.33.59-.74.2-1.55.24-2.29.47.39,1.89,1.19,3.75,2.29,5.33.6.87,1.39,1.53,2.18,2.22.78.67,1.58,1.3,2.52,1.73.62.28.33,1.4-.35,1.31-.79-.1-1.59.03-2.38.02-.75-.02-1.5-.1-2.23-.25-1.43-.28-2.87-.82-4.05-1.69-2.16-1.59-3.21-4.05-4.69-6.19-.38.18-.84.34-1.32.67-1.28.88-2.98,2.82-4.38,3.52-1.43.71-2.95,1.26-4.53,1.51-1.76.28-3.51.15-5.29.2-1.56.05-3.19.16-4.66-.44-.54-.22-.64-.85-.16-1.2.64-.46,1.19-1.02,1.76-1.55.6-.55,1.22-1.07,1.89-1.55,1.18-.84,2.41-1.51,3.79-1.97.69-.23,1.41-.46,2.13-.6.77-.15,1.56-.19,2.35-.21.76-.02,1.52-.07,2.28-.11.68-.03,1.36-.04,2.01-.23.06-.02.12-.05.18-.07-.3-.27-.55-.59-.69-.97,0-.03-.01-.05-.02-.08-4.33-.67-12.97-1.32-17.87,3.05-6.73,5.99-7.18,23.49,5.54,38.6,12.34,14.66,17.36,14.07,23.79,10.17,6.43-3.89,16.16-19.6,17.81-33.97,1.31-11.4-.45-15.86-7.63-17.96Z"/>
        <path class="cls-4" d="M37.46,53.89c-.18-.3-.75-.34-.88.1-.18.58-1.72,6.44.49,5.49.78-.34.99-1.54,1.07-2.27.11-1.06.19-2.5-.65-3.3,0,0-.02-.01-.03-.02ZM37.07,58.26c-.07.14-.18.22-.32.08-.12-.12-.13-.42-.14-.58-.02-.35.16-.98.25-1.35.1-.41.22-.81.35-1.22.05.35.08.7.07,1.09,0,.61-.02,1.2-.14,1.8-.01.06-.03.12-.06.18Z"/>
        <path class="cls-4" d="M48.38,56.79c1.12.72,1.87-.65,2.01-1.56.17-1.11-.11-2.77-1.11-3.46-1.09-.76-1.65.8-1.75,1.65-.13,1.05-.17,2.72.85,3.38ZM48.74,52.62c.13.03.28.37.37.54.28.57.36,1.23.28,1.85-.02.14-.07.71-.22.79-.88.44-.68-2.62-.6-2.94.05-.2.11-.26.18-.25Z"/>
        <path class="cls-4" d="M60.81,51.64c-.14.05-.26.12-.35.21-.43.44-.23,1.35-.13,1.88.13.71.41,1.39.8,2,.47.75,1.31,1.44,2.04.53.59-.72.33-1.95.06-2.74-.2-.58-.48-1.2-.93-1.62-.22-.2-.49-.36-.79-.36-.21,0-.46.03-.69.11ZM62.01,55.36c-.33-.27-.5-1.09-.59-1.49-.1-.44-.13-.9-.17-1.36.56.08.96,1.14,1.09,1.53.09.29.38,1.9-.34,1.32Z"/>
        <path class="cls-4" d="M52.75,63.72c-.36.22-.62.68-.63,1.15-.04.93.03,2.02.57,2.82.38.57,1.36,1.32,1.79.42.48-1,.43-2.44-.01-3.43-.15-.33-.38-.66-.68-.87-.38-.28-.75-.26-1.04-.09ZM53.9,67.52s-.07-.05-.12-.09c-.11-.11-.2-.23-.27-.36-.15-.23-.24-.49-.31-.75-.14-.55-.12-1.13-.09-1.7.44.12.58.71.7,1.13.12.42.24,1.4.1,1.77Z"/>
        <path class="cls-4" d="M42.16,66.54c-.09.52-.03,1.12.04,1.52.04.27.12.53.23.77.05.1.3.63.43.63.61.65,1.56.51,1.71-.43.15-.98-.05-2.58-.8-3.3-.28-.27-.69-.33-1.03-.14-.33.18-.5.54-.57.95ZM43.64,68.94c-.12.17-.53-.75-.57-.91-.13-.45-.1-.87.03-1.31.01-.04.02-.08.02-.11.01-.03.02-.06.03-.1,0,.07.24.51.26.6.05.15.09.31.12.46.06.27.29,1.12.12,1.37Z"/>
        <path class="cls-4" d="M48,75.37c-.21.3-.28.76-.3,1.11-.03.9.13,1.84.67,2.58.57.79,1.75,1.2,2.34.19.58-.98-.03-2.18-.58-3.02-.29-.44-.72-.93-1.24-1.12-.43-.16-.72-.02-.9.25ZM49.94,78.4s0,.06,0,.09c0,.04,0,.08-.02.11-.14.22-.56-.18-.65-.28-.19-.22-.28-.5-.33-.79-.04-.26-.06-.51-.07-.77,0-.09.05-.63-.02-.68.36.26.63.78.81,1.18.16.36.27.75.27,1.14Z"/>
        <path class="cls-4" d="M30.45,48.28c-.14-.33-.47-.51-.82-.48-.42.03-.73.23-.96.51-.45.56-.59,1.45-.66,2.08-.06.5-.07,1.08.21,1.52.51.8,1.44.32,1.78-.36.4-.8.83-2.4.45-3.27ZM29.68,50.09c-.06.23-.11.46-.15.7-.03.14-.05.28-.12.4-.19.36-.68.29-.74-.14-.02-.13,0-.25.03-.38.08-.43.16-.85.24-1.28.08-.42.37-1.33.89-.76.23.25.07.62,0,.9-.05.19-.1.37-.14.56Z"/>
        <path class="cls-4" d="M44.04,45.73c.19-.71.58-2.27-.52-2.47-1.08-.19-1.67,1.2-1.88,2.02-.17.67-.46,2.03.47,2.3,1.03.3,1.72-1.07,1.93-1.85ZM42.53,45.56c.19-.5.52-1.38.78-1.35.12.01-.13,1.16-.16,1.28-.06.22-.13.45-.24.65-.03.06-.44.66-.45.66-.12-.01-.03-.67.07-1.24Z"/>
        <path class="cls-4" d="M31.69,63.19c-.8.48-.38,2.06.03,2.64.25.35.82.15.71-.3-.08-.35-.26-.75-.23-1.11.04-.61.36.19.44.42.12.37.31,1.33.12,1.83-.09-.09-.17-.21-.21-.25-.2-.22-.61.08-.42.33.36.5.91,1.18,1.33.28.41-.86.26-2.01-.11-2.86-.27-.61-.89-1.43-1.65-.97Z"/>
        <path class="cls-4" d="M61.4,61.77c-.59-.04-.97.63-1.17,1.09-.26.59-.41,1.31-.13,1.92.27.59.92.62,1.4.26.51-.4.76-1.11.75-1.75,0-.4-.13-.85-.36-1.18-.15-.23-.32-.33-.49-.34ZM61.14,64.14s-.16.31-.2.29c-.09-.03-.08-.47-.08-.52.01-.37.14-.73.25-1.08,0-.03.01-.05.02-.08.13.14.17.3.19.54.02.29-.05.59-.18.85Z"/>
        <path class="cls-4" d="M40.68,74.85c-.7-.35-1.02.75-.95,1.08.12.62.44,1.16,1,1.48.22.13.48,0,.55-.23.25-.78.29-1.89-.6-2.34Z"/>
        <path class="cls-4" d="M56.94,74.09c-.29-.17-.67-.01-.76.31-.02.06-.03.11-.05.17-.02.09-.03.18-.04.27,0,.04.01.08.02.11.01.03.03.07.04.1.05.08.12.14.21.18.16.07.34.03.47-.09.08-.07.14-.15.21-.24.06-.06.11-.14.13-.23.02-.09.02-.18,0-.28-.04-.13-.12-.24-.24-.31Z"/>
        <path class="cls-4" d="M67.63,40.66c-.41-.09-.82.15-.88.59-.06.42.36.83.7,1,.49.24.97-.12.95-.65,0-.16-.04-.32-.12-.46-.13-.23-.38-.42-.64-.48ZM67.3,42.02s.08.02.12.02c-.04,0-.07,0-.11-.01,0,0,0,0-.01,0Z"/>
        <path class="cls-2" d="M33.63,48.74c.23,0,.44-.04.64-.14.2-.07.38-.18.53-.34.16-.15.27-.33.34-.53.1-.2.15-.41.14-.64l-.06-.44c-.08-.28-.22-.52-.42-.73-.32-.3-.72-.48-1.17-.48-.23,0-.44.04-.64.14-.2.07-.38.18-.53.34-.16.15-.27.33-.34.53-.1.2-.15.41-.14.64l.06.44c.08.28.22.52.42.73.32.3.72.48,1.17.48h0Z"/>
        <path class="cls-2" d="M28.47,58.6c1.52,0,1.53-2.37,0-2.37s-1.53,2.37,0,2.37h0Z"/>
        <path class="cls-2" d="M25.77,48.8c1.34,0,1.34-2.08,0-2.08s-1.34,2.08,0,2.08h0Z"/>
        <path class="cls-4" d="M64.73,43.53c-3.89-1.72-7.46-5.69-9.23-9.51,6.81-.96,12.82-7.05,12.97-13.29,0-.09-.01-.18-.04-.25-.07-.5-.49-.96-1.11-.76-5.61,1.81-11.45,5.8-15.77,10.94.35-2.88,1.15-7.29.1-10.07-.97-2.57-3.23-6-6.29-6.24-1.21-.1-2.5.44-3.1,1.54-.76,1.37-.01,2.74.76,3.92,1.16,1.76,2.55,3.37,3.24,5.39.49,1.42,1.05,4.36.96,5.84-2.76-4.89-9.03-6.11-11.53-10.21-.28-.47-.78-.9-1.19-.35-3.37,4.51.46,10.28,5.6,12.92-5.02.66-10.72,3.4-13.62,7.12-.29.38-.19.83.07,1.1.04.1.12.19.25.25,6.72,2.93,16.38.28,21.16-5.36,1.73,2.96,3.23,6.46,6.6,7.85.59.24,1.2.41,1.82.55.04,1.34,1.38,2.24,2.67,2.19.57-.02,1.13-.32,1.36-.86.11-.27.12-.55.04-.79,1.46.11,2.91.1,4.27-.54.51-.24.52-1.13,0-1.36ZM59.3,45.91c-.1.38-.52.15-.74,0-.27-.19-.54-.45-.7-.75.45.06.9.11,1.35.16.07.14.16.33.08.6ZM54.68,42.57c-2.65-1.32-4.72-4.54-6.19-7.04-.19-.32-.62-.36-.88-.11-2.69,2.45-5.28,4.57-8.85,5.64-3.64,1.09-7.09.73-10.69,0,2.12-2.22,4.42-3.97,7.38-5.05,3.09-1.13,6.06-1.15,9.3-1.01.35.01.62-.24.7-.57.18-.84-.98-1.27-1.58-1.49-1.11-.4-2.22-.81-3.3-1.31-1.25-.58-2.48-1.21-3.55-2.08-2.36-1.91-3.16-4.92-1.9-7.58,2.81,4.5,9.25,5.47,11.35,10.6.32.79,1.6,1.01,1.84,0,.61-2.61.54-5.29-.3-7.85-.45-1.35-1.09-2.59-1.88-3.77-.42-.63-.82-1.27-1.3-1.86-1.23-1.49-1.25-2.15-.79-2.62,1.49-1.53,3.74.95,4.57,2.13.78,1.12,1.25,2.42,1.53,3.75.71,3.27.14,6.78-.2,10.07-.11,1.05,1.3,1.16,1.79.48,3.87-5.26,8.88-9.04,15.03-11.09-.72,2.64-1.52,5.04-3.6,7.1-1.27,1.26-2.77,2.3-4.39,3.07-.82.39-1.67.72-2.54.97-.66.19-1.81.15-1.88.96,0,.08,0,.16.02.24,1.26,4.28,4.29,7.28,7.84,9.65-2.52.24-5.48-.22-7.52-1.24Z"/>
      </g>
      <rect class="cls-3" width="100" height="100"/>
    </g>
  </g>
</svg>