<?xml version="1.0" encoding="UTF-8"?>
<svg id="Capa_2" data-name="Capa 2" xmlns="http://www.w3.org/2000/svg" viewBox="0 0 100 100">
  <defs>
    <style>
      .cls-1 {
        fill: #72ab4c;
      }

      .cls-2 {
        fill: #fff;
      }

      .cls-3 {
        fill: none;
      }

      .cls-4 {
        fill: #fea754;
      }

      .cls-5 {
        fill: #4a2d2d;
      }

      .cls-6 {
        fill: #fe9736;
      }
    </style>
  </defs>
  <g id="COLOR">
    <g>
      <g>
        <g>
          <path class="cls-1" d="M40.38,25.2s5.51-11.26,15.66-14.68c10.16-3.43,23.13-2.2,23.13-1.1s-5.02,15.54-18.72,18.11c-13.71,2.57-20.07-2.33-20.07-2.33Z"/>
          <path class="cls-6" d="M73.13,48.21c-1.63-3.51-7.67-9.79-20.89-14.44-4.4-1.55-8.03-2.23-11.15-2.39.13.49.28.99.41,1.48.2.74.41,1.58.36,2.36-.04.59-.28,1.13-.86,1.38-.54.23-1.17.17-1.74.12-.35-.03-.66-.28-.65-.65,0-1.02.13-2.01.25-3.02.07-.56.1-1.13.11-1.69-5.15.13-8.91,1.68-12.76,2.83-6.53,1.96-14.85,3.67-18.03,10.61-3.18,6.93-.57,18.52,3.26,24.96,3.83,6.45,8,9.63,13.62,10.36,5.63.73,19.91,3.1,30.84,1.55,10.93-1.55,17.38-10.85,18.6-16.72,1.22-5.87.24-13.22-1.39-16.72Z"/>
          <path class="cls-4" d="M71.99,72.6s4.65-.16,9.06-3.34c4.41-3.18,5.87-6.28,10.69-4.49s3.59,14.77-4.24,21.46c-7.83,6.69-21.86,7.67-30.51,1.39-8.65-6.28-10.28-14.93-7.34-19.09,2.94-4.16,7.34-2.94,10.2-1.14,2.86,1.79,5.55,5.14,12.16,5.22Z"/>
          <path class="cls-5" d="M16.18,45.68c-.46-.17-1.04-.07-1.4.24-.29.26-.47.62-.57,1-.12.48-.11,1.05.36,1.33.53.32,1.17.21,1.63-.18.48-.41.83-1.43.46-2-.12-.19-.3-.32-.5-.39Z"/>
          <path class="cls-5" d="M23.76,41.87c-.47-.38-1.24-.44-1.7.06-.43.46-.4,1.27.07,1.7.68.62,1.74.21,1.99-.65.14-.46-.04-.85-.36-1.1Z"/>
          <path class="cls-5" d="M21.17,50.61c-.41-.39-1.15-.4-1.51.14-.34.5-.11,1.08.32,1.41.15.09.32.13.5.14.14,0,.26-.02.38-.09.39-.2.65-.54.6-1.01-.03-.24-.13-.45-.29-.59Z"/>
          <path class="cls-2" d="M61.46,73.99c-1.78,2.05-3.33,4.26-4.27,6.82-.19.52.6.82.87.37,1.3-2.21,2.55-4.43,4.14-6.44.41-.52-.29-1.26-.74-.74h0Z"/>
          <path class="cls-2" d="M72.12,77c-.21,2.16-.51,4.36-.46,6.53.01.53.87.7.96.13.37-2.19.39-4.45.49-6.66.03-.65-.94-.63-1,0h0Z"/>
          <path class="cls-2" d="M81.2,74.32c1.68,2.17,3.09,4.64,4.93,6.66.46.5,1.15-.13.89-.68-1.2-2.47-3.25-4.7-4.99-6.8-.49-.59-1.27.24-.83.83h0Z"/>
          <path class="cls-5" d="M71.75,12c-2.78.47-5.53,1.74-8.17,2.72-.67.25-1.34.51-2.02.77.4-1.04.83-2.05,1.4-3.01.74-1.25,1.71-2.31,2.57-3.47.23-.32-.24-.58-.5-.38-2.13,1.66-3.71,4.54-4.4,7.22-1.7.66-3.4,1.33-5.08,2.04-1.64.69-3.27,1.4-4.9,2.12.41-1.42.83-2.81,1.45-4.17.67-1.47,1.57-2.78,2.35-4.2.16-.29-.23-.62-.47-.36-2.18,2.35-3.64,5.91-4.15,9.09-3.03,1.37-6.04,2.8-8.98,4.36-.51-2.02-1.34-5.22-3.59-5.16-3.15.09-.45,4.23.01,5.46,1.29,3.4,1.65,7.1,1.29,10.7-.85-.17-1.66-.5-2.38-1.08-.54-.44-1.24.24-.77.77,2.26,2.58,7.21,3.01,9.35.03.36-.5-.34-1.13-.83-.83-.59.37-1.24.67-1.92.88.64-3.15,0-6.58-.86-9.64,2.42-1.1,4.83-2.2,7.26-3.27.01.11.06.21.17.29,3.51,2.43,7.88,3.43,12.1,3.69.36.02.45-.57.09-.64-4.09-.79-8.1-1.31-11.65-3.64,2.58-1.14,5.18-2.25,7.8-3.3.49-.2.98-.39,1.47-.58.03.04.07.07.12.1,3.37,1.8,7.16,3.22,10.99,3.51.4.03.48-.61.09-.7-3.58-.81-6.95-1.7-10.27-3.28,1.76-.7,3.53-1.38,5.31-2.04,2.51-.92,5.22-1.6,7.6-2.83.68-.35.18-1.27-.49-1.16ZM39.33,35.84c.8-4.37.53-8.77-1.41-12.88-.19-.4-1.39-2.11.32-1.57.31.1.68,1.65.77,1.9.45,1.28.84,2.58,1.14,3.91.64,2.83.61,5.59.74,8.46,0,.04.02.07.02.1-.53.09-1.05.11-1.58.07Z"/>
          <path class="cls-5" d="M51.81,81.6c-1.75-2.84-3.29-5.74-2.7-9.21.58-3.36,2.86-6.57,6.61-5.72,2.91.66,5.16,2.89,7.76,4.24,2.29,1.19,5.14,2.51,7.78,2.22.75-.09.94-1.08.18-1.34-1.88-.65-3.79-1.11-5.61-1.95-1.74-.8-3.31-1.87-4.93-2.88-2.72-1.7-6.11-3.18-9.18-1.39-5.65,3.3-5.17,12.7-.96,16.85.54.53,1.47-.15,1.06-.82h0Z"/>
        </g>
        <path class="cls-2" d="M18.15,65.21c.78.09,1.54.21,2.29-.11.62-.27.62-1.38,0-1.65-.75-.32-1.51-.2-2.29-.11-1.2.13-1.2,1.74,0,1.87h0Z"/>
        <path class="cls-2" d="M16.64,60.16l.92-.59c.33-.21.47-.6.32-.97-.14-.33-.55-.58-.92-.45l-1.01.37c-.5.18-.8.69-.58,1.21.2.47.82.73,1.27.43h0Z"/>
      </g>
      <rect class="cls-3" width="100" height="100"/>
    </g>
  </g>
</svg>