<?xml version="1.0" encoding="UTF-8"?>
<svg id="Capa_2" data-name="Capa 2" xmlns="http://www.w3.org/2000/svg" viewBox="0 0 100 100">
  <defs>
    <style>
      .cls-1 {
        fill: #f1475d;
      }

      .cls-2 {
        fill: #fff;
      }

      .cls-3 {
        fill: none;
      }

      .cls-4 {
        fill: #4a2d2d;
      }

      .cls-5 {
        fill: #438f10;
      }
    </style>
  </defs>
  <g id="COLOR">
    <g>
      <g>
        <g>
          <path class="cls-5" d="M59.85,13.71c-9.67-7.29-30.94-4.66-42.64,4.54C5.5,27.45,1.56,43.34,4.43,56.59c2.87,13.26,10.03,23.41,26.76,26.64,16.72,3.22,32.13-3.7,39.77-15.05,7.64-11.35,5.52-23.47,5.02-25.56-1.79-7.52-6.45-21.62-16.12-28.91Z"/>
          <path class="cls-4" d="M29.76,23.97c5.59-2.01,11.49-3.39,17.45-3.35,2.8.02,5.6.38,8.31,1.13,2.98.83,5.39,2.39,8.13,3.72.44.21.92-.33.54-.7-1.9-1.84-4.72-2.93-7.21-3.74-2.76-.9-5.65-1.37-8.55-1.5-6.37-.27-12.67,1.25-18.62,3.4-5.58,2.02-10.51,4.71-14.48,9.2-3.69,4.18-6.52,9.16-8.88,14.2-.25.53.5.99.79.46,2.57-4.65,4.98-9.42,8.46-13.49,3.79-4.43,8.6-7.38,14.06-9.35Z"/>
          <path class="cls-4" d="M36.78,39.22c4.75-1.22,9.61-2.02,14.5-2.36,5.01-.34,9.84.17,14.82.4.6.03.75-.94.14-1.07-4.79-1.01-10.1-.83-14.96-.48-4.89.35-9.74,1.16-14.5,2.35-9.83,2.47-19.15,6.65-27.72,12.03-.56.35-.05,1.24.52.89,8.42-5.24,17.57-9.3,27.2-11.77Z"/>
          <path class="cls-4" d="M70.02,49.59c-8.04,6.32-18.8,9.07-28.84,10.03-10.21.98-20.66-.64-30.14-4.55-.42-.17-.73.55-.31.74,9.87,4.34,20.67,6.09,31.4,4.87,9.76-1.11,20.89-3.9,28.45-10.53.39-.35-.17-.88-.57-.57Z"/>
          <path class="cls-4" d="M68.29,63.98c-4.74,2.2-9.37,4.33-14.45,5.65-5.1,1.32-10.43,1.92-15.7,1.81-5.52-.12-10.72-1.1-15.64-3.66-4.48-2.34-8.13-5.73-12.37-8.4-.43-.27-.9.35-.54.7,3.72,3.6,8.53,6.79,13.15,9.08,4.77,2.36,9.79,3.28,15.08,3.4,10.4.23,22.11-1.99,30.93-7.77.51-.33.07-1.06-.47-.81Z"/>
        </g>
        <g>
          <path class="cls-5" d="M84.89,86.45c-14.33,11.63-33.29,10.12-46.58.56-13.3-9.56-14.17-26.36-14.01-27.71.16-1.35,3.59-4.68,4.14-5.26,1.67-1.74,53.43-6.99,64.13-6.22,1.05.08,1.71.21,1.88.41,1.75,2.07,4.78,26.6-9.56,38.22Z"/>
          <path class="cls-2" d="M80.27,84.62c-15.21,10.75-35.03,3.74-42.44-6.29-6.12-8.3-8.6-19.67-9.4-24.29.23-.24,1.38-.54,3.22-.88,10.58-1.96,44.07-5.27,57.34-5.42,1.45-.01,2.66,0,3.58.07.44,7.41.58,27.7-12.3,36.8Z"/>
          <path class="cls-1" d="M89.27,57.23c-.56,7.56-4.46,20.15-12.1,25.08-7.65,4.94-21.26,6.85-32.57-2.15-8.87-7.06-12-21.21-12.95-27,10.58-1.96,44.07-5.27,57.34-5.42.31,2.21.57,5.49.28,9.48Z"/>
          <path class="cls-4" d="M46.84,65.9c1.19.31,2.01-1.03,2.38-1.92.72-1.71.64-3.6.35-5.4-.07-.44-.52-.47-.8-.27-.36.26-2.59,2.91-2.98,4.69-.22,1.02-.24,2.56,1.05,2.9Z"/>
          <path class="cls-4" d="M64.76,65.63c.86-.07,1.41-.85,1.45-1.67.07-1.3-1.09-2.9-1.72-3.96-.16-.26-.68-.54-.92.1-.56,1.46-1.56,5.77,1.19,5.53Z"/>
          <path class="cls-4" d="M79.52,60.82c2.35-1.28-1.11-4.79-2.54-5.27-.3-.1-.93-.05-.91.65.04,1.34.24,2.66,1.06,3.75.55.72,1.47,1.37,2.38.87Z"/>
          <path class="cls-4" d="M73.02,75.33c2.77-.76-.25-5.14-1.31-6.11-.3-.28-.97-.3-1.06.45-.17,1.4-.45,3.04.12,4.38.37.87,1.26,1.56,2.25,1.28Z"/>
          <path class="cls-4" d="M54.62,77.86c2.74.8,2.23-5.11,1.71-6.39-.32-.78-.81-.55-1.03-.26-.91,1.17-1.56,2.39-1.75,3.89-.12.98-.08,2.42,1.08,2.76Z"/>
        </g>
        <path class="cls-4" d="M34.99,83.57c-3.46-3.98-5.92-8.26-7.52-13.29-.74-2.32-1.29-4.69-1.63-7.09-.29-2.03-1.4-6.59.99-7.61,1.18-.5,2.69-.56,3.95-.79,1.43-.26,2.85-.51,4.28-.75,2.75-.47,5.51-.92,8.27-1.34,5.58-.84,11.19-1.54,16.8-2.14,6.44-.69,12.89-1.25,19.34-1.81,1.15-.1,1.17-1.9,0-1.81-12.45.96-24.89,2.23-37.24,4.15-3.21.5-6.4,1.04-9.59,1.63-1.56.29-3.11.59-4.66.9-1.1.22-2.34.39-3.12,1.28-1.31,1.49-.92,4.12-.78,5.9.22,2.71.66,5.4,1.36,8.02,1.54,5.78,4.68,11.21,8.55,15.75.59.69,1.6-.31,1-1h0Z"/>
      </g>
      <rect class="cls-3" width="100" height="100"/>
    </g>
  </g>
</svg>