<?xml version="1.0" encoding="UTF-8"?>
<svg id="Capa_2" data-name="Capa 2" xmlns="http://www.w3.org/2000/svg" viewBox="0 0 100 100">
  <defs>
    <style>
      .cls-1 {
        fill: #c6cb79;
      }

      .cls-2 {
        fill: #fff;
      }

      .cls-3 {
        fill: none;
      }

      .cls-4 {
        fill: #4a2d2d;
      }
    </style>
  </defs>
  <g id="COLOR">
    <g>
      <g>
        <g>
          <path class="cls-1" d="M58.77,19.16c-2.42-3.04-6.1-4.77-9.88-5.39-4.41-.72-7.96.18-11.84,2.3-2.17,1.19-4.29,2.5-6.31,3.92-3.81,2.67-7.87,5.64-10.03,9.87-1.96,3.84-2.85,8.64-1.7,12.86,1.03,3.77,3.99,7.12,7.96,7.82,4.33.76,8-1.87,11.1-4.56,1.98-1.71,3.95-3.54,6.43-4.49,2.19-.84,4.54-1.13,6.77-1.86,4.04-1.31,7.82-3.65,9.54-7.7,1.8-4.26.81-9.21-2.03-12.77Z"/>
          <path class="cls-4" d="M30.96,46.94c.68.22,1.5.4,2.1-.07.32-.25.16-.74-.12-.93s-.57-.19-.89-.22c-.24-.03-.47-.09-.7-.16-.89-.28-1.27,1.11-.38,1.39h0Z"/>
          <path class="cls-4" d="M33.51,44.3c.45-.16.89-.3,1.27-.59.18-.14.29-.33.23-.57-.06-.21-.26-.36-.48-.37-.48,0-.91.13-1.36.26-.34.1-.55.46-.46.8.09.32.47.58.8.46h0Z"/>
          <path class="cls-2" d="M47.02,16.43c-2.33-.63-4.85.06-7,.97-1.87.79-4.62,2.03-5.23,4.15-.2.67.45,1.23,1.09,1.09.97-.22,1.64-.84,2.43-1.4.84-.59,1.74-1.12,2.68-1.54,1.94-.87,4.03-1.11,6.04-1.76.71-.23.77-1.3,0-1.5h0Z"/>
          <path class="cls-2" d="M30.11,25.08c-.14.11-.27.22-.39.36-.07.09-.15.18-.21.28-.08.15-.12.31-.13.48-.02.22.05.42.18.59s.3.27.5.32c.31.07.55,0,.82-.12.17-.07.32-.18.48-.29.23-.16.39-.35.48-.62.1-.31,0-.65-.19-.9-.17-.22-.39-.35-.68-.39-.34-.05-.61.07-.87.28h0Z"/>
        </g>
        <g>
          <path class="cls-1" d="M57.2,76.06c-.06-.06-.11-.11-.17-.15.15-.55.28-1.11.36-1.69.61-4.32-1.87-8.11-4.84-11.01-3.36-3.27-8.07-4.89-12.63-5.63-4.52-.74-9.25-.41-13.39,1.69-3.78,1.91-7.56,5.49-9.29,9.4-1.73,3.9-1.03,8.19,1.58,11.52,2.69,3.43,6.21,4.55,10.44,4.14,2.54-.25,4.98-.55,7.52,0,2.42.53,4.59,1.68,6.83,2.7,4.04,1.84,8.77,3.05,12.51-.12,3.2-2.71,3.87-7.62,1.08-10.85Z"/>
          <path class="cls-4" d="M43.44,77.23c3.97,2.02,9.76,2.11,13.38-.81.64-.52-.18-1.35-.82-1.06-2.05.94-3.8,1.81-6.11,1.93-2.08.11-4.12-.24-6.06-.99-.53-.21-.9.67-.39.93h0Z"/>
          <path class="cls-4" d="M50.18,87.41c.2-.04.4-.06.59-.14.31-.13.62-.52.51-.87-.11-.33-.46-.52-.79-.54-.23,0-.48.07-.7.11-.38.07-.64.55-.52.92.13.41.51.6.92.52h0Z"/>
          <path class="cls-4" d="M53.16,86.28s.05-.01.08-.02l-.19.03s.07,0,.11,0l-.19-.03c.09.01.19.04.29.03.12,0,.24-.03.34-.09.1-.06.18-.14.24-.24.12-.21.12-.47,0-.68-.11-.19-.31-.33-.51-.39-.08-.02-.17-.03-.25-.04-.04,0-.07,0-.11,0-.13,0-.26.03-.37.1l-.15.11c-.17.16-.23.39-.2.62.03.2.12.36.28.48.18.14.42.2.64.13h0Z"/>
          <path class="cls-4" d="M23.48,82.5c.39,0,.76,0,1.09-.23.45-.32.45-.89,0-1.21-.33-.24-.7-.22-1.09-.23-.44,0-.85.39-.83.83s.37.84.83.83h0Z"/>
          <path class="cls-2" d="M22.02,70.65c1.01-1.73,2.35-3.14,3.96-4.33,1.37-1.02,3.44-1.58,4.38-3.04.33-.51,0-1.24-.57-1.39-2.11-.56-4.54,1.44-6.06,2.72s-3.73,3.35-3.51,5.57c.09.9,1.28,1.38,1.8.49h0Z"/>
          <path class="cls-2" d="M33.21,62.54c.38-.1.81-.18,1.07-.5.22-.27.35-.58.25-.94s-.35-.55-.67-.67c-.39-.15-.82,0-1.2.09-.53.13-.9.76-.73,1.29s.72.88,1.29.73h0Z"/>
        </g>
        <g>
          <path class="cls-1" d="M87.13,43.51c-.54-4.17-2.39-8.38-5.78-11.01-1.01-.78-2.13-1.32-3.31-1.66-.04-.07-.09-.13-.16-.19-2.85-2.37-6.7-3.55-10.24-2.03-3.46,1.49-4.82,5.01-5.19,8.51-.23,2.18-.09,4.38-.39,6.56-.34,2.43-1.5,4.07-2.74,6.11-2,3.3-2.07,7.46-.55,10.96,1.73,3.98,5.27,5.61,9.36,6.4,3.99.76,8.01.14,11.23-2.42,6.04-4.79,8.73-13.77,7.77-21.23Z"/>
          <path class="cls-4" d="M68.7,34.62c1.21-1.41,2.76-2.16,4.58-2.48,1.36-.23,3.15.12,4.38-.5.43-.22.38-.84,0-1.08-1.36-.84-3.92-.14-5.33.32-1.72.57-3.32,1.49-4.48,2.9-.48.58.34,1.42.84.84h0Z"/>
          <path class="cls-4" d="M73.11,65.97c.69.19,1.53.11,1.88-.6.25-.51-.07-.99-.6-1.05.1.01.1.01.02,0-.15-.04-.29-.04-.44,0-.1.01-.1.01.01,0-.09,0-.18.02-.26.04-.08.02-.16.04-.25.06.2-.03-.1-.01-.14-.01-.4-.02-.73.32-.78.69s.19.77.57.87h0Z"/>
          <path class="cls-4" d="M76.08,63.7s.1-.01.15-.02c.15-.02.26-.13.36-.22.06-.06.1-.12.13-.2.04-.07.06-.15.05-.24,0-.15-.06-.33-.18-.43-.11-.09-.22-.2-.36-.22-.05,0-.1-.01-.15-.02-.12-.03-.25-.03-.37,0-.12.03-.22.09-.31.18-.13.14-.2.3-.2.49,0,.18.08.37.2.49.09.09.19.15.31.18.12.03.25.03.37,0h0Z"/>
          <path class="cls-2" d="M62.79,49.22c-2.43,1-4.37,6.17-2.01,8.1.41.33,1.14.39,1.41-.18.52-1.08.3-2.3.45-3.46.16-1.25.84-2.34,1.05-3.56.08-.48-.33-1.14-.9-.9h0Z"/>
          <path class="cls-2" d="M61.23,60.29l.16.23.15.19c.09.09.19.16.31.2.07.04.15.06.24.07.13.03.25.02.38-.02.13-.03.33-.14.42-.25l.15-.19c.07-.11.11-.23.11-.35.02-.08.02-.17,0-.25,0-.13-.04-.25-.11-.35l-.12-.25c-.06-.11-.15-.21-.25-.27-.09-.09-.21-.14-.33-.17-.13-.04-.26-.05-.39-.02-.13,0-.25.04-.36.12-.21.13-.39.33-.45.58s-.05.54.1.75h0Z"/>
        </g>
      </g>
      <rect class="cls-3" width="100" height="100"/>
    </g>
  </g>
</svg>