<?xml version="1.0" encoding="UTF-8"?>
<svg id="Capa_2" data-name="Capa 2" xmlns="http://www.w3.org/2000/svg" viewBox="0 0 100 100">
  <defs>
    <style>
      .cls-1 {
        fill: #fff;
      }

      .cls-2 {
        fill: #897777;
      }

      .cls-3 {
        fill: none;
      }

      .cls-4 {
        fill: #4a2d2d;
      }

      .cls-5 {
        fill: #e9e2bf;
      }
    </style>
  </defs>
  <g id="COLOR">
    <g>
      <g>
        <g>
          <path class="cls-5" d="M42.75,33.3c-.05-.37-.12-.75-.2-1.11-.67-3.02-2.26-5.58-5.34-6.87-6.29-2.63-12.69,1.41-16.11,6.63-2.03,3.09-3.54,6.77-4.49,10.34-.94,3.54-1.21,7.42.1,10.9,1.04,2.75,3.12,5.51,5.75,6.9,2.76,1.47,6.05.9,8.82-.27,2.44-1.04,4.14-2.66,5.51-4.65.5-.72.95-1.49,1.38-2.3.19-.35.37-.71.55-1.07.95-1.92,1.79-3.91,2.48-5.95.9-2.64,1.7-6.16,1.73-9.58.01-1.01-.04-2-.18-2.97Z"/>
          <path class="cls-2" d="M38.18,52.86c-.43.81-.88,1.58-1.38,2.3-.49-.27-1.11-.63-1.79-1.07-1.78-1.15-5.09-4.08-5.47-7.97-.39-3.89,1.82-8.5,4.85-10.8,2.53-1.93,6.99-2.04,8.37-2.02.14.96.2,1.96.18,2.97-1.92.07-5.24.78-7.35,2.85-2.45,2.4-3.5,6.67-2.02,9.6,1.07,2.11,3.4,3.52,4.61,4.15Z"/>
          <path class="cls-4" d="M42.81,33.06c-5.74-.55-12.2,3.18-13.53,8.83-1.17,4.98,1.79,11.77,7,13.44.64.2,1.11-.21.62-.55-1.93-1.37-4.45-3.39-5.55-5.54-1.15-2.23-1.4-4.79-.78-7.21,1.3-5.05,7.14-8.56,12.28-8.26.64.04-.05-.7-.05-.7Z"/>
          <path class="cls-4" d="M42.88,35.94c-4.15-.64-9.1,2.93-10.28,6.73-1.07,3.43,1.36,9.45,5.44,10.31.62.13.4-.31-.07-.67-1.44-1.11-3.27-2.42-4.07-4.16-.81-1.77-.56-3.7.15-5.45s2.14-3.46,3.68-4.42,3.38-1.32,5.06-1.61c.51-.09.1-.72.1-.72Z"/>
          <path class="cls-4" d="M27.1,59.05h.59c.34,0,.61-.11.81-.38.11-.15.11-.43,0-.59-.2-.28-.47-.39-.81-.39h-.59c-.35,0-.69.31-.68.68s.3.67.68.68h0Z"/>
          <path class="cls-4" d="M28.55,56.93c.16-.04.32-.07.48-.11.21-.05.39-.28.38-.49s-.15-.44-.38-.49c-.16-.04-.32-.08-.48-.11-.4-.09-.8.19-.8.61s.4.7.8.61h0Z"/>
          <path class="cls-1" d="M32.74,26.19c-2.41.07-5.87,1.49-6.57,4.06-.19.7.59,1.3,1.22.93.92-.54,1.61-1.41,2.52-1.98s1.99-1,3.07-1.3c.93-.26.77-1.74-.23-1.71h0Z"/>
          <path class="cls-1" d="M23.6,33.62c-.39.47-.81.91-1.02,1.49-.11.31.06.7.3.89.27.21.64.24.94.07.46-.26.78-.7,1.12-1.1s.4-.98,0-1.35c-.35-.32-1.01-.41-1.35,0h0Z"/>
        </g>
        <g>
          <path class="cls-5" d="M78.68,25.53c-1.58-3.77-4.07-7.65-7.61-9.85-5.24-3.25-11.61-2.92-16.2,1.39-1.12,1.05-2.13,2.39-2.31,3.96-.16,1.43.38,2.86.92,4.25.24.62.48,1.24.65,1.84,1.26,4.43-.04,8.57-.71,12.98-.07.49-.14.98-.17,1.46-.24,3.03.31,5.94,3.02,7.86,6.03,4.31,14.83,1.94,19.51-3.2,5.22-5.74,5.84-13.7,2.9-20.7Z"/>
          <path class="cls-2" d="M57.57,35.82c-.38,1.53-1.47,3.42-2.72,4.64-.5.48-1.08.85-1.59,1.11.04-.49.1-.98.17-1.46.67-4.41,1.98-8.54.71-12.98-.17-.6-.41-1.22-.65-1.84.38.47,2.98,3.7,3.69,5.09.77,1.5.77,3.91.38,5.44Z"/>
          <path class="cls-4" d="M53.27,24.66c-.03.07-.02.14-.01.21.11.96.52,1.89,1.18,2.6,1.19,1.29,2.33,2.6,2.62,4.43.27,1.7-.17,3.64-.88,5.2-.75,1.66-1.66,2.56-3.04,3.86-.45.42,0,1.49.53,1.16,2.79-1.72,4.95-5.68,4.85-8.93-.04-1.57-.51-2.84-1.31-4.2-.87-1.46-2.3-2.59-3.17-4.29-.12-.24-.65-.36-.78-.05Z"/>
          <path class="cls-4" d="M69.21,47.25c.72-.03,1.71.1,2.35-.29.35-.21.43-.85,0-1.04-.71-.32-1.6-.11-2.35-.05-.87.07-.89,1.41,0,1.37h0Z"/>
          <path class="cls-4" d="M71.13,44.44l.64-.04c.32-.02.62-.26.61-.61s-.27-.58-.61-.61l-.64-.04c-.34-.02-.67.32-.65.65s.29.68.65.65h0Z"/>
          <path class="cls-1" d="M63.84,15.54c-2.01-.21-4.91.77-5.76,2.78-.21.5.16,1.35.83,1.08.85-.35,1.57-.91,2.39-1.32.87-.44,1.83-.68,2.77-.92s.65-1.52-.22-1.62h0Z"/>
          <path class="cls-1" d="M55.55,21.26l.02.26c0,.13.03.25.1.36.06.11.15.19.26.26.22.13.5.13.72,0l.2-.12c.26-.16.43-.44.43-.75s-.17-.59-.43-.75-.61-.16-.88,0c-.13.08-.23.18-.31.31-.08.14-.12.28-.12.44h0Z"/>
        </g>
        <g>
          <path class="cls-5" d="M80.06,61.37c-2.43-3.44-6.43-5.08-10.54-5.33-.94-.05-1.89-.03-2.83.05-.79.07-1.57.18-2.34.3-.55.09-1.1.18-1.65.28-3.33.59-6.55,1.72-9.62,3.14-.7.32-1.4.66-2.08,1.01-.67.34-1.34.69-2,1.06-3.44,1.89-6.2,4.45-7.25,8.34-.85,3.14-.6,6.84,1.43,9.49,1.78,2.32,4.58,3.57,7.39,4.14,7.4,1.51,15.65-.96,22.08-4.6,3.33-1.89,6.52-4.58,8.3-8.03,1.66-3.22,1.21-6.91-.86-9.84Z"/>
          <path class="cls-2" d="M63.45,66.5c-2.17,1.54-5.63,2.69-7.74,2.69s-2.75-.71-4.03-3.01c-.79-1.41-.8-3.76-.69-5.37.69-.35,1.38-.69,2.08-1.01.07,1.51.37,3.5,1.43,4.14,1.79,1.09,5.31-.45,7.49-1.66,2.18-1.22,2.37-1.03,2.43-3.84.02-.8-.01-1.48-.07-2.05.78-.12,1.56-.23,2.34-.3.58,1.37,1.32,3.33,1.44,4.65.19,2.24-2.5,4.22-4.67,5.76Z"/>
          <path class="cls-4" d="M50.58,61.33c-.53,2.54.1,5.69,2.21,7.32,2.45,1.88,5.37,1.38,7.98.13,2.56-1.23,5.37-2.99,7-5.38,1.28-1.88,1.45-5.49-.46-7.2-.49-.44-1.11-.43-.79.17,1.18,2.23,1.18,5.17-.56,7.05-1.4,1.51-3.23,2.69-5.03,3.67-2.06,1.13-4.49,2.1-6.73.86s-3.11-4.57-2.78-7.02c.08-.59-.72-.17-.84.41h0Z"/>
          <path class="cls-4" d="M52.72,60.23c-.48,1.32.05,3.17,1.12,4.05,1.31,1.08,2.86.83,4.36.34,3.22-1.04,7.16-2.95,6.56-7.61-.1-.79-.84-1.09-.82-.26.12,3.62-2.17,5.29-4.63,6.26-.99.39-2.97,1.01-4.06.72-1.23-.32-1.77-2.65-1.8-3.79-.01-.64-.54-.28-.74.29h0Z"/>
          <path class="cls-4" d="M75.31,73.48c.51.08,1.08.09,1.51-.23.22-.17.36-.41.28-.69-.07-.24-.33-.48-.59-.45-.19.02-.38.04-.57.08-.05,0-.05,0,0,0-.04,0-.07,0-.11,0-.03,0-.24,0-.16,0-.35-.05-.74.08-.82.47-.07.32.1.77.47.82h0Z"/>
          <path class="cls-4" d="M76.25,70.57c.18-.01.37,0,.53-.07.06-.03.13-.05.19-.09.11-.06.18-.15.26-.25.1-.13.1-.41,0-.54-.07-.09-.14-.18-.24-.24-.06-.04-.14-.06-.2-.09-.16-.07-.35-.06-.53-.07-.35-.02-.69.33-.68.68s.3.7.68.68h0Z"/>
          <path class="cls-1" d="M48.38,64.71c-1,.31-1.96.83-2.64,1.64s-1.41,1.93-.99,2.99c.24.61.88.79,1.38.37.6-.5.82-1.32,1.27-1.94s.98-1.14,1.63-1.52c.8-.47.28-1.82-.65-1.53h0Z"/>
          <path class="cls-1" d="M44.77,72.75c.72,0,.72-1.12,0-1.12s-.72,1.12,0,1.12h0Z"/>
          <path class="cls-1" d="M71.77,59.27c.44,0,.97.06,1.35-.21.51-.37.51-1,0-1.37-.38-.28-.9-.22-1.35-.21-.47,0-.92.41-.9.9s.39.89.9.9h0Z"/>
        </g>
      </g>
      <rect class="cls-3" width="100" height="100"/>
    </g>
  </g>
</svg>