<?xml version="1.0" encoding="UTF-8"?>
<svg id="Capa_2" data-name="Capa 2" xmlns="http://www.w3.org/2000/svg" viewBox="0 0 100 100">
  <defs>
    <style>
      .cls-1 {
        fill: #fff;
      }

      .cls-2 {
        fill: #897777;
      }

      .cls-3 {
        fill: none;
      }

      .cls-4 {
        fill: #4a2d2d;
      }

      .cls-5 {
        fill: #b7abab;
      }
    </style>
  </defs>
  <g id="COLOR">
    <g>
      <g>
        <g>
          <path class="cls-2" d="M45.16,47.76c-1.13-4.08-3.75-7.27-6.09-10.69-2.55-3.72-3.11-8.4-6.27-11.77-1.79-1.91-4.43-3.26-7.08-3.12-3.46.18-6.3,2.69-8.15,5.44-2.15,3.22-3.42,6.89-3.42,10.78,0,3.8,1.14,7.49,2.83,10.86,1.69,3.39,3.84,6.66,6.82,9.04,5.62,4.48,14.48,5.89,19.42-.4,2.26-2.88,2.91-6.65,1.94-10.15Z"/>
          <path class="cls-5" d="M34.31,37.87s-2.58-2.02-3.69-1.57-1.82,2.48-.15,6.37,4.6,6.27,6.07,5.61c1.47-.66,1.16-3.13.81-4.85s-3.03-5.56-3.03-5.56Z"/>
          <path class="cls-4" d="M37.77,44.25s0-.01,0-.02c-.49-2.74-3.44-10.06-7.35-8.67-3.34,1.19-.82,6.75.17,8.76,1.03,2.08,3.66,6.28,6.48,4.03,1.23-.99.94-2.75.69-4.1ZM36.63,46.03c-.12,1.9-1.8,1.71-2.82.61-.7-.75-1.21-1.7-1.71-2.59-.55-.98-1.08-1.99-1.49-3.04-.32-.82-.68-1.66-.79-2.54-.15-1.27,1.01-1.86,2.13-1.52,1.65.5,2.62,2.17,3.27,3.65.72,1.62,1.51,3.65,1.4,5.44Z"/>
          <path class="cls-4" d="M37.69,59.53c.06.02.12.03.19.04.07,0,.13.02.2.02.26-.02.5-.09.68-.29.09-.1.17-.22.2-.34.05-.17.03-.35-.04-.51-.05-.13-.13-.23-.24-.31-.13-.1-.3-.18-.47-.17-.12,0-.24.03-.35.05l.21-.03s-.07,0-.11,0l.21.03s-.04,0-.06-.01c-.2-.06-.44-.02-.61.08-.16.1-.32.29-.37.48-.05.2-.04.43.08.61s.27.29.48.37h0Z"/>
          <path class="cls-4" d="M40.19,56.69s.09-.03.13-.03l-.2.03c.09,0,.19-.02.28-.04l-.19.03s.06,0,.09,0c.16,0,.24-.04.38-.1l-.16.07s.03-.01.04-.02c.15-.05.3-.14.38-.29s.11-.32.06-.49c-.12-.45-.58-.68-1.02-.66-.46.02-.82.41-.76.87.03.21.12.37.29.5.18.14.45.22.67.14h0Z"/>
          <path class="cls-1" d="M24.51,24.69c-2.09.34-3.82,1.57-5.09,3.24-1.13,1.47-2.74,3.98-1.94,5.9.17.41.67.77,1.12.45,1.38-.98,1.77-2.85,2.67-4.23,1-1.54,2.39-2.78,3.91-3.78.85-.56.29-1.74-.67-1.58h0Z"/>
          <path class="cls-1" d="M17.23,36.92c-.04.3-.09.59-.1.89,0,.17,0,.35.05.52.01.12.06.23.12.34.19.23.22.28.09.14.16.34.6.5.94.45.39-.05.66-.31.79-.68-.04.13-.02.12.03-.04.04-.07.06-.14.07-.21.03-.15.05-.31.06-.47,0-.09,0-.19.02-.28-.05.19,0,0,.02-.08.1-.56-.15-1.2-.76-1.33-.52-.12-1.24.16-1.33.76h0Z"/>
        </g>
        <g>
          <path class="cls-2" d="M86.26,28.02c-1.56-3.33-4.32-5.72-7.69-7.11-3.62-1.49-7.7-1.88-11.59-1.78-3.87.1-7.76.71-11.12,2.73-2.89,1.74-5.31,4.33-6.98,7.26-2,3.52-1.87,7.42-.38,11.13,1.48,3.68,4.55,6.07,8.37,6.94,2.32.53,4.93.63,7.48.34,1.23-.14,2.44-.36,3.6-.68,2.04-.54,4.3-.8,6.44-.94,1.09-.07,2.21-.04,3.32-.04,1.09,0,2.18-.01,3.25-.17,3.57-.53,6.36-2.73,7.16-6.34.83-3.72-.28-7.96-1.87-11.35Z"/>
          <path class="cls-5" d="M77.73,45.88c-1.11,0-2.22-.03-3.32.04-2.14.14-4.4.4-6.44.94-1.16.31-2.37.54-3.6.68-.52-1.01-1-2.7.12-4.11,1.72-2.17,7.38-3.54,10.11-2.27s3.14,3.08,3.18,3.89c.02.22,0,.52-.05.84Z"/>
          <path class="cls-4" d="M64.89,43.81c1.66-3.19,11.34-3.84,12.43,1.74.18.92.81-.13.66-1.04-.74-4.35-5.46-4.96-9.02-4.16-1.78.4-3.83.99-4.95,2.56-.86,1.21-.94,3.26.02,4.43.43.52,1.07.4.91-.15-.1-.35-.87-1.82-.05-3.39Z"/>
          <path class="cls-4" d="M83.63,42.58l.15-.07s.05-.02.07-.03c.13-.07.2-.16.28-.28.13-.18.12-.44.04-.63s-.25-.36-.46-.41c-.14-.03-.26-.04-.4,0-.03,0-.06.02-.09.03l-.16.05c-.43.12-.65.59-.48,1,.08.19.21.31.39.39.23.1.44.07.66-.04h0Z"/>
          <path class="cls-4" d="M83.87,39.58s.08-.02.11-.03c.07-.02.16-.05.22-.09.06-.04.12-.09.17-.13.19-.15.29-.41.26-.65-.04-.3-.27-.52-.56-.6-.09-.03-.19-.05-.29-.04-.04,0-.09.01-.13.02-.14,0-.27.04-.39.11l-.16.12c-.1.1-.16.21-.2.34-.03.1-.04.21-.01.31.03.21.12.38.29.51.19.15.44.21.68.14h0Z"/>
          <path class="cls-1" d="M58.12,22.59c-1.94.78-3.68,1.94-5.04,3.55-1.08,1.27-2.44,3.15-1.87,4.9.19.58.95.85,1.41.37,1.02-1.08,1.3-2.64,2.24-3.81,1.1-1.35,2.55-2.33,3.96-3.34.77-.55.33-2.09-.7-1.67h0Z"/>
          <path class="cls-1" d="M50.52,34.77l.15.58c.04.18.11.35.22.49.15.2.33.3.56.39.17.07.41.02.57-.04.18-.08.3-.19.42-.36.34-.48.07-1.07-.09-1.56s-.66-.82-1.16-.66-.79.65-.66,1.16h0Z"/>
        </g>
        <g>
          <path class="cls-2" d="M72.16,63.6c-.8-5.88-5.26-11.75-11.54-12.39-3.62-.37-7.17,1.14-9.78,3.64-.86.82-1.48,1.75-2,2.74-1.21,2.3-1.83,4.9-3.36,7.1-1.92,2.76-4.45,5.13-5.85,8.19-.2.44-.38.89-.52,1.36-1.13,3.58-.57,7.81,1.87,10.74,2.36,2.84,6.45,3.93,10.01,3.95,8.06.05,14.61-5.62,18.35-12.34,2.24-4.02,3.46-8.39,2.84-13Z"/>
          <path class="cls-5" d="M48.46,69.21c-1.72,2.22-4.65,4.19-6.32,4.25-.91.03-1.8-.22-2.51-.56,1.4-3.07,3.94-5.44,5.85-8.19,1.53-2.2,2.15-4.8,3.36-7.1.83.93,2.24,2.76,2.35,4.43.15,2.38-1.01,4.96-2.73,7.18Z"/>
          <path class="cls-4" d="M39.57,73.02c1.45,1.33,4.12,1.21,5.58.11,1.71-1.28,3.48-2.88,4.76-4.59,2.23-2.99,2.77-8.23-.56-10.78-.58-.44-1.06-.08-.66.4,2.07,2.49,1.89,6.68.18,9.23-1.5,2.25-5.7,6.4-8.73,5-.63-.3-.58.63-.58.63Z"/>
          <path class="cls-4" d="M55.35,86.01c.12.02.25.04.37.06.18.03.32.02.5,0,.24-.03.44-.13.54-.36.09-.21.06-.49-.12-.65-.12-.1-.24-.23-.37-.3-.11-.06-.22-.1-.34-.15-.2-.09-.38-.13-.59-.08-.23.05-.41.23-.5.44-.16.38.04.95.5,1.03h0Z"/>
          <path class="cls-4" d="M57.76,84.18c.08.01.15.03.23.04.17.03.29.05.46,0,.07-.02.17-.07.24-.11.15-.08.29-.26.33-.43l.03-.19c0-.13-.03-.25-.1-.36-.11-.24-.32-.36-.54-.47-.21-.11-.42-.13-.64-.08-.25.06-.44.25-.54.48-.09.21-.09.43,0,.64s.29.44.54.48h0Z"/>
          <path class="cls-1" d="M61.44,53.24c-2.21-1.58-7.81-.3-7.73,2.97.01.59.55.97,1.11.85,1.12-.25,1.95-1.21,2.99-1.68,1.1-.5,2.28-.51,3.45-.71.73-.13.68-1.08.19-1.43h0Z"/>
          <path class="cls-1" d="M41.81,77.17c.11.34.25.71.59.88.15.07.29.11.45.08.14-.02.31-.08.41-.19.13-.16.22-.31.26-.51.04-.18.03-.32.01-.5-.02-.24-.09-.44-.26-.62-.19-.2-.47-.28-.74-.24-.24.03-.43.14-.57.33-.16.21-.24.5-.16.77h0Z"/>
        </g>
      </g>
      <rect class="cls-3" width="100" height="100"/>
    </g>
  </g>
</svg>