<?xml version="1.0" encoding="UTF-8"?>
<svg id="Capa_2" data-name="Capa 2" xmlns="http://www.w3.org/2000/svg" viewBox="0 0 100 100">
  <defs>
    <style>
      .cls-1 {
        fill: #fff;
      }

      .cls-2 {
        fill: none;
      }

      .cls-3 {
        fill: #4a2d2d;
      }

      .cls-4 {
        fill: #fcd59c;
      }
    </style>
  </defs>
  <g id="COLOR">
    <g>
      <g>
        <g>
          <path class="cls-4" d="M86.41,41.85c-1.96-2.73-4.64-4.77-7.81-5.9-3.44-1.24-8.79-1.61-12.23-.08-1.2-1.18-3.48-.43-4.94-1-1.61-.62-2.79-1.16-4.25.18-1.46,1.34-1.5,3.31-1.11,5.13.22,1.03.5,2.12,1.11,2.99.21.3.48.56.78.75-2.26,5.67-1.59,11.89,1.16,17.32,2.56,5.07,7.98,9.4,13.95,7.33,1.3-.45,2.38-1.24,3.37-2.18,1.44-1.37,2.56-2.44,4.46-3.14,2.78-1.03,5.38-1.99,7.26-4.42,4.09-5.27,1.78-12.05-1.75-16.97Z"/>
          <path class="cls-4" d="M47.05,30.64c-2.05-3.36-4.76-7.05-8.35-8.87-3.62-1.83-8.41-1.59-12.34-1.34-3.71.23-7.86.96-10.28,4.08-2.31,2.98-1.45,6.21-.12,9.41.87,2.09,1.4,3.79.82,6.05-.52,2.01-1.51,3.94-1.47,6.07.08,3.52,2.89,6.02,6.03,7.1,4.13,1.42,9.67,1.28,13.74-.25,3.86-1.45,7.07-4.22,9.11-7.79,2.58.21,5-1.51,5.8-4.11,1.07-3.46-1.19-7.47-2.94-10.34Z"/>
          <path class="cls-3" d="M42.44,34.45c-.73.71-1.33,1.25-2.31,1.63-.73.28-1.53.43-2.19.86-.8.52-1.09,1.35-.52,2.2.7,1.05,2.49,1.29,3.61,1.8,1.47.68,2.54,1.6,2.54,2.7,0,1.63-.86,3.22-.39,3.01.55-.24,1.39-1.72,1.47-3.09.09-1.54-.63-2.56-2.32-3.41-1.09-.55-3.58-.91-3.49-1.96.06-.69.73-.8,1.69-1.14,1.26-.45,2.7-1.48,2.7-2.31,0-.52-.41-.65-.78-.29h0Z"/>
          <path class="cls-4" d="M56.04,58.85c-.92-2-1-4.7-2.48-6.41-1.8-2.09-4.5-1.28-6.43.15-.69.51-1.27,1.3-2.03,1.7-.97.51-2.31.44-3.36.7-3.3.84-6.21,2.92-8.44,5.45-2.62,2.98-4.21,6.77-5,10.64-.69,3.4-1.43,7.76.43,10.92.77,1.3,1.99,2.41,3.47,2.82,2.12.59,4.27-.49,6.42-.09,3.74.7,6.42,4.78,10.55,3.92,3.46-.72,6.25-4.57,7.95-7.43,1.8-3.04,2.79-6.68,3.11-10.18.44-4.78-2.31-8.08-4.2-12.21Z"/>
          <path class="cls-3" d="M18.42,36.8c.42,1.01,1.39,1.48,2.38,1.81,1.31.43,2.71.69,4.07.9,2.83.43,5.69.53,8.54.24.82-.08,1.63-.2,2.44-.34.63-.11,1.73-.16,2.09-.77.1-.17.03-.37-.12-.47-.33-.22-.73-.12-1.11-.07-.42.06-.83.15-1.25.22-.84.14-1.68.25-2.53.33-1.69.16-3.39.19-5.08.12s-3.4-.27-5.08-.6c-1.28-.25-3.03-.43-3.84-1.59-.17-.24-.65-.1-.52.22h0Z"/>
          <path class="cls-3" d="M41.48,55.78c-.79.91-.79,2.28-.08,3.25.98,1.34,2.59,1.1,4.03.85.63-.11,1.44-.13,1.94.34.54.5.47,1.37.59,2.03s.39,1.33.97,1.67c.71.42,1.51.16,2.13-.29.73-.54,1.3-1.25,2.01-1.82.37-.29.78-.54,1.23-.67s.87-.06,1.32-.09.56-.55.22-.8c-.58-.43-1.46-.26-2.08-.02-.7.27-1.3.73-1.84,1.25s-1.05,1.17-1.71,1.54-1.15-.03-1.35-.71-.13-1.33-.39-1.96c-.23-.57-.67-.99-1.25-1.21s-1.24-.23-1.85-.18c-.77.06-1.6.3-2.37.1-1.17-.31-1.6-1.89-1-2.87.2-.32-.28-.71-.54-.41h0Z"/>
          <path class="cls-3" d="M49.99,54.55c-.39.26-.61.71-.76,1.14s-.26.87-.3,1.31.05.92.38,1.26c.16.17.36.28.57.36.23.08.54.14.75,0l-.23.06c.2-.02.44-.12.5-.34.06-.21-.1-.42-.27-.52l.16.16c-.09-.18-.27-.24-.43-.33-.06-.03-.13-.07-.19-.1-.03-.02-.05-.03-.08-.05.09.06,0,0-.01-.02-.05-.04.03.06,0,0,0-.01-.06-.1-.03-.03-.01-.03-.02-.07-.03-.1s0-.08,0-.02c-.01-.17,0-.34.02-.51,0-.04,0-.08.01-.12,0-.01.01-.09,0-.04.01-.09.03-.18.05-.27.03-.17.08-.33.12-.5.1-.35.25-.7.28-1.06.02-.25-.3-.42-.5-.29h0Z"/>
          <path class="cls-3" d="M47.25,39.19c-.44-.46-1.01-.88-1.63-1.03-.33-.08-.67-.12-1.01-.08-.17.02-.34.07-.5.13-.05.02-.09.04-.13.06,0,0-.1.07-.07.05-.09.06-.18.11-.24.21-.11.16-.07.44.14.5.11.03.18.03.29.04.07,0-.04,0,.03,0,.05,0,.11,0,.16,0,.07,0,.14-.01.21-.01-.05,0-.01,0,.02,0,.06,0,.12,0,.17,0-.07,0,0,0,.04,0s.06,0,.09,0c.02,0,.18,0,.14,0-.05,0,.04,0,.05,0,.14,0,.28.02.42.03.13.02.26.03.39.06.02,0,.07.02.02,0,.03,0,.06.02.09.03.08.02.18.05.23.07.22.07.45.23.63.39.27.24.7-.19.45-.45h0Z"/>
          <path class="cls-3" d="M39.7,84.21c1.08-.71,1.92-1.73,2.72-2.73s1.6-2.13,2.29-3.27c1.37-2.25,2.43-4.76,3.07-7.32.34-1.36.82-2.99.47-4.38-.07-.29-.51-.31-.64-.05-.54,1.11-.6,2.45-.88,3.64s-.66,2.49-1.11,3.69c-.89,2.39-2.09,4.72-3.59,6.78-.84,1.15-1.84,2.18-2.64,3.36-.13.18.14.39.31.28h0Z"/>
          <path class="cls-3" d="M67.69,45.77c.1,1.38.69,2.72,1.24,3.99s1.25,2.59,2,3.82c1.5,2.46,3.26,4.8,5.24,6.89.57.61,1.18,1.17,1.84,1.68.58.44,1.39,1.03,2.15.9.29-.05.35-.39.25-.61-.14-.3-.41-.49-.67-.69-.28-.21-.55-.43-.83-.65-.53-.42-1.02-.88-1.5-1.36-.97-.96-1.88-2-2.76-3.04-1.77-2.11-3.32-4.4-4.59-6.84-.35-.68-.68-1.37-.99-2.06s-.59-1.44-.98-2.12c-.1-.17-.41-.11-.39.11h0Z"/>
          <path class="cls-3" d="M59.97,37.94c.05.17.12.34.22.49s.22.3.35.42c.26.26.59.46.94.57.1.03.2.04.3.06.14.02.27.02.39-.08.08-.07.13-.17.1-.29-.04-.15-.16-.23-.29-.28-.02,0-.12-.04-.04-.02-.05-.02-.1-.04-.14-.06-.03-.01-.11-.06-.15-.06h.02s.03.02-.07-.02c.09.04,0,0-.01,0-.15-.07-.28-.15-.42-.24-.04-.02-.08-.05-.11-.08-.02-.01-.04-.03-.06-.04-.05-.04.03.03,0,0-.07-.06-.14-.12-.2-.18s-.13-.13-.19-.19c-.03-.03-.06-.07-.09-.1-.01-.02-.03-.03-.04-.05-.03-.04,0,.01-.03-.03-.08-.1-.19-.16-.32-.1-.11.05-.19.18-.15.3h0Z"/>
          <path class="cls-3" d="M66.56,35.88s-.39-.23-.41-.21c.49,1.1.38,3.39.16,4.27-.25,1-1.05,2.08-2.06,2.4-1.09.35-1.97-.88-3.1-.6-.54.14-.87.64-1.18,1.06-.26.35-.75,1-2.38.72-.05,0-.09-.02-.14-.03.64.68,1.61,1.04,2.44.42.34-.26.64-.6.9-.93.21-.27.46-.53.83-.5.66.05,1.2.56,1.86.66.62.1,1.2-.13,1.72-.46.99-.64,1.76-1.6,2.1-2.74.18-.6.23-1.25.12-1.87-.28-1.63-.83-2.11-.86-2.2Z"/>
        </g>
        <path class="cls-1" d="M19.95,26.96c.14-.43.13-.88-.11-1.28l.19.7c0-.19.03-.36-.05-.55l-.13-.3c-.08-.15-.19-.26-.32-.35-.2-.16-.49-.3-.76-.27-.29.03-.45.05-.71.2-.04.02-.09.05-.13.07l.7-.19c-.46-.03-.85.23-1.16.53-.36.36-.54.94-.38,1.43.12.37.34.68.68.88s.77.25,1.14.15c.51-.14.87-.53,1.03-1.03h0Z"/>
        <path class="cls-1" d="M23.34,25.18c.15-.11.31-.21.44-.34l.18-.24c.09-.13.13-.28.14-.43.03-.1.03-.21,0-.31,0-.16-.05-.3-.14-.43l-.18-.24-.24-.18c-.13-.09-.28-.13-.43-.14-.16-.03-.31-.03-.47.02-.13.05-.27.09-.39.17l-.12.07c-.14.07-.25.18-.33.31-.11.11-.18.25-.21.4-.05.16-.06.32-.02.47,0,.16.05.31.14.44l.19.24c.15.15.32.25.53.31l.32.04c.21,0,.42-.05.6-.16h0Z"/>
        <path class="cls-1" d="M32.92,79.76v-.02c-.08-.27-.21-.5-.41-.69-.2-.19-.43-.33-.69-.4-.16-.05-.34-.09-.5-.08l-.41.06c-.13.05-.26.1-.39.16-.02,0-.03.02-.05.02-.12.06-.22.14-.3.24-.14.13-.24.28-.3.46-.09.17-.13.35-.12.55-.01.13,0,.27.05.4,0,.02.01.04.02.06.08.27.21.5.41.71.09.1.26.21.39.29.46.28,1.13.3,1.59,0h.02c.1-.09.21-.17.31-.25.15-.14.26-.31.32-.5.07-.12.11-.25.11-.39.05-.21.04-.41-.03-.62h0Z"/>
        <path class="cls-1" d="M32.43,74.87v-.02c-.09-.14-.21-.25-.35-.33-.15-.08-.3-.13-.47-.13-.17,0-.33.04-.47.13-.14.08-.25.19-.33.33v.02c-.1.15-.14.31-.14.48,0,.17.04.33.13.48.17.29.48.47.82.47s.65-.18.82-.47c.09-.15.13-.31.13-.48,0-.17-.04-.33-.13-.48h0Z"/>
        <path class="cls-1" d="M86.36,55.66c.2,0,.39-.03.57-.13.18-.06.34-.16.47-.3.14-.13.25-.29.3-.47.09-.18.13-.36.13-.57l-.05-.39c-.07-.25-.2-.47-.38-.65l-.3-.23c-.23-.13-.48-.2-.74-.2-.2,0-.39.03-.57.13-.18.06-.34.16-.47.3-.14.13-.25.29-.3.47-.09.18-.13.36-.13.57l.05.39c.07.25.2.47.38.65l.3.23c.23.13.48.2.74.2h0Z"/>
        <path class="cls-1" d="M85.77,49.34l-.04.02c-.07.03-.17.06-.22.09-.14.08-.24.19-.32.32-.03.07-.06.14-.09.22,0,0,0,.01,0,.02v.02c-.04.09-.05.12-.05.28,0,.35.19.69.5.87.16.09.33.14.51.14l.27-.04c.17-.05.32-.13.44-.26.12-.13.21-.27.26-.44.1-.35,0-.72-.26-.98-.13-.12-.27-.21-.44-.26-.18-.05-.36-.05-.53,0h0Z"/>
      </g>
      <rect class="cls-2" width="100" height="100"/>
    </g>
  </g>
</svg>