<?xml version="1.0" encoding="UTF-8"?>
<svg id="Capa_2" data-name="Capa 2" xmlns="http://www.w3.org/2000/svg" viewBox="0 0 100 100">
  <defs>
    <style>
      .cls-1 {
        fill: #fff;
      }

      .cls-2 {
        fill: none;
      }

      .cls-3 {
        fill: #4a2d2d;
      }

      .cls-4 {
        fill: #e9e2bf;
      }
    </style>
  </defs>
  <g id="COLOR">
    <g>
      <g>
        <g>
          <path class="cls-4" d="M47.13,28.37c-.42-1.94-.16-3.96-.42-5.92-.19-1.46-.75-2.95-1.72-4.07-1.99-2.31-6.04-2.01-8.68-1.24-3.18.93-6,2.93-8.26,5.31-.64.67-1.25,1.39-1.81,2.14-2,2.69-3.13,5.81-3.83,9.06-.61,2.85-.78,6.01.41,8.74,1.32,3.01,4.35,4.66,7.18,6.02,2.93,1.41,6.08,2.32,9.25,1.09,2.69-1.04,4.76-3.25,6.16-5.72,1.61-2.84,2.95-6.33,3.03-9.62.05-2.11-.88-3.8-1.31-5.8Z"/>
          <path class="cls-3" d="M33.8,22.22c1.46,1.48,2.42,3.08,2.82,5.13.06.32.43.48.73.41.89-.22,1.8-.45,2.72-.41.79.04,1.46.34,2.21.52.46.11.78-.44.46-.78-1.38-1.49-3.99-.84-5.7-.46l.73.41c-.47-2.13-1.56-4.12-3.3-5.48-.46-.36-1.1.22-.66.66h0Z"/>
          <path class="cls-3" d="M38.98,47.6c.07.06.14.12.23.16.11.05.2.08.32.1.23.03.47-.07.63-.24.11-.12.16-.26.14-.42-.02-.15-.1-.3-.24-.37-.02-.01-.04-.02-.06-.04l.11.09c-.06-.05-.09-.09-.16-.13-.07-.04-.14-.06-.21-.09l.15.06s-.07-.04-.1-.06l.13.1s-.02-.02-.03-.03c-.12-.11-.28-.18-.44-.18-.15,0-.34.07-.44.18s-.19.28-.18.44c0,.15.06.34.18.44h0Z"/>
          <path class="cls-3" d="M40.71,45.98c.3,0,.58-.02.83-.2.36-.26.36-.72,0-.98-.25-.18-.53-.2-.83-.2-.36,0-.71.32-.69.69s.3.69.69.69h0Z"/>
          <path class="cls-1" d="M29.61,24.03c-2.07,1.99-4.47,4.91-4.38,7.96.02.65.94,1.18,1.41.59.88-1.11,1.37-2.41,2.03-3.65.69-1.31,1.48-2.61,2.36-3.8.62-.85-.7-1.78-1.42-1.09h0Z"/>
          <path class="cls-1" d="M23.91,37.3c0,.26,0,.52.06.77s.21.51.38.7c.22.27.75.27.97,0,.16-.2.31-.45.38-.7s.06-.51.06-.77c0-.48-.43-.95-.93-.93s-.93.41-.93.93h0Z"/>
        </g>
        <g>
          <path class="cls-4" d="M85.43,24.16c-.44-1.75-1.19-3.51-2.36-4.9-1.29-1.53-3.45-2.36-5.44-2.37-2.32-.02-4.55,1.4-6.24,2.86-1.45,1.26-2.73,2.73-4.28,3.87-1.92,1.41-4.04,1.72-6.29,2.26-3.44.82-5.85,3.06-7.13,6.35-.72,1.85-1.02,3.83-1.21,5.8-.21,2.17-.41,4.45.14,6.59,1.79,6.96,9.79,9.66,16.19,8.35,3.95-.81,8.01-2.91,11.02-5.58,2.86-2.55,4.27-6.24,5.37-9.81.71-2.32,1.27-4.7,1.24-7.13-.03-2.15-.49-4.19-1.01-6.27Z"/>
          <path class="cls-3" d="M67.14,51.46c.41,0,.9.05,1.25-.2s.33-.66,0-.9-.84-.2-1.25-.2c-.34,0-.66.3-.65.65s.28.65.65.65h0Z"/>
          <path class="cls-3" d="M69.7,49.41l.16-.02c.09,0,.17-.02.25-.06.08-.03.15-.07.21-.14.11-.11.2-.3.19-.46s-.06-.34-.19-.46l-.13-.1c-.1-.06-.21-.09-.33-.09l-.16-.02c-.16-.02-.37.09-.47.2-.12.12-.2.31-.2.47s.06.35.2.47c.12.11.3.21.47.2h0Z"/>
          <path class="cls-1" d="M60.97,27.87c-1.72.65-2.96,1.79-4.06,3.25-.99,1.32-2.07,3.01-1.62,4.72.15.58.88.74,1.3.34,1.02-.97,1.38-2.42,2.14-3.58.83-1.27,1.99-2.28,3.05-3.35.55-.55,0-1.68-.81-1.38h0Z"/>
          <path class="cls-1" d="M54.44,39.86c.06.59-.07,1.16.34,1.65.23.28.65.26.94.12.62-.3.68-1.17.64-1.77-.03-.5-.42-.98-.96-.96-.48.02-1.01.42-.96.96h0Z"/>
          <path class="cls-1" d="M74.51,21.41s0-.02,0-.03c.03-.19.03-.13,0-.32,0,0,0,0,0,0,0,0,0,0,0-.01,0,0,0,0,0,0-.02-.09-.06-.17-.12-.23-.05-.07-.11-.13-.19-.18-.08-.05-.16-.08-.26-.08-.09-.02-.18-.02-.27.01-.12.03-.22.09-.3.18l-.11.14c-.06.11-.09.22-.09.35l.02.18c.03.12.09.22.18.3l.14.11c.11.06.22.09.35.09.09,0,.18-.02.27-.06.09-.03.16-.08.22-.14.09-.09.14-.19.18-.3h0Z"/>
        </g>
        <g>
          <path class="cls-4" d="M65.99,61.87c-1.76-1.36-3.51-1.33-5.63-1.27-3.63.11-6.64-1.99-9.88-3.26-1.03-.41-2.11-.72-3.21-.87-3.81-.5-7.12,1.43-10.1,3.57-2.91,2.09-5.88,4.46-7.47,7.75-1.5,3.11-1.7,6.98.51,9.82,2.23,2.87,5.86,3.86,9.22,4.66,2.14.51,4.23,1.08,6.19,2.1,1.62.84,3.11,2.06,4.95,2.34,3.8.58,7.74-2.38,10.4-4.77,2.78-2.5,5.47-5.68,6.94-9.15,1.54-3.64,1.44-8.31-1.91-10.91Z"/>
          <path class="cls-3" d="M55.3,82.91h.46c.27,0,.47-.05.69-.23.23-.19.23-.64,0-.83-.22-.18-.41-.23-.69-.23h-.46c-.34,0-.66.3-.64.64s.28.64.64.64h0Z"/>
          <path class="cls-3" d="M57.28,80.83h.39c.23,0,.47-.17.52-.4s-.03-.49-.25-.61l-.34-.19c-.36-.2-.83-.02-.94.38s.2.82.62.81h0Z"/>
          <path class="cls-1" d="M42.33,59.32c-1.81.78-3.45,1.82-4.88,3.17-1.27,1.19-2.86,2.79-3.12,4.58-.09.59.55,1.39,1.18.91,1.33-1.02,2.17-2.57,3.35-3.75,1.31-1.31,2.79-2.41,4.4-3.31,1.06-.59.13-2.05-.93-1.59h0Z"/>
          <path class="cls-1" d="M32.6,70.38c-.14.76-.39,2,.44,2.47.21.12.54.16.75,0,.4-.3.5-.65.54-1.13.03-.29.03-.56.08-.84.09-.5-.13-1.01-.65-1.15-.46-.13-1.06.15-1.15.65h0Z"/>
        </g>
      </g>
      <rect class="cls-2" width="100" height="100"/>
    </g>
  </g>
</svg>