<?xml version="1.0" encoding="UTF-8"?>
<svg id="Capa_2" data-name="Capa 2" xmlns="http://www.w3.org/2000/svg" viewBox="0 0 100 100">
  <defs>
    <style>
      .cls-1 {
        fill: #d5c8a7;
      }

      .cls-2 {
        fill: #fff;
      }

      .cls-3 {
        fill: none;
      }

      .cls-4 {
        fill: #4a2d2d;
      }

      .cls-5 {
        fill: #ab9250;
      }
    </style>
  </defs>
  <g id="COLOR">
    <g>
      <g>
        <g>
          <path class="cls-5" d="M45.66,33.39c-.27-1.65-1.07-3.04-1.92-4.45-1.96-3.23-4.87-6.21-8.56-7.34-2.29-.7-5-.62-7.25.19-5.83,2.11-8.43,9.02-8.66,14.77-.26,6.24,3.66,12.17,9.99,13.3,5.77,1.03,11.54-2.09,14.34-7.15,1.53-2.77,2.58-6.15,2.06-9.33Z"/>
          <path class="cls-4" d="M34.84,47.6c.57,0,1.4.16,1.83-.31.2-.23.2-.53,0-.76-.42-.47-1.25-.32-1.83-.31-.89,0-.89,1.38,0,1.39h0Z"/>
          <path class="cls-4" d="M36.41,45.54c.22,0,.42,0,.64-.03.34-.05.72-.32.7-.71-.02-.35-.28-.6-.61-.69-.23-.07-.5-.05-.74-.04-.38.01-.75.33-.73.73s.32.72.73.73h0Z"/>
          <path class="cls-2" d="M33.09,23.29c-2.22-.69-4.34.11-6.03,1.6-1.43,1.26-3.36,3.39-3.08,5.41.06.44.65.72,1.05.59,1.56-.51,2.2-2.27,3.25-3.42,1.26-1.39,2.95-2.34,4.81-2.59.86-.12.7-1.38,0-1.59h0Z"/>
          <path class="cls-2" d="M22.45,34.31c-.12.31-.01.63.14.91.27.52,1.09.52,1.37,0,.15-.28.26-.6.14-.91-.07-.18-.15-.32-.31-.44-.14-.11-.33-.19-.52-.18-.15,0-.3.05-.43.12-.2.11-.31.31-.39.51h0Z"/>
        </g>
        <g>
          <path class="cls-5" d="M66.99,61.77c-1.97-2.67-4.93-4.4-7.99-5.54-3.99-1.49-8.61-1.07-12.25,1.16-3.5,2.15-5.6,6.2-6.98,9.92-2.29,6.14-.19,13.29,6.11,16.01,6.12,2.64,13.3-.71,18.01-4.75,4.82-4.13,7.14-11.31,3.1-16.8Z"/>
          <path class="cls-4" d="M56.12,80.98c.54,0,1.09.06,1.61-.08.61-.17.61-1.06,0-1.23-.52-.14-1.08-.09-1.61-.08-.89,0-.89,1.38,0,1.39h0Z"/>
          <path class="cls-4" d="M57.77,78.37c.12-.02-.03.02-.04,0,.01,0,.09,0,.1,0,.11,0-.01.01-.05-.01l.2.03c.07,0,.07,0,0,0-.14,0,.12.02.1.02.05,0,.11.02.17.02.15,0,.3-.03.43-.11.19-.11.32-.32.31-.54-.03-.81-.99-.98-1.62-.82-.37.09-.63.53-.51.9.13.4.5.59.9.51h0Z"/>
          <path class="cls-2" d="M57.39,58.08c-2.36-.54-4.61-.41-6.86.53-1.8.75-4.61,2.43-5.01,4.51-.16.82.68,1.61,1.47,1.13s1.29-1.31,1.99-1.93,1.53-1.15,2.38-1.57c1.76-.86,3.86-1.22,5.8-1,.95.1,1.14-1.45.22-1.66h0Z"/>
          <path class="cls-2" d="M42.76,67.14c.01.18.01.37.08.54.02.05.04.1.06.15.04.15.12.29.23.4.07.05.13.1.2.15.23.17.66.17.89,0,.07-.05.14-.1.2-.15.11-.11.19-.25.23-.4.02-.05.04-.1.06-.15.07-.17.07-.36.08-.54.01-.25-.12-.54-.3-.72s-.46-.31-.72-.3-.53.1-.72.3-.31.45-.3.72h0Z"/>
        </g>
        <g>
          <path class="cls-5" d="M82.76,43.14s4.7-8.06,2.08-13.05-8.94-8.41-14.85-9.13-10.71,4.07-12.75,8.74c-2.04,4.67.53,11.5,4.86,15.31,4.34,3.81,7.62,5.59,10.78,4.93s6.24-2.69,7.56-4.01,2.33-2.78,2.33-2.78Z"/>
          <path class="cls-1" d="M82.15,44.6s.66-2.43-.92-2.5-3.68,2.23-3.68,3.55,1.12,1.84,2.43,1.51,1.97-1.51,2.17-2.56Z"/>
          <path class="cls-4" d="M82.96,43.33c-.1-1.61-1.67-2.47-3.13-1.78-.9.43-1.65,1.21-2.23,2.01-.3.41-.54.86-.77,1.32-.16.32-.3.65-.31,1.01-.03.57.34.99.72,1.37.27.27.61.46.98.59.73.25,1.59.24,2.28-.13,1.64-.87,2.59-2.53,2.48-4.38ZM80.21,46.87c-.5.13-1.12.18-1.63.04-.52-.15-1-.47-.83-1.07.16-.55.62-1.01.98-1.44.47-.55.95-1.09,1.54-1.51.33-.24.82-.56,1.26-.44s.52.64.54,1.01c.09,1.26-.52,3.04-1.86,3.4Z"/>
          <path class="cls-4" d="M71.5,47.34c.67,0,1.35.05,1.96-.26.32-.17.32-.69,0-.86-.61-.32-1.29-.26-1.96-.26-.89,0-.89,1.39,0,1.39h0Z"/>
          <path class="cls-4" d="M73.08,44.34c.33,0,.71.02.95-.25s.25-.66,0-.94-.62-.24-.95-.25c-.38-.01-.73.34-.72.72s.32.73.72.72h0Z"/>
          <path class="cls-2" d="M68.77,22.53c-2.5.74-4.75,1.75-6.43,3.83-1.26,1.57-3.13,5.14-1.64,6.97.32.39.88.26,1.21,0,.81-.64.76-1.58,1.01-2.52.31-1.14.82-2.23,1.6-3.13,1.29-1.48,3.22-2.59,4.94-3.51.89-.48.28-1.91-.69-1.63h0Z"/>
          <path class="cls-2" d="M60.56,36.56c-.11.29-.1.62-.04.92.03.15.1.3.17.44.15.28.39.4.67.51.29.12.69-.03.9-.24s.36-.6.24-.9c-.08-.19-.13-.34-.27-.5l-.03-.03c-.06-.07-.04-.04.06.09-.02-.04-.05-.08-.07-.12.06.15.07.18.05.09,0-.03-.01-.06-.02-.09l.03.23c0-.06,0-.12,0-.18.03-.42-.35-.79-.74-.84-.44-.06-.79.21-.94.61h0Z"/>
        </g>
      </g>
      <rect class="cls-3" width="100" height="100"/>
    </g>
  </g>
</svg>