<?xml version="1.0" encoding="UTF-8"?>
<svg id="Capa_2" data-name="Capa 2" xmlns="http://www.w3.org/2000/svg" viewBox="0 0 100 100">
  <defs>
    <style>
      .cls-1 {
        fill: #fff;
      }

      .cls-2 {
        fill: none;
      }

      .cls-3 {
        fill: #4a2d2d;
      }

      .cls-4 {
        fill: #c0c728;
      }
    </style>
  </defs>
  <g id="COLOR">
    <g>
      <g>
        <g>
          <g>
            <path class="cls-4" d="M10.95,71.42c-.75,0-1.45-.11-2.08-.32-1.86-.63-3.11-2.3-3.03-4.07.1-2.27,1.94-3.84,3.47-4.75.97-.58,1.97-1.13,2.94-1.66,1.36-.75,2.77-1.52,4.11-2.39,2.21-1.43,4.49-3.1,6.77-4.96,4.01-3.27,7.74-7,11.39-11.43,3.91-4.73,13.01-17.08,13.09-29.4,0-1.38-.38-2.83-.69-4-.26-.99-.52-1.92-.38-2.33.31-.94.86-1.44,1.68-1.53h0c.17,0,.28.22.3.38.3,2.67,1.3,4.87,2.36,7.19.32.69.64,1.41.95,2.14,1.31,3.12,1.85,5.87,1.69,8.67-.35,6.09-2.5,12.23-6.24,17.76-2.96,4.38-6.44,8.82-10.66,13.59-3.19,3.61-7.53,8.23-12.78,11.88-2.48,1.72-4.84,3-7.23,3.9-1.85.7-3.81,1.34-5.66,1.34,0,0,0,0,0,0Z"/>
            <path class="cls-4" d="M40.16,75.29c-.3,0-.6-.02-.89-.07-1.94-.3-3.46-1.73-3.69-3.48-.3-2.26,1.25-4.12,2.59-5.28.85-.74,1.74-1.45,2.61-2.15,1.21-.97,2.47-1.98,3.64-3.07,1.93-1.79,3.88-3.83,5.81-6.05,3.39-3.91,6.41-8.24,9.24-13.23,3.03-5.34,9.85-19.07,7.81-31.23-.23-1.36-.86-2.72-1.37-3.82-.43-.93-.84-1.8-.78-2.23.14-.98.59-1.57,1.38-1.8.02,0,.03,0,.05,0,.13,0,.26.17.31.33.76,2.58,2.13,4.57,3.57,6.67.43.63.88,1.28,1.31,1.94,1.83,2.84,2.84,5.46,3.16,8.25.71,6.06-.35,12.48-3.07,18.57-2.15,4.82-4.82,9.81-8.14,15.23-2.52,4.11-5.99,9.4-10.53,13.91-2.14,2.13-4.25,3.79-6.45,5.09-1.97,1.16-4.26,2.41-6.56,2.41h0Z"/>
            <path class="cls-4" d="M61.25,87.32c-1.97,0-3.68-1.2-4.16-2.89-.63-2.19.62-4.26,1.78-5.61.73-.86,1.51-1.7,2.26-2.51,1.06-1.14,2.15-2.32,3.14-3.57,1.64-2.06,3.28-4.36,4.85-6.84,2.77-4.37,5.12-9.1,7.18-14.45,2.21-5.73,6.92-20.32,3.1-32.04-.43-1.32-1.26-2.57-1.92-3.57-.56-.85-1.1-1.66-1.1-2.09,0-.99.36-1.64,1.1-1.98.02-.01.05-.02.07-.02.11,0,.26.13.33.28,1.14,2.44,2.78,4.2,4.52,6.07.52.56,1.06,1.13,1.58,1.73,2.23,2.54,3.61,4.98,4.35,7.69,1.6,5.89,1.5,12.39-.29,18.82-1.42,5.09-3.31,10.41-5.8,16.27-1.88,4.44-4.54,10.19-8.36,15.32-1.8,2.42-3.64,4.38-5.62,5.99-2.03,1.65-4.42,3.42-6.99,3.42,0,0-.03,0-.03,0Z"/>
          </g>
          <path class="cls-4" d="M15.38,96.63c-2.27,0-4.1-.8-5.16-2.26-.99-1.37-1.09-3.01-.25-4.4.68-1.14,1.72-1.89,2.83-2.69.7-.51,1.43-1.04,2.05-1.67,1.38-1.4,1.43-2.83,1.5-4.48.03-.86.22-1.48.61-2.02.62-.85,1.55-1.45,2.69-1.74.49-.12,1.01-.18,1.54-.18,1.54,0,3.09.53,4.16,1.41,1.85,1.54,2.84,3.96,2.51,6.18-.34,2.24-1.58,4.21-2.76,5.85-1.17,1.62-2.46,3.3-4.19,4.44-1.51.99-3.57,1.59-5.52,1.59h0Z"/>
          <path class="cls-4" d="M34.32,96.24c-1.73,0-3.07-.5-4-1.5-1.21-1.3-1.52-3.19-.8-4.81.74-1.66,2.13-2.29,3.88-2.95,1.92-.72,4.18-1.55,6.48-2.28.86-.28,1.68-.42,2.43-.42,1.02,0,1.87.27,2.52.79,1.32,1.06,1.93,2.96,1.57,4.85-.45,2.34-2.78,3.63-3.76,4.08-2.46,1.13-4.87,1.87-6.95,2.14-.47.06-.93.09-1.35.09h0Z"/>
          <path class="cls-1" d="M9.05,68.75c.45.22.95.34,1.44.16.4-.15.67-.49.61-.93s-.41-.7-.83-.73c-.2-.01.2.05.01,0,.03,0-.29-.05-.35-.04l.13.02s-.07-.01-.11-.02c-.06-.01-.23-.08,0,.02-.23-.1-.43-.16-.68-.09-.2.06-.43.21-.53.41-.21.4-.13.99.32,1.21h0Z"/>
          <path class="cls-1" d="M13.24,68.85l.35-.11c.28-.09.51-.22.65-.49.08-.15.11-.31.09-.48-.02-.15-.08-.34-.21-.44-.13-.1-.24-.2-.41-.24-.12-.03-.24-.04-.36-.03l-.36.03c-.25.02-.45.09-.63.26-.21.19-.28.48-.25.75.07.51.6.91,1.12.75h0Z"/>
          <path class="cls-1" d="M40.44,72.94c.26.05.52.06.78-.02.39-.12.68-.45.68-.86,0-.21-.12-.48-.33-.57-.04-.02-.08-.03-.12-.05-.1-.04-.2-.06-.31-.07l.2.03c-.13-.02-.25-.04-.37-.02-.07.01-.14.03-.22.04l.21-.03c-.06,0-.13,0-.19,0l.21.03s-.07-.01-.11-.02c-.41-.1-.89.13-.99.56-.09.39.12.91.56.99h0Z"/>
          <path class="cls-1" d="M45.73,71.36c.12-.09.25-.17.35-.28.06-.07.12-.13.17-.2.18-.21.25-.48.14-.74-.05-.11-.11-.2-.21-.27-.11-.09-.27-.16-.41-.15-.08,0-.17.01-.25.02-.15.01-.29.04-.44.09-.21.07-.38.2-.5.38-.14.22-.14.51-.04.74.09.21.23.35.44.44.23.1.53.11.74-.04h0Z"/>
          <path class="cls-1" d="M62.47,85.15c.27,0,.53-.07.77-.19.11-.06.24-.14.32-.23.17-.18.24-.41.25-.65,0-.39-.35-.77-.75-.75-.17,0-.33.02-.49.11-.05.03-.1.06-.16.09l.2-.08c-.06.02-.11.04-.17.05l.22-.03c-.06,0-.12,0-.18,0-.2-.02-.45.11-.6.25s-.26.39-.25.6c.02.46.37.84.84.84h0Z"/>
          <path class="cls-1" d="M65.97,83.63c.78,0,.79-1.22,0-1.22s-.79,1.22,0,1.22h0Z"/>
          <path class="cls-1" d="M32.51,92.67c.23-.56.5-1.07.98-1.44.55-.42,1.27-.63,1.63-1.27.2-.36.05-.98-.43-1.05-1.73-.25-4.1,1.96-3.49,3.75.23.67,1.06.61,1.31,0h0Z"/>
          <path class="cls-1" d="M38.03,89.19l.13-.18c.07-.12.1-.25.1-.38,0-.14-.04-.27-.1-.38-.14-.24-.39-.37-.66-.38h-.23c-.31-.01-.61.17-.76.43s-.16.62,0,.89.45.44.76.44c.16,0,.31-.04.45-.12.13-.08.24-.18.32-.32h0Z"/>
          <path class="cls-1" d="M18.08,86.38l.1-.12s.02-.02.02-.03l.08-.11s.03-.05.03-.07c.03-.06.05-.13.04-.2h0s0-.03,0-.04c0-.07-.01-.13-.04-.18-.02-.06-.05-.11-.1-.15-.09-.08-.21-.14-.34-.14h-.03s-.11,0-.15.02l-.12.05s-.01,0-.02.01c0,0-.02.01-.03.02l-.12.09c-.08.05-.15.11-.2.2l-.06.13c-.03.1-.03.19,0,.29.02.07.05.13.1.19.04.06.09.11.15.14.06.04.13.06.2.07.07.02.15.01.22,0,.09-.03.17-.07.24-.14h0Z"/>
          <path class="cls-1" d="M19.39,82.9c-.13-.76.19-1.49.19-2.24,0-.4-.41-.58-.74-.43-1.2.55-1.11,2.16-.67,3.18.13.31.56.39.84.27.33-.14.45-.46.39-.79h0Z"/>
        </g>
        <g>
          <path class="cls-3" d="M45.4,24.71c.34.08.66.2.97.39s.55.41.86.58c.36.2.75-.2.55-.55-.4-.74-1.35-1.13-2.14-1.29-.57-.11-.81.74-.24.88h0Z"/>
          <path class="cls-3" d="M42.97,29.71c.7.14,1.37.57,1.95.97.36.25.71-.22.55-.55-.2-.4-.61-.65-.99-.86s-.81-.41-1.24-.5c-.62-.13-.88.82-.26.94h0Z"/>
          <path class="cls-3" d="M39.85,35.18c.76.19,1.32.65,2.01.98.4.19.85-.2.62-.62-.4-.74-1.58-1.17-2.35-1.36-.65-.16-.93.84-.28,1h0Z"/>
          <path class="cls-3" d="M36.61,40.03c.23.11.44.24.62.42.2.21.37.41.61.58.26.18.65-.06.64-.37-.05-.79-.79-1.29-1.47-1.57-.53-.22-.92.69-.39.94h0Z"/>
          <path class="cls-3" d="M32.4,44.8c.35.18.56.49.77.83.22.37.81.22.81-.22,0-.68-.45-1.23-1.04-1.54-.26-.13-.58-.07-.73.19-.14.24-.07.6.19.73h0Z"/>
          <path class="cls-3" d="M28.09,49.14c.2.17.38.35.56.54.2.21.36.39.53.56.25.25.82.09.77-.32-.08-.62-.64-1.14-1.1-1.54-.22-.19-.55-.22-.76,0-.19.19-.22.57,0,.76h0Z"/>
          <path class="cls-3" d="M23.46,53.31c.47.44.87.94,1.29,1.43.3.35.79-.04.71-.42s-.34-.67-.58-.95-.47-.52-.73-.77c-.46-.44-1.16.26-.7.7h0Z"/>
        </g>
        <g>
          <path class="cls-3" d="M66.89,24.02c.35.02.69.09,1.02.21s.62.31.95.42c.39.13.7-.32.45-.64-.52-.66-1.52-.88-2.33-.9-.58-.01-.68.87-.09.9h0Z"/>
          <path class="cls-3" d="M65.35,29.37c.71.02,1.44.32,2.08.61.39.18.66-.34.45-.63-.26-.36-.72-.54-1.12-.67s-.87-.27-1.31-.28c-.63-.02-.72.96-.09.98h0Z"/>
          <path class="cls-3" d="M63.23,35.3c.78.06,1.41.41,2.15.62.43.12.8-.35.5-.72-.52-.66-1.76-.88-2.55-.93-.67-.04-.77.99-.1,1.04h0Z"/>
          <path class="cls-3" d="M60.88,40.63c.25.07.47.16.68.31.24.17.43.34.7.47.29.14.63-.17.56-.47-.18-.77-1.01-1.14-1.72-1.29-.56-.12-.79.84-.23.99h0Z"/>
          <path class="cls-3" d="M57.55,46.05c.38.12.64.39.9.69.28.32.84.07.76-.36-.12-.67-.66-1.13-1.29-1.33-.28-.09-.58.04-.69.32-.1.26.04.6.32.69h0Z"/>
          <path class="cls-3" d="M54.06,51.08c.23.13.44.28.65.44.24.17.42.32.61.46.29.2.82-.06.7-.45-.19-.6-.83-1.02-1.35-1.33-.25-.15-.57-.12-.75.13-.16.22-.12.6.13.75h0Z"/>
          <path class="cls-3" d="M50.22,55.98c.54.36,1.02.78,1.52,1.19.36.29.77-.17.63-.53s-.45-.6-.73-.83-.56-.43-.85-.63c-.53-.35-1.1.46-.57.81h0Z"/>
        </g>
        <g>
          <path class="cls-3" d="M81.18,32.95c.35-.03.69-.02,1.04.06s.66.21,1,.28c.4.07.65-.42.35-.7-.61-.58-1.64-.65-2.44-.55-.57.07-.54.96.05.91h0Z"/>
          <path class="cls-3" d="M80.44,38.46c.71-.09,1.48.11,2.15.3.42.12.6-.43.35-.69-.31-.32-.79-.43-1.21-.5s-.9-.14-1.34-.09c-.62.07-.57,1.06.05.98h0Z"/>
          <path class="cls-3" d="M79.21,44.64c.78-.06,1.46.2,2.22.29.44.05.74-.46.39-.79-.62-.58-1.87-.61-2.66-.55-.67.05-.61,1.09.05,1.04h0Z"/>
          <path class="cls-3" d="M77.68,50.27c.25.03.49.09.72.2.26.13.48.27.76.36.3.09.6-.26.49-.55-.29-.74-1.16-.98-1.89-1.02-.57-.04-.65.95-.08,1.01h0Z"/>
          <path class="cls-3" d="M75.18,56.12c.39.06.69.29.99.55.33.28.84-.05.7-.47-.22-.64-.82-1.03-1.47-1.13-.28-.04-.57.12-.63.41-.06.27.13.59.41.63h0Z"/>
          <path class="cls-3" d="M72.47,61.6c.24.1.47.22.7.34.26.14.46.25.67.36.31.16.81-.18.63-.54-.28-.57-.97-.88-1.53-1.12-.27-.11-.59-.03-.72.24-.12.24-.03.61.24.72h0Z"/>
          <path class="cls-3" d="M69.39,67.02c.59.27,1.12.62,1.68.95.4.24.74-.28.55-.62s-.53-.53-.85-.72-.61-.35-.93-.5c-.58-.27-1.02.61-.44.88h0Z"/>
        </g>
      </g>
      <rect class="cls-2" width="100" height="100"/>
    </g>
  </g>
</svg>