<?xml version="1.0" encoding="UTF-8"?>
<svg id="Capa_2" data-name="Capa 2" xmlns="http://www.w3.org/2000/svg" viewBox="0 0 100 100">
  <defs>
    <style>
      .cls-1 {
        fill: #7bc33d;
      }

      .cls-2 {
        fill: #fff;
      }

      .cls-3 {
        fill: none;
      }

      .cls-4 {
        fill: #4a2d2d;
      }
    </style>
  </defs>
  <g id="COLOR">
    <g>
      <g>
        <g>
          <g>
            <path class="cls-1" d="M69.88,24.41c-5.27-5.75-15.38-6.25-21.04-.75-.11.11-.22.22-.33.33-2.24,2.41-3.21,5.96-3.45,9.17-.47,6.47,2.81,13.57,9.39,15.55,6.27,1.88,12.79-1.2,16.14-6.6,3.27-5.28,3.68-12.91-.71-17.7Z"/>
            <path class="cls-4" d="M62.73,44.8c1.48-.15,3.55-.88,3.93-2.54.12-.52-.41-.92-.88-.68-.55.29-.98.77-1.5,1.11-.55.36-1.1.62-1.73.77-.73.18-.59,1.41.18,1.34h0Z"/>
            <path class="cls-4" d="M63.35,41.48c.3-.16.58-.36.85-.58s.58-.51.63-.85c.06-.38-.24-.81-.67-.67-.31.1-.54.36-.79.57-.2.17-.43.31-.66.43-.71.39-.08,1.48.64,1.09h0Z"/>
          </g>
          <g>
            <path class="cls-4" d="M38.35,50.47c.92-.93,2.23-1.5,3.54-.93,1.66.74.99,2.48.97,3.86-.01.67.98.97,1.3.35,1-1.93.44-4.72-1.68-5.6-1.65-.68-4.6-.26-5.15,1.72-.16.59.59,1.03,1.02.6h0Z"/>
            <path class="cls-1" d="M47.95,59.51c-1.26-3.85-3.92-7.44-7.53-9.37-3.73-1.99-8.67-1.81-12.45-.05-1.68.79-3.21,1.9-4.46,3.27-4.27,4.7-5.61,12.99-1.32,18.13,4.39,5.26,13.24,6.45,19.3,3.7,5.91-2.68,8.44-9.63,6.46-15.69Z"/>
            <path class="cls-4" d="M36.84,72.5c1.07-.09,2.13-.26,3.08-.77.76-.41,1.63-1.19,1.62-2.12,0-.4-.48-.72-.84-.48-.6.4-.99,1.02-1.63,1.4-.73.43-1.57.61-2.41.73-.7.11-.54,1.3.17,1.24h0Z"/>
            <path class="cls-4" d="M36.53,69.44c.23-.04.46-.13.65-.26.26-.16.55-.43.61-.75.05-.26,0-.51-.19-.71-.18-.18-.46-.26-.71-.19-.07.02-.15.05-.22.09-.16.13-.2.16-.12.09.04-.03.05-.04.02-.02-.07.03-.12.09-.19.12-.03.02-.06.03-.09.05-.11.06.04-.03.05-.02,0,0-.22.06-.24.07-.4.07-.67.59-.55.96.14.43.53.63.96.55h0Z"/>
          </g>
          <g>
            <path class="cls-1" d="M71.04,53.66c-4.31-1.79-9.26-1.6-12.97,1.91-4.15,3.93-5.23,10.74-2.9,15.9,2.44,5.4,8.72,10.98,15,10.27,5.94-.67,9.92-5.63,10.64-11.35.46-3.64-.4-7.39-2.34-10.49-1.73-2.76-4.42-5-7.44-6.25Z"/>
            <path class="cls-4" d="M69.12,77.77c1.76.64,4.81-.06,5.21-2.22.13-.72-.62-1.13-1.18-.69s-.91.99-1.59,1.31-1.39.43-2.09.31c-.85-.15-1.17.99-.35,1.29h0Z"/>
            <path class="cls-4" d="M69.54,74.76c.23.09.51.09.75.03.17-.04.31-.13.44-.25.18-.15.24-.37.26-.6.02-.2-.11-.4-.26-.52-.18-.14-.36-.15-.57-.12-.14.02-.28.1-.4.17-.06.04.14-.04.07-.03-.03,0-.11.02,0,0s.03,0,0,0c-.06,0-.13-.03.06.01-.34-.07-.74.1-.83.47-.04.17-.03.37.07.52s.23.24.4.31h0Z"/>
          </g>
        </g>
        <path class="cls-2" d="M35.8,51.42c-1.57-.6-3.17-.52-4.71.16-1.33.59-2.97,1.65-3.3,3.17-.12.55.34,1.05.9.9,1.07-.27,1.83-1.14,2.77-1.68,1.15-.67,2.52-1.05,3.85-.81,1.15.21,1.57-1.33.48-1.75h0Z"/>
        <path class="cls-2" d="M25.65,57.82c-.06.15-.12.31-.17.46-.07.2-.1.4-.12.61-.03.28.2.55.44.65.27.11.57.05.78-.15.28-.26.47-.58.66-.9.28-.45.05-1.05-.42-1.24-.51-.22-1,.08-1.18.57h0Z"/>
        <path class="cls-2" d="M67.32,55.21c-1.65-.63-3.37-.59-4.97.18-1.4.68-3.12,1.99-3.36,3.62-.11.72.53,1.28,1.22.94,1.05-.51,1.73-1.54,2.71-2.17,1.15-.74,2.59-1.18,3.96-.96,1.06.17,1.45-1.22.44-1.61h0Z"/>
        <path class="cls-2" d="M57.78,62.41c-.15.36-.22.68-.27,1.07-.03.27.2.54.43.64.26.11.56.05.76-.14.27-.26.49-.56.68-.89.27-.45.06-1.04-.42-1.24-.23-.1-.45-.1-.67,0-.27.11-.4.3-.51.57h0Z"/>
        <path class="cls-2" d="M60.93,22.45c-2.97-.62-8.34.02-9.39,3.5-.22.73.58,1.16,1.17.9,1.22-.54,2.12-1.6,3.37-2.14,1.4-.6,2.87-.81,4.38-.56,1.1.18,1.59-1.46.47-1.7h0Z"/>
        <path class="cls-2" d="M49.49,29.08c-.11.23-.25.47-.33.71-.08.23-.1.47-.1.71,0,.5.54.79.98.56.21-.11.41-.25.57-.43.17-.19.31-.42.46-.64.27-.39.09-1.03-.33-1.25s-1.02-.13-1.25.33h0Z"/>
      </g>
      <rect class="cls-3" width="100" height="100"/>
    </g>
  </g>
</svg>