<?xml version="1.0" encoding="UTF-8"?>
<svg id="Capa_2" data-name="Capa 2" xmlns="http://www.w3.org/2000/svg" viewBox="0 0 100 100">
  <defs>
    <style>
      .cls-1 {
        fill: #fff;
      }

      .cls-2 {
        fill: none;
      }

      .cls-3 {
        fill: #4a2d2d;
      }

      .cls-4 {
        fill: #b7411b;
      }

      .cls-5 {
        fill: #f0f5cc;
      }
    </style>
  </defs>
  <g id="COLOR">
    <g>
      <g>
        <g>
          <path class="cls-4" d="M58.68,43.07c-.11-.35-.23-.7-.37-1.04-.69-1.8-1.6-3.5-1.98-5.42-.24-1.23-.33-2.61-.05-3.88.3-1.35,1.17-2.49,1.69-3.76,0,0,0,0,0-.01,1.12-2.71,1.58-5.88.15-8.55-1.53-2.86-4.75-5-7.93-5.47-6.99-1.02-13.16,5.49-15.68,11.38-3.06,7.16-1.73,16.06,3.04,22.21,4.06,5.24,12.27,8.89,18.07,4.13,2.84-2.33,4.16-6.06,3.05-9.6Z"/>
          <path class="cls-5" d="M58.32,42.03c-1.13-.03-2.97-.25-4.29-1.24-1.94-1.45-2.66-5.13-.78-8.04,1.44-2.22,3.74-3.37,4.74-3.79,0,0,0,0,0,.01-.52,1.27-1.39,2.41-1.69,3.76-.28,1.27-.19,2.64.05,3.88.38,1.92,1.29,3.62,1.98,5.42Z"/>
          <path class="cls-3" d="M56.44,28.84c-3.08,1.4-5.18,5.2-4.89,8.53.25,2.87,3.44,6.08,6.54,5.5.57-.11.6-1.1,0-1.18-1.31-.19-2.95-.57-3.92-1.58s-1.4-2.52-1.32-3.94c.17-2.96,3.15-5.84,5.19-7.1.54-.34-.39-.97-1.6-.23h0Z"/>
          <path class="cls-3" d="M50.29,52.69c.18-.02.35-.03.52-.08.21-.06.39-.27.38-.49s-.15-.43-.38-.49c-.17-.05-.35-.06-.52-.08-.14-.01-.31.07-.41.17-.1.1-.17.26-.17.41s.06.3.17.41c.11.1.26.18.41.17h0Z"/>
          <path class="cls-3" d="M51.51,50.46c.17-.03.33-.06.49-.1.24-.07.44-.31.43-.56s-.17-.49-.43-.56c-.16-.04-.32-.07-.49-.1-.24-.04-.49-.01-.67.18-.12.13-.2.3-.2.49,0,.18.08.36.2.49.19.19.42.22.67.18h0Z"/>
          <path class="cls-1" d="M43.35,18.63c-1.35.92-2.46,2.02-3.44,3.33-.83,1.13-2.05,2.71-1.7,4.18.12.49.78.79,1.21.49,1.06-.74,1.41-2.2,2.09-3.27.81-1.25,1.84-2.33,2.93-3.32.75-.68-.24-2-1.09-1.42h0Z"/>
          <path class="cls-1" d="M37.38,29.78c0,.12-.01.23-.01.35,0,.18.04.35.1.52.11.34.43.63.81.62s.69-.25.81-.62c.06-.17.11-.33.1-.52,0-.12,0-.23-.01-.35-.02-.47-.4-.92-.9-.9s-.88.39-.9.9h0Z"/>
        </g>
        <g>
          <path class="cls-4" d="M49.83,69.94c-1.04-2.67-3.05-4.58-5.19-6.35-1.16-.96-2.36-1.89-3.47-2.88-1.7-1.51-3.02-3.16-4.03-5.21-.3-.62-.62-1.24-.96-1.85-1.17-2.11-2.61-4.11-4.55-5.58-1.49-1.13-3.29-1.74-5.16-1.38-3.42.66-6.73,3.12-8.44,6.11-3.62,6.32-1.84,15.08,1.98,20.87,3.9,5.9,10.59,9.43,17.72,8.98,6.2-.39,15.01-5.26,12.1-12.72Z"/>
          <path class="cls-5" d="M44.63,63.59c-1.44.73-3.88,1.19-6.38.25-2.58-.97-4.23-4.1-4-6.1.17-1.49,1.28-3.23,1.92-4.09.34.61.66,1.23.96,1.85,1.01,2.05,2.33,3.7,4.03,5.21,1.11.99,2.31,1.91,3.47,2.88Z"/>
          <path class="cls-3" d="M34.07,55.8c-.79,2.25,0,4.83,1.34,6.46,1,1.22,2.46,1.94,3.93,2.51,1.72.66,4.42.14,5.46-.86.29-.27.11-.69-.21-.8-.69-.23-2.63.67-4.61.14-1.19-.32-2.33-.88-3.18-1.78-1.48-1.58-1.45-4.34-.91-6.49.16-.63.48-1.28.38-1.56-.21-.64-1.61.71-2.21,2.39Z"/>
          <path class="cls-3" d="M38.28,79.47c.15,0,.3,0,.44-.04.09-.02.18-.05.28-.08.27-.08.49-.34.48-.63s-.19-.55-.48-.63c-.09-.03-.18-.06-.28-.08-.14-.03-.3-.03-.44-.04-.39-.02-.77.36-.75.75s.33.77.75.75h0Z"/>
          <path class="cls-3" d="M40.09,76.61l.42-.02c.14,0,.27-.01.4-.07.16-.07.27-.18.38-.32.12-.17.12-.48,0-.64-.08-.11-.17-.22-.29-.29-.15-.08-.31-.09-.48-.1l-.42-.02c-.38-.02-.74.35-.73.73s.32.74.73.73h0Z"/>
          <path class="cls-1" d="M23.83,49.45c-1.8,1.13-3.14,2.68-3.94,4.66-.6,1.49-1.49,4.27.08,5.4.28.2.72.1.96-.12.55-.53.55-1.12.61-1.84.06-.83.21-1.62.5-2.4.59-1.63,1.65-3.06,2.98-4.16.85-.71-.25-2.11-1.18-1.53h0Z"/>
          <path class="cls-1" d="M19.75,62.94c.07.23.14.47.25.68.19.36.64.66,1.05.52s.62-.53.61-.94c0-.26-.11-.49-.21-.73-.09-.22-.19-.4-.4-.53-.19-.11-.47-.16-.68-.09-.45.14-.76.61-.62,1.08h0Z"/>
        </g>
        <g>
          <path class="cls-4" d="M84.38,50.74c-1.54-6.9-8.49-14.27-16.09-11.05-3.54,1.5-5.51,4.53-5.64,8.34h0c-.06,1.92-.05,3.86-.47,5.73-.67,2.98-2.53,4.46-4.57,6.48-.05.05-.1.09-.15.14-1.85,1.86-3.32,4.2-3.32,6.9,0,3.23,2.02,6.6,4.61,8.45,5.88,4.21,14.38.75,19.16-3.59,5.79-5.25,8.15-13.82,6.46-21.4Z"/>
          <path class="cls-5" d="M65.3,57.15c-1.26,1.6-4.16,2.57-5.42,3.05-.59.22-1.48.17-2.26.04,2.04-2.02,3.91-3.51,4.57-6.48.42-1.87.41-3.81.47-5.72h0c1.01.5,2.85,1.57,3.47,2.91.87,1.89.44,4.6-.82,6.2Z"/>
          <path class="cls-3" d="M57.26,60.64c5.67.58,8.51-2.35,9.66-5.48.99-2.69.02-6.48-3.62-7.8-.65-.23-1.08.75-.47,1.12,1.2.74,2.56,1.82,2.95,3.26.34,1.24.13,2.57-.43,3.73-1.28,2.65-3.16,3.96-7.22,4.25-.56.04-.87.92-.87.92Z"/>
          <path class="cls-3" d="M67.72,74.14c.7.07,1.42.19,2.09-.11.36-.16.36-.8,0-.96-.67-.3-1.39-.18-2.09-.11-.76.08-.76,1.11,0,1.18h0Z"/>
          <path class="cls-3" d="M71.08,72.05c.4-.02.81,0,1.19-.11.57-.16.57-1.01,0-1.16-.39-.11-.79-.1-1.19-.11-.36-.02-.71.33-.69.69s.31.71.69.69h0Z"/>
          <path class="cls-1" d="M73.9,40.67c-1.38-.3-2.82-.12-4.06.6-1.08.62-2.5,1.78-1.89,3.15.12.26.44.4.71.41.98.04,1.52-.95,2.25-1.44.83-.55,1.77-.88,2.76-.98.93-.09,1.29-1.51.24-1.74h0Z"/>
          <path class="cls-1" d="M67.34,48.15c1.05,0,1.05-1.63,0-1.63s-1.05,1.63,0,1.63h0Z"/>
        </g>
      </g>
      <rect class="cls-2" width="100" height="100"/>
    </g>
  </g>
</svg>