<?xml version="1.0" encoding="UTF-8"?>
<svg id="Capa_2" data-name="Capa 2" xmlns="http://www.w3.org/2000/svg" viewBox="0 0 100 100">
  <defs>
    <style>
      .cls-1 {
        fill: #da893e;
      }

      .cls-2 {
        fill: #fff;
      }

      .cls-3 {
        fill: none;
      }

      .cls-4 {
        fill: #f2cfa6;
      }

      .cls-5 {
        fill: #4a2d2d;
      }
    </style>
  </defs>
  <g id="COLOR">
    <g>
      <rect class="cls-3" width="100" height="100"/>
      <g>
        <g>
          <g>
            <path class="cls-1" d="M87.66,92.6c-.36-.9-.86-1.66-1.42-2.49-1.05-1.57-1.33-2.87-.98-4.73.59-3.14,1.14-6.26,1.48-9.44.72-6.73.81-13.5.41-20.26-.79-13.39-3.23-26.53-5.55-39.71.59-.73,1-1.6,1.45-2.42.43-.79.82-1.61,1.22-2.41.2-.4.41-.8.63-1.2.19-.35.46-.67.42-1.09-.05-.44-.37-.78-.8-.86-5.17-1.03-10.52-.74-15.76-.72-5.53.02-11.05.1-16.58.26-11.03.33-35.9.46-34.67,2.72.59,1.09,1.12,2.21,1.71,3.31.45.83.86,1.69,1.45,2.42-2.32,13.18-4.76,26.32-5.55,39.71-.4,6.75-.31,13.53.41,20.26.34,3.18.89,6.3,1.48,9.44.35,1.83.05,3.2-.98,4.73-.38.57-.77,1.14-1.08,1.75-.38.74-.69,1.52-.34,2.33.15.33.37.56.75.58,13.79.37,27.64-.44,41.45-.35,5.28.04,10.55.2,15.82.37,4.79.15,9.87.54,14.61-.38.85-.17.94-1.3.43-1.81Z"/>
            <path class="cls-5" d="M54.66,16.01c3.25-.02,6.72.39,9.92-.19.75-.14.72-1.33,0-1.49-3.04-.66-6.41-.32-9.51-.3-3.37.02-6.75.1-10.12.22-6.77.24-13.47.75-20.21,1.46-.75.08-.78,1.23,0,1.19,6.72-.35,13.47-.59,20.21-.75,3.24-.08,6.48-.12,9.71-.14Z"/>
            <path class="cls-5" d="M69.3,16.17c1.2.01,2.41.06,3.61.17,1.17.11,2.4.49,3.56.34.56-.07.84-.77.3-1.11-1.94-1.22-5.29-1.02-7.47-.8-.88.09-.92,1.39,0,1.4Z"/>
            <path class="cls-5" d="M76.67,85.63c-7.21-.03-14.42.03-21.62.28-3.47.12-6.94.3-10.41.39-3.44.08-7.25-.3-10.6.51-.66.16-.72,1.27,0,1.4,3.41.6,7.16,0,10.6-.11,3.47-.11,6.94-.12,10.41-.17,7.21-.11,14.42-.36,21.62-.67,1.05-.04,1.06-1.63,0-1.64Z"/>
            <path class="cls-5" d="M27.59,86.4c-.64,0-1.39-.13-1.95.25-.44.3-.4.82,0,1.13.53.4,1.32.32,1.95.34.46.02.86-.41.86-.86s-.39-.85-.86-.86Z"/>
          </g>
          <path class="cls-2" d="M78.7,44.24c-4.28-17.32-25.47-23.05-39.97-14.62-10.45,6.07-15.84,19.39-12.01,30.97,3.29,9.94,12.9,16.06,22.99,17.24,11.22,1.32,22.29-3.47,27.02-14.1,2.69-6.03,3.57-13.04,1.97-19.49Z"/>
          <path class="cls-5" d="M75.02,80.29c.18-.3.28-.67.15-1.02v.59c.06-.2.07-.43.02-.64-.02-.08-.08-.2-.12-.27-.08-.15-.16-.21-.28-.3-.11-.08-.23-.15-.36-.19-.05-.01-.25-.04-.3-.04-.05,0-.1,0-.15.02-.1,0-.19.03-.28.08-.09.04-.11.04-.18.09l.56-.15c-.35,0-.69.14-.92.41-.15.15-.25.32-.3.52l-.04.31c0,.21.05.41.16.59.07.14.17.25.3.33.11.1.25.17.4.21.16.05.31.06.47.02.16,0,.3-.05.44-.14.18-.1.32-.25.42-.42h0Z"/>
          <path class="cls-5" d="M78.96,76.2s.02,0,.03.01c.1.04.29.04.39,0,0,0,.01,0,.02,0,0,0,0,0,0,0,.11-.03.21-.08.29-.15.09-.06.16-.14.22-.24.06-.1.09-.2.1-.31.03-.11.02-.22-.02-.34-.04-.14-.11-.27-.22-.37l-.17-.13c-.13-.08-.27-.11-.43-.12l-.22.03c-.14.04-.27.11-.37.22l-.13.17c-.08.13-.11.27-.12.43,0,.12.02.22.07.32.03.1.09.19.17.27.11.1.23.18.37.22h0Z"/>
          <path class="cls-5" d="M28.75,32.56s.02-.09.04-.13c.06-.24.04-.49-.09-.71-.08-.13-.19-.25-.33-.33s-.3-.12-.46-.12c-.16,0-.32.04-.46.12l-.18.14s-.06.08-.09.11c-.12.12-.2.26-.24.41-.04.17-.04.33,0,.5.08.23.22.43.43.56.11.07.22.11.35.11.12.03.25.02.37-.02.31-.09.57-.34.66-.66h0Z"/>
          <path class="cls-5" d="M33.67,26.87c.67,0,.67-1.03,0-1.03s-.67,1.03,0,1.03h0Z"/>
          <g>
            <path class="cls-4" d="M49.78,48.26c-.84-5.09-8.09-3.56-11.02-1.43-2.59,1.87-3.76,5.19-3.32,8.31.45,3.19,4.17,8.37,7.5,4.65.13-.15.26-.32.37-.49.39-.6.65-1.3.88-1.97.66-1.9,1.44-2.81,3.03-3.93.67-.47,1.27-1.04,1.73-1.69.69-.98,1.06-2.15.84-3.45Z"/>
            <path class="cls-5" d="M48.94,51.71c-.46.65-1.06,1.22-1.73,1.69-1.59,1.12-2.37,2.03-3.03,3.93-.23.67-.48,1.37-.88,1.97-.27-.15-.51-.34-.6-.49-1.32-2.19-1.45-4.62.32-6.53,1.55-1.69,3.86-1.24,5.92-.56Z"/>
          </g>
        </g>
        <path class="cls-2" d="M72,26.1c.6.35,1.3.91,2.03.69.48-.14.74-.63.63-1.11-.17-.73-1.01-1.07-1.59-1.42-.48-.29-1.19-.12-1.46.38s-.13,1.16.38,1.46h0Z"/>
        <path class="cls-2" d="M76.21,31.23c.02.09.04.18.07.27.04.15.12.3.19.43.31.58,1.23.58,1.54,0,.08-.14.15-.28.19-.43.02-.09.04-.18.07-.27.09-.36,0-.78-.27-1.04-.21-.19-.46-.31-.75-.31-.27,0-.56.12-.75.31-.28.28-.36.66-.27,1.04h0Z"/>
        <path class="cls-2" d="M23.28,76.34c.44.85.84,1.76,1.68,2.28.57.35,1.16-.12,1.22-.7.1-.98-.46-1.91-.87-2.77-.27-.57-1.1-.72-1.61-.42-.57.34-.71,1.04-.42,1.61h0Z"/>
        <g>
          <path class="cls-4" d="M52.12,54.97c-4.91,1.59-2.31,8.53.23,11.11,2.24,2.28,5.69,2.94,8.72,2.04,3.09-.92,7.65-5.38,3.47-8.11-.17-.11-.35-.21-.54-.29-.65-.3-1.38-.44-2.08-.57-1.98-.37-2.99-1-4.34-2.41-.57-.59-1.22-1.1-1.93-1.45-1.08-.54-2.28-.72-3.54-.31Z"/>
          <path class="cls-5" d="M55.65,55.28c.71.35,1.36.86,1.93,1.45,1.35,1.41,2.36,2.04,4.34,2.41.7.13,1.43.27,2.08.57-.11.29-.26.55-.4.67-1.96,1.63-4.35,2.13-6.51.67-1.9-1.28-1.81-3.63-1.45-5.77Z"/>
        </g>
        <g>
          <path class="cls-4" d="M61.85,52.1c5.14.47,5.48-6.93,4.16-10.3-1.16-2.98-4.07-4.95-7.21-5.31-3.2-.37-9.15,1.93-6.39,6.08.12.17.24.33.38.48.48.53,1.1.95,1.69,1.35,1.67,1.12,2.35,2.1,3.04,3.92.29.77.69,1.49,1.2,2.1.78.92,1.81,1.56,3.13,1.68Z"/>
          <path class="cls-5" d="M58.73,50.42c-.51-.6-.91-1.33-1.2-2.1-.68-1.82-1.37-2.8-3.04-3.92-.59-.39-1.2-.81-1.69-1.35.22-.22.45-.41.63-.46,2.45-.72,4.84-.24,6.24,1.95,1.24,1.93.23,4.05-.94,5.87Z"/>
        </g>
      </g>
    </g>
  </g>
</svg>