<?xml version="1.0" encoding="UTF-8"?>
<svg id="Capa_2" data-name="Capa 2" xmlns="http://www.w3.org/2000/svg" viewBox="0 0 100 100">
  <defs>
    <style>
      .cls-1 {
        fill: #fff;
      }

      .cls-2 {
        fill: #d8d6a4;
      }

      .cls-3 {
        fill: none;
      }

      .cls-4 {
        fill: #4a2d2d;
      }

      .cls-5 {
        fill: #9e991c;
      }
    </style>
  </defs>
  <g id="COLOR">
    <g>
      <g>
        <g>
          <path class="cls-5" d="M48.13,35.23c-1.96-1.35-4.32-2.21-6.57-2.55-3.81-.58-7.86-.06-11.49,1.2-6.78,2.35-12.56,7.82-13.42,15.21-.82,7.06,3.5,14.34,10.82,15.55,4.01.66,7.76-.88,11.25-2.69,3.49-1.8,6.99-3.87,9.67-6.78,2.65-2.87,4.57-6.62,4.58-10.6,0-2.17-.59-4.39-1.76-6.23-.79-1.23-1.85-2.28-3.08-3.12Z"/>
          <path class="cls-2" d="M34.56,36.96s-1.78-1.36-5.55.52-6.49,6.17-5.44,7.01,3.77.94,7.32-1.46c3.56-2.41,3.98-4.29,3.66-6.07Z"/>
          <path class="cls-4" d="M35.42,37.03c-.39-1.43-1.82-1.53-3.05-1.27-3.3.68-6.31,2.79-8.3,5.47-1.07,1.43-2.83,4.36.33,4.52,2.21.11,4.3-.66,6.13-1.85,1.21-.79,2.3-1.77,3.25-2.86.94-1.08,2.06-2.47,1.65-4.01ZM33.17,39.7c-1.94,2.53-5.59,5.57-8.73,4.51-.11-.04-.23-.09-.29-.2-.06-.12-.02-.27.04-.39.44-1.07,1.28-1.94,2.09-2.74,1.67-1.65,3.74-2.86,5.98-3.55,1.24-.38,2.3.32,1.46,1.61-.16.25-.35.5-.55.77Z"/>
          <path class="cls-4" d="M29.64,61.44c.8.11,1.68.55,2.49.38.54-.11.68-.84.32-1.2-.66-.67-1.93-.65-2.81-.69-.41-.02-.76.36-.76.76,0,.45.35.7.76.76h0Z"/>
          <path class="cls-4" d="M33.51,59.29l.52-.04c.27-.02.54-.23.53-.53s-.23-.5-.53-.53l-.52-.04c-.3-.02-.58.28-.57.57s.25.6.57.57h0Z"/>
          <path class="cls-1" d="M42.48,34.14c-.89-.23-1.86-.52-2.59.25-.41.44-.44,1.36.21,1.64.39.17.71.25,1.13.21.19-.02.36-.06.55-.08-.04.02-.07.02-.1,0,.08.02.16.04.24.06.54.14,1.18-.18,1.31-.75s-.17-1.16-.75-1.31h0Z"/>
          <path class="cls-1" d="M21.31,47.89l.05.2.06.14c.04.07.08.12.15.16.04.04.08.06.12.07.07.04.14.05.22.05.1,0,.2-.03.29-.08.07-.04.12-.08.16-.15.05-.05.08-.12.1-.19l.05-.2c.05-.21,0-.45-.16-.6-.12-.11-.27-.18-.43-.18-.16,0-.32.07-.43.18-.16.16-.21.38-.16.6h0Z"/>
        </g>
        <g>
          <path class="cls-5" d="M78.25,37.52c-.81-3.5-1.8-7.01-3.32-10.27-1.43-3.06-3.48-6.17-6.53-7.8-4.38-2.35-9.6-1.36-12.24,3.07-1.6,2.69-2.06,6.13-2.38,9.19-.34,3.3-.12,6.78,1.5,9.75,1.37,2.5,3.55,4.52,6.01,5.92,4.85,2.76,12.94,4.22,16.42-1.42,1.6-2.59,1.2-5.62.55-8.44Z"/>
          <path class="cls-2" d="M64.58,29.11c-.79.08-2.09.84-2.2,2.3s.73,4.29,2.82,5.55,3.24.42,3.66-1.05-.94-4.08-1.46-5.23-2.02-1.65-2.82-1.57Z"/>
          <path class="cls-4" d="M66.58,38.19c.25,1.62.74,3.22,1.23,4.78.39,1.25.64,2.82,1.63,3.73.26.24.82.19.88-.23.2-1.35-.48-2.66-.86-3.96-.46-1.58-.8-3.2-1.29-4.76-.32-1.04-1.76-.59-1.6.44h0Z"/>
          <path class="cls-4" d="M68.85,32.41c-.59-1.4-1.28-2.86-2.72-3.55-1.15-.55-2.74-.6-3.68.38-2.05,2.14-.19,5.87,1.36,7.71,1.54,1.82,4.9,2.4,5.42-.43.4-1.28.1-2.94-.39-4.11ZM64.77,35.53c-.88-1.21-2.48-3.77-1.06-4.98,1.98-1.69,3.81,2.41,4.27,3.78.16.47.28.97.2,1.47-.34,2.16-2.67.76-3.42-.27Z"/>
          <path class="cls-4" d="M75.34,45.9c.34-.13.75-.25.94-.59.14-.25.08-.66-.2-.78-.13-.06-.24-.1-.38-.1-.09,0-.18.01-.27.02-.16.02-.3.07-.45.11-.35.1-.6.49-.48.85.11.33.49.62.85.48h0Z"/>
          <path class="cls-4" d="M74.73,43.73c.55-.01,1.13-.17,1.41-.69.25-.47-.07-.95-.57-1-.19-.02-.37,0-.56.04-.03,0-.06.01-.09.02-.09.02-.08.01.04,0-.02.03-.2,0-.23,0-.43-.02-.84.39-.82.82s.36.83.82.82h0Z"/>
          <path class="cls-1" d="M59.44,21.18c-.95.71-1.72,1.56-2.2,2.65-.45,1.02-.91,2.75.16,3.57s1.84-.35,2-1.3c.22-1.25.41-2.33,1.3-3.3.74-.82-.27-2.36-1.25-1.62h0Z"/>
          <path class="cls-1" d="M56.32,30.89c.02.44.06.87.17,1.31.22.87,1.55.87,1.77,0,.11-.43.15-.86.17-1.31.02-.55-.5-1.07-1.05-1.05s-1.08.46-1.05,1.05h0Z"/>
        </g>
        <g>
          <path class="cls-5" d="M74.55,64.03c-2.03-2.79-5.18-4.67-8.39-5.79-1.85-.64-3.77-1.01-5.72-1.25-3.38-.41-6.9-.31-9.99,1.26-1.08.55-2.06,1.28-2.92,2.13-1.69,1.69-2.91,3.88-3.36,6.23-1.06,5.55,2.38,11.73,7.46,14.04,3.11,1.42,6.71,2.17,10.08,2.57,3.14.38,6.99.51,9.43-1.82,2.2-2.1,4.22-5.38,5.03-8.31.86-3.12.28-6.45-1.63-9.06Z"/>
          <path class="cls-4" d="M67.51,80.59c.23,0,.46.02.69,0,.4-.03.9-.27.87-.75-.04-.82-.98-.75-1.56-.74-.39,0-.76.34-.74.74s.33.74.74.74h0Z"/>
          <path class="cls-4" d="M68.46,78.22c.6,0,1.85.14,1.85-.77,0-.42-.4-.68-.77-.76-.35-.07-.73-.02-1.08-.02-.4,0-.79.35-.77.77s.34.77.77.77h0Z"/>
          <path class="cls-1" d="M61.55,58.77c-1.28-.87-3.02-.8-4.51-.77-1.75.04-3.07.51-4.35,1.7-.43.39-.12,1.26.5,1.21,1.31-.12,2.54-.24,3.85-.24,1.19,0,2.58-.33,3.73-.05s1.71-1.2.78-1.84h0Z"/>
          <path class="cls-1" d="M50.25,61.67c-.25,0-.48.06-.7.17-.29.14-.5.4-.6.7-.04.11-.06.25-.06.34,0,.09.01.19.03.28.04.17.09.22.18.34.13.17.29.27.49.34.17.05.24.04.39.02.14-.02.24-.05.38-.13.02-.01.04-.02.06-.03l-.24.1c.09-.04.19-.06.27-.12s.16-.12.23-.18l-.21.16s.07-.04.1-.06l-.24.1s.06-.02.09-.03l-.27.04s.06,0,.09,0c.25.02.55-.13.72-.3s.31-.47.3-.72-.1-.54-.3-.72-.44-.29-.72-.3h0Z"/>
        </g>
      </g>
      <rect class="cls-3" width="100" height="100"/>
    </g>
  </g>
</svg>