<?xml version="1.0" encoding="UTF-8"?>
<svg id="Capa_2" data-name="Capa 2" xmlns="http://www.w3.org/2000/svg" viewBox="0 0 100 100">
  <defs>
    <style>
      .cls-1 {
        fill: #fff;
      }

      .cls-2 {
        fill: none;
      }

      .cls-3 {
        fill: #f6dd79;
      }

      .cls-4 {
        fill: #4a2d2d;
      }
    </style>
  </defs>
  <g id="COLOR">
    <g>
      <g>
        <path class="cls-3" d="M81.76,33.56c-1.22-3.27-3.33-6.35-6.59-7.83-4.48-2.02-10.87-1.4-15.06,1.14-3.73,2.26-5.76,7.02-6.48,11.15-.56,3.27-.23,6.31,1.41,9.21,1.41,2.5,3.6,4.7,6.12,6.08,2.61,1.43,6.2,2.46,9.19,2,3.2-.49,6.35-2.74,8.51-5.07,4.13-4.45,5-11.08,2.91-16.69Z"/>
        <path class="cls-3" d="M65.97,63.49c-1.01-2.71-2.93-5.08-5.33-6.69-4.59-3.08-10.62-2.25-14.45,1.7-2.09,2.15-4,4.8-5.11,7.59-1.09,2.74-1.35,5.85,0,8.56,1.28,2.58,3.77,4.63,6.34,5.85,4.84,2.29,10.51,1.54,14.64-1.87,4.36-3.61,5.86-9.87,3.91-15.14Z"/>
        <path class="cls-3" d="M37.01,42.33c-1.58-2.82-4.12-5.12-7.08-6.42-3.7-1.62-8.26-1.35-11.52,1.2-3.57,2.8-5.62,7.7-5.94,12.13-.41,5.76,1.46,12.69,7.22,15.2,5.89,2.57,12.28-.51,16.21-5.05,2.2-2.54,3.3-5.2,3.28-8.57-.02-2.95-.73-5.91-2.17-8.49Z"/>
        <path class="cls-1" d="M22.87,37.84c-2.44.75-4.28,2.32-5.58,4.52-1.13,1.92-2.26,4.8-1.03,6.91.37.64,1.41.69,1.76,0,.84-1.64.77-3.57,1.61-5.24.89-1.77,2.37-3.34,3.94-4.53.75-.57.37-1.97-.69-1.65h0Z"/>
        <path class="cls-1" d="M16.19,52.96l.06.41c.03.19.09.37.2.53.35.54,1.09.54,1.44,0,.19-.29.21-.6.26-.94.06-.36.02-.73-.26-.99-.2-.18-.44-.3-.72-.3-.26,0-.54.11-.72.3-.28.28-.32.62-.26.99h0Z"/>
        <path class="cls-1" d="M53.61,57.39c-2.41.71-4.47,2.09-6.11,3.99-1.36,1.58-3.21,4.05-2.59,6.24.2.69,1.01.84,1.52.4,1.4-1.21,1.9-3.41,3.08-4.87,1.32-1.64,3.05-2.9,4.88-3.92.99-.55.32-2.16-.77-1.84h0Z"/>
        <path class="cls-1" d="M43.74,72.55c0,.28.04.57.12.84.05.16.1.32.2.46.18.26.39.4.69.52.2.08.55.02.73-.1.21-.13.37-.32.43-.56.08-.3.04-.58-.06-.87-.02-.08-.04-.15-.06-.23-.02-.11-.02-.09,0,.07,0-.04,0-.09-.01-.14-.03-.53-.45-1.04-1.02-1.02-.54.02-1.03.45-1.02,1.02h0Z"/>
        <path class="cls-1" d="M66.11,27.95c-2.53.8-4.62,2.27-6.22,4.39s-3.38,5.54-2.85,8.23c.18.91,1.44.94,1.88.25.61-.97.74-2.1,1.09-3.19.38-1.18.88-2.3,1.53-3.35,1.2-1.94,2.95-3.63,5.07-4.52,1.07-.45.69-2.18-.5-1.81h0Z"/>
        <path class="cls-1" d="M58.25,44.81c0,.13.01.26.02.39.02.22.04.38.16.57.1.16.21.27.37.37.25.16.62.16.88,0,.16-.1.27-.21.37-.37.11-.19.14-.35.16-.57,0-.13.02-.26.02-.39.02-.24-.12-.53-.29-.7s-.45-.3-.7-.29-.52.1-.7.29-.31.44-.29.7h0Z"/>
        <path class="cls-4" d="M28.04,61.17c.51,0,1.18.12,1.57-.29.25-.26.25-.68,0-.94-.39-.4-1.06-.29-1.57-.29-.4,0-.77.35-.76.76s.33.75.76.76h0Z"/>
        <path class="cls-4" d="M31.41,58.1c.12-.09.23-.18.34-.29.2-.2.28-.5.2-.77-.04-.13-.11-.25-.2-.35-.1-.1-.21-.17-.35-.2-.14-.02-.29-.05-.43-.05-.08,0-.17,0-.25,0-.34,0-.67.19-.84.48-.16.27-.17.59-.05.87s.34.48.63.57c.17.05.35.05.52,0,.17-.05.31-.13.43-.25h0Z"/>
        <path class="cls-4" d="M56.88,77.98c.65,0,1.45.12,2.01-.29s.54-1.07,0-1.47-1.36-.29-2.01-.29c-.54,0-1.05.47-1.03,1.03s.45,1.02,1.03,1.03h0Z"/>
        <path class="cls-4" d="M59.72,74.74c1.2,0,1.21-1.87,0-1.87s-1.21,1.87,0,1.87h0Z"/>
        <path class="cls-4" d="M72.32,51.16c.67-.01,1.33.04,1.88-.42.32-.26.32-.89,0-1.15-.55-.45-1.21-.41-1.88-.42-.52,0-1.02.46-.99.99s.44,1,.99.99h0Z"/>
        <path class="cls-4" d="M74.53,47.47l.32-.04c.08,0,.15-.01.22-.05.07-.02.13-.06.18-.12.1-.1.17-.26.17-.4s-.05-.3-.17-.4l-.12-.09c-.09-.05-.18-.08-.29-.08l-.32-.04c-.14-.02-.33.08-.43.18-.11.11-.19.28-.18.43s.06.32.18.43c.11.1.28.2.43.18h0Z"/>
      </g>
      <rect class="cls-2" width="100" height="100"/>
    </g>
  </g>
</svg>