<?xml version="1.0" encoding="UTF-8"?>
<svg id="Capa_2" data-name="Capa 2" xmlns="http://www.w3.org/2000/svg" viewBox="0 0 100 100">
  <defs>
    <style>
      .cls-1 {
        fill: #f5b3c2;
      }

      .cls-2 {
        fill: #fff;
      }

      .cls-3 {
        fill: none;
      }

      .cls-4 {
        fill: #a65247;
      }

      .cls-5 {
        fill: #4a2d2d;
      }

      .cls-6 {
        fill: #fcf8d1;
      }
    </style>
  </defs>
  <g id="COLOR">
    <g>
      <g>
        <g>
          <g>
            <path class="cls-1" d="M54.15,65.25c-1.8-3.51-5.08-5.77-8.74-7.03-2.39-.83-4.88-1.28-7.39-1.57-3.71-.43-7.67-.95-11.08.98-2.6,1.47-4.51,4.12-5.05,7.06-.57,3.13.26,6.38,2.3,8.81,2.2,2.63,5.34,4.46,8.13,6.39,2.93,2.02,6.03,4.04,9.61,4.64,3.19.53,6.52-.31,9.13-2.21,5.34-3.89,5.96-11.47,3.09-17.07Z"/>
            <path class="cls-4" d="M30.31,60.74c-1.2-1.1-3.07-.71-4.21.25-.53.44-1.07,1.06-1.08,1.78-.01.79.59,1.23,1.3,1.38,1.05.23,2.3.14,3.29-.32,1.21-.57,1.82-2.06.7-3.09Z"/>
            <path class="cls-4" d="M27.59,66.22c-.12-.22-.34-.37-.58-.44-.53-.16-1.11.13-1.52.45-.21.16-.37.4-.36.67,0,.19.09.36.22.5.23.26.58.43.94.4.52-.04,1.11-.34,1.33-.83.11-.24.12-.52-.02-.76Z"/>
            <path class="cls-4" d="M44.66,61.37c-1.01-.28-2.03.22-2.58,1.08-.39.61-.54,1.37-.54,2.08,0,.38.09.77.34,1.06.21.25.52.39.84.46,1.51.32,2.97-.66,3.26-2.18.2-1.05-.21-2.19-1.31-2.5Z"/>
            <path class="cls-4" d="M51.19,68.76c-.18-.19-.4-.34-.63-.48-.78-.43-1.99-.93-2.87-.66-.95.29-1.04,1.43-.66,2.2.22.43.57.82.94,1.12.37.3.78.48,1.25.52.88.08,1.85-.45,2.23-1.26.27-.57.1-1.06-.26-1.44Z"/>
            <path class="cls-4" d="M50.22,75.06c-.26-.62-.78-1.18-1.27-1.41-.33-.15-.76-.25-1.09-.05-.32.19-.43.55-.46.9-.03.32.06.67.18.96.12.31.31.59.54.83.45.46,1.28.93,1.86.42.5-.43.49-1.07.24-1.66Z"/>
            <path class="cls-4" d="M44.5,77.26c-.45-.66-1.1-1.3-1.91-1.48-.74-.16-1.76.08-1.83.98-.03.45.15.93.35,1.32.18.35.41.68.71.94.33.28.7.45,1.13.52.43.06.96.12,1.35-.13.74-.48.65-1.5.21-2.15Z"/>
            <path class="cls-5" d="M48.61,81.04c.27-.01.56-.02.79-.17.48-.3.48-.97,0-1.27-.24-.15-.52-.15-.79-.17-.42-.02-.82.38-.8.8,0,.21.08.42.23.57s.35.24.57.23h0Z"/>
            <path class="cls-5" d="M51.19,78.7l.3-.02c.11,0,.21-.04.29-.12.07-.07.13-.19.12-.29-.01-.24-.18-.4-.41-.41l-.3-.02c-.11,0-.24.05-.31.13s-.13.2-.13.31.04.23.13.31.19.14.31.13h0Z"/>
          </g>
          <path class="cls-2" d="M26.42,71.22c.27,1.76,1.69,2.97,3.07,3.96s3.1,2.3,4.87,2.06c.62-.09.75-.85.53-1.31-.59-1.24-2.15-1.8-3.26-2.49-1.25-.78-2.69-1.67-3.5-2.94-.6-.94-1.87-.3-1.71.72h0Z"/>
          <path class="cls-2" d="M36.58,78.7c.24.2.48.45.77.58.21.09.39.15.62.12.21-.03.42-.11.56-.27.29-.32.38-.8.15-1.19-.17-.28-.4-.49-.63-.71-.2-.19-.46-.3-.74-.3-.26,0-.56.11-.74.3s-.32.46-.3.74c.01.26.1.56.3.74h0Z"/>
        </g>
        <g>
          <path class="cls-1" d="M89.7,53.13c-.63-3.27-2.64-6.18-5.16-8.32-5.57-4.73-14.1-6.37-21.19-4.86-4.07.87-6.86,3.58-8.56,7.3-.76,1.67-1.27,3.61-1.05,5.46.08.66.28,1.3.58,1.89.2.4.47.77.72,1.15.13.21.25.42.37.63.07.12.14.25.21.37.19.33.38.67.57,1,.04.06.07.12.1.18.11.2.22.4.34.59.68,1.2,1.35,2.41,2.07,3.59.71,1.17,1.47,2.31,2.31,3.39.81,1.05,1.72,2.03,2.74,2.88.5.42,1.03.8,1.59,1.14.04.03.08.05.13.08.53.32,1.08.6,1.64.83.02,0,.05.02.07.03,1.03.42,2.12.68,3.22.81,3.63.41,7.45.25,10.86-1.13,3.31-1.33,5.71-3.88,7.08-7.16,1.31-3.11,2-6.47,1.35-9.85Z"/>
          <path class="cls-6" d="M65.6,68.8c-.02.29-.07.56-.13.8-.61-.36-1.18-.77-1.72-1.22-1.02-.85-1.92-1.83-2.74-2.88-.84-1.08-1.6-2.22-2.31-3.39-.72-1.18-1.39-2.39-2.07-3.59-.11-.2-.22-.4-.34-.59.74-.24,1.93-.37,3.55.32,2.92,1.24,4.7,4.56,5.45,6.39.74,1.83.4,3.07.3,4.16Z"/>
          <path class="cls-4" d="M67.19,70.46s-.05-.02-.07-.03c-.57-.23-1.12-.51-1.64-.83-.04-.03-.09-.05-.13-.08.13-.26.23-.52.26-.72.1-.7,0-2.77-.3-4.16s-3.47-5.84-5.74-6.73c-1.2-.47-2.45-.36-3.36-.15-.19-.33-.38-.67-.57-1-.07-.12-.14-.25-.21-.37.47-.18,1.06-.4,1.66-.6,1.34-.45,3.27-.15,5.79,1.54,2.53,1.68,5.1,6.14,5.25,9.01.09,1.79-.49,3.27-.94,4.13Z"/>
          <path class="cls-4" d="M60.56,47.14c-.15-.38-.48-.59-.88-.64-.39-.04-.82.12-1.09.41-.36.34-.6.83-.73,1.29-.09.29-.12.64.06.91.17.26.49.4.79.44.54.09,1.15-.1,1.49-.54.21-.27.31-.62.37-.95.06-.29.1-.64-.01-.92Z"/>
          <path class="cls-4" d="M69.38,43.47c-.33-.58-1.1-.9-1.71-1.05-.76-.19-1.55-.18-2.32-.06-1.02.16-2.16.37-3.01,1.01-.41.31-.75.76-.79,1.29-.06.74.6,1.16,1.22,1.39,1.4.53,3.02.69,4.44.16.91-.34,2.86-1.51,2.17-2.73Z"/>
          <path class="cls-4" d="M70.66,52.33c-.58-.78-1.79-1.5-2.67-.74-.91.79-1.38,2.46-1.31,3.62.07,1.16.61,2.61,1.86,2.92,1.32.33,2.52-.61,2.93-1.82.44-1.32,0-2.89-.8-3.99Z"/>
          <path class="cls-4" d="M85.97,54.13c-.76-.7-1.81-1.1-2.83-.79-1.38.41-2.31,1.99-2.15,3.39.15,1.35,1.07,2.48,2.39,2.83,1.27.34,2.91-.04,3.59-1.25.75-1.34.04-3.21-1.01-4.18Z"/>
          <path class="cls-4" d="M82.61,62.32c-.14-.34-.35-.63-.68-.79-1.06-.52-2.09.62-2.54,1.45-.47.87-.73,2.12-.16,3.01.29.45.79.69,1.33.57.56-.13,1-.59,1.35-1.02.41-.51.75-1.09.85-1.74.07-.45.04-1.01-.15-1.48Z"/>
          <path class="cls-4" d="M79.48,45.48c-.66-.08-1.31.4-1.3,1.09.02.61.6,1.11,1.18,1.18.66.08,1.41-.32,1.49-1.02.09-.75-.74-1.17-1.37-1.25Z"/>
          <path class="cls-5" d="M56.52,58c1.37-.35,2.61-.08,3.74.76,1.02.76,1.84,1.73,2.58,2.75s1.44,2.2,1.85,3.44c.21.64.36,1.31.45,1.98.04.36.09.72.08,1.08s-.13.72-.09,1.07c.04.31.42.46.61.17.29-.46.29-1.17.33-1.7.05-.63,0-1.27-.13-1.88-.24-1.15-.72-2.26-1.33-3.26s-1.34-1.91-2.14-2.75c-.75-.8-1.58-1.49-2.6-1.91-1.07-.44-2.43-.65-3.49-.06-.18.1-.06.37.13.32h0Z"/>
          <path class="cls-5" d="M56.03,56.68c3.86-1.21,6.78.91,8.91,3.99.93,1.34,1.83,2.8,2.31,4.37.31,1,.44,2.07.2,3.1-.15.66-.47,1.22-.54,1.89-.03.3.37.5.6.35,1.39-.92,1.32-3.13,1.04-4.6-.43-2.23-1.73-4.46-3.08-6.25-2.13-2.85-6.2-5.46-9.78-3.64-.44.22-.13.93.33.79h0Z"/>
          <path class="cls-5" d="M81.95,68.13c.46-.02.86-.04,1.23-.35.19-.16.24-.46.18-.69-.07-.25-.26-.41-.49-.49-.36-.13-.76,0-1.11.12s-.56.43-.52.79c.05.34.35.64.71.63h0Z"/>
          <path class="cls-5" d="M83.38,66.17c.14.02.29.05.44.04.09,0,.22-.01.29-.04.21-.06.35-.2.47-.37l-.27.27c.12-.08.24-.17.31-.3.08-.14.11-.31.09-.47-.04-.31-.28-.53-.58-.6l.18.08c-.19-.15-.43-.12-.65-.09l.21-.03c-.1.01-.19.01-.29,0-.17-.02-.43.1-.54.22s-.19.27-.21.44,0,.35.09.49c.1.16.27.32.46.35h0Z"/>
          <path class="cls-2" d="M70.91,40.75c-2.36-.46-4.81-.57-7.12.25-1.71.6-4.25,1.81-4.33,3.88-.02.58.55.91,1.06.81.78-.15,1.27-.65,1.9-1.11.77-.55,1.58-1.01,2.48-1.31,1.85-.63,3.81-.72,5.75-.62,1.07.06,1.33-1.68.26-1.89h0Z"/>
        </g>
        <path class="cls-2" d="M56.73,49.07c-.35.57-.66,1.23-.46,1.91.1.35.4.61.76.66s.71-.13.92-.44c.28-.42.3-.95.45-1.43.14-.43-.13-.91-.53-1.08-.42-.18-.9-.02-1.14.37h0Z"/>
        <g>
          <g>
            <path class="cls-1" d="M55.33,30.86c-3.05-5.91-9.73-7.38-15.84-6.93-7.45.56-14.97,2.85-21.25,6.93-2.81,1.83-5.61,4.05-6.91,7.23-1.22,2.98-.88,6.52,1,9.15,4.91,6.86,14.69,5.95,22.14,2.78.15-.06.69-.3,1.49-.65,3.5-1.34,9.1-3.55,12.57-4.97l-11.24,4.39c2.97-1.31,10.96-4.32,11.28-4.41,1.63-.67,2.78-1.16,3-1.3,4.08-2.53,6.17-7.53,3.75-12.23Z"/>
            <path class="cls-5" d="M48.58,44.38s0,0,0,0c-.02,0-.03.01-.05.02l.05-.02Z"/>
          </g>
          <path class="cls-4" d="M33.36,43.89s-1.68,1.88-1.68,3.07,2.1,2.41,2.1,2.41c0,0,1.36-3.8,6.02-6.08s8.65.03,8.65.03c0,0,.92-2.77-2.51-3.1-3.87-.37-6.93.59-8.92,1.39-1.98.79-3.67,2.28-3.67,2.28Z"/>
          <path class="cls-6" d="M39.9,48.74s6.14-3.07,7.13-3.96,1.17-1.93,1.17-1.93c0,0-4.64-1.14-7.41-.05s-4.95,3.17-5.75,4.46-1.27,2.11-1.27,2.11l6.12-.63Z"/>
          <path class="cls-5" d="M48.51,41.71c-.76-1.73-2.86-2.09-4.58-2-3.98.19-9.14,1.53-11.66,4.87-1.04,1.38-1.33,3.23.12,4.43,1.63,1.36,4.13.93,6.02.47,2.39-.58,4.66-1.6,6.84-2.71,1.44-.73,2.82-1.65,3.23-3.28.18-.7.28-1.22.03-1.79ZM41,47.67c-1.41.56-4.34,1.57-7.34.96-1.6-.32-1.59-2.11-.68-3.22,1.81-2.21,4.8-3.42,7.52-4,1.34-.28,2.72-.49,4.09-.52.87-.02,1.79.05,2.52.59.54.39.87,1.12.45,1.86-1.61,2.9-5.14,3.76-6.57,4.33Z"/>
          <path class="cls-5" d="M34.1,49.46c1.5-4.2,5.89-6.8,10.24-6.85.65,0,1.31.04,1.96.14.6.1,1.18.32,1.77.41.18.03.31-.2.13-.31-.48-.27-1.09-.37-1.62-.47-.56-.1-1.13-.16-1.7-.19-1.2-.05-2.4.01-3.57.3-2.21.55-4.2,1.85-5.67,3.58-.82.97-1.46,2.08-1.86,3.29-.07.21.25.29.32.09h0Z"/>
          <path class="cls-4" d="M27.79,34.17c-.3-.88-1.33-1.57-2.23-1.09-.95.52-1.46,1.58-1.68,2.59-.22,1.03-.39,2.62.87,3.02,1.06.34,2.17-.33,2.67-1.25.51-.93.71-2.25.36-3.27Z"/>
          <path class="cls-4" d="M19.91,33.34c-.28-.11-.61-.01-.86.14-.54.32-1.07,1.21-.89,1.85.11.41.73.46,1.07.37.5-.13.91-.52,1.1-1,.19-.47.13-1.16-.41-1.37Z"/>
          <path class="cls-4" d="M19.57,44.16c-.22-1-.81-1.89-1.48-2.65-.59-.67-1.41-1.55-2.39-1.47-.6.05-.92.54-1.02,1.09-.22,1.18,0,2.5.53,3.57.51,1.02,1.55,2.16,2.79,2.09,1.31-.08,1.82-1.5,1.57-2.62Z"/>
          <path class="cls-4" d="M41.03,26.88c-.69-.25-1.49.02-2.16.2-1,.26-1.99.55-2.96.89-.81.28-1.57.8-2.03,1.53-.41.65-.45,1.51.31,1.91,1.33.7,3.1.33,4.41-.22.73-.31,1.43-.7,2.07-1.17.56-.4,1.09-.92,1.19-1.64.09-.64-.2-1.27-.83-1.5Z"/>
          <path class="cls-4" d="M51.93,31.72c-.06-.53-.37-1.1-.66-1.47-.73-.9-2.06-1.34-3.19-1.43-.9-.07-2.46.23-2.38,1.42.03.44.29.84.6,1.16.43.44.95.81,1.48,1.13,1.08.64,2.43.85,3.59.29.48-.23.62-.65.57-1.1Z"/>
          <path class="cls-4" d="M52.63,36.74c-.09-.33-.33-.57-.68-.6-.79-.06-1.79.68-2.21,1.3-.37.55-.74,1.67.21,1.85.74.14,1.54-.14,2.06-.67.46-.46.81-1.22.62-1.88Z"/>
          <path class="cls-4" d="M41.41,35.9c.08.29.35.5.62.61.58.24,1.6.14,2.02-.38.26-.33-.06-.86-.33-1.08-.41-.33-.96-.42-1.46-.29-.49.13-1.01.59-.85,1.15Z"/>
          <path class="cls-5" d="M23.85,50.65c.52.05,1.1.13,1.45-.35.1-.14.1-.4,0-.54-.35-.48-.93-.4-1.45-.35-.32.03-.64.26-.62.62s.27.59.62.62h0Z"/>
          <path class="cls-5" d="M26.23,48.54c.27,0,.55,0,.81-.09s.47-.31.46-.6-.19-.5-.46-.6c-.25-.1-.54-.08-.81-.09-.36-.01-.71.33-.69.69s.3.71.69.69h0Z"/>
          <path class="cls-5" d="M51.78,40.93c.13,0,.27,0,.39-.05.11-.04.25-.08.33-.14.18-.13.3-.29.3-.52s-.12-.39-.3-.52c-.08-.06-.23-.11-.33-.14-.12-.04-.27-.04-.39-.05-.37-.02-.73.34-.71.71s.31.73.71.71h0Z"/>
          <path class="cls-2" d="M38.52,26.21c-3.46.09-6.73.72-9.94,2.04-2.72,1.12-6.6,2.67-8.04,5.41-.35.67.23,1.46.98,1.27,1.46-.37,2.64-1.3,3.91-2.07,1.39-.83,2.82-1.6,4.32-2.22,2.87-1.19,5.96-2.09,9.02-2.61,1.04-.18.79-1.85-.25-1.83h0Z"/>
          <path class="cls-2" d="M17.84,35.77c-.74.4-1.61.86-1.8,1.76-.11.52.23.98.77,1.01.93.05,1.6-.67,2.18-1.29.73-.78-.19-1.99-1.14-1.48h0Z"/>
        </g>
      </g>
      <rect class="cls-3" width="100" height="100"/>
    </g>
  </g>
</svg>