<?xml version="1.0" encoding="UTF-8"?>
<svg id="Capa_2" data-name="Capa 2" xmlns="http://www.w3.org/2000/svg" viewBox="0 0 100 100">
  <defs>
    <style>
      .cls-1 {
        fill: #fff;
      }

      .cls-2 {
        fill: none;
      }

      .cls-3 {
        fill: #4a2d2d;
      }

      .cls-4 {
        fill: #ef7738;
      }

      .cls-5 {
        fill: #f7bb9b;
      }
    </style>
  </defs>
  <g id="COLOR">
    <g>
      <g>
        <g>
          <path class="cls-4" d="M29.74,35.36s5.67-1.99,8.44-.35c2.77,1.63,7.09,8.51,4.47,18.02s-12.34,10.85-17.1,8.65-8.3-7.02-8.51-14.47,6.67-10.14,8.8-10.92c2.13-.78,3.9-.92,3.9-.92Z"/>
          <path class="cls-5" d="M32.79,34.65s-1.28-1.56-2.77-1.21-3.12,2.91-2.7,3.76c.43.85,2.41.71,3.97.14s1.77-1.84,1.49-2.7Z"/>
          <path class="cls-3" d="M33.31,34.61c-.57-1.51-2.46-2.18-3.9-1.62-.84.33-1.51.99-1.99,1.74-.24.38-.44.8-.6,1.23-.15.41-.39.88-.32,1.34.06.43.54.58.89.72.41.17.85.26,1.3.29.9.04,1.79-.2,2.61-.55,1.16-.51,2.55-1.72,2.01-3.14ZM30.22,36.8c-.42.15-1.46.45-1.94.34-1.07-.24.15-1.84.43-2.23.7-.97,2.5-1.52,3.34-.17.65,1.05-1.12,1.8-1.83,2.05Z"/>
          <path class="cls-3" d="M36.47,58.28c.66.25,1.59.16,1.92-.56.15-.32.18-.79-.13-1.04-.28-.22-.58-.38-.95-.38-.09,0-.18,0-.27.02.11-.01-.69.09-.31.05-.49.06-.89.33-.96.84s.24.9.7,1.07h0Z"/>
          <path class="cls-3" d="M39.28,54.92l.15-.11c.08-.05.14-.11.18-.18.05-.08.07-.16.07-.26,0-.09-.02-.18-.07-.26-.05-.08-.11-.14-.18-.18l-.15-.11c-.1-.06-.2-.09-.32-.09-.11,0-.22.03-.32.09-.19.11-.31.32-.31.54s.12.43.31.54c.1.06.2.09.32.09.11,0,.22-.03.32-.09h0Z"/>
          <path class="cls-1" d="M24.06,39.39c-1.48.66-2.66,1.78-3.38,3.23-.58,1.17-1.32,3.22-.22,4.27.32.3.91.36,1.22,0,.72-.85.5-2.06.9-3.08.46-1.17,1.34-2.17,2.41-2.83,1.03-.63.13-2.06-.93-1.58h0Z"/>
          <path class="cls-1" d="M20.15,50.48c.05.23.1.45.22.66.1.19.26.36.44.47.29.17.73.2,1.03.01.43-.28.62-.83.43-1.31-.08-.2-.09-.25-.21-.4-.05-.06-.09-.12-.14-.18l-.15-.19-.2-.15c-.11-.07-.23-.11-.36-.11-.21-.03-.44,0-.62.11-.37.24-.54.66-.44,1.09h0Z"/>
        </g>
        <g>
          <path class="cls-4" d="M77.62,25.99c-1.9-2.81-5.09-4.4-8.33-5.1-5.3-1.14-12.41-1.3-16.6,2.84-1.6,1.58-2.55,3.71-2.8,5.93-.68,6.17,1.83,12.82,7.71,15.46,5.64,2.53,12.37.81,16.93-3.11,4.36-3.75,6.5-10.96,3.08-16.02Z"/>
          <path class="cls-3" d="M70.29,41.63c.21.06.41.1.63.1.14,0,.28-.02.42-.05.11-.01.2-.05.3-.11l-.09.05.08-.02c.13-.03.24-.09.33-.17-.02.01.26-.21.08-.07.22-.17.42-.39.41-.69-.01-.32-.18-.49-.41-.69.05.04.08.06.01,0-.1-.1-.32-.25-.47-.26-.07-.02-.06-.01.05.04l-.25-.11c-.13-.04-.28-.04-.42-.05-.23-.02-.46.03-.68.09-.97.28-.97,1.68,0,1.96h0Z"/>
          <path class="cls-3" d="M73.91,37.63c.18-.06.36-.12.53-.21.44-.23.68-.75.48-1.22-.1-.25-.33-.47-.6-.53-.2-.04-.4-.04-.59.02s-.37.15-.55.23c-.19.09-.38.36-.43.56-.05.21-.04.41.05.61.17.4.66.7,1.1.54h0Z"/>
          <path class="cls-1" d="M60.34,22.44c-2.02.15-3.78.9-5.21,2.36-1.05,1.07-2.87,3.39-1.62,4.84.19.21.54.29.81.21,1.25-.38,1.62-2.24,2.46-3.16,1.01-1.11,2.38-1.98,3.82-2.4.98-.29.85-1.93-.25-1.85h0Z"/>
          <path class="cls-1" d="M53.96,34.29c1.27,0,1.27-1.97,0-1.97s-1.27,1.97,0,1.97h0Z"/>
        </g>
        <g>
          <path class="cls-4" d="M72.74,66.5c-.71-2.77-2.4-5.45-4.82-7.01-3.55-2.29-8.12-1.93-12-.74-3.66,1.13-6.52,3.93-7.97,7.45-1.25,3.02-.87,6.24-.09,9.34.72,2.85,1.59,5.84,4.01,7.72,4.86,3.77,11.43,1.4,15.61-2.19,4.14-3.56,6.66-9.1,5.25-14.57Z"/>
          <path class="cls-3" d="M67.37,76.54c.33,0,.68.03,1.01,0,.31-.03.52-.09.73-.21.27-.16.46-.47.46-.79,0-.28-.15-.55-.37-.72-.06-.06-.12-.1-.2-.12-.12-.06-.14-.06-.06-.02-.17-.07-.31-.11-.5-.14-.35-.04-.71,0-1.06,0-.52,0-1.02.45-.99.99s.44.99.99.99h0Z"/>
          <path class="cls-3" d="M68.65,73.67c.18,0,.36.02.53-.03.2-.06.39-.15.54-.31.17-.18.3-.49.2-.75-.03-.09-.06-.18-.11-.26-.08-.13-.18-.23-.31-.32-.13-.1-.26-.16-.41-.21l-.18-.07c-.25-.09-.54-.02-.76.1-.27.14-.43.43-.47.73-.08.6.37,1.1.97,1.12h0Z"/>
          <path class="cls-1" d="M55.11,60.91c-1.57.92-3.04,1.99-4.09,3.51-.85,1.23-1.82,3.32-.83,4.7.25.35.82.54,1.15.15.87-1.04.98-2.51,1.71-3.67.81-1.28,1.96-2.35,3.13-3.3.79-.65-.22-1.89-1.07-1.39h0Z"/>
          <path class="cls-1" d="M50.28,72.64c.02.08.03.16.05.25.05.24.17.44.34.62.26.27.66.37,1.02.27.18-.05.33-.14.46-.27.13-.13.22-.28.27-.46.04-.1.05-.25.05-.36,0-.12-.03-.25-.05-.37-.02-.08-.04-.16-.06-.24-.06-.26-.27-.51-.49-.64s-.57-.19-.83-.11-.51.25-.64.49c-.14.27-.16.53-.11.83h0Z"/>
        </g>
      </g>
      <rect class="cls-2" width="100" height="100"/>
    </g>
  </g>
</svg>