<?xml version="1.0" encoding="UTF-8"?>
<svg id="Capa_2" data-name="Capa 2" xmlns="http://www.w3.org/2000/svg" viewBox="0 0 100 100">
  <defs>
    <style>
      .cls-1 {
        fill: #fff;
      }

      .cls-2 {
        fill: #e3dbc5;
      }

      .cls-3 {
        fill: none;
      }

      .cls-4 {
        fill: #4a2d2d;
      }

      .cls-5 {
        fill: #c4b384;
      }
    </style>
  </defs>
  <g id="COLOR">
    <g>
      <g>
        <path class="cls-5" d="M75.44,28.27c-.93-3.35-3.16-7.22-6.11-9.17-3.04-2.02-7.58-2.27-11.04-1.29s-6.22,3.65-8.2,6.52c-1.08,1.57-1.98,3.29-2.56,5.11-1.15,3.58-1.42,7.92-1.03,11.64.33,3.24,1.46,6.58,3.94,8.81,2.45,2.2,6.88,3.6,10.15,3.42,3.5-.2,6.66-2.6,9.11-4.92,2.59-2.45,4.44-5.62,5.3-9.08.87-3.49,1.41-7.51.44-11.03Z"/>
        <path class="cls-5" d="M47.24,53.19c-.62-3.54-4.12-6.22-6.94-8.08-5.3-3.5-11.27-4.22-17.29-2.3-2.89.92-5.68,2.38-7.5,4.9-3.7,5.13-1.28,12.06,3.31,15.68,5.44,4.29,13.06,5.55,19.73,3.86,3.07-.78,5.72-2.54,7.1-5.45,1.23-2.59,2.09-5.73,1.59-8.61Z"/>
        <path class="cls-2" d="M58.07,31.45s-.62-2.72-2.56-2.79-3.11,4.04-3.49,6.75c-.39,2.72.31,5.74,1.94,6.13s3.11-2.87,3.49-4.58c.39-1.71.62-5.51.62-5.51Z"/>
        <path class="cls-2" d="M28.26,58.15c-2.95-.08-5.28,1.4-5.67,2.1s.47,2.33,3.26,2.17,5.28.39,6.99.7,3.18.78,3.73,0-.08-1.63-.62-1.94-4.74-2.95-7.69-3.03Z"/>
        <path class="cls-4" d="M57.6,29.13c-2.53-2.82-4.66.73-5.23,2.78-.32,1.17-.64,3.17-.69,4.38-.05,1.21-.17,2.61.21,3.77.31.96,1.09,1.81,2.16,1.78,1.1-.03,1.97-.96,2.5-1.84.61-1.02,1.1-2.13,1.38-3.29.3-1.24.4-2.53.46-3.8.06-1.29.14-2.76-.78-3.79ZM57.06,32.84c-.06,1.92-.21,3.93-.81,5.76-.28.83-.78,1.76-1.59,2.18-.84.43-1.6-.15-1.88-.95-.32-.92-.24-2.03-.24-3,0-.96.04-1.93.17-2.88.15-1.09.43-2.16.92-3.14.27-.55.62-1.27,1.2-1.54,2.16-1.02,2.28,2.35,2.24,3.59Z"/>
        <path class="cls-4" d="M36.93,61.77c-.28-.57-.83-.98-1.35-1.32-3.03-1.97-7.7-3.73-11.21-2.13-.97.44-2.07,1.21-2.24,2.35-.17,1.06.75,1.76,1.68,1.95,1.23.26,2.55.14,3.8.24,1.41.12,2.78.43,4.17.68.68.13,1.37.25,2.05.36.66.1,1.44.28,2.1.15,1.04-.2,1.43-1.4.99-2.29ZM35.71,63.02c-.54-.02-1.11-.19-1.63-.3-.6-.12-1.19-.27-1.78-.41-1.11-.26-2.23-.48-3.36-.61-1.13-.14-2.27-.11-3.4-.09-.67.01-1.99.24-2.49-.37-.71-.87.83-1.8,1.46-2.06,2.48-1.02,5.45-.33,7.83.66.98.41,1.94.89,2.83,1.45.37.23.79.51.95.94.13.36.03.8-.4.78Z"/>
        <path class="cls-1" d="M18.31,50.38c1.04-1.31,2.28-2.19,3.86-2.72,1.49-.5,3.19-.39,4.43-1.38.59-.47.18-1.34-.41-1.55-1.73-.62-4.33.45-5.88,1.28s-2.69,2.06-3.24,3.65c-.23.67.77,1.3,1.23.72h0Z"/>
        <path class="cls-1" d="M29.72,46.5s.03,0,.05-.01l-.29.04s.08,0,.12,0c.12,0,.25-.03.37-.05l-.28.04c.22-.02.42-.03.62-.15.13-.08.25-.2.33-.34.13-.22.18-.53.1-.78-.1-.3-.28-.57-.56-.74-.1-.06-.23-.12-.36-.14s-.27-.05-.4-.04c-.3.01-.56.12-.78.32-.14.14-.23.3-.28.49-.05.15-.05.29-.02.44,0,.15.05.28.13.41.07.13.16.23.29.31.28.22.62.29.96.2h0Z"/>
        <path class="cls-1" d="M54.55,20.82c-.27.3-.59.59-.65,1.01-.04.26-.01.5.18.69s.43.22.69.18c.42-.07.71-.38,1.01-.65.33-.31.34-.92,0-1.23s-.9-.36-1.23,0h0Z"/>
        <path class="cls-1" d="M51.14,24.53c-.12.24-.24.48-.33.74-.11.29-.1.6-.05.9.04.24.25.43.46.51.24.1.47.07.71-.04.46-.22.71-.68.94-1.11.25-.46.13-1.11-.36-1.36-.45-.24-1.12-.14-1.36.36h0Z"/>
        <path class="cls-1" d="M64.33,49.19c1.78-1,3.22-2.29,4.42-3.94.97-1.34,2.51-3.58,1.92-5.3-.23-.67-1-.87-1.53-.4-1.16,1.03-1.41,3.02-2.23,4.34-.95,1.52-2.23,2.83-3.63,3.93-.8.63.22,1.84,1.06,1.37h0Z"/>
        <path class="cls-1" d="M71.34,37.01c-.03-.1-.05-.2-.08-.29-.05-.16-.13-.27-.22-.4-.31-.47-.94-.47-1.25,0-.09.13-.16.24-.22.4-.03.09-.06.19-.08.29-.16.6.3,1.21.92,1.21s1.08-.61.92-1.21h0Z"/>
        <g>
          <path class="cls-5" d="M78.86,61.13c-1.47-4.98-8.03-7.31-12.67-5.76-2.88.96-4.94,3.26-6.91,5.46-4.21,4.73-8.23,10.66-6.76,17.35,1.3,5.89,7.64,8.89,13.24,7.71,6.44-1.36,10.84-7.21,12.55-13.25,1.03-3.62,1.62-7.83.54-11.51Z"/>
          <path class="cls-2" d="M72.12,77.17s1.79-2.64-.47-3.11c-2.25-.47-5.9,2.25-6.91,4.11-1.01,1.86-.31,3.8,1.63,3.49,1.94-.31,4.66-2.72,5.74-4.5Z"/>
          <path class="cls-1" d="M57.21,78.25c-.26-1.57-.28-3.29.04-4.85.27-1.3.9-2.46,1.06-3.78.07-.62-.79-1.11-1.29-.74-2.82,2.1-2.72,6.9-1.5,9.83.43,1.03,1.87.66,1.69-.47h0Z"/>
          <path class="cls-1" d="M60.37,66.56c.17-.26.3-.51.43-.79.08-.18.09-.31.12-.51q0-.1,0,0l.04-.17c.09-.34-.05-.75-.37-.92-.34-.18-.7-.12-.99.13l-.13.12c.07-.05.06-.05-.02,0-.15.08-.28.22-.38.34-.2.24-.35.48-.51.74-.28.47-.12,1.18.38,1.44s1.12.12,1.44-.38h0Z"/>
          <path class="cls-4" d="M72.61,74.05c-.89-.73-2.47-.4-3.45-.02-.1.04-.2.09-.31.13-1.74.61-3.26,1.82-4.23,3.39-.55.9-1.19,2.21-.8,3.28.45,1.25,1.97,1.35,3.07,1.06,1.23-.33,2.38-1.07,3.37-1.85.95-.75,1.79-1.68,2.35-2.76.49-.96.99-2.41,0-3.23ZM71.8,76.65c-.84,1.77-2.48,3.11-4.2,3.97-.67.33-2.33.93-2.83,0-.04-.08-.07-.17-.09-.26,0-.03.02-.05.02-.08.06-1.19.63-2.1,1.4-2.97.69-.77,1.5-1.46,2.39-1.98.83-.48,1.89-.91,2.87-.72.4.07.76.24.8.69.04.46-.17.96-.36,1.36Z"/>
        </g>
      </g>
      <rect class="cls-3" width="100" height="100"/>
    </g>
  </g>
</svg>