<?xml version="1.0" encoding="UTF-8"?>
<svg id="Capa_2" data-name="Capa 2" xmlns="http://www.w3.org/2000/svg" viewBox="0 0 100 100">
  <defs>
    <style>
      .cls-1 {
        fill: #fff;
      }

      .cls-2 {
        fill: none;
      }

      .cls-3 {
        fill: #4a2d2d;
      }

      .cls-4 {
        fill: #ceab8b;
      }

      .cls-5 {
        fill: #b37e4c;
      }
    </style>
  </defs>
  <g id="COLOR">
    <g>
      <g>
        <g>
          <path class="cls-5" d="M41.17,55.16c-1.73-4.05-6.36-6.02-10.56-5.8-4.53.24-9.03,2.68-12.24,5.8-2.56,2.49-4.04,5.54-4.87,8.98-.87,3.63-1.3,7.58-.04,11.18.99,2.81,2.9,5.28,5.68,6.47,3.02,1.3,6.5,1.07,9.5-.17,6.06-2.52,10.23-9.1,12.29-15.08,1.24-3.62,1.79-7.78.25-11.39Z"/>
          <path class="cls-4" d="M32.95,55.04s-.85-.07-1.83,1.83-3.01,6.8-4.05,8.5c-1.05,1.7-4.25,5.95-4.58,6.54s-.92,2.88.72,2.81,4.64-2.55,7.78-8.11c3.14-5.56,3.14-9.22,3.01-10.14s.13-1.5-1.05-1.44Z"/>
          <path class="cls-3" d="M34.34,55.78c-.47-1.2-1.76-1.53-2.72-.63-.61.57-.9,1.38-1.24,2.12-.49,1.06-.99,2.12-1.47,3.18-.88,1.97-1.75,3.95-2.93,5.77-1.13,1.74-2.78,3.15-3.71,5.01-.43.86-.94,2.82,0,3.54,1.07.82,2.78.01,3.67-.68,1.73-1.35,2.75-3.45,3.99-5.22,1-1.44,2.02-2.89,2.78-4.48.68-1.41,1.13-2.92,1.5-4.44.33-1.35.65-2.82.13-4.17ZM29.64,67.07c-.65,1.16-1.3,2.31-2.05,3.41-.93,1.38-2.25,3.38-3.92,3.91-.72.23-1.4.03-1.12-1,.14-.51.48-1.08.74-1.54.94-1.63,2.37-3.09,3.48-4.6,2.46-3.33,3.53-7.03,5.26-10.73.23-.48.53-1.01.9-1.27.85-.59.68,1.65.65,2-.13,1.47-.45,2.91-1.01,4.28s-1.35,2.7-2.09,4.02c-.28.5-.56,1.01-.84,1.51Z"/>
          <path class="cls-3" d="M27.32,79.38c.2,0,.4,0,.6.02-.05,0-.04,0,0,0,.08.01.17.03.25.03.19,0,.36-.05.53-.14.4-.23.46-.79.14-1.11-.43-.45-1.17-.31-1.72-.23-.36.05-.56.48-.52.8.05.35.35.64.71.63h0Z"/>
          <path class="cls-3" d="M29.94,77.52c.12,0,.24.02.36.02.33,0,.68-.23.73-.57.04-.32-.18-.59-.47-.72-.14-.06-.29-.08-.43-.12-.41-.1-.83.16-.88.59s.27.78.7.8h0Z"/>
          <path class="cls-1" d="M30.26,50.85c-1.94.18-3.88,1.2-5.5,2.24-1.47.95-3.49,2.25-4.04,3.97-.21.65.53,1.08,1.07.82,1.52-.74,2.66-2.4,4.09-3.35s3.16-1.55,4.74-2.38c.59-.31.34-1.36-.35-1.3h0Z"/>
          <path class="cls-1" d="M18.69,59.42c-.17.21-.36.43-.48.67-.21.42-.31.96.08,1.33.22.21.52.27.81.2.21-.06.37-.19.51-.34.11-.13.21-.27.3-.41.03-.05.06-.09.1-.14.1-.14-.13.16,0,.01.16-.2.27-.39.27-.66,0-.23-.1-.5-.27-.66-.34-.31-.99-.4-1.31,0h0Z"/>
        </g>
        <g>
          <path class="cls-5" d="M65.62,19.19c-1.39-.57-2.87-.95-4.32-1.1-4.03-.44-8.3-.15-12.22.93-6.97,1.92-13.38,7.38-14.25,14.9-.41,3.55.71,7.04,3.46,9.4,2.6,2.22,5.92,3.17,9.26,3.52,7.66.8,15.44-1.83,20.44-7.8,2.5-2.98,4.39-6.92,4.42-10.87.04-4.38-3.06-7.42-6.81-8.97Z"/>
          <path class="cls-4" d="M65.06,24.89s-1.32-.89-6.81.67-11.31,5.22-11.11,6,2.35.72,5.69-.07c3.34-.78,7.72-2.49,9.55-3.6s2.55-1.83,2.68-3.01Z"/>
          <path class="cls-3" d="M65.27,24.39c-.22-.4-.94-.23-1.3-.19-.64.06-1.28.17-1.91.31-1.26.27-2.5.66-3.74,1.03-.02,0-.05.01-.07.02-2.23.68-4.42,1.48-6.57,2.38-1.6.67-3.37,1.35-4.56,2.68-.69.78-.89,1.75.28,2.14,1.56.53,3.89-.39,5.39-.77,1.99-.51,3.98-1.05,5.89-1.79,1.71-.67,3.34-1.48,4.79-2.62.96-.76,2.56-1.81,1.8-3.19ZM61.5,27.76c-1.3.77-5.54,2.45-8.24,3.24-1.47.43-4.58,1.44-5.41.74s2.4-2.18,3-2.45c1.49-.68,3.46-1.53,5-2.08,2.91-1.03,7.93-3.17,8.54-2.08.34.62-1.66,1.9-2.9,2.63Z"/>
          <path class="cls-3" d="M50.28,44.8h.05c-.07,0-.13-.01-.2-.02.11.02.22.04.32.07.21.07.41.09.63.03.25-.06.45-.28.52-.52.08-.28-.02-.51-.19-.72-.25-.32-.76-.35-1.13-.35s-.77.34-.75.75c0,.2.07.4.22.53.16.14.32.19.53.22h0Z"/>
          <path class="cls-3" d="M52.3,43.22s.09-.06.14-.08c.14-.06.23-.16.31-.29.11-.17.11-.43,0-.6-.08-.12-.17-.23-.31-.29-.05-.02-.1-.05-.14-.08-.24-.14-.54-.14-.78,0s-.38.39-.38.67.15.53.38.67.54.14.78,0h0Z"/>
          <path class="cls-1" d="M48.83,20.89c-1.83.26-3.38,1.08-4.84,2.2-1.25.96-2.71,2.07-3.29,3.58-.24.62.53,1.01,1.01.78,1.29-.61,2.21-1.91,3.33-2.78,1.26-.98,2.69-1.75,4.19-2.3.95-.34.56-1.61-.41-1.48h0Z"/>
          <path class="cls-1" d="M38.68,29.69c-.25.4-.38.86-.22,1.32.1.3.33.53.66.57.3.04.65-.1.79-.38.07-.14.14-.27.19-.42.03-.1.05-.19.09-.29l-.09.21s.04-.09.06-.14c.2-.4.12-.95-.31-1.18s-.93-.1-1.18.31h0Z"/>
        </g>
        <g>
          <path class="cls-5" d="M87.7,61.35c-1.27-5.76-6.21-9.99-11.45-12.19-3.01-1.26-6.34-1.96-9.61-1.63-6.86.69-15.91,5-15.93,12.89-.01,3.63,2.05,6.79,4.66,9.16,5.64,5.13,14.09,6.86,21.5,5.8,3.64-.52,7.25-2.12,9.35-5.27,1.66-2.5,2.12-5.86,1.49-8.76Z"/>
          <path class="cls-4" d="M54.53,53.93s.85,5.82,3.14,7.78c2.29,1.96,10.53,5.82,9.94,6.47s-4.25.78-8.57-1.77c-4.32-2.55-5.49-5.62-6.02-7.52-.52-1.9.72-4.77.92-4.97s.59,0,.59,0Z"/>
          <path class="cls-3" d="M65.74,65.67c-1.59-.97-3.69-1.81-5.28-2.76-3.22-1.92-6.15-5.37-5.2-9.5.14-.62-1.42.12-1.6.29-1.37,1.26-1.3,3.78-.97,5.46.4,2,1.5,3.79,2.91,5.24,1.52,1.58,3.42,2.75,5.43,3.61,2.14.91,4.26,1.02,6.54,1.18.36.03.58-.31.62-.62.18-1.47-1.35-2.24-2.43-2.9ZM56.72,63.82c-1.27-1.22-2.25-2.79-2.98-5.32-.46-1.6,0-3.21.39-4.31.23,2.73,1.73,6.35,3.24,7.71,1.22,1.1,2.43,2.09,3.85,2.89.95.53,1.91,1.03,2.85,1.57.69.39,2.02.99,2.6,1.76-3.43.47-7.67-2.1-9.95-4.3Z"/>
          <path class="cls-3" d="M82.05,71.88l.24-.06c.17-.04.31-.12.42-.25.26-.28.22-.75-.12-.94-.15-.09-.3-.13-.48-.13h-.25c-.42.03-.74.37-.68.8s.46.68.87.58h0Z"/>
          <path class="cls-3" d="M82.46,69.19c.16-.01.33-.01.49-.05.14-.03.28-.1.39-.2.12-.12.22-.31.21-.49-.02-.34-.25-.6-.58-.69-.16-.04-.34-.04-.51-.06-.18-.01-.4.09-.53.22s-.23.34-.22.53.07.39.22.53.33.23.53.22h0Z"/>
          <path class="cls-1" d="M71.47,49.11c-2.87-.42-7.29-.39-9.39,1.98-.36.4-.11,1.03.44,1.05,1.38.05,2.69-.48,4.04-.72,1.54-.28,3.1-.39,4.66-.41,1.04-.01,1.37-1.74.26-1.9h0Z"/>
          <path class="cls-1" d="M59.52,52.08c-.2.12-.42.24-.6.4-.32.3-.4.84-.12,1.19.1.12.21.19.34.25.28.12.58.09.84-.06.2-.11.38-.31.55-.47.31-.28.31-.79.07-1.1s-.72-.44-1.08-.22h0Z"/>
        </g>
      </g>
      <rect class="cls-2" width="100" height="100"/>
    </g>
  </g>
</svg>