<?xml version="1.0" encoding="UTF-8"?>
<svg id="Capa_2" data-name="Capa 2" xmlns="http://www.w3.org/2000/svg" viewBox="0 0 100 100">
  <defs>
    <style>
      .cls-1 {
        fill: #fff;
      }

      .cls-2 {
        fill: none;
      }

      .cls-3 {
        fill: #4a2d2d;
      }

      .cls-4 {
        fill: #fedc7e;
      }
    </style>
  </defs>
  <g id="COLOR">
    <g>
      <g>
        <path class="cls-4" d="M22.98,90.46c-9.17,0-14.83-11.09-16.24-18.08-.92-4.57-.28-8.99,1.77-12.14,1.74-2.67,4.9-5.12,9.4-7.27,3.55-1.7,7.29-2.6,10.8-2.6.36,0,.72,0,1.07.03,4.77.25,8.92,2.42,12.32,6.46,2.94,3.49,5.33,7.38,6.91,11.24,1.72,4.19,1.32,8.12-1.07,10.78-1.38,1.53-3.05,1.85-4.98,2.22l-.42.08c-2.18.42-4.02,1.61-5.81,2.77-.28.18-.56.36-.84.54-.68.43-1.36.88-2.07,1.36-3.26,2.19-6.64,4.45-10.37,4.6-.15,0-.3,0-.46,0h0Z"/>
        <path class="cls-4" d="M44.98,50.46c-.78,0-1.58-.05-2.35-.16-4.54-.61-8.63-2.75-10.94-5.72-.47-.61-.9-1.28-1.28-1.98-2.2-4.13-2.44-9.52-.73-16.02,1.45-5.52,4.18-10.49,7.88-14.36,1.56-1.63,4.66-4.37,7.96-4.37,1.02,0,2,.26,2.92.79.95.54,1.54,1.38,2.16,2.26.73,1.03,1.48,2.09,2.81,2.66.97.42,1.99.75,2.97,1.07,1.21.4,2.47.81,3.64,1.38,8.19,3.99,6.53,15.33,3.43,21.98-3.48,7.45-10.9,12.46-18.46,12.46h0Z"/>
        <path class="cls-4" d="M73.6,81.94c-5.08,0-10.34-2.44-14.08-6.52-2.98-3.25-4.27-6.73-4.19-11.28.09-5.34.81-9.21,2.33-12.52,3.03-6.62,10.21-11.07,17.85-11.07,1.5,0,2.98.18,4.39.53,4.18,1.04,8.51,3.22,12.18,6.14,1.47,1.17,2.34,2.62,2.58,4.3.02.12.09.22.19.27.08.04,1.86.49,1.74,2.34-.14,2.11-1.77,4.12-3.36,4.41-1.22,3.52-2.55,6.99-3.97,10.4-1.56,3.73-3.65,7.9-7.36,10.46-2.45,1.69-5.24,2.55-8.29,2.55h0Z"/>
        <path class="cls-3" d="M41.28,9.75c.68,1.76,2.61,2.87,4.35,3.35.91.25,1.87.36,2.81.26.78-.08,2.45-.25,2.54-1.26.01-.14-.09-.3-.21-.37-.4-.22-.86,0-1.27.1-.37.1-.74.18-1.13.22-.81.07-1.62.02-2.41-.18s-1.5-.51-2.17-.94-1.28-1.01-1.91-1.53c-.24-.2-.75-.02-.6.35h0Z"/>
        <path class="cls-3" d="M94.19,52.07c-1.31,1.34-2.26,4.04-1.63,5.88.17.5.81.37.88-.12.12-.92.05-1.81.3-2.72.25-.92.73-1.65,1.2-2.46.27-.46-.36-.96-.74-.57h0Z"/>
        <path class="cls-3" d="M43.82,79.43c.41-1.24,1.05-2.37,1.92-3.35.83-.95,1.86-1.52,2.85-2.27.39-.29.19-.98-.35-.83-2.68.73-4.61,3.69-5.26,6.23-.14.55.66.76.84.23h0Z"/>
        <path class="cls-1" d="M32.96,31.35c-.72,3-.66,5.85.52,8.73.69,1.7,2.52,5.66,4.95,4.18.39-.23.68-.79.51-1.25-.28-.74-.8-1.2-1.27-1.83-.69-.91-1.25-1.95-1.65-3.01-.77-2.06-1.15-4.35-.99-6.54.09-1.18-1.79-1.42-2.06-.28h0Z"/>
        <path class="cls-1" d="M41.93,46.59s.08,0,.11-.01c.21-.02.41-.04.59-.16.01,0,.03-.02.04-.03.16-.1.3-.23.39-.39.1-.17.15-.35.15-.55,0-.2-.05-.38-.15-.55-.1-.16-.23-.3-.39-.39-.22-.16-.48-.17-.74-.2-.16,0-.3.03-.44.1-.14.05-.26.13-.37.24-.11.1-.19.23-.24.37-.07.14-.1.28-.1.44l.04.3c.05.19.15.36.29.5l.23.18c.18.1.37.16.58.16h0Z"/>
        <path class="cls-1" d="M59.81,53.26c-.85,1.85-1.56,3.69-1.74,5.73-.15,1.74-.28,4.2,1.19,5.41.53.44,1.41.47,1.77-.23.74-1.43.26-2.96.25-4.51-.01-1.86.09-3.72.59-5.52.33-1.2-1.52-2.06-2.07-.87h0Z"/>
        <path class="cls-1" d="M59.85,68.6c.04.09.08.18.13.26.11.19.35.43.54.53.31.15.61.19.93.05.28-.12.54-.36.61-.68.05-.27.05-.53-.02-.79-.05-.18-.15-.35-.24-.52-.12-.24-.42-.45-.68-.52-.27-.07-.63-.04-.87.11s-.45.39-.52.68l-.04.3c0,.2.05.39.15.57h0Z"/>
        <path class="cls-1" d="M16.14,57.66c-2.49.88-4.37,2.46-5.6,4.82-1.01,1.92-2.14,5.35-.12,6.89.44.34,1.05.03,1.32-.35.56-.78.41-1.37.47-2.31.07-1.18.45-2.35,1.01-3.38.9-1.64,2.36-3.11,3.62-4.49.45-.49.02-1.44-.69-1.19h0Z"/>
        <path class="cls-1" d="M10.44,73.8c.04.07.09.13.13.2.09.14.18.25.31.35.06.05.12.09.18.13.06.04.12.07.18.11.28.15.68.19.96,0s.46-.48.47-.82c0-.06,0-.13,0-.19,0-.03,0-.07,0-.1,0-.23-.07-.39-.16-.58-.04-.08-.08-.16-.11-.24-.12-.24-.43-.45-.68-.52-.27-.07-.63-.04-.88.11s-.46.39-.52.68-.06.62.11.88h0Z"/>
      </g>
      <rect class="cls-2" width="100" height="100"/>
    </g>
  </g>
</svg>