<?xml version="1.0" encoding="UTF-8"?>
<svg id="Capa_2" data-name="Capa 2" xmlns="http://www.w3.org/2000/svg" viewBox="0 0 100 100">
  <defs>
    <style>
      .cls-1 {
        fill: #fff;
      }

      .cls-2 {
        fill: none;
      }

      .cls-3 {
        fill: #faf9f1;
      }

      .cls-4 {
        fill: #4a2d2d;
      }

      .cls-5 {
        fill: #e9e2bf;
      }
    </style>
  </defs>
  <g id="COLOR">
    <g>
      <g>
        <g>
          <path class="cls-5" d="M52.97,35.93c-.65-.47-1.34-.84-2.07-1.15-3.63-1.58-8.02-1.69-10.8-4.67-1.04-1.12-1.98-2.24-3.1-3.19-.66-.57-1.39-1.07-2.22-1.48-2.06-1-4.44-1.47-6.72-1.21-8.28.96-12.51,9.88-12.04,17.41.53,8.51,8.98,14.42,16.89,15.19,4.55.44,9.21-.62,13.33-2.55,3.72-1.74,7.82-4.4,9.47-8.33,1.56-3.7.53-7.65-2.73-10Z"/>
          <path class="cls-3" d="M50.9,34.77c-.27.82-.78,1.68-1.48,2.03-1.19.59-3.06,1.63-7.12.4-4.05-1.24-6.72-4.65-6.87-6.58-.09-1.1.79-2.62,1.57-3.72,1.11.95,2.05,2.08,3.1,3.19,2.79,2.98,7.17,3.1,10.8,4.67Z"/>
          <path class="cls-4" d="M36.62,26.84c-2.84,3.37-1.58,6.37,2.84,9.34,2.96,1.98,9.15,4.18,11.57-1.24.22-.49-.16-.52-.49-.17-3.49,3.61-6.66,2.4-9.52.89-2.32-1.23-6.94-3.76-3.9-8.41.42-.64-.49-.42-.49-.42Z"/>
          <path class="cls-4" d="M49.16,49.96c.41-.09,1.01-.13,1.22-.54.1-.21.12-.55-.09-.71-.15-.12-.29-.2-.48-.21-.14,0-.28.03-.42.06l-.58.13c-.34.08-.57.49-.46.81.11.35.45.54.81.46h0Z"/>
          <path class="cls-4" d="M49.57,47.08c.82,0,.82-1.28,0-1.28s-.82,1.28,0,1.28h0Z"/>
          <path class="cls-1" d="M27.15,26.77c-2.22.3-3.94,1.52-5.32,3.25-1.16,1.46-2.83,3.93-2.06,5.88.24.61.97.9,1.49.39,1.23-1.18,1.53-3.15,2.56-4.52s2.52-2.57,3.84-3.77c.43-.39.12-1.32-.51-1.24h0Z"/>
          <path class="cls-1" d="M19.42,41.4c-.02.23-.03.46-.02.69.01.16.02.34.06.49.04.1.09.21.13.31.15.22.19.26.12.13.16.23.44.46.74.43,1.16-.13.87-1.29.96-2.06.06-.52-.5-1.02-1-1-.59.03-.94.44-1,1h0Z"/>
        </g>
        <g>
          <path class="cls-5" d="M81.68,26.15c-2.42-3.17-5.75-5.53-9.41-7.07-2.8-1.17-5.77-2.03-8.81-2.28-2.68-.21-6.24-.2-8.46,1.55-2.22,1.75-2.93,4.75-2.5,7.44.29,1.78,1,3.43,1.87,5.03.99,1.79,2.19,3.51,3.22,5.19,1.67,2.73,3.22,5.78,5.44,8.15.47.51.98.98,1.52,1.42,5.23,4.19,13.14,4.35,17.77-.84,4.69-5.25,3.33-13.38-.65-18.59Z"/>
          <path class="cls-3" d="M64.34,41.1c-.11.79-.73,2.21-1.3,3.07-2.22-2.37-3.77-5.42-5.44-8.15-1.03-1.69-2.23-3.4-3.22-5.19.82-.36,2.28-.86,3.6-.53,1.98.5,4.68,4.42,5.77,6.36,1.09,1.95.73,3.49.59,4.45Z"/>
          <path class="cls-4" d="M55.1,30.92c2.96-1.26,5.32,2.3,6.73,4.34,1.53,2.22,2.68,5.12,1.23,7.68-.29.51.4,1.19.83.7,2.54-2.91,1.13-6.56-.95-9.27-1.93-2.51-4.8-6.2-8.38-4.47-.67.32-.14,1.3.53,1.02h0Z"/>
          <path class="cls-4" d="M78.25,45.94c.32.04.7.14,1.02.03.3-.11.56-.37.54-.71s-.22-.6-.54-.71-.69-.01-1.02.03c-.35.04-.7.29-.68.68s.3.64.68.68h0Z"/>
          <path class="cls-4" d="M79.93,43.84c.85,0,.85-1.32,0-1.32s-.85,1.32,0,1.32h0Z"/>
          <path class="cls-1" d="M63.79,18.59c-1.59-.49-3.1-.69-4.69-.09-1.22.46-2.75,1.6-2.5,3.06.09.56.62.78,1.12.63.87-.26,1.49-1.07,2.34-1.42.99-.4,2.19-.49,3.25-.41.98.07,1.53-1.45.48-1.78h0Z"/>
          <path class="cls-1" d="M54.84,24.9c-.02.21-.03.41-.02.62.01.18.07.36.18.5.12.16.35.31.56.33.41.03.77-.21.91-.6.07-.2.11-.41.15-.63.08-.46-.31-.96-.77-1s-.96.27-1,.77h0Z"/>
        </g>
        <g>
          <path class="cls-5" d="M65.84,57.09c-3.11-1.58-7.08-2.64-10.58-2.57-3.97.07-7.39,1-10.88,2.88-3.67,1.97-6.54,4.32-8.47,8.06-2.17,4.19-2.92,8.92-2.37,13.6.3,2.56.9,5.46,2.71,7.42,2.18,2.36,5.94,2.54,8.83,1.62,1.33-.42,2.51-1.08,3.63-1.86,1.78-1.23,3.39-2.74,5.12-4.01,2.68-1.96,5.8-3.02,8.56-4.78.74-.47,1.44-.99,2.11-1.59,2.87-2.58,5.23-6.17,5.74-10.06.47-3.58-1.14-7.06-4.4-8.71Z"/>
          <path class="cls-3" d="M62.39,77.45c-2.76,1.76-5.88,2.82-8.56,4.78-1.73,1.27-3.34,2.78-5.12,4.01.09-1.74.42-5.3,1.53-6.97,1.48-2.24,3.43-3.2,5.83-3.2,1.69,0,4.69.84,6.32,1.38Z"/>
          <path class="cls-4" d="M62.72,77.19c-1.05-.96-8.32-2.49-10.84-.37-2.26,1.91-3.51,5.99-3.48,8.92,0,.59.39,1.04.48.41.41-2.82,1.72-6.2,3.7-8,2.15-1.95,6.04-1.26,9.73-.65.54.09.41-.31.41-.31Z"/>
          <path class="cls-4" d="M43.05,86.81c.3,0,.59,0,.88-.06.55-.11.55-1.01,0-1.12-.29-.06-.59-.06-.88-.06-.32,0-.64.29-.62.62s.27.63.62.62h0Z"/>
          <path class="cls-4" d="M43.94,84.22c.78,0,.78-1.21,0-1.21s-.78,1.21,0,1.21h0Z"/>
          <path class="cls-1" d="M48.51,57.44c-1.98.67-3.74,1.66-5.3,3.06-1.26,1.14-3.22,3.06-3.07,4.91.05.59.64,1,1.2.69,1.42-.81,2.19-2.65,3.36-3.79,1.32-1.28,2.9-2.29,4.59-3.03,1.04-.46.3-2.21-.78-1.84h0Z"/>
          <path class="cls-1" d="M38.11,68.87c-.33.72-.62,1.56-.05,2.25.22.26.66.28.94.12.26-.14.47-.43.6-.69.07-.15.14-.31.2-.47.05-.14-.07.14,0,.01.03-.06.06-.13.09-.19.24-.48.14-1.13-.37-1.4-.45-.24-1.16-.15-1.4.37h0Z"/>
        </g>
      </g>
      <rect class="cls-2" width="100" height="100"/>
    </g>
  </g>
</svg>