<?xml version="1.0" encoding="UTF-8"?>
<svg id="Capa_2" data-name="Capa 2" xmlns="http://www.w3.org/2000/svg" viewBox="0 0 100 100">
  <defs>
    <style>
      .cls-1 {
        fill: #fff;
      }

      .cls-2 {
        fill: none;
      }

      .cls-3 {
        fill: #4a2d2d;
      }

      .cls-4 {
        fill: #fcd9a5;
      }

      .cls-5 {
        fill: #fab34b;
      }
    </style>
  </defs>
  <g id="COLOR">
    <g>
      <g>
        <g>
          <path class="cls-5" d="M38.4,62.61c2.66-1.76,4.46-4.52,5.69-7.41,1.61-3.76,1.44-8.21-.53-11.81-1.89-3.46-5.69-5.67-9.19-7.17-5.79-2.49-12.74-.81-15.66,5.11-2.83,5.74.05,12.79,3.71,17.51,3.74,4.82,10.52,7.39,15.97,3.77Z"/>
          <path class="cls-3" d="M35.25,60.9c.28.04.56.09.84.13.35.05.73.13,1.04-.09.34-.24.41-.66.13-.98-.25-.28-.62-.31-.97-.34-.28-.03-.57-.05-.85-.07-.34-.03-.64.28-.68.6s.15.7.49.76h0Z"/>
          <path class="cls-3" d="M37.33,58.84l.25.02c.09,0,.17,0,.25-.02.15-.02.26-.04.38-.14.1-.08.2-.2.23-.33.07-.29-.05-.55-.29-.72-.12-.08-.23-.13-.37-.19-.09-.04-.17-.07-.26-.11-.18-.07-.41-.01-.58.08-.21.11-.33.33-.36.55-.03.21.02.39.15.55.15.2.35.28.59.3h0Z"/>
          <path class="cls-1" d="M29.25,36.82c-2.52-.18-4.66.51-6.56,2.21-1.3,1.16-3.66,4.06-2.43,5.84.25.36.67.49,1.07.28.69-.36.9-.93,1.21-1.62.45-.97.99-1.82,1.75-2.58,1.33-1.31,3.34-2.2,5.17-2.5.98-.16.66-1.57-.22-1.64h0Z"/>
          <path class="cls-1" d="M20.39,48.64c0,.14,0,.27.01.41.02.26.1.45.21.69.22.52,1.15.52,1.37,0,.1-.24.19-.43.21-.69,0-.14,0-.27.01-.41.01-.47-.42-.92-.9-.9s-.91.4-.9.9h0Z"/>
        </g>
        <g>
          <path class="cls-5" d="M66.64,43.48c1.6-.18,2.96-.88,4.36-1.64,3.19-1.72,6.19-4.38,7.45-7.87.78-2.17.83-4.76.16-6.96-1.75-5.7-8.26-8.51-13.76-9.01-5.98-.54-11.85,2.94-13.23,8.96-1.26,5.49,1.46,11.17,6.18,14.1,2.59,1.6,5.78,2.76,8.85,2.42Z"/>
          <path class="cls-3" d="M72.43,37.21c.51,0,1.14.08,1.54-.29.22-.2.22-.6,0-.8-.4-.37-1.03-.29-1.54-.29-.36,0-.71.32-.69.69s.31.69.69.69h0Z"/>
          <path class="cls-3" d="M73.19,34.71c.59,0,1.27.11,1.79-.25.35-.24.35-.69,0-.93-.51-.36-1.19-.26-1.79-.25-.92.01-.92,1.42,0,1.43h0Z"/>
          <path class="cls-1" d="M64.46,20.21c-2.38-.49-4.92.24-6.82,1.75-1.56,1.24-3.46,3.81-2.63,5.91.28.71,1.36,1.05,1.78.23.37-.74.45-1.55.79-2.3.38-.83,1-1.57,1.73-2.13,1.51-1.15,3.39-1.45,5.16-1.99.68-.21.77-1.31,0-1.47h0Z"/>
          <path class="cls-1" d="M54.77,30.6c-.11.6-.06,1.35.53,1.69.45.26,1.16.04,1.26-.51.04-.21.05-.38,0-.59-.02-.08-.04-.15-.06-.23l.03.24c-.01-.11-.01-.21,0-.31l-.03.24v-.05c.05-.25.05-.47-.08-.69-.11-.19-.32-.36-.54-.41-.44-.1-1.02.13-1.11.63h0Z"/>
        </g>
        <g>
          <path class="cls-5" d="M55.53,78.63s7.51,4.9,12.43,2.61,8.49-8.18,9.47-13.82c.97-5.64-3.4-10.47-7.78-12.65-4.38-2.18-11.06-.04-14.92,3.94s-5.72,7.05-5.24,10.11c.48,3.06,2.29,6.12,3.49,7.44s2.56,2.36,2.56,2.36Z"/>
          <path class="cls-4" d="M54.16,77.96s2.3.75,2.44-.76-1.97-3.64-3.23-3.7-1.82.98-1.57,2.26,1.36,1.96,2.36,2.2Z"/>
          <path class="cls-3" d="M55.34,78.81c1.55-.02,2.45-1.48,1.85-2.92-.37-.89-1.08-1.64-1.82-2.23-.38-.31-.8-.56-1.23-.8-.3-.17-.61-.32-.95-.35-.54-.05-.97.28-1.35.63-.27.25-.47.57-.61.91-.27.69-.3,1.51.01,2.19.75,1.61,2.3,2.6,4.09,2.58ZM52.08,76c-.11-.49-.12-1.08.04-1.56.16-.49.5-.94,1.06-.75.52.18.94.64,1.33,1.01.5.47,1,.96,1.37,1.55.21.33.5.81.36,1.23s-.64.47-1,.47c-1.22.02-2.89-.65-3.17-1.95Z"/>
          <path class="cls-3" d="M66.87,79.15c.58,0,1.37.14,1.83-.27.24-.22.24-.66,0-.88-.46-.41-1.25-.27-1.83-.27-.92,0-.92,1.43,0,1.42h0Z"/>
          <path class="cls-3" d="M68.01,76.24c.47.04.91.09,1.35-.13.37-.18.45-.79.14-1.06-.38-.32-.79-.37-1.26-.45s-.97.16-1.04.69.32.91.82.94h0Z"/>
          <path class="cls-1" d="M62.97,56.19c-1.98.8-3.91,1.65-5.57,3.03-1.33,1.1-3.12,2.83-2.97,4.71.06.77.86,1.06,1.44.6,1.25-.98,1.98-2.55,3.23-3.6,1.4-1.18,3.01-2.13,4.54-3.13.78-.51.29-2-.68-1.6h0Z"/>
          <path class="cls-1" d="M52.82,67.07c-.05.34-.13.69-.11,1.04.02.56.38,1.25,1.04,1.22s1-.59,1.03-1.18c.02-.36-.06-.73-.11-1.08-.06-.39-.54-.72-.92-.7s-.86.28-.92.7h0Z"/>
        </g>
      </g>
      <rect class="cls-2" width="100" height="100"/>
    </g>
  </g>
</svg>