<?xml version="1.0" encoding="UTF-8"?>
<svg id="Capa_2" data-name="Capa 2" xmlns="http://www.w3.org/2000/svg" viewBox="0 0 100 100">
  <defs>
    <style>
      .cls-1 {
        fill: #8b5245;
      }

      .cls-2 {
        fill: #fff;
      }

      .cls-3 {
        fill: none;
      }

      .cls-4 {
        fill: #4a2d2d;
      }

      .cls-5 {
        fill: #847070;
      }
    </style>
  </defs>
  <g id="COLOR">
    <g>
      <rect class="cls-3" width="100" height="100"/>
      <g>
        <path class="cls-5" d="M84.76,93.72c-.41-.99-.86-1.88-1.53-2.73-.4-.51-.85-.91-1.29-1.38-.8-.85-.81-.91-.73-2.08.23-3.21.56-6.34.55-9.58-.02-6.7-.26-13.4-.67-20.08-.42-6.69-1.02-13.36-1.82-20.01-.71-5.99-1.43-12.13-2.68-18.06.17-.04.34-.1.5-.16,2.54-.97,2.34-3.59,2.18-5.86-.15-2.14.45-5.95-1.88-7.11-1.3-.65-3.17-.66-4.58-.85-1.76-.24-3.53-.43-5.3-.58-5.68-.47-11.44-.61-17.22-.61-5.79,0-11.8.13-17.48.61-1.77.15-3.54.34-5.3.58-1.45.2-3.26.19-4.58.85-2.35,1.17-1.72,4.95-1.88,7.11-.16,2.26-.35,4.89,2.18,5.86.16.06.33.11.51.16-1.25,5.93-1.97,12.06-2.68,18.06-.79,6.65-1.4,13.33-1.82,20.01-.41,6.68-.65,13.38-.67,20.08,0,1.69-.02,3.39.06,5.08.07,1.49.47,3.02.5,4.5.02,1.03.02,1.22-.73,2.08-.34.4-.75.73-1.09,1.14-.76.92-1.28,1.88-1.73,2.98-.31.74.45,1.46,1.13,1.49,3.08.11,6.17-.04,9.26.08,3.96.15,7.91.48,11.87.59,8.16.22,16.45.22,24.65,0,3.87-.11,7.72-.4,11.58-.58,3.18-.15,6.37.03,9.54-.09.68-.03,1.44-.74,1.13-1.49Z"/>
        <path class="cls-2" d="M70.05,47.46c-1.38-2.61-3.17-5.08-5.32-7.12-5.78-5.46-15.78-6.61-23.13-4.11-9.51,3.24-14.55,15.64-12.31,25.07,2.27,9.5,12.32,14.86,21.55,14.66,9.06-.19,17.74-5.5,20.15-14.55,1.24-4.64,1.35-9.61-.94-13.96Z"/>
        <path class="cls-1" d="M62.47,48.12c-3.54-1.1-7.69,1.77-9.3,4.82-1.96,3.71-1.88,8.55,3.25,8.95,4.11.32,8.26-2.27,9.66-6.16,1.17-3.24-.28-7.3-3.61-7.61Z"/>
        <path class="cls-4" d="M64.8,49.64c-1.58-1.61-3.83-.13-4.73,1.49-.8,1.44-.9,3.19-1.89,4.53-1.32,1.79-3.16,2.01-5.22,1.96-.77-.02-.84,1.04-.17,1.28,2.03.74,4.44-.11,5.93-1.59.82-.81,1.28-1.78,1.67-2.85.79-2.16,1.3-3.88,3.99-3.84.51,0,.76-.64.41-.99h0Z"/>
        <path class="cls-1" d="M48.09,43.51c-2.96-2.97-7.6-4.33-9.51.44-1.53,3.82-.29,8.56,3.01,11.06,2.75,2.08,7.05,1.9,8.34-1.19,2.11-3.05.6-7.87-1.84-10.31Z"/>
        <path class="cls-4" d="M47.78,55.59c2.01-1.03,1.26-3.62-.02-4.96-1.14-1.19-2.78-1.8-3.76-3.15-1.31-1.79-.98-3.62-.32-5.57.25-.73-.74-1.11-1.17-.55-1.31,1.72-1.22,4.27-.25,6.13.53,1.02,1.32,1.76,2.22,2.45,1.83,1.4,3.31,2.39,2.48,4.96-.16.49.38.92.83.69h0Z"/>
        <path class="cls-1" d="M53.08,63.22c-1.12-3.53-5.86-5.29-9.28-4.86-4.16.52-8.08,3.36-5.47,7.79,2.09,3.55,6.6,5.47,10.59,4.39,3.33-.9,5.82-4.42,4.16-7.32Z"/>
        <path class="cls-4" d="M53.17,65.99c.42-2.22-2.09-3.21-3.93-3.02-1.64.17-3.13,1.09-4.79,1.05-2.22-.06-3.46-1.44-4.6-3.16-.43-.64-1.33-.09-1.15.59.56,2.09,2.63,3.57,4.7,3.95,1.13.2,2.2.03,3.29-.26,2.23-.59,3.92-1.16,5.44,1.07.29.42.96.26,1.05-.23h0Z"/>
        <path class="cls-2" d="M30.25,31.01h.77c.39,0,.8-.17,1.07-.44s.46-.69.44-1.07c-.04-.82-.67-1.52-1.52-1.52h-.77c-.39,0-.8.17-1.07.44s-.46.69-.44,1.07c.04.82.67,1.52,1.52,1.52h0Z"/>
        <path class="cls-2" d="M29.09,36.24c1.95,0,1.96-3.03,0-3.03s-1.96,3.03,0,3.03h0Z"/>
        <path class="cls-2" d="M66.48,81.97c1.95,0,1.96-3.03,0-3.03s-1.96,3.03,0,3.03h0Z"/>
        <path class="cls-2" d="M71.52,87.39h.19c.21,0,.4-.04.58-.13.19-.06.35-.17.49-.31.15-.14.25-.3.31-.49.09-.18.14-.38.13-.58l-.05-.4c-.07-.26-.2-.48-.39-.67l-.31-.24c-.24-.14-.49-.21-.77-.21h-.19c-.21,0-.4.04-.58.13-.19.06-.35.17-.49.31-.15.14-.25.3-.31.49-.09.18-.14.38-.13.58l.05.4c.07.26.2.48.39.67l.31.24c.24.14.49.21.77.21h0Z"/>
        <path class="cls-4" d="M23.37,20.68c4.47.21,9.01-.22,13.48-.3,4.39-.08,8.77-.05,13.15-.03,8.89.03,17.76.21,26.64.54,1.26.05,1.26-1.91,0-1.96-9.01-.33-18.05-.65-27.07-.62-4.52.02-9.05.1-13.58.21-4.25.1-8.62.03-12.84.65-.9.13-.63,1.49.21,1.53h0Z"/>
      </g>
    </g>
  </g>
</svg>