<?xml version="1.0" encoding="UTF-8"?>
<svg id="Capa_2" data-name="Capa 2" xmlns="http://www.w3.org/2000/svg" viewBox="0 0 100 100">
  <defs>
    <style>
      .cls-1 {
        fill: #fff;
      }

      .cls-2 {
        fill: none;
      }

      .cls-3 {
        fill: #a65247;
      }

      .cls-4 {
        fill: #4a2d2d;
      }

      .cls-5 {
        fill: #e2963e;
      }
    </style>
  </defs>
  <g id="COLOR">
    <g>
      <g>
        <g>
          <path class="cls-3" d="M17.98,74.92s.03.02.06.03c.03.01.1.05.12.06.12.05.24.1.36.14.29.1.58.17.88.24.61.13,1.18.19,1.92.27.79.08,1.57.13,2.36.16,1.64.06,3.29.05,4.93-.02,1.28-.05,2.56-.1,3.84-.24.19-.02.39-.05.58-.07,0,0,.01,0,.02,0,.24-.05.49-.1.73-.17.52-.15,1-.37,1.46-.65-.28-.21-.62-.36-.97-.49-.92-.32-1.95-.42-2.54-.52-2.28-.39-4.6-.39-6.9-.28-2,.1-4.48-.11-6.34.92-.26.15-.48.32-.66.51.05.04.11.09.15.12Z"/>
          <path class="cls-3" d="M31.87,77.24c-3.12.27-6.28.27-9.4.01-.81-.07-3.75-.24-5.07-1.26-.17.86-.03,1.86.06,2.85.17,1.9.98,9.43,1.72,10.88.5.99,1.46,1.38,2.39,1.61,2.89.71,5.99.59,8.9.08,1.3-.23,2.5-.62,3.05-2.09,1.39-3.73,2.08-8.94,2.15-12.96,0-.04.02-.08.03-.13,0-.02,0-.03,0-.05-1.16.67-2.51.94-3.82,1.05Z"/>
          <path class="cls-1" d="M27,82.08v-.03c-.02.07-.05.15-.08.22.03-.07.07-.14.12-.21l-.14.19c.04-.06.09-.1.15-.15.02-.02.04-.04.06-.06.14-.13.19-.26.26-.43.07-.19.02-.51-.09-.68-.12-.18-.3-.36-.52-.4-.19-.04-.32-.05-.51,0-.09.03-.18.07-.27.12-.12.06-.22.15-.32.24-.14.13-.27.3-.35.48-.08.15-.13.3-.13.47l.03.25c.06.28.28.5.54.6.24.1.48.1.72,0,.12-.04.22-.1.3-.19.12-.12.2-.25.24-.41h0Z"/>
          <path class="cls-1" d="M27.79,85.14c.11-.1.2-.21.28-.34.12-.22.13-.49,0-.7-.06-.1-.15-.19-.25-.25-.11-.06-.23-.09-.35-.1-.02,0-.05,0-.07,0-.08,0-.17.01-.25.03-.05,0-.1.02-.15.02-.14.04-.26.11-.36.21-.1.1-.17.22-.21.36-.05.21-.03.43.08.62.1.18.29.32.48.37.28.08.58,0,.78-.21h0Z"/>
          <path class="cls-4" d="M40.52,64.34c.05-.46-.11-.95-.43-1.34-1.29-1.55-4.99-1.39-6.82-1.55-1.75-.15-3.51-.28-5.27-.28-3.8,0-7.58-.03-11.35.58-1.42.23-4.6.44-4.22,2.65.02.1.05.18.08.26.31,8.02,1.29,16.67,2.54,24.57.44,2.75,1.15,5.32,4,6.36,4.56,1.67,9.96,1.61,14.56.1,3.03-.99,3.81-3.57,4.27-6.46,1.28-8.06,2.43-16.42,2.72-24.58,0-.12-.03-.23-.09-.32ZM19.27,62.72c2.96-.31,6.57-.33,9.54-.25,3.04.08,9.37.16,9.99,1.21.24.4-1.92.75-6.54.87-1.82.05-11.83-.12-16.12-.21-.43,0-1.04-.14-1.42-.35-1-.56,3.32-1.14,4.54-1.27ZM36.56,85.12c-.4,2.57-.23,7.35-3.02,8.61-1.56.7-3.36.77-5.04.84-2.81.13-5.97.24-8.67-.67-3.23-1.07-3.02-6.05-3.45-8.79-1.01-6.4-1.41-12.87-2.32-19.28,1.41.35,3.35.11,4.3.12,2.61.04,5.36.23,8.03.14,3.17.16,6.47-.07,9.58-.14.81-.02,2.06.08,3.05-.17-.93,6.42-1.45,12.91-2.46,19.32Z"/>
        </g>
        <g>
          <path class="cls-3" d="M59.48,16.03s-1.31,3.62-.5,5.22,1.91,1.91,1.91,1.91c0,0,.9,7.53-.1,10.44s-11.15,3.31-15.16,10.95-3.31,19.28-.9,27.72,5.62,20.29,9.14,22.6,22.39,2.81,26.91.4,9.74-19.78,11.05-29.63c1.31-9.84.8-19.68-3.62-24.1-4.42-4.42-11.65-4.42-13.06-7.43s-1.41-10.54-.7-10.95,2.01-1.81,2.21-3.62-1-3.82-1-3.82l-16.17.3Z"/>
          <path class="cls-5" d="M60.89,23.16s.29,2.45.36,5.09c1.97,1.47,4.77,1.86,7.12,1.9,2.01.03,3.95-.33,5.72-1.14-.23-2.84-.06-5.62.36-5.86.7-.4,2.01-1.81,2.21-3.62.2-1.81-1-3.82-1-3.82l-16.17.3s-1.31,3.62-.5,5.22c.8,1.61,1.91,1.91,1.91,1.91Z"/>
          <path class="cls-4" d="M61.87,10c-4.14,1.1-4.14,3.51-3.93,4.82s-.11,2.51.74,3.21,6.26,2.21,12.63,1.61c6.37-.6,5.73-3.51,6.05-4.42s.34-3.55-.85-4.42c-2.34-1.71-10.51-1.91-14.65-.8Z"/>
          <path class="cls-1" d="M57.94,43.72c2.3-1.6,3.54-2.43,3.41-3.05-.32-1.53-5.95.79-8.11,2.65-2.43,2.08-4.59,4.95-4.72,7.99-.04.84.33,1.27.67,1.43.69.32,1.71-.47,2.19-1.32.66-1.19,3.12-5.3,6.57-7.7Z"/>
          <path class="cls-4" d="M63.98,23.19c.14.07.29.11.44.16.25.08.51.15.76.22.53.14,1.09.21,1.64.27,1.04.11,2.09.13,3.13,0,.33-.04.66-.08.99-.14.07-.01.14-.02.21-.04.12-.03.21-.09.3-.15.08-.06.17-.12.23-.2.06-.07.11-.15.17-.22.11-.15.03-.42-.13-.5-.14-.07-.28-.15-.44-.18-.03,0-.06-.01-.09-.02-.16-.03-.22-.03-.38,0-.08.01-.15.03-.23.05-.27.05-.55.1-.82.14-.76.1-1.53.16-2.29.16-.79,0-1.58-.09-2.37-.17-.05,0-.09-.01-.14-.02-.02,0-.05,0-.07,0,0,0-.04,0-.06,0,0,0,.02,0,.04,0-.11-.01-.22-.03-.32-.05-.13-.02-.26-.06-.4-.06-.12,0-.23,0-.35,0-.31,0-.41.41-.15.57.11.07.22.14.33.2Z"/>
          <path class="cls-5" d="M79.7,57.57c-2.44-5.48-7.21-9.19-14.59-7.51-20.65,4.71-10.13,46.32,7.83,35.69,1.55-.92,2.76-2.25,3.83-3.68,1.06-1.41,1.99-2.94,2.78-4.53,2.71-5.46,2.89-13.83.15-19.98Z"/>
        </g>
      </g>
      <rect class="cls-2" width="100" height="100"/>
    </g>
  </g>
</svg>