<?xml version="1.0" encoding="UTF-8"?>
<svg id="Capa_2" data-name="Capa 2" xmlns="http://www.w3.org/2000/svg" viewBox="0 0 100 100">
  <defs>
    <style>
      .cls-1 {
        fill: #cac782;
      }

      .cls-2 {
        fill: #fff;
      }

      .cls-3 {
        fill: none;
      }

      .cls-4 {
        fill: #4a2d2d;
      }

      .cls-5 {
        fill: #9e991c;
      }
    </style>
  </defs>
  <g id="COLOR">
    <g>
      <rect class="cls-3" width="100" height="100"/>
      <g>
        <g>
          <path class="cls-1" d="M91.87,70.23c-.07-1.53-2.16-2.94-3.18-3.82-1.55-1.34-3.16-2.68-4.85-3.83-1.55-1.06-2.49-.87-4.21-.34-3.09.97-7.25,1.7-8.56,5-1.34,2.31-1.03,5.53-1.05,8.16-.01,1.79.07,2.76,1.52,3.93,1.69,1.37,3.54,2.58,5.38,3.73,1.17.73,2.8,2.02,4.27,1.76,1.12-.19,1.85-1.2,2.42-2.08.6-.92,1.24-1.8,1.9-2.68,1.73-2.31,3.29-4.74,5.02-7.05.56-.75,1.38-1.79,1.33-2.78Z"/>
          <path class="cls-4" d="M75.36,67.4c-5.38-3.27-9-8.42-10.68-14.48-1.95-7.05,1.32-14.03,1.22-21.14-.05-3.3-.74-6.29-2.91-8.85-1.91-2.25-4.42-4.04-7.2-5.04-5-1.79-11.18-.59-14.39,3.86-2.1,2.91-2.23,6.52-1.82,9.96.29,2.41.54,4.79.74,7.18-2.66.03-5.64-.11-7.76,1.75-2.66,2.33-5.8,4.72-7.95,7.54-4.1,5.38-3.35,11.81-3.13,18.21.13,3.74.21,7.48.37,11.22.07,1.62.19,3.25.33,4.87.1,1.12.05,2.45.77,3.39.76,1,1.94,1.13,3.11,1.27,1.71.21,3.43.41,5.16.51,3.12.18,6.25.15,9.38.07,3.12.08,6.26.11,9.38-.07,1.72-.1,3.44-.3,5.16-.51,1.16-.14,2.34-.27,3.11-1.27.71-.94.67-2.27.77-3.39.14-1.62.26-3.24.33-4.87.16-3.74.24-7.48.37-11.22.21-6.4.98-12.83-3.13-18.21-2.15-2.81-5.29-5.21-7.95-7.54-1.69-1.48-4.02-1.74-6.24-1.76-.09-1.26-.22-2.52-.39-3.76-.47-3.51-1.44-7.56.26-10.9,3-5.89,10.59-6.36,15.63-3.05,2.83,1.86,5.08,4.56,5.63,7.97.55,3.43-.06,6.87-.4,10.29-.32,3.24-.63,6.27-.6,9.53.02,2.57.44,5.19,1.18,7.65,1.58,5.24,5.42,10.52,10.49,12.83,1.38.63,2.55-1.25,1.21-2.06ZM44.09,40.69c2.29-.04,3.49,1.01,5.09,2.52,2.11,1.99,4.39,3.87,6.4,5.95,2.3,2.39,2.3,5.93,2.2,9.06-.1,2.84-.33,5.69-.46,8.53-.13,2.9-.26,5.81-.38,8.71-.07,1.54-.13,3.08-.15,4.63-.01,1.05.39,3.24,0,4.2-.54,1.32-3.46.92-4.66.96-1.43.04-2.86.11-4.29.16-1.58.05-3.16.09-4.74.1-.08-.02-.18-.03-.27-.03-.75.01-1.5.02-2.24.03-.74,0-1.49-.01-2.23-.03-.1,0-.19,0-.27.03-1.58-.01-3.16-.04-4.74-.1-1.43-.05-2.86-.12-4.29-.16-1.22-.04-4.1.4-4.66-.96-.38-.92.01-2.86,0-3.85-.01-1.54-.07-3.08-.14-4.62-.13-3.02-.27-6.05-.4-9.07-.12-2.73-.33-5.46-.44-8.19-.13-3.25-.17-6.89,2.18-9.4,1.98-2.11,4.29-3.97,6.4-5.95,1.25-1.18,2.55-2.33,4.34-2.47,1.38-.11,2.76-.1,4.15-.08.09,1.22.17,2.45.23,3.69.05,1.1,1.59,1.07,1.69,0,.11-1.21.11-2.44.07-3.66.55,0,1.09.01,1.64,0Z"/>
          <path class="cls-5" d="M52.31,64.54c-1.87-2.12-4.58-1.65-7.02-1.06-1.86.45-3.88.86-5.79.5-1.66-.31-2.7-1.54-4.08-2.39-1.27-.78-2.75-1.19-4.25-1.16-1.2.02-2.49.22-3.55.82-.84.47-1.04,1.57-1.05,2.45,0,1.01-.04,1.68-.08,2.69-.08,2.08-.04,4.17.05,6.25.09,2.41.24,5.43,1.82,7.41,1.51,1.89,4.04,2.21,6.28,2.58,3.42.56,6.88.86,10.35.58,2.5-.2,5.35-.41,6.95-2.59,1.73-2.35,2.1-5.99,2.15-8.82.04-2.33-.13-5.4-1.77-7.25Z"/>
          <path class="cls-4" d="M30.47,69.63l.07.05.29.12c.16.05.32.06.48.02.11,0,.21-.03.31-.08.15-.05.28-.13.39-.25l.19-.25.12-.29c.05-.16.06-.32.02-.48,0-.16-.06-.31-.15-.45l-.05-.07c-.11-.18-.26-.33-.44-.44-.19-.11-.4-.16-.62-.16l-.33.05c-.21.06-.39.17-.54.32-.12.11-.2.24-.25.4-.08.15-.11.3-.1.47,0,.22.06.43.17.62.11.18.26.33.44.44h0Z"/>
          <path class="cls-4" d="M33.55,76.8s0,0,0,0l.2-.26c-.17.21-.25.29-.32.56-.09.33-.04.7.14.99.23.39.66.64,1.12.63s.88-.25,1.11-.65.23-.91,0-1.3-.66-.64-1.12-.63c-.23,0-.45.06-.65.18-.19.12-.35.27-.46.47h0Z"/>
          <path class="cls-4" d="M38.22,73.13c.2,0,.38-.04.55-.13.18-.06.33-.16.46-.3.14-.13.24-.29.29-.46.09-.17.13-.36.12-.55l-.05-.38c-.07-.24-.19-.45-.37-.63l-.29-.22c-.22-.13-.47-.19-.73-.19-.2,0-.38.04-.55.13-.18.06-.33.16-.46.3-.14.13-.24.29-.29.46-.09.17-.13.36-.12.55l.05.38c.07.24.19.45.37.63l.29.22c.22.13.47.19.73.19h0Z"/>
          <path class="cls-4" d="M76.23,76.16c1.04-1.33,1.98-2.77,2.89-4.19.88-1.37,2.05-2.84,2.47-4.41.15-.57-.51-.85-.91-.53-1.21.96-2.02,2.55-2.85,3.83-.94,1.45-1.86,2.97-2.6,4.53-.29.61.53,1.39,1.01.78h0Z"/>
          <path class="cls-4" d="M79.52,78.36c2.06-2.25,3.62-4.93,5.52-7.3.58-.73-.34-1.71-1.04-1.04-2.24,2.13-3.7,5.09-5.38,7.65-.36.55.47,1.19.91.7h0Z"/>
        </g>
        <path class="cls-2" d="M47.26,71.23c1.85,0,1.85-2.87,0-2.87s-1.85,2.87,0,2.87h0Z"/>
        <path class="cls-2" d="M47.67,77.69c1.36,0,1.37-2.12,0-2.12s-1.37,2.12,0,2.12h0Z"/>
      </g>
    </g>
  </g>
</svg>