<?xml version="1.0" encoding="UTF-8"?>
<svg id="Capa_2" data-name="Capa 2" xmlns="http://www.w3.org/2000/svg" viewBox="0 0 100 100">
  <defs>
    <style>
      .cls-1 {
        fill: #fff;
      }

      .cls-2 {
        fill: none;
      }

      .cls-3 {
        fill: #4a2d2d;
      }

      .cls-4 {
        fill: #b8cde4;
      }
    </style>
  </defs>
  <g id="COLOR">
    <g>
      <rect class="cls-2" width="100" height="100"/>
      <g>
        <g>
          <g>
            <path class="cls-3" d="M85.74,64.67c-1.02.22-1.89.97-2.93,1.12-2.25.31-3.02-1.95-2.93-3.77.13-2.78,1.92-5.44,3.44-7.66,1.67-2.43,3.54-4.71,5.23-7.12,3.3-4.68,6.01-10.18,6.02-16.02,0-5.36-2.66-10.95-7.34-13.77-5.39-3.26-11.86-1.55-17.15,1.1-.26-2.13-.56-4.25-.93-6.36-.02-.1-.05-.18-.1-.25-.04-.34-.25-.67-.61-.76-3.26-.82-7.18-.36-10.52-.42-4.86-.09-9.72-.17-14.59-.22-8.46-.1-16.97-.13-25.43.34-.66.04-.72.97-.17,1.11,0,0,0,0,0,0,1.15,1.47,2.67,2.61,3.88,4.04.88,1.03,1.59,2.18,2.36,3.28-.47.47-.38,1.42.29,1.62-1.17,6.82-1.55,13.84-2.23,20.72-.72,7.36-1.36,14.73-2,22.11-.31,3.54-.63,7.09-.95,10.63-.31,3.42-.85,6.93-.77,10.36.05,2.44.8,4.73,2.83,6.21,2.28,1.66,5.33,1.99,8.02,2.5,5.95,1.13,12.37,2.03,18.58,1.9,6.54.06,13.26-.93,19.51-2.19,2.87-.58,6.28-1.21,8.01-3.86,1.77-2.72,1.13-6.3.9-9.34-.28-3.71-.6-7.42-.94-11.13.87,1.26,2.04,2.29,3.51,2.87,3.25,1.28,10.85.52,10.25-4.49-.2-1.67-1.58-2.9-3.25-2.53ZM73.56,87.55c-.82,1.69-2.74,2.39-4.45,2.8-6.9,1.67-13.96,1.97-21.01,2.14-6.82-.22-13.54-.47-20.34-1.71-1.85-.34-4.12-.67-5.56-1.99-1.43-1.31-1.49-3.24-1.38-5.05.25-4.12.75-8.24,1.11-12.35.73-8.5,1.6-17,2.25-25.51.63-8.29,1.71-16.69,1.73-25.01,4.35-.27,8.73-.41,13.08-.43,4.5-.03,9.29.61,13.74-.04.74-.11.69-1.3,0-1.45-4.36-.91-9.3-.39-13.74-.33-4.38.06-8.75.2-13.13.36-.72-1.44-1.83-2.75-2.88-3.94-.95-1.07-2-2.23-3.21-3.09,7.85-.16,15.72.27,23.56.43,4.86.1,9.72.22,14.59.35,3.09.08,6.6.64,9.72.23.02,1.79.1,3.58.21,5.38-2.38-.12-4.74.07-7.1.44-.54.08-.54,1.01,0,1.09,2.4.35,4.81.51,7.23.35.29,3.87.71,7.74,1.05,11.58.62,6.92,1.27,13.83,1.96,20.73.68,6.85,1.35,13.69,1.98,20.54.29,3.12.62,6.24.93,9.36.16,1.65.42,3.55-.34,5.11ZM71.85,35.75c-.18-1.63-.33-3.26-.49-4.89,4.17-2.57,10.65-5.81,14.29-.82,1.94,2.66,1.09,5.62.14,8.49-1,3.03-2.45,5.92-4.26,8.55-2.51,3.63-5.8,6.88-7.32,11.01-.75-7.45-1.55-14.89-2.36-22.33ZM87,68.72c-.91,1.7-3.6,1.89-5.26,1.79-2.95-.19-5.04-2.13-5.95-4.86-1.99-5.97,2.42-11.24,5.9-15.58,3-3.73,5.65-8.46,6.46-13.24.69-4.07-.74-8.5-4.49-10.54-4.05-2.2-8.9-.09-12.52,2.33-.27-2.88-.55-5.75-.88-8.62,5.65-2.01,11.99-4.31,17.14.12,4.08,3.51,5.51,9.13,4.56,14.31-1.08,5.95-4.12,10.54-7.74,15.24-2.65,3.44-6.3,7.77-6.38,12.36-.06,4,2.87,6.46,6.67,4.97,1.14-.45,4.16-1.43,2.48,1.73Z"/>
            <path class="cls-3" d="M64.3,81.03c-.79-.13-1.59-.09-2.39-.1-1.41-.01-1.41,2.2,0,2.19.8,0,1.6.03,2.39-.1.98-.16.98-1.83,0-1.99Z"/>
            <path class="cls-3" d="M62.67,79.61c.54-.05,1.06-.09,1.53-.37.5-.3.5-1.02,0-1.32-.47-.29-1-.32-1.53-.37-.54-.05-1.06.51-1.04,1.04.02.52.46,1.09,1.04,1.04Z"/>
            <path class="cls-3" d="M30.03,30.38c.6-.25,1.23-.49,1.75-.89.39-.31.18-1.08-.3-1.15-.56-.09-1.15-.01-1.71.06-.6.07-1.08.49-.99,1.14.07.54.69,1.08,1.26.84Z"/>
            <path class="cls-3" d="M30.4,27.07c.12-.04.24-.07.35-.11.17-.05.32-.15.43-.3.11-.14.19-.32.18-.5,0-.15-.04-.29-.11-.42-.1-.18-.3-.32-.49-.38-.12-.04-.24-.07-.35-.11-.59-.17-1.18.31-1.18.9s.6,1.08,1.18.9Z"/>
          </g>
          <g>
            <g>
              <path class="cls-4" d="M30.18,45.02c.48.15.97.28,1.46.41.23.06.48.14.73.2,4.83,1.31,10.08,1.5,14.99,1.49,3.97,0,7.9-.43,11.79-1.08,2.99-.49,5.69-1.26,6.23-1.38-1.3-1.73-3.86-2.27-5.88-2.67-6.1-1.21-12.53-1.42-18.72-.96-3.6.27-9.4.46-12.02,3.47.47.2.94.37,1.43.51Z"/>
              <path class="cls-4" d="M70.14,74.32c-.25-3.52-.53-7.03-.92-10.54-.35-3.06-.83-6.1-1.36-9.14-.46-2.64-.7-5.54-1.64-8.13-.06.04-2.96,1.27-9.94,2.23-3.19.44-6.41.58-9.63.52-3.35-.06-6.83-.39-10.14-.87-2.67-.38-6.46-1.51-8.21-2.57-1.64,6.28-2.3,12.98-3.02,19.41-.37,3.34-.66,6.7-.9,10.05-.19,2.76-.86,6.13.22,8.8.81,1.99,2.46,2.79,4.43,3.33,3.24.89,6.56,1.36,9.89,1.68,6.81.65,13.58.75,20.4.08,4.29-.42,10.79-.33,11.19-5.98.2-2.92-.14-5.98-.34-8.9Z"/>
            </g>
            <path class="cls-3" d="M64.3,81.03c-.79-.13-1.59-.09-2.39-.1-1.41-.01-1.41,2.2,0,2.19.8,0,1.6.03,2.39-.1.98-.16.98-1.83,0-1.99Z"/>
            <path class="cls-3" d="M62.67,79.61c.54-.05,1.06-.09,1.53-.37.5-.3.5-1.02,0-1.32-.47-.29-1-.32-1.53-.37-.54-.05-1.06.51-1.04,1.04.02.52.46,1.09,1.04,1.04Z"/>
            <path class="cls-3" d="M30.03,30.38c.6-.25,1.23-.49,1.75-.89.39-.31.18-1.08-.3-1.15-.56-.09-1.15-.01-1.71.06-.6.07-1.08.49-.99,1.14.07.54.69,1.08,1.26.84Z"/>
            <path class="cls-3" d="M30.4,27.07c.12-.04.24-.07.35-.11.17-.05.32-.15.43-.3.11-.14.19-.32.18-.5,0-.15-.04-.29-.11-.42-.1-.18-.3-.32-.49-.38-.12-.04-.24-.07-.35-.11-.59-.17-1.18.31-1.18.9s.6,1.08,1.18.9Z"/>
          </g>
        </g>
        <path class="cls-1" d="M30.11,53.25c1.43.98,3.39,1.32,4.86.22.66-.49.55-1.79-.47-1.73-1.23.08-2.47.16-3.62-.33-1.1-.46-1.65,1.23-.77,1.83h0Z"/>
        <path class="cls-1" d="M31.09,58.2c.78.28,2.12.41,2.57-.48.21-.43.09-.85-.3-1.13-.29-.21-.69-.21-1.04-.22-.04,0-.36-.01-.24,0-.15-.02-.3-.07-.45-.11-.5-.16-1.13.19-1.24.71-.13.57.17,1.05.71,1.24h0Z"/>
      </g>
    </g>
  </g>
</svg>