<?xml version="1.0" encoding="UTF-8"?>
<svg id="Capa_2" data-name="Capa 2" xmlns="http://www.w3.org/2000/svg" viewBox="0 0 100 100">
  <defs>
    <style>
      .cls-1 {
        fill: #6e5757;
      }

      .cls-2 {
        fill: #fff;
      }

      .cls-3 {
        fill: none;
      }

      .cls-4 {
        fill: #4a2d2d;
      }

      .cls-5 {
        fill: #ebb238;
      }

      .cls-6 {
        fill: #fddaa7;
      }
    </style>
  </defs>
  <g id="COLOR">
    <g>
      <rect class="cls-3" width="100" height="100"/>
      <g>
        <g>
          <path class="cls-5" d="M21.09,76.42s.03.02.06.03c.03.01.1.05.12.06.12.05.24.1.36.14.29.1.58.17.88.24.61.13,1.18.19,1.92.27.79.08,1.57.13,2.36.16,1.64.06,3.29.05,4.93-.02,1.28-.05,2.56-.1,3.84-.24.19-.02.39-.05.58-.07,0,0,.01,0,.02,0,.24-.05.49-.1.73-.17.52-.15,1-.37,1.46-.65-.28-.21-.62-.36-.97-.49-.92-.32-1.95-.42-2.54-.52-2.28-.39-4.6-.39-6.9-.28-2,.1-4.48-.11-6.34.92-.26.15-.48.32-.66.51.05.04.11.09.15.12Z"/>
          <path class="cls-5" d="M34.98,78.74c-3.12.27-6.28.27-9.4.01-.81-.07-3.75-.24-5.07-1.26-.17.86-.03,1.86.06,2.85.17,1.9.98,9.43,1.72,10.88.5.99,1.46,1.38,2.39,1.61,2.89.71,5.99.59,8.9.08,1.3-.23,2.5-.62,3.05-2.09,1.39-3.73,2.08-8.94,2.15-12.96,0-.04.02-.08.03-.13,0-.02,0-.03,0-.05-1.16.67-2.51.94-3.82,1.05Z"/>
          <path class="cls-2" d="M30.11,83.58v-.03c-.02.07-.05.15-.08.22.03-.07.07-.14.12-.21l-.14.19c.04-.06.09-.1.15-.15.02-.02.04-.04.06-.06.14-.13.19-.26.26-.43.07-.19.02-.51-.09-.68-.12-.18-.3-.36-.52-.4-.19-.04-.32-.05-.51,0-.09.03-.18.07-.27.12-.12.06-.22.15-.32.24-.14.13-.27.3-.35.48-.08.15-.13.3-.13.47l.03.25c.06.28.28.5.54.6.24.1.48.1.72,0,.12-.04.22-.1.3-.19.12-.12.2-.25.24-.41h0Z"/>
          <path class="cls-2" d="M30.9,86.64c.11-.1.2-.21.28-.34.12-.22.13-.49,0-.7-.06-.1-.15-.19-.25-.25-.11-.06-.23-.09-.35-.1-.02,0-.05,0-.07,0-.08,0-.17.01-.25.03-.05,0-.1.02-.15.02-.14.04-.26.11-.36.21-.1.1-.17.22-.21.36-.05.21-.03.43.08.62.1.18.29.32.48.37.28.08.58,0,.78-.21h0Z"/>
          <path class="cls-4" d="M42.31,65.97c-1.06,6.85-1.56,13.79-2.65,20.64-.4,2.57-.23,7.35-3.02,8.61-1.56.7-3.36.77-5.04.84-2.81.13-5.97.24-8.67-.66-3.23-1.07-3.02-6.05-3.45-8.79-1.08-6.86-1.45-13.8-2.51-20.65-.12-.8-1.37-.29-1.37-.29.29,8.16,1.28,17.01,2.57,25.07.44,2.75,1.15,5.32,4,6.36,4.56,1.67,9.96,1.61,14.56.1,3.03-.99,3.81-3.57,4.27-6.46,1.28-8.06,2.43-16.42,2.72-24.58.03-.78-1.27-.99-1.4-.19Z"/>
          <path class="cls-4" d="M43.19,64.5c-1.29-1.55-4.99-1.39-6.82-1.55-1.75-.15-3.51-.28-5.27-.28-3.8,0-7.58-.03-11.35.58-1.42.23-4.6.44-4.22,2.65.37,2.15,4.42,1.53,5.93,1.55,2.61.04,5.36.23,8.03.14,3.17.16,6.47-.07,9.58-.14,1.16-.03,3.21.21,4.12-.71.63-.64.55-1.58,0-2.24ZM35.38,66.05c-1.82.05-11.83-.12-16.12-.21-.43,0-1.04-.14-1.42-.35-1-.56,3.32-1.14,4.54-1.27,2.96-.31,6.57-.33,9.54-.25s9.37.16,10,1.21c.24.4-1.92.75-6.54.87Z"/>
        </g>
        <g>
          <path class="cls-5" d="M62.43,34.49c1.36.04,2.75.03,4.01-.44-.7-.74-1.54-1.37-4.12-1.37-2.1,0-3.32.58-4.19,1.27,1.39.42,2.84.49,4.3.54Z"/>
          <path class="cls-5" d="M71.9,41.64c-1.11-1.92-2.92-4.69-4.37-6.39-.57.29-1.22.44-1.84.55-1.05.19-2.1.21-3.17.18-1.05-.03-2.12-.04-3.16-.23-.81-.15-1.54-.44-2.26-.8-.05.06-.1.11-.16.17-1.76,1.88-4.25,5-5.25,8.41-1.03,3.52-.08,43.06.83,45.23.92,2.17,7.33,2.25,11.24,2.25s6.21-.25,7.54-1.42c1.33-1.17,1.96-27.9,2.21-34.82.25-6.91-.37-10.95-1.62-13.12Z"/>
          <path class="cls-6" d="M61.49,51.68c-1.57-1.12-5.14-.76-6.98-.85-1.62-.07-3.77-.05-5.39-.11-.14,4.89.23,9.85.31,14.7.07,4.69.07,9.38.27,14.07,1.55.03,3.66.16,5.18.22,1.09.04,5.89.57,6.84-.49,1.68-1.87,1.49-26.32-.23-27.55Z"/>
          <path class="cls-2" d="M68.98,82.54c.22-.1-.14.03.09-.03.08-.02.15-.04.22-.07.13-.04.26-.08.38-.12.58-.19,1.12-.77.75-1.41-.32-.55-1.01-.55-1.53-.33-.37.15-.66.38-.91.69s-.33.72-.06,1.07.68.39,1.05.21h0Z"/>
          <path class="cls-2" d="M68.19,86.31h.12c.06-.01.12-.03.18-.05.06-.02.11-.05.15-.1.05-.04.08-.09.1-.15.03-.06.04-.11.04-.18l-.02-.12c-.02-.08-.06-.15-.12-.2l-.09-.07c-.07-.04-.15-.06-.23-.06h-.12c-.07-.02-.13,0-.18.03-.06.02-.11.05-.15.1-.05.04-.08.09-.1.15-.03.06-.04.12-.04.18l.02.13c.02.08.06.15.12.21l.1.07c.07.04.15.06.24.07h0Z"/>
          <path class="cls-2" d="M57.45,39.31c-1.74.57-3.14,3.47-2.37,5.15.25.55,1.09.6,1.47.19.59-.63.73-1.53,1.04-2.31s.75-1.46.86-2.27c.07-.5-.56-.9-.99-.76h0Z"/>
          <path class="cls-4" d="M76.93,49.54c-.08-3.08-.3-6.23-1.55-9.09-1.31-3.01-3.91-5-5.64-7.72-4.16-6.53-1.77-14.32-2.33-21.54-.17.16-.42.23-.63.25-.34.03-.68.06-1.02.1.06,2.61.15,5.2.04,7.82-.11,2.86-.35,5.67.17,8.51.53,2.9,1.8,5.55,3.59,7.88,1.93,2.5,3.92,4.6,4.69,7.76.78,3.24.66,6.71.65,10.02,0,3.47-.14,6.94-.2,10.41-.12,6.8-.02,13.62-.58,20.41-.15,1.81-.22,3.7-.62,5.47-.48,2.09-1.76,2.97-3.77,3.41-2.54.56-5.16.42-7.75.53-2.46-.11-4.94-.01-7.35-.6-3.83-.93-3.72-4.47-4.01-7.75-.6-6.67-.54-13.36-.65-20.04-.1-6.49-.73-13.17.04-19.63.42-3.54,1.89-6.09,4.13-8.79,1.74-2.1,3.19-4.34,4.02-6.96,1-3.15.9-6.38.74-9.64-.15-3-.06-5.96,0-8.95-.52-.16-1.02-.39-1.4-.72-.07-.01-.14-.02-.21-.04-.64,6.36,1.28,12.99-.97,19.16-1.18,3.25-3.6,5.38-5.58,8.11-1.82,2.5-2.57,5.42-2.86,8.47-.66,6.98-.11,14.14-.11,21.14,0,7.14-.11,14.44.81,21.54.39,2.97,1.58,5.23,4.54,6.24,2.73.94,6.02,1.16,8.97.92,2.24.15,4.54.01,6.72-.32,2.65-.4,5.3-1.23,6.5-3.84,1.23-2.7,1.09-6.22,1.23-9.12.18-3.7.28-7.41.31-11.11.07-7.41.28-14.86.08-22.27Z"/>
          <path class="cls-1" d="M68.68,9.36c-.04-1.53.14-3.09-1.66-3.49-3-.66-6.09-.53-9.11-.04-2.02.33-1.9,1.8-1.95,3.53-.04,1.35.09,2.54,1.63,2.84,1.29.25,2.72.1,4.03.12.9.02,1.8.02,2.69.01.83,0,1.67-.12,2.49-.12,1.7-.2,1.91-1.35,1.87-2.85Z"/>
        </g>
      </g>
    </g>
  </g>
</svg>