<?xml version="1.0" encoding="UTF-8"?>
<svg id="Capa_2" data-name="Capa 2" xmlns="http://www.w3.org/2000/svg" viewBox="0 0 100 100">
  <defs>
    <style>
      .cls-1 {
        fill: #89a1b9;
      }

      .cls-2 {
        fill: #fff;
      }

      .cls-3 {
        fill: none;
      }

      .cls-4 {
        fill: #c3cfdc;
      }

      .cls-5 {
        fill: #4a2d2d;
      }

      .cls-6 {
        fill: #5b7d9f;
      }
    </style>
  </defs>
  <g id="COLOR">
    <g>
      <g>
        <path class="cls-4" d="M50.38,6.94c-5.97.13-18.81-1.15-23.95,2-5.14,3.15-5.45,6.22-5.6,19.57-.15,13.36-1.54,50.28.69,56.19,2.23,5.91,4.45,7.6,11.97,8.29,7.52.69,31.4.77,35.92-.46,4.53-1.23,7.45-6.06,7.98-13.74s.31-54.12-.08-57.72c-.38-3.61-.33-9.53-6.75-12.51-5.3-2.46-15.16-1.72-20.19-1.61Z"/>
        <path class="cls-1" d="M38.08,49.14l-7.94.23s-3.57,2.53-3.22,5.7c.35,3.17,2.25,5.12,4.84,4.55,2.59-.58,4.66-2.01,6.04-5.12.98-2.2.29-5.35.29-5.35Z"/>
        <path class="cls-6" d="M25.23,41.32l-.03,6.38s.39-.37.97-.87c.18-.16.39-.34.6-.51,1.16-.96,2.72-2.11,3.8-2.37,1.92-.46,11.67-.23,11.67-.23,0,0-.08-2.92-.46-8.37-.38-5.45-2.61-15.43-5.14-17.73-.01-.01-.03-.03-.04-.04-2.5-2.23-4.04-.32-6.94,4.03-2.23,3.35-3.61,8.9-4.14,11.32h0c-.16.75-.24,1.19-.24,1.19v1.58s-.04,5.63-.04,5.63Z"/>
        <path class="cls-2" d="M27.52,42.58c-.05-1.18-.16-2.37-.12-3.55.13-3.64.85-7.25,2.02-10.69,1.1-3.24,2.47-6.6,4.79-9.16.37-.41,1.52-1.59,1.93-1.96-1.17-.97-1.96-.73-2.7-.29-1.7,1.02-2.76,3.14-3.8,4.69-2.23,3.35-3.61,8.9-4.14,11.32-.1.93-.17,1.85-.25,2.77-.02.28-.04.56-.07.84-.13,1.56-.11,3.13.03,4.69,0,.03,0,.07,0,.1.1,1.4-.06,4.54.94,5.5,0,.01.02.02.03.03.13.12.36-.16.58-.55.27-.47.54-1.09.68-1.36.05-.79.09-1.57.06-2.37Z"/>
        <path class="cls-6" d="M56.82,43.63l-12.77-.07h-1.62s-1.26-.01-1.26-.01l-.08-10.06s.11-.86.37-2.21c.57-2.92,1.89-8.09,4.46-11.61,2.26-3.09,3.6-3.66,4.6-3.1.66.37,1.17,1.23,1.69,2.18,1.31,2.38,3.91,9.28,4.22,14.58.31,5.3.38,10.29.38,10.29Z"/>
        <path class="cls-2" d="M50.53,16.58s-.04.07-.07.11c-2.15,2.92-4.3,5.91-5.68,12.23-.54,2.46-.59,4.77-.42,7.26.14,2.16.26,4.78-.12,6.92-.03.19-.1.35-.19.47-.4.58-1.26.56-1.62,0-.05-.07-.09-.15-.11-.23-.61-1.9-1.15-7.31-.85-12.04.57-2.92,1.89-8.09,4.46-11.61,2.26-3.09,3.6-3.66,4.6-3.1Z"/>
        <path class="cls-6" d="M73.25,33.88s-.46,9.21-.46,9.52c0,.22-8.53.2-13.27.17-1.33,0-2.36-.01-2.82-.02h-.27s-.03-.35-.08-.95c-.16-2.09-.46-7.14.07-10.49.68-4.3,4.62-16.58,9.3-15.58.1.02.2.05.3.09,4.51,1.6,7.23,17.26,7.23,17.26Z"/>
        <path class="cls-2" d="M60.28,29.04c-1.17,6.4-.49,10.81-.75,14.53,0,.07,0,.14-.01.21-.07.85-2.26.5-2.8-.23-.06-.07-.09-.15-.11-.23-.05-.23-.13-.46-.24-.72-.16-2.09-.46-7.14.07-10.49.68-4.3,4.62-16.58,9.3-15.58.1.02.2.05.3.09-1.73,1.8-4.53,5.77-5.75,12.42Z"/>
        <g>
          <path class="cls-5" d="M81.47,48.59c-1.27-.05-2.56,0-3.76,0-.65,0-1.29,0-1.94,0,.04.2.08.4.1.61.03.35,0,.71-.1,1.06.65,0,1.29,0,1.94,0,1.17,0,2.43.05,3.66,0-.02-.18-.03-.36-.03-.54,0-.37.04-.75.13-1.12Z"/>
          <path class="cls-5" d="M33.7,27.14l-.02.04-.18.43-.06.48.06.48c.06.23.16.44.32.61.08.13.19.24.32.32.11.11.24.19.39.23.14.08.29.12.45.12.24.05.48.04.71-.03l.04-.02c.31-.09.57-.24.8-.46.22-.23.38-.49.46-.8.09-.32.09-.64,0-.96-.06-.23-.16-.44-.32-.61-.13-.2-.3-.35-.51-.46-.28-.16-.59-.25-.91-.25-.33,0-.63.08-.91.25-.27.16-.49.38-.65.65h0Z"/>
          <path class="cls-5" d="M48.55,27.14l-.02.04-.18.43-.06.48.06.48c.06.23.16.44.32.61.08.13.19.24.32.32.11.11.24.19.39.23.14.08.29.12.45.12.24.05.48.04.71-.03l.04-.02c.31-.09.57-.24.8-.46.22-.23.38-.49.46-.8.09-.32.09-.64,0-.96-.06-.23-.16-.44-.32-.61-.13-.2-.3-.35-.51-.46-.28-.16-.59-.25-.91-.25-.33,0-.63.08-.91.25-.27.16-.49.38-.65.65h0Z"/>
          <path class="cls-5" d="M73.75,43.24c.41-2.66.2-5.48.22-8.16.01-2.25.02-5.49-.01-8.27.32-2.63-.21-5.74-1.18-7.97-1.13-2.6-3.15-4.53-5.89-5.34-3.19-.94-6.8-.89-10.1-1-5.06-.17-10.13-.16-15.19-.01-3.4.11-7.14.04-10.43,1.01-2.69.79-4.69,2.67-5.83,5.21-1.87,4.17-1.1,8.82-1.17,13.24-.03,1.95-.03,3.89-.04,5.84,0,3.59-.03,7.17.23,10.74-.15.93-.17,1.92-.15,2.94.07,3.44-.12,6.87-.18,10.32-.05,2.54-.14,5.08-.19,7.62-.09,4.04-.21,8.57,1.44,12.37,1.13,2.6,3.15,4.53,5.89,5.34,3.19.94,6.8.89,10.1,1,5.06.17,10.13.16,15.19.01,3.4-.11,7.14-.04,10.43-1.01,2.69-.79,4.69-2.67,5.83-5.21.75-1.68,1.14-3.51,1.28-5.33.26-3.17-.19-6.42-.23-9.6-.04-3.06-.03-6.12-.07-9.18.34-.57.64-1.17.93-1.74.77-1.54,1.4-3.18,1.63-4.89.39-2.89-.35-5.93-2.5-7.92ZM26.11,37.79c0-1.46-.01-2.92-.03-4.39,2.13,2.4,5.37,4.08,8.62,3.78,2.31-.22,5.1-1.53,6.32-3.67,2.13,2.34,5.32,3.97,8.53,3.67,2.5-.23,5.57-1.76,6.59-4.23,2.2,2.4,6.08,4.53,9.3,4.23,2.42-.23,5.49-1.79,6.64-4.16-.01.68-.03,1.37-.02,2.06.02,2.51-.18,5.13.13,7.64-1.36-.21-3.51-.17-5.05-.17-3.03.01-6.05.02-9.08.04-6.66.03-13.32.04-19.97.14-2.2.03-4.4.13-6.6.24-.05,0-.1,0-.14,0-.11,0-.23.01-.34.02-.04,0-.07,0-.11.02-1.55.15-3.07.72-4.29,1.63-.21.16-.39.33-.57.5.07-2.44.06-4.89.06-7.34ZM26.2,24.05c.15-1.61.48-3.26,1.22-4.71,1.41-2.76,3.83-3.81,6.79-4.09,3-.29,6.04-.35,9.05-.37,3.85-.03,7.7-.04,11.55,0,3.01.03,6.05.09,9.05.37,2.95.28,5.4,1.34,6.79,4.09.69,1.35,1.02,2.88,1.19,4.38.17,1.56.26,3.01.35,4.72,0,.03.02.05.03.08-.03.77-.05,1.54-.07,2.32-1.74,2.28-4.37,4.85-7.42,4.91-2.91.06-6.11-2.01-8.03-4.08-.15-.16-.29-.16-.4-.09-.22-.21-.61-.21-.85.1-1.74,2.29-3.53,4-6.61,4.06-2.91.06-5.36-1.46-7.28-3.52,0-.04.02-.08.03-.12.13-.63-.63-.91-1-.42-1.74,2.29-3.53,4-6.61,4.06-2.84.06-5.96-1.99-7.9-4-.04-2.56-.11-5.14.12-7.7ZM72.04,66.98c-.02,1.82-.11,3.63-.15,5.45-.06,3.03.17,6.06-1.25,8.85-1.41,2.76-3.83,3.81-6.79,4.09-3,.29-6.04.35-9.05.37-3.85.04-7.7.04-11.55,0-3.01-.03-6.05-.09-9.05-.37-2.95-.28-5.4-1.34-6.79-4.09-1.27-2.51-1.27-5.39-1.38-8.14-.12-3.03.05-6.07.1-9.1.04-2.05.04-4.1.03-6.15,0-2.83-.27-5.76-.07-8.59.2-2.92,2.66-4.38,5.45-4.3,2.07.06,3.77,1.56,4.72,3.43-1.73,0-3.78.09-5.37.36-5.26.32-6.15,9.31-1.26,11.12,1.21.45,2.28.36,3.4.35,6.68-.06,13.02.07,19.48.05,3.32,0,6.64,0,9.96,0,1.6,0,3.21,0,4.81,0,.9,0,4.03-.07,4.8-.59-.02,2.41-.02,4.82-.05,7.23ZM36.93,50.33c.13.63.18,1.27.12,1.88-.27,2.85-3.07,6.64-6.2,6.37-2.46-.22-3.4-2.93-2.79-5.03.47-1.63,1.62-2.79,3.15-3.41,1.88.22,3.79.23,5.72.2ZM74.13,51.93c-.34,1.37-.92,2.67-1.61,3.89-.48.85-1.02,1.74-1.68,2.56-1.3-.06-2.7,0-3.55,0-1.6,0-3.21,0-4.81,0-3.32,0-6.64.01-9.96,0-5.55-.01-11.14-.21-16.69.08,2.46-2.27,3.84-6.22,3.05-9.14-.48-1.78-1.41-3.64-2.82-4.87,9.99.3,20,.1,29.99.1,1.99,0,4.23.14,6.78-.03,1.45,2.19,1.96,4.79,1.31,7.39Z"/>
          <path class="cls-5" d="M64.44,27.14l-.02.04-.18.43-.06.48.06.48c.06.23.16.44.32.61.08.13.19.24.32.32.11.11.24.19.39.23.14.08.29.12.45.12.24.05.48.04.71-.03l.04-.02c.31-.09.57-.24.8-.46.22-.23.38-.49.46-.8.09-.32.09-.64,0-.96-.06-.23-.16-.44-.32-.61-.13-.2-.3-.35-.51-.46-.28-.16-.59-.25-.91-.25-.33,0-.63.08-.91.25-.27.16-.49.38-.65.65h0Z"/>
          <path class="cls-5" d="M92.5,46.34c-.93-1.86-2.66-3.02-4.47-3.26-1.89-.25-3.84.75-5.17,2.29-2.28,2.64-2.08,7.28.41,9.65,1.88,1.78,4.83,2.12,6.94.76,2.88-1.86,3.95-6.1,2.29-9.44ZM85.4,54.62c-1.92-1.06-3.03-3.62-2.44-6.11.76-3.21,4.24-5.05,6.64-3.26,1.31.97,2.26,2.7,2.29,4.58.07,3.97-3.65,6.36-6.5,4.79Z"/>
        </g>
        <path class="cls-2" d="M42.47,52.45c1.81.16,3.55.58,5.39.64s3.82.08,5.73.1c1.8.02,3.59.04,5.39.04,1.65,0,3.62.33,5.04-.64.84-.57.84-1.68,0-2.25-1.34-.92-3.14-.64-4.7-.64-1.91,0-3.82.02-5.73.04-1.8.02-3.59.04-5.39.09-1.96.06-3.8.48-5.73.65-1.27.11-1.27,1.86,0,1.97h0Z"/>
        <path class="cls-2" d="M67.71,52.65c.13.03.27.06.4.08.31.05.54.04.84,0,.44-.06.85-.26,1.14-.59.36-.4.36-.94,0-1.35-.3-.34-.71-.54-1.14-.59-.24-.03-.43-.05-.67-.02-.19.03-.39.07-.58.1-.5.1-.93.68-.9,1.19s.36,1.08.9,1.19h0Z"/>
      </g>
      <rect class="cls-3" width="100" height="100"/>
    </g>
  </g>
</svg>