<?xml version="1.0" encoding="UTF-8"?>
<svg id="Capa_2" data-name="Capa 2" xmlns="http://www.w3.org/2000/svg" viewBox="0 0 100 100">
  <defs>
    <style>
      .cls-1 {
        fill: #fff;
      }

      .cls-2 {
        fill: none;
      }

      .cls-3 {
        fill: #4a2d2d;
      }

      .cls-4 {
        fill: #776262;
      }

      .cls-5 {
        fill: #fbc678;
      }
    </style>
  </defs>
  <g id="COLOR">
    <g>
      <g>
        <path class="cls-5" d="M14.49,59.07s.64,12.07,13.85,16.77c13.21,4.7,36.46,6.23,46.75-1.27,10.29-7.5,10.04-17.02,10.04-17.02l-70.64,1.52Z"/>
        <path class="cls-4" d="M15.86,55.3c0-.18.36-2.53,1.51-3.5,1.15-.97,1.51-1.09,1.51-1.09,0,0-1.87-2.59.06-4.95,1.93-2.35,4.95-1.57,4.95-1.57,0,0-1.81-4.59,1.75-6.15,3.56-1.57,5.01,1.09,5.01,1.09,0,0,.6-3.14,3.38-3.74,2.78-.6,3.2.54,3.2.54,0,0-.3-2.29,1.57-3.38,1.87-1.09,2.05-1.15,2.05-1.15,0,0-1.15-5.19,3.26-7.06,4.4-1.87,6.82.84,6.82.84,0,0,3.62-1.75,6.03-.18s2.53,3.14,2.53,3.14c0,0,2.59-1.63,4.16.06s1.21,3.26,1.21,3.26c0,0,1.99,0,3.38,1.39,1.39,1.39,1.09,1.87,1.09,1.87,0,0,2.11-1.93,4.83-.36,2.72,1.57,2.35,3.98,2.35,3.98,0,0,2.41.91,3.26,2.9s.6,2.53.6,2.53c0,0,3.44-1.33,5.55,1.57,2.11,2.9,1.27,4.95.3,6.28-.97,1.33-1.81,1.57-1.81,1.57l.3,1.75-68.85.36Z"/>
        <path class="cls-3" d="M16.91,54.78c1.08-2.57,2.88-4.44,5.84-4.55,1.41-.05,2.89.31,4.11,1.03,1.42.85,1.76,1.93,2.08,3.5.11.54,1.03.7,1.23.16,1.16-3.18-3.64-6.07-6.53-6.22-3.42-.18-7.54,2.05-8.04,5.72-.12.87.97,1.17,1.31.36h0Z"/>
        <path class="cls-3" d="M43.36,43.7c-1.16-1.08-2.72-1.7-4.29-1.86-1.86-.19-3.66.5-5.28,1.35-3.18,1.66-4,5.93-1.82,8.74,2.29,2.96,7.1,3.52,10.09,1.36,3.02-2.18,4.24-6.84,1.3-9.59ZM41.64,51.56c-2.15,2.12-5.58,2.08-7.83.1-2.33-2.06-1.51-5.7,1.12-7.03,1.86-.94,4.22-1.4,6.15-.39,2.95,1.55,2.76,5.14.56,7.32Z"/>
        <path class="cls-3" d="M46.69,31.36c-2.71-2.26-6.72-2.2-9.01.64-.97,1.21-1.36,2.86-1.2,4.39.31,2.95,3.37,5.49,6.29,5.5,1.39,0,2.74-.55,3.72-1.54,2.6-2.63,3.24-6.46.19-8.99ZM45.7,39.31c-1.79,1.17-4.39,1.22-6.02-.32-1.43-1.35-1.79-3.64-.83-5.38,1.18-2.14,4.1-2.82,6.23-1.8.15.07.29.15.43.24,2.68,1.65,2.88,5.5.18,7.26Z"/>
        <path class="cls-3" d="M58.54,41.12c-1.5-2.77-4.76-4.29-7.78-2.95-3.74,1.66-3.85,7.62-.71,9.94,2.49,1.84,6.29.68,8.09-1.6,1.25-1.59,1.36-3.63.4-5.39ZM57.5,44.79c-.44.93-1.18,1.76-2.05,2.31-1.65,1.05-3.86.87-5.24-.54-1.7-1.74-1.05-5.51.98-6.69,1.86-1.08,4.29-.43,5.54,1.22.79,1.04,1.36,2.46.77,3.7Z"/>
        <path class="cls-3" d="M45.97,54.92c1.08-2.26,3.38-3.36,5.85-3.21,1.09.07,2.18.32,3.14.88.93.54,1.37,1.3,2.05,2.08.42.47,1.39.12,1.31-.54-.34-2.93-3.96-4.11-6.51-4.09-3.05.03-5.79,1.54-6.95,4.42-.26.63.81,1.08,1.1.46h0Z"/>
        <path class="cls-3" d="M54.68,23.63c-1.91,0-3.96.64-5.34,2-1.63,1.62-1.56,4.18-.81,6.19.74,1.99,2.65,3.45,4.72,3.78,3.24.52,6.49-1.94,6.87-5.21.41-3.5-1.8-6.75-5.45-6.76ZM58.52,30.28c-.43,2.3-2.6,3.98-4.94,3.71-2.04-.23-3.8-2.09-4.03-4.1-.22-1.87,1.06-3.47,2.77-4.08,3.08-1.09,6.88.87,6.21,4.47Z"/>
        <path class="cls-3" d="M69.74,45.3c-.54-.5-1.16-.93-1.76-1.31-2.02-1.28-4.84-1.46-6.58.4-1.59,1.7-2,4.41-.99,6.51.13.27.29.54.47.78,1.84,2.53,5.94,3.11,8.44,1.31.89-.64,1.58-1.62,1.92-2.66.31-.94.33-1.99,0-2.92-.3-.82-.85-1.52-1.49-2.12ZM68.11,51.91c-1.86,1.16-5.27.93-6.2-1.33-.91-2.2.04-5.09,2.47-5.72,3.81-.98,7.54,4.67,3.73,7.04Z"/>
        <path class="cls-3" d="M74.81,53.91c.59-2.25,3.77-3.1,5.75-2.51.83.25,1.52.71,2.06,1.38.48.59.61,1.3,1.06,1.89.33.44.92.37,1.13-.15.93-2.38-2.23-4.76-4.27-5.06-2.82-.42-6.34,1-6.9,4.7-.1.68,1,.44,1.18-.25h0Z"/>
        <path class="cls-3" d="M80.58,41.36c-1.08-2.65-4.25-4.17-6.94-3.07-3.05,1.25-4.16,5.86-1.84,8.27,3.38,3.5,10.76-.34,8.77-5.2ZM76.2,46.32c-1.62.39-3.37-.46-3.79-2.13-.37-1.48.3-3.34,1.71-4.04,1.6-.79,3.65-.23,4.63,1.25,1.39,2.09-.44,4.41-2.56,4.92Z"/>
        <path class="cls-3" d="M67.35,31.49c-2.64-1.29-5.78-.47-7.06,2.3-.97,2.09.04,5.48,2.36,6.2,1.91.8,4.8.35,6.03-1.1,2.14-2.54,1.7-5.92-1.33-7.4ZM68.12,37.55c-.48.9-1.44,1.53-2.44,1.66-2.23.3-4.67-2.12-3.88-4.4.65-1.87,2.9-2.77,4.7-2.16,2.22.75,2.67,2.95,1.62,4.89Z"/>
        <path class="cls-3" d="M29.69,37.9c-2.39-1.55-6.01-.32-6.61,2.64-.35,1.73.02,3.89,1.3,5.2,1.51,1.55,4.42,1.08,5.98-.27.22-.19.42-.4.6-.63,1.7-2.14,1-5.47-1.26-6.93ZM25.2,44.18c-1.09-.96-1.5-2.52-.67-3.88,1.01-1.64,3.26-2.04,4.73-.78,1.43,1.23,1.14,3.45-.16,4.67-.83.78-2.07,1.02-3.1.51-.29-.14-.56-.32-.79-.53Z"/>
        <path class="cls-1" d="M41.99,32.9c-.56.26-1.06.67-1.45,1.15-.47.59-.91,1.47-.6,2.23.3.73,1.13,1.04,1.76.46.36-.33.52-.8.75-1.21.18-.31.38-.53.65-.71.5-.33.71-.99.4-1.52s-.98-.65-1.52-.4h0Z"/>
        <path class="cls-1" d="M25.56,40.49c-.15.25-.27.54-.32.83-.05.32-.05.61.1.9.13.23.36.44.62.51.45.12.87-.15,1.08-.54.08-.15.14-.34.17-.51.02-.11-.1.17,0,.02.04-.06.07-.12.11-.18.3-.44.1-1.15-.37-1.4-.49-.26-1.11-.12-1.4.37h0Z"/>
        <path class="cls-1" d="M37.02,45.26c-.92.19-1.73.78-2.18,1.6-.45.8-.7,1.97-.09,2.77.28.37.77.61,1.22.36.49-.27.47-.83.57-1.31.12-.58.42-1.29,1.01-1.53,1.14-.47.74-2.16-.52-1.89h0Z"/>
        <path class="cls-1" d="M51.98,41.02c-.76.89-1.77,2.76-.55,3.67.21.16.61.15.83,0,.75-.54.54-1.59,1.11-2.28.33-.41.4-.98,0-1.39-.35-.35-1.04-.41-1.39,0h0Z"/>
        <path class="cls-1" d="M20.46,53.72c.22-.15.47-.29.67-.47.17-.15.33-.34.39-.56.08-.28.04-.58-.14-.81s-.45-.35-.74-.34c-.23,0-.44.1-.64.21-.24.13-.46.35-.67.52-.17.13-.28.45-.27.65s.07.39.2.56c.27.34.81.5,1.19.24h0Z"/>
        <path class="cls-1" d="M53.27,26.95c-.97-.17-1.9.2-2.41,1.06s-.67,2.13.04,2.96c.29.33.87.3,1.16,0,.47-.49.47-.99.64-1.61.08-.3.26-.72.57-.81.74-.21.85-1.46,0-1.61h0Z"/>
        <path class="cls-1" d="M64.3,33.51c-.46.35-.84.75-1.06,1.29-.27.63-.33,1.52.36,1.9l-.33-.33c.35.67,1.25.67,1.6,0l-.33.33c.28-.12.44-.4.54-.68.02-.06.04-.13.06-.19.02-.06.02-.06,0-.01-.05.12-.02.04.09-.22.03-.07.06-.12,0-.02.03-.06.07-.12.1-.18.09-.15-.02,0,.05-.06.06-.06.12-.12.19-.17.4-.33.38-1,.08-1.38s-.93-.59-1.35-.27h0Z"/>
        <path class="cls-1" d="M64.34,46.22c-1.02.63-2.29,2.41-1.22,3.53.33.35.93.34,1.27,0s.35-.79.53-1.22c.08-.18.26-.42.45-.54.46-.31.66-.9.37-1.4-.27-.47-.93-.66-1.4-.37h0Z"/>
        <path class="cls-1" d="M74.59,41.2c-.28.2-.49.4-.69.67-.24.33-.31.71-.22,1.1l-.03-.25c-.01.19.03.41.14.57.19.29.6.54.97.39.15-.06.3-.11.42-.24l.14-.18-.24.23c.04.05.41-.4.39-.37l-.1.12s.08-.09.11-.14c.03-.04.06-.08.09-.12.05-.06.02-.03-.08.11.03-.03.06-.06.08-.09.02-.02.06-.08.09-.08l-.13.1s.05-.04.08-.06c.45-.29.68-.92.37-1.4-.28-.43-.93-.7-1.4-.37h0Z"/>
        <path class="cls-1" d="M78.32,53.78c1.24,0,1.24-1.93,0-1.93s-1.24,1.93,0,1.93h0Z"/>
        <path class="cls-1" d="M83.33,48.26c1.05,0,1.06-1.64,0-1.64s-1.06,1.64,0,1.64h0Z"/>
        <path class="cls-1" d="M67.49,42.14l.18.06c.1.03.2.04.3.01.1,0,.2-.03.28-.09l.15-.12c.07-.07.13-.15.16-.25.03-.06.05-.12.05-.19.02-.1.02-.2-.01-.3l-.08-.18c-.07-.11-.16-.21-.27-.27l-.16-.11c-.17-.12-.41-.12-.61-.08-.13.04-.25.11-.35.2-.08.07-.13.16-.16.25-.05.09-.07.2-.07.3,0,.11.02.21.07.3.03.1.09.18.16.25.1.1.22.17.35.2h0Z"/>
        <path class="cls-1" d="M71.88,38.2c1.15,0,1.15-1.79,0-1.79s-1.15,1.79,0,1.79h0Z"/>
        <path class="cls-1" d="M58.05,37.58c1.13,0,1.13-1.75,0-1.75s-1.13,1.75,0,1.75h0Z"/>
        <path class="cls-1" d="M44.81,27.88c1.22,0,1.23-1.9,0-1.9s-1.23,1.9,0,1.9h0Z"/>
        <path class="cls-1" d="M35.27,40.76c.92,0,.92-1.43,0-1.43s-.92,1.43,0,1.43h0Z"/>
        <path class="cls-1" d="M23.34,48.12c1.18,0,1.18-1.83,0-1.83s-1.18,1.83,0,1.83h0Z"/>
        <path class="cls-1" d="M46.84,49.22c1.37,0,1.37-2.13,0-2.13s-1.37,2.13,0,2.13h0Z"/>
        <path class="cls-1" d="M72.94,50.15s.02.05.03.08l.07.18c.05.09.11.15.19.21.05.05.1.08.16.09.09.05.18.07.28.06l.2-.03.18-.07c.09-.05.15-.11.21-.19.06-.07.11-.15.13-.25.01-.02.02-.05.03-.08.04-.14.04-.27,0-.41-.04-.13-.1-.24-.2-.34l-.15-.12c-.12-.07-.25-.1-.39-.1-.11,0-.2.02-.29.07-.09.03-.18.08-.25.16-.09.1-.16.21-.2.34-.04.14-.04.27,0,.41h0Z"/>
        <polygon class="cls-5" points="7.8 54.46 8.18 59.65 91.1 58.9 91.22 54.4 7.8 54.46"/>
        <path class="cls-3" d="M8.18,59.65c6.79.61,13.76.28,20.58.32,6.98.04,13.95,0,20.93-.05,6.86-.05,13.72-.07,20.58-.08,3.43,0,6.86-.02,10.29,0s7.12.18,10.64-.21c.87-.1.85-.82-.02-.92-3.53-.39-76.18-.62-83.09,0-.91.08-.81.87.1.95h0Z"/>
      </g>
      <rect class="cls-2" width="100" height="100"/>
    </g>
  </g>
</svg>