<?xml version="1.0" encoding="UTF-8"?>
<svg id="Capa_2" data-name="Capa 2" xmlns="http://www.w3.org/2000/svg" viewBox="0 0 100 100">
  <defs>
    <style>
      .cls-1 {
        fill: #fff;
      }

      .cls-2 {
        fill: none;
      }

      .cls-3 {
        fill: #fad380;
      }

      .cls-4 {
        fill: #4a2d2d;
      }

      .cls-5 {
        fill: #b17c61;
      }

      .cls-6 {
        fill: #bf937d;
      }
    </style>
  </defs>
  <g id="COLOR">
    <g>
      <g>
        <g>
          <path class="cls-5" d="M45.21,76.06c-.24.36-.5.73-.8,1.11-.14.18-.27.35-.42.52-3.35,4.05-8.57,7.38-20.63,5-12.57-2.48-16.95-8-17.05-15.33-.02-1.38.23-2.62.69-3.75.02-.06.05-.11.07-.16,1.12-2.59,3.39-4.56,6.15-6.21.15-.09.31-.18.47-.27,2.19-1.25,4.66-2.31,7.1-3.32,1.94-.8,3.87-1.45,5.72-1.91h0c.15-.04.28-.07.42-.1,4.78-1.14,8.96-1.02,11.18.87,2.64,2.24,1.85,4.35,1.65,6.09-.03.27-.05.54-.04.79,0,.06,0,.11,0,.16.14,1.35,2.51,2.84,4.35,4.71.1.1.2.2.3.3.64.69,1.2,1.43,1.54,2.23,1.21,2.86,1.72,5.57-.73,9.27Z"/>
          <path class="cls-4" d="M39.78,58.6c-.03.27-.05.54-.04.79-4.51.24-8.77-3.58-8.97-8.12-.01-.34.52-.41.6-.08,1,4.55,3.95,7.03,8.42,7.41Z"/>
          <path class="cls-4" d="M27.59,51.92c-.89,3.53.22,6.56,3.17,8.66,2.96,2.11,7.11,3.13,10.66,2.15.42-.12.35-.82-.11-.78-3.17.27-6.05.16-8.93-1.39-3.52-1.9-4.54-4.7-4.12-8.55.04-.39-.59-.47-.68-.09h0Z"/>
          <path class="cls-4" d="M26.49,51.77c-2.24,3.9-2.68,9.87,1.42,12.76,4.45,3.13,11.41,2.63,16.19.63.53-.22.33-1.08-.24-.88-4.26,1.43-8.81,2.07-13.18.63-2.58-.85-4.43-2.48-4.94-5.23s.12-5.23,1.38-7.54c.22-.41-.4-.78-.63-.37h0Z"/>
          <path class="cls-4" d="M17.17,55.51c.12,3.48.83,6.97,2.86,9.87,1.89,2.71,4.75,4.33,7.8,5.45,6.14,2.24,13.12,1.07,17.83-3.64.42-.42-.22-1.05-.65-.65-4.43,4.09-10.51,5.44-16.23,3.6-3.02-.98-6.09-2.57-8-5.2s-2.67-6.1-2.8-9.43c-.02-.52-.84-.53-.82,0h0Z"/>
          <path class="cls-4" d="M13.23,57.25c-2.34,7.87,4.01,14.43,10.78,17.22,7.34,3.02,16.38,2.03,22.59-3.05.43-.35-.13-1.09-.6-.78-6.21,4.15-13.35,5.69-20.57,3.25-6.89-2.33-13.59-8.47-11.4-16.42.14-.52-.65-.74-.8-.22h0Z"/>
          <path class="cls-4" d="M45.21,76.06c-.24.36-.5.73-.8,1.11-.14.18-.27.35-.42.52-6.56,3.03-14.67,3.47-21.54,1.77-3.72-.92-7.42-2.57-10.31-5.13-3.11-2.76-4.49-6.57-5.13-10.58,0-.05,0-.1,0-.14.02-.06.05-.11.07-.16.18-.26.63-.3.7.09.72,4.11,2.16,7.93,5.5,10.62,2.89,2.33,6.48,3.75,10.09,4.5,7.45,1.56,14.93.37,21.84-2.61Z"/>
          <path class="cls-1" d="M11.47,65.83c.05-.23.1-.47.08-.7-.01-.15-.02-.31-.06-.45-.06-.18-.15-.37-.3-.5-.14-.12-.31-.24-.49-.29-.35-.08-.7-.01-.98.21-.15.12-.26.25-.37.42-.13.21-.21.43-.28.66-.09.31-.04.68.13.96.15.26.45.5.74.57.32.07.68.06.96-.13.26-.17.5-.43.57-.74h0Z"/>
          <path class="cls-1" d="M13.13,62.76c1.43,0,1.43-2.22,0-2.22s-1.43,2.22,0,2.22h0Z"/>
        </g>
        <g>
          <g>
            <path class="cls-5" d="M29.48,36.31c-.11-.42-.2-.86-.28-1.34-.04-.22-.07-.44-.11-.66-.73-5.21.35-11.3,10.24-18.6,10.31-7.6,17.34-7.1,22.82-2.22,1.03.92,1.78,1.94,2.29,3.04.03.05.05.11.07.16,1.15,2.58,1.08,5.58.43,8.73-.04.17-.08.36-.11.53-.56,2.46-1.44,5-2.34,7.48-.72,1.97-1.54,3.83-2.45,5.51h0c-.07.14-.14.26-.21.39-2.39,4.3-5.3,7.3-8.2,7.66-3.44.43-4.46-1.57-5.6-2.9-.18-.21-.36-.4-.56-.56-.04-.04-.09-.07-.13-.1-1.09-.81-3.79-.07-6.41.04-.14,0-.28.01-.43.02-.94,0-1.86-.08-2.68-.37-2.93-1.04-5.27-2.49-6.35-6.8Z"/>
            <path class="cls-4" d="M46.04,44.09c-.18-.21-.36-.4-.56-.56,2.86-3.49,8.56-4.06,12.05-1.14.26.22-.05.66-.34.49-4.03-2.33-7.85-1.83-11.15,1.21Z"/>
            <path class="cls-4" d="M59.19,39.61c-2-3.04-4.99-4.27-8.53-3.51s-7.11,3.13-8.78,6.42c-.2.39.37.81.65.45,1.94-2.52,3.97-4.57,7.05-5.65,3.78-1.31,6.53-.18,9.09,2.73.26.3.74-.12.53-.44h0Z"/>
            <path class="cls-4" d="M60.04,38.89c-1.37-4.29-5.47-8.64-10.37-7.56-5.32,1.17-9.64,6.64-11.4,11.52-.19.54.57.97.82.42,1.82-4.11,4.42-7.9,8.43-10.15,2.37-1.33,4.82-1.6,7.19-.11,2.27,1.42,3.78,3.62,4.63,6.11.15.44.84.23.7-.22h0Z"/>
            <path class="cls-4" d="M63.58,29.5c-2.65-2.26-5.7-4.09-9.21-4.55-3.27-.43-6.4.58-9.29,2.08-5.8,3.02-9.65,8.96-9.36,15.61.03.6.92.55.92-.04-.03-6.03,3.08-11.43,8.3-14.4,2.76-1.57,6.01-2.76,9.23-2.39s6.31,2.15,8.85,4.3c.4.34.95-.26.55-.6h0Z"/>
            <path class="cls-4" d="M64.95,25.41c-4.23-7.04-13.35-6.78-19.98-3.67-7.18,3.37-12.56,10.71-13,18.72-.03.56.89.64.98.08,1.13-7.38,4.82-13.69,11.49-17.37,6.37-3.51,15.43-4.31,19.81,2.67.29.46.98.02.71-.44h0Z"/>
            <path class="cls-4" d="M29.48,36.31c-.11-.42-.2-.86-.28-1.34-.04-.22-.07-.44-.11-.66,2.19-6.89,7.34-13.17,13.23-17.09,3.19-2.13,6.91-3.74,10.75-4.14,4.13-.43,7.88,1.12,11.27,3.36.04.03.08.06.1.1.03.05.05.11.07.16.07.31-.21.67-.54.46-3.52-2.24-7.31-3.76-11.55-3.12-3.67.56-7.14,2.25-10.13,4.4-6.18,4.44-10.35,10.76-12.82,17.87Z"/>
            <path class="cls-1" d="M35.43,31.6c-.06-.23-.11-.46-.24-.67-.08-.13-.15-.27-.25-.38-.13-.14-.3-.27-.49-.32-.18-.05-.38-.09-.56-.05-.35.08-.63.29-.79.61-.09.17-.13.34-.15.54-.03.24,0,.48.03.72.05.32.26.63.53.81.25.17.62.26.92.19.32-.07.63-.24.81-.53.16-.27.27-.6.19-.92h0Z"/>
            <path class="cls-1" d="M35.59,28.11c1.29-.62.32-2.62-.97-2s-.32,2.62.97,2h0Z"/>
          </g>
          <path class="cls-1" d="M59.37,33.13c1.78,0,1.78-2.77,0-2.77s-1.78,2.77,0,2.77h0Z"/>
        </g>
        <g>
          <path class="cls-5" d="M75.77,59.01s7.5-4.07,9.64-9.5c2.14-5.43.5-6.93-6.36-7.36-6.86-.43-16.36,3.43-22.5,8.5-6.14,5.07-10.07,11-5.64,13.36,4.43,2.36,17.43-2.07,17.43-2.07,0,0-7.43,7.86-9.14,12.71s-.36,7.79,6.71,9.21c7.07,1.43,13.93.43,20.14-4.57,6.21-5,9.79-12.21,7.36-17-2.43-4.79-9.07-4.29-11.5-4.36-2.43-.07-6.14,1.07-6.14,1.07Z"/>
          <path class="cls-3" d="M66.91,66.72c-3.61,4.51-7.29,11.14-3.86,14.07s17.5,2.36,23.86-4.07c6.36-6.43,6.16-13.48,3.64-15.14-6.71-4.43-19.07-.57-23.64,5.14Z"/>
          <path class="cls-3" d="M73.84,58.79c2.89-1.36,7.64-4.93,9.64-8.43,1.5-2.63,1.14-5.07-2-5.71-3.14-.64-12.57.86-18.71,4.5-6.14,3.64-10,7.93-10.5,11.14s3.71,3.43,7.14,2.93,9.86-2.29,14.43-4.43Z"/>
          <path class="cls-4" d="M55.15,63.05c-1.15-.29-2.41-.85-2.41-2.2,0-1.26.49-2.55,1.18-3.58,2.13-3.17,5.59-5.37,8.78-7.33s6.29-3.5,9.78-4.44c1.59-.43,3.22-.74,4.87-.86,1.34-.1,2.89-.19,4.15.38.85.39,1.63,1.05,1.93,1.96.55,1.67-.47,3.33-1.34,4.67-.34.52-2.48,3.28-2.02,2.9,3.86-3.19,4.62-5.48,4.37-7.17-.16-1.09-.81-2.01-1.69-2.65-1.01-.73-2.21-.95-3.43-1-1.74-.07-3.49.16-5.2.51-3.92.8-7.56,2.42-10.99,4.47-3.53,2.11-7.23,4.5-9.67,7.9-.88,1.23-1.56,2.87-1.47,4.42.1,1.65,1.54,2.32,3,2.57.35.06.5-.45.15-.54h0Z"/>
          <path class="cls-4" d="M66.11,67.94c1.66-1.83,3.6-3.41,5.74-4.65,1.05-.61,2.15-1.14,3.28-1.57s2.4-.7,3.62-1.04c.49-.14.41-.97-.12-.91-1.28.14-2.56.56-3.75,1.01s-2.34.99-3.44,1.62c-2.24,1.29-4.23,2.99-5.86,5-.3.37.2.91.54.54h0Z"/>
          <path class="cls-6" d="M81.75,67.26c-1.58-.53-3.37-.36-4.96-.88-2.06-.68-3.94-.89-5.91.22-1.12.63-2.1,1.46-3.15,2.19-2.15,1.48-3.71,3.16-3.97,5.88-.11,1.08,0,2.2.51,3.16,1.14,2.17,3.6,2.02,5.7,1.86,1.77-.14,3.49.39,5.25.49,1.59.09,3.19-.27,4.6-.99,2.69-1.37,4.9-4.06,5.05-7.16.1-2.06-1.08-4.08-3.11-4.76Z"/>
          <path class="cls-4" d="M68.91,77.62c2.54.03,5-.33,7.3-1.48,1.09-.55,2.12-1.28,2.95-2.18.76-.83,1.75-2.23,1.39-3.43-.13-.43-.78-.46-.9,0-.15.59-.15,1.14-.44,1.69s-.66,1.01-1.09,1.43c-.78.76-1.7,1.37-2.68,1.84-1.99.95-4.34,1.37-6.54,1.5-.4.02-.41.62,0,.63h0Z"/>
          <path class="cls-4" d="M69.68,74.38c-.1-.05-.21-.18-.3-.25-.12-.09-.24-.17-.33-.28-.15-.17-.26-.38-.29-.6-.09-.64.51-1.1.96-1.44.61-.45,1.25-.85,1.93-1.18.33-.16.67-.31,1.01-.44.36-.14.83-.21,1.12-.48.22-.2.13-.65-.19-.7-.45-.08-.94.17-1.35.33s-.85.36-1.27.58c-.8.42-1.6.92-2.27,1.53-.6.55-1,1.32-.76,2.14.1.35.3.68.57.92.14.13.3.25.49.31.09.03.2.06.29.05.1,0,.17-.05.26-.06.2-.03.35-.32.12-.44h0Z"/>
          <path class="cls-4" d="M74.16,72.35c.28.06.58.06.85-.04.18-.06.33-.14.47-.25.07-.06.14-.12.18-.2s.06-.16.08-.25c.02-.07.02-.14,0-.22-.02-.07-.05-.13-.1-.18-.09-.09-.26-.15-.39-.1-.04.01-.07.02-.11.03-.09.03-.17.08-.24.14-.02.02-.04.03-.06.05l.1-.08c-.06.04-.12.09-.18.13l.1-.08c-.08.06-.17.11-.26.15l.11-.05c-.09.04-.19.07-.29.08l.12-.02c-.09.01-.17.01-.26,0-.1,0-.24.05-.31.13s-.11.15-.12.25c-.03.2.1.43.31.48h0Z"/>
        </g>
      </g>
      <rect class="cls-2" width="100" height="100"/>
    </g>
  </g>
</svg>