<?xml version="1.0" encoding="UTF-8"?>
<svg id="Capa_2" data-name="Capa 2" xmlns="http://www.w3.org/2000/svg" viewBox="0 0 100 100">
  <defs>
    <style>
      .cls-1 {
        fill: #f57586;
      }

      .cls-2 {
        fill: #fff;
      }

      .cls-3 {
        fill: none;
      }

      .cls-4 {
        fill: #4a2d2d;
      }
    </style>
  </defs>
  <g id="COLOR">
    <g>
      <g>
        <path class="cls-4" d="M39.4,34.19c-3.99.52-4.9,5.21-1.44,6.11,3.16.83,5.13-1.23,5.65-2.27.77-1.55-.21-4.36-4.21-3.84Z"/>
        <polygon class="cls-4" points="41.33 39.48 42.1 45.31 40.53 45.77 39.74 39.48 41.33 39.48"/>
        <path class="cls-4" d="M58.32,34.19c3.99.52,4.9,5.21,1.44,6.11-3.16.83-5.13-1.23-5.65-2.27-.77-1.55.21-4.36,4.21-3.84Z"/>
        <polygon class="cls-4" points="56.39 39.48 55.62 45.31 57.19 45.77 57.99 39.48 56.39 39.48"/>
        <path class="cls-1" d="M19.1,39.72s3.28-3.36,6.55-8.03c3.28-4.67,5.24-11.79,5.98-11.96s4,4.24.57,13.02c-3.03,7.78-10.89,11.55-13.51,10.97-2.62-.57.41-4.01.41-4.01Z"/>
        <path class="cls-1" d="M22.46,28.09c2.46-9.25,6.06-14.58,5.65-15.72s-14.66-1.97-19.25,9.83c-4.51,11.6,5.49,21.13,9.83,21.54,3.07.29,1.31-6.39,3.77-15.64Z"/>
        <path class="cls-1" d="M27.64,53.66s-4.05-10.07-7.68-10.5-2.03,4.42,1.66,8.11c3.69,3.69,5.34,3.62,5.34,3.62l.68-1.23Z"/>
        <path class="cls-4" d="M24.13,61.46s-5.47,2.09-9.52-.68c-4.05-2.76-3.5-10.26-4.73-11.06-1.6-1.04-1.9,4.98.31,9.34,2.21,4.36,5.94,5.9,9.46,5.83,3.13-.06,5.53-1.41,5.53-1.41l-1.04-2.03Z"/>
        <path class="cls-4" d="M26.03,66.8s-2.23,5.21-8.31,4.93c-5.28-.24-8.43-5.94-9.38-5.04-1.14,1.07,3.14,8.33,10.93,7.54,7.44-.75,8.41-7.15,8.41-7.15l-1.64-.28Z"/>
        <path class="cls-4" d="M32,74.3s-6.33-.31-10.99,4.42c-4.67,4.73-4.87,10.58-3.44,10.87,1.78.37,1.6-6.51,6.33-10.38,4.37-3.57,11.18-3.19,11.18-3.19l-3.07-1.72Z"/>
        <path class="cls-4" d="M27.77,12.36c-1.06,1.07-2.2,3.87-2.9,5.83-.83,2.35-1.83,5.05-2.46,7.46-1.51,5.74-2.46,11.98-2.99,17.42-.08.82,1.17,1.09,1.34.27,1.18-5.71,1.91-11.58,3.37-17.25.6-2.34,1.26-4.67,2.04-6.96.73-2.12,1.6-3.87,2.4-6.32.15-.45-.45-.78-.78-.46h0Z"/>
        <path class="cls-1" d="M78.64,39.72s-3.28-3.36-6.55-8.03c-3.28-4.67-5.24-11.79-5.98-11.96s-4,4.24-.57,13.02c3.03,7.78,10.89,11.55,13.51,10.97,2.62-.57-.41-4.01-.41-4.01Z"/>
        <path class="cls-1" d="M75.28,28.09c-2.46-9.25-6.06-14.58-5.65-15.72s14.66-1.97,19.25,9.83c4.51,11.6-5.49,21.13-9.83,21.54-3.07.29-1.31-6.39-3.77-15.64Z"/>
        <path class="cls-1" d="M70.1,53.66s4.05-10.07,7.68-10.5,2.03,4.42-1.66,8.11-5.34,3.62-5.34,3.62l-.68-1.23Z"/>
        <path class="cls-4" d="M73.6,61.46s5.47,2.09,9.52-.68,3.5-10.26,4.73-11.06c1.6-1.04,1.9,4.98-.31,9.34-2.21,4.36-5.94,5.9-9.46,5.83-3.13-.06-5.53-1.41-5.53-1.41l1.04-2.03Z"/>
        <path class="cls-4" d="M71.71,66.8s2.23,5.21,8.31,4.93c5.28-.24,8.43-5.94,9.38-5.04,1.14,1.07-3.14,8.33-10.93,7.54-7.44-.75-8.41-7.15-8.41-7.15l1.64-.28Z"/>
        <path class="cls-4" d="M65.74,74.3s6.33-.31,10.99,4.42c4.67,4.73,4.87,10.58,3.44,10.87-1.78.37-1.6-6.51-6.33-10.38-4.37-3.57-11.18-3.19-11.18-3.19l3.07-1.72Z"/>
        <path class="cls-4" d="M69.96,12.36c1.06,1.07,2.2,3.87,2.9,5.83.83,2.35,1.83,5.05,2.46,7.46,1.51,5.74,2.46,11.98,2.99,17.42.08.82-1.17,1.09-1.34.27-1.18-5.71-1.91-11.58-3.37-17.25-.6-2.34-1.26-4.67-2.04-6.96-.73-2.12-1.6-3.87-2.4-6.32-.15-.45.45-.78.78-.46h0Z"/>
        <path class="cls-1" d="M70.21,50.86c-7.18-7.03-18.93-7.32-21.34-7.3-2.41-.02-14.16.27-21.34,7.3-8.54,8.36-2.94,21.62,6.49,26.36,6.29,3.16,13.62,3.23,20.45,2.43,6.13-.72,12.13-2.93,16.09-7.87,3.39-4.23,4.79-10.01,3.11-15.24-.69-2.14-1.87-4.1-3.48-5.68Z"/>
        <path class="cls-4" d="M32.19,59.23c-.6,1.8-.95,3.78-.34,5.62.21.64,1.03.46,1.11-.15.22-1.71.3-3.37.88-5.02.36-1.03-1.3-1.49-1.64-.45Z"/>
        <path class="cls-4" d="M40.24,57.31c-.52,2.8-.79,5.76,0,8.53.18.62,1.12.5,1.12-.15.01-2.69-.19-5.33.19-8.02.12-.84-1.14-1.23-1.31-.36Z"/>
        <path class="cls-4" d="M58.94,65.34c.84-2.3.43-4.84-.4-7.09-.34-.91-1.81-.53-1.47.41.77,2.16.77,4.28.78,6.53,0,.65.88.72,1.09.15Z"/>
        <path class="cls-4" d="M65.41,59.33c.57,1.1.38,2.09.48,3.27.05.62.85.89,1.2.32.81-1.3.32-3.12-.37-4.36-.48-.85-1.75-.1-1.31.76Z"/>
        <path class="cls-4" d="M36.46,52.29c-1.42,0-1.42,2.21,0,2.21s1.42-2.21,0-2.21Z"/>
        <path class="cls-4" d="M44.62,47.82c-.1-.08-.2-.16-.3-.23-.23-.13-.48-.2-.75-.2-.2,0-.4.03-.57.13-.18.06-.34.16-.48.31-.15.13-.25.29-.31.48-.09.18-.14.37-.13.57.02.13.04.26.05.4.07.25.2.47.38.66.1.08.2.16.3.23.23.13.48.2.75.2.2,0,.4-.03.57-.13.18-.06.34-.16.48-.31.15-.13.25-.29.31-.48.09-.18.14-.37.13-.57l-.05-.4c-.07-.25-.2-.47-.38-.66Z"/>
        <path class="cls-4" d="M49.4,54.15c.97,0,.97-1.5,0-1.5s-.97,1.5,0,1.5Z"/>
        <path class="cls-4" d="M51.35,67.76c-.11-.09-.22-.17-.33-.26-.19-.12-.39-.18-.61-.19-.22-.05-.43-.04-.65.03-.4.13-.78.37-.98.75-.05.13-.11.26-.16.39-.04.15-.06.3-.06.46-.03.29,0,.58.16.83.07.09.14.18.21.27.12.12.25.2.4.26.05.03.1.06.15.08.09.05.19.09.29.12.39.11.91.06,1.26-.16.11-.09.22-.17.33-.26.16-.15.27-.32.34-.53.1-.19.15-.4.14-.63,0-.23-.04-.44-.14-.63-.07-.2-.18-.38-.34-.53Z"/>
        <path class="cls-4" d="M44.74,72.8c-.07-.05-.14-.11-.21-.16-.16-.1-.34-.14-.53-.14-.14,0-.28.02-.41.09-.13.04-.24.11-.34.22-.1.1-.18.21-.22.34-.07.13-.1.26-.09.41.01.09.03.19.04.28.05.18.14.33.27.46.07.05.14.11.21.16.16.1.34.14.53.14.14,0,.28-.02.41-.09.13-.04.24-.11.34-.22.1-.1.18-.21.22-.34.07-.13.1-.26.09-.41-.01-.09-.03-.19-.04-.28-.05-.18-.14-.33-.27-.46Z"/>
        <path class="cls-4" d="M59.55,69.71c-1.56,0-1.56,2.42,0,2.42s1.56-2.42,0-2.42Z"/>
        <path class="cls-2" d="M20.17,14.7c-2.34.33-3.97,1.3-5.44,3.17-1.33,1.7-3.01,4.32-2.4,6.55.17.62.97,1,1.54.62,1.58-1.04,1.94-2.99,2.87-4.55.86-1.43,2.39-3.08,4.05-3.58,1.46-.44.82-2.43-.61-2.22h0Z"/>
        <path class="cls-2" d="M12.96,30.11c1.22,0,1.23-1.9,0-1.9s-1.23,1.9,0,1.9h0Z"/>
        <path class="cls-2" d="M84.82,33.51c1.29-2.28,1.77-4.51,1.56-7.13-.16-2.01-.38-4.74-2.48-5.6-.39-.16-.9.18-.98.56-.4,1.8.92,3.55,1.13,5.34.24,2.03-.09,4.27-.69,6.22-.27.87,1.02,1.41,1.46.62h0Z"/>
        <path class="cls-2" d="M83.15,18.06c-.35-.5-.88-1.23-1.59-.93-.24.1-.41.31-.49.56-.07.21-.03.42,0,.63.03.2.08.37.14.56.2.6.82.94,1.43.69.54-.23.87-.97.51-1.5h0Z"/>
      </g>
      <rect class="cls-3" width="100" height="100"/>
    </g>
  </g>
</svg>