<?xml version="1.0" encoding="UTF-8"?>
<svg id="Capa_2" data-name="Capa 2" xmlns="http://www.w3.org/2000/svg" viewBox="0 0 100 100">
  <defs>
    <style>
      .cls-1 {
        fill: #fff;
      }

      .cls-2 {
        fill: none;
      }

      .cls-3 {
        fill: #4a2d2d;
      }

      .cls-4 {
        fill: #f795a2;
      }

      .cls-5 {
        fill: #fabfc7;
      }
    </style>
  </defs>
  <g id="COLOR">
    <g>
      <g>
        <g>
          <path class="cls-5" d="M48.56,5.47s-17.37,11.42-17.13,15.84c.24,4.42,9.97,6.76,19.7,7.56,9.73.8,16.57-1.85,17.13-6.11.56-4.26-15.52-17.94-17.21-18.1s-2.49.8-2.49.8Z"/>
          <path class="cls-4" d="M50.49,2.74c-1.93,0-20.59,30.88-20.59,41.82s8.2,17.29,8.2,17.29c0,0-8.36,2.09-10.13,8.36-1.77,6.27.08,10.05-1.85,13.83-1.93,3.78-3.46,4.26-2.9,4.66s5.07-.08,7.8-4.34c2.73-4.26.72-6.15,3.14-10.25,2.41-4.1,6.43-5.27,6.43-5.27,0,0-5.11,5.79-3.42,12.55,1.69,6.76,1.61,8.93.16,11.5s-4.43,4.17-4.06,4.75,8.04-.24,11.1-5.07c3.06-4.83.08-10.13-.08-13.91-.16-3.78,3.62-8,3.94-7.76s4.26,3.74,4.34,7.84c.08,4.1-1.53,9.49,2.73,13.67,4.26,4.18,9.33,3.22,9.57,2.9s-4.5-4.02-5.63-7.64.32-8.28-1.05-12.55c-1.37-4.26-4.58-6.03-4.26-6.43s3.46-.97,6.6,2.65c3.14,3.62,2.52,8.36,7.4,10.29,5.47,2.17,9.65-3.54,9.17-4.02-.48-.48-4.58,1.85-6.51-1.53-1.93-3.38-2.73-8.61-5.71-11.1s-7.8-2.49-7.8-2.49c0,0,7.72-2.41,9.01-15.04S53.71,2.74,50.49,2.74Z"/>
          <path class="cls-3" d="M43.76,58.35c-1.38-.95-3.38-1.03-4.32.62-.96,1.68,0,4.02,1.8,4.64,1.79.61,3.78-.53,3.97-2.45.12-1.15-.53-2.17-1.45-2.8Z"/>
          <path class="cls-3" d="M53.84,57.12c-1.81-.18-3.87,1.74-3.72,3.58.15,1.99,2.22,3.22,4.07,2.58,1.8-.62,2.76-2.89,1.9-4.61-.43-.86-1.28-1.45-2.24-1.55Z"/>
          <path class="cls-3" d="M57.47,43.36l-.07.51c0,.26.05.51.17.74.05.16.13.3.25.42.09.14.2.26.34.34.19.17.4.28.65.34.07,0,.15.02.22.03,0,0,0,0,0,0,.17.05.33.07.5.07.05,0,.1.01.15.01.41.03.82-.19,1.11-.46.29-.27.46-.73.46-1.11,0-.02,0-.05,0-.07,0-.03,0-.07,0-.1,0-.05-.01-.09-.02-.14,0-.11,0-.22-.03-.33-.01-.26-.09-.49-.23-.71-.1-.13-.2-.26-.3-.39l-.39-.3c-.15-.06-.31-.13-.46-.19-.25-.08-.51-.09-.76-.03-.17,0-.33.04-.48.13-.16.05-.3.13-.42.25-.21.14-.37.31-.49.54-.06.15-.13.31-.19.46Z"/>
          <path class="cls-3" d="M55.48,35.72c.12.12.25.21.41.26.15.08.31.12.49.11.18-.02.36-.04.54-.07.16-.04.3-.11.42-.22.14-.09.24-.2.32-.35l.13-.3c.01-.11.03-.22.04-.33,0-.17-.03-.33-.11-.48-.03-.11-.08-.2-.16-.27-.09-.14-.2-.24-.35-.32-.1-.04-.2-.08-.3-.13-.18-.03-.36-.05-.54-.07-.23,0-.44.06-.64.17l-.26.2c-.16.16-.27.35-.33.56-.02.11-.03.23-.05.34,0,.17.03.34.11.49.05.16.14.29.26.41Z"/>
          <path class="cls-3" d="M52.59,43.49c1.83,0,1.83-2.84,0-2.84s-1.83,2.84,0,2.84Z"/>
          <path class="cls-1" d="M41.35,61c1.25,0,1.25-1.94,0-1.94s-1.25,1.94,0,1.94h0Z"/>
          <path class="cls-1" d="M53.71,58.88l-.1-.09c-.1-.11-.22-.18-.36-.23-.13-.07-.27-.1-.43-.1-.15,0-.29.03-.43.1-.14.04-.26.12-.36.23l-.17.22c-.1.17-.15.36-.15.56l.04.29c.05.19.15.35.28.49l.09.1c.1.11.22.19.36.23.13.07.28.1.43.1.15,0,.3-.03.43-.1.14-.05.26-.12.36-.23l.17-.23c.1-.17.15-.36.15-.56l-.04-.3c-.05-.19-.15-.35-.29-.49h0Z"/>
          <path class="cls-3" d="M27.86,86.15c.92,0,.92-1.43,0-1.43s-.92,1.43,0,1.43h0Z"/>
          <path class="cls-3" d="M30.12,82.99c1.31,0,1.31-2.04,0-2.04s-1.31,2.04,0,2.04h0Z"/>
          <path class="cls-3" d="M30.27,79.47c.85,0,.86-1.33,0-1.33s-.86,1.33,0,1.33h0Z"/>
          <path class="cls-3" d="M42.93,76.79c1.09,0,1.09-1.69,0-1.69s-1.09,1.69,0,1.69h0Z"/>
          <path class="cls-3" d="M41,80.52c-.03.19-.07.36,0,.55.01.03.02.06.04.09.07.18.15.35.3.49s.35.24.55.23.39-.08.55-.23.23-.3.3-.49c.01-.03.03-.06.04-.09.06-.19.02-.37,0-.55l-.09-.22c-.06-.11-.13-.19-.23-.25-.15-.12-.35-.2-.55-.19-.16,0-.32.05-.46.12-.18.09-.39.34-.42.54h0Z"/>
          <path class="cls-3" d="M42.95,85.77l.14.22c.1.15.25.25.44.25s.34-.1.44-.25l.14-.22c.13-.2.12-.48,0-.68s-.34-.33-.58-.33-.46.13-.58.33-.13.48,0,.68h0Z"/>
          <path class="cls-3" d="M53.35,84.03s0,.03-.01.04l-.03.2s0,.01,0,.02c0,.02,0,.04,0,.06,0,.09.02.18.06.26.03.08.07.15.14.21l.13.1c.1.06.22.09.33.09.11,0,.21,0,.31-.03.26-.07.46-.28.53-.53s0-.55-.2-.74-.48-.27-.74-.2-.46.28-.53.53h0Z"/>
          <path class="cls-3" d="M54.23,87.77c.09,0,.18-.02.26-.06.08-.03.16-.07.22-.14.07-.06.11-.13.14-.22.04-.08.06-.17.06-.26l-.02-.18c-.03-.11-.09-.21-.17-.3l-.14-.11c-.11-.06-.22-.09-.34-.09-.09,0-.18.02-.26.06-.08.03-.16.07-.22.14-.07.06-.11.13-.14.22-.04.08-.06.17-.06.26l.02.18c.03.11.09.21.17.3l.14.11c.11.06.22.09.34.09h0Z"/>
          <path class="cls-3" d="M54.77,89.39l.04.25.07.16c.04.08.1.14.17.18.11.09.25.15.4.14.12,0,.23-.04.33-.09.08-.04.14-.1.18-.17.06-.06.1-.14.12-.22l.04-.25c.03-.12.03-.25,0-.37-.03-.12-.09-.22-.18-.31-.14-.12-.3-.2-.49-.2-.18,0-.37.08-.49.2-.09.09-.15.19-.18.31-.03.12-.03.25,0,.37h0Z"/>
          <path class="cls-3" d="M62.71,71.73c.02.07.03.14.08.2.05.08.12.15.2.2.09.05.18.08.28.08.1,0,.2-.03.28-.08.08-.05.15-.12.2-.2.04-.06.06-.13.08-.2.05-.2,0-.43-.15-.57-.11-.1-.25-.17-.41-.17-.08,0-.16.01-.23.05-.07.02-.14.06-.19.12-.15.15-.2.37-.15.57h0Z"/>
          <path class="cls-3" d="M63.28,74.12s.03.05.04.08c.09.15.22.28.38.35l.21.09c.12.04.23.04.35.02.08,0,.15-.02.22-.06.11-.04.2-.1.28-.18l.14-.18.09-.21c.04-.12.04-.23.02-.35,0-.12-.04-.23-.1-.33-.08-.16-.2-.29-.35-.38-.02-.01-.05-.03-.08-.04l-.21-.09c-.12-.04-.23-.04-.35-.02-.08,0-.15.02-.22.06-.11.04-.2.1-.28.18l-.14.18-.09.21c-.04.12-.04.23-.02.35,0,.12.04.22.1.32h0Z"/>
          <path class="cls-3" d="M65.23,77.06s.04.02.06.03c.11.06.24.09.36.05.04-.01.08-.03.12-.05.01,0,.02-.01.03-.02.06-.03.09-.05.15-.11.06-.05.1-.12.12-.19.04-.07.05-.15.05-.23,0-.16-.07-.31-.18-.42-.07-.07-.16-.13-.26-.15l-.16-.02c-.16,0-.31.07-.42.18-.07.07-.13.16-.15.26-.03.08-.03.16-.01.24,0,.08.03.15.07.22.05.09.13.16.22.22h0Z"/>
        </g>
        <path class="cls-1" d="M39.24,27.86c-2.81,2.7-4.45,7.44-5.55,11.1-.78,2.6-2.4,8.4.96,9.93.79.36,1.54-.08,1.63-.94.14-1.43-.42-2.84-.29-4.31.17-1.83.68-3.67,1.24-5.42,1.01-3.19,2.96-6.5,3.26-9.85.06-.66-.82-.92-1.25-.52h0Z"/>
        <path class="cls-1" d="M35.35,51.99c.01.12.02.25.06.37.02.05.07.2.12.29.03.04.06.08.09.12.02.05.06.09.09.12l.21.17s.01,0,.02.01c.08.04.27.11.27.11.1.03.21.04.32.05.18,0,.34-.04.49-.13.11-.06.2-.14.27-.25.09-.09.14-.2.17-.33.05-.17.05-.34,0-.52h0c.01.07.02.16.03.25,0-.02,0-.03,0-.05l-.04.27s.02-.08.03-.12l-.11.26s.01-.03.02-.04l-.17.23h0c.14-.15.23-.32.29-.5.05-.2.05-.4,0-.59-.05-.19-.15-.35-.29-.49-.1-.11-.22-.19-.36-.23-.13-.07-.28-.1-.43-.1-.2,0-.39.05-.56.15-.17.1-.3.23-.4.4-.1.17-.15.36-.15.56h0Z"/>
      </g>
      <rect class="cls-2" width="100" height="100"/>
    </g>
  </g>
</svg>