<?xml version="1.0" encoding="UTF-8"?>
<svg id="Capa_2" data-name="Capa 2" xmlns="http://www.w3.org/2000/svg" viewBox="0 0 100 100">
  <defs>
    <style>
      .cls-1 {
        fill: #fff;
      }

      .cls-2 {
        fill: none;
      }

      .cls-3 {
        fill: #4a2d2d;
      }

      .cls-4 {
        fill: #776262;
      }
    </style>
  </defs>
  <g id="COLOR">
    <g>
      <g>
        <path class="cls-3" d="M64.89,21.82c-.76,1.9-1.94,3.69-2.57,5.63-.23.72.76,1.3,1.27.74,1.46-1.59,2.2-3.92,2.82-5.96.3-1-1.16-1.34-1.53-.42h0Z"/>
        <path class="cls-3" d="M79.8,31.99c-1.33.51-2.48,1.47-3.64,2.28-.82.58-1.65,1.15-2.43,1.77.28.21.53.45.76.71.11.11.21.23.31.35.82-.49,1.61-1.02,2.4-1.56,1.11-.74,2.36-1.43,3.26-2.42.41-.46.02-1.39-.66-1.13Z"/>
        <path class="cls-3" d="M52.16,78.15c-.33,0-.66-.05-.99-.1-.01,0-.03,0-.04,0-.36,1.57-.67,3.19-.44,4.73.12.78,1.15.56,1.37,0,.57-1.42.61-3.07.61-4.66-.17.02-.35.03-.51.03Z"/>
        <path class="cls-3" d="M78.63,70.28c-.4-.93-1.38-1.63-2.12-2.29-.75-.67-1.52-1.32-2.28-1.98-.04.04-.07.07-.11.11-.2.19-.38.38-.58.57-.11.1-.22.21-.33.31.75.76,1.5,1.52,2.27,2.26.73.7,1.48,1.57,2.47,1.91.55.19.87-.45.68-.89Z"/>
        <path class="cls-3" d="M41.31,76.45c-.52-.23-1-.52-1.45-.85-1.13,2.73-2.03,5.58-3.13,8.3-.35.86,1.08,1.45,1.5.63,1.33-2.6,2.77-5.15,4.21-7.7-.4-.09-.79-.24-1.12-.38Z"/>
        <path class="cls-3" d="M34.3,73.82c-.3-.21-.59-.44-.88-.67-.03-.03-.06-.06-.1-.09-.2.25-.4.51-.59.77-.42.56-.95,1.17-1.06,1.88-.09.6.44,1.04,1,.77.64-.31,1.06-.98,1.47-1.53.21-.28.41-.56.6-.85-.16-.08-.31-.17-.46-.27Z"/>
        <path class="cls-3" d="M20.53,52.48c-1.5-.13-3.08-.21-4.44.34-.68.28-.69,1.12,0,1.4,1.38.56,2.99.47,4.52.33-.17-.67-.21-1.39-.09-2.07Z"/>
        <path class="cls-3" d="M25.51,37.35c.13-.28.27-.56.42-.83-.54-.51-1.08-1-1.66-1.45-.85-.67-1.8-1.56-2.94-1.56-.63,0-.89.64-.66,1.16.42.95,1.59,1.51,2.42,2.06.69.46,1.38.9,2.08,1.36.12-.25.24-.49.35-.74Z"/>
        <path class="cls-3" d="M38.49,21.99c-.34-.78-.68-1.74-1.45-2.19-.41-.24-.83,0-.99.4-.33.81.07,1.89.38,2.66.28.7.64,1.35,1.04,1.97h.07c.16,0,.31,0,.47.03.04,0,.09.03.13.06.28-.26.56-.53.86-.77.09-.08.19-.15.29-.22-.26-.65-.51-1.3-.79-1.94Z"/>
        <g>
          <path class="cls-4" d="M86.56,52.17c-.96-.74-2.21-.82-3.37-1.02-.89-.16-1.77-.3-2.66-.45,0-.68,0-1.37-.06-2.06-.1-1.37-.32-2.69-.64-3.98.96-.6,1.89-1.25,2.8-1.84,1.28-.82,3.46-1.65,4.1-3.13.23-.55-.16-1.32-.84-1.1-2.44.79-4.78,1.74-7.06,2.85-1.69-4.3-4.52-8.09-8.04-11.29-.07-.07-.15-.13-.23-.2.3-.56.59-1.12.87-1.68.75-1.47,1.58-2.89,2.28-4.39.33-.7-.53-1.5-1.13-.87-1.54,1.6-3.1,3.18-4.62,4.8-.65-.51-1.31-1.02-1.98-1.51-1.44-1.07-2.84-2.25-4.49-2.99-.77-.34-1.56-.64-2.37-.91.4-2.11.71-4.31,1.11-6.34.14-.72-.92-1.3-1.27-.54-.91,1.98-2.01,3.98-2.94,6-.49-.12-.99-.24-1.5-.36-1.74-.41-3.54-.67-5.3-.7-.15-.31-.28-.62-.36-.89-.39-1.39-.83-2.76-1.27-4.14-.1-.33-.41-.37-.63-.25-.12,0-.22.09-.26.27-.31,1.45-.47,3.4-.53,5.18-5.53.71-10.89,3.45-15.19,7.22-.63-.83-1.34-1.63-1.93-2.44-.92-1.28-1.9-2.49-3.11-3.52-.57-.49-1.76-.04-1.41.82,1.11,2.76,2.19,5.49,3.37,8.21-1.19,1.36-2.25,2.8-3.14,4.29-1.34,2.23-2.47,4.62-3.36,7.09-2.09-.88-4.57-1.35-6.55-1.81-1.04-.24-1.48,1.04-.69,1.63,1.94,1.45,3.98,2.66,6.2,3.55-.71,2.71-1.12,5.5-1.18,8.28-.04,1.63.1,3.22.41,4.75-.61.35-1.22.7-1.83,1.05-1.63.93-3.09,2.13-4.7,3.05-.86.49-.28,2,.69,1.64,2.24-.82,4.49-1.7,6.71-2.63,1,2.7,2.59,5.17,4.73,7.31-1.85,2.83-3.48,5.86-5.17,8.73-.42.72.51,1.31,1.09.84,2.61-2.11,4.99-4.43,7.38-6.76,7.89,5.79,18.61,8.35,28.2,6.42.46,3.18,1.29,6.68,1.95,9.54.19.83,1.31.56,1.39-.19.32-3.08.41-6.95.24-10.3.29-.1.59-.2.88-.3,2.1-.77,4.1-1.77,5.96-2.95,1.89,1.69,4.34,3.36,6.04,4.74.77.62,1.86-.14,1.39-1.07-1.07-2.14-2.15-4.55-3.41-6.72,2.38-2.14,4.41-4.64,5.96-7.4,2.23.84,4.68,1.57,6.71,2.51.79.36,1.81-.67,1.01-1.31-1.99-1.62-3.97-3.28-5.99-4.89.75-1.97,1.28-4.03,1.54-6.17,1.94-.07,3.88-.2,5.81-.17.87.02.99-1.05.41-1.5ZM20.67,44.06s.08.03.11.04c0,0,0,0,0,.01-.04-.02-.07-.04-.11-.05Z"/>
          <path class="cls-3" d="M34.38,47.64c-.58-.55-1.2-1.24-2-1.45-.49-.13-1.12.36-.9.9.32.78.98,1.3,1.54,1.9.59.62,1.2,1.22,1.79,1.83.82.86,1.95-.38,1.26-1.26-.53-.68-1.07-1.33-1.69-1.93Z"/>
        </g>
        <path class="cls-3" d="M48.09,31.43h-.01c-.14-.16-.3-.26-.48-.32-.18-.09-.37-.14-.58-.13l-.4.05c-.25.07-.47.2-.66.38h-.01c-.08.12-.16.22-.24.32l-.15.36c-.06.2-.07.4-.03.6,0,.14.03.26.1.38.04.13.1.24.19.33.07.11.16.2.27.27.09.09.21.16.33.19.18.09.38.14.58.13l.4-.05.36-.15.31-.24.24-.31.15-.36c.06-.2.07-.4.03-.6,0-.14-.03-.26-.1-.38-.06-.19-.17-.35-.31-.49h0Z"/>
        <path class="cls-3" d="M61.49,41.32c.51-.67,1.06-1.31,1.58-1.97.49-.62,1.07-1.2,1.28-1.98.19-.7-.54-1.13-1.13-.87-.77.34-1.27,1.12-1.75,1.78-.51.7-.94,1.47-1.36,2.23-.51.92.78,1.61,1.38.81h0Z"/>
        <path class="cls-3" d="M56.64,49.63c.19-.15.36-.31.48-.52.17-.29.33-.62.21-.96s-.38-.54-.73-.55c-.3,0-.48.12-.7.29l.17-.13c-.07.05-.14.1-.21.15-.13.08-.24.19-.36.29l.19-.14c-.06.04-.11.08-.17.12-.21.14-.35.32-.43.56-.09.28,0,.59.17.81.16.2.35.32.61.35.12.03.25.02.37-.02.16-.04.29-.12.41-.24h0Z"/>
        <path class="cls-3" d="M41.06,63.12c-.69.28-1.16.67-1.6,1.26-.13.18-.21.33-.29.54.08-.19-.1.27-.12.32-.08.36-.05.75.23,1.03s.66.32,1.01.22c.08-.03.15-.06.23-.1.15-.05.17-.07.07-.04.24-.11.41-.2.62-.37.51-.42.89-.98,1.09-1.62.21-.68-.52-1.53-1.24-1.24h0Z"/>
        <path class="cls-3" d="M53.08,59.95c.14.27.26.53.49.72.12.1.25.19.4.24.2.05.41.03.6-.05.33-.14.57-.47.56-.84,0-.13,0-.26-.04-.39-.03-.12-.09-.24-.14-.35l-.16-.34c-.1-.21-.37-.4-.59-.46-.24-.07-.55-.04-.77.1-.47.31-.61.86-.36,1.36h0Z"/>
        <g>
          <path class="cls-3" d="M35.67,31.72c-.37-.48-1.42-.44-1.33.36.36,3.07.66,6.31,1.86,9.18.26.61,1.34.63,1.28-.17-.14-2.04-.59-4.07-1.05-6.09.83,1.52,1.44,3.21,2.7,4.39.57.54,1.32-.13,1.03-.79-1.11-2.47-2.84-4.75-4.49-6.88Z"/>
          <path class="cls-3" d="M54.39,29.66c-1.44,2.36-1.87,5.38-2.55,8.02-.22.84.98,1.14,1.27.35.45-1.21.84-2.51,1.28-3.79-.1,1.06-.3,2.14-.24,3.19.05.79,1.11.94,1.37.19.76-2.22.81-5.19.57-7.5-.09-.87-1.19-1.28-1.7-.46Z"/>
          <path class="cls-3" d="M44.77,44.11c-.38-.56-1.43-.42-1.39.38.19,3.08,1.19,6.03,2.59,8.75.35.67,1.49.21,1.23-.52-.47-1.35-.86-2.71-1.23-4.08.5.86.98,1.73,1.49,2.58.36.6,1.46.21,1.18-.5-.95-2.43-2.42-4.46-3.88-6.61Z"/>
          <path class="cls-3" d="M36.46,57.24c-2.81-.79-5.67-.91-8.54-.33-.79.16-.91,1.34-.22,1.71,1.85.99,4.16,1.57,6.26,1.54.68,0,.9-1,.32-1.19-1.29-.43-2.26-.53-3.07-.67,1.7.14,3.4.39,5.11.31.88-.04,1.02-1.13.14-1.38Z"/>
          <path class="cls-3" d="M50.86,65.6c-.18.46-.31.94-.42,1.43-.01-.38-.03-.76-.04-1.14-.04-1.01-1.52-1.01-1.57,0-.07,1.69.08,3.35.29,5.02.11.86.1,1.91,1.17,1.96.4.02.64-.33.68-.68.24-2.13,1.1-4.27,1.04-6.43-.02-.7-.92-.76-1.16-.16Z"/>
          <path class="cls-3" d="M63.39,63.36c-.64-1.03-1.18-2.24-2.15-2.98-.46-.36-1.07.23-.94.72.32,1.16,1.27,2.2,1.88,3.25.22.38.44.75.66,1.13-.36-.38-.69-.76-.96-1.03-.82-.84-1.6-1.71-2.35-2.6-.6-.72-1.67.33-1.04,1.04,1.04,1.16,2.13,2.27,3.28,3.32.86.79,1.69,1.7,2.86,1.98.63.15,1.03-.48.78-1.02-.59-1.31-1.27-2.58-2.03-3.8Z"/>
          <path class="cls-3" d="M73.5,55.58s0,0,0,0c-.41-.43-.88-.81-1.37-1.17-.59-.66-1.12-1.44-1.66-2.02-.88-.93-1.77-1.88-2.74-2.71-.63-.53-1.5.31-.91.91.65.67,1.34,1.31,2.01,1.96-1-.44-2-.83-2.94-1.19-1.06-.4-1.51,1.29-.47,1.69,1.3.51,2.56,1.1,3.79,1.77,1.13.62,2.21,1.42,3.38,1.94.81.36,1.51-.65.91-1.19Z"/>
        </g>
        <path class="cls-3" d="M68.04,45.18c.62-.44,1.4-.81,1.88-1.4.24-.29.33-.67.13-1.02-.19-.33-.59-.48-.95-.39-.83.21-1.5.87-2.14,1.41-.76.65.25,1.99,1.08,1.4h0Z"/>
        <path class="cls-1" d="M38.51,45.31c-.23-.05-.47-.11-.71-.09-.12.01-.24.03-.35.1-.13.08-.23.2-.29.33-.11.25-.06.57.14.76.1.1.21.19.33.25l.25.12c.2.1.4.13.62.08.24-.06.43-.25.52-.47.09-.21.09-.41,0-.62s-.28-.42-.52-.47h0Z"/>
        <path class="cls-1" d="M43.7,56.74c-.25.42-.57.88-.65,1.37-.05.31.03.63.32.8s.6.09.85-.11c.39-.31.63-.81.88-1.23.22-.37.1-.91-.29-1.11s-.88-.1-1.11.29h0Z"/>
        <path class="cls-1" d="M61.1,55.76c-.11-.09-.14-.11-.07-.05.06.07.04.04-.05-.08,0,.03.11.21.04.05-.03-.08-.04-.09-.01-.02.03.09.07.17.11.25-.06-.14-.07-.17-.04-.08.02.09.02.06,0-.09.04.41.28.75.71.81.41.05.78-.19.9-.59.11-.36.08-.72-.09-1.06-.13-.27-.36-.49-.61-.64-.39-.24-.98-.1-1.19.31-.24.45-.09.91.31,1.19h0Z"/>
        <path class="cls-1" d="M54.95,43.41c1,0,1-1.55,0-1.55s-1,1.55,0,1.55h0Z"/>
        <path class="cls-1" d="M37.46,71.22l.03.04s.04.06.07.09c.03.05.08.1.13.13.02.02.05.04.08.06.21.13.52.13.73,0,.03-.02.12-.09.15-.12l.11-.15h0s.02-.04.03-.05c.07-.12.11-.25.11-.39,0-.14-.04-.27-.11-.39-.14-.24-.4-.38-.67-.38s-.53.15-.67.38c-.07.12-.11.25-.11.39,0,.14.04.27.11.39h0Z"/>
        <path class="cls-1" d="M69.46,63.34c1.18,0,1.18-1.83,0-1.83s-1.18,1.83,0,1.83h0Z"/>
        <path class="cls-1" d="M62.38,30.99l.03.14.08.19c.05.09.12.17.21.23.05.05.11.08.18.1.1.05.2.07.31.07l.21-.03.19-.08c.09-.05.17-.12.23-.21.07-.08.12-.17.14-.27l.03-.14c.04-.15.04-.3,0-.45-.04-.14-.11-.27-.22-.37l-.17-.13c-.13-.08-.27-.11-.42-.11-.12,0-.22.02-.32.07-.1.03-.19.09-.27.17-.1.11-.18.23-.22.37-.04.15-.04.3,0,.45h0Z"/>
        <path class="cls-1" d="M68.55,39.09c.09.08.17.16.26.23s.18.14.29.17c.14.04.29.02.43-.03.23-.1.41-.34.4-.6,0-.11-.02-.22-.03-.33,0-.14-.04-.28-.11-.4-.07-.12-.16-.21-.28-.28-.12-.07-.26-.11-.4-.11-.11,0-.21.02-.3.07-.1.03-.18.09-.25.16-.1.1-.17.22-.2.35-.07.26,0,.58.2.77h0Z"/>
        <path class="cls-1" d="M27.91,53.13c.77,0,.77-1.19,0-1.19s-.77,1.19,0,1.19h0Z"/>
        <path class="cls-1" d="M41.36,30.22c.14,0,.28-.02.4-.09.13-.04.24-.11.34-.22.1-.09.17-.21.22-.34.07-.12.1-.26.09-.4l-.04-.28c-.05-.18-.14-.33-.27-.46l-.21-.16c-.16-.09-.34-.14-.53-.14-.14,0-.28.02-.4.09-.13.04-.24.11-.34.22-.1.09-.17.21-.22.34-.07.12-.1.26-.09.4l.04.28c.05.18.14.33.27.46l.21.16c.16.09.34.14.53.14h0Z"/>
        <path class="cls-1" d="M30.25,40.11c.12,0,.23-.02.33-.07.11-.03.2-.09.28-.18.08-.08.14-.17.18-.28.05-.1.08-.21.07-.33l-.03-.23c-.04-.15-.11-.27-.22-.38l-.17-.13c-.13-.08-.28-.12-.43-.12-.12,0-.23.02-.33.07-.11.03-.2.09-.28.18-.08.08-.14.17-.18.28-.05.1-.08.21-.07.33l.03.23c.04.15.11.27.22.38l.17.13c.13.08.28.12.43.12h0Z"/>
      </g>
      <rect class="cls-2" width="100" height="100"/>
    </g>
  </g>
</svg>