<?xml version="1.0" encoding="UTF-8"?>
<svg id="Capa_2" data-name="Capa 2" xmlns="http://www.w3.org/2000/svg" viewBox="0 0 100 100">
  <defs>
    <style>
      .cls-1 {
        fill: #fff;
      }

      .cls-2 {
        fill: none;
      }

      .cls-3 {
        fill: #a0bcdb;
      }

      .cls-4 {
        fill: #4a2d2d;
      }
    </style>
  </defs>
  <g id="COLOR">
    <g>
      <g>
        <path class="cls-3" d="M53.96,95.63c-3.49,0-7.18-.23-10.97-.68-10.04-1.19-17.82-3.89-23.78-8.25-6.53-4.78-10.71-11.22-11.49-17.68-.97-8.13,1.51-15.33,6.82-19.75,6.26-5.22,14.76-6.93,22.92-8.23,1.74-.28,3.53-.53,5.25-.78,6.99-1,14.22-2.04,20.88-4.75,3.43-1.39,7.42-3.54,7.82-7.83.43-4.53-3.11-8.02-6.8-9.47-3.26-1.28-7.1-1.9-11.72-1.9-3.48,0-6.98.33-10.37.66-1.2.11-2.39.23-3.55.32-4.16.34-8.59.68-13.05.68-.63,0-1.25,0-1.88-.02h-.47c-1.82-.04-4.56-.09-6.46-1.05-1.06-.53-1.66-1.26-1.75-2.1-.1-.96.48-2.03,1.61-2.95,1.33-1.08,3.07-1.54,4.75-1.99l.3-.08c2.05-.55,4.23-1.03,6.47-1.43,4.34-.78,8.89-1.3,13.9-1.58,2.22-.13,5.15-.27,8.08-.27,7.56,0,13.44.97,18.5,3.07,7.7,3.18,13.36,9.1,15.14,15.84,1.9,7.17-.51,14.26-6.3,18.49-7.19,5.26-16.36,6.86-24.44,8.26l-2.43.42c-3.96.69-8.05,1.41-12.09,2l-.53.08c-3.5.5-8.29,1.19-10.13,4.82-1.31,2.59-1.43,5.08-.35,7.39,1.93,4.14,7.16,6.58,11.05,7.41,3.25.7,6.86,1.04,11.02,1.04,3.28,0,6.87-.21,11.31-.66,3.96-.4,7.85-1.55,11.61-2.67,4.61-1.36,9.37-2.77,14.21-2.78,3.16,0,6.76,1.22,7.45,4.66.64,3.18-2.09,6.66-4.54,9.33-4.55,4.97-11.22,8.54-19.83,10.61-5,1.2-10.44,1.81-16.15,1.81h0Z"/>
        <path class="cls-4" d="M86.18,77.11c-.38-1.5-2.29-2.39-3.62-1.58-2.17,1.33-.92,5.42,1.76,4.65,1.22-.35,2.18-1.78,1.86-3.07Z"/>
        <path class="cls-4" d="M20.33,55.27c-5.11,3.83-6.37,12.58-1.11,16.96.31.26.9-.09.61-.48-1.78-2.39-3.14-4.78-3.03-7.9s1.7-5.92,4-7.96c.33-.29-.11-.88-.47-.62h0Z"/>
        <path class="cls-4" d="M20.9,73.9c.29.58.88,1.33,1.57,1.37.33.02.41-.38.24-.6-.09-.11-.21-.17-.32-.26s-.21-.19-.31-.28c-.2-.19-.35-.41-.48-.65-.25-.47-.95-.05-.71.42h0Z"/>
        <path class="cls-4" d="M29.91,80.03c4.54,2.21,9.84,4.27,14.93,4.35.41,0,.5-.62.1-.73-5.01-1.29-9.86-2.17-14.66-4.27-.43-.19-.81.44-.37.65h0Z"/>
        <path class="cls-4" d="M47.46,84.31c.25,0,.25-.4,0-.4s-.25.4,0,.4h0Z"/>
        <path class="cls-4" d="M53.03,84.9c6.73.72,13.43.09,19.89-1.96.39-.12.23-.73-.17-.63-6.46,1.63-13.08,2.26-19.72,1.81-.5-.03-.48.73,0,.78h0Z"/>
        <path class="cls-4" d="M77.29,81.2c.11-.06.23-.13.33-.2.12-.09.18-.23.12-.38-.05-.13-.21-.23-.35-.18-.15.05-.29.12-.43.18-.15.07-.21.31-.12.45.1.15.28.21.44.12h0Z"/>
        <path class="cls-4" d="M27.39,51.51c2.41-.96,4.8-1.97,7.31-2.64s5.09-.86,7.64-1.32c.36-.06.26-.61-.08-.63-4.99-.2-10.79,1.53-15.14,3.95-.33.19-.1.79.27.64h0Z"/>
        <path class="cls-4" d="M46.42,46.91c.56-.07,1.23-.06,1.75-.3.28-.13.21-.61-.09-.68-.52-.11-1.13.04-1.66.09s-.55.95,0,.88h0Z"/>
        <path class="cls-4" d="M59.34,43.24c5.56-1.31,11.54-2.8,15.54-7.25,3.42-3.81,4.38-8.98,2.32-13.73-2.21-5.1-7.13-7.85-12.14-9.46-6-1.93-12.48-2.05-18.72-1.85-3.74.12-7.48.44-11.2.9s-7.79.9-11.5,1.93c-.48.13-.41.99.12.92,3.93-.48,7.81-1.36,11.75-1.84,3.6-.44,7.21-.73,10.83-.85,6.94-.23,14.17-.07,20.71,2.6,6.33,2.58,12.35,8.87,9.85,16.39-2.51,7.55-10.94,10-17.68,11.82-.27.07-.15.48.11.42h0Z"/>
        <path class="cls-1" d="M62.61,90.59c.84.03,2.05.02,2.61-.71.29-.37.26-1.05-.24-1.25-.78-.31-1.68-.02-2.5-.08-.54-.04-.97.58-.94,1.08.04.6.52.93,1.06.95h0Z"/>
        <path class="cls-1" d="M70.36,89.42c1.07-.07.97-1.76-.1-1.69-1.07.07-.97,1.76.1,1.69h0Z"/>
        <path class="cls-1" d="M75.15,41.06l.82-.64c.34-.27.7-.53.83-.98s-.23-.93-.69-.93c-.68,0-1.29.66-1.8,1.06-.36.28-.55.74-.3,1.17.21.36.79.59,1.15.31h0Z"/>
        <path class="cls-1" d="M80.09,35.32l-.05-.16-.07-.16c-.04-.08-.1-.14-.17-.19-.04-.04-.09-.07-.15-.09-.08-.04-.17-.06-.26-.06l-.18.02-.16.07c-.08.04-.14.1-.19.18-.06.07-.1.14-.12.23l-.05.16c-.08.24,0,.55.19.72l.15.12c.11.07.24.1.37.1.1,0,.19-.02.28-.06.09-.03.17-.08.23-.15.18-.18.27-.47.19-.72h0Z"/>
        <path class="cls-1" d="M20.91,61.61c-.05.39-.2.87-.05,1.25.1.26.25.46.53.54.25.07.55,0,.73-.2.28-.3.36-.73.46-1.12.11-.44-.14-.97-.6-1.08-.41-.09-.99.13-1.06.61h0Z"/>
        <path class="cls-1" d="M22.47,68.78c.5,0,.5-.8,0-.8s-.5.8,0,.8h0Z"/>
      </g>
      <rect class="cls-2" width="100" height="100"/>
    </g>
  </g>
</svg>