<?xml version="1.0" encoding="UTF-8"?>
<svg id="Capa_2" data-name="Capa 2" xmlns="http://www.w3.org/2000/svg" viewBox="0 0 100 100">
  <defs>
    <style>
      .cls-1 {
        fill: #92a9bf;
      }

      .cls-2 {
        fill: none;
      }

      .cls-3 {
        fill: #4a2d2d;
      }

      .cls-4 {
        fill: #b8cde4;
      }
    </style>
  </defs>
  <g id="COLOR">
    <g>
      <g>
        <path class="cls-4" d="M31.82,31.3s4.78-7.96,8.96-10.95,6.77-3.19,7.17-1.79-.31,4.42-.31,4.42c0,0,7.08-2.83,8.87-.84s.2,5.77-.6,6.97-1,1.19-1,1.19c0,0,3.58-1.79,4.38,1.19s-1.99,6.37-1.99,6.37l-25.48-6.57Z"/>
        <path class="cls-4" d="M26.08,73.5s9.73,5.78,15.1,8.17,7.96,1.99,7.76.4-3.79-7.65-5.78-9-17.09.43-17.09.43Z"/>
        <path class="cls-4" d="M46.95,71.51s7.37,2.99,14.73,2.99,9.95-.8,9.36-3.78-4.18-7.76-4.18-7.76l-19.91,8.56Z"/>
        <g>
          <path class="cls-3" d="M40.87,30.44c.64-1.09,1.37-2.06,2.19-3.01s1.71-1.66,2.51-2.55c.28-.31-.08-.85-.47-.61-1.04.66-1.94,1.71-2.72,2.66s-1.48,2.07-2.1,3.17c-.21.38.36.72.59.34h0Z"/>
          <path class="cls-3" d="M46.62,32.18c.76-.75,1.54-1.48,2.34-2.19.78-.7,1.71-1.33,2.39-2.12.31-.36-.07-.83-.49-.64-.93.43-1.74,1.3-2.46,2.01-.8.77-1.56,1.58-2.31,2.4-.32.35.18.87.53.53h0Z"/>
          <path class="cls-3" d="M36.19,75.76c1.57.85,3.09,1.88,4.7,2.64.4.19.89-.32.51-.66-1.38-1.22-3.2-2.06-4.9-2.71-.42-.16-.69.51-.31.72h0Z"/>
          <path class="cls-3" d="M61.76,69.78c1.09.62,2.2,1.6,3.45,1.86.43.09.76-.42.44-.75-.89-.91-2.3-1.32-3.41-1.92-.53-.28-.99.51-.47.8h0Z"/>
          <path class="cls-3" d="M65.27,68.38c.51.27,1.05.63,1.65.64.38,0,.49-.43.29-.69-.34-.43-.93-.62-1.41-.85-.25-.12-.56-.07-.71.19-.14.23-.06.58.19.71h0Z"/>
          <path class="cls-1" d="M2.12,52.18s6.37-18.38,21.44-22.17,36.87,7.11,42.14,10.05c5.27,2.94,9.43,5.64,9.43,5.64,0,0,10.78-7.84,15.56-9.56,4.78-1.72,5.64-.12,4.41,4.78-1.23,4.9-6.37,11.03-5.27,12.5s8.7,11.39,8.09,14.21-10.78,0-15.44-1.84c-4.66-1.84-8.94-4.66-8.94-4.66,0,0-14.82,14.33-36.63,14.21-21.81-.12-33.04-14.03-33.04-14.03l12.58-3.24s-14.09-4.53-14.33-5.88Z"/>
          <path class="cls-3" d="M74.76,49.81c.12,1.77.12,3.56-.14,5.32-.13.89-.33,1.77-.6,2.63s-.62,1.65-.62,2.54c0,.79.47,1,1.03.49.89-.83,1.76-3.26,2-7.26.2-3.32-.64-6.93-.85-7.61-.22-.72-1.31-.69-1.2.14.16,1.25.3,2.51.39,3.76Z"/>
          <path class="cls-3" d="M32.2,55.53c.64.13,1.34.36,2,.34.35-.01.54-.53.19-.7-.59-.29-1.3-.36-1.95-.5-.56-.12-.8.75-.24.86h0Z"/>
          <path class="cls-3" d="M21.58,43.81c-1.46-1.05-3.48-.39-4.14,1.25-.4.77-.43,1.74.04,2.57.9,1.59,3.11,1.81,4.41.6,1.3-1.2,1.11-3.39-.31-4.42Z"/>
          <path class="cls-3" d="M39.7,48c-.76-2.26-2.09-4.34-4-5.79-1.04-.79-2.2-1.44-3.45-1.82-1.24-.39-2.35-.34-3.59-.1-.06-.16-.12-.32-.18-.48-.46-1.22-.99-2.42-1.51-3.62-.17-.39-.82-.11-.68.29.4,1.2.83,2.39,1.24,3.59.38,1.1.63,2.28,1.03,3.37.67,3.12,1.03,6.6.85,9.52-.11,1.8-.29,4.74-2.32,10.3-.4,1.1-.89,2.17-1.27,3.27-.16.48.5.67.76.32.65-.88,1.1-1.97,1.41-3.07,2.83-.36,5.85-1.81,6.86-2.56,2.01-1.49,3.57-3.46,4.47-5.81.87-2.27,1.16-5.08.38-7.42ZM34.37,59.47c-.93.78-2,1.42-3.11,1.91-.53.23-1.08.41-1.62.61-.18.07-.37.15-.58.23,0-.01.02-.03.03-.04.21-.37.34-.82.5-1.22.35-.9.63-1.85.84-2.8.43-1.95.59-3.97.6-5.97,1.21.09,2.65.27,3.79-.21.32-.14.21-.65-.09-.72-1.16-.28-2.52,0-3.71.03-.03-.92-.1-1.83-.22-2.74.98-.39,2.44-.72,3.42-.96.3-.07.32-.57,0-.63-1.2-.22-2.38.18-3.45.7-.03.02-.06.04-.09.06-.34-2.18-.89-4.32-1.54-6.42.77.11,1.55.38,2.27.61.96.31,1.86.78,2.7,1.34,1.6,1.07,3.26,2.64,3.83,4.53,1.29,4.3-.1,8.83-3.54,11.7Z"/>
          <path class="cls-3" d="M41.13,36.35c.86,1.96,1.49,4,1.92,6.09.21,1.01.37,2.04.46,3.07.09,1,.04,2.13.35,3.08.12.37.65.38.76,0,.31-1,.14-2.19.02-3.22-.13-1.08-.32-2.16-.57-3.22-.5-2.15-1.29-4.23-2.26-6.21-.23-.47-.89-.06-.69.4h0Z"/>
          <path class="cls-3" d="M44.15,50.85c0,.44-.05.99.21,1.37.16.24.48.24.64,0,.26-.38.2-.94.21-1.37,0-.68-1.06-.68-1.05,0h0Z"/>
          <path class="cls-3" d="M43.32,57.46c-.02,1.76-.33,3.5-.74,5.2-.2.81-.42,1.62-.65,2.43-.21.74-.49,1.5-.37,2.28.04.29.46.36.64.17.56-.6.75-1.47.97-2.25.25-.85.46-1.71.63-2.58.34-1.74.46-3.48.26-5.25-.05-.46-.74-.49-.74,0h0Z"/>
          <path class="cls-3" d="M40.87,69.9c-.12.31-.24.6-.26.93-.02.31.4.46.6.25.23-.24.36-.54.51-.82.12-.25.04-.54-.22-.65s-.52.04-.62.3h0Z"/>
          <path class="cls-3" d="M36.71,37.17c-.12-.47-.23-.92-.49-1.33-.22-.35-.68-.17-.72.2-.05.49.05.95.14,1.43.14.7,1.25.4,1.07-.3h0Z"/>
          <path class="cls-3" d="M34.51,64.82c-.11.4-.21.8-.32,1.2-.1.38-.23.77-.1,1.16.11.33.49.43.75.2.3-.27.39-.67.49-1.04l.32-1.2c.2-.74-.95-1.06-1.15-.32h0Z"/>
          <path class="cls-3" d="M50.05,42.97c.44,2.21.72,4.46.8,6.71.04,1.08.02,2.16-.04,3.24-.06.99-.42,2.21-.16,3.18.08.3.49.34.65.09.53-.84.47-2.15.54-3.12.09-1.17.12-2.35.09-3.52-.06-2.31-.37-4.59-.93-6.83-.16-.62-1.08-.36-.96.26h0Z"/>
          <path class="cls-3" d="M49.73,61.03c0,.21,0,.42-.02.62-.03.22-.09.44-.09.67.01.43.52.51.75.2.3-.39.32-1.02.32-1.49,0-.62-.99-.62-.97,0h0Z"/>
          <path class="cls-3" d="M48.67,67.42c-.12.49-.3.99-.19,1.5.05.25.42.36.59.16.34-.4.42-.91.54-1.4.15-.61-.79-.87-.94-.26h0Z"/>
          <path class="cls-3" d="M50.01,38.91c.65,0,.66-1.02,0-1.02s-.66,1.02,0,1.02h0Z"/>
          <path class="cls-3" d="M55.83,40.49c.52,1.94.94,3.92,1.16,5.92.1.96.16,1.92.18,2.88.01.91-.21,1.99.09,2.86.11.31.59.44.76.1.42-.83.3-1.91.28-2.82-.02-1.05-.09-2.11-.22-3.15-.25-2.07-.71-4.06-1.45-6.01-.19-.5-.96-.31-.81.22h0Z"/>
          <path class="cls-3" d="M57.49,56.78c-.09,1.54-.27,3.08-.57,4.6-.15.73-.32,1.46-.53,2.18-.19.65-.51,1.32-.47,2.01.02.32.43.54.67.28.46-.51.61-1.22.79-1.87.22-.81.41-1.63.56-2.46.28-1.56.41-3.14.4-4.73,0-.54-.81-.53-.84,0h0Z"/>
          <path class="cls-3" d="M55.84,68.16c.54,0,.54-.84,0-.84s-.54.84,0,.84h0Z"/>
          <path class="cls-3" d="M63.56,59.49c.51-1.59.83-3.22.96-4.88.06-.83.07-1.66.02-2.49-.04-.73,0-1.65-.42-2.27-.19-.29-.65-.26-.76.1-.2.69.03,1.47.07,2.17.04.78.04,1.57,0,2.35-.08,1.62-.37,3.2-.83,4.75-.18.61.76.87.96.26h0Z"/>
          <path class="cls-3" d="M64.69,46.25c-.09-.41-.16-.79-.46-1.11-.22-.23-.53-.08-.63.17-.17.41-.06.82,0,1.24.05.3.42.47.7.39.31-.08.46-.4.39-.7h0Z"/>
          <path class="cls-3" d="M70.64,57.77c.55-1.97.91-4.69-.16-6.56-.22-.37-.84-.22-.83.22.03.99.32,1.97.38,2.97.07,1.06.03,2.11-.15,3.16-.09.49.62.71.76.21h0Z"/>
          <path class="cls-3" d="M62.98,63.54c.19-.46.44-.92.23-1.41-.09-.2-.35-.21-.52-.14-.46.21-.58.83-.73,1.27-.1.27.11.58.37.65.3.08.55-.1.65-.37h0Z"/>
          <path class="cls-3" d="M77.43,48.92c1.62-.82,3.25-1.6,4.89-2.39,1.62-.78,3.35-1.43,4.9-2.34.33-.2.12-.76-.27-.64-1.7.53-3.33,1.42-4.92,2.2-1.67.82-3.31,1.7-4.94,2.6-.37.2-.04.75.33.56h0Z"/>
          <path class="cls-3" d="M78.08,52.33c1.46-.19,2.92-.35,4.38-.5.71-.07,1.42-.13,2.13-.19s1.45-.07,2.1-.31c.36-.14.44-.71,0-.81-1.35-.33-3,.06-4.37.22-1.46.17-2.91.4-4.36.66-.52.09-.41,1.01.13.94h0Z"/>
          <path class="cls-3" d="M77.05,56.17c1.69.49,3.39.97,5.08,1.49,1.6.49,3.26,1.18,4.93,1.38.47.06.57-.62.23-.84-1.41-.89-3.22-1.33-4.81-1.78-1.7-.48-3.41-.9-5.15-1.21-.62-.11-.89.78-.26.96h0Z"/>
        </g>
      </g>
      <rect class="cls-2" width="100" height="100"/>
    </g>
  </g>
</svg>