<?xml version="1.0" encoding="UTF-8"?>
<svg id="Capa_2" data-name="Capa 2" xmlns="http://www.w3.org/2000/svg" viewBox="0 0 100 100">
  <defs>
    <style>
      .cls-1 {
        fill: none;
      }

      .cls-2 {
        fill: #f79ba8;
      }

      .cls-3 {
        fill: #4a2d2d;
      }

      .cls-4 {
        fill: #ffe2e7;
      }
    </style>
  </defs>
  <g id="COLOR">
    <g>
      <g>
        <path class="cls-2" d="M91.32,38.32c-4.43-5.3-18.47-22.54-35.72-18.23-17.24,4.31-40.03,30.79-43.97,35.84-3.94,5.05-6.28,9.61.74,14.53,7.02,4.93,15.94,13.23,20.94,12.32,8.74-1.6,35.35-18.97,42.61-23.77,4.76-3.15,15.76-9.11,17.98-11.95,1.89-2.42-1.06-6.92-2.59-8.74Z"/>
        <path class="cls-4" d="M13.82,53.87c.05,3.92,1.97,7.91,4.25,10.99,1.14,1.55,2.39,3,3.6,4.49,1.47,1.79,2.72,3.73,4.15,5.54.15.19.5-.02.41-.24-1.38-3.28-4.28-5.98-6.48-8.73-2.75-3.43-5-7.58-5.38-12.05-.03-.35-.56-.36-.56,0h0Z"/>
        <path class="cls-4" d="M39.1,80.05c.97-4.39,1.64-9.55-2.48-13.4-.16-.15-.43.05-.31.24,1.31,1.99,2.59,3.64,2.82,6.11.18,1.88-.37,5.13-.5,7-.02.27.41.32.47.06h0Z"/>
        <path class="cls-4" d="M36.93,66.45c-2.65-3.14-6.7-5.42-8.56-9.16-1.02-2.05-1.64-5.84-.29-7.89,1.75-2.66,6.27-1.74,8.9-1.42,2.75.34,5.48.79,8.19,1.37,1.26.27,2.51.56,3.75.89,1.35.35,3.14.61,4.2,1.59,2.03,1.88,1.9,5.45,1.98,7.98.09,2.88.14,7.88.37,10.75.04.44.67.45.69,0,.17-3.47.04-9.23-.22-12.7-.18-2.38-.55-5.49-2.67-6.99-1-.71-2.3-.95-3.45-1.25-1.58-.42-3.17-.79-4.78-1.12-3.35-.68-6.74-1.17-10.15-1.41-2.23-.16-5.39-.34-7.05,1.52-1.48,1.66-1.25,4.55-.85,6.56,1.06,5.29,6.42,7.78,9.68,11.54.15.17.4-.08.25-.25h0Z"/>
        <path class="cls-4" d="M43.98,77.37c.23-3.51.73-9.56.16-13.06-.61-3.77-3.63-4.26-6.53-5.88-1.39-.77-4.78-2.83-2.64-4.6,1.4-1.16,4.27-.76,5.95-.6,1.95.18,3.9.54,5.78,1.1,2.26.69,2.81,1.91,3.01,4.14.39,4.39.49,10.65.45,15.05,0,.47.72.47.72,0,.03-4.2-.06-10.19-.36-14.38-.13-1.89-.08-3.85-1.91-4.93-1.61-.95-3.78-1.24-5.6-1.48-2.14-.29-10.71-1.3-9.39,3.1,1.12,3.76,6.78,3.5,8.9,6.22,1.28,1.63,1.19,4.13,1.23,6.1.05,2.32-.18,6.89-.31,9.21-.02.34.5.34.53,0h0Z"/>
        <path class="cls-4" d="M62,54.24c-.24-2.33-.21-5.2-1.56-7.23-1.19-1.79-3.31-2.4-5.31-2.8-2.36-.47-4.75-.83-7.13-1.17-4.83-.69-9.72-1.28-14.62-1.2-1.86.03-3.73.1-5.56.45-1.24.24-2.54.55-3.64,1.22-1.3.79-1.9,1.99-2.53,3.33-.48,1.03-.84,2.11-1.02,3.24-.31,1.95-.25,3.95.03,5.89.3,2.11.87,4.2,1.71,6.17,1.28,2.99,3.2,5.42,5.79,7.38,1.53,1.16,3.42,2.28,4.63,3.79,2.09,2.62,1.89,5.63,1.92,8.17,0,.25.41.33.45.06.49-2.9.24-6.86-2.14-9.13-2.66-2.54-5.94-4.18-8.11-7.24-2.13-3.01-3.18-6.71-3.56-10.33-.19-1.8-.08-3.63.34-5.4.37-1.54.86-3.14,1.86-4.4,1.2-1.53,2.96-1.93,4.81-2.19,1.67-.23,3.35-.25,5.03-.25,4.55,0,9.11.5,13.6,1.16,2.01.3,4,.64,6,.99,2.48.43,5.6.7,6.94,3.17,1.29,2.4,1.16,5.79,1.42,8.44.28,2.85.26,7.46.78,10.27.07.35.57.24.59-.08.26-3.48-.38-8.86-.73-12.33Z"/>
        <path class="cls-4" d="M30.63,36.78c8.64-.83,19.22-1.29,27.62,1.3,2.07.64,4.12,1.43,6.06,2.39,1.31.65,2.21,1.36,2.63,2.87.27.96.37,2,.52,2.99.7,4.52,1.04,11.28,1.47,15.82.04.42.65.43.66,0,.15-4.77-.66-12.03-1.49-16.72-.32-1.81-.43-3.64-1.98-4.84s-3.64-1.93-5.46-2.58c-9.07-3.24-20.68-3.08-30.1-1.67-.25.04-.19.47.06.44h0Z"/>
        <path class="cls-4" d="M38.64,30.41c8.6-.69,18.58-.17,26.76,2.85,2.03.75,4.05,1.6,5.97,2.61,1.24.65,2.33,1.37,2.78,2.78.33,1.01.44,2.14.59,3.19.72,5.07.45,11.23.21,16.32-.02.49.78.61.86.12.81-5.09.56-11.6-.2-16.68-.32-2.1-.49-4.22-2.29-5.59-1.57-1.19-3.6-1.93-5.43-2.64-8.62-3.33-20.16-4.81-29.36-3.55-.37.05-.25.62.12.59h0Z"/>
        <path class="cls-4" d="M48.03,24.1c4.15-1,10.96-1.26,15.83.25,4.14,1.28,8.2,2.68,11.58,5.46,3.1,2.55,6.09,5.01,7.05,9.09.99,4.21.83,9.87.78,14.14,0,.38.61.5.69.09.77-4.15.46-10.72-.84-14.73s-4.22-6.68-7.46-9.25c-3.34-2.66-7.27-4.03-11.29-5.35-5.94-1.95-12.14-1.34-16.47-.14-.28.08-.16.5.12.44h0Z"/>
        <path class="cls-3" d="M31.27,81.36c-.64-1.02-.96-3.51-.68-4.56.64-2.44,3.13-4.82,4.55-6.49,2.31-2.72,4.73-5.34,7.24-7.87,5.06-5.09,10.62-9.76,16.2-14.26,5.7-4.6,11.69-9,19.1-10.17,3.65-.58,8.35-.68,11.56,1.37,2.61,1.67,3.31,3.46,3.53,6.76.07,1,.68,1.92,1.14,1.18,1.27-1.99.4-4.61-.7-6.5-1.33-2.29-3.41-3.82-5.97-4.49-6.02-1.59-12.85-.25-18.35,2.44-5.95,2.9-11.09,7.45-16.09,11.72-5.22,4.45-10.17,9.19-14.83,14.22-2.42,2.62-4.79,5.32-6.95,8.16-1.72,2.26-2.84,5.16-1.18,7.88.78,1.28,1.94,1.44,1.43.62h0Z"/>
      </g>
      <rect class="cls-1" width="100" height="100"/>
    </g>
  </g>
</svg>