<?xml version="1.0" encoding="UTF-8"?>
<svg id="Capa_2" data-name="Capa 2" xmlns="http://www.w3.org/2000/svg" viewBox="0 0 100 100">
  <defs>
    <style>
      .cls-1 {
        fill: #fff;
      }

      .cls-2 {
        fill: none;
      }

      .cls-3 {
        fill: #809ab4;
      }

      .cls-4 {
        fill: #4a2d2d;
      }

      .cls-5 {
        fill: #f9b3bc;
      }

      .cls-6 {
        fill: #ffe2e7;
      }
    </style>
  </defs>
  <g id="COLOR">
    <g>
      <g>
        <path class="cls-6" d="M82.53,31.89c-3.59-4.49-13.13-8.31-20.73-10.78-13.31-4.32-34.32-.41-42.34,10.48-8.02,10.89-16.85,26.51,4.93,41.1,21.78,14.59,42.75,3.29,46.04-.21s3.7-5.96-1.03-6.58-9.45-.41-9.66-5.14,4.93-10.07,10.07-10.48,7.81-.21,10.69,1.23,7.81-2.47,7.81-6.78-2.49-8.75-5.78-12.86Z"/>
        <path class="cls-1" d="M57.3,47.65c-.38,1.1-1.18,2.1-2.02,2.89-1.63,1.52-4.05,2.49-6.25,1.68-1.02-.37-1.98-1.14-2.37-2.17-.44-1.15,0-2.37.69-3.32,1.73-2.36,5.01-3.3,7.79-2.54.26.07.52.16.77.28,1.25.59,1.83,1.88,1.38,3.18Z"/>
        <g>
          <path class="cls-3" d="M87.32,37.74s2.28,4.01,2.91,8.02c.63,4.01.63,9.44-3.85,12.03-4.48,2.6-9.83-.31-13.61-.24s-6.37,2.36-7.31,4.33c-.94,1.97-.79,3.22-.79,3.22,0,0-3.7-.16-4.48-3.62-.79-3.46,2.99-7.47,6.21-9.44,3.22-1.97,8.65-2.36,11.56-1.57,2.91.79,5.03,1.73,7.08.55,2.05-1.18,2.91-5.27,2.99-8.18s-.71-5.11-.71-5.11Z"/>
          <path class="cls-3" d="M72.69,66.53s1.42,1.34,1.34,5.43-2.31,8.84-11.67,12.77c-9.36,3.93-21.27,3.71-33.28-.69-10.79-3.95-17.99-12.8-19.28-21.83-1.27-8.91.2-12.91.2-12.91,0,0,.47,13.06,8.1,19.19,7.63,6.14,18.56,10.07,27.84,11.41,9.28,1.34,19.53-2.88,22.34-5.27,4.8-4.09,4.4-8.1,4.4-8.1Z"/>
          <path class="cls-5" d="M87.2,50.23c-.69,1.06-1.61,1.96-2.76,2.53-1.02.5-2.12.71-3.25.57-1.28-.15-2.47-.65-3.68-1.04-2.35-.75-4.89-1.38-7.34-.8-2.32.55-4.27,2.12-5.98,3.71-1.49,1.39-3.05,3.21-3.05,5.37,0,2.61,1.86,3.87,4.27,3.89,2.06.01,5.29-.07,6.93,1.48-1.07.83-2.19,1.62-3.19,2.17-3.15,1.73-14.95,9.52-31.7,4.8-16.75-4.72-20.84-15.97-21.87-22.02-1.02-6.06,3.62-12.11,8.02-12.82,4.4-.71,10.23,2.83,16.75,6.53,3.69,2.09,2.83,4.8,4.01,7.39,1.18,2.6,5.03,5.66,10.38,3.38,5.35-2.28,7.71-9.67,5.11-12.43-2.59-2.75-6.6-1.81-11.64-1.02-5.03.79-6.92-.47-10.85-2.12-3.93-1.65-9.05-4.25-9.2-7.24-.16-2.99,4.96-7.71,17.62-8.97,12.66-1.26,25.48,3.38,33.35,12.03,5.45,5.99,7.39,11.68,8.06,14.61Z"/>
          <path class="cls-4" d="M40.17,77.63c-1.01-.21-2.02-.45-3.02-.7-6.25-1.62-12.37-4.19-17.22-8.46-4.84-4.26-8.29-10.39-8.33-16.84-.05-6.6,3.38-12.77,7.6-17.85,2.52-3.03,5.39-5.82,8.7-7.97,5.82-3.77,12.83-5.41,19.76-5.56,10.13-.22,20.33,2.7,28.74,8.36,4.78,3.22,9.17,7.62,10.48,13.23.44,1.89.5,3.93-.25,5.72s-2.44,3.26-4.37,3.37c-1.53.09-2.97-.63-4.42-1.11-6.2-2.07-13.63.51-17.21,5.98-1.53,2.34-2.34,5.53-.83,7.88,1.66,2.58,5.24,2.99,8.3,2.79,1.21-.08,2.68-.1,3.34.92.98,1.51-.8,3.21-1.71,4.25-1.19,1.37-2.97,2.43-4.54,3.3-3.35,1.87-7.09,3-10.88,3.46-4.7.58-9.48.18-14.13-.78ZM87.26,37.06c-1.08-2.01-3.02-4.42-4.58-6.08-1.1-1.18-2.41-2.31-3.82-3.2-2.17-1.7-4.75-3.38-7.19-4.55-3.97-1.9-8.17-3.27-12.5-4.07-4.74-.87-9.61-1.23-14.39-.59-4.18.56-8.34,1.67-12.26,3.23-1.98.79-3.88,1.75-5.65,2.89-.1.02-.21.06-.3.14-.14.11-.29.23-.43.34-1.36.93-2.63,1.97-3.81,3.14-3.92,3.37-7.54,7.14-9.8,11.8-1.44,2.98-2.57,6.09-2.8,9.42-.22,3.22.35,6.51,1.44,9.54,2.16,6.01,6.52,11.13,11.89,14.54,4.51,2.86,9.78,4.75,14.95,6.01,6.41,1.55,13.31,2.12,19.68.29,3.9-.88,7.81-2.03,11.01-4.51,1.44-1.11,2.75-2.42,3.67-3.99.69-1.17,1.54-3.17.69-4.44-.18-.4-.42-.74-.72-1.02-1.64-1.55-4.88-1.47-6.93-1.48-2.41-.02-4.27-1.28-4.27-3.89,0-2.16,1.56-3.98,3.05-5.37,1.71-1.59,3.66-3.16,5.98-3.71,2.45-.58,5,.05,7.34.8,1.22.39,2.4.89,3.68,1.04,1.13.13,2.22-.07,3.25-.57,1.15-.57,2.07-1.47,2.76-2.53.52-.78.91-1.64,1.19-2.52,1.2-3.81.71-7.23-1.13-10.65Z"/>
          <path class="cls-4" d="M57.62,44.83c-.73-.96-1.8-1.45-2.96-1.65-2.78-.46-5.8.48-7.63,2.68-.86,1.03-1.46,2.35-1.25,3.72.19,1.22.99,2.23,2,2.89,2.29,1.5,5.26.89,7.35-.67,1.98-1.48,4.35-4.55,2.5-6.97ZM57.03,47.68c-.36,1.05-1.12,2-1.92,2.74-1.55,1.44-3.84,2.36-5.93,1.6-.96-.35-1.88-1.08-2.25-2.06-.41-1.09,0-2.25.65-3.15,1.65-2.24,4.76-3.13,7.4-2.41.25.07.5.15.73.26,1.19.56,1.74,1.78,1.31,3.02Z"/>
          <path class="cls-4" d="M36.74,46.48c-1.63,3.37-2.49,7.04-2.58,10.79-.04,1.86.11,3.73.46,5.56s.78,3.73,1.71,5.29c.19.32.71.11.61-.26-.47-1.7-1.14-3.3-1.49-5.04s-.52-3.62-.48-5.45c.06-3.61.92-7.22,2.49-10.47.23-.48-.48-.9-.72-.42h0Z"/>
          <path class="cls-4" d="M44.55,56.2c-.14,2.89.36,5.76,1.41,8.45,1.02,2.61,2.52,5.2,4.63,7.08.3.27.68-.13.44-.44-1.75-2.18-3.32-4.43-4.31-7.06s-1.45-5.3-1.44-8.03c0-.47-.7-.46-.72,0h0Z"/>
          <path class="cls-4" d="M27.31,43.15c-1.96,1.97-2.7,4.86-3.19,7.51-.54,2.95-.86,6.17-.26,9.14.08.37.67.29.66-.09-.04-1.42-.16-2.83-.12-4.25.04-1.5.19-3,.48-4.47.49-2.51,1.18-5.38,3.02-7.27.36-.37-.2-.94-.57-.57h0Z"/>
          <path class="cls-4" d="M37.84,35.21c1.85-2.47,4.52-4.21,7.41-5.22,3.32-1.16,6.78-1.23,10.25-1.24.29,0,.38-.49.07-.53-6.64-.91-14.24,1.03-18.35,6.63-.28.37.35.73.62.36h0Z"/>
          <path class="cls-4" d="M49.49,37.54c2.76-1.77,5.87-2.93,9.11-3.44,1.6-.25,3.23-.32,4.84-.22,1.7.1,3.31.53,4.99.78.42.06.57-.47.18-.64-1.52-.63-3.33-.79-4.96-.88-1.68-.09-3.37,0-5.03.24-3.37.49-6.62,1.7-9.48,3.54-.38.24-.03.85.35.6h0Z"/>
          <path class="cls-4" d="M64.33,42.9c2.28-.94,4.71-1.4,7.18-1.35,1.21.03,2.41.15,3.58.42s2.37.71,3.56,1.1c.39.13.62-.45.28-.66-2.15-1.28-4.95-1.74-7.42-1.75-2.57-.01-5.11.52-7.48,1.54-.4.17-.11.88.3.71h0Z"/>
        </g>
      </g>
      <rect class="cls-2" width="100" height="100"/>
    </g>
  </g>
</svg>