<?xml version="1.0" encoding="UTF-8"?>
<svg id="Capa_2" data-name="Capa 2" xmlns="http://www.w3.org/2000/svg" viewBox="0 0 100 100">
  <defs>
    <style>
      .cls-1 {
        fill: #fff;
      }

      .cls-2 {
        fill: #f36074;
      }

      .cls-3 {
        fill: none;
      }

      .cls-4 {
        fill: #4a2d2d;
      }
    </style>
  </defs>
  <g id="COLOR">
    <g>
      <g>
        <path class="cls-2" d="M44.42,81.8s-9.06,7.03-6.3,10.14c3.53,3.97,8.44-4.28,8.44-4.28,0,0-2.85,10.26,2.52,10.84,5.92.63,4.28-10.77,4.28-10.77,0,0,3.58,7.96,7.94,5.42,4.09-2.39-1.45-9.32-4.66-11.21-3.21-1.89-12.22-.13-12.22-.13Z"/>
        <path class="cls-1" d="M44.99,84.12c-1.44,1.71-3.32,3.28-4.5,5.19-.2.33.24.63.51.39.84-.73,1.52-1.69,2.25-2.53s1.48-1.7,2.28-2.51c.35-.36-.23-.92-.54-.54h0Z"/>
        <path class="cls-1" d="M49.77,86c-.12,2.29-.5,4.6-.45,6.88,0,.29.42.35.51.07.66-2.22.68-4.66.69-6.95,0-.49-.73-.48-.75,0h0Z"/>
        <path class="cls-1" d="M55.72,85.46c1.19,1.61,2.34,3.28,3.65,4.79.22.25.61-.07.45-.35-.96-1.75-2.25-3.36-3.52-4.89-.27-.32-.83.11-.58.45h0Z"/>
        <path class="cls-4" d="M51.15,38.37c-.19-.02-.37-.02-.56-.04-.05,0-.09-.02-.14-.04-.01,0-.03-.01-.04-.02,0,0,0,0,0,0-.02-.03-.03-.05-.05-.08.01-5.88.86-11.83,1.93-17.59,1.1-5.95,2.46-12.16,4.87-17.74.18-.42.87-.12.73.31-1.85,5.75-3.48,11.43-4.58,17.38-1.09,5.91-1.67,11.84-2.15,17.83,0,0,0,0,0,0Z"/>
        <path class="cls-4" d="M53.15,34c1.71-2.76,7.16,1.28,4.98,3.32-.57.54-1.31.64-2.01.47-.07.19-.15.38-.2.55-.1.31-.37,1.34-.47,1.66-.13-.06-.25-.11-.38-.16-.23-.09-.46-.17-.7-.25-.12-.04-.24-.08-.37-.13.04-.32.27-1.34.38-1.66.08-.24.19-.5.32-.75-1.05-.66-2.26-1.92-1.56-3.05Z"/>
        <path class="cls-4" d="M59.82,59.7l-.07.16c.04-.09.07-.17.11-.26.07-.16.15-.33.2-.49.01-.04.02-.09.03-.14.88.03,2.59.02,3.23-.03,1.8-.13,3.2-.91,4.86-1.48.54-.19,1.04.49.74.97-1.51,2.4-5.86,2.78-9.11,2.34-.05-.08-.08-.35-.2-.53.07-.18.13-.37.21-.55Z"/>
        <path class="cls-4" d="M58.25,65.74c.09.05.15.09.11.06-.03-.02-.07-.05-.1-.07.02-.04.04-.08.05-.12.03-.07.08-.16.1-.24-.03.13,0,0,.03-.04.05-.1.1-.2.15-.3.1-.21.2-.42.29-.63.06-.13.12-.26.16-.4.01-.04.03-.09.04-.13.03,0,.05,0,.08,0,.55.22,1.84.67,2.44.78,1.61.31,3.17,0,4.79-.05.77-.03.98,1.01.38,1.39-2.17,1.38-5.86,1.07-8.39-.06-.02-.01-.08-.07-.15-.13,0-.02.02-.04.03-.06Z"/>
        <path class="cls-4" d="M59.93,55.16c.05-.41.06-.8.04-1.2,1.24-.01,3.43-.2,4.53-.5,1.82-.51,3.43-1.54,5.26-1.97.65-.16,1.18.66.67,1.15-2.14,2.06-6.49,3.37-10.57,3.28,0-.01-.02-.03-.03-.05.04-.23.08-.47.11-.7Z"/>
        <path class="cls-4" d="M48.31,38.37c.19-.02.37-.02.56-.04.05,0,.09-.02.14-.04.01,0,.03-.01.04-.02,0,0,0,0,0,0,.02-.03.03-.05.05-.08-.01-5.88-.86-11.83-1.93-17.59-1.1-5.95-2.46-12.16-4.87-17.74-.18-.42-.87-.12-.73.31,1.85,5.75,3.48,11.43,4.58,17.38,1.09,5.91,1.67,11.84,2.15,17.83,0,0,0,0,0,0Z"/>
        <path class="cls-4" d="M46.31,34c-1.71-2.76-7.16,1.28-4.98,3.32.57.54,1.31.64,2.01.47.07.19.15.38.2.55.1.31.37,1.34.47,1.66.13-.06.25-.11.38-.16.23-.09.46-.17.7-.25.12-.04.24-.08.37-.13-.04-.32-.27-1.34-.38-1.66-.08-.24-.19-.5-.32-.75,1.05-.66,2.26-1.92,1.56-3.05Z"/>
        <path class="cls-4" d="M39.64,59.7l.07.16c-.04-.09-.07-.17-.11-.26-.07-.16-.15-.33-.2-.49-.01-.04-.02-.09-.03-.14-.88.03-2.59.02-3.23-.03-1.8-.13-3.2-.91-4.86-1.48-.54-.19-1.04.49-.74.97,1.51,2.4,5.86,2.78,9.11,2.34.05-.08.08-.35.2-.53-.07-.18-.13-.37-.21-.55Z"/>
        <path class="cls-4" d="M41.21,65.74c-.09.05-.15.09-.11.06.03-.02.07-.05.1-.07-.02-.04-.04-.08-.05-.12-.03-.07-.08-.16-.1-.24.03.13,0,0-.03-.04-.05-.1-.1-.2-.15-.3-.1-.21-.2-.42-.29-.63-.06-.13-.12-.26-.16-.4-.01-.04-.03-.09-.04-.13-.03,0-.05,0-.08,0-.55.22-1.84.67-2.44.78-1.61.31-3.17,0-4.79-.05-.77-.03-.98,1.01-.38,1.39,2.17,1.38,5.86,1.07,8.39-.06.02-.01.08-.07.15-.13,0-.02-.02-.04-.03-.06Z"/>
        <path class="cls-4" d="M39.53,55.16c-.05-.41-.06-.8-.04-1.2-1.24-.01-3.43-.2-4.53-.5-1.82-.51-3.43-1.54-5.26-1.97-.65-.16-1.18.66-.67,1.15,2.14,2.06,6.49,3.37,10.57,3.28,0-.01.02-.03.03-.05-.04-.23-.08-.47-.11-.7Z"/>
        <path class="cls-2" d="M43.6,76.76s-1.89,2.27.06,5.54,5.92,3.91,10.02,3.09c4.09-.82,5.3-4.32,4.91-6.3-.34-1.74-2.83-3.72-4.22-3.97-1.39-.25-10.77,1.64-10.77,1.64Z"/>
        <path class="cls-2" d="M43.6,71.03s-2.08,2.14-1.51,4.41,3.78,5.14,8.88,4.79c5.42-.38,7.12-3.4,7.37-5.04s-.38-3.09-2.2-4.03-12.54-.13-12.54-.13Z"/>
        <path class="cls-2" d="M41.96,66.24s-1.64,3.15.38,5.86,7.18,3.58,11.72,2.2c4.16-1.26,4.72-3.97,4.72-5.73s-1.2-3.53-2.27-4.54-14.55,2.2-14.55,2.2Z"/>
        <path class="cls-2" d="M40.51,13.83s-5.42,5.98-5.04,6.55.94,1.95.5,2.71-3.59,4.47-4.16,7.56c-.57,3.09-.25,5.04-.25,5.04,0,0,3.78-1.01,6.99-6.61,3.21-5.61,2.71-13.54,2.71-14.49s-.76-.76-.76-.76Z"/>
        <path class="cls-2" d="M36.48,5.83s-4.66,2.39-6.36,8.38c-1.7,5.98-.25,15.56.57,18.02.82,2.46.88,3.46.88,3.46,0,0-4.7.29-9.58-3.78-6.11-5.1-8.69-13.61-3.97-21.86C22.75,1.8,30.81.41,34.53,2.36c3.72,1.95,1.95,3.46,1.95,3.46Z"/>
        <path class="cls-2" d="M31.57,35.69c-4.09-.38-5.54,2.27-4.28,4.72,1.65,3.22,8.73,2.1,8.24-1.92-.23-1.88-2.32-2.65-3.95-2.8Z"/>
        <path class="cls-2" d="M31.88,41.99s2.58.5,5.98,3.02c3.4,2.52,3.02,4.22,2.71,5.42s-3.65.94-6.68-1.26c-3.02-2.2-3.97-6.36-3.78-7.31s1.76.13,1.76.13Z"/>
        <path class="cls-2" d="M43.22,40.35c-3.35,2.45-3.91,9.83-4.03,14.17-.13,4.35.38,11.21,2.77,12.91s4.47,2.27,8,2.14c3.53-.13,6.93-.44,9.2-5.54,2.27-5.1,1.76-19.02-.5-22.11-2.27-3.09-8.88-6.36-15.43-1.57Z"/>
        <path class="cls-1" d="M25.5,5.99c-4.21,1.6-8.07,9.63-4.86,13.47.33.39,1.04.27,1.27-.16.98-1.83.82-3.93,1.42-5.89.57-1.89,1.63-4.35,3.22-5.62.83-.66-.07-2.16-1.04-1.79h0Z"/>
        <path class="cls-1" d="M20.11,22.8c.14.68.49,1.32,1.27,1.35l-.51-.14-.11-.09c.31.25.65.36,1.04.2.35-.15.59-.49.59-.87,0-.04,0-.07,0-.11l-.3.71c.31-.37.38-.75.27-1.2-.04-.15-.07-.29-.1-.45-.04-.26-.3-.54-.51-.67-.24-.14-.59-.2-.86-.11-.61.2-.9.76-.78,1.37h0Z"/>
        <path class="cls-2" d="M58.95,13.83s5.42,5.98,5.04,6.55-.94,1.95-.5,2.71c.44.76,3.59,4.47,4.16,7.56s.25,5.04.25,5.04c0,0-3.78-1.01-6.99-6.61-3.21-5.61-2.71-13.54-2.71-14.49s.76-.76.76-.76Z"/>
        <path class="cls-2" d="M62.98,5.83s4.66,2.39,6.36,8.38c1.7,5.98.25,15.56-.57,18.02s-.88,3.46-.88,3.46c0,0,4.7.29,9.58-3.78,6.11-5.1,8.69-13.61,3.97-21.86-4.72-8.25-12.79-9.64-16.5-7.69-3.72,1.95-1.95,3.46-1.95,3.46Z"/>
        <path class="cls-2" d="M67.89,35.69c4.09-.38,5.54,2.27,4.28,4.72-1.65,3.22-8.73,2.1-8.24-1.92.23-1.88,2.32-2.65,3.95-2.8Z"/>
        <path class="cls-2" d="M67.58,41.99s-2.58.5-5.98,3.02c-3.4,2.52-3.02,4.22-2.71,5.42.31,1.2,3.65.94,6.68-1.26,3.02-2.2,3.97-6.36,3.78-7.31-.19-.94-1.76.13-1.76.13Z"/>
        <path class="cls-1" d="M73.96,5.99c4.21,1.6,8.07,9.63,4.86,13.47-.33.39-1.04.27-1.27-.16-.98-1.83-.82-3.93-1.42-5.89-.57-1.89-1.63-4.35-3.22-5.62-.83-.66.07-2.16,1.04-1.79h0Z"/>
        <path class="cls-1" d="M79.35,22.8c-.14.68-.49,1.32-1.27,1.35l.51-.14.11-.09c-.31.25-.65.36-1.04.2-.35-.15-.59-.49-.59-.87,0-.04,0-.07,0-.11l.3.71c-.31-.37-.38-.75-.27-1.2.04-.15.07-.29.1-.45.04-.26.3-.54.51-.67.24-.14.59-.2.86-.11.61.2.9.76.78,1.37h0Z"/>
        <path class="cls-1" d="M70.13,38.71s-.02.08-.03.13l.03-.25c0,.07,0,.13,0,.2,0,.16-.04.32-.12.46-.08.14-.19.25-.33.33-.07.03-.14.07-.22.09l-.24.03c-.13,0-.24-.02-.35-.08-.18-.07-.34-.2-.44-.37-.18-.33-.18-.67-.11-1.04.04-.22.24-.45.43-.56.2-.12.5-.17.72-.09s.45.21.56.43.17.48.09.72h0Z"/>
        <path class="cls-1" d="M29.33,38.71s.02.08.03.13l-.03-.25c0,.07,0,.13,0,.2,0,.16.04.32.12.46.08.14.19.25.33.33.07.03.14.07.22.09l.24.03c.13,0,.24-.02.35-.08.18-.07.34-.2.44-.37.18-.33.18-.67.11-1.04-.04-.22-.24-.45-.43-.56-.2-.12-.5-.17-.72-.09s-.45.21-.56.43-.17.48-.09.72h0Z"/>
        <path class="cls-1" d="M47.63,39.93c-2.33.4-4.11,1.86-5.18,3.96-.99,1.94-1.85,5.3-.26,7.08.43.49,1.13.26,1.46-.19.98-1.35.58-3.33,1.06-4.89.53-1.72,1.72-3.35,3.44-4.04,1.19-.48.75-2.14-.53-1.92h0Z"/>
        <path class="cls-1" d="M41.65,54.13c.07.14.17.26.28.37.35.36.98.36,1.33,0,.11-.11.21-.23.28-.37.1-.17.15-.35.15-.55,0-.2-.05-.38-.15-.55-.19-.33-.56-.54-.94-.54s-.75.21-.94.54c-.1.17-.15.35-.15.55,0,.2.05.38.15.55h0Z"/>
        <path class="cls-4" d="M41.43,67.34c4.54,3.81,12.94,4.01,16.87-.83.23-.28-.13-.66-.41-.41-4.84,4.42-10.63,3.62-16.04.71-.32-.17-.72.28-.41.53h0Z"/>
        <path class="cls-4" d="M42.43,72.88c4.48,2.73,11.59,3.62,15.56-.54.29-.31-.09-.85-.47-.6-2.31,1.47-4.47,2.48-7.27,2.51-2.64.02-5.16-.76-7.5-1.92-.37-.18-.69.34-.33.56h0Z"/>
        <path class="cls-4" d="M43.09,77.98c3.97,3.53,11.06,3.84,14.8-.28.32-.35-.11-1.01-.54-.7-2.11,1.53-4.06,2.56-6.72,2.66-2.6.1-5.03-.71-7.11-2.25-.33-.24-.74.29-.43.56h0Z"/>
        <path class="cls-4" d="M43.52,82.98c1.6,1.93,4.25,3.24,6.76,3.39s6.78-.92,7.8-3.46c.15-.37-.39-.64-.64-.37-3.56,3.7-9.81,3.5-13.42-.06-.33-.33-.79.16-.5.5h0Z"/>
      </g>
      <rect class="cls-3" width="100" height="100"/>
    </g>
  </g>
</svg>