<?xml version="1.0" encoding="UTF-8"?>
<svg id="Capa_2" data-name="Capa 2" xmlns="http://www.w3.org/2000/svg" viewBox="0 0 100 100">
  <defs>
    <style>
      .cls-1 {
        fill: #fff;
      }

      .cls-2 {
        fill: none;
      }

      .cls-3 {
        fill: #4a2d2d;
      }

      .cls-4 {
        fill: #fab34b;
      }

      .cls-5 {
        fill: #776262;
      }
    </style>
  </defs>
  <g id="COLOR">
    <g>
      <g>
        <g>
          <g>
            <path class="cls-5" d="M57.86,20.68c-4.43-7.88-14.42-11.3-22.97-9.24-8.81,2.12-14.59,9.17-17.11,17.62-2.94,9.87-3.53,20.53-2.22,30.71.36,2.82.86,5.63,1.53,8.4.48,1.98,1,4.34,2.82,5.56,2.47,1.65,5.87.66,8.2-.77,8.14-5,14.52-11.86,20.86-18.9,4.55-5.05,10.32-10.16,11.4-17.17,1.22-7.88.18-11.43-2.51-16.22Z"/>
            <path class="cls-3" d="M22.3,66.75c-.3-.45-.98-.27-1.01.27-.02.31.09.65.14.96.06.33.47.54.78.44.31-.1.56-.44.44-.78-.11-.29-.19-.63-.36-.89Z"/>
            <path class="cls-3" d="M31.82,63.21c-2.17-1.25-5.39.06-7.22,1.4-.47.34-.05,1.11.47.8,1.14-.69,2.32-1.1,3.64-1.23,1-.1,2,.1,2.99-.04.44-.06.46-.72.12-.91Z"/>
            <path class="cls-3" d="M20.66,58.19c-.51.35-.04,1.19.49.84,1.92-1.27,4.69-1.84,6.98-1.71,2.56.15,4.11,1.7,5.57,3.62.36.48,1.32.23,1.07-.45-2.03-5.5-10.11-5.09-14.11-2.31Z"/>
            <path class="cls-3" d="M29.17,49.61c-4.04.81-7.38,3.2-9.59,6.65-.25.4.37.75.63.37,2.09-3.09,5.61-5.23,9.28-5.85,2.02-.34,4.09-.23,6.09.23,1.85.43,3.5,1.41,5.32,1.86.52.13.93-.52.53-.91-2.9-2.82-8.54-3.1-12.26-2.35Z"/>
            <path class="cls-3" d="M33.5,43.31c-2.22-.11-4.44.17-6.59.72-2.11.54-4.75,1.25-6.45,2.67-.42.35.04.94.49.85,1.96-.41,3.77-1.55,5.71-2.1,2.05-.59,4.19-.95,6.32-.86,3.76.16,7.34,1.61,9.92,4.38.57.61,1.45-.29.91-.91-2.58-2.97-6.43-4.56-10.32-4.74Z"/>
            <path class="cls-3" d="M45.11,36.69c-3.08-.99-6.31-1.11-9.5-.7-5.41.69-11.75,2.7-15.35,7.08-.58.71.32,1.64,1.01,1.01,1.99-1.78,3.94-3.35,6.39-4.46,2.55-1.15,5.32-1.85,8.09-2.21,2.96-.39,5.86-.34,8.73.55,2.77.87,4.81,2.5,7.26,3.92.6.35,1.14-.43.71-.92-1.81-2.08-4.76-3.44-7.34-4.27Z"/>
            <path class="cls-3" d="M25.64,32.59c3.13-1.8,6.56-2.88,10.19-2.87,3.81.01,6.76,1.39,10.1,2.99.7.33,1.56-.57.89-1.15-2.83-2.4-7.12-3.25-10.73-3.27-3.89-.02-7.83,1.06-10.97,3.39-.52.39-.07,1.24.53.9Z"/>
            <path class="cls-3" d="M53.09,28.52c-1.56-2.33-3.78-4.23-6.33-5.4-5.99-2.77-13.24-.42-18.58,2.7-.49.29-.05,1.04.45.76,4.86-2.65,12.39-4.57,17.59-2,2.23,1.11,4.12,2.8,5.61,4.79,1.63,2.17,1.98,4.52,2.87,6.99.23.65,1.14.53,1.19-.16.2-2.65-1.38-5.55-2.8-7.68Z"/>
            <path class="cls-3" d="M45.76,18.46c1.34.58,2.65,1.26,3.75,2.23,1.05.93,1.67,2.23,2.69,3.14.42.38.97,0,.89-.52-.22-1.44-1.68-2.84-2.75-3.72-1.23-1.01-2.6-1.75-4.15-2.11-.56-.13-1,.73-.42.99Z"/>
            <path class="cls-3" d="M54.34,27.28c.3.15.76.04.83-.34.1-.55-.22-1.06-.43-1.55-.15-.36-.7-.46-1.01-.26-.34.22-.47.65-.26,1.01.22.39.45.94.87,1.15Z"/>
          </g>
          <path class="cls-1" d="M41.37,15.66c-4.37-1.09-8.95-.29-12.72,2.24-2.75,1.84-6.99,5.76-6.4,9.45.12.78,1.11.82,1.59.42,1.22-1.01,1.79-2.75,2.73-4.01,1.02-1.37,2.29-2.61,3.72-3.55,3.17-2.1,7.05-2.89,10.82-2.69,1.06.05,1.27-1.59.25-1.85h0Z"/>
          <path class="cls-1" d="M20.64,31.42c-.18.67-.42,1.39-.08,2.05.16.31.6.4.88.23.62-.38.8-1.13.99-1.79.14-.47-.17-1.03-.65-1.14s-1,.15-1.14.65h0Z"/>
        </g>
        <g>
          <path class="cls-5" d="M88.33,54.62c-.96-6.18-5.53-15.1-19.51-15.1-17.97,0-44.59,34.18-43.37,41.04,1.22,6.87,15.71,7.71,27.09,7.62,11.38-.09,23.62-3.46,30.1-11.48,5.55-6.87,6.66-15.79,5.69-22.09Z"/>
          <path class="cls-3" d="M86.12,54.9c-.38-4.54-1.9-9.11-5.48-12.13-4.71-3.97-11.56-4.39-17.35-2.73-2.66.76-4.96,1.79-7.32,3.2-2.06,1.23-4.13,2.41-6.1,3.78-3.99,2.77-7.67,5.99-10.97,9.56-2.89,3.13-5.49,6.54-7.74,10.17-1.14,1.83-2.19,3.73-3.14,5.66-.9,1.83-2.18,3.9-2.06,6,.18,2.82,2.92,4.18,5.37,4.61,3.54.62,7.21,1.07,10.79,1.37,13.73,1.17,30.97-.37,39.67-12.63,3.44-4.85,4.82-10.99,4.33-16.86ZM82.04,67.04c-2.45,5.49-7.62,9.47-13,11.89-6.25,2.81-13.52,3.53-20.3,3.54-3.37,0-6.75-.17-10.11-.35-1.59-.09-3.18-.23-4.76-.4-1.7-.18-3.63-.24-5.09-1.23-3.02-2.04.3-6.86,1.59-9.26,1.3-2.41,2.75-4.72,4.31-6.96,3.57-5.13,7.9-9.73,12.75-13.66,7.83-6.34,18.55-12.37,28.79-7.96.05.02.11.05.16.07,3.62,1.6,6.06,4.44,7.03,8.29,1.3,5.17.8,11.17-1.37,16.03Z"/>
          <path class="cls-4" d="M79.66,51.7c-.3,0-3.51-7.7-12.26-5.9-8.75,1.79-17.71,13.38-21.45,17.79-3.74,4.41-5.16,8.6-.6,11.88,4.56,3.29,10.84,5.38,21.53.52,10.69-4.86,13.98-11.66,15.02-16.59,1.05-4.93.15-7.7-2.24-7.7Z"/>
          <path class="cls-3" d="M32.3,79.77c.67-1.32,1.44-2.59,2.39-3.73.89-1.07,1.97-1.94,2.9-2.97.41-.46-.11-1.22-.68-.88-2.5,1.49-4.39,4.43-5.64,6.98-.33.68.68,1.28,1.02.6Z"/>
          <path class="cls-3" d="M40.19,70.17c.87,0,.87-1.36,0-1.36s-.87,1.36,0,1.36Z"/>
          <path class="cls-1" d="M73.08,50.34c-3.21-1.68-6.53-.92-9.67.6-2.52,1.22-6.82,3.37-7.47,6.39-.16.74.55,1.23,1.21.93,1.09-.5,1.92-1.37,2.84-2.11,1.15-.92,2.42-1.71,3.7-2.44,2.67-1.55,5.67-2.57,8.8-1.96.81.16,1.41-.98.59-1.41h0Z"/>
          <path class="cls-1" d="M53.36,60.16c-.25.28-.5.55-.73.84-.32.41-.67.84-.53,1.39.09.36.4.52.74.57.46.06.87-.35,1.17-.65.25-.25.48-.52.71-.78.34-.38.4-1,0-1.37-.37-.34-1.01-.4-1.37,0h0Z"/>
          <path class="cls-3" d="M75.24,55.78c-.78,1.31-1.81,2.48-2.97,3.46-2.55,2.15-5.66,3.44-8.82,4.4-5.47,1.68-10.58,3.8-12.27,9.8-.38,1.34,1.38,2.03,2.15,1.21.96-.42,1.62-1.19,2.3-2.03,1.12-1.39,2.31-2.66,3.93-3.47,3-1.49,6.47-1.7,9.51-3.13,2.54-1.19,4.75-3.04,6.44-5.27.97-1.27,1.68-2.71,2.33-4.16.32-.72.62-1.44.94-2.17.37-.86,1.23-1.91.89-2.9-.53-1.54-2.66.44-3.05,1.12-.58.99-.78,2.15-1.37,3.14ZM68.76,64.52c-2.88,1.5-6.2,1.76-9.1,3.21-1.34.67-2.49,1.64-3.5,2.73-.7.76-1.37,1.65-2.14,2.39.54-1.41,1.35-2.69,2.44-3.77,1.7-1.68,4.02-2.28,6.26-2.88,2.8-.75,5.63-1.6,8.16-3.01-.67.49-1.37.94-2.11,1.32Z"/>
        </g>
      </g>
      <rect class="cls-2" width="100" height="100"/>
    </g>
  </g>
</svg>