<?xml version="1.0" encoding="UTF-8"?>
<svg id="Capa_2" data-name="Capa 2" xmlns="http://www.w3.org/2000/svg" viewBox="0 0 100 100">
  <defs>
    <style>
      .cls-1 {
        fill: #fff;
      }

      .cls-2 {
        fill: none;
      }

      .cls-3 {
        fill: #4a2d2d;
      }

      .cls-4 {
        fill: #6fb0ac;
      }
    </style>
  </defs>
  <g id="COLOR">
    <g>
      <g>
        <path class="cls-4" d="M45.88,2.09c-12.83,2.41-15.59,15.32-14.34,25.12,1.25,9.8,6.24,23.87,6.32,24.85.09.98-6.41,8.55-15.5,6.95-9.09-1.6-11.4-9.35-8.19-16.03,3.05-6.35,9.98-13.63,8.73-20.75s-10.42-8.02-13.09-6.41c-2.67,1.6,2.76.89,5.17,3.21,2.41,2.32,4.19,5.7,1.07,10.87-3.12,5.17-9.61,11.42-9.26,20.13.36,9.09,8.91,16.75,19.6,14.7,10.69-2.05,14.19-9.26,14.19-9.26,0,0,1.27.18.2,4.54-1.07,4.36-3.43,7.22-9.84,8.91-6.41,1.69-15.32-2.14-20.67,3.21-5.34,5.34-1.78,15.05,4.54,17.1s5.61-1.51,4.81-2.05-5.26.45-6.77-3.12c-1.51-3.56-.25-8.99,5.79-9.44,5.97-.45,10.51,1.96,18.35-1.34,7.72-3.25,8.73-11.94,8.91-14.43s-.36-3.23.36-3.32c.71-.09,3.21,5.19,1.69,11.42-1.51,6.24-12.92,10.6-13.01,18.88-.09,8.28,6.24,12.74,10.87,11.94,4.63-.8.62-2.32-.71-3.47-1.34-1.16-4.9-3.38-3.92-8.73.98-5.34,9.5-11.69,11.22-15.68,1.96-4.54,1.28-7.87.77-11.02-.3-1.87-.85-3.4-.2-3.51s.96,1.53,1.57,3.01c1.28,3.08,3.75,8.62,10.62,12.06,10.15,5.08,13.83,11.94,9.82,17.64-4.01,5.7-11.42,5.08-14.47,1.87-3.25-3.41-.62-8.91-1.69-9.53-1.07-.62-3.34,1.71-3.14,6.52.24,5.75,5.28,12.69,15.83,10.22,10.88-2.55,12.67-13.01,9.66-18.8-3.25-6.26-11.13-9.53-15.23-13.09-4.1-3.56-8.06-9.46-6.99-9.87.7-.26,7.17,11.2,19.2,9.95s17.19-12.29,14.88-20.49c-2.32-8.19-10.96-13.81-11.05-19.69-.09-5.88,3.74-7.3,5.88-7.75s2.58-.98,2.32-1.6-5.61-2.58-10.24,1.07c-4.81,3.79-3.3,12.47.53,17.99,3.83,5.52,8.58,11.91,5.79,18.8-2.49,6.15-8.82,8.37-16.12,5.08-4.27-1.93-8.64-7.22-8.64-7.22,0,0,5.3-16.4,6.24-27.52,1.34-15.86-9-24.32-21.82-21.91Z"/>
        <path class="cls-3" d="M35.34,39.55c-5.32,1.88-3.14,10.09,2,9.42,2.94-.38,5.05-2.42,4.74-5.08-.4-3.47-3.54-5.48-6.75-4.34Z"/>
        <path class="cls-3" d="M64.04,39.55c5.32,1.88,3.14,10.09-2,9.42-2.94-.38-5.05-2.42-4.74-5.08.4-3.47,3.54-5.48,6.75-4.34Z"/>
        <path class="cls-1" d="M35.95,44.34c1.87,0,1.87-2.9,0-2.9s-1.87,2.9,0,2.9h0Z"/>
        <path class="cls-1" d="M60.54,41.57l-.07.07,1.28-.34h-.01c-.24-.07-.49-.07-.73,0-.18.04-.34.13-.47.25-.15.1-.27.23-.36.39-.12.22-.19.45-.19.7v.02c.01.12.03.24.05.37l.14.33.21.28c.12.13.27.23.44.28.11.06.22.09.35.09.12.03.24.03.37,0,.12,0,.24-.03.35-.09.17-.06.32-.15.44-.28h.02c.13-.14.23-.29.29-.46.09-.16.13-.34.12-.53l-.05-.37c-.07-.23-.18-.44-.36-.61h-.02c.11.41.23.84.34,1.27l.02-.1.05-.34c0-.18-.03-.34-.11-.5-.03-.11-.09-.2-.17-.28-.09-.14-.21-.25-.36-.33l-.31-.13-.34-.05c-.18,0-.34.03-.5.11-.16.05-.3.14-.41.27h0Z"/>
        <path class="cls-3" d="M60.11,17.18c.06-.16.15-.29.28-.4.16-.2.35-.35.59-.45.17-.05.33-.1.5-.16.34-.06.68-.03,1.01.09.03.02.07.03.1.04.24.08.45.22.62.4.2.16.35.35.45.59.12.24.18.49.17.76.03.26,0,.51-.1.75-.19.45-.52.88-.99,1.08-.17.05-.33.1-.5.16-.35.06-.68.03-1.01-.1-.18-.07-.37-.18-.53-.28-.22-.14-.38-.32-.5-.55-.16-.21-.26-.44-.29-.71,0-.17-.01-.35-.02-.52.02-.26.09-.49.23-.71Z"/>
        <path class="cls-3" d="M55.46,13.59c-.14-.18-.23-.39-.26-.62,0-.15-.01-.31-.02-.46.03-.3.13-.57.31-.82.1-.11.2-.21.3-.32.24-.2.51-.32.81-.38.23-.05.46-.04.67.03.22.03.42.12.6.26.19.12.34.29.44.48.14.18.23.39.26.62,0,.15.01.31.02.46-.03.3-.13.57-.31.82-.1.11-.2.21-.3.32-.24.2-.51.32-.81.38-.23.05-.46.04-.67-.03-.22-.03-.42-.12-.6-.26-.19-.12-.34-.29-.44-.48Z"/>
        <path class="cls-3" d="M55.43,19.36c1.99-.34,2.53,2.76.53,3.1-1.99.34-2.53-2.76-.53-3.1Z"/>
        <path class="cls-3" d="M17.77,19.35l.12-.02c.13-.04.25-.1.35-.2.1-.1.16-.21.2-.35.04-.11.04-.31,0-.42-.04-.13-.1-.25-.2-.35-.1-.1-.21-.16-.35-.2l-.12-.02c-.14-.04-.29-.04-.43,0-.14.04-.26.11-.36.21l-.13.16c-.07.13-.11.26-.11.41,0,.11.02.21.07.31.03.1.09.19.17.26.1.1.22.17.36.21.14.04.29.04.43,0h0Z"/>
        <path class="cls-3" d="M18.2,22.17s.01.05.02.08l.08.19c.05.09.12.16.2.22.05.05.11.08.17.1.09.05.19.07.3.07l.21-.03.19-.08c.09-.05.16-.12.22-.2.07-.08.12-.16.14-.27,0-.03.02-.05.02-.08.08-.27,0-.6-.21-.79l-.16-.13c-.13-.07-.26-.11-.41-.11-.11,0-.21.02-.31.07-.1.03-.19.09-.26.17-.2.2-.29.51-.21.79h0Z"/>
        <path class="cls-3" d="M18.98,27.53c.98,0,.98-1.52,0-1.52s-.98,1.52,0,1.52h0Z"/>
        <path class="cls-3" d="M9.34,54l.03.17.05.13c.03.06.08.11.14.15.03.03.07.06.12.07.06.03.13.05.21.05.1,0,.19-.03.27-.07.06-.03.11-.08.15-.14.05-.05.08-.11.1-.18l.03-.17c.03-.1.03-.2,0-.3-.03-.1-.08-.18-.15-.25-.11-.1-.25-.17-.41-.17-.15,0-.3.06-.41.17-.07.07-.12.16-.15.25-.03.1-.03.2,0,.3h0Z"/>
        <path class="cls-3" d="M11.67,58.57c1.04,0,1.04-1.62,0-1.62s-1.04,1.62,0,1.62h0Z"/>
        <path class="cls-3" d="M14.7,61.07c.14,0,.26-.02.38-.09.12-.04.23-.11.32-.2.1-.09.16-.2.2-.32.06-.12.09-.24.09-.38l-.04-.26c-.05-.17-.13-.31-.25-.44l-.2-.15c-.15-.09-.32-.13-.5-.13-.14,0-.26.02-.38.09-.12.04-.23.11-.32.2-.1.09-.16.2-.2.32-.06.12-.09.24-.09.38l.04.26c.05.17.13.31.25.44l.2.15c.15.09.32.13.5.13h0Z"/>
        <path class="cls-3" d="M29.98,61.59s.03.04.04.06c.07.12.17.22.3.3.13.08.27.11.42.11.15,0,.29-.04.42-.11.12-.07.22-.17.3-.3.01-.02.03-.04.04-.06.08-.14.12-.28.12-.44,0-.16-.04-.31-.12-.44-.16-.27-.45-.44-.76-.44s-.6.17-.76.44c-.08.14-.12.28-.12.44,0,.16.04.31.12.44h0Z"/>
        <path class="cls-3" d="M9.89,82.42c1.23,0,1.23-1.91,0-1.91s-1.23,1.91,0,1.91h0Z"/>
        <path class="cls-3" d="M10.07,78.55c1.07,0,1.07-1.66,0-1.66s-1.07,1.66,0,1.66h0Z"/>
        <path class="cls-3" d="M12.21,75.89c1.08,0,1.08-1.68,0-1.68s-1.08,1.68,0,1.68h0Z"/>
        <path class="cls-3" d="M26.99,73.76c1.09,0,1.09-1.69,0-1.69s-1.09,1.69,0,1.69h0Z"/>
        <path class="cls-3" d="M30.56,73.59c1.1,0,1.1-1.71,0-1.71s-1.1,1.71,0,1.71h0Z"/>
        <path class="cls-3" d="M34.54,72.79c.07-.08.13-.16.19-.24.13-.19.13-.51,0-.7-.06-.08-.12-.16-.19-.24l-.17-.13-.2-.08c-.11-.03-.22-.04-.33-.01-.08,0-.15.02-.21.06-.07.02-.13.06-.19.11-.06.04-.11.09-.15.15-.05.05-.09.11-.11.19-.05.1-.08.21-.07.32l.03.22.08.2.13.17.17.13.2.08c.11.03.22.04.33.01.08,0,.15-.02.21-.06.1-.03.19-.09.27-.17h0Z"/>
        <path class="cls-3" d="M51.4,63.35c.13,0,.25-.02.37-.08.12-.04.22-.1.31-.2.09-.09.16-.19.2-.31.06-.11.09-.23.08-.37l-.03-.25c-.05-.16-.13-.3-.24-.42l-.19-.15c-.15-.09-.31-.13-.48-.13-.13,0-.25.02-.37.08-.12.04-.22.1-.31.2-.09.09-.16.19-.2.31-.06.11-.09.23-.08.37l.03.25c.05.16.13.3.24.42l.19.15c.15.09.31.13.48.13h0Z"/>
        <path class="cls-3" d="M51.4,66.42c1.05,0,1.05-1.63,0-1.63s-1.05,1.63,0,1.63h0Z"/>
        <path class="cls-3" d="M50.33,69.25c1.02,0,1.02-1.58,0-1.58s-1.02,1.58,0,1.58h0Z"/>
        <path class="cls-3" d="M42.32,80.3c1.03,0,1.03-1.6,0-1.6s-1.03,1.6,0,1.6h0Z"/>
        <path class="cls-3" d="M39.43,82.27s-.05.06-.06.09l-.09.2c-.04.11-.04.22-.02.34,0,.08.02.15.06.21.03.1.09.2.17.27l.17.13.2.09c.11.04.22.04.34.02.11,0,.22-.04.31-.1.03-.01.06-.04.09-.06.13-.08.23-.18.31-.31.08-.13.12-.28.12-.44l-.03-.23c-.04-.15-.11-.27-.22-.38-.08-.08-.17-.14-.28-.18-.1-.05-.21-.08-.33-.07-.16,0-.3.04-.44.12-.13.08-.23.18-.31.31h0Z"/>
        <path class="cls-3" d="M39.11,87.44c1.05,0,1.05-1.63,0-1.63s-1.05,1.63,0,1.63h0Z"/>
        <path class="cls-3" d="M58.42,91.01s.04.03.06.05c.13.11.2.17.37.21.08.02-.04.03.21.03s.13,0,.21-.03c.17-.05.24-.1.37-.21.02-.02.04-.03.06-.05l.14-.18.09-.22c.04-.12.04-.24.02-.36,0-.08-.02-.16-.06-.23-.02-.08-.06-.14-.12-.2-.04-.07-.09-.12-.16-.16-.06-.06-.12-.09-.2-.12-.11-.06-.22-.08-.35-.08l-.24.03-.22.09-.18.14-.14.18-.09.22c-.04.12-.04.24-.02.36,0,.08.02.16.06.23.04.11.1.21.19.29h0Z"/>
        <path class="cls-3" d="M61.7,93.88c.17.1.35.21.57.19.09,0,.18-.02.26-.06.08-.03.16-.07.22-.14l.11-.14c.06-.11.09-.22.09-.34v-.02s0,0,0-.01l-.03-.19c-.02-.08-.06-.15-.1-.22l-.07-.12c-.13-.23-.39-.39-.66-.38l-.2.03c-.13.04-.24.1-.34.2-.07.07-.13.15-.16.25-.05.09-.07.19-.07.3,0,.27.15.52.38.66h0Z"/>
        <path class="cls-3" d="M65.12,95.14c.12,0,.23-.02.33-.07.11-.03.2-.09.28-.18.08-.08.14-.17.18-.28.05-.1.08-.21.07-.33l-.03-.23c-.04-.14-.11-.27-.22-.38l-.17-.13c-.13-.08-.28-.12-.43-.12-.12,0-.23.02-.33.07-.11.03-.2.09-.28.18-.08.08-.14.17-.18.28-.05.1-.08.21-.07.33l.03.23c.04.14.11.27.22.38l.17.13c.13.08.28.12.43.12h0Z"/>
        <path class="cls-3" d="M77.7,82.9s.05.03.08.05c.19.13.51.13.7,0,.02-.02.05-.03.08-.05.1-.05.18-.13.24-.22.05-.05.09-.12.11-.19.05-.1.08-.21.07-.33l-.03-.23-.09-.2c-.05-.1-.13-.18-.22-.24-.05-.05-.12-.09-.19-.11-.1-.05-.21-.08-.33-.07l-.23.03-.2.09c-.1.05-.18.13-.24.22-.05.05-.09.12-.11.19-.05.1-.08.21-.07.33l.03.23.09.2c.08.13.18.23.3.3h0Z"/>
        <path class="cls-3" d="M77.54,86.2l.16.03c.16.04.31.04.47,0,.15-.04.28-.12.39-.23l.14-.18c.08-.14.12-.28.12-.44,0-.12-.02-.23-.08-.34-.04-.11-.1-.2-.18-.28-.11-.11-.24-.18-.39-.23-.16-.04-.31-.04-.47,0l-.16.03-.2.09c-.1.05-.18.13-.24.22-.05.05-.09.12-.11.19-.05.1-.08.21-.07.33l.03.23.09.2c.05.1.13.18.22.24.08.07.18.13.29.15h0Z"/>
        <path class="cls-3" d="M62.8,67.88c1.09,0,1.09-1.69,0-1.69s-1.09,1.69,0,1.69h0Z"/>
        <path class="cls-3" d="M86.32,60.59c1.11,0,1.11-1.73,0-1.73s-1.11,1.73,0,1.73h0Z"/>
        <path class="cls-3" d="M88.55,57.31s.06.02.09.02c.05.01.1.02.15.02.05.02.1.02.15.02.18,0,.39-.06.54-.15.15-.09.27-.21.36-.36.09-.16.14-.33.14-.51,0-.18-.05-.35-.14-.51-.09-.15-.21-.27-.36-.36-.24-.16-.56-.19-.84-.11-.03,0-.06.02-.09.02l-.24.1c-.12.06-.21.15-.28.26-.06.06-.11.14-.13.22-.06.12-.09.25-.09.39l.04.27.1.24c.06.12.15.21.26.28.1.09.21.15.34.18h0Z"/>
        <path class="cls-3" d="M91.49,52.94c-.03-.08-.06-.19-.11-.26-.06-.11-.15-.19-.25-.25-.11-.06-.23-.1-.36-.1-.13,0-.25.03-.36.1-.11.06-.19.15-.25.25-.05.07-.08.17-.11.26-.04.13-.04.26,0,.4.04.13.1.24.19.33l.15.12c.12.07.24.1.38.1.1,0,.2-.02.29-.06.09-.03.17-.08.24-.15.09-.09.16-.2.19-.33.04-.13.04-.26,0-.4h0Z"/>
        <path class="cls-3" d="M84.36,34.45c1.18,0,1.18-1.84,0-1.84s-1.18,1.84,0,1.84h0Z"/>
        <path class="cls-3" d="M82.05,30.08c-.01-.08-.02-.16-.03-.24s-.06-.17-.09-.24c-.07-.13-.2-.26-.33-.32-.13-.07-.29-.13-.45-.12s-.3.04-.44.12c-.1.06-.19.14-.26.24-.06.06-.09.12-.12.2-.03.04-.04.08-.05.12-.02.08-.02.17-.04.25-.04.17-.04.33,0,.5.04.16.12.3.24.41.18.17.41.27.66.27.24,0,.49-.1.66-.27.12-.12.2-.25.24-.41.04-.17.04-.33,0-.5h0Z"/>
      </g>
      <rect class="cls-2" width="100" height="100"/>
    </g>
  </g>
</svg>