<?xml version="1.0" encoding="UTF-8"?>
<svg id="Capa_2" data-name="Capa 2" xmlns="http://www.w3.org/2000/svg" viewBox="0 0 100 100">
  <defs>
    <style>
      .cls-1 {
        fill: #cde3e2;
      }

      .cls-2 {
        fill: #fff;
      }

      .cls-3 {
        fill: none;
      }

      .cls-4 {
        fill: #4a2d2d;
      }

      .cls-5 {
        fill: #6fb0ac;
      }
    </style>
  </defs>
  <g id="COLOR">
    <g>
      <g>
        <path class="cls-2" d="M28.74,63.69s-3.39-10.54-11.49-10.92c-8.1-.38-11.86,12.43-8.66,22.78s9.92,17.34,16.92,13.94c6.99-3.4,5.11-21.1,3.23-25.81Z"/>
        <g>
          <path class="cls-4" d="M23,72.38c-.18-2.76-1.18-9.05-4.96-9.91-4.46-1.02-6.57,5.17-4.96,11.2,1.62,6.03,4.73,8.66,7.54,6.79,2.26-1.51,2.51-5.98,2.37-8.08Z"/>
          <path class="cls-5" d="M91.6,47.35s5.48-9.61.24-22.26c-5.24-12.65-17.25-16.74-28.5-13.29-11.25,3.45-13.93,18.66-15.59,25.69-1.66,7.03-3.58,9.33-10.1,10.74-6.52,1.41-13.29.89-17.38,2.17-4.09,1.28-7.41,2.94-7.41,2.94,0,0,8.31-2.17,12.78,4.47,4.47,6.65,5.24,12.91,4.98,18.15-.26,5.24-1.66,9.33-1.66,9.33,0,0,22.11-11.5,25.18-19.94,3.07-8.43,2.43-31.95,14.06-36.17,11.63-4.22,17.89-.26,20.06,3.32,2.17,3.58,3.34,14.85,3.34,14.85Z"/>
          <path class="cls-1" d="M91.46,35.7c-1.28-5.11-1.15-8.82-10.48-12.14-9.33-3.32-18.28,1.66-22.37,11.12-4.09,9.46-3.71,18.02-8.95,26.2-5.24,8.18-11.89,11.63-14.19,12.52-2.3.89-5.11,1.66-5.11,1.66,0,0,.26,5.5-.89,8.82-1.15,3.32-3.96,5.62-3.96,5.62,0,0,4.98,2.04,16.49-2.56.07-.03.13-.05.19-.08-1.51-.25-2.98-1.01-3.14-2.66-.12-1.2.64-2.32,1.4-3.17.87-.97,1.96-1.68,3.18-2.15,1.18-.45,2.5-.61,3.76-.49,1.09.1,2.25.45,2.85,1.44.5.82.5,1.67.21,2.46,3.16-2.29,5.76-4.93,7.78-7.73-.45.09-.92.08-1.38-.04-.8-.21-1.47-.77-1.65-1.6-.15-.75,0-1.52.24-2.23.28-.83.64-1.6,1.19-2.28.56-.7,1.3-1.28,2.07-1.73.9-.53,2-.88,2.92-.19.22.16.39.35.53.55.21-.65.4-1.3.55-1.95.39-1.69.67-3.71.92-5.88,0,0-.02,0-.03-.01-.8-.45-1.3-1.35-1.58-2.19-.15-.45-.19-.92-.22-1.39-.03-.65-.05-1.29.05-1.93.2-1.39,1.23-3.39,2.75-3.66.35-2.93.8-5.76,1.49-8.18-.26-.19-.49-.42-.68-.68-1.21-1.63-.55-3.94.94-5.14,1.04-.84,2.82-1.78,4.05-1.02,2.22-1.63,4.7-2.5,6.95-2.41.07-.23.15-.44.24-.62.55-1.14,2.11-1.28,3.22-1.15,1.2.14,2.53.62,3.33,1.57.71.84.84,1.99.33,2.97-.22.42-.58.8-1,1.03-.07.04-.13.07-.2.1.19.39.37.8.52,1.25,2.3,6.77.26,9.97,4.73,10.99,4.47,1.02,4.22-7.92,2.94-13.04Z"/>
          <g>
            <path class="cls-4" d="M51.28,79.8c-2.11-5.7-14.32-.58-12.86,4.96.88,3.34,5.57,2.6,7.92,1.59,2.15-.93,5.97-3.77,4.95-6.55ZM49.35,81.23c-.28,1.41-2.56,2.86-3.74,3.41-1.3.61-6.04,1.87-5.55-1.18.37-2.29,2.93-3.5,4.91-4.1,1.56-.47,4.9-.74,4.38,1.87Z"/>
            <path class="cls-4" d="M62.6,66.65c-2.62-4.58-10.18,3.59-8.39,7.32,1.13,2.35,4.04,1.42,5.56.07,1.84-1.63,4.29-4.85,2.83-7.39ZM59.11,72.71c-.46.49-1.01,1.1-1.7,1.28-1.64.43-1.9-1.33-1.51-2.47.48-1.41,1.39-2.87,2.57-3.79.88-.69,2.83-1.36,3.03.34.18,1.54-1.41,3.6-2.39,4.64Z"/>
            <path class="cls-4" d="M65.42,49.66c-2.4-.64-3.6,1.85-4.08,3.77-.52,2.03-1.11,5.46,1.24,6.56,2.57,1.21,4.35-1.79,4.98-3.78.72-2.27.72-5.78-2.14-6.55ZM66.01,56.12c-.2.58-.4,1.19-.76,1.68-.91,1.23-2.74.89-2.87-.76-.13-1.58.55-7.89,3.37-5.69,1.41,1.1.75,3.37.26,4.77Z"/>
            <path class="cls-4" d="M71.79,34.96c-1.53-1.82-4.59-.78-5.99.62-1.55,1.54-2.97,4.51-1.49,6.44,1.54,2.01,4.41.69,5.78-.72,1.4-1.44,3.25-4.51,1.71-6.34ZM70.67,36.9c-.21,1.42-.91,2.79-1.87,3.83-1.4,1.52-3.45,1.91-3.39-.85.04-1.73.91-3.5,2.56-4.26,1.27-.58,2.96-.56,2.7,1.28Z"/>
            <path class="cls-4" d="M85.19,33.23c-.61-2.01-2.92-3.19-4.9-3.28-1.51-.07-4.53.75-3.59,2.83.43.95,1.5,1.95,2.28,2.63.93.82,1.9,1.26,3.13,1.36,2.1.18,3.73-1.41,3.08-3.55ZM80.81,34.74c-.87-.38-1.66-.85-1.95-1.11-.38-.34-.74-.81-.61-1.3.08-.29.32-.5.59-.62.74-.33,1.74-.21,2.5,0,1.2.35,2.93,1.32,2.56,2.85-.32,1.33-2.32.51-3.09.18Z"/>
            <path class="cls-4" d="M31.22,71.88c-.21-2.34-.55-4.68-1.2-6.94-1.87-6.5-7.2-14.92-15.15-12.52-2.98.9-5.38,3.14-6.72,5.92-1.67,3.45-1.47,7.31-1.17,11.03.59,7.21,1.93,15.13,8.29,19.6,2.61,1.84,5.99,2.76,9.1,1.76,2.91-.93,4.65-3.43,5.58-6.24,1.32-3.95,1.64-8.49,1.27-12.62ZM29.07,77.92c-.13,2.71-.5,6.12-1.99,8.48-1.72,2.72-5.44,3.28-8.26,2.21-5.78-2.2-8.21-8.97-9.27-14.52-1.09-5.71-2.15-13.75,2.74-18.04,3.74-3.28,9.35-2.3,12.14,1.68,1.88,2.69,2.76,6.36,3.52,9.52.84,3.49,1.3,7.09,1.12,10.68Z"/>
            <path class="cls-4" d="M32.18,74.98c8.83-2.47,16.55-9.16,20.17-17.63,2.15-5.02,2.62-10.45,4.05-15.68.82-2.99,2.12-5.74,3.78-8.35,1.51-2.37,3.11-4.84,5.2-6.75,5.51-5.01,14.08-4.17,20.15-.67.41.24.77-.39.37-.63-4.73-2.85-9.93-4.55-15.46-3-5.39,1.51-8.56,5.86-11.42,10.37-3.21,5.07-4.27,10.44-5.44,16.24-1.11,5.52-3.14,10.91-6.84,15.25-3.96,4.64-8.97,8.2-14.74,10.24-.38.13-.23.72.17.61h0Z"/>
            <path class="cls-4" d="M87.69,27.87c1.94,2.96,2.93,6.31,3.29,9.81.15,1.47.2,2.94.14,4.41-.07,1.68-.46,3.32-.49,4.99,0,.5.73.73.96.26,1.43-2.84,1.32-6.8.78-9.85-.63-3.58-2.19-6.9-4.09-9.98-.24-.38-.85-.02-.6.35h0Z"/>
            <path class="cls-4" d="M44.68,83.76c.22-.03.41-.1.62-.18.31-.12.53-.3.77-.52.54-.47.11-1.43-.58-1.41-.26,0-.53,0-.78.11s-.5.2-.72.35c-.37.26-.55.69-.37,1.12s.61.58,1.06.52h0Z"/>
            <path class="cls-4" d="M59.3,71.5l.16-.25s.05-.07.07-.11c.08-.14.1-.27.11-.43s-.08-.36-.19-.46c-.12-.11-.29-.2-.46-.19-.15.01-.28.03-.42.11-.04.02-.08.05-.12.08l-.25.16c-.23.15-.41.4-.39.69,0,.21.08.41.23.56.14.14.36.23.56.23.29,0,.53-.16.69-.39h0Z"/>
            <path class="cls-4" d="M65.21,55.91c.26-.32.46-.71.49-1.02.03-.27,0-.56-.14-.8-.22-.37-.68-.5-1.05-.3-.44.23-.74.73-.89,1.18-.11.31-.13.67.02.97.42.85,1.11.53,1.57-.03Z"/>
            <path class="cls-4" d="M68.71,38.51v-.04c0,.08-.02.16-.03.24.01-.07.03-.14.06-.21l-.09.22c.03-.06.06-.11.09-.16l-.14.18c.1-.12.18-.24.26-.36l-.14.18c.12-.15.19-.25.25-.44.09-.25,0-.53-.15-.73-.17-.22-.39-.3-.66-.33-.2-.02-.42.08-.59.16-.19.1-.33.27-.44.44-.17.25-.23.54-.25.84-.01.22.11.49.27.64s.42.28.64.27.48-.09.64-.27.24-.39.27-.64h0Z"/>
            <path class="cls-4" d="M81.21,34.02c.11-.07.25-.14.33-.24s.15-.19.18-.31l.03-.19c0-.1-.02-.19-.06-.27-.02-.06-.05-.11-.09-.16-.03-.05-.07-.1-.13-.13-.04-.04-.1-.07-.16-.09-.08-.04-.17-.06-.27-.06-.1,0-.19.02-.28.06l-.11.04c-.12.03-.23.1-.32.19l-.11.15c-.07.11-.1.24-.1.37,0,.1.02.2.06.28.03.09.08.17.15.24.07.07.15.12.24.15.09.05.18.07.28.06.13,0,.26-.03.37-.1h0Z"/>
            <path class="cls-4" d="M34.37,61.12c.18,0,.35-.03.51-.11.16-.05.3-.14.42-.27.13-.12.22-.26.27-.42.08-.16.12-.32.11-.51l-.05-.35c-.06-.22-.17-.42-.34-.58l-.27-.21c-.2-.12-.43-.18-.66-.18-.18,0-.35.03-.51.11-.16.05-.3.14-.42.27-.13.12-.22.26-.27.42-.08.16-.12.32-.11.51l.05.35c.06.22.17.42.34.58l.27.21c.2.12.43.18.66.18h0Z"/>
            <path class="cls-4" d="M38.2,56.82c1.42,0,1.42-2.2,0-2.2s-1.42,2.2,0,2.2h0Z"/>
            <path class="cls-4" d="M40.25,62.79c1.32,0,1.32-2.05,0-2.05s-1.32,2.05,0,2.05h0Z"/>
            <path class="cls-4" d="M46.3,55.03c0-.06-.01-.12-.02-.18,0-.15-.05-.28-.13-.41-.05-.09-.11-.17-.18-.23.1.25.2.49.31.74v-.05c0-.18-.05-.36-.14-.52-.09-.15-.21-.28-.37-.37-.16-.09-.33-.14-.52-.14-.18,0-.36.05-.52.14l-.04.02.81-.11c-.22-.05-.38-.06-.59,0-.13.04-.2.07-.29.13-.17.1-.3.23-.4.4-.1.17-.15.36-.15.56,0,.39.21.77.55.96s.78.2,1.13,0c.17-.1.3-.23.4-.4.1-.17.15-.36.15-.56h0Z"/>
            <path class="cls-4" d="M65.89,19.31c.16,0,.31-.03.45-.1.14-.05.27-.13.37-.24.11-.11.19-.23.24-.37.07-.14.11-.29.1-.45l-.04-.31c-.06-.2-.15-.37-.3-.51l-.24-.18c-.18-.11-.38-.16-.59-.16-.16,0-.31.03-.45.1-.14.05-.27.13-.37.24-.11.11-.19.23-.24.37-.07.14-.11.29-.1.45l.04.31c.06.2.15.37.3.51l.24.18c.18.11.38.16.59.16h0Z"/>
            <path class="cls-4" d="M70.67,15.99c1.39,0,1.39-2.16,0-2.16s-1.39,2.16,0,2.16h0Z"/>
            <path class="cls-4" d="M72.11,19.25c.87,0,.87-1.35,0-1.35s-.87,1.35,0,1.35h0Z"/>
          </g>
        </g>
      </g>
      <rect class="cls-3" width="100" height="100"/>
    </g>
  </g>
</svg>