<?xml version="1.0" encoding="UTF-8"?>
<svg id="Capa_2" data-name="Capa 2" xmlns="http://www.w3.org/2000/svg" viewBox="0 0 100 100">
  <defs>
    <style>
      .cls-1 {
        fill: #feeacd;
      }

      .cls-2 {
        fill: #fff;
      }

      .cls-3 {
        fill: #897777;
      }

      .cls-4 {
        fill: none;
      }

      .cls-5 {
        fill: #4a2d2d;
      }

      .cls-6 {
        fill: #fbbd62;
      }
    </style>
  </defs>
  <g id="COLOR">
    <g>
      <g>
        <path class="cls-2" d="M33.07,48.59s-10.91,3.37-14.6,7.7-3.74,11.55,3.19,14.04c6.92,2.49,9.81-1.52,14.15,1.69s3.21,7.86,8.35,8.35,10.27-5.62,15.57-4.65c5.3.96,8.18,3.05,11.88.8s5.78-7.54,8.67-9.15,8.02-2.25,7.06-5.78-2.41-7.06-1.44-9.15-.96-4.81-6.9-6.74-17.17-4.98-21.35-5.3-24.55,8.18-24.55,8.18Z"/>
        <g>
          <path class="cls-1" d="M46.3,46.76c-9.96,2.38-20.2,9.96-21.07,14.44-.87,4.49,2.39,7.53,8.11,7.53s9.56-1.38,12.45,1.38,7.46,4.71,11.87,1.95c4.42-2.75,6.73-5.86,10.93-6.01,4.2-.14,9.85-1.67,11.58-6.3,1.74-4.63.14-8.04-4.42-9.99-4.56-1.95-16.72-6.05-29.47-3Z"/>
          <path class="cls-3" d="M77.58,34.71s4.34.36,4.85-2.24c.51-2.61-6.08-9.34-22.73-11.95-16.65-2.61-42.57,10.72-47.06,18.1-4.49,7.38-1.52,13.39,1.52,15.49,3.04,2.1,4.34,2.75,4.34,2.75,0,0,3.26-3.11,5.86-4.56,2.61-1.45,5.21-2.39,5.21-2.39,0,0,5.86,2.46,9.19.72,3.33-1.74,3.26-3.19,3.26-3.19,0,0,5.14,1.59,8.91-.58,3.76-2.17,4.2-5.21,4.2-5.21,0,0,4.05,1.88,8.62,0,4.56-1.88,3.98-3.91,3.98-3.91,0,0,4.34,1.16,7.31-.36s2.53-2.68,2.53-2.68Z"/>
          <path class="cls-3" d="M17.63,56.86s-3.91,3.69-3.91,10.97,5.97,8.91,11.19,9.01c5.21.11,8.8,1.09,10.75,4.56,1.95,3.48,4.24,7.06,10.53,6.08,6.3-.98,7.28-5.1,13.58-4.89s13.14,2.5,19.22-3.04c6.08-5.54,7.82-14.55,7.93-16.07.11-1.52-4.02,2.82-5.65,3.58l-1.63.76s-4.56,5.86-6.19,7.49-6.62,2.72-9.45,1.63-4.13-1.85-7.06-.98c-2.93.87-10.32,5.21-13.9,4.24-3.58-.98-4.67-7.49-7.06-8.69s-10.32.11-14.34-1.19c-4.02-1.3-5.54-4.34-5.54-7.38s1.52-6.08,1.52-6.08Z"/>
          <path class="cls-6" d="M57.31,49.19c-8.33-.43-9.99,6.23-11.44,7.6s-4.71,1.3-5,3.62,3.97,6.54,12.09,5.94c8.76-.65,16.57-5.32,17.38-8.91,1.09-4.85-4.71-7.82-13.03-8.25Z"/>
          <path class="cls-5" d="M32.14,75.4c0-1.35.05-2.81-.31-4.12-.06-.23-.45-.26-.5,0-.23,1.34-.06,2.78.07,4.12.04.47.74.48.74,0h0Z"/>
          <path class="cls-5" d="M34.31,75.25c0-.89.06-1.81-.1-2.68-.05-.28-.51-.28-.57,0-.16.88-.1,1.8-.1,2.68,0,.5.77.5.77,0h0Z"/>
          <path class="cls-5" d="M48.37,84.23c-.04-1.04.09-2.28-.28-3.27-.1-.28-.52-.32-.61,0-.26,1.02-.02,2.23.06,3.27.04.53.85.54.83,0h0Z"/>
          <path class="cls-5" d="M50.9,82.64c.01-.84.09-1.7-.07-2.53-.05-.26-.47-.26-.52,0-.15.83-.08,1.69-.07,2.53,0,.42.64.42.65,0h0Z"/>
          <path class="cls-5" d="M63.14,79.02c-.01-1.01.17-2.32-.22-3.27-.12-.29-.54-.34-.64,0-.28.99.03,2.26.12,3.27.04.46.74.48.73,0h0Z"/>
          <path class="cls-5" d="M78.56,75.25c.05-1.74.21-3.56-.04-5.29-.04-.28-.52-.28-.57,0-.25,1.73-.09,3.55-.04,5.29.01.42.64.42.65,0h0Z"/>
          <path class="cls-5" d="M80.65,71.06c0-.6.04-1.23-.13-1.81-.08-.26-.45-.26-.52,0-.17.58-.13,1.21-.13,1.81,0,.51.79.51.79,0h0Z"/>
          <path class="cls-5" d="M47.61,61.45c.18,0,.35-.03.51-.11.16-.05.31-.14.43-.27.13-.12.22-.26.27-.43.08-.16.12-.33.11-.51l-.05-.35c-.06-.22-.18-.42-.34-.58l-.27-.21c-.21-.12-.43-.18-.67-.18-.18,0-.35.03-.51.11-.16.05-.31.14-.43.27-.13.12-.22.26-.27.43-.08.16-.12.33-.11.51l.05.35c.06.22.18.42.34.58l.27.21c.21.12.43.18.67.18h0Z"/>
          <path class="cls-5" d="M51.62,63.1c1.04,0,1.04-1.62,0-1.62s-1.04,1.62,0,1.62h0Z"/>
          <path class="cls-5" d="M54.66,60.82c1.17,0,1.17-1.82,0-1.82s-1.17,1.82,0,1.82h0Z"/>
          <path class="cls-5" d="M87.18,58.16c-.5-1.29-1.12-2.62-.78-4.02.27-1.13.85-2.09.53-3.29-.63-2.33-3.94-3.63-5.86-4.63-4.75-2.48-9.93-4.24-15.25-4.94.98-.67,1.84-1.5,2.27-2.48,3.33.94,11.62-.72,9.62-5.27-.91-2.06-3.6-3.66-5.47-4.74-2.43-1.41-5.03-2.37-7.81-2.8-.65-.1-.95.84-.28,1.01,3.77.98,7.36,2.55,10.38,5.04.6.49,1.98,1.44,2.01,2.28.02.56-.62,1.34-1.06,1.65-.42.29-1.02.44-1.5.6-1.89.65-3.72.52-5.65.67-.33-2.2-3.73-3.78-5.31-4.7-3.06-1.78-6.3-3.18-9.66-4.27-.71-.23-.99.85-.31,1.11,2.39.88,4.72,1.93,6.96,3.15,2.05,1.11,4.52,2.34,6.22,3.97,1.93,1.85-3.3,3.75-4.56,4.11-2.01.57-3.98.4-6.03.41-.51-2.17-3.21-3.72-4.89-4.84-2.68-1.78-5.6-3.1-8.72-3.87-.67-.16-.92.8-.28,1.02,2.15.74,4.27,1.62,6.25,2.75,1.93,1.1,4.33,2.49,5.67,4.29,2.09,2.81-2.76,4.91-4.84,5.55-1.96.6-4.02.78-6.06.81,0-.13,0-.27-.04-.41-.34-1.48-2.21-2.55-3.34-3.39-3.25-2.42-7.35-4.77-11.41-5.4-.53-.08-1,.7-.4.96,4.03,1.71,7.88,3.16,11.36,5.92.83.65,2,1.3,1.97,2.4-.03,1.17-1.26,1.71-2.29,2.1-1.77.68-3.83.71-5.67.35-2.06-.4-4-1.23-5.94-2-1.49-.59-3.68-1.84-5.34-1.26-2.89,1.01-1.74,5.62-.14,7.18-.04.03-.09.05-.13.08-2.04,1.32-3.96,2.88-5.04,5.11-1.95,3.99-.96,8.93,2.65,11.61,4.32,3.21,9.62.74,14.43,1.9,2.59.62,3.91,2.25,5.02,4.56.85,1.77,1.68,3.55,3.59,4.36,4.81,2.04,10.19-2.77,14.65-3.87,1.46-.36,3.03-.52,4.52-.26,1.46.26,2.73,1.04,4.13,1.49,2.15.69,4.55.45,6.53-.64,2.07-1.13,3.28-3.13,4.59-5.01,1.66-2.38,3.56-4.24,6.17-5.54,1.73-.86,3.77-1.57,4.79-3.33,1.03-1.77.45-3.7-.24-5.47ZM22.64,52.33c-.55-.96-1.37-2.18-1.18-3.36.28-1.75,2.01-.77,3.09-.35,1.02.4,2.02.83,3.04,1.25-1.69.76-3.32,1.63-4.9,2.59-.01-.04-.02-.08-.04-.13ZM82.16,65.3c-1.8.9-3.43,2.1-4.78,3.6-1.52,1.69-2.52,3.77-4.07,5.43-1.74,1.87-4.15,2.86-6.7,2.28-2.39-.55-4.26-1.91-6.82-1.9-4.69.03-8.46,2.95-12.75,4.34-2.34.76-4.77.79-6.18-1.52-.96-1.56-1.28-3.45-2.48-4.87-2.54-2.99-6.92-2.64-10.43-2.48-2.85.13-5.94.25-8.29-1.66-1.99-1.62-3.02-4.21-2.75-6.76.63-5.76,7.72-9,12.48-11.2.44.16.88.31,1.33.45,3.23.96,7.27,1.18,10.05-1.07.53-.43,1.11-.99,1.51-1.62,2.71.89,5.56.56,8.17-.59,2.02-.9,4.47-2.56,5.12-4.85,2.31.98,5.16.65,7.45-.19,0,0,.02,0,.03,0,.09.07.2.12.33.14,4.83.8,9.56,1.98,14.08,3.91,2.09.9,4.21,1.91,6.12,3.16,1.3.85,1.64,1.53,1.17,3.03-.29.93-.46,1.76-.31,2.74.26,1.8,1.42,3.32,1.74,5.09.47,2.65-2.07,3.59-4.01,4.55Z"/>
          <path class="cls-2" d="M64.66,53.88c.49,1.55-.79,2.66-1.36,3.96-.29.65.3,1.27.96.96,2.11-.97,3-3.72,1.54-5.58-.43-.55-1.33.05-1.14.66h0Z"/>
        </g>
      </g>
      <rect class="cls-4" width="100" height="100"/>
    </g>
  </g>
</svg>