<?xml version="1.0" encoding="UTF-8"?>
<svg id="Capa_2" data-name="Capa 2" xmlns="http://www.w3.org/2000/svg" viewBox="0 0 100 100">
  <defs>
    <style>
      .cls-1 {
        fill: #fcd5da;
      }

      .cls-2 {
        fill: none;
      }

      .cls-3 {
        fill: #4a2d2d;
      }

      .cls-4 {
        fill: #f795a2;
      }
    </style>
  </defs>
  <g id="COLOR">
    <g>
      <g>
        <path class="cls-1" d="M19.69,45.27c-.17.26-.95,5.29,1.3,9.19,2.25,3.9,4.16,7.45,5.03,12.22.87,4.77-.26,10.75-.26,10.75,0,0,5.63-3.03,9.19.69,3.55,3.73,2.43,9.19,2.43,9.19,0,0,5.55-3.64,9.53-.52,3.99,3.12,4.25,7.02,4.25,7.02,0,0,5.03-5.03,10.66-3.73,5.63,1.3,7.28,4.68,7.28,4.68,0,0,1.04-6.67,5.37-7.71,4.33-1.04,6.85-.26,6.85-.26,0,0-.52-6.24,3.29-7.63,3.81-1.39,6.15-1.3,6.15-1.3,0,0-2.08-4.51.35-7.63,2.43-3.12,5.2-4.59,5.2-4.59,0,0-2.95-2.34-3.03-5.81-.09-3.47,1.21-6.41,1.21-6.41,0,0-21.15-9.71-33.02-10.49-11.87-.78-41.78,2.34-41.78,2.34Z"/>
        <path class="cls-4" d="M93.72,55.89s2.15-.09,3.48-1.76c1.14-1.43.42-2.54-.39-2.99-.99-.55-2.21-.39-2.21-.39,0,0,3.71-2.54,3.58-4.62-.13-2.08-2.47-2.21-3.84-1.63-1.15.49-1.82,1.04-1.82,1.04,0,0,.59-16.19-10.14-25.03-10.73-8.84-24.7-7.43-32.7-4.38s-15.73,8.15-21.26,14.58c-5.53,6.44-7.48,9.69-7.48,9.69,0,0-10.92-13.26-13.85-13.13-2.93.13-5.85,9.1-4.94,18.33.91,9.23,4.29,12.81,6.57,12.94s10.53-12.48,10.79-11.77.26,2.41.26,2.41c0,0,12.35-3.19,23.86-3.51s14.17.07,14.17.07c0,0,5.79,2.41,6.24,2.15s1.5-1.63,3.51-1.37,11.72,1.87,17.88,4.49c6.21,2.63,8.29,4.88,8.29,4.88Z"/>
        <path class="cls-3" d="M65.79,44.39c-.89-3.36-1.87-6.69-2.79-10.04-.59-2.17-1.08-4.78-2.53-6.58-3.22-4-9.07.34-11.98,2.68-2.74,2.2-7.79,7.83-2.98,10.35,2.94,1.53,6.03,2.83,9.07,4.15,2.81,1.22,6.05,3.14,9.1,3.5.77.09,1.23-1.08.65-1.56-1.78-1.49-4.27-2.23-6.39-3.15-2.09-.91-4.2-1.79-6.31-2.67-1.06-.44-2.13-.87-3.2-1.29-1.2-.46-3.25-.71-3-2.41.29-1.92,2.6-3.95,4-5.13,1.54-1.3,3.3-2.34,5.08-3.27,1.27-.66,2.66-1.36,3.98-.43.79.56,1.26,1.56,1.61,2.44,1.79,4.45,3.04,9.16,4.57,13.71.23.69,1.3.41,1.1-.3h0Z"/>
        <path class="cls-3" d="M79.5,40.86c-.86,1.37-.93,3.23.22,4.51.04.05.09.1.13.14.97.86,2.35,1.21,3.71.63,3.43-1.46,2.49-7.73-1.59-7.02-.09.02-.19.04-.28.06-.93.26-1.69.88-2.19,1.67Z"/>
        <path class="cls-3" d="M31.99,50.87c-.73,1.11-1.02,2.63-1.28,3.91-.07.34.21.64.56.56,1.03-.24,2.42-.62,3.05-1.55.18-.26-.12-.62-.41-.53-.46.14-.83.43-1.25.64-.52.26-1.06.44-1.63.55l.56.56c.35-1.27.95-2.54,1.19-3.82.09-.47-.51-.76-.79-.33h0Z"/>
        <path class="cls-3" d="M36.83,62.32c-.25,1.79-.34,3.58-.31,5.38,0,.35.37.54.67.38.97-.5,2-1.07,2.77-1.86.3-.31-.09-.85-.47-.61-.93.57-1.77,1.21-2.75,1.7l.67.38c.03-1.76.12-3.52.19-5.28.02-.43-.7-.54-.76-.1h0Z"/>
        <path class="cls-3" d="M55.49,54.66c.21,1.25.59,2.46.98,3.67.14.44.7.5.95.12.43-.65.86-1.31,1.3-1.95.41-.59.88-1.17,1.13-1.85.15-.39-.38-.61-.65-.38-.54.47-.92,1.15-1.32,1.74-.45.64-.91,1.28-1.37,1.92l.95.12c-.41-1.2-.78-2.41-1.26-3.59-.18-.44-.8-.28-.72.2h0Z"/>
        <path class="cls-3" d="M43.59,75.43c-.05.83-.1,1.66-.14,2.49-.02.43-.03.91.45,1.1s.92-.16,1.26-.43c.55-.43,1.22-.86,1.6-1.46.16-.25-.11-.64-.41-.53-.36.14-.65.36-.95.61-.18.15-.36.3-.53.44-.06.05-.53.49-.57.49-.09-.01.04-2.42.05-2.72.02-.49-.74-.49-.76,0h0Z"/>
        <path class="cls-3" d="M49.5,66.55c.28,1.08.59,2.16.94,3.22.18.55.33,1.6.98,1.81s1.1-.54,1.47-.91c.73-.74,1.59-1.44,2.15-2.33.2-.32-.21-.75-.53-.53-.47.31-2.48,2.61-2.73,2.47-.29-.16-.54-1.53-.66-1.86-.25-.71-.53-1.4-.81-2.1-.2-.49-.95-.31-.81.22h0Z"/>
        <path class="cls-3" d="M63.66,65.3c.41.88.88,1.72,1.45,2.51.3.42.64,1.05,1.21,1.13.62.09.95-.48,1.31-.88.59-.67,1.22-1.32,1.73-2.06.27-.4-.31-.78-.64-.49-.4.35-1.97,2.47-2.34,2.37s-.88-1.12-1.09-1.42c-.34-.5-.66-1.01-.98-1.53-.25-.42-.85-.05-.65.38h0Z"/>
        <path class="cls-3" d="M56.22,79.63c.12.46.27.9.45,1.34.14.34.28.82.61,1.02.77.45,1.32-.84,1.49-1.37.12-.37-.37-.62-.63-.37-.18.17-.32.37-.45.57-.01.02-.26.38-.26.39l.38-.04c-.03-.07-.06-.14-.1-.22-.23-.52-.46-1.03-.67-1.55-.2-.49-.97-.32-.82.23h0Z"/>
        <path class="cls-3" d="M66.73,79.36c.71.75,1.45,1.45,2.24,2.11.39.32,1.07,1.12,1.64.83.54-.27.55-1.28.67-1.77.24-.99.66-2.07.62-3.09-.01-.38-.52-.53-.72-.19-.34.57-.46,1.22-.63,1.86s-.5,1.44-.56,2.13c-.15.39-.12.43.08.12.25-.17.22-.3-.1-.38-.17-.22-.55-.39-.79-.57-.66-.5-1.29-1.04-1.9-1.6-.38-.35-.92.19-.57.57h0Z"/>
        <path class="cls-3" d="M76.77,72.53c1.03,1.12,2.19,2.29,3.5,3.1.33.2.82-.06.8-.46-.05-.94.19-1.94-.08-2.86-.09-.33-.51-.28-.63,0-.34.85-.2,1.83-.34,2.72.29-.08.59-.16.88-.23-1.15-.99-2.4-1.86-3.54-2.87-.41-.36-.97.2-.6.6h0Z"/>
        <path class="cls-3" d="M76.43,58.92c1.21,1.2,2.62,2.24,4.11,3.06.28.15.76.04.81-.33.18-1.29.39-2.54.17-3.85-.09-.51-.87-.37-.88.12-.03,1.16,0,2.31-.36,3.43.27-.11.54-.22.81-.33-1.41-.9-2.77-1.84-4.12-2.82-.42-.31-.91.36-.55.71h0Z"/>
        <path class="cls-3" d="M83.76,65.3c.26.42.56.81.92,1.15.26.24.71.15.8-.21.16-.61.48-1.51.18-2.11-.1-.19-.4-.23-.54-.07-.22.25-.27.57-.33.9-.07.34-.15.69-.24,1.02l.8-.21c-.31-.28-.59-.58-.83-.92-.32-.47-1.08-.04-.77.45h0Z"/>
        <path class="cls-3" d="M67.95,52.93c.15.67.47,1.26.92,1.78.2.23.69.19.82-.11.19-.45.52-.97.52-1.46,0-.4-.48-.57-.76-.32-.33.31-.48.85-.66,1.25l.82-.11c-.37-.36-.63-.79-.79-1.29-.18-.55-1-.33-.87.24h0Z"/>
        <path class="cls-3" d="M45.05,51.7c.1.53.22,1.06.38,1.58.12.38.23.88.61,1.09.82.43,1.39-.97,1.44-1.57.03-.3-.39-.44-.58-.24s-.32.4-.46.63c-.01.02-.27.43-.27.44l.27-.06c-.04-.08-.07-.17-.1-.26-.22-.59-.39-1.2-.52-1.82-.11-.51-.87-.29-.78.22h0Z"/>
        <path class="cls-3" d="M19.72,41.74c-3.52-1.76-6.68-4.29-10.36-5.74-.37-.15-.58.43-.26.63,1.77,1.11,3.73,1.86,5.52,2.94,1.61.98,2.99,2.3,4.79,2.95.45.16.76-.56.33-.77h0Z"/>
        <path class="cls-3" d="M16.62,42.52c-1.93.05-4.99-.23-6.89.07-.38.06-.24.58.08.62,1.88.23,4.91.06,6.8.04.47,0,.47-.75,0-.73h0Z"/>
        <path class="cls-3" d="M17.13,44.29c-2.07,1.66-4.81,3.8-6.64,5.73-.25.26.08.74.4.52,2.18-1.56,4.91-3.78,6.86-5.63.42-.39-.19-.96-.62-.62h0Z"/>
        <path class="cls-3" d="M52.89,37.98c2.32,2.17,5.16,3.55,7.9,5.19.35.21.85-.29.49-.56-2.17-1.61-5.47-3.1-7.91-5.11-.33-.27-.8.18-.48.48h0Z"/>
        <path class="cls-3" d="M61.94,41.63c-1.29-3.08-2.39-6.3-3.87-9.29-.18-.35-.75-.11-.63.27.97,3.18,2.52,6.26,3.94,9.26.15.31.7.09.57-.24h0Z"/>
        <path class="cls-3" d="M32.09,38.62c1.48,0,1.48-2.3,0-2.3s-1.48,2.3,0,2.3h0Z"/>
        <path class="cls-3" d="M39.8,30.24c.19,0,.36-.03.52-.12.17-.05.31-.15.43-.28.13-.12.22-.27.28-.43.08-.16.12-.33.12-.52l-.05-.36c-.06-.23-.18-.43-.35-.6l-.27-.21c-.21-.12-.44-.18-.68-.18-.19,0-.36.03-.52.12-.17.05-.31.15-.43.28-.13.12-.22.27-.28.43-.08.16-.12.33-.12.52l.05.36c.06.23.18.43.35.6l.27.21c.21.12.44.18.68.18h0Z"/>
        <path class="cls-3" d="M39.19,36.51c1.55,0,1.55-2.41,0-2.41s-1.55,2.41,0,2.41h0Z"/>
      </g>
      <rect class="cls-2" width="100" height="100"/>
    </g>
  </g>
</svg>