<?xml version="1.0" encoding="UTF-8"?>
<svg id="Capa_2" data-name="Capa 2" xmlns="http://www.w3.org/2000/svg" viewBox="0 0 100 100">
  <defs>
    <style>
      .cls-1 {
        fill: none;
      }

      .cls-2 {
        fill: #a0bcdb;
      }

      .cls-3 {
        fill: #4a2d2d;
      }

      .cls-4 {
        fill: #cadaeb;
      }
    </style>
  </defs>
  <g id="COLOR">
    <g>
      <g>
        <path class="cls-4" d="M35.42,37.63c3.09-1.63,16.74.77,16.98.11,1.21-3.26-.02-8.43-4.24-7.91-2.25.27-4.43,1.57-6.41,2.58-2.4,1.23-4.77,2.55-7,4.08-.69.48-.09,1.54.67,1.14h0Z"/>
        <path class="cls-4" d="M31.07,68.92c1.21,1.91,3.57,5.38,6.24,4.89,2.84-.52,1.97-4.37.39-5.79-.56-.5-4.57,1.23-5.56.06-.5-.6-1.49.18-1.08.83h0Z"/>
        <path class="cls-4" d="M64.52,55.56c-.39.18-.77.37-1.15.57-.18.1-.37.19-.55.3,0,0-9.46,4.79-9.05,5.26,1.69,1.96,3.71,3.3,6.16,4.14,2.1.72,5.1,1.46,7.02-.02,3.69-2.83.79-8.19-2.43-10.25Z"/>
        <path class="cls-3" d="M42.17,37.21c1.05-.9,2.17-1.72,3.38-2.4,1.09-.62,2.31-1,3.38-1.64.29-.17.08-.56-.21-.51-2.56.42-5.12,2.39-7.03,4.05-.34.29.15.78.49.49h0Z"/>
        <path class="cls-3" d="M47.21,37.22c1.5-1.15,3.23-2.05,4.68-3.26.27-.23-.02-.74-.35-.61-1.77.67-3.36,2.05-4.78,3.28-.32.28.12.86.46.59h0Z"/>
        <path class="cls-3" d="M57.11,60.14c1.93,1.39,4.01,2.87,6.24,3.74.39.15.56-.42.27-.63-1.93-1.37-4.14-2.45-6.16-3.7-.38-.24-.7.34-.35.59h0Z"/>
        <path class="cls-3" d="M59.31,58.4c1.15.52,3.41,1.43,4.64,1.72.43.1.68-.47.3-.71-1.07-.68-2.4-1.08-3.57-1.54-.44-.17-1.86-.2-1.43,0l.06.53Z"/>
        <path class="cls-3" d="M34.57,69.03c.44.71.91,1.54,1.61,2.01.33.22.63-.2.49-.49-.33-.71-.96-1.29-1.43-1.91-.29-.39-.95-.04-.68.4h0Z"/>
        <path class="cls-2" d="M80.35,41.48s9.81-6.7,13.81-5.46c4,1.23,3.82,8.05,2.47,14.34s-4,11.4-6.4,12.34-6.76-5.76-11.34-7.76-9.87-1.29-14.04.82c-4.17,2.12-15.92,8.81-22.09,11.11s-10.28,2.88-16.04.47c-5.76-2.41-12.99-6.29-17.69-9.58s-7.4-6.82-6.46-8.99,11.99-9.7,15.51-10.34c3.53-.65,13.93-2.59,27.09-1.7,11.38.76,23.92,3.11,28.15,3.7s7.05,1.06,7.05,1.06Z"/>
        <path class="cls-3" d="M18.17,46.23c-.25-1.05-1.39-1.79-2.46-1.53-2.03.51-2.33,3.96-.05,4.34,1.57.27,2.87-1.32,2.51-2.82Z"/>
        <path class="cls-3" d="M34.29,53.44c-2.44-1.82-6.03-2.3-9.02-2.06.05-.31.1-.62.13-.92.49-3.93.04-9.19-2.61-12.36-.32-.38-.99.03-.84.49.65,1.86,1.53,3.55,1.92,5.51.41,2.06.46,4.19.23,6.28-.24,2.15-.83,4.26-1.68,6.25-.88,2.08-2.27,3.86-3.19,5.89-.21.47.33.95.74.57,1.7-1.6,2.99-3.94,3.91-6.41,2.75,3.36,7.77,6.22,11.38,2.31,1.74-1.89.91-4.15-.97-5.55ZM32.84,58.83c-3.36,1.32-6.23-1.82-8.2-4.05-.03-.03-.07-.05-.1-.08.18-.62.33-1.24.46-1.85,2.05.05,4.09.23,6.04.9.87.3,1.82.66,2.51,1.31,1.39,1.32,1.05,3.08-.71,3.77Z"/>
        <path class="cls-3" d="M31.75,42.1c.12.32.22.64.27.98s.02.67.12.99c.07.24.48.35.6.08.3-.7.06-1.58-.2-2.26-.19-.48-.96-.27-.78.21h0Z"/>
        <path class="cls-3" d="M32.01,48.92c0,.19.03.37.07.56.07.3.53.3.6,0,.04-.19.07-.37.07-.56s-.17-.38-.37-.37-.38.16-.37.37h0Z"/>
        <path class="cls-3" d="M30.29,64.46c.11-.3.29-.66.18-.98-.06-.17-.29-.33-.47-.19-.31.23-.37.61-.45.97-.05.2.06.42.27.47s.4-.07.47-.27h0Z"/>
        <path class="cls-3" d="M38.69,44.56c.09.56.12,1.12.15,1.68.02.47-.03.96.15,1.4.1.23.43.33.58.08.52-.94.12-2.39-.14-3.36-.13-.49-.81-.27-.74.2h0Z"/>
        <path class="cls-3" d="M39.04,53.93c.02.17.03.34.01.52s-.05.36,0,.54c.08.25.41.36.6.16.29-.3.26-.83.21-1.21-.03-.22-.17-.41-.41-.41-.2,0-.44.19-.41.41h0Z"/>
        <path class="cls-3" d="M38.44,60.78c.02.24.01.46-.02.7s-.11.49-.08.73c.04.33.42.55.69.28.46-.46.4-1.25.31-1.84-.08-.51-.94-.39-.9.12h0Z"/>
        <path class="cls-3" d="M45.67,59.69c.12-.48.36-1.34-.05-1.73-.14-.13-.4-.16-.53,0-.2.24-.18.49-.19.79,0,.28,0,.55-.05.83-.06.47.7.56.81.11h0Z"/>
        <path class="cls-3" d="M46.29,51.89c.08-.42.15-.83.18-1.25.03-.4.05-.77-.21-1.09-.12-.15-.37-.12-.5,0-.27.27-.28.65-.3,1.01-.02.41.01.82.05,1.22s.68.57.77.1h0Z"/>
        <path class="cls-3" d="M45.39,41.48c.15.52.15,1.08.36,1.58.11.24.54.24.64,0,.26-.6.1-1.23-.13-1.82-.21-.53-1.03-.34-.87.24h0Z"/>
        <path class="cls-3" d="M50.89,44.79c.04.42.09.84.13,1.26.04.39.06.78.25,1.13.12.23.45.21.58,0,.46-.75.13-1.86-.22-2.59-.17-.35-.78-.19-.74.2h0Z"/>
        <path class="cls-3" d="M51.59,54.01c0,.45-.11,1.13.17,1.52.15.21.41.21.56,0,.28-.38.17-1.07.17-1.52,0-.58-.9-.58-.9,0h0Z"/>
        <path class="cls-3" d="M57.98,52.63c.32-.73.48-1.97-.23-2.55-.19-.16-.55-.13-.6.16-.07.35.02.71.05,1.06.03.37.05.75.04,1.13s.58.58.74.2h0Z"/>
        <path class="cls-3" d="M57.17,42.01c.08.22.13.44.16.68s.03.46.16.66c.11.16.36.23.5.06.4-.47.12-1.21-.13-1.69-.19-.37-.84-.11-.69.29h0Z"/>
        <path class="cls-3" d="M62.25,45.7c.11.73-.05,1.59.23,2.28.11.28.47.35.65.08.5-.74.24-1.82.02-2.61-.16-.59-.99-.33-.9.25h0Z"/>
        <path class="cls-3" d="M67.35,43.09c.1.19.17.38.22.6s.1.43.27.6c.11.11.34.13.44,0,.37-.48.07-1.16-.21-1.61s-.98-.05-.72.42h0Z"/>
        <path class="cls-3" d="M68.08,49.4c.03.42-.09.89.19,1.25.11.14.34.14.49.06.49-.26.4-.99.33-1.45-.04-.25-.34-.4-.57-.37s-.47.25-.45.51h0Z"/>
        <path class="cls-3" d="M74.55,51.13c.18-.39.4-.92.26-1.36-.04-.12-.15-.26-.28-.28-.3-.05-.49.15-.55.44-.05.26-.07.52-.18.77-.09.22-.06.47.16.59.19.11.5.06.59-.16h0Z"/>
        <path class="cls-3" d="M74.4,45.97c.04-.44.1-1.15-.36-1.4-.11-.06-.31-.06-.4.05-.29.37-.14.91-.19,1.35-.03.25.24.47.47.47.28,0,.45-.22.47-.47h0Z"/>
        <path class="cls-3" d="M78.83,48.52s.02-.19,0-.1c0-.04.02-.09.03-.13.02-.1.04-.2.07-.3.13-.37-.41-.69-.67-.39-.11.13-.23.28-.28.45-.04.15-.06.32-.05.47,0,.23.2.46.45.45s.45-.2.45-.45h0Z"/>
        <path class="cls-3" d="M82.34,45.45c4.57-2.04,9.39-3.28,14.05-5.08.4-.16.25-.75-.18-.66-4.84,1-9.66,3.21-14.14,5.27-.32.15-.04.61.27.47h0Z"/>
        <path class="cls-3" d="M82.93,47.94c2.39-.38,4.81-.58,7.22-.79,2.09-.19,4.32-.18,6.37-.63.3-.07.23-.52-.07-.53-2.33-.05-4.75.35-7.08.56-2.21.2-4.43.39-6.63.74-.44.07-.25.73.18.66h0Z"/>
        <path class="cls-3" d="M82.42,50.37c4.06.94,8.28,2.15,12.44,2.49.36.03.43-.54.08-.63-4.04-1.03-8.2-1.97-12.32-2.61-.48-.07-.7.63-.2.74h0Z"/>
        <path class="cls-3" d="M81.36,52.88c1.87,1.09,3.74,2.19,5.62,3.27,1.7.98,3.45,2.21,5.32,2.82.29.09.54-.32.3-.52-1.5-1.27-3.44-2.14-5.15-3.11-1.89-1.06-3.79-2.11-5.69-3.14-.45-.24-.84.43-.4.68h0Z"/>
        <path class="cls-3" d="M25.26,54.39c1.67,1.34,3.4,2.9,5.32,3.87.29.14.61-.22.36-.46-1.58-1.47-3.6-2.58-5.4-3.76-.21-.14-.47.19-.27.35h0Z"/>
        <path class="cls-3" d="M29.59,55.7c.54.28,1.16.72,1.77.81.33.05.62-.32.34-.59-.45-.44-1.14-.66-1.71-.92-.47-.22-.88.46-.41.7h0Z"/>
        <path class="cls-3" d="M2.53,51.37c.75,1.31,1.44,1.93,2.91,2.27,2.29.53,4.6-.64,6.75.61.7.41,1.49-.57.88-1.14-2.74-2.53-8.09.89-10.4-2.59-.38-.58-.49.23-.14.84h0Z"/>
      </g>
      <rect class="cls-1" width="100" height="100"/>
    </g>
  </g>
</svg>