<?xml version="1.0" encoding="UTF-8"?>
<svg id="Capa_2" data-name="Capa 2" xmlns="http://www.w3.org/2000/svg" viewBox="0 0 100 100">
  <defs>
    <style>
      .cls-1 {
        fill: #fff;
      }

      .cls-2 {
        fill: none;
      }

      .cls-3 {
        fill: #809ab4;
      }

      .cls-4 {
        fill: #4a2d2d;
      }
    </style>
  </defs>
  <g id="COLOR">
    <g>
      <g>
        <g>
          <g>
            <path class="cls-3" d="M73.83,28.31s-12.81-7.89-30.76-8.12c-17.96-.23-31.15,7.42-31.23,8.59-.08,1.17,11.01,8.98,31.94,9.68,20.93.7,30.53-7.73,30.53-7.73,0,0,7.72,5.76,12.96,5.86,4.22.08,1.87-3.05-2.03-5-2.96-1.48-5.54-2.11-5.54-2.11,0,0,6.87-2.42,8.59-5,1.63-2.44-.39-3.36-3.98-2.03-3.09,1.14-10.46,5.86-10.46,5.86Z"/>
            <path class="cls-4" d="M25.83,25.59c-.68.25-1.24.81-1.47,1.5-.6,1.74,1.2,3.54,2.92,2.78.63-.28,1.19-.86,1.38-1.53.5-1.71-1.1-3.37-2.83-2.75Z"/>
            <path class="cls-4" d="M39.67,31.9c.4.23.86.07,1.11-.29.57-.85,1.39-2.29.43-3.18-.23-.22-.65-.26-.88,0-.59.67-.41,1.66-.95,2.36-.27.35-.05.91.29,1.11Z"/>
            <path class="cls-4" d="M46.22,31.43c.41.24.9.08,1.15-.3.19-.29.48-.8.6-1.12.15-.37.14-.73.08-1.11-.1-.67-1.18-.78-1.46-.19-.22.45-.46,1.17-.68,1.58-.21.4-.1.91.3,1.15Z"/>
            <path class="cls-4" d="M52,31.8c.41.16.85.02,1.08-.36.41-.64.85-1.4.79-2.19-.06-.88-1.19-1.24-1.67-.45-.37.59-.47,1.33-.71,1.97-.15.4.13.88.5,1.02Z"/>
            <path class="cls-4" d="M30.74,21.8c1.28,2.24,2.33,4.25,2.31,6.92s-1.16,4.64-2.49,6.84c-.22.36.27.72.57.44,3.73-3.55,3.74-10.96.04-14.52-.22-.22-.59.06-.43.33h0Z"/>
          </g>
          <path class="cls-1" d="M36.02,24.57c3.87-.41,7.75-.8,11.64-.49,2,.16,3.98.48,5.93.96,1.76.43,3.66,1.43,5.48,1.38.82-.02,1.37-1.07.72-1.68-1.35-1.28-3.43-1.64-5.19-2.05-2.06-.49-4.16-.81-6.27-.97-4.2-.32-8.5-.06-12.48,1.38-.73.26-.72,1.57.18,1.47h0Z"/>
          <path class="cls-1" d="M61.94,27.52c.6.24,1.35.66,2.01.45.51-.16.84-.77.53-1.27-.42-.67-1.3-.84-2-1.08-.49-.17-1.1.17-1.22.67-.13.56.16,1.01.67,1.22h0Z"/>
        </g>
        <g>
          <g>
            <path class="cls-3" d="M73.83,49.92s-12.81-7.89-30.76-8.12c-17.96-.23-31.15,7.42-31.23,8.59-.08,1.17,11.01,8.98,31.94,9.68s30.53-7.73,30.53-7.73c0,0,7.72,5.76,12.96,5.86,4.22.08,1.87-3.05-2.03-5-2.96-1.48-5.54-2.11-5.54-2.11,0,0,6.87-2.42,8.59-5,1.63-2.44-.39-3.36-3.98-2.03-3.09,1.14-10.46,5.86-10.46,5.86Z"/>
            <path class="cls-4" d="M25.83,47.2c-.68.25-1.24.81-1.47,1.5-.6,1.74,1.2,3.54,2.92,2.78.63-.28,1.19-.86,1.38-1.53.5-1.71-1.1-3.37-2.83-2.75Z"/>
            <path class="cls-4" d="M39.67,53.51c.4.23.86.07,1.11-.29.57-.85,1.39-2.29.43-3.18-.23-.22-.65-.26-.88,0-.59.67-.41,1.66-.95,2.36-.27.35-.05.91.29,1.11Z"/>
            <path class="cls-4" d="M46.22,53.04c.41.24.9.08,1.15-.3.19-.29.48-.8.6-1.12.15-.37.14-.73.08-1.11-.1-.67-1.18-.78-1.46-.19-.22.45-.46,1.17-.68,1.58-.21.4-.1.91.3,1.15Z"/>
            <path class="cls-4" d="M52,53.41c.41.16.85.02,1.08-.36.41-.64.85-1.4.79-2.19-.06-.88-1.19-1.24-1.67-.45-.37.59-.47,1.33-.71,1.97-.15.4.13.88.5,1.02Z"/>
            <path class="cls-4" d="M30.74,43.41c1.28,2.24,2.33,4.25,2.31,6.92s-1.16,4.64-2.49,6.84c-.22.36.27.72.57.44,3.73-3.55,3.74-10.96.04-14.52-.22-.22-.59.06-.43.33h0Z"/>
          </g>
          <path class="cls-1" d="M36.02,46.18c3.87-.41,7.75-.8,11.64-.49,2,.16,3.98.48,5.93.96,1.76.43,3.66,1.43,5.48,1.38.82-.02,1.37-1.07.72-1.68-1.35-1.28-3.43-1.64-5.19-2.05-2.06-.49-4.16-.81-6.27-.97-4.2-.32-8.5-.06-12.48,1.38-.73.26-.72,1.57.18,1.47h0Z"/>
          <path class="cls-1" d="M61.94,49.13c.6.24,1.35.66,2.01.45.51-.16.84-.77.53-1.27-.42-.67-1.3-.84-2-1.08-.49-.17-1.1.17-1.22.67-.13.56.16,1.01.67,1.22h0Z"/>
        </g>
        <g>
          <g>
            <path class="cls-3" d="M73.83,71.53s-12.81-7.89-30.76-8.12c-17.96-.23-31.15,7.42-31.23,8.59-.08,1.17,11.01,8.98,31.94,9.68,20.93.7,30.53-7.73,30.53-7.73,0,0,7.72,5.76,12.96,5.86,4.22.08,1.87-3.05-2.03-5-2.96-1.48-5.54-2.11-5.54-2.11,0,0,6.87-2.42,8.59-5,1.63-2.44-.39-3.36-3.98-2.03-3.09,1.14-10.46,5.86-10.46,5.86Z"/>
            <path class="cls-4" d="M25.83,68.81c-.68.25-1.24.81-1.47,1.5-.6,1.74,1.2,3.54,2.92,2.78.63-.28,1.19-.86,1.38-1.53.5-1.71-1.1-3.37-2.83-2.75Z"/>
            <path class="cls-4" d="M39.67,75.12c.4.23.86.07,1.11-.29.57-.85,1.39-2.29.43-3.18-.23-.22-.65-.26-.88,0-.59.67-.41,1.66-.95,2.36-.27.35-.05.91.29,1.11Z"/>
            <path class="cls-4" d="M46.22,74.65c.41.24.9.08,1.15-.3.19-.29.48-.8.6-1.12.15-.37.14-.73.08-1.11-.1-.67-1.18-.78-1.46-.19-.22.45-.46,1.17-.68,1.58-.21.4-.1.91.3,1.15Z"/>
            <path class="cls-4" d="M52,75.02c.41.16.85.02,1.08-.36.41-.64.85-1.4.79-2.19-.06-.88-1.19-1.24-1.67-.45-.37.59-.47,1.33-.71,1.97-.15.4.13.88.5,1.02Z"/>
            <path class="cls-4" d="M30.74,65.02c1.28,2.24,2.33,4.25,2.31,6.92s-1.16,4.64-2.49,6.84c-.22.36.27.72.57.44,3.73-3.55,3.74-10.96.04-14.52-.22-.22-.59.06-.43.33h0Z"/>
          </g>
          <path class="cls-1" d="M36.02,67.78c3.87-.41,7.75-.8,11.64-.49,2,.16,3.98.48,5.93.96,1.76.43,3.66,1.43,5.48,1.38.82-.02,1.37-1.07.72-1.68-1.35-1.28-3.43-1.64-5.19-2.05-2.06-.49-4.16-.81-6.27-.97-4.2-.32-8.5-.06-12.48,1.38-.73.26-.72,1.57.18,1.47h0Z"/>
          <path class="cls-1" d="M61.94,70.74c.6.24,1.35.66,2.01.45.51-.16.84-.77.53-1.27-.42-.67-1.3-.84-2-1.08-.49-.17-1.1.17-1.22.67-.13.56.16,1.01.67,1.22h0Z"/>
        </g>
      </g>
      <rect class="cls-2" width="100" height="100"/>
    </g>
  </g>
</svg>