<?xml version="1.0" encoding="UTF-8"?>
<svg id="Capa_2" data-name="Capa 2" xmlns="http://www.w3.org/2000/svg" viewBox="0 0 100 100">
  <defs>
    <style>
      .cls-1 {
        fill: #fff;
      }

      .cls-2 {
        fill: #f36074;
      }

      .cls-3 {
        fill: none;
      }

      .cls-4 {
        fill: #4a2d2d;
      }

      .cls-5 {
        fill: #fbc678;
      }

      .cls-6 {
        fill: #f2a480;
      }
    </style>
  </defs>
  <g id="COLOR">
    <g>
      <g>
        <g>
          <path class="cls-4" d="M21.83,54.55s-.42,7.41,1.13,8.82c1.55,1.41,22.02.64,24.35.49s2.61-1.41,2.89-3.53.21-6.92.21-6.92l-28.58,1.13Z"/>
          <path class="cls-6" d="M69.12,41.78c-.11,3.67-10.31,7.62-14.26,10.45-3.95,2.82-11.79,9.18-13.27,10.8-.07.08-.15.16-.22.24h0c-.33.36-.66.7-.99,1.01h0c-.12.11-.24.22-.36.31-.25.21-.51.41-.78.58h0c-.11.07-.22.14-.33.2-.21.12-.43.22-.66.3-.09.03-.17.06-.26.09-.2.06-.41.1-.62.13-.14.02-.29.03-.44.04-.11,0-.22,0-.33,0,0,0-.1.02-.29.02-.11,0-.25,0-.42-.03-.17-.02-.38-.06-.63-.12,0,0,0,0-.01,0h0c-.2-.05-.41-.12-.65-.2-.07-.03-.15-.05-.22-.09-.18-.07-.37-.16-.58-.26h0s-.07-.04-.11-.06c-.21-.1-.43-.23-.66-.37h0c-.42-.25-.88-.56-1.37-.94-3.11-2.4-10.52-8.89-16.16-13.2-5.65-4.3-10.45-6.99-10.66-10.52-.16-2.64,1.86-3.5,2.88-3.77.35-.09.58-.11.58-.11,0,0-.1-.15-.23-.41h0c-.49-.94-1.47-3.34-.26-5.88,1.2-2.52,3.18-3.17,4-3.33.24-.05.37-.05.37-.05,0,0-.04-.17-.09-.46-.16-1.08-.26-3.81,2.13-5.4,1.92-1.26,3.46-1.19,4.24-1.02h0c.36.08.55.17.55.17,0,0-.02-.17,0-.44h0c.04-.97.43-3.27,3.04-4.43,2.23-.99,3.97-.31,4.67.07.22.12.34.21.34.21,0,0,.07-.2.24-.5.48-.87,1.78-2.63,4.45-2.99,3.18-.44,4.91,1.5,5.27,1.97.05.06.07.1.07.1,0,0,.2-.19.57-.43.81-.53,2.43-1.31,4.42-.82,2.26.55,2.79,2.09,2.93,2.74h0c.03.18.04.3.04.3,0,0,.23-.17.64-.36.93-.45,2.78-1.08,4.93-.34,2.48.84,3.03,3.4,3.14,4.4h0c.03.25.03.4.03.4,0,0,.22-.08.6-.16,1.04-.22,3.23-.4,5.05,1.36,1.88,1.83,1.67,4.27,1.47,5.33h0c-.06.33-.13.53-.13.53,0,0,.17,0,.44.03,1.07.11,3.81.68,4.92,3.65.98,2.61-.35,4.89-1.01,5.8-.19.27-.33.41-.33.41,0,0,.27.01.67.1h0c1.24.28,3.74,1.31,3.63,4.98Z"/>
          <path class="cls-4" d="M33.78,65.23h0c-.08-.27-.17-.53-.26-.78t0,0s0-.01,0-.02c0,0,0,0,0-.01-.41-1.18-.94-2.32-1.48-3.46-1.04-2.21-2.28-4.31-3.7-6.3-2.36-3.33-5.13-6.36-8.06-9.2-2.78-2.69-5.75-5.19-8.92-7.41-1.07-.75-2.17-1.51-3.31-2.17l-.34.52c.82.48,1.62,1.01,2.41,1.54,2.94,1.99,5.71,4.22,8.31,6.63,5,4.6,9.67,9.82,12.71,15.95.53,1.08,1.05,2.17,1.49,3.29.12.32.26.66.39,1.01h0c.23.14.45.26.66.37l.11.06Z"/>
          <path class="cls-4" d="M33.78,65.23c.21.1.4.19.58.26-.24-1.07-.47-2.15-.72-3.22-.17-.72-.37-1.44-.61-2.14-.85-2.52-2.03-4.93-3.22-7.29-1.07-2.12-2.19-4.21-3.32-6.29-1.51-2.76-3.02-5.52-4.67-8.21-2.19-3.56-4.59-7.07-7.49-10.1-.7-.73-1.43-1.43-2.21-2.05l-.05-.04c.04.29.09.46.09.46,0,0-.14,0-.37.05.52.42,1.01.91,1.5,1.39,2.72,2.67,4.97,5.83,7.02,9.03,1.67,2.59,3.18,5.28,4.67,7.98,1.24,2.25,2.46,4.5,3.64,6.78,1.33,2.57,2.65,5.17,3.64,7.9.55,1.52.92,3.1,1.26,4.68,0,0,0,.01,0,.02t0,0c.05.24.1.49.15.73l.11.06Z"/>
          <path class="cls-4" d="M34.3,60.33c.31,1.82.66,3.63.94,5.45-.2-.05-.41-.12-.65-.2-.31-2.03-.7-4.04-1.06-6.06-.66-3.74-1.51-7.45-2.59-11.1-1.63-5.56-3.77-10.94-6.14-16.23-1.68-3.73-3.47-7.42-5.49-10.98-.28-.5-.57-1-.86-1.5.36.08.55.17.55.17,0,0-.02-.17,0-.44.48.79.94,1.6,1.39,2.41,2.17,3.94,4.09,8.02,5.89,12.14,2.26,5.21,4.26,10.51,5.76,15.99.93,3.4,1.66,6.84,2.26,10.32Z"/>
          <path class="cls-4" d="M35.88,65.91c-.17-.02-.38-.06-.63-.12-.15-2.25-.18-4.53-.32-6.78-.28-4.72-.74-9.44-1.39-14.12-.79-5.66-1.87-11.28-3.2-16.84-.9-3.78-1.91-7.54-3.09-11.24-.18-.57-.36-1.13-.55-1.7.22.12.34.21.34.21,0,0,.07-.2.24-.5.32.95.6,1.92.9,2.87,1.23,3.99,2.28,8.04,3.2,12.11,1.27,5.62,2.3,11.3,3.03,17.03.57,4.48.96,8.97,1.21,13.48.08,1.45.14,2.9.2,4.35.02.42.03.84.05,1.25Z"/>
          <path class="cls-4" d="M37.66,13.45c-.1,1.78-.19,3.55-.28,5.33-.23,5.19-.34,10.39-.4,15.59-.05,4.69-.1,9.39-.14,14.09-.03,3.52-.06,7.04-.04,10.56.01,2.3.06,4.59.11,6.89-.11,0-.22,0-.33,0,0,0-.1.02-.29.02-.05-2.61-.1-5.22-.11-7.83,0-3.77.03-7.55.06-11.32.04-4.71.09-9.42.15-14.14.06-5.18.21-10.36.46-15.53.05-1.11.11-2.22.17-3.33.05.06.07.1.07.1,0,0,.2-.19.57-.43Z"/>
          <path class="cls-4" d="M45.69,15.3c-.13.34-.25.68-.37,1.03-1.41,4.05-2.35,8.29-3.21,12.49-1.19,5.76-2.01,11.6-2.62,17.45-.39,3.72-.64,7.45-.96,11.18-.23,2.76-.4,5.52-.54,8.28-.2.06-.41.1-.62.13.17-3.12.38-6.23.62-9.34.32-4.17.65-8.33,1.12-12.49.69-6.01,1.62-11.99,2.94-17.89.81-3.62,1.65-7.3,2.97-10.79.03.18.04.29.04.29,0,0,.23-.17.64-.36Z"/>
          <path class="cls-4" d="M38.9,65.36c.37-2.53.75-5.06,1.17-7.59.51-3.02,1.15-6.02,1.91-8.98,1.2-4.68,2.7-9.3,4.42-13.81,1.64-4.3,3.59-8.48,6-12.4.63-1.02,1.29-2.01,1.99-2.98-.37.08-.6.16-.6.16,0,0,0-.15-.03-.4-.43.6-.83,1.22-1.23,1.84-2.3,3.57-4.21,7.39-5.82,11.32-1.93,4.69-3.55,9.52-4.88,14.42-.88,3.23-1.62,6.49-2.2,9.79-.52,2.97-.97,5.95-1.39,8.94l.66-.3Z"/>
          <path class="cls-4" d="M61.23,26.84c-.33.3-.66.62-.98.93-3.4,3.33-6.26,7.15-8.89,11.1-2.19,3.29-4.16,6.73-5.85,10.3-1.58,3.34-2.97,6.78-4.06,10.31-.52,1.68-1,3.38-1.44,5.09-.25.21-.51.41-.78.58.61-2.51,1.33-5.01,2.14-7.46,1.14-3.45,2.59-6.81,4.19-10.06,1.84-3.73,3.99-7.29,6.36-10.7,2.66-3.82,5.54-7.47,8.97-10.64,0,0,0,0,.02-.01-.06.33-.13.52-.13.52,0,0,.17,0,.44.03Z"/>
          <path class="cls-4" d="M65.48,36.8c-.89.51-1.77,1.04-2.63,1.58-3.02,1.89-5.86,4-8.47,6.43-2.5,2.32-4.86,4.78-6.89,7.52-2.48,3.35-4.71,6.99-6.11,10.94h0c-.33.36-.66.7-.99,1.01.57-1.88,1.33-3.72,2.24-5.44,1.43-2.7,3.16-5.32,5.03-7.73,2.18-2.79,4.68-5.3,7.31-7.67,2.58-2.32,5.45-4.31,8.41-6.1.59-.36,1.18-.71,1.77-1.05-.19.27-.33.41-.33.41,0,0,.27.01.67.1Z"/>
        </g>
        <g>
          <path class="cls-1" d="M72.43,46.44s-.99,3.67-5.22,4.31c-4.23.64-7.48.35-12.14-1.62-4.66-1.98-7.83-2.4-10.59-.92s-2.4,4.31-2.4,4.31c0,0-3.81-.85-5.29,1.55s-.61,4.04-.61,4.04c0,0-3.84.62-3.77,3.37.07,2.75,1.27,3.39,1.27,3.39,0,0-2.96,1.76-1.91,4.38s4.02,3.03,4.02,3.03c0,0-2.4.92-1.13,3.95,1.27,3.03,5.08,3.25,5.08,3.46s-.35,4.59,3.53,5.58c3.88.99,5.36-.85,5.36-.85,0,0,.49,3.46,4.23,3.95,3.74.49,5.08-1.69,5.08-1.69,0,0,1.91,3.11,5.86,2.75,3.95-.35,4.59-2.68,4.59-2.68,0,0,3.6,2.33,6.28,1.55,2.68-.78,3.39-4.02,3.39-4.02,0,0,2.89,2.12,5.86-1.13,2.96-3.25,2.12-3.25,2.12-3.25,0,0,4.16.07,5.86-2.89,1.69-2.96-5.29-12.49-5.29-12.7s2.33.49,3.18-2.19.64-5.08.64-5.08c0,0-9.39-5.15-12.35-6.78s-5.65-3.81-5.65-3.81Z"/>
          <path class="cls-4" d="M58.41,85.06c.66-.91,1.26-1.94,1.49-3.06.04-.2-.26-.36-.35-.15-.44,1.04-.85,2.06-1.48,3.01-.14.22.2.41.34.2h0Z"/>
          <path class="cls-5" d="M55.48,62.75s5.9-5.6,12.16-6.02c6.26-.42,11.44,5.3,11.98,8.67s-1.32,5.54-4.15,8.07c-2.83,2.53-15.17,1.02-18.73-1.87-3.55-2.89-1.26-8.85-1.26-8.85Z"/>
          <path class="cls-2" d="M55.48,62.75s-1.01,3.38,1.85,5.25c2.86,1.87,9.42,3.11,13.16,3.53s5.79.42,5.72,2.82-7.9,6.35-16.9,5.68c-9-.67-12.1-6.63-11.61-10.97.43-3.75,3.03-5.43,5.01-6.03,1.98-.6,2.77-.28,2.77-.28Z"/>
          <path class="cls-4" d="M87.43,64.56c.95-.1,1.91-.08,2.42-1.09.37-.75.37-1.76.52-2.57.23-1.25.43-2.5.66-3.75.05-.27-.04-.49-.26-.65-2.83-1.99-6.14-3.32-9.14-5.04-3.02-1.74-5.92-3.65-8.88-5.49-.43-.26-.93.16-.92.57l-.08.26c-1.15,3.37-5.85,3.86-8.86,3.62-3.46-.27-6.71-1.51-9.97-2.59-2.54-.84-5.43-1.52-8.01-.45-1.73.72-3.35,2.42-3.36,4.35-4.66-.6-7.1,2.55-6.15,5.76-3.13.79-4.28,4.55-2.68,7.19-1.31,1.09-1.95,2.66-1.47,4.46.4,1.5,1.75,2.96,3.32,3.31-.96,1.11-1.2,2.7-.59,4.15.88,2.11,3.07,3.33,5.27,3.63-.09,1.04-.13,1.99.38,3,.57,1.14,1.56,2.01,2.71,2.53,1.6.73,4.22.84,5.79-.33.64,1.48,2,2.93,3.58,3.41,1.93.58,4.96.07,6.26-1.68,2.54,3.46,8.23,4,10.76.25,1.29,1.31,3.44,1.8,5.19,1.38,2.04-.48,3.58-1.97,4.45-3.82,3.3,1.05,7.02-.84,7.85-4.34,3.04.47,6.41-1.18,6.79-5.05.45-4.61-4.27-7.13-5.56-11.05ZM90.85,78.01c-1.8,1.56-3.19,1.37-4.73,1.08-.48-.09-.82.22-.92.58-.01.03-.03.06-.04.09-1.05,3.61-2.89,5.27-6.99,3.76-.25-.09-.65.03-.74.3-.56,1.73-1.95,3.39-3.71,3.85-1.82.47-3.44-.42-4.79-1.79-.25-.24-.6-.13-.85.23-1.13,1.71-2.57,2.72-4.58,2.83-1.99.11-3.97-1.24-5.09-2.85-.1-.15-.25-.21-.39-.22-.05-.01-.11-.02-.17.01-.03.02-.06.03-.1.05,0,0-.01,0-.02,0-1.32,1.22-2.91,2.37-4.9,2.15-2.29-.26-3.22-2.33-3.76-4.35-.16-.61-1.76.55-2.02.71-1.18.72-2.38,1.15-3.75.67-2.33-.83-3.72-3.19-2.85-5.14.17-.38.17-.79-.27-.76-1.38.08-3.58-.77-4.66-1.96-1.18-1.3-1.05-3.76.53-4.84.55-.38.37-.94-.19-.9-1.18-.27-2.87-.9-3.49-2.1-.58-1.11-.19-3.65,1.43-3.97.44-.09.75-.48.42-.79-2.24-2.14-1.59-5.61,2.07-6.23.15-.03.24-.12.29-.23.08-.12.12-.28.07-.46-.41-1.49-.1-3.42,1.34-4.3,1.31-.81,2.89-.46,4.31-.39.28.01.45-.13.52-.32.02-.03.04-.07.04-.11-.21-1.93.56-3.59,2.4-4.26,1.64-.6,3.38-.42,5.03,0,3.14.8,6.63,2.46,9.84,3.02,4.02.7,10.77.61,12.48-3.99,2.59,2.02,5.36,3.8,8.19,5.47,2.83,1.67,5.8,3.57,8.98,4.54-.3,1.25-.61,2.49-.92,3.74-.21.84-.22,1.46-1.17,1.84-.4.16-.96.11-1.39.25-.4.13-.62.51-.53.92.76,3.2,3.32,5.3,4.81,8.11.83,1.57,1.76,4.45.26,5.74Z"/>
          <path class="cls-4" d="M80.9,51.66c0-.13-.06-.26-.14-.36-.13-.41-.69-.73-1.11-.34-1.26,1.17-2.47,2.42-3.07,4.06-.3.81-.83,2.78.24,3.26,1.16.52,2.05-1.12,2.49-1.9.75-1.35,1.66-3.16,1.6-4.73Z"/>
          <path class="cls-4" d="M45.3,54.37c2.31,1.86,5.34,2.8,8.3,2.87.27,0,.34-.42.07-.48-2.87-.65-5.61-1-8.08-2.75-.21-.15-.48.2-.28.36h0Z"/>
          <path class="cls-4" d="M36.79,65.59c2.75,1.04,6.2,1.59,9.04.54.24-.09.23-.5-.06-.47-3.13.25-5.79.48-8.85-.5-.28-.09-.39.34-.12.44h0Z"/>
          <path class="cls-4" d="M38.35,71.81c1.67.15,3.48.14,5.07-.44.24-.09.14-.41-.1-.38-1.67.24-3.27.51-4.97.42-.26-.01-.25.37,0,.4h0Z"/>
          <path class="cls-4" d="M41.8,79.16c2.1-.05,4.5-.67,6.02-2.2.17-.17-.05-.44-.25-.32-1.89,1.07-3.55,1.97-5.77,2.17-.23.02-.23.36,0,.36h0Z"/>
          <path class="cls-4" d="M77.43,82.43c-.02-1.68-.2-3.41-.97-4.92-.13-.25-.52-.08-.45.19.43,1.58.93,3.08,1.03,4.74.01.25.4.25.39,0h0Z"/>
          <path class="cls-4" d="M85.69,78.19c-.42-1.48-1.07-2.94-2.13-4.08-.18-.19-.5.06-.36.28.79,1.27,1.53,2.5,2.01,3.93.1.29.56.18.47-.13h0Z"/>
          <path class="cls-4" d="M86.85,77.42c-.14-1.03-.41-2.08-1.02-2.94-.17-.24-.51-.04-.4.23.4.91.78,1.78.98,2.77.05.24.47.19.43-.06h0Z"/>
          <path class="cls-4" d="M39.61,59.19c2.6,1.05,5.57,1.95,8.4,1.76.23-.02.31-.38.06-.43-2.87-.47-5.59-.75-8.36-1.73-.25-.09-.34.29-.11.39h0Z"/>
          <path class="cls-1" d="M51.63,66.76c-.65,1.6-.15,3.51.62,4.98.65,1.24,2.16,3.01,3.73,2.37.52-.22.69-.76.32-1.2-.71-.86-1.78-1.11-2.42-2.11-.69-1.09-1.01-2.35-.81-3.63.15-.95-1.08-1.29-1.44-.4h0Z"/>
          <path class="cls-1" d="M58.07,75.11c.17.05.34.1.52.11s.42.02.58-.1c.19-.15.33-.37.25-.62-.14-.43-.61-.57-.99-.71-.34-.12-.76.13-.84.48s.11.74.48.84h0Z"/>
          <path class="cls-4" d="M69.49,68.19c.23-.21.43-.45.61-.71.09-.13.17-.28.23-.42s.1-.31.08-.47c-.01-.09-.14-.14-.21-.09-.12.09-.21.23-.3.35s-.16.24-.23.36-.15.23-.23.35c-.01.02-.02.03-.04.05.02-.02,0,0,0,0-.02.03-.04.06-.07.08-.05.06-.1.12-.15.17-.08.09-.09.23,0,.32s.22.09.32,0h0Z"/>
          <path class="cls-4" d="M71.88,68.89c.81-.66,1.59-1.49,1.91-2.5.04-.12-.14-.24-.22-.13-.32.39-.62.81-.94,1.2s-.68.77-1.08,1.1c-.1.08-.08.24,0,.33.1.1.23.08.33,0h0Z"/>
          <path class="cls-4" d="M61.61,74.69c.62.66,1.48.92,2.36,1.03.45.06.91.07,1.37.08.28,0,.56.02.83.01s.58,0,.81-.16c.16-.1.15-.31,0-.42-.2-.14-.47-.16-.71-.18-.26-.02-.52-.03-.78-.03-.43,0-.85-.01-1.28-.03-.77-.03-1.62-.15-2.24-.66-.25-.21-.59.12-.36.36h0Z"/>
          <path class="cls-4" d="M69.75,75.35l.47-.12c.09-.02.17-.07.25-.11l.11-.05s.08-.05.12-.08c.09-.08.04-.23-.07-.26-.09-.02-.18-.02-.27-.02s-.19,0-.28.02l-.48.1c-.14.03-.23.2-.19.33.05.14.19.23.33.19h0Z"/>
          <path class="cls-1" d="M67.6,58.66c-2.1.36-4.83,1.2-6,3.13-.38.64.25,1.38.94,1.22.98-.24,1.76-.78,2.64-1.24.94-.5,1.92-.92,2.92-1.28,1.16-.41.7-2.04-.51-1.84h0Z"/>
          <path class="cls-1" d="M59.8,66.33c1.16,0,1.16-1.81,0-1.81s-1.16,1.81,0,1.81h0Z"/>
        </g>
      </g>
      <rect class="cls-3" width="100" height="100"/>
    </g>
  </g>
</svg>