<?xml version="1.0" encoding="UTF-8"?>
<svg id="Capa_2" data-name="Capa 2" xmlns="http://www.w3.org/2000/svg" viewBox="0 0 100 100">
  <defs>
    <style>
      .cls-1 {
        fill: none;
      }

      .cls-2 {
        fill: #fccf8e;
      }

      .cls-3 {
        fill: #4a2d2d;
      }

      .cls-4 {
        fill: #6fb0ac;
      }
    </style>
  </defs>
  <g id="COLOR">
    <g>
      <g>
        <path class="cls-2" d="M23.67,95.09s5.96-16.91,22.23-22.71c16.27-5.8,27.86,5.64,32.86,21.58,2.37,7.57-53.96,4.19-55.09,1.13Z"/>
        <path class="cls-4" d="M64.09,79.54c2.09-1.05,10.71-11.68,10.87-20.86s-8.05-15.78-9.5-20.78,1.53-9.74,1.53-9.74c0,0-7.25,3.14-9.99,9.91-2.74,6.76.97,14.01,4.03,19.01,3.06,4.99,2.42,10.47,1.77,14.5s-2.37,4.78-2.26,6.63c.06,1.02,1.45,2.39,3.55,1.34Z"/>
        <path class="cls-4" d="M50.97,9.88s3.79,3.06,4.91,8.86-2.9,11.84-4.67,14.66c-1.77,2.82-2.9,7.41-.72,12.32s6.68,10.31,7.41,16.91c.72,6.6-1.21,10.71-2.42,13.21s-4.59,2.98-5.88,2.42c-1.29-.56-1.85-1.53-1.21-2.82s2.25-4.91-1.21-13.05c-2.55-5.98-8.78-11.97-8.91-18.71-.19-10.64,11.47-15.43,13.74-25.02.72-3.06-1.05-8.78-1.05-8.78Z"/>
        <path class="cls-4" d="M43.15,77.93s2.25-8.86-.16-14.01c-2.42-5.15-7.17-6.76-8.94-9.66-1.77-2.9-.89-6.2.4-11.11,1.29-4.91,1.77-8.7-.56-12.32-2.34-3.62-8.54-5.23-8.54-5.23,0,0,2.18,1.62,2.42,4.99.54,7.76-7.33,13.14-5.82,21.09.71,3.74,3.2,7.16,6.62,8.87,4.83,2.42,8.05,4.99,9.02,8.38.97,3.38,1.05,6.36.89,8.05s-.32,2.34-.32,2.34c0,0,.4.97,2.5.72,2.09-.24,2.5-2.09,2.5-2.09Z"/>
        <g>
          <path class="cls-3" d="M40.78,20.5c-2.34-2.42-6.71,1.05-4.61,3.84,1.07,1.41,3.05,1.64,4.41.51,1.35-1.13,1.43-3.08.21-4.35ZM39.85,23.69c-.69.81-1.91.89-2.64.07-1.29-1.45,1.09-3.82,2.5-2.54.68.62.72,1.78.13,2.47Z"/>
          <path class="cls-3" d="M43.97,1.89c-1.45-.08-2.5,1.26-2.22,2.65.25,1.25,1.65,2,2.83,1.53,2.01-.81,1.61-4.07-.61-4.18ZM43.82,3.07c.65-.03,1.15.6.99,1.24-.14.53-.72.85-1.25.68-.42-.13-.71-.57-.68-1.01s.38-.83.82-.9c.04,0,.09-.01.13-.01Z"/>
          <path class="cls-3" d="M65.77,13.4c-2.06-.31-4.15,1.85-3.74,3.92.61,3.11,5.17,3.09,6.29.37.79-1.91-.55-3.99-2.55-4.29ZM66.08,18.04c-.72.44-1.67.38-2.39-.07-.62-.39-.48-1.44-.15-1.97.41-.67,1.21-1.22,2.02-1.09,1.5.23,1.91,1.9.81,2.91-.09.08-.19.16-.29.22Z"/>
          <path class="cls-3" d="M34.29,91.77c.24,0,.47-.04.68-.15.22-.07.41-.19.57-.37.17-.16.29-.35.37-.57.11-.21.16-.44.15-.68l-.06-.47c-.08-.3-.24-.56-.46-.78l-.36-.28c-.28-.16-.57-.24-.89-.24-.24,0-.47.04-.68.15-.22.07-.41.19-.57.37-.17.16-.29.35-.37.57-.11.21-.16.44-.15.68l.06.47c.08.3.24.56.46.78l.36.28c.28.16.57.24.89.24h0Z"/>
          <path class="cls-3" d="M39.35,84.61h-.02c-.09.08-.18.15-.27.23l-.21.27-.14.32c-.06.18-.06.36-.02.54,0,.12.03.24.09.34.03.11.09.21.17.3.06.1.14.18.24.24.13.12.28.2.46.24.26.06.46.06.72,0l.32-.14.27-.21.21-.27c.1-.16.15-.32.16-.5.03-.12.03-.24,0-.36,0-.12-.03-.24-.09-.34-.03-.11-.09-.21-.17-.3-.1-.15-.22-.26-.38-.35h-.02c-.21-.13-.43-.19-.67-.19-.24,0-.46.06-.67.18h0Z"/>
          <path class="cls-3" d="M42.17,90.5s.06.07.08.11c.17.23.23.34.49.48.12.07.23.11.36.15.22.06.45.06.67,0,.21-.06.4-.17.56-.33.16-.16.27-.34.33-.56.06-.22.06-.45,0-.67-.04-.12-.08-.24-.15-.36-.15-.25-.26-.31-.48-.49-.04-.03-.07-.06-.11-.08l-.3-.13c-.17-.05-.34-.06-.51-.02-.12,0-.22.03-.32.09-.16.05-.29.14-.41.26l-.2.26-.13.3c-.05.17-.06.34-.02.51,0,.17.06.33.15.47h0Z"/>
          <path class="cls-3" d="M30.3,31.6c.47,4.47-2.26,8.28-2.98,12.56-.55,3.28.02,6.68,1.45,9.66,1.73,3.62,4.86,5.53,7.69,8.17,1.64,1.53,2.84,3.38,3.55,5.52.75,2.25.51,4.32.34,6.62-.04.48.67.53.81.11,1.05-3.23,0-7.37-1.73-10.18-2.11-3.42-5.88-5.16-8.34-8.26-2.71-3.41-3.75-7.99-2.75-12.23.95-4.02,3.27-7.7,2.73-11.97-.06-.48-.83-.5-.77,0h0Z"/>
          <path class="cls-3" d="M50.41,26.92c-3.4,2.88-6.56,6.49-7.42,10.98-.76,3.95.08,8.13,2.19,11.54,1.26,2.05,2.94,3.8,4.31,5.76,1.38,1.97,2.37,4.16,2.94,6.5,1.17,4.89.02,9.29-1.84,13.8-.18.43.47.63.71.3,4.62-6.48,2.95-16.34-1.7-22.26-1.49-1.9-3.18-3.68-4.29-5.85s-1.69-4.88-1.59-7.42c.22-5.54,3.68-9.01,7.29-12.77.38-.39-.18-.93-.59-.59h0Z"/>
          <path class="cls-3" d="M60.79,36.78c-.87,3.22-.82,6.22-.18,9.48s2.36,6.21,4.05,9.2c2.02,3.59,3.08,7.16,2.28,11.29s-3.05,7.1-4.7,10.72c-.24.52.42.9.76.44,3.93-5.32,7.01-13.05,4.36-19.52-1.28-3.14-3.43-5.82-4.83-8.91-1.79-3.96-2.03-8.3-1.09-12.53.09-.42-.53-.59-.64-.18h0Z"/>
        </g>
      </g>
      <rect class="cls-1" width="100" height="100"/>
    </g>
  </g>
</svg>