<?xml version="1.0" encoding="UTF-8"?>
<svg id="Capa_2" data-name="Capa 2" xmlns="http://www.w3.org/2000/svg" viewBox="0 0 100 100">
  <defs>
    <style>
      .cls-1 {
        fill: #fff;
      }

      .cls-2 {
        fill: none;
      }

      .cls-3 {
        fill: #809ab4;
      }

      .cls-4 {
        fill: #4a2d2d;
      }
    </style>
  </defs>
  <g id="COLOR">
    <g>
      <g>
        <path class="cls-3" d="M23.53,63.8s6.52-15.04,3.19-25.68c-3.33-10.65-13.97-20.36-10.65-24.35,3.33-3.99,19.52-2.51,37.52,11.98,17.7,14.24,19.83,28.34,20.76,32.47.93,4.12.4,5.46.4,5.46,0,0-3.86-.93-7.85-3.86s-6.12-6.52-6.12-6.52c0,0-1.47,7.95-11.18,8.38-5.99.27-9.85-6.79-9.85-6.79,0,0-3.73,5.85-8.52,7.85-4.79,2-7.72,1.06-7.72,1.06Z"/>
        <g>
          <path class="cls-4" d="M87.85,59.14c-2.81,3.44-8.61,4.3-12.76,3.6-5.34-.9-11.02-4.28-12.99-9.58-.35-.95-1.69-1.03-2.02,0-1.21,3.9-4.63,6.98-8.74,7.49-4.16.51-9.16-2-10.71-6.03-.25-.67-1.29-.99-1.67-.22-2.21,4.46-6.02,7.34-10.93,8.28-5.72,1.09-11.52-1-16.44-3.8-.9-.51-1.69.85-.81,1.38,5.39,3.22,11.72,5.39,18.05,4.24,4.45-.81,8.92-3.58,11.06-7.66,2.61,3.83,6.68,6.38,11.58,5.86,4.24-.46,7.89-3.18,9.78-6.91,3.16,4.92,7.77,8.23,13.78,9.31,2.75.5,5.48.33,8.17-.42,2.41-.67,5.23-1.79,6.51-4.09.63-1.13-.98-2.53-1.87-1.44Z"/>
          <path class="cls-4" d="M86.43,72.54c-4.73,1.46-9.11,2.46-14.02,1.02-4.14-1.22-8.36-4.3-10.57-8.07-.34-.58-1.3-.64-1.62,0-1.06,2.13-1.86,4.14-3.62,5.84-1.7,1.65-3.87,2.74-6.23,2.98-5.85.59-8.66-3.92-10.59-8.7-.34-.84-1.27-.94-1.81-.24-6.22,8.08-15.74,11.08-25.61,10.58-.84-.04-.98.87-.14,1.06,9.53,2.11,20.01-2.43,26.34-9.63.92,2.36,2.03,4.68,3.96,6.37,2.04,1.78,4.78,2.65,7.47,2.56,4.89-.16,9.76-3.84,11.48-8.51,1.03,1.49,2.14,2.83,3.65,4.05,1.92,1.55,4.08,2.74,6.4,3.56,4.92,1.73,11.36,1.7,15.82-1.25,1.01-.67.34-1.99-.92-1.61Z"/>
          <path class="cls-4" d="M85.43,84.02c-4.1,2.75-8.43,3.37-13.2,2.36-3.12-.66-7.51-5.19-8.51-7.44-.29-.65-1.36-.46-1.5.2-1.29,5.78-7.38,10.48-13.25,10.64-6.28.17-11.81-4.07-13.79-9.93-.19-.56-1-.91-1.44-.38-5.51,6.63-13.6,12.21-22.58,9.7-.62-.17-1.08.81-.45,1.07,9,3.83,17.42-2.46,23.34-8.88,2.07,6.21,8.42,10.95,15.03,10.79,6.69-.16,11.88-4.58,14.1-10.51,1.6,3.18,4.93,5.43,8.27,6.48,4.89,1.54,11.19.63,15.18-2.69.87-.72-.31-2-1.2-1.4Z"/>
        </g>
        <path class="cls-1" d="M35.72,22.21c3.9,2.11,7.59,4.69,10.9,7.64,1.56,1.39,3.02,2.9,4.38,4.48,1.38,1.61,2.5,3.83,4.33,4.96,1.2.74,2.31-.48,2.14-1.65-.3-2.14-2.26-4.13-3.62-5.72-1.55-1.83-3.28-3.52-5.11-5.08-3.6-3.05-7.64-5.29-12.06-6.89-1.32-.48-2.17,1.6-.95,2.25h0Z"/>
        <path class="cls-1" d="M58.05,43.83l.25.54c.16.34.42.54.71.76s.74.19,1.05.06c.33-.14.59-.41.68-.76.04-.18.09-.35.09-.54,0-.17-.05-.37-.09-.54l-.14-.58c-.2-.82-1.14-1.22-1.89-.91-.35.15-.59.39-.74.74-.18.43-.13.83.07,1.24h0Z"/>
      </g>
      <rect class="cls-2" width="100" height="100"/>
    </g>
  </g>
</svg>