<?xml version="1.0" encoding="UTF-8"?>
<svg id="Capa_2" data-name="Capa 2" xmlns="http://www.w3.org/2000/svg" viewBox="0 0 100 100">
  <defs>
    <style>
      .cls-1 {
        fill: #f57586;
      }

      .cls-2 {
        fill: none;
      }

      .cls-3 {
        fill: #f9b5be;
      }

      .cls-4 {
        fill: #4a2d2d;
      }
    </style>
  </defs>
  <g id="COLOR">
    <g>
      <g>
        <path class="cls-4" d="M50.52,17.32c-.54.08-.33.82.12.88,2.26.28,5.77,1.78,3.09,4.4-1.59,1.55-4.17,2.26-6.26,2.85-4.36,1.23-8.89,1.65-13.31,2.59-3.69.78-7.72,1.83-10.49,4.56-1,.99-1.74,2.18-1.28,3.6.36,1.12,1.08,1.59,1.38,1.91.39-.31.62-.57,1.08-.77-.92-.76-1.36-1.59-1.33-2.24.05-1.48,1.34-2.6,2.58-3.19,2.12-1,4.46-1.67,6.74-2.21,4.59-1.09,9.31-1.5,13.89-2.67,2.99-.76,8.33-1.94,9.33-5.43.95-3.34-2.94-4.66-5.53-4.29Z"/>
        <path class="cls-4" d="M36.05,16.23c-.47-.21-1.05.37-.6.77,3.72,3.39-7.44,6.36-9.3,6.9-3.32.95-7.14,1.67-9.92,3.86-2.16,1.71-3.1,4.43-1.51,6.87,1.63,2.51,4.92,4.15,8.29,4.66.05-.13.12-.25.18-.37.13-.23.28-.46.46-.68-1.75-.39-4.56-1.47-5.91-2.66-1.44-1.27-3.21-3.4-2.08-5.38,1.8-3.16,6.79-3.9,9.98-4.74,3.36-.88,7.26-1.77,10.08-3.93,1.62-1.24,2.78-4.22.33-5.3Z"/>
        <path class="cls-4" d="M64.54,51.59c-.89,1.12-1.73,2.38-2.83,3.3-1.26,1.05-2.87,1.3-4.19,2.2-.52.35-.37,1.28.34,1.25,3.55-.13,6.18-3.07,7.64-6.01.29-.58-.5-1.32-.96-.74h0Z"/>
        <path class="cls-4" d="M68.11,54.85c-.93,1.25-2.01,2.41-3.2,3.42-1.12.95-2.49,1.61-3.51,2.67-.49.51.02,1.18.64,1.09,3.13-.44,5.95-3.83,7.51-6.34.58-.93-.81-1.68-1.44-.84h0Z"/>
        <path class="cls-4" d="M70.61,58.8c-.33,1.15-1.2,2.13-2.13,2.85s-2.15,1.14-2.88,2.08c-.33.43-.16,1.16.48,1.15,1.52-.02,3.02-1.09,4.09-2.08,1.13-1.04,1.72-2.28,1.91-3.8.11-.85-1.24-.98-1.46-.2h0Z"/>
        <path class="cls-1" d="M62.63,36.4s-33.97.06-38.17.85-1.7,8.28,3.63,12.25c5.33,3.97,13.04,6.13,20.53,4.2,7.49-1.93,10.59-6.98,12.42-10.55,2.04-3.97,1.59-6.75,1.59-6.75Z"/>
        <path class="cls-1" d="M60.73,36.51s11.22-1.33,19.17,6.95c7.26,7.56,9.46,17.03,4.12,26.01-5.52,9.3-12.93,9.3-14.29,8.62-1.36-.68-2.5-1.85-1.7-2.31s5.55-5.78,2.08-14.67c-2.52-6.45-8.28-8.28-11.91-9.07-3.63-.79-6.69-1.21-6.69-1.21,0,0,7.75-14.32,9.22-14.32Z"/>
        <path class="cls-3" d="M80.68,71.54c-1.42.11-2.85.11-4.26-.11-1.47-.23-2.97-.7-4.25-1.46-.33-.2-.65-.41-.96-.63-.57,3.89-2.68,6.16-3.18,6.45-.79.45.34,1.63,1.7,2.31,1.27.63,7.79.67,13.14-6.85-.72.15-1.45.24-2.18.3Z"/>
        <path class="cls-3" d="M72.42,59.57c2.79-.07,5.58-.62,8.09-1.9,1.36-.7,2.61-1.55,3.72-2.6.56-.53,1.11-1.08,1.59-1.69.06-.07.11-.15.16-.22-1.13-3.44-3.21-6.73-6.08-9.72-.91-.95-1.87-1.77-2.85-2.48-.37.95-.82,1.87-1.32,2.76-2.67,4.79-7.12,8.02-12.01,10.24,2.13,1.13,4.2,2.86,5.65,5.56,1.02.05,2.04.07,3.05.05Z"/>
        <path class="cls-1" d="M71.16,76.82c-.3-.3-.62-.57-.98-.79-1.3-.78-2.84-1-4.31-1.21-.83-.11-1.66-.16-2.49-.14-4.99.11-7.66,2.04-6.92,3.46s8.62.34,8.62.34c0,0-5.84,7.88-2.61,9.7,3.23,1.81,6.52-7.86,6.52-7.86,0,0,.09,8.96,3.6,9.13,2.17.11,2.61-1.78,2.5-3.66-.12-2.11-.53-3.34-1.4-5.26-.21-.45-.42-.91-.7-1.32-.54-.8-1.11-1.69-1.82-2.4Z"/>
        <path class="cls-4" d="M61.06,36.74c-.29,2.95-.77,5.69-2.18,8.35s-3.36,4.21-5.61,6.06c-.45.37.04,1.07.54.93,2.93-.78,5.17-3.88,6.48-6.45s2.33-6.02,1.73-9.03c-.12-.59-.92-.38-.97.13h0Z"/>
        <path class="cls-4" d="M46.34,39.78c-1.79-.26-3.61,1.88-2.75,3.6.72,1.44,3.52,1.58,4.4.22,1.14-1.45.17-3.56-1.65-3.82Z"/>
      </g>
      <rect class="cls-2" width="100" height="100"/>
    </g>
  </g>
</svg>