<?xml version="1.0" encoding="UTF-8"?>
<svg id="Capa_2" data-name="Capa 2" xmlns="http://www.w3.org/2000/svg" viewBox="0 0 100 100">
  <defs>
    <style>
      .cls-1 {
        fill: none;
      }

      .cls-2 {
        fill: #4a2d2d;
      }

      .cls-3 {
        fill: #aa9c9c;
      }

      .cls-4 {
        fill: #dbd5d5;
      }
    </style>
  </defs>
  <g id="COLOR">
    <g>
      <g>
        <path class="cls-4" d="M88.27,38.3c0-.24,1.1-7.69-9.18-15.61s-27.68-9.72-40.07-1.65c-12.39,8.08-16.7,15.61-20.08,21.25-3.37,5.65-3.29,10.74-1.88,14.9,1.41,4.16,7.45,15.29,17.88,21.1,10.43,5.8,18.59,7.76,29.17,5.8,9.66-1.79,16.47-6.74,21.02-12.63,4.55-5.88,5.65-8.94,6.43-12.94s-3.29-20.23-3.29-20.23Z"/>
        <path class="cls-2" d="M21.65,64.76c1.9-.02,3.93-.33,5.58-1.32.29-.17.1-.67-.23-.56-1.79.6-3.43,1.16-5.34,1.25-.4.02-.41.63,0,.63h0Z"/>
        <path class="cls-2" d="M26.04,70.84c2.56-.18,5.47-.88,7.42-2.64.28-.25-.07-.62-.37-.48-2.36,1.09-4.42,2.16-7.05,2.46-.41.05-.43.69,0,.66h0Z"/>
        <path class="cls-2" d="M33.55,76.74c2.94-.74,6.46-1.53,8.59-3.88.25-.27-.11-.7-.42-.49-2.67,1.77-5.31,2.86-8.37,3.76-.4.12-.19.7.2.6h0Z"/>
        <path class="cls-2" d="M41.53,81.51c4.33-.5,9.06-2.72,11.62-6.38.24-.34-.27-.67-.55-.42-3.38,3.04-6.63,5.2-11.17,6.12-.38.08-.3.72.09.68h0Z"/>
        <path class="cls-2" d="M53.04,84.4c4.46-1.47,8.41-5.34,10.88-9.27.21-.34-.27-.71-.55-.43-1.56,1.56-2.83,3.38-4.42,4.92-1.77,1.72-3.79,3.17-6.08,4.12-.39.16-.24.79.18.65h0Z"/>
        <path class="cls-2" d="M77.57,77.69c2.72-2.52,5.02-6.56,5.68-10.23.06-.31-.37-.55-.54-.23-.87,1.63-1.3,3.5-2.1,5.19-.86,1.82-1.95,3.5-3.38,4.92-.23.23.12.57.35.35h0Z"/>
        <path class="cls-2" d="M20.43,41.21c2.38-.91,4.71-1.08,7.22-1.31.27-.03.39-.47.07-.52-2.51-.39-5.14.28-7.45,1.23-.37.15-.22.75.17.61h0Z"/>
        <path class="cls-2" d="M24.99,34.7c2.11-.54,4.25-.92,6.43-1.06,2-.13,3.97.07,5.96.04.33,0,.41-.5.08-.58-4.03-1.05-8.74-.28-12.65.92-.43.13-.25.79.19.68h0Z"/>
        <path class="cls-2" d="M32.22,27.51c4.71-.66,9,.16,13.49,1.54.36.11.6-.44.26-.61-4.23-2.14-9.34-2.45-13.95-1.7-.51.08-.29.84.21.77h0Z"/>
        <path class="cls-2" d="M41.06,21.57c5.04.17,9.14,1.86,13.46,4.33.25.14.54-.21.32-.41-3.59-3.32-8.98-4.77-13.78-4.61-.45.02-.45.68,0,.7h0Z"/>
        <path class="cls-2" d="M52.65,17.42c5.47.99,9.09,4.73,12.85,8.5.31.31.76-.12.49-.46-3.31-4.19-7.75-8.03-13.23-8.64-.34-.04-.44.53-.1.59h0Z"/>
        <path class="cls-2" d="M68.08,19.42c3,2.08,4.73,4.88,6.21,8.13.14.31.57.08.51-.22-.68-3.59-3.35-6.63-6.37-8.52-.39-.24-.72.35-.35.6h0Z"/>
        <path class="cls-2" d="M77.69,23.93c1.47,1.94,2.34,4.07,3.43,6.22.17.33.62.09.56-.24-.43-2.38-1.92-4.59-3.43-6.42-.26-.31-.81.11-.56.44h0Z"/>
        <path class="cls-3" d="M96.27,53.43s3.45-.16,2.82-3.14-7.84-13.17-18.74-19.68c-10.9-6.51-26.11-7.29-39.21-.78-13.1,6.51-22.74,18.51-22.74,18.51,0,0-9.1-10.35-14.04-8.55S.28,53.04.91,56.49c.63,3.45,2.59,5.49,6.04,4.71,3.45-.78,11.06-7.53,11.06-7.53,0,0,6.12,10.35,19.68,16.86,13.57,6.51,24.55,6.2,33.88,3.53,9.33-2.67,19.92-10.98,22.35-14.27,2.43-3.29,2.35-6.35,2.35-6.35Z"/>
        <path class="cls-2" d="M85.03,42.42c-1.37-.83-3.43-.85-4.24.76-.55,1.09.25,2.22,1.18,2.79.9.55,2.1.69,3.01.08,1.31-.87,1.45-2.78.05-3.64Z"/>
        <path class="cls-2" d="M85.56,49.42c-.58-.93-1.81-1.22-2.81-.85-.7.26-1.28.94-1.49,1.65-.17.61-.06,1.31.38,1.77.57.6,1.56.8,2.34.63,1.44-.32,2.42-1.85,1.58-3.21Z"/>
        <path class="cls-2" d="M15.81,49.23c-1.39-.97-2.8-1.88-4.24-2.77-1.01-.63-1.99-1.33-3.22-1.32-.37,0-.57.56-.2.74,2.5,1.19,4.81,2.74,7.25,4.05.46.25.82-.4.4-.69h0Z"/>
        <path class="cls-2" d="M13.99,50.08c-2.61-.46-5.33-.73-7.95-.25-.4.07-.25.6.09.64,2.56.31,5.19.25,7.77.33.41.01.51-.65.1-.73h0Z"/>
        <path class="cls-2" d="M14.24,51.7c-2.49.85-4.92,1.92-6.64,4-.21.25.05.66.36.47,2.16-1.31,4.18-2.89,6.53-3.88.34-.14.1-.71-.25-.59h0Z"/>
        <path class="cls-2" d="M65.5,82.95c3.72-2.03,6.49-5.18,8.43-8.92.19-.37-.31-.64-.54-.32-2.44,3.36-4.46,6.65-8.13,8.83-.26.16-.03.56.24.41h0Z"/>
        <path class="cls-2" d="M63.76,47.3c-3.39-.12-6.85-.51-10.24-.36-.27.01-.37.45-.07.5,3.36.6,6.9.48,10.3.45.38,0,.38-.57,0-.59h0Z"/>
        <path class="cls-2" d="M58.12,49.17c-1.59.17-3.33.5-4.68,1.39-.37.25-.15.88.31.74,1.47-.43,2.83-.98,4.37-1.17.6-.08.62-1.03,0-.97h0Z"/>
        <path class="cls-2" d="M89.18,62.29c-1.82-.47-3.73-.57-5.57-1.04-1.95-.51-3.88-1.19-5.7-2.05-3.3-1.55-6.69-3.86-7.79-7.53-1.29-4.33,1.64-7.28,4.9-9.61,3.25-2.32,6.79-3.65,10.45-5.15.52-.21.33-.94-.23-.85-4.36.73-8.67,3.21-12.11,5.9-1.77,1.38-3.24,2.96-4,4.82-5.07-1.73-10.09-2.87-15.46-3.25-1.72-.12-3.68-.21-4.98,1.13-1.23,1.27-1.4,3.28-1.43,4.96,0,.18,0,.35,0,.53-4.46-.22-8.99.02-13.45,0-4.84-.03-9.68.06-14.53.08-.45,0-.45.7,0,.7,4.84.02,9.68.1,14.53.08,4.47-.02,9.02.22,13.49-.01.13,1.35.54,2.64,1.67,3.53,1.53,1.21,3.54,1.2,5.36.79,2.54-.58,5.03-1.47,7.53-2.21,2.19-.65,4.7-1.16,6.83-2.13.03.17.05.33.09.5.87,3.88,4.07,6.61,7.43,8.39,3.69,1.96,8.7,3.98,12.95,3.37.49-.07.43-.82,0-.93ZM58.36,51.81c-1.79.6-3.7,1.48-5.6,1.63-2.56.2-3.46-1.53-3.53-3.82-.05-1.83-.02-4.08,2.27-4.36,1.76-.21,3.74.13,5.49.33,3.93.45,8,1.13,11.83,2.14-.07.28-.13.56-.17.85-1.64.25-3.26.91-4.83,1.42-1.82.58-3.64,1.21-5.45,1.82Z"/>
        <path class="cls-2" d="M98.58,51.67c-1.23,1.19-3.33.99-4.94,1.14-1.34.12-2.77.11-4.09.41-2.02.46-3.35,2.31-4.2,4.08-.23.48.41.85.71.41.79-1.14,1.37-2.3,2.63-3.01,1.41-.79,3.35-.72,4.95-.87,1.76-.17,4.42.07,5.65-1.45.4-.49-.24-1.17-.71-.71h0Z"/>
        <path class="cls-2" d="M36.35,45.7c.17,0,.33-.03.48-.11.15-.05.29-.14.4-.26.12-.11.21-.25.26-.4.08-.15.11-.31.11-.48l-.04-.33c-.06-.21-.17-.4-.32-.55l-.25-.2c-.19-.11-.4-.17-.63-.17-.17,0-.33.03-.48.11-.15.05-.29.14-.4.26-.12.11-.21.25-.26.4-.08.15-.11.31-.11.48l.04.33c.06.21.17.4.32.55l.25.2c.19.11.4.17.63.17h0Z"/>
        <path class="cls-2" d="M43.65,40.92c1.21,0,1.21-1.88,0-1.88s-1.21,1.88,0,1.88h0Z"/>
        <path class="cls-2" d="M43.41,45.45c1.14,0,1.14-1.77,0-1.77s-1.14,1.77,0,1.77h0Z"/>
        <path class="cls-2" d="M75.84,64.08c-.1.06-.2.13-.27.21l-.19.25c-.06.1-.11.2-.13.31l.82-.82-.05.02-.28.12c-.13.07-.24.17-.32.3-.07.07-.12.16-.15.25-.07.14-.11.29-.1.44l.04.31.12.28c.07.13.17.24.3.32.11.1.24.17.39.21l.05.02-.82-.82c.01.06.03.11.06.16.05.15.13.28.25.4l.25.19.03.02c.19.11.4.17.63.17.23,0,.44-.06.63-.17.38-.22.62-.64.62-1.08s-.24-.86-.62-1.08c-.19-.11-.4-.17-.63-.17-.23,0-.44.06-.63.17h0Z"/>
        <path class="cls-2" d="M66.23,69.49c.16,0,.31-.03.45-.1.14-.05.27-.13.37-.24.11-.11.19-.23.24-.37.07-.14.11-.29.1-.45l-.04-.31c-.06-.2-.15-.37-.3-.51l-.23-.18c-.18-.1-.38-.16-.59-.16-.16,0-.31.03-.45.1-.14.05-.27.13-.37.24-.11.11-.19.23-.24.37-.07.14-.11.29-.1.45l.04.31c.06.2.15.37.3.51l.23.18c.18.1.38.16.59.16h0Z"/>
        <path class="cls-2" d="M69.29,63.9c.15,0,.29-.03.42-.09.14-.04.25-.12.35-.23.11-.1.18-.22.23-.35.07-.13.1-.27.09-.42l-.04-.29c-.05-.19-.15-.35-.28-.48l-.22-.17c-.17-.1-.36-.15-.55-.15-.15,0-.29.03-.42.09-.14.04-.25.12-.35.23-.11.1-.18.22-.23.35-.07.13-.1.27-.09.42l.04.29c.05.19.15.35.28.48l.22.17c.17.1.36.15.55.15h0Z"/>
        <path class="cls-2" d="M33.88,60.99c1,0,1-1.55,0-1.55s-1,1.55,0,1.55h0Z"/>
        <path class="cls-2" d="M42,66.21c.76,0,.76-1.17,0-1.17s-.76,1.17,0,1.17h0Z"/>
        <path class="cls-2" d="M65.88,35.67c1.11,0,1.11-1.73,0-1.73s-1.11,1.73,0,1.73h0Z"/>
        <path class="cls-2" d="M72,38.44c.59,0,.59-.91,0-.91s-.59.91,0,.91h0Z"/>
        <path class="cls-2" d="M55.86,60.08l-.05.06c-.06.06-.12.13-.16.2-.07.13-.13.31-.13.46l.03.24c.02.08.05.15.09.22.04.07.1.14.16.2l.05.06.21.16.24.1c.14.04.27.05.41.02.09,0,.18-.02.26-.07.09-.02.16-.07.23-.13.08-.05.14-.11.18-.18.06-.06.11-.14.13-.23.06-.12.09-.25.09-.39l-.04-.27-.1-.24-.16-.21-.21-.16-.24-.1c-.14-.04-.27-.05-.41-.02-.09,0-.18.02-.26.07-.13.04-.24.11-.33.21h0Z"/>
      </g>
      <rect class="cls-1" width="100" height="100"/>
    </g>
  </g>
</svg>