<?xml version="1.0" encoding="UTF-8"?>
<svg id="Capa_2" data-name="Capa 2" xmlns="http://www.w3.org/2000/svg" viewBox="0 0 100 100">
  <defs>
    <style>
      .cls-1 {
        fill: #fdddae;
      }

      .cls-2 {
        fill: #fff;
      }

      .cls-3 {
        fill: none;
      }

      .cls-4 {
        fill: #4a2d2d;
      }

      .cls-5 {
        fill: #faba5b;
      }
    </style>
  </defs>
  <g id="COLOR">
    <g>
      <g>
        <g>
          <path class="cls-1" d="M44.93,8.57s-7.38,2.04-8.79,6.2c-1.41,4.16,1.73,6.04.47,9.26s-4.63,5.65-2.59,9.89,4.32,6.04,5.41,7.93,6.51-29.35,6.98-30.92-1.49-2.35-1.49-2.35Z"/>
          <path class="cls-1" d="M59.6,7.87c.31-.08,5.49,3.53,6.51,6.98s-3.61,9.26-2.67,11.53c.94,2.28,2.75,5.57,1.73,8s-7.85,8-8.32,7.45,2.75-33.98,2.75-33.98Z"/>
          <path class="cls-5" d="M46.81,50.95s-3.45,3.37-3.37,7.14,1.02,8.08.39,10.51-6.43,4.71-8,10.04c-1.57,5.34,1.1,10.59,1.8,10.75s-.27-5.88,1.77-10.28c2.04-4.39,5.37-7.06,5.69-6.2s-2.63,2.98-1.84,8.55c.78,5.57,3.61,7.02,2.71,13.5-.35,2.52-.63,2.59.08,2.51s3.06-3.69,2.9-8.16c-.16-4.47-1.49-9.02-1.65-11.38s1.73-5.1,2.12-5.1,4.16,1.73,4.63,7.06-.86,8.95-.16,12.48c.71,3.53,3.53,5.1,4.16,5.1s-2.12-2.35-1.33-6.28c.78-3.92,2.59-6.75,2.12-11.3-.47-4.55-4.08-6.98-3.84-7.85s2.75-.24,5.41,2.67c2.67,2.9,3.45,5.57,3.37,8.79-.08,3.22-1.65,5.49-.86,5.65s4.32-5.41,2.2-12.79c-2.2-7.68-8.77-8.34-9.88-11.47-1.11-3.13.78-5.24.23-8.07s-1.96-4.94-3.69-5.73c-1.73-.78-4.94-.16-4.94-.16Z"/>
          <path class="cls-5" d="M61.48,27.96c.78-10.12,1.02-20.87-3.3-24.64-4.32-3.77-13.57.94-16.79,9.73-3.22,8.79-4.47,19.07-3.14,27.93,1.33,8.87,1.65,11.46,3.77,12.63s7.77,1.73,11.53,1.1c3.77-.63,5.34-4.47,5.81-6.51s1.33-10.12,2.12-20.24Z"/>
          <g>
            <path class="cls-4" d="M55.33,38.03c-.23,0-.44-.04-.64-.14-.21-.07-.38-.18-.53-.34-.16-.15-.28-.33-.34-.53-.1-.2-.15-.41-.14-.64l.06-.44c.08-.28.22-.52.43-.73l.33-.26c.26-.15.54-.22.83-.23.23,0,.44.04.64.14.21.07.38.18.53.34.16.15.28.33.34.53.1.2.15.41.14.64l-.06.44c-.08.28-.22.52-.43.73l-.33.26c-.26.15-.54.22-.83.23h0Z"/>
            <path class="cls-4" d="M55.35,47.39c-1.27,0-1.27-1.97,0-1.97,1.27,0,1.27,1.97,0,1.97h0Z"/>
            <path class="cls-4" d="M50.41,43.73c-.21,0-.41-.04-.59-.13-.19-.06-.35-.17-.49-.31-.15-.14-.25-.3-.31-.49-.1-.18-.14-.38-.13-.59l.05-.4c.07-.26.2-.48.39-.67l.31-.24c.24-.14.49-.21.77-.21.21,0,.41.04.59.13.19.06.35.17.49.31.15.14.25.3.31.49.1.18.14.38.13.59l-.05.4c-.07.26-.2.48-.39.67l-.31.24c-.24.14-.49.21-.77.21h0Z"/>
            <path class="cls-4" d="M46.73,61.13c-.14-.26-.31-.51-.51-.73-.87-.92-2.23-1.22-3.44-1.03-1.1.17-1.7.98-1.96,2.02-.57,2.28.89,4.17,3.25,4.15.96,0,2.01-.34,2.55-1.19.62-.97.62-2.22.11-3.22Z"/>
            <path class="cls-4" d="M57.87,60.49c-.14-.26-.31-.51-.51-.73-.87-.92-2.23-1.22-3.44-1.03-1.1.17-1.7.98-1.96,2.02-.57,2.28.89,4.17,3.25,4.15.96,0,2.01-.34,2.55-1.19.62-.97.62-2.22.11-3.22Z"/>
          </g>
          <path class="cls-2" d="M43.12,62.61c.12,0,.23-.02.34-.08.11-.04.2-.1.28-.18.09-.08.15-.17.18-.28.05-.1.08-.22.08-.34l-.03-.23c-.04-.15-.12-.28-.23-.39l-.18-.14c-.14-.08-.28-.12-.44-.12-.12,0-.23.02-.34.08-.11.04-.2.1-.28.18-.09.08-.15.17-.18.28-.05.1-.08.22-.08.34l.03.23c.04.15.12.28.23.39l.18.14c.14.08.28.12.44.12h0Z"/>
          <path class="cls-2" d="M53.61,61.95c.04.1.1.18.18.26.23.22.54.31.85.22.15-.04.28-.12.39-.22.11-.11.18-.24.22-.39.01-.08.03-.17.03-.24,0-.09-.01-.17-.03-.25,0-.02,0-.04-.01-.06-.04-.15-.12-.28-.23-.39l-.18-.14c-.14-.08-.29-.12-.45-.12-.12,0-.24.02-.34.08-.11.04-.21.1-.29.18-.09.08-.15.18-.18.29-.06.11-.08.22-.08.34,0,.16.04.31.12.45h0Z"/>
          <path class="cls-4" d="M44.06,55.22c3.59.93,7.79,1.09,11.25-.4.61-.26.17-1.23-.45-1.06-3.63.98-6.96.54-10.64.3-.67-.04-.79.99-.16,1.15h0Z"/>
          <path class="cls-4" d="M41,75.95c1.08,0,1.08-1.67,0-1.67s-1.08,1.67,0,1.67h0Z"/>
          <path class="cls-4" d="M38.73,78.54c.98,0,.98-1.52,0-1.52s-.98,1.52,0,1.52h0Z"/>
          <path class="cls-4" d="M37.71,82.58c1.02,0,1.02-1.59,0-1.59s-1.02,1.59,0,1.59h0Z"/>
          <path class="cls-4" d="M46.5,81.25c.12,0,.23-.02.34-.08.11-.04.2-.1.28-.18.09-.08.15-.17.18-.28.05-.1.08-.22.08-.34l-.03-.23c-.04-.15-.12-.28-.23-.39l-.18-.14c-.14-.08-.28-.12-.44-.12-.12,0-.23.02-.34.08-.11.04-.2.1-.28.18-.09.08-.15.17-.18.28-.05.1-.08.22-.08.34l.03.23c.04.15.12.28.23.39l.18.14c.14.08.28.12.44.12h0Z"/>
          <path class="cls-4" d="M47.71,84.8s.02,0,.03,0c.12-.04.17-.08.27-.16,0,0,.01-.01.02-.02,0,0,0,0,0,0,.09-.08.12-.15.16-.25.05-.09.07-.19.07-.29,0-.14-.04-.27-.1-.38-.05-.09-.11-.16-.2-.21-.07-.07-.16-.11-.26-.14-.13-.04-.27-.04-.4,0-.1.02-.19.07-.26.14-.08.05-.15.12-.2.21-.07.12-.1.25-.1.38,0,.1.02.2.07.29.03.09.08.18.16.24.19.19.48.27.74.2h0Z"/>
          <path class="cls-4" d="M47.99,88.7c.92,0,.93-1.44,0-1.44s-.93,1.44,0,1.44h0Z"/>
          <path class="cls-4" d="M55.68,84.95c.94,0,.94-1.46,0-1.46s-.94,1.46,0,1.46h0Z"/>
          <path class="cls-4" d="M55.13,88.19c.87,0,.87-1.35,0-1.35s-.87,1.35,0,1.35h0Z"/>
          <path class="cls-4" d="M54.81,91.65c.99,0,.99-1.53,0-1.53s-.99,1.53,0,1.53h0Z"/>
          <path class="cls-4" d="M60,72.9l.04-.02c.12-.07.21-.16.28-.28.07-.12.1-.25.1-.39,0-.14-.04-.27-.1-.39-.07-.12-.16-.21-.28-.28l-.04-.02c-.12-.07-.26-.11-.4-.11-.14,0-.28.04-.4.11-.24.14-.39.41-.39.69s.15.54.39.69c.12.07.26.11.4.11.14,0,.28-.04.4-.11h0Z"/>
          <path class="cls-4" d="M61.64,75.14c.94,0,.94-1.46,0-1.46s-.94,1.46,0,1.46h0Z"/>
          <path class="cls-4" d="M63.37,78.3c.97,0,.97-1.51,0-1.51s-.97,1.51,0,1.51h0Z"/>
        </g>
        <path class="cls-2" d="M49.34,7.31c-6.11,4.99-7.33,12.3-6.93,19.83.04.77,1.12,1.43,1.7.7,2.28-2.85,1.33-6.61,2.03-9.97.7-3.33,2.36-6.61,4.57-9.19.82-.95-.41-2.15-1.37-1.37h0Z"/>
        <path class="cls-2" d="M42.47,30.84c-.02.12-.05.24-.07.36-.04.22-.07.41,0,.63.02.06.04.12.06.18.12.33.33.59.68.68.33.09.72,0,.95-.25.18-.2.34-.39.41-.66.03-.12.05-.24.08-.36.06-.29.04-.59-.11-.85-.13-.23-.39-.44-.66-.5-.28-.06-.6-.05-.85.11-.23.15-.45.38-.5.66h0Z"/>
      </g>
      <rect class="cls-3" width="100" height="100"/>
    </g>
  </g>
</svg>