<?xml version="1.0" encoding="UTF-8"?>
<svg id="Capa_2" data-name="Capa 2" xmlns="http://www.w3.org/2000/svg" viewBox="0 0 100 100">
  <defs>
    <style>
      .cls-1 {
        fill: #99aec3;
      }

      .cls-2 {
        fill: #fff;
      }

      .cls-3 {
        fill: none;
      }

      .cls-4 {
        fill: #c8d4df;
      }

      .cls-5 {
        fill: #4a2d2d;
      }
    </style>
  </defs>
  <g id="COLOR">
    <g>
      <g>
        <path class="cls-4" d="M64.41,69.76c-.42-1.1-.94-2.22-1.53-3.31-.19.06-.39.11-.59.15-.41.09-9.62-2.04-10.03-1.98.14.25-.15.6-.57.98-.12-.57-8.88,1.46-8.62.92-.52-.06-.85.02-1.34-.12-.6,1.05-1.15,2.13-1.56,3.22-.58,1.56-.23,3.21,1.36,3.8,4.39,1.64,14.1,1.22,14.09,1.27.02,0,.05,0,.07,0,2.52-.1,5.91.28,7.96-1.53,1.02-.91,1.24-2.15.75-3.4Z"/>
        <path class="cls-1" d="M38.31,12c-7.4,5.24-28.58,20.5-31.32,25.28-2.73,4.78.11,11.16,8.88,18.9,8.77,7.74,16.17,9.45,25.28,10.7,9.87,1.36,24.94,2.51,38.72-6.26,13.78-8.77,16.6-16.96,14.92-21.64-2.16-6.04-27.8-25.3-33.59-28.24-8.09-4.1-15.49-3.99-22.89,1.25Z"/>
        <g>
          <path class="cls-5" d="M44.35,22.51c-.43,0-.88.14-1.27.48-1.25,1.06-1.04,3.5.52,4.14,1.27.52,2.84-.41,3.1-1.74.28-1.45-1-2.87-2.35-2.88Z"/>
          <path class="cls-5" d="M58.93,24.14c-.23-.88-.87-1.61-1.87-1.63-1.46-.04-2.72,1.45-2.43,2.88.26,1.3,1.74,2.22,3.01,1.78,1.2-.42,1.6-1.86,1.29-3.03Z"/>
        </g>
        <path class="cls-5" d="M7.46,43.03c1.72-.55,3.58-1.36,5.04-2.42.26-.18.12-.65-.23-.54-1.73.54-3.5,1.44-5.07,2.34-.33.19-.11.74.26.62h0Z"/>
        <path class="cls-5" d="M11.14,47.35c1.33-.83,2.86-1.51,4.06-2.53.23-.2-.01-.61-.3-.51-1.48.52-2.81,1.59-4.1,2.47-.35.24-.03.8.33.57h0Z"/>
        <path class="cls-5" d="M12.98,51.6c1.5-.99,3.4-1.91,4.58-3.29.17-.2.01-.6-.28-.49-1.7.63-3.22,2.07-4.68,3.13-.38.28-.03.91.37.64h0Z"/>
        <path class="cls-5" d="M17.4,55.77c1.24-1.07,2.67-2.08,3.72-3.34.23-.27-.06-.74-.41-.53-1.41.9-2.61,2.21-3.85,3.34-.36.33.17.84.53.53h0Z"/>
        <path class="cls-5" d="M22.34,58.53c.75-1.17,1.7-2.22,2.41-3.4.21-.35-.26-.69-.55-.43-1.02.94-1.78,2.28-2.48,3.46-.24.4.37.75.62.36h0Z"/>
        <path class="cls-5" d="M26.73,61.38c1.05-1.31,2.29-2.78,2.77-4.42.09-.3-.33-.58-.55-.32-1.09,1.29-1.84,2.88-2.87,4.23-.29.38.36.88.66.51h0Z"/>
        <path class="cls-5" d="M31.89,62.96c.8-1.38,1.77-2.78,2.3-4.29.13-.36-.37-.49-.56-.24-.96,1.24-1.61,2.8-2.32,4.19-.19.38.36.71.58.34h0Z"/>
        <path class="cls-5" d="M37.69,63.38c.47-1.02,1.08-2.07,1.37-3.16.1-.39-.42-.58-.63-.27-.61.91-.98,2.03-1.42,3.03-.21.46.47.87.69.4h0Z"/>
        <path class="cls-5" d="M42.45,64.99c.53-1.47,1.26-3.01,1.52-4.55.06-.35-.42-.62-.61-.26-.74,1.41-1.1,3.11-1.57,4.63-.13.42.51.59.66.18h0Z"/>
        <path class="cls-5" d="M93.82,42.4c-1.57-.9-3.34-1.79-5.07-2.34-.34-.11-.49.36-.23.54,1.46,1.06,3.33,1.86,5.04,2.42.37.12.6-.43.26-.62h0Z"/>
        <path class="cls-5" d="M90.2,46.78c-1.28-.88-2.62-1.95-4.1-2.47-.28-.1-.52.31-.3.51,1.2,1.02,2.72,1.71,4.06,2.53.37.23.68-.33.33-.57h0Z"/>
        <path class="cls-5" d="M88.4,50.96c-1.46-1.06-2.97-2.51-4.68-3.13-.3-.11-.45.29-.28.49,1.18,1.38,3.08,2.29,4.58,3.29.4.27.75-.36.37-.64h0Z"/>
        <path class="cls-5" d="M84.14,55.24c-1.24-1.12-2.43-2.43-3.85-3.34-.34-.22-.63.25-.41.53,1.05,1.26,2.48,2.27,3.72,3.34.36.31.89-.2.53-.53h0Z"/>
        <path class="cls-5" d="M79.3,58.17c-.71-1.18-1.46-2.52-2.48-3.46-.29-.26-.76.07-.55.43.71,1.18,1.66,2.24,2.41,3.4.25.39.86.04.62-.36h0Z"/>
        <path class="cls-5" d="M74.79,60.19c-1.03-1.35-1.78-2.93-2.87-4.23-.22-.26-.64.02-.55.32.47,1.64,1.71,3.11,2.77,4.42.3.37.95-.13.66-.51h0Z"/>
        <path class="cls-5" d="M69.7,62.63c-.71-1.39-1.36-2.95-2.32-4.19-.19-.25-.69-.12-.56.24.54,1.51,1.5,2.91,2.3,4.29.22.37.77.04.58-.34h0Z"/>
        <path class="cls-5" d="M63.14,63.16c-.3-1.08-.52-2.27-1.01-3.29-.14-.3-.68-.16-.64.17.13,1.12.57,2.24.88,3.33.14.49.91.28.77-.21h0Z"/>
        <g>
          <path class="cls-5" d="M48.75,8.6c.42,3.33-.06,6.16-.9,9.38-.07.28.34.48.48.2,1.5-2.88,1.69-6.53,1-9.66-.07-.32-.63-.26-.58.08h0Z"/>
          <path class="cls-5" d="M52.31,9.39c-.29,2.87-.29,5.75.61,8.53.13.39.67.23.61-.17-.43-2.78-.85-5.54-.68-8.36.02-.35-.5-.34-.54,0h0Z"/>
        </g>
        <path class="cls-5" d="M34.52,45.39c-.05-.05-.1-.1-.16-.15-.73-.54-1.97.3-1.47,1.16.16.27.47.32.75.34.27.02.57,0,.81-.16.43-.28.36-.85.06-1.2ZM34.21,46.16c-.19.21-.66.22-.81-.03,0,.01.02.02.03.04-.13-.13-.1-.35.03-.48.12-.11.29-.14.44-.12.16.02.34.14.38.31.02.11,0,.21-.07.28Z"/>
        <path class="cls-5" d="M24.8,38.93c-.74-.12-1.57.36-1.69,1.13-.13.84.69,1.56,1.5,1.39,1.21-.24,1.6-2.3.19-2.53ZM24.4,40.87c-.49.09-.64-.81-.33-1.08.13-.11.32-.19.49-.21.11,0,.22.02.3.09.09.09.11.24.09.37-.02.17-.06.33-.14.47-.08.15-.2.29-.37.34-.02,0-.03,0-.05.01Z"/>
        <g>
          <polygon class="cls-5" points="32.47 34.46 32.46 34.46 32.46 34.46 32.47 34.46 32.47 34.46"/>
          <path class="cls-5" d="M33.18,33.96c-.36-.36-.95-.41-1.31-.01-.42.47-.22,1.41.41,1.59.87.25,1.52-.95.9-1.58ZM32.96,34.69c-.02.11-.09.2-.19.26-.42.24-.83-.41-.42-.66.24-.15.59,0,.61.3,0,.04,0,.08,0,.11Z"/>
        </g>
        <path class="cls-5" d="M66.67,48.03c-.54-.25-1.17,0-1.35.57-.2.62.21,1.38.89,1.43.4.03.79-.22.98-.56.3-.54.02-1.19-.52-1.44ZM66.6,49.37c-.24.23-.62.08-.74-.21-.05-.12-.04-.25.02-.36.09-.16.29-.23.47-.2.12.01.23.07.31.16.15.18.1.47-.07.62Z"/>
        <path class="cls-5" d="M76.55,39.77c-.66-.16-1.38.26-1.44.97-.02.33.13.67.35.9.55.58,1.53.33,1.82-.39.25-.62-.07-1.33-.74-1.48ZM76.82,40.95c-.01.05-.03.1-.06.15-.16.27-.62.35-.83.09-.28-.33-.03-.88.41-.87.32,0,.55.31.49.62Z"/>
        <path class="cls-5" d="M71.51,33.6c-.44-.43-1.2-.41-1.54.15-.28.47-.16,1.12.34,1.38.33.17.77.18,1.08-.03.53-.35.55-1.07.11-1.51ZM71.25,34.45c-.06.23-.33.37-.56.27-.17-.07-.27-.26-.24-.44.08-.47.8-.43.82.05,0,.04,0,.08-.01.12Z"/>
        <path class="cls-1" d="M47.54,45.94s1.71,19.59-.57,27.56c-2.28,7.97-6.49,14.8-14.12,15.15-7.63.34-13.21-4.1-16.85-8.2-3.64-4.1-4.25-7.98-6-7.69-1.74.29.53,8.26,5.89,13.73,7.09,7.24,18.27,11.53,27.89,6.81,7.29-3.58,10.64-10.98,12.18-18.58,1.42-7.02,1.51-14.29,1.11-21.42-.13-2.26-.33-4.52-.52-6.78-.57-6.6-8.31-5.81-9-.57Z"/>
        <path class="cls-2" d="M25.75,22.13c-2.51,2.01-4.87,4.11-7.09,6.44-1.77,1.85-3.58,3.78-4.77,6.08-2.45,4.76-.17,9.76,3.33,13.27,3.83,3.85,8.49,6.69,13.54,8.66,2.64,1.03,5.36,1.79,8.13,2.38,2.79.6,5.77,1.25,8.64,1.27.48,0,.61-.76.12-.86-2.44-.48-4.93-.66-7.37-1.15-2.41-.49-4.79-1.15-7.11-1.94-4.83-1.64-9.46-4.05-13.37-7.34-4.16-3.5-8.11-8.89-4.97-14.37,1.27-2.22,3.12-4.13,4.86-5.97,2.01-2.12,4.13-4.2,6.31-6.15.19-.17-.02-.5-.23-.34h0Z"/>
        <path class="cls-2" d="M87.12,34.65c-1.19-2.3-3.07-4.26-4.8-6.15-2.18-2.37-4.51-4.51-6.98-6.56-.21-.17-.43.16-.24.33,2.15,1.98,4.23,4.1,6.2,6.25,1.71,1.87,3.61,3.84,4.9,6.06,3.15,5.45-.82,10.89-4.97,14.37-3.92,3.28-8.54,5.7-13.37,7.34-2.33.79-4.7,1.45-7.11,1.94-1.06.22-2.14.37-3.21.52,0,.02,0,.05,0,.07.04.34.11.68.13,1.03,1.51-.24,3.01-.57,4.46-.88,2.77-.59,5.49-1.36,8.13-2.38,5.04-1.96,9.71-4.81,13.54-8.66,3.5-3.52,5.78-8.51,3.33-13.27Z"/>
        <path class="cls-5" d="M46.82,45.05c.36,3.73.99,7.37,1.05,11.13.06,3.75-.45,7.44-.53,11.17-.01.47.72.58.83.11.84-3.6.85-7.6.75-11.28s-.28-7.64-1.18-11.25c-.13-.5-.98-.41-.93.13h0Z"/>
        <path class="cls-5" d="M56.37,45.14c.43,3.69.61,7.38.68,11.09.07,3.71-.21,7.42-.13,11.12.01.5.84.66.92.12,1.08-7.3.2-15.07-.73-22.33-.06-.46-.79-.47-.73,0h0Z"/>
      </g>
      <rect class="cls-3" width="100" height="100"/>
    </g>
  </g>
</svg>