<?xml version="1.0" encoding="UTF-8"?>
<svg id="Capa_2" data-name="Capa 2" xmlns="http://www.w3.org/2000/svg" viewBox="0 0 100 100">
  <defs>
    <style>
      .cls-1 {
        fill: #fff;
      }

      .cls-2 {
        fill: none;
      }

      .cls-3 {
        fill: #809ab4;
      }

      .cls-4 {
        fill: #4a2d2d;
      }

      .cls-5 {
        fill: #5b7d9f;
      }
    </style>
  </defs>
  <g id="COLOR">
    <g>
      <g>
        <path class="cls-5" d="M64.56,22.82c.4-.63-.36-1.21-.94-.94-4.54,2.13-7.64,5.68-9.64,10.13-.67-.89-1.71-1.46-2.78-1.89-2.27-.91-4.67-1.44-7.04-2.04-4.52-1.13-9.77-3.17-11.2-8.12-.12-.43-.6-.75-1.02-.58-1.5.64-3.29,3.12-4.09,5.08-.92,2.24-1.78,5.23-1.22,7.66.16.69,1.27.71,1.42,0,.39-1.88,24.44.72,25.38,1.62.46.44,6.08.37,7.18,2.48.34.65,1.48.37,1.42-.39-.19-2.38-1.25-4.53-.65-6.97.55-2.2,1.95-4.18,3.15-6.07Z"/>
        <g>
          <path class="cls-5" d="M40.29,62.6c-.4-.19-.79-.06-1.01.2-1.76-.04-5.99.81-5.91,1.35.42,2.88,1.64,5.65,3.32,8.01.78,1.1,2.47,3.43,3.65,1.37.8-1.4,1.04-2.69,2.31-3.81.73-.65,1.55-1.2,1.79-2.23.49-2.18-2.52-4.11-4.14-4.88Z"/>
          <path class="cls-5" d="M72.08,65.76c-1.93-.97-6.54-3.21-5.01-5.83.73-1.24,2.14-2.55.78-3.9-.39-.39-.92-.1-1.01.34-.01,0-.01-.02-.02-.03-.54-.46-8.59,2.95-8.13,3.61,1.43,2.07,3.42,3.41,5.6,4.61,2.28,1.25,4.71,2.66,7.36,2.8.84.05,1.19-1.22.43-1.6Z"/>
        </g>
        <path class="cls-5" d="M98.59,62.48c-3.1-2.33-4.65-5.89-5.59-9.56-.6-2.34-.86-5.82-3.79-6.35-.29-.05-1.06,0-1.96.09.01-.05.03-.1.04-.15.93-.22,1.8-.43,2.15-.49,2.84-.53,2.99-4.15,3.56-6.4.94-3.67,2.49-7.22,5.59-9.56.63-.48.3-1.63-.58-1.37-7.22,2.12-13.64,8.57-15.19,16.03-.1.47.04,2.68.01,2.82,0,0,0,.01,0,.02-.01.08-.03.17-.01.27,1.56,7.46,7.97,13.91,15.19,16.03.88.26,1.22-.89.58-1.37Z"/>
        <path class="cls-4" d="M30.79,31.36c.27-3.14,1.23-5.73,2.22-8.68.11-.32-.34-.47-.52-.22-1.75,2.5-2.35,5.9-2.28,8.89,0,.38.55.37.58,0h0Z"/>
        <path class="cls-4" d="M34.9,24.64c-.65,1.94-1.36,4.38-.95,6.44.05.26.45.25.51,0,.49-2.07.5-4.17,1.17-6.24.15-.47-.58-.66-.73-.2h0Z"/>
        <path class="cls-4" d="M37.92,27.43c-.54,1.04-.9,2.48-.63,3.65.06.28.45.25.53,0,.17-.54.23-1.12.37-1.67s.32-1.1.48-1.66c.13-.45-.54-.75-.76-.32h0Z"/>
        <path class="cls-4" d="M41.8,28.83c-.12.44-.3.91-.29,1.37,0,.26.37.37.5.14.23-.4.3-.89.42-1.33.11-.4-.52-.58-.62-.17h0Z"/>
        <path class="cls-4" d="M45.13,29.64c-.08.5-.26,1.06-.16,1.56.05.24.4.27.52.07.24-.42.25-.97.32-1.44.07-.44-.61-.64-.68-.19h0Z"/>
        <path class="cls-4" d="M48.79,30.43c-.12.46-.42,1.11-.28,1.59.07.24.38.33.56.15.35-.36.39-1.05.5-1.52.12-.5-.64-.72-.78-.21h0Z"/>
        <path class="cls-4" d="M35.51,63.85c.45,2.13,1.19,4.32,2.54,6.05.23.3.62-.08.49-.38-.9-1.94-1.81-3.78-2.33-5.87-.11-.45-.79-.26-.7.19h0Z"/>
        <path class="cls-4" d="M37.43,64.1c.93,1.44,1.93,2.87,3.22,4.02.33.29.95-.1.65-.5-1-1.35-2.14-2.59-3.15-3.94-.31-.42-1.02-.04-.72.42h0Z"/>
        <path class="cls-3" d="M83.7,44.56s4.15-1.41,6.03.31c1.88,1.72-.08,3.44-2.51,3.6-2.43.16-3.76.08-3.76.08,0,0-12.21,7.2-20.82,10.26-8.61,3.05-18.22,5.83-29.27,5.34-11.05-.49-19.19-3.46-23.66-6.28-4.46-2.82-6.81-4.15-6.11-4.7s2.27-1.1,4.62-.63c2.35.47,2.9.86,2.9.86,0,0-2.27-2.82-5.01-3.99s-4.15-.55-4.15-1.25,6.03-6.18,13.47-10.96c7.44-4.78,15.5-7.75,24.9-6.73,9.39,1.02,22,5.01,27.32,6.97,5.32,1.96,16.05,7.12,16.05,7.12Z"/>
        <path class="cls-4" d="M2.55,49.09c2.17.71,4.12,1.17,5.89,2.72,1.35,1.18,2.33,3,3.83,3.93.49.3,1.19-.2,1-.77-.64-1.91-2.75-3.82-4.33-4.99-1.81-1.34-4.31-2.16-6.57-2.22-.76-.02-.52,1.1.17,1.33h0Z"/>
        <path class="cls-4" d="M15.57,44c-1.53-.52-2.85.79-2.63,2.32.18,1.2,1.48,2.16,2.67,2.01,1.05-.14,1.79-1.1,1.71-2.15s-.82-1.86-1.75-2.18Z"/>
        <path class="cls-4" d="M81.83,46.11c-5.33-.32-10.74-.08-16.09-.07-5.1,0-10.28-.25-15.37.06,0-1.37-.95-1.74-2.23-2.07-1.99-.52-4.15-.6-6.2-.56-4.07.08-8.12.97-11.77,2.77-.16-4.55-2.22-8.86-6.7-11.42-.44-.25-1.36.01-.94.29l.03-.03c3.96,2.65,6.63,7.68,6.5,12.43,0,.07-.02.14,0,.22,0,.15,0,.3-.02.45-.46,5.46-3.81,9.23-7.34,13.07-.33.35.1.98.53.69,4.41-2.9,7.28-8.04,7.85-13.22,3.9,1.57,8.53,2.52,12.72,2.45,2.86-.05,6.91-1.09,7.51-4.36,5.11.32,10.32.06,15.44.07,5.34,0,10.75.26,16.09-.07.45-.03.45-.67,0-.7ZM47.26,48.7c-.68.48-1.52.82-2.33.97-1.59.3-3.32.02-4.89-.23-3.03-.49-5.91-1.37-8.81-2.31,2.79-.98,5.65-1.68,8.61-1.91,1.4-.11,2.81-.12,4.21-.03.79.05,4.43,0,4.91.89.41.76-1.26,2.3-1.7,2.62Z"/>
        <path class="cls-4" d="M33.09,47.46c4.47-.71,8.84-.11,13.31-.22.3,0,.4-.5.07-.55-4.4-.69-9.16-.59-13.53.26-.34.07-.19.57.14.51h0Z"/>
        <path class="cls-4" d="M37.34,48.37c2.65.12,5.36.47,8.01.33.29-.02.39-.48.07-.54-2.62-.52-5.42-.42-8.09-.41-.4,0-.39.6,0,.61h0Z"/>
        <path class="cls-1" d="M27.44,35.24c4.75-1.58,10.16-1.41,15.05-.63,2.49.4,4.96.97,7.4,1.58,2.5.63,4.98,1.6,7.53,1.96.94.13,1.68-1.11.7-1.66-2.32-1.28-5.06-1.9-7.62-2.53-2.65-.65-5.32-1.11-8.03-1.42-5.21-.61-10.46-.63-15.45,1.2-.92.34-.54,1.8.41,1.49h0Z"/>
        <path class="cls-1" d="M62.12,39.91c.42.1.85.19,1.27.27s.97.19,1.4.09c.41-.09.58-.69.26-.97-.65-.56-1.72-.63-2.53-.84-.93-.25-1.33,1.22-.4,1.44h0Z"/>
      </g>
      <rect class="cls-2" width="100" height="100"/>
    </g>
  </g>
</svg>