<?xml version="1.0" encoding="UTF-8"?>
<svg id="Capa_2" data-name="Capa 2" xmlns="http://www.w3.org/2000/svg" viewBox="0 0 100 100">
  <defs>
    <style>
      .cls-1 {
        fill: #fff;
      }

      .cls-2 {
        fill: none;
      }

      .cls-3 {
        fill: #4a2d2d;
      }

      .cls-4 {
        fill: #faba5b;
      }
    </style>
  </defs>
  <g id="COLOR">
    <g>
      <rect class="cls-2" width="100" height="100"/>
      <g>
        <path class="cls-4" d="M70.19,18.73s1.52,1.14,2.25,4.39c.91,4.1-1.75,7.32-1.75,7.32,0,0,1.51,1.06,1.28,3.6-.23,2.54-1.15,3.16-1.15,3.16,0,0,3.08,1.08,2.85,5.62s-3.23,6.31-3.23,6.31c0,0,6.31,4.23,3.93,13.01-2.39,8.77-13.24,10.93-13.24,10.93,0,0,1.08,5.08-1.46,8.47-2.54,3.39-5.85,3.31-8.77,2.77-2.92-.54-6.62-4.93-9.62-4.62-3,.31-7.62,3.16-10.01.62-2.39-2.54-.15-5.93.69-6.93.85-1,2.46-2.77,2.46-2.77,0,0-10.16-3.85-10.47-15.39-.31-11.54,10.54-16.78,10.54-16.78,0,0-.23-7.47,6.08-10.39,6.31-2.92,9.39-2,9.39-2,0,0,1.4-2.6,4.35-3.19,2.69-.54,4.12.65,4.12.65,0,0,.64-1.42,3.41-1.71,2.19-.23,3.74.86,3.74.86,0,0,2.21-.73,3.11-1.68,1.07-1.12,1.51-2.24,1.51-2.24Z"/>
        <path class="cls-3" d="M61,62.05s0-.04.02-.06l-.14.34c.06-.13.1-.13.16-.37l.05-.38s0-.02,0-.03l-.05-.38-.14-.34-.22-.29c-.13-.14-.28-.24-.46-.29-.11-.06-.23-.1-.36-.1-.13-.03-.25-.03-.38,0-.13,0-.25.03-.36.1-.18.06-.33.15-.46.29-.09.08-.27.36-.24.31-.1.16-.16.34-.17.53-.02.07-.03.14-.03.21,0,.14.01.31.07.46l.14.33c.09.16.21.29.36.39.09.09.19.15.31.18.17.09.35.13.54.12l.37-.05.33-.14c.16-.09.29-.21.39-.36.12-.14.21-.29.25-.48h0Z"/>
        <path class="cls-3" d="M67.25,56.78s-.07-.03-.1-.04c-.06-.03-.13-.04-.2-.03-.19-.04-.38-.03-.58.03l-.35.15h0c-.1.08-.19.16-.29.23-.14.13-.24.29-.3.46-.09.21-.14.28-.12.56,0,.02.05.36.05.38.04.19.13.35.26.49.06.11.15.19.26.26.18.14.24.21.5.26l.38.05.38-.05s.07-.03.11-.04l.33-.14c.16-.09.29-.21.39-.36.09-.09.15-.19.18-.31.09-.17.13-.35.12-.54l-.05-.37-.14-.33c-.09-.16-.21-.29-.36-.39-.14-.12-.29-.21-.48-.25h0Z"/>
        <path class="cls-3" d="M65.8,64.79c1.44,0,1.44-2.23,0-2.23s-1.44,2.23,0,2.23h0Z"/>
        <path class="cls-3" d="M62.32,45.4l-.09.03-.21.09c-.1.06-.19.13-.25.23-.06.06-.09.12-.11.2-.06.11-.08.22-.08.34l.03.24.09.21c.06.1.13.19.23.25.09.08.19.13.3.16l.09.03c.16.04.32.04.49,0,.15-.04.29-.12.4-.24l.14-.19c.08-.14.12-.3.12-.46,0-.13-.02-.24-.08-.35-.04-.11-.1-.21-.19-.29-.23-.23-.58-.33-.89-.24h0Z"/>
        <path class="cls-3" d="M69.31,44.59v-.13c.02-.17-.02-.32-.09-.47-.05-.15-.13-.28-.25-.39-.11-.12-.24-.2-.39-.25-.14-.08-.3-.11-.47-.1l-.32.04c-.21.06-.38.16-.53.31l-.19.25c-.11.19-.16.39-.17.61v.13c0,.17.04.32.12.46.05.15.13.28.25.39.11.12.24.2.39.25.14.08.3.11.46.1l.32-.04c.2-.06.38-.16.53-.31l.19-.24c.11-.19.16-.39.16-.6h0Z"/>
        <path class="cls-3" d="M65.2,22.21c-1.42.62-1.89,2.71-1.29,4s2.76,2.52,4.15,1.58c.49-.33.28-1.01-.29-1.07-1.09-.11-2.17.19-2.74-1.07-.49-1.08.21-1.79.84-2.58.4-.5-.08-1.12-.67-.87h0Z"/>
        <path class="cls-3" d="M58.02,23.04c-4.26,6.72,7.9,12.58,12.66,7.72.32-.32-.08-.83-.48-.62-4.78,2.61-13.37-.09-11.35-6.75.15-.51-.57-.78-.84-.35h0Z"/>
        <path class="cls-3" d="M49.72,25.06c-6.47,12.31,13.51,21.4,21.75,12.58.38-.41-.12-1.14-.62-.81-8.99,5.97-24.06,1.28-20.27-11.41.15-.5-.61-.84-.86-.36h0Z"/>
        <path class="cls-3" d="M34.07,36.58c.09,7.43,5.6,12.47,12.22,14.89,7.37,2.7,18.77,3.54,24.89-2.12.49-.45-.13-1.07-.65-.85-7.22,3.05-14.53,3.9-22.16,1.79-7.01-1.93-12.4-6.12-13.17-13.71-.07-.7-1.13-.74-1.12,0h0Z"/>
        <path class="cls-3" d="M33.66,71.31c8.72,4.2,18.45,5.97,27.86,2.94.84-.27.48-1.43-.36-1.29-9.44,1.49-18.17,1.04-27.07-2.66-.58-.24-.99.74-.43,1.02h0Z"/>
        <path class="cls-1" d="M32.52,49.17c-1.89,2.24-4.51,6.81-2.1,9.51.6.67,1.56.36,2.01-.26.75-1.03.71-2.43.97-3.64.29-1.36.81-2.55,1.58-3.71.98-1.47-1.31-3.28-2.47-1.9h0Z"/>
        <path class="cls-1" d="M36.31,59.95c.02.8-.04,1.63.46,2.31.58.8,1.58.8,2.16,0,.5-.68.44-1.51.46-2.31s-.72-1.58-1.54-1.54-1.56.68-1.54,1.54h0Z"/>
        <path class="cls-1" d="M42.64,33.52c-1.45,1.18-3.17,3.37-2.59,5.35.18.63,1.1.98,1.57.41.56-.67.78-1.39,1.19-2.14s.94-1.33,1.58-1.87c1.23-1.02-.53-2.75-1.75-1.75h0Z"/>
        <path class="cls-1" d="M45.71,40.08c-.21.4-.4.82-.54,1.25-.19.58-.13,1.08.12,1.63.3.65,1.23.65,1.68.22.34-.32.51-.66.65-1.1.02-.05.18-.42.08-.23.07-.15.15-.3.24-.45.34-.59.16-1.45-.47-1.78s-1.44-.17-1.78.47h0Z"/>
        <path class="cls-1" d="M53.47,29.18c-.26.71-.65,1.46-.66,2.23,0,.53.34,1.02.82,1.22.45.19,1.13.13,1.46-.28.57-.69.79-1.6,1.08-2.43.25-.69-.28-1.57-.98-1.73-.8-.18-1.46.24-1.73.98h0Z"/>
      </g>
    </g>
  </g>
</svg>