<?xml version="1.0" encoding="UTF-8"?>
<svg id="Capa_2" data-name="Capa 2" xmlns="http://www.w3.org/2000/svg" viewBox="0 0 100 100">
  <defs>
    <style>
      .cls-1 {
        fill: #fff;
      }

      .cls-2 {
        fill: none;
      }

      .cls-3 {
        fill: #e09d3e;
      }

      .cls-4 {
        fill: #fad380;
      }

      .cls-5 {
        fill: #4a2d2d;
      }
    </style>
  </defs>
  <g id="COLOR">
    <g>
      <g>
        <g>
          <path class="cls-4" d="M74.86,23.31c-3.46-4.13-19.09-2.46-20.77-.89-1.67,1.56-3.91,5.81-5.36,6.36-1.45.56-13.4,11.39-13.96,12.28-.56.89-2.12,3.46-3.46,4.13s-9.83,10.72-9.83,11.5-1.34,6.59-1.34,6.59l5.36,2.79s9.6,3.8,16.08,4.91c6.48,1.12,13.62-7.26,16.75-9.27,3.13-2.01,20.66-25.79,20.66-25.79,0,0-.67-8.49-4.13-12.62Z"/>
          <path class="cls-3" d="M53.34,23.14s6.39-8.18,14.42-11.89,15.46-.74,18.58,5.05c3.12,5.8,1.34,22.6-10.11,37.02-11.45,14.42-27.06,27.36-37.47,32.41-10.41,5.05-24.68,6.1-28.1.89-3.42-5.2,0-16.06,3.42-20.52,3.42-4.46,9.37-7.28,15.31-6.99,5.95.3,17.25,3.72,17.25,3.72,0,0,.59-5.5-6.84-6.39-7.43-.89-18.73,2.23-18.73,2.23,0,0-.3-4.01,2.68-8.47s6.22-6.9,15.09-7.81c9.44-.97,14.12.82,18.21,3.35,3.68,2.27,5.5,4.46,5.5,4.46,0,0-1.25-7.94-6.69-10.41-3.94-1.78-8.87-2.04-14.12-.74-5.72,1.41-7.95,3.42-7.95,3.42,0,0,3.49-7.14,8.7-11.15,5.2-4.01,12.04-5.75,19.18-5.35,9.29.52,14.72,7.58,14.72,7.58,0,0-.89-6.27-6.24-8.92-8.7-4.31-16.8-1.49-16.8-1.49Z"/>
          <g>
            <path class="cls-5" d="M24.93,80.61c2.96.03,5.9-.55,8.69-1.51,1.38-.47,2.73-1.03,4.05-1.64s2.83-1.23,3.93-2.26c.34-.32-.01-.89-.45-.77-1.36.38-2.57,1.2-3.83,1.83s-2.63,1.26-3.99,1.76c-2.7,1-5.51,1.63-8.4,1.6-.63,0-.63.97,0,.98h0Z"/>
            <path class="cls-5" d="M47.78,71.34l1.44-1.04c.26-.19.53-.38.78-.58.28-.22.63-.48.65-.86,0-.2-.15-.4-.34-.45-.36-.09-.71.18-1,.37s-.54.4-.8.6l-1.41,1.09c-.22.17-.19.54-.04.73s.49.31.72.14h0Z"/>
            <path class="cls-5" d="M67.47,54.56c1.04-.84,2.07-1.68,3.05-2.59.48-.45.95-.91,1.41-1.37.23-.23.46-.47.67-.72.22-.27.46-.53.56-.86s-.27-.55-.54-.42c-.29.14-.52.41-.75.63s-.46.47-.68.71c-.46.47-.92.93-1.4,1.39-.95.91-1.89,1.82-2.84,2.73-.35.34.16.82.52.52h0Z"/>
            <path class="cls-5" d="M75.94,46l.07-.2s.03-.07.04-.1c0-.03.01-.07.02-.1l.08-.41c.02-.1.02-.21-.04-.3-.05-.07-.11-.13-.19-.16s-.17-.05-.26-.02l-.09.04c-.06.04-.11.08-.14.14l-.26.34s-.04.05-.06.08c-.02.03-.03.06-.05.1l-.1.19c-.07.13-.09.27-.05.41.03.09.07.17.14.24.05.05.11.09.17.11.06.03.13.05.21.05.07,0,.14-.01.21-.05.07-.02.12-.06.17-.11.07-.07.11-.15.14-.24h0Z"/>
            <path class="cls-5" d="M18.6,62.42c6.71-3.56,14.72-2.56,21.74-.61,1.06.29,2.12.6,3.18.92s2.16.76,3.26,1c.96.21,1.26-1.08.4-1.44-.94-.4-1.97-.64-2.95-.94s-1.98-.58-2.98-.84c-1.96-.5-3.93-.93-5.93-1.2-3.74-.5-7.55-.57-11.24.26-2.01.45-4.03,1.26-5.82,2.25-.39.21-.04.8.35.59h0Z"/>
            <path class="cls-5" d="M31.48,44.79c4.11-1.49,8.58-2.2,12.95-1.93,4.09.26,8.16,1.5,11.75,3.48.97.54,1.92,1.13,2.82,1.77.95.68,1.83,1.43,2.82,2.06.64.4,1.13-.45.74-.96-1.28-1.66-3.23-2.87-5.03-3.91s-3.82-1.95-5.85-2.59c-4.22-1.33-8.78-1.62-13.14-.93-2.58.4-5,1.23-7.33,2.39-.34.17-.1.75.26.62h0Z"/>
            <path class="cls-5" d="M47.54,28.25c4.06-1.34,8.44-1.97,12.69-1.39,3.86.53,7.63,1.81,10.98,3.82.91.55,1.8,1.15,2.64,1.8.44.34.86.69,1.27,1.06.44.39.76.71,1.37.76.28.02.6-.28.57-.57-.13-1.01-1.2-1.66-1.95-2.25s-1.57-1.2-2.4-1.73c-1.71-1.1-3.54-2.01-5.44-2.72-4.08-1.51-8.53-1.91-12.84-1.41-2.5.29-4.87.93-7.18,1.94-.39.17-.11.82.29.68h0Z"/>
            <path class="cls-5" d="M58.34,22.61c.07.48.16.96.27,1.44s.21,1,.48,1.4c.13.19.48.14.47-.13-.02-.49-.22-.97-.33-1.44s-.21-.95-.28-1.44c-.03-.17-.24-.26-.38-.22-.18.05-.24.22-.22.38h0Z"/>
            <path class="cls-5" d="M62.67,23.18l.38,1.26c.13.43.23.88.5,1.25.16.22.52.16.53-.14.01-.46-.16-.88-.3-1.31l-.42-1.25c-.06-.18-.25-.3-.44-.25-.18.05-.31.26-.25.44h0Z"/>
            <path class="cls-5" d="M46.15,39.08c.09.18.14.3.21.5.06.18.11.37.17.55s.1.37.15.56c.02.07.03.14.07.21.03.06,0-.02.02.05.02.1.06.2.1.3.04.12.14.21.28.21.12,0,.25-.09.28-.21s.04-.23.04-.35c0-.03,0-.05,0-.08,0,.03,0,.03,0-.01.01-.08.01-.14,0-.22-.02-.23-.07-.45-.14-.67-.13-.42-.36-.81-.6-1.17-.1-.15-.29-.22-.46-.12s-.2.3-.12.46h0Z"/>
            <path class="cls-5" d="M50.26,39.27c.08.42.18.84.31,1.25.06.2.13.39.2.59.04.12.09.23.15.34.06.12.14.22.24.31.2.19.56.06.55-.23,0-.12,0-.23-.04-.35-.03-.1-.06-.2-.1-.29-.08-.2-.15-.4-.21-.61-.13-.4-.23-.81-.32-1.22-.04-.2-.29-.34-.49-.28-.22.07-.32.27-.28.49h0Z"/>
            <path class="cls-5" d="M56.57,41.39c.05.5.13,1,.22,1.49s.2.98.43,1.43c.12.22.51.13.49-.13-.04-.48-.18-.94-.28-1.42s-.17-.91-.23-1.37c-.02-.17-.13-.32-.32-.32-.16,0-.33.15-.32.32h0Z"/>
            <path class="cls-5" d="M31.6,56.8c.1.33.23.66.38.98.07.14.13.3.22.43.06.09.13.17.19.25s.14.13.23.18c.19.11.49-.03.47-.27,0-.03,0-.07,0-.1-.01-.09-.03-.16-.07-.24-.02-.04-.02-.04,0,0,0-.02-.02-.04-.02-.05-.02-.06-.05-.12-.07-.18-.07-.14-.14-.27-.21-.4-.04-.07-.07-.15-.1-.22-.01-.03-.02-.06-.04-.08-.02-.04-.02-.04,0,.01,0-.02-.02-.04-.02-.06-.06-.15-.12-.3-.17-.46-.07-.2-.28-.35-.5-.28-.2.07-.35.28-.28.5h0Z"/>
            <path class="cls-5" d="M39.44,56.9c.12.44.26.88.44,1.3.09.23.19.45.29.67s.21.48.4.62c.11.08.23.13.36.07.11-.05.22-.17.2-.3-.03-.26-.16-.48-.27-.71-.09-.18-.19-.4-.26-.57-.17-.42-.32-.85-.43-1.28-.05-.2-.27-.32-.47-.26s-.32.27-.26.47h0Z"/>
          </g>
        </g>
        <path class="cls-1" d="M13.92,81.04l.06-.32c.02-.1.03-.2.04-.3v-.16s0-.1-.01-.15c-.02-.07-.05-.14-.1-.19-.03-.04-.06-.08-.1-.1-.05-.05-.12-.08-.19-.1l-.15-.02-.15.02c-.07.02-.14.05-.19.1-.06.04-.11.09-.14.16l-.08.13s-.05.09-.08.14l-.13.28c-.06.11-.09.22-.09.34l.02.18c.03.11.09.21.17.3.06.07.13.11.22.14.08.04.17.06.26.06.09,0,.18-.02.26-.06.08-.03.16-.07.22-.14.08-.08.14-.18.17-.3h0Z"/>
        <path class="cls-1" d="M16.88,82.26c.01-.17.03-.34.03-.51,0-.08,0-.17,0-.25,0-.13-.03-.27-.05-.4l-.06-.15-.1-.12-.12-.1c-.07-.04-.15-.07-.23-.07-.05-.01-.11-.01-.16,0-.06,0-.11.01-.16.04-.05.01-.1.04-.14.08-.07.04-.12.1-.16.17l-.07.11c-.05.08-.08.15-.12.25-.03.08-.07.16-.1.24-.07.16-.12.32-.17.49-.07.21-.02.44.08.63.07.12.17.22.29.29.09.06.19.09.3.1.11.02.22.02.32-.01.11-.03.2-.07.28-.15.09-.06.16-.13.21-.23.07-.13.11-.26.11-.41h0Z"/>
        <path class="cls-1" d="M70.09,15.07c.11-.26.26-.5.43-.73l-.13.17c.14-.17.28-.35.44-.5.08-.08.17-.15.24-.23s.13-.17.19-.26c.01-.02.03-.04.04-.06.09-.13.1-.25.11-.4l-.03-.19c-.02-.09-.06-.17-.13-.24-.1-.13-.21-.2-.37-.25-.19-.07-.4-.02-.59.04-.1.03-.2.07-.29.14s-.17.13-.26.2c-.15.12-.29.24-.41.39-.16.2-.31.4-.43.62s-.22.45-.31.68c-.07.18-.02.47.08.62s.22.26.39.33.36.1.53.04c.19-.06.4-.18.48-.37h0Z"/>
        <path class="cls-1" d="M63.22,35.05l.14-.16c.08-.09.15-.19.23-.3.06-.1.09-.21.09-.32,0-.12-.03-.22-.09-.32-.06-.1-.13-.17-.23-.23-.1-.06-.21-.09-.32-.09h-.1s-.07,0-.1,0l-.2.02c-.15,0-.29.04-.41.11-.12.07-.22.17-.29.29-.07.13-.11.27-.11.41,0,.11.02.22.07.32.03.1.09.19.17.26.1.1.22.17.36.21.15.04.29.04.44,0,.14-.04.26-.11.36-.21h0Z"/>
        <path class="cls-1" d="M66.02,39.62c.99,0,.99-1.53,0-1.53s-.99,1.53,0,1.53h0Z"/>
      </g>
      <rect class="cls-2" width="100" height="100"/>
    </g>
  </g>
</svg>