<?xml version="1.0" encoding="UTF-8"?>
<svg id="Capa_2" data-name="Capa 2" xmlns="http://www.w3.org/2000/svg" viewBox="0 0 100 100">
  <defs>
    <style>
      .cls-1 {
        fill: none;
      }

      .cls-2 {
        fill: #f7e2c9;
      }

      .cls-3 {
        fill: #4a2d2d;
      }

      .cls-4 {
        fill: #e2963e;
      }
    </style>
  </defs>
  <g id="COLOR">
    <g>
      <rect class="cls-1" width="100" height="100"/>
      <g>
        <path class="cls-4" d="M85.03,31.85c-6.07-7.62-16.51-9.87-25.72-10.74-9.27-.87-18.2-.36-27.29,1.59-5.86,1.26-11.68,3.34-16.69,6.7-4.13,2.77-7.8,7.22-7.13,12.55.55,4.42,6.05,7.12,10.19,7.24-.43,2.8-.49,5.7-.72,8.52-.26,3.15-.51,6.31-.56,9.47-.06,3.3.08,6.61.52,9.88.34,2.54.92,5.15,2.62,7.15,3.27,3.84,8.9,3.87,13.53,4.16,5.04.31,10.08.5,15.13.54,4.67.04,9.81.44,14.38-.64,2.03-.48,3.41-1.2,5.33-2.02,3.88-1.64,8.18-2.8,11.2-5.89,3.77-3.86,3.89-9.67,3.17-14.7-.87-6.03-.44-12.49-1.66-18.45,1.67-.98,3.28-1.89,4.38-3.6.68-1.05,1.19-2.35,1.46-3.57.66-2.98-.26-5.84-2.14-8.19Z"/>
        <path class="cls-3" d="M55.24,21.88c5.25.54,11.17,2.6,15.64,5.48s8.64,10.06,5.33,15.39c-1.38,2.23-3.95,3.42-6.34,4.21-1.66.55-4.24.56-5.42,2.04-1.45,1.83-.2,5.14.18,7.16.57,3.06,1.11,6.12,1.64,9.19,1.15,6.56,4.31,16.38-3.03,20.49-.54.3-.17,1.28.44,1.04,6.26-2.55,6.1-10.27,5.14-15.83-.58-3.38-1.23-6.76-1.86-10.13-.3-1.62-.59-3.24-.88-4.86s-1.45-4.76-.49-6.17c.7-1.03,2.63-1.11,3.74-1.43,1.31-.38,2.62-.9,3.85-1.5,2.02-.99,3.76-2.46,4.69-4.55,2.4-5.43-.51-11.83-4.84-15.32-4.74-3.82-11.81-5.51-17.78-5.75-.71-.03,0,.54,0,.54Z"/>
        <path class="cls-2" d="M69.61,30.41c-3.12-1.87-6.5-3.4-10.06-4.18-7.45-1.63-15.67-1.45-23.17-.12-5.84.8-11.59,2.67-16.72,5.4-2.3,1.22-4.66,2.79-6.15,4.98-1.5,2.2-1.04,4.26.74,6.15,1.76,1.86,4.01,2.26,6.43,2.52,2.41.26,3.02,1.94,3.2,4.2.16,2.05-.01,4.08-.27,6.1-.59,4.58-1.01,9.15-1.22,13.77-.1,2.25-.19,4.52-.15,6.77.03,1.6.21,3.18,1.16,4.52,2.16,3.04,6.19,3.31,9.57,3.58,4.79.38,9.57.61,14.37.61,2.22,0,4.44-.04,6.66-.11,2.09-.07,4.53.11,6.56-.51,3.15-.96,3.57-4.35,3.64-7.18.11-4.27-.39-8.53-1.01-12.74-.68-4.62-1.89-9.15-2.28-13.82-.08-.96-.3-2.02-.21-2.98.19-2.01,1.7-2.11,3.15-2.23,1.76-.14,3.51-.17,5.24-.59,2.84-.69,5.41-2.66,5.72-5.74.38-3.7-2.26-6.63-5.21-8.4Z"/>
        <path class="cls-3" d="M20.22,40.67c.14,0,.28-.02.4-.09.13-.04.24-.11.33-.21.1-.09.17-.21.21-.33.06-.12.09-.26.09-.4l-.04-.28c-.05-.18-.14-.33-.27-.46l-.21-.16c-.16-.09-.34-.14-.52-.14-.14,0-.28.02-.4.09-.13.04-.24.11-.33.21-.1.09-.17.21-.21.33-.06.12-.09.26-.09.4l.04.28c.05.18.14.33.27.46l.21.16c.16.09.34.14.52.14h0Z"/>
        <path class="cls-3" d="M26.15,35.04c.02-.1.03-.21.04-.31,0-.2-.05-.38-.15-.55-.08-.14-.12-.18-.21-.25-.21-.17-.26-.21-.52-.3-.11-.04-.23-.06-.34-.05-.2,0-.38.05-.55.15-.16.1-.29.23-.39.39-.2.33-.2.76,0,1.09.03.05.06.09.09.12.08.12.18.21.31.28.01,0,.03.02.04.03.1.07.22.11.34.14.37.09.79,0,1.06-.28.04-.04.07-.08.1-.12.09-.1.15-.21.18-.34h0Z"/>
        <path class="cls-3" d="M26.73,40.77c1.01,0,1.01-1.57,0-1.57s-1.01,1.57,0,1.57h0Z"/>
        <path class="cls-3" d="M51.48,78.62c.28,0,.57-.12.77-.32.11-.1.18-.21.22-.35.07-.13.1-.27.09-.42-.01-.28-.1-.57-.32-.77s-.47-.32-.77-.32c-.28,0-.57.12-.77.32-.11.1-.18.21-.22.35-.07.13-.1.27-.09.42.01.28.1.57.32.77s.47.32.77.32h0Z"/>
        <path class="cls-3" d="M55.95,73.3s.02,0,.02,0l-.24-.03s.02,0,.03,0l-.22-.09s.09.04.14.06c.11.06.23.08.35.08,0,0,.02,0,.02,0l-.24-.03s.03,0,.05.01c.18.05.32.04.5,0l.21-.09c.1-.06.19-.13.25-.23.06-.06.09-.12.11-.2.06-.11.08-.22.08-.34,0-.08,0-.17-.03-.25l-.09-.21s-.04-.07-.08-.1c-.02-.04-.05-.07-.08-.1-.07-.07-.15-.13-.23-.18l-.22-.09c-.09-.03-.17-.04-.26-.03l-.24.03s-.01,0-.02,0c-.09.02-.19.06-.27.12l-.18.14c-.09.08-.15.18-.18.29-.04.07-.06.14-.06.22-.03.12-.02.24.02.35l.09.21.14.18c.08.09.18.15.29.18.11.06.22.08.34.08h0Z"/>
        <path class="cls-3" d="M58.33,79.01s.01,0,.02.01l-.19-.14s.01,0,.02.02l-.14-.19s0,.01.01.02l-.09-.22s0,.02,0,.03l-.03-.25c0,.08.02.18.04.26.04.16.12.3.24.41.12.12.25.2.41.24h0c-.21-.21-.42-.42-.64-.63,0,0,0,.01,0,.02l.09.22.14.18.18.14c.1.07.22.1.34.11.08.02.16.02.24,0,.08,0,.16-.02.23-.06.08-.02.14-.06.2-.12.1-.06.18-.15.23-.25.04-.08.07-.16.1-.24l-.42.54h0c.06-.05.13-.1.19-.15.09-.08.16-.18.19-.3.04-.07.06-.15.06-.24.03-.12.02-.25-.02-.37-.01-.04-.07-.19-.1-.23,0,0,0-.01-.01-.02l-.15-.19s0,0,0,0c-.05-.05-.33-.23-.19-.15,0,0,0,0-.01,0-.04-.02-.18-.08-.23-.1,0,0-.01,0-.02,0l-.24-.03s-.01,0-.02,0l-.24.03c-.12.03-.22.08-.31.16-.07.04-.12.09-.16.16-.08.09-.13.19-.16.31l-.03.24.03.24c.03.12.08.22.16.31.06.1.15.18.26.23h0Z"/>
        <path class="cls-3" d="M67.2,40.17c.11,0,.21-.02.3-.07.1-.03.18-.08.25-.16.08-.07.13-.15.16-.25.05-.09.07-.19.07-.3l-.03-.21c-.04-.13-.1-.25-.2-.34l-.16-.12c-.12-.07-.25-.11-.39-.11-.11,0-.21.02-.3.07-.1.03-.18.08-.25.16-.08.07-.13.15-.16.25-.05.09-.07.19-.07.3l.03.21c.04.13.1.25.2.34l.16.12c.12.07.25.11.39.11h0Z"/>
        <path class="cls-3" d="M68.14,51.63c1.96-.72,3.94-1.37,5.95-1.96.97-.29,1.95-.56,2.94-.82s2.08-.42,3-.9c.28-.15.14-.57-.16-.58-1.01-.03-2.03.34-2.99.59s-2.01.56-3.01.86c-2,.62-3.97,1.3-5.92,2.05-.46.18-.27.92.21.75h0Z"/>
      </g>
    </g>
  </g>
</svg>