<?xml version="1.0" encoding="UTF-8"?>
<svg id="Capa_2" data-name="Capa 2" xmlns="http://www.w3.org/2000/svg" viewBox="0 0 100 100">
  <defs>
    <style>
      .cls-1 {
        fill: none;
      }

      .cls-2 {
        fill: #4a2d2d;
      }

      .cls-3 {
        fill: #ce923a;
      }
    </style>
  </defs>
  <g id="COLOR">
    <g>
      <g>
        <g>
          <path class="cls-2" d="M6.71,35.6c3.45,2.34,6.53,4.93,8.98,8.33,1.32,1.82,2.5,3.76,3.6,5.71.58,1.03,1.16,2.07,1.77,3.09.43.73.96,1.93,1.88,2.1.16.03.36-.02.45-.18.44-.87-.16-1.95-.52-2.77-.5-1.15-1.04-2.27-1.65-3.37-1.19-2.16-2.51-4.2-4.04-6.13-2.6-3.28-5.98-6.53-10.08-7.74-.59-.18-.88.64-.4.96h0Z"/>
          <path class="cls-3" d="M21.94,51.95s6.09,1.25,12.02,5.93c5.93,4.68,11.08,12.64,12.17,17.64s3.12,11.39.94,11.08c-2.19-.31-11.55-6.24-17.01-9.99-5.46-3.75-8.27-9.21-8.9-14.2-.62-4.99-.16-9.52.78-10.46Z"/>
          <path class="cls-2" d="M22.7,53.22c-.93,7.27,2.33,14.28,7.39,19.36,2.48,2.49,5.34,4.5,8.34,6.33,1.52.93,3.05,1.84,4.51,2.87s2.73,2.61,4.3,3.38c.2.1.47-.07.39-.3-.81-2.58-4.45-4.51-6.59-5.86-3-1.91-6.04-3.7-8.7-6.1-5.58-5.03-9.34-12.02-8.7-19.68.05-.61-.86-.58-.94,0h0Z"/>
          <path class="cls-2" d="M47.3,85.13c-2.2-6.87-4.68-13.62-8.86-19.56-1.88-2.67-4-5.18-6.4-7.41-2.21-2.05-5.07-4.6-8.09-5.23-.55-.12-.98.54-.56.96,1,1.02,2.28,1.76,3.44,2.59,1.33.95,2.6,1.99,3.82,3.07,2.46,2.18,4.67,4.65,6.61,7.3,4.08,5.59,7.34,11.88,9.7,18.37.08.21.41.13.34-.09h0Z"/>
          <path class="cls-2" d="M25.31,57.78c3.37,3.74,6.51,7.68,9.57,11.67,1.46,1.9,2.84,3.86,4.21,5.83.73,1.04,1.46,2.08,2.16,3.14.62.94,1.16,2.09,2.03,2.81.21.17.51.01.45-.26-.23-1.11-1.02-2.11-1.61-3.06-.67-1.08-1.33-2.16-2.03-3.22-1.41-2.11-2.91-4.16-4.45-6.18-3.03-3.96-6.42-7.61-9.98-11.11-.24-.24-.59.12-.37.37h0Z"/>
        </g>
        <g>
          <path class="cls-2" d="M51.62,48.42c.46,1.43.76,2.91,1.11,4.38s.58,2.91.7,4.38.1,2.93-.04,4.38c-.13,1.32-.72,2.99-.27,4.29.13.36.52.45.81.21,1.12-.94,1.23-2.86,1.38-4.2.17-1.6.19-3.23.05-4.83-.14-1.6-.42-3.17-.9-4.7s-1.24-2.87-2.13-4.2c-.23-.34-.83-.14-.69.29h0Z"/>
          <path class="cls-3" d="M41.6,15.27s10.15,1.25,12.49,9.05c2.34,7.8,2.81,23.88.31,26.22-2.5,2.34-8.12-3.28-12.64-10.77-4.53-7.49-4.84-14.98-4.53-20.13s4.37-4.37,4.37-4.37Z"/>
          <path class="cls-2" d="M39.64,16.08c-2.83,12.82,4.49,25.46,13.38,34.12.24.24.78.17.83-.22,1.03-6.84.91-13.92-1.66-20.42-1.06-2.69-2.53-5.22-4.31-7.51-1.77-2.27-4.09-4.92-6.77-6.11-.62-.27-1.34.46-.77,1,2.04,1.95,4.29,3.47,6.1,5.68,1.82,2.23,3.27,4.75,4.38,7.41,2.6,6.18,3.25,13.1,2.07,19.68l.83-.22c-4.23-4.19-7.96-8.95-10.49-14.38-2.78-5.97-3.73-12.44-3.04-18.97.03-.32-.49-.39-.56-.08h0Z"/>
          <path class="cls-2" d="M40.46,17.22c2.87,5.1,5.81,10.2,8.12,15.58,1.19,2.79,2.2,5.66,2.92,8.6.32,1.3.6,2.61.8,3.93.23,1.47.14,3.12.64,4.53.1.27.49.3.58,0,.69-2.42-.21-5.81-.77-8.21-.7-3-1.72-5.92-2.92-8.75-2.38-5.63-5.47-10.9-8.69-16.09-.27-.44-.94-.05-.69.4h0Z"/>
        </g>
        <g>
          <path class="cls-2" d="M92.91,40.6c-.73.24-1.38.88-2,1.33-.67.49-1.34.98-2.02,1.46-1.33.94-2.59,1.95-3.8,3.03-1.21,1.07-2.36,2.21-3.43,3.42s-2.3,2.54-2.77,4.09c-.25.81.8,1.35,1.38.8,1.12-1.06,1.9-2.52,2.9-3.7,1.02-1.21,2.12-2.34,3.28-3.41s2.31-2.07,3.46-3.1c.59-.53,1.21-1.03,1.83-1.52s1.39-.93,1.82-1.57c.28-.41-.18-.99-.64-.84h0Z"/>
          <path class="cls-3" d="M81.56,49.92s-12.02,2.81-14.98,9.83c-2.97,7.02-6.24,19.04-9.37,21.23-3.12,2.19,2.19,3.43,8.12.94,5.93-2.5,11.86-8.27,15.76-17.48,3.9-9.21,2.34-12.95.47-14.52Z"/>
          <path class="cls-2" d="M79.34,52.26c-5.4,2.61-9.26,7.93-11.93,13.13-1.48,2.88-2.67,5.89-4.18,8.75-1.66,3.15-3.67,5.78-6.18,8.28-.35.35.12,1.02.55.71,5.18-3.68,7.51-10.33,10.12-15.83,2.63-5.55,6.34-11.57,12.02-14.37.45-.22.06-.9-.4-.68h0Z"/>
          <path class="cls-2" d="M59.43,83.17c2.96-1.19,5.4-3.4,7.6-5.66s4.27-4.79,6.11-7.42c1.87-2.68,3.5-5.55,4.73-8.58.64-1.58,1.18-3.2,1.56-4.86.29-1.27.74-2.83.42-4.13-.05-.21-.4-.28-.49-.06-.52,1.22-.49,2.66-.79,3.96-.32,1.41-.75,2.79-1.26,4.14-1.16,3.07-2.76,5.97-4.59,8.68-3.58,5.3-8.12,10-13.46,13.53-.19.13-.07.49.17.39h0Z"/>
          <path class="cls-2" d="M67.06,79.76c4.96-2.81,8.84-6.73,11.57-11.75,1.3-2.4,2.37-4.95,3.04-7.6.64-2.51,1.37-5.72.81-8.3-.11-.5-.95-.53-1.04,0-.19,1.2-.1,2.44-.19,3.66-.11,1.39-.32,2.77-.62,4.14-.59,2.65-1.49,5.25-2.76,7.66-2.52,4.76-6.34,9.14-10.86,12.11-.05.03,0,.11.05.08h0Z"/>
        </g>
      </g>
      <rect class="cls-1" width="100" height="100"/>
    </g>
  </g>
</svg>