<?xml version="1.0" encoding="UTF-8"?>
<svg id="Capa_2" data-name="Capa 2" xmlns="http://www.w3.org/2000/svg" viewBox="0 0 100 100">
  <defs>
    <style>
      .cls-1 {
        fill: #fff;
      }

      .cls-2 {
        fill: none;
      }

      .cls-3 {
        fill: #83a04e;
      }

      .cls-4 {
        fill: #4a2d2d;
      }
    </style>
  </defs>
  <g id="COLOR">
    <g>
      <g>
        <g>
          <path class="cls-3" d="M93.19,12.92c-.3-.77-1.18-.87-1.67-.22-1.47,1.94-4.35,3.06-6.59,3.92-2.1.8-4.28,1.35-6.46,1.86-4.25,1-8.44,1.97-12.44,3.79-3.79,1.72-6.79,4.36-8.82,8-1.63-4.84-4.53-9.28-8.54-12.38-5.63-4.35-12.58-6.25-19.44-7.62-.63-.13-1.18.27-1.22.93-.27,4.79-.14,9.65.18,14.43.29,4.34.85,8.74,2.73,12.71,1.03,2.17,2.47,3.97,4.19,5.4-1.24.08-2.45.24-3.54.46-4.19.82-7.95,2.77-11.37,5.27-3.26,2.39-5.87,5.35-8.28,8.58-3.07,4.12-6.01,8.33-8.74,12.68-.41.66.14,1.36.82,1.42,5.28.51,10.56,1.18,15.77,2.17,4.64.88,9.54,2.15,14.18.54,5.09-1.77,9.52-6.39,11.82-11.65-.11,1.34-.16,2.66-.16,3.93.01,4.14.77,8.28,2.84,11.91,2.01,3.51,4.81,6.29,8.06,8.66,3.61,2.64,7.09,5.11,11.24,6.81.46.19.89-.21,1.04-.59,1.62-4.13,4.06-7.96,5.3-12.24,1.35-4.67,1.24-9.67.47-14.43-.72-4.47-2.37-8.92-5.34-12.39-.39-.45-.82-.92-1.29-1.37,2.3.33,4.61.35,6.88-.16,4.99-1.12,8.91-4.8,11.84-8.81,3.22-4.4,5.55-9.43,6.82-14.73,1.28-5.35,1.75-11.66-.3-16.88Z"/>
          <g>
            <path class="cls-4" d="M78.39,40.88c-1.02-.2-2.03-.43-3.02-.73-.97-.29-1.92-.64-2.84-1.08-.85-.41-2.2-1.17-3.02-1.78.29-.16.58-.33.87-.49.79-.45,1.57-.9,2.36-1.35,1.51-.88,3.01-1.78,4.48-2.71,2.76-1.76,5.58-3.61,7.94-5.9,1.19-1.15,2.35-2.48,2.9-4.07.12-.33-.36-.49-.54-.23-.84,1.26-1.69,2.46-2.77,3.53-1.07,1.06-2.27,1.98-3.48,2.87-2.65,1.94-5.44,3.67-8.27,5.32.07-.71.19-1.43.32-2.12.16-.81.32-1.62.55-2.41.47-1.64,1.29-3.16,1.73-4.79.05-.18-.18-.32-.31-.18-1.21,1.26-1.81,3.09-2.24,4.75-.22.83-.4,1.68-.49,2.54-.09.85-.07,1.67-.06,2.51-.77.45-1.54.89-2.32,1.33-.27.16-.55.31-.82.46-.09-.43-.62-.69-1.02-.57-4.79,1.48-9.45,3.55-12.87,7.07.17-2.1.26-4.19.63-6.28.44-2.44.77-3.72,1.42-6.1.18-.64-.13-1.07-.46-.46-1.94,3.6-2.9,7.91-2.94,12.06-.45-1.91-1.34-3.74-2.37-5.15-1.58-2.16-3.59-3.91-5.94-5.06.51-1.37.98-2.75,1.37-4.16.2-.73.39-1.46.57-2.19.18-.75.4-1.57.31-2.34-.02-.2-.29-.31-.4-.11-.39.67-.54,1.48-.72,2.23-.18.73-.37,1.47-.57,2.2-.38,1.38-.73,2.77-1.04,4.16-.32-.14-.65-.28-.98-.4-.16-.27-.33-.53-.47-.76-.41-.68-.82-1.36-1.25-2.03-.87-1.37-1.79-2.71-2.75-4.01-.04-.05-.07-.09-.11-.14.1-.48.26-.95.36-1.43.09-.45.16-.9.21-1.36.1-.9.26-1.94-.04-2.82-.08-.22-.37-.22-.45,0-.31.84-.25,1.83-.31,2.71-.03.46-.07.91-.1,1.37-.02.33-.03.68-.06,1.02-1.8-2.37-3.74-4.59-5.8-6.74-.23-.24-.58.12-.36.36,2.19,2.37,4.22,4.95,6.09,7.59.54.77,1.07,1.55,1.59,2.33-1.35-.2-2.71-.34-4.07-.45-.75-.06-1.51-.12-2.26-.2-.74-.08-1.48-.17-2.22-.04-.17.03-.2.29-.05.37.64.34,1.35.46,2.05.57.76.12,1.53.22,2.29.31,1.54.19,3.08.22,4.62.09.01,0,.02-.01.04-.02.21.33.43.67.64,1,.39.62.76,1.25,1.13,1.89-.02,0-.04-.01-.07-.02-.57-.15-.99.27-1.06.8-.42,3.75.99,6.97,3.1,10,.58.83,1.19,1.65,1.85,2.42-3.63-1.35-8.41-1.34-12.03-.71-.64.11.23.41.23.41,2.52-.32,4.84.08,7.34.59,2.16.45,4.05,1.49,6.09,2.22-1.56.06-3.1.35-4.48.97-2.19.98-3.83,2.6-5.24,4.43-.39-.3-.78-.6-1.21-.84-.52-.29-1.07-.53-1.63-.73-1.11-.39-2.27-.56-3.44-.61-.12,0-.15.2-.03.22,1.12.18,2.21.53,3.26.97.52.21,1.02.45,1.52.72.41.22.83.44,1.23.69-.61.83-1.19,1.7-1.75,2.57-.02.04-.03.08-.05.12-.41.1-.81.2-1.21.31-.94.24-1.87.49-2.81.74-.77.21-1.53.44-2.29.67-1.44-.72-2.77-1.63-4.26-2.25-1.54-.64-3.54-1.23-5.22-.83-.21.05-.18.34,0,.4.83.28,1.73.39,2.58.6.84.21,1.66.47,2.46.8,1.18.48,2.27,1.12,3.43,1.6-.75.24-1.5.48-2.25.74-3.62,1.26-7.1,2.82-10.4,4.77-.9.53-1.77,1.09-2.63,1.69-.82.57-1.78,1.19-2.34,2.03-.09.14.06.36.23.3.81-.32,1.53-.92,2.24-1.41.78-.54,1.59-1.06,2.41-1.55,1.62-.97,3.31-1.79,5.03-2.56,1.03-.46,2.07-.88,3.12-1.29-.09,1.12-.35,2.25-.67,3.32-.34,1.13-.85,2.21-1.17,3.35-.05.18.19.34.32.19.81-.91,1.27-2.17,1.56-3.34.31-1.22.39-2.44.39-3.69,2.34-.89,4.71-1.69,7.09-2.48.63-.21,1.26-.41,1.89-.61,0,0,0,0,0,.01-.04.54-.24,1.09-.34,1.63-.09.48-.19.96-.29,1.44-.21,1.02-.49,2.02-.78,3.03-.56,1.96-1.32,3.87-2.05,5.77-.05.13.14.19.21.09,1.23-1.75,2.07-3.68,2.72-5.71.32-.99.55-2.02.74-3.04.1-.52.17-1.04.23-1.56.06-.55,0-1.1.07-1.64,0-.07-.02-.11-.05-.15.23-.07.45-.15.68-.22.44-.14.87-.27,1.31-.4.15.4.55.71,1.01.74,2.81.21,6.34.38,9.49-.22-1.18,2.47-1.52,5.3-1.82,7.99-.67,6.04,1.12,10.25,1.07,9.65-.59-6.31-.37-12.16,2.37-18.03,1.33-.4,2.56-.97,3.56-1.79-.05,1.77.16,3.52,1.01,5.27.98,2.03,2.63,3.37,4.5,4.41.02.25.04.5.09.74.01.08.03.16.05.25-1.04,1.67-1.85,3.47-2.57,5.3-.72,1.84-1.46,3.87-1.59,5.86,0,.13.2.19.25.07.4-.87.68-1.8.99-2.7.33-.95.67-1.9,1.02-2.85.62-1.64,1.34-3.24,2.05-4.85.03.14.05.28.08.42.2.93.43,1.85.66,2.77.5,1.93,1.06,3.84,1.69,5.73.22.67.46,1.33.7,1.99-.04.03-.08.06-.11.12-.49,1.26-.91,2.54-1.34,3.82-.2.62-.4,1.23-.55,1.86-.16.63-.37,1.3-.41,1.95-.01.17.22.21.3.08.35-.55.57-1.23.82-1.83.24-.6.44-1.22.63-1.84.34-1.15.65-2.3.92-3.47.35.94.71,1.87,1.1,2.79.38.9.77,1.81,1.2,2.68.41.83.81,1.87,1.45,2.55.27.28.66-.02.6-.35-.08-.47-.33-.91-.52-1.34-.21-.48-.41-.96-.62-1.45-.38-.87-.77-1.73-1.13-2.61-.73-1.76-1.44-3.52-2.07-5.31-.55-1.57-1.05-3.16-1.51-4.76,1.51.73,3.01,1.46,4.51,2.21.89.45,1.76.92,2.63,1.39.44.23.86.49,1.3.73.39.22.78.48,1.23.53.23.02.34-.25.25-.43-.2-.38-.59-.62-.93-.86-.4-.28-.83-.54-1.26-.79-.88-.53-1.79-.99-2.71-1.44-1.74-.86-3.53-1.61-5.31-2.38-.22-.8-.43-1.59-.62-2.39-.12-.49-.25-.98-.37-1.47-.03-.1-.06-.21-.09-.31.66.33,1.35.63,2.03.92.48.2,1.02-.22,1.15-.66.99-3.22.89-6.94-.51-10.04-.66-1.47-2.02-3.57-3.67-4.85.61,0,1.22-.06,1.84-.15,3.58,1,9.05,4.96,8.71,4.19-.89-2.05-3.52-3.89-6.28-4.75,1.41-.47,2.7-1.15,3.68-2.02,2.45-2.18,4.03-5.67,3.94-8.99.78.71,1.53,1.33,2.47,1.83.94.49,1.92.87,2.93,1.17,1.02.31,2.06.54,3.1.74.53.1,1.06.2,1.6.27.51.07,1.04.17,1.54.07.18-.04.2-.3.05-.39-.8-.46-1.93-.49-2.82-.67ZM42.83,31.8c2.76.99,6.48,3.59,7.78,6.28.68,1.41,1.26,2.35,1.59,3.88.23,1.06.47,3.34.1,4.46-2.3-1.35-4.75-3.42-6.21-5.66-1.49-2.29-3.23-6.19-3.26-8.96ZM38.63,54.97s0-.08-.02-.11c1.48-2.19,3.23-4.57,5.73-5.62,2.84-1.19,5.85-1.15,8.75-.58-2.15,5.86-8.88,6.89-14.46,6.32ZM59.26,54.42c1.66,2.68,1.87,6.07,1.24,9.03-2.62-1.19-5.23-3-6.11-5.97-.66-2.24-.22-5.69.14-8.1.44.36,3.9,3.69,4.74,5.04ZM63.38,46.11c-1.22.77-6.04,1.68-8.89,1.37,3.4-6.18,8.69-8.83,13.8-10.5-.41,2.79-1.3,6.86-4.91,9.13Z"/>
            <path class="cls-4" d="M85.44,33.34c-.55-.18-1.17-.19-1.75-.23-.61-.04-1.21-.08-1.82-.13-1.22-.12-2.48-.29-3.62-.77-.28-.12-.53.29-.24.42,1.17.53,2.36.91,3.63,1.08.64.09,1.28.15,1.92.16.62.01,1.28.04,1.88-.13.2-.06.19-.33,0-.39Z"/>
          </g>
        </g>
        <path class="cls-1" d="M45.76,36.7l.24.16s.08.05.12.08c.17.1.37.11.56.06.15-.03.31-.16.38-.29l.06-.15c.03-.11.03-.23,0-.34-.02-.16-.13-.3-.25-.4-.06-.05-.12-.09-.18-.13l-.24-.17c-.14-.1-.37-.11-.53-.07s-.33.17-.41.31c-.18.34-.07.73.25.94h0Z"/>
        <path class="cls-1" d="M43.95,53.25s.05-.09.08-.13c.05-.08.06-.09,0,0,.09-.12.18-.23.27-.35-.04.05-.06.07,0,.01.03-.04.07-.07.1-.11.08-.08.16-.14.23-.22.34-.37.11-1.03-.42-1.02-.6.01-1.19.36-1.56.82-.31.39-.34.91.08,1.24.39.3.97.2,1.22-.23h0Z"/>
        <path class="cls-1" d="M55.64,54.4c-.05-.09.01.07.02.1.02.08.04.16.06.24.04.16.06.33.11.49.21.65.91,1.25,1.6.81.64-.4.65-1.18.36-1.8-.18-.38-.45-.64-.74-.94-.72-.75-1.9.21-1.42,1.09h0Z"/>
        <path class="cls-1" d="M58.99,45.47l.11-.19c.14-.23.14-.54,0-.78-.07-.12-.16-.21-.28-.28-.12-.07-.25-.1-.39-.11l-.24-.02c-.16,0-.32.04-.46.12-.14.08-.25.19-.33.33-.16.28-.16.64,0,.92s.47.45.79.45.62-.18.79-.45h0Z"/>
        <path class="cls-1" d="M62.96,42.64s.08-.09.12-.14c.14-.16.23-.3.29-.5.09-.29-.01-.63-.22-.83s-.55-.31-.83-.22c-.2.07-.34.15-.5.29-.05.04-.09.08-.14.12-.09.08-.15.18-.19.29-.06.11-.08.23-.08.35,0,.13.02.24.08.35.04.11.1.21.19.29.17.16.4.28.64.27.23-.01.49-.08.64-.27h0Z"/>
        <path class="cls-1" d="M29.48,47.3c-1.27-.04-3.03.43-3.85,1.45-.55.67-.19,1.61.69,1.68,1.31.1,2.86-.84,3.71-1.8.44-.5.14-1.3-.55-1.32h0Z"/>
        <path class="cls-1" d="M18.48,55.14c-.28-.16-.63-.16-.9,0-.03.02-.05.04-.07.06-.01,0-.02,0-.04.01-.06.02-.12.04-.18.06.02,0,.04-.02.07-.03-.08.03-.14.06-.21.09-.02,0-.04.01-.05.02.02,0,.03-.01.05-.02-.17.08-.31.17-.44.34-.06.08-.11.15-.16.23-.35.52-.01,1.38.61,1.5.25.05.48.07.72.02.3-.07.62-.35.77-.61.11-.2.21-.43.24-.66.11-.37-.02-.8-.4-1.02Z"/>
        <path class="cls-1" d="M43.04,19.89c-.08.43-.06.86.17,1.25.12.2.32.42.52.54.27.16.7.24,1,.12.25-.1.49-.23.62-.48.12-.23.2-.54.1-.8-.05-.13-.11-.26-.19-.38-.09-.13-.2-.23-.3-.35l.17.23c-.08-.11-.16-.21-.24-.31l.17.22s-.05-.08-.07-.12l.11.26c-.02-.06-.04-.11-.05-.17l-.11-.25c-.07-.12-.16-.22-.27-.29-.18-.14-.41-.24-.63-.22-.19,0-.36.06-.53.14-.21.11-.44.39-.48.63h0Z"/>
        <path class="cls-1" d="M62.82,31.64c.21-.06.37-.17.53-.32.11-.1.29-.29.34-.44-.02.08-.12.15,0,.03.04-.04.08-.08.12-.12.16-.18.36-.47.4-.7.06-.33.03-.61-.18-.89-.18-.23-.49-.43-.8-.4-.47.05-.88.26-1.14.66-.13.2-.22.43-.29.66-.09.29-.1.58-.02.87.12.44.58.79,1.05.66h0Z"/>
        <path class="cls-1" d="M78.87,25.47c.08-.1.18-.2.24-.31.17-.32.19-.7,0-1.02-.09-.15-.21-.27-.36-.36-.16-.09-.33-.14-.51-.14-.04,0-.09,0-.13,0-.19,0-.37.05-.54.15-.16.1-.29.22-.38.38-.1.17-.15.35-.15.54,0,.15.03.29.09.41.04.13.12.25.22.34.13.13.29.22.47.28.19.05.38.05.57,0,.18-.05.34-.14.47-.28h0Z"/>
        <path class="cls-1" d="M49.45,69.29l.02.12c.01.08.04.12.07.2.05.13.12.23.22.32l.07.06c.15.13.34.24.55.23s.39-.09.55-.23l.07-.06c.1-.09.17-.2.22-.32.03-.08.06-.12.07-.2l.02-.12c.05-.17.05-.34,0-.51-.05-.16-.13-.3-.25-.42-.19-.17-.42-.28-.68-.28-.25,0-.5.11-.68.28-.12.12-.2.26-.25.42-.05.17-.05.34,0,.51h0Z"/>
        <path class="cls-1" d="M67.24,79.49c.05.07.09.13.14.2.15.21.2.26.41.41.03.02.05.04.08.05.24.17.58.15.83.05.28-.12.44-.32.54-.61.07-.22.08-.43.08-.66,0-.38-.2-.78-.55-.96-.26-.14-.56-.19-.86-.11-.27.07-.52.27-.66.51-.1.17-.15.36-.15.56,0,.2.05.39.15.56h0Z"/>
      </g>
      <rect class="cls-2" width="100" height="100"/>
    </g>
  </g>
</svg>