<?xml version="1.0" encoding="UTF-8"?>
<svg id="Capa_2" data-name="Capa 2" xmlns="http://www.w3.org/2000/svg" viewBox="0 0 100 100">
  <defs>
    <style>
      .cls-1 {
        fill: none;
      }

      .cls-2 {
        fill: #4a2d2d;
      }

      .cls-3 {
        fill: #9e991c;
      }
    </style>
  </defs>
  <g id="COLOR">
    <g>
      <g>
        <path class="cls-3" d="M93.72,14.59c-.13-.62-.86-1.15-1.59-.74-6.28,3.51-13.13,5.51-19.83,8.02-6.05,2.26-11.67,5.18-16.55,9.47-2.94,2.59-5.57,5.5-7.91,8.63-.7-3.78-1.7-7.49-2.95-11.06-2.62-7.49-5.95-14.94-9.96-21.79-.09-.15-.21-.26-.33-.32-.4-.35-1.15-.35-1.46.28-4.96,10.4-13.82,18.38-16.65,29.84-2.73,11.07-1.17,22.97,2.75,33.56,2.33,6.3,5.73,12.39,10.11,17.49.1.11.21.17.32.19.17.44.75.68,1.25.36,1.01-.65,1.96-1.49,2.86-2.4.04.7.08,1.39.14,2.09.02.17.09.31.18.4-.14.53.24,1.16.93,1.2,1.95.09,3.9-.4,5.8-.77,2.04-.4,4.09-.83,6.1-1.35,3.92-1.02,7.7-2.47,11.26-4.38,5.64-3.03,10.9-6.91,15.1-11.77,7.65-8.86,12.76-19.62,15.78-30.86,2.24-8.32,3.96-16.98,4.72-25.57.02-.2-.02-.37-.09-.52Z"/>
        <path class="cls-2" d="M86.89,20.97c-4.58,3.44-8.43,8.11-12.05,12.52-3.72,4.52-7.17,9.25-10.49,14.06-1.54,2.23-3.05,4.48-4.55,6.74-.4-2.92-1.06-5.78-1.25-8.73-.2-3.23-.08-6.47.31-9.68.07-.57-.78-.76-.88-.19-1.01,6.06-1.19,13.22,1.09,19.02.05.13.16.2.28.23-2.58,3.9-5.14,7.82-7.76,11.69-.1.06-.16.15-.18.26-1.91,2.82-3.87,5.62-5.9,8.37-.52-2.68-.91-5.42-1-8.14-.1-2.76.21-5.5.35-8.25.02-.42-.6-.42-.7-.05-1.56,5.51-.95,11.87.74,17.28-.41.55-.82,1.11-1.24,1.66-2.97,3.89-6.11,7.6-9.33,11.26-1.24-13.18,1.99-26.29,8.07-37.96.23-.41.45-.82.66-1.24,3.29-6.06,7.34-11.72,11.93-16.77.45-.5-.22-1.12-.72-.72-6.31,4.94-10.77,12.73-14.18,20.32-2.55,3.49-5.27,6.81-8.1,10.12-.03-2.75-.09-5.49-.15-8.23-.12-4.98-.29-9.98-.28-14.96,1.46-2.23,2.88-4.48,4.3-6.74,1.02-1.62,2.52-3.44,2.62-5.43.02-.43-.59-.61-.75-.18-1.43,3.82-3.93,7.27-6.15,10.75.01-1,.02-2,.05-3,.1-3.18.32-6.35.71-9.51.42-3.39,1.18-6.71,1.69-10.08.13-.84-1.2-1.18-1.46-.36-1.92,6.03-2.2,12.81-2.45,19.1-.23,5.89-.14,11.78.06,17.67-1.73-1.85-3.61-3.52-5.22-5.49-1.75-2.16-3.27-4.5-4.6-6.94-.23-.43-.92-.13-.7.32,2.3,4.74,5.72,9.82,10.2,12.75.11.07.23.06.34.02.01.37.02.73.04,1.1.14,3.63.27,7.26.35,10.89-.06.11-.06.24,0,.34.06,2.91.07,5.82,0,8.74-3.46-3.36-6.02-7.06-8.6-11.14-.2-.31-.62.02-.51.32,1.66,4.63,5.22,8.78,9.1,11.72-.18,6.95-.89,13.81-1.69,20.71-.05.45.29.68.63.69.27.15.63.16.91-.13,8.48-8.7,15.88-18.48,22.81-28.44,7.39-1.48,15.2-3.12,21.74-6.94.35-.2.06-.79-.32-.64-6.76,2.65-13.57,4.59-20.57,6.35.04-.06.08-.12.12-.18,5.06-7.35,9.86-14.92,15.08-22.17,2.87-1.13,5.72-2.3,8.57-3.47,2.07-.85,4.83-1.58,6.26-3.43.3-.39-.15-.98-.59-.68-3.94,2.68-8.67,4.27-13.14,6.08,1.29-1.76,2.6-3.51,3.96-5.23,2.04-2.58,4.19-5.05,6.43-7.46,2.32-2.49,4.87-4.72,7.22-7.16.69-.71-.34-1.93-1.15-1.32ZM30.45,93.4c1.37-9.72,1.66-19.54,1.57-29.35,2.08-2.21,4.2-4.48,6.14-6.88-.2.49-.4.97-.59,1.45-4.05,10.14-6.08,20.97-4.5,31.85-.87.98-1.74,1.95-2.62,2.93Z"/>
      </g>
      <rect class="cls-1" width="100" height="100"/>
    </g>
  </g>
</svg>