<?xml version="1.0" encoding="UTF-8"?>
<svg id="Capa_2" data-name="Capa 2" xmlns="http://www.w3.org/2000/svg" viewBox="0 0 100 100">
  <defs>
    <style>
      .cls-1 {
        fill: #cf923a;
      }

      .cls-2 {
        fill: none;
      }

      .cls-3 {
        fill: #4a2d2d;
      }
    </style>
  </defs>
  <g id="COLOR">
    <g>
      <g>
        <path class="cls-1" d="M48.13,25c-.93-3.82-2.43-9.44-6.08-11.54-.91-.53-1.46-.08-2.26.58-9.34,3.78-13.83,13.41-16.07,22.37-2.72,10.82,4.75,19.74,10.07,28.38.46.75,1.37.63,1.85,0,6.06-7.9,11.84-15.62,13.19-25.79.62-4.68.41-9.41-.7-14Z"/>
        <path class="cls-1" d="M80.79,41.81c-.49-1.38-2.7-.79-2.78-.78-4.56.41-9.29,2.64-13.45,4.49-4.19,1.87-8.01,4.34-11.12,7.73-6.3,6.84-9.51,15.91-10.6,25.03-.32,2.65-.49,5.32-.55,7.99-.03,1.35-.45,3.76,1.02,4.61,1.53.87,4.48-.1,6.01-.5,2.26-.6,4.47-1.39,6.62-2.31,8.41-3.58,16.2-9.43,21.64-16.81,6.27-8.51,6.67-19.68,3.22-29.45Z"/>
        <path class="cls-3" d="M43.38,24.29c-.34-2.46-.57-6.9-2.51-8.77-.4-.39-.94-.09-1.01.35-.06.02-.11.06-.16.11-2.56,3.08-4.68,6.76-6.51,10.31-1.8,3.48-3.04,7.19-3.45,11.1-.86,8.07.97,17.51,4.83,24.67.09.17.24.24.4.25.11.32.58.47.82.1,4.63-7.32,7.26-16.43,8.03-25.01.39-4.36.16-8.78-.44-13.11ZM30.71,38.18c.28-4.29,1.55-8.33,3.52-12.14,1.55-2.98,3.66-5.57,5.46-8.37-1.74,6.95-2.97,14.11-3.86,21.21-.49,3.91-.86,7.83-1.14,11.76-.15,2.1-.43,4.34-.51,6.56-.76-2.24-1.57-4.46-2.13-6.76-.99-4.02-1.62-8.12-1.35-12.26ZM42.41,37.77c-.26,4.06-.98,8.03-2.12,11.93-1.16,3.96-2.95,7.56-4.78,11.23.53-3.1.33-6.45.57-9.57.29-3.92.69-7.84,1.15-11.74.85-7.29,1.96-14.49,3.38-21.68.81,2.36,1.13,5.05,1.44,7.4.53,4.13.63,8.28.36,12.43Z"/>
        <path class="cls-3" d="M78.91,43.65c-.03-.16-.13-.28-.26-.35-.11-.28-.42-.48-.76-.29-8.13,4.43-15.61,10.41-21.45,17.63-2.84,3.51-5.02,7.38-6.7,11.57-1.9,4.76-3.87,9.82-4.9,14.85-.41.76-.79,1.52-1.12,2.31-.28.65.6,1.22.98.57.16-.26.32-.52.48-.79.02,0,.05,0,.07-.02,8.46-4.45,17.15-9.48,22.76-17.46,3.01-4.28,5.43-9.17,7.62-13.92,1.93-4.19,4.11-9.4,3.3-14.11ZM57.54,61.21c5.42-6.65,12.25-12.13,19.61-16.51-6.98,8.57-13.92,17.18-20.83,25.8-2.57,3.2-5.04,6.4-7.28,9.85-.42.64-.84,1.28-1.27,1.93,2.62-7.35,4.65-14.78,9.77-21.06ZM74,58.12c-2.05,4.4-4.32,8.92-7.09,12.91-5.18,7.47-13.13,12.08-20.82,16.58,9.11-14.84,20.6-28.04,31.37-41.7-.18,1.67-.34,3.34-.79,5-.67,2.48-1.58,4.88-2.67,7.2Z"/>
      </g>
      <rect class="cls-2" width="100" height="100"/>
    </g>
  </g>
</svg>