<?xml version="1.0" encoding="UTF-8"?>
<svg id="Capa_2" data-name="Capa 2" xmlns="http://www.w3.org/2000/svg" viewBox="0 0 100 100">
  <defs>
    <style>
      .cls-1 {
        fill: #fff;
      }

      .cls-2 {
        fill: #d8d6a4;
      }

      .cls-3 {
        fill: none;
      }

      .cls-4 {
        fill: #4a2d2d;
      }

      .cls-5 {
        fill: #9e991c;
      }
    </style>
  </defs>
  <g id="COLOR">
    <g>
      <g>
        <g>
          <path class="cls-5" d="M85.23,34.25c-2.08-2.65-4.53-5.01-7.18-7.09-11.58-9.06-26.89-11.58-40.86-7.1-4.26,1.37-8.43,3.27-12.98,3.35-2.26.04-4.43-.41-6.43-1.49-1.02-.55-1.97-1.11-3.01-1.48-.01,0-.03-.02-.05-.02-.43-.18-.85-.28-1.24-.31-.09-.02-.18-.04-.28-.05-.11-.01-.21.01-.29.06-2.48.28-3.86,3.5-2.19,5.83,1.4,1.96,3.61,3.3,5.11,5.21,1.59,2.02,2.83,4.3,4,6.58,2.24,4.38,4.26,9.03,7.85,12.51,1.86,1.81,4.04,3.23,6.44,4.23,3.78,1.56,8.02,1.93,12.07,2.09,6.73.27,13.95-1.18,20.45-2.9,7.36-1.95,16.13-5.21,20.57-11.8,1.86-2.76-.25-5.41-1.99-7.62Z"/>
          <g>
            <path class="cls-4" d="M22.72,33.37c2.23,4.33,6.3,7.86,10.4,10.38,3.97,2.45,9.22,4.77,13.99,4.42.39-.03.51-.59.1-.7-2.25-.61-4.56-.9-6.78-1.62-2.35-.75-4.62-1.79-6.73-3.07-4.25-2.58-7.27-6.06-10.28-9.93-.32-.41-.9.11-.69.53h0Z"/>
            <path class="cls-4" d="M50.44,46.12c1.38.52,2.84.78,4.28.35.35-.11.27-.61-.09-.63-1.35-.09-2.67-.12-3.97-.52-.52-.16-.71.61-.22.8h0Z"/>
            <path class="cls-4" d="M34.1,32.6c10.84,5.25,24.3,10.07,36.35,6.39.44-.14.25-.74-.19-.68-6.24.9-12.4.8-18.57-.56-5.93-1.31-11.55-3.6-17.12-5.97-.54-.23-1.03.54-.48.81h0Z"/>
            <path class="cls-4" d="M72.94,42.04c1.67.13,3.31.05,4.73-.92.29-.2.11-.65-.24-.57-1.48.34-2.95.82-4.49.77-.47-.01-.46.68,0,.72h0Z"/>
            <path class="cls-4" d="M79.84,36.41c-.4-.42-.82-.84-1.27-1.2-.4-.33-.87-.74-1.4-.82-.31-.05-.57.23-.41.53.24.45.73.78,1.11,1.1.42.36.84.73,1.23,1.12.48.48,1.2-.25.74-.74h0Z"/>
            <path class="cls-4" d="M44.16,26.09c9.3-.47,17.92,1.43,26.35,5.36.42.2.77-.38.37-.63-7.77-4.83-17.64-6.8-26.71-5.73-.62.07-.66,1.04,0,1h0Z"/>
          </g>
        </g>
        <g>
          <path class="cls-2" d="M88.88,52.8s-.9-1.31-5.81-1.14c-4.91.16-7.44,1.14-11.69-.65-4.25-1.8-11.94-3.76-16.52-2.78-4.58.98-12.76,6.13-15.54,7.36-2.78,1.23-9.73,3.52-12.51,6.13-2.78,2.62-3.35,7.44-2.13,10.71,1.23,3.27,6.87,6.54,10.55,6.71,3.68.16,10.39-2.29,14.06-1.96s7.85.08,10.3-.98c2.45-1.06,4.99-4.91,8.59-5.81,3.6-.9,7.28-3.84,9.08-5.97,1.8-2.13,4.09-5.32,6.05-5.97,1.96-.65,5.64-2.13,6.3-3.11.65-.98-.74-2.53-.74-2.53Z"/>
          <path class="cls-5" d="M23.71,72.34s2.62,9.24,9.89,13.66c7.28,4.42,16.6,4.82,22.32,3.68,5.72-1.14,9.57-6.21,13.9-6.87,4.33-.65,8.34-1.47,11.78-6.46,3.43-4.99,8.79-20.59,8.85-21.95.06-1.36-.59.2-1.41,1.18s-5.72,2.04-6.87,3.27c-1.14,1.23-8.01,8.91-9.98,9.73-1.96.82-7.11,2.13-8.34,3.68-1.23,1.55-6.79,5.32-9.98,5.23-3.19-.08-8.75-.98-10.63-.33s-6.62,1.47-10.3,1.23c-3.68-.25-5.23-2.21-6.38-2.94s-2.86-3.11-2.86-3.11Z"/>
          <path class="cls-4" d="M47.02,75.36c-1.01,0-2-.44-2.72-1.21-.69-.74-1.04-1.67-.98-2.62.12-1.9,2.17-3.08,4-3.08.33,0,.64.04.93.11.72.18,1.36.6,1.82,1.2.86,1.14,1.06,3.24.04,4.24-.77.76-1.85,1.28-2.8,1.36-.09,0-.19.01-.28.01h0Z"/>
          <path class="cls-4" d="M37.37,75.23c-1.57,0-3.06-.81-3.88-2.11-.65-1.02-.8-2.25-.41-3.38.39-1.16,1.29-2.06,2.47-2.49.37-.14.78-.2,1.22-.2,1.13,0,2.36.47,3.29,1.26.97.82,1.48,1.85,1.44,2.91-.04,1.15-.51,2.24-1.24,2.91-.78.71-1.8,1.1-2.88,1.1h0Z"/>
          <path class="cls-4" d="M45.6,66.78c-1.64,0-3.07-.83-3.85-2.23-.95-1.72-.78-3.91.42-5.32.88-1.03,2.21-1.62,3.65-1.62s2.79.63,3.6,1.72c.8,1.07,1.1,2.43.83,3.73-.27,1.3-1.08,2.42-2.24,3.08-.18.1-.38.2-.59.28-.59.23-1.21.35-1.83.35h0Z"/>
          <path class="cls-4" d="M54.99,72.53c-.45,0-.89-.05-1.29-.15-.76-.19-1.17-.59-1.33-1.27-.28-1.23-.14-2.75.36-3.69.44-.85,1.15-1.5,1.99-1.84.39-.16.78-.24,1.18-.24,1.41,0,2.64,1,3.05,2.5.29,1.07.2,2.07-.27,2.89-.45.79-1.22,1.35-2.22,1.61-.46.12-.96.19-1.46.19h0Z"/>
          <path class="cls-4" d="M64.11,69.25c-.78,0-1.56-.19-2.18-.54-.91-.5-1.62-1.38-1.96-2.4-.52-1.58-.1-2.99,1.11-3.77.65-.42,1.47-.65,2.31-.65.46,0,.9.07,1.31.2,1.12.35,2.05,1.15,2.56,2.19.46.95.52,2.01.15,3-.54,1.46-2.07,1.98-3.31,1.98h0Z"/>
          <path class="cls-4" d="M71.56,65.4c-.99,0-1.87-.36-2.5-1.01-.56-.58-.83-1.41-.76-2.34.09-1.16.7-2.33,1.55-2.99.6-.46,1.39-.72,2.22-.72.75,0,1.5.21,2.09.59.56.36,1.25,1.03,1.36,2.2.1,1.1-.25,2.24-.93,2.97-.75.81-1.88,1.3-3.03,1.3h0Z"/>
          <path class="cls-4" d="M65.89,59.42c-1.46,0-2.76-.73-3.31-1.87-.36-.73-.37-1.62-.04-2.5.38-1.01,1.17-1.88,2.08-2.27.44-.19.9-.28,1.39-.28,1.22,0,2.36.61,2.96,1.58.5.81.65,1.77.42,2.69-.23.93-.82,1.7-1.66,2.18-.53.3-1.16.47-1.84.47h0Z"/>
          <path class="cls-4" d="M56.52,62.78c-1.89,0-4.2-.99-4.97-2.87-.45-1.1-.26-2.34.53-3.52,1-1.49,2.78-2.53,4.33-2.53.04,0,.08,0,.12,0,1.47.05,2.89.84,3.68,2.07.7,1.08.89,2.43.53,3.71-.36,1.23-1.2,2.24-2.33,2.76-.54.25-1.19.38-1.89.38h0Z"/>
          <path class="cls-1" d="M44.32,62.77c.06,0,.14-.01.2-.02.07,0,.13-.01.19-.03.12-.03.25-.08.35-.15.15-.08.27-.19.36-.33.04-.04.07-.09.11-.14.11-.17.11-.21.13-.33.05-.29.07-.43,0-.73l-.13-.3c-.08-.15-.19-.26-.32-.35-.08-.08-.17-.13-.28-.16-.15-.08-.31-.11-.48-.11l-.33.04-.3.13c-.15.08-.26.19-.35.32-.11.12-.19.26-.22.43,0,0,0,.01,0,.02l.13-.3s-.01.03-.02.04l.2-.26c-.16.2-.28.32-.34.58,0,.01,0,.03-.01.04l.13-.3s-.01.02-.02.03l.19-.25s-.01.02-.02.02l.25-.19h0c-.08.07-.17.13-.25.2-.12.11-.2.24-.25.39-.06.1-.08.2-.08.31-.04.16-.03.33.02.49l.12.29.19.25c.11.12.24.2.39.25.15.08.3.11.47.11h0Z"/>
          <path class="cls-1" d="M54.06,56.16c-.13.04-.25.09-.37.15-.22.13-.4.31-.53.53-.07.13-.12.27-.17.41-.06.2-.07.4-.03.59,0,.2.07.38.18.55l.23.3c.13.15.29.25.48.31.12.07.24.1.38.1.2.04.4.04.59-.03l.36-.15c.22-.13.4-.31.53-.53.04-.07.07-.16.1-.23.09-.18.14-.37.13-.57,0-.14-.01-.28-.06-.41-.05-.19-.13-.36-.26-.5-.1-.16-.24-.29-.41-.38l-.35-.15c-.26-.07-.52-.07-.78,0h0Z"/>
          <path class="cls-1" d="M65.17,57.29c1.32,0,1.32-2.04,0-2.04s-1.32,2.04,0,2.04h0Z"/>
          <path class="cls-1" d="M35.73,72.39c.23,0,.44-.04.63-.14.2-.07.38-.18.53-.34.16-.15.27-.32.34-.53.1-.2.15-.41.14-.63-.02-.15-.04-.29-.06-.44-.08-.28-.22-.52-.42-.72l-.33-.26c-.26-.15-.53-.22-.83-.22-.23,0-.44.04-.63.14-.2.07-.38.18-.53.34-.16.15-.27.32-.34.53-.1.2-.15.41-.14.63l.06.44c.08.28.22.52.42.72l.33.26c.26.15.53.22.83.22h0Z"/>
          <path class="cls-1" d="M46.48,72.08s0,0,0,0l-.26.11s0,0,0,0l-.29.04s0,0,0,0l-.29-.04s0,0,0,0l-.26-.11s0,0,0,0l-.22-.17s0,0,0,0l-.17-.22s0,0,0,.01l-.11-.26s0,0,0,.01c.03.14.1.26.19.37.08.12.18.21.3.28l.26.11c.14.05.29.05.43.02.1,0,.19-.03.27-.07.13-.04.25-.12.35-.22l.17-.22c.1-.17.15-.35.15-.55,0-.1-.01-.21-.04-.31,0,0-.11-.26-.11-.26,0,0,0,0,0,0-.04-.08-.11-.16-.18-.23,0,0-.22-.17-.22-.17-.04-.02-.07-.03-.13-.06-.16-.07-.21-.1-.43-.1-.26,0-.34.05-.57.15-.13.07-.23.16-.31.28-.1.11-.16.23-.2.37-.05.15-.05.29-.02.44,0,.15.05.28.13.41l.17.22c.14.14.3.23.48.28l.29.04c.2,0,.38-.05.55-.15h0Z"/>
          <path class="cls-1" d="M55.36,70.63c.17,0,.33-.03.48-.11.15-.05.29-.14.4-.26.12-.11.21-.24.26-.4.08-.15.11-.31.11-.48l-.04-.33c-.06-.21-.16-.39-.32-.55l-.25-.19c-.19-.11-.4-.17-.62-.17-.17,0-.33.03-.48.11-.15.05-.29.14-.4.26-.12.11-.21.24-.26.4-.08.15-.11.31-.11.48l.04.33c.06.21.16.39.32.55l.25.19c.19.11.4.17.62.17h0Z"/>
          <path class="cls-1" d="M63.08,66.34c1.44,0,1.44-2.23,0-2.23s-1.44,2.23,0,2.23h0Z"/>
          <path class="cls-1" d="M71.67,63.33c.18,0,.34-.03.5-.11.16-.05.3-.14.42-.27.13-.12.22-.26.27-.42.08-.15.12-.32.11-.5l-.05-.34c-.06-.22-.17-.41-.33-.57l-.26-.2c-.2-.12-.42-.18-.65-.18-.18,0-.34.03-.5.11-.16.05-.3.14-.42.27-.13.12-.22.26-.27.42-.08.15-.12.32-.11.5l.05.34c.06.22.17.41.33.57l.26.2c.2.12.42.18.65.18h0Z"/>
          <path class="cls-4" d="M87.11,51.09c-3.03-.68-6.21.34-9.24.51-3.42.2-6.06-1.25-9.15-2.45-2.67-1.04-5.47-1.67-8.33-1.82-5.95-.32-11.31,1.48-16.26,4.69-2.82,1.83-5.69,3.1-8.83,4.26-2.54.93-5.11,1.92-7.32,3.51-3.34,2.41-5.46,6.5-4.89,10.65.88,6.42,7.69,9.77,13.58,9.34,3.36-.25,6.6-1.23,9.95-1.55,2.87-.28,5.73.2,8.59.03,3.04-.18,5.38-1.27,7.52-3.42,2.51-2.51,5.25-3.5,8.44-4.9,2.7-1.18,4.71-2.94,6.6-5.16,1.26-1.48,2.58-2.97,4.06-4.25.06-.06.11-.13.17-.19.45-.47.93-.91,1.48-1.27,1.12-.73,2.38-1.06,3.59-1.57,1.02-.43,2.1-.94,2.78-1.84.28-.36.48-.8.57-1.25.04-1.83-1.73-2.95-3.34-3.31ZM88.49,55.36c-.42.71-1.66.91-2.4,1.07-1.21.25-2.38.46-3.51.99-1.5.7-2.77,1.76-3.73,3.06-1.46,1.52-2.73,3.29-4.2,4.76-3.46,3.45-8.66,3.8-12.22,7.11-2.16,2-3.84,3.54-6.91,3.78-2.4.19-4.82-.16-7.22-.13-5.56.06-11.16,2.62-16.7,1.26-2.77-.68-4.88-2.58-5.96-4.93-.18-.46-.35-.93-.51-1.4-.58-2.18-.32-4.59,1.03-6.74,2.91-4.64,8.92-5.68,13.61-7.62,2.54-1.05,4.73-2.61,7.07-4.03,2.27-1.37,4.71-2.36,7.3-2.94,5.52-1.23,10.9-.52,16,1.86,2.53,1.18,4.92,1.98,7.76,1.83,2.97-.16,6.3-1.3,9.24-.48,1.21.34,2.18,1.22,1.37,2.56Z"/>
        </g>
      </g>
      <rect class="cls-3" width="100" height="100"/>
    </g>
  </g>
</svg>