<?xml version="1.0" encoding="UTF-8"?>
<svg id="Capa_2" data-name="Capa 2" xmlns="http://www.w3.org/2000/svg" viewBox="0 0 100 100">
  <defs>
    <style>
      .cls-1 {
        fill: #fff;
      }

      .cls-2 {
        fill: none;
      }

      .cls-3 {
        fill: #4a2d2d;
      }

      .cls-4 {
        fill: #ab3e40;
      }
    </style>
  </defs>
  <g id="COLOR">
    <g>
      <g>
        <g>
          <path class="cls-4" d="M23.46,71.6c3.77-.87,14.73-7.5,19.76-11.28,5.02-3.78,7.2-17.07,8.72-22.28,1-3.43,3-6.97,5.31-7.88,1.12.29,5.61,1.35,6.69,1.1.8-.19,1.56-.58,2.34-.85-.14.42-.26.85-.34,1.29-.16.86-.17,1.76-.15,2.63.03,1.03.09,2.31.55,3.26.28.56.89.81,1.46.51.55-.29.75-.89,1.03-1.4.45-.8.91-1.6,1.26-2.44.16-.39.28-.8.39-1.21.51.65,1.06,1.26,1.64,1.87.75.8,3.8,3.07,4.8,3.52,1.65,4.26,3.52,13.72-6.54,24.58-5.51,5.94-14.33,11.65-27.74,15.15-13.41,3.49-23.45,2.66-26.27-.01-2.82-2.67,2.76-5.52,7.07-6.52Z"/>
          <path class="cls-3" d="M57.36,31.29c2.6.83,5.2.98,7.76.37-.67,2.57-.38,5.37,1.32,7.52.34.43,1.01.41,1.34-.02,1.04-1.38,1.83-2.84,2.39-4.42,1.64,2.13,3.94,3.79,6.5,4.58.6.19,1.45-.28,1.25-1.01-1.04-3.89-2.9-7.11-6.13-9.59-.09-.07-.19-.12-.28-.15.34-1.88,1.14-3.66,2.45-5.1,1.61-1.76,3.6-2.22,5.53-3.4,3.33-2.03.62-5.22-2.47-4.86-4.29.5-7.6,4.96-9.51,8.43-.59,1.07-.89,2.53-2.24,2.84-.87.2-1.96.36-2.86.55-2.01.43-3.86,1.02-5.33,2.46-.52.51-.55,1.52.27,1.78ZM66.47,29.46c-1.99.86-4.52,1.6-8.02.74.96-1.21,4.11-1.86,5.5-1.96,1.44-.11,3.44-.46,4.47-1.72,1.21-1.48,1.3-2.37,2.41-3.97,1.1-1.59,2.4-3.17,3.97-4.32.84-.61,2.49-1.59,3.58-1.07,1.33.63-.77,1.74-1.53,2.04-1.33.54-2.52,1.33-3.51,2.37-2.16,2.26-3.22,4.44-3.17,7.58,0,.43.22.97.75,1.3,2.27,1.4,4.55,4.78,5.53,7.26-2.11-1.1-4.78-3.2-5.92-5.5-.47-.95-.98-.45-1.23.56-.66,2.71-1.33,3.88-2.2,5.1-1.42-2.33-1.35-5.49-.04-7.47.57-.87.4-1.36-.6-.93Z"/>
          <path class="cls-1" d="M73.54,51.64c-.63-.08-1.39-.21-1.91-.6-.37-.28-.56-.84-.37-1.28s.65-.77,1.13-.7c.31.05.57.16.86.25.05.02.1.03.16.05-.1-.02-.11-.02-.03,0,.13.03.25.05.38.07.57.08,1.08.61.99,1.22s-.6,1.07-1.22.99h0Z"/>
          <path class="cls-1" d="M71.72,55.43c-.32-.22-.65-.43-.9-.74-.41-.52-.1-1.3.55-1.41.39-.07.77.01,1.16.06.75.09,1.24.86.96,1.57s-1.16.95-1.77.51h0Z"/>
          <path class="cls-3" d="M32.74,77.07c-1.01-.39-.4-1.97.61-1.57,1.01.39.4,1.97-.61,1.57h0Z"/>
          <path class="cls-3" d="M27.97,78.31c-.5-.19-.2-.97.3-.77s.2.97-.3.77h0Z"/>
          <path class="cls-3" d="M27.21,74.9c-.5-.19-.2-.97.3-.77s.2.97-.3.77h0Z"/>
        </g>
        <path class="cls-3" d="M59.76,33.93c-2.39.6-3.31,3.54-3.44,5.72-.2,3.52,1.43,7.05,0,10.48-1.03,2.49-3.12,4.38-4.97,6.26-1.53,1.57-4.12,3.81-4.07,6.2,0,.31.41.35.58.16.84-.89,1.31-2.09,2.06-3.07.78-1.02,1.66-1.94,2.55-2.85,1.66-1.69,3.41-3.38,4.5-5.52,1.39-2.71,1.03-5.53.62-8.43-.22-1.57-.37-3.14-.03-4.7.36-1.62,1.2-2.58,2.45-3.59.26-.21.11-.75-.26-.66h0Z"/>
        <path class="cls-3" d="M69.31,46.08c-1.26,1.4-2.4,2.89-2.44,4.86-.02,1.06.26,2.11.26,3.18s-.27,2.15-.69,3.13c-.84,1.98-2.27,3.56-3.98,4.83-.85.63-1.74,1.19-2.62,1.77-.82.54-2.03,1.12-2.59,1.94-.17.25,0,.55.3.54.99-.04,2.11-.8,2.97-1.28.92-.51,1.81-1.13,2.62-1.8,1.57-1.3,2.98-2.83,3.93-4.63.88-1.67,1.35-3.64,1.05-5.52-.2-1.21-.73-2.46-.42-3.7.29-1.19,1.18-2.14,1.97-3.04.2-.22-.16-.51-.36-.29h0Z"/>
        <path class="cls-3" d="M38.48,73.13c3.51-.5,6.47-2.06,9.48-3.85,1.42-.84,2.34-1.84,3.3-3.16.62-.85,1.27-1.56,2.22-2.06.68-.36,1.59-.5,2.16-1.02.19-.17.07-.44-.18-.44-1.21,0-2.85,1.14-3.7,1.96-.59.57-1.02,1.28-1.57,1.88-.59.65-1.3,1.14-2.05,1.58-3,1.76-6.26,3.83-9.73,4.48-.39.07-.33.68.07.62h0Z"/>
        <path class="cls-3" d="M65.44,42.21c-1.35,1.86-2.37,3.99-2.66,6.29-.15,1.23-.13,2.52-.52,3.71-.17.51-.41,1-.74,1.42-.35.45-.81.71-1.24,1.05-.16.12-.05.37.14.35.93-.07,1.63-.96,2.04-1.72.58-1.06.72-2.26.82-3.44.12-1.3.29-2.57.74-3.81s1.11-2.41,1.88-3.49c.22-.31-.24-.67-.46-.36h0Z"/>
      </g>
      <rect class="cls-2" width="100" height="100"/>
    </g>
  </g>
</svg>