<?xml version="1.0" encoding="UTF-8"?>
<svg id="Capa_2" data-name="Capa 2" xmlns="http://www.w3.org/2000/svg" viewBox="0 0 100 100">
  <defs>
    <style>
      .cls-1 {
        fill: none;
      }

      .cls-2 {
        fill: #4a2d2d;
      }

      .cls-3 {
        fill: #a0b93d;
      }
    </style>
  </defs>
  <g id="COLOR">
    <g>
      <g>
        <path class="cls-3" d="M45.6,60.38s2.88-4.68,4.44-13.31c1.56-8.63.6-23.98,3.96-26.13,3.36-2.16,4.8,1.08,5.39,3.6.6,2.52.6,5.75.6,5.75,0,0,4.44-12.95,8.39-12.59s1.68,9.11,1.68,9.11c0,0,9.46-14.47,15.58-9.95,5.51,4.08-5.75,13.67-5.75,13.67,0,0,4.91-1.68,6.11.72,1.2,2.4-4.91,5.15-4.91,5.15,0,0,4.8-.24,4.91,3.12.12,3.36-8.03,5.87-8.03,5.87,0,0,8.39-.36,7.91,4.91-.48,5.27-15.7,4.91-22.42,5.87s-17.86,4.2-17.86,4.2Z"/>
        <path class="cls-3" d="M41.74,64.97s-2.73-4.23-1.54-11.18c1.2-6.95,5.39-15.22,5.87-22.06.48-6.83-2.28-6.23-3.84-5.03-1.56,1.2-2.88,5.15-2.88,5.15,0,0,.72-10.91-2.4-11.51s-4.44,5.51-4.44,5.51c0,0-2.28-9.59-7.31-9.11s-2.64,13.31-2.64,13.31c0,0-6.59-1.56-8.51,1.56-1.92,3.12,3,6.59,5.03,7.43,2.04.84,3.12,1.32,3.12,1.32,0,0-7.07.72-5.99,5.27,1.08,4.56,11.51,6.71,15.46,11.27,3.96,4.56,6.95,10.43,6.95,10.43l3.09-2.36Z"/>
        <path class="cls-3" d="M42.01,63.98s2.27,1.67,9.22,1.67,23.74-6.83,26.37-4.56c2.64,2.28-1.68,4.8-1.68,4.8,0,0,7.55-.6,8.75,2.28,1.2,2.88-3.36,3.72-3.36,3.72,0,0,6.47,2.64,5.87,6.23-.6,3.6-5.75,3.12-7.91,2.88-2.16-.24-3.84-.96-3.84-.96,0,0,3.84,3.84,2.76,6.23-1.08,2.4-5.03.96-6.23.12-1.2-.84-3.48-3.84-3.48-3.84,0,0,2.4,5.75-1.32,6.59-3.72.84-5.99-4.8-9.59-9.59-3.6-4.8-8.87-8.75-12.59-10.55-3.72-1.8-5.66-2.11-5.66-2.11l2.68-2.92Z"/>
        <path class="cls-2" d="M34.35,32.35c-.09.27-.14.56-.24.84s-.18.52-.22.82.37.4.55.23c.44-.42.66-1.19.61-1.79-.03-.4-.57-.49-.71-.1h0Z"/>
        <path class="cls-2" d="M75.93,73.39c-5.48-.12-10.98-.86-16.3-2.19,1.15-.11,2.28-.35,3.41-.68,2.38-.71,5.06-1.36,7.09-2.87.26-.2.12-.67-.24-.56-4.22,1.23-8.35,3.68-12.9,3.33-.05,0-.09,0-.13.02-2.48-.72-4.93-1.53-7.34-2.45-2.34-.89-4.75-2.19-7.22-2.82,1.82-1.92,3.63-3.86,5.4-5.84,2.13-2.38,4.27-4.76,6.41-7.14,2.84-.04,5.68-.11,8.51-.2,2.71-.09,5.57.06,8.24-.46.28-.06.3-.55,0-.59-2.7-.37-5.53-.03-8.24.08-2.59.1-5.17.22-7.76.33,4.3-4.79,8.6-9.59,12.83-14.44.65-.75-.45-1.85-1.09-1.09-3.42,4-6.88,7.98-10.39,11.91.06-1.9-.14-3.88-.14-5.76.01-2.37.08-4.76.22-7.13.02-.36-.58-.45-.63-.09-.34,2.4-.57,4.78-.62,7.21-.04,2.15-.17,4.56.31,6.69-2.9,3.22-5.82,6.4-8.82,9.51-2.18,2.27-4.34,4.56-6.5,6.84-.62-2.62-1.72-5.21-2.56-7.73-.6-1.8-1.18-3.61-1.76-5.42.7-1.85,1.14-3.82,1.8-5.68.82-2.31,1.83-4.53,2.74-6.79.16-.4-.48-.65-.68-.29-1.16,2.06-2.05,4.3-2.85,6.52-.53,1.48-1.13,3.03-1.52,4.61-.22-.71-.45-1.42-.66-2.13-1.86-6.15-3.13-12.47-5-18.61-.16-.51-.86-.29-.78.22.47,3.05,1.16,6.06,1.93,9.05-1.08-.53-2.26-.9-3.37-1.36-1.7-.7-3.37-1.46-5.05-2.21-.47-.21-.87.44-.41.7,2.67,1.51,6,3.39,9.09,3.87.8,3.01,1.67,6.01,2.49,9,.84,3.1,1.74,6.18,2.69,9.25.82,2.68,1.55,5.61,2.84,8.14-.88.93-1.75,1.86-2.64,2.78-1.75,1.83-3.52,3.64-5.27,5.47-1.62,1.69-3.39,3.31-4.75,5.22-.33.46.32,1.11.78.78,3.88-2.81,7.16-6.8,10.47-10.24,1.2-1.24,2.39-2.49,3.58-3.74,2.44,1.19,5.14,2.04,7.67,2.97,2.95,1.09,5.96,1.98,9.01,2.7,2.51.59,5.03,1.04,7.56,1.41.99.62,1.79,2.05,2.49,2.94.86,1.07,1.73,2.25,2.76,3.16.31.27.79-.07.58-.45-.78-1.38-1.91-2.62-2.91-3.84-.41-.5-.81-1.07-1.26-1.56,2.95.38,5.92.63,8.91.76.71.03.71-1.09,0-1.11Z"/>
        <path class="cls-2" d="M71.85,80.73c.28,0,.28-.43,0-.43s-.28.43,0,.43h0Z"/>
        <path class="cls-2" d="M63.07,75.95c.2.52.36,1.15.84,1.48.22.15.46-.06.48-.28.05-.54-.34-1.07-.59-1.51-.22-.38-.9-.13-.73.31h0Z"/>
        <path class="cls-2" d="M67.17,42.66c.28-.02.55-.04.83-.03s.55,0,.8-.14.25-.53,0-.66-.52-.15-.8-.14-.55-.01-.83-.03c-.65-.05-.65,1.05,0,1h0Z"/>
      </g>
      <rect class="cls-1" width="100" height="100"/>
    </g>
  </g>
</svg>