<?xml version="1.0" encoding="UTF-8"?>
<svg id="Capa_2" data-name="Capa 2" xmlns="http://www.w3.org/2000/svg" viewBox="0 0 100 100">
  <defs>
    <style>
      .cls-1 {
        fill: none;
      }

      .cls-2 {
        fill: #4a2d2d;
      }

      .cls-3 {
        fill: #b3644c;
      }
    </style>
  </defs>
  <g id="COLOR">
    <g>
      <g>
        <g>
          <path class="cls-3" d="M32.51,40.67s-1.04-5.57-2.44-7.03c-1.39-1.46-6.26-1.67-8.42.42-2.16,2.09-2.23,5.78-1.81,7.17.42,1.39,9.6,34.23,10.72,38.55s2.57,8.77,4.04,9.39c1.46.63,3.41,1.46,6.19.21s4.31-2.5,4.31-4.31-8-49.68-9.39-50.31c-1.25,2.99-3.2,5.91-3.2,5.91Z"/>
          <path class="cls-2" d="M24.83,48.29c1.15.89,2.97,1.26,4.14.17.39-.36-.02-.94-.49-.84-1.08.23-2,.44-3.03-.15-.49-.28-1.1.44-.62.81h0Z"/>
          <path class="cls-2" d="M25.89,52.68c1.03.24,2.55.59,3.37-.31.34-.38,0-.97-.5-.85-.43.1-.8.24-1.24.24s-.89-.1-1.32-.19c-.72-.16-1.04.94-.31,1.12h0Z"/>
          <path class="cls-2" d="M39.8,84.73c.7.3,1.75.35,2.09-.48.15-.36-.22-.66-.53-.69-.24-.02-.44.1-.67.14-.13.02-.28-.01-.43-.07-.63-.23-1.09.83-.46,1.1h0Z"/>
        </g>
        <g>
          <path class="cls-3" d="M50.24,22.38s-.35-6.26-1.46-7.93c-1.11-1.67-4.73-2.09-7.86-1.25-3.13.83-3.55,3.97-3.41,4.94.14.97.97,9.32,1.67,16.07.7,6.75,6.4,41.75,7.31,46.13.9,4.38,1.11,6.68,3.55,7.65s7.58,1.25,8.77-.7c1.18-1.95-1.88-54.69-2.16-58.31s-.14-16-.14-16c0,0-1.6,6.05-3.48,7.65-1.88,1.6-2.78,1.74-2.78,1.74Z"/>
          <path class="cls-2" d="M40.91,26.95c.66.31,1.58.63,2.23.14.31-.23.39-.72,0-.94-.3-.17-.54-.21-.88-.25-.22-.02-.45-.08-.65-.16-.35-.15-.75-.1-.96.25-.18.3-.09.8.25.96h0Z"/>
          <path class="cls-2" d="M41.29,30.03c.35.16.7.29,1.08.36.4.07.87.15,1.22-.11s.42-.79,0-1.05c-.31-.19-.63-.15-.98-.18-.29-.02-.56-.1-.83-.19-.67-.24-1.15.87-.49,1.16h0Z"/>
        </g>
        <g>
          <path class="cls-3" d="M73.88,36.94s1.62-6.94-.08-8.58c-1.7-1.64-6.08-2.69-9.11-1.12-3.03,1.57-3.24,4.17-3.03,4.8.21.63-4.28,54.17-3.34,55.94.94,1.77,3.86,3.55,7.72,3.86,3.86.31,5.64-.63,6.58-2.09.94-1.46,8.77-56.25,7.2-56.78-1.57-.52-5.95,3.97-5.95,3.97Z"/>
          <g>
            <path class="cls-2" d="M34.89,34.81c-1.25,2.86-2.57,5.75-5.5,7.26-1.1.57-2.48.87-3.82.82-.13-.44-.28-.88-.38-1.31-.17-.73-.27-1.51-.4-2.27,1.05.18,2.32-.05,3.06-.34,1.52-.59,3.14-2.11,3.01-3.89-.1-1.48-1.46-2.52-2.78-2.91-3.97-1.17-8.34,1.52-8.87,5.64-.53,4.12,3.22,7.17,7.13,7.01,5.04-.2,9.01-4.7,9.7-9.52.09-.64-.85-1.22-1.16-.49ZM20.95,39.56c-.86-3.49,2.78-6.08,5.92-5.96.7.03,1.66.19,2.2.7.99.93.09,2.28-.75,2.94-.68.53-1.53.86-2.4.87-.29,0-.88.03-1.11-.13-1.11-.79.38-1.96.89-2.25.71-.39.08-1.48-.64-1.09-.98.53-2.28,2.04-1.98,3.32-.11,1.24.26,2.6.54,3.79.06.27.12.56.18.85-1.36-.45-2.47-1.41-2.87-3.02Z"/>
            <path class="cls-2" d="M55.44,13.55c-.36,3.13-2.29,6.36-5.16,7.78-1.99.98-4.51,1.22-6.71.59-.11-.85-.26-1.7-.44-2.54,1.19.35,2.87-.1,3.78-.5,1.64-.71,2.92-2.44,2.24-4.27-.61-1.62-2.48-2.62-4.1-2.87-3.96-.63-9.08,2.05-7.89,6.73,1.12,4.4,6.95,5.99,10.89,5.33,5.1-.85,8.29-4.91,8.52-10.04.05-1.1-1.07-1.3-1.13-.21ZM39.5,15.6c.97-1.63,2.99-2.21,4.79-2.17,1.6.04,4.77.82,3.55,3.12-.55,1.04-2.17,1.64-3.3,1.61-.41,0-1.41-.11-1.54-.63-.17-.71.99-1.43,1.46-1.75.61-.41.05-1.4-.58-.99-1.08.7-2.4,1.85-2.06,3.22-.02.06-.03.13-.02.2.14,1.02.2,2.06.29,3.09-.67-.36-1.3-.79-1.83-1.36-1.11-1.21-1.66-2.84-.77-4.35Z"/>
            <path class="cls-2" d="M78.84,32.78c-2.37,1.84-5.1,3.32-8.16,3.32-1.04,0-2.35-.16-3.59-.55.29-.81.31-1.81.34-2.61,0-.29.04-.61.06-.93.61.47,1.36.77,2.19.92,1.27.23,3.33.4,4.29-.68.99-1.12.62-2.78-.16-3.9-1.01-1.44-2.67-2.24-4.38-2.5-3.46-.53-7.57,1.19-8.09,5.01-.53,3.84,3.39,6.38,6.67,7.09,4.44.96,9.16-.4,11.98-4.03.64-.83-.32-1.79-1.14-1.14ZM63.06,31.99c-.81-3.98,4.74-5.07,7.48-4.11.85.3,1.69.79,2.16,1.58.6,1.01.39,1.87-.83,2.03-1.69.22-3.64-.23-4.52-1.81-.1-.18-.26-.26-.42-.28-.36-.15-.91.02-1.02.4-.27,1-.02,2.12-.04,3.15-.01.67-.14,1.37-.17,2.06-1.3-.65-2.35-1.62-2.63-3.02Z"/>
          </g>
          <path class="cls-2" d="M64.02,40.44c.66.61,1.88,1.29,2.8.97.48-.17.55-.92,0-1.05-.36-.09-.73-.03-1.09-.13s-.71-.26-1.01-.49c-.49-.39-1.18.26-.7.7h0Z"/>
          <path class="cls-2" d="M63.51,43.77c.72.59,1.75,1.12,2.69.79.53-.19.49-.84,0-1.04-.33-.14-.66-.2-1-.3s-.63-.28-.9-.47c-.6-.41-1.36.55-.79,1.02h0Z"/>
          <path class="cls-2" d="M67.73,84.94c.3.1.63.18.95.2.4.02.72-.12.96-.44.11-.14.1-.39,0-.54-.18-.27-.44-.42-.76-.49-.25-.06-.5-.11-.75-.19-.38-.13-.85.15-.93.53-.1.42.13.8.53.93h0Z"/>
          <path class="cls-2" d="M68.4,88.63l.19-.05.12-.05c.06-.03.11-.08.15-.13.07-.09.12-.2.11-.32,0-.09-.03-.18-.07-.26-.06-.11-.19-.21-.31-.24l-.19-.05c-.19-.05-.42,0-.56.15-.1.11-.17.25-.17.41,0,.15.06.3.17.41.15.15.36.2.56.15h0Z"/>
        </g>
        <path class="cls-2" d="M58.21,77.2c-.08,1.84-.13,3.69-.22,5.54-.08,1.65-.24,4.15.1,5.26.14.46.48.77.68.27.37-.98.68-3.44.75-5.02.09-1.93.16-3.85.21-5.78.05-2.04.1-4.07.18-6.11.08-1.95.14-7.36-.3-9.27-.12-.51-.41,2.75-.57,3.17,0,0-.74,9.99-.82,11.94Z"/>
      </g>
      <rect class="cls-1" width="100" height="100"/>
    </g>
  </g>
</svg>