<?xml version="1.0" encoding="UTF-8"?>
<svg id="Capa_2" data-name="Capa 2" xmlns="http://www.w3.org/2000/svg" viewBox="0 0 100 100">
  <defs>
    <style>
      .cls-1 {
        fill: #897777;
      }

      .cls-2 {
        fill: none;
      }

      .cls-3 {
        fill: #4a2d2d;
      }
    </style>
  </defs>
  <g id="food_icons" data-name="food icons">
    <g>
      <g>
        <g>
          <path class="cls-1" d="M30.17,61.82c-.18-.11-3.63-6.44-1.74-10.5,1.89-4.06,5.55-5.48,9.33-4.09,3.77,1.39,5.3,4.95,6.16,7.01.85,2.06-2.95,6.37-7.62,7.69-3.23.91-6.12-.11-6.12-.11Z"/>
          <path class="cls-3" d="M34.86,56.48c.53-.63.95-1.25,3.22-.72,2.27.54,3.56.51,4.72-1.11,1.35-1.89,1.05-4.38,3.56-4.68,2.5-.3,2.86,3.4,1.91,6.74s-4.47,5.96-4.17,11.21c.3,5.25,4.23,15.5,3.82,18.19-.42,2.68-4,3.64-6.5.72s-1.71-14.99-5.09-17.99c-2.86-2.54-7.31-1.75-9.82-4.07s-2.5-5.55-.42-5.49c2.09.06,3.41,1.73,5.72.95,2.18-.73,1.99-2.5,3.05-3.75Z"/>
          <path class="cls-3" d="M30.75,57.49c.15,0,.28-.02.41-.09.13-.04.24-.12.34-.22.1-.1.18-.21.22-.34.07-.13.1-.26.09-.41-.01-.09-.03-.19-.04-.28-.05-.18-.14-.33-.27-.47-.07-.06-.14-.11-.21-.17-.16-.1-.34-.14-.53-.14-.15,0-.28.02-.41.09-.13.04-.24.12-.34.22-.1.1-.18.21-.22.34-.07.13-.1.26-.09.41.01.09.03.19.04.28.05.18.14.33.27.47.07.06.14.11.21.17.16.1.34.14.53.14h0Z"/>
          <path class="cls-3" d="M31.91,52.1s.02-.02.03-.02c.13-.07.23-.18.3-.3.08-.13.11-.27.11-.42,0-.15-.04-.29-.11-.42-.07-.13-.18-.23-.3-.3-.01,0-.02-.02-.03-.02-.14-.08-.28-.12-.44-.12-.16,0-.3.04-.44.12-.26.15-.43.44-.43.75s.17.59.43.75c.14.08.28.12.44.12.16,0,.3-.04.44-.12h0Z"/>
          <path class="cls-3" d="M34.33,54.29c.13,0,.25-.02.37-.08.12-.04.22-.1.31-.2.09-.09.16-.19.2-.31.06-.11.09-.24.08-.37-.01-.08-.02-.17-.03-.25-.05-.16-.13-.3-.24-.42l-.19-.15c-.15-.09-.31-.13-.48-.13-.13,0-.25.02-.37.08-.12.04-.22.1-.31.2-.09.09-.16.19-.2.31-.06.11-.09.24-.08.37.01.08.02.17.03.25.05.16.13.3.24.42l.19.15c.15.09.31.13.48.13h0Z"/>
        </g>
        <g>
          <path class="cls-1" d="M38.37,35.2c-.2.04-7.03-2.28-8.39-6.55-1.36-4.26.38-7.79,4.09-9.33,3.72-1.53,7.25.05,9.28.99,2.03.94,2.14,6.69-.4,10.82-1.76,2.85-4.58,4.07-4.58,4.07Z"/>
          <path class="cls-3" d="M38.2,28.11c-.03-.82-.15-1.57,1.89-2.71,2.03-1.14,2.97-2.03,2.73-4.01-.28-2.3-2.19-3.94-.55-5.85s4.41.56,5.97,3.67.74,7.42,4.52,11.08c3.77,3.66,13.61,8.55,15.12,10.8,1.51,2.26-.48,5.38-4.3,4.93-3.82-.46-11.41-9.87-15.92-9.8-3.83.06-6.57,3.66-9.99,3.65-3.42-.02-5.6-2.39-4.02-3.76,1.58-1.37,3.68-1.04,4.86-3.17,1.11-2.01-.23-3.18-.29-4.83Z"/>
          <path class="cls-3" d="M35.86,31.63c.11-.09.19-.21.24-.34.07-.12.1-.25.1-.39.01-.14-.01-.27-.07-.4-.04-.14-.11-.26-.21-.36-.07-.06-.15-.12-.22-.18-.16-.1-.33-.15-.52-.16-.09,0-.18.02-.27.02-.19.04-.35.13-.49.25-.11.09-.19.21-.24.34-.07.12-.1.25-.1.39-.01.14.01.27.07.4.04.14.11.26.21.36.07.06.15.12.22.18.16.1.33.15.52.16.09,0,.18-.02.27-.02.19-.04.35-.13.49-.25h0Z"/>
          <path class="cls-3" d="M33.06,26.88s0-.03,0-.04c.04-.14.05-.28.02-.43-.03-.15-.1-.28-.2-.39-.1-.11-.23-.19-.37-.23-.14-.04-.28-.05-.43-.02-.01,0-.03,0-.04,0-.15.03-.29.1-.4.21-.11.11-.2.23-.24.38-.09.29-.02.62.19.84.21.23.52.33.82.26.15-.03.29-.1.4-.21.11-.11.2-.23.24-.38h0Z"/>
          <path class="cls-3" d="M36.33,26.85c.1-.09.17-.19.21-.31.06-.11.09-.23.09-.35.01-.13-.01-.25-.06-.36-.03-.12-.1-.23-.19-.33-.07-.05-.13-.11-.2-.16-.14-.09-.3-.14-.46-.14-.08,0-.16.01-.24.02-.17.04-.31.11-.44.23-.1.09-.17.19-.21.31-.06.11-.09.23-.09.35,0,.13.01.25.06.36.03.12.1.23.19.33.07.05.13.11.2.16.14.09.3.14.46.14.08,0,.16-.01.24-.02.17-.04.31-.11.44-.23h0Z"/>
        </g>
        <g>
          <path class="cls-1" d="M64.13,55.33c-.03-.2,2.55-6.94,6.87-8.13,4.31-1.19,7.77.68,9.16,4.45,1.39,3.77-.33,7.25-1.35,9.24s-6.77,1.88-10.79-.82c-2.78-1.87-3.89-4.73-3.89-4.73Z"/>
          <path class="cls-3" d="M71.23,55.44c.82,0,1.57-.09,2.63,1.99,1.06,2.07,1.92,3.04,3.9,2.88,2.31-.19,4.02-2.04,5.87-.33,1.85,1.71-.73,4.38-3.89,5.82s-7.44.46-11.24,4.09c-3.8,3.63-9.06,13.27-11.38,14.69-2.31,1.42-5.36-.69-4.76-4.49.6-3.8,10.3-11.02,10.4-15.53.08-3.83-3.41-6.7-3.26-10.12s2.6-5.5,3.91-3.87.9,3.72,2.98,4.98c1.97,1.19,3.19-.11,4.83-.11Z"/>
          <path class="cls-3" d="M67.8,52.97c.09.11.2.2.33.25.12.07.25.11.39.12.14.02.27,0,.4-.05.14-.03.26-.1.37-.19.06-.07.13-.14.19-.21.1-.15.16-.32.18-.51,0-.09,0-.18-.01-.27-.03-.19-.11-.35-.24-.5-.09-.11-.2-.2-.33-.25-.12-.07-.25-.11-.39-.12-.14-.02-.27,0-.4.05-.14.03-.26.1-.37.19-.06.07-.13.14-.19.21-.1.15-.16.32-.18.51,0,.09,0,.18.01.27.03.19.11.35.24.5h0Z"/>
          <path class="cls-3" d="M72.66,50.35s.03,0,.04.01c.14.05.28.06.42.03.15-.03.28-.09.4-.19.12-.1.2-.22.25-.36.05-.14.06-.28.03-.42,0-.01,0-.03,0-.04-.03-.15-.09-.29-.19-.41-.1-.12-.23-.2-.37-.26-.29-.1-.62-.04-.85.16s-.35.51-.29.81c.03.15.09.29.19.41.1.12.23.2.37.26h0Z"/>
          <path class="cls-3" d="M72.56,53.62c.08.1.18.18.3.23.11.07.22.1.35.11.13.01.25,0,.36-.05.12-.03.24-.09.33-.18.06-.06.11-.13.17-.19.09-.14.15-.29.16-.46,0-.08,0-.16-.01-.24-.03-.17-.1-.32-.21-.45-.08-.1-.18-.18-.3-.23-.11-.06-.22-.1-.35-.11-.13-.01-.25,0-.36.05-.12.03-.24.09-.33.18l-.17.19c-.09.14-.15.29-.16.46,0,.08,0,.16.01.24.03.17.1.32.21.45h0Z"/>
        </g>
      </g>
      <rect class="cls-2" width="100" height="100"/>
    </g>
  </g>
</svg>