<?xml version="1.0" encoding="UTF-8"?>
<svg id="Capa_2" data-name="Capa 2" xmlns="http://www.w3.org/2000/svg" viewBox="0 0 100 100">
  <defs>
    <style>
      .cls-1 {
        fill: none;
      }

      .cls-2 {
        fill: #4a2d2d;
      }

      .cls-3 {
        fill: #dcaf6e;
      }
    </style>
  </defs>
  <g id="COLOR">
    <g>
      <g>
        <g>
          <path class="cls-2" d="M56.72,59.27c.09.01.18.03.26.03.11,0,.21-.03.31-.06.17-.05.34-.11.5-.19.24-.11.48-.23.72-.34.12-.06.24-.1.35-.17s.21-.14.32-.22.22-.14.32-.22c.2-.14.35-.29.51-.46.41-.45.47-1.11.1-1.6-.16-.2-.38-.38-.63-.44-.31-.07-.66-.06-.94.12-.18.12-.38.23-.54.38-.09.09-.18.19-.27.29-.24.26-.46.51-.66.8l-.42.61c-.18.26-.35.59-.35.91,0,.22.18.51.42.55h0Z"/>
          <path class="cls-3" d="M62.47,65.55c-3.72-9.27-12.99-14.02-24.02-8.25-11.03,5.77-9.38,18.94-.63,26.23s15.66,3.65,18.73,1.63c4.96-3.27,9.63-10.33,5.91-19.61Z"/>
          <path class="cls-2" d="M56.18,57.73c-2.55-.84-5.93-.13-8.37.85-2.73,1.1-5.2,2.98-7.06,5.26-1.97,2.42-3.34,5.27-4.19,8.27-.44,1.57-.76,3.19-1,4.81-.2,1.41-.58,3.17.12,4.48.2.37.8.38,1,0,.59-1.15.41-2.63.48-3.89.08-1.51.29-3,.66-4.47.72-2.85,1.92-5.6,3.7-7.94,1.69-2.22,3.93-4.01,6.46-5.18,1.22-.56,2.43-1.02,3.76-1.23,1.44-.22,2.85-.07,4.29-.06.53,0,.61-.74.12-.9h0Z"/>
          <path class="cls-2" d="M39.53,83.16c3.15-.78,6.28-1.72,9.12-3.32,2.31-1.3,4.28-3.23,5.85-5.34,1.63-2.19,2.78-4.69,3.4-7.35.29-1.25.45-2.55.49-3.83.03-1.09.2-2.62-.82-3.32-.15-.1-.38-.06-.5.06-.72.76-.47,1.96-.51,2.92-.05,1.23-.23,2.45-.52,3.65-.57,2.42-1.6,4.76-2.97,6.84s-3.18,3.84-5.25,5.27c-2.55,1.76-5.58,2.69-8.51,3.61-.51.16-.3.93.22.8h0Z"/>
        </g>
        <g>
          <path class="cls-2" d="M24.76,20.6c-.08-.38-.19-.74-.36-1.09-.14-.29-.29-.57-.42-.87l.14.33c-.17-.41-.35-.82-.52-1.23l.15.36c-.1-.24-.19-.47-.27-.72-.08-.23-.17-.44-.29-.65-.23-.4-.53-.65-.97-.8-.3-.1-.65-.05-.92.07-.3.12-.5.31-.68.58-.29.42-.24,1-.12,1.48.07.27.23.55.35.8.19.4.41.76.68,1.11.26.33.52.65.81.95.36.38.81.61,1.3.78.3.1.67-.02.89-.24.24-.24.3-.57.24-.89h0Z"/>
          <path class="cls-3" d="M30.92,18.44c-9.96.83-17.22,8.3-14.94,20.54,2.28,12.24,15.35,14.52,24.89,8.3,9.54-6.22,8.09-13.9,7.05-17.42-1.68-5.7-7.05-12.24-17.01-11.41Z"/>
          <path class="cls-2" d="M22.21,21.17c-3.24,5.02-3.38,12.5-.13,17.55,1.63,2.54,4.18,4.5,6.63,6.22,1.69,1.18,5.66,3.91,7.67,2.16.16-.14.17-.46,0-.6-.87-.71-2.09-.65-3.14-.97-1.28-.39-2.48-1.05-3.59-1.79-2.37-1.57-4.9-3.49-6.45-5.92-1.46-2.29-2.13-5.02-2.11-7.73.03-3.03,1.04-5.72,1.91-8.58.15-.49-.54-.74-.8-.34h0Z"/>
          <path class="cls-2" d="M25.33,20.98c1.17.75,2.65,1.07,3.89,1.74s2.5,1.43,3.71,2.2c2.37,1.49,4.43,3.21,5.83,5.67,1.21,2.13,1.86,4.56,2.16,6.98.15,1.24.22,2.48.22,3.73,0,.99-.28,2.3.62,2.95.16.11.4.09.56,0,1.02-.59.75-2.31.73-3.31-.03-1.39-.15-2.78-.36-4.15-.4-2.64-1.22-5.27-2.64-7.55-1.56-2.48-3.83-4.2-6.33-5.65-1.42-.82-2.86-1.65-4.35-2.34-1.21-.56-2.58-1.24-3.93-1.05-.39.05-.38.6-.1.78h0Z"/>
        </g>
        <g>
          <path class="cls-2" d="M77.21,25.41c.63-.11.96-.76,1.32-1.23l-.2.26c.29-.37.57-.76.86-1.13l-.21.27c.28-.37.59-.72.91-1.05.23-.23.45-.44.63-.72.21-.34.27-.75.15-1.14-.13-.44-.43-.72-.86-.86l.29.12c-.34-.17-.68-.23-1.07-.15-.25.06-.56.27-.75.45-.15.14-.28.3-.41.45-.33.38-.65.79-.94,1.2-.24.33-.44.67-.61,1.05-.12.26-.23.53-.33.79-.15.4-.11.86.08,1.22.22.42.7.53,1.12.46h0Z"/>
          <path class="cls-3" d="M86.09,35.45c-.78-4.74-4.15-11.62-14.11-13.07-11.81-1.72-19.71,9.33-17.63,19.29,2.07,9.96,15.77,14.52,24.48,9.75,8.71-4.77,7.97-11.64,7.26-15.97Z"/>
          <path class="cls-2" d="M74.9,23.4c-5.08-.02-9.82,4.51-12.16,8.67-1.45,2.56-2.3,5.38-2.68,8.29-.2,1.51-.28,3.03-.23,4.55.04,1.34-.06,3.15.75,4.28.17.24.55.22.64-.08.35-1.19-.07-2.54-.15-3.76-.08-1.37-.07-2.75.06-4.12.26-2.85,1.08-5.7,2.47-8.22,1.14-2.07,2.83-3.98,4.69-5.45,2.03-1.6,4.37-2.34,6.75-3.23.48-.18.43-.92-.13-.92h0Z"/>
          <path class="cls-2" d="M66.1,50.44c4.88.05,8.94-3.92,11.09-7.99,1.33-2.51,2.06-5.27,2.39-8.08.18-1.55.24-3.12.21-4.68-.02-1.13.24-3.02-.74-3.8-.22-.18-.56-.24-.77,0-.77.84-.42,2.1-.38,3.15.05,1.35.03,2.71-.07,4.06-.2,2.72-.77,5.51-1.91,7.99-1.97,4.27-5.53,7.16-9.88,8.79-.29.11-.26.56.08.56h0Z"/>
        </g>
      </g>
      <rect class="cls-1" width="100" height="100"/>
    </g>
  </g>
</svg>