<?xml version="1.0" encoding="UTF-8"?>
<svg id="Capa_2" data-name="Capa 2" xmlns="http://www.w3.org/2000/svg" viewBox="0 0 82.15 80.67">
  <defs>
    <style>
      .cls-1 {
        fill: #4a2d2d;
      }

      .cls-2 {
        fill: #abc153;
      }
    </style>
  </defs>
  <g id="COLOR">
    <g>
      <path class="cls-2" d="M21.71,36.93s-1.63-9.19-6.13-12.87c-4.49-3.68-8.51-3.06-9.74-.48-1.23,2.59-.61,3.47-2.72,5.18-2.11,1.7-4.63,3.95-1.97,7.08,2.66,3.13,7.97,2.04,12.19,1.29,4.22-.75,8.17,1.16,8.51,1.7.34.54-.14-1.91-.14-1.91Z"/>
      <path class="cls-2" d="M34.38,19.11c-.07-.2-3-1.48-8.85-.52-5.86.95-11.78,2.72-13.21-1.43-1.43-4.15,1.97-6.06,4.09-7.15,2.11-1.09,2.66-1.97,3.34-4.43.68-2.45,3-5.11,7.29-1.77,4.29,3.34,6.81,12.58,6.95,13.67.07.58.41,1.63.41,1.63Z"/>
      <path class="cls-2" d="M41.71,21.12s-2.32-7.12-.86-13.62c1.46-6.49,5.73-8.6,8.2-6.98,2.46,1.62,1.46,3.46,3.58,4.02,2.13.56,5.4-.74,6.69,2.54,1.3,3.27-.73,6.33-5.39,9.11-4.67,2.77-11.18,4.47-12.02,6.01-.84,1.54-.2-1.07-.2-1.07Z"/>
      <path class="cls-2" d="M58.01,29.62s.2-9.06,4.63-15.39c4.43-6.33,8.65-4.09,9.6-2.38.95,1.7-.2,3.75,1.97,4.84,2.18,1.09,6.33,1.97,6.95,5.04.61,3.06-1.36,5.24-6.74,6.13-5.38.89-7.49.14-11.71.75-3.91.57-5.45,2.72-5.45,2.72l.75-1.7Z"/>
      <path class="cls-2" d="M56.57,37.04s5.36-3.88,13.91-4.54c8.56-.66,11.41,3.6,11.66,6.52.25,2.92-3.25,3.75-3.34,5.66-.09,1.92,2.33,4.63-.21,7.72-2.54,3.09-8.17,1.39-10.7-.98s-4.42-8.74-6.25-10.74c-1.83-2-3.18-2.88-4.52-2.52s-2.11,1.22-2.11,1.22l1.56-2.35Z"/>
      <path class="cls-1" d="M49.11,8.01c-4.15,2.68-6.51,8.1-7.78,12.68-.9,3.26-1.4,6.62-1.7,10.01-.44-2.66-1.1-5.24-2.07-7.63-2.49-6.1-7.05-9.49-13.12-11.63-.63-.22-1.08.82-.46,1.09,2.81,1.26,5.72,2.53,7.95,4.71,2.13,2.09,3.63,4.74,4.68,7.51,1.86,4.88,2.19,10.13,2.61,15.32-.09,6.42.16,12.85.39,19.27.12,3.44.22,6.89.21,10.33,0,3.43-.31,6.89-.19,10.31.03.75,1.21.98,1.36.18,1.15-5.96.7-12.41.53-18.44-.18-6.36-.57-12.72-.71-19.08-.14-6.34-.22-12.84,1.08-19.08.58-2.76,1.49-5.43,2.78-7.94,1.34-2.61,3.21-4.59,5.06-6.81.35-.42-.1-1.14-.62-.8Z"/>
      <path class="cls-1" d="M73.59,40.13c-2.49-3.83-7.3-5.86-11.8-5.28-2.2.28-4.72,1.36-6.64,2.99,2.72-7.84,8.16-14.78,14.85-19.57.73-.52.06-1.72-.71-1.22-8.26,5.42-15.19,15.15-17.12,24.89-1.19,6-1.51,12.27-1.81,18.37-.33,6.44-.36,12.89-.15,19.34.04,1.2,1.9,1.21,1.87,0-.34-11.81-.25-24.04,1.55-35.74.11-.71.25-1.41.4-2.11.69-1.09,1.35-2.16,2.39-3.05,1.47-1.27,3.28-2.11,5.19-2.45,4.36-.78,8.34,1.27,11.17,4.46.39.44,1.15-.14.83-.64Z"/>
      <path class="cls-2" d="M29.54,37.73s1.7-6.13,6.54-9.47c4.2-2.9,8.72-3.75,11.65-1.97,2.93,1.77,2.93,3.61,1.57,5.58-1.36,1.97-2.93,2.45-2.32,3.81.61,1.36,3.2,4.63,1.36,7.22s-5.45,2.25-8.1.68c-2.66-1.57-4.15-4.02-7.35-5.11-2.35-.8-3.95.14-3.95.14l.61-.89Z"/>
      <path class="cls-1" d="M39.55,32.5c-3.88-.41-7.5,2.11-10.19,4.65-1.51,1.43-3.35,3.66-4.19,5.99-2.8-6.16-7.39-11.86-13.89-13.92-.54-.17-.9.66-.39.92,18.04,9.42,16.69,32.1,17.97,49.57.07.98,1.6,1,1.54,0-.3-5.58-.63-11.16-1.03-16.73-.37-5.11-.92-10.28-2.43-15.2-.21-.69-.46-1.39-.72-2.08.34-1.23.57-2.45,1.2-3.64.82-1.56,1.93-2.9,3.22-4.09,2.66-2.44,5.51-3.8,9.04-4.42.64-.11.41-1-.14-1.06Z"/>
    </g>
  </g>
</svg>