<?xml version="1.0" encoding="UTF-8"?>
<svg id="Capa_2" data-name="Capa 2" xmlns="http://www.w3.org/2000/svg" viewBox="0 0 100 100">
  <defs>
    <style>
      .cls-1 {
        fill: none;
      }

      .cls-2 {
        fill: #fea14a;
      }

      .cls-3 {
        fill: #4a2d2d;
      }

      .cls-4 {
        fill: #bb735e;
      }
    </style>
  </defs>
  <g id="COLOR">
    <g>
      <g>
        <path class="cls-2" d="M65.14,74.67s-7.52-1.56-10.72.45c-3.2,2.01-5.59,7.67-4.17,11.91s5.96,5.81,10.57,4.39c4.62-1.41,6.93-5.96,7.37-9.01.45-3.05-3.05-7.74-3.05-7.74Z"/>
        <path class="cls-4" d="M21.65,88.53c-2.01,0-3.76-.71-5.05-2.04l-.03-.03-.03-.02c-.84-.6-1.48-1.42-1.89-2.43-1.47-3.58-.29-8.03,1.03-12.28,1.45-4.65,3.39-8.6,5.76-11.74l.24-.32-.32-.24c-3.11-2.36-5.32-5.48-6.39-9.01-1.16-3.83-1.04-8.18.38-13.69.11-.44.23-.91.34-1.39.73-3.01,1.63-6.77,3.87-8.68.77-.66,1.65-1.01,2.55-1.01,1.46,0,2.71.94,3.26,2.45.46,1.27.48,2.7.49,4.08,0,.32,0,.63.02.94.06,2.14.1,4.28.15,6.42,0,.27,0,.55,0,.84,0,1.71,0,3.64.97,5.09.54.81,1.24,1.22,2.09,1.22,1.71,0,3.45-1.74,4.11-2.49,3.59-4.03,5.94-8.92,8.22-13.65,1.52-3.16,3.1-6.43,5.02-9.39,2.05-3.16,6.34-8.79,11.94-10.94,1.3-.65,2.93-1,4.64-1,1.17,0,2.33.16,3.33.47,3.61,1.1,5.34,4.16,4.74,8.39-.54,3.82-2.23,8.21-4.87,12.69-2.04,3.45-4.01,6.03-6.02,7.9l-.88.82,1.19-.13c2.28-.24,4.29-.36,6.16-.36,3.22,0,6.07.35,8.73,1.06,2.37.63,5.01,1.86,5.98,4.29.38.94.4,2.03-.08,2.95-.71,1.37-2.5,2.47-5.33,3.29-2.22.85-4.7,1.23-6.89,1.58l-.26.04c-2.67.42-6.19,1.01-9.69,1.87-3.6,1.2-6.55,2.84-9.04,5.02-4.97,4.34-8.73,9.99-12.05,14.98-.26.39-.52.78-.78,1.18-2.96,4.49-6.32,9.57-11.03,12.07-1.48.78-3.06,1.2-4.59,1.2Z"/>
        <path class="cls-4" d="M90.71,67.11c-.63-2.42-2.69-4.12-4.92-5.04-5.62-2.32-11.86-.49-17.01,2.15-5,2.56-9.66,6.02-14.05,9.6-3.96,3.23-7.8,7.95-5.8,13.39.74,2.02,2.21,3.72,4.1,4.76,2.1,1.16,4.13,1.08,6.44,1.03,3-.06,6.13-1.34,8.82-2.57,2.79-1.28,5.44-2.85,8.04-4.49,4.7-2.97,9.5-6.51,12.5-11.29,1.37-2.18,2.58-4.94,1.9-7.56ZM49.93,85.27c-.6-3.85,1.3-7.04,4.2-9.06,1.7-1.18,3.52-1.88,5.75-1.78,2.5.11,4.85,1.56,5.77,3.93,1.72,4.39-1.11,10.76-5.41,12.62-4.46,1.93-9.58-.91-10.32-5.71Z"/>
        <path class="cls-3" d="M55.17,14.34c1.72,5.34,7.04,11.19,13.06,11.33.52.01.53-.67.11-.84-2.68-1.12-5.21-1.91-7.46-3.86-2.15-1.86-3.82-4.22-4.88-6.86-.2-.5-1.01-.31-.83.23h0Z"/>
        <path class="cls-3" d="M50.6,23.78c2.53,4.15,7.67,8.65,12.9,8.3.51-.03.61-.72.12-.89-2.33-.82-4.61-1.22-6.79-2.49-2.27-1.31-4.2-3.09-5.7-5.24-.22-.32-.73-.03-.53.31h0Z"/>
        <path class="cls-3" d="M45.76,33.91c3.29,3.98,9.38,7.62,14.76,6.29.36-.09.4-.71,0-.77-2.48-.4-4.89-.46-7.26-1.4-2.61-1.04-4.97-2.69-6.83-4.78-.41-.46-1.05.21-.67.67h0Z"/>
        <path class="cls-3" d="M61.61,39.99c-2.81,1.9-3.71,6.94-3.21,10.06.07.43.7.29.72-.1.17-2.73.52-7.37,2.96-9.18.46-.34.03-1.12-.46-.79h0Z"/>
        <path class="cls-3" d="M67.14,40.44c-2.09,3.1-3.52,7.7-1.01,11.01.26.35.99.17.79-.33-1.47-3.68-1.08-6.84,1.08-10.18.35-.54-.5-1.03-.86-.5h0Z"/>
        <path class="cls-3" d="M74.35,49.6c-1.49-2.18-1.52-4.31-1-6.81.1-.49-.49-.7-.77-.33-1.74,2.33-.96,5.8.99,7.73.39.39,1.11-.12.78-.6h0Z"/>
        <path class="cls-3" d="M37.14,41.06c2,6.23,7.61,10.83,14.22,11.14.34.02.43-.55.08-.6-6.07-.82-11.4-4.91-13.34-10.8-.2-.61-1.16-.35-.96.26h0Z"/>
        <path class="cls-3" d="M31.24,54.19c1.35,2.31,3.57,3.72,5.89,4.92,2.47,1.28,5.4,2.75,8.2,1.67.36-.14.34-.72-.1-.71-2.91.06-5.22-.77-7.78-2.09-2.1-1.08-4.15-2.19-5.44-4.25-.3-.49-1.06-.05-.77.45h0Z"/>
        <path class="cls-3" d="M26.7,66.01c3.09,3.09,7.81,5.73,12.32,5.15.37-.05.53-.61.1-.71-4.44-.99-8.27-1.94-11.73-5.13-.46-.42-1.14.24-.69.69h0Z"/>
        <path class="cls-3" d="M16.86,70.79c2.04,2.27,4.38,4.25,6.99,5.85,2.31,1.42,5.2,3.01,7.95,3.18.37.02.5-.52.19-.69-2.42-1.34-5.14-2.06-7.56-3.48-2.56-1.51-4.86-3.36-6.93-5.49-.41-.42-1.03.21-.64.64h0Z"/>
        <path class="cls-3" d="M16.03,37.29c2.86,1.29,6.71,1.47,9.25-.64.3-.25-.02-.82-.39-.67-2.86,1.12-5.39,1.76-8.35.45-.58-.26-1.09.6-.5.86h0Z"/>
        <path class="cls-3" d="M14.96,48.11c2.99,1.81,7.22,2.03,10.09-.14.31-.24.15-.89-.3-.71-3.18,1.29-6.12,1.58-9.28-.04-.59-.3-1.09.54-.52.89h0Z"/>
        <path class="cls-3" d="M43.72,41.14c.99,0,.99-1.53,0-1.53s-.99,1.53,0,1.53h0Z"/>
        <path class="cls-3" d="M45.06,45.1c.61,0,.61-.95,0-.95s-.61.95,0,.95h0Z"/>
        <path class="cls-3" d="M33.78,64.26c1.16,0,1.16-1.81,0-1.81s-1.16,1.81,0,1.81h0Z"/>
        <path class="cls-3" d="M31.3,74.02c.09,0,.17-.01.24-.05.08-.03.15-.07.2-.13.06-.06.1-.12.13-.2.04-.08.06-.16.05-.24l-.02-.17c-.03-.11-.08-.2-.16-.28l-.13-.1c-.1-.06-.2-.09-.32-.09-.09,0-.17.01-.24.05-.08.03-.15.07-.2.13-.06.06-.1.12-.13.2-.04.08-.06.16-.05.24l.02.17c.03.11.08.2.16.28l.13.1c.1.06.2.09.32.09h0Z"/>
        <path class="cls-3" d="M38.22,66.43c.41,0,.41-.64,0-.64s-.41.64,0,.64h0Z"/>
        <path class="cls-3" d="M21.98,82.8c.11,0,.21-.02.31-.07.1-.03.19-.09.26-.17.08-.07.13-.16.17-.26.05-.1.07-.2.07-.31l-.03-.21c-.04-.14-.11-.25-.21-.35l-.16-.13c-.13-.07-.26-.11-.4-.11-.11,0-.21.02-.31.07-.1.03-.19.09-.26.17-.08.07-.13.16-.17.26-.05.1-.07.2-.07.31l.03.21c.04.14.11.25.21.35l.16.13c.13.07.26.11.4.11h0Z"/>
        <path class="cls-3" d="M17.98,41.8c.1,0,.19-.02.28-.06.09-.03.17-.08.23-.15.07-.06.12-.14.15-.23.04-.09.07-.18.06-.28l-.03-.19c-.03-.12-.1-.23-.18-.32l-.14-.11c-.11-.06-.23-.1-.36-.1-.1,0-.19.02-.28.06-.09.03-.17.08-.23.15-.07.06-.12.14-.15.23-.04.09-.07.18-.06.28l.03.19c.03.12.1.23.18.32l.14.11c.11.06.23.1.36.1h0Z"/>
        <path class="cls-3" d="M17.98,45.18c.6,0,.6-.92,0-.92s-.6.92,0,.92h0Z"/>
        <path class="cls-3" d="M67.94,66.62c3.38.84,5.66,4.62,6.56,7.76.94,3.26.55,6.38-.5,9.54-.17.51.61.83.86.36,1.86-3.41,1.81-7.74.47-11.32-1.18-3.16-3.68-6.74-7.28-7.17-.48-.06-.57.72-.11.83h0Z"/>
        <path class="cls-3" d="M78.47,64.46c3.55,2.57,4.88,6.75,4.01,10.98-.11.51.61.71.78.22,1.59-4.62-.31-9.35-4.32-12.01-.51-.34-.95.46-.47.81h0Z"/>
        <path class="cls-3" d="M68.87,76.28s.02.04.03.06l-.08-.19c.08.22.2.47.43.57l-.27-.27c.13.18.26.31.48.37l-.45-.45c.02.06.01.04,0-.07,0,.02,0,.04,0,.06.02-.11.02-.11,0-.01,0,.03-.01.06,0,.1,0,.09.02.18.07.26-.05-.11-.05-.12-.02-.04.04.1.1.17.19.22.29.16.64.01.83-.23l-.28.16c.21-.03.39-.19.49-.37l-.12.15c.2-.16.28-.48.25-.71-.02-.15-.07-.29-.14-.43-.2-.38-.75-.52-1.11-.29-.38.25-.51.71-.29,1.11h0Z"/>
        <path class="cls-3" d="M70,81.59h.09s.06,0,.09,0h.11s.06-.04.09-.05c.07-.04.13-.11.16-.19.02-.03.03-.06.03-.1,0-.04,0-.07,0-.11-.01-.09-.05-.16-.11-.23-.02-.02-.04-.04-.05-.06l.07.09-.05-.09c-.09-.15-.25-.24-.42-.24s-.33.09-.42.24-.09.34,0,.49c.04.07.1.13.18.18.08.04.16.07.25.07h0Z"/>
        <path class="cls-3" d="M85.53,69.82c.09,0,.18-.02.26-.06.08-.03.16-.07.22-.14.07-.06.11-.14.14-.22.04-.08.06-.17.06-.26l-.02-.18c-.03-.12-.09-.22-.18-.3l-.14-.11c-.11-.06-.22-.09-.35-.09-.09,0-.18.02-.26.06-.08.03-.16.07-.22.14-.07.06-.11.14-.14.22-.04.08-.06.17-.06.26l.02.18c.03.12.09.22.18.3l.14.11c.11.06.22.09.35.09h0Z"/>
        <path class="cls-3" d="M64.49,18.35c.11,0,.22-.01.33-.04.12-.03.23-.1.32-.19.07-.07.12-.14.15-.23.05-.09.07-.18.06-.28,0-.13-.03-.25-.1-.37-.06-.09-.12-.17-.2-.24-.1-.1-.21-.17-.35-.2-.14-.04-.28-.04-.42,0-.13.04-.25.1-.35.2-.08.07-.13.16-.16.25-.05.09-.07.19-.07.3,0,.14.04.27.11.4.14.24.4.39.68.39h0Z"/>
        <path class="cls-3" d="M62.63,14.69c.88,0,.88-1.37,0-1.37s-.88,1.37,0,1.37h0Z"/>
      </g>
      <rect class="cls-1" width="100" height="100"/>
    </g>
  </g>
</svg>