<?xml version="1.0" encoding="UTF-8"?>
<svg id="Capa_2" data-name="Capa 2" xmlns="http://www.w3.org/2000/svg" viewBox="0 0 100 100">
  <defs>
    <style>
      .cls-1 {
        fill: none;
      }

      .cls-2 {
        fill: #79983f;
      }

      .cls-3 {
        fill: #4a2d2d;
      }
    </style>
  </defs>
  <g id="COLOR">
    <g>
      <g>
        <g>
          <path class="cls-2" d="M62.82,4.01c1.3,2.9,2.58,5.81,3.52,8.85.94,3.07,1.19,6.11,1.59,9.27.04.33.57.49.65.09,1.18-6.28-2.02-13.32-4.87-18.73-.31-.59-1.15-.07-.88.52h0Z"/>
          <path class="cls-2" d="M70.89,18.29c3.01-2.14,5.7-4.82,7.48-8.08.23-.42-.36-.75-.63-.37-2.06,2.96-4.34,5.6-7.27,7.73-.43.31-.02,1.03.42.72h0Z"/>
          <path class="cls-2" d="M46.76,17.41c2.83,2.15,5.37,4.35,7.23,7.4.33.54,1.12.18.99-.42-.74-3.57-4.94-5.99-7.69-7.91-.57-.4-1.07.52-.54.92h0Z"/>
          <path class="cls-2" d="M54.71,24.77c1.03-2.81,2.28-5.92,2.38-8.94.02-.5-.64-.51-.81-.11-1.15,2.78-1.6,5.92-2.5,8.8-.19.6.72.83.93.26h0Z"/>
          <path class="cls-2" d="M43.63,24.29c1.36,2.73,2.06,5.69,3.08,8.54.15.42.87.39.83-.11-.29-3.21-1.65-6.07-3.09-8.9-.27-.54-1.08-.06-.81.47h0Z"/>
          <path class="cls-2" d="M38.08,34.94c2.96-.81,6.03-.49,8.97-1.16.4-.09.36-.66,0-.77-2.79-.85-6.55.07-9.22.99-.58.2-.35,1.1.26.93h0Z"/>
          <path class="cls-2" d="M28.71,32.62c-1.05,2.58-1.97,5.6-1.71,8.42.04.44.7.6.82.11.69-2.75.98-5.54,1.8-8.28.18-.6-.69-.8-.91-.25h0Z"/>
          <path class="cls-2" d="M19.84,36.04c1.74,2.52,4.25,5.78,7.23,6.85.47.17.77-.47.46-.8-1.03-1.1-2.4-1.89-3.53-2.92-1.21-1.11-2.31-2.33-3.29-3.65-.38-.52-1.26-.03-.88.52h0Z"/>
          <path class="cls-2" d="M15.03,37.54c2.21,1.98,2.71,4.73,4.06,7.23.26.48.91.13.83-.35-.44-2.74-2.17-5.7-4.19-7.58-.47-.44-1.18.28-.7.7h0Z"/>
          <path class="cls-2" d="M18.76,44.58c-2.51.2-5.38,1.05-7.37,2.65-.51.41.14,1.1.66.85,2.17-1.03,4.47-2.04,6.84-2.54.54-.11.43-1.01-.13-.97h0Z"/>
          <path class="cls-2" d="M30.84,51.38c-3.95-.48-8.66.05-12.18,2.02-.46.26-.15.98.36.85,3.9-1.02,7.75-1.98,11.82-1.88.65.02.61-.91,0-.98h0Z"/>
          <path class="cls-2" d="M40.08,50.94c-1.1-3.04-1.4-6.15-1.85-9.32-.06-.4-.66-.34-.75,0-.85,3.12.44,6.86,1.7,9.69.22.5,1.08.14.89-.38h0Z"/>
          <path class="cls-2" d="M40.21,52.33c1.37-.73,2.8-1.34,4.29-1.81,1.21-.38,2.5-.55,3.62-1.15.32-.17.29-.77-.11-.83-2.8-.44-6.06,1.43-8.32,2.9-.56.36-.07,1.21.52.9h0Z"/>
          <path class="cls-2" d="M77.82,33.62c3.42-1.46,7.04-2.46,10.41-4.04.5-.24.14-1.02-.37-.88-3.61.96-6.95,2.67-10.4,4.07-.62.25-.27,1.12.36.86h0Z"/>
          <path class="cls-2" d="M83.54,42.91c2.39-1.35,4.99-1.72,7.46-2.79.35-.15.14-.64-.18-.66-2.71-.15-5.46,1.36-7.77,2.63-.54.3-.05,1.13.48.82h0Z"/>
          <path class="cls-2" d="M81.58,43.27c1.42,2,2.09,4.24,3.01,6.48.17.42.8.39.82-.11.09-2.64-1.33-5.05-2.99-7.01-.38-.45-1.18.15-.83.64h0Z"/>
          <path class="cls-2" d="M64.78,60.64c.25-3.24.87-6.95-.49-10.03-.18-.4-.8-.18-.79.21.07,3.27.72,6.54.32,9.81-.07.61.92.62.96,0h0Z"/>
          <path class="cls-2" d="M67.48,58.96c1.51-.74,3.09-1.33,4.7-1.82,1.45-.44,3-.62,4.41-1.18.47-.19.38-.79-.12-.85-3.11-.4-6.84,1.54-9.44,3.08-.5.29-.06,1.02.45.77h0Z"/>
          <path class="cls-2" d="M76.89,64.99c2.47-2.17,5.35-3.49,8.26-4.93.5-.25.13-.93-.36-.85-3.29.59-6.12,2.98-8.56,5.12-.45.39.21,1.05.66.66h0Z"/>
          <path class="cls-2" d="M75.6,65.27c1.95,2.26,3.85,4.56,5.8,6.82.34.4,1.02-.12.73-.56-1.67-2.55-3.75-4.74-5.86-6.93-.43-.44-1.06.21-.67.67h0Z"/>
          <path class="cls-2" d="M61.62,76.59c1.77-.23,3.57-.28,5.36-.22,1.77.06,3.59.45,5.35.35.42-.02.67-.64.23-.85-3.16-1.54-7.75-.93-11.07-.21-.52.11-.41,1.01.13.94h0Z"/>
          <path class="cls-2" d="M62.68,78.48c-.74,3.05-1.09,6.13-.54,9.24.09.49.75.31.8-.11.35-2.99.43-6,.73-9,.06-.57-.85-.67-.98-.13h0Z"/>
          <path class="cls-2" d="M39.63,29.04c3.37,1.74,6.54,3.89,9.36,6.43,1.27,1.14,2.49,2.36,3.63,3.64,1.28,1.43,2.31,3.1,3.75,4.36.34.3,1.01.02.83-.48-1.22-3.35-4.51-6.31-7.16-8.57-3-2.55-6.32-4.61-9.92-6.23-.57-.25-1.07.55-.5.85h0Z"/>
          <path class="cls-2" d="M66.45,42.95c4.65-.33,9.4-.86,14.02.05,2.06.41,4.07,1.12,5.88,2.19,2.06,1.21,3.37,2.9,5.09,4.48.34.31.94.01.8-.46-1.26-4.16-6.57-6.6-10.44-7.52-5.02-1.2-10.46-.59-15.47.34-.53.1-.41.98.13.94h0Z"/>
          <path class="cls-2" d="M24.19,29.49c-.5,5.29,1.29,10.6,3.7,15.25,2.46,4.74,5.6,9.69,9.46,13.42.38.37,1.01-.1.73-.57-2.57-4.38-6.15-8.06-8.62-12.52-2.71-4.89-4.15-10.01-4.38-15.59-.02-.58-.84-.57-.89,0h0Z"/>
          <path class="cls-2" d="M7.49,42.68c6.21.25,12.2,2.47,17.46,5.71,2.79,1.72,5.38,3.75,7.76,6,2.27,2.15,4.08,4.76,6.34,6.89.48.45,1.09-.11.85-.66-1.27-2.94-3.9-5.52-6.2-7.67-2.49-2.33-5.26-4.39-8.21-6.11-5.48-3.21-11.62-5.28-18-5.36-.77,0-.76,1.16,0,1.19h0Z"/>
          <path class="cls-2" d="M72.94,51.58c-3.56,3.46-6.97,7.07-10.69,10.36-1.77,1.57-3.59,3.08-5.44,4.55-1.97,1.57-4.42,2.92-6.14,4.76-.36.39,0,1.2.56.97,2.18-.88,4.13-2.62,5.98-4.04,2.03-1.55,4-3.17,5.91-4.86,3.82-3.39,7.53-7.03,10.58-11.15.34-.45-.38-.96-.76-.59h0Z"/>
          <path class="cls-2" d="M89.56,66.61c-2.21-1.18-5-1.55-7.45-1.94-2.63-.42-5.3-.64-7.96-.71-2.83-.08-5.67.02-8.49.32-2.36.25-4.9.45-7.04,1.53-.41.21-.19.8.22.82,2.5.11,5.04-.56,7.52-.79,2.59-.24,5.19-.35,7.79-.29,2.6.05,5.18.27,7.76.61,2.47.32,4.95,1.12,7.43,1.25.42.02.58-.6.21-.79h0Z"/>
        </g>
        <path class="cls-3" d="M83.69,23.57c-2.01,2.06-3.39,4.82-5.23,7.06-1.87,2.27-3.93,4.39-6.12,6.36-3.97,3.56-8.45,6.5-13.22,8.88,3.56-6.42,6.74-13.05,9.44-19.88,1.38-3.49,2.62-7.03,3.73-10.61,1.09-3.53,2.57-7.41,2.69-11.13.02-.59-.92-.9-1.18-.32-1.25,2.86-1.76,6.08-2.66,9.07-.95,3.17-2.02,6.31-3.18,9.41-2.41,6.44-5.26,12.71-8.5,18.77-.66,1.23-1.33,2.44-2.02,3.65.26-5.09-.54-10.42-1.27-15.34-.93-6.34-2.17-12.83-4.41-18.85-.22-.59-1.06-.36-.94.26,1.18,5.98,2.69,11.88,3.63,17.91.49,3.14.87,6.29,1.12,9.46.23,2.92.24,5.89.57,8.8-4.41,7.56-9.35,14.81-14.7,21.74-.56-4.04-1.24-7.95-1.07-12.1.19-4.69,1.22-9.21,2.6-13.68.19-.6-.76-1.03-1.04-.44-1.97,4.2-2.79,8.82-3.08,13.43-.28,4.58-.23,9.93,1.45,14.27,0,0,0,0,0,0-1.2,1.53-2.41,3.04-3.65,4.54-2.34,2.83-4.75,5.61-7.23,8.32-2.62,2.87-5.47,5.54-8.05,8.44-.82.92.43,2.16,1.35,1.35,5.11-4.52,9.66-9.97,14.07-15.15,1.81-2.12,3.57-4.29,5.3-6.47,5.23.19,10.49,1.41,15.2,3.68,2.34,1.13,4.57,2.51,6.62,4.12,1.99,1.57,3.64,3.59,5.71,5.05.46.33.91-.29.71-.71-1.13-2.34-3.45-4.17-5.48-5.72-2.27-1.73-4.73-3.19-7.33-4.35-4.65-2.08-9.53-3.14-14.59-3.1,2.18-2.79,4.28-5.63,6.3-8.53,3.2-4.6,6.18-9.34,8.95-14.21,5.52-2.2,10.58-5.31,15.09-9.19,2.39-2.06,4.59-4.33,6.59-6.78,1.79-2.19,4-4.69,4.84-7.43.18-.58-.59-1.01-1-.58Z"/>
      </g>
      <rect class="cls-1" width="100" height="100"/>
    </g>
  </g>
</svg>