<?xml version="1.0" encoding="UTF-8"?>
<svg id="Capa_2" data-name="Capa 2" xmlns="http://www.w3.org/2000/svg" viewBox="0 0 100 100">
  <defs>
    <style>
      .cls-1 {
        fill: none;
      }

      .cls-2 {
        fill: #b69a41;
      }

      .cls-3 {
        fill: #4a2d2d;
      }
    </style>
  </defs>
  <g id="COLOR">
    <g>
      <g>
        <g>
          <path class="cls-2" d="M19.29,43.84s6.56,2.26,12.45,8.31c5.89,6.04,10.45,15.6,10.94,21.29.49,5.69,1.81,13.07-.56,12.41-2.38-.66-11.89-8.58-17.4-13.52-5.51-4.94-7.83-11.4-7.8-17.02.03-5.62,1.2-10.57,2.38-11.47Z"/>
          <path class="cls-3" d="M19.95,45.35c-2.09,7.92.52,16.15,5.38,22.51,2.39,3.12,5.27,5.76,8.32,8.21,1.55,1.25,3.11,2.48,4.58,3.84,1.44,1.33,2.64,3.28,4.27,4.36.21.14.53,0,.48-.28-.53-2.98-4.27-5.63-6.45-7.45-3.05-2.54-6.16-4.97-8.75-8.01-5.45-6.37-8.61-14.67-6.79-23.06.14-.67-.87-.77-1.04-.14h0Z"/>
          <path class="cls-3" d="M42.58,84.26c-1.45-7.93-3.22-15.76-6.99-22.95-1.7-3.23-3.68-6.32-6.01-9.13-2.15-2.59-4.95-5.82-8.21-6.96-.59-.21-1.17.45-.76.99.97,1.27,2.27,2.28,3.43,3.36,1.34,1.24,2.6,2.58,3.79,3.96,2.4,2.77,4.51,5.82,6.27,9.04,3.71,6.79,6.42,14.22,8.09,21.75.05.24.44.2.39-.05h0Z"/>
          <path class="cls-3" d="M22.18,50.79c3.19,4.63,6.1,9.44,8.92,14.31,1.34,2.32,2.59,4.68,3.83,7.06.65,1.26,1.32,2.51,1.94,3.79.55,1.13.98,2.48,1.85,3.4.2.22.56.09.54-.22-.09-1.26-.82-2.48-1.34-3.62-.58-1.29-1.16-2.59-1.78-3.86-1.25-2.54-2.62-5.03-4.04-7.48-2.78-4.83-6.01-9.36-9.45-13.74-.23-.3-.68.05-.46.36h0Z"/>
        </g>
        <g>
          <path class="cls-2" d="M56.26,14.87s9.02,7,6.8,15.83-10.97,24.51-14.71,25.33c-3.74.82-5.91-7.79-5.96-17.57s3.94-17.14,7.18-21.9c3.25-4.76,6.69-1.69,6.69-1.69Z"/>
          <path class="cls-3" d="M53.92,14.52c-10.05,10.68-10.27,27-6.7,40.39.1.37.65.6.93.27,4.9-5.97,8.84-12.83,10.1-20.54.52-3.19.57-6.46.17-9.67-.4-3.19-1.11-7.06-3-9.73-.44-.61-1.55-.32-1.31.52.84,3.03,2.13,5.78,2.59,8.94.47,3.18.42,6.43-.03,9.61-1.05,7.42-4.38,14.42-9.28,20.07l.93.27c-1.66-6.45-2.51-13.14-1.83-19.79.75-7.31,3.55-14.07,7.94-19.93.21-.29-.25-.65-.49-.39h0Z"/>
          <path class="cls-3" d="M54.05,16.09c-.17,6.53-.26,13.11-1.13,19.59-.45,3.35-1.12,6.69-2.12,9.93-.44,1.43-.92,2.85-1.48,4.23-.62,1.55-1.65,3.07-1.98,4.71-.06.31.3.57.55.33,2.05-1.92,3.12-5.69,3.97-8.31,1.05-3.28,1.73-6.66,2.21-10.07.94-6.77,1-13.58.87-20.4-.01-.57-.88-.58-.89,0h0Z"/>
        </g>
        <g>
          <path class="cls-2" d="M82.09,42.05s-13.6,4.56-16.27,13.02c-2.67,8.45-5.15,22.72-8.52,25.59-3.37,2.87,2.9,3.74,9.5.2,6.59-3.54,12.83-10.87,16.34-21.95,3.51-11.08,1.29-15.25-1.04-16.85Z"/>
          <path class="cls-3" d="M79.77,44.99c-5.96,3.61-9.85,10.19-12.37,16.5-1.39,3.49-2.45,7.11-3.88,10.59-1.58,3.82-3.61,7.09-6.25,10.26-.37.45.25,1.16.71.76,5.59-4.82,7.56-12.77,9.98-19.42,2.44-6.71,6.07-14.08,12.34-17.95.5-.31-.03-1.04-.53-.74h0Z"/>
          <path class="cls-3" d="M60.1,82.95c3.3-1.7,5.88-4.52,8.18-7.38,2.34-2.9,4.42-6.01,6.26-9.26,1.87-3.31,3.44-6.8,4.54-10.45.57-1.89,1.01-3.83,1.27-5.79.2-1.51.55-3.36.03-4.83-.08-.23-.49-.29-.58-.02-.46,1.47-.28,3.14-.48,4.67-.22,1.67-.56,3.31-1,4.93-1.01,3.68-2.54,7.21-4.36,10.55-3.56,6.52-8.31,12.47-14.1,17.13-.21.17-.03.57.23.44h0Z"/>
          <path class="cls-3" d="M68.56,78.16c5.43-3.79,9.5-8.75,12.1-14.86,1.25-2.92,2.2-5.99,2.69-9.13.46-2.97.96-6.77.04-9.69-.18-.56-1.16-.51-1.2.11-.09,1.41.15,2.84.18,4.26.03,1.62-.06,3.25-.27,4.86-.4,3.14-1.15,6.24-2.36,9.16-2.39,5.79-6.34,11.28-11.25,15.2-.05.04,0,.13.06.09h0Z"/>
        </g>
      </g>
      <rect class="cls-1" width="100" height="100"/>
    </g>
  </g>
</svg>