<?xml version="1.0" encoding="UTF-8"?>
<svg id="Capa_2" data-name="Capa 2" xmlns="http://www.w3.org/2000/svg" viewBox="0 0 100 100">
  <defs>
    <style>
      .cls-1 {
        fill: none;
      }

      .cls-2 {
        fill: #4a2d2d;
      }

      .cls-3 {
        fill: #79963e;
      }
    </style>
  </defs>
  <g id="COLOR">
    <g>
      <g>
        <g>
          <path class="cls-3" d="M62.17,85.76c.79.02,1.57.18,2.34.32s1.59.38,2.37.66c.73.27,1.43.59,2.1.98.35.2.72.35,1.07.52.33.16.75.32,1.12.35.23.02.39-.24.34-.44-.2-.77-1.03-1.48-1.69-1.86-.79-.46-1.64-.85-2.51-1.12s-1.73-.42-2.61-.51-1.77.03-2.66.16c-.55.08-.39.93.13.94h0Z"/>
          <path class="cls-3" d="M52.08,78.18c-.47.47-1.3,2.86-1.6,3.85-.38,1.23-.7,2.5-.91,3.77s-.38,2.49-.4,3.73c-.01.62-.03,1.27.07,1.88.09.56.32,1.12.55,1.63.1.22.4.12.47-.06.82-2.2.76-4.62,1.18-6.92.21-1.15.46-2.8.77-3.93.27-.97.8-2.34,1.07-3.48.08-.34-.91.14-1.23.31l.02-.78Z"/>
          <g id="Capa_2-2" data-name="Capa 2">
            <g id="bocetos">
              <path class="cls-3" d="M65.86,6.11c1.06,3.15,2.09,6.33,2.75,9.59.66,3.27.61,6.49.69,9.83.01.35.55.57.67.16,1.88-6.42-.73-14.1-3.14-20.03-.26-.65-1.19-.19-.97.45Z"/>
              <path class="cls-3" d="M72.65,22.71c3.36-1.91,10.45-7.93,12.64-11.15.1-.18.04-.42-.14-.52-.16-.09-.35-.06-.47.07-2.45,2.88-8.95,8.02-12.23,9.93-.48.28-.13,1.07.36.79l-.16.87Z"/>
              <path class="cls-3" d="M45.04,15.79c2.73,2.53,7.84,7.72,9.47,11.1.29.6,1.15.3,1.08-.33-.4-3.8-7.22-9.38-9.89-11.67-.56-.48-1.17.43-.66.91h0Z"/>
              <path class="cls-3" d="M55.27,26.92c1.36-2.83,4.49-11.05,4.9-14.2.07-.52-.62-.6-.83-.2-1.48,2.79-3.78,11.12-5.02,14.03-.26.61.66.95.94.36h0Z"/>
              <path class="cls-3" d="M42.47,22.45c1.13,2.98,2.85,8.96,3.62,12.04.11.45.87.5.88-.03.03-3.38-2.39-9.32-3.6-12.42-.23-.59-1.11-.18-.89.41h0Z"/>
              <path class="cls-3" d="M34.38,35.85c3.17-.54,8.83.06,11.96-.33.42-.05.44-.65.08-.8-2.82-1.16-9.33-.55-12.21.13-.63.16-.48,1.11.17,1Z"/>
              <path class="cls-3" d="M28.13,29.67c-1.36,2.58-3.43,8.38-3.44,11.34,0,.46.67.69.84.2,1-2.79,2.38-8.43,3.53-11.19.25-.6-.64-.91-.93-.36Z"/>
              <path class="cls-3" d="M15.94,32.31c1.55,2.81,5.62,9.22,8.62,10.64.48.23.85-.41.57-.78-.96-1.26-2.31-2.22-3.37-3.41-1.15-1.28-3.96-5.42-4.84-6.9-.35-.58-1.3-.16-.97.45h0Z"/>
              <path class="cls-3" d="M10.44,33.35c2.1,2.29,4.47,8,5.61,10.74.22.53.93.23.91-.28-.18-2.9-3.81-8.95-5.7-11.11-.44-.5-1.26.17-.8.66h-.02Z"/>
              <path class="cls-3" d="M15.73,43.85c-2.63-.06-10.15,2.38-12.39,3.85-.58.38.03,1.16.6.96,2.37-.85,9.31-3.51,11.83-3.79.57-.06.54-1.01-.04-1.02Z"/>
              <path class="cls-3" d="M27.62,52.19c-4.07-.9-12.95.01-16.82,1.7-.51.22-.26,1.01.28.92,4.17-.66,12.19-2.13,16.43-1.6.67.08.73-.88.1-1.03h0Z"/>
              <path class="cls-3" d="M37.3,52.69c-.83-3.28-.62-8.82-.76-12.18-.02-.42-.65-.42-.78-.08-1.21,3.18-.46,9.46.57,12.55.18.54,1.11.26.97-.3h0Z"/>
              <path class="cls-3" d="M37.29,54.15c1.5-.62,3.06-1.11,4.66-1.45,1.3-.27,5.18-.7,6.41-1.22.35-.15.38-.77-.03-.88-2.87-.74-8.97,1.26-11.49,2.55-.27.13-.38.46-.25.73.13.26.44.38.71.26h0Z"/>
              <path class="cls-3" d="M78.44,38.54c3.72-1.17,13.82-3.88,17.49-5.18.55-.2.26-1.05-.3-.96-3.87.62-13.75,4.11-17.49,5.21-.26.06-.43.31-.38.58.06.26.31.43.58.38.03,0,.06-.02.09-.03Z"/>
              <path class="cls-3" d="M83.45,48.81c2.63-1.17,5.38-1.28,8.07-2.14.38-.12.21-.66-.12-.71-2.81-.44-5.83.85-8.37,1.94-.59.25-.17,1.17.42.91Z"/>
              <path class="cls-3" d="M81.37,48.99c1.27,2.23,1.74,4.64,2.47,7.06.14.45.79.49.86-.03.37-2.75-.86-5.4-2.39-7.62-.35-.51-1.25.03-.94.58h0Z"/>
              <path class="cls-3" d="M62.06,65.36c.6-3.35,1.62-7.15.52-10.5-.14-.43-.81-.27-.85.14-.27,3.41.07,6.89-.68,10.26-.14.63.89.75,1.01.1Z"/>
              <path class="cls-3" d="M65.04,63.89c1.66-.61,3.36-1.08,5.09-1.41,1.57-.31,3.19-.34,4.72-.77.25-.05.41-.3.35-.54-.04-.19-.19-.33-.39-.36-3.2-.74-7.29.9-10.16,2.24-.55.26-.17,1.05.39.85h0Z"/>
              <path class="cls-3" d="M74.23,71.15c2.8-2,5.93-3.09,9.13-4.28.55-.21.23-.96-.28-.92-3.5.27-6.68,2.47-9.46,4.46-.51.36.11,1.11.62.75h0Z"/>
              <path class="cls-3" d="M72.85,71.3c1.8,2.56,3.54,5.15,5.34,7.71.32.45,1.07-.02.82-.51-1.48-2.83-3.43-5.33-5.39-7.83-.39-.5-1.13.11-.77.63h0Z"/>
              <path class="cls-3" d="M57.11,81.67c1.88-.04,3.75.07,5.61.33,1.84.24,3.69.84,5.54.92.44.02.77-.6.33-.87-3.13-1.93-7.99-1.78-11.52-1.36-.55.06-.54,1.01.04.99h0Z"/>
              <path class="cls-3" d="M58.01,83.75c-1.09,3.1-1.77,6.28-1.52,9.57.04.52.75.4.85-.03.67-3.08,1.07-6.21,1.69-9.3.12-.58-.82-.79-1.01-.24h0Z"/>
              <path class="cls-3" d="M35.38,27.2c3.35,2.16,10.11,7.35,12.81,10.28,1.21,1.33,2.35,2.72,3.41,4.17,1.18,1.62,2.09,3.47,3.47,4.93.32.35,1.05.12.92-.42-.92-3.61-4.05-7.04-6.58-9.67-2.86-2.95-9.84-8.09-13.41-10.13-.56-.32-1.17.47-.61.83h-.01Z"/>
              <path class="cls-3" d="M65.62,47.09c4.89.14,9.89.08,14.61,1.5,2.12.62,4.12,1.6,5.91,2.89,2.03,1.48,3.21,3.38,4.84,5.2.32.36.98.1.88-.4-.89-4.47-6.16-7.56-10.11-8.92-5.1-1.76-10.84-1.7-16.17-1.25-.56.05-.54.97.04.99h0Z"/>
              <path class="cls-3" d="M22.81,24.45c-1.06,5.47.39,15.42,2.43,20.51,2.07,5.19,4.84,10.69,8.48,14.97.18.2.49.23.69.05.16-.14.21-.37.13-.56-2.22-4.84-5.58-9.04-7.69-13.95-2.3-5.26-3.46-15.21-3.1-20.94.03-.26-.16-.49-.42-.51-.26-.03-.49.16-.51.42h0Z"/>
              <path class="cls-3" d="M2.94,40.18c6.45.91,13.7,4.37,18.84,8.3,2.73,2.09,5.23,4.46,7.47,7.06,2.15,2.48,3.76,5.38,5.89,7.84.45.52,1.15,0,.96-.6-1.02-3.19-3.49-6.15-5.67-8.64-2.37-2.69-5.02-5.11-7.93-7.22-5.37-3.91-12.79-7.24-19.44-7.98-.8-.09-.92,1.13-.12,1.24h0Z"/>
              <path class="cls-2" d="M77.33,7.17c-1.6,2.85-2.47,6.16-3.71,9.18-1.32,3.21-2.75,6.37-4.28,9.48-3.18,6.46-6.79,12.7-10.8,18.69-7.91,11.82-17.17,22.73-27.26,32.73-2.74,2.71-5.54,5.35-8.41,7.93-3.03,2.73-6.28,5.2-9.27,7.98-.41.37-.44,1-.07,1.41.34.38.92.44,1.34.13,5.79-4.18,11.1-9.39,16.24-14.34,5.14-4.95,10.01-10.05,14.62-15.44,9.24-10.83,17.35-22.63,23.86-35.29,1.8-3.5,3.46-7.06,4.99-10.68,1.5-3.57,3.44-7.47,3.96-11.34.08-.62-.86-1.04-1.19-.45h0Z"/>
              <path class="cls-3" d="M71.49,56.76c-4.07,3.24-7.99,6.65-12.22,9.7-2.01,1.45-4.05,2.84-6.13,4.18-2.22,1.43-4.91,2.59-6.9,4.33-.42.36-.12,1.25.49,1.07,2.36-.69,4.58-2.31,6.66-3.6,2.28-1.41,4.5-2.89,6.66-4.46,4.34-3.14,8.58-6.55,12.18-10.53.4-.44-.3-1.04-.73-.69h0Z"/>
              <path class="cls-3" d="M87.27,74.15c-2.18-1.46-5.05-2.13-7.56-2.8-2.7-.7-5.45-1.23-8.23-1.56-2.94-.38-5.91-.56-8.88-.54-2.49.01-5.15-.04-7.5.86-.46.17-.28.82.15.88,2.6.38,5.31-.06,7.92-.05,2.72.01,5.44.18,8.15.5,2.7.33,5.38.81,8.03,1.43,2.54.59,5.04,1.68,7.62,2.07.24.04.46-.13.5-.36.03-.17-.05-.35-.2-.44h0Z"/>
              <path class="cls-2" d="M36.62,74.06c5.71.66,11.22,2.54,16.14,5.51,2.33,1.42,4.5,3.09,6.47,4.98,1.92,1.84,3.42,4.12,5.43,5.85.45.39.98-.21.81-.67-.93-2.56-3.17-4.71-5.13-6.53-2.19-2.04-4.6-3.81-7.2-5.3-5.01-2.91-10.65-4.57-16.43-4.87-.66-.03-.75.95-.1,1.02h0Z"/>
              <path class="cls-2" d="M52.66,12.06c.61,6.36,1.58,12.66,1.93,19.05.18,3.32.25,6.65.19,9.98-.06,3.37-.43,6.77-.32,10.14.02.48.78.8.93.22,1.6-6.17,1.22-13.13.92-19.45-.32-6.7-.94-13.6-2.65-20.11-.07-.27-.35-.44-.62-.37-.25.06-.41.29-.39.55Z"/>
              <path class="cls-2" d="M55.93,51.2c6.18-1.72,12.02-4.49,17.27-8.19,2.71-1.9,5.24-4.04,7.58-6.38,2.1-2.1,4.66-4.47,5.81-7.24.24-.58-.51-1.11-.99-.71-2.31,1.94-4.03,4.68-6.19,6.82-2.19,2.17-4.55,4.18-7.04,6-5.1,3.74-10.81,6.58-16.78,8.65-.6.21-.29,1.24.33,1.07h0Z"/>
              <path class="cls-2" d="M40.1,44.19c-2.49,4.17-3.83,8.91-4.6,13.69-.77,4.74-1.26,10.33.03,15.03.19.69,1.42.8,1.4-.05-.13-4.77-.59-9.33.08-14.1.69-4.87,2.23-9.48,4.12-14,.26-.61-.69-1.15-1.04-.57h.01Z"/>
            </g>
          </g>
          <path class="cls-3" d="M78.53,18.09c1.87.25,3.77.24,5.64.06.92-.09,1.82-.28,2.7-.54s1.77-.5,2.42-1.19c.14-.15.05-.43-.17-.42-.87.03-1.6.38-2.42.64s-1.7.46-2.56.64c-1.79.38-3.61.36-5.42.1-.47-.07-.67.66-.2.72h0Z"/>
          <path class="cls-3" d="M61.8,8.13c.75,1.79,1.65,3.55,3.02,4.95.64.65,1.36,1.22,2.15,1.66.78.44,1.68.89,2.59.65.26-.07.26-.39.07-.53-.66-.48-1.48-.64-2.19-1.05s-1.39-.94-1.98-1.55c-1.24-1.29-2.16-2.84-2.92-4.45-.2-.41-.93-.11-.75.32h0Z"/>
          <path class="cls-3" d="M85.99,36.34c.26.2.56.37.8.59s.48.45.73.67c.55.46,1.2.8,1.85,1.09s1.31.58,1.99.75,1.49.35,2.15-.02c.28-.16.28-.51.09-.73-.43-.51-1.13-.66-1.73-.86-.62-.21-1.25-.39-1.86-.64s-1.15-.53-1.73-.76c-.28-.11-.56-.2-.83-.33-.3-.14-.56-.37-.82-.57-.59-.47-1.25.36-.64.83h0Z"/>
          <path class="cls-3" d="M9.24,40.07c-.63-1.4-1.58-2.66-2.75-3.65-.58-.5-1.21-.93-1.88-1.3-.36-.2-.73-.39-1.11-.54s-.78-.09-1.2-.02c-.27.05-.36.44-.16.61.29.26.54.51.91.65.31.12.62.23.92.38.62.3,1.22.68,1.75,1.11,1.1.9,1.98,2.01,2.6,3.29.12.26.49.32.72.19.27-.16.31-.46.19-.72h0Z"/>
          <path class="cls-3" d="M9.6,45.78c-.82,1.77-1.57,3.5-2.83,5.02-.61.74-1.3,1.42-2.02,2.04-.36.31-.73.6-1.08.94s-.78.62-1.09.99c-.12.14-.06.45.17.42.47-.06.93-.3,1.36-.49.5-.22.92-.5,1.35-.84.81-.64,1.54-1.37,2.19-2.16,1.29-1.57,2.52-3.49,2.87-5.52.09-.52-.66-.95-.92-.39h0Z"/>
          <path class="cls-3" d="M23.4,29.35c1.45-1.38,2.68-3,3.6-4.78.44-.85.87-1.76,1.12-2.69.27-.98.35-1.98.32-3,0-.19-.26-.22-.32-.04-.3.88-.64,1.74-.97,2.6-.35.9-.67,1.8-1.11,2.66-.87,1.69-2,3.21-3.36,4.52-.48.46.25,1.18.73.73h0Z"/>
          <path class="cls-3" d="M22.46,31.52c-.65-.5-1.22-1.06-1.66-1.75s-.9-1.37-1.3-2.09-.73-1.46-1.11-2.18c-.19-.37-.43-.69-.67-1.02-.22-.31-.41-.76-.7-.99-.18-.14-.39-.05-.42.17-.04.38.15.82.22,1.2.09.45.19.87.36,1.29.34.84.77,1.62,1.26,2.38s.96,1.41,1.61,1.98,1.33,1.14,2.07,1.61c.38.24.68-.33.34-.59h0Z"/>
          <path class="cls-3" d="M19.74,52.76c-.14.17-.22.33-.32.52-.09.17-.24.3-.35.47-.21.32-.41.65-.62.98-.44.68-.86,1.4-1.27,2.09s-.83,1.34-1.29,1.98-1.03,1.22-1.52,1.86c-.12.15.11.35.26.26.69-.42,1.3-1.01,1.89-1.54s1.2-1.15,1.73-1.8,1-1.36,1.35-2.09c.18-.39.36-.81.49-1.23.06-.18.06-.38.12-.56.08-.23.16-.4.18-.65.03-.31-.43-.51-.64-.26h0Z"/>
          <path class="cls-3" d="M35.54,46.15c-.13-.25-.27-.43-.47-.62-.18-.17-.34-.35-.5-.53s-.34-.35-.5-.53c-.04-.05-.08-.09-.12-.14-.01-.01-.11-.14-.04-.05-.07-.1-.15-.2-.21-.3-.28-.4-.55-.84-.83-1.21-.12-.16-.27-.37-.39-.56-.13-.21-.23-.44-.38-.64-.1-.14-.37-.15-.41.05-.1.51.01,1.1.1,1.6s.37,1.08.66,1.52.66.93,1.07,1.3c.22.2.47.38.72.55.12.09.25.18.4.23s.32.05.47.07c.39.05.58-.44.42-.74h0Z"/>
          <path class="cls-3" d="M42.01,52.01c.43.52.87,1.03,1.41,1.44s1.19.72,1.85.96c1.29.47,2.65.35,3.94-.03.17-.05.13-.29-.04-.3-1.21-.08-2.38-.5-3.5-.92-.53-.2-1.03-.47-1.52-.75-.54-.31-1.06-.6-1.51-1.04-.42-.4-.99.19-.63.63h0Z"/>
          <path class="cls-3" d="M40.52,30.15c.23-.87.14-1.68-.12-2.53s-.71-1.67-1.18-2.42-1.06-1.46-1.69-2.06c-.32-.3-.64-.6-.97-.89s-.63-.62-1.02-.82c-.16-.08-.42.06-.34.26.27.72.85,1.36,1.25,2.02.45.72.91,1.43,1.36,2.15.42.68.8,1.36,1.1,2.1s.58,1.52.92,2.28c.14.3.61.2.68-.09h0Z"/>
          <path class="cls-3" d="M39.72,35.36c-.47.41-.94.78-1.47,1.11-.27.17-.54.32-.8.49-.16.11-.3.22-.44.35-.06.06-.12.12-.18.18-.1.11-.13.23-.19.36l.13-.23c-.19.23-.38.45-.58.67-.17.18,0,.44.23.39.19-.04.37-.08.56-.12.05-.01.1-.02.15-.03s.15,0,.03-.02c-.12,0-.09,0,.1.02l.16-.02c.07-.01.14-.05.21-.08.41-.18.76-.42,1.09-.73.58-.54,1.14-1.1,1.66-1.7.39-.44-.2-1.03-.65-.65h0Z"/>
          <path class="cls-3" d="M40.39,29.7c-.15,0-.33-.06-.49-.07s-.34,0-.49.01c-.39.03-.77.12-1.16.16-.78.09-1.56.19-2.34.26-1.53.12-3.08.1-4.6.31-.2.03-.23.35-.06.43,1.46.69,3.14.83,4.74.78.83-.03,1.65-.1,2.46-.28.38-.08.78-.15,1.14-.28.2-.07.42-.17.61-.27.15-.08.26-.23.39-.29.36-.18.19-.79-.21-.76h0Z"/>
          <path class="cls-3" d="M45.81,30.13c.47-.44.87-.97,1.28-1.46.43-.51.72-1.14.99-1.75.55-1.25.91-2.61.52-3.96-.08-.26-.46-.33-.6-.08s-.23.53-.34.8c-.13.3-.29.57-.37.89-.17.6-.35,1.19-.55,1.78s-.49,1.13-.68,1.72c-.09.28-.18.58-.33.84s-.32.53-.47.8c-.19.35.26.7.55.43h0Z"/>
          <path class="cls-3" d="M48.34,17.84c-.84-.29-1.76-.27-2.63-.39s-1.79-.29-2.66-.51-1.72-.44-2.56-.69-1.66-.69-2.5-1.01c-.24-.09-.4.25-.24.41.63.64,1.46,1.13,2.22,1.61.85.53,1.69.94,2.65,1.24.93.29,1.86.49,2.82.6s1.99.21,2.9-.15c.52-.21.56-.91,0-1.11h0Z"/>
          <path class="cls-3" d="M57.48,21.06c.26-.04.5-.13.76-.18.27-.05.54-.11.8-.22.47-.2.92-.43,1.35-.7s.89-.58,1.26-.95c.2-.21.34-.44.48-.7.12-.22.27-.45.32-.7.04-.21-.14-.45-.37-.37s-.42.22-.63.33-.41.2-.6.34c-.44.32-.75.59-1.19.88-.4.27-.82.5-1.25.72-.21.11-.39.25-.59.36-.22.13-.47.2-.7.31-.21.1-.28.4-.2.6.1.24.32.31.57.28h0Z"/>
          <path class="cls-3" d="M47.24,16.95c.42-.52.74-1.14.98-1.77.25-.67.22-1.41.12-2.11-.1-.7-.32-1.42-.68-2.02-.2-.33-.47-.6-.75-.86-.25-.23-.48-.52-.78-.7-.19-.11-.41.07-.36.28.07.29.23.55.32.83s.15.59.26.87c.21.57.48,1.1.61,1.7.12.53.1,1.05.08,1.59-.02.56-.16,1.02-.52,1.46-.18.22-.21.51,0,.73.18.18.55.22.73,0h0Z"/>
          <path class="cls-3" d="M88.64,53.25c.11.67.06,1.33.05,2.01,0,.62-.03,1.24-.1,1.86s-.15,1.21-.24,1.81c-.11.67-.11,1.34-.22,2.01-.04.22.24.35.36.15.38-.58.78-1.18,1.01-1.85.22-.65.35-1.38.41-2.06s.08-1.39.02-2.07-.27-1.41-.41-2.11c-.12-.58-.97-.33-.88.24h0Z"/>
          <path class="cls-3" d="M87.94,51.79c.95.02,1.89.16,2.83.28.87.1,1.75.28,2.59.51.73.2,1.43.5,2.11.82.34.16.66.35,1,.5.38.17.78.3,1.15.5.26.14.49-.13.38-.38-.36-.83-.81-1.44-1.56-1.95-.75-.51-1.61-.83-2.48-1.05-.95-.25-1.93-.34-2.91-.36-1.05-.02-2.07.15-3.11.21-.6.03-.61.93,0,.94h0Z"/>
          <path class="cls-3" d="M80.37,72.75c.91-.27,1.9-.4,2.84-.57s1.84-.3,2.77-.38c1.84-.15,3.71.13,5.53-.28.25-.06.28-.41.07-.53-1.7-.99-3.8-.85-5.7-.67-.96.09-1.91.23-2.84.47-.46.12-.93.25-1.39.41-.52.19-1,.48-1.52.7s-.33,1.03.24.86h0Z"/>
          <path class="cls-3" d="M81.67,73.28c-.18,1.61.18,3.23,1.01,4.62s1.93,2.6,3.52,2.99c.21.05.48-.2.32-.41-.84-1.1-1.81-2.15-2.46-3.38-.65-1.23-1.11-2.58-1.32-3.96-.04-.26-.35-.42-.59-.39-.28.04-.44.26-.47.53h0Z"/>
          <path class="cls-3" d="M50.18,84.87c-.94-.11-1.98.51-2.79.94-.89.48-1.69,1.13-2.44,1.8s-1.34,1.4-1.98,2.14-1.37,1.51-1.8,2.38c-.09.19.13.37.29.23.73-.63,1.34-1.4,2.07-2.04.7-.62,1.53-1.14,2.31-1.66s1.61-1,2.4-1.52,1.73-.93,2.26-1.69c.18-.26-.07-.53-.32-.56h0Z"/>
        </g>
        <path class="cls-3" d="M90.41,21.08c-.66-.38-1.36-.57-2.1-.75-.86-.21-1.7-.47-2.53-.78s-1.6-.64-2.38-1.01c-.66-.32-1.36-.91-2.11-.94-.16,0-.31.18-.26.34.26.74,1.14,1.12,1.79,1.46.82.43,1.67.79,2.55,1.09s1.73.55,2.62.75c.8.18,1.61.27,2.4-.01.06-.02.08-.11.02-.15h0Z"/>
      </g>
      <rect class="cls-1" width="100" height="100"/>
    </g>
  </g>
</svg>