<?xml version="1.0" encoding="UTF-8"?>
<svg id="Capa_2" data-name="Capa 2" xmlns="http://www.w3.org/2000/svg" viewBox="0 0 100 100">
  <defs>
    <style>
      .cls-1 {
        fill: #f5bf4c;
      }

      .cls-2 {
        fill: none;
      }

      .cls-3 {
        fill: #4a2d2d;
      }

      .cls-4 {
        fill: #fff1cc;
      }
    </style>
  </defs>
  <g id="COLOR">
    <g>
      <g>
        <path class="cls-4" d="M64.01,71.55s-7.79-1.62-11.1.46c-3.32,2.08-5.77,7.94-4.32,12.34,1.45,4.4,6.17,6.01,10.95,4.55,4.78-1.47,7.17-6.17,7.63-9.33s-3.16-8.02-3.16-8.02Z"/>
        <path class="cls-1" d="M90.49,63.71c-.65-2.51-2.79-4.26-5.09-5.22-5.82-2.4-12.28-.51-17.61,2.23-5.17,2.65-10,6.23-14.55,9.95-4.1,3.34-8.08,8.23-6.01,13.87.77,2.1,2.28,3.85,4.24,4.93,2.18,1.2,4.27,1.12,6.66,1.07,3.11-.06,6.35-1.38,9.13-2.66,2.89-1.33,5.64-2.95,8.32-4.65,4.87-3.07,9.84-6.74,12.94-11.69,1.43-2.27,2.68-5.12,1.97-7.83ZM48.27,82.52c-.62-3.98,1.34-7.29,4.35-9.38,1.76-1.22,3.64-1.95,5.95-1.84,2.58.11,5.02,1.62,5.98,4.07,1.78,4.55-1.15,11.14-5.6,13.06-3.93,1.68-8.48-.14-10.16-4.07-.25-.59-.43-1.21-.53-1.84Z"/>
        <path class="cls-3" d="M66.91,63.21c3.5.87,5.86,4.79,6.79,8.05.97,3.37.57,6.6-.51,9.87-.18.53.64.86.89.38,1.93-3.53,1.87-8.01.48-11.72-1.23-3.27-3.81-6.97-7.54-7.43-.49-.06-.59.74-.12.86h0Z"/>
        <path class="cls-3" d="M77.82,60.97c3.67,2.66,5.05,6.99,4.15,11.37-.03.23.13.45.36.48.19.03.38-.08.45-.26,1.64-4.79-.32-9.68-4.47-12.43-.53-.35-.98.48-.49.84Z"/>
        <path class="cls-3" d="M67.87,73.21s.02.04.03.06l-.08-.2c.06.25.22.46.44.59l-.28-.28c.12.18.29.32.5.38l-.46-.46c.01.06.01.04,0-.07,0,.02,0,.04,0,.06.02-.11.02-.12,0-.01,0,.03-.01.07-.01.1,0,.09.03.19.07.27-.05-.11-.05-.12-.02-.04.04.1.11.17.2.23.31.14.67.04.87-.24l-.29.17c.22-.05.4-.19.51-.38l-.12.16c.2-.19.3-.46.26-.74-.02-.16-.07-.31-.15-.44-.24-.4-.75-.53-1.15-.3-.39.24-.53.75-.3,1.15h0Z"/>
        <path class="cls-3" d="M69.05,78.71h.09s.06,0,.09,0h.11s.1-.06.1-.06c.08-.05.14-.11.17-.2.02-.03.03-.07.03-.1,0-.04,0-.07,0-.11-.01-.09-.05-.17-.11-.24-.02-.02-.04-.04-.05-.06l.07.09-.05-.09c-.13-.25-.43-.35-.68-.22-.25.13-.35.43-.22.68,0,.02.02.03.03.05.09.15.26.25.44.25h0Z"/>
        <path class="cls-3" d="M85.13,66.52c.09,0,.19-.02.27-.06.17-.06.31-.2.37-.37.04-.08.07-.18.06-.27l-.03-.19c-.03-.12-.1-.23-.18-.31l-.14-.11c-.11-.06-.23-.1-.36-.1-.09,0-.19.02-.27.06-.09.03-.17.08-.23.15-.13.14-.2.31-.21.5l.03.19c.03.12.09.23.18.31l.14.11c.11.06.23.1.36.1h0Z"/>
        <path class="cls-1" d="M56,33.96s6.61-14.32,3.78-19.19c-2.83-4.88-10.38-3.62-16.52,4.4-6.14,8.02-8.81,16.05-8.81,16.05,0,0-4.88-7.71-13.21-8.49-8.34-.79-7.55,6.61-3.62,12.59,3.93,5.98,13.06,9.12,12.74,16.05-.31,6.92-11.48,17.78-6.76,26.59,4.72,8.81,11.64,7.08,17.93-3.78,6.29-10.85,6.29-22.02,14.32-26.59,8.02-4.56,15.65-5.82,20.92-14,4.56-7.08-2.83-9.75-7.87-8.49-5.03,1.26-12.9,4.88-12.9,4.88Z"/>
        <path class="cls-3" d="M39.11,30.94c1.25,2.86,4.75,3.95,7.57,4.47,1.55.28,3.16.55,4.75.52,1.36-.02,3.19-.2,3.98-1.48.2-.33-.06-.73-.43-.74-.64-.02-1.26.17-1.88.3-.69.14-1.36.2-2.06.2-1.36,0-2.73-.17-4.07-.39-1.37-.22-2.77-.52-4.04-1.09-1.21-.54-2.34-1.31-3.37-2.13-.26-.21-.59.04-.45.35h0Z"/>
        <path class="cls-3" d="M44.16,19.53c1.89,2.27,4.36,3.85,7.21,4.68,1.38.4,2.83.63,4.27.66,1.2.02,3.04-.1,3.44-1.49.09-.31-.17-.72-.52-.69-.54.06-1.01.27-1.52.4-.6.15-1.23.15-1.84.12-1.27-.05-2.51-.27-3.73-.64-2.43-.73-4.77-2.01-6.71-3.64-.42-.35-.94.18-.59.59h0Z"/>
        <path class="cls-3" d="M35.93,54.81c1.87,2.08,4.29,3.54,7.05,4.06,1.36.26,2.75.33,4.12.18,1.27-.14,2.9-.34,3.73-1.43.26-.35-.11-.72-.44-.77-.61-.08-1.2.12-1.78.28s-1.14.27-1.72.34c-1.23.16-2.5.13-3.72-.1-2.43-.44-4.85-1.45-6.66-3.15-.39-.37-.94.19-.59.59h0Z"/>
        <path class="cls-3" d="M32.86,65.14c1.29,2.03,3.06,3.62,5.28,4.56,1.11.47,2.26.77,3.45.9.58.06,1.17.08,1.75.06.56-.03,1.36-.07,1.74-.55.23-.3.22-.68-.12-.9-.43-.28-1.04-.2-1.54-.17-.53.03-1.06.02-1.59-.02-1.07-.09-2.13-.34-3.13-.72-1.99-.74-3.86-2.01-5.16-3.7-.31-.4-.96.12-.69.54h0Z"/>
        <path class="cls-3" d="M28.38,75.41c.99,1.97,2.53,3.56,4.5,4.57.96.49,2,.88,3.07,1.07.89.16,2.62.52,3.18-.44.12-.21.06-.42-.08-.6-.33-.41-.88-.41-1.36-.46s-.91-.07-1.36-.15c-.93-.17-1.84-.44-2.69-.86-1.7-.83-3.28-2.09-4.33-3.68-.38-.58-1.24-.08-.93.54h0Z"/>
        <path class="cls-3" d="M40.27,65.75c.09,0,.17-.02.25-.06.08-.03.15-.07.21-.13.06-.06.11-.13.13-.21.04-.08.06-.16.06-.25l-.02-.17c-.03-.11-.09-.2-.16-.28l-.13-.1c-.1-.06-.21-.09-.32-.09-.09,0-.17.02-.25.06-.08.03-.15.07-.21.13-.06.06-.11.13-.13.21-.04.08-.06.16-.06.25l.02.17c.03.11.09.2.16.28l.13.1c.1.06.21.09.32.09h0Z"/>
        <path class="cls-3" d="M45.51,61.29l-.02-.02s-.03-.03-.08-.06c-.04-.04-.1-.07-.15-.09-.04-.02-.07-.04-.11-.04l.35.27s-.01-.02-.02-.03c-.05-.08-.12-.15-.2-.2-.09-.05-.18-.08-.28-.08-.1,0-.2.03-.28.08-.08.05-.15.12-.2.2,0,0-.01.02-.02.03l.35-.27h-.03c-.06.03-.11.05-.17.08l-.14.11h0s-.01.02-.02.02l-.11.15-.07.17c-.03.1-.03.19-.01.29,0,.07.02.13.05.18.02.06.05.12.09.16.03.05.08.1.13.13.05.05.1.08.16.09.09.05.18.07.28.06l.19-.03.17-.07.15-.11.11-.15.07-.17c.03-.1.03-.19.01-.29,0-.07-.02-.13-.05-.18-.03-.09-.08-.17-.15-.23h0Z"/>
        <path class="cls-3" d="M42.31,49.63c.1,0,.19-.02.28-.06.09-.03.17-.08.23-.15.07-.07.12-.14.15-.23.05-.09.07-.18.06-.28l-.03-.19c-.03-.12-.1-.23-.19-.32l-.15-.11c-.11-.07-.23-.1-.37-.1-.1,0-.19.02-.28.06-.09.03-.17.08-.23.15-.07.07-.12.14-.15.23-.05.09-.07.18-.06.28l.03.19c.03.12.1.23.19.32l.15.11c.11.07.23.1.37.1h0Z"/>
        <path class="cls-3" d="M20.94,40.64c1.09.47,2.21.03,3.15-.59s1.86-1.41,2.64-2.26c.8-.87,1.47-1.85,1.9-2.95.22-.56.37-1.15.44-1.75.06-.54.11-1.28-.35-1.67-.19-.16-.53-.23-.71,0-.33.41-.3.88-.35,1.38-.05.47-.16.93-.32,1.38-.32.93-.86,1.78-1.49,2.52s-1.37,1.4-2.11,2.04c-.75.65-1.64,1.25-2.65,1.39-.23.03-.43.39-.14.52h0Z"/>
        <path class="cls-3" d="M19.01,35.66c1.38-.11,2.66-.9,3.5-1.98.48-.62.86-1.32,1.15-2.04s.69-1.56.54-2.32c-.04-.22-.34-.27-.48-.13-.49.5-.6,1.27-.83,1.91-.25.67-.53,1.34-.91,1.95-.67,1.06-1.67,1.98-2.96,2.14-.3.04-.31.5,0,.48h0Z"/>
        <path class="cls-3" d="M64.27,45.55c-1.63-1.3-2.98-3.06-3.57-5.07-.32-1.09-.47-2.2-.48-3.34,0-.6.02-1.21.01-1.81,0-.51.03-1.12-.23-1.58-.12-.22-.45-.27-.63-.08-.38.41-.48,1.03-.56,1.57-.1.66-.12,1.33-.1,2,.03,1.29.19,2.61.62,3.82.78,2.24,2.26,4.1,4.38,5.19.43.22.97-.37.55-.71h0Z"/>
        <path class="cls-3" d="M39.05,41.82c1.3,2.13,3.21,3.67,5.59,4.42,1.27.4,2.65.54,3.98.44,1.22-.09,2.8-.31,3.6-1.35.18-.23-.07-.49-.3-.52-1.11-.13-2.31.38-3.41.46-1.21.08-2.43-.05-3.59-.39-2.04-.6-3.95-1.86-5.33-3.47-.25-.29-.73.09-.53.41h0Z"/>
        <path class="cls-3" d="M70.66,41.31c-.66-1.28-1.16-2.64-1.52-4.03-.17-.67-.29-1.36-.4-2.04s-.14-1.48-.43-2.15c-.14-.32-.54-.34-.67,0-.28.72-.2,1.55-.12,2.32s.25,1.48.44,2.2c.4,1.49,1.03,2.89,1.83,4.21.33.55,1.15.07.86-.5h0Z"/>
        <path class="cls-3" d="M55.8,44.23s-.03,0-.05.01c-.12.04-.21.09-.3.17s-.14.18-.17.3c0,0,0,.02,0,.02,0,0,0,.02,0,.02-.06.2-.03.41.08.59.05.09.11.16.2.21.07.07.16.11.26.14.14.04.27.04.41,0,.1-.02.19-.07.26-.14.08-.05.15-.13.2-.21.07-.12.1-.25.1-.39,0-.11-.02-.2-.07-.29-.03-.09-.08-.18-.16-.25-.19-.19-.48-.27-.74-.2h0Z"/>
        <path class="cls-3" d="M31.37,39.62s-.01-.02-.02-.03c-.01-.02-.03-.05-.05-.06-.04-.07-.1-.12-.17-.15-.05-.03-.11-.05-.16-.07l.36.36c-.02-.06-.05-.13-.08-.18-.08-.15-.26-.24-.42-.24s-.34.09-.42.24c-.02.05-.04.1-.06.15v.04c.11-.12.23-.24.35-.36-.03,0-.06.02-.09.03-.03,0-.05.02-.07.03l-.12.09s-.07.08-.1.12c0,.01-.01.02-.02.03-.06.1-.08.2-.08.31,0,.11.03.22.08.31.11.19.32.31.53.31s.42-.12.53-.31c.06-.1.08-.2.08-.31,0-.11-.03-.22-.08-.31h0Z"/>
        <path class="cls-3" d="M45.71,28.06s-.05-.05-.07-.08l-.15-.12c-.09-.05-.18-.08-.28-.09-.07-.02-.13-.02-.2,0-.1,0-.19.03-.28.09l-.15.12-.12.15c-.05.09-.08.18-.09.28-.02.1-.02.2.01.3,0,.04.02.07.02.11.04.13.1.24.2.34.1.1.21.16.34.2l.2.03c.14,0,.27-.04.39-.1.09-.05.16-.11.22-.2.07-.07.11-.16.14-.26.04-.14.04-.27,0-.41-.04-.13-.1-.24-.2-.34h0Z"/>
      </g>
      <rect class="cls-2" width="100" height="100"/>
    </g>
  </g>
</svg>