<?xml version="1.0" encoding="UTF-8"?>
<svg id="Capa_2" data-name="Capa 2" xmlns="http://www.w3.org/2000/svg" viewBox="0 0 100 100">
  <defs>
    <style>
      .cls-1 {
        fill: #cf923a;
      }

      .cls-2 {
        fill: #fdc733;
      }

      .cls-3 {
        fill: none;
      }

      .cls-4 {
        fill: #4a2d2d;
      }
    </style>
  </defs>
  <g id="COLOR">
    <g>
      <g>
        <path class="cls-1" d="M33.36,86.69c-1.59,0-3.2-.4-4.78-1.2l-.06-.03-.11-.03c-1.2-.45-2.3-1.08-3.29-1.87-3.01-2.41-4.76-6.2-4.68-10.12.1-4.95,3.23-8.09,6.43-10.89l.17-.15c1.07-.93,2.68-2.33,2.59-3.88-.04-.73-.45-1.35-1.2-1.86-1.39-.94-3.34-1.13-5.06-1.3-.63-.06-1.23-.12-1.76-.21-2.2-.38-3.81-.84-5.25-1.51-7.04-3.27-7.47-12.57-5.7-19.55,1.18-4.65,4.94-12.53,11.56-12.53.34,0,.7.02,1.05.06,2.12.26,4.99,1.44,6.1,3.93,1.01,2.27.88,4.82.75,7.52-.1,2.05-.21,4.18.23,6.2.45,2.09,2.11,3.6,3.95,3.6.48,0,.97-.1,1.44-.3,4.4-1.87,5.36-7.18,4.04-11.46-.31-.99-.72-1.96-1.11-2.89-.79-1.88-1.55-3.66-1.53-5.62.02-2.68.6-5.01,1.72-6.95,1.56-2.7,5.08-5.57,8.52-5.57,1.24,0,2.37.38,3.36,1.13,2.82,2.14,2.81,5.93,2.44,9.37-.04.39-.15.94-.27,1.58-.47,2.51-1.12,5.94.18,7.78.46.65,1.1,1.04,1.92,1.17.16.03.33.04.5.04.57,0,1.17-.14,1.84-.43,1.58-.68,2.88-1.8,4.14-2.88.76-.65,1.48-1.27,2.25-1.79,2.23-1.52,4.42-2.28,6.52-2.28.17,0,.34,0,.51.02,3.01.18,5.71,1.72,7.2,4.12,2.94,4.73,1.56,12.15-2.94,15.88-2.73,2.26-6.19,2.58-9.79,2.72-.31.01-.62.02-.94.03-3.26.11-6.95.22-9.51,2.52-.65.59-1.06,1.31-1.14,2.05-.08.73.07,1.32.45,1.74.38.42.94.63,1.68.63.9,0,1.9-.31,2.57-.51l.13-.04c1.14-.35,2.5-.7,3.87-.7.41,0,.82.03,1.2.1,2.05.35,3.66,1.62,4.51,3.57,1.08,2.48.8,5.69-.7,7.98-1.63,2.49-4.57,4.19-8.26,4.78-1.03.17-2.15.17-3.34.18-2.52.02-5.13.03-7.22,1.6-1.9,1.42-2.77,3.79-3.54,5.87-.15.41-.3.81-.45,1.19-1.9,4.8-4.41,7.48-8.14,8.69-1.01.33-2.04.49-3.06.49Z"/>
        <g>
          <path class="cls-2" d="M67.38,71.31c-2.44.57-6.98,4.1-8.9,7.68-1.92,3.58-3.8,9.77.92,12.48,4.71,2.71,9.82-.44,12.13-3.53,2.31-3.1,4.75-9.05,4.01-12.09-.96-3.97-5.72-5.11-8.16-4.54Z"/>
          <path class="cls-1" d="M62.37,93.23c-1.19,0-2.3-.38-3.3-1.12-1.66-1.23-2.86-3.24-3.06-5.11-.11-1.04-.03-2.12.23-3.22,0,0,.03-.11.03-.11,1.07-4.29,3.42-8.06,7.03-10.64,3.86-2.76,7.88-5.18,12.26-7.04,2.46-1.04,4.99-1.93,7.59-2.53,1.61-.37,2.96-.55,4.14-.55,2.82,0,4.51,1.02,5.19,3.11,1.57,4.87-2.07,10.96-4.38,14.16-3.38,4.68-7.26,7.93-11.85,9.94-3.97,1.74-8.68,2.85-12.94,3.04h-.11s-.06,0-.06,0c-.26.03-.52.05-.77.05ZM69.13,71.97c-4.72-.25-9.71,5.9-11.14,10.03l-.05.13c-.53,1.52-1.12,3.25-.74,5.03.57,2.69,2.67,4.63,5.11,4.72.45.02.92-.03,1.37-.15,2.62-.65,4.99-2.37,7.03-5.09,1.66-2.22,3.33-4.61,3.82-7.32.48-2.61-.5-6.02-3.28-6.96-.7-.24-1.42-.37-2.13-.4Z"/>
          <g>
            <path class="cls-4" d="M24.79,44.33c-.06-.12-.17-.19-.31-.19-.03,0-.06,0-.1.01-.87.21-1.63.91-2.24,1.47-.68.62-1.29,1.32-1.8,2.06-.54.78-.95,1.6-1.25,2.46-.16.46-.27.92-.32,1.37v.09c-.07.42-.13.89.08,1.29.06.11.17.18.3.18h0c.13,0,.25-.07.32-.17.17-.26.22-.56.27-.85.02-.11.04-.22.06-.32.11-.48.22-.86.34-1.21.27-.8.65-1.56,1.13-2.27.42-.63.95-1.24,1.57-1.82.23-.21.49-.42.74-.62.41-.32.84-.66,1.17-1.07.09-.12.11-.28.05-.41Z"/>
            <path class="cls-4" d="M19.68,40.49c.09-.02.19-.05.29-.08.15-.05.3-.09.42-.1.22,0,.33-.19.33-.36,0-.19-.14-.33-.33-.33h-.04c-.1,0-.21-.02-.33-.04-.12-.02-.25-.04-.4-.04h0c-.26,0-.52.03-.76.06-.5.06-1.04.18-1.61.37-1.01.33-2.05.87-2.99,1.56-.91.66-1.71,1.43-2.37,2.28-.77.99-1.2,1.92-1.38,3.01-.01.08,0,.16.06.22.05.06.12.09.2.09.09,0,.16-.05.21-.12.99-1.58,2.18-3.37,3.91-4.58.79-.56,1.7-1.02,2.68-1.37.5-.18,1-.31,1.38-.41.24-.06.49-.12.73-.17Z"/>
            <path class="cls-4" d="M13.2,32.87c.06,0,.11-.02.16-.05.24-.16.48-.33.71-.49.82-.58,1.66-1.17,2.64-1.51.62-.21,1.27-.3,2.13-.3.43,0,.87.02,1.29.05.32.02.63.03.96.04.17,0,.31-.12.33-.3.03-.18-.07-.34-.25-.39-.96-.28-1.87-.43-2.7-.43-.75,0-1.47.12-2.12.35-1.41.5-2.65,1.43-3.42,2.56-.06.09-.07.2-.01.3.06.11.17.18.28.18Z"/>
            <path class="cls-4" d="M18.36,34.05c-.67.14-1.28.35-1.81.64-.45.24-1.08.64-1.44,1.28-.05.08-.05.18,0,.27.05.08.14.14.24.14.04,0,.09-.01.13-.03.3-.16.58-.35.86-.53.21-.14.42-.28.63-.41.55-.32,1.06-.55,1.57-.7.17-.05.26-.2.24-.37-.03-.17-.17-.3-.34-.3-.02,0-.05,0-.08,0Z"/>
            <path class="cls-4" d="M39.08,28.81c.08,0,.15-.03.21-.09.42-.42.78-.91,1.12-1.37.43-.58.87-1.18,1.44-1.65.65-.55,1.69-1.2,3.01-1.2.16,0,.33.01.49.03.02,0,.04,0,.06,0,.26,0,.41-.22.44-.45.02-.26-.12-.48-.36-.52-.29-.05-.59-.08-.88-.08-1.18,0-2.38.43-3.36,1.2-.65.51-2.18,1.88-2.46,3.76-.01.09.01.19.08.26.06.07.14.11.22.11Z"/>
            <path class="cls-4" d="M46.38,18.38s.07,0,.1-.02c1.07-.33,2.31-.68,3.54-.68.65,0,1.24.09,1.82.29.04.01.09.02.13.02.22,0,.37-.18.41-.36.04-.19-.04-.37-.21-.46-.87-.41-1.87-.64-2.8-.64s-2.24.22-3.22,1.28c-.09.1-.11.24-.06.37.05.12.16.2.29.2Z"/>
            <path class="cls-4" d="M63.97,46.21c.11,0,.2-.08.21-.18.23-1.75.11-3.38-.36-4.98-.45-1.53-1.2-3.07-2.23-4.58-.1-.14-.24-.22-.39-.22-.19,0-.37.11-.47.29-.09.17-.09.37.02.54.81,1.26,1.44,2.67,1.95,4.31.5,1.61.85,3.17,1.05,4.64.01.11.11.19.22.19Z"/>
            <path class="cls-4" d="M70.98,35.82c-.16,0-.32.09-.41.23-.08.13-.07.29,0,.43.94,1.64.97,3.52.89,4.96,0,.07.02.13.07.18.05.05.13.09.2.09.1,0,.18-.05.22-.14.7-1.62.47-3.68-.61-5.53-.08-.14-.21-.21-.36-.21Z"/>
            <path class="cls-4" d="M69.44,31.26c0-.07,0-.15-.02-.22-.06-.22-.17-.41-.27-.57-.2-.32-.45-.61-.77-.87-.06-.05-.14-.08-.21-.08-.12,0-.23.07-.29.18-.05.11-.03.24.05.34.19.22.36.49.53.82l.05.1.04.08c.04.09.08.19.13.28.03.06.06.1.09.14.02.02.04.05.05.07l.03.05c.04.07.08.14.13.2.05.05.11.08.19.08.12,0,.23-.08.26-.2.03-.12.02-.22.01-.31,0-.03,0-.06,0-.09Z"/>
            <path class="cls-4" d="M53.5,47c-.16-.31-.37-.62-.62-.95-.43-.56-.96-1.1-1.6-1.66-1.1-.94-2.43-1.7-3.95-2.25-.04-.01-.08-.02-.11-.02-.16,0-.3.13-.34.3-.04.16.03.31.18.38,1.23.57,2.39,1.35,3.53,2.38.56.5,1.05,1.05,1.46,1.53.1.12.21.24.31.36.13.15.25.3.38.44.08.09.16.19.23.3.15.2.3.4.49.55.06.05.14.08.21.08.09,0,.17-.04.23-.1.06-.07.09-.17.08-.27-.04-.3-.21-.6-.36-.87-.04-.07-.07-.13-.11-.19Z"/>
            <path class="cls-4" d="M50.51,51.25s-.02-.05-.03-.08c-.02-.05-.04-.12-.08-.19-.12-.18-.28-.34-.39-.45-.25-.24-.55-.46-.96-.72-.64-.4-1.34-.73-2.09-.96-.04-.01-.09-.02-.13-.02-.21,0-.41.15-.46.35-.07.25.07.49.33.59.62.22,1.23.53,1.79.92.26.18.5.37.77.58.09.07.19.14.29.21l.17.12c.07.05.16.08.22.1h.04s.08.05.12.08c.04.02.08.05.12.07.04.02.08.03.13.03.1,0,.2-.05.26-.13.05-.07.06-.16.03-.25-.03-.08-.07-.16-.12-.26Z"/>
            <path class="cls-4" d="M49.83,62.62c-.45-1.1-1-1.98-1.68-2.71-.74-.79-1.66-1.38-2.72-1.76-.73-.26-1.48-.42-2.22-.57-.46-.1-.94-.2-1.4-.32-.03,0-.07-.01-.1-.01-.16,0-.29.11-.32.27-.03.17.06.34.22.41.52.21,1.07.4,1.6.58,1.54.52,3,1.01,4.1,2.24.59.66,1.1,1.49,1.46,2.4.09.22.16.44.23.66.08.24.16.48.25.71.05.11.09.23.13.35.11.32.22.65.44.91.05.06.12.09.19.09.12,0,.23-.08.27-.19.2-.48.07-1.17,0-1.58-.1-.53-.29-1.04-.46-1.47Z"/>
            <path class="cls-4" d="M59.9,56.37c-.1,0-.18.05-.22.15-1.24,2.71-1.3,5.71-.14,8,.04.08.12.13.21.13h0c.07,0,.15-.04.2-.1.05-.06.07-.14.06-.21-.55-3.07-.49-5.42.17-7.63.02-.08,0-.16-.04-.23-.05-.07-.14-.12-.23-.12Z"/>
            <path class="cls-4" d="M64.99,56.49c-.07,0-.18.02-.28.13-.69.75-.84,1.85-.98,2.83l-.04.28c-.2,1.38-.14,2.64.16,3.74.03.1.12.17.23.17s.2-.07.22-.18c.15-.87.22-1.77.29-2.63.02-.24.08-.94.08-.94.04-.47.08-.95.16-1.42.07-.46.17-.93.46-1.29.11-.13.13-.3.06-.45-.07-.15-.21-.24-.36-.24Z"/>
            <path class="cls-4" d="M41.9,66.91c-1.24-1.09-2.79-1.89-4.89-2.5-.05-.01-.09-.02-.14-.02-.21,0-.38.16-.42.38-.03.19.05.43.31.51,3.37,1.13,5.89,3.48,6.74,6.28.04.12.15.2.28.2h0c.08,0,.15-.03.21-.08.05-.05.08-.12.08-.2-.02-1.71-.81-3.38-2.16-4.57Z"/>
            <path class="cls-4" d="M37.04,74.05c-1.65-1.94-4.23-3.05-7.28-3.11-.09,0-.18,0-.27,0-1.53,0-3.03.27-4.48.79-.15.05-.23.19-.21.34.03.15.15.26.3.26.02,0,.04,0,.06,0,1.32-.23,2.48-.35,3.55-.35,1.49,0,2.8.22,4.01.67,2.16.81,3.9,2.46,4.78,4.53.24.58.39,1.16.45,1.73.02.24,0,.5-.01.75-.02.35-.05.72.03,1.06.03.14.17.24.32.24.09,0,.17-.04.22-.1.37-.44.4-1.11.42-1.64.02-.57-.04-1.18-.18-1.8-.26-1.2-.84-2.33-1.71-3.35Z"/>
            <path class="cls-4" d="M37.92,81.65c-.07,0-.14.07-.14.14s.07.14.14.14.14-.07.14-.14-.07-.14-.14-.14Z"/>
            <path class="cls-4" d="M79.45,68.48c-.07-.03-.14-.05-.21-.05-.23,0-.45.17-.5.4-.05.21.04.4.24.5,1.42.75,2.43,2.31,2.77,4.29.17.99.19,2.05.06,3.24-.08.7-.22,1.4-.37,2.08-.11.53-.22,1.07-.3,1.62-.01.1,0,.19.07.25.06.06.14.1.22.1.12,0,.23-.08.28-.2.48-1.15.88-2.49,1.13-3.88.26-1.4.28-2.59.08-3.64-.43-2.17-1.72-3.94-3.46-4.72Z"/>
            <path class="cls-4" d="M88.18,69.73c-.26-1.17-.9-2.34-1.79-3.29-.09-.1-.2-.15-.32-.15-.17,0-.34.11-.41.28-.08.17-.05.36.07.51.67.8,1.11,1.76,1.34,2.94.07.33.09.67.11,1,.01.2.03.4.05.59.05.48.04.98-.04,1.63,0,.07.01.15.06.2.06.06.14.1.23.1.11,0,.2-.05.25-.15.23-.46.4-.99.56-1.71.14-.64.02-1.35-.12-1.96Z"/>
          </g>
        </g>
      </g>
      <rect class="cls-3" width="100" height="100"/>
    </g>
  </g>
</svg>