<?xml version="1.0" encoding="UTF-8"?>
<svg id="Capa_2" data-name="Capa 2" xmlns="http://www.w3.org/2000/svg" viewBox="0 0 100 100">
  <defs>
    <style>
      .cls-1 {
        fill: #5a992f;
      }

      .cls-2 {
        fill: #accc97;
      }

      .cls-3 {
        fill: #fff;
      }

      .cls-4 {
        fill: none;
      }

      .cls-5 {
        fill: #4a2d2d;
      }

      .cls-6 {
        fill: #c0c728;
      }
    </style>
  </defs>
  <g id="COLOR">
    <g>
      <g>
        <g>
          <g>
            <path class="cls-6" d="M15.38,37.84c.06-.04.11-.09.14-.17.77-2.01.45-4.63-.26-6.61-.49-1.37-1.53-3.7-3.32-3.7-3.1,0,1.8,8.7,2.76,10.44-.81-.55-2.01-1.06-2.92-1.37-1.22-.42-2.7-.95-4-1.04-1.21-.08-3.17.19-2.64,1.83.48,1.47,2.46,1.95,3.78,2.22,2.11.44,4.32.15,6.18-.97.26-.16.33-.41.28-.64Z"/>
            <path class="cls-6" d="M19.82,43.63c.15-.22.13-.25-.16-.4-2.1-1.06-4.68-1.91-7.04-1.67-1.11.11-4.11.64-3.98,2.25.14,1.73,2.67,1.75,3.87,1.79,2.34.08,5.03-.81,7.13-1.88.29-.15.22.14.17-.09Z"/>
            <path class="cls-6" d="M18.45,35c-.5,2.32-.45,4.77.24,7.04.09.29.2.67.43.63.08.19.08.3.28.11,1.49-1.38,2.46-3.37,2.78-5.34.26-1.58.41-4-1.1-5.08-1.71-1.22-2.39,1.52-2.63,2.64Z"/>
            <path class="cls-6" d="M24.78,51c.06.01.13.02.19,0-.09.44.1.7.41.29,1.32-1.78,2.32-3.68,2.59-5.85.18-1.48.28-3.74-1.5-4.35-2.91-.99-2.03,7.34-1.8,9.47-2.1-1.06-4.72-1.89-7.06-2.08-1.06-.08-2.92-.07-3.04,1.39-.14,1.68,2.34,2.3,3.56,2.48,2.01.3,4.71-.33,6.51-1.35.18-.1.16.15.14-.01Z"/>
            <path class="cls-6" d="M28.16,57.99c-1.35-1.35-3.92-1.87-5.72-2.03-1.11-.1-4.32-.16-3.7,1.73.49,1.5,2.59,1.72,3.89,1.86,1.8.2,4.16.11,5.6-1.12.29-.25.26-.39-.08-.44Z"/>
            <path class="cls-6" d="M29.35,59.64c1.07-1.95,2.47-4.04,2.73-6.27.13-1.08-.08-2.91-1.05-3.61-1.33-.96-2.06,1.44-2.23,2.31-.43,2.22-.13,5.66.21,7.49.01.08-.23-.2-.18-.15-.22.45.27.7.52.24Z"/>
          </g>
          <path class="cls-5" d="M10.36,34.26c2.82,2.11,5.23,4.83,7.42,7.58s4.2,5.52,5.98,8.49,3.26,5.89,4.44,9.03c.57,1.52,1.05,3.07,1.44,4.65.43,1.71.62,3.48,1.1,5.17.19.67,1.22.59,1.24-.13.06-3.27-1.28-6.76-2.47-9.76-1.33-3.36-3.04-6.56-4.96-9.62-3.74-5.96-8.03-11.9-13.83-16-.37-.26-.73.33-.37.6h0Z"/>
        </g>
        <g>
          <path class="cls-3" d="M38.91,35.54s-1.09,9.65-1.63,17.26c-.54,7.61-.27,21.2,0,23.92s.68,5.44.68,5.44c0,0-4.54,4.8-3.76,5.73s7.16,2.97,16.54,2.97,16.99-2.04,17.4-3.13-2.58-4.76-2.58-6.25.54-22.42.27-29.76c-.27-7.34-1.9-15.63-1.9-15.63l-25.01-.54Z"/>
          <g>
            <path class="cls-5" d="M68.49,85.3c-.48-1.15-1.06-2.29-1.94-3.18,1.21-7.39,1-15.14.76-22.59-.12-3.82-.37-7.63-.79-11.43-.4-3.69-.62-7.68-1.65-11.25-.25-.88-1.61-.72-1.61.22,0,3.65.69,7.38.94,11.03.26,3.81.47,7.62.59,11.43.25,7.53-.36,15.03-.24,22.54,0,.2.07.38.17.52.03.07.06.14.11.21.65.95,1.44,1.8,1.96,2.83.17.33.69,1.25.64,1.59-.05.33-.04.22-.4.4-1.18.57-3.17.54-4.44.71-3.87.52-7.78.67-11.68.63-3.65-.04-7.37-.03-10.98-.65-1.09-.18-2.72-.23-3.72-.75-.18-.1-.43-.18-.4-.1-.11-.28.62-1.76.66-1.84.51-1.04,1.31-1.89,1.96-2.83.05-.07.08-.14.1-.2.1-.15.17-.32.17-.53.12-7.52-.49-15.01-.24-22.54.12-3.7.32-7.39.57-11.08.25-3.77.95-7.61.96-11.38,0-.93-1.36-1.11-1.61-.22-.99,3.47-1.2,7.32-1.61,10.9-.44,3.91-.7,7.84-.83,11.78-.24,7.45-.45,15.21.76,22.59-.88.89-1.46,2.03-1.94,3.18-.29.7-.83,1.79-.58,2.59.34,1.09,2.28,1.84,3.22,2.23,2.05.84,4.31,1.21,6.5,1.46,3.71.43,7.46.47,11.19.2,3.44-.24,7.3-.46,10.53-1.71.94-.36,3.16-1.08,3.49-2.18.24-.79-.33-1.93-.62-2.6Z"/>
            <g>
              <path class="cls-1" d="M68.19,20.48c.4-1.31.88-2.1-.04-3.28-1.15-1.47-2.49-3.08-3.97-4.22-2.93-2.25-7.62-1.51-11.08-1.5-2.19,0-4.38,0-6.57.04-1.92.04-4.08-.12-5.93.48-1.41.46-2.59,1.55-3.53,2.67-.8.96-2.76,2.52-2.83,3.85-.03.62.38,1.32.56,1.89.33,1.02.59,2.06.78,3.12.42,2.41.46,4.88.05,7.29-.27,1.56-1.33,3.62-.68,5.19.65,1.56,2.84,1.84,4.28,2.04,7.76,1.1,15.75,1.51,23.55.54,3-.37,6.24-1.14,5.43-4.85-.98-4.53-1.41-8.73-.02-13.26Z"/>
              <path class="cls-5" d="M39.6,83.11c2.18.55,4.39.89,6.63,1.02,5.77.34,11.79.39,17.44-1.02.37-.09.3-.73-.09-.68-5.57.67-11.4.77-17,.58-2.3-.08-4.6-.3-6.89-.58-.39-.05-.46.59-.09.68Z"/>
              <path class="cls-3" d="M62.3,19.3c.3.11.64.1.95.07.33-.03.67-.1.86-.4.12-.2.03-.42-.14-.55-.24-.17-.54-.12-.82-.1s-.57.02-.85.08c-.49.11-.41.76,0,.91h0Z"/>
              <path class="cls-3" d="M37.62,18.92c3.22.42,6.44.69,9.69.79,2.08.06,4.17.08,6.25.02s4.64.09,6.75-.52c.44-.13.3-.69-.1-.75-2.25-.28-4.7.16-6.96.21-2.07.05-4.14.06-6.21.01-3.14-.07-6.28-.22-9.41-.5-.48-.04-.46.67,0,.73h0Z"/>
              <path class="cls-2" d="M59.92,51.09c-.18-2.91-2.8-3.3-5.3-3.44-2.6-.14-5.2.16-7.78.39-.51.05-1.09.04-1.58.18-1.69.47-1.89,1.69-1.97,3.22-.1,1.97-.15,3.94-.15,5.91,0,4.18.23,8.34.57,12.51.07.88-.08,2.22.28,3.04.56,1.27,1.92,1.42,3.14,1.57,2.82.35,5.82.36,8.64.04,1.1-.13,2.01-.15,2.84-.89.83-.75.71-1.65.8-2.72.3-3.7.57-7.39.65-11.11.05-1.97.04-3.94-.02-5.91-.03-.93-.06-1.85-.11-2.78Z"/>
              <path class="cls-3" d="M46.04,50.02c-1.02.48-1.99,1.89-1.58,3.04.15.43.47.75.94.81s.84-.16,1.12-.54c.15-.19.23-.42.31-.65,0-.02.08-.24.04-.13-.03.06-.02.05,0-.02.05-.12.1-.23.15-.35-.06.12-.01.04.03-.03s.08-.14.12-.2c.1-.16.21-.32.32-.48.27-.38.14-.98-.17-1.29-.35-.35-.86-.37-1.29-.17h0Z"/>
              <path class="cls-3" d="M56.51,71.4l.05-.1c.04-.1.1-.2.12-.3.01-.07.02-.14.03-.2.02-.08.02-.15,0-.23,0-.04,0-.08-.02-.12-.01-.04-.03-.07-.04-.11-.03-.1-.09-.2-.17-.27-.17-.16-.38-.24-.62-.25-.08,0-.21.03-.31.04-.11.01-.21.07-.3.12-.04.02-.07.03-.11.05-.15.09-.27.21-.36.36-.09.16-.14.33-.14.51.01.27.1.52.3.71.18.18.45.3.71.3.18,0,.35-.05.51-.14.15-.09.27-.21.36-.36h0Z"/>
              <path class="cls-5" d="M61.64,52.48c-.12-1.65.04-3.87-1.47-4.96-1.4-1.01-3.53-.92-5.17-1.03-3.31-.23-6.6-.19-9.88.31-1.78.27-2.98.97-3.31,2.84-.47,2.61-.44,5.42-.5,8.06-.06,2.78.03,5.57.21,8.35.16,2.35.2,5.02.98,7.26.58,1.66,1.88,2.16,3.49,2.43,2.61.45,5.28.58,7.92.39,2.07-.15,5.38-.11,6.54-2.2.95-1.72.93-4.25,1.09-6.15.22-2.54.35-5.1.35-7.65,0-2.55-.09-5.11-.27-7.65ZM60.05,59.78c-.08,3.72-.35,7.41-.65,11.11-.09,1.06.03,1.97-.8,2.72-.83.74-1.74.77-2.84.89-2.82.33-5.82.31-8.64-.04-1.22-.15-2.58-.3-3.14-1.57-.36-.82-.21-2.16-.28-3.04-.33-4.17-.57-8.33-.57-12.51,0-1.97.05-3.94.15-5.91.08-1.53.27-2.74,1.97-3.22.49-.14,1.07-.14,1.58-.18,2.59-.23,5.18-.53,7.78-.39,2.5.14,5.12.53,5.3,3.44.06.93.09,1.85.11,2.78.06,1.97.06,3.94.02,5.91Z"/>
            </g>
          </g>
        </g>
        <g>
          <path class="cls-1" d="M15.26,81.83c.06,3.2,3.46,3.31,5.76,2.45,2.43-.91,4.64-2.83,6.54-4.62-1.1,4.7-1.89,13.42,3.63,13.81,2.78.19,3.87-2.72,3.42-5.03-.55-2.83-2.85-6.78-4.81-9.08,1.99.89,5.03,1.69,7.2,1.36,2.35-.36,5.13-1.86,5.19-4.56.07-2.96-3.83-3.18-5.95-2.84-2.33.37-4.61,2.14-6.52,3.45.64-4.72-2.03-12.7-7.35-10.74-2.91,1.07-2.5,4.57-1.06,6.7,1.43,2.12,3.31,3.21,4.56,4.22-1.76-.42-4.88-.59-6.32-.06-2.08.76-4.34,2.56-4.29,4.96Z"/>
          <path class="cls-5" d="M28.61,78.07c.71.13,1.41.24,2.14.29s1.48.04,2.22,0,1.48-.1,2.21-.22c.35-.06.7-.12,1.04-.2.31-.07.62-.12.86-.34.13-.12.02-.29-.11-.34-.32-.11-.69,0-1.02.05s-.64.09-.96.13c-.71.09-1.42.17-2.14.22-1.39.09-2.83.11-4.22.06-.2,0-.22.32-.02.36h0Z"/>
          <path class="cls-5" d="M28.7,77.54c-.6-1.17-1.12-2.42-1.61-3.65-.24-.59-.46-1.19-.69-1.79s-.39-1.3-.79-1.81c-.1-.12-.35-.12-.37.07-.06.63.18,1.29.36,1.89.2.67.46,1.31.74,1.95.56,1.27,1.23,2.42,1.98,3.58.16.24.49,0,.37-.24h0Z"/>
          <path class="cls-5" d="M28.51,77.57c-1.31.77-2.78,1.23-4.27,1.52-.73.14-1.46.24-2.19.31s-1.46.13-2.17.36c-.12.04-.12.24.02.26.75.12,1.5.05,2.25-.04s1.55-.21,2.32-.37c1.51-.32,2.95-.87,4.22-1.75.18-.12,0-.39-.18-.28h0Z"/>
          <path class="cls-5" d="M30.51,85.71c-.37-1.29-.65-2.61-.9-3.92-.12-.64-.21-1.28-.31-1.92-.05-.32-.1-.65-.15-.98s-.04-.7-.18-1c-.12-.25-.48-.26-.55.03-.08.33,0,.68.02,1.01.03.35.06.7.11,1.04.08.65.2,1.3.33,1.95.27,1.35.68,2.65,1.18,3.93.11.29.54.14.45-.15h0Z"/>
        </g>
        <g>
          <path class="cls-1" d="M75.89,53.34c1.77.72,2.63-1.11,2.7-2.58.07-1.55-.46-3.21-.99-4.68,2.32,1.71,6.92,4.2,8.43,1.26.76-1.48-.58-2.76-1.95-3.06-1.68-.37-4.39-.03-6.11.5.96-.88,2.11-2.36,2.44-3.63.36-1.37.19-3.25-1.28-3.92-1.61-.73-2.65,1.35-2.96,2.59-.35,1.37.09,3.03.35,4.39-2.44-1.47-7.45-1.88-7.63,1.5-.1,1.85,1.92,2.45,3.42,2.16s2.54-1.06,3.39-1.51c-.64.87-1.47,2.54-1.52,3.45-.07,1.32.38,2.98,1.71,3.53Z"/>
          <path class="cls-5" d="M76.97,45.13c.24-.36.46-.72.66-1.1s.37-.8.52-1.22.29-.84.4-1.26c.05-.21.1-.41.13-.62.03-.19.08-.37.02-.55-.03-.1-.16-.08-.21-.02-.13.15-.16.38-.21.57s-.1.37-.16.56c-.12.41-.24.82-.39,1.23-.28.78-.6,1.58-.96,2.33-.05.11.12.2.19.1h0Z"/>
          <path class="cls-5" d="M76.7,44.96c-.79.05-1.59.04-2.38.02-.38-.01-.76-.03-1.14-.05s-.81-.09-1.18,0c-.09.02-.15.16-.05.22.33.18.75.21,1.12.25.41.05.83.06,1.25.05.83,0,1.62-.11,2.43-.24.17-.03.12-.27-.05-.26h0Z"/>
          <path class="cls-5" d="M76.67,45.07c.12.9.02,1.82-.17,2.7-.09.43-.21.86-.35,1.28s-.27.83-.31,1.28c0,.08.1.12.15.05.24-.39.38-.81.51-1.25s.25-.9.34-1.36c.18-.9.22-1.82.03-2.73-.03-.13-.21-.09-.19.03h0Z"/>
          <path class="cls-5" d="M81.61,45.89c-.79-.1-1.58-.26-2.36-.43-.38-.09-.75-.19-1.12-.28-.19-.05-.38-.1-.57-.15s-.39-.14-.59-.13c-.16,0-.26.2-.11.31.16.12.37.16.56.23.2.06.4.13.6.19.38.11.76.2,1.15.28.8.17,1.61.25,2.43.28.18,0,.21-.26.02-.29h0Z"/>
        </g>
        <g>
          <g>
            <path class="cls-6" d="M78.06,68.63c.22,1.46.4,2.92.4,4.4,0,1.39-.24,2.74-.38,4.12-.01.11.04.18.11.22-.18.45.46.8.84.5,2.28-1.85,4.23-4.23,6.21-6.39,1.77-1.93,3.65-3.81,5.1-6,1.06-1.59,2.43-4.27,1.03-6.09-.6-.77-1.7-.39-2.47-.12-.75.27-1.45.65-2.13,1.07.39-2,.66-5.28-1.62-4.39-1.67.65-2.58,2.62-3.22,4.47-.3-1.4-.91-2.76-2.19-3.19-2.24-.76-2.68,1.77-2.65,3.36.05,2.7.55,5.38.96,8.04Z"/>
            <path class="cls-6" d="M91.45,81.51c-.67-.63-1.48-1-2.34-1.26,1.34-.49,2.7-1.24,3.5-2.31.37-.49.45-1.1.1-1.63-.5-.74-1.4-.8-2.2-.71-4.37.48-8.71,1.8-12.73,3.57.09-1.99-.19-4.02-.54-5.97-.42-2.33-1.08-4.67-2.06-6.82-.56-1.23-1.87-3.17-3.47-2.18-1,.61-1.18,1.93-1.08,3.15-.69-.56-1.48-1.03-2.34-1.15-1.2-.18-2.22.55-2.52,1.71-.33,1.3.4,2.66,1.14,3.69.26.35.54.69.85,1-.16-.02-.31-.03-.46-.05-1.1-.11-2.42-.19-3.5.14-2.21.68-1.15,2.86-.09,4.08,3.14,3.62,8.63,4.45,13.16,3.93.16,1.79,1.37,3.53,2.52,4.85,1.28,1.47,2.94,2.7,4.78,3.36,1.28.46,3.8.98,4.16-.9.15-.79-.17-1.71-.42-2.45-.11-.35-.26-.67-.42-.99.69.33,1.42.56,2.22.67.88.12,2.43.28,2.82-.77.38-1.03-.34-2.27-1.07-2.96Z"/>
          </g>
          <path class="cls-5" d="M68.98,91.75c1.92-1.52,3.53-3.55,5.01-5.49s2.91-4.18,4.04-6.46c1.08-2.18,2.06-4.41,2.83-6.71.4-1.18.76-2.37,1.03-3.59s.66-2.52.63-3.77c0-.35-.47-.39-.59-.08-.44,1.15-.59,2.42-.94,3.61-.32,1.1-.63,2.19-1,3.27-.8,2.36-1.77,4.68-2.98,6.87-1.15,2.09-2.39,4.13-3.78,6.07-1.47,2.04-3.2,3.83-4.77,5.77-.3.37.15.81.52.52h0Z"/>
          <path class="cls-5" d="M72.09,74.86c.9.94,1.74,1.95,2.56,2.97.4.5.79,1.01,1.18,1.51.2.25.39.5.6.75.18.21.4.54.68.62.07.02.15-.04.15-.11,0-.28-.24-.57-.39-.79-.18-.28-.38-.55-.58-.81-.39-.52-.8-1.02-1.21-1.52-.84-1.02-1.75-1.97-2.75-2.83-.15-.13-.36.07-.22.22h0Z"/>
          <path class="cls-5" d="M77.49,80.22c1.2.11,2.41.23,3.61.35.54.05,1.08.1,1.61.21s1,.27,1.5.42c.1.03.15-.09.09-.16-.68-.84-2.02-.85-3.02-.95-1.26-.12-2.53-.19-3.8-.17-.19,0-.19.28,0,.3h0Z"/>
        </g>
      </g>
      <rect class="cls-4" width="100" height="100"/>
    </g>
  </g>
</svg>