<?xml version="1.0" encoding="UTF-8"?>
<svg id="Capa_2" data-name="Capa 2" xmlns="http://www.w3.org/2000/svg" viewBox="0 0 100 100">
  <defs>
    <style>
      .cls-1 {
        fill: #9bb433;
      }

      .cls-2 {
        fill: #fff;
      }

      .cls-3 {
        fill: none;
      }

      .cls-4 {
        fill: #4a2d2d;
      }

      .cls-5 {
        fill: #83a04e;
      }

      .cls-6 {
        fill: #79963e;
      }
    </style>
  </defs>
  <g id="COLOR">
    <g>
      <g>
        <g id="Capa_2-2" data-name="Capa 2">
          <g id="bocetos">
            <path class="cls-1" d="M91.03,34.66c-.86-2.51-1.49-5.22-3.22-7.31-.9-1.1-2.55-2.21-4.11-2.26-.24,0-.48.01-.72.06.04-.05.08-.09.11-.14.05-.07.11-.13.16-.2h0c.63-.8,1.19-1.69,1.58-2.63.87-2.12.39-4.6-.77-6.51-.07-.12-.22-.2-.35-.12-.6.32-1.28.55-1.9.85-.6.29-1.21.57-1.82.86-1.08.52-2.18,1.08-3.06,1.91-.71.65-1.24,1.47-1.55,2.38h0c-.05.14-.09.29-.12.43-.06-.08-.12-.16-.19-.24-.25-.31-.55-.59-.87-.84-.53-.4-1.15-.68-1.8-.81-1.76-.39-3.54.09-5.13.85-.95.45-1.86.97-2.74,1.55-.67.46-.44.97-.09,1.6.87,1.57,2.35,2.99,3.93,3.83.93.5,1.97.75,3.02.74.11,0,.22,0,.33,0,.15,0,.29-.01.44-.02-.06.13-.13.26-.18.39h0c-.2.45-.34.93-.44,1.41-.47,2.41.16,5.1.99,7.37.06.16.29.22.42.15,1.44-.79,2.81-1.65,4.07-2.71.75-.63,1.67-1.36,2.33-2.2.08-.09.15-.19.22-.29.11.16.23.31.35.45.5.59,1.11,1.08,1.78,1.44,2.72,1.48,6.09,1.25,9.01.6.29-.06.38-.33.3-.58Z"/>
            <path class="cls-4" d="M80.77,24.58c-.88-.33-1.95-.18-2.67.43-.07.06-.14.13-.21.21-.33-.82-1.13-1.42-1.95-1.71-1.27-.45-2.48-.13-3.7.29-.11.04-.13.18-.09.27.23.66.64,1.28,1.04,1.85.38.53.79,1.04,1.37,1.33.89.45,2.06.3,2.9-.23.15.59.55,1.09,1.09,1.37.64.33,1.42.28,2.13.27.82-.02,1.62-.08,2.41-.28.15-.04.31-.2.25-.37-.47-1.44-1.05-2.85-2.58-3.43ZM74.48,26.56c-.74-.59-1.41-1.62-1.86-2.47,1.89-.68,4.1-.5,5.06,1.37-.11.23-.22.47-.24.72,0,0-.09.43-.1.43-.96.34-1.96.67-2.86-.05ZM79.65,28.21c-.55-.03-1.17-.33-1.51-.79-.3-.42-.29-.99-.24-1.46.2-.37.57-.75.95-.92.55-.25,1.36-.18,1.93.03,1.07.4,1.77,1.85,2.04,2.93-1.01.11-2.16.27-3.17.22h0Z"/>
            <path class="cls-4" d="M77.49,26.77c-.87.69-1.64,1.5-2.28,2.41-.62.87-1.1,1.85-1.35,2.89-.07.28-.12.57-.14.86-.02.3.01.61.08.9,0,.04.05.07.1.06.03,0,.06-.04.06-.07.04-.26.08-.51.12-.76s.07-.49.12-.73c.1-.5.26-.98.46-1.45.42-.96,1.03-1.82,1.7-2.61.4-.47.82-.91,1.23-1.37.04-.03.04-.08,0-.12s-.08-.04-.12,0h0Z"/>
            <path class="cls-4" d="M82.2,28.58c.83.36,1.66.76,2.43,1.25.76.5,1.46,1.08,2.09,1.74.18.19.35.38.52.58.16.18.34.39.55.51.03.02.07,0,.09-.03,0-.01,0-.03,0-.04-.09-.43-.46-.82-.74-1.13-.95-1.05-2.1-1.9-3.37-2.51-.48-.23-.99-.41-1.51-.53-.04-.01-.09.01-.1.06-.01.04,0,.08.05.1h0Z"/>
            <path class="cls-4" d="M81.75,18.27c-1.98,1.06-3.33,3.08-3.74,5.28-.11.59-.19,1.26,0,1.84.04.11.19.05.21-.04.09-.52.06-1.05.14-1.58.07-.52.2-1.04.39-1.53.37-1,.95-1.91,1.68-2.68.42-.44.89-.82,1.4-1.14.09-.06.02-.21-.08-.16h0Z"/>
            <path class="cls-4" d="M66.33,23.56c1.09-.08,2.2-.14,3.29-.03.47.05.94.14,1.4.27.23.07.46.15.68.25.21.09.42.22.65.25.11.02.16-.12.1-.2-.15-.19-.41-.3-.62-.4-.22-.1-.45-.18-.68-.25-.48-.14-.97-.22-1.47-.26-1.13-.09-2.26.06-3.38.19-.12.01-.08.19.03.18h0Z"/>
            <path class="cls-4" d="M73.95,24.91c.73.06,1.47.15,2.15.44.3.13.58.3.83.5.13.1.25.21.36.33.11.12.22.22.34.32.03.02.07.01.08-.02,0-.01.01-.03,0-.04-.03-.16-.1-.31-.2-.44-.1-.14-.22-.27-.36-.38-.28-.23-.59-.42-.92-.56-.73-.3-1.53-.38-2.31-.33-.1,0-.09.17,0,.18h0Z"/>
            <path class="cls-4" d="M77.83,26.28c.54-.12,1.09-.13,1.63-.01.26.05.51.14.75.25.12.06.25.12.37.17.11.05.22.12.34.08.03-.01.05-.04.05-.07,0-.13-.12-.22-.21-.3-.12-.1-.25-.18-.39-.24-.27-.12-.56-.21-.85-.26-.59-.1-1.2-.04-1.76.17-.12.04-.05.24.07.21h0Z"/>
            <path class="cls-4" d="M74.29,26.97c-1.33.78-2.18,1.79-2.11,1.66-.15,0-.3.02-.44.02.07-.08.13-.17.2-.25.3-.36.64-.69,1.01-.97.19-.14.39-.27.59-.39.21-.11.43-.21.66-.28.06-.02.13.02.14.08.01.04,0,.09-.04.12Z"/>
            <path class="cls-4" d="M79.29,30.4c.05,1.45.41,2.5.29,2.34-.07.1-.14.19-.22.29-.15-.42-.26-.86-.33-1.31-.08-.57-.11-1.15-.07-1.73.02-.29.05-.58.09-.86.04-.25.06-.6.24-.8.04-.04.15-.02.14.03-.08.51-.17,1.76-.16,2.03Z"/>
            <path class="cls-4" d="M83.7,25.09c-.29.09-.58.2-.86.33-.26.12-.52.31-.81.36-.05,0-.1-.03-.11-.08,0-.02,0-.05.01-.07.16-.26,1.07-.54,1.04-.49.24-.05.48-.07.72-.06Z"/>
            <path class="cls-4" d="M75.39,22.88c.01.12.03.25.05.37s.06.23.02.35c-.01.03-.05.05-.08.04,0,0-.02,0-.02-.02-.09-.08-.11-.22-.14-.33-.04-.14-.07-.27-.09-.41-.04-.27-.07-.53-.07-.8,0-.11,0-.22,0-.34.06.08.13.16.19.24.06.3.1.6.13.9Z"/>
            <path class="cls-2" d="M68,21.88c.11-.05.21-.09.32-.13.13-.05.29-.08.38-.18.13-.14.11-.35-.08-.42-.3-.12-.69.13-.89.33-.19.19,0,.52.27.4h0Z"/>
            <path class="cls-2" d="M79.58,18.49s0-.02,0-.03v-.07s-.02-.07-.05-.1c-.01-.02-.03-.04-.05-.05-.02-.03-.05-.04-.09-.06-.03,0-.07-.02-.1-.02h-.08s-.08.03-.08.03c-.04.02-.07.04-.09.07-.02.02-.03.04-.04.06-.01.02-.02.05-.03.07-.01.05,0,.11,0,.16,0,.04.03.08.06.1l.06.05.07.04.08.02h.08s.08-.03.08-.03c.04-.02.07-.04.09-.07.02-.02.04-.04.04-.06.02-.03.03-.07.03-.11h0Z"/>
            <path class="cls-2" d="M74.92,24.41c.1-.02.23-.03.31-.11.09-.07.1-.2.02-.29-.02-.03-.05-.05-.09-.06-.1-.05-.22-.01-.33,0-.13,0-.23.12-.22.25s.12.23.25.22c.02,0,.04,0,.06-.01Z"/>
            <path class="cls-2" d="M75.79,24.71s.09.03.13.05c.05.01.11,0,.16,0,.07-.02.13-.07.15-.14.02-.06.02-.13-.01-.18-.02-.05-.06-.08-.1-.11-.05-.03-.1-.05-.16-.07-.06-.02-.13-.02-.19.01-.06.03-.1.08-.12.14-.04.13.02.27.15.32h0Z"/>
            <path class="cls-2" d="M81.05,26.36l.06.05s.05.04.07.06c.03.02.06.03.09.04.1.05.23.06.31-.02.09-.09.1-.24.03-.34-.02-.04-.04-.07-.07-.11-.02-.02-.04-.04-.07-.06-.05-.05-.12-.09-.19-.1-.15-.01-.29.1-.31.26,0,.08.02.15.07.21h0Z"/>
            <path class="cls-2" d="M72.71,29.37c-.15.18-.28.38-.38.59-.11.22-.21.47-.09.7.07.14.23.19.37.13.22-.12.28-.35.37-.57.08-.2.16-.39.24-.59.05-.14-.01-.29-.14-.35-.14-.07-.27-.02-.37.09h0Z"/>
            <path class="cls-2" d="M72.29,32.13c-.05.05-.08.11-.1.18-.02.06-.02.12-.02.18,0,.03.02.07.03.1.05.11.17.18.3.18.18-.01.31-.17.3-.35,0-.02,0-.04-.01-.06-.01-.07-.04-.13-.08-.18-.02-.02-.03-.04-.05-.05-.09-.1-.23-.11-.33-.02-.01.01-.03.03-.04.04h0Z"/>
            <path class="cls-2" d="M87.56,29.56l.04.02s.05.03.08.03c.01,0,.03,0,.04,0,.04,0,.09,0,.13-.02.04,0,.08-.03.11-.06l.05-.06s.05-.1.06-.16c0-.03,0-.07,0-.1-.01-.06-.04-.11-.07-.16-.08-.09-.19-.13-.31-.11-.08.02-.16.07-.21.14-.1.15-.07.36.08.46h0s0,0,0,0Z"/>
          </g>
        </g>
        <g id="Capa_2-3" data-name="Capa 2">
          <g id="bocetos-2" data-name="bocetos">
            <path class="cls-5" d="M45.63,6.22c-1.11.04-2.23,2.43-2.6,3.22-.85,1.77-1.4,3.7-1.8,5.61-.36,1.72-.58,3.46-.66,5.21-.05,1.14-.16,2.52-.02,3.76,0-.01-.02-.03-.03-.04-3.23-2.37-5.73-5.49-8.25-8.56-.81-.99-4.07-5.67-5.63-3.81-.7.84.17,1.84.74,2.49,1.3,1.47,2.68,2.86,4.13,4.18,1.35,1.23,2.77,2.39,4.23,3.48,1.46,1.1,2.96,2.28,4.61,3.05.11.05.25,0,.32-.1.05.24.12.48.21.71.08.22.47.2.51-.04.04-.2.06-.4.08-.6.07.65.18,1.3.34,1.94.03.11.14.18.26.15.1-.03.17-.13.15-.23-.54-4.31.06-8.35,1.61-12.41.3-.78,3.88-8.11,1.8-8.03Z"/>
            <path class="cls-5" d="M45.26,33.25s.06.07.09.1c.08.09.22.1.32.03.05-.02.1-.07.11-.12.56-1.74,1.28-3.44,1.75-5.19.4-1.47.57-3.05.66-4.57.09-1.22-.02-2.45-.31-3.64-.25-.99-.66-2.81-1.47-3.48-.69-.56-1.42-.16-1.62.61-.36,1.42.37,3.35.5,4.79.17,1.88.18,3.77.04,5.66-.1,1.45-.42,2.92-.54,4.38-.3-.37-.61-.72-.94-1.05-1.85-2.43-4.04-4.59-6.49-6.41-1.46-1.09-3.02-2.05-4.65-2.87-1.23-.62-2.5-1.34-3.91-1.08-.14.03-.23.17-.19.31,0,.04.03.08.06.11,4.67,4.88,11.36,7.08,16.08,11.9,0,.09,0,.18-.01.27,0,.19.16.33.34.33.06,0,.13-.02.18-.06Z"/>
            <path class="cls-5" d="M36.34,30.4c1.96,1.18,2.87,1.91,5.38,3.52,1.56,1,3.91,2.47,5.42,3.03.13.11-.14.48-.01.6.16.15.42-.06.26-.23-.03-.03-.06-.06-.09-.1.16-.13.11-.46-.11-.57-.29-.14-.57-.29-.85-.44-2.68-2.77-5.6-5.41-8.69-7.68-1.76-1.31-3.64-2.45-5.61-3.4-.74-.35-3.02-1.66-3.77-.58-.67.98,1.64,2.31,2.21,2.64,1.92,1.13,3.96,2.05,5.87,3.21Z"/>
            <path class="cls-5" d="M37.01,33.66c2.12.64,3.95,1.61,5.89,2.66.3.16.58-.13.28-.4-.16-.15-.33-.29-.5-.42-2.44-2.49-6.03-4.06-9.24-5.2-1.67-.59-3.45-1.29-5.22-1.51-.69-.09-1.76-.2-2.35.28-2.09,1.73,4.86,2.96,5.49,3.12,1.89.45,3.78.91,5.65,1.47Z"/>
            <path class="cls-5" d="M52.86,17.56c-1.24,1.88-2.16,3.95-2.89,6.08-1.31,3.82-2.63,8.19-2.53,12.3,0,.58.04,1.16.13,1.74.06.33.5.25.55-.04.4-2.37.53-4.68,1.24-7,.74-2.43,1.81-4.76,3.03-6.99,1.12-2.06,2.51-3.98,3.55-6.08.37-.75,1.06-2.48-.45-2.46-1.18,0-2.1,1.64-2.63,2.45Z"/>
            <path class="cls-5" d="M58.58,25.75c-.73.78-1.39,1.62-1.99,2.5-1.22,1.77-2.22,3.69-3.08,5.65-1.65,3.73-2.75,7.74-3.11,11.8v.05c-.24-.26-.51-.48-.81-.66-.97-1.32-2.18-2.35-3.49-3.41-1.06-.86-2.14-1.69-3.24-2.5.16-.01.32-.04.48-.05.9-.07,1.84-.12,2.74.02.46.08.9.21,1.33.4.25.11.5.22.75.34.03.01.07.02.1.01.09.04.18.07.27.11.08.03.17,0,.23-.06h0c0,.07.01.15.02.23.05.33.51.25.55-.04.51-3.56,2.85-6.95,4.76-9.93.39-.61,4.09-5.12,1.85-5.47-.89-.14-2.01.94-2.52,1.53-1.02,1.17-1.69,2.65-2.31,4.05-1.1,2.51-1.85,5.17-2.22,7.88-.11.47-.16.95-.16,1.43-.69-1.01-1.93-1.37-3.19-1.47-1.58-.53-3.23-.82-4.9-.86-.16,0-.33,0-.49,0-1.57-1.06-3.17-2.11-4.96-2.77-1.12-.41-3.84-1.63-5.02-.87-1.25.81.71,1.89,1.27,2.25,1.28.81,2.64,1.46,4.01,2.11-.71.21-1.45.53-1.79,1.08-.36.58-.17,1.28.49,1.51.59.2,1.36-.13,1.93-.27.77-.18,1.54-.35,2.32-.49.18-.03.37-.06.55-.1,1.64.86,3.25,1.76,4.84,2.7,1.06.63,2.11,1.29,3.16,1.94.9.56,1.94,1.07,2.78,1.77.05.07.1.13.15.2.03.05.09.08.15.07.05.04.1.09.14.13.04.04.09.07.15.08h0c-.01.1.04.19.12.23.04.11.08.21.14.3.08.14.26.2.41.12.11-.06.17-.19.15-.31-.11-1.14.56-2.4.95-3.44.42-1.13.88-2.25,1.36-3.35.96-2.19,2.04-4.32,3.2-6.41,1.21-2.16,2.56-4.28,3.62-6.52.28-.58,1.08-2.41-.09-2.55-.63-.08-1.26.68-1.62,1.07Z"/>
            <path class="cls-5" d="M51.79,52.32c.03.06.06.12.09.19,0,.01.01.02.02.03l.09.18c.13.27.47.17.54-.05.07.18.37.26.48.06.73-1.38,1.3-2.81,2.14-4.14.86-1.36,1.82-2.65,2.7-4.01.49-.75,2.77-3.49,1.63-4.4-1.52-1.2-3.29,2.63-3.73,3.43-1.33,2.47-2.39,5.12-3.01,7.86-.1.33-.17.67-.22,1.01,0,0,0-.01,0-.02-.04-.09-.08-.18-.12-.27-.05-.76-.49-1.42-1.08-1.99-1.1-1.65-2.46-3.1-4.03-4.31-1.07-.84-2.23-1.56-3.45-2.16-.93-.45-2.19-1.05-3.24-.67-2.53.93,2.74,3.1,3.31,3.39,1.49.76,2.93,1.61,4.33,2.53,1.3.86,2.63,1.69,3.4,3.04.05.09.1.19.15.29Z"/>
            <path class="cls-5" d="M48.07,52.24c1.71.87,3.54,1.74,4.85,3.18.25.27.77-.04.55-.37-.13-.2-.28-.39-.43-.57-.59-1.16-1.73-1.99-2.73-2.79-1.48-1.22-3.07-2.3-4.76-3.22-1.59-.84-3.24-1.53-4.95-2.07-1.04-.34-2.58-.91-3.57-.09-2.15,1.79,4.48,3.19,5.26,3.47,1.98.7,3.91,1.53,5.78,2.48Z"/>
            <path class="cls-5" d="M49.26,54.21c-1.79-.63-4.77-1.53-6.54-.43-1.88,1.17,1.4,1.96,2.17,2.02,1.52.12,3,.26,4.48.66,1.38.38,2.96.79,4,1.81.05.09.11.19.16.29.12.23.54.11.45-.16,0-.02-.01-.03-.02-.05.04-.07.05-.16.01-.24-.1-.23-.24-.45-.41-.63-.92-1.6-2.57-2.66-4.31-3.27Z"/>
            <path class="cls-5" d="M59.71,30.87c-1.38,1.86-2.44,3.98-3.49,6.04-1.41,2.78-2.63,5.65-3.43,8.64-.57,1.55-.92,3.18-1.03,4.83-.02.29.45.4.51.1,1-4.72,3.08-8.8,5.77-12.78,1.42-2.09,2.91-4.15,4.27-6.28.38-.6,2.24-2.81.78-3.35-1.18-.43-2.82,2.01-3.39,2.79Z"/>
            <path class="cls-5" d="M62.78,40.81c-1.29.95-2.45,2.07-3.43,3.34-1.97,2.48-3.37,5.31-4.54,8.24-.02.05-.02.12,0,.17,0,.27.41.39.59.15,1.22-1.56,2.06-3.33,3.43-4.79,1.13-1.2,2.46-2.19,3.74-3.22.71-.57,5.74-4.31,3.18-5-1.07-.29-2.15.52-2.96,1.1Z"/>
            <path class="cls-5" d="M62.98,47.47c-1.25.7-2.42,1.55-3.46,2.54-2.07,1.94-3.64,4.34-4.83,6.9l-.19.29c-.2.34.24.78.55.48,1.23-1.22,2.29-2.51,3.65-3.61,1.23-1,2.54-1.9,3.86-2.79.74-.5,6.11-3.65,3.37-4.49-1.01-.3-2.09.22-2.94.68Z"/>
            <path class="cls-4" d="M54.8,61.65c-.89-7.05-2.66-13.86-5.1-20.52-1.23-3.36-2.65-6.64-4.27-9.82-1.71-3.38-3.7-6.61-5.33-10.03-1.73-3.58-2.85-7.43-3.3-11.39-.04-.36-.58-.29-.61.05-.65,7.04,3.46,13.77,6.6,19.75,3.38,6.42,6.22,13.11,8.2,20.1,1.12,3.97,2.08,8.01,2.8,12.07.12.65,1.08.44,1-.21h0Z"/>
            <path class="cls-4" d="M34.13,40.69c1.68.49,3.47-.36,5.09-.74,1.82-.42,3.69-.57,5.56-.44.53.03,1.06.09,1.58.17.52.08,1.04.2,1.57.22.25,0,.28-.31.08-.4-.81-.38-1.81-.46-2.69-.55-.93-.09-1.86-.1-2.78-.04-.92.06-1.83.18-2.73.37-.89.19-1.75.47-2.62.73-.98.3-1.95.49-2.98.39-.08,0-.15.06-.16.14,0,.07.04.13.1.15h0Z"/>
            <path class="cls-4" d="M28.26,25.26c.25.54.75.95,1.23,1.29.57.4,1.18.75,1.77,1.12,1.26.78,2.52,1.58,3.79,2.36,2.49,1.56,4.98,3.1,7.5,4.61.72.43,1.44.89,2.15,1.33.34.22.67.44,1.02.64s.71.46,1.1.57c.07.01.13-.03.15-.09,0-.03,0-.07-.02-.1-.23-.25-.52-.41-.8-.6-.3-.2-.61-.39-.92-.57-.64-.38-1.27-.78-1.9-1.16-1.23-.76-2.45-1.55-3.68-2.31-2.48-1.53-4.96-3.06-7.45-4.58-.67-.41-1.35-.82-2.01-1.24-.63-.39-1.19-.88-1.66-1.45-.12-.14-.34.02-.27.18h0Z"/>
            <path class="cls-4" d="M26.39,11.93c-.16.98.63,2.01,1.22,2.71.86.99,1.77,1.93,2.73,2.82,1.98,1.9,4.08,3.66,6.3,5.27,1.26.91,2.54,1.84,3.91,2.58.08.06.2.03.25-.05s.03-.2-.05-.25c-1.07-.79-2.19-1.51-3.26-2.3s-2.12-1.6-3.15-2.44c-2.04-1.69-3.99-3.49-5.85-5.39-.43-.41-.82-.85-1.16-1.33-.17-.24-.31-.5-.42-.77-.1-.29-.17-.58-.22-.88-.02-.08-.1-.12-.18-.1-.06.02-.1.07-.11.13h0Z"/>
            <path class="cls-4" d="M45.97,32.83c2-4.18,3.1-9.18,1.96-13.76-.13-.57-.31-1.14-.55-1.68-.22-.51-.57-.95-1.02-1.28-.16-.12-.35.12-.23.26.33.37.61.78.82,1.23.2.47.36.96.48,1.46.27,1.03.42,2.09.47,3.16.1,2.27-.24,4.53-.86,6.71-.37,1.29-.83,2.56-1.29,3.83-.05.14.16.2.22.07h0Z"/>
            <path class="cls-4" d="M49.17,40.92c.64-2.97,1.81-5.8,3.45-8.35.27-.42.55-.83.84-1.23.29-.38.68-.76.87-1.2.07-.16-.14-.25-.26-.17-.39.27-.67.77-.94,1.15-.3.42-.59.85-.87,1.28-.54.86-1.02,1.75-1.45,2.67-.86,1.85-1.47,3.8-1.83,5.81-.02.1.15.13.18.03h0Z"/>
            <path class="cls-4" d="M55.23,29.06l.05-.08.02-.04v-.02s.03-.03.03-.04c0-.03,0-.06,0-.08,0-.02-.01-.04-.02-.05-.01-.02-.02-.03-.04-.04l-.04-.02s-.05,0-.08,0c0,0-.02,0-.02,0-.02,0-.04.02-.05.03-.01.01-.02.02-.03.04v.02s-.03.04-.03.04l-.05.07s-.02.04-.02.06c0,.02,0,.04,0,.06,0,.02.01.04.03.06.01.02.03.04.05.05.04.02.08.03.12.02.04,0,.08-.03.1-.07h0Z"/>
            <path class="cls-4" d="M52.31,52.32c-.3-.49-.7-.89-1.1-1.3s-.82-.8-1.26-1.18c-.91-.77-1.88-1.48-2.9-2.11-1.02-.64-2.08-1.23-3.15-1.79-.54-.28-1.09-.52-1.64-.79-.52-.27-1.05-.5-1.6-.7-.08-.02-.16.02-.18.1-.02.06,0,.13.06.16.51.31,1.04.59,1.59.85.51.25,1,.53,1.5.79,1.04.54,2.07,1.09,3.07,1.71.99.6,1.94,1.27,2.85,1.98.45.36.9.73,1.32,1.13.44.41.82.87,1.27,1.26.08.07.23,0,.17-.11h0Z"/>
            <path class="cls-4" d="M40.17,43.84v-.06s0-.01,0-.01h0s0-.03,0-.05c0,0,0-.01,0-.02v-.02s-.04-.03-.05-.04c-.01,0-.03-.01-.04-.02-.01,0-.03,0-.04,0-.02,0-.04.01-.05.03v.02s-.04.04-.05.06h0s-.01.07-.01.07c0,.02,0,.05,0,.07v.03s.04.04.06.05c.01.01.03.02.05.02.02,0,.04,0,.05,0,.02,0,.03-.01.05-.02.02,0,.03-.02.04-.04.01-.02.02-.04.02-.07h0Z"/>
            <path class="cls-4" d="M43.25,55.53c1.67.44,3.41.52,5.11.85.83.16,1.64.38,2.43.66.38.14.76.31,1.13.48.4.18.78.42,1.19.55.05.01.1-.01.11-.06,0-.03,0-.06-.02-.08-.51-.61-1.4-.97-2.12-1.24-.82-.31-1.67-.55-2.53-.71-1.73-.34-3.49-.56-5.26-.65-.12,0-.16.18-.04.21h0Z"/>
            <path class="cls-4" d="M55.16,52.95c.99-.45,1.6-1.51,2.14-2.4.6-.99,1.16-2,1.99-2.83.82-.83,1.77-1.51,2.7-2.19.97-.71,1.89-1.5,2.75-2.35.46-.44.89-.91,1.29-1.41.28-.38.5-.92.38-1.39-.02-.07-.14-.09-.16,0-.11.5-.37.84-.71,1.21-.38.42-.77.84-1.18,1.25-.82.81-1.69,1.57-2.6,2.27-.86.69-1.77,1.31-2.57,2.08s-1.37,1.67-1.92,2.62c-.3.53-.6,1.06-.95,1.56-.37.52-.81.98-1.24,1.44-.03.03-.03.08,0,.12.02.02.06.03.09.02h0Z"/>
            <path class="cls-4" d="M52.49,49.75c.17-.7.39-1.37.62-2.05.11-.34.24-.68.36-1.01.11-.31.29-.63.31-.97,0-.06-.08-.12-.13-.06-.23.25-.34.63-.45.94-.13.33-.23.67-.34,1.02-.2.7-.36,1.4-.49,2.11-.01.06.1.08.11.02h0Z"/>
            <path class="cls-4" d="M54.33,44.48v-.09s.01-.05,0-.07c0-.02-.01-.04-.02-.06-.01-.03-.04-.05-.06-.06-.03,0-.06,0-.08,0h-.01s-.04.03-.05.05h0s-.01.03-.01.03c-.01.01-.02.03-.03.05l-.03.08s0,.05,0,.08v.04s.04.05.07.06c.02.01.04.02.06.02.02,0,.04,0,.06,0,.02,0,.04-.01.06-.02.02-.01.03-.02.04-.04.02-.02.02-.05.03-.08h0Z"/>
            <path class="cls-4" d="M55.71,41.62c.41-.88.94-1.71,1.45-2.54.5-.81,1.05-1.58,1.61-2.35,1.14-1.55,2.32-3.08,3.38-4.68.29-.44.58-.89.85-1.35.22-.37.6-.87.55-1.32-.02-.08-.1-.13-.17-.11-.01,0-.02,0-.03.01-.35.21-.51.71-.69,1.06-.23.43-.48.86-.74,1.28-.5.81-1.05,1.58-1.61,2.35-1.13,1.55-2.3,3.08-3.3,4.72-.55.92-1.01,1.89-1.38,2.89-.02.06.07.09.1.03h0Z"/>
          </g>
        </g>
        <g id="Capa_2-4" data-name="Capa 2">
          <g id="bocetos-3" data-name="bocetos">
            <path class="cls-4" d="M3.98,50.36c1.35,2.37,3.58,4.49,5.5,6.4,1.89,1.87,3.87,3.64,5.94,5.32,4.34,3.51,8.95,6.68,13.56,9.82,4.58,3.13,9.26,6.1,14.12,8.79,5.04,2.79,10.45,5.76,15.99,7.39.87.26,1.66-1.06.76-1.52-2.53-1.28-5.2-2.28-7.77-3.49-2.66-1.25-5.29-2.58-7.89-3.99-4.72-2.56-9.28-5.38-13.74-8.35-4.48-3-8.96-6.03-13.22-9.33-2.29-1.78-4.53-3.61-6.65-5.59-2.03-1.9-3.74-4.13-5.78-6-.39-.36-1.15,0-.84.55h0Z"/>
            <path class="cls-4" d="M8.91,35.22c4.5,3.52,8.96,6.98,13.05,10.97,4,3.91,7.67,8.1,11.3,12.34,3.31,3.87,6.5,7.84,9.88,11.65,3.02,3.42,6.1,6.78,9.11,10.21,1.84,2.1,3.65,4.22,5.43,6.38,1.94,2.34,3.75,5.22,6.1,7.14.59.48,1.32-.3,1.06-.92-1.09-2.46-3.23-4.65-4.91-6.74-1.62-2.01-3.31-3.97-5.01-5.91-3.08-3.52-6.25-6.95-9.36-10.43-7.12-7.96-13.68-16.34-21.37-23.79-4.48-4.35-9.22-8.72-14.53-12.03-.75-.46-1.45.59-.77,1.12h0Z"/>
            <path class="cls-6" d="M6.98,49.04c.45,1.92.54,4.07,1.4,5.87.12.26.58.2.58-.12-.07-2-.95-3.95-1.37-5.88-.09-.39-.7-.27-.61.12h0Z"/>
            <path class="cls-6" d="M7.37,58.72c1.72.85,3.98,1.58,5.91,1.61.23,0,.39-.33.16-.46-1.77-.97-4.01-.89-5.88-1.71-.36-.16-.53.4-.19.56h0Z"/>
            <path class="cls-6" d="M13.74,55.61c1.33,2.36,2.07,5.02,3.4,7.38.14.25.56.14.49-.17-.3-1.43-.88-2.77-1.48-4.09-.51-1.13-1.01-2.56-1.92-3.45-.22-.22-.66.01-.49.32h0Z"/>
            <path class="cls-6" d="M13.24,63.26c1.26.16,2.6.49,3.81-.05.28-.13.14-.48-.11-.53-1.2-.24-2.45.09-3.66-.04-.4-.04-.43.57-.04.63h0Z"/>
            <path class="cls-6" d="M20.19,59.43c.38,1.6.32,3.12.38,4.75-.01.17.11.31.28.33.14.01.27-.08.31-.21.75-1.58.42-3.56-.31-5.08-.17-.35-.74-.17-.65.22h0Z"/>
            <path class="cls-6" d="M19.58,68.33c1.42.36,3.22.71,4.62.11.35-.15.17-.59-.13-.65-1.39-.26-2.96.02-4.38-.06-.34-.02-.47.51-.12.6h0Z"/>
            <path class="cls-6" d="M26.93,65.85c.56,1.24.78,2.6,1.17,3.9.04.15.19.25.34.21.12-.03.21-.13.22-.25.25-1.51-.32-2.89-1.14-4.14-.23-.35-.76-.1-.59.29h0Z"/>
            <path class="cls-6" d="M30.52,76.13c1.94.1,4.07.39,5.9-.43.28-.12.16-.51-.11-.55-1.9-.23-3.85.33-5.75.34-.4,0-.45.62-.04.64h0Z"/>
            <path class="cls-6" d="M35.94,72.58c.29.15.44.87.56,1.15.16.4.3.81.47,1.21.32.77.68,1.49,1.29,2.07.11.13.3.14.43.03.1-.09.13-.24.07-.36-.44-1.05-.82-2.12-1.28-3.17-.23-.53-.69-1.91-1.5-1.47-.19.09-.26.42-.04.54h0Z"/>
            <path class="cls-6" d="M41.26,76.5c.53,1.21,1.08,2.45,1.81,3.55.2.3.71.19.64-.22-.26-1.37-.96-2.66-1.82-3.74-.28-.34-.79.03-.62.41h0Z"/>
            <path class="cls-6" d="M44.83,85.12c1.46-.22,3.15-.38,4.47-1.1.39-.21.17-.71-.23-.68-1.46.11-2.95.77-4.36,1.17-.17.03-.28.2-.24.36.03.17.2.28.36.24Z"/>
            <path class="cls-6" d="M45.99,78.23c.55,1.3.93,2.73,1.63,3.96.09.17.3.23.46.14.13-.07.2-.21.18-.35-.15-1.43-.86-2.85-1.46-4.14-.25-.52-1.02-.13-.8.39h0Z"/>
            <path class="cls-6" d="M53.07,84.94c-.41-.67-.79-1.37-1.13-2.08-.32-.66-.56-1.4-1.01-1.99-.15-.2-.54-.08-.53.18.07,1.53,1.23,3.08,2.16,4.23.21.27.7-.04.51-.34Z"/>
            <path class="cls-6" d="M37.95,72.07c2.09.16,4.56.21,6.51-.69.32-.15.25-.75-.15-.72-2.13.14-4.16.67-6.32.65-.48,0-.54.72-.05.76h0Z"/>
            <path class="cls-6" d="M43.11,69.29c-2.13-.35-4.09-1.24-6.19-1.62-.28-.05-.36.35-.17.49,1.7,1.28,4.25,1.63,6.32,1.76.41.03.43-.56.04-.63h0Z"/>
            <path class="cls-6" d="M41.44,65.46c.28-2.28.6-4.87.08-7.14-.04-.17-.21-.28-.39-.24-.14.03-.24.15-.25.29-.24,2.31.01,4.72-.09,7.06-.02.42.59.45.64.04Z"/>
            <path class="cls-6" d="M42.41,65.48c1.03-1.23,1.99-2.71,2.22-4.33.04-.25-.36-.4-.48-.17-.75,1.4-1.33,2.84-2.25,4.15-.23.33.26.65.51.35h0Z"/>
            <path class="cls-6" d="M38.38,61.78c.19-1.38.47-3.12-.15-4.43-.08-.13-.25-.18-.38-.1-.07.04-.12.12-.13.21-.06.68.09,1.36.13,2.04.05.75.04,1.5-.06,2.25-.05.38.55.42.6.04h0Z"/>
            <path class="cls-6" d="M37.02,61.95c-1.55-.24-3.12-.37-4.7-.4-.14,0-.25.11-.26.25,0,.11.06.2.16.24,1.55.54,3.2.74,4.84.6.42-.03.31-.64-.05-.69Z"/>
            <path class="cls-6" d="M28.49,60.12c1.68.06,4.06.11,5.47-.94.1-.09.11-.25.02-.35-.04-.05-.1-.07-.16-.08-.86-.06-1.71.25-2.55.41-.93.17-1.87.29-2.81.37-.34.03-.29.58.04.59h0Z"/>
            <path class="cls-6" d="M32.29,54.79c.24-3,.39-6.59-.85-9.41-.18-.41-.71-.15-.68.23.1,1.45.51,2.88.68,4.33.19,1.6.27,3.21.23,4.82-.01.17.12.32.29.33.17.01.32-.12.33-.29h0Z"/>
            <path class="cls-6" d="M29.7,51.78c.28-1.16.41-2.68-.27-3.73-.09-.17-.29-.23-.46-.14-.13.07-.2.22-.18.36.06.55.24,1.08.3,1.63.07.59.06,1.18-.03,1.76-.05.36.55.49.64.13h0Z"/>
            <path class="cls-6" d="M23.94,52.58c1.65.79,3.39,1.62,5.27,1.4.3-.04.29-.47.03-.57-1.66-.6-3.47-.72-5.11-1.4-.36-.15-.53.4-.2.57h0Z"/>
            <path class="cls-6" d="M25.14,55.94c1.77.18,3.93.44,5.6-.28.3-.13.17-.56-.12-.59-1.77-.2-3.66.27-5.45.27-.17-.01-.31.12-.32.28s.12.31.28.32h0Z"/>
            <path class="cls-6" d="M18.8,48.6c.67-.28,1.38-.45,2.1-.49.63-.04,1.27.07,1.89-.03.18-.04.29-.23.25-.41-.02-.08-.06-.14-.13-.19-1.28-.87-3.24-.27-4.47.41-.2.1-.28.34-.18.54s.34.28.54.18h0Z"/>
            <path class="cls-6" d="M25.75,47.19c-.29-2.4-.19-4.95-.78-7.3-.09-.35-.66-.35-.67.05-.06,2.44.6,4.94.85,7.37.04.39.65.27.6-.12h0Z"/>
            <path class="cls-6" d="M19.76,42.17c.21-1.19.39-2.8-.16-3.93-.12-.24-.54-.25-.61.04-.14.61-.07,1.21-.05,1.83.02.67.02,1.34.02,2.01-.01.22.15.41.38.42.22.01.41-.15.42-.38Z"/>
            <path class="cls-6" d="M14.7,44.06c1.36-.05,2.8.21,4.15.02.32-.05.31-.49.04-.59-1.25-.48-2.83-.3-4.14-.21-.49.03-.55.8-.05.78h0Z"/>
            <path class="cls-6" d="M8.85,39.38c.94-.06,1.89-.11,2.84-.12s1.87.2,2.82.18c.29,0,.5-.42.2-.59-1.69-.95-4.09-.41-5.89-.07-.33.06-.31.62.04.6h0Z"/>
            <path class="cls-6" d="M15.3,38.19c.51-1.72.43-4.24-1.01-5.54-.21-.19-.67-.07-.58.28.24.82.65,1.56.83,2.4.19.9.23,1.82.12,2.74-.04.36.52.47.62.12h0Z"/>
            <path class="cls-6" d="M47.81,72.58c.73-2.54.97-5.38.31-7.96-.07-.27-.52-.28-.52.04,0,2.65.02,5.18-.36,7.81-.05.33.48.43.57.11Z"/>
            <path class="cls-6" d="M49.46,73.74c.5-1.31.88-2.84.4-4.21-.12-.34-.58-.16-.63.13-.18,1.31-.1,2.55-.53,3.81-.17.49.58.75.76.26h0Z"/>
            <path class="cls-6" d="M11.64,56.64c-.08-.54-.14-1.08-.18-1.62-.04-.54-.02-1.09-.15-1.62-.03-.14-.27-.18-.3-.02-.12.55-.06,1.11-.02,1.68s.11,1.12.19,1.68c.04.3.51.21.47-.09h0Z"/>
            <path class="cls-6" d="M7.09,53.53c-.73.04-1.47,0-2.19-.14-.37-.07-.74-.16-1.11-.23-.24-.05-.86-.24-.86.2.02.17.13.32.3.37.18.09.36.18.54.24.36.12.73.21,1.11.27.75.11,1.51.13,2.26.05.43-.04.39-.79-.06-.77Z"/>
            <path class="cls-6" d="M20.8,65.64c-.5-.01-1-.02-1.5-.03-.5,0-1,.05-1.5.14-.18.03-.21.33-.02.37.49.11.98.17,1.48.21.5.02,1,.02,1.5.04.2,0,.37-.14.39-.35.01-.2-.14-.38-.35-.39,0,0,0,0,0,0v.02Z"/>
            <path class="cls-6" d="M25.58,66.74l-.54-2.09c-.09-.35-.16-.7-.27-1.03-.11-.33-.21-.7-.46-.98-.07-.08-.2-.09-.28-.01-.04.03-.06.08-.06.13-.05.36-.01.73.1,1.08.08.33.18.66.27.99l.57,2.06c.12.42.79.3.68-.14h0Z"/>
            <path class="cls-6" d="M31.71,72.64c-1.09.25-2.19.48-3.28.72-.16.03-.16.3.02.3.57-.01,1.13-.07,1.69-.17.56-.11,1.11-.25,1.65-.44.24-.08.18-.46-.08-.4h0Z"/>
            <path class="cls-6" d="M40.67,78.94c-.63.11-1.27.18-1.91.25s-1.27.13-1.89.25c-.26.05-.2.39.03.44.65.11,1.32.13,1.98.06.65-.07,1.29-.17,1.93-.31.44-.09.31-.77-.14-.69h0Z"/>
            <path class="cls-6" d="M46.04,82.44c-.3-.06-.58-.17-.89-.21-.3-.04-.6-.05-.9-.04-.61.02-1.2.2-1.72.52-.13.09,0,.25.12.24.55-.05,1.09-.17,1.65-.2.27-.01.55-.03.83-.01.28-.01.57.01.85.07.1.03.21-.02.24-.12.03-.1-.02-.21-.12-.24-.01,0-.03,0-.04,0h0Z"/>
            <path class="cls-6" d="M25.53,49.55c-.09,0-.17.02-.26.03s-.11,0-.21.01c-.18,0-.36.02-.54.02-.37,0-.71.04-1.07.06-.12,0-.22.08-.24.19-.02.12.04.23.15.27.37.12.75.18,1.14.18.39,0,.78-.05,1.16-.12.18-.04.29-.21.26-.39-.04-.18-.21-.29-.39-.26h0Z"/>
            <path class="cls-6" d="M22.15,44.43l.06-1.56c.01-.25.01-.5.02-.75.02-.28,0-.56-.08-.83-.08-.27-.47-.34-.57-.04-.08.27-.12.55-.11.82,0,.25-.01.5,0,.75l.02,1.56c0,.18.13.34.31.35.18,0,.34-.13.35-.31h0Z"/>
            <path class="cls-6" d="M15.34,40.55c-.38.05-.77.09-1.15.15-.38.06-.76.15-1.12.28-.13.03-.21.16-.18.29.02.1.11.18.21.19.41.03.82.04,1.22,0,.39-.03.78-.08,1.18-.12.22-.05.36-.26.31-.48-.05-.21-.26-.35-.48-.31Z"/>
            <path class="cls-6" d="M12.5,36.04c-.03-.71-.17-1.41-.41-2.07-.11-.32-.25-.63-.42-.92-.18-.3-.43-.69-.78-.78-.13-.04-.28.03-.32.16,0,.02-.01.04-.01.06,0,.33.2.64.36.92s.31.57.44.86c.25.58.42,1.18.5,1.81.04.35.65.32.63-.04h0Z"/>
            <path class="cls-6" d="M35.16,57.33c.11-.66.13-1.33.08-2-.06-.66-.19-1.32-.52-1.9-.05-.1-.16-.13-.26-.09-.08.04-.12.12-.1.21.07.63.21,1.24.26,1.87.06.62.04,1.25-.04,1.87,0,.16.11.29.27.3.16,0,.29-.11.3-.27h0Z"/>
            <path class="cls-6" d="M45.23,68.36c.19-.57.27-1.17.25-1.78,0-.3-.05-.6-.12-.89-.09-.3-.23-.58-.4-.84-.05-.09-.16-.12-.25-.07-.07.04-.1.11-.09.19.04.28.05.55.08.83s.07.5.07.76c.03.53-.02,1.07-.14,1.59-.05.17.04.34.2.41.17.06.35-.03.41-.2h0Z"/>
            <path class="cls-6" d="M35.68,45.03s0-.02-.02-.02c0,0-.01,0-.01,0,0,0,0,.02,0,.02,0,0,.02,0,.02,0,0,0,0,0,0,0Z"/>
          </g>
        </g>
        <g>
          <path class="cls-1" d="M74.35,61.69s-4.31-1.81-5.55-6.14c-1.53-5.33-1.56-9.38,1.51-9.85s8.01,2.11,9.39,4.96c1.38,2.86.43,8.52.43,8.52,0,0,2.38-5.82,6.44-7.43,4.06-1.61,8.6-2.06,10.31-.15,1.49,1.66.93,6.36-3.89,9.53-4.81,3.17-11.1,1.74-11.1,1.74,0,0,5.94,2.36,6.94,6.69,1,4.33-.07,8.75-1.91,9.5s-6.51-.16-8.53-3.78c-2.01-3.62-1.71-9.8-1.71-9.8,0,0-3.7,8.7-11.16,9.58-5.86.69-7.39-1.01-6.44-4.53s3.78-7.46,6.91-8.5c3.59-1.19,8.35-.36,8.35-.36Z"/>
          <path class="cls-4" d="M72.38,64.47c-.1.04-.21.08-.31.12-1.55.65-3.05,1.43-4.49,2.29-2.76,1.65-5.35,3.62-7.58,5.95-.17.18.08.45.26.28,2.27-2.23,4.81-4.19,7.54-5.82,1.34-.8,2.72-1.51,4.16-2.11.2-.08.41-.16.61-.24-.09-.15-.15-.31-.2-.48Z"/>
          <path class="cls-4" d="M69.82,46.5c1.22,1.24,2.33,2.64,3.28,4.09s1.8,3.08,2.52,4.7c.46,1.04.89,2.11,1.26,3.19.4,1.17.6,2.5,1.17,3.59.05.1.21.06.21-.05-.02-1.22-.55-2.5-.93-3.65-.35-1.06-.73-2.1-1.17-3.12-.75-1.73-1.63-3.39-2.69-4.94-1.01-1.47-2.13-2.84-3.56-3.9-.06-.04-.13.05-.08.1h0Z"/>
          <path class="cls-4" d="M78.31,63.1c1.94,2.16,3.62,4.4,4.82,7.05.6,1.32,1.1,2.67,1.58,4.04.24.7.48,1.4.72,2.09.19.55.32,1.22.72,1.65.07.08.19.02.2-.08.06-.65-.3-1.33-.51-1.94-.24-.7-.48-1.39-.72-2.09-.48-1.36-.99-2.72-1.6-4.03-.58-1.26-1.25-2.5-2.08-3.61-.87-1.17-1.89-2.24-2.89-3.3-.14-.15-.36.06-.23.21h0Z"/>
          <path class="cls-4" d="M96.31,51.98c-.56,0-1.06.27-1.56.48-.59.25-1.18.52-1.76.81-1.28.62-2.53,1.31-3.73,2.05-1.84,1.14-3.61,2.39-5.21,3.84.04.11.07.22.09.33,1.73-1.38,3.56-2.65,5.47-3.78,1.13-.67,2.28-1.3,3.45-1.88.58-.29,1.17-.56,1.76-.81.54-.23,1.14-.4,1.59-.79.1-.08.03-.26-.1-.26Z"/>
          <path class="cls-4" d="M78.4,62.2c-.93-.58-2.16-.72-3.24-.77-.58-.03-1.19-.04-1.73.21s-.85.78-1.02,1.33c-.3.96-.22,2.17.6,2.86.97.81,2.35.51,3.31-.13.57-.37,1.1-.82,1.48-1.39.34-.52.69-1.23.76-1.85.02-.21-.28-.29-.38-.12-.26.43-.36.94-.59,1.38-.24.46-.57.84-.97,1.17-.8.66-1.9,1.26-2.95.8-.92-.4-1.09-1.52-.88-2.4.12-.49.35-1,.82-1.23s1-.19,1.49-.17c1.06.04,2.16.2,3.13.65.2.09.35-.24.16-.35h0Z"/>
          <path class="cls-4" d="M78.35,62.36c.38-.98,1-1.92,1.73-2.68.65-.68,1.7-1.56,2.71-1.18.82.31,1.17,1.37,1.13,2.18-.03.54-.24,1.01-.68,1.32-.37.25-.8.39-1.24.48-.58.12-1.17.16-1.76.14-.33-.01-.66-.04-.98-.08s-.62-.11-.95-.05c-.14.02-.17.23-.05.3.29.18.59.22.92.26s.69.08,1.04.09c.64.02,1.28-.01,1.91-.14,1.07-.22,2.13-.77,2.32-1.94.16-1.01-.2-2.24-1.12-2.79-1.04-.62-2.15-.05-2.97.67-1.01.89-1.82,2.07-2.18,3.37-.03.11.13.16.17.05h0Z"/>
          <path class="cls-4" d="M78.16,62.37c-1.03.06-2.05.31-2.97.78-.46.23-.89.52-1.28.85-.37.3-.81.67-1,1.12-.03.06.06.14.12.1.38-.25.69-.63,1.04-.93.39-.33.82-.61,1.27-.86.88-.48,1.83-.81,2.83-.93.07,0,.06-.14-.01-.13h0Z"/>
          <path class="cls-4" d="M78.44,62.56c.29-.3.55-.62.86-.91.33-.3.7-.57,1.08-.82s.76-.45,1.16-.62c.38-.16.81-.24,1.17-.43.07-.04.04-.14-.03-.14-.4-.04-.83.17-1.2.32-.44.18-.85.41-1.25.66s-.74.52-1.07.82-.65.61-.85,1c-.05.09.06.2.14.12h0Z"/>
          <path class="cls-2" d="M74.16,63.27s.08-.07.12-.11c.04-.03.07-.07.08-.12.03-.04.04-.09.04-.15,0-.05,0-.1-.03-.15-.01-.05-.04-.09-.07-.13l-.08-.06c-.06-.04-.12-.06-.19-.06h-.1c-.07.03-.12.06-.17.1-.04.04-.08.07-.12.11-.04.03-.07.07-.08.12-.03.04-.04.09-.04.15,0,.05,0,.1.03.15.01.05.04.09.07.13l.08.06c.06.04.12.06.19.06h.1c.07-.03.12-.06.17-.1h0Z"/>
          <path class="cls-2" d="M82.19,61.88c.41.02.44-.63.02-.64s-.44.63-.02.64h0Z"/>
          <path class="cls-2" d="M75.01,48.6s.05.03.08.04c.07.03-.03-.03.03.02.04.03.07.07.1.1.11.11.22.2.34.29.04.03.18.16.06.04.04.04.09.07.13.11.12.11.24.22.37.32l-.12-.1c.09.07.17.15.25.22.04.04.07.08.11.11.11.11.22.16.36.23l-.14-.07c.09.04.17.09.27.1.03.01.07.02.1.01.17-.01.2-.02.09-.02.24.03.45-.21.46-.43v-.02c-.02.08-.05.15-.07.23.08-.15.14-.31.09-.48-.02-.08-.06-.17-.09-.24-.08-.17-.24-.28-.39-.4-.08-.06-.16-.13-.24-.19-.12-.08-.24-.15-.37-.2-.18-.08-.36-.14-.55-.19-.23-.06-.46-.02-.69-.04-.28-.03-.43.41-.17.55h0Z"/>
          <path class="cls-2" d="M77.74,51.96l.06.09.03.05s0,.01.01.02c.08.11.08.12.19.21.04.03.09.07.14.1.06.04.13.06.2.06.05,0,.11,0,.15-.03.05-.01.09-.04.13-.08.05-.05.09-.11.11-.17.03-.05.05-.11.07-.17.04-.1.03-.23.03-.34,0-.11-.02-.21-.07-.31-.05-.09-.12-.17-.21-.22l-.14-.07c-.11-.03-.21-.04-.32-.01-.08.02-.15.05-.21.1-.07.04-.12.09-.16.16-.06.09-.09.19-.09.3,0,.11.02.21.07.31h0Z"/>
          <path class="cls-2" d="M63.31,67.13l.1-.33c.02-.05.03-.11.05-.16.02-.07.03-.15.04-.22.01-.07-.03-.13-.08-.17-.05-.04-.12-.06-.19-.05-.07.02-.15.04-.22.07-.06.02-.11.05-.17.07l-.34.14c-.09.05-.16.11-.21.2-.05.09-.08.18-.09.28,0,.1.02.2.07.29.03.07.08.12.14.16.05.05.12.09.19.11.1.03.2.03.3.01.19-.05.35-.19.41-.38h0Z"/>
          <path class="cls-2" d="M85.81,68.41s.01,0,.02,0l-.09-.04c.06.03.12.07.17.11l-.08-.06s.06.05.08.08l-.06-.08s.04.07.05.11l-.04-.11s.02.07.03.1c0,.02,0,.03.01.05.01.06.03.11.06.18l-.05-.12c.03.08.04.17.08.25s.1.12.15.19l-.07-.1h0c.05.07.09.13.16.18l.11.05c.06.02.12.03.18.01.04,0,.08,0,.12-.03.04,0,.07-.03.1-.05.03-.02.06-.05.08-.08.04-.04.07-.09.09-.15.01-.03.03-.07.04-.11.01-.05.02-.1.03-.15v-.14s-.06-.12-.07-.15c0-.02-.02-.04-.02-.06-.03-.07-.08-.14-.14-.2-.06-.05-.12-.1-.18-.15-.03-.02-.07-.04-.11-.06s-.07-.04-.11-.07c-.1-.06-.21-.11-.32-.13-.1-.02-.2-.02-.29.03-.08.04-.16.13-.18.22-.03.09-.02.2.03.29l.06.08s.1.08.16.1h0Z"/>
          <path class="cls-2" d="M86.94,71.67s.06.02.09.02l-.13-.08.04.04c.09.1.26.11.36.01l.04-.04-.14.07s.05,0,.07-.01c0,0,.01,0,.02,0,.1-.02.21-.08.29-.15.17-.15.24-.39.19-.61s-.22-.39-.43-.46-.46-.01-.62.14-.24.39-.19.61c.03.11.08.2.15.29.08.08.17.14.27.17h0Z"/>
          <path class="cls-2" d="M88.53,53.38c.07-.03.13-.06.2-.09l-.16.06c.07-.03.14-.05.22-.07.09-.02.16-.04.26-.08.03-.01.07-.03.1-.04l-.16.06s.06-.02.08-.03c.08-.02.15-.05.22-.1.07-.04.13-.1.17-.17l.07-.15c.03-.08.04-.17.02-.25,0-.06-.01-.11-.04-.16-.02-.08-.06-.15-.12-.21l-.12-.1c-.1-.06-.2-.09-.31-.1-.06,0-.12-.01-.19-.01-.12,0-.24.02-.36.06-.17.05-.35.12-.51.2-.08.04-.14.09-.19.17-.06.06-.1.14-.13.22-.03.09-.04.18-.02.27,0,.09.02.17.07.25.09.15.22.28.39.32s.35.03.52-.05h0Z"/>
        </g>
      </g>
      <rect class="cls-3" width="100" height="100"/>
    </g>
  </g>
</svg>