<?xml version="1.0" encoding="UTF-8"?>
<svg id="Capa_2" data-name="Capa 2" xmlns="http://www.w3.org/2000/svg" viewBox="0 0 100 100">
  <defs>
    <style>
      .cls-1 {
        fill: none;
      }

      .cls-2 {
        fill: #6a8c2a;
      }

      .cls-3 {
        fill: #4a2d2d;
      }
    </style>
  </defs>
  <g id="COLOR">
    <g>
      <g>
        <g>
          <path class="cls-2" d="M61.02,4.98c.32,3.61.52,7.21.73,10.83.21,3.6-.05,7.28.29,10.86.06.61,1.03.87,1.17.16.65-3.54.46-7.42.39-11.02-.07-3.69-.49-7.38-1.05-11.03-.13-.86-1.6-.67-1.53.21h0Z"/>
          <path class="cls-2" d="M80.15,9.85c-2.09,1.94-4.28,3.76-6.52,5.51-2.05,1.6-4.6,2.92-6.37,4.83-.39.42-.01,1.23.59,1.02,2.42-.86,4.57-2.82,6.58-4.39,2.36-1.85,4.58-3.86,6.74-5.94.67-.65-.34-1.66-1.02-1.02h0Z"/>
          <path class="cls-2" d="M81.6,15.5c-2.69,2.45-5.45,4.82-8.3,7.07-2.83,2.23-6.02,4.12-8.71,6.5-.66.59.18,1.51.9,1.16,3.18-1.53,6.04-4,8.81-6.17,2.96-2.32,5.79-4.78,8.51-7.37.79-.76-.39-1.93-1.2-1.2h0Z"/>
          <path class="cls-2" d="M56.41,14.32c1.91,5.25,3.05,10.8,5.07,15.99.22.57,1.23.56,1.17-.16-.51-5.55-2.69-11.09-4.64-16.27-.37-.98-1.95-.57-1.59.44h0Z"/>
          <path class="cls-2" d="M50.85,21.99c1.14,3.66,2.1,7.43,2.89,11.19.41,1.94.74,3.9.93,5.88.16,1.65.09,3.27.79,4.8.23.49,1.01.45,1.25,0,1.56-2.97.27-7.51-.47-10.59-.97-4.02-2.58-7.78-4.02-11.64-.31-.84-1.64-.51-1.37.38h0Z"/>
          <path class="cls-2" d="M81.55,27.4c-3.56,2.42-7.32,4.6-11.08,6.69-3.55,1.97-7.72,3.37-10.93,5.86-.65.51.09,1.34.72,1.24,3.96-.64,7.89-3.23,11.33-5.17,3.8-2.13,7.31-4.58,10.81-7.16.86-.63.06-2.08-.86-1.46h0Z"/>
          <path class="cls-2" d="M39.57,30.39c1.87,4.38,4.23,8.51,5.93,12.97.79,2.09,1.5,4.19,2.09,6.34.51,1.89.62,4.15,1.99,5.64.29.32.92.26,1.11-.14.9-1.87.18-3.99-.36-5.89-.63-2.25-1.48-4.45-2.43-6.58-1.99-4.48-4.37-8.99-7.12-13.05-.52-.76-1.56-.11-1.21.71h0Z"/>
          <path class="cls-2" d="M77.78,43.25c-4.85,1.12-9.65,2.38-14.46,3.64-3.95,1.04-8.66,1.73-11.46,4.97-.4.47-.03,1.44.67,1.16,8.32-3.34,17.22-5.22,25.74-7.97,1.15-.37.68-2.08-.5-1.81h0Z"/>
          <path class="cls-2" d="M69.78,52.58c-4.41,1.15-8.84,2.28-13.18,3.67-2.05.66-4.08,1.41-6.1,2.14-1.96.71-4.03,1.34-5.62,2.73-.61.54-.11,1.59.65,1.58,2.01-.02,3.87-.87,5.72-1.57,2.14-.81,4.29-1.59,6.41-2.44,4.15-1.65,8.24-3.46,12.38-5.14.58-.24.38-1.13-.27-.97h0Z"/>
          <path class="cls-2" d="M31.28,41.13c2.29,4,4.51,8.07,6.43,12.26.95,2.07,1.8,4.2,2.49,6.38.67,2.11.92,4.5,2.02,6.44.4.7,1.63.61,1.8-.24.45-2.23-.31-4.51-1.01-6.62-.71-2.17-1.6-4.28-2.6-6.34-2.18-4.48-4.94-8.57-7.67-12.73-.59-.91-2.01-.1-1.46.86h0Z"/>
          <path class="cls-2" d="M23.9,58.29c2.55,2.11,4.96,4.39,7.38,6.65,2.21,2.07,4.35,5.02,7.05,6.42.98.51,1.93-.5,1.46-1.46-1.34-2.8-4.61-5.07-6.91-7.06-2.5-2.15-5.18-4.08-7.84-6.02-.86-.62-1.96.8-1.14,1.48h0Z"/>
          <path class="cls-2" d="M49.06,64.75c3.8-.11,7.61-.16,11.41-.06,3.52.1,7.39.97,10.86.44.94-.14.68-1.38,0-1.65-3.19-1.28-7.46-1-10.86-1.05-3.83-.05-7.61.16-11.41.65-1.03.13-1.1,1.7,0,1.66h0Z"/>
          <path class="cls-2" d="M63.66,73.96c-4.79-.73-9.5-1.31-14.35-1.43-4.77-.12-9.68-.28-14.32,1-.73.2-.84,1.47,0,1.59,4.62.67,9.29.34,13.94.42,4.81.08,9.66.17,14.46.46,1.14.07,1.43-1.85.27-2.03h0Z"/>
          <path class="cls-2" d="M55.06,81.22c-3.78-.94-7.61-1.43-11.49-1.77-3.84-.34-7.71-.7-11.5.11-.65.14-.64,1.16,0,1.31,3.65.84,7.4.81,11.12,1.1,3.88.3,7.74.78,11.62,1.06,1.05.08,1.25-1.57.25-1.81h0Z"/>
          <path class="cls-2" d="M41.18,91.87c-2.61-1.39-5.28-2.55-8.12-3.4-2.52-.76-5.58-1.91-8.2-1.12-.73.22-.8,1.14-.2,1.55,2.16,1.48,5.17,1.6,7.65,2.29,2.71.76,5.41,1.64,8.04,2.64,1.14.43,1.89-1.39.82-1.96h0Z"/>
          <path class="cls-2" d="M34.28,74.55c-3.92-2.62-9.77-3.85-14.43-3.57-.95.06-1.2,1.42-.23,1.69,2.31.65,4.66,1.09,6.98,1.69,2.31.6,4.57,1.53,6.91,2.01,1.11.23,1.73-1.19.77-1.83h0Z"/>
        </g>
        <path class="cls-3" d="M70.26,12.68c-4.87,11.21-9.84,22.35-15.98,32.94-6.25,10.77-13.4,21-21.48,30.48-2.22,2.6-4.5,5.14-6.84,7.64-2.31,2.47-4.97,4.75-7.02,7.45-.74.97.71,2.36,1.67,1.67,2.41-1.7,4.42-4.02,6.46-6.14,2.21-2.31,4.36-4.68,6.46-7.09,4.05-4.67,7.89-9.53,11.52-14.54,7.3-10.1,13.71-20.85,19-32.13,3.01-6.41,5.62-12.91,7.57-19.71.23-.79-1.02-1.37-1.37-.58h0Z"/>
      </g>
      <rect class="cls-1" width="100" height="100"/>
    </g>
  </g>
</svg>