<?xml version="1.0" encoding="UTF-8"?>
<svg id="Capa_2" data-name="Capa 2" xmlns="http://www.w3.org/2000/svg" viewBox="0 0 100 100">
  <defs>
    <style>
      .cls-1 {
        fill: #fff;
      }

      .cls-2 {
        fill: none;
      }

      .cls-3 {
        fill: #79983f;
      }

      .cls-4 {
        fill: #4a2d2d;
      }
    </style>
  </defs>
  <g id="COLOR">
    <g>
      <g>
        <g>
          <path class="cls-3" d="M90.57,26.16c1.39-1.49,3.57-3.6,3.8-5.75.44-4.18-5.71-3.25-9.46-2.48.49-.87.85-1.8.57-2.68-.35-1.08-1.45-1.47-2.49-1.52-2.95-.14-6.11.94-8.94,2.2.58-1.16,1-2.42.57-3.41-.48-1.1-1.69-1.32-2.76-1.11-1.95.37-3.89,1.83-5.46,2.97-1.49,1.09-2.86,2.32-4.17,3.61-.1-1.34-.5-2.71-1.84-2.73-2.12-.03-4.22,3-5.28,4.48-1.7,2.38-2.93,5.01-3.91,7.74-.06-.07-.12-.14-.18-.21-1.47-1.56-2.46,0-3.65.87-.62-2.56-1.84-6.01-4.2-7.16-2.48-1.21-3.44,1.09-4.81,2.61-2.03-2.28-5.02-5.03-7.98-5.66-2.49-.52-3.59,1.91-4.01,3.95-3.11-.73-8.01-.97-10.03,1.75-1.94,2.6.91,6.08,2.84,8.38-1.95.6-4.75,1.81-4.26,3.91.5,2.16,3.77,3.33,6.21,3.89-1.51,1.03-3.16,2.33-2,4.24,1.08,1.77,3.97,2.37,6.25,2.56-1.3,1.48-2.27,3.39-.94,5.2.08.11.17.21.27.3-2.87,1.15-5.6,2.74-7.83,4.6-1.1.91-2.82,2.68-2.49,4.31.16.78.82,1.04,1.55,1.15-2.27,1.88-4.44,3.97-5.57,6.73-.44,1.07-1.06,2.69-.39,3.76.43.68,1.18.85,1.95.91-1.06,1.67-2.29,3.88-1.91,5.6.34,1.54,1.68,1.94,3.03,1.95-.81,2.63-1.28,5.36-1.28,8.13,0,1.87-.11,5.32,2.03,6.2,1.81.75,3.66-.76,4.95-1.83,1.79-1.48,3.34-3.15,4.76-4.95.26,2.67,1.03,6.02,3.82,4.54,2.69-1.44,4.63-4.53,5.76-7.44.43.55.89,1.07,1.58,1.3,1.14.37,2.25-.16,3.03-.97,1.67-1.76,2.41-4.62,2.79-7.25.49.51,1.08.88,1.74.92,1.39.08,2.21-1.4,2.77-2.44,1.01-1.85,1.7-4.04,2.08-6.28.49.34,1.07.55,1.77.55,1.52,0,2.54-.97,3.29-2.15.5,1.18,1.08,2.33,1.77,3.43.81,1.29,1.84,3.07,3.33,3.68,2.39.98,4.09-2.01,5.14-4.29,1.59,2.58,3.76,5.22,6.45,6.42,2.24,1,3.94-.27,4.73-2.17,2.3,1.8,6.16,4.59,7.02.31.35-1.74-.22-4.02-.61-5.72-.4-1.73-.98-3.4-1.68-5.02,1.9.44,4.1.44,4-1.86-.07-1.47-1.32-2.99-2.13-4.14-.66-.94-1.39-1.82-2.16-2.66.92-.11,1.7-.52,1.67-1.61-.04-1.79-2.41-3.83-4.16-5.25,1.22-.45,2.44-1.25,2.6-2.29.93-.25,1.83-.57,2.7-.96.92-.42,2.53-1.08,2.48-2.32-.03-.62-.47-1.06-1.05-1.39,1.02-.23,2.03-.5,3.03-.83,1.23-.4,2.97-.84,3.57-2.13.89-1.9-1.04-2.84-2.89-3.4.87-.5,1.71-1.04,2.51-1.66,1.07-.83,3.08-2.12,2.99-3.7-.09-1.82-2.53-2.2-4.69-2.23,1.35-1.08,2.63-2.21,3.82-3.49Z"/>
          <path class="cls-4" d="M45.44,32.58c-.48,3.06-1.05,6.18-1.15,9.27-.01.36.52.42.62.08.84-2.96,1.12-6.18,1.33-9.25.03-.45-.73-.57-.8-.11h0Z"/>
          <path class="cls-4" d="M27.12,42.2c4.55-.5,9.23-1.03,13.79-.42.37.05.7-.47.28-.67-1.9-.91-4.23-.66-6.29-.6-2.66.08-5.29.34-7.9.85-.46.09-.37.89.11.84h0Z"/>
          <path class="cls-4" d="M26.7,36.35c2.06-.21,4.21-.17,6.24-.6.45-.09.28-.68-.1-.73-2.06-.25-4.23.17-6.25.5-.46.08-.36.88.11.83h0Z"/>
          <path class="cls-4" d="M57.86,49.79c2.28-.42,4.54-.3,6.81-.59.38-.05.55-.64.1-.74-2.29-.53-4.91-.09-7.19.33-.66.12-.38,1.12.28,1h0Z"/>
          <path class="cls-4" d="M61.5,62.33c.2.76.28,1.54.46,2.3.11.46.77.34.8-.11.05-.81-.16-1.66-.36-2.44-.15-.59-1.06-.34-.91.25h0Z"/>
          <path class="cls-4" d="M37.3,62.71c.39,1.67.63,3.37.96,5.05.1.48.9.38.86-.12-.12-1.75-.56-3.47-1.08-5.14-.15-.47-.86-.28-.74.21h0Z"/>
        </g>
        <g>
          <path class="cls-4" d="M58.58,35.57c2.89-1.19,5.68-2.06,8.88-2.33,3.52-.29,7.1,0,10.61.22.58.04.55-.82,0-.89-5.22-.61-11.57-1.29-16.82.59.6-.5,1.21-1,1.84-1.47,4.71-3.58,9.82-5.84,15.14-8.31.41-.19.11-.81-.3-.71-5.75,1.46-11.32,4.89-15.99,8.46-3.56,2.73-6.95,5.91-9.66,9.54.59-2.23.95-4.48.78-6.99-.14-2.1-.53-4.79-2.04-6.4-.23-.25-.46-.41-.67-.52.08.11.17.21.24.33.86,1.31,1.12,3.12,1.3,4.65.21,1.82.12,3.66-.15,5.47-.28,1.88-.77,3.71-1.37,5.5-.14.41-.28.82-.42,1.23-.05.15-.09.31-.14.46-.36,1.08-.6,2.28-1.25,3.24-.23.34-.5.59-.8.78-2.08-4.23-5.23-8.44-8.65-11.72h0c-.62-4.13-3.03-8.28-5.16-11.8-.3-.49-1.06-.05-.77.45,1.87,3.21,3.01,6.66,4.46,10.02-3.88-3.29-8.62-5.52-13.33-7.35-.48-.19-.83.63-.36.84,4.96,2.16,10.14,4.69,14.1,8.45,3.59,3.41,5.86,7.67,8.86,11.51-.6.2-1.25.3-1.91.48-1.15.31-2.3.62-3.45.9-.66.16-1.32.32-1.98.46-.67.18-1.34.35-2.01.51-2.11.5-4.27.9-6.43,1.09-1.86.16-3.97.25-5.69-.6-.79-.39-1.33-1.04-1.63-1.79-.01.64.16,1.29.63,1.92,1.73,2.35,6.62,1.7,9.04,1.5,3.01-.25,5.94-.75,8.86-1.51.32-.08.65-.17.98-.25-3.84,2.26-7.35,5.37-10.45,8.66-3.73.71-7.91,1.84-11.14,3.9-.37.24-.14.85.3.72,3.21-.9,6.35-2.17,9.54-3.22-.42.46-.83.93-1.24,1.39-3.85,4.46-7.69,9.67-9.67,15.26-.16.44.51.69.74.31,2.98-4.89,5.67-9.73,9.31-14.14,0,.04,0,.08,0,.13,1,4.8,1.09,9.65,1.86,14.46.06.38.68.37.75,0,.88-4.72-.47-10.16-1.57-14.75-.08-.33-.36-.43-.61-.37.17-.2.34-.41.51-.61,3.86-4.39,8.34-7.79,12.87-11.4-1.31,5.14-1.67,10.73.29,15.7.71,1.8,1.78,4.01,4.03,4,.08,0,.16-.01.23-.02-.3-.25-.56-.51-.76-.75-2.36-2.74-3.31-6.76-3.4-10.29-.05-2.08.19-4.18.5-6.24.14-.94.3-1.89.54-2.81.07-.27.15-.52.24-.77.79-.27,1.57-.57,2.25-.97.24-.14.55-.44.82-.75,1.7.7,3.37,1.49,4.99,2.38-.01.05-.03.1-.02.16.26,4.36.47,8.8,1.46,13.06.08.34.6.26.6-.08-.02-4.2-.65-8.42-1.1-12.6,2.72,1.58,5.29,3.42,7.6,5.53,1.93,1.76,3.7,3.68,5.29,5.76,1.66,2.17,2.92,4.59,4.53,6.79.31.43,1.11.2.92-.39-1.64-5.14-6.05-9.88-10.04-13.35-.45-.39-.91-.76-1.37-1.13,1.86-.11,3.75-.23,5.61-.09,2.03.15,3.85.74,5.79,1.3.46.13.67-.48.31-.74-3.41-2.41-8.33-1.77-12.22-1.34-.16.02-.27.1-.34.21-3.5-2.67-7.34-4.76-11.52-6.22.02-.05.07-.11.08-.15.41-1.24.82-2.42,1.22-3.58.1-.07.2-.14.3-.21,2.29-1.43,4.7-2.76,7.23-3.77,2.22-.88,5.42-2.19,7.78-1.17,1.51.65-.53,1.95-.79,2.72-.29.84.99,1.07,1.51,1.21,1.45.39,2.91.75,4.34,1.22,1.62.53,3.46,1.25,4.88,2.21.94.64,1.36,1.36,1.52,2.2.37-.57.42-1.24-.1-1.99-.96-1.4-3.25-2.23-4.73-2.94-1.69-.81-3.45-1.47-5.25-1.96.65-.89,1.12-1.82.31-2.94-1.23-1.68-4.15-1.39-5.91-1.15-3.54.48-6.7,2.09-9.62,4.08,1.93-2.26,3.91-4.44,6.04-6.48Z"/>
          <path class="cls-4" d="M64.1,28.36c.78-1.42,1.49-2.86,2.34-4.24.85-1.37,1.87-2.63,2.73-3.99.25-.39-.3-.78-.63-.48-2.34,2.16-4.17,5.4-5.19,8.4-.15.43.52.71.74.31Z"/>
        </g>
        <path class="cls-1" d="M79.53,30.35c.49.17,1.02.07,1.47-.16.35-.18.6-.62.58-1.01-.02-.48-.27-.88-.72-1.07-.25-.11-.51-.13-.78-.05-.05.01-.09.03-.14.04l.31-.04c-.07,0-.14,0-.2,0l.32.04c-.05-.01-.11-.03-.16-.05l.29.12-.04-.02c-.3-.15-.6-.2-.93-.12-.36.08-.64.37-.78.7-.13.31-.13.62,0,.93.15.36.42.57.78.7h0Z"/>
        <path class="cls-1" d="M70.58,47.8c-.39-.21-.82-.23-1.25-.15-.24.04-.5.27-.61.47-.13.22-.18.55-.1.79.1.3.33.56.63.69.28.12.6.08.9.08.28,0,.54.06.78-.13.2-.16.32-.38.32-.64,0-.45-.28-.9-.66-1.11Z"/>
        <path class="cls-1" d="M61.42,44.98c.05-.14.05-.3,0-.45,0,0,0,0,0-.01-.03-.11-.08-.21-.15-.29-.06-.09-.14-.17-.24-.22-.1-.06-.21-.1-.32-.1-.11-.03-.23-.02-.34.02-.15.04-.27.11-.38.22l-.13.17c-.08.13-.12.28-.12.43l.03.23c.04.15.11.27.22.38l.17.13c.13.08.28.12.43.12.12,0,.23-.02.33-.07.11-.03.2-.09.28-.18.11-.11.18-.23.22-.38h0Z"/>
        <path class="cls-1" d="M58.83,70.87c1.12,0,1.12-1.74,0-1.74s-1.12,1.74,0,1.74h0Z"/>
        <path class="cls-1" d="M16.69,68.11l-.13.2-.09.21c-.04.12-.04.24-.02.35,0,.08.02.15.06.22.04.11.1.21.18.29l.18.14.21.09c.12.04.24.04.35.02.12,0,.23-.04.33-.11l.2-.13c.14-.08.25-.2.34-.34.09-.15.13-.3.13-.47l-.03-.25c-.04-.16-.13-.3-.24-.41-.09-.09-.19-.16-.3-.19-.11-.06-.23-.09-.36-.08-.17,0-.33.04-.47.13-.14.08-.25.2-.34.34h0Z"/>
        <path class="cls-1" d="M40.37,72.68c1.04,0,1.04-1.61,0-1.61s-1.04,1.61,0,1.61h0Z"/>
        <path class="cls-1" d="M42.46,30.44c0-.33-.05-.64-.13-.96-.04-.16-.08-.34-.17-.49-.16-.27-.49-.49-.82-.47-.3.01-.56.14-.74.38-.13.16-.18.35-.23.55-.09.33-.13.66-.14,1-.01.58.52,1.14,1.12,1.12.59-.03,1.13-.49,1.12-1.12h0Z"/>
        <path class="cls-1" d="M32.06,25.41c-.06-.3-.24-.62-.48-.81s-.51-.26-.82-.29c-.28-.03-.57.17-.7.4-.15.25-.14.57,0,.82.02.03.03.05.04.08l-.09-.21s.03.08.04.13c.02.12.07.23.12.34l-.1-.23c.02.06.04.12.05.19l-.04-.26s0,.07,0,.1c0,.61.55,1.06,1.14.98.27-.04.49-.16.65-.38.2-.26.25-.55.18-.87h0Z"/>
        <path class="cls-1" d="M33.75,47.3c1.02,0,1.02-1.58,0-1.58s-1.02,1.58,0,1.58h0Z"/>
      </g>
      <rect class="cls-2" width="100" height="100"/>
    </g>
  </g>
</svg>