<?xml version="1.0" encoding="UTF-8"?>
<svg id="Capa_2" data-name="Capa 2" xmlns="http://www.w3.org/2000/svg" viewBox="0 0 100 100">
  <defs>
    <style>
      .cls-1 {
        fill: #fff;
      }

      .cls-2 {
        fill: none;
      }

      .cls-3 {
        fill: #4a2d2d;
      }

      .cls-4 {
        fill: #f8bf45;
      }
    </style>
  </defs>
  <g id="COLOR">
    <g>
      <g>
        <g>
          <path class="cls-4" d="M51.28,10.18c-1.97-3.28-7.17-.93-5.93,2.74.62,1.84,2.66,2.88,4.4,1.94,1.74-.93,2.62-2.87,1.53-4.68Z"/>
          <path class="cls-4" d="M33.8,16.25c-2.08-5.08-10.7-2.33-9.6,3.03.59,2.88,3.4,4.69,6.26,3.91,2.92-.79,4.48-4.17,3.35-6.94Z"/>
          <path class="cls-4" d="M19.75,30.87c-3.15-3.29-9.29.62-6.82,4.76,1.26,2.11,4.15,2.6,6.1,1.17,1.89-1.38,2.4-4.17.72-5.93Z"/>
          <path class="cls-4" d="M37.21,32.41c-.46-.79-1.24-1.38-2.08-1.73-2.71-1.14-5.4,1.01-6.39,3.44-1.1,2.72,1,5.49,3.91,5.25,1.63-.13,3.1-1.16,4.03-2.5.81-1.16,1.25-2.69.74-4.01-.06-.16-.13-.31-.22-.45Z"/>
          <path class="cls-4" d="M53.4,24.77c-.83-1.97-3.11-2.76-5.09-2.2-2.46.7-3.87,3.39-3.57,5.84.32,2.62,3.24,3.7,5.51,2.8,2.46-.98,4.24-3.87,3.15-6.45Z"/>
          <path class="cls-4" d="M67.03,20.62c-3.72-2.8-8.76,2.36-5.63,5.99,1.56,1.8,4.36,2.01,6.11.35,1.84-1.75,1.52-4.84-.48-6.35Z"/>
          <path class="cls-4" d="M84.09,29.91c-1.25-1.47-3.58-2.24-5.44-1.46-2.15.9-3.26,3.92-2.02,5.94,1.18,1.91,4.37,2.63,6.28,1.42,1.8-1.15,2.63-4.19,1.18-5.9Z"/>
          <path class="cls-4" d="M66.57,36.42c-1.14-1.49-3.22-1.89-4.8-.86-2.22,1.45-3.27,4.54-1.83,6.9,1.29,2.12,4.08,2.37,5.87.75,1.82-1.65,2.29-4.8.76-6.79Z"/>
          <path class="cls-4" d="M76.11,46.9c-3.29-2.57-8.33,1.9-6,5.45,1.19,1.81,3.8,2.28,5.54,1.02,1.95-1.41,2.48-4.89.46-6.46Z"/>
          <path class="cls-4" d="M87.71,50.27c-4.24-1.28-7.04,5.36-2.66,6.85,1.98.68,4-.48,4.78-2.34.82-1.95-.1-3.9-2.12-4.51Z"/>
          <path class="cls-4" d="M76.16,63.72c-3.93-2.73-9.04,2.76-5.77,6.3,1.54,1.66,4.18,1.32,5.61-.29,1.32-1.5,2.09-4.67.16-6.01Z"/>
          <path class="cls-4" d="M61.59,59.43c-.14-1.83-1.25-3.46-3.51-3.57-2.6-.12-4.67,2.2-4.77,4.71-.1,2.6,2.26,4.62,4.83,4.07,2.36-.5,3.61-3.01,3.44-5.21Z"/>
          <path class="cls-4" d="M48.05,42.61c-1.73-1.02-4.03-1.08-5.9.56-2.54,2.22-1.82,5.83.83,7.64,2.51,1.72,5.84,1.14,7.17-1.72,1.24-2.68-.02-5.27-2.1-6.48Z"/>
          <path class="cls-4" d="M26.21,45.83c-4.96-1.6-7.84,6.64-3.63,9.09,2.36,1.37,5.65-.18,6.59-2.58,1.01-2.57-.27-5.65-2.96-6.52Z"/>
          <path class="cls-4" d="M16.49,57.68c-1.74-.86-4-.63-5.29.96-1.35,1.67-1.31,4.66.55,5.94,1.96,1.35,4.58.89,6.01-.99,1.54-2.02,1.05-4.77-1.27-5.92Z"/>
          <path class="cls-4" d="M39.26,60.88c-.69-.23-1.46-.26-2.21-.01-2.5.83-3.61,4.7-1.23,6.36,1.88,1.3,4.14.36,5.37-1.35,1.46-2.03.07-4.34-1.94-5Z"/>
          <path class="cls-4" d="M55.08,72.03c-1.36-1.98-4.41-2.7-6.25-.99-1.59,1.48-2.65,3.76-1.79,5.88,1.01,2.49,3.86,2.96,5.94,1.45,1.79-1.3,3.55-4.23,2.1-6.34Z"/>
          <path class="cls-4" d="M69.16,77.78c-3.27-1.85-7.75,2.01-5.13,5.29,1.49,1.87,4.06,2.08,5.68.19,1.41-1.65,1.5-4.32-.54-5.48Z"/>
          <path class="cls-4" d="M29.19,71.4c-3.76-2.47-8.07,2.74-5.53,6.2,1.58,2.15,4.62,2.29,6.36.27,1.71-1.98,1.39-5.02-.84-6.48Z"/>
          <path class="cls-4" d="M42.86,83.36c-1.01-1.13-2.63-1.53-4.06-1.05-2.38.79-3.89,3.51-2.94,5.92.99,2.51,4.3,2.74,6.25,1.26,1.93-1.46,2.41-4.26.75-6.13Z"/>
          <g>
            <path class="cls-1" d="M18.11,33.11c.6,0,.6-.93,0-.93s-.6.93,0,.93h0Z"/>
            <path class="cls-1" d="M27.84,19.35c1.81,0,1.81-2.81,0-2.81s-1.81,2.81,0,2.81h0Z"/>
            <path class="cls-1" d="M47.71,12.78c1.61,0,1.61-2.5,0-2.5s-1.61,2.5,0,2.5h0Z"/>
            <path class="cls-1" d="M44.4,47.24c1.73,0,1.74-2.7,0-2.7s-1.74,2.7,0,2.7h0Z"/>
            <path class="cls-1" d="M38.4,65.49c.99,0,.99-1.53,0-1.53s-.99,1.53,0,1.53h0Z"/>
            <path class="cls-1" d="M14.8,62.67c1.88,0,1.88-2.91,0-2.91s-1.88,2.91,0,2.91h0Z"/>
            <path class="cls-1" d="M49.2,75.67l.25.24.27.21.31.13.35.05c.18,0,.35-.03.51-.11.11-.03.21-.09.29-.17.1-.06.18-.14.24-.24.08-.08.14-.18.17-.29.08-.16.12-.33.11-.51l-.04-.32c0-.26-.07-.5-.2-.73-.13-.22-.3-.39-.52-.52-.22-.13-.47-.2-.73-.2-.2,0-.38.03-.55.12-.18.06-.33.16-.46.3-.18.18-.3.39-.37.64-.13.48,0,1.05.37,1.4h0Z"/>
            <path class="cls-1" d="M57.65,61.42c.2,0,.39-.03.56-.12.18-.06.33-.16.47-.3.14-.13.24-.29.3-.47.09-.17.13-.36.12-.56l-.05-.39c-.07-.25-.19-.46-.37-.64l-.29-.23c-.23-.13-.47-.2-.73-.2-.2,0-.39.03-.56.12-.18.06-.33.16-.47.3-.14.13-.24.29-.3.47-.09.17-.13.36-.12.56l.05.39c.07.25.19.46.37.64l.29.23c.23.13.47.2.73.2h0Z"/>
            <path class="cls-1" d="M78.97,33.55c1.97,0,1.97-3.06,0-3.06s-1.97,3.06,0,3.06h0Z"/>
            <path class="cls-1" d="M61.74,37.39c-.25.35-.26.82-.18,1.23.03.15.09.31.18.44.22.35.49.58.9.7.19.06.37.07.56.02.19,0,.36-.06.52-.17l.28-.22c.14-.13.23-.28.29-.45.06-.11.09-.23.1-.35.04-.19.03-.37-.02-.56l-.14-.33c-.12-.21-.29-.38-.5-.5-.12-.09-.27-.12-.41-.17l.33.14s-.05-.02-.07-.04l.27.21s-.04-.04-.06-.06c.07.09.14.18.21.27-.02-.02-.03-.04-.04-.07.04.1.09.21.13.31,0-.03-.02-.05-.02-.08l.05.34s0-.03,0-.04l-.05-.34c-.04-.16-.11-.31-.23-.43-.06-.1-.13-.17-.23-.23-.12-.11-.27-.19-.43-.23l-.34-.05-.34.05c-.16.04-.31.11-.43.23-.14.09-.25.21-.33.36h0Z"/>
            <path class="cls-1" d="M64.48,25.86c1.66,0,1.67-2.59,0-2.59s-1.67,2.59,0,2.59h0Z"/>
            <path class="cls-1" d="M73.38,65.38c-.09,0-.17.02-.26.03-.06,0-.12,0-.17.03-.16.04-.29.11-.41.21-.06.05-.1.07-.15.12-.11.11-.19.23-.24.37-.07.14-.11.29-.1.45l.04.31c.06.2.16.37.3.51,0,0,.02.02.02.02.15.15.33.25.53.31.06.02.11.03.17.03.09.01.17.02.26.03.17,0,.32-.03.47-.1.15-.05.28-.13.39-.25.12-.11.2-.24.25-.39.08-.14.11-.3.1-.47l-.04-.32c-.06-.21-.16-.38-.31-.53l-.25-.19c-.19-.11-.39-.16-.61-.17h0Z"/>
            <path class="cls-1" d="M66.42,79.77l-.83.22c-.26.07-.41.35-.34.61s.35.41.61.34l.83-.2c.26-.06.42-.36.35-.62s-.35-.42-.62-.35h0Z"/>
            <path class="cls-1" d="M38.86,85.86c-.03.32.06.65.23.92-.04-.32-.08-.64-.13-.96-.06.22-.07.49,0,.7.06.19.15.39.3.53l.22.17.27.11s.02,0,.03.01c.07.03.09.02.2.03.11.03.22.03.33,0,.06,0,.13-.01.19-.03l-.96-.13c.27.19.61.26.94.26l.43-.06.39-.16c.19-.1.34-.24.45-.42.1-.1.17-.22.21-.36.07-.13.11-.26.11-.41.04-.14.04-.29,0-.43,0-.15-.04-.28-.11-.41-.07-.2-.18-.37-.34-.52l-.33-.25-.39-.16-.43-.06-.43.06-.39.16c-.19.1-.34.24-.45.42-.1.1-.17.22-.21.36-.1.19-.15.4-.14.62h0Z"/>
            <path class="cls-1" d="M50.82,26.62l.1-.18.11-.27c.05-.15.05-.3.02-.45,0-.1-.03-.2-.08-.29-.05-.14-.12-.26-.24-.37l-.23-.18-.27-.11c-.15-.05-.3-.05-.45-.02-.15,0-.29.05-.42.14l-.18.1c-.18.11-.32.25-.43.43-.11.19-.16.39-.16.6l.04.32c.06.2.16.38.31.53.11.12.24.2.38.25.14.07.3.11.46.1.42,0,.82-.23,1.03-.59h0Z"/>
          </g>
        </g>
        <path class="cls-3" d="M24.14,55.27c.73.07,1.53,0,2.21-.28.72-.3,1.37-.76,1.88-1.35s.86-1.28,1.06-2.02c.18-.68.35-1.61-.11-2.21-.1-.13-.29-.04-.34.09-.12.32-.1.64-.11.98s-.05.67-.14,1c-.16.64-.46,1.25-.88,1.77-.84,1.04-2.23,1.73-3.56,1.8-.15,0-.15.22,0,.23h0Z"/>
        <path class="cls-3" d="M17.45,37.8c.42-.11.84-.28,1.21-.51.42-.25.75-.56,1.04-.95.27-.36.46-.77.59-1.2.07-.22.11-.45.14-.67.03-.21.01-.51-.13-.67-.08-.09-.22-.07-.31,0-.13.11-.2.39-.24.55-.05.19-.11.38-.19.56-.15.34-.35.68-.58.98-.45.6-1.02,1.14-1.73,1.44-.27.11-.07.53.2.46h0Z"/>
        <path class="cls-3" d="M29.81,23.28c1.61-.25,3.11-.98,4.12-2.29.52-.67.88-1.47,1.02-2.31.13-.78.19-2.22-.74-2.54-.18-.06-.39.07-.44.25-.1.37.06.74.11,1.11s.02.78-.06,1.15c-.14.67-.44,1.31-.82,1.88-.75,1.16-1.91,2.12-3.28,2.4-.23.05-.13.38.1.35h0Z"/>
        <path class="cls-3" d="M32.58,39.62c1.6-.18,3.09-.87,4.1-2.15.54-.68.95-1.44,1.22-2.27.14-.43.23-.88.28-1.33.05-.39.11-1.01-.25-1.28-.19-.15-.41-.17-.6,0-.3.26-.28.76-.31,1.12s-.11.73-.21,1.08c-.2.71-.53,1.38-.97,1.96-.83,1.1-2.01,2.05-3.31,2.51-.18.06-.17.38.05.35h0Z"/>
        <path class="cls-3" d="M45.9,51.72c.66.26,1.36.27,2.03.03.71-.25,1.34-.7,1.8-1.3.51-.66.8-1.45.93-2.27.06-.43.1-.86.1-1.29,0-.22-.01-.45-.08-.66-.07-.22-.18-.37-.34-.53-.12-.12-.31-.09-.4.05-.21.33-.26.65-.24,1.04.01.35,0,.71-.03,1.06-.07.67-.26,1.37-.6,1.95-.59,1.04-1.85,1.88-3.09,1.65-.17-.03-.24.2-.07.26h0Z"/>
        <path class="cls-3" d="M47.55,31.49c.84.33,1.75.31,2.62.08s1.66-.62,2.29-1.23,1.09-1.42,1.31-2.29.31-1.93-.33-2.6c-.12-.13-.34-.06-.38.1-.2.73-.09,1.5-.27,2.23s-.52,1.4-1.01,1.94-1.14,1-1.87,1.22-1.54.24-2.3.16c-.24-.03-.24.31-.05.39h0Z"/>
        <path class="cls-3" d="M47.52,15.42c.49.13.98.13,1.47,0s.92-.35,1.31-.66c.36-.29.66-.67.87-1.08s.44-.98.3-1.45c-.07-.25-.5-.37-.62-.08-.16.37-.18.78-.34,1.15-.16.35-.38.67-.67.92-.6.54-1.45.76-2.25.71-.28-.02-.33.42-.07.49h0Z"/>
        <path class="cls-3" d="M63.69,28.21c.65.22,1.31.24,1.96.02s1.23-.56,1.72-1.03.87-1.1,1.12-1.74c.12-.31.22-.63.28-.96.08-.38.15-.75.04-1.12-.11-.35-.54-.31-.67,0s-.12.6-.17.9c-.06.29-.13.58-.24.86-.2.55-.51,1.05-.91,1.47-.38.4-.85.73-1.37.92s-1.14.32-1.72.29c-.23-.01-.26.32-.05.39h0Z"/>
        <path class="cls-3" d="M79.04,36.78c1.35.56,2.99.21,4.14-.65.55-.41,1.02-.94,1.36-1.54.29-.5.76-1.4.42-1.96-.09-.15-.31-.19-.44-.06-.21.22-.26.53-.32.81s-.17.57-.3.83c-.26.53-.63.99-1.09,1.36-1.03.82-2.38.99-3.65.8-.27-.04-.36.3-.11.41h0Z"/>
        <path class="cls-3" d="M84.39,56.57c.53.54,1.21.76,1.95.83s1.44-.1,2.06-.44c.59-.32,1.09-.81,1.45-1.37.31-.49.8-1.41.34-1.93-.08-.09-.27-.12-.37-.05-.25.18-.32.44-.4.72-.07.26-.18.5-.32.73-.27.46-.66.84-1.13,1.11-1.06.59-2.26.37-3.33-.06-.27-.11-.45.28-.27.46h0Z"/>
        <path class="cls-3" d="M71.85,53.74c.64.28,1.26.34,1.95.24s1.32-.37,1.86-.76c.51-.38.95-.86,1.26-1.41.27-.46.76-1.43.28-1.88-.09-.08-.23-.11-.34-.04-.26.15-.33.45-.4.73-.06.24-.14.47-.24.7-.23.5-.56.94-.99,1.29-.91.74-2.15.91-3.28.78-.18-.02-.27.28-.1.36h0Z"/>
        <path class="cls-3" d="M73.29,48.79l-.35-.29c-.09-.07-.17-.16-.27-.21l-.1-.05-.05-.03s-.01,0-.02-.01c-.04-.02-.09-.05-.13-.06-.12-.03-.25-.05-.36,0-.06.02-.11.04-.15.09-.03.03-.05.07-.07.11,0,.02-.02.04-.02.06-.02.09-.02.18.01.27.02.07.04.13.08.19.02.03.05.06.07.09.04.06.09.13.14.18.03.03.06.05.08.08l.39.35c.11.1.23.16.38.16.13,0,.29-.06.38-.16s.16-.24.16-.38c0-.13-.05-.29-.16-.38h0Z"/>
        <path class="cls-3" d="M86.14,52.66c-.14-.2-.3-.39-.48-.54-.11-.1-.23-.17-.36-.24-.02-.01-.05-.02-.07-.03-.06-.03-.13-.06-.19-.08-.04,0-.09-.01-.13-.02-.03,0-.07-.01-.1-.01l-.14.02s-.09.03-.13.06c-.1.06-.17.14-.21.25-.02.04-.03.08-.04.13-.02.07-.01.14,0,.21.03.17.21.33.36.42.06.04.12.08.17.12l-.12-.09c.08.07.17.13.26.19.05.03.1.07.15.11l-.12-.09c.1.08.2.17.29.26s.25.17.38.16c.12,0,.23-.04.33-.12.09-.07.17-.17.19-.28.03-.13.03-.3-.05-.42h0Z"/>
        <path class="cls-3" d="M62.35,40.69l-.21-.15c-.07-.05-.13-.09-.22-.11-.11-.02-.23-.06-.33-.02l-.1.04c-.05.03-.09.06-.12.11-.03.03-.05.06-.06.1-.03.05-.04.11-.04.17-.01.11.05.22.1.31.04.08.1.12.17.18l.2.16c.06.06.14.1.22.13l.13.02c.09,0,.17-.02.25-.07.06-.03.11-.07.14-.13.04-.05.07-.11.09-.17.02-.07.02-.13,0-.2,0-.07-.02-.13-.06-.19-.04-.08-.1-.14-.18-.18h0Z"/>
        <path class="cls-3" d="M62.87,44.15c1.72.43,3.34-.78,4.09-2.26.41-.81.64-1.69.73-2.59.07-.68.02-1.94-.88-2-.15-.01-.29.14-.28.28.02.31.18.56.23.86s.03.61-.02.92c-.11.72-.27,1.47-.57,2.13-.58,1.3-1.76,2.36-3.25,2.31-.2,0-.24.3-.05.35h0Z"/>
        <path class="cls-3" d="M47.02,27.36h-.01s.08.03.12.05c-.14-.06-.28-.14-.41-.24l.1.08c-.05-.04-.1-.08-.15-.12s-.08-.09-.13-.13c-.07-.07-.14-.14-.23-.19-.02-.01-.05-.03-.07-.04-.06-.03-.1-.06-.17-.08-.12-.05-.27,0-.37.08-.11.09-.15.19-.17.33,0,.06.01.12.02.18,0,.03,0,.05.02.08.02.09.06.17.11.25.08.12.18.23.29.32s.23.18.35.25.26.13.4.18c.12.04.29,0,.39-.05s.21-.18.23-.3c.03-.13.02-.28-.05-.39l-.08-.1c-.06-.06-.14-.11-.22-.13h0Z"/>
        <path class="cls-3" d="M48.64,23.85c.43,0,.43-.67,0-.67s-.43.67,0,.67h0Z"/>
        <path class="cls-3" d="M64.7,21.12l-.41-.28c-.07-.05-.14-.08-.21-.12-.02,0-.03-.02-.05-.03-.07-.04-.14-.06-.22-.06h-.03s-.07,0-.11,0c-.22,0-.41.22-.34.44.01.03.02.06.04.09.03.08.06.15.12.22.01.02.03.03.05.05l.08.08c.06.06.12.1.18.15l.41.3c.06.04.12.05.18.06.06.01.13.01.19,0,.11-.03.23-.12.29-.22.06-.11.09-.25.05-.37l-.05-.12c-.04-.07-.1-.13-.17-.17h0Z"/>
        <path class="cls-3" d="M82.35,29.76l-.35-.44c-.06-.07-.11-.15-.18-.22-.08-.08-.16-.18-.25-.24-.05-.03-.12-.05-.18-.07-.06-.02-.13-.03-.2-.01-.1.03-.17.13-.17.24,0,.06.02.12.03.17.02.12.09.2.16.3s.14.19.22.27l.43.47c.12.13.36.13.48,0,.06-.06.1-.15.1-.24,0-.1-.04-.17-.1-.24h0Z"/>
        <path class="cls-3" d="M30.57,15.54c-.1-.18-.23-.35-.39-.49-.07-.06-.14-.12-.21-.18-.06-.05-.15-.13-.23-.14-.07-.01-.13-.02-.2-.02-.1,0-.2.07-.23.16-.04.09-.02.21.05.28.03.03.06.06.08.09.05.05.1.07.16.1.08.04.15.08.21.13l-.06-.04c.12.1.23.2.33.33l-.04-.05s.06.08.08.12c.07.11.23.17.35.09s.16-.22.09-.35h0Z"/>
        <path class="cls-3" d="M28.13,21.43c.33,0,.33-.52,0-.52s-.33.52,0,.52h0Z"/>
        <path class="cls-3" d="M49.07,9.83l.37.06s.06,0,.08-.01c.02-.01.03-.03.04-.05.02-.05,0-.11-.04-.13l-.32-.16s-.08-.03-.12-.02c-.05.01-.09.05-.1.09-.02.04-.02.08,0,.12s.06.09.1.09h0Z"/>
        <path class="cls-3" d="M14.07,33.59c.17.16.36.3.56.43.09.05.18.1.27.15.04.02.07.03.11.05.06.02.12.03.18.04.09,0,.2,0,.27-.05.11-.08.17-.2.14-.33-.02-.09-.09-.15-.16-.21-.03-.03-.07-.07-.11-.09-.05-.03-.1-.04-.15-.06l.09.04c-.24-.1-.47-.23-.68-.39l.07.05s-.07-.06-.11-.09c-.07-.06-.15-.1-.24-.1-.08,0-.18.04-.24.1-.12.13-.14.35,0,.48h0Z"/>
        <path class="cls-3" d="M30.21,35.74c.09.1.19.19.31.26.03.01.05.03.08.04s.05.02.08.04.06.01.09.02c.06,0,.12,0,.18,0s.12-.04.14-.1c.01-.06,0-.13-.07-.16-.05-.03-.1-.06-.14-.09l.04.03s-.05-.04-.08-.06c-.02,0-.04-.02-.06-.03-.04-.02-.07-.05-.11-.07l.04.03c-.07-.05-.12-.11-.18-.17l.03.04s-.01-.01-.02-.02c-.03-.05-.07-.08-.13-.1-.06-.02-.13,0-.18.04-.05.04-.07.08-.08.14,0,.07.01.12.06.18h0Z"/>
        <path class="cls-3" d="M30.85,33.57s.05.02.07.03l-.08-.03c.17.07.33.16.48.26.08.05.15.11.23.15.09.04.17.08.25.13.16.09.36.05.47-.09s.1-.35-.03-.48c-.07-.07-.14-.14-.22-.2-.07-.05-.12-.09-.2-.12s-.15-.06-.22-.09c-.19-.07-.38-.13-.58-.17-.09-.02-.17-.01-.25.03-.07.04-.13.12-.15.2-.02.08-.01.18.03.25s.11.12.2.15h0Z"/>
        <path class="cls-3" d="M23.39,50.88c.1.07.2.15.31.21.07.04.14.08.22.11.06.02.12.03.17.05.08.02.16,0,.21-.07s.05-.15.02-.22l-.09-.16c-.04-.07-.1-.13-.16-.19-.08-.09-.18-.17-.28-.26-.07-.06-.14-.09-.24-.1-.1,0-.2.05-.26.13-.06.07-.08.15-.07.25,0,.04.02.09.04.12.03.05.07.09.12.12h0Z"/>
        <path class="cls-3" d="M23.93,48.39l.5.29s.08.05.12.07c.09.05.19.05.29.07l.12.02c.06,0,.12,0,.18-.01.12-.02.2-.17.16-.28-.01-.03-.02-.07-.04-.1-.02-.04-.05-.07-.07-.1l-.08-.1c-.05-.06-.09-.12-.16-.16-.04-.03-.08-.05-.12-.07l-.5-.29c-.09-.05-.2-.07-.3-.04-.09.02-.19.09-.23.18-.1.18-.05.42.14.53h0Z"/>
        <path class="cls-3" d="M42.14,48.29l.27.22c.07.06.15.11.23.17.08.06.18.09.28.08h.07c.07,0,.13-.02.19-.05.04-.02.08-.06.11-.1.03-.04.06-.08.07-.13.02-.07.02-.14,0-.2l-.02-.06c-.03-.08-.06-.15-.12-.21-.03-.04-.08-.06-.12-.09-.05-.03-.1-.07-.15-.1l-.31-.17c-.09-.05-.22-.07-.32-.04l-.1.04s-.09.06-.12.11c-.03.03-.04.06-.05.09-.03.05-.04.1-.04.16,0,.1.04.22.12.29h0Z"/>
        <path class="cls-3" d="M45.77,43.61l.25.15s.08.05.13.07l.14.06s.06.03.09.03c.03,0,.06,0,.09,0,.05-.02.09-.04.12-.08s.05-.09.05-.14v-.06s-.04-.07-.07-.1l-.09-.11s-.06-.07-.1-.1l-.21-.2c-.06-.06-.14-.09-.23-.1-.06,0-.11.02-.17.04-.04.02-.07.05-.09.08-.03.03-.05.07-.06.11-.01.04-.02.09,0,.13,0,.04.01.08.04.12.03.05.07.09.12.12h0Z"/>
        <path class="cls-3" d="M11.56,62.24c.09.1.2.18.31.26s.24.15.36.19c.05.01.1.03.15.04.03,0,.05,0,.08.01.09.01.09.02.16,0,.03,0,.05,0,.08-.01.13-.02.26-.06.35-.15s.08-.22,0-.31c-.06-.06-.13-.1-.2-.14-.03-.02-.05-.04-.08-.05-.06-.04-.12-.05-.18-.08l.09.04c-.09-.04-.18-.09-.27-.13s-.18-.1-.26-.16l.08.06s-.08-.07-.12-.1c-.15-.14-.41-.16-.55,0s-.15.39,0,.55h0Z"/>
        <path class="cls-3" d="M12.51,65.29c1.5.71,3.36.5,4.65-.53.62-.49,1.11-1.17,1.43-1.89.16-.36.27-.73.34-1.11s.15-.94-.14-1.25c-.17-.18-.44-.11-.56.07-.18.27-.11.71-.13,1.02-.03.33-.11.65-.21.97-.22.65-.62,1.2-1.15,1.63-1.13.92-2.67,1.1-4.03.65-.26-.09-.44.33-.19.45h0Z"/>
        <path class="cls-3" d="M37.6,62.53c-.05-.03-.1-.07-.16-.1-.05-.03-.12-.05-.17-.07l-.09-.03s-.06-.02-.09-.03c-.08-.03-.16,0-.24,0-.02,0-.04,0-.07,0-.06.01-.13.06-.17.12s-.04.14-.02.21c0,.02.02.04.03.06.03.07.05.15.12.2.02.02.05.04.07.06l.07.06s.1.08.14.11c.05.03.11.06.17.08.04.03.09.04.14.05.05.01.1,0,.16,0,.09-.02.19-.09.23-.18.05-.09.07-.2.04-.3l-.04-.09c-.03-.06-.08-.11-.14-.14h0Z"/>
        <path class="cls-3" d="M35.75,64.56s.03-.05,0-.05-.03.05,0,.05h0Z"/>
        <path class="cls-3" d="M35.75,65.02v.09s.02.03.02.04v.02s0,0,0,.01l.05.11s.05.07.07.1c.04.04.09.08.15.1.05.03.11.04.18.04l.12-.02c.08-.02.15-.06.2-.12.01-.02.03-.03.04-.05.03-.03.05-.06.06-.1.01-.04.02-.04.02-.06v-.02s0-.03,0-.04v-.09c.04-.09.04-.17.01-.26-.02-.08-.07-.15-.13-.22l-.1-.08c-.08-.04-.16-.07-.25-.07-.07,0-.13.01-.19.04-.06.02-.11.05-.16.1-.06.06-.1.13-.13.22-.02.09-.02.17,0,.26h0Z"/>
        <path class="cls-3" d="M35.32,67.18c1.12,1.22,3.25,1.21,4.6.4.67-.4,1.24-1.01,1.59-1.71s.64-1.58.3-2.33c-.12-.27-.51-.16-.59.08-.19.6-.18,1.23-.47,1.81s-.72,1.07-1.27,1.4-1.22.47-1.87.44-1.31-.29-1.92-.58c-.31-.15-.62.22-.37.49h0Z"/>
        <path class="cls-3" d="M55.95,60.97c-.1-.09-.19-.18-.29-.27l-.15-.12s-.05-.04-.07-.06c-.03-.04-.07-.06-.11-.08-.08-.05-.16-.07-.25-.07-.02,0-.03,0-.05,0-.09,0-.16.02-.24.06-.07.04-.13.1-.17.17-.09.15-.08.33,0,.48.05.09.12.18.21.23.03.02.06.03.09.05l.18.09c.12.06.24.11.36.16.05.03.1.05.15.05.05.01.11,0,.16,0,.09-.03.16-.07.21-.15s.09-.16.09-.25c0-.11-.04-.21-.12-.29h0Z"/>
        <path class="cls-3" d="M56.22,58.48l-.19-.23c-.04-.05-.08-.11-.14-.14-.04-.02-.08-.04-.12-.07-.06-.03-.14-.03-.19.01-.02.02-.04.04-.05.07-.02.04-.02.07,0,.11,0,.05.02.09.03.14.01.06.06.12.09.18l.16.25c.04.06.09.1.16.12.08.03.17,0,.24-.05.06-.05.09-.1.1-.18,0-.04,0-.07,0-.11-.01-.05-.04-.09-.07-.12h0Z"/>
        <path class="cls-3" d="M54.46,63.9c.25.47.87.69,1.35.83.52.15,1.08.2,1.62.15,1.15-.11,2.16-.67,2.94-1.51.79-.84,1.28-1.95,1.44-3.09.09-.64.03-1.3-.1-1.93-.12-.59-.3-1.41-.87-1.71-.2-.1-.54-.03-.58.24-.08.55.21,1,.36,1.52s.2,1.04.21,1.57c0,1.02-.27,1.97-.91,2.78-.59.76-1.45,1.27-2.4,1.44-.49.08-1,.07-1.48-.04s-.89-.42-1.37-.51c-.15-.03-.28.12-.2.26h0Z"/>
        <path class="cls-3" d="M59.65,56.01s.03-.05,0-.05-.03.05,0,.05h0Z"/>
        <path class="cls-3" d="M69.97,70.02c1.27,1.45,3.56,1.78,5.22.8.92-.55,1.61-1.44,2.05-2.41.26-.58.46-1.17.53-1.8.07-.6.09-1.25-.33-1.72-.18-.2-.51-.08-.58.15-.15.49-.03,1-.1,1.5s-.2.98-.39,1.44c-.33.82-.86,1.61-1.61,2.1-1.35.88-3.25.66-4.43-.42-.24-.22-.57.11-.36.36h0Z"/>
        <path class="cls-3" d="M76.53,64.09s.03-.05,0-.05-.03.05,0,.05h0Z"/>
        <path class="cls-3" d="M71.31,67.06l-.29-.28-.14-.14s-.01-.01-.02-.02c-.03-.03-.06-.06-.09-.07-.04-.02-.09-.04-.13-.05-.03-.01-.06-.03-.09-.03-.07-.02-.13-.02-.2,0-.06.02-.12.05-.16.09-.05.05-.08.1-.09.16-.02.07-.02.13,0,.2,0,.03.02.05.03.08.01.03.02.06.04.08.01.04.03.07.05.09.01.02.03.04.04.05,0,0,.01.01.02.02l.15.14.29.28c.08.08.19.12.3.12.1,0,.23-.05.3-.12s.13-.19.12-.3-.04-.22-.12-.3h0Z"/>
        <path class="cls-3" d="M73.72,64.17c.58,0,.58-.9,0-.9s-.58.9,0,.9h0Z"/>
        <path class="cls-3" d="M68.39,79.76c.02-.09.03-.18.03-.27,0-.1,0-.21-.04-.3-.03-.07-.06-.14-.09-.21,0-.01-.01-.03-.02-.04h0s-.06-.09-.09-.12c0,0-.01-.01-.02-.02-.02-.02-.04-.04-.07-.06-.05-.04-.1-.08-.14-.11,0,0,0,0-.01,0l-.14-.06-.15-.02c-.05,0-.11,0-.16.02-.1.03-.18.07-.25.14-.07.07-.12.15-.14.25,0,.03,0,.05-.01.08-.01.05-.01.1,0,.15,0,.08.03.15.07.21l.09.12s.02.02.03.03c.02.02.04.05.06.07l-.09-.12c.04.06.08.12.13.16.02.01.03.03.05.05s.03.03.05.05c.05.05.1.08.15.12l-.11-.08c.06.05.11.1.16.16.05.05.11.09.18.11.07.02.15.02.22,0,.07-.02.13-.06.18-.11.05-.05.09-.11.11-.18h0Z"/>
        <path class="cls-3" d="M64,83.04c.52.62,1.17,1.11,1.92,1.39.69.26,1.55.39,2.27.19,1.61-.43,2.45-1.99,2.84-3.51.18-.73.23-1.5-.06-2.21-.12-.3-.41-.72-.79-.63-.44.11-.24.63-.13.92.26.65.17,1.38-.01,2.04-.2.73-.5,1.54-1.06,2.08-.58.57-1.58.81-2.37.69-.91-.15-1.72-.64-2.44-1.19-.14-.1-.27.11-.17.22h0Z"/>
        <path class="cls-3" d="M48.38,78.59c1.63.88,3.68.85,5.24-.16.72-.47,1.33-1.12,1.75-1.87.39-.69.83-1.74.58-2.53-.03-.11-.13-.23-.25-.25-.07-.01-.12-.01-.19,0-.13.02-.21.14-.25.25-.13.35-.13.72-.22,1.08s-.22.7-.39,1.03c-.34.64-.82,1.2-1.42,1.61-1.32.89-3.09.99-4.52.3-.36-.17-.68.35-.32.54h0Z"/>
        <path class="cls-3" d="M51.54,71.12l-.22-.27s-.04-.05-.05-.07c-.04-.04-.1-.08-.15-.12l-.07-.05s-.05-.04-.07-.05c-.06-.03-.13-.06-.2-.06h-.11c-.05.03-.1.05-.14.09-.03.02-.05.04-.07.07-.03.03-.04.06-.05.09-.02.03-.03.07-.03.1-.01.05,0,.11,0,.16.01.06.05.12.07.17l.04.08s.02.05.03.07c.03.06.08.11.12.16l.22.28s.09.08.15.1c.06.03.12.04.18.04.07,0,.13-.01.18-.04.06-.02.11-.05.15-.1.08-.09.15-.21.14-.34l-.02-.13c-.02-.08-.06-.15-.12-.21h0Z"/>
        <path class="cls-3" d="M48.4,75.91c.47,0,.47-.73,0-.73s-.47.73,0,.73h0Z"/>
        <path class="cls-3" d="M23.92,77.89c.5.64,1.05,1.14,1.84,1.38.78.24,1.64.23,2.43.02,1.58-.43,2.73-1.82,3.02-3.41.15-.86.11-1.98-.61-2.59-.18-.15-.47-.06-.47.2,0,.81.18,1.6,0,2.41s-.6,1.5-1.23,1.99-1.52.71-2.35.64c-.41-.03-.79-.15-1.18-.26-.45-.13-.86-.28-1.22-.59-.15-.13-.33.06-.21.21h0Z"/>
        <path class="cls-3" d="M26.52,72.99l-.32-.18c-.08-.05-.17-.1-.26-.13-.06-.02-.13-.02-.2-.02-.16,0-.32.07-.4.21s-.07.32.01.46c.03.06.07.11.11.16.07.06.16.11.23.16l.31.2c.06.04.12.06.18.06.07.01.13.01.2,0,.06-.02.12-.04.17-.09.05-.03.1-.08.13-.14.06-.11.09-.25.05-.38s-.11-.23-.23-.3h0Z"/>
        <path class="cls-3" d="M25.32,75.02h-.12c-.06,0-.13.01-.19.02-.05.01-.09.04-.12.07-.03.02-.05.05-.06.09-.02.03-.02.07-.02.1,0,.05.01.09.04.14l.03.05s.02.03.03.05l.07.09c.04.06.08.11.14.14.06.04.13.05.2.05.14,0,.28-.08.35-.2s.07-.28,0-.41-.21-.2-.35-.2h0Z"/>
        <path class="cls-3" d="M38.43,87.16l-.22-.17-.05-.04s-.02-.02-.03-.02c-.04-.03-.07-.06-.11-.08l-.12-.06s-.02,0-.03-.01c-.07-.03-.12-.05-.2-.06-.06,0-.08,0-.13.03-.05.02-.09.04-.13.08l-.02.03s-.03.04-.04.07c0,.02-.01.03-.02.05,0,0,0,.01,0,.02v.05s-.02.06,0,.1c0,.02,0,.04,0,.06l.04.09s.04.08.06.12c0,.02.02.04.03.06.03.05.07.09.11.14l.2.25s.1.08.16.1c.06.03.12.04.19.04.07,0,.13-.01.19-.04.06-.02.11-.05.16-.1l.08-.1c.04-.08.07-.16.07-.24l-.02-.13c-.02-.08-.06-.15-.12-.21h0Z"/>
        <path class="cls-3" d="M36.27,89.28c.2.33.42.6.74.81s.69.38,1.07.5c.77.23,1.6.26,2.38.1,1.55-.31,2.85-1.51,3.38-2.99.27-.76.34-1.59.21-2.38-.05-.3-.23-.82-.62-.8-.42.02-.4.57-.36.87.21,1.45-.33,3.1-1.58,3.95-.74.51-1.64.72-2.53.65-.88-.06-1.76-.46-2.52-.88-.11-.06-.25.06-.18.18h0Z"/>
        <path class="cls-3" d="M43.17,83.71l-.25-.24-.12-.12s-.04-.04-.06-.06c-.05-.04-.1-.07-.16-.07-.01,0-.02,0-.03,0-.1,0-.18.08-.18.18,0,0,0,.02,0,.03,0,.06.02.12.07.16.02.02.04.04.06.06l.12.12.24.25s.1.07.16.07.12-.02.16-.07.07-.1.07-.16-.02-.12-.07-.16h0Z"/>
      </g>
      <rect class="cls-2" width="100" height="100"/>
    </g>
  </g>
</svg>