<?xml version="1.0" encoding="UTF-8"?>
<svg id="Capa_2" data-name="Capa 2" xmlns="http://www.w3.org/2000/svg" viewBox="0 0 100 100">
  <defs>
    <style>
      .cls-1 {
        fill: none;
      }

      .cls-2 {
        fill: #4a2d2d;
      }

      .cls-3 {
        fill: #bb735e;
      }

      .cls-4 {
        fill: #d5aa9d;
      }
    </style>
  </defs>
  <g id="COLOR">
    <g>
      <g>
        <g>
          <path class="cls-3" d="M47.51,34.25c-1.95-2.8-4.34-5.32-6.88-7.6-2.13-1.91-4.46-4.1-7.19-5.09-3.65-1.32-7.71-.93-11.37.12-5.49,1.57-10.33,4.74-11.64,10.62-1.53,6.9-2.56,13.71-2.36,20.8.19,6.41,1.81,12.05,5.43,17.38,2.95,4.33,6.91,8.18,11.78,10.26,10.47,4.49,23.35-1.72,26.98-12.35,3.83-11.23,2.02-24.43-4.76-34.14Z"/>
          <path class="cls-2" d="M13.21,55.32c-.18,2.02.28,4.03,1.22,5.83,1.08,2.06,3.43,3.49,4.06,5.75.49,1.78.41,3.25,1.6,4.79,1.02,1.32,2.52,2.4,4.2,2.59.41.04.4-.53.09-.66-1.94-.8-3.53-1.74-4.41-3.75-.65-1.49-.44-3.12-1.29-4.55-.83-1.4-2.11-2.48-2.99-3.85-1.2-1.87-1.64-3.97-1.78-6.16-.03-.45-.65-.44-.69,0h0Z"/>
          <path class="cls-2" d="M15.34,40.25c-.28,3.41-.28,7.06.66,10.38.76,2.7,2.24,4.2,4.53,5.66,3.79,2.43.06,5.98,1.51,9.18.61,1.34,1.83,2.38,2.85,3.4,1.19,1.18,2.37,2.41,3.75,3.37.22.15.54-.16.38-.38-.92-1.26-2.07-2.34-3.2-3.42-1.56-1.5-3.64-2.89-3.28-5.36.31-2.1,1.32-4.4-.19-6.31-.63-.8-1.56-1.17-2.39-1.71-1.57-1.02-2.43-2.37-3-4.11-1.11-3.38-1.12-7.2-.98-10.71.02-.42-.61-.41-.65,0h0Z"/>
          <path class="cls-2" d="M36.73,75.86c-1.95-1.79-2.97-3.95-4.07-6.31-.1-.21-.45-.11-.44.12.18,2.69,1.96,5.06,4.02,6.68.34.27.82-.18.49-.49h0Z"/>
          <path class="cls-2" d="M19.4,43.99c1.61,3.72,4.41,6.22,7.16,9.07,3.05,3.16,1.3,7.93,3.8,11.4.18.24.65.11.53-.22-.83-2.23-1.39-4.22-1.52-6.62-.09-1.58-.25-3.06-1.25-4.37-1.12-1.47-2.83-2.57-4.13-3.88-1.65-1.66-2.99-3.61-3.98-5.73-.19-.42-.8-.05-.62.36h0Z"/>
          <path class="cls-2" d="M18.02,28.06c.35,3.46.98,7.67,3.38,10.35,2.85,3.19,7.13,4.38,8.28,8.92.09.34.59.26.6-.08.07-3.33-3.08-5.44-5.49-7.17-2.11-1.52-3.74-3.08-4.61-5.59-.74-2.12-.89-4.37-1.48-6.51-.1-.35-.7-.3-.66.09h0Z"/>
          <path class="cls-2" d="M15.86,34.74c.01-.54.07-1.24-.19-1.73-.15-.28-.53-.18-.62.08-.19.51-.01,1.22.07,1.75.07.43.74.31.75-.1h0Z"/>
          <path class="cls-2" d="M26.09,32.06c1.54,1.09,2.36,2.61,3.08,4.3.11.26.54.12.52-.14-.11-2.04-1.55-3.77-3.25-4.76-.39-.23-.71.35-.35.6h0Z"/>
          <path class="cls-2" d="M28.5,25.67c6.67,3.36,2.72,12.18,6.76,17.13.2.25.65-.02.54-.31-.65-1.82-1.23-3.53-1.48-5.46-.25-1.88-.35-3.79-.79-5.65-.65-2.74-2.11-5.17-4.78-6.29-.34-.14-.57.43-.25.59h0Z"/>
          <path class="cls-2" d="M34.75,51.37c.41,1.89.82,3.87,1.91,5.5.54.8,1.35,1.42,1.84,2.25.79,1.34.65,3.1.54,4.6-.25,3.14-1.11,7.58,2.01,9.66.25.17.6-.17.43-.43-2.64-3.8-1.07-7.46-1.54-11.68-.17-1.52-.72-2.6-1.71-3.73-1.64-1.87-2.33-3.95-2.89-6.33-.09-.38-.67-.22-.59.16h0Z"/>
          <path class="cls-2" d="M38.35,38.7c2.54,2.62,3.21,6.05,2.74,9.57-.03.26.39.31.46.06.92-3.71.19-7.53-2.76-10.07-.3-.26-.71.15-.44.44h0Z"/>
          <path class="cls-2" d="M41.7,50.87c-.3,1.99.21,3.78,1.11,5.56,1.37,2.7,2.83,4.8,3.22,7.9.04.29.52.44.57.08.74-4.94-4.87-8.43-4.33-13.46.03-.32-.52-.4-.57-.08h0Z"/>
          <path class="cls-2" d="M44.64,41.71c1.91,2.77,3.38,5.78,4.43,8.97.09.28.59.26.55-.07-.34-3.32-2.43-6.63-4.38-9.25-.26-.35-.86-.02-.6.35h0Z"/>
          <path class="cls-2" d="M41.98,35.44c-.11-.1-.21-.22-.35-.28-.07-.03-.13-.05-.2-.04-.07,0-.14.04-.18.09-.04.04-.07.09-.08.14-.03.08,0,.17.03.25.06.13.18.24.28.35.13.14.37.14.5,0s.14-.37,0-.5h0Z"/>
        </g>
        <g>
          <path class="cls-4" d="M89.5,52.07s-.43-5.26-2.93-6.21c-2.5-.95-4.92-2.15-6.13-3.53-1.21-1.38-3.01-1.13-5.25-.7-2.24.43-5.17-1.55-6.47-1.21-1.29.34-4.8,1.86-6.26,1.52-1.47-.34-3.4-1.2-5.46-.68-2.07.52-3.28,5.63-3.79,6.06-.52.43-3.97,2.59-3.88,3.71.09,1.12.26,3.02,1.81,4.14,1.55,1.12,1.47,3.28,2.76,4.83,1.29,1.55,5.26,2.59,6.21,3.79.95,1.21.69,2.76,3.36,3.36,2.67.6,5.78.86,7.16,2.33,1.38,1.47,4.05,1.21,5.86.6,1.81-.6,2.16-1.03,4.4-.34s3.36-2.07,5.69-3.19,3.62-1.12,3.88-2.59c.26-1.47.34-3.54,1.29-4.83.95-1.29,1.38-2.07.6-3.79s-2.85-3.28-2.85-3.28Z"/>
          <path class="cls-3" d="M92.45,59.19c-.11.2-.21.41-.32.62-.33.69-.64,1.38-.97,2.07-.06.12-.11.23-.17.35-.79,1.32-2.29,3.55-3.82,4.32-2.24,1.12-2.67,3.62-5.09,3.45-2.41-.17-4.05-.69-6.55,0-2.5.69-5.26.34-6.38-.69-1.12-1.03-3.92-1.21-5.04-1.38-1.12-.17-2.63-2.24-3.58-3.54-.95-1.29-5.09-2.07-5.6-2.5-.52-.43-2.39-5.27-2.76-5.78-.68-.94-1.86-1.01-2.36-1.48.02-.1.04-.2.06-.29-.06-.07-.12-.14-.17-.21-.53-.67-.99-1.48-1.12-2.34-.86,3.39-1.48,6.87-2.1,10.3-.62,3.46-1.31,7.1-1.1,10.62.36,6.05,4.5,10.62,9.62,13.47,5.13,2.85,11.07,3.98,16.88,3.21,6.16-.82,10.88-3.83,14.24-9.05,3.83-5.95,5.87-13.61,6.47-20.61.02-.22-.04-.4-.13-.55Z"/>
          <g>
            <path class="cls-2" d="M54.49,64.72c-1,3.26-1.41,6.62-1.57,10.02-.14,3.21-.3,7.03.75,10.1.1.3.57.26.57-.08.01-3.22-.65-6.4-.54-9.66.11-3.44.75-6.83,1.44-10.2.09-.42-.52-.59-.64-.18h0Z"/>
            <path class="cls-2" d="M59.97,69.51c.89,2.7-.94,5.28-1.71,7.79-.64,2.1-1.01,4.3-.82,6.5.03.33.5.34.52,0,.18-3.15.64-5.84,1.93-8.74.85-1.91,1.51-3.67.76-5.73-.15-.42-.82-.25-.68.19h0Z"/>
            <path class="cls-2" d="M62.12,84.92c.3-2.03.75-4.05,1.29-6.04.11-.39-.46-.53-.59-.16-.73,2-1.13,4-1.3,6.12-.03.34.55.43.6.08h0Z"/>
            <path class="cls-2" d="M63.63,77.62c.25,0,.25-.39,0-.39s-.25.39,0,.39h0Z"/>
            <path class="cls-2" d="M65.72,73.41c.14-.41.28-.8.38-1.22s-.54-.76-.76-.32c-.2.42-.37.85-.53,1.29-.09.24.1.52.33.58.26.07.49-.09.58-.33h0Z"/>
            <path class="cls-2" d="M72.5,74.65c-.46,2.12-2.54,3.26-3.52,5.13-.77,1.47-1.09,3.17-1.21,4.81-.03.34.52.41.6.08.55-2.26.84-4.38,2.45-6.19,1.03-1.16,2.06-2.05,2.35-3.63.08-.43-.57-.62-.67-.18h0Z"/>
            <path class="cls-2" d="M72.01,86.58c2.28-1.93,5.06-2.7,6.96-5.14,1.53-1.96,2.36-4.3,2.45-6.78.02-.48-.68-.46-.73,0-.31,2.75-1.41,5.3-3.39,7.26-1.71,1.7-4.04,2.51-5.83,4.12-.37.33.17.85.54.54h0Z"/>
            <path class="cls-2" d="M84.51,75.19c.19-.51.4-1.02.5-1.56.07-.36-.46-.65-.64-.27-.25.52-.4,1.08-.57,1.63-.13.46.54.63.7.19h0Z"/>
            <path class="cls-2" d="M50.09,62.81c-.98,2.39-1.49,5.19-.71,7.72.11.35.63.28.63-.09.03-2.55.05-4.96.83-7.43.16-.49-.57-.66-.75-.21h0Z"/>
            <path class="cls-2" d="M49.71,75.53c.02.21.04.42.06.64.02.23.05.49.24.64.14.11.35.15.48,0,.3-.33.15-.87.12-1.28-.02-.24-.19-.45-.45-.45-.23,0-.47.21-.45.45h0Z"/>
          </g>
          <path class="cls-2" d="M69.72,58.62c-.7.89-1.06,2.08-1.55,3.1-.51,1.05-1.13,2.07-1.52,3.17-.12.35.36.48.55.23.76-1,1.33-2.21,1.86-3.36.43-.94.98-1.95,1.06-2.98.01-.19-.27-.32-.39-.16h0Z"/>
          <path class="cls-2" d="M64.85,56.4c-2.14.72-4.48,1.18-6.53,2.11-.22.1-.11.47.12.45,2.26-.2,4.61-1.03,6.68-1.92.37-.16.11-.77-.27-.65h0Z"/>
          <path class="cls-2" d="M65.98,53.8c-2.71-.85-5.54-2.31-8.4-2.48-.35-.02-.36.46-.08.57,2.62,1.02,5.54,2.02,8.31,2.51.39.07.56-.48.17-.61h0Z"/>
          <path class="cls-2" d="M68.02,52.1c-.59-.92-1.33-1.74-2.01-2.59-.72-.92-1.36-2-2.22-2.8-.26-.24-.62.06-.48.37.5,1.05,1.37,1.98,2.07,2.91.66.87,1.28,1.79,2.06,2.55.29.28.79-.08.57-.44h0Z"/>
          <path class="cls-2" d="M70.41,51.03c-.25-1.4-.36-2.83-.89-4.17-.17-.42-.77-.27-.69.19.25,1.36.7,2.69.8,4.08.04.57.88.47.78-.11h0Z"/>
          <path class="cls-2" d="M73.23,51.58c.46-1.15.66-2.4.92-3.61.26-1.2.62-2.42.67-3.65.02-.37-.48-.38-.6-.08-.92,2.27-.9,4.84-1.71,7.14-.16.46.55.64.72.2h0Z"/>
          <path class="cls-2" d="M75.54,53.42c2.17-1.19,4.49-2.49,6.44-4.02.29-.23-.08-.6-.36-.47-2.22,1.01-4.43,2.48-6.45,3.85-.39.27-.05.88.38.64h0Z"/>
          <path class="cls-2" d="M75.44,55.7c2.88-.14,5.85.23,8.71-.14.33-.04.49-.57.09-.65-2.85-.54-5.92-.13-8.8-.01-.52.02-.52.83,0,.8h0Z"/>
          <path class="cls-2" d="M76.38,58.04c2.87,1.12,5.73,2.53,8.73,3.29.31.08.53-.37.23-.53-2.75-1.47-5.84-2.37-8.75-3.5-.46-.18-.66.56-.2.74h0Z"/>
          <path class="cls-2" d="M74.81,60.11c.79.96,1.47,2.04,2.38,2.88.28.26.75-.07.54-.42-.64-1.1-1.57-2.03-2.36-3.03-.31-.4-.89.17-.56.56h0Z"/>
          <path class="cls-2" d="M71.92,59.4c.65,2.47.89,5.06,1.58,7.51.1.36.66.29.66-.09-.02-2.58-.84-5.16-1.52-7.62-.13-.46-.84-.27-.72.2h0Z"/>
          <path class="cls-2" d="M67.01,57.69c-1.39,1.01-2.48,2.42-3.76,3.55-.21.18.06.53.29.38,1.44-.93,3.04-1.94,3.98-3.42.19-.3-.2-.73-.51-.51h0Z"/>
          <path class="cls-2" d="M91.87,53.61c-.84-1.06-1.45-1.92-1.73-3.25-.25-1.19-.34-2.41-.99-3.47-1.23-2-3.47-1.91-5.45-2.55-2.23-.72-2.72-3.4-5.28-3.64-1.53-.14-2.96.6-4.48.52-1.79-.09-3.2-1.68-5.04-1.47-.82.09-1.54.49-2.25.88-1.77.96-2.94,1.28-4.98.79-1.83-.44-3.85-1.2-5.65-.21-1.75.96-1.99,2.85-2.63,4.53-.81,2.12-3.18,2.45-4.37,4.24-.15.22-.26.45-.36.69-.07.05-.14.12-.18.21-1.07,2.28-1.42,4.98-1.85,7.45-.44,2.55-.78,5.11-1.08,7.67-.55,4.74-.65,8.77,1.56,13.18.28.56.85,1.07.6.48-.97-2.39-1.49-4.71-1.33-7.33.15-2.42.55-4.83.9-7.23.34-2.36.67-4.72,1.1-7.06.21-1.14.49-2.29.75-3.44.11.17.22.34.35.5.72.88,1.99,1.4,2.39,2.52.35.96.22,1.95.72,2.89,1.07,2.01,3.03,2.6,5.03,3.33,2.14.79,2.56,2.97,4.44,4.03,2.23,1.25,4.89.53,6.98,2.16,1.66,1.3,3.04,1.94,5.18,1.51,1.14-.23,2.22-.71,3.36-.9,1.64-.27,3.14.66,4.76.34,1.79-.35,2.41-1.84,3.56-3.06,1.42-1.51,3.84-1.4,5.1-3.11.54-.74.65-1.59.73-2.48.14-1.47.69-2.39,1.24-3.71.79-1.9.08-3.46-1.12-4.99ZM90.6,60.65c-.21.79-.09,1.64-.3,2.42-.34,1.27-1.22,1.58-2.28,2.05-1.8.79-2.67,1.75-3.95,3.23-1.15,1.33-2.05,1.2-3.68.9-.82-.15-1.58-.2-2.41-.08-2.39.36-4.63,1.96-6.87.34-1.55-1.12-2.57-1.87-4.5-2.17-.9-.14-1.86-.17-2.73-.46-1.57-.52-1.82-1.8-2.74-2.97-1.03-1.31-2.58-1.7-4.08-2.16-1.22-.37-2.31-.8-2.96-2.02-.5-.95-.44-2.08-.89-3.04-.79-1.7-2.95-2.27-3.31-4.24-.45-2.43,2.72-3.51,3.87-5.18,1.14-1.66,1.08-4.85,3.21-5.59,2.36-.82,4.85,1.15,7.28.86,1.18-.14,2.17-.83,3.21-1.36.5-.25,1.02-.49,1.58-.58.91-.15,1.57.38,2.31.79.87.49,1.81.79,2.81.81,1.04.02,2.04-.38,3.08-.42,1.14-.04,2.4.16,3.25,1.02.92.94,1.36,2.23,2.61,2.81.26.12.53.22.8.31.8.26,1.65.35,2.45.63,1.47.51,1.87,1.53,2.12,2.97.32,1.86.66,3.27,1.84,4.76.64.81,1.69,1.68,1.71,2.81.02,1.21-1.11,2.42-1.41,3.56Z"/>
        </g>
      </g>
      <rect class="cls-1" width="100" height="100"/>
    </g>
  </g>
</svg>