<?xml version="1.0" encoding="UTF-8"?>
<svg id="Capa_2" data-name="Capa 2" xmlns="http://www.w3.org/2000/svg" viewBox="0 0 100 100">
  <defs>
    <style>
      .cls-1 {
        fill: #fff;
      }

      .cls-2 {
        fill: none;
      }

      .cls-3 {
        fill: #4a2d2d;
      }

      .cls-4 {
        fill: #9bb533;
      }
    </style>
  </defs>
  <g id="COLOR">
    <g>
      <g>
        <path class="cls-4" d="M86.97,81.56c-1.23-8.24-1.61-16.98-5.75-24.44-2.17-3.91-6.6-8.3-11.41-9.35-.75-.17-1.51-.25-2.27-.24.14-.12.29-.24.43-.36.2-.17.4-.34.6-.52h0c2.4-2.11,4.66-4.55,6.39-7.22,3.91-6.06,3.84-13.98,1.37-20.57-.15-.41-.57-.73-1.03-.58-2.05.65-4.27.97-6.37,1.53-2.03.54-4.07,1.06-6.11,1.6-3.64.98-7.35,2.1-10.56,4.13-2.55,1.62-4.73,3.87-6.15,6.47,0,0,0,0,0,.01-.23.41-.43.82-.62,1.24-.14-.29-.29-.57-.45-.85-.62-1.13-1.35-2.16-2.2-3.09-1.34-1.46-3.01-2.66-5.09-3.54-5.21-2.21-11-1.77-16.34-.31-3.16.86-6.35,1.92-9.36,3.23-2.34,1.02-1.93,2.74-1.21,4.9,1.78,5.35,5.56,10.6,9.96,14.11,2.61,2.08,5.63,3.44,8.91,4.02.33.06.67.11,1.02.16.45.07.92.13,1.39.18-.28.36-.54.73-.79,1.1h0c-.87,1.31-1.6,2.7-2.17,4.12-2.84,7.18-2.43,15.86-1.16,23.33.09.51.76.85,1.23.7,4.9-1.62,9.63-3.49,14.14-6.04,2.69-1.52,5.95-3.24,8.48-5.46.29-.25.56-.5.83-.77.25.55.53,1.08.83,1.6,1.19,2.06,2.76,3.93,4.69,5.49,7.55,6.13,18.1,7.35,27.52,7.03.91-.03,1.36-.79,1.24-1.62Z"/>
        <path class="cls-3" d="M76.8,69.4c-.78-1.26-1.63-2.47-2.57-3.62-1.86-2.27-4.02-4.35-6.42-6.06-1.13-.81-2.29-1.51-3.53-2.12.58,0,1.17,0,1.75-.03.48-.03,1.06-.44.99-.99-.35-2.7-.83-5.4-2-7.71.66-.14,1.31-.41,1.95-.57.93-.23,1.88-.43,2.84-.54-.75-.17-1.51-.25-2.27-.24.11-.1-1.86.11-2.94.58-.84-1.4-1.98-2.63-3.56-3.6-2.32-1.41-5.4-1.63-7.89-.51.3-1.12.52-2.27.89-3.37.53-1.58,1.23-3.09,2.08-4.51,1.71-2.87,4.03-5.36,6.74-7.31,1.54-1.11,3.21-2.02,4.97-2.72.32-.13.2-.63-.14-.53-6.73,2.15-12.07,7.61-14.58,14.16-.59,1.54-1.14,3.26-1.11,4.93-.07.05-.16.1-.23.16-.56-2.72-2.66-5.05-5.03-6.41-.47-.27-.94-.5-1.42-.69,0-.14,0-.27,0-.41,0-.39.02-.78.05-1.17.07-.84.15-1.88.12-2.86-.14-.29-.29-.57-.45-.85-.09.34-.16.69-.22,1.03-.15.83-.25,1.67-.26,2.52,0,.45.01.89.04,1.33,0,.06,0,.11,0,.17-3.05-1.04-6.23-.79-9.49-.3-.13.02-.22.09-.29.18-.31-.26-.65-.49-.96-.7-.62-.42-1.28-.81-1.95-1.15-1.39-.71-2.89-1.24-4.39-1.65-3.44-.94-7.01-1.13-10.56-1.36-.37-.02-.36.53,0,.57,3.43.39,6.88.82,10.19,1.79,1.44.42,2.83.97,4.17,1.66.67.35,1.33.72,1.95,1.15.5.34.99.74,1.53,1.01.4,1.94,1.18,3.84,2,5.62.54,1.16,1.12,2.3,1.88,3.3-.5.09-.99.19-1.49.36-.7.24-1.39.53-2.05.86-1.31.67-2.53,1.5-3.68,2.43-.26.21-.52.43-.77.65.45.07.92.13,1.39.18-.27.35,2.8-2.16,7.19-3.81.31.33.64.64,1.01.92,1.93,1.46,4.57,1.91,7.02,1.51-2.21,1.38-4.27,3.02-6.14,4.84-2.41,2.34-4.47,5.09-5.84,8.17-.37.84-.71,1.69-.94,2.58-.24.96-.29,1.86-.26,2.84.01.29.41.34.5.07.26-.77.56-1.52.81-2.29.24-.74.5-1.48.79-2.21.59-1.48,1.38-2.89,2.27-4.21,1.85-2.74,4.22-5.03,6.77-7.11,1.34-1.1,2.75-2.12,4.13-3.17.07.86.3,1.73.72,2.55.45.87,1.07,1.65,1.85,2.24.55.42,1.15.73,1.79.98-.29.51-.47,1.12-.64,1.62-.29.86-.55,1.73-.78,2.62-.45,1.76-.72,3.56-.78,5.37-.05,1.42.03,2.84.26,4.23.29-.25.56-.5.83-.77.25.55-.25-2.9.44-7.42.11-.72.85-3.61,1.4-5.39,1.27.4,2.62.59,3.89.81,1.56.26,3.12.44,4.68.52.02.04.03.08.08.11,2.37,1.6,4.7,3.29,6.78,5.26,2.07,1.96,3.91,4.18,5.46,6.57.44.68.85,1.39,1.28,2.09.39.64.83,1.4,1.4,1.9.13.11.36.04.36-.15-.02-1.38-.95-2.8-1.65-3.93ZM40.47,47.01c-1.95-2.26-3.44-5.82-4.33-8.71,6.24-1.01,12.95.81,14.85,7.14-.33.44-.66.91-.89,1.4-.22-.42-.48-.81-.78-1.18-.71-.88-1.58-1.64-2.53-2.25-2.09-1.35-4.5-2.06-6.95-2.36-.32-.04-.37.47-.07.55,2.22.61,4.46,1.3,6.39,2.59.85.57,1.63,1.24,2.29,2.02.33.39.65.8.92,1.22.1.16.21.3.31.44-.16.38-.38.92-.39.92-3.15.49-6.45.93-8.81-1.8ZM55.51,55.08c-1.7-.4-3.42-1.69-4.2-3.32-.55-1.15-.43-2.49-.16-3.7,1.67-.07,3.34.28,4.88.89.77.31,1.51.72,2.18,1.21.35.25.69.5,1.05.74.31.21.61.51,1,.44.08-.01.16-.1.18-.18.1-.4-.25-.76-.48-1.05-.3-.37-.67-.69-1.06-.97-.76-.54-1.6-.97-2.47-1.31-1.62-.63-3.36-.75-5.07-.52.02-.07.04-.14.06-.21.83-1.01,2.2-2,3.46-2.31,1.86-.45,4.32.22,5.95,1.2,3.09,1.85,4.42,6.72,4.61,10.24-3.17-.23-6.84-.42-9.92-1.15Z"/>
        <path class="cls-1" d="M23.11,28.82c.35-.09.71-.17,1.07-.23.42-.07.93-.08,1.28-.34.47-.35.53-1.01,0-1.35-.85-.55-2.2,0-2.94.52-.7.48-.29,1.61.59,1.4h0Z"/>
        <path class="cls-1" d="M60.85,24.99s.02-.05.02-.08l.03-.23c0-.12-.02-.23-.07-.33-.02-.07-.06-.14-.11-.19-.06-.09-.14-.17-.24-.22-.09-.05-.19-.08-.29-.12l-.25-.03-.25.03c-.12.03-.23.09-.32.17-.07.04-.13.1-.17.17-.06.06-.1.13-.12.21-.04.07-.06.15-.07.24-.02.08-.02.17,0,.25,0,.13.04.25.11.36l.15.19.19.15.23.1.25.03.25-.03c.12-.03.23-.09.32-.17.07-.04.13-.1.17-.17.08-.09.14-.2.17-.32h0Z"/>
        <path class="cls-1" d="M43.06,40.62c.33,0,.73.04,1.01-.17.19-.14.32-.31.32-.56s-.13-.42-.32-.56c-.28-.21-.68-.17-1.01-.17-.38,0-.75.34-.73.73s.32.73.73.73h0Z"/>
        <path class="cls-1" d="M45.59,42.04c.12.08.24.16.38.22.15.06.32.09.49.07.21-.03.44-.15.55-.35.09-.17.12-.39.07-.58-.04-.15-.15-.3-.25-.41-.12-.13-.3-.21-.45-.29-.18-.1-.41-.13-.6-.08-.18.05-.38.19-.47.36-.2.39-.09.83.28,1.07h0Z"/>
        <path class="cls-1" d="M60.88,50.16c.05.07.1.13.15.2.06.08.12.16.19.23.07.06.17.13.25.19.27.2.67.32.98.12.35-.23.44-.67.29-1.05-.05-.12-.09-.26-.16-.37-.05-.08-.11-.15-.17-.22-.15-.19-.29-.34-.53-.41-.21-.06-.49-.03-.68.09s-.36.3-.41.53-.05.5.09.68h0Z"/>
        <path class="cls-1" d="M33.37,54.66c-.59.46-1.06,1-1.51,1.6s-.92,1.34-.69,2.12c.13.44.62.77,1.08.61.74-.25,1.07-.91,1.46-1.54.35-.57.72-1.13,1.09-1.69.24-.38.11-.91-.23-1.17-.39-.29-.83-.22-1.19.07h0Z"/>
        <path class="cls-1" d="M30.5,62.97c-.16.15-.31.29-.4.5-.08.19-.15.33-.15.55,0,.1,0,.21.03.31.09.38.45.66.82.71.63.08,1.18-.47,1.12-1.11-.02-.23-.04-.42-.15-.62-.04-.07-.08-.13-.12-.2-.25-.42-.79-.46-1.14-.15h0Z"/>
        <path class="cls-1" d="M79.18,63.79s.08.06.12.1c.06.06.14.11.23.13.04.03.09.04.13.05.14.04.27.05.41.02.14,0,.26-.05.38-.12l.21-.16c.13-.13.21-.28.26-.45.04-.1.05-.2.04-.31,0-.19-.05-.36-.14-.52-.09-.16-.22-.28-.37-.37-.16-.09-.34-.14-.52-.14-.14,0-.28.02-.4.09-.13.04-.24.11-.33.21-.13.13-.22.28-.27.46-.05.18-.05.37,0,.55.05.18.14.33.27.46h0Z"/>
      </g>
      <rect class="cls-2" width="100" height="100"/>
    </g>
  </g>
</svg>