<?xml version="1.0" encoding="UTF-8"?>
<svg id="Capa_2" data-name="Capa 2" xmlns="http://www.w3.org/2000/svg" viewBox="0 0 100 100">
  <defs>
    <style>
      .cls-1 {
        fill: #fff;
      }

      .cls-2 {
        fill: none;
      }

      .cls-3 {
        fill: #4a2d2d;
      }

      .cls-4 {
        fill: #e73c3c;
      }
    </style>
  </defs>
  <g id="COLOR">
    <g>
      <g>
        <path class="cls-4" d="M53.47,19.24s-10.52-4.91-17,2.33c-8.87,9.93-6.75,20.09-9.52,23.55s-4.11,5.54-2.61,9.72c1.5,4.18,1.33,7.76-1.25,14.16-2.58,6.4-2.03,8.12-2.2,13.46-.23,7.44,14.64,16.98,27.3,1.94,3.06-3.64,6.03-8.98,11.19-11.93,5.16-2.95,21.48-8.84,24.31-17.77,2.83-8.93,1.37-13.76-3.64-18.23s-16.64-2.48-21.73-6.5-4.84-10.73-4.84-10.73Z"/>
        <path class="cls-1" d="M69.98,8.85s-5.21-1.03-6.77.77c-1.56,1.8.5,6.85-1.34,11.93-1.85,5.09-1.68,6.18-2.15,6.03s-5.08-7.41-6.24-8.34c-1.15-.92-1.88-.22-1.88-.22,0,0-.62,7.67.32,8.97.94,1.3,1.16,2.1,1.16,2.1,0,0-10.6,1.63-10.69,2.58s3.39,3.68,6.96,3.67c3.56,0,6.99-.76,6.99-.76,0,0,1.22,4.58,4.35,7.33,3.13,2.76,4.43,4.6,5.23,3.38s-.66-8.16-.7-9.08,7.37-.44,9.79-1.19,2.79-2,2.79-2c0,0-12.03-2.96-11.91-3.78s7.15-7.79,7.69-11.94c.54-4.15,1.27-6.63-.24-7.92-1.5-1.29-3.36-1.55-3.36-1.55Z"/>
        <g id="Capa_2-2" data-name="Capa 2">
          <g id="bocetos">
            <path class="cls-3" d="M78.59,32.88c-3.72-.89-8.32-1.42-11.95-3.05,5.67-4.87,13.01-17.49,4.88-22.03-3.14-1.76-8.97-1.59-10.53,2.25-.96,2.34-.4,5.36-.41,7.83-.01,2.92-.12,5.8-1.33,8.41-1.71-3.03-3.75-5.87-6.07-8.47-.6-.67-1.62-.22-1.85.52-1.13,3.53-1.32,7.51.13,10.91-3.27.48-6.47,1.38-9.52,2.67-.97.42-.68,1.75.02,2.21,2.21,1.48,4.65,2.58,7.31,2.81,3.77.32,6.03-.35,6.45,0,.56.48.99,2.66,3.37,5.81,1.53,2.01,3.62,3.52,5.86,4.69.77.41,1.72.12,2.13-.64.12-.23.19-.48.19-.74.02-2.68-.3-5.35-.95-7.94,4.38.21,8.74-.73,12.66-2.71,1.1-.55.76-2.27-.38-2.54ZM65.09,9.76c1.02-.34,2.28-.27,3.31-.05,1.22.26,2.09.76,2.68,1.42-1.94,1.48-5.01,1.45-7.71.56.25-.87.72-1.61,1.71-1.93ZM64.59,35.61c-1.03-.13-1.47-.18-1.09.99.68,2.08,1.55,6.01,1.7,8.14-4.29-1.19-7.2-8.45-7.92-9.34-1.17-1.44-2.21-.63-5.8-.66-4.31-.02-5.93-1.04-7.73-1.66,2.51-.76,7.14-1.78,9.84-1.78,1.15,0,1.27-.44.75-1.41-1.55-2.83-2.02-7.39-1.63-10.42,2,2.51,4.38,6.6,5.88,9.45h.02c.41.98.84,1.34,1.67.19,2.17-2.97,3.35-6.61,3.15-10.23-.1-1.81-.38-3.56-.3-5.35,2.92.93,6.75.44,8.38-1.89,1.24,2.01.61,5.04-.35,7.46-1.55,3.9-3.33,7.44-6.98,9.7-.8.49-1.1,1.75-.34,2.24,1.96,1.25,4,1.47,6.22,2.08,1.17.32,5.03,1.18,6.15,1.23-2.95.82-8.5,1.61-11.62,1.23h0Z"/>
          </g>
        </g>
        <path class="cls-1" d="M38.04,35.91c-1.53-.53-2.75.82-3.71,2.04-.54.69-1.03,1.44-1.43,2.28-.66,1.38-1,2.77-1.29,4.36-.09.51-.16,1.04-.23,1.56-.19,1.55.29,3.53,1.39,4.52l-.55-.69.04.07c.58.92,1.71,1.75,2.64,1.47.32-.09.66-.13.96-.29.56-.29,1.05-.8,1.41-1.4.5-.85.64-1.85.7-2.9.05-.83.13-1.64.29-2.44-.07.33-.13.66-.2.99.16-.77.33-1.53.48-2.3-.06.32-.13.64-.19.96.18-.88.43-1.74.75-2.54.15-.37.29-.73.43-1.11.27-.76.36-1.53.22-2.38-.19-1.18-.83-1.91-1.72-2.21h0Z"/>
        <path class="cls-1" d="M29.84,60.08c-.13.22-.26.44-.39.65-.18.3-.34.56-.41.93-.02.12-.03.25-.04.37-.03.12-.04.24-.03.37,0,.03,0,.05,0,.08,0,.06,0,.12,0,.18.04.89.54,1.7,1.33,2.11.39.2.8.29,1.23.28.45-.02.87-.15,1.26-.39.3-.17.55-.33.8-.61s.39-.55.55-.86c.12-.22.24-.45.35-.67.17-.3.26-.63.27-.97.06-.35.04-.69-.09-1.04-.1-.35-.27-.65-.52-.9-.2-.28-.46-.49-.77-.65l-.63-.23c-.46-.1-.92-.09-1.37.05l-.64.3c-.39.25-.69.58-.91.99h0Z"/>
        <path class="cls-1" d="M74.93,55.47c-.21.32-.43.62-.67.92.16-.2.32-.39.48-.59-.21.25-.44.5-.62.76-.12.18-.2.33-.3.52-.12.24-.23.47-.35.71-.15.39-.18.75-.11,1.1.08.36.27.64.57.85.29.2.64.3,1.06.31.42,0,.84-.08,1.28-.27.08-.04.16-.08.25-.12.28-.15.7-.35.89-.49.36-.26.72-.55,1.02-.87.44-.47.84-.97,1.21-1.47.22-.32.36-.64.41-.96.11-.33.12-.64.04-.93-.06-.31-.2-.56-.44-.75-.18-.23-.43-.39-.76-.47-.62-.15-1.37-.13-2.1.21l-.73.4c-.46.32-.84.69-1.13,1.13h0Z"/>
        <path class="cls-3" d="M73.2,44.32c.4,3.04-1.18,6.95-3.27,9.15-1.24,1.3-2.97,2.14-4.56,2.95-1.72.88-3.44,1.78-5.15,2.68-2.75,1.45-5.62,3-7.77,5.3-1.35,1.44-4.23,5.47-2.17,7.31.25.22.65.27.93.08,1.13-.78,1.09-2.47,1.63-3.64.65-1.42,1.62-2.64,2.76-3.7,2.68-2.51,6.16-4,9.29-5.85,2.82-1.66,5.71-3.96,7.82-6.47,1.97-2.33,2.55-5.08,1.7-8-.19-.66-1.31-.5-1.22.21h0Z"/>
        <path class="cls-3" d="M50.32,48.41c-2.94,5.25-8.63,8.22-10.91,13.91-1.32,3.29-2.42,6.58-4.12,9.71-.89,1.63-1.85,3.22-2.84,4.79-.81,1.28-1.92,2.67-1.63,4.26.07.38.54.55.87.46,1.53-.42,2.34-2.24,3.08-3.5.93-1.6,1.83-3.23,2.66-4.88,1.64-3.27,2.64-6.67,3.97-10.06,1.18-3.01,3.3-5.16,5.53-7.41,1.96-1.96,3.93-4.07,4.56-6.85.16-.7-.82-1.05-1.16-.43h0Z"/>
        <path class="cls-3" d="M36.2,86.62c.35.13.69.29,1.02.47.16.09.32.18.48.28.08.05.15.1.23.15.12.08.28.11.42.16l.18.02c.1,0,.18-.02.26-.07.13-.06.25-.16.32-.3.05-.11.08-.22.08-.34,0-.19-.1-.35-.22-.48-.1-.11-.2-.21-.33-.29-.08-.05-.17-.09-.25-.13-.17-.09-.34-.17-.52-.24-.39-.17-.8-.31-1.21-.43-.15-.04-.37,0-.5.09-.12.08-.2.19-.25.32s-.06.28-.02.42c.05.15.16.32.32.38h0Z"/>
        <path class="cls-3" d="M37.84,83.78c.3.24.62.46.95.65.13.07.26.14.4.2.11.05.22.1.34.13.05.02.11.02.16.02.1.02.19.02.29-.01.06-.01.12-.02.18-.03s.12-.03.18-.05c.16-.05.3-.14.41-.26.09-.09.15-.19.18-.31.05-.11.07-.23.07-.36,0-.17-.06-.33-.15-.48-.03-.05-.07-.1-.11-.15,0-.01-.01-.02-.02-.03-.12-.17-.25-.28-.43-.38-.1-.06-.24-.09-.36-.14l.26.1c-.41-.15-.81-.35-1.17-.6-.12-.07-.25-.1-.39-.11-.14-.03-.28-.01-.41.03l-.25.12c-.12.07-.21.17-.28.28-.06.07-.1.15-.12.23-.06.12-.08.26-.07.39.02.27.12.56.34.74h0Z"/>
        <path class="cls-3" d="M59.66,68.18c.3.07.61.01.91-.05.11-.02.21-.05.32-.07.15-.03.27-.13.37-.24.03-.03.05-.06.08-.08l-.1.08s.06-.05.09-.07c.18-.13.25-.36.12-.55-.08-.12-.22-.21-.33-.28s-.25-.12-.4-.12c-.1,0-.21.03-.31.05-.11.02-.22.04-.33.06l.17-.03c-.12.02-.24.03-.37.02l.17.02s-.07,0-.11-.02c-.16-.04-.36,0-.5.09s-.25.25-.28.4c-.03.17-.01.36.09.5s.23.24.4.28h0Z"/>
      </g>
      <rect class="cls-2" width="100" height="100"/>
    </g>
  </g>
</svg>