<?xml version="1.0" encoding="UTF-8"?>
<svg id="Capa_2" data-name="Capa 2" xmlns="http://www.w3.org/2000/svg" viewBox="0 0 100 100">
  <defs>
    <style>
      .cls-1 {
        fill: #fff;
      }

      .cls-2 {
        fill: none;
      }

      .cls-3 {
        fill: #4a2d2d;
      }

      .cls-4 {
        fill: #ec6408;
      }

      .cls-5 {
        fill: #e73c3c;
      }

      .cls-6 {
        fill: #fdc500;
      }
    </style>
  </defs>
  <g id="COLOR">
    <g>
      <g>
        <g>
          <path class="cls-5" d="M42.55,16.27s-10.71-5-17.3,2.37c-9.03,10.1-6.87,20.44-9.69,23.96-2.82,3.52-4.18,5.64-2.66,9.89,1.52,4.25,1.35,7.89-1.28,14.4-2.63,6.51-2.07,8.26-2.24,13.69-.23,7.57,14.9,17.28,27.77,1.97,3.11-3.7,6.14-9.13,11.39-12.14s21.85-8.99,24.74-18.08c2.88-9.09,1.39-14-3.7-18.55-5.09-4.55-16.93-2.52-22.11-6.61-5.18-4.09-4.93-10.91-4.93-10.91Z"/>
          <path class="cls-1" d="M59.35,5.7s-5.3-1.05-6.89.78c-1.59,1.83.51,6.97-1.37,12.14-1.88,5.18-1.71,6.29-2.19,6.13s-5.17-7.54-6.35-8.48c-1.17-.94-1.91-.22-1.91-.22,0,0-.63,7.8.32,9.13.95,1.33,1.18,2.13,1.18,2.13,0,0-10.78,1.66-10.87,2.63s3.45,3.75,7.08,3.74,7.11-.77,7.11-.77c0,0,1.24,4.66,4.43,7.46,3.19,2.8,4.51,4.68,5.32,3.44.81-1.24-.67-8.3-.72-9.23s7.5-.44,9.96-1.21c2.47-.77,2.84-2.03,2.84-2.03,0,0-12.24-3.01-12.12-3.84s7.27-7.93,7.83-12.15c.55-4.22,1.29-6.75-.24-8.06-1.53-1.31-3.42-1.58-3.42-1.58Z"/>
          <g id="Capa_2-2" data-name="Capa 2">
            <g id="bocetos">
              <path class="cls-3" d="M68.11,30.15c-3.78-.91-8.47-1.44-12.16-3.1,5.77-4.96,13.23-17.8,4.96-22.41-3.2-1.79-9.13-1.61-10.72,2.29-.97,2.39-.41,5.45-.42,7.96-.01,2.97-.12,5.9-1.35,8.56-1.74-3.09-3.81-5.97-6.18-8.62-.61-.69-1.64-.23-1.89.53-1.15,3.59-1.35,7.64.13,11.1-3.33.49-6.59,1.4-9.69,2.72-.99.42-.69,1.78.02,2.25,2.25,1.51,4.73,2.63,7.43,2.86,3.83.33,6.14-.36,6.57,0,.57.49,1,2.71,3.43,5.91,1.55,2.05,3.69,3.59,5.96,4.77.78.42,1.75.12,2.17-.66.12-.23.19-.49.19-.76.02-2.72-.3-5.44-.97-8.08,4.46.21,8.9-.74,12.88-2.75,1.11-.56.77-2.31-.38-2.58ZM54.37,6.62c1.04-.35,2.32-.28,3.37-.06,1.24.26,2.13.77,2.73,1.45-1.97,1.51-5.09,1.48-7.84.57.26-.89.74-1.63,1.74-1.97ZM53.86,32.93c-1.05-.13-1.49-.18-1.11,1.01.69,2.12,1.58,6.12,1.73,8.29-4.36-1.21-7.33-8.6-8.06-9.5-1.19-1.47-2.25-.64-5.9-.67-4.39-.02-6.03-1.06-7.86-1.69,2.55-.77,7.26-1.81,10.01-1.81,1.17,0,1.29-.45.76-1.43-1.58-2.87-2.05-7.52-1.66-10.6,2.03,2.55,4.45,6.72,5.98,9.62h.02c.42.99.85,1.37,1.7.2,2.2-3.02,3.41-6.72,3.21-10.4-.1-1.84-.39-3.62-.3-5.44,2.97.94,6.86.44,8.52-1.92,1.26,2.04.62,5.12-.35,7.59-1.57,3.97-3.39,7.57-7.11,9.87-.81.5-1.12,1.78-.35,2.28,2,1.27,4.07,1.5,6.33,2.12,1.19.33,5.12,1.2,6.26,1.25-3,.83-8.65,1.64-11.82,1.25h0Z"/>
            </g>
          </g>
          <path class="cls-1" d="M26.86,33.23c-1.56-.53-2.8.83-3.77,2.08-.55.7-1.05,1.47-1.45,2.32-.67,1.4-1.02,2.82-1.31,4.43-.1.52-.16,1.06-.23,1.59-.2,1.58.29,3.59,1.41,4.6l-.56-.71.05.07c.59.94,1.74,1.78,2.69,1.5.32-.1.67-.13.98-.29.57-.29,1.07-.81,1.43-1.43.51-.86.65-1.89.71-2.95.05-.84.13-1.67.29-2.48l-.2,1.01c.16-.78.34-1.55.49-2.34-.07.33-.13.65-.2.98.18-.9.43-1.77.76-2.59.15-.38.3-.75.44-1.13.27-.77.37-1.56.23-2.42-.2-1.2-.84-1.94-1.75-2.25h0Z"/>
          <path class="cls-1" d="M18.51,57.82c-.13.22-.26.44-.39.66-.18.31-.34.57-.42.95-.02.12-.03.25-.04.38-.03.12-.04.25-.03.37,0,.03,0,.05,0,.08,0,.06,0,.12,0,.18.04.9.55,1.73,1.35,2.15.39.2.81.3,1.25.29.46-.02.89-.15,1.28-.4.31-.17.56-.34.81-.62s.39-.56.56-.87c.12-.23.24-.45.36-.68.18-.31.27-.64.27-.99.06-.35.04-.71-.09-1.05-.1-.36-.27-.66-.53-.92-.2-.28-.46-.5-.79-.66l-.64-.24c-.47-.11-.94-.09-1.4.05l-.65.3c-.39.26-.7.59-.92,1.01h0Z"/>
          <path class="cls-1" d="M64.39,53.13c-.21.32-.44.63-.69.94.16-.2.33-.4.49-.6-.21.26-.45.51-.63.77-.13.18-.21.34-.31.53-.12.24-.23.48-.35.72-.15.4-.18.77-.11,1.12.08.36.28.65.58.86.3.2.65.31,1.08.31.42,0,.86-.08,1.3-.27.08-.04.17-.08.25-.12.29-.15.71-.35.91-.49.37-.27.74-.56,1.04-.88.44-.48.85-.99,1.24-1.5.23-.32.36-.65.41-.97.11-.33.13-.65.04-.94-.06-.32-.21-.57-.45-.77-.18-.23-.44-.39-.77-.47-.63-.15-1.4-.13-2.14.21l-.74.41c-.47.32-.85.7-1.15,1.15h0Z"/>
          <path class="cls-3" d="M62.62,41.78c.4,3.1-1.2,7.07-3.33,9.31-1.26,1.33-3.02,2.18-4.64,3-1.75.9-3.5,1.81-5.24,2.73-2.8,1.48-5.72,3.05-7.91,5.39-1.38,1.47-4.31,5.57-2.21,7.43.25.22.66.28.95.08,1.15-.79,1.11-2.51,1.66-3.7.66-1.45,1.65-2.68,2.81-3.77,2.73-2.55,6.27-4.07,9.45-5.95,2.86-1.69,5.81-4.03,7.96-6.59,2-2.37,2.6-5.16,1.73-8.14-.19-.67-1.33-.51-1.24.21h0Z"/>
          <path class="cls-3" d="M39.34,45.95c-2.99,5.34-8.78,8.36-11.1,14.15-1.35,3.35-2.46,6.69-4.2,9.88-.9,1.66-1.88,3.27-2.89,4.87-.82,1.31-1.96,2.72-1.66,4.34.07.39.55.56.89.47,1.55-.43,2.38-2.27,3.13-3.56.94-1.63,1.86-3.28,2.71-4.97,1.67-3.32,2.69-6.79,4.04-10.23,1.2-3.06,3.35-5.25,5.63-7.54,1.99-2,4-4.14,4.64-6.97.16-.71-.83-1.06-1.18-.44h0Z"/>
          <path class="cls-3" d="M24.98,84.83c.36.14.7.29,1.04.47.17.09.33.18.49.28.08.05.15.1.23.15.13.08.28.11.43.16l.18.02c.1,0,.19-.02.27-.07.13-.06.26-.16.32-.3.05-.11.08-.23.08-.35,0-.19-.1-.36-.23-.49-.1-.11-.2-.21-.34-.29-.08-.05-.17-.09-.26-.14-.17-.09-.35-.17-.53-.25-.4-.17-.81-.32-1.23-.44-.15-.04-.38,0-.51.09-.12.09-.21.19-.26.33s-.07.29-.02.43c.06.15.17.33.33.39h0Z"/>
          <path class="cls-3" d="M26.65,81.94c.31.24.63.47.97.66.13.07.27.14.41.21.11.05.23.1.35.13.05.02.11.02.17.02.1.02.2.02.29-.01.06-.01.12-.02.18-.03s.13-.03.19-.05c.16-.05.31-.14.42-.27.09-.09.15-.2.18-.32.05-.11.08-.23.07-.36,0-.18-.06-.34-.15-.49-.03-.05-.08-.1-.11-.15,0-.01-.01-.02-.02-.03-.12-.17-.26-.29-.43-.39-.11-.06-.25-.09-.37-.14l.27.1c-.42-.16-.82-.36-1.19-.61-.12-.07-.25-.11-.39-.11-.14-.03-.28-.01-.42.03l-.26.12c-.12.07-.22.17-.29.29-.06.07-.1.15-.13.24-.06.13-.08.26-.07.4.02.27.12.57.35.75h0Z"/>
          <path class="cls-3" d="M48.85,66.07c.31.07.62.01.92-.05.11-.02.21-.05.32-.07.15-.03.28-.13.38-.24.03-.03.06-.06.09-.08l-.1.08s.06-.05.09-.07c.18-.13.25-.37.13-.56-.08-.12-.22-.21-.34-.29s-.26-.12-.41-.12c-.1,0-.21.03-.31.05-.11.02-.22.05-.34.06l.17-.03c-.12.02-.25.04-.37.03l.17.02s-.07-.01-.11-.02c-.16-.04-.37,0-.51.09s-.26.25-.29.41c-.03.17-.02.36.09.51s.24.25.41.29h0Z"/>
        </g>
        <g>
          <g>
            <path class="cls-4" d="M89.35,90.69c3.58-6.97,2.12-12.15,1.43-14.43s-3.32-4.87-4.21-5.17.2,2.69-1.49,5.27c-1.69,2.59-2.19,2.79-2.19,2.79,0,0,1.4-6.88-3.09-14.43-4.68-7.88-13.24-14.73-13.73-13.44-.26.68.16,1.81.31,2.47.81,3.73,1.66,7.53,1.4,11.37-.15,2.26-.92,8.84-4.39,8.15-1.99-.4-3.09-2.99-3.98-2.69-.9.3-5.37,8.86-3.18,17.02,1.46,5.45,7.17,8.36,11.35,8.86,4.18.5,18.21,1.19,21.79-5.77Z"/>
            <path class="cls-6" d="M76.75,82.27s-.21,1.17-1.13,2.75c-.73,1.26-1.89,1.47-1.89,1.47,0,0-1.7-3.57-1.89-6.35-.2-2.79.2-4.05.2-4.05,0,0-4.78,1.59-5.24,8.89-.46,7.3,3.18,9.02,6.17,9.16,2.99.13,6.1-1.46,6.24-5.44.13-3.98-2.45-6.44-2.45-6.44Z"/>
          </g>
          <path class="cls-1" d="M62.58,78.75c-.1.24-.17.49-.23.75-.03.12-.04.24-.09.36-.05.13-.09.25-.12.38-.1.37-.42.73-.81.81-.26.05-.36.06-.62,0-.38-.08-.72-.44-.81-.81-.03-.13-.06-.25-.08-.38-.03-.17-.07-.34-.05-.51s.04-.34.07-.51c.04-.27.12-.53.21-.79.04-.17.12-.32.23-.45.09-.14.22-.26.37-.34.15-.1.31-.15.49-.16.17-.04.35-.03.52.02.32.1.62.3.78.6l.13.31c.06.23.06.46,0,.7h0Z"/>
        </g>
      </g>
      <rect class="cls-2" width="100" height="100"/>
    </g>
  </g>
</svg>