<?xml version="1.0" encoding="UTF-8"?>
<svg id="Capa_2" data-name="Capa 2" xmlns="http://www.w3.org/2000/svg" viewBox="0 0 100 100">
  <defs>
    <style>
      .cls-1 {
        fill: none;
      }

      .cls-2 {
        fill: #4a2d2d;
      }

      .cls-3 {
        fill: #abc153;
      }
    </style>
  </defs>
  <g id="COLOR">
    <g>
      <g>
        <path class="cls-3" d="M53.7,54.71c.17-.34,3.39-4.5,1.02-12.05-2.38-7.55-9.59-11.37-8.23-14.85,1.36-3.48,5.09.08,7.21-1.95,2.12-2.04-.34-8.32,3.06-9.59,3.39-1.27,5.69,7.13,7.81,9.93,2.12,2.8,2.63,2.8,3.14,1.7.51-1.1-1.19-14,2.89-15.62,4.07-1.61,6.37,3.31,7.89,3.22s4.58-4.5,8.49-2.97c3.9,1.53-2.63,8.23-1.36,10.61,1.27,2.38,5.77,5.18,4.24,8.32-1.53,3.14-13.15,3.56-13.41,5.6-.25,2.04,1.19,3.14,5.86,5.01,4.67,1.87,6.7,2.04,6.28,5.09-.42,3.06-5.26,1.87-5.77,3.73-.51,1.87,1.31,4.95-1.19,6.62-3.82,2.55-7.72-3.14-12.05-4.84-5.16-2.02-9.34-2.04-11.37-1.19-2.04.85-3.73,3.82-3.73,3.82l-.76-.59Z"/>
        <path class="cls-3" d="M41.06,67.02s.93-5.6,5.69-9.76c4.75-4.16,7.89-6.53,6.45-9.08-1.44-2.55-6.79,1.87-7.38.68-.59-1.19,3.82-6.45,2.04-8.32-1.78-1.87-3.99.17-5.18,1.19-1.19,1.02-2.8,2.46-3.65.68s2.55-14.6-2.38-16.46c-4.92-1.87-5.01,5.35-7.13,4.84-2.12-.51-3.99-8.66-8.4-6.96-4.41,1.7,0,10.01-.34,11.29s-5.52-.08-6.87,2.21,1.19,6.03,5.86,7.89c4.67,1.87,4.07,2.89,1.95,3.9-2.12,1.02-9.17,1.36-9.08,4.33.08,2.97,7.3,2.29,7.72,4.07s-5.18,4.58-3.48,6.87c1.7,2.29,10.27-.68,14-.93,3.73-.25,9.34,1.95,10.18,3.56Z"/>
        <path class="cls-3" d="M49.97,66.93c.25,0,8.15-1.87,12.22-4.67,4.07-2.8,9.08-4.41,10.78-2.38,1.7,2.04,1.87,6.37,4.07,6.79,2.21.42,6.62-1.87,8.4.59,1.78,2.46-2.89,4.67-.68,6.45,2.21,1.78,6.11,3.65,5.94,6.28-.24,3.76-7.21-.17-8.49,1.7-1.27,1.87.93,6.45-2.04,6.87s-6.62-7.21-9.34-6.7-3.06,6.45-6.03,6.7c-2.97.25-5.35-4.16-9.42-10.35-4.07-6.2-7.98-10.18-9.25-10.18s3.82-1.1,3.82-1.1Z"/>
        <g>
          <path class="cls-2" d="M33.91,37.05c.03.32.07.65.03.97s-.09.61-.14.91-.13.61-.19.91-.14.67,0,.96c.05.11.21.15.31.08.28-.18.38-.52.44-.84.06-.34.08-.69.1-1.03.01-.33,0-.65-.04-.97-.03-.33-.03-.67-.05-1.01-.02-.3-.5-.3-.47,0h0Z"/>
          <path class="cls-2" d="M33.68,41.66s.02-.04,0-.04-.02.04,0,.04h0Z"/>
          <path class="cls-2" d="M60.21,32.3c.28,1.34.57,2.69.95,4,.19.64.39,1.29.55,1.94.07.32.12.64.2.96.06.25.09.55.29.73.07.06.19.09.27.03.49-.33.36-1.22.26-1.71-.14-.68-.37-1.34-.57-1.99-.43-1.39-.94-2.74-1.47-4.09-.11-.29-.54-.19-.47.13h0Z"/>
          <path class="cls-2" d="M75.01,32.67c.77.01,1.52-.04,2.29-.16.7-.11,1.53-.19,2.04-.75.08-.09.04-.21-.07-.25-.69-.27-1.48-.03-2.18.1-.73.13-1.45.28-2.17.44-.35.08-.26.61.08.62h0Z"/>
          <path class="cls-2" d="M79.21,46.4c-.49-.42-1.2-.55-1.82-.7-.68-.17-1.36-.33-2.05-.47-1.34-.29-2.7-.51-4.06-.7-2.5-.34-5.03-.58-7.55-.46,2.83-3.83,5.55-7.88,7.02-12.4.2-.62-.68-.93-1.01-.43-3.09,4.74-5.99,9.52-9.46,14.01-3.67,4.75-7.47,9.41-11.31,14.02-2.32,2.78-4.64,5.56-6.95,8.34-.28-1.62-.86-3.24-1.39-4.73-.74-2.06-1.59-4.09-2.48-6.09.07-.13.13-.26.19-.4.2-.45.39-.89.58-1.34.36-.88.72-1.76,1.09-2.64.74-1.79,1.57-3.63,2.01-5.51.06-.24-.26-.37-.39-.17-1.04,1.63-1.76,3.52-2.52,5.3-.37.87-.75,1.75-1.12,2.62-.13.3-.25.6-.37.91-2.15-4.76-4.66-9.43-7.65-13.71-.49-.69-1.56-.09-1.15.67,1.73,3.2,3.44,6.39,5.04,9.65-.79-.16-1.59-.3-2.38-.41-1.77-.25-3.55-.43-5.33-.48-.25,0-.32.41-.06.45,1.64.26,3.28.5,4.91.8.8.15,1.61.29,2.41.45.32.06.64.13.95.23.41.86.82,1.72,1.21,2.58,1.03,2.29,1.99,4.61,2.84,6.97.84,2.33,1.22,4.68,1.82,7.04-.95,1.15-1.91,2.3-2.86,3.46-1.85,2.25-3.65,4.55-5.51,6.8-1.74,2.1-4.32,4.23-5.46,6.72-.43.93.43,1.75,1.35,1.35,2.51-1.1,4.45-3.98,6.15-6.04,1.86-2.25,3.68-4.53,5.49-6.82,1.7-2.16,3.38-4.32,5.06-6.49,0,0,0,0,.01,0,1.48-.38,3.33-.31,4.84-.35,2.07-.06,4.15-.03,6.22.1,1.39.08,2.75.26,4.1.48.94,1.61,1.77,3.27,2.54,4.96.41.89.81,1.77,1.17,2.68.37.92.65,1.94,1.24,2.74.2.27.7.21.69-.19-.03-1-.47-1.95-.85-2.86-.39-.93-.79-1.87-1.24-2.77-.77-1.52-1.66-2.97-2.59-4.4,4.29.82,8.42,2.2,12.63,3.51.8.25,1.31-.95.57-1.35-1.37-.75-2.81-1.4-4.3-1.96.26-.08.53-.15.8-.22.36-.09.72-.17,1.06-.3.16-.06.4-.13.53-.26.02-.03.03-.04.04-.05.04-.03.08-.06.12-.08.07-.05.15-.09.21-.14.08-.07.03-.2-.06-.22-.13-.04-.28-.05-.43-.07-.28-.12-.69-.03-.96.04-.34.09-.68.2-1.01.32-.49.18-.98.39-1.47.59-4.14-1.41-8.58-2.19-12.8-2.46-2.22-.14-4.45-.21-6.67-.17-.84.02-1.74,0-2.61.12,1.69-2.17,3.37-4.35,5.05-6.52,3.6-4.64,7.39-9.14,10.93-13.83.37-.48.73-.97,1.1-1.46,2.63.3,5.27.5,7.89.92,1.32.21,2.64.47,3.95.75.66.14,1.31.29,1.96.45.62.15,1.3.4,1.94.29.29-.05.4-.48.18-.67Z"/>
          <path class="cls-2" d="M75.55,76.24c.47.47.83.9,1.17,1.44.17.26.33.54.48.81.17.31.31.63.58.87s.72.08.73-.3c0-.39-.17-.73-.35-1.07-.17-.31-.37-.6-.59-.88-.42-.54-.89-1.04-1.42-1.48-.18-.15-.43-.17-.61,0-.16.16-.17.44,0,.61h0Z"/>
        </g>
      </g>
      <rect class="cls-1" width="100" height="100"/>
    </g>
  </g>
</svg>