<?xml version="1.0" encoding="UTF-8"?>
<svg id="Capa_2" data-name="Capa 2" xmlns="http://www.w3.org/2000/svg" viewBox="0 0 100 100">
  <defs>
    <style>
      .cls-1 {
        fill: none;
      }

      .cls-2 {
        fill: #4a2d2d;
      }

      .cls-3 {
        fill: #4a2d2d;
      }

      .cls-4 {
        fill: #806c6c;
      }
    </style>
  </defs>
  <g id="COLOR">
    <g>
      <g>
        <g>
          <path class="cls-3" d="M46.91,72.7c4.8-7.72.76-18.56-8.2-20.7-6.8-1.63-14.62,2.89-17.32,9.08-4.33,9.98,9.51,19.97,18.5,17.32,2.96-.98,5.45-3.01,7.02-5.71Z"/>
          <path class="cls-4" d="M24.73,61.11c.7,1.9,1.4,5.24,4.13,4.75,1.23-.22,2.19-1.09,2.92-2.05.88-1.15,1.69-2.36,3.29-2.41,2.26-.07,4.87.96,6.52-1.2.61-.8.95-1.83,1.14-2.81.18-.93.43-2.16.02-3.04-.09-.19-.39-.18-.48,0-.38.74-.29,1.74-.44,2.55-.17.92-.45,1.85-1.08,2.56-1.6,1.79-3.89.72-5.94.91-2.2.21-3.13,1.81-4.54,3.27-.85.87-2.22,1.61-3.12.39-.67-.9-.98-2.17-1.39-3.2-.25-.62-1.27-.37-1.03.28h0Z"/>
          <path class="cls-4" d="M35.61,62.54c-1.21,2.47-.11,5.06,1.6,6.97.84.94,1.52,1.89,1.56,3.2.02.6-.08,1.19-.3,1.75-.19.5-.45,1.01-.51,1.55-.03.24.26.41.47.35,1.11-.3,1.58-1.7,1.73-2.71.18-1.22,0-2.5-.61-3.59-.69-1.23-1.91-2.03-2.55-3.29-.62-1.22-.7-2.69-.64-4.03.02-.39-.58-.57-.76-.2h0Z"/>
          <path class="cls-4" d="M43.81,71.05c.96-.91,1.64-2.07,2.01-3.34.18-.64.28-1.3.25-1.96-.01-.35-.05-.7-.15-1.04-.11-.38-.27-.65-.56-.92s-.75-.15-.85.22c-.08.3-.12.55-.11.85.01.28.02.55.03.83.02.53-.02,1.13-.1,1.6-.19,1.07-.63,2.09-1.35,2.92-.48.57.27,1.35.83.83h0Z"/>
          <path class="cls-4" d="M31.8,73.07c-.38-.28-.73-.61-1.03-.97-.04-.04-.07-.09-.11-.13-.03-.04-.03-.04,0,.01l-.11-.15c-.08-.1-.17-.18-.25-.28s-.16-.19-.24-.28c-.09-.11.02.03-.03-.04-.04-.06-.08-.11-.12-.16-.14-.19-.26-.4-.38-.6-.06-.11-.12-.22-.17-.33-.02-.05-.05-.1-.07-.15-.09-.2.06.15-.03-.06-.11-.27-.23-.54-.37-.79s-.26-.48-.55-.62c-.18-.08-.41-.09-.55.07-.26.28-.28.55-.26.92.03.37.12.7.27,1.04.23.51.53.97.87,1.41.36.47.76.9,1.27,1.21.48.29.99.52,1.53.68.2.06.42-.06.49-.24.08-.21,0-.4-.17-.52h0Z"/>
        </g>
        <g>
          <path class="cls-2" d="M63.42,42.12c5.13-8.26.82-19.84-8.76-22.14-7.27-1.75-15.63,3.09-18.52,9.71-4.63,10.66,10.17,21.35,19.79,18.52,3.16-1.04,5.84-3.22,7.5-6.1Z"/>
          <path class="cls-4" d="M45.32,22.72c-.03,2.18.12,4.74,1.95,6.23,1.94,1.59,4.56.94,6.85,1.03,1.11.04,2.27.19,3.28.7,1.15.58,1.71,1.55,2,2.78.3,1.24.46,2.47,1.25,3.51.64.85,1.75,1.58,2.74.82.21-.16.21-.4,0-.56-.92-.71-1.71-1.36-2.06-2.51-.34-1.12-.46-2.3-1.04-3.33-.96-1.73-2.85-2.48-4.73-2.71-.99-.12-1.99-.12-2.99-.05-1.16.08-2.4.23-3.52-.13-2.38-.77-2.62-3.67-2.78-5.78-.05-.6-.94-.62-.95,0h0Z"/>
          <path class="cls-4" d="M47.25,29.41c-.64,1.05-1.32,2.14-2.31,2.9-.45.34-.98.59-1.54.67-.73.11-1.47-.03-2.19.15-1.06.26-1.86,1.04-2.43,1.94-.3.48-.54,1-.75,1.53-.22.56-.45,1.2-.13,1.77.13.22.43.3.65.17.51-.31.65-.89.81-1.44.15-.51.33-1.02.59-1.49.24-.43.53-.84.93-1.13.54-.39,1.16-.44,1.8-.49,1.22-.1,2.24-.55,3.13-1.41.84-.81,1.45-1.83,2.02-2.84.22-.38-.36-.72-.59-.34h0Z"/>
          <path class="cls-4" d="M49.05,42.95c1.18-1.52,2.21-3.13,2.99-4.9.39-.88.75-1.77,1.04-2.69.15-.45.25-.89.33-1.36.09-.56.05-.94-.21-1.44-.12-.24-.46-.26-.64-.08-.34.34-.53.65-.65,1.12-.11.46-.21.91-.31,1.37-.18.88-.41,1.76-.7,2.62-.59,1.75-1.35,3.46-2.3,5.04-.15.26.23.58.43.33h0Z"/>
          <path class="cls-4" d="M57.04,37.95c-.15.84-.33,1.67-.36,2.52-.01.39-.05.79-.02,1.18.02.25.02.54.09.78.05.18.14.34.27.47l-.14-.23c.03.1.08.2.12.3.05.09.11.16.19.22.36.31.8.31,1.17,0,.13-.11.28-.3.29-.48.05-.13,0-.06-.13.19.13-.13.22-.29.27-.47.06-.23.06-.5.08-.74.03-.41,0-.82-.02-1.23-.03-.85-.21-1.68-.36-2.52-.13-.73-1.34-.73-1.47,0h0Z"/>
        </g>
        <g>
          <path class="cls-2" d="M80.69,70.04c5.03-8.08.8-19.42-8.58-21.68-7.12-1.7-15.3,3.04-18.13,9.51-4.53,10.45,9.95,20.9,19.36,18.13,3.1-1.02,5.71-3.14,7.34-5.96Z"/>
          <path class="cls-4" d="M69.54,52.11c1.34,1.43,1.61,3.77.6,5.47-1.14,1.91-3.67,1.98-5.64,1.66-2-.32-4.16-1.05-6.04.14-.69.44-1.27,1.08-1.57,1.84-.24.62-.4,1.59.23,2.02.19.13.42-.01.49-.2.15-.39-.02-.81.06-1.22.1-.48.38-.9.71-1.25.84-.86,1.99-1.08,3.15-1.03,2.27.1,4.52,1.36,6.79.94,1.98-.36,3.41-2.03,3.76-3.98.35-1.92-.36-3.87-1.68-5.28-.55-.59-1.43.3-.88.88h0Z"/>
          <path class="cls-4" d="M69.45,59.83c1.29.21,1.96,1.64,2.05,2.85.14,1.7-.61,3.37-.73,5.05-.11,1.48.09,3.05.55,4.46.4,1.23,1,2.85,2.26,3.36.17.07.4-.11.39-.29-.08-.76-.45-1.31-.77-2-.36-.78-.62-1.6-.78-2.45-.34-1.87.16-3.55.52-5.37.31-1.57.46-3.15-.24-4.65-.55-1.17-1.84-1.99-3.12-2-.58,0-.75.95-.14,1.04h0Z"/>
          <path class="cls-4" d="M62.91,61.95c-1.53,1.86-2.03,4.39-1.11,6.64.42,1.02,1.07,1.93,1.92,2.63.42.35.87.66,1.37.9.26.13.55.28.84.31.25.02.51-.08.75-.13.23-.05.31-.37.14-.53-.16-.15-.28-.34-.45-.47-.18-.14-.42-.21-.62-.31-.38-.2-.75-.43-1.08-.71-.67-.57-1.22-1.3-1.54-2.12-.7-1.79-.36-3.91.76-5.45.41-.57-.53-1.3-.98-.76h0Z"/>
          <path class="cls-4" d="M77.56,65.38c.41-1.26.82-2.52,1.17-3.8.35-1.25.58-2.48,0-3.7-.52-1.1-1.41-2.06-2.16-3.02-.44-.56-.87-1.12-1.31-1.68-.4-.52-.78-1.04-1.46-1.14-.32-.05-.55.12-.59.45-.12,1.1,1.09,2.19,1.71,3.01.69.92,1.47,1.8,2.1,2.76.7,1.06.38,2.11.1,3.25-.29,1.17-.51,2.36-.75,3.54-.16.77.94,1.08,1.18.32h0Z"/>
        </g>
      </g>
      <rect class="cls-1" width="100" height="100"/>
    </g>
  </g>
</svg>