<?xml version="1.0" encoding="UTF-8"?>
<svg id="Capa_2" data-name="Capa 2" xmlns="http://www.w3.org/2000/svg" viewBox="0 0 100 100">
  <defs>
    <style>
      .cls-1 {
        fill: #fff;
      }

      .cls-2 {
        fill: none;
      }

      .cls-3 {
        fill: #4a2d2d;
      }

      .cls-4 {
        fill: #b3644c;
      }
    </style>
  </defs>
  <g id="COLOR">
    <g>
      <g>
        <g>
          <path class="cls-4" d="M91.19,16.92c-4.22-9.98-18.69-16.66-27.9-8.87-3.59,3.04-5.4,8.58-2.97,12.67-3.98,1.11-6.93,4.62-6.7,9.28.1,1.9.95,3.62,1.12,5.48.3,3.3-3.81,1.58-5.7,1.69-2.38.14-4.25,1.67-5.05,3.76-.68-.12-1.37-.19-2.08-.18-4.35.06-8.9,3.69-8.11,8.31-.07.02-.14.04-.21.06-4.27,1.34-7.88,5.75-10.74,8.96-2.89,3.25-6.89,7.63-5.91,12.34.89,4.3,4.57,7.96,7.68,10.8,5.63,5.12,16.44,13.03,23.34,5.93,3.96-4.08,8.02-9.25,10.14-14.57.57-1.42.75-2.77.65-4.05,3.98-.76,7.59-5.26,5.42-11.41,1.63-1.01,2.69-2.78,2.79-4.82.06-1.28-.38-2.42-.88-3.57-.39-.91-1.23-2.47-.27-3.27.78-.65,2.58-.33,3.5-.33,3,0,6.19-.62,8.31-2.91,1.57-1.7,2.3-4,2.29-6.29,3.7.85,7.9-1.17,10.13-4.1,3.25-4.26,3.13-10.17,1.12-14.92Z"/>
          <path class="cls-3" d="M18.54,67.1c3.03.11,6.41,2.17,8.86,3.8,2.78,1.86,5.39,4.05,7.96,6.18,2.56,2.12,5.05,4.3,7.02,7,.79,1.09,1.97,4.73,3.75,4.14.49-.16.82-.76.74-1.26-.48-3.08-2.9-5.81-5.02-7.95-2.45-2.48-5.24-4.57-8.02-6.66-2.64-1.97-5.41-3.93-8.42-5.29-1.54-.7-5.91-2.78-7.3-1.04-.3.37-.08,1.06.44,1.08h0Z"/>
          <path class="cls-3" d="M32.81,82c.97-1.56.15-3.76-1.66-4.19-1.38-.33-2.96.59-3.51,1.84-.88,2.02,1.93,4.05,3.75,3.5.61-.18,1.09-.62,1.42-1.15Z"/>
          <path class="cls-3" d="M20.54,82.18c.97-1.56.15-3.76-1.66-4.19-1.38-.33-2.96.59-3.51,1.84-.88,2.02,1.93,4.05,3.75,3.5.61-.18,1.09-.62,1.42-1.15Z"/>
          <path class="cls-3" d="M21.77,93.83c.97-1.56.15-3.76-1.66-4.19-1.38-.33-2.96.59-3.51,1.84-.88,2.02,1.93,4.05,3.75,3.5.61-.18,1.09-.62,1.42-1.15Z"/>
          <path class="cls-3" d="M32.02,94.05c.97-1.56.15-3.76-1.66-4.19-1.38-.33-2.96.59-3.51,1.84-.88,2.02,1.93,4.05,3.75,3.5.61-.18,1.09-.62,1.42-1.15Z"/>
        </g>
        <path class="cls-1" d="M26.34,64.44c1.38-1.36,2.53-2.93,3.84-4.36,1.14-1.25,2.9-2.49,3.58-4.05.19-.44-.14-1.14-.71-.92-1.68.64-2.94,2.42-4.12,3.73-1.34,1.49-2.72,3-3.7,4.75-.4.7.54,1.44,1.12.86h0Z"/>
        <path class="cls-1" d="M37.61,54.01c.09-.17.17-.34.21-.53.05-.2.03-.44-.08-.61l-.12-.16c-.1-.1-.22-.17-.35-.2-.05-.02-.1-.05-.15-.06s-.11-.02-.16-.02l-.29-.04-.29.04-.26.11-.22.17-.17.22-.11.26-.04.29c0,.15.03.29.09.42.03.09.07.17.14.24.05.08.11.15.19.19.07.07.15.11.24.14.08.05.18.07.27.07.1.03.19.03.29,0,.1,0,.19-.02.27-.07.09-.03.17-.07.24-.14.12-.08.21-.18.28-.3h0Z"/>
        <path class="cls-1" d="M60.05,30.98c.15-.79.24-1.61.58-2.34.33-.71.85-1.3,1.12-2.04.19-.52-.39-1.05-.9-.9-1.94.59-2.82,3.5-2.25,5.28.21.66,1.31.78,1.46,0h0Z"/>
        <path class="cls-1" d="M67.54,14.65c-.07-1.07.58-1.77,1.08-2.65.26-.46-.06-1.17-.64-1.12-1.82.14-2.76,2.12-2.67,3.77.08,1.43,2.32,1.43,2.23,0h0Z"/>
        <path class="cls-1" d="M85.73,30.9c.35-.37.63-.75.77-1.24.14-.49-.35-1.05-.87-.87-.13.05-.27.09-.39.15-.08.04-.16.11-.24.16-.22.15-.39.31-.57.5-.33.35-.37.95,0,1.29s.94.37,1.29,0h0Z"/>
        <path class="cls-1" d="M48.36,78.72c.15-.66.33-1.33-.22-1.88l.3.51-.02-.06c-.13-.38-.39-.68-.79-.79-.37-.1-.83,0-1.1.29l-.04.05.51-.3c-.31.13-.6.26-.76.58-.07.13-.13.29-.17.43-.05.17-.07.34-.1.51-.06.33-.05.66.13.96.15.26.45.5.74.57.63.14,1.37-.19,1.53-.87h0Z"/>
        <path class="cls-1" d="M60.2,61.44v-.08c0-.13-.03-.26-.09-.38-.04-.12-.11-.23-.2-.31l-.2-.15c-.15-.09-.32-.13-.49-.13h-.08c-.09,0-.19.02-.28.03l-.25.11c-.12.07-.22.16-.3.27-.07.07-.11.14-.14.23-.05.08-.07.17-.07.27-.03.09-.03.19,0,.28,0,.1.02.19.07.27.04.13.12.25.22.34l.22.17.25.11.28.04.28-.04.25-.11c.12-.07.22-.16.3-.27.07-.07.11-.14.14-.23.07-.13.1-.26.09-.41h0Z"/>
        <path class="cls-3" d="M79.77,34.15c-.63-3.31-2.78-6.18-5.28-8.32-2.65-2.26-5.95-4.38-9.43-5.11-2.12-.45-3.89-.46-5.68.29,4.24.32,9.69,2.95,12.35,5.07,2.59,2.06,6.91,7.56,8.05,11.62.21-1.19.22-2.33-.02-3.55Z"/>
        <g>
          <path class="cls-2" d="M58.42,71.72c-.65-3.23-2.7-6.97-4.3-8.79-1.51-1.72-3.43-3.03-5.21-4.44-2-1.58-4.01-3.16-6.03-4.72-1.97-1.52-5.15-4.33-10.91-3.76-.2.02-.38.05-.56.09-.94.53-1.83,1.19-2.69,1.91-1.13,1.75-1.56,4.29-2.99,6.16-1.45,1.9-2.84,3.83-4.18,5.81-1.14,1.69-2.4,3.41-2.09,5.57.53,3.75,4.17,7.23,6.8,9.62,3.34,3.04,7.2,5.68,11.4,7.37,1.64.66,3.52,1.22,5.3.86,2.12-.43,3.58-2.37,4.92-3.91,1.73-1.99,4.36-2.94,6.61-4.22,1.46-2.15,2.73-4.41,3.64-6.69.12-.29.21-.58.3-.86Z"/>
          <path class="cls-3" d="M42.86,53.78c2.02,1.55,4.03,3.13,6.03,4.72,1.78,1.41,3.71,2.72,5.21,4.44,1.6,1.83,3.65,5.56,4.3,8.79,1.77-5.93-3-10.56-7.14-14.18-2.2-1.92-4.48-3.75-6.88-5.43-.43-.3-.86-.6-1.3-.89-2.81-1.86-6.14-3.15-9.49-2.11-.76.24-1.49.57-2.2.98.18-.04.36-.07.56-.09,5.76-.57,8.94,2.25,10.91,3.76Z"/>
        </g>
        <path class="cls-3" d="M64.28,57.01c-1.75-4.34-5.44-7.87-9.03-10.65-3.65-2.82-8.54-5.78-13.39-5.71-.69,0-1.36.17-2.04.36,5.82.75,11.33,5.15,14,7.18,2.38,1.8,5.23,3.82,7.94,7.39,1.51,1.98,2.71,4.45,2.92,7.04.56-1.75.58-3.16-.4-5.6Z"/>
      </g>
      <rect class="cls-2" width="100" height="100"/>
    </g>
  </g>
</svg>