<?xml version="1.0" encoding="UTF-8"?>
<svg id="Capa_2" data-name="Capa 2" xmlns="http://www.w3.org/2000/svg" viewBox="0 0 100 100">
  <defs>
    <style>
      .cls-1 {
        fill: #e3365e;
      }

      .cls-2 {
        fill: none;
      }

      .cls-3 {
        fill: #b1977b;
      }

      .cls-4 {
        fill: #4a2d2d;
      }

      .cls-5 {
        fill: #80783b;
      }

      .cls-6 {
        fill: #806c6c;
      }
    </style>
  </defs>
  <g id="COLOR">
    <g>
      <g>
        <g>
          <path class="cls-4" d="M38.69,59.44c4.75-7.65.75-18.39-8.12-20.51-6.74-1.62-14.48,2.86-17.17,9-4.29,9.89,9.42,19.78,18.33,17.17,2.93-.97,5.4-2.98,6.95-5.65Z"/>
          <path class="cls-6" d="M16.71,47.95c.69,1.88,1.39,5.2,4.09,4.71,1.22-.22,2.17-1.08,2.9-2.03.87-1.14,1.67-2.34,3.26-2.39,2.24-.07,4.83.95,6.46-1.19.6-.8.94-1.81,1.13-2.79.17-.92.43-2.14.02-3.01-.09-.19-.39-.18-.48,0-.37.74-.28,1.73-.44,2.53-.17.91-.44,1.83-1.07,2.54-1.59,1.77-3.86.71-5.89.9-2.18.21-3.1,1.8-4.5,3.24-.84.86-2.2,1.59-3.09.39-.66-.89-.97-2.15-1.38-3.17-.25-.62-1.26-.36-1.02.28h0Z"/>
          <path class="cls-6" d="M27.49,49.37c-1.2,2.45-.11,5.02,1.58,6.9.83.93,1.51,1.88,1.55,3.17.02.6-.08,1.18-.3,1.74-.19.5-.44,1-.5,1.54-.03.24.25.41.46.35,1.1-.3,1.57-1.69,1.72-2.69.18-1.21,0-2.48-.6-3.55-.68-1.21-1.9-2.01-2.53-3.26-.61-1.21-.7-2.66-.63-3.99.02-.39-.57-.56-.75-.2h0Z"/>
          <path class="cls-6" d="M35.61,57.8c.95-.9,1.63-2.05,1.99-3.31.18-.63.27-1.29.25-1.95-.01-.35-.05-.69-.15-1.03-.11-.38-.27-.65-.55-.91-.27-.26-.74-.15-.84.22-.08.29-.12.54-.11.85.01.27.02.55.03.82.02.52-.02,1.12-.1,1.59-.19,1.06-.63,2.07-1.33,2.9-.48.56.27,1.34.82.82h0Z"/>
          <path class="cls-6" d="M23.72,59.8c-.38-.28-.72-.61-1.02-.97-.04-.04-.07-.09-.11-.13-.03-.04-.03-.04,0,.01l-.11-.15c-.08-.1-.17-.18-.25-.27s-.16-.19-.24-.28c-.09-.11.02.03-.03-.03-.04-.05-.08-.11-.12-.16-.13-.19-.26-.39-.37-.6-.06-.11-.12-.22-.17-.33-.02-.05-.05-.1-.07-.15-.09-.2.06.15-.03-.06-.11-.27-.23-.53-.37-.79s-.26-.48-.54-.61c-.18-.08-.41-.09-.55.07-.25.28-.28.55-.25.91s.12.7.27,1.03c.23.5.52.96.86,1.4.36.47.75.89,1.26,1.2.47.29.98.51,1.51.68.2.06.42-.06.49-.24.08-.2,0-.39-.17-.52h0Z"/>
        </g>
        <g>
          <path class="cls-5" d="M85.54,60.11c4.98-8,.8-19.24-8.5-21.48-7.05-1.68-15.16,3.01-17.96,9.42-4.49,10.35,9.86,20.71,19.19,17.96,3.07-1.01,5.66-3.11,7.28-5.91Z"/>
          <path class="cls-4" d="M74.5,42.35c1.33,1.41,1.6,3.74.6,5.42-1.13,1.89-3.64,1.96-5.59,1.65s-4.12-1.04-5.98.14c-.68.43-1.26,1.07-1.56,1.82-.24.62-.4,1.58.23,2,.19.13.41-.01.48-.2.14-.39-.02-.8.06-1.21.1-.47.38-.9.71-1.24.83-.85,1.97-1.07,3.12-1.02,2.25.1,4.48,1.35,6.73.94,1.96-.36,3.38-2.01,3.73-3.94s-.36-3.84-1.67-5.23c-.55-.58-1.42.3-.87.87h0Z"/>
          <path class="cls-4" d="M74.41,50c1.28.21,1.94,1.63,2.03,2.83.13,1.68-.6,3.34-.72,5.01-.1,1.47.08,3.02.54,4.42.4,1.22.99,2.82,2.24,3.33.17.07.4-.11.38-.29-.07-.76-.45-1.3-.76-1.99-.36-.78-.62-1.59-.77-2.43-.34-1.85.16-3.52.52-5.32.31-1.56.45-3.12-.24-4.6-.54-1.16-1.82-1.97-3.09-1.98-.58,0-.74.94-.14,1.03h0Z"/>
          <path class="cls-4" d="M67.92,52.1c-1.51,1.84-2.01,4.35-1.1,6.58.41,1.01,1.06,1.91,1.9,2.61.42.35.87.65,1.35.89.26.13.55.28.83.31.25.02.5-.07.74-.13.23-.05.31-.37.14-.53-.16-.15-.27-.33-.45-.46-.18-.14-.41-.21-.61-.31-.38-.2-.74-.43-1.07-.71-.66-.57-1.21-1.29-1.53-2.1-.69-1.78-.36-3.87.75-5.4.41-.56-.53-1.29-.97-.75h0Z"/>
          <path class="cls-4" d="M82.43,55.49c.4-1.25.81-2.5,1.16-3.76s.57-2.45,0-3.67c-.51-1.09-1.4-2.04-2.14-2.99-.43-.55-.86-1.11-1.29-1.66-.4-.51-.77-1.03-1.45-1.13-.32-.05-.55.12-.58.44-.12,1.09,1.08,2.17,1.7,2.98.69.91,1.46,1.78,2.08,2.74.69,1.05.38,2.09.1,3.22s-.5,2.34-.74,3.51c-.15.76.93,1.07,1.17.32h0Z"/>
        </g>
        <g>
          <path class="cls-3" d="M52,43.2c9-.43,15.56-9.82,12.28-18.33-2.49-6.47-10.58-10.3-17.15-9.02-10.58,2.08-10.94,18.98-3.72,24.84,2.46,1.86,5.52,2.76,8.6,2.51Z"/>
          <path class="cls-6" d="M48.7,37.78c-.23-.12-.36-.15-.61-.17-.23-.01-.41.06-.61.16-.1.05-.19.12-.27.2-.07.07-.13.16-.19.25,0,0-.01.02-.01.02-.05.1-.09.2-.13.3,0,0,0,.02,0,.03-.03.12-.04.24-.05.37,0,0,0,.01,0,.02,0,.11,0,.22.04.32l.06.14c.05.15.13.27.24.38.14.14.34.27.54.31.11.02.22.05.33.04s.22,0,.32-.04c.09-.03.18-.06.26-.11h0s.07-.05.11-.08c-.05.04.08-.05.11-.08l.16-.21c.09-.16.14-.33.14-.52,0-.2-.02-.18-.04-.28l.04.28s0,0,0-.01l-.04.28s0-.01,0-.02l-.11.26s0-.02.02-.02l-.18.23s0,0,.01-.01c.22-.22.35-.53.35-.84,0-.25-.06-.38-.16-.6,0,0,0-.01,0-.02l.12.28s-.02-.05-.02-.07l.04.31s0-.04,0-.05l-.04.3s0-.02,0-.04l-.11.27s0-.02.01-.02l-.18.23s0-.01.02-.02l-.23.18s.01,0,.02-.01l-.27.11s.02,0,.03,0l-.29.04s.01,0,.02,0l.29-.04c.14-.03.27-.1.37-.2.08-.05.15-.11.2-.2.1-.11.16-.23.2-.37l.04-.29-.04-.29c-.03-.14-.1-.27-.2-.37-.08-.12-.18-.21-.31-.28h0Z"/>
        </g>
        <g>
          <path class="cls-1" d="M38.03,81.56c4.73,7.66,16.13,8.87,21.98,1.87,4.45-5.31,3.89-14.24-.41-19.38-6.94-8.25-21.91-.38-23.54,8.76-.44,3.06.26,6.17,1.96,8.74Z"/>
          <path class="cls-4" d="M49.33,67.38c-.55,1.28-.8,2.52-.59,3.9s.73,2.57,1.58,3.6c1.52,1.84,4.53,3.41,6.88,2.29.19-.09.14-.41-.06-.45-1.06-.23-2.16-.35-3.19-.72s-1.98-1.02-2.71-1.85-1.25-1.91-1.49-3-.28-2.45.05-3.58c.08-.27-.35-.47-.47-.2h0Z"/>
        </g>
      </g>
      <rect class="cls-2" width="100" height="100"/>
    </g>
  </g>
</svg>