<?xml version="1.0" encoding="UTF-8"?>
<svg id="Capa_2" data-name="Capa 2" xmlns="http://www.w3.org/2000/svg" viewBox="0 0 100 100">
  <defs>
    <style>
      .cls-1 {
        fill: none;
      }

      .cls-2 {
        fill: #b1977b;
      }

      .cls-3 {
        fill: #806c6c;
      }
    </style>
  </defs>
  <g id="COLOR">
    <g>
      <g>
        <g>
          <path class="cls-2" d="M31.75,58.66c9.15-.44,15.84-9.99,12.5-18.65-2.53-6.58-10.77-10.48-17.46-9.18-10.77,2.12-11.13,19.32-3.79,25.28,2.51,1.89,5.62,2.8,8.75,2.56Z"/>
          <path class="cls-2" d="M66.58,54.86c9.79-.47,16.95-10.68,13.36-19.95-2.71-7.04-11.51-11.21-18.67-9.82-11.5,2.26-11.91,20.66-4.05,27.03,2.68,2.03,6.01,3,9.36,2.74Z"/>
          <path class="cls-2" d="M53.29,85.18c9.59-.45,16.58-10.45,13.09-19.53-2.66-6.88-11.28-10.96-18.27-9.61-11.27,2.22-11.66,20.23-3.97,26.45,2.62,1.99,5.87,2.94,9.15,2.68Z"/>
        </g>
        <path class="cls-3" d="M54.45,61.52s.09.1.14.14c0,0,.02.02.03.02l.3.23c.06.03.13.06.19.08.06.03.13.06.2.08.1.03.19.04.3.06.13.02.19.03.3.02.16-.02.33-.04.49-.07.08-.01.16-.04.23-.06.19-.04.35-.13.49-.26.16-.1.28-.23.37-.4l.14-.34c.06-.19.07-.38.03-.57,0-.13-.03-.25-.1-.36-.06-.18-.16-.33-.3-.46l-.29-.22c-.22-.13-.46-.19-.72-.2-.08,0-.17,0-.25-.02l.39.05c-.23-.03-.46-.09-.7-.08-.18,0-.35.03-.51.09-.05.01-.09.03-.14.04-.23.06-.42.18-.59.34-.17.17-.28.36-.34.59-.06.24-.06.47,0,.71.06.23.18.42.34.59h0Z"/>
        <path class="cls-3" d="M28.38,53.15c-.09-.05-.19-.09-.29-.12,0,0,0,0-.01,0-.05,0-.18-.02-.15-.02.02,0-.11-.02-.16-.02-.23-.01-.41.06-.61.16,0,0-.01,0-.02.01-.08.06-.18.12-.25.19s-.13.16-.19.25c0,0,0,.02-.01.02-.05.1-.09.2-.13.3,0,0,0,.02,0,.03,0,0,0,.02,0,.03-.02.11-.04.23-.05.34,0,0,0,0,0,.01,0,.11.01.22.04.32.08.3.28.55.54.71-.05-.03.2.1.3.12.11.02.22.05.33.04s.22,0,.32-.04c.09-.03.18-.06.26-.11.16-.1.28-.21.37-.37l.1-.25c.05-.18.05-.37,0-.55,0,0,0,0,0,0l.04.28s0-.01,0-.02l-.04.28s0-.01,0-.02l-.11.26s.01-.02.02-.03l-.18.23s0,0,.01-.01c.15-.15.25-.32.3-.52l.04-.31c.01-.23-.07-.4-.16-.6,0,0,0-.01,0-.02l.12.28s-.02-.05-.02-.08l.04.31s0-.04,0-.06l-.04.3s0-.02,0-.04l-.11.27s0-.02.01-.02l-.18.23s.01-.01.02-.02l-.23.18s.01,0,.02-.01l-.27.11s.02,0,.03,0l-.29.04s.01,0,.02,0l.29-.04c.14-.03.27-.1.37-.2.08-.05.15-.11.2-.2.1-.11.16-.23.2-.37l.04-.29-.04-.29c-.03-.14-.1-.27-.2-.37-.08-.12-.18-.21-.31-.28h0Z"/>
        <path class="cls-3" d="M71.08,32.63c.13.1.26.21.4.31s.34.15.51.2l.24.08c.22.06.44.06.65,0,.21-.06.39-.16.54-.32l.03-.03-.77.32c.07,0,.15-.02.22-.03.09,0,.18-.02.26-.07.09-.02.16-.07.23-.13.12-.09.18-.13.27-.29.02-.03.09-.21.1-.25l.04-.28-.04-.28-.1-.25v-.03s-.03-.03-.04-.05l.11.84v-.03c.07-.22.07-.44,0-.65-.06-.21-.16-.39-.32-.54l-.2-.16-.09-.07s-.04-.03-.05-.04l-.27-.2c-.05-.03-.11-.06-.18-.08-.2-.09-.41-.16-.61-.25-.17-.05-.33-.06-.5-.02-.17,0-.32.06-.46.15l-.25.19c-.12.11-.21.25-.26.4-.06.1-.08.2-.08.31-.04.17-.03.33.02.5l.13.3c.11.19.26.34.45.45h0Z"/>
      </g>
      <rect class="cls-1" width="100" height="100"/>
    </g>
  </g>
</svg>