<?xml version="1.0" encoding="UTF-8"?>
<svg id="Capa_2" data-name="Capa 2" xmlns="http://www.w3.org/2000/svg" viewBox="0 0 100 100">
  <defs>
    <style>
      .cls-1 {
        fill: #fff;
      }

      .cls-2 {
        fill: none;
      }

      .cls-3 {
        fill: #4a2d2d;
      }

      .cls-4 {
        fill: #af645a;
      }
    </style>
  </defs>
  <g id="COLOR">
    <g>
      <rect class="cls-2" width="100" height="100"/>
      <g>
        <g>
          <path class="cls-3" d="M62.63,79.33c-.02-.43-.35-.61-.65-.56-.01-.13-.03-.26-.04-.38-.09-.74-23.42.16-23.46.94-.09,1.83-.36,3.67-.21,5.52.08.97,18.58.89,22.92.12.22.94,1.57.93,1.65-.12.15-1.85-.12-3.68-.21-5.52Z"/>
          <path class="cls-4" d="M64.12,56.69c-1.39-3.78-3.08-7.33-3.83-11.32-.79-4.14-.41-8.04.4-12.14.09-.46-.46-.84-.8-.62-2.03-.44-19.58.09-19.48.62.81,4.1,1.18,8,.4,12.14-.76,3.99-2.44,7.54-3.83,11.32-.26.7,22.6.63,25.63.05.08.16.16.33.25.49.37.68,1.54.21,1.27-.53Z"/>
          <path class="cls-4" d="M63.74,26.9c-.11-.32-.43-.45-.7-.38,0-.03-.01-.05-.02-.08-.17-.55-25.14-.05-25.32.46-.53,1.47-.66,3.95.14,5.37.69,1.23,2.11,1.8,3.44,2.05,2.08.39,4.26.44,6.37.44,4.14.01,8.44.32,12.52-.44,1.32-.25,2.75-.82,3.44-2.05.79-1.42.67-3.91.14-5.37Z"/>
          <path class="cls-3" d="M53.22,4.82c-.87-1.1-2.21-1.05-3.38-.98-1.09.06-2.58.21-3.31,1.33-.73,1.11-.25,3.49-.02,4.73.16.85,1.16.59,1.21-.2l4.73-.12c.19.63,1.18.67,1.33-.11.29-1.54.43-3.41-.57-4.66Z"/>
          <path class="cls-4" d="M63.5,13.66c-3.31-3.48-8.23-4.89-12.93-4.64-4.32.24-8.74,1.66-11.88,4.74-1.76,1.73-2.86,3.99-3.36,6.39-.25,1.19-.35,2.41-.33,3.63,0,.62.05,1.24.12,1.86.05.41.03,1.3.38,1.58.78.6,2.39.41,3.32.45,1.32.05,2.65.06,3.97.05,2.68-.02,5.36-.11,8.04-.06,2.69.05,5.38.13,8.08.21,1.38.04,2.76.08,4.13.12.94.03,2.72.11,3.47-.65.4-.41.36-.79.45-1.33.09-.61.15-1.22.17-1.84.05-1.24-.05-2.49-.28-3.71-.46-2.42-1.49-4.75-3.14-6.59-.07-.07-.13-.15-.2-.22Z"/>
          <path class="cls-4" d="M68.38,69.37c-.17-2.47-.59-4.92-1-7.36-.29-1.74-.51-4.11-2.1-5.23-1.63-1.14-4.53-.56-6.39-.51-2.78.07-13.91.08-16.69,0-1.86-.05-4.76-.63-6.39.51-1.51,1.05-1.76,3.26-2.04,4.91-.43,2.54-.88,5.11-1.05,7.68-.27,4.05-.69,9.6,4.26,10.84,2.36.59,4.93.84,7.36,1.08,1.98.2,10.47.19,12.44,0,2.43-.24,4.99-.5,7.36-1.08,4.95-1.2,4.53-6.82,4.26-10.84Z"/>
          <path class="cls-4" d="M65.79,90.7c.01-2.63.4-6.47-2.96-6.37-5.86.17-20.89-.37-24.46-.01-3.42.34-3.08,3.72-3.07,6.39,0,1.23-.27,3.06.56,4.11.7.88,1.89.87,2.91.93,2.07.13,4.14.21,6.21.2,3.59-.02,7.18-.03,10.77,0,2.07.01,4.15-.04,6.21-.17,1.07-.07,2.41,0,3.19-.88.9-1.02.62-2.97.62-4.19Z"/>
          <path class="cls-1" d="M44.97,13.56c-2.39.61-5.19,2.88-5.07,5.6.05,1.12,1.49,1.53,2.1.57.53-.84.78-1.81,1.41-2.6.62-.78,1.37-1.48,2.23-1.98.86-.5.29-1.83-.67-1.59h0Z"/>
          <path class="cls-1" d="M39.16,22.5s0,.02,0,.04c.03.12.08.23.17.32.07.1.15.18.26.24l.22.09c.17.04.33.04.5,0,.01,0,.02,0,.03-.01l.23-.1.2-.15c.09-.09.16-.19.2-.31.04-.08.07-.16.07-.25.02-.09.02-.17,0-.26,0-.09-.02-.17-.07-.25-.02-.08-.06-.15-.12-.21-.07-.11-.16-.19-.27-.25l-.23-.1-.26-.03-.26.03-.23.1-.2.15c-.09.09-.16.19-.2.31-.04.08-.07.16-.07.25-.03.13-.02.26.02.39h0Z"/>
          <path class="cls-1" d="M41.9,31.43c-.24.11-.07.03-.01.02.05-.01.11-.02.16-.03l-.25.03c.12-.01.24-.03.36-.05l-.25.03c.16-.02.3-.04.45-.09.33-.12.56-.35.61-.71s-.12-.66-.41-.85c-.51-.33-1.1-.19-1.6.05-.44.21-.59.87-.33,1.26.13.2.32.37.55.42.26.06.47.01.71-.09h0Z"/>
          <path class="cls-3" d="M42.67,53.9c.21,0,.42,0,.62,0,.38,0,.64-.09.94-.33.32-.26.32-.92,0-1.17-.3-.24-.56-.33-.94-.33-.21,0-.42,0-.62,0-.48,0-.93.42-.91.91s.4.91.91.91h0Z"/>
          <path class="cls-3" d="M42.6,50.85c.62.03,1.3.07,1.69-.51l-.25.25c.09-.06.17-.12.25-.2.22-.21.22-.61,0-.83-.08-.07-.16-.14-.25-.2l.25.25c-.39-.59-1.07-.54-1.69-.51-.45.02-.89.38-.87.87s.38.84.87.87h0Z"/>
          <path class="cls-1" d="M38.58,61.01c-1.55,1.45-1.66,3.57-1.75,5.59-.08,1.74-.31,4.68,1.47,5.68.28.16.63.11.86-.11,1.12-1.08.78-2.88.74-4.3-.03-1.51-.46-4.22.46-5.49.78-1.08-.88-2.22-1.78-1.37h0Z"/>
          <path class="cls-1" d="M38.23,89.44c.08.54.14,1.11.54,1.51.42.43,1.09.29,1.4-.18s.24-1.09.21-1.63c-.03-.66-.57-1.17-1.25-1.08-.3.04-.53.18-.72.41-.23.3-.25.6-.2.96h0Z"/>
          <path class="cls-3" d="M61.4,91.12l.21-.07c.16-.06.3-.2.29-.39,0-.07-.02-.14-.05-.2-.05-.09-.15-.15-.24-.18l-.21-.07c-.15-.05-.35,0-.46.12-.09.09-.14.21-.14.34,0,.12.05.25.14.34.11.11.31.18.46.12h0Z"/>
          <path class="cls-3" d="M63.71,76.02h.2c.09,0,.19,0,.27-.03.13-.04.24-.1.33-.2.04-.05.09-.11.13-.16.14-.19.14-.55,0-.74-.04-.06-.08-.11-.13-.16-.09-.09-.21-.16-.33-.2-.08-.02-.18-.03-.27-.03h-.2c-.2,0-.4.08-.54.22s-.23.35-.22.54.07.4.22.54.33.22.54.22h0Z"/>
          <path class="cls-3" d="M63.82,73.25c1,0,1-1.55,0-1.55s-1,1.55,0,1.55h0Z"/>
          <path class="cls-3" d="M59.47,30.99c.16.08.35.19.53.17.11,0,.22-.03.32-.09.1-.06.17-.13.23-.23.11-.19.12-.45,0-.64-.08-.13-.18-.21-.3-.28l-.11-.06c-.15-.08-.33-.11-.5-.07-.15.04-.32.16-.39.3-.08.15-.12.33-.07.5.05.15.15.32.3.39h0Z"/>
          <path class="cls-3" d="M62.78,24.25c.95,0,.95-1.48,0-1.48s-.95,1.48,0,1.48h0Z"/>
        </g>
        <path class="cls-3" d="M36.4,27.99c5.15.42,9.72.17,14.88.27,2.53.05,5.06.04,7.58.04,2.31,0,5.64.23,7.4-.43.69-.26,1.08-.99.57-1.12-2.14-.55-5.43-.34-7.63-.34-2.64,0-5.29-.01-7.93.04-5.16.11-10.84.39-16,.39-.27,0,.39,1.08,1.12,1.14h0Z"/>
        <path class="cls-3" d="M40.59,35.05c2.92.75,12.99.41,15.15.35,1.63-.05,3.12.05,4.72-.31.8-.18,1.66-1.24.89-1.27-3.72-.17-7.95.27-11.69.23-2.96-.03-7.01.12-9.96-.23-.7-.08.23,1.06.89,1.23h0Z"/>
        <path class="cls-3" d="M36.04,56.68c1.98.35,4.99.29,7,.3,2.35.02,4.7-.02,7.06-.04,4.54-.04,10.38-.1,14.91-.24.89-.03-.57-1.33-1.46-1.29-4.54.21-8.91.22-13.45.16-2.35-.03-4.7-.09-7.06-.1-2,0-3.67-.2-5.64.18-.56.11-1.36,1.04-1.36,1.04Z"/>
      </g>
    </g>
  </g>
</svg>