<?xml version="1.0" encoding="UTF-8"?>
<svg id="Capa_2" data-name="Capa 2" xmlns="http://www.w3.org/2000/svg" viewBox="0 0 100 100">
  <defs>
    <style>
      .cls-1 {
        fill: none;
      }

      .cls-2 {
        fill: #83a04e;
      }

      .cls-3 {
        fill: #4a2d2d;
      }
    </style>
  </defs>
  <g id="COLOR">
    <g>
      <rect class="cls-1" width="100" height="100"/>
      <g>
        <g>
          <path class="cls-2" d="M89.75,25.84c-1.14-1.59-5.7-.91-7.21-.71-3.4.45-6.75,1.51-9.94,2.77-2.86,1.12-5.62,2.48-8.25,4.05-1.71,1.02-3.84,2.18-5.52,3.59,0-.03.02-.05.02-.08.36-7,2.52-13.66,4.58-20.3.66-2.14,4.37-11.42.15-11.89-1.91-.21-2.53,2.02-2.93,3.48-.9,3.31-1.6,6.67-2.14,10.06-.5,3.16-.83,6.34-1.03,9.53-.2,3.18-.48,6.51-.02,9.68.03.23.23.35.44.37-.31.32-.6.65-.84.99-.24.33.16.88.55.72.32-.13.64-.29.95-.46-.89.73-1.74,1.51-2.51,2.36-.32.35.16.82.51.51,5.78-4.94,12.27-7.94,19.69-9.59,1.43-.32,15.6-2.12,13.47-5.09Z"/>
          <path class="cls-2" d="M49.89,51.29c-.02.08-.04.16-.06.24-.06.22.08.41.27.49.08.06.18.08.29.05,3.07-.85,6.25-1.44,9.28-2.44,2.54-.84,5.01-2.1,7.31-3.44,1.86-1.08,3.58-2.37,5.02-3.96,1.2-1.33,3.48-3.67,3.67-5.5.16-1.54-1.13-2.23-2.45-1.77-2.43.84-4.55,3.76-6.52,5.33-2.58,2.07-5.35,3.88-8.24,5.5-2.22,1.24-4.67,2.2-6.92,3.42.25-.79.46-1.59.63-2.39,1.79-5.02,2.81-10.35,3.12-15.65.19-3.18.09-6.39-.28-9.55-.27-2.39-.44-4.94-2.18-6.76-.23-.24-.67-.13-.75.2-2.64,11.52.59,23.41-1.92,34.96-.13.08-.26.16-.39.24-.42.28-.3.89.09,1.04Z"/>
          <path class="cls-2" d="M45.48,35.52c.15,4-.04,6.04.03,11.25.04,3.25.14,8.09.77,10.84-.05.3-.84.26-.89.56-.06.38.49.55.59.16.02-.07.03-.15.05-.22.34.1.78-.29.73-.7-.08-.56-.13-1.12-.17-1.67,1.48-6.58,2.53-13.39,2.87-20.1.19-3.84.1-7.67-.42-11.48-.19-1.41-.47-6.01-2.78-6.06-2.08-.04-1.79,4.62-1.73,5.76.2,3.9.81,7.76.95,11.67Z"/>
          <path class="cls-2" d="M41.35,39.63c1.1,3.72,1.45,7.33,1.78,11.17.05.6.75.71.86.02.06-.38.1-.76.14-1.15,1.29-5.97.12-12.72-1.29-18.51-.74-3.02-1.44-6.28-2.81-9.09-.54-1.1-1.41-2.77-2.67-3.16-4.53-1.39.34,9.95.73,11.03,1.15,3.2,2.31,6.41,3.28,9.68Z"/>
          <path class="cls-2" d="M80.14,47.31c-3.94,0-7.85.65-11.66,1.63-6.83,1.76-14.5,4.03-20.41,8.14-.87.57-1.68,1.18-2.42,1.87-.44.41.12.97.59.77,3.84-1.69,7.35-3.72,11.42-4.92,4.27-1.26,8.7-1.93,13.13-2.29,4.09-.34,8.23-.16,12.29-.66,1.44-.18,4.64-.83,3.17-3.03-1.15-1.72-4.43-1.49-6.11-1.49Z"/>
          <path class="cls-2" d="M73.66,63.56c-1.84-.31-3.71-.47-5.58-.51-3.75-.08-7.52.31-11.22.93-7.04,1.18-13.96,3.41-20.24,6.81-.03.01-.06.03-.09.04.17-.59.21-1.18.21-1.8,1.01-2.68,1.34-5.45,1.63-8.39.24-2.37.42-4.76.54-7.14.18.22.36.43.53.65.98,1.25,1.94,2.57,2.6,4.02.35.76.54,1.54.69,2.32.08.47.15.95.22,1.43.01.07.04.12.08.16.03.17.07.34.11.51.03.15.17.24.31.27,0,0,0,0,0,0-.1.08-.21.16-.31.25-.44.39.12.99.59.77,5.69-2.68,12.9-2.52,19.1-2.6,1.27-.02,11.41,1.06,9.78-2.56-.65-1.44-3.32-2.03-4.65-2.21-2.69-.36-5.49.07-8.15.52-4.74.8-9.33,2.27-13.66,4.34-.79.29-1.55.66-2.23,1.13.8-1.98.15-4.14-.93-6.08-.72-2.83-1.97-5.57-3.46-7.98-.15-.24-.3-.48-.46-.72.04-3.32.03-6.67-.72-9.92-.47-2.03-1.31-7.19-3.56-8.18-2.39-1.05-2.08,2.85-2.06,4.01.05,2.64.41,5.27.78,7.9-1-.83-2.17-1.61-3.3-1.57-1.19.04-2.05.98-1.73,2.16.28,1.06,1.5,1.86,2.24,2.56,1.01.95,2,1.92,2.95,2.93.22.23.44.47.67.71.32,3.22.56,6.44.71,9.67.1,2.16.15,4.32.2,6.48.05,1.86.3,3.87.09,5.76-.05.14-.1.28-.15.42-.04.11-.02.21.04.29-.02.11-.03.22-.06.33-.02.11,0,.21.02.3,0,0,0,0-.01,0-.17.1-.23.25-.22.39-.12.15-.22.32-.31.49-.25.55.35,1.01.82.63,1.57-1.26,4.04-1.49,5.95-1.92,2.06-.47,4.13-.88,6.21-1.24,4.12-.7,8.28-1.18,12.45-1.48,4.32-.31,8.72-.38,13.02-.98,1.11-.16,4.57-.74,3.65-2.58-.5-1-2.2-1.18-3.12-1.34Z"/>
          <path class="cls-2" d="M28.3,79.18c-.06.1-.12.21-.19.31-.01.02-.02.04-.02.06-.06.1-.11.2-.17.3-.27.45.19.85.59.75-.2.28-.02.79.37.76,2.72-.27,5.35-.8,8.11-.85,2.82-.04,5.64.11,8.46.1,1.57,0,7.78.69,8-1.86.3-3.37-7.01-2.29-8.6-2.15-4.89.42-9.78,1.42-14.38,3.16-.58.17-1.15.39-1.68.65,0-.01.02-.02.03-.03.1-.14.19-.29.28-.43,1.06-.81,1.6-2.08,1.86-3.49,1.38-3.17,2.14-6.61,2.41-10.04.19-2.36.14-4.76-.16-7.11-.23-1.79-.56-4.21-2.14-5.38-3.79-2.8-1.9,6.98-1.78,8.1.31,2.91.48,5.84.46,8.76-.02,2.72.06,5.47-1.17,7.9-.09.16-.18.33-.27.49Z"/>
          <path class="cls-2" d="M24.82,73.67c.36,3.34.86,6.85.02,10.15-.16.62.8,1.08,1.07.45.17-.38.3-.78.42-1.18,1.13-1.98,1.24-4.44,1.45-6.67.33-3.34.44-6.71.13-10.06-.28-3.12-.9-6.22-1.74-9.24-.51-1.85-1.15-4.65-3.29-5.3-4.68-1.42-.35,9.62,0,11.02.87,3.56,1.54,7.18,1.93,10.83Z"/>
          <path class="cls-2" d="M23.09,77.31c-.79-3.21-2.35-8.44-5.66-9.97-3.52-1.63-1.52,3.93-.86,5.12,1.29,2.33,2.51,4.64,3.34,7.19.77,2.38,1.7,5.08,1.2,7.59-.09.17-.17.34-.27.51-.23.4.36.9.66.51.02-.03.04-.05.05-.08.14-.01.27-.08.37-.22.25-.37.42-.78.52-1.21,1.47-2.87,1.42-6.31.65-9.44Z"/>
          <path class="cls-2" d="M67.26,70.13c-4.05-.22-8.17.26-12.19.71-5.43.61-10.79,1.59-15.93,3.3-2.8.68-5.5,1.69-8.06,3.14-.44.25-.14,1.04.36.85,7.86-3.08,15.83-3.96,24.23-3.85,4.43.06,8.86.26,13.29.2,1.24-.02,6.26.57,5.64-2.08-.5-2.13-5.65-2.17-7.34-2.27Z"/>
          <path class="cls-2" d="M55.69,84.19c-2.62-1.01-5.39-1.57-8.18-1.82-5.52-.5-11,.18-16.41,1.29-.12.03-.2.09-.26.16-.4.25-.17.97.34,1.01,3.45.28,6.85-.21,10.3.41,2.84.5,5.57,1.49,8.31,2.37,1.52.49,11.83,4.25,10.37-.16-.61-1.84-2.82-2.64-4.46-3.27Z"/>
          <path class="cls-2" d="M46.14,90.87c-2.22-1.17-4.61-2.03-7.05-2.62-4.82-1.16-9.84-1.15-14.73-.42-.2,0-.4,0-.6,0-.69.03-.91,1.1-.17,1.26,2.96.62,5.88.94,8.78,1.87,2.64.85,5.22,1.89,7.78,2.95,1.44.6,11.21,5.43,9.81.6-.51-1.76-2.31-2.84-3.83-3.65Z"/>
        </g>
        <path class="cls-3" d="M65.61,61.85h.16s.05-.01.08-.02h.04s.06,0,.09-.01c.04-.01.1-.04.13-.08.03-.02.05-.05.06-.09.02-.03.02-.07.02-.1v-.07s-.05-.09-.08-.12c0-.01-.02-.02-.03-.03-.03-.02-.06-.04-.09-.05-.03,0-.06,0-.08-.01h-.04s-.05,0-.08,0h-.16s-.08,0-.11.01c-.04.01-.07.03-.1.06-.03.03-.05.06-.06.1-.02.04-.03.07-.03.11,0,.08.03.16.09.21s.13.09.21.09h0Z"/>
        <path class="cls-3" d="M29.51,54.05l.09-.05h.02s0-.02.01-.02c.03-.01.05-.03.06-.06,0,0,.01-.02.02-.03,0-.01.01-.03.02-.04.02-.03.03-.06.03-.1,0-.03,0-.05-.02-.07,0-.02-.02-.04-.04-.06-.02-.02-.05-.04-.09-.05-.01,0-.03,0-.04,0-.04,0-.08-.02-.12,0,0,0,0,0-.01,0h-.02s-.06.04-.09.05c-.04.01-.08.03-.1.06l-.04.05s-.03.08-.03.12c0,.03,0,.06.02.09,0,.03.03.05.05.08.02.02.05.04.08.05.03.01.06.02.09.02.04,0,.08-.01.12-.03h0Z"/>
        <path class="cls-3" d="M75.4,36.34c-.23.83-.54,1.66-1.01,2.38-.49.75-1.08,1.44-1.68,2.11-1.25,1.38-2.65,2.63-4.16,3.72-3.22,2.33-6.85,4-10.64,5.19-1.98.62-3.99,1.12-6.01,1.6.33-.56.67-1.11.99-1.67,3.3-5.75,6.11-11.76,9.54-17.44,3.63-6.03,8.07-11.27,13.48-15.77.49-.4-.13-1.12-.65-.84-7.88,4.2-13.12,11.85-17.58,19.68.06-1.83.06-3.65.16-5.48.12-2.32.3-4.64.54-6.95.49-4.62,1.29-9.19,2.24-13.74.21-1.01.43-2.02.82-2.98.19-.47.43-.94.72-1.35.31-.44.71-.79,1.07-1.18.21-.22-.05-.52-.31-.4-1.59.7-2.34,2.86-2.78,4.39-.64,2.2-1.08,4.46-1.49,6.71-.85,4.71-1.44,9.49-1.66,14.28-.12,2.64-.24,5.34-.03,7.97-1.46,2.61-2.85,5.22-4.22,7.71-2.09,3.77-4.29,7.48-6.59,11.11,0-.55-.02-1.1-.04-1.65-.05-1.3-.09-2.6-.13-3.9-.08-2.53-.09-5.06-.16-7.6-.14-5.1-.3-10.2-.47-15.3-.05-1.38-.1-2.76-.13-4.13-.03-1.34.12-2.55.52-3.83.1-.31-.35-.48-.52-.22-.56.89-.67,2.01-.71,3.04-.04,1.22.03,2.44.06,3.66.07,2.6.12,5.2.19,7.81.12,5.13.26,10.27.49,15.4.07,1.47.09,2.95.11,4.43.01.7,0,1.41.05,2.11.02.41.03.82.06,1.24-.78,1.21-1.57,2.41-2.38,3.6-.37-1.12-.95-2.2-1.48-3.21-.76-1.44-1.63-2.81-2.61-4.11-.97-1.29-2.02-2.51-3.16-3.64-1.13-1.13-2.37-2.11-3.6-3.13-1.38-1.15-2.6-2.38-3.44-3.98-.14-.26-.57-.08-.48.2.9,2.93,3.86,4.73,5.97,6.72,2.38,2.25,4.36,4.86,5.99,7.7.46.81.89,1.63,1.28,2.47.3.64.55,1.3.87,1.93-3.47,5.05-7.18,9.93-11.2,14.58-.55.63-1.11,1.26-1.67,1.89.03-.13.06-.26.09-.39.21-.98.38-1.98.51-2.97.27-2.08.34-4.17.3-6.27-.04-2.11-.2-4.22-.41-6.32-.11-1.06-.29-2.1-.43-3.15-.13-1.02-.26-2.01-.51-3.01-.07-.27-.5-.22-.5.07.01,1.06.16,2.08.29,3.14.12.98.18,1.97.28,2.96.22,2.04.39,4.08.46,6.12.07,2.03.02,4.05-.15,6.07-.08,1.01-.21,2.01-.38,3.01-.1.56-.22,1.11-.35,1.66-2.33,2.61-4.72,5.17-7.17,7.68.18-1.21-.1-2.58-.35-3.72-.33-1.5-.82-2.96-1.39-4.38-1.15-2.86-2.55-5.66-4.1-8.31-.1-.18-.41-.06-.34.14.97,2.86,2.53,5.49,3.67,8.28.55,1.36,1.03,2.75,1.37,4.19.16.7.28,1.4.39,2.11.12.71.14,1.45.31,2.15-1.59,1.62-3.2,3.21-4.84,4.77-.84.8.4,2,1.26,1.26,9.45-8.08,17.69-17.22,25.1-27.2.34-.46.67-.93,1-1.4,2.95-1.04,6-1.8,9.1-2.19,1.73-.22,3.47-.34,5.21-.36.87,0,1.74-.01,2.61.05.83.06,1.76.27,2.58.12.31-.06.23-.45,0-.54-.76-.31-1.77-.24-2.58-.26-.9-.02-1.81-.05-2.71-.03-1.77.04-3.54.19-5.29.45-2.93.44-5.78,1.2-8.54,2.24,2.69-3.74,5.2-7.6,7.56-11.56,7.91-1.16,16.1-4.34,21.6-10.31.69-.75,1.38-1.54,1.93-2.41.54-.85.84-1.72.89-2.72.02-.35-.51-.41-.6-.08Z"/>
        <path class="cls-3" d="M30.61,84.71c1.6,1.02,3.74.89,5.57.82,2.03-.08,4.04-.22,6.05.18,1.99.4,3.9,1.14,5.8,1.84s4.01,1.32,6.08,1.75c1.08.22,2.2.47,3.31.53.82.04,1.82-.15,2.39-.78.09-.1,0-.3-.14-.24-.83.32-1.59.26-2.46.13-.99-.15-1.98-.32-2.96-.53-1.97-.41-3.91-.96-5.82-1.6-1.83-.61-3.63-1.34-5.52-1.76-1.89-.42-3.76-.41-5.68-.28-1.06.07-2.13.14-3.2.11s-2.21-.25-3.3-.43c-.16-.03-.25.17-.11.26h0Z"/>
        <path class="cls-3" d="M32.72,77.73c1.18-.42,2.39-.75,3.6-1.07.61-.16,1.22-.3,1.83-.44.56-.13,1.21-.18,1.71-.47.1-.05.09-.23-.03-.25-.59-.09-1.24.12-1.81.24-.61.14-1.22.31-1.82.49-1.21.36-2.39.83-3.56,1.32-.1.04-.03.22.08.18h0Z"/>
        <path class="cls-3" d="M42.19,75.37l.14-.06s.07-.05.1-.08c.03-.03.05-.06.07-.09.02-.04.03-.1.02-.14-.01-.04-.04-.09-.09-.11h-.02s0-.01,0-.01c-.03-.02-.07-.03-.11-.03,0,0-.01,0-.02,0h-.04s-.06,0-.1,0c-.05.01-.1.02-.15.03-.05.01-.09.04-.12.07l-.04.06s-.04.09-.04.14c0,.04,0,.07.02.11.01.03.03.06.06.09.03.03.05.05.09.06.03.02.07.03.11.02.05,0,.1-.01.14-.04h0Z"/>
        <path class="cls-3" d="M47.71,74.63c1.68-.24,3.41-.28,5.1-.32,1.66-.04,3.32.01,4.98.1,3.36.18,6.72.43,10.09.45.93,0,1.86,0,2.78-.05.75-.04,1.86.04,2.46-.47.12-.1.09-.34-.05-.4-.64-.31-1.53-.06-2.21,0-.86.08-1.72.12-2.58.15-1.67.04-3.33-.01-4.99-.09-3.36-.16-6.71-.41-10.08-.29-1.89.07-3.7.35-5.55.77-.11.03-.06.19.05.17h0Z"/>
      </g>
    </g>
  </g>
</svg>