<?xml version="1.0" encoding="UTF-8"?>
<svg id="Capa_2" data-name="Capa 2" xmlns="http://www.w3.org/2000/svg" viewBox="0 0 100 100">
  <defs>
    <style>
      .cls-1 {
        fill: none;
      }

      .cls-2 {
        fill: #ef2b45;
      }

      .cls-3 {
        fill: #4a2d2d;
      }

      .cls-4 {
        fill: #c38fd0;
      }
    </style>
  </defs>
  <g id="COLOR">
    <g>
      <rect class="cls-1" width="100" height="100"/>
      <g>
        <path class="cls-2" d="M79.77,16.72c-3.98.06-8.19,3.18-10.97,5.79-3.1,2.91-6.43,7.05-7.89,11.08-.21.59.62.83.94.4,1.25-1.72,2.13-3.7,3.34-5.45,1.25-1.8,2.65-3.45,4.24-4.96,1.51-1.44,3.19-2.69,5-3.71s3.73-1.47,5.55-2.33c.4-.19.19-.81-.22-.8h0Z"/>
        <path class="cls-2" d="M67.29,10.36c-2.59,3.17-5.35,6.2-7.92,9.37-.33.4.16.88.56.56,3.16-2.51,5.94-5.97,8.08-9.38.27-.43-.39-.97-.72-.56h0Z"/>
        <path class="cls-2" d="M62.36,1.55c-5.24,2.07-9.64,5.1-12.77,9.85-1.59,2.41-2.81,5.05-3.76,7.77-.54,1.56-.98,3.14-1.37,4.74-.37,1.51-.91,3.07-.91,4.63,0,.43.64.64.85.23,1.18-2.38,1.56-5.34,2.38-7.88.9-2.78,1.96-5.51,3.44-8.03,2.9-4.94,7.26-8.31,12.46-10.58.41-.18.11-.9-.31-.73h0Z"/>
        <path class="cls-4" d="M29.97,51.94s-3.27-7.12-3.77-15.17c-.5-8.05,2.26-16.93,5.11-22.63,2.85-5.7,5.61-9.05,6.87-8.05,1.26,1.01,4.86,12.91,4.86,16.93s-.42,5.2-.42,5.2c0,0,5.87-4.86,9.47-7.63,3.6-2.77,5.36-4.27,6.37-3.77,1.01.5.08,6.45-.34,10.89s-1.01,7.12-1.01,7.12c0,0,4.94-1.26,10.48-2.68,5.53-1.42,9.22-2.93,10.06-2.1.84.84-3.44,12.49-11.82,18.52-8.38,6.03-22.96,6.45-22.96,6.45,0,0-9.22,5.28-10.64,5.2-1.42-.08-2.26-8.3-2.26-8.3Z"/>
        <g>
          <path class="cls-1" d="M57.2,17.32c.14.06.07-.1-.08-.35-3.63,2.78-7.27,5.54-10.88,8.34-2.89,3.05-5.68,6.2-8.31,9.45-2.76,3.41-4.64,6.99-5.8,11.28-1.19,4.39-.7,8.75,1.01,12.9,6.86-3.47,14.14-8.29,18.03-15.02,1.98-3.43,5.27-7.73,6.49-11.67.26-1.42.44-2.84.57-4.27-.05-3.53-1.13-6.9-1.03-10.65Z"/>
          <path class="cls-3" d="M33.33,59.38c-.06-.15-.12-.3-.19-.45-.21.1-.41.21-.62.31-.25.12-.5.36-.7.62.05.1.1.2.16.3.5.9,1.74.11,1.35-.79Z"/>
        </g>
        <path class="cls-3" d="M64.25,41.19c-2.69,1.58-5.52,2.94-8.42,4.1-1.26.5-2.56.92-3.86,1.36.39-.54.75-1.08,1.08-1.64,2.22-3.76,3.69-8.08,4.52-12.36,0,0,0,0,0,0-.02,0-.03-.02-.04-.02-1.3,3.84-3.63,8.12-6.48,12.23-4.42,6.36-11,10.58-17.84,14.04,1.55-3.29,3.26-6.51,5.14-9.62,1.36-2.26,2.84-4.45,4.4-6.58,1.62-2.2,3.64-4.15,5.12-6.44.44-.68-.51-1.31-1.07-.82-1.99,1.73-3.54,4.17-5.12,6.27-1.71,2.28-3.33,4.64-4.86,7.04-1.64,2.56-3.14,5.19-4.53,7.88-1.12-3.44-1.54-6.98-.57-10.56,1.16-4.28,3.05-7.87,5.8-11.28,1.62-2.01,4.49-5.1,6.42-7.16.07-.11.15-.22.21-.33.18-.28.37-.55.55-.82-3.37,2.68-6.72,5.63-9.35,9-.51.65-.98,1.33-1.43,2.03-.02-.09-.05-.18-.06-.27-.39-1.86-.62-3.77-.52-5.67.21-3.67.64-7.31,1.76-10.81.2-.63-.73-.85-.97-.27-1.47,3.54-2.02,7.28-1.66,11.08.18,1.93.32,3.87.42,5.8.03.55.06,1.11.11,1.67-3.4,6.01-4.61,13.23-1.76,19.66-.74,1.51-1.45,3.04-2.11,4.59-2.1,4.93-3.91,10.01-5.22,15.21-.7,2.78-1.28,5.59-1.71,8.43-.44,2.9-1.32,6.36-.82,9.26.19,1.09,1.65.84,1.96,0,.5-1.33.5-2.84.67-4.25.2-1.69.44-3.38.71-5.07.42-2.6.9-5.18,1.49-7.74,1.22-5.25,2.77-10.4,4.82-15.39.4-.97.82-1.93,1.25-2.89,6.21-2.74,13.39-6.87,18.09-12.23,2.05-.47,4.07-1.31,5.95-2.13,2.93-1.27,5.68-2.81,8.37-4.53.5-.32.05-1.09-.46-.79ZM32.44,60.55c.23-.52.48-1.04.72-1.55.05.13.1.26.16.39.3.68-.34,1.29-.88,1.17Z"/>
        <path class="cls-2" d="M54.38,69.82c-1.74,4.3-1.24,9.41,1.23,13.34,1.95,3.1,6.1,6.87,10.06,6.51.49-.05.76-.71.27-.99-1.47-.83-3.14-1.22-4.6-2.1-1.75-1.06-3.29-2.46-4.44-4.17-2.47-3.68-2.78-8.14-1.57-12.32.18-.62-.72-.83-.95-.26h0Z"/>
        <path class="cls-2" d="M44.11,82.5c.4,2.86,1.92,5.3,3.9,7.35,1.81,1.87,3.96,3.82,6.23,5.12,2.44,1.4,5.41,2.11,8.14,2.66s6.09,1.06,8.61-.23c.5-.26.25-1.03-.28-1.03-1.36,0-2.68.3-4.04.27s-2.84-.23-4.23-.53c-2.49-.53-5.23-1.17-7.46-2.42-2-1.12-3.87-2.84-5.55-4.39-2.12-1.97-3.84-4.17-4.38-7.07-.12-.63-1.03-.35-.94.26h0Z"/>
        <path class="cls-2" d="M60.69,76.74c4.25,1.19,8.07,3.56,11.28,6.56s5.53,6.47,8.28,9.77c.36.44,1-.12.76-.58-4-7.74-11.36-14.83-20.05-16.7-.62-.13-.88.78-.26.95h0Z"/>
        <path class="cls-2" d="M67.79,73.57c4.12-.79,8.46.35,12.43,1.47,3.75,1.06,6.17,3.18,8.88,5.83.4.39.94-.1.73-.56-1.57-3.55-5.34-5.58-8.91-6.59-4.31-1.22-9-2.3-13.44-1.27-.73.17-.42,1.26.31,1.12h0Z"/>
        <path class="cls-2" d="M62.04,69.03c3.52-1.4,7.19-2.44,10.97-2.81,3.7-.36,7.17.2,10.84.37.69.03.76-.95.16-1.15-3.5-1.19-7.8-1-11.41-.55-3.81.48-7.48,1.53-10.93,3.23-.5.25-.14,1.12.38.91h0Z"/>
      </g>
    </g>
  </g>
</svg>