<?xml version="1.0" encoding="UTF-8"?>
<svg id="Capa_2" data-name="Capa 2" xmlns="http://www.w3.org/2000/svg" viewBox="0 0 100 100">
  <defs>
    <style>
      .cls-1 {
        fill: #6e5757;
      }

      .cls-2 {
        fill: #fff;
      }

      .cls-3 {
        fill: none;
      }

      .cls-4 {
        fill: #a0bcdb;
      }

      .cls-5 {
        fill: #4a2d2d;
      }
    </style>
  </defs>
  <g id="COLOR">
    <g>
      <rect class="cls-3" width="100" height="100"/>
      <g>
        <path class="cls-4" d="M64.74,66.47c-1.2-2.67-2.44-5.39-3.88-7.96-1.58-4.09-5.19-8.2-9.56-8.04-4.29-.07-7.85,3.99-9.42,8.04-1.44,2.58-2.68,5.29-3.88,7.97-2.17,4.84-6.4,12.83-2.01,17.68,1.99,2.2,6.18,2.28,8.94,2.58,2.02.23,4.25.47,6.44.44,2.19.03,4.41-.21,6.44-.44,2.67-.3,6.75-.38,8.76-2.38,4.72-4.71.34-13.07-1.83-17.88Z"/>
        <path class="cls-5" d="M77.61,64.17c-.72-4.37-2.96-8.71-4.84-12.69-2.14-4.54-4.63-8.91-6.84-13.42-.38-.78-1.52-.1-1.16.68,1.96,4.14,3.52,8.44,5.26,12.67,1.67,4.08,3.79,8.11,4.92,12.38,1.21,4.57-1.1,9.07-3,13.14-1.78,3.81-4.11,7.38-5.69,11.27-2.22.54-4.47,1-6.76,1.18-8,.61-16.04.61-23.87-1.19-1.54-3.78-3.79-7.25-5.53-10.93-1.96-4.15-4.39-8.8-3.15-13.47,1.1-4.15,3.16-8.07,4.78-12.04,1.78-4.35,3.39-8.77,5.4-13.02.37-.77-.78-1.45-1.16-.68-2.16,4.4-4.58,8.66-6.68,13.08-1.93,4.08-4.25,8.54-5,13.03-.72,4.35.57,8.65,2.21,12.65,1.75,4.27,3.52,9.2,6.28,12.92.32.43,8.61,2.16,11.72,2.46,4.53.44,9.12.35,13.64-.07,3.06-.29,10.03-1.96,10.35-2.39,2.73-3.68,5.05-8.53,6.81-12.74,1.69-4.05,3.02-8.42,2.29-12.84Z"/>
        <path class="cls-4" d="M50.27,11.86c-8.88.81-13.53,8.91-15.17,16.88.47-.02,32.18.37,32.42.37-.09-.41-.37-1.64-.48-2.06-2.07-7.8-8.25-15.97-16.77-15.19Z"/>
        <path class="cls-1" d="M72.28,32.65c-.2-1.05-.3-2.46-.75-3.43-.82-1.76-3.69-1.31-5.24-1.42-10.17-.72-20.47-.72-30.65,0-1.56.11-4.42-.34-5.24,1.42-.42.91-.46,2.14-.67,3.1-.24,1.1-.4,2.21-.32,3.34.12,1.7,1.09,2.54,2.75,2.81,2.4.39,4.93.27,7.35.3,7.65.09,15.26.09,22.91,0,2.43-.03,4.95.09,7.35-.3,1.68-.27,2.6-1.12,2.75-2.81.09-1-.05-2.03-.24-3.02Z"/>
        <path class="cls-5" d="M45.71,22.56c.27.01.52-.05.75-.17.24-.08.45-.21.63-.4.19-.18.33-.39.4-.63.12-.23.18-.48.17-.75l-.07-.52c-.09-.33-.26-.62-.5-.86l-.4-.31c-.31-.18-.63-.27-.99-.27-.27-.01-.52.05-.75.17-.24.08-.45.21-.63.4-.19.18-.33.39-.4.63-.12.23-.18.48-.17.75l.07.52c.09.33.26.62.5.86l.4.31c.31.18.63.27.99.27h0Z"/>
        <path class="cls-5" d="M51.89,15.53h-.02s0-.01,0-.01c-.11-.06-.23-.11-.35-.15l-.39-.05-.39.05c-.12.04-.24.09-.35.15,0,0,0,0,0,0,0,0-.01,0-.02,0l-.3.23-.23.3c-.11.17-.17.36-.18.56-.04.2-.04.4.03.6l.15.36.23.3c.14.15.3.25.48.31.12.07.24.1.38.1.2.04.4.04.6-.03l.36-.15c.17-.09.32-.22.42-.39.09-.09.16-.2.19-.33.09-.18.14-.37.13-.58l-.05-.4-.15-.36c-.13-.23-.31-.4-.54-.54h0Z"/>
        <path class="cls-5" d="M55.76,22.93c.27.01.53-.05.77-.17.25-.08.46-.22.64-.41.19-.18.33-.39.41-.64.12-.24.18-.49.17-.77l-.07-.53c-.09-.34-.27-.63-.51-.88l-.4-.31c-.31-.18-.65-.27-1.01-.27-.27-.01-.53.05-.77.17-.25.08-.46.22-.64.41-.19.18-.33.39-.41.64-.12.24-.18.49-.17.77l.07.53c.09.34.27.63.51.88l.4.31c.31.18.65.27,1.01.27h0Z"/>
        <path class="cls-2" d="M55.88,82.12c.36,0,.73-.16.98-.41s.42-.64.41-.98-.13-.73-.41-.98-.61-.41-.98-.41c-.36,0-.73.16-.98.41s-.42.64-.41.98.13.73.41.98.61.41.98.41h0Z"/>
        <path class="cls-2" d="M60.88,75.95c.32,0,.66-.14.89-.37s.38-.57.37-.89-.12-.66-.37-.89-.55-.37-.89-.37c-.32,0-.66.14-.89.37s-.38.57-.37.89.12.66.37.89.55.37.89.37h0Z"/>
        <path class="cls-2" d="M63.08,80.9s0,0,0,0l-.29.12s0,0,0,0l-.33.04s0,0,0,0l-.33-.04s0,0,0,0l-.29-.12s0,0,.01,0l-.25-.19s0,0,0,0c.3.31.77.42,1.18.31.2-.06.38-.16.53-.31.15-.15.25-.33.31-.53.01-.05.02-.18.02-.17,0-.07.02-.11.02-.17,0-.21-.07-.45-.17-.63-.05-.09-.12-.18-.2-.26-.19-.19-.31-.23-.56-.32-.22-.06-.44-.06-.66,0-.21.06-.39.17-.55.32-.15.15-.26.34-.32.55-.05.16-.06.33-.02.49,0,.16.06.32.15.46.11.19.26.33.44.44.19.11.4.17.63.17.22,0,.43-.06.63-.17h0Z"/>
        <path class="cls-2" d="M37.08,34.53c.36-.47.61-1.08.87-1.61.25-.51.69-1.25.48-1.81-.09-.23-.27-.5-.54-.54-.83-.13-1.49.55-1.94,1.18s-.82,1.44-.86,2.24c-.02.46.34.9.78,1.02.49.13.91-.11,1.2-.49h0Z"/>
        <path class="cls-2" d="M40.13,34.1c.42-.66.99-1.33,1-2.14,0-.55-.59-.85-1.05-.61-.71.38-1.04,1.22-1.42,1.89-.55.96.88,1.79,1.48.86h0Z"/>
        <path class="cls-2" d="M44.56,34.25c.26-.33.47-.64.58-1.05.05-.17.09-.37.09-.55,0-.25-.1-.47-.2-.69-.21-.45-.9-.49-1.21-.16-.18.19-.31.39-.45.61-.05.09-.12.17-.17.25-.02.02-.12.15-.03.05.1-.11-.07.07-.07.07-.37.39-.42,1.07,0,1.46.37.34,1.1.45,1.46,0h0Z"/>
        <path class="cls-5" d="M28.03,67.83c4.98,1.98,11.01,3.27,16.36,2.21.73-.14.5-1.17-.17-1.23-2.76-.21-5.48-.16-8.23-.62-2.56-.43-5.08-1.08-7.53-1.93-1.01-.35-1.39,1.19-.43,1.57h0Z"/>
        <path class="cls-5" d="M52.35,69.84c.6,0,1.22.05,1.79-.12.78-.23.78-1.36,0-1.59-.58-.17-1.2-.12-1.79-.12-.49,0-.92.42-.92.92s.42.92.92.92h0Z"/>
        <path class="cls-5" d="M69.68,67.82c.92-.31,2.13-.52,2.7-1.37.26-.39-.02-.87-.41-1.01-.89-.32-1.96.23-2.8.51-1.18.39-.67,2.26.52,1.87h0Z"/>
        <path class="cls-5" d="M38.93,43.49c.02-.19-.01.03-.02.07-.03.18.07-.08-.02.06-.05.08-.11.19-.02.05-.08.11-.18.21-.25.32-.19.29-.28.61-.2.95.08.39.43.64.8.69.68.09,1.2-.49,1.37-1.09.11-.41.11-.86,0-1.27s-.51-.66-.92-.6c-.43.06-.69.4-.73.82h0Z"/>
        <path class="cls-5" d="M35.77,51.12l-.1.46c-.04.19-.07.37-.03.57.01.06.03.12.06.19.14.42.63.68,1.04.42.22-.14.39-.28.51-.51l.21-.42c.25-.49.09-1.09-.44-1.31-.48-.2-1.13.05-1.25.6h0Z"/>
        <path class="cls-5" d="M67.04,61.91c1.1,0,1.1-1.71,0-1.71s-1.1,1.71,0,1.71h0Z"/>
      </g>
    </g>
  </g>
</svg>