<?xml version="1.0" encoding="UTF-8"?>
<svg id="Capa_2" data-name="Capa 2" xmlns="http://www.w3.org/2000/svg" viewBox="0 0 100 100">
  <defs>
    <style>
      .cls-1 {
        fill: #6e5757;
      }

      .cls-2 {
        fill: #fff;
      }

      .cls-3 {
        fill: none;
      }

      .cls-4 {
        fill: #a0bcdb;
      }

      .cls-5 {
        fill: #4a2d2d;
      }

      .cls-6 {
        fill: #af645a;
      }
    </style>
  </defs>
  <g id="COLOR">
    <g>
      <rect class="cls-3" width="100" height="100"/>
      <g>
        <g>
          <g>
            <path class="cls-6" d="M82.86,77.88c-.12-1.96-.65-3.87-1.18-5.76-1.21-4.32-2.43-8.64-3.64-12.96-.9-3.2-2.22-6.86-5.32-7.86-2.52-.81-5.32.59-6.95,2.7-1.64,2.11-2.35,4.81-2.97,7.43-1.13,4.8-2.05,9.66-2.82,14.53-.65,4.11.37,7.24,4.87,7.43,4.78.19,9.58.02,14.34-.53.67-.08,1.36-.17,1.95-.5,1.45-.82,1.83-2.79,1.73-4.48Z"/>
            <path class="cls-6" d="M58.36,39.32s-2.54-9.36,4.94-14.3c7.48-4.94,15.17-2.69,18.51,2.83,3.34,5.52,2.25,12.41,2.25,12.41l-25.7-.94Z"/>
            <g>
              <path class="cls-5" d="M63.6,31.9c.12.09.24.19.36.28.28.16.58.24.91.25.25,0,.48-.04.69-.15.22-.07.42-.2.58-.37.18-.16.3-.36.37-.58.11-.21.16-.44.15-.69l-.06-.48c-.09-.3-.24-.57-.46-.79-.12-.09-.24-.19-.36-.28-.28-.16-.58-.24-.91-.25-.25,0-.48.04-.69.15-.22.07-.42.2-.58.37-.18.16-.3.36-.37.58-.11.21-.16.44-.15.69.02.16.04.32.06.48.09.3.24.57.46.79Z"/>
              <path class="cls-5" d="M69.68,28.13c.11.08.21.16.32.25.25.14.51.21.79.21.22,0,.42-.04.61-.14.2-.06.36-.17.51-.33.15-.14.26-.31.33-.51.1-.19.14-.39.14-.61-.02-.14-.04-.28-.06-.42-.07-.27-.21-.5-.4-.69-.11-.08-.21-.16-.32-.25-.25-.14-.51-.21-.79-.21-.22,0-.42.04-.61.14-.2.06-.36.17-.51.33-.15.14-.26.31-.33.51-.1.19-.14.39-.14.61.02.14.04.28.06.42.07.27.21.5.4.69Z"/>
              <path class="cls-5" d="M76.39,32.82c2.44,0,2.45-3.8,0-3.8s-2.45,3.8,0,3.8Z"/>
              <path class="cls-5" d="M85.58,62.88c-.86-5.1-1.58-10.27-2.58-15.35-.35,0-.35.02-.5.01-.46-.03-.92,0-1.37,0,.89,8.68,2.45,17.3,3.44,25.97.25,2.21.44,4.41.59,6.63.07.97.23,1.96.19,2.94-.07,1.67-.76,2.43-2.49,2.73-2.01.35-4.34.02-6.38,0-5.23-.08-10.72.65-15.96.02-1.66-.2-2.65-.75-2.82-2.45-.09-.93.09-1.89.16-2.81.18-2.35.35-4.7.62-7.04.99-8.68,2.58-17.59,3.47-26.28-.62,0-1.24,0-1.86-.01-.98,4.96-1.73,10.27-2.56,15.26-.86,5.17-1.66,10.35-1.99,15.59-.18,2.94-.98,8.34,2.65,9.64,2.15.77,4.91.43,7.16.45,4.12.02,8.23.02,12.35,0,2.19-.01,4.7.24,6.83-.36,3.97-1.11,3.17-6.62,2.98-9.73-.32-5.1-1.08-10.15-1.92-15.18Z"/>
            </g>
            <path class="cls-1" d="M73.53,36.85s-13.21.22-15.1.36c-1.89.15-2.69.73-2.69,2.54s-.65,7.48,1.16,7.62,19.16.22,21.92.22,7.04.51,7.84-1.09c.8-1.6.94-7.91-.36-9-.95-.79-12.78-.65-12.78-.65Z"/>
          </g>
          <path class="cls-5" d="M92.64,81.18c-1.55,3.15-2.64,6.41-3.45,9.82-.79-.14-1.6-.09-2.51-.09-1.73,0-3.45,0-5.18,0-3.45,0-6.9,0-10.35,0-6.76-.01-13.51.06-20.27.11-6.76.05-13.52.01-20.27.03-6.69.02-13.64-.47-20.3.2-.82-3.5-1.92-6.85-3.51-10.08-.44-.9-1.98-.27-1.64.69,1,2.77,1.92,5.56,2.64,8.42.12.48.23.95.33,1.44.09.45.25.93.61,1.24s.85.43,1.3.5c1.26.19,2.58.23,3.85.28,1.35.06,2.7.09,4.04.09,2.98.01,5.97-.07,8.95-.12,1.24-.02,2.48-.03,3.72-.03,6.76.02,13.52-.01,20.27.03,6.76.05,13.51.12,20.27.11,3.45,0,6.9,0,10.35,0,1.58,0,3.16,0,4.75,0,.87,0,1.76.1,2.62-.03.66-.1,1.43-.23,1.9-.75.53-.59.56-1.54.74-2.28.18-.72.36-1.43.56-2.15.4-1.43.84-2.84,1.32-4.24.28-.84.58-1.68.88-2.51.34-.95-1.19-1.6-1.64-.69Z"/>
          <path class="cls-5" d="M50.2,16.33c-.87.02-1.74.04-2.61.05-.34,5.61-.03,11.39-.04,16.94-.01,7.27-.02,14.54-.03,21.81-.01,7.11-.01,14.21-.01,21.32,0,3.55,0,7.11.03,10.66.01,1.6-.12,3.44-.13,5.25.99,0,1.97.03,2.96.06-.01-1.67-.13-3.34-.12-4.82.03-3.55.04-7.11.04-10.66,0-7.27,0-14.54-.01-21.81l-.03-21.32c0-5.72.31-11.7-.04-17.48Z"/>
          <path class="cls-5" d="M71.81,57.09c-.36-.08-.9-.13-1.64-.13h0c-.49-.02-1.09,0-1.35.12-.4.18-.61.64-.77,1.62-.12.62-.12,1.08-.12,3.62.07,4.17.05,9.02,0,9.97h0c-.03.85-.03.96.28,1.11.07.02.17.03.29.03.24,0,.53-.04.72-.15.5-.29.59-1.2.51-4.86,0-1.17,0-2.39.02-2.64l.02-.22.13.02c.27.08,1.06.08,1.17.08,1.43-.02,2.4-.44,3.25-1.39.78-.86,1.13-1.75,1.13-2.88,0-2.11-1.5-3.88-3.64-4.31ZM69.65,58.54s.07-.01.22-.01h.28c.72.02,1.61.24,2.15.52.57.32.94.71,1.2,1.29.19.41.19.47.19,1.13s-.02.73-.12,1.03c-.37.75-1.19,1.38-2.03,1.59-.25.05-.56.09-.65.09-.39,0-1.07-.22-1.19-.32l-.1-.08v-2.5c0-.75-.03-2.5.04-2.74Z"/>
          <path class="cls-1" d="M54.24,9.21c-1.09-1.59-4.12-1.68-5.82-1.63-1.81.05-4,.37-4.98,2.1-1.01,1.81-.58,4.63-.07,6.52.37,1.36,4.73.76,6.5.76,1.11,0,2.25.22,3.35-.04,1.45-.35,1.59-1.78,1.67-3.03.1-1.58.29-3.29-.66-4.67Z"/>
          <g>
            <path class="cls-4" d="M38.53,77.94c-.12-1.96-.65-3.87-1.18-5.76-1.21-4.32-2.43-8.64-3.64-12.96-.9-3.2-2.22-6.86-5.32-7.86-2.52-.81-5.32.59-6.95,2.7-1.64,2.11-2.35,4.81-2.97,7.43-1.13,4.8-2.05,9.66-2.82,14.53-.65,4.11.37,7.24,4.87,7.43,4.78.19,9.58.02,14.34-.53.67-.08,1.36-.17,1.95-.5,1.45-.82,1.83-2.79,1.73-4.48Z"/>
            <path class="cls-4" d="M14.03,39.39s-2.54-9.36,4.94-14.3,15.17-2.69,18.51,2.83c3.34,5.52,2.25,12.41,2.25,12.41l-25.7-.94Z"/>
            <g>
              <g>
                <path class="cls-5" d="M19.27,31.97c.12.09.24.19.36.28.28.16.58.24.91.25.25,0,.48-.04.69-.15.22-.07.42-.2.58-.37.18-.16.3-.36.37-.58.11-.21.16-.44.15-.69l-.06-.48c-.09-.3-.24-.57-.46-.79-.12-.09-.24-.19-.36-.28-.28-.16-.58-.24-.91-.25-.25,0-.48.04-.69.15-.22.07-.42.2-.58.37-.18.16-.3.36-.37.58-.11.21-.16.44-.15.69.02.16.04.32.06.48.09.3.24.57.46.79Z"/>
                <path class="cls-5" d="M25.35,28.2c.11.08.21.16.32.25.25.14.51.21.79.21.22,0,.42-.04.61-.14.2-.06.36-.17.51-.33.15-.14.26-.31.33-.51.1-.19.14-.39.14-.61-.02-.14-.04-.28-.06-.42-.07-.27-.21-.5-.4-.69-.11-.08-.21-.16-.32-.25-.25-.14-.51-.21-.79-.21-.22,0-.42.04-.61.14-.2.06-.36.17-.51.33-.15.14-.26.31-.33.51-.1.19-.14.39-.14.61.02.14.04.28.06.42.07.27.21.5.4.69Z"/>
                <path class="cls-5" d="M32.05,32.89c2.44,0,2.45-3.8,0-3.8s-2.45,3.8,0,3.8Z"/>
                <path class="cls-5" d="M41.25,62.95c-.86-5.1-1.58-10.27-2.58-15.35-.35,0-.35.02-.5.01-.46-.03-.92,0-1.37,0,.89,8.68,2.45,17.3,3.44,25.97.25,2.21.44,4.41.59,6.63.07.97.23,1.96.19,2.94-.07,1.67-.76,2.43-2.49,2.73-2.01.35-4.34.02-6.38,0-5.23-.08-10.72.65-15.96.02-1.66-.2-2.65-.75-2.82-2.45-.09-.93.09-1.89.16-2.81.18-2.35.35-4.7.62-7.04.99-8.68,2.58-17.59,3.47-26.28-.62,0-1.24,0-1.86-.01-.98,4.96-1.73,10.27-2.56,15.26-.86,5.17-1.66,10.35-1.99,15.59-.18,2.94-.98,8.34,2.65,9.64,2.15.77,4.91.43,7.16.45,4.12.02,8.23.02,12.35,0,2.19-.01,4.7.24,6.83-.36,3.97-1.11,3.17-6.62,2.98-9.73-.32-5.1-1.08-10.15-1.92-15.18Z"/>
              </g>
              <path class="cls-5" d="M30.68,68.05c-.4-.8-1.61-2.12-2.88-3.14-2.34-1.95-2.95-3.18-2.33-4.69.19-.49.65-1.03,1.02-1.18.37-.18.92-.16,1.32.07.47.22.91.68.96.9.09.4.42.81.82.77.22-.04.39-.19.47-.44.18-.56-.14-1.49-.69-2.05-.64-.58-1.69-.99-2.57-.99-.15,0-.3,0-.5.03-.67.13-1.23.46-1.73,1-.61.69-.89,1.35-.96,2.3-.2,2.16.37,3.24,2.76,5.29,1.7,1.46,2.45,2.32,2.86,3.3.48,1.13.19,1.93-.91,2.5-1.28.7-2.82.42-3.85-.7-.46-.51-.74-1.11-.9-1.94-.08-.76-.28-1.16-.65-1.27-.16-.03-.3,0-.42.1-.24.19-.35.63-.35,1.36,0,2.17,1.28,3.78,3.42,4.31.31.08.73.12,1.17.12.53,0,1.07-.06,1.46-.17,1.54-.43,2.53-1.39,2.88-2.79.2-.84.08-1.7-.4-2.71Z"/>
            </g>
            <path class="cls-1" d="M29.2,36.92s-13.21.22-15.1.36-2.69.73-2.69,2.54-.65,7.48,1.16,7.62c1.81.15,19.16.22,21.92.22s7.04.51,7.84-1.09.94-7.91-.36-9c-.95-.79-12.78-.65-12.78-.65Z"/>
          </g>
        </g>
        <path class="cls-2" d="M14.53,41.34c1.07.05,2.12.08,3.19.06.98-.02,1.96.02,2.81-.53.54-.35.68-1.31,0-1.62-1.81-.82-4.36,0-6.24.35-1.02.19-.72,1.7.24,1.74h0Z"/>
        <path class="cls-2" d="M25.73,40.54s0-.02,0-.04c.04-.3.04-.2,0-.5,0,0,0,0,0,0,0,0,0-.01,0-.02,0,0,0,0,0,0-.03-.14-.1-.26-.19-.37-.08-.12-.18-.21-.3-.28-.12-.08-.26-.12-.4-.13-.14-.03-.29-.03-.43.02-.18.05-.34.14-.47.28l-.17.22c-.1.17-.15.35-.15.54l.04.29c.05.18.14.34.28.47l.22.17c.17.1.35.15.54.15.15,0,.29-.03.41-.09.13-.04.25-.12.35-.22.13-.13.23-.29.28-.47h0Z"/>
        <path class="cls-2" d="M58.52,41.28c1.02.08,2.01.11,3.04.07.95-.03,1.81.02,2.37-.84.22-.34.11-.79-.14-1.07-.68-.76-1.68-.49-2.59-.38-.99.12-1.94.28-2.91.5s-.71,1.65.23,1.72h0Z"/>
        <path class="cls-2" d="M67.84,41.12l.08-.03.28-.12c.14-.07.24-.17.33-.3.07-.07.12-.16.15-.26.07-.14.11-.29.1-.45l-.04-.31-.12-.28c-.07-.14-.17-.24-.3-.33-.11-.1-.24-.17-.39-.21l-.08-.03c-.21-.06-.42-.06-.63,0-.2.06-.38.16-.53.31l-.19.24c-.11.19-.16.39-.16.6,0,.16.03.32.1.46.05.15.13.28.25.38.15.15.32.25.53.31.21.06.42.06.63,0h0Z"/>
        <path class="cls-2" d="M44.7,11.69l.07.06-.35-.6c.04.11.08.22.14.33l.21.28c.12.13.27.23.44.28.16.09.34.13.53.12.19,0,.36-.03.53-.12.17-.06.32-.15.44-.28.13-.12.23-.27.28-.44.09-.16.13-.34.12-.53l-.05-.36c-.07-.23-.18-.43-.35-.6l-.28-.21c-.21-.12-.44-.19-.69-.19l-.36.05c-.18.04-.33.12-.47.25-.15.1-.27.22-.35.38-.05.11-.1.22-.14.33l.35-.6-.07.06c-.12.12-.21.25-.26.41-.08.15-.12.32-.11.49l.05.34c.06.22.17.4.33.56h0Z"/>
      </g>
    </g>
  </g>
</svg>