<?xml version="1.0" encoding="UTF-8"?>
<svg id="Capa_2" data-name="Capa 2" xmlns="http://www.w3.org/2000/svg" viewBox="0 0 100 100">
  <defs>
    <style>
      .cls-1 {
        fill: #6e5757;
      }

      .cls-2 {
        fill: #fff;
      }

      .cls-3 {
        fill: none;
      }

      .cls-4 {
        fill: #a0bcdb;
      }

      .cls-5 {
        fill: #4a2d2d;
      }

      .cls-6 {
        fill: #ecd2db;
      }
    </style>
  </defs>
  <g id="COLOR">
    <g>
      <g>
        <g>
          <g>
            <path class="cls-4" d="M43.79,77.71c-.13-2.22-.74-4.39-1.34-6.53-1.38-4.9-2.76-9.8-4.13-14.7-1.02-3.63-2.51-7.78-6.03-8.92-2.85-.92-6.03.67-7.89,3.07-1.86,2.4-2.67,5.45-3.37,8.43-1.28,5.45-2.32,10.96-3.2,16.48-.74,4.66.41,8.22,5.52,8.42,5.43.22,10.87.02,16.27-.6.76-.09,1.54-.19,2.21-.57,1.65-.93,2.08-3.16,1.96-5.08Z"/>
            <path class="cls-4" d="M16,33.98s-2.88-10.62,5.6-16.22c8.48-5.6,17.21-3.05,20.99,3.21,3.79,6.26,2.55,14.08,2.55,14.08l-29.15-1.07Z"/>
            <g>
              <g>
                <path class="cls-5" d="M21.94,25.56c.14.11.27.21.41.32.32.18.66.28,1.03.28.28.01.54-.05.79-.18.25-.08.47-.22.66-.42.2-.18.34-.4.42-.66.13-.24.19-.5.18-.79l-.07-.54c-.1-.35-.27-.64-.52-.9-.14-.11-.27-.21-.41-.32-.32-.18-.66-.28-1.03-.28-.28-.01-.54.05-.79.18-.25.08-.47.22-.66.42-.2.18-.34.4-.42.66-.13.24-.19.5-.18.79.02.18.05.36.07.54.1.35.27.64.52.9Z"/>
                <path class="cls-5" d="M28.84,21.29c.12.09.24.19.36.28.28.16.58.24.9.24.25,0,.48-.04.69-.15.22-.07.41-.2.57-.37.17-.16.3-.35.37-.57.11-.21.16-.44.15-.69-.02-.16-.04-.32-.06-.47-.08-.3-.24-.57-.46-.79-.12-.09-.24-.19-.36-.28-.28-.16-.58-.24-.9-.24-.25,0-.48.04-.69.15-.22.07-.41.2-.57.37-.17.16-.3.35-.37.57-.11.21-.16.44-.15.69.02.16.04.32.06.47.08.3.24.57.46.79Z"/>
                <path class="cls-5" d="M36.45,26.61c2.77,0,2.78-4.31,0-4.31s-2.78,4.31,0,4.31Z"/>
                <path class="cls-5" d="M46.87,60.7c-.97-5.78-1.79-11.65-2.93-17.41-.4,0-.4.02-.57.01-.52-.04-1.04,0-1.56,0,1.01,9.85,2.78,19.62,3.9,29.45.28,2.5.5,5.01.67,7.52.08,1.1.26,2.23.22,3.33-.08,1.89-.86,2.76-2.82,3.09-2.28.39-4.93.03-7.24-.01-5.93-.1-12.16.73-18.1.03-1.88-.22-3.01-.86-3.2-2.78-.1-1.05.1-2.14.18-3.19.2-2.67.4-5.33.7-7.99,1.12-9.85,2.93-19.95,3.93-29.81-.7,0-1.41,0-2.11-.01-1.12,5.63-1.96,11.65-2.9,17.3-.98,5.86-1.89,11.75-2.26,17.69-.21,3.34-1.12,9.46,3.01,10.93,2.44.87,5.57.49,8.12.51,4.67.03,9.34.03,14.01,0,2.48-.01,5.34.27,7.75-.41,4.5-1.26,3.6-7.51,3.38-11.03-.36-5.78-1.22-11.51-2.18-17.22Z"/>
              </g>
              <path class="cls-5" d="M34.89,66.49c-.45-.91-1.83-2.41-3.27-3.56-2.66-2.21-3.35-3.6-2.64-5.32.22-.56.74-1.16,1.16-1.34.42-.21,1.04-.18,1.49.08.53.25,1.03.77,1.09,1.02.1.45.47.92.93.87.25-.04.44-.22.53-.49.2-.63-.15-1.69-.79-2.32-.72-.66-1.92-1.12-2.91-1.12-.17,0-.34,0-.56.03-.76.15-1.4.52-1.96,1.14-.69.78-1.01,1.54-1.09,2.61-.22,2.45.42,3.68,3.13,6,1.93,1.66,2.78,2.64,3.25,3.74.54,1.29.22,2.19-1.03,2.84-1.45.8-3.2.48-4.37-.79-.52-.57-.84-1.26-1.02-2.2-.09-.86-.32-1.31-.74-1.44-.18-.04-.34,0-.47.11-.27.22-.39.71-.39,1.55,0,2.47,1.45,4.29,3.88,4.88.35.09.83.14,1.32.14.6,0,1.21-.07,1.66-.19,1.74-.49,2.87-1.58,3.27-3.17.23-.96.09-1.93-.45-3.08Z"/>
            </g>
            <path class="cls-1" d="M33.21,31.18s-14.98.25-17.13.41-3.05.82-3.05,2.88-.74,8.48,1.32,8.64c2.06.16,21.74.25,24.86.25s7.99.58,8.89-1.23c.91-1.81,1.07-8.97-.41-10.21-1.08-.9-14.49-.74-14.49-.74Z"/>
          </g>
          <path class="cls-2" d="M16.57,36.2c1.21.05,2.41.1,3.62.07,1.12-.03,2.22.02,3.19-.6.61-.39.77-1.49,0-1.84-2.06-.93-4.94,0-7.08.4-1.16.22-.82,1.93.27,1.97h0Z"/>
          <path class="cls-2" d="M29.28,35.29s0-.03,0-.04c.05-.34.05-.23,0-.57,0,0,0,0,0-.01,0,0,0-.01,0-.02,0,0,0,0,0-.01-.04-.16-.11-.3-.22-.41-.09-.13-.2-.24-.34-.31-.14-.09-.29-.14-.45-.14-.16-.04-.32-.03-.49.02-.21.06-.39.16-.54.31l-.19.25c-.11.19-.17.39-.17.61l.04.32c.06.21.16.39.31.54l.25.19c.19.11.39.17.61.17.17,0,.32-.03.47-.1.15-.05.28-.13.39-.25.15-.15.26-.33.31-.54h0Z"/>
        </g>
        <g>
          <path class="cls-6" d="M86.71,85.94c-2.18,2.45-5.76,4.55-9.69,4.76-1.26.07-2.43-.09-3.29-.27-.86-.17-1.41-.37-1.41-.37,0,0-.09.09-.26.25-.93.82-4.31,3.4-10.23,3.54-4.37.11-7.78-1.78-9.74-3.24-1.2-.89-1.86-1.61-1.86-1.61,0,0-.31.16-.87.36-2.57.96-10.27,3.07-15.01-3.9-4.65-6.84-2.2-14.6,3.59-20.19,5.76-5.57,14.38-9.87,17.24-14.59,2.6-4.3.77-8.05-.38-10.37-1.15-2.32-1.54-3.37-.94-3.29.6.09,3.07,1.35,4.61,3.37,1.44,1.9,1.76,3.09,1.79,3.23-.02-.25-.24-3.62,1.07-7.11,1.36-3.63,3.07-5.61,3.63-5.35.56.25-.21,4.59-.51,7.12-.3,2.53.04,4.72.04,4.72,0,0,1.15-1.94,3.33-3.29,2.17-1.35,3.46-1.43,3.63-1.09.17.33-3.46,3.62-2.95,8.18.51,4.55,4.4,7.25,7.64,9.23,3.25,1.98,11.86,6.2,14.08,13.99,2.22,7.8-1.33,13.45-3.5,15.89Z"/>
          <path class="cls-5" d="M47.89,72.72c.98-2.24,2.19-4.27,3.63-6.25,1.31-1.8,2.86-3.55,3.69-5.63.14-.34-.4-.65-.64-.37-1.5,1.79-2.76,3.86-4.06,5.79-1.31,1.94-2.57,3.93-3.33,6.16-.14.4.53.69.7.29h0Z"/>
          <path class="cls-5" d="M56.54,58.68c2.55-2.63,4.48-7.1,3.42-10.78-.09-.32-.59-.32-.61.04-.12,1.89,0,3.62-.59,5.48-.56,1.78-1.54,3.37-2.72,4.82-.23.29.23.71.49.43h0Z"/>
          <path class="cls-5" d="M64.28,46.02c-1.07,3.92.96,7.8,3.07,11.03,1.16,1.78,2.55,3.42,3.81,5.13,1.46,1.98,2.37,3.96,3.17,6.26.11.31.67.29.62-.08-1.02-8.52-11.62-12.78-9.98-22.15.08-.44-.57-.63-.69-.19h0Z"/>
          <path class="cls-5" d="M49.36,89.38c-2.77-3.6-3.63-8.65-2.67-13.04.09-.41.79-.31.74.1-.56,4.42.41,8.54,2.83,12,.54.77-.35.74-.9.94Z"/>
          <path class="cls-5" d="M76.61,84.44c-.57,1.97-1.51,4.23-2.88,6-.86-.17-1.41-.37-1.41-.37,0,0,.28-.49.55-.87s.55-.79.78-1.22c.73-1.32,1.31-2.73,1.72-4.18.86-2.98.88-5.78.54-8.83-.06-.51.75-.58.88-.12.85,3.06.67,6.54-.2,9.58Z"/>
        </g>
      </g>
      <rect class="cls-3" width="100" height="100"/>
    </g>
  </g>
</svg>