<?xml version="1.0" encoding="UTF-8"?>
<svg id="Capa_2" data-name="Capa 2" xmlns="http://www.w3.org/2000/svg" viewBox="0 0 100 100">
  <defs>
    <style>
      .cls-1 {
        fill: #cf923a;
      }

      .cls-2 {
        fill: #fff;
      }

      .cls-3 {
        fill: none;
      }

      .cls-4 {
        fill: #4a2d2d;
      }

      .cls-5 {
        fill: #fce1a9;
      }
    </style>
  </defs>
  <g id="COLOR">
    <g>
      <rect class="cls-3" width="100" height="100"/>
      <g>
        <path class="cls-5" d="M82.93,45.72c-.18-.48-6.07-3.78-6.71-3.82-23.01-1.7-49.63,2.21-50.03-.46-.1-.64-9.35,3.81-9.52,4.29-.96,2.59-.5,5.95-.03,8.61.5,2.8,1.4,5.52,2.55,8.12,2.35,5.34,5.7,10.58,9.71,14.83,10.84,11.51,30.99,11.5,41.82,0,4.01-4.26,7.36-9.49,9.71-14.83,1.14-2.61,2.04-5.31,2.55-8.12.48-2.66.94-6.03-.03-8.61Z"/>
        <path class="cls-4" d="M83.05,45.81c-.25-3.83-6.24-4.51-9.11-4.33.21.28.42.56.61.86.13.2.28.45.4.72,1.67.06,3.41.36,4.86,1.14,1.42.76,1.99,2.62.27,3.52-.78.41-1.78.54-2.63.71-3.95.78-8.02,1.15-12.03,1.46-10.27.79-20.98.79-31.25,0-4.02-.31-8.08-.68-12.03-1.46-.85-.17-1.85-.3-2.63-.71-1.72-.9-1.15-2.75.27-3.52,1.56-.84,3.45-1.13,5.23-1.16.1-.14.2-.27.3-.4.22-.37.44-.73.66-1.1-.07-.03-.15-.05-.24-.05-2.84-.2-8.91.46-9.19,4.33-.3,4.15,6.58,4.95,9.32,5.6,7.92,1.87,16.12,2.01,24.21,1.9,7.93-.1,15.87-.07,23.64-1.9,2.75-.65,9.59-1.45,9.32-5.6Z"/>
        <path class="cls-1" d="M72.76,36.27c-1.2-1.86-2.64-3.98-4.52-5.2-2.64-1.72-5.33.39-8.02-.66-2.79-1.09-4.59-4.07-6.87-5.89-2.01-1.6-4.34-2.6-6.95-2.3-5.63.66-10.86,5.77-14.66,9.62-4.79,4.85-8.76,10.59-12.31,16.38-.64,1.05,12.92,4.07,13.59,3.06l16.31.72,26.15-2.11c.48.94,2.17.79,2.14-.49-.11-4.63-2.4-9.32-4.87-13.14Z"/>
        <path class="cls-4" d="M65.21,46.73c.21-.19.4-.47.46-.74.09-.38.09-.84-.15-1.17l.19.69c0-.05,0-.11,0-.16l-.05-.35c-.04-.17-.12-.32-.24-.45-.16-.21-.42-.43-.69-.48,0,0-.01,0-.02,0l.55.32s-.04-.04-.07-.07c-.55-.52-1.43-.42-1.83.24-.01.02-.02.04-.04.06l.44-.44-.04.02.65-.18h0c-.43-.04-.96.28-1.15.66-.02.04-.03.07-.05.11l.21-.27-.03.03.61-.35c-.09.01-.28.1-.36.15-.11.07-.24.17-.33.26-.12.12-.21.27-.3.41-.19.28-.25.78-.14,1.1s.26.55.51.74.55.32.86.31c.39-.02.71-.16,1.01-.42h0Z"/>
        <path class="cls-4" d="M67.24,40.94c.12-.07.22-.16.33-.24.12-.11.2-.24.25-.39.08-.14.11-.3.1-.46l-.04-.32c-.06-.2-.16-.38-.31-.53-.12-.09-.21-.17-.33-.24-.39-.23-.89-.23-1.28,0s-.63.65-.63,1.09.24.87.63,1.09.89.23,1.28,0h0Z"/>
        <path class="cls-4" d="M70.04,47.49c1.4,0,1.41-2.18,0-2.18s-1.41,2.18,0,2.18h0Z"/>
        <path class="cls-2" d="M30.18,45.08c.14.02.22.02.39-.04l.29-.12c.1-.05.18-.12.25-.2.08-.08.14-.16.2-.25.11-.18.16-.38.16-.6,0-.21-.05-.41-.16-.6-.03-.04-.06-.09-.1-.13-.03-.04-.06-.09-.1-.13-.04-.04-.08-.08-.13-.1-.12-.11-.25-.18-.41-.22l-.32-.04s-.02,0-.03,0c-.01,0-.03,0-.04,0-.17,0-.32.03-.46.1-.15.05-.28.13-.39.25-.12.11-.2.24-.25.39-.08.14-.11.3-.1.46l.04.32c.06.2.16.38.31.53l.24.19c.19.11.39.16.61.16h0Z"/>
        <path class="cls-2" d="M36.55,37.2c.5,0,.5-.78,0-.78s-.5.78,0,.78h0Z"/>
        <path class="cls-2" d="M45.16,33.28c.15,0,.3-.03.43-.1.14-.04.26-.12.36-.23.11-.1.19-.22.23-.36.07-.13.1-.28.1-.43l-.04-.3c-.05-.19-.15-.35-.29-.49l-.23-.17c-.17-.1-.36-.15-.56-.15-.15,0-.3.03-.43.1-.14.04-.26.12-.36.23-.11.1-.19.22-.23.36-.07.13-.1.28-.1.43l.04.3c.05.19.15.35.29.49l.23.17c.17.1.36.15.56.15h0Z"/>
        <path class="cls-2" d="M46.88,46.12c1.33,0,1.33-2.06,0-2.06s-1.33,2.06,0,2.06h0Z"/>
        <path class="cls-4" d="M83.05,45.81c-.13-1.91-1.68-3.04-3.56-3.67,0,.5-.03.99-.09,1.49-.01.11-.03.22-.04.34.16.07.31.14.46.23,1.42.76,1.99,2.62.27,3.52-.78.41-1.78.54-2.63.71-3.95.78-8.02,1.15-12.03,1.46-10.27.79-20.98.79-31.25,0-4.02-.31-8.08-.68-12.03-1.46-.85-.17-1.85-.3-2.63-.71-1.72-.9-1.15-2.75.27-3.52.37-.2.75-.36,1.15-.5-.02-.11-.05-.22-.07-.33-.1-.45-.19-.91-.3-1.36-2.07.59-3.86,1.74-4,3.8-.3,4.15,6.58,4.95,9.32,5.6,7.92,1.87,16.12,2.01,24.21,1.9,7.93-.1,15.87-.07,23.64-1.9,2.75-.65,9.59-1.45,9.32-5.6Z"/>
      </g>
    </g>
  </g>
</svg>