<?xml version="1.0" encoding="UTF-8"?>
<svg id="Capa_2" data-name="Capa 2" xmlns="http://www.w3.org/2000/svg" viewBox="0 0 100 100">
  <defs>
    <style>
      .cls-1 {
        fill: #cf923a;
      }

      .cls-2 {
        fill: #fff;
      }

      .cls-3 {
        fill: none;
      }

      .cls-4 {
        fill: #4a2d2d;
      }

      .cls-5 {
        fill: #b3644c;
      }

      .cls-6 {
        fill: #ab3e40;
      }

      .cls-7 {
        fill: #fec084;
      }
    </style>
  </defs>
  <g id="COLOR">
    <g>
      <rect class="cls-3" width="100" height="100"/>
      <g>
        <g>
          <path class="cls-1" d="M69.08,71.91c-.83,0-1.67-.21-2.49-.63l-.03-.02-.06-.02c-.62-.23-1.2-.56-1.72-.98-1.57-1.26-2.48-3.23-2.44-5.27.05-2.58,1.69-4.22,3.35-5.67l.09-.08c.56-.48,1.4-1.21,1.35-2.02-.02-.38-.23-.7-.62-.97-.73-.49-1.74-.59-2.64-.68-.33-.03-.64-.06-.92-.11-1.14-.2-1.99-.44-2.73-.78-3.67-1.7-3.89-6.55-2.97-10.19.62-2.43,2.58-6.53,6.02-6.53.18,0,.36.01.55.03,1.11.13,2.6.75,3.18,2.05.53,1.18.46,2.51.39,3.92-.05,1.07-.11,2.18.12,3.23.24,1.09,1.1,1.88,2.06,1.88.25,0,.5-.05.75-.16,2.29-.98,2.79-3.74,2.1-5.97-.16-.52-.37-1.02-.58-1.51-.41-.98-.81-1.91-.8-2.93.01-1.39.31-2.61.9-3.62.82-1.41,2.65-2.9,4.44-2.9.65,0,1.24.2,1.75.59,1.47,1.11,1.47,3.09,1.27,4.88-.02.2-.08.49-.14.82-.25,1.31-.58,3.1.09,4.06.24.34.57.54,1,.61.08.01.17.02.26.02.3,0,.61-.07.96-.22.82-.35,1.5-.94,2.16-1.5.4-.34.77-.66,1.17-.93,1.16-.79,2.31-1.19,3.4-1.19.09,0,.18,0,.27,0,1.57.09,2.97.9,3.75,2.15,1.53,2.46.81,6.33-1.53,8.28-1.42,1.18-3.23,1.34-5.1,1.42-.16,0-.32.01-.49.02-1.7.05-3.62.12-4.96,1.31-.34.31-.55.69-.59,1.07-.04.38.04.69.23.91.2.22.49.33.88.33.47,0,.99-.16,1.34-.27l.07-.02c.6-.18,1.3-.37,2.02-.37.22,0,.43.02.63.05,1.07.18,1.91.84,2.35,1.86.56,1.29.42,2.97-.36,4.16-.85,1.3-2.38,2.18-4.31,2.49-.54.09-1.12.09-1.74.09-1.32,0-2.68.02-3.76.84-.99.74-1.44,1.97-1.84,3.06-.08.21-.16.42-.23.62-.99,2.5-2.3,3.9-4.24,4.53-.53.17-1.06.26-1.59.26Z"/>
          <g>
            <path class="cls-4" d="M64.61,49.84c-.03-.06-.09-.1-.16-.1-.02,0-.03,0-.05,0-.45.11-.85.47-1.17.77-.36.32-.67.69-.94,1.07-.28.4-.5.83-.65,1.28-.08.24-.14.48-.17.71v.05c-.03.22-.07.46.04.67.03.06.09.09.16.09h0c.07,0,.13-.03.17-.09.09-.13.11-.29.14-.44,0-.06.02-.11.03-.17.06-.25.12-.45.18-.63.14-.42.34-.82.59-1.18.22-.33.5-.65.82-.95.12-.11.25-.22.39-.32.22-.17.44-.34.61-.56.05-.06.06-.14.03-.21Z"/>
            <path class="cls-4" d="M61.95,47.83s.1-.03.15-.04c.08-.02.16-.05.22-.05.11,0,.17-.1.17-.19,0-.1-.07-.17-.17-.17h-.02c-.05,0-.11,0-.17-.02-.07-.01-.13-.02-.21-.02h0c-.13,0-.27.02-.4.03-.26.03-.54.1-.84.19-.53.17-1.07.45-1.56.81-.47.35-.89.75-1.23,1.19-.4.52-.62,1-.72,1.57,0,.04,0,.08.03.11.03.03.06.05.1.05.05,0,.09-.02.11-.06.51-.83,1.14-1.76,2.04-2.39.41-.29.88-.53,1.4-.71.26-.09.52-.16.72-.21.13-.03.25-.06.38-.09Z"/>
            <path class="cls-4" d="M58.57,43.86s.06,0,.08-.03c.12-.08.25-.17.37-.26.43-.3.87-.61,1.37-.79.32-.11.66-.16,1.11-.16.22,0,.45.01.67.02.16,0,.33.02.5.02.09,0,.16-.06.17-.15.01-.09-.04-.18-.13-.21-.5-.15-.97-.22-1.41-.22-.39,0-.76.06-1.11.18-.73.26-1.38.75-1.78,1.33-.03.05-.03.1,0,.16.03.06.09.09.15.09Z"/>
            <path class="cls-4" d="M61.26,44.47c-.35.07-.67.18-.94.33-.23.13-.56.33-.75.67-.02.04-.02.1,0,.14.03.04.07.07.12.07.02,0,.05,0,.07-.02.16-.08.3-.18.45-.28.11-.07.22-.15.33-.21.28-.17.55-.29.82-.37.09-.03.14-.1.12-.19-.01-.09-.09-.15-.18-.15-.01,0-.03,0-.04,0Z"/>
            <path class="cls-4" d="M72.06,41.75s.08-.02.11-.05c.22-.22.41-.47.59-.71.22-.3.45-.61.75-.86.34-.28.88-.62,1.57-.62.09,0,.17,0,.26.02.01,0,.02,0,.03,0,.13,0,.22-.12.23-.23.01-.14-.06-.25-.19-.27-.15-.03-.31-.04-.46-.04-.62,0-1.24.22-1.75.62-.34.26-1.13.98-1.28,1.96,0,.05,0,.1.04.14.03.04.07.06.12.06Z"/>
            <path class="cls-4" d="M75.86,36.31s.03,0,.05,0c.56-.17,1.2-.35,1.85-.35.34,0,.65.05.95.15.02,0,.04.01.07.01.11,0,.19-.09.22-.19.02-.1-.02-.19-.11-.24-.45-.22-.97-.33-1.46-.33s-1.17.12-1.68.67c-.05.05-.06.13-.03.19.03.06.09.1.15.1Z"/>
            <path class="cls-4" d="M85.03,50.81c.06,0,.1-.04.11-.1.12-.91.06-1.76-.19-2.6-.23-.8-.62-1.6-1.16-2.39-.05-.07-.12-.11-.2-.11-.1,0-.19.06-.25.15-.05.09-.04.19.01.28.42.66.75,1.39,1.02,2.25.26.84.44,1.65.55,2.42,0,.06.06.1.11.1Z"/>
            <path class="cls-4" d="M88.68,45.4c-.09,0-.17.05-.21.12-.04.07-.04.15,0,.22.49.86.5,1.83.46,2.59,0,.03.01.07.03.09.03.03.07.05.11.05.05,0,.09-.03.11-.07.37-.84.25-1.92-.32-2.88-.04-.07-.11-.11-.19-.11Z"/>
            <path class="cls-4" d="M87.88,43.02s0-.08-.01-.12c-.03-.11-.09-.21-.14-.3-.1-.17-.24-.32-.4-.46-.03-.03-.07-.04-.11-.04-.06,0-.12.04-.15.1-.03.06-.02.12.03.18.1.12.19.26.27.43l.03.05.02.04s.04.1.07.14c.01.03.03.05.05.07,0,.01.02.02.03.04l.02.03s.04.07.07.1c.02.03.06.04.1.04.06,0,.12-.04.13-.1.01-.06,0-.12,0-.16,0-.02,0-.03,0-.05Z"/>
            <path class="cls-4" d="M79.57,51.22c-.08-.16-.19-.32-.32-.49-.23-.29-.5-.57-.84-.86-.57-.49-1.26-.89-2.06-1.17-.02,0-.04-.01-.06-.01-.08,0-.16.07-.18.16-.02.09.02.16.09.2.64.3,1.25.7,1.84,1.24.29.26.55.55.76.8.05.06.11.13.16.19.07.08.13.15.2.23.04.05.08.1.12.16.08.1.16.21.25.29.03.03.07.04.11.04.05,0,.09-.02.12-.05.03-.04.05-.09.04-.14-.02-.15-.11-.31-.19-.45-.02-.03-.04-.07-.06-.1Z"/>
            <path class="cls-4" d="M78.01,53.44s-.01-.03-.02-.04c0-.03-.02-.06-.04-.1-.06-.09-.15-.18-.2-.23-.13-.12-.29-.24-.5-.38-.33-.21-.7-.38-1.09-.5-.02,0-.04-.01-.07-.01-.11,0-.21.08-.24.18-.04.13.04.26.17.3.33.12.64.28.94.48.13.09.26.19.4.3.05.04.1.08.15.11l.09.06s.08.04.11.05h.02s.04.03.06.04c.02.01.04.02.06.03.02,0,.04.01.07.01.05,0,.11-.03.14-.07.03-.04.03-.08.02-.13-.02-.04-.04-.08-.06-.14Z"/>
            <path class="cls-4" d="M77.66,59.36c-.23-.57-.52-1.03-.87-1.41-.39-.41-.86-.72-1.42-.92-.38-.13-.77-.22-1.15-.3-.24-.05-.49-.1-.73-.17-.02,0-.04,0-.05,0-.08,0-.15.06-.17.14-.02.09.03.18.12.21.27.11.56.21.83.3.8.27,1.56.53,2.14,1.17.31.35.57.78.76,1.25.05.11.08.23.12.34.04.12.08.25.13.37.02.06.05.12.07.18.06.17.12.34.23.47.03.03.06.05.1.05.06,0,.12-.04.14-.1.1-.25.04-.61,0-.82-.05-.28-.15-.54-.24-.77Z"/>
            <path class="cls-4" d="M82.91,56.11c-.05,0-.1.03-.12.08-.65,1.41-.68,2.97-.07,4.17.02.04.06.07.11.07h0s.08-.02.1-.05c.03-.03.04-.07.03-.11-.28-1.6-.26-2.83.09-3.98.01-.04,0-.08-.02-.12-.03-.04-.07-.06-.12-.06Z"/>
            <path class="cls-4" d="M85.56,56.17s-.09.01-.15.07c-.36.39-.44.97-.51,1.48l-.02.14c-.1.72-.07,1.38.09,1.95.01.05.06.09.12.09s.1-.04.11-.09c.08-.45.12-.92.15-1.37.01-.12.04-.49.04-.49.02-.24.04-.5.08-.74.04-.24.09-.49.24-.67.06-.07.07-.15.03-.23-.04-.08-.11-.13-.19-.13Z"/>
            <path class="cls-4" d="M73.53,61.6c-.64-.57-1.45-.98-2.55-1.3-.02,0-.05-.01-.07-.01-.11,0-.2.08-.22.2-.02.1.03.22.16.27,1.75.59,3.07,1.81,3.51,3.27.02.06.08.11.14.11h0s.08-.02.11-.04c.03-.03.04-.06.04-.1,0-.89-.42-1.76-1.13-2.38Z"/>
            <path class="cls-4" d="M70.99,65.32c-.86-1.01-2.21-1.59-3.79-1.62-.05,0-.09,0-.14,0-.79,0-1.58.14-2.34.41-.08.03-.12.1-.11.18.01.08.08.13.16.13.01,0,.02,0,.03,0,.69-.12,1.29-.18,1.85-.18.78,0,1.46.11,2.09.35,1.13.42,2.03,1.28,2.49,2.36.13.3.21.61.23.9.01.12,0,.26,0,.39-.01.18-.03.37.02.55.02.07.09.12.17.12.05,0,.09-.02.12-.05.19-.23.21-.58.22-.85.01-.3-.02-.61-.09-.94-.14-.62-.44-1.21-.89-1.75Z"/>
            <path class="cls-4" d="M71.45,69.29s-.07.04-.07.07.04.07.07.07.07-.04.07-.07-.04-.07-.07-.07Z"/>
          </g>
        </g>
        <g>
          <g>
            <path class="cls-6" d="M12.12,72.77c1.93-1.61,6.34-8.65,8.14-12.3s-.82-11.98-1.46-15.44c-.42-2.28-.3-4.91.77-6.11.74-.16,3.64-.86,4.19-1.32.41-.34.73-.79,1.1-1.18.04.28.1.56.18.84.16.54.41,1.07.68,1.57.32.59.73,1.31,1.27,1.72.33.24.75.21.99-.13.23-.33.17-.73.19-1.11.03-.59.06-1.19.02-1.78-.02-.28-.07-.55-.13-.82.48.23.98.42,1.49.6.67.24,3.1.67,3.81.63,2.2,1.99,6.04,6.91,3.39,16.13-1.45,5.05-4.89,10.93-11.63,16.87-6.74,5.94-12.8,8.39-15.21,7.67-2.41-.72-.02-4,2.19-5.84Z"/>
            <path class="cls-4" d="M19.97,39.53c1.75-.28,3.3-.95,4.6-2.05.37,1.69,1.35,3.22,2.96,3.97.32.15.71-.06.77-.4.2-1.1.23-2.18.09-3.25,1.57.75,3.39,1.04,5.1.75.4-.07.76-.58.43-.95-1.74-1.94-3.76-3.27-6.35-3.76-.07-.01-.14-.01-.21,0-.35-1.19-.41-2.45-.07-3.67.42-1.49,1.43-2.33,2.21-3.58,1.34-2.15-1.17-3.2-2.85-2.09-2.34,1.55-2.95,5.09-3.04,7.66-.03.79.22,1.72-.47,2.3-.45.37-1.03.78-1.49,1.15-1.04.83-1.94,1.72-2.37,2.98-.15.45.13,1.04.68.95ZM24.71,35.81c-.9,1.08-2.15,2.25-4.42,2.77.2-.98,1.83-2.28,2.61-2.74.8-.48,1.86-1.27,2.08-2.3.27-1.21.06-1.75.23-3,.17-1.24.46-2.54,1.04-3.66.31-.6.98-1.65,1.76-1.67.96-.02.06,1.23-.29,1.63-.61.7-1.07,1.51-1.34,2.4-.59,1.94-.57,3.51.38,5.31.13.25.41.5.82.54,1.72.15,4.03,1.43,5.32,2.58-1.54-.02-3.7-.46-5.03-1.46-.55-.41-.7.03-.55.68.41,1.76.36,2.63.22,3.59-1.5-.93-2.39-2.78-2.21-4.31.08-.67-.16-.91-.62-.36Z"/>
            <path class="cls-2" d="M35.28,46.59c-.39.14-.87.29-1.28.21-.3-.05-.57-.32-.59-.63s.15-.64.45-.73c.19-.06.38-.07.57-.1.04,0,.07-.01.1-.02-.06.02-.07.02-.02,0,.08-.02.16-.05.24-.07.36-.12.8.03.93.41s-.04.79-.41.93h0Z"/>
            <path class="cls-2" d="M35.33,49.31c-.25-.04-.5-.06-.73-.16-.39-.18-.44-.72-.1-.98.2-.15.45-.22.69-.3.46-.16.97.14,1.02.63s-.39.89-.88.81h0Z"/>
            <path class="cls-4" d="M19.1,73.22c-.7.07-.81-1.02-.11-1.09s.81,1.02.11,1.09h0Z"/>
            <path class="cls-4" d="M16.69,75.33c-.34.03-.4-.5-.05-.53s.4.5.05.53h0Z"/>
            <path class="cls-4" d="M15.26,73.58c-.34.03-.4-.5-.05-.53s.4.5.05.53h0Z"/>
          </g>
          <path class="cls-4" d="M22.14,40.36c-1.21,1.05-.88,3.02-.32,4.31.91,2.1,2.89,3.66,3.06,6.06.13,1.74-.53,3.44-1.05,5.08-.43,1.35-1.27,3.41-.55,4.78.09.18.34.08.38-.07.22-.76.15-1.59.29-2.38s.39-1.61.64-2.4c.47-1.47.98-2.95.99-4.51.02-1.97-1.02-3.5-2.1-5.06-.58-.84-1.13-1.71-1.39-2.71s-.06-1.84.37-2.79c.09-.19-.15-.47-.34-.3h0Z"/>
          <path class="cls-4" d="M31.21,44.6c-.32,1.18-.55,2.38,0,3.53.3.62.77,1.15,1.08,1.76s.47,1.32.52,2.02c.09,1.39-.27,2.72-.89,3.96-.31.61-.66,1.2-1,1.79-.31.55-.85,1.24-.93,1.88-.02.19.16.32.33.22.56-.32.99-1.08,1.34-1.61.38-.57.72-1.18.99-1.81.53-1.21.9-2.51.92-3.83.02-1.22-.28-2.5-1.01-3.5-.47-.64-1.14-1.21-1.32-2.02-.18-.77.06-1.59.25-2.33.05-.19-.24-.25-.29-.06h0Z"/>
          <path class="cls-4" d="M21.27,69.26c1.88-1.31,3.14-3.08,4.36-5,.57-.9.82-1.75.99-2.79.11-.67.28-1.28.68-1.84.29-.41.77-.75.95-1.22.06-.15-.09-.27-.23-.2-.71.35-1.32,1.5-1.57,2.21-.18.5-.22,1.04-.36,1.55-.15.55-.42,1.04-.73,1.51-1.23,1.89-2.5,4.04-4.32,5.43-.2.16,0,.49.22.34h0Z"/>
          <path class="cls-4" d="M27.83,43.49c-.24,1.47-.21,3,.3,4.42.27.76.66,1.5.78,2.3.05.34.06.7-.01,1.04-.07.36-.26.64-.41.97-.05.12.08.23.19.16.52-.31.66-1.03.68-1.59.02-.78-.25-1.52-.53-2.23-.31-.79-.59-1.57-.69-2.42s-.06-1.72.07-2.57c.04-.24-.33-.32-.37-.08h0Z"/>
        </g>
        <g>
          <path class="cls-2" d="M37.74,33.94s-1,8.87-1.5,15.86c-.5,6.99-.25,19.48,0,21.98.25,2.5.62,4.99.62,4.99,0,0-4.17,4.41-3.46,5.27s6.58,2.73,15.2,2.73,15.61-1.87,15.98-2.87-2.37-4.37-2.37-5.74.5-20.6.25-27.35c-.25-6.74-1.75-14.36-1.75-14.36l-22.98-.5Z"/>
          <g>
            <path class="cls-4" d="M64.92,79.65c-.45-1.06-.98-2.11-1.78-2.92,1.11-6.79.92-13.91.7-20.76-.11-3.51-.34-7.01-.73-10.5-.37-3.39-.57-7.05-1.51-10.34-.23-.81-1.48-.66-1.48.2,0,3.36.64,6.78.86,10.13.23,3.5.43,7,.55,10.5.23,6.92-.33,13.81-.22,20.71,0,.18.06.34.15.48.02.06.05.13.1.2.6.87,1.32,1.65,1.8,2.6.15.31.64,1.14.59,1.46-.04.3-.03.2-.37.37-1.09.52-2.91.49-4.08.65-3.55.48-7.15.62-10.73.57-3.35-.04-6.77-.03-10.09-.59-1-.17-2.5-.21-3.41-.69-.17-.09-.39-.16-.36-.09-.1-.25.57-1.61.61-1.69.47-.95,1.2-1.73,1.8-2.6.04-.06.07-.13.1-.19.1-.13.15-.3.16-.49.11-6.91-.45-13.8-.22-20.71.11-3.4.3-6.79.52-10.18.23-3.46.87-6.99.88-10.45,0-.85-1.25-1.02-1.48-.2-.91,3.18-1.1,6.73-1.48,10.02-.41,3.59-.64,7.21-.76,10.82-.22,6.85-.41,13.97.7,20.76-.81.82-1.34,1.87-1.78,2.92-.27.64-.76,1.64-.53,2.38.31,1,2.1,1.69,2.96,2.05,1.88.78,3.96,1.11,5.97,1.35,3.41.4,6.86.43,10.28.19,3.16-.22,6.71-.43,9.67-1.57.86-.33,2.91-1,3.2-2,.22-.73-.3-1.77-.57-2.39Z"/>
            <g>
              <path class="cls-4" d="M64.64,20.1c.37-1.21.81-1.93-.03-3.01-1.06-1.35-2.28-2.83-3.65-3.88-2.69-2.07-7.01-1.38-10.18-1.38-2.01,0-4.02,0-6.03.03-1.76.03-3.75-.11-5.45.44-1.3.42-2.38,1.43-3.24,2.45-.74.88-2.54,2.32-2.6,3.54-.03.57.35,1.21.52,1.74.3.93.54,1.89.71,2.86.39,2.21.42,4.48.04,6.7-.24,1.43-1.22,3.33-.62,4.77.59,1.44,2.61,1.69,3.93,1.88,7.13,1.01,14.47,1.38,21.64.5,2.76-.34,5.73-1.05,4.99-4.45-.9-4.16-1.3-8.02-.02-12.19Z"/>
              <path class="cls-4" d="M38.37,77.65c2.01.5,4.03.82,6.1.94,5.31.31,10.84.36,16.02-.94.34-.08.28-.67-.08-.63-5.12.62-10.47.7-15.62.53-2.12-.07-4.23-.28-6.33-.53-.36-.04-.43.54-.08.63Z"/>
              <path class="cls-2" d="M59.23,19.01c.28.1.59.09.88.06.31-.03.61-.09.79-.37.11-.18.02-.39-.13-.5-.22-.16-.5-.11-.75-.09s-.52.01-.78.07c-.45.1-.38.7,0,.83h0Z"/>
              <path class="cls-2" d="M36.56,18.66c2.96.39,5.92.63,8.9.72,1.91.06,3.83.07,5.74.02s4.27.09,6.2-.48c.4-.12.28-.64-.09-.69-2.06-.26-4.32.14-6.4.19-1.9.04-3.8.05-5.71.01-2.88-.06-5.77-.2-8.65-.46-.44-.04-.42.62,0,.67h0Z"/>
              <path class="cls-7" d="M57.04,48.22c-.17-2.68-2.57-3.04-4.87-3.16-2.39-.13-4.77.15-7.15.36-.47.04-1,.04-1.45.17-1.56.44-1.74,1.55-1.81,2.96-.09,1.81-.14,3.62-.14,5.43,0,3.84.22,7.66.52,11.49.06.81-.08,2.04.26,2.79.51,1.17,1.77,1.31,2.89,1.45,2.59.32,5.35.33,7.94.03,1.01-.12,1.85-.14,2.6-.82.77-.69.65-1.52.73-2.5.28-3.4.52-6.79.6-10.21.04-1.81.03-3.62-.02-5.43-.02-.85-.05-1.7-.1-2.55Z"/>
              <path class="cls-2" d="M44.29,47.24c-.94.44-1.82,1.74-1.45,2.79.14.39.43.69.86.74s.77-.15,1.03-.5c.13-.18.21-.38.29-.59,0-.02.07-.22.03-.12-.02.05-.02.05,0-.02.05-.11.09-.21.14-.32-.05.11-.01.03.03-.03s.07-.13.11-.19c.1-.15.19-.3.29-.44.25-.35.13-.9-.15-1.18-.32-.32-.79-.34-1.18-.15h0Z"/>
              <path class="cls-2" d="M53.91,66.88l.04-.09c.04-.09.09-.18.11-.28.01-.06.02-.12.02-.19.02-.07.02-.14,0-.21,0-.04,0-.08-.02-.11-.01-.03-.02-.07-.04-.1-.03-.1-.08-.18-.16-.25-.16-.15-.35-.22-.57-.23-.07,0-.19.03-.28.04-.1.01-.19.07-.28.11-.03.02-.07.03-.1.05-.14.08-.25.19-.33.33-.08.14-.13.3-.13.47.01.25.09.48.27.65.17.17.42.27.65.27.17,0,.32-.04.47-.13.14-.08.25-.19.33-.33h0Z"/>
              <path class="cls-4" d="M58.62,49.5c-.11-1.51.03-3.56-1.35-4.55-1.29-.92-3.24-.84-4.75-.95-3.04-.21-6.06-.18-9.08.28-1.63.25-2.73.89-3.04,2.61-.43,2.39-.4,4.98-.46,7.4-.05,2.56.02,5.12.19,7.67.14,2.16.18,4.61.9,6.67.53,1.52,1.72,1.98,3.21,2.24,2.4.41,4.85.53,7.28.35,1.9-.14,4.94-.1,6.01-2.02.87-1.58.86-3.9,1.01-5.65.2-2.33.32-4.68.33-7.02,0-2.35-.08-4.69-.25-7.03ZM57.17,56.21c-.08,3.42-.32,6.8-.6,10.21-.08.98.03,1.81-.73,2.5-.76.68-1.6.7-2.6.82-2.59.3-5.35.29-7.94-.03-1.12-.14-2.37-.28-2.89-1.45-.33-.76-.19-1.99-.26-2.79-.31-3.83-.52-7.65-.52-11.49,0-1.81.05-3.62.14-5.43.07-1.41.25-2.52,1.81-2.96.45-.13.98-.13,1.45-.17,2.38-.21,4.76-.49,7.15-.36,2.3.13,4.7.49,4.87,3.16.05.85.08,1.7.1,2.55.05,1.81.06,3.62.02,5.43Z"/>
            </g>
          </g>
        </g>
        <g>
          <path class="cls-1" d="M33.37,71.34c-.35-1.25-.91-3.1-2.28-3.79-.34-.17-.55-.02-.85.19-3.5,1.24-5.18,4.4-6.03,7.34-1.02,3.55,1.78,6.47,3.78,9.31.17.24.51.21.69,0,2.27-2.59,4.44-5.12,4.95-8.46.23-1.53.16-3.09-.26-4.59Z"/>
          <path class="cls-1" d="M45.61,76.86c-.18-.45-1.01-.26-1.04-.26-1.71.13-3.49.87-5.04,1.47-1.57.61-3,1.42-4.17,2.54-2.36,2.24-3.57,5.22-3.98,8.21-.12.87-.18,1.75-.21,2.62-.01.44-.17,1.23.38,1.51.57.29,1.68-.03,2.25-.17.85-.2,1.68-.46,2.48-.76,3.15-1.17,6.08-3.09,8.11-5.51,2.35-2.79,2.5-6.45,1.21-9.66Z"/>
          <path class="cls-4" d="M31.59,71.11c-.13-.81-.21-2.26-.94-2.88-.15-.13-.35-.03-.38.12-.02,0-.04.02-.06.04-.96,1.01-1.75,2.22-2.44,3.38-.68,1.14-1.14,2.36-1.29,3.64-.32,2.65.36,5.74,1.81,8.09.04.06.09.08.15.08.04.11.22.16.31.03,1.74-2.4,2.72-5.39,3.01-8.2.15-1.43.06-2.88-.17-4.3ZM26.83,75.66c.1-1.41.58-2.73,1.32-3.98.58-.98,1.37-1.83,2.05-2.74-.65,2.28-1.11,4.63-1.45,6.96-.18,1.28-.32,2.57-.43,3.86-.06.69-.16,1.42-.19,2.15-.28-.73-.59-1.46-.8-2.22-.37-1.32-.61-2.66-.51-4.02ZM31.22,75.53c-.1,1.33-.37,2.63-.8,3.91-.44,1.3-1.11,2.48-1.79,3.68.2-1.02.12-2.12.21-3.14.11-1.29.26-2.57.43-3.85.32-2.39.74-4.75,1.27-7.11.3.77.42,1.65.54,2.43.2,1.35.24,2.72.14,4.08Z"/>
          <path class="cls-4" d="M44.91,77.46c-.01-.05-.05-.09-.1-.11-.04-.09-.16-.16-.29-.1-3.05,1.45-5.86,3.41-8.04,5.78-1.06,1.15-1.88,2.42-2.51,3.79-.71,1.56-1.45,3.22-1.84,4.87-.15.25-.3.5-.42.76-.1.21.22.4.37.19.06-.09.12-.17.18-.26,0,0,.02,0,.03,0,3.17-1.46,6.43-3.11,8.53-5.73,1.13-1.4,2.04-3.01,2.86-4.56.72-1.37,1.54-3.08,1.24-4.63ZM36.9,83.22c2.03-2.18,4.59-3.98,7.36-5.42-2.62,2.81-5.22,5.63-7.81,8.46-.96,1.05-1.89,2.1-2.73,3.23-.16.21-.32.42-.48.63.98-2.41,1.74-4.85,3.66-6.91ZM43.07,82.21c-.77,1.44-1.62,2.92-2.66,4.24-1.94,2.45-4.92,3.96-7.81,5.44,3.42-4.87,7.73-9.2,11.77-13.68-.07.55-.13,1.09-.3,1.64-.25.81-.59,1.6-1,2.36Z"/>
        </g>
        <g>
          <g>
            <path class="cls-5" d="M83.28,85.15c-.12-.54-.54-1.12-.83-1.59-.36-.6-.84-1.05-1.33-1.55-.85-.88-1.29-1.29-2.45-1.67-.22-.07-6.95-1.02-7.18-1.08.87-.06,5.41.12,7.06-.6,2.32-1.01,3.09-3.44,4.23-5.56.14-.26.09-.68-.22-.82-2.12-.96-4.5-1-6.74-.16-.96.36-4.93,4.03-5.26,4.25.08-.2,3.53-3.76,3.98-4.67.61-1.23.6-2.69.42-4.04-.1-.72-.25-1.43-.43-2.14-.13-.5-.21-1.26-.63-1.62-.77-.66-2.2.22-2.92.78-1.08.84-2.19,1.89-2.89,3.15-.47.84-.92,5-1.02,6.18-.22-.56-.68-4.73-1.39-5.79-1.13-1.69-2.89-2.7-4.82-3.27-.16-.05-.37.03-.45.18-.87,1.75-1.66,3.98-1.12,5.9.31,1.09,3.11,2.87,4.27,4.63-.03,0-3.21-2.63-4.55-3.23-2.46-1.1-5.17-.54-7.62.31-.25.09-.39.36-.25.61.8,1.4,1.69,3.19,2.92,4.24,1.22,1.04,5.02,1.34,7.68,1.38-6.5.6-9.06,4.39-10.02,6.6-.09.21-.08.52.17.63,2.08.98,4.57,1.36,6.78.55,1.2-.44,3.78-2.96,4.88-4.01-.1.2-3,3.62-3.63,4.83-.82,1.58-1.05,3.15-.61,4.55.25.78.83,2.92,1.86,2.9.48-.01,1.08-.43,1.52-.64.63-.3,1.25-.65,1.82-1.07,1.07-.78,1.59-1.44,1.92-2.73.4-1.56.48-6.71.5-6.78.03.22.45,6.42.48,6.64.19,1.25.63,2.71,1.71,3.47,1.19.83,2.18.98,3.58,1.18.43.06.71.11,1.02-.19.13-.13.36-.81.36-.82.17-.4.35-.81.54-1.2.58-1.19.86-2.43.52-3.77-.42-1.62-4.71-6.29-5.02-6.78.38.2,5.54,5.5,5.96,5.62,1.5.41,2.76-.14,4.12-.74.83-.37,1.83-.66,2.59-1.15.35-.22.55-.44.45-.87Z"/>
            <path class="cls-4" d="M69.13,78c-.38-.83-1.18-1.44-2.26-1.25-1.25.23-2.05,1.66-1.8,2.88.26,1.29,1.84,1.92,3,1.48,1.32-.51,1.56-2,1.06-3.11ZM68,80.14c-.78.45-2.07.11-2.31-.85-.19-.78.59-1.56,1.31-1.7,1.38-.27,2.25,1.83.99,2.55Z"/>
            <path class="cls-4" d="M72.73,68.02c-.88-1.52-2.65-.4-3.19.77-.44.96-.58,2.07-.71,3.12-.18,1.4-.37,2.8-.58,4.2-.05.35.32.45.55.17,1.56-1.88,2.35-3,3.22-4.53.63-1.11,1.45-2.45.71-3.72ZM72.36,69.74c-.28,1.01-.95,2-1.49,2.88-.54.89-1.18,1.69-1.8,2.5.24-1.36.29-2.76.53-4.11.15-.84.28-1.95.87-2.61.44-.49,1.27-.66,1.72-.07.28.37.29.99.17,1.41Z"/>
            <path class="cls-4" d="M78.99,75.48c.49-1.68-1.54-2.2-2.75-1.78-1,.35-1.9,1.01-2.75,1.63-1.14.83-2.28,1.66-3.44,2.47-.29.2-.11.54.25.52,2.44-.16,3.79-.37,5.5-.79,1.24-.31,2.77-.64,3.19-2.05ZM77.48,76.41c-.92.5-2.1.69-3.11.91-1.01.22-2.03.31-3.05.41,1.15-.76,2.2-1.69,3.34-2.45.71-.47,1.61-1.14,2.5-1.17.66-.02,1.36.46,1.23,1.2-.08.46-.52.89-.9,1.1Z"/>
            <path class="cls-4" d="M77.72,85.21c1.57-.78.57-2.62-.57-3.23-.93-.5-2.03-.71-3.06-.91-1.39-.27-2.77-.55-4.15-.84-.35-.07-.47.29-.21.54,1.78,1.68,2.85,2.53,4.32,3.5,1.07.7,2.35,1.6,3.67.94ZM76.02,84.73c-.99-.34-1.93-1.07-2.78-1.67-.85-.6-1.61-1.28-2.38-1.96,1.34.33,2.73.46,4.07.79.83.2,1.93.4,2.55,1.04.46.47.58,1.31-.04,1.72-.39.25-1,.23-1.42.08Z"/>
            <path class="cls-4" d="M70.53,90.99c1.68.51,2.22-1.51,1.81-2.73-.33-1.01-.99-1.91-1.59-2.77-.82-1.15-1.63-2.28-2.4-3.47-.19-.3-.54-.13-.53.23.07,2.44.3,3.81.7,5.52.29,1.24.6,2.78,2.01,3.21ZM69.62,89.47c-.48-.93-.66-2.11-.87-3.12-.21-1.02-.32-2.03-.38-3.05.71,1.18,1.67,2.22,2.41,3.37.46.72,1.12,1.62,1.14,2.51.01.66-.48,1.35-1.21,1.22-.46-.08-.88-.53-1.09-.92Z"/>
            <path class="cls-4" d="M55.26,83.19c-.47,1.69,1.56,2.18,2.77,1.75,1-.36,1.89-1.03,2.73-1.66,1.13-.85,2.26-1.68,3.41-2.51.29-.21.1-.54-.26-.52-2.44.19-3.79.41-5.49.85-1.23.32-2.77.67-3.16,2.09ZM56.75,82.25c.92-.51,2.09-.71,3.1-.94,1.01-.23,2.03-.33,3.05-.45-1.14.77-2.18,1.71-3.32,2.48-.71.48-1.6,1.16-2.48,1.19-.66.03-1.36-.45-1.24-1.18.07-.46.51-.89.89-1.11Z"/>
            <path class="cls-4" d="M61.5,90.77c.9,1.51,2.65.38,3.18-.8.43-.97.56-2.08.68-3.12.17-1.4.34-2.8.54-4.2.05-.35-.33-.45-.55-.17-1.54,1.9-2.32,3.03-3.17,4.56-.62,1.11-1.42,2.46-.67,3.73ZM61.85,89.04c.27-1.01.93-2.01,1.46-2.89.53-.89,1.16-1.7,1.78-2.51-.23,1.36-.26,2.76-.49,4.11-.14.84-.26,1.95-.85,2.62-.44.5-1.26.68-1.72.08-.28-.37-.3-.98-.19-1.41Z"/>
            <path class="cls-4" d="M55.57,73.91c-1.48.94-.29,2.67.91,3.15.98.4,2.1.49,3.14.58,1.41.12,2.81.25,4.22.4.35.04.44-.34.15-.56-1.95-1.48-3.1-2.21-4.67-3.02-1.13-.58-2.51-1.34-3.75-.55ZM57.31,74.2c1.02.23,2.04.86,2.94,1.36.91.5,1.73,1.1,2.57,1.7-1.36-.18-2.77-.17-4.13-.35-.85-.11-1.96-.2-2.65-.76-.51-.42-.72-1.24-.14-1.71.36-.29.97-.33,1.4-.23Z"/>
            <path class="cls-4" d="M62.29,67.46c-1.72-.32-2.03,1.75-1.49,2.92.44.96,1.2,1.79,1.9,2.57.94,1.05,1.88,2.11,2.8,3.17.23.27.55.05.49-.31-.41-2.41-.75-3.74-1.34-5.39-.43-1.2-.91-2.69-2.36-2.96ZM63.36,68.87c.59.87.9,2.02,1.21,3.01.32.99.51,1.99.72,3-.87-1.07-1.9-2.02-2.77-3.08-.54-.66-1.3-1.49-1.41-2.37-.09-.66.33-1.4,1.07-1.35.46.03.94.42,1.18.79Z"/>
          </g>
          <path class="cls-2" d="M66.49,78.88s0,.02,0,.04l-.02-.12s0,.03,0,.05l.02-.12s-.02.09-.02.13c0,.06.02.13.04.18.01.03.03.05.04.08l-.04-.1s0,.02,0,.02v-.1c0,.06,0,.11.02.16.04.1.13.18.23.21.12.03.24,0,.35-.05.15-.07.25-.25.25-.41,0-.11-.03-.21-.08-.31-.05-.09-.16-.18-.26-.2s-.19-.02-.29.02c-.08.04-.17.1-.21.18-.05.1-.08.23-.04.34h0Z"/>
          <path class="cls-2" d="M61.4,69.2l.14.37c.06.17.23.3.42.24.16-.05.31-.24.24-.42l-.15-.37c-.07-.16-.23-.3-.41-.24-.16.05-.3.24-.24.41h0Z"/>
          <path class="cls-2" d="M62.61,71.05c.46,0,.46-.71,0-.71s-.46.71,0,.71h0Z"/>
          <path class="cls-2" d="M70.51,70.1c.46,0,.46-.72,0-.72s-.46.72,0,.72h0Z"/>
          <path class="cls-2" d="M56.75,75.66l.07.04s.1.06.15.07h.1c.05.02.1,0,.14-.02.07-.03.14-.08.18-.15.03-.06.05-.12.05-.19,0-.09-.04-.2-.11-.27s-.13-.09-.21-.13c-.09-.05-.2-.07-.29-.04-.09.02-.18.09-.23.18-.05.09-.07.2-.04.29.03.09.09.19.18.23h0Z"/>
          <path class="cls-2" d="M57.49,82.83l.03-.09c.03-.09,0-.19-.07-.25s-.17-.09-.25-.07l-.09.03c-.11.03-.19.11-.22.22s0,.23.08.3.2.11.3.08.19-.11.22-.22h0Z"/>
          <path class="cls-2" d="M74.99,76.3l.07-.08s.03-.03.04-.05c.04-.05.06-.1.07-.17,0-.06,0-.05,0-.1,0-.04-.02-.09-.04-.13l.05.17h0s0,.05-.01.08v-.05c.03-.1.01-.2-.06-.28s-.18-.1-.28-.07h-.05s.06,0,.09,0h0c.06.02.11.03.17.05-.01,0-.07-.03-.08-.04-.03,0-.07-.01-.1-.01-.06,0-.13.02-.18.05-.03.02-.06.04-.09.07l-.08.07c-.07.06-.1.17-.1.25s.04.19.1.25.16.11.25.1.19-.03.25-.1h0Z"/>
          <path class="cls-2" d="M76.33,75.27c.07-.05.14-.09.2-.15.09-.09.11-.24.05-.35-.03-.04-.06-.08-.1-.1-.03-.02-.07-.03-.11-.03-.04,0-.08,0-.11,0-.03,0-.06,0-.09.02s-.05.02-.08.03c-.05.02-.1.04-.14.08l-.05.06c-.05.09-.05.19-.02.28.03.08.09.14.17.17.09.04.2.04.28-.02h0Z"/>
          <path class="cls-2" d="M73.55,82.36l.03.02c.07.05.17.07.25.03h-.14.02c.09.02.18,0,.24-.06s.08-.15.06-.24v-.02s0,.09,0,.14c.03-.08.02-.18-.03-.25l-.02-.03s-.06-.08-.11-.11c-.05-.03-.1-.04-.15-.04-.08,0-.15.03-.21.09-.03.03-.05.06-.06.1-.02.04-.03.07-.03.12,0,.05.01.1.04.15.03.04.06.08.11.11h0Z"/>
          <path class="cls-2" d="M69.07,86.02c.02.07.05.14.09.21.1.18.38.18.48,0,.04-.07.06-.14.09-.21.06-.21-.11-.43-.33-.43s-.39.22-.33.43h0Z"/>
          <path class="cls-2" d="M62.87,89.93c.02-.07.04-.15.04-.23,0-.12-.04-.25-.13-.33l.09.15v-.05c-.04-.11-.14-.22-.25-.24-.07-.01-.1-.01-.18,0-.11.02-.21.13-.24.24v.05c.02-.05.05-.1.08-.15-.09.09-.13.21-.13.33,0,.08.02.15.04.23.03.15.19.27.34.26s.31-.1.34-.26h0Z"/>
          <path class="cls-2" d="M63.16,88.35h0s.02.03.03.05c0,0,0-.01,0-.02v.07s0-.02,0-.03v.07s0-.02,0-.03l-.03.06s.01-.02.02-.03l-.04.05s.02-.03.04-.04l.04-.05.02-.06c.01-.05,0-.1-.01-.15-.04-.09-.12-.14-.21-.14-.12,0-.22.07-.28.16-.06.09-.07.19-.05.29.01.07.07.12.12.16.07.04.16.04.23.01.07-.03.11-.07.14-.14.02-.03.02-.06.02-.1,0-.05-.01-.09-.04-.13h0Z"/>
        </g>
      </g>
    </g>
  </g>
</svg>