<?xml version="1.0" encoding="UTF-8"?>
<svg id="Capa_2" data-name="Capa 2" xmlns="http://www.w3.org/2000/svg" viewBox="0 0 100 100">
  <defs>
    <style>
      .cls-1 {
        fill: #fff;
      }

      .cls-2 {
        fill: none;
      }

      .cls-3 {
        fill: #4a2d2d;
      }

      .cls-4 {
        fill: #b3644c;
      }
    </style>
  </defs>
  <g id="COLOR">
    <g>
      <rect class="cls-2" width="100" height="100"/>
      <g>
        <g>
          <path class="cls-4" d="M89.57,64.65c-.31-1.35-1.35-2.78-2.06-3.95-.9-1.49-2.08-2.61-3.29-3.86-2.11-2.19-3.2-3.21-6.09-4.16-.55-.18-17.27-2.53-17.84-2.68,2.16-.15,13.45.3,17.54-1.49,5.76-2.51,7.68-8.54,10.52-13.83.35-.65.22-1.7-.54-2.04-5.28-2.38-11.18-2.49-16.75-.4-2.38.89-12.24,10.02-13.08,10.55.2-.48,8.78-9.34,9.88-11.59,1.51-3.06,1.49-6.68,1.03-10.03-.24-1.8-.62-3.56-1.06-5.32-.31-1.25-.52-3.13-1.57-4.03-1.91-1.64-5.46.54-7.25,1.93-2.68,2.09-5.44,4.7-7.18,7.82-1.17,2.1-2.28,12.44-2.53,15.36-.54-1.4-1.68-11.74-3.45-14.39-2.8-4.2-7.19-6.71-11.98-8.12-.39-.12-.93.07-1.12.45-2.16,4.36-4.13,9.9-2.78,14.67.76,2.71,7.73,7.13,10.6,11.49-.06-.02-7.98-6.54-11.3-8.03-6.11-2.73-12.84-1.34-18.93.78-.62.22-.96.91-.62,1.51,2,3.47,4.21,7.94,7.26,10.54,3.03,2.59,12.48,3.32,19.07,3.42-16.15,1.49-22.52,10.91-24.9,16.39-.23.53-.2,1.28.41,1.57,5.18,2.44,11.36,3.37,16.86,1.36,2.97-1.09,9.4-7.35,12.14-9.96-.26.49-7.46,8.99-9.02,11.99-2.03,3.91-2.61,7.84-1.51,11.31.61,1.93,2.06,7.26,4.62,7.2,1.2-.03,2.7-1.08,3.78-1.6,1.58-.76,3.12-1.63,4.53-2.66,2.65-1.94,3.96-3.58,4.78-6.77.99-3.86,1.18-16.67,1.24-16.84.07.54,1.11,15.96,1.19,16.5.47,3.12,1.57,6.73,4.26,8.62,2.95,2.07,5.42,2.44,8.89,2.92,1.07.15,1.75.28,2.53-.48.32-.31.9-2.02.91-2.03.43-1,.87-2.01,1.35-2.99,1.43-2.95,2.15-6.04,1.29-9.36-1.04-4.01-11.69-15.62-12.48-16.84.96.51,13.77,13.68,14.81,13.96,3.73,1.03,6.87-.34,10.24-1.85,2.06-.92,4.55-1.65,6.44-2.87.86-.55,1.38-1.09,1.13-2.17Z"/>
          <path class="cls-3" d="M54.42,46.88c-.94-2.07-2.93-3.59-5.61-3.1-3.12.57-5.09,4.14-4.48,7.15.64,3.21,4.57,4.78,7.45,3.67,3.28-1.27,3.89-4.98,2.64-7.72ZM51.6,52.2c-1.95,1.11-5.14.27-5.73-2.12-.48-1.95,1.46-3.87,3.26-4.21,3.43-.66,5.58,4.56,2.46,6.33Z"/>
          <path class="cls-3" d="M63.37,22.07c-2.19-3.77-6.59-1-7.91,1.91-1.09,2.4-1.44,5.15-1.78,7.74-.45,3.48-.92,6.95-1.44,10.42-.13.88.8,1.12,1.37.43,3.88-4.67,5.83-7.46,7.99-11.26,1.57-2.75,3.6-6.09,1.76-9.25ZM62.45,26.36c-.68,2.51-2.36,4.97-3.7,7.16-1.34,2.2-2.92,4.19-4.48,6.2.6-3.37.72-6.85,1.32-10.21.37-2.09.7-4.85,2.17-6.49,1.1-1.23,3.16-1.65,4.26-.17.69.92.72,2.45.43,3.51Z"/>
          <path class="cls-3" d="M78.9,40.63c1.22-4.18-3.82-5.46-6.84-4.42-2.49.86-4.73,2.51-6.83,4.05-2.84,2.07-5.67,4.12-8.55,6.14-.72.51-.26,1.35.63,1.29,6.06-.41,9.42-.92,13.67-1.97,3.07-.76,6.89-1.59,7.92-5.09ZM75.16,42.92c-2.29,1.23-5.22,1.71-7.73,2.25-2.52.54-5.05.77-7.58,1.02,2.86-1.88,5.46-4.2,8.31-6.08,1.77-1.17,4-2.84,6.2-2.9,1.65-.05,3.37,1.15,3.06,2.98-.19,1.14-1.28,2.21-2.25,2.73Z"/>
          <path class="cls-3" d="M75.76,64.8c3.9-1.95,1.41-6.51-1.41-8.02-2.32-1.24-5.05-1.76-7.61-2.26-3.45-.67-6.88-1.36-10.31-2.1-.87-.19-1.17.72-.52,1.34,4.42,4.17,7.08,6.29,10.73,8.69,2.65,1.74,5.85,3.97,9.12,2.35ZM71.54,63.61c-2.46-.84-4.81-2.67-6.91-4.14-2.11-1.48-3.99-3.18-5.91-4.87,3.32.81,6.79,1.15,10.1,1.96,2.06.5,4.8,1,6.34,2.58,1.15,1.18,1.44,3.25-.1,4.27-.97.63-2.49.56-3.53.21Z"/>
          <path class="cls-3" d="M57.88,79.15c4.17,1.28,5.51-3.75,4.5-6.78-.83-2.5-2.45-4.76-3.96-6.88-2.04-2.86-4.06-5.67-5.97-8.62-.48-.74-1.34-.32-1.31.58.18,6.07.75,9.46,1.75,13.72.72,3.08,1.5,6.91,4.99,7.98ZM55.64,75.38c-1.2-2.3-1.65-5.25-2.16-7.76-.51-2.53-.78-5.04-.94-7.59,1.78,2.93,4.14,5.51,5.99,8.37,1.15,1.78,2.79,4.03,2.82,6.24.03,1.65-1.19,3.35-3.01,3.02-1.13-.21-2.19-1.31-2.7-2.28Z"/>
          <path class="cls-3" d="M19.94,59.77c-1.18,4.2,3.88,5.42,6.89,4.34,2.48-.89,4.7-2.56,6.79-4.12,2.81-2.1,5.63-4.18,8.48-6.23.72-.52.25-1.35-.65-1.28-6.06.47-9.41,1.02-13.65,2.12-3.07.79-6.87,1.66-7.86,5.18ZM23.66,57.43c2.27-1.26,5.21-1.77,7.71-2.34,2.51-.57,5.04-.83,7.57-1.11-2.84,1.92-5.42,4.26-8.24,6.17-1.75,1.19-3.96,2.88-6.17,2.97-1.65.07-3.38-1.11-3.09-2.94.18-1.14,1.26-2.22,2.22-2.75Z"/>
          <path class="cls-3" d="M35.45,78.62c2.23,3.75,6.6.93,7.9-1.99,1.07-2.41,1.39-5.17,1.7-7.76.42-3.49.85-6.96,1.34-10.44.12-.88-.81-1.11-1.37-.42-3.84,4.71-5.75,7.52-7.88,11.34-1.54,2.77-3.54,6.12-1.67,9.26ZM36.32,74.32c.66-2.51,2.31-4.99,3.63-7.19,1.32-2.21,2.88-4.22,4.42-6.25-.57,3.37-.66,6.86-1.22,10.22-.35,2.09-.65,4.86-2.11,6.51-1.09,1.24-3.14,1.68-4.26.21-.7-.92-.74-2.44-.46-3.5Z"/>
          <path class="cls-3" d="M20.72,36.72c-3.67,2.35-.71,6.62,2.25,7.82,2.44.99,5.21,1.22,7.81,1.44,3.5.3,6.98.62,10.48.99.88.09,1.09-.84.37-1.39-4.84-3.68-7.7-5.5-11.6-7.5-2.82-1.45-6.24-3.33-9.31-1.37ZM25.05,37.45c2.53.58,5.06,2.14,7.31,3.39,2.26,1.25,4.31,2.74,6.39,4.21-3.39-.46-6.88-.43-10.25-.88-2.1-.28-4.87-.49-6.58-1.89-1.27-1.05-1.78-3.08-.35-4.25.89-.73,2.42-.82,3.49-.58Z"/>
          <path class="cls-3" d="M37.42,20.69c-4.29-.8-5.05,4.34-3.71,7.25,1.1,2.39,2.97,4.45,4.71,6.39,2.35,2.61,4.67,5.23,6.97,7.89.58.67,1.37.13,1.22-.76-1.01-5.99-1.86-9.28-3.33-13.4-1.06-2.98-2.27-6.7-5.86-7.36ZM40.07,24.18c1.45,2.15,2.23,5.03,3.02,7.47.79,2.45,1.27,4.94,1.78,7.44-2.16-2.65-4.73-5.02-6.88-7.65-1.34-1.64-3.22-3.69-3.51-5.88-.21-1.63.81-3.47,2.65-3.34,1.15.08,2.33,1.05,2.94,1.96Z"/>
        </g>
        <path class="cls-1" d="M47.84,49.06s.02.06.02.09l-.04-.29s0,.08,0,.12l.04-.3c-.01.1-.04.22-.04.33,0,.16.04.31.1.46.03.08.06.13.1.2l-.1-.24s.02.04.02.06l-.03-.25c.02.15.03.27.08.41.1.24.32.45.58.51.31.07.58,0,.86-.13.38-.18.62-.61.62-1.03,0-.28-.08-.53-.21-.78-.12-.23-.41-.45-.66-.51s-.48-.04-.72.06c-.21.09-.42.24-.53.45-.13.25-.21.57-.11.85h0Z"/>
        <path class="cls-1" d="M35.2,25.01c.12.31.23.62.35.93.16.41.58.74,1.04.59.4-.13.77-.6.59-1.04-.12-.31-.24-.61-.37-.92-.16-.41-.57-.74-1.03-.59-.4.13-.75.59-.59,1.03h0Z"/>
        <path class="cls-1" d="M38.22,29.62c1.13,0,1.14-1.76,0-1.76s-1.14,1.76,0,1.76h0Z"/>
        <path class="cls-1" d="M57.84,27.25c1.15,0,1.15-1.78,0-1.78s-1.15,1.78,0,1.78h0Z"/>
        <path class="cls-1" d="M23.66,41.08l.19.09c.12.06.25.14.38.16l.25.03c.13,0,.25-.02.36-.08.18-.08.35-.21.45-.38.08-.15.12-.31.13-.47.01-.22-.11-.51-.27-.66s-.33-.23-.52-.33c-.22-.12-.49-.16-.73-.1-.22.06-.46.23-.57.44-.12.22-.18.49-.1.73.07.22.22.46.44.57h0Z"/>
        <path class="cls-1" d="M25.49,58.87l.07-.23c.07-.22,0-.47-.17-.63s-.41-.23-.63-.17l-.23.07c-.26.08-.47.27-.54.54s0,.56.2.76.49.27.76.2.46-.28.54-.54h0Z"/>
        <path class="cls-1" d="M68.98,42.66l.18-.2s.07-.08.1-.12c.1-.13.15-.26.17-.41.02-.14.02-.11,0-.25-.01-.11-.04-.23-.11-.32l.11.41v-.02c0,.07-.02.14-.03.21l.03-.13c.06-.25,0-.51-.18-.7s-.44-.24-.7-.18l-.13.03.21-.03h-.02c.14.04.28.08.41.11-.03-.02-.17-.08-.21-.09-.07-.02-.18-.03-.25-.03-.15,0-.31.04-.44.12-.07.04-.15.11-.21.17l-.2.18c-.16.15-.26.41-.26.63s.1.48.26.63.39.27.63.26.47-.08.63-.26h0Z"/>
        <path class="cls-1" d="M72.3,40.11c.18-.11.35-.23.5-.38.22-.22.28-.6.11-.87-.07-.1-.15-.19-.26-.26-.08-.05-.17-.08-.27-.08-.1-.02-.19-.02-.29.01-.07.01-.14.02-.21.04s-.14.05-.2.08c-.13.04-.25.11-.35.2l-.12.16c-.14.21-.13.48-.04.71.08.2.22.34.42.42.23.1.49.09.71-.04h0Z"/>
        <path class="cls-1" d="M65.39,57.72l.09.06c.18.13.42.16.62.08h-.34.04c.22.06.44.01.6-.15s.21-.39.16-.6v-.04c0,.11,0,.23,0,.34.08-.2.04-.45-.08-.62l-.06-.09c-.07-.11-.15-.2-.27-.27-.12-.07-.24-.1-.37-.1-.2,0-.38.08-.52.22-.07.07-.12.15-.15.24-.05.09-.07.18-.06.29,0,.13.03.26.1.37.07.11.15.2.27.27h0Z"/>
        <path class="cls-1" d="M54.25,66.81c.06.18.12.35.21.52.24.45.95.45,1.19,0,.09-.17.16-.34.21-.52.16-.52-.28-1.06-.81-1.06s-.97.54-.81,1.06h0Z"/>
        <path class="cls-1" d="M38.87,76.54c.04-.19.1-.38.1-.57,0-.31-.11-.61-.33-.83l.22.38-.03-.11c-.07-.26-.3-.53-.59-.59-.19-.03-.26-.03-.45,0-.28.05-.51.32-.59.59l-.03.11.22-.38c-.22.21-.33.52-.33.83,0,.19.05.38.1.57.08.36.48.66.85.65s.76-.26.85-.65h0Z"/>
        <path class="cls-1" d="M39.57,72.61v-.02c.01.05.04.1.06.15,0-.02-.01-.04-.02-.06l.02.17s0-.05,0-.08l-.02.17s.01-.05.02-.08l-.06.15s.03-.06.05-.09l-.1.12s.06-.07.1-.09l.09-.12.06-.14c.03-.13.02-.26-.03-.38-.09-.21-.29-.35-.53-.35-.3,0-.55.16-.71.41-.14.22-.16.47-.11.73.03.16.16.3.3.39.17.11.39.11.58.03.16-.07.27-.18.34-.34.04-.08.06-.16.06-.25,0-.12-.03-.23-.09-.33h0Z"/>
      </g>
    </g>
  </g>
</svg>