<?xml version="1.0" encoding="UTF-8"?>
<svg id="Capa_2" data-name="Capa 2" xmlns="http://www.w3.org/2000/svg" viewBox="0 0 100 100">
  <defs>
    <style>
      .cls-1 {
        fill: none;
      }

      .cls-2 {
        fill: #4a2d2d;
      }

      .cls-3 {
        fill: #9bb533;
      }
    </style>
  </defs>
  <g id="COLOR">
    <g>
      <rect class="cls-1" width="100" height="100"/>
      <g>
        <path class="cls-3" d="M51.24,51.11s-.05,0-.06-.02c-.02-.02-.03-.08-.02-.17.65-4.23,2.41-8.43,4.11-12.49l.07-.17c1.63-3.9,3.48-7.71,5.49-11.33,3.9-7.04,8.84-13.96,15.09-21.18h0c.06,0,.18.08.21.17,6.21,17.88-8.15,33.85-23.66,42.83-.19.11-.34.28-.41.49-.25.67-.47,1.22-.68,1.73-.02.06-.07.15-.14.15h0Z"/>
        <path class="cls-3" d="M44.91,63.21c-.29,0-.59,0-.88-.01-.04,0-.07,0-.07-.01,0,0,0-.06.02-.1.01-.02.02-.03.06-.04.14-.03.27-.09.38-.18,0,0,.02-.02.04-.03,1.71-1.17,3.55-2.22,5.33-3.25,2.08-1.19,4.22-2.42,6.23-3.87,3.45-2.48,6.93-5.4,10.62-8.92,6.85-6.52,12.88-13.85,18.21-20.31.03-.03.11-.03.13-.03.15,0,.32.07.41.17.04.04.03.06.03.07-2.54,20.13-20.71,36.51-40.49,36.51h0Z"/>
        <path class="cls-3" d="M39.53,67.64c0-.13,0-.25-.05-.37-2.02-5.82-2.2-13.82-2.21-16.13-.02-4.89.48-9.8,1.48-14.59,1.91-9.14,5.65-17.35,11.13-24.41,0,0,.03,0,.07,0,.18,0,.33.12.35.17,1.56,7.96-.89,16.33-3.26,24.41-.3,1.02-.59,2.03-.88,3.03-3.14,11.04-5.2,19.74-6.64,28.14l.02-.23Z"/>
        <path class="cls-3" d="M33.21,84.99c-2.21,0-4.09-.17-5.6-.5-.07-.01-.13-.02-.2-.02-.19,0-.38.06-.54.17-7.43-15.37-9.9-33.73-7.14-53.13.01-.07.18-.16.37-.16.12,0,.21.03.24.07,5.7,6.33,9.34,14.8,10.52,24.51,1.06,8.7.06,18.31-2.76,26.38-.12.34-.04.71.21.97.18.19.43.3.69.3.09,0,.18-.01.27-.04.01,0,.03,0,.05-.02,9.68-2.39,17.45-7.63,25.21-13.25,6.88-4.98,14.68-10.63,23.93-12.67.03,0,.06,0,.09,0,.22,0,.48.16.58.36.06.11.05.19-.03.29-5.02,7.12-11.26,15.08-19.54,20.16-4.03,2.47-8.65,4.21-14.13,5.31-4.01.8-8.58,1.28-12.24,1.28Z"/>
        <path class="cls-2" d="M53.64,42.46c-1.98,4.25-4.21,8.45-6.45,12.03-2.74,4.36-5.52,8.69-8.41,12.95-5.62,8.3-11.45,16.5-17.9,24.19-.69.82.45,2.01,1.2,1.2,6.75-7.3,12.79-15.27,18.46-23.43,2.94-4.24,5.79-8.54,8.54-12.91,1.86-2.96,4.33-6.28,6.03-9.36-2.98,1.29-1.71-3.61-1.48-4.67Z"/>
      </g>
    </g>
  </g>
</svg>