<?xml version="1.0" encoding="UTF-8"?>
<svg id="Capa_2" data-name="Capa 2" xmlns="http://www.w3.org/2000/svg" viewBox="0 0 100 100">
  <defs>
    <style>
      .cls-1 {
        fill: none;
      }

      .cls-2 {
        fill: #79983f;
      }

      .cls-3 {
        fill: #4a2d2d;
      }
    </style>
  </defs>
  <g id="COLOR">
    <g>
      <rect class="cls-1" width="100" height="100"/>
      <g>
        <g>
          <g>
            <path class="cls-3" d="M63.47,25.68c3.47-7.36,6.87-15.05,8.72-23.01.26-1.12-1.34-1.54-1.71-.47-2.44,7.03-4.83,14.01-8.04,20.74-3.13,6.59-6.75,12.89-10.46,19.17-3.38,5.72-6.93,11.34-10.22,17.12-2.94,5.17-5.8,10.4-8.76,15.56-1.26,2.19-2.54,4.36-3.84,6.52.15-1.87.28-3.75.48-5.61.42-3.82.95-7.63,1.59-11.42,1.17-6.9,2.72-13.73,4.51-20.49,1.81-6.8,3.65-13.61,5.94-20.26,1.23-3.57,2.55-7.12,4.1-10.56,1.49-3.3,3.52-6.36,4.96-9.66.28-.63-.5-1.42-1.04-.8-2.35,2.66-4.03,6.32-5.57,9.5-1.51,3.12-2.87,6.32-4.06,9.58-2.51,6.84-4.46,13.87-6.4,20.89-1.92,6.98-3.62,14.02-4.88,21.14-1.28,7.17-2.6,14.85-2.38,22.18-1.89,2.88-4.07,5.82-5.22,8.96-.34.94.93,1.51,1.57.92,2.58-2.38,4.38-5.96,6.24-8.91,1.8-2.85,3.5-5.77,5.19-8.69,3.04-5.28,5.95-10.64,8.93-15.96,6.82-12.15,14.39-23.79,20.35-36.42Z"/>
            <path class="cls-3" d="M83.83,29.97c-10.09,9.67-19.3,20.26-27.74,31.39-4.19,5.53-8.09,11.28-11.79,17.15-1.91,3.04-3.76,6.11-5.53,9.24-1.61,2.84-3.76,6.1-4.48,9.29-.2.87.9,1.63,1.56.91,2.22-2.4,3.78-5.91,5.42-8.74,1.68-2.9,3.4-5.77,5.16-8.62,3.65-5.9,7.56-11.63,11.59-17.27,8.16-11.41,17.28-22.05,27.02-32.13.77-.79-.41-1.97-1.21-1.21Z"/>
          </g>
          <path class="cls-2" d="M52.6,5.65c-2.18,1.37-4.8,2.38-6.66,4.21-.27.26,0,.81.38.66,2.44-.92,4.47-2.83,6.68-4.18.44-.27.03-.97-.41-.7h0Z"/>
          <path class="cls-2" d="M40.81,10.22c-.32,2.48-.27,5.58.51,7.98.09.28.58.34.64,0,.44-2.59-.59-5.33-.37-7.98.04-.5-.71-.48-.77,0h0Z"/>
          <path class="cls-2" d="M47.34,16.77c-2.36,2.64-5.33,4.67-7.68,7.31-.25.28.07.75.42.54,1.64-.97,3.04-2.26,4.43-3.56,1.18-1.11,2.73-2.33,3.44-3.82.18-.37-.29-.81-.6-.46h0Z"/>
          <path class="cls-2" d="M37.69,19.39c.33,1.62.49,3.42,1.67,4.68.28.3.66-.03.61-.36-.22-1.58-1.15-2.99-1.5-4.54-.12-.51-.88-.29-.78.21h0Z"/>
          <path class="cls-2" d="M45.36,26.34c-1.81,1.15-3.72,1.71-5.7,2.47-.43.16-.34.73.11.78,2.27.25,4.57-.99,6.14-2.53.36-.36-.11-1-.55-.71h0Z"/>
          <path class="cls-2" d="M34.1,29.35c.15,1.91.48,4.28,1.82,5.75.33.37.81-.04.75-.43-.27-1.82-1.27-3.64-1.77-5.43-.12-.42-.83-.36-.79.11h0Z"/>
          <path class="cls-2" d="M40.28,37.38c-1.3,1.21-2.88,2.06-4.32,3.08-.35.25-.13.75.29.68,1.98-.33,3.43-1.62,4.63-3.16.33-.42-.19-.99-.6-.6h0Z"/>
          <path class="cls-2" d="M29.09,46.15c.7,2.43,1.24,5.19,3.03,7.1.27.29.7-.02.63-.37-.52-2.44-2.03-4.61-2.85-6.96-.17-.5-.95-.3-.8.22h0Z"/>
          <path class="cls-2" d="M35.77,51.35c-.07.42-.89.92-1.19,1.18-.43.37-.87.72-1.3,1.1-.81.72-1.55,1.46-2.01,2.46-.18.4.27.79.62.48,1.11-.99,2.27-1.91,3.37-2.91.55-.5,2.07-1.66,1.18-2.48-.2-.19-.63-.14-.68.18h0Z"/>
          <path class="cls-2" d="M33.17,59.56c-1.27,1.16-2.56,2.37-3.62,3.73-.29.37.07.96.54.7,1.58-.89,2.88-2.31,3.85-3.83.31-.48-.37-.96-.77-.59h0Z"/>
          <path class="cls-2" d="M24.04,67.62c.89,1.71,1.8,3.73,3.24,5.05.42.39.95-.09.75-.58-.75-1.76-2.2-3.32-3.29-4.88-.3-.42-.94-.06-.7.41h0Z"/>
          <path class="cls-2" d="M33.04,66.14c-1.37,1.23-2.98,2.31-4.21,3.67-.35.39.08.91.54.7,1.7-.79,3.16-2.26,4.49-3.55.54-.52-.27-1.31-.82-.82h0Z"/>
          <path class="cls-2" d="M27.74,77.7c.66-.79,1.36-1.55,2.09-2.28.68-.67,1.49-1.28,2.02-2.08.18-.27-.12-.7-.44-.57-1.86.74-3.28,2.82-4.31,4.44-.24.38.34.85.63.49h0Z"/>
          <path class="cls-2" d="M37.24,53.61c.68,2.65,1.67,5.72,3.6,7.74.32.33,1.02-.01.83-.48-1.07-2.57-2.59-4.86-3.48-7.53-.2-.6-1.11-.36-.95.26h0Z"/>
          <path class="cls-2" d="M42.86,58.8c-.47-2.78-.2-5.57-.61-8.33-.05-.37-.58-.3-.68,0-.86,2.64-.22,5.93.5,8.55.14.52.88.29.79-.22h0Z"/>
          <path class="cls-2" d="M46.88,55.13c2.94-.61,6.26-1.32,8.85-2.91.41-.25.14-.87-.32-.77-2.96.68-5.83,2.01-8.75,2.87-.52.15-.3.92.22.81h0Z"/>
          <path class="cls-2" d="M47.27,56.33c1.96.76,4.19,1.31,6.28.91.33-.06.34-.61,0-.67-2.05-.34-4.06-.44-6.07-1.02-.51-.15-.69.59-.21.78h0Z"/>
          <path class="cls-2" d="M50.13,49.79c1.79-.35,4.05-.73,5.4-2.06.26-.26,0-.69-.35-.6-.86.22-1.64.69-2.46,1.03-.91.38-1.83.68-2.8.88-.49.1-.28.85.21.75h0Z"/>
          <path class="cls-2" d="M49.35,48.18c-.38-2.05-.84-3.99-1.49-5.97-.11-.34-.64-.29-.64.09,0,2.23.43,4.18,1.31,6.23.21.5.92.12.83-.35h0Z"/>
          <path class="cls-2" d="M48.01,36.89c.64,2.1,1.57,5.06,3.46,6.35.24.16.54-.11.47-.36-.29-1.08-1.03-2-1.57-2.97-.6-1.08-1.16-2.18-1.64-3.32-.18-.41-.84-.12-.72.3h0Z"/>
          <path class="cls-2" d="M56.19,39.33c3.8-.97,8.3-2.31,11.26-5.02.43-.4-.12-.94-.58-.75-1.75.74-3.34,1.85-5.05,2.67-1.88.9-3.85,1.7-5.85,2.32-.49.15-.29.91.21.78h0Z"/>
          <path class="cls-2" d="M58.81,34.85c1.56-.14,3.48-.62,4.5-1.91.31-.39-.06-.92-.54-.7-.65.31-1.23.75-1.89,1.06-.7.33-1.42.56-2.19.71-.47.09-.37.88.11.84h0Z"/>
          <path class="cls-2" d="M55.38,28.08c-.28,2.36-.57,4.87.49,7.09.17.36.71.16.71-.19.04-2.3-.58-4.59-.43-6.9.03-.51-.73-.49-.78,0h0Z"/>
          <path class="cls-2" d="M51.76,30.98c.53,2.26,1.11,5.03,2.71,6.8.29.32.76-.02.68-.4-.49-2.27-1.88-4.4-2.63-6.61-.16-.48-.88-.29-.76.21h0Z"/>
          <path class="cls-2" d="M58.13,20.06c.64.71,1.13,1.5,1.49,2.38.32.76.45,1.59.84,2.32.18.33.7.25.8-.1.53-1.94-1.04-4.11-2.39-5.34-.5-.46-1.2.24-.74.74h0Z"/>
          <path class="cls-2" d="M62.81,28.04c2.84-1.37,6.03-2.33,8.68-4.04.4-.26.16-.96-.34-.8-3.05.95-5.85,2.82-8.74,4.16-.46.21-.06.91.4.69h0Z"/>
          <path class="cls-2" d="M66.48,18.54c1.57-.24,3.63-.7,4.78-1.86.24-.24.08-.77-.3-.74-.82.08-1.52.42-2.28.71-.82.31-1.65.58-2.47.88-.64.23-.38,1.11.28,1.01h0Z"/>
          <path class="cls-2" d="M62.02,13.08c.64,1.65.92,3.56,1.73,5.13.19.37.73.18.74-.2.05-1.74-.84-3.63-1.5-5.2-.25-.59-1.22-.35-.98.27h0Z"/>
          <path class="cls-2" d="M65.31,3.88c.47,1.14.94,2.29,1.34,3.45.4,1.16.55,2.4.97,3.54.13.35.73.45.81,0,.46-2.49-1.22-5.22-2.4-7.3-.21-.38-.9-.12-.72.3h0Z"/>
          <path class="cls-2" d="M69.51,11.34c2.34-.1,5.42-1.26,6.41-3.59.15-.34-.19-.86-.58-.58-.91.64-1.66,1.46-2.61,2.04-1.02.63-2.16,1.04-3.32,1.3-.46.1-.36.84.11.82h0Z"/>
          <path class="cls-2" d="M40.78,65.99c3.44-.17,7.05-1.07,9.96-2.97.31-.2.12-.76-.26-.63-3.27,1.13-6.38,2.21-9.8,2.85-.42.08-.33.77.1.75h0Z"/>
          <path class="cls-2" d="M40.04,68.52c1.82.06,3.88-.11,5.36-1.29.37-.29-.04-.79-.42-.72-1.69.32-3.18.95-4.94.95-.68,0-.68,1.03,0,1.05h0Z"/>
          <path class="cls-2" d="M72.3,43.58c.15-1.49.43-3.04.29-4.54-.04-.45-.6-.51-.77-.1-.59,1.44-.55,3.12-.39,4.64.06.55.81.56.86,0h0Z"/>
          <path class="cls-2" d="M75.5,37.95c-.08-1.05-.09-2.11.01-3.16.1-1.04.38-2.06.42-3.1.01-.4-.53-.52-.73-.2-1.15,1.89-.98,4.5-.51,6.57.1.45.84.36.81-.11h0Z"/>
          <path class="cls-2" d="M80.77,27.64c-.87,2.01-1.85,4.49-1.43,6.72.09.46.69.35.83,0,.4-1.01.47-2.11.7-3.17.23-1.06.5-2.12.82-3.16.16-.53-.68-.91-.91-.38h0Z"/>
          <path class="cls-2" d="M78.58,38.31c2.68.28,6.1-.04,8.14-2.01.36-.35-.01-.98-.49-.84-1.21.34-2.32.96-3.53,1.31-1.35.39-2.72.6-4.12.63-.59.02-.57.84,0,.9h0Z"/>
          <path class="cls-2" d="M65.61,49.69c-.57-1.44-.34-2.72-.42-4.21-.02-.42-.55-.56-.78-.21-.93,1.43-.46,3.4.21,4.84.26.55,1.21.15.98-.42h0Z"/>
          <path class="cls-2" d="M72.14,46.63c2.94.02,6.33-.46,8.69-2.36.42-.34-.03-1.02-.51-.88-2.79.83-5.2,1.95-8.18,2.14-.7.05-.72,1.1,0,1.1h0Z"/>
          <path class="cls-2" d="M68.78,51.67c1.75.2,3.79.46,5.49-.14.54-.19.41-.89-.13-.96-1.75-.22-3.58.09-5.36-.02-.73-.05-.7,1.04,0,1.12h0Z"/>
          <path class="cls-2" d="M62.59,57.79c2.09.84,4.87,1.47,7.04.57.49-.21.44-.9-.13-.94-2.28-.18-4.41.1-6.69-.44-.54-.13-.72.62-.22.82h0Z"/>
          <path class="cls-2" d="M61.6,59.77c.61,1.04,1.78,1.98,3.04,1.58.32-.1.44-.59.1-.76-.85-.41-1.77-.64-2.42-1.37-.35-.39-.97.11-.71.55h0Z"/>
          <path class="cls-2" d="M57.09,64.26c2.29.24,5.44.5,7.54-.64.29-.16.23-.62-.09-.7-1.17-.28-2.31-.09-3.49.03-1.33.13-2.64.25-3.97.43-.56.07-.57.82,0,.88h0Z"/>
          <path class="cls-2" d="M53.1,70.07c1.88.09,4.31.33,6.09-.4.33-.13.39-.62,0-.73-1.88-.52-4.3.02-6.19.34-.46.08-.32.76.11.78h0Z"/>
          <path class="cls-2" d="M49.47,74.7c1.15.13,2.3.3,3.45.48.91.14,1.98.21,2.79.71.51.31.95-.29.75-.75-.43-1-1.59-1.05-2.55-1.18-1.49-.19-2.94-.22-4.44-.13-.57.03-.55.81,0,.87h0Z"/>
          <path class="cls-2" d="M47.73,78.43c.96.13,1.9.34,2.83.64.84.27,1.65.69,2.54.78.4.04.57-.51.32-.76-1.31-1.33-3.81-1.5-5.57-1.5-.46,0-.6.77-.11.84h0Z"/>
        </g>
        <path class="cls-2" d="M45.19,14.61c.63-.32,1.28-.63,1.93-.91s1.33-.49,1.93-.87c.16-.1.11-.41-.1-.38-.73.09-1.4.39-2.08.68s-1.34.6-1.99.94c-.36.18-.04.72.31.54h0Z"/>
        <path class="cls-2" d="M47.11,7.69c-.36-.89-.61-1.82-.76-2.77-.08-.49-.11-.98-.18-1.47-.04-.32-.06-1.17-.61-.98-.23.08-.3.31-.34.52-.04.25-.07.52-.07.77,0,.49.05,1,.14,1.49.18.98.49,1.92.89,2.82.23.52,1.14.14.93-.39h0Z"/>
        <path class="cls-2" d="M37.95,29.73c-.2-.62-.39-1.24-.6-1.86s-.5-1.22-.8-1.79c-.11-.21-.5-.12-.46.13.08.65.19,1.29.37,1.92.18.63.39,1.24.58,1.86.08.24.33.4.58.33.24-.07.41-.34.33-.58h0Z"/>
        <path class="cls-2" d="M38.6,36.1c.79-.52,1.57-1.03,2.36-1.55.39-.25.78-.5,1.15-.77.39-.29.77-.56,1.02-.98.12-.21-.08-.4-.29-.37-.48.07-.89.32-1.29.57-.38.24-.74.5-1.11.75-.76.52-1.53,1.04-2.29,1.57-.47.32-.03,1.1.45.78h0Z"/>
        <path class="cls-2" d="M33.91,46.16c-.77-1.24-1.51-2.5-2.27-3.75-.11-.18-.44-.06-.36.15.25.69.57,1.38.92,2.02s.79,1.26,1.24,1.85c.2.26.65.03.46-.27h0Z"/>
        <path class="cls-2" d="M29.92,59.87c-.41-.74-.76-1.49-1.12-2.25s-.7-1.51-1.11-2.23c-.18-.3-.57-.08-.52.22.12.84.42,1.69.76,2.47s.76,1.52,1.2,2.25c.3.51,1.08.05.79-.46h0Z"/>
        <path class="cls-2" d="M27.87,67.98c-.06-.39-.03-.8-.11-1.19s-.18-.77-.34-1.13c-.3-.72-.73-1.43-1.37-1.9-.16-.12-.31.1-.25.25.3.66.67,1.28.94,1.95.13.33.26.67.37,1.02s.25.7.27,1.08c.01.35.54.3.49-.07h0Z"/>
        <path class="cls-2" d="M59.81,28.77c-.05-.1-.1-.21-.14-.31-.04-.09-.06-.14-.1-.25-.09-.22-.18-.44-.26-.66-.16-.45-.34-.86-.52-1.29-.06-.14-.18-.25-.34-.22-.15.02-.28.15-.27.31.02.5.08,1,.25,1.48.17.48.38.94.64,1.39.11.2.4.28.59.15.21-.14.26-.37.15-.59h0Z"/>
        <path class="cls-2" d="M64.7,22.44c.65-.19,1.3-.39,1.95-.58.31-.09.62-.2.93-.3.35-.12.7-.23,1-.45s.22-.72-.2-.72c-.37,0-.71.1-1.06.22-.31.1-.62.2-.93.31-.64.23-1.28.46-1.92.68-.22.08-.37.3-.3.54.06.22.31.37.54.3h0Z"/>
        <path class="cls-2" d="M66.61,12.39c-.22-.45-.44-.91-.67-1.36s-.52-.87-.82-1.27c-.09-.12-.24-.19-.39-.13-.14.06-.22.21-.18.37.13.52.29,1.02.51,1.51s.42.94.64,1.41c.12.25.5.33.72.19.25-.16.32-.45.19-.72h0Z"/>
        <path class="cls-2" d="M70.97,6.98c.86-.34,1.65-.8,2.38-1.37.35-.27.67-.57.96-.91s.67-.82.63-1.29c-.02-.2-.2-.38-.41-.31-.41.13-.71.52-.99.84s-.57.62-.88.9c-.6.56-1.28,1.02-2.02,1.39-.42.21-.12.94.32.76h0Z"/>
        <path class="cls-2" d="M54.26,43.94c.86-.15,1.7-.39,2.5-.74.8-.35,1.55-.78,2.13-1.44.19-.22-.04-.51-.3-.39-.75.35-1.45.78-2.2,1.12s-1.52.58-2.32.74c-.2.04-.31.27-.26.46.06.21.26.29.46.26h0Z"/>
        <path class="cls-2" d="M44.91,61.03c.78-.02,1.58-.15,2.3-.44.36-.14.72-.3,1.04-.53.34-.23.61-.53.86-.85.17-.21-.04-.5-.29-.38-.32.16-.66.3-.99.45-.3.14-.6.29-.91.41-.65.25-1.32.44-2.02.5-.22.02-.42.18-.42.42,0,.22.19.42.42.42h0Z"/>
        <path class="cls-2" d="M59.61,59.32c-.13-.88-.24-1.76-.34-2.64-.1-.9-.3-1.75-.59-2.61-.04-.12-.24-.14-.27,0-.2.9-.26,1.79-.15,2.71.11.93.28,1.85.49,2.77.05.23.32.37.54.31.25-.07.34-.31.31-.54h0Z"/>
        <path class="cls-2" d="M63.41,52.71c-.27-.47-.41-.9-.57-1.43-.04-.13-.07-.26-.1-.4s-.09-.23-.12-.36c-.07-.26-.14-.51-.22-.76-.04-.11-.22-.16-.28-.04-.13.27-.2.54-.22.84-.01.15-.04.29-.03.43,0,.17.04.34.07.5.11.58.38,1.17.69,1.67.31.51,1.09.05.79-.46h0Z"/>
        <path class="cls-2" d="M69.32,45.89c-.04-.78-.05-1.57.01-2.35.03-.39.05-.78.09-1.17s.13-.77.09-1.16c-.03-.32-.49-.53-.67-.18-.2.39-.25.82-.3,1.25-.05.4-.09.81-.08,1.22.02.84.12,1.65.32,2.47.07.29.55.24.54-.07h0Z"/>
        <path class="cls-2" d="M69.67,39.39s.03-.04,0-.04-.03.04,0,.04h0Z"/>
        <path class="cls-2" d="M76.6,41.32c.78.12,1.54.12,2.32,0,.74-.11,1.54-.35,2.06-.92.22-.24,0-.54-.29-.5-.68.09-1.32.36-1.98.5s-1.33.16-1.99.09c-.47-.05-.58.75-.11.83h0Z"/>
        <path class="cls-2" d="M64.37,54.27c1.27.49,2.58.74,3.94.77.67.01,1.37-.06,2.03-.19s1.32-.31,1.82-.73c.29-.24.04-.69-.29-.7-.61-.02-1.25.19-1.85.3-.59.11-1.18.19-1.78.24-1.24.11-2.51.04-3.72-.2-.35-.07-.47.4-.14.53h0Z"/>
        <path class="cls-2" d="M53.91,64.27c-.07-.57-.1-1.15-.17-1.73-.03-.29-.08-.58-.12-.87-.04-.27-.05-.55-.1-.83-.02-.14-.22-.12-.26,0-.08.27-.12.55-.17.83s-.09.58-.11.87c-.04.57.02,1.16.08,1.73.02.23.18.43.43.43.21,0,.46-.2.43-.43h0Z"/>
        <path class="cls-2" d="M53.04,71.98c.48.07.96.12,1.44.14.46.02.98.04,1.41-.14.14-.06.16-.26,0-.31-.44-.14-.93-.12-1.39-.14s-.93-.06-1.39-.12c-.32-.04-.4.52-.08.56h0Z"/>
        <path class="cls-2" d="M45.87,80.79c1.07.47,2.15.91,3.24,1.31,1.11.4,2.24.65,3.4.86.39.07.53-.45.16-.59-1.08-.4-2.15-.82-3.25-1.17-1.09-.35-2.17-.73-3.24-1.15-.43-.17-.74.56-.32.75h0Z"/>
        <path class="cls-2" d="M83.29,31.04c.07-.52.19-1.04.34-1.54.16-.51.39-1.02.46-1.55.04-.26-.25-.49-.46-.27-.42.42-.64,1.04-.81,1.6-.17.58-.28,1.16-.35,1.76-.03.22.21.41.41.41.25,0,.38-.19.41-.41h0Z"/>
        <path class="cls-2" d="M82.08,34.15c.91.28,1.91.42,2.87.33s2-.34,2.75-1.04c.32-.3-.02-.75-.4-.68-.82.15-1.61.45-2.44.55-.84.11-1.69.09-2.52-.09-.61-.14-.86.75-.26.94h0Z"/>
      </g>
    </g>
  </g>
</svg>