<?xml version="1.0" encoding="UTF-8"?>
<svg id="Capa_2" data-name="Capa 2" xmlns="http://www.w3.org/2000/svg" viewBox="0 0 100 100">
  <defs>
    <style>
      .cls-1 {
        fill: #897777;
      }

      .cls-2 {
        fill: none;
      }

      .cls-3 {
        fill: #4a2d2d;
      }
    </style>
  </defs>
  <g id="COLOR">
    <g>
      <g>
        <path class="cls-1" d="M59.39,9.57c-10.43-8.13-16.79-1.06-18.73,11.84-1.94,12.9-1.77,33.75,6.18,38.17,7.95,4.42,15.73-16.79,16.79-19.79,1.06-3,6.18-22.09-4.24-30.22Z"/>
        <path class="cls-1" d="M74.94,41.2c-7.6,3.36-19.97,18.55-24.03,33.58-4.06,15.02-3,19.79,9.37,18.73,12.37-1.06,21.03-11.84,26.86-20.5,5.83-8.66,7.42-16.26,6.54-20.85-.88-4.59-11.13-14.31-18.73-10.96Z"/>
        <path class="cls-1" d="M8.67,34.66c-4.24,6.54-.88,12.19,3.18,24.21,4.06,12.02,9.54,22.09,21.03,24.21,11.49,2.12,11.84-10.78,9.01-23.33-2.83-12.55-7.95-19.62-12.72-23.5-4.77-3.89-16.26-8.13-20.5-1.59Z"/>
        <path class="cls-3" d="M48.88,7.73c-2.42,2.3-4.95,5.14-5.23,8.64-.15,1.85.51,3.53.81,5.32.46,2.74-.34,5.44-.74,8.14-.63,4.26-.82,8.57-.5,12.86.27,3.74.48,8.55,2.4,11.83.19.33.72.19.72-.19,0-1.74-.52-3.43-.83-5.13-.39-2.15-.64-4.33-.77-6.51-.24-4.14-.05-8.32.63-12.41.6-3.67,1.42-6.83.58-10.54-.51-2.26-.58-4.19.57-6.3.91-1.68,2.28-3.1,3.54-4.53.7-.8-.39-1.92-1.18-1.18h0Z"/>
        <path class="cls-3" d="M50.89,57.27c-1.13-4.7-.59-8.94.79-13.5,1.23-4.06.63-7.75.77-11.9s1.25-8.38,2.06-12.52c.66-3.37,1.53-7.24.82-10.65-.17-.82-1.26-.52-1.34.18-.26,2.2-.21,4.4-.55,6.6-.31,1.99-.75,3.96-1.17,5.93-.82,3.86-1.65,7.78-1.61,11.74.02,2.26.38,4.5.12,6.75-.25,2.21-1.07,4.29-1.53,6.45-.8,3.76-.61,7.55.39,11.25.22.8,1.44.47,1.25-.34h0Z"/>
        <path class="cls-3" d="M58.26,12.24c.86,6.64,1.37,13.38.78,20.07-.31,3.5-.87,6.99-1.67,10.41-.38,1.64-.73,3.28-1.25,4.88-.45,1.39-1.27,2.81-1.16,4.29.03.42.52.66.85.35,1.12-1.07,1.42-2.76,1.87-4.21.5-1.61,1.06-3.19,1.47-4.82.84-3.35,1.43-6.74,1.76-10.18.68-7.03.47-14.12-1.29-20.97-.19-.72-1.44-.6-1.34.18h0Z"/>
        <path class="cls-3" d="M11.23,35.3c-1.17,3.94-2.05,8.28.14,12.05,1.14,1.97,2.96,3.44,4.11,5.4,1.35,2.3,2.01,5.03,2.83,7.55,1.39,4.31,2.79,8.74,5.42,12.48,2.05,2.93,5.27,6.31,8.98,6.9.8.13,1.42-.96.59-1.41-1.74-.95-3.44-1.64-4.98-2.95-1.42-1.21-2.63-2.66-3.65-4.22-2.47-3.77-3.78-8.11-5.06-12.39-1.13-3.76-2.26-6.92-4.79-9.98-1.56-1.89-2.63-3.69-2.81-6.19-.16-2.29.21-4.62.54-6.89.12-.85-1.06-1.23-1.32-.36h0Z"/>
        <path class="cls-3" d="M37.45,78.95c-2.22-4.15-4.45-8.31-6.67-12.46-1.04-1.95-2.17-3.9-2.84-6.02-.61-1.93-.59-4.01-1.4-5.88-.7-1.63-1.92-2.94-2.99-4.33-1.4-1.83-1.9-3.84-2.47-6.03-.63-2.41-2.06-5.91-5.03-5.96-.33,0-.43.44-.16.6,1.82,1.12,2.9,2.29,3.62,4.34.62,1.76.87,3.63,1.55,5.38.59,1.51,1.54,2.74,2.48,4.04,1.26,1.73,1.81,3.37,2.2,5.47.7,3.75,2.54,6.9,4.35,10.22,2.06,3.78,4.13,7.56,6.19,11.34.42.77,1.6.09,1.18-.69h0Z"/>
        <path class="cls-3" d="M16.78,33.43c3.61,1.99,6.92,4.43,9.86,7.32,1.57,1.54,2.65,3.17,3.23,5.3.46,1.71.86,3.28,1.97,4.7,1.12,1.44,2.3,2.61,2.95,4.36.65,1.76,1.13,3.62,1.63,5.43.59,2.16,1.12,4.35,1.43,6.57.28,1.96.03,4.1.53,6,.07.27.51.36.64.08,1.54-3.37.05-8.54-.85-11.95-1.02-3.89-1.91-7.62-4.57-10.71-1.64-1.9-1.85-3.95-2.73-6.19-.65-1.68-1.76-3.07-3.05-4.3-3.09-2.97-6.86-5.32-10.66-7.25-.42-.21-.78.4-.37.63h0Z"/>
        <path class="cls-3" d="M53.03,88.79c.07,0,.07-.11,0-.11s-.07.11,0,.11h0Z"/>
        <path class="cls-3" d="M53.5,86.77c.11-4.94,2.23-8.66,5.32-12.36,1.19-1.42,2.4-2.86,3.24-4.51.98-1.92,1.1-3.99,1.74-6.01,1.28-4.07,4.49-7.47,6.7-11.06,1.17-1.9,2.33-3.85,3.87-5.49,1.84-1.97,3.81-2.74,6.27-3.64.89-.33.75-1.6-.22-1.66-4.18-.26-7.74,3.83-9.83,6.96-1.37,2.05-2.53,4.22-3.92,6.27-1.39,2.05-2.89,4.03-3.91,6.29-1.04,2.29-1.12,4.85-2.15,7.12s-2.66,3.94-4.12,5.79c-2.87,3.61-4.5,7.67-4.5,12.31,0,.98,1.5.98,1.52,0h0Z"/>
        <path class="cls-3" d="M83.37,45.55c-2.67,2.56-5.06,5.93-5.76,9.63-.26,1.36-.4,2.49-1.18,3.66-.57.87-1.26,1.68-1.9,2.5-1.53,2.01-3.03,4.05-4.57,6.05-2.87,3.73-5.45,7.64-7.87,11.68-1.04,1.73-2.06,3.47-3.23,5.11-1.42,1.99-3.2,3.42-4.8,5.22-.59.66.14,1.5.9,1.17,3.45-1.48,5.79-5.65,7.65-8.72,2.49-4.13,5.01-8.22,7.66-12.24,1.42-2.15,2.91-4.21,4.52-6.22,1.13-1.4,2.17-2.72,2.81-4.42,1.71-4.46,3.36-8.95,6.76-12.42.64-.65-.34-1.63-1-1h0Z"/>
        <path class="cls-3" d="M61.76,89.89c4.88-1.3,9.49-4.58,11.68-9.22.09-.19-.16-.33-.28-.16-2.83,4.09-6.75,7.3-11.63,8.57-.53.14-.3.95.22.81h0Z"/>
        <path class="cls-3" d="M77.25,75.5c1.57-1.9,2.33-4.19,3.37-6.39.57-1.2,1.22-2.32,2.18-3.26.94-.91,2.03-1.67,2.88-2.66,1.45-1.7,1.75-3.82,1.87-5.98.06-1.14.07-2.3.33-3.41.13-.55.32-1.04.6-1.52s.56-.72.52-1.28c-.02-.3-.23-.54-.55-.55-1.85-.06-2.28,3.26-2.4,4.57-.21,2.4.1,4.97-1.41,7.02-1.48,2-3.45,3.39-4.62,5.64-1.21,2.33-1.87,4.97-3.56,7.04-.45.55.33,1.35.79.79h0Z"/>
      </g>
      <rect class="cls-2" width="100" height="100"/>
    </g>
  </g>
</svg>