<?xml version="1.0" encoding="UTF-8"?>
<svg id="Capa_2" data-name="Capa 2" xmlns="http://www.w3.org/2000/svg" viewBox="0 0 100 100">
  <defs>
    <style>
      .cls-1 {
        fill: #fff;
      }

      .cls-2 {
        fill: none;
      }

      .cls-3 {
        fill: #4a2d2d;
      }

      .cls-4 {
        fill: #c9a380;
      }

      .cls-5 {
        fill: #cdd253;
      }

      .cls-6 {
        fill: #c0c728;
      }
    </style>
  </defs>
  <g id="COLOR">
    <g>
      <rect class="cls-2" width="100" height="100"/>
      <g>
        <g>
          <path class="cls-6" d="M89.75,63.32c-3.83-3.2-8.96-3.67-13.51-5.27-5.68-2-11.01-6.19-11.41-12.64,0-.14-.04-.26-.09-.37.08-.66-.68-1.14-1.27-.64-1.88,1.59-3.55,2.99-5.74,4.16-1.94,1.04-3.96,2.01-5.57,3.53-2.53,2.39-3.77,5.83-3.38,9.22-3.12,2.23-6.41,4.9-7.87,8.54-1.37,3.42-1.31,7.68.4,10.97,2.09,4.03,6.25,6.98,10.2,8.99,4.24,2.16,8.84,3.46,13.56,4.01,9.02,1.06,19.96-.56,26.2-7.77,5.72-6.6,5.39-16.97-1.52-22.74Z"/>
          <path class="cls-3" d="M77.47,76.28c-5.01-1.29-9.11-2.44-13.84-4.18-4.35-1.6-9.6-3.08-12.37-7.47-1.4-2.21-1.92-3.73-2.3-7.05-.45,1.9-.38,3.93.3,5.88,1.75,5.06,6.72,7.18,11.29,9.11,2.73,1.15,5.54,2.17,8.37,3.04,2.83.87,5.65,1.76,8.62,1.82.84.02.8-.91-.07-1.13Z"/>
          <path class="cls-1" d="M62.45,53.13c-.28,1.56-.12,2.93.77,4.29.76,1.14,2.01,2.48,3.48,2.48.7,0,.96-.82.54-1.3-.7-.81-1.68-1.26-2.31-2.18-.59-.88-1.1-2.06-1.24-3.11-.08-.64-1.11-.95-1.25-.17h0Z"/>
          <path class="cls-1" d="M69.39,61.61c.16.07.31.14.48.2.12.04.25.04.37.02.13,0,.24-.04.35-.11l.19-.15c.09-.09.16-.19.19-.3.04-.07.06-.15.06-.24.03-.12.02-.25-.02-.37-.08-.24-.22-.42-.43-.56-.08-.05-.16-.09-.23-.14-.22-.12-.5-.16-.74-.1-.22.06-.46.23-.57.44-.12.22-.18.49-.1.74l.1.23c.09.14.2.26.34.34h0Z"/>
          <path class="cls-1" d="M86.63,69.14c.62.62,1.11,1.38,1.32,2.24.21.83.14,1.69.27,2.52.11.65,1.03.82,1.45.38,1.9-2.02.24-5.54-2-6.5-.84-.36-1.79.6-1.04,1.35h0Z"/>
          <path class="cls-1" d="M48.52,78.06c1.17,2.76,3.17,5.06,5.83,6.48,2.32,1.24,6.02,2.77,8.65,1.91.58-.19.95-1.05.4-1.5-1.9-1.55-4.71-1.52-6.94-2.47-2.63-1.12-4.71-3-6.14-5.47-.69-1.19-2.3-.15-1.79,1.05h0Z"/>
          <path class="cls-1" d="M67.34,87.78c.86.09,1.86.26,2.61-.31.43-.32.53-.83.16-1.26-.68-.78-1.82-.79-2.77-.87-.66-.06-1.22.6-1.22,1.22,0,.72.56,1.15,1.22,1.22h0Z"/>
        </g>
        <g>
          <path class="cls-4" d="M56.16,17.69c-2.71-.29-6.39,2.42-11.91,7.16-.28.24-.56.48-.83.72-.2-3.09-.56-8.45-.83-10.4-.39-2.81-.77-5.23-3.39-5.33-2.62-.1-3.58,2.23-4.46,4.07-.87,1.84-1.45,6.2-1.45,6.2,0,0-5.71-9.1-9.2-10.17-3.49-1.07-4.36,1.07-4.75,2.91-.39,1.84,2.91,4.46,4.46,8.81,1.55,4.36,2.13,10.46,2.23,11.24.1.77,17.05,4.65,17.05,4.65,0,0,.87-.58,2.42-2.13,1.55-1.55,6.78-5.04,9.3-6.78,2.52-1.74,5.52-4.07,5.42-6.68-.1-2.62-1.36-3.97-4.07-4.26Z"/>
          <path class="cls-3" d="M58.48,17.8c-3.84-2.78-8.34,1.53-11.36,3.7-1.02.73-2.01,1.49-2.99,2.28-.33-3.09-.68-6.17-.97-9.27-.21-2.23-.1-4.72-2.88-5.03-2.29-.25-4.48.41-5.53,2.54-.84,1.7-1.33,3.78-1.59,5.84-1.21-2.1-2.75-3.97-4.51-5.63-1.47-1.38-3.84-3.78-5.94-3.94-1.89-.14-3.64,2.21-4.34,3.73-1.01,2.18,1.2,3.71,2.3,5.35,1.62,2.43,2.83,4.97,3.73,7.74.89,2.72,1.15,5.23,1.19,8.01.24-.23.5-.43.76-.6.23-.15.48-.27.73-.37-.06-1.23-.36-2.44-.55-3.7-.32-2.02-.74-4.08-1.52-5.98-.79-1.94-1.64-3.87-2.75-5.66-.54-.87-1.29-1.7-1.75-2.61-.63-1.23-.18-2.56.97-3.47,1.85-1.46,4.68,1.75,5.99,3.13,1.55,1.64,2.84,3.52,3.92,5.5,2.17,3.97,2.85,8.16,2.97,12.55.3.06.59.13.89.21-.33.71.62,1.55,1.25.88,2.72-2.87,5.63-5.42,8.69-7.96,1.68-1.39,3.41-2.71,5.2-3.95.81-.56,1.8-1.38,2.86-1.97-.64,2.52,1.6,5.54,4.19,5.96-1.25,1.14-2.8,2.09-4.12,3.05-3.23,2.35-7.09,4.57-9.73,7.6-.64.73.2,2.03,1.1,1.42,2.34-1.6,4.42-3.61,6.7-5.3,2.25-1.66,4.57-3.22,6.79-4.92,3.07-2.35,3.76-6.65.32-9.14ZM37.16,11.61c.45-.31,2.27-.57,2.87-.39,1.08.33,1.4,1.18,1.53,2.12-.62.28-1.16.58-1.95.53-.99-.06-2.77-.29-3.28-1.35.2-.35.46-.67.83-.92ZM36.5,30.77c.12-3.42-.61-6.91-1.93-10.06.32-1.78.6-3.56.97-5.34.11-.54.2-1.1.33-1.64,1.34,1.29,4.34,1.95,5.83,1.12,0,0,0,.01,0,.02.12,1.04.26,2.08.37,3.12.25,2.29.35,4.59.62,6.87,0,.04.03.08.04.12-2.17,1.83-4.25,3.77-6.23,5.8ZM54.68,18.54c.52-.13,1.04-.14,1.54,0,2.22.66,3.57,3.56,2.18,5.51-1.1-.44-2.23-.63-3.09-1.57-1.1-1.19-1.09-2.55-.63-3.95Z"/>
          <path class="cls-5" d="M39.65,32.75c-1.05-.29-2.08-.51-2.97-.73-2.43-.61-5.41-1.48-7.94-1.19-5.1.58-6.9,6.86-9.05,10.62-2.92,5.1-6.6,9.47-8.28,15.21-1.63,5.56-1.99,11.41-2.7,17.13-.65,5.28-1.25,10.55,2.86,14.6,3.49,3.43,8.35,3.58,12.25.72,4.64-3.41,6.73-9.52,9.02-14.56,1.3-2.84,2.68-5.62,4.32-8.28,1.52-2.46,3.08-4.9,4.13-7.61,1.27-3.28,1.78-6.84,2.47-10.28.63-3.12,1.33-6.23,1.87-9.37.68-3.88-2.72-5.36-5.99-6.25Z"/>
          <path class="cls-3" d="M25.95,41.83c-.13-.4-.49-.77-.36-1.22.16-.54.77-.68,1.26-.52.41.13.93.51,1.03.95.17.78-.59.8-1.03,1.09-.18.12-.19.38,0,.5.76.48,1.81-.35,1.99-1.12.22-.98-.64-1.93-1.5-2.26s-1.84-.14-2.37.63c-.49.73-.31,1.88.5,2.3.24.12.57-.08.48-.37h0Z"/>
          <path class="cls-3" d="M21.8,45.68c.67.77,1.84.34,2.18-.54.35-.89-.5-1.78-1.4-1.64-.4.06-.88.36-.98.77-.05.19.04.4.22.48.21.1.38-.02.54-.15.25-.21.9-.47.9.11,0,.55-.74.75-1.14.53-.28-.15-.53.19-.33.42h0Z"/>
          <path class="cls-3" d="M38.27,38.83c.24-.29.76-.37,1.12-.25s.47.55.42.88-.33.56-.67.54-.49-.35-.81-.4c-.18-.03-.36.04-.41.23-.19.72.84,1.03,1.38.98.71-.07,1.21-.62,1.39-1.29.19-.71-.14-1.56-.86-1.81-.77-.27-1.59.1-2.05.73-.21.29.26.65.49.38h0Z"/>
          <path class="cls-3" d="M33.71,43.71c.06,0,.11-.01.17-.04.05-.02.1-.05.14-.09.04-.04.07-.09.09-.14.03-.05.04-.11.04-.17l-.02-.11c-.02-.07-.06-.14-.11-.19l-.09-.07c-.07-.04-.14-.06-.22-.06-.06,0-.11.01-.17.04-.05.02-.1.05-.14.09-.04.04-.07.09-.09.14-.03.05-.04.11-.04.17l.02.11c.02.07.06.14.11.19l.09.07c.07.04.14.06.22.06h0Z"/>
          <path class="cls-3" d="M35.33,48.55c.19-.62,1.06-1.03,1.44-.32.17.31.05.62-.21.83-.32.27-.58.19-.95.1-.45-.11-.83.23-.51.66.35.47,1.09.47,1.58.27,1.1-.45,1.6-1.98.55-2.78-1-.75-2.35-.11-2.65,1.02-.13.48.61.69.75.21h0Z"/>
          <path class="cls-3" d="M24.5,51.4c.18-.47.08-1.19.59-1.48s1.32.03,1.7.39c.54.51.25,1.42-.29,1.85-.42.33-.97.12-1.44.35-.17.08-.19.34-.06.46.7.68,1.93.27,2.47-.41.7-.87.96-2.05.07-2.88-.66-.61-1.69-.79-2.49-.34-.71.4-1.73,1.22-1.18,2.13.16.26.51.18.62-.08h0Z"/>
          <path class="cls-3" d="M19.33,56.17c-.12-.64.25-1.4.94-1.45.59-.04,1.23.31,1.39.9.13.48-.06.95-.43,1.26-.47.4-1.03.36-1.62.37-.38,0-.53.52-.19.72,1.93,1.12,4.12-1.43,2.82-3.2-.48-.66-1.67-1.08-2.44-.69-.8.41-1.45,1.4-1.16,2.28.15.44.78.26.69-.19h0Z"/>
          <path class="cls-3" d="M25.34,61.95c.1-.79.84-1.48,1.64-1.41.71.06,1.52.72,1.43,1.49-.08.7-.76,1.13-1.41,1.09-.55-.03-.95-.42-1.48-.47-.31-.03-.47.31-.43.56.2,1.16,2.01,1.26,2.88.95,1.15-.41,1.96-1.66,1.56-2.87-.81-2.43-5.14-2.18-4.78.66.05.38.55.38.6,0h0Z"/>
          <path class="cls-3" d="M30.53,55.06h-.02c-.12-.04-.24-.04-.36,0-.11.03-.21.09-.3.17-.08.08-.14.18-.17.3-.03.12-.03.24,0,.36v.02c.06.23.25.41.48.47.12.03.24.03.36,0,.12-.03.22-.09.3-.17.08-.08.14-.18.17-.3.03-.12.03-.24,0-.36-.06-.23-.25-.41-.47-.47h0Z"/>
          <path class="cls-3" d="M34.76,56.06c-.84.36-1.23,1.36-.87,2.2.38.89,1.46,1.31,2.36,1.02.95-.31,1.63-1.24,1.43-2.26-.19-1-1.26-1.67-2.19-1.12-.22.13-.19.51.07.57.5.12,1.12.07,1.27.68.14.58-.34,1.23-.88,1.39-1.14.33-1.87-1.21-.82-1.85.42-.25.05-.82-.37-.64h0Z"/>
          <path class="cls-3" d="M29.59,67.53c.73,0,.73-1.13,0-1.13s-.73,1.13,0,1.13h0Z"/>
          <path class="cls-3" d="M16.73,64.25c-.06,1.1.91,1.73,1.91,1.78,1.11.05,1.87-.85,1.92-1.91.05-1.07-.56-2.03-1.66-2.18-.91-.12-1.94.68-2.15,1.57-.09.38.43.61.63.27.3-.51.55-.91,1.22-.89.6.02.91.43.95,1.03.04.56-.2,1.07-.77,1.19-.67.14-1.41-.21-1.51-.92-.05-.32-.52-.22-.54.07h0Z"/>
          <path class="cls-3" d="M15.58,73.5c.03-.61-.27-1.37.26-1.84.5-.45,1.32-.2,1.72.26.41.47.63,1.41,0,1.8-.31.19-.79.22-1.14.17-.4-.05-.58-.27-.86-.53-.14-.13-.4-.09-.44.12-.29,1.38,1.78,1.53,2.64,1.24,1.27-.42,1.47-1.98.86-3.02-.58-1-1.87-1.57-2.91-.9-.89.57-1.45,2.06-.73,2.94.2.24.56.03.57-.24h0Z"/>
          <path class="cls-3" d="M24.31,78.27c-.08-.94-1.06-1.37-1.91-1.13-.81.23-1.29,1.38-1.01,2.14.27.75,1.14,1.3,1.93,1.07s1.27-1.19.9-1.93c-.1-.21-.48-.17-.52.07-.06.39-.02.84-.45,1.06-.38.19-.68-.04-.88-.35-.19-.29-.12-.81.13-1.07.31-.32.95-.17,1.1.24.13.35.75.34.71-.1h0Z"/>
          <path class="cls-3" d="M25.04,72.99c.2-.46.62-1,1.05-1.27.7-.43,1.28.57,1.29,1.17.01,1.5-2.36,1.52-2.41.08-.01-.37-.5-.41-.62-.08-.43,1.12.51,1.95,1.58,2.05,1.05.1,2.03-.61,2.21-1.66.17-.96-.45-2.08-1.41-2.37-1.09-.33-2.04.8-2.41,1.66-.21.49.51.92.73.43h0Z"/>
          <path class="cls-3" d="M16.45,80.78c-.86.3-1.09,1.34-.79,2.15.32.85,1.54,1.4,2.38,1.03.74-.33,1.2-1.44.9-2.18-.32-.78-1.32-1.63-2.18-1.11-.23.14-.23.61.08.65.45.06.86.01,1.19.4.33.4.22.88-.1,1.27-.34.41-.97.26-1.33-.07-.31-.28-.45-1.2.06-1.37.47-.17.27-.93-.21-.76h0Z"/>
          <path class="cls-1" d="M28.77,36.63c.14,0,.26-.02.38-.09.12-.04.23-.11.32-.21.1-.09.17-.2.21-.32.06-.12.09-.25.09-.38l-.04-.26c-.05-.17-.13-.32-.26-.44l-.2-.16c-.16-.09-.32-.14-.5-.14-.14,0-.26.02-.38.09-.12.04-.23.11-.32.21-.1.09-.17.2-.21.32-.06.12-.09.25-.09.38l.04.26c.05.17.13.32.26.44l.2.16c.16.09.32.14.5.14h0Z"/>
          <path class="cls-1" d="M29.16,45.48l.02.18c.01.12.01.25.06.36.02.1.07.18.14.26.05.08.12.15.21.19.18.1.38.13.58.08.17-.04.32-.14.46-.22.3-.17.48-.5.48-.85s-.19-.67-.48-.85-.69-.18-.99,0c-.15.09-.26.2-.35.35-.09.15-.13.32-.13.49h0Z"/>
          <path class="cls-1" d="M14.52,60.39c1.48,0,1.48-2.3,0-2.3s-1.48,2.3,0,2.3h0Z"/>
          <path class="cls-1" d="M21.17,69.94v.17c0,.09,0,.18.05.25.03.08.07.15.14.21.13.12.29.2.47.19h.17c.07-.02.15-.03.22-.04l.2-.08c.1-.05.17-.12.23-.21.05-.05.09-.11.11-.18.04-.06.06-.13.06-.21.02-.07.02-.15,0-.22,0-.07-.02-.14-.06-.21-.03-.1-.09-.19-.17-.26l-.17-.13-.2-.08-.22-.03-.22.03-.2.08c-.1.05-.17.12-.23.21-.05.05-.09.11-.11.18-.05.1-.08.2-.07.32h0Z"/>
          <path class="cls-1" d="M39.14,52.13h-.17c-.06.01-.13.03-.18.06-.06.02-.11.05-.15.1-.08.08-.14.22-.14.33s.05.25.14.33l.1.07c.07.04.15.06.24.06h.17c.07.02.13,0,.19-.03.06-.02.11-.05.16-.1.05-.04.08-.1.1-.16.03-.06.04-.12.04-.19,0-.13-.05-.26-.14-.34-.09-.08-.22-.15-.34-.14h0Z"/>
          <path class="cls-1" d="M11.97,80.5c1.35,0,1.35-2.09,0-2.09s-1.35,2.09,0,2.09h0Z"/>
        </g>
      </g>
    </g>
  </g>
</svg>