<?xml version="1.0" encoding="UTF-8"?>
<svg id="Capa_2" data-name="Capa 2" xmlns="http://www.w3.org/2000/svg" viewBox="0 0 100 100">
  <defs>
    <style>
      .cls-1 {
        fill: #5a992f;
      }

      .cls-2 {
        fill: #fff;
      }

      .cls-3 {
        fill: none;
      }

      .cls-4 {
        fill: #a83c19;
      }

      .cls-5 {
        fill: #4a2d2d;
      }

      .cls-6 {
        fill: #f7bc3b;
      }

      .cls-7 {
        fill: #d9472e;
      }
    </style>
  </defs>
  <g id="COLOR">
    <g>
      <g>
        <path class="cls-7" d="M34.06,12.56s-.58,25.22-.58,26.29-2.34,3.64-3.49,4.75c-1,.98-2.13,2.72-2.33,5.92s-.29,33.18.29,37.93.19,6.21,5.34,8.15,10.67,1.9,15.43.19c4.5-1.62,5.06-3.05,5.53-6.31s.29-23.96.39-30.46c.1-6.5.24-11.68-1.07-13.68-1.06-1.63-4.37-3.49-4.85-6.01s-1.07-26.1-1.07-26.1l-13.58-.68Z"/>
        <path class="cls-4" d="M35.88,32.43c2.06.57,4.33.92,6.47.92,1.46,0,2.9-.25,4.27-.74.56-.2,1.1-.47,1.61-.76-.32-7.77-.59-18.6-.59-18.6l-13.58-.68s-.25,11.05-.43,18.83c.66.51,1.41.81,2.24,1.04Z"/>
        <path class="cls-4" d="M27.57,53.15c-.1,7.06-.11,21.97.13,29.83,2.55,1.33,6.99,3.08,12.88,3.21,6.97.16,11.83-2.14,13.97-3.41.12-7.62,0-19.18.07-23.76.03-2.07.05-4.06.03-5.85-1.98.88-6.43,3.04-13.13,2.89-6.55-.14-11.51-1.63-13.96-2.92Z"/>
        <g>
          <path class="cls-7" d="M82.87,88.82c-2.11-1.43-9.05-6.75-11.23-10.28-2.19-3.52-1.64-17.67-1.64-21.25,0-.8.18-1.51.02-2.1-.76-.09-1.81-.41-2.42-.82-.45-.31-.82-.73-1.23-1.08-.02.29-.04.58-.1.87-.11.56-.31,1.12-.54,1.65-.26.63-.6,1.4-1.12,1.87-.31.28-.74.29-1.02-.04-.27-.31-.25-.73-.3-1.11-.09-.6-.18-1.2-.19-1.8,0-.28.02-.56.05-.84-.47.28-.95.52-1.45.76-.65.31-1.34.61-2.06.65-.61,2.66-2.25,10.47-1.6,14.8.79,5.28,4.07,12.81,11.47,18.15,7.41,5.34,13.78,7.22,16.15,6.25,2.37-.97-.38-4.05-2.79-5.69Z"/>
          <path class="cls-5" d="M72.24,54.94c-.56-1.24-1.56-2.04-2.69-2.78-.51-.33-1.13-.69-1.63-1.02-.76-.51-.59-1.48-.7-2.28-.35-2.59-1.32-6.12-3.84-7.45-1.81-.96-4.24.36-2.67,2.4.91,1.19,2.02,1.94,2.59,3.41.46,1.2.53,2.48.29,3.72-.07,0-.13,0-.21.03-2.57.75-4.48,2.29-6.05,4.43-.3.41.11.89.53.92,1.77.13,3.57-.34,5.09-1.26-.03,1.1.1,2.19.41,3.28.1.34.51.52.82.33,1.56-.92,2.4-2.57,2.61-4.31,1.43.99,3.06,1.51,4.86,1.62.57.03.79-.6.59-1.03ZM65.89,53.09c.33,1.53-.38,3.49-1.81,4.58-.24-.96-.38-1.84-.14-3.66.09-.68-.11-1.11-.62-.64-1.25,1.14-3.39,1.8-4.95,1.97,1.19-1.29,3.4-2.82,5.13-3.14.41-.08.67-.36.77-.62.78-1.91.65-3.51-.14-5.41-.36-.87-.9-1.65-1.59-2.29-.39-.37-1.42-1.55-.45-1.62.79-.06,1.58.93,1.95,1.51.69,1.08,1.11,2.36,1.41,3.6.3,1.25.14,1.82.53,3.01.33,1.02,1.48,1.72,2.34,2.12.83.4,2.61,1.55,2.91,2.52-2.35-.3-3.74-1.37-4.75-2.37-.51-.51-.74-.24-.59.42Z"/>
          <path class="cls-2" d="M59.73,64.35c.4.1.91.2,1.32.09.29-.08.55-.38.53-.7s-.21-.63-.53-.7c-.2-.04-.39-.03-.59-.05-.04,0-.07,0-.11,0,.06.01.07.01.02,0-.08-.01-.17-.03-.25-.05-.37-.08-.81.11-.9.51s.11.8.51.9h0Z"/>
          <path class="cls-2" d="M59.94,67.11c.25-.06.5-.11.73-.24.37-.22.37-.77,0-1-.22-.13-.48-.18-.73-.24-.48-.12-.97.24-.97.74s.49.86.97.74h0Z"/>
          <path class="cls-5" d="M75.86,89.97c.72,0,.72-1.11,0-1.11s-.72,1.11,0,1.11h0Z"/>
          <path class="cls-5" d="M78.5,91.87c.35,0,.35-.55,0-.55s-.35.55,0,.55h0Z"/>
          <path class="cls-7" d="M79.78,89.96c.35,0,.35-.55,0-.55s-.35.55,0,.55h0Z"/>
        </g>
        <g>
          <path class="cls-6" d="M49.23,80.36c-1.45,1-3.48,1.18-5.21,1.27-.12,0-.24.01-.37.02-1.66.07-3.34.02-4.99-.11-.19-.01-.38-.03-.57-.04-1.49-.12-3.13-.58-4.37-1.55-1.46-1.14-2.47-3.09-2.83-5.44-.6-3.88,1.28-7.36,1.62-7.65.34-.29.27.37.76,1.55.49,1.18,1.5,2.25,2.46,3.04.46.39.23-.19-.43-1.55-.66-1.36-1.22-3.96.2-7.05,1.42-3.1,5.8-4.7,6.38-4.47s-.68,2.44-.86,4.62c-.19,2.19.45,4.48,1.7,4.71,1.25.23,1.83-3.04,2.03-3.37.21-.33,1.02.07,2.31,3,1.3,2.94.12,5.2.12,5.2,0,0,.58-.48,1.31-1.57.73-1.09.96-3.07,1.55-3.13.59-.06,1.69,1.14,1.99,5.86.14,2.33-.89,5.34-2.8,6.65Z"/>
          <path class="cls-7" d="M44.58,80.24c-.16.47-.33.95-.56,1.39-.12,0-.24.01-.37.02-1.66.07-3.34.02-4.99-.11-.46-.84-.83-1.74-1.06-2.68-.39-1.58-.36-3.33.23-4.84.89,1.14,1.78,2.29,2.67,3.43-.21-2.43-.5-4.86-.85-7.27,1.76,1.87,2.99,4.34,3.49,6.99.65-.93,1.23-1.93,1.72-2.98.91,1.83.38,4.1-.28,6.06Z"/>
        </g>
        <path class="cls-1" d="M41.04,3.5c-2.04-.05-5.13.2-6.81,1.4s-1,11.03-.85,11.46c.33.97,1.84,2.91,7.85,2.92,6.62,0,7.47-2.28,7.66-2.92s.48-9.51-.37-10.77-3.97-2-7.48-2.08Z"/>
        <path class="cls-5" d="M33.74,6.34c1.03.77,2.44,1.14,3.67,1.41s2.56.41,3.86.4,2.59-.17,3.85-.48c.65-.16,1.28-.35,1.91-.59s1.25-.44,1.74-.85-.05-1.09-.57-.97c-.58.14-1.12.47-1.68.67s-1.15.38-1.74.52c-1.18.28-2.39.42-3.61.44s-2.37-.1-3.53-.35c-1.22-.26-2.34-.78-3.54-1.08-.56-.14-.79.56-.37.88h0Z"/>
        <path class="cls-5" d="M33.03,16.93c.86,1.2,2.15,1.81,3.52,2.27s2.84.7,4.3.74,2.94-.14,4.34-.56c.7-.21,1.39-.48,2.05-.79s1.52-.69,1.93-1.35c.27-.44-.17-.84-.6-.78-.66.09-1.26.58-1.86.86s-1.25.51-1.89.7c-1.23.35-2.51.52-3.79.51s-2.55-.19-3.79-.48-2.65-.66-3.59-1.6c-.31-.31-.89.1-.62.48h0Z"/>
        <path class="cls-5" d="M35.47,6.69c-.18,3.76-.33,7.59-.1,11.35.02.29.45.29.45,0,.03-3.79-.06-7.56.1-11.35.01-.29-.43-.29-.45,0h0Z"/>
        <path class="cls-5" d="M39.75,7.76c-.18,1.93-.2,3.86-.2,5.8s0,3.88.17,5.8c.03.3.48.31.48,0,0-1.93-.12-3.86-.13-5.8s.06-3.86.05-5.8c0-.25-.35-.24-.38,0h0Z"/>
        <path class="cls-5" d="M43.49,7.66c-.04,1.91-.02,3.82-.06,5.73-.02.94-.04,1.87-.08,2.81s-.12,1.94-.04,2.91c.01.19.31.26.35.05.38-1.83.33-3.8.36-5.66s.04-3.89-.09-5.83c-.02-.28-.43-.28-.44,0h0Z"/>
        <path class="cls-5" d="M46.67,6.64c.04,1.94.17,3.87.24,5.8.03.93.05,1.86.08,2.8s-.07,1.94.07,2.86c.04.23.42.23.46,0,.15-.92.04-1.93.04-2.86s-.02-1.86-.05-2.8c-.06-1.94-.12-3.88-.32-5.8-.03-.32-.52-.34-.52,0h0Z"/>
        <path class="cls-5" d="M50.82,51.27c.34,0,.68-.07.99-.19.17-.06.34-.14.5-.23.06-.04.13-.08.19-.12.12-.08.19-.17.24-.3.01-.03.02-.07.03-.1.07-.24-.13-.53-.39-.51-.13,0-.25,0-.37.08-.05.03-.1.07-.15.1-.11.07-.23.13-.35.18l.11-.05c-.21.09-.43.15-.66.18l.13-.02c-.09.01-.18.02-.26.02-.24,0-.48.21-.47.47s.21.48.47.47h0Z"/>
        <path class="cls-5" d="M50.95,49.36c.26-.07.51-.19.73-.33.06-.04.12-.09.18-.13.04-.03.07-.06.11-.09.05-.04.08-.09.13-.15.03-.04.06-.09.09-.14.02-.04.04-.08.06-.12.03-.07.04-.15.05-.22.01-.12-.07-.25-.16-.32-.1-.08-.23-.11-.35-.07-.07.02-.14.05-.2.09-.04.03-.07.05-.11.07-.11.07-.2.15-.3.23l.1-.08c-.15.12-.31.21-.49.29l.12-.05c-.07.03-.14.05-.21.08-.12.04-.23.11-.29.22s-.09.26-.05.37.11.23.22.29.25.09.37.05h0Z"/>
        <path class="cls-5" d="M51.19,91.76l.67-.36c.11-.06.22-.11.31-.19.07-.05.15-.1.22-.17.05-.05.09-.1.14-.14.12-.12.16-.33.06-.48-.1-.15-.26-.22-.44-.18l-.19.04c-.06.01-.12.04-.18.06-.15.06-.28.13-.42.2l-.66.37c-.22.12-.32.45-.18.67.15.23.43.31.67.18h0Z"/>
        <path class="cls-5" d="M29.65,81.94l.25.04c.08.01.16.02.24.03h.12s.08,0,.11-.01c.06-.01.1-.04.15-.08.03-.02.06-.04.08-.08.04-.04.06-.09.08-.15l.02-.11-.02-.11c-.01-.06-.04-.1-.08-.15-.03-.05-.07-.08-.12-.11l-.1-.05c-.07-.04-.14-.07-.22-.09l-.24-.08c-.07-.02-.13-.02-.2,0-.07,0-.13.02-.19.06-.06.03-.1.07-.14.13-.04.05-.07.1-.09.17l-.02.13c0,.09.02.17.07.25l.08.1c.06.06.14.1.22.13h0Z"/>
        <path class="cls-5" d="M28.44,77.85c.16.06.32.12.49.16l.25.06s.08.02.13.03c.09.02.15.02.24.01.18-.01.34-.1.41-.28s.04-.36-.09-.49c-.05-.05-.11-.11-.17-.15-.04-.02-.08-.04-.12-.06l-.23-.12c-.19-.1-.4-.17-.6-.26-.07-.02-.15-.03-.22-.01-.07,0-.14.03-.21.07-.12.07-.23.2-.26.34-.03.14-.03.3.06.43s.19.21.34.26h0Z"/>
        <path class="cls-2" d="M32.95,43.5c-2.18,1.97-3.87,5.47-3.11,8.46.3,1.19,2.07,1.17,2.38,0s.17-2.42.49-3.6,1.01-2.34,1.81-3.27c.93-1.08-.5-2.55-1.58-1.58h0Z"/>
        <path class="cls-5" d="M45.61,22.94l.33-.15.08-.04c.07-.03.12-.08.17-.13l.11-.13c.05-.06.1-.12.12-.2l.02-.12c0-.06-.01-.12-.04-.17-.01-.04-.03-.07-.06-.1-.02-.03-.05-.06-.08-.08-.03-.03-.06-.05-.1-.06-.05-.03-.11-.04-.17-.04h-.17s-.03-.02-.05-.01l-.15.02h-.02s-.06.03-.08.04l-.34.13c-.1.03-.18.08-.25.15l-.09.12c-.05.09-.08.19-.08.29,0,.08.01.15.05.22.02.07.06.13.12.18.05.06.11.1.18.12.07.04.14.05.22.05.1,0,.2-.03.29-.08h0Z"/>
        <path class="cls-5" d="M45.99,26.3l.17-.08s.03-.01.04-.02c.01,0,.03-.02.04-.03l.08-.05.1-.08s.08-.1.1-.16c.02-.04.03-.08.03-.12.01-.06.01-.13,0-.19l-.05-.12-.08-.1s-.1-.08-.16-.1c-.06-.03-.12-.04-.19-.04h-.09s-.03-.02-.05-.02-.03,0-.05,0h-.19c-.1,0-.2.04-.29.09-.09.05-.16.12-.21.21l-.06.14c-.03.1-.03.21,0,.31.02.08.05.14.1.2.04.06.1.11.16.15.09.05.19.08.29.08.1,0,.2-.03.29-.08h0Z"/>
      </g>
      <rect class="cls-3" width="100" height="100"/>
    </g>
  </g>
</svg>