<?xml version="1.0" encoding="UTF-8"?>
<svg id="Capa_2" data-name="Capa 2" xmlns="http://www.w3.org/2000/svg" viewBox="0 0 100 100">
  <defs>
    <style>
      .cls-1 {
        fill: #fff;
      }

      .cls-2 {
        fill: none;
      }

      .cls-3 {
        fill: #ef2b45;
      }

      .cls-4 {
        fill: #4a2d2d;
      }
    </style>
  </defs>
  <g id="COLOR">
    <g>
      <rect class="cls-2" width="100" height="100"/>
      <g>
        <g>
          <path class="cls-3" d="M68.89,50.74c-.02-.79-.02-1.58-.02-2.43,0-2.38.01-4.84-.54-7.08-.56-2.24-2.35-3.63-4.09-4.98-.31-.24-.62-.48-.93-.73-.4-.32-.81-.64-1.26-.97-.99-.74-2.01-1.51-2.78-2.38-.7-.8-.64-1.83-.57-2.93,0-.04,0-.07,0-.11.02,0,.05,0,.06,0,2.36-.24,3.44-1.44,3.51-3.91,0-.13,0-.27.02-.46.07-1.86.19-4.67-1.99-5.18-.99-.23-2.14-.25-3.22-.25h-.41c-.6-.99-1.29-1.91-1.97-2.8l-.41-.54c-.16-.21-.34-.42-.53-.64-.36-.41-.72-.83-.94-1.27-.4-.81-.39-1.64-.38-2.51,0-.23,0-.46,0-.69,0-.36,0-.73,0-1.14.03-2.06.06-4.4-1.45-5.56-.15-.11-.69-.49-1.4-.49-.47,0-.91.17-1.31.49-1.49,1.22-1.47,3.55-1.45,5.62,0,.37,0,.73,0,1.08,0,.23,0,.46,0,.69.01.87.02,1.7-.37,2.51-.22.44-.58.87-.94,1.27-.19.22-.37.42-.53.64l-.39.51c-.68.9-1.38,1.83-1.99,2.83h-.45c-1.09,0-2.23.02-3.22.25-2.18.5-2.06,3.32-1.99,5.21,0,.15.01.29.02.42.07,2.47,1.16,3.68,3.51,3.91.02,0,.05,0,.07,0,0,.03,0,.06,0,.09.07,1.1.13,2.14-.58,2.93-.78.87-1.8,1.63-2.79,2.37-.44.33-.86.64-1.27.97-.3.24-.62.49-.93.73-1.74,1.34-3.54,2.72-4.11,4.96-.57,2.24-.57,4.7-.58,7.08,0,.84,0,1.64-.03,2.43-.13,3.99-.2,7.54-.23,10.88-.06,7.66.09,14.64.46,21.34.02.36.04.74.05,1.13.14,3.39.31,7.61,3.65,9.22,1.97.95,4.15,1.48,6.26,1.99l.41.1c2.79.68,5.68,1.03,8.6,1.03s5.77-.34,8.56-1l.42-.1c2.11-.5,4.29-1.02,6.26-1.96,3.35-1.6,3.54-5.82,3.7-9.21.02-.39.04-.76.06-1.12.4-6.69.59-13.67.56-21.33-.01-3.33-.07-6.89-.18-10.88Z"/>
          <path class="cls-1" d="M59.35,59.53c-.2-.14-2.92-5.7-8.55-5.91-5.63-.2-12.22,4.62-12.9,10.18-.68,5.57,2.1,12.36,10.59,13.71s12.29-5.16,12.56-9.03c.27-3.87-1.7-8.96-1.7-8.96Z"/>
          <path class="cls-1" d="M35.49,40.9c3.22.76,6.51,1.26,9.81,1.44,2.82.16,6.6.57,9.21-.63.36-.17.27-.79-.11-.86-1.34-.26-2.66.02-4.02.11-1.56.1-3.13.13-4.69.1-3.35-.06-6.65-.45-9.94-1.11-.62-.12-.88.8-.26.95h0Z"/>
          <path class="cls-1" d="M57.72,41.42l.94-.12c.32-.04.65-.07.93-.24.36-.22.28-.76-.12-.88-.54-.16-1.21.04-1.75.1-.31.04-.57.23-.57.57,0,.28.26.61.57.57h0Z"/>
          <path class="cls-4" d="M59.97,58.97c-1.22-2.22-2.97-4.11-5.24-5.15-6.95-3.22-15.52,1.98-17.34,9.06-1.32,5.15.74,10.64,5.16,13.63,4.69,3.17,11.94,2.94,16.06-1.06,2.38-2.31,3.47-5.61,3.39-8.88-.06-2.52-.75-5.24-2.04-7.59ZM55.95,74.95c-5.13,3.62-13.37,1.49-16.32-3.93-4.01-7.36,1.75-16.62,10.01-16.8,9.88-.21,14.15,15.2,6.32,20.72Z"/>
          <path class="cls-4" d="M48.89,5.01s-.03.07-.04.1c-.01.03-.03.06-.04.1-.02.07-.03.15-.03.22,0,.16.04.27.11.41.04.07.09.13.15.19l.17.13c.1.06.2.09.31.1.07.02.15.02.22,0,.08,0,.15-.02.21-.06.1-.03.19-.09.27-.17l.13-.17.08-.2c.03-.11.04-.22.01-.33,0-.08-.02-.15-.06-.21-.02-.07-.06-.13-.11-.18-.06-.09-.14-.16-.23-.22l-.2-.08-.22-.03-.22.03c-.11.03-.2.08-.28.15-.09.06-.16.14-.22.23,0,0,0,0,0,0l.13-.17s0,.01-.02.01l.16-.12s-.01,0-.02.01l.18-.08s-.01,0-.02,0l.2-.03s-.01,0-.02,0l.19.03s-.01,0-.02,0l-.18-.02c-.09,0-.18.02-.26.06-.06.02-.11.05-.15.09-.07.05-.13.11-.18.19h0Z"/>
          <path class="cls-4" d="M42.47,19.53c2.36.38,4.74.55,7.13.54,2.33,0,4.89-.08,7.15-.68.57-.15.02-.71-.49-.71-2.23.03-4.38.14-6.68.16-2.34.02-4.13-.11-6.52-.16-.52-.01-1.19.74-.57.84h-.03Z"/>
          <path class="cls-4" d="M48.07,30.41c3.83.09,7.62-.18,11.36-1.08.71-.17.53-.83-.22-.76-3.86.36-6.86.75-10.75.65-3.1-.07-6.68-.33-9.69-.75-.49-.07.3.85.79.97,2.09.48,5.41.89,8.51.97Z"/>
          <path class="cls-1" d="M40.27,24.23c.24-.03.5-.04.73-.13.46-.17.87-.39,1.11-.84s.22-1.12-.19-1.48-.83-.5-1.35-.49c-.36,0-.71.11-1.06.18-.73.16-1.23,1.06-1,1.76.11.35.33.68.66.86.37.19.7.2,1.1.14h0Z"/>
          <path class="cls-1" d="M45.5,23.88c1.59,0,1.59-2.47,0-2.47s-1.59,2.47,0,2.47h0Z"/>
        </g>
        <path class="cls-4" d="M54.83,70.93c-.46-.53-1.26-1.22-2.74-2.38-.63-.49-1.85-1.52-2.67-2.26-.88-.76-1.56-1.34-1.81-1.58.31-.29,1.16-1.01,1.99-1.7.74-.59,1.87-1.56,2.2-1.84.69-.61,1.13-.99,1.21-1.05.38-.24,1.09-.95,1.09-1.32,0-.42-.24-.56-.5-.67-.13-.04-.22-.07-.37-.07h0c-.51-.04-1.04.39-2.49,1.75-1.84,1.69-3.46,2.99-4.05,3.36-.06-.54-.13-1.76-.13-2.48,0-.4.06-.92.11-1.14.13-.43.15-.6-.01-.85-.12-.26-.4-.56-1.06-.49-.63.03-.84.44-.96,1.04-.11.49-.23,6.79-.28,11.1-.03,1.31.02,1.87.65,2.05.1.04.24.06.38.06.26,0,.54-.06.7-.17.44-.3.51-.81.44-3.42-.01-1.04-.03-2.11.06-2.36,0,0,0,0,0,0,.05.02.33.17.64.36.58.41,3.35,2.79,4.16,3.57.54.57,1.73,1.53,2.2,1.78.39.19,1.02.22,1.34-.06.49-.46.27-.8-.11-1.23Z"/>
      </g>
    </g>
  </g>
</svg>