<?xml version="1.0" encoding="UTF-8"?>
<svg id="Capa_2" data-name="Capa 2" xmlns="http://www.w3.org/2000/svg" viewBox="0 0 100 100">
  <defs>
    <style>
      .cls-1 {
        fill: #a36545;
      }

      .cls-2 {
        fill: #fff;
      }

      .cls-3 {
        fill: none;
      }

      .cls-4 {
        fill: #fad380;
      }

      .cls-5 {
        fill: #4a2d2d;
      }
    </style>
  </defs>
  <g id="COLOR">
    <g>
      <g>
        <g>
          <path class="cls-4" d="M28.99,22.43s.28,3.51,0,3.8-5.6,4.65-6.36,11.01c-.76,6.36-.66,30.08,0,37.86.66,7.78-.47,12.52,6.36,17.17,6.83,4.65,18.41,4.46,28.46,3.98,10.06-.47,16.7-3.23,19.54-7.97,2.85-4.74,2.37-40.32,2.37-44.78s0-8.44-3.32-12.81c-2.36-3.1-3.32-4.17-3.32-4.17l-.19-3.8-43.55-.28Z"/>
          <path class="cls-1" d="M53.19,6.82s-4.84-.14-13.47.52c-7.86.6-11.29,2.37-11.67,3.51s0,11.76.09,12.52,10.53,4.65,25.33,3.89c14.8-.76,19.26-3.13,19.73-3.61s1.05-11.54.38-12.62c-1.9-3.04-8.44-3.84-20.4-4.22Z"/>
          <path class="cls-2" d="M26.9,35.37c3.29,2.03,6.97,3.41,10.77,4.12,3.53.66,7.69,1.24,11.17.09,1.32-.44,1-2.19-.32-2.33-3.5-.36-6.95.06-10.47-.57-3.49-.63-6.83-1.74-10.07-3.15-1.23-.54-2.28,1.1-1.08,1.85h0Z"/>
          <path class="cls-2" d="M60.5,39.04c2.72.31,6.38.24,8.72-1.39.99-.69.37-2.1-.8-1.9-1.28.22-2.49.75-3.78.97-1.37.24-2.76.24-4.14.12s-1.38,2.04,0,2.2h0Z"/>
          <path class="cls-2" d="M73.14,36.4l.42-.34.16-.21.11-.25c.06-.23.04-.47-.05-.69-.16-.39-.54-.64-.96-.65h-.57c-.44-.02-.87.24-1.09.61-.2.35-.22.75-.06,1.12s.44.62.82.73c.22.06.45.06.67,0,.21-.06.4-.17.56-.32h0Z"/>
          <path class="cls-2" d="M27.73,49.94s11.52,3.69,24.33,3.59c12.55-.09,21.82-3.59,21.82-3.59l-.42,27.53s-8.09,4.81-22.93,4.53-22.27-4.9-22.27-4.9l-.54-27.16Z"/>
          <path class="cls-5" d="M73.35,88.78l1.19-.53c.19-.09.39-.18.58-.27.22-.11.42-.25.61-.4.15-.12.17-.4.07-.56-.11-.18-.31-.26-.52-.21-.45.11-.85.34-1.26.56l-1.13.62c-.21.12-.3.42-.16.63.15.23.39.27.63.16h0Z"/>
          <path class="cls-5" d="M74.52,85.71l.5-.29c.08-.05.16-.11.24-.17.06-.05.13-.1.19-.15.04-.03.07-.07.11-.11.14-.13.17-.38.07-.54s-.31-.26-.5-.2c-.22.06-.44.14-.64.25l-.51.28c-.12.06-.21.19-.25.32s-.02.3.05.41.18.21.32.25.28.02.41-.05h0Z"/>
          <path class="cls-5" d="M25.72,41.88c.19.02.38.04.57.06.05,0,.1,0,.15-.03.05-.02.09-.04.12-.08l.06-.08s.04-.09.05-.14c0-.03,0-.07,0-.1,0-.05-.02-.1-.05-.14l-.06-.08s-.1-.08-.17-.1c-.18-.07-.37-.15-.55-.22-.08-.02-.16-.02-.25,0l-.11.05c-.07.04-.13.1-.17.17-.03.05-.05.11-.06.17-.01.06-.01.12,0,.18.01.06.04.11.08.16.03.05.08.09.13.12.07.04.15.06.23.06h0Z"/>
          <path class="cls-5" d="M25.44,46.02c.63,0,.63-.98,0-.98s-.63.98,0,.98h0Z"/>
          <path class="cls-5" d="M27.69,11.61c1.7,1.86,4.31,2.81,6.69,3.41,3.25.82,6.6,1.31,9.93,1.63,6.62.62,13.3.19,19.83-1.03,1.8-.34,3.62-.7,5.37-1.25.82-.25,1.62-.55,2.4-.89s1.52-.69,2.11-1.32c.53-.57.01-1.56-.78-1.34-.7.2-1.32.55-1.98.86-.62.29-1.27.53-1.92.74-1.47.48-2.98.81-4.49,1.13-3.18.65-6.39,1.13-9.62,1.37-6.36.48-12.76.06-19.05-.98-1.45-.24-2.88-.52-4.28-1-1.29-.44-2.64-.97-3.62-1.94-.4-.39-.99.2-.61.61h0Z"/>
          <path class="cls-5" d="M27.69,23.52c1.7,1.86,4.31,2.81,6.69,3.41,3.25.82,6.6,1.31,9.93,1.63,6.62.62,13.3.19,19.83-1.03,1.8-.34,3.62-.7,5.37-1.25.82-.25,1.62-.55,2.4-.89s1.52-.69,2.11-1.32c.53-.57.01-1.56-.78-1.34-.7.2-1.32.55-1.98.86-.62.29-1.27.53-1.92.74-1.47.48-2.98.81-4.49,1.13-3.18.65-6.39,1.13-9.62,1.37-6.36.48-12.76.06-19.05-.98-1.45-.24-2.88-.52-4.28-1-1.29-.44-2.64-.97-3.62-1.94-.4-.39-.99.2-.61.61h0Z"/>
          <path class="cls-5" d="M30.06,13.3c.06,3.58.26,7.17.39,10.74,0,.24.37.24.37,0,.04-3.57-.01-7.18-.34-10.74-.02-.26-.42-.27-.42,0h0Z"/>
          <path class="cls-5" d="M34.58,14.65c.02,1.83.06,3.65.1,5.48l.06,2.74c.02.83-.08,1.77.13,2.58.04.16.3.17.34,0,.18-.81.03-1.75,0-2.58l-.07-2.74c-.04-1.83-.1-3.65-.16-5.48,0-.27-.42-.27-.41,0h0Z"/>
          <path class="cls-5" d="M40.99,15.65c-.03,1.83,0,3.65,0,5.48,0,.91,0,1.83-.02,2.74,0,.42-.01.84-.02,1.26s-.08.91.08,1.32c.06.15.3.23.39.05.33-.69.18-1.67.2-2.42.02-.95.03-1.9.03-2.84,0-1.86-.01-3.72-.14-5.58-.02-.33-.51-.33-.51,0h0Z"/>
          <path class="cls-5" d="M49.17,16.14c0,1.81,0,3.63.02,5.44l.02,2.72c0,.83-.06,1.76.16,2.57.05.2.36.2.41,0,.21-.82.13-1.73.12-2.57l-.02-2.72c-.02-1.81-.04-3.63-.08-5.44,0-.4-.62-.4-.62,0h0Z"/>
          <path class="cls-5" d="M55.13,16.07c.06,1.88.08,3.77.07,5.65,0,.91-.02,1.82-.02,2.72,0,.81-.11,1.8.17,2.57.07.2.35.21.42,0,.24-.79.12-1.75.12-2.57,0-.91,0-1.82.01-2.72,0-1.89-.03-3.77-.24-5.65-.04-.32-.53-.34-.52,0h0Z"/>
          <path class="cls-5" d="M61.87,15.79c0,1.74-.03,3.48-.02,5.22,0,.87.02,1.74.03,2.61s-.03,1.67.12,2.49c.05.27.5.27.54,0,.13-.82.08-1.66.07-2.49-.01-.87-.02-1.74-.03-2.61-.02-1.74-.09-3.48-.14-5.22-.01-.37-.57-.37-.57,0h0Z"/>
          <path class="cls-5" d="M68.19,14.08c-.06,1.9-.12,3.79-.18,5.69-.03.91-.06,1.83-.1,2.74s-.19,1.9,0,2.8c.05.25.41.22.48,0,.27-.88.21-1.89.25-2.8s.07-1.83.09-2.74c.05-1.9.06-3.79.03-5.69,0-.36-.54-.36-.55,0h0Z"/>
          <path class="cls-5" d="M72.19,12.86c-.13,1.77-.2,3.54-.29,5.31-.04.87-.08,1.74-.11,2.6s-.15,1.82-.06,2.71c.03.25.44.36.48.07.13-.84.09-1.72.11-2.56.02-.9.05-1.8.07-2.71.04-1.8.11-3.61.13-5.41,0-.22-.33-.22-.34,0h0Z"/>
        </g>
        <g>
          <path class="cls-5" d="M42.88,73.04c-.18-.02-.35-.16-.51-.42-.16-.25-.23-.49-.22-.71-.02-.8-.05-1.74-.08-2.81-.03-1.07-.08-2.34-.14-3.81-.56.7-1.12,1.39-1.69,2.06-.57.67-1.16,1.34-1.76,2-.37.41-.71.59-1.01.52-.44-.09-.75-.36-.91-.8-.39-.8-.8-1.57-1.21-2.3-.42-.73-.84-1.47-1.26-2.21-.28.87-.51,1.73-.7,2.59-.19.86-.32,1.71-.4,2.55,0,.15-.06.28-.17.37-.1.09-.2.14-.28.14-.24,0-.45-.1-.63-.31-.18-.21-.27-.41-.26-.59,0-.51.06-1.06.17-1.66.11-.59.25-1.18.41-1.78.16-.59.32-1.17.5-1.75.18-.57.34-1.09.5-1.55.16-.52.42-.72.78-.62.22.07.39.2.5.39.11.19.14.43.07.71.53.86,1.04,1.71,1.52,2.57.49.86.98,1.71,1.47,2.57.72-.72,1.43-1.48,2.13-2.27.7-.79,1.44-1.55,2.22-2.3.05-.14.15-.28.31-.42.15-.13.31-.22.47-.25.16-.03.32.05.46.25.15.2.23.42.26.65.06,1.4.11,2.79.13,4.18.02,1.39.06,2.78.1,4.17,0,.26-.08.47-.24.62-.17.15-.34.22-.52.19Z"/>
          <path class="cls-5" d="M46.08,72.62c-.1.22-.22.42-.37.6-.15.17-.3.27-.45.28-.32.04-.56-.02-.71-.19-.15-.17-.2-.36-.14-.59.21-.8.51-1.63.88-2.51.37-.88.77-1.75,1.21-2.62.43-.87.89-1.72,1.35-2.55.47-.82.92-1.58,1.37-2.25.07-.11.16-.17.25-.19.09-.02.17-.01.24.02.07-.05.16-.1.26-.14.1-.04.2-.06.29-.05.04,0,.09,0,.14.02.05.02.1.06.16.13.05.07.12.17.2.3.08.13.17.32.28.56.19.7.42,1.41.7,2.15.27.73.57,1.47.88,2.2.05-.01.09-.03.12-.03.04,0,.08-.02.12-.03.17-.02.36-.01.57,0,.21.02.36.11.44.27.1.2.09.38-.03.53-.12.15-.34.31-.66.47.21.43.43.85.65,1.26.22.41.45.8.69,1.19.02.07.05.17.09.31.04.14.06.28.08.43.01.14,0,.27-.02.4-.03.12-.09.21-.19.25-.11.05-.23.04-.36,0-.13-.05-.25-.12-.36-.2-.12-.08-.22-.18-.31-.28-.09-.1-.16-.19-.21-.27-.29-.44-.56-.89-.81-1.34-.25-.45-.49-.91-.71-1.37-.65.11-1.37.2-2.15.26-.78.06-1.54.08-2.3.06-.21.51-.41,1-.61,1.48-.2.48-.4.97-.58,1.46ZM49.8,64.23c-.7,1.38-1.36,2.76-1.96,4.13,1.03.03,2.13-.05,3.3-.24-.54-1.24-.98-2.54-1.34-3.88Z"/>
          <path class="cls-5" d="M59.53,67.77c-.03.22-.05.55-.06.96,0,.42,0,.86.01,1.31.01.46.03.9.06,1.32.03.42.05.75.08.98.05.39-.19.62-.72.68-.18.02-.35,0-.52-.07-.16-.07-.26-.21-.28-.44-.05-.57-.09-1.19-.1-1.86-.02-.67-.02-1.36-.01-2.07-.63-.81-1.19-1.63-1.71-2.43-.51-.81-.94-1.56-1.28-2.25-.06-.12-.12-.25-.16-.39-.04-.14-.06-.27-.06-.4,0-.12.03-.23.08-.32.05-.09.15-.15.28-.19.15-.02.3-.02.45,0,.15.02.29.11.41.25.13.28.3.59.5.94.2.35.41.71.64,1.07.22.36.45.71.68,1.03.23.33.43.6.61.83.59-.88,1.11-1.79,1.57-2.72.46-.93.87-1.82,1.22-2.66.13-.3.29-.48.48-.54.19-.06.35-.05.49.04.12.06.21.18.27.37.06.18.06.36.02.52-.16.44-.36.93-.59,1.47-.24.53-.49,1.07-.75,1.6-.27.54-.54,1.07-.82,1.59-.28.52-.54.99-.78,1.4Z"/>
          <path class="cls-5" d="M70.66,65.65c.02.39-.03.79-.17,1.19-.14.4-.32.79-.54,1.17-.23.38-.5.72-.81,1.03-.31.31-.64.57-.99.78-.64.38-1.32.62-2.03.69-.71.08-1.38-.06-2-.42-.43-.31-.76-.68-.99-1.13-.23-.44-.38-.91-.46-1.4-.08-.49-.08-.98-.02-1.46.06-.48.17-.92.32-1.32.18-.48.42-.89.72-1.24.3-.35.65-.6,1.07-.75.11-.05.2-.05.29.02.09.06.15.15.17.25.11-.16.31-.31.59-.45.28-.14.61-.22.99-.27.69-.09,1.28-.05,1.76.14.48.19.88.45,1.19.79.31.34.54.72.68,1.16.14.43.22.84.24,1.22ZM65.15,64.19c-.26.18-.47.41-.61.69-.15.27-.26.57-.32.89-.07.32-.09.65-.06,1,.03.35.09.68.18.99.14.46.38.81.72,1.05.34.24.81.3,1.4.17.34-.08.67-.21.97-.41.31-.19.57-.42.8-.67.23-.26.42-.54.58-.86.16-.32.27-.63.32-.95.03-.17.04-.36.03-.59-.02-.23-.07-.46-.14-.68-.08-.22-.2-.43-.36-.61-.16-.18-.37-.31-.62-.4-.36-.12-.75-.14-1.17-.07-.43.07-.84.26-1.26.58-.07.07-.17.1-.29.1-.12,0-.17-.08-.18-.22Z"/>
        </g>
      </g>
      <rect class="cls-3" width="100" height="100"/>
    </g>
  </g>
</svg>