<?xml version="1.0" encoding="UTF-8"?>
<svg id="Capa_2" data-name="Capa 2" xmlns="http://www.w3.org/2000/svg" viewBox="0 0 100 100">
  <defs>
    <style>
      .cls-1 {
        fill: #fff;
      }

      .cls-2 {
        fill: none;
      }

      .cls-3 {
        fill: #4a2d2d;
      }

      .cls-4 {
        fill: #f7bc3b;
      }
    </style>
  </defs>
  <g id="COLOR">
    <g>
      <rect class="cls-2" width="100" height="100"/>
      <g>
        <path class="cls-4" d="M69.67,51.05c-.02-.79-.02-1.58-.02-2.43,0-2.38.01-4.84-.54-7.08-.56-2.24-2.35-3.63-4.09-4.98-.31-.24-.62-.48-.93-.73-.4-.32-.81-.64-1.26-.97-.99-.74-2.01-1.51-2.78-2.38-.7-.8-.64-1.83-.57-2.93,0-.04,0-.07,0-.11.02,0,.05,0,.06,0,2.36-.24,3.44-1.44,3.51-3.91,0-.13,0-.27.02-.46.07-1.86.19-4.67-1.99-5.18-.99-.23-2.14-.25-3.22-.25h-.41c-.6-.99-1.29-1.91-1.97-2.8l-.41-.54c-.16-.21-.34-.42-.53-.64-.36-.41-.72-.83-.94-1.27-.4-.81-.39-1.64-.38-2.51,0-.23,0-.46,0-.69,0-.36,0-.73,0-1.14.03-2.06.06-4.4-1.45-5.56-.15-.11-.69-.49-1.4-.49-.47,0-.91.17-1.31.49-1.49,1.22-1.47,3.55-1.45,5.62,0,.37,0,.73,0,1.08,0,.23,0,.46,0,.69.01.87.02,1.7-.37,2.51-.22.44-.58.87-.94,1.27-.19.22-.37.42-.53.64l-.39.51c-.68.9-1.38,1.83-1.99,2.83h-.45c-1.09,0-2.23.02-3.22.25-2.18.5-2.06,3.32-1.99,5.21,0,.15.01.29.02.42.07,2.47,1.16,3.68,3.51,3.91.02,0,.05,0,.07,0,0,.03,0,.06,0,.09.07,1.1.13,2.14-.58,2.93-.78.87-1.8,1.63-2.79,2.37-.44.33-.86.64-1.27.97-.3.24-.62.49-.93.73-1.74,1.34-3.54,2.72-4.11,4.96-.57,2.24-.57,4.7-.58,7.08,0,.84,0,1.64-.03,2.43-.13,3.99-.2,7.54-.23,10.88-.06,7.66.09,14.64.46,21.34.02.36.04.74.05,1.13.14,3.39.31,7.61,3.65,9.22,1.97.95,4.15,1.48,6.26,1.99l.41.1c2.79.68,5.68,1.03,8.6,1.03s5.77-.34,8.56-1l.42-.1c2.11-.5,4.29-1.02,6.26-1.96,3.35-1.6,3.54-5.82,3.7-9.21.02-.39.04-.76.06-1.12.4-6.69.59-13.67.56-21.33-.01-3.33-.07-6.89-.18-10.88Z"/>
        <path class="cls-1" d="M60.13,59.84c-.2-.14-2.92-5.7-8.55-5.91-5.63-.2-12.22,4.62-12.9,10.18-.68,5.57,2.1,12.36,10.59,13.71,8.49,1.36,12.29-5.16,12.56-9.03.27-3.87-1.7-8.96-1.7-8.96Z"/>
        <path class="cls-1" d="M36.27,41.21c3.22.76,6.51,1.26,9.81,1.44,2.82.16,6.6.57,9.21-.63.36-.17.27-.79-.11-.86-1.34-.26-2.66.02-4.02.11-1.56.1-3.13.13-4.69.1-3.35-.06-6.65-.45-9.94-1.11-.62-.12-.88.8-.26.95h0Z"/>
        <path class="cls-1" d="M58.5,41.74l.94-.12c.32-.04.65-.07.93-.24.36-.22.28-.76-.12-.88-.54-.16-1.21.04-1.75.1-.31.04-.57.23-.57.57,0,.28.26.61.57.57h0Z"/>
        <path class="cls-3" d="M60.75,59.29c-1.22-2.22-2.97-4.11-5.24-5.15-6.95-3.22-15.52,1.98-17.34,9.06-1.32,5.15.74,10.64,5.16,13.63,4.69,3.17,11.94,2.94,16.06-1.06,2.38-2.31,3.47-5.61,3.39-8.88-.06-2.52-.75-5.24-2.04-7.59ZM56.73,75.26c-5.13,3.62-13.37,1.49-16.32-3.93-4.01-7.36,1.75-16.62,10.01-16.8,9.88-.21,14.15,15.2,6.32,20.72Z"/>
        <path class="cls-3" d="M54.92,62.78c-.04-1.06-.14-2.37-.24-2.72-.07-.21-.27-.39-.53-.48-.3-.1-.62-.08-.86.07-.08.05-.23.21-.81,1.02-.98,1.44-1.93,2.72-2.26,3.08-.3-.35-1.19-1.53-2.29-3.13-.29-.43-.63-.86-.73-.95l-.04-.03c-.17-.09-.39-.13-.52-.13-.24,0-.57.1-.71.31-.27.33-.38,1.47-.5,7.26h0q-.03,4.19.27,4.36c.24.11.65,0,.87-.17.39-.33.4-.47.47-4.08v-.13c.05-3.17.12-4.38.16-4.85.01.01.02.03.03.04.08.11.19.25.29.4.11.16.23.33.32.45.44.68,1.51,2.12,1.78,2.36.2.16.35.21.55.21.23,0,.41-.04.6-.21.3-.22,1.38-1.63,1.85-2.35.19-.28.46-.65.62-.86,0-.01.02-.03.03-.04.04.45.11,1.65.16,4.87.03,3.55.04,3.83.46,4.18.15.14.35.22.55.22.04,0,.08,0,.13-.01.19-.03.34-.15.43-.33.08-.24,0-6.69-.09-8.38Z"/>
        <path class="cls-3" d="M49.67,5.32s-.03.07-.04.1c-.01.03-.03.06-.04.1-.02.07-.03.15-.03.22,0,.16.04.27.11.41.04.07.09.13.15.19l.17.13c.1.06.2.09.31.1.07.02.15.02.22,0,.08,0,.15-.02.21-.06.1-.03.19-.09.27-.17l.13-.17.08-.2c.03-.11.04-.22.01-.33,0-.08-.02-.15-.06-.21-.02-.07-.06-.13-.11-.18-.06-.09-.14-.16-.23-.22l-.2-.08-.22-.03-.22.03c-.11.03-.2.08-.28.15-.09.06-.16.14-.22.23,0,0,0,0,0,0l.13-.17s0,.01-.02.01l.16-.12s-.01,0-.02.01l.18-.08s-.01,0-.02,0l.2-.03s-.01,0-.02,0l.19.03s-.01,0-.02,0l-.18-.02c-.09,0-.18.02-.26.06-.06.02-.11.05-.15.09-.07.05-.13.11-.18.19h0Z"/>
        <path class="cls-3" d="M43.25,19.84c2.36.38,4.74.55,7.13.54,2.33,0,4.89-.08,7.15-.68.57-.15.02-.71-.49-.71-2.23.03-4.38.14-6.68.16-2.34.02-4.13-.11-6.52-.16-.52-.01-1.19.74-.57.84h-.03Z"/>
        <path class="cls-3" d="M48.85,30.72c3.83.09,7.62-.18,11.36-1.08.71-.17.53-.83-.22-.76-3.86.36-6.86.75-10.75.65-3.1-.07-6.68-.33-9.69-.75-.49-.07.3.85.79.97,2.09.48,5.41.89,8.51.97Z"/>
        <path class="cls-1" d="M41.05,24.54c.24-.03.5-.04.73-.13.46-.17.87-.39,1.11-.84s.22-1.12-.19-1.48c-.39-.35-.83-.5-1.35-.49-.36,0-.71.11-1.06.18-.73.16-1.23,1.06-1,1.76.11.35.33.68.66.86.37.19.7.2,1.1.14h0Z"/>
        <path class="cls-1" d="M46.28,24.19c1.59,0,1.59-2.47,0-2.47s-1.59,2.47,0,2.47h0Z"/>
      </g>
    </g>
  </g>
</svg>