<?xml version="1.0" encoding="UTF-8"?>
<svg id="Capa_2" data-name="Capa 2" xmlns="http://www.w3.org/2000/svg" viewBox="0 0 100 100">
  <defs>
    <style>
      .cls-1 {
        fill: #d9b229;
      }

      .cls-2 {
        fill: #fff;
      }

      .cls-3 {
        fill: none;
      }

      .cls-4 {
        fill: #4a2d2d;
      }

      .cls-5 {
        fill: #bb735e;
      }
    </style>
  </defs>
  <g id="COLOR">
    <g>
      <rect class="cls-3" width="100" height="100"/>
      <g>
        <path class="cls-5" d="M56.65,24.06c-1.35-.08-2.71-.22-4.06-.12-1.57.11-3.23.41-4.8.17.62,3.22,1.19,5.81,1.29,6.21.34,1.38,2.84,1.29,5.42.95,2.58-.34,2.41-1.72,3.44-5.85.09-.38.2-.8.32-1.27-.54-.02-1.08-.04-1.62-.07Z"/>
        <path class="cls-5" d="M47.49,18.17c.63-.07,1.25-.09,1.88-.16.74-.09,1.49-.17,2.24-.23,2.73-.23,5.44-.22,8.16.05.85-4.1,1.45-8.45.6-10.5-1.46-3.53-12.57-.09-13.95,2.32-.58,1.02-.24,4.7.37,8.67.22-.08.46-.13.71-.15Z"/>
        <g>
          <path class="cls-4" d="M82.14,51.36c2.18-5.68,4.1-12.38,2.64-18.46-1.17-4.88-5.2-9.25-10.48-9.17-4.77.07-9.5,2.09-13.26,5.05.11-1.36.22-2.72.29-4.1.09,0,.18,0,.27,0,2.42-.08,3.6-.89,3.49-3.45-.11-2.66-1.48-3.25-3.95-3.65-2.64-.43-5.44-.39-8.16-.26-2.72-.14-5.54-.18-8.17.26-2.49.41-3.84.98-3.95,3.65-.11,2.56,1.08,3.36,3.49,3.45.09,0,.18,0,.27,0,.18,3.49.75,6.9.48,10.43-.28,3.84-1.55,7.55-2.98,11.1-1.51,3.73-3.37,7.28-5.27,10.82-.47-2.17-.47-4.34-.36-6.74.13-3.06.21-6.18-1.12-9.02-1.31-2.81-3.54-4.99-5.97-6.84-2.75-2.09-5.72-4.31-9.03-5.42-.29-.29-.79-.42-1.2-.08-1.14.93-2.08,1.97-2.91,3.18-.2.28-.15.84.14,1.06,1.99,1.54,3.85,3.23,5.71,4.92,1.69,1.54,3.53,3.05,4.61,5.1,2.51,4.74-.43,10.06-2.55,14.32-1.93,3.87-3.84,8.14-2.95,12.57.7,3.49,3.18,6.27,6.51,7.44.11.04.22.06.32.06-.46,2.58-.59,5.37.39,7.74,1.39,3.36,4.9,5.26,8.41,6.17.85,2.74,4.31,3.36,6.92,3.71,2.22.29,4.47.44,6.71.44,1.16,0,2.38.04,3.58,0,.34,0,.69,0,1.03,0,2.37.01,4.73-.13,7.08-.44,2.62-.34,6.08-.96,6.92-3.72,2.9-.73,5.64-2.06,7.46-4.5,3.83-5.11.7-13.28-1.56-18.39-.36-.82-.74-1.64-1.14-2.45,1.7-1.96,3.11-4.37,4.38-6.53,1.55-2.62,2.82-5.41,3.91-8.25ZM65.13,49.23c-1.74-3.79-3.31-7.78-4-11.91-.04-.24-.06-.48-.09-.72.04-.02.07-.03.11-.06,3.34-2.84,7.16-6.87,12.09-5.94,5.78,1.09,4.33,8.32,3.01,12.23-1.26,3.75-3.03,7.33-4.88,10.82-.67,1.26-1.37,2.49-2.07,3.73-1.45-2.69-2.88-5.38-4.16-8.16ZM42.77,20.76c.52-1.84,4.51-1.39,6.17-1.46,1.35-.05,6.47-.07,7.71-.01,1.64.07,6.07-.39,6.52,1.47.69,2.86-3.68,2.24-5.35,2.19-.26,0-11.44.09-12.71.11-1.28.01-2.83-.53-2.33-2.29ZM24.05,63.93c1.27-4.4,4.06-8.21,5.26-12.64,1.02-3.76.87-7.8-1.58-10.98-2.5-3.25-6.14-5.65-9.5-7.99.53-.72,1.14-1.37,1.81-1.97,5.16,3.73,12.41,7.38,14.05,14.01,1.2,4.84-1.05,10.76,1.35,15.3-1.13,2.11-2.26,4.23-3.3,6.38-1.44,2.98-2.78,6.05-3.59,9.27-.06-.03-.12-.06-.19-.09-4.78-1.72-5.57-6.94-4.31-11.29ZM60.41,93.43c-4.83.06-9.66.03-14.49,0-2.06-.01-4.87-.05-6.54-1.46.1.01.21.03.31.04,2.76.32,5.56.35,8.33.33,5.47-.04,10.89.22,16.35-.16.71-.05,1.44-.13,2.18-.23-1.59,1.33-4.2,1.45-6.16,1.47ZM75.72,79.99c.24,3.79-1.02,6.24-4.37,7.98-1.87.98-3.7,1.42-5.79,1.62-3.96.38-7.94.33-11.9.27-3.78-.06-7.6.09-11.37-.13-4.39-.25-10.88-1.4-11.94-6.57-1.34-6.52,2.77-13.86,5.65-19.41,3.05-5.89,6.44-11.68,8.61-17.98,2.31-6.71,3.44-14.15,1.58-21.09,2.26-.01,4.54-.15,6.8-.15,2.26,0,4.53.13,6.78.15-3.49,12.78,3,25.5,8.86,36.54,3.08,5.81,6.66,12.06,7.1,18.76ZM72.84,64.1c-.71-1.39-1.44-2.77-2.18-4.15.11-.19.21-.38.32-.56,1.34-2.27,2.59-4.6,3.78-6.96,2.25-4.5,4.65-9.46,5.02-14.55.33-4.5-2.3-9.05-7.18-9.15-2.46-.05-4.7.95-6.79,2.15-1.71.98-3.56,2.19-4.96,3.68-.05-1.23-.03-2.45.04-3.67,3.59-3.07,8.64-5.6,13.41-5.16,5.61.52,8.22,6.29,8.25,11.3.02,5.39-1.73,10.91-3.83,15.83-.97,2.28-2.09,4.52-3.25,6.71-.8,1.53-1.76,3.02-2.63,4.53Z"/>
          <path class="cls-4" d="M53.04,13.25c.06,0,.11-.01.17-.02.05,0,.11-.01.17-.02.36-.08.67-.41.76-.76.01-.05.02-.11.02-.16,0-.05.02-.11.02-.16,0-.1-.02-.21-.04-.31-.03-.13-.09-.25-.18-.35-.07-.11-.17-.2-.28-.26l-.24-.1c-.18-.05-.36-.05-.54,0-.01,0-.02,0-.04,0l.28-.04c-.13.01-.03-.06-.33.04l-.26.11-.22.17s-.02.02-.03.02l.22-.17h-.01c-.07.06-.14.12-.22.17-.1.1-.18.21-.22.34-.05.08-.07.17-.07.27-.03.14-.03.28.02.43l.11.26.17.22c.1.1.21.18.34.22.13.07.26.1.41.09h0Z"/>
          <path class="cls-4" d="M56.27,11.3c.15,0,.28-.02.41-.09.13-.04.24-.12.34-.22.1-.1.18-.21.22-.34.07-.13.1-.26.09-.41l-.04-.28c-.05-.18-.14-.33-.27-.46l-.21-.16c-.16-.1-.34-.14-.53-.14-.15,0-.28.02-.41.09-.13.04-.24.12-.34.22-.1.1-.18.21-.22.34-.07.13-.1.26-.09.41l.04.28c.05.18.14.33.27.46l.21.16c.16.1.34.14.53.14h0Z"/>
          <path class="cls-4" d="M54.56,14.47s.06.09.09.13c.07.13.18.23.3.3.13.08.27.11.42.11.15,0,.29-.04.42-.11.13-.07.23-.18.3-.3.03-.04.06-.09.09-.13.18-.28.16-.67,0-.95s-.48-.47-.81-.47-.64.18-.81.47-.18.67,0,.95h0Z"/>
          <path class="cls-4" d="M52.4,27.98c1.22,0,1.22-1.89,0-1.89s-1.22,1.89,0,1.89h0Z"/>
        </g>
        <path class="cls-1" d="M60.62,48.03s-1.6-2.52-6.87-2.4c-5.26.11-7.32,2.4-7.32,2.4,0,0-15.22,24.49-14.3,32.61.92,8.12,13.16,7.32,23.46,7.32s13.62.23,17.17-3.89c3.55-4.12,0-12.36-3.55-18.77-3.55-6.41-8.58-17.28-8.58-17.28Z"/>
        <path class="cls-2" d="M46.88,48.85c2.08,1.35,4.56,1.45,6.97,1.55,2.19.09,5.17.19,7-1.21.47-.36.43-1.42-.36-1.31-2.03.27-3.89.86-5.99.84-2.31-.03-4.8-.09-6.95-1.01-.77-.33-1.41.67-.67,1.15h0Z"/>
        <path class="cls-2" d="M44.44,62.97c-2.07,2.19-3.66,5.68-2.57,8.65.26.71,1.21.91,1.63.21,1.41-2.32,1.85-5.36,2.42-8,.18-.83-.84-1.54-1.48-.86h0Z"/>
        <path class="cls-2" d="M42.13,77.88c.13.5.38,1.18.87,1.43.31.16.74.15.99-.13.38-.42.43-1.07.38-1.61-.03-.32-.12-.57-.34-.81-.24-.27-.62-.36-.96-.31-.68.09-1.13.76-.95,1.43h0Z"/>
      </g>
    </g>
  </g>
</svg>