<?xml version="1.0" encoding="UTF-8"?>
<svg id="Capa_2" data-name="Capa 2" xmlns="http://www.w3.org/2000/svg" viewBox="0 0 100 100">
  <defs>
    <style>
      .cls-1 {
        fill: #fff;
      }

      .cls-2 {
        fill: none;
      }

      .cls-3 {
        fill: #a83c19;
      }

      .cls-4 {
        fill: #e09d3e;
      }

      .cls-5 {
        fill: #fad380;
      }

      .cls-6 {
        fill: #4a2d2d;
      }

      .cls-7 {
        fill: #a1c2de;
      }
    </style>
  </defs>
  <g id="COLOR">
    <g>
      <g>
        <path class="cls-3" d="M71.03,65.59c0,3.67.25,5.67-.12,12.31-.29,5.2-.96,10.18-2.43,13.19-2.96,6.07-12.34,5.94-18.12,6.01-5.46.06-13.31-.35-16.08-6.01-1.51-3.09-2.18-8.25-2.45-13.59-.34-6.52-.1-8.32-.1-11.91,0-6.55-1.12-18.79-.96-22.62.01-.29.04-.65.06-1.09.28-3.71,1.32-5.56,3.61-14.85,2.55-10.38,5.59-17.56,5.59-17.56l1.09.05c.67.21,1.32.45,1.99.64,1.03.29,2.14.37,3.21.47,2.3.2,4.59.46,6.89.55,2.24.08,4.43-.07,6.64-.43.93-.15,1.85-.34,2.72-.69.11-.05.23-.09.34-.14.68,1.7,3.22,8.24,5.41,17.12,2.26,9.19,3.31,10.95,3.6,14.73.04.49.06.9.07,1.21.16,3.83-.96,16.07-.96,22.62Z"/>
        <path class="cls-1" d="M33.23,44.37s.87,14.68.99,19.2c.12,4.53.12,15.34.12,15.34,0,0,7.54,4.4,19.66,3.52,12.12-.88,14.3-3.52,14.3-3.52,0,0,.41-19.79.54-23.81.12-4.03.37-10.73.37-10.73,0,0-8.03,3.38-17.18,3.27-10.88-.13-18.79-3.27-18.79-3.27Z"/>
        <path class="cls-6" d="M63.98,6.34c-.08-.77-1.31-2.23-5.54-3.08-4.48-.9-9.76-.9-14.25,0-4.23.85-5.47,2.31-5.54,3.08-.08.77.23,4.93.23,4.93.04.55,3.83,1.28,4.21,1.36,4.57.97,9.75.99,14.37.36,2.12-.29,4.37-.74,6.29-1.72,0,0,.31-4.16.23-4.93Z"/>
        <path class="cls-1" d="M39.32,6.52c5.91,2.07,12.38,2.25,18.54,1.44.91-.12,1.82-.27,2.72-.45s1.93-.28,2.74-.71c.48-.26.24-.99-.27-.99-1.02-.01-2.09.38-3.09.57s-1.96.34-2.94.47c-2.04.28-4.11.42-6.17.47-3.79.08-7.69-.39-11.33-1.47-.43-.13-.6.52-.18.67h0Z"/>
        <path class="cls-1" d="M40.31,18.13c-.88,2.94-3.8,15.03-3.5,16.53.1.47,1.17.64,1.4.23.73-1.32,2.85-13.41,3.46-16.38.18-.89-1.1-1.26-1.36-.38h0Z"/>
        <path class="cls-1" d="M36.3,37.79l-.22,1.59c-.04.26-.06.52-.06.78,0,.32,0,.7.15.99s.64.42.88.15c.1-.11.18-.2.24-.34.02-.06.04-.11.06-.17.04-.13.09-.26.12-.4.08-.3.12-.61.16-.92l.19-1.63c.05-.39-.34-.78-.72-.78-.44,0-.72.3-.78.72h0Z"/>
        <path class="cls-6" d="M61.59,20.71c.3.03.63,0,.91-.11.16-.06.32-.12.47-.21.06-.03.11-.07.17-.11.09-.07.16-.13.22-.23.04-.06.05-.13.08-.2l-.05.11c.05-.09.09-.19.12-.29.05-.15-.03-.33-.14-.42-.13-.1-.3-.11-.45-.03-.05.03-.11.06-.16.08l.11-.05s-.08.02-.12.03c-.12.04-.21.12-.31.2l.11-.08c-.13.09-.26.17-.41.23l.12-.05c-.15.06-.3.1-.45.12l.14-.02c-.12.02-.23.02-.35.01-.26-.02-.51.24-.5.5,0,.13.05.26.15.36.1.1.22.13.36.15h0Z"/>
        <path class="cls-6" d="M62.5,23.32l.56-.23c.08-.03.17-.06.24-.1.04-.02.09-.05.13-.07.12-.07.23-.13.32-.23.12-.13.16-.31.09-.47s-.22-.26-.4-.27c-.14,0-.26.02-.39.06-.1.03-.19.05-.28.09l-.55.23c-.07.02-.13.05-.18.09-.06.04-.1.09-.13.15-.07.11-.09.28-.05.4s.12.25.24.31.28.1.4.05h0Z"/>
        <path class="cls-6" d="M64.05,88.56c.31.02.63,0,.94-.07.14-.03.27-.06.4-.11.06-.02.12-.04.18-.07.11-.04.19-.08.28-.16.02-.02.05-.05.07-.08.13-.14.17-.33.1-.51-.07-.16-.24-.3-.43-.29-.08,0-.16,0-.24.02s-.15.06-.23.09l.12-.05c-.26.11-.53.18-.8.22l.13-.02c-.18.02-.35.03-.53.03-.26,0-.5.23-.49.49.01.28.22.48.49.49h0Z"/>
        <path class="cls-6" d="M65.13,86.28l.54-.24c.09-.04.17-.08.26-.13l.25-.16c.23-.14.33-.42.22-.67s-.37-.38-.63-.31l-.29.07c-.09.02-.18.06-.27.1l-.54.22c-.1.03-.19.08-.27.16l-.09.12c-.1.16-.1.37-.03.54.06.15.17.26.32.32.07.04.15.06.23.05.11,0,.21-.03.31-.08h0Z"/>
        <g>
          <g>
            <g>
              <path class="cls-6" d="M41.09,69.13c-3.9,1.72-5.79,4.11-3.93,6.86s8.06,4.51,13.24,4.47c5.18-.04,9-.84,12.41-2.67,3.4-1.84,3.32-4.78,1.7-6.38-2.02-2.01-5.67-3.43-9.8-3.87-4.12-.44-9.72-.12-13.62,1.6Z"/>
              <path class="cls-7" d="M40.5,68.12c-4.13,1.72-6.13,4.13-4.17,6.89s8.54,4.53,14.03,4.49,9.54-.84,13.15-2.69,3.52-4.8,1.8-6.41c-2.14-2.02-6.01-3.45-10.38-3.89s-10.3-.12-14.43,1.6Z"/>
              <path class="cls-1" d="M41.68,68.77c-2.01.65-5.43,2.45-4.34,5.09.45,1.1,1.57,1.79,2.58,2.3.63.32,1.28.57,1.94.78.59.19,1.33.51,1.96.42.17-.02.15-.25.04-.32-.44-.32-1.12-.39-1.63-.55-.55-.17-1.09-.37-1.62-.59-1-.41-2.18-.99-2.74-1.96-.68-1.2,0-2.44.94-3.25s1.97-1.09,2.98-1.68c.13-.08.05-.3-.11-.25h0Z"/>
              <path class="cls-1" d="M51.24,78.21c2.8-.07,5.61-.34,8.29-1.19,1.2-.38,2.48-.84,3.51-1.58,1-.73,1.93-1.81,1.75-3.13-.21-1.5-1.72-2.45-3.1-2.75-.23-.05-.38.27-.16.39.72.4,1.52.62,2.12,1.22s.79,1.42.52,2.21c-.52,1.55-2.39,2.32-3.79,2.85-2.92,1.11-6.05,1.44-9.14,1.65-.21.01-.21.33,0,.33h0Z"/>
            </g>
            <path class="cls-6" d="M64.47,70.16c-.14-.3-.48.9-.39,1.21.08.32-.11.61-.28.87-.16.26-.31.52-.42.82-.21.55-.28,1.14-.52,1.67-.45,1-1.41,1.66-2.47,1.9-1.16.26-2.25-.46-3.4-.14-.58.16-1.1.5-1.64.75-.61.28-1.28.5-1.94.62-1.42.24-3.21-.14-4.14-1.32-.04-.05-.13-.07-.2-.05-1.11.35-2.18.58-3.35.36-1.14-.21-2.18-.72-3-1.54-.05-.05-.14-.08-.22-.06-1.83.6-3.71-.09-4.98-1.48-.11-.12-.19-.05-.13.11.66,1.92,3.05,2.52,4.91,1.98.86.83,1.93,1.43,3.11,1.64,1.12.19,2.41.12,3.43-.43.96.85,2.05,1.38,3.36,1.42.74.02,1.51-.08,2.21-.3.68-.22,1.33-.6,1.97-.91.37-.18.75-.32,1.17-.31.4.01.79.17,1.17.28.57.16,1.36.1,1.95-.01,1.11-.21,2.15-.99,2.68-1.98.36-.67.42-1.17.7-1.87.26-.65,1.04-1.85.41-3.22Z"/>
            <path class="cls-5" d="M44.8,65.67s-1.32-.89-2.98.06-1.55,3.41-1.55,3.41c0,0-1.46,0-2.35,1.29-.89,1.29-1.15,3.56.75,4.51s4.07.37,4.07.37c0,0,1.26,1.66,3.39,1.72s3.04-.72,3.04-.72c0,0,1.18,1.81,3.67,1.49,2.5-.32,4.22-1.46,5.19-1.23s2.73.55,4.07-.69,1.21-2.61,1.21-2.61c0,0,1.58-1.87.8-3.85s-2.21-2.67-3.41-2.84-2.21-.03-2.21-.03c0,0-1.23-3.5-3.96-4.05-2.73-.55-4.25.26-4.91.77s-1.26,1.46-1.26,1.46c0,0-1.03-.14-2.15.29s-1.41.63-1.41.63Z"/>
            <path class="cls-4" d="M42.92,70.02c1.11-2.2,3.47-3.8,5.97-3.8,1.43,0,2.61.94,3.52,1.97.9,1.01,1.38,2.15,1.92,3.36.09.2.38.05.33-.14-.32-1.34-1.22-2.64-2.17-3.61s-2.14-1.8-3.54-1.83c-2.61-.04-5.09,1.63-6.24,3.93-.07.13.13.25.2.11h0Z"/>
            <path class="cls-4" d="M53.66,71.45c-.74-2.01-2.37-4.12-4.62-4.44-1.9-.27-4.11,1.08-4.93,2.82.1,0,.19.02.29.04.49-.75,1-1.42,1.79-1.9.9-.55,1.99-.86,3.03-.63,1,.22,1.87.82,2.53,1.58.7.8,1.12,1.72,1.63,2.64.08.14.33.05.27-.11Z"/>
            <path class="cls-4" d="M50.92,69.46c-.61-.46-1.34-.75-2.1-.81-1.34-.11-2.69.52-3.56,1.53.04.01.08.02.12.03.05.01.11.02.16.03.02-.03.06-.06.1-.05.01,0,.03,0,.04,0,.81-.77,1.86-1.26,3.02-1.21.68.03,1.34.27,1.9.66.28.19.53.43.74.69.22.28.36.61.57.91.06.09.24.07.23-.06-.08-.69-.67-1.32-1.2-1.73Z"/>
            <path class="cls-4" d="M50.49,70.95c-.99-1.33-2.87-1.46-3.99-.35.08.05.17.1.24.15.45-.41,1.03-.63,1.66-.6.83.04,1.28.54,1.92.97.1.07.24-.07.17-.17Z"/>
            <path class="cls-4" d="M41.59,66.96c-.72.74-.79,2.09.11,2.69.03-.12.05-.23.08-.35-.24-.26-.42-.57-.43-.95-.01-.47.22-.93.57-1.24.48-.43,1.08-.49,1.65-.35.11-.09.22-.17.33-.25-.77-.3-1.69-.18-2.31.44Z"/>
            <path class="cls-4" d="M54.68,65.89c.9,1.03.56,2.2.27,3.36.09.08.17.16.26.25.54-1.27.64-2.84-.33-3.9-1.06-1.15-2.79-1.22-4.08-.44-.14.08-.02.28.12.21,1.23-.62,2.81-.58,3.76.51Z"/>
            <path class="cls-4" d="M52.4,66.23c.41-.03.92-.05,1.29.16.45.26.35.95.38,1.39,0,.1.16.13.18.02.09-.45.09-1.19-.3-1.52s-1.08-.31-1.56-.27c-.14.01-.14.23,0,.22h0Z"/>
            <path class="cls-4" d="M50.14,64.86c1.8-1.26,4.37-1.24,5.92.42,1.55,1.65,1.13,4.45-.04,6.19-.08.12.11.23.19.11,1.38-1.81,1.74-4.78.07-6.53-1.65-1.74-4.39-1.78-6.26-.38-.11.09,0,.28.11.2h0Z"/>
            <path class="cls-4" d="M39.85,72.17c1.91-1.76,4.63-1.26,6.75-.21,1.04.52,1.98,1.2,2.99,1.76s2.09.95,3.2,1.25c2.19.59,4.56.75,6.7-.11,1.81-.73,3.58-2.32,3.7-4.39.06-1.04-.35-2.12-1.21-2.75-.94-.69-2.29-.98-3.43-.75-.15.03-.11.26.03.26,1.19.01,2.46.14,3.39.98.8.72,1.02,1.88.76,2.89-.53,2.08-2.62,3.39-4.6,3.83-2.24.5-4.63.02-6.75-.75s-3.73-2.22-5.79-2.96c-1.07-.38-2.18-.63-3.32-.44-.94.16-1.89.58-2.58,1.24-.11.1.05.26.16.16h0Z"/>
            <path class="cls-4" d="M60.97,70.25c-.04-1.2-1.04-1.66-2.06-1.79,0,.12,0,.23,0,.35.41.07.82.17,1.15.41.62.46.65,1.32.33,1.96-.63,1.27-2.1,1.76-3.43,1.7-2.53-.12-5.09-1.91-7.58-.65-.14.07-.02.27.12.21,3.09-1.4,6.18,1.7,9.31.55,1.1-.4,2.22-1.46,2.18-2.71Z"/>
            <path class="cls-4" d="M42.03,74.21c-.02-.07-.04-.14-.07-.21-1.17.11-2.65-.06-3.08-1.31-.44-1.27.49-2.37,1.49-3.07-.04-.08-.07-.15-.1-.23-1.17.74-2.26,2.1-1.62,3.53.52,1.16,2.17,1.68,3.4,1.38,0-.03-.02-.06-.03-.09Z"/>
            <path class="cls-4" d="M42.08,74.39c-.79.19-1.56.27-2.36.03-.84-.26-1.53-.76-1.7-1.65-.24-1.21.53-2.78,1.5-3.51.09-.07-.34,0-.64.32-.85.9-1.4,2.25-1.09,3.44.43,1.71,2.92,2.29,4.39,1.63-.04-.08-.07-.17-.1-.26Z"/>
            <path class="cls-4" d="M43.32,72.07c-.24,1.15.66,2.07,1.67,2.46s2.4.37,3.32-.32c.1-.08-.01-.23-.12-.18-.93.4-1.85.62-2.85.32s-1.93-1.1-1.79-2.23c.02-.13-.2-.18-.23-.05h0Z"/>
            <path class="cls-4" d="M46.59,73.03s-.04-.04-.06-.05c0,0,0,0,0,0-.42.21-.87.31-1.31.08-.38-.2-.61-.58-.68-.99-.02-.1-.2-.08-.18.02.14,1.08,1.43,1.8,2.34,1.05-.04-.03-.07-.07-.11-.1Z"/>
            <path class="cls-4" d="M49.67,74.92c-1.27.85-2.83,1.19-4.31.68-1.52-.52-2.66-2-2.41-3.62-.01,0-.02,0-.04,0-.05,0-.11.02-.16.04-.31,1.65.78,3.17,2.3,3.83,1.6.69,3.59.41,4.88-.76-.09-.05-.18-.1-.26-.16Z"/>
            <path class="cls-4" d="M54.46,76.37c-.67.3-1.37.35-2.14.26-.78-.09-1.57-.39-2.07-.98,0,.02-.02.03-.03.05-.03.06-.1.07-.16.05,0,0,0,0,0,0,.48.59,1.24.94,2.02,1.07.85.14,2.01.18,2.77-.35-.13-.03-.26-.06-.38-.11Z"/>
            <path class="cls-4" d="M62.33,74.08c-.43.7-.93,1.29-1.73,1.57-.47.16-.99.2-1.49.12-.11.07-.23.13-.35.18.64.21,1.32.22,1.98-.03.79-.29,1.53-.94,1.79-1.75.04-.12-.14-.19-.2-.09Z"/>
            <path class="cls-4" d="M37.57,74.19c.41.49.91.97,1.48,1.21s1.19.33,1.8.31,1.4-.05,1.95-.33c.18-.09.08-.36-.1-.36-.56-.02-1.14.19-1.7.23s-1.12.02-1.66-.14c-.98-.28-1.76-1.15-2.07-2.12-.06-.18-.04.79.29,1.2Z"/>
            <path class="cls-4" d="M63.47,73.15c-.02-.06-.07-.11-.13-.14-.04.06-.09.11-.13.16-.07.08-.14.17-.23.23-.02.01-.03.02-.05.02-.03.16-.05.33-.09.49-.08.31-.2.62-.35.9-.32.61-.76,1.1-1.37,1.41-.61.32-1.32.45-2.01.38-.64-.07-1.24-.37-1.9-.29-1.45.2-2.71,1.14-4.18,1.25-1.42.11-2.98-.29-3.87-1.45-.13-.17-.39-.03-.29.17.45.95,1.59,1.44,2.56,1.67,1.29.3,2.53.06,3.74-.44.59-.24,1.17-.55,1.78-.73.7-.21,1.31.1,2,.19,1.09.15,2.19-.18,3.05-.85.45-.35.83-.75,1.1-1.26.25-.47.55-1.18.38-1.71Z"/>
            <path class="cls-4" d="M64.32,69.66c-.11-.26-.25-.44-.2-.15.32,1.9-.91,3.83-2.46,4.85-.78.51-1.63.89-2.51,1.19-.98.34-1.99.6-3.03.63-1.91.04-3.86-.4-5.63-1.1-.88-.35-1.73-.78-2.54-1.28-.82-.5-1.58-1.09-2.45-1.51-.87-.42-1.85-.67-2.81-.46-.5.11-.96.34-1.41.57-.42.21-.82.44-1.17.75,0,0,.02.01.02.02.05.05.09.11.13.16.04.04.08.08.12.12.37-.32.81-.53,1.25-.75.5-.24,1-.47,1.56-.5,1.06-.06,2.05.43,2.93.98.83.53,1.61,1.11,2.48,1.58.85.46,1.75.84,2.66,1.14,1.79.59,3.83.98,5.72.74,1.85-.24,3.85-.97,5.35-2.09,1.44-1.08,2.75-3.03,1.99-4.89Z"/>
            <path class="cls-4" d="M40.08,71.09c1.03-.47,2.07-.89,3.22-.95,1.05-.06,2.05.17,2.97.66s1.78,1.12,2.7,1.65,1.83.97,2.8,1.33c1.82.67,3.78.96,5.7.59,1.73-.34,3.67-1.3,4.51-2.93.45-.86.5-1.98-.15-2.76-.71-.86-1.9-1.03-2.95-.98-.27.01-.27.41,0,.42.97.04,2.1.21,2.66,1.11.59.95.04,2.08-.65,2.79-1.24,1.28-3.02,1.88-4.77,1.97-1.93.09-3.82-.46-5.55-1.29-.87-.41-1.7-.89-2.52-1.4s-1.54-1-2.41-1.31c-1.86-.67-4.11-.28-5.72.84-.17.11-.02.35.16.27h0Z"/>
            <path class="cls-4" d="M48.07,71.67c1.2-.71,2.55-.6,3.86-.31s2.55.58,3.86.69c1.08.09,2.29.05,3.21-.59.34-.24.64-.6.61-1.04-.02-.41-.28-.74-.69-.78-.24-.02-.35.36-.12.46.71.31.02.92-.39,1.12-.48.24-1.02.34-1.55.36-1.05.04-2.12-.13-3.14-.33-1.88-.37-4.13-1.22-5.89,0-.25.18-.03.58.24.42h0Z"/>
            <path class="cls-4" d="M41.83,70.2c-.05-1.37,1.01-2.51,2-3.32s2.19-1.44,3.46-1.69,2.74-.09,3.96.44,2.11,1.41,2.82,2.47c.39.58.72,1.21,1.01,1.84s.5,1.34.85,1.93c.14.24.49.08.43-.18-.14-.65-.47-1.3-.75-1.91-.29-.64-.61-1.27-1-1.85-.76-1.16-1.76-2.17-3.04-2.74-2.58-1.17-5.53-.66-7.71,1.05-1.17.91-2.51,2.38-2.43,3.97.01.25.4.25.39,0h0Z"/>
            <path class="cls-6" d="M57.54,64.76c.6.96.97,2.37,1.03,3.49.06,1.15-.23,2.14-.57,3.22-.07.23.23.31.35.15.71-.94.84-2.37.73-3.5-.1-1.02-.32-1.71-.83-2.55-.09-.14-.38-.55-.45-.62-.19-.2-.32-.3-.26-.19h0Z"/>
            <path class="cls-4" d="M41.81,73.34c-.27-.04-.55,0-.81-.05-.44-.08-.8-.31-.97-.74-.3-.79.16-1.63.61-2.26.08-.12-.1-.25-.2-.15-.67.72-1.22,1.69-.79,2.7.34.77,1.42,1.23,2.24.95-.04-.15-.07-.29-.09-.44Z"/>
            <path class="cls-4" d="M50.12,75.21c-.32.25-.61.52-.96.73-.41.25-.84.44-1.3.57-.93.27-1.92.29-2.84,0-1.84-.56-2.93-2.15-3.33-3.96-.04-.17-.29-.12-.3.04-.08,2,1.62,3.81,3.42,4.42,1,.34,2.12.33,3.13.05.95-.26,2.02-.79,2.64-1.58-.16-.08-.32-.18-.47-.28Z"/>
            <path class="cls-4" d="M40.9,70.35c-.46-.67-.57-1.58-.42-2.37.16-.87.68-1.65,1.42-2.28.13-.11-.61.2-1,.63-.43.48-.73,1.1-.82,1.66-.14.89,0,1.82.59,2.53.11.13.32-.04.23-.18h0Z"/>
            <path class="cls-6" d="M40.95,73.38c.75-.6,1.58-.99,2.56-.99s1.91.48,2.77,1,1.7,1.03,2.6,1.46c.45.22.91.44,1.37.64.43.19.91.45,1.37.52.14.02.21-.14.09-.22-.46-.32-1.07-.5-1.58-.74s-1-.49-1.49-.75c-.98-.52-1.91-1.13-2.89-1.64-1.59-.83-3.69-.86-5.02.49-.15.15.07.35.22.22h0Z"/>
            <path class="cls-6" d="M53.26,76.39c1.3.41,2.98.77,4.27.16.13-.06.03-.24-.09-.22-.68.12-1.35.21-2.05.16s-1.38-.22-2.06-.36c-.17-.04-.24.21-.07.27h0Z"/>
            <path class="cls-6" d="M58.36,76.34c.12-.03.27-.04.37-.12.09-.07.03-.22-.07-.25-.12-.03-.27.03-.39.05-.09.02-.14.12-.12.21.02.09.12.14.21.12h0Z"/>
            <path class="cls-6" d="M61.1,75.33c.68-.29,1.3-.66,1.87-1.14.52-.43,1.18-1,1.43-1.64.05-.14-.13-.21-.22-.13-.27.24-.46.56-.7.83-.22.23-.44.46-.69.66-.54.46-1.16.84-1.79,1.16-.14.07-.04.32.11.26h0Z"/>
            <path class="cls-6" d="M64.32,72.39c.11,0,.11-.17,0-.17s-.11.17,0,.17h0Z"/>
            <path class="cls-6" d="M40.52,70.13c-.71.51-1.24,1.47-.95,2.36.27.8,1.42,1.39,2.22,1.09.12-.04.15-.24,0-.27-.33-.07-.66-.02-.99-.13-.4-.13-.78-.42-.9-.84-.22-.73.27-1.5.82-1.94.15-.12-.05-.37-.2-.26h0Z"/>
            <path class="cls-6" d="M48.18,71.38c2.32-1.11,4.99-.01,7.35.36,1.02.16,2.1.21,3.06-.23.38-.17.75-.43.91-.83.13-.34.12-.76-.24-.94-.12-.06-.22.04-.2.16.04.3.1.56-.11.82-.15.18-.37.31-.58.4-.5.23-1.05.3-1.6.3-1.07,0-2.12-.27-3.16-.48-1.87-.39-3.77-.61-5.54.25-.13.06-.02.25.11.19h0Z"/>
            <path class="cls-6" d="M41.84,70.25c1.61-.73,3.44-.39,4.92.48.68.4,1.27.93,1.89,1.42.51.4,1.09.87,1.74,1,.18.04.32-.22.13-.32-.37-.19-.74-.34-1.08-.57s-.68-.51-1-.78c-.65-.54-1.32-1.03-2.08-1.39-1.48-.69-3.18-.84-4.67-.1-.17.08-.02.33.15.25h0Z"/>
            <path class="cls-6" d="M51.91,73.76c1.33.41,2.68.77,4.08.77.6,0,1.21-.07,1.79-.23.53-.14,1.18-.34,1.58-.73.1-.09,0-.28-.14-.23-.55.2-1.04.5-1.61.65s-1.18.21-1.78.2c-1.31-.02-2.58-.36-3.84-.73-.19-.06-.28.24-.08.3h0Z"/>
            <path class="cls-6" d="M60.5,73.01l.12-.08s.09-.07.12-.11.05-.11.02-.16c-.03-.05-.1-.08-.15-.06s-.1.04-.15.07l-.12.08c-.07.04-.1.14-.05.21.04.07.14.1.21.05h0Z"/>
            <path class="cls-6" d="M61.58,71.56c.75-.72.82-2.06.02-2.76-.1-.09-.27.02-.2.15.47.86.51,1.62-.03,2.45-.08.13.1.26.21.16h0Z"/>
            <path class="cls-6" d="M41.95,68.88c.3-.39.58-.79.84-1.21.07-.12-.09-.24-.19-.15-.35.35-.64.74-.86,1.18-.06.13.11.3.22.17h0Z"/>
            <path class="cls-6" d="M44.47,66.11c1.06-.73,2.31-1.22,3.59-1.35s2.55.21,3.67.92c1.05.67,1.89,1.61,2.57,2.65.34.52.65,1.07.92,1.63s.47,1.13.79,1.65c.07.11.26.07.25-.07-.05-.63-.33-1.2-.6-1.76-.31-.65-.67-1.28-1.07-1.87-.73-1.07-1.64-2.02-2.75-2.69-2.4-1.43-5.31-.9-7.47.7-.1.08,0,.25.1.18h0Z"/>
            <path class="cls-1" d="M43.82,67.78c.07-.07.14-.14.22-.19.09-.06.2-.12.25-.22.06-.12-.01-.23-.14-.25s-.24.07-.34.14-.19.15-.27.24c-.17.18.1.46.28.28h0Z"/>
            <path class="cls-1" d="M45.4,66.58l.21-.13c.08-.05.16-.09.2-.18.05-.11,0-.22-.13-.23-.1,0-.18.04-.26.09l-.21.12c-.22.12-.02.46.19.33h0Z"/>
            <path class="cls-1" d="M50.41,68.46s.07,0,.12,0c.04,0,.07,0,.1-.03.04-.03.08-.07.1-.13v-.06s0-.07-.02-.11c-.02-.04-.04-.05-.07-.08-.04-.03-.06-.05-.1-.06-.04-.02-.08-.03-.13-.03-.05,0-.09.01-.13.03-.06.04-.1.09-.12.15s0,.14.03.19c.02.04.05.07.09.09.04.02.08.03.13.03h0Z"/>
            <path class="cls-1" d="M51.3,69.19c.11,0,.11-.17,0-.17s-.11.17,0,.17h0Z"/>
            <path class="cls-1" d="M54.48,73.65c.31,0,.31-.48,0-.48s-.31.48,0,.48h0Z"/>
            <path class="cls-1" d="M56.87,73.67c.25,0,.25-.39,0-.39s-.25.39,0,.39h0Z"/>
            <path class="cls-1" d="M41.69,71.87c.08,0,.16-.02.23-.05.02-.01.04-.02.06-.04.06-.04.08-.08.11-.14.02-.05,0-.11-.03-.16-.04-.05-.08-.06-.14-.07-.03,0-.06,0-.09,0-.02,0-.04.02-.06.01.03,0,.03,0,.01,0-.02,0-.05,0-.07,0,.06-.01,0,0-.02,0-.11,0-.22.1-.22.22s.1.22.22.22h0Z"/>
            <path class="cls-1" d="M44.35,70.65c.28,0,.28-.43,0-.43s-.28.43,0,.43h0Z"/>
            <path class="cls-1" d="M38.46,72.3c-.05-.26.08-.45.11-.7.02-.12-.11-.28-.24-.18-.3.21-.31.66-.24.98.06.24.41.14.36-.1h0Z"/>
            <path class="cls-1" d="M38.75,70.84c.27,0,.27-.43,0-.43s-.27.43,0,.43h0Z"/>
            <path class="cls-1" d="M46.21,75.58c.33.15.84.22,1.1-.1.08-.1.04-.29-.11-.27-.3.02-.54.13-.84.03-.2-.07-.34.25-.14.34h0Z"/>
            <path class="cls-1" d="M48.06,75.5c.26,0,.26-.4,0-.4s-.26.4,0,.4h0Z"/>
            <path class="cls-1" d="M53.06,77.49s.06,0,.09-.01c.04-.01.08-.04.11-.06.12-.08.12-.26,0-.33-.04-.02-.07-.05-.11-.06-.03,0-.06,0-.09-.01-.04-.01-.09-.01-.13,0-.04.01-.08.03-.11.06-.04.05-.07.11-.07.18,0,.06.03.13.07.18.03.03.07.05.11.06.04.01.09.01.13,0h0Z"/>
            <path class="cls-1" d="M63.58,71.33c.26-.34.34-.75.33-1.17s-.09-.96-.39-1.26c-.11-.11-.29-.03-.3.12-.02.34.15.67.22,1,.08.4.1.79-.11,1.15-.09.17.14.29.25.15h0Z"/>
            <path class="cls-1" d="M63.3,68.46c-.03-.06-.06-.13-.09-.19-.04-.08-.1-.13-.18-.18-.12-.07-.25.02-.26.15-.01.17.08.3.15.44.05.1.21.14.31.08.11-.07.14-.19.08-.31h0Z"/>
            <path class="cls-1" d="M55.98,66.34c.28,0,.28-.43,0-.43s-.28.43,0,.43h0Z"/>
            <path class="cls-1" d="M51.46,63.49c.17-.07.36-.07.5-.19s.04-.33-.1-.38c-.19-.06-.42.06-.57.15-.1.05-.14.18-.09.28.04.09.16.17.27.13h0Z"/>
            <path class="cls-1" d="M53.82,63.68c.27,0,.27-.43,0-.43s-.27.43,0,.43h0Z"/>
          </g>
          <path class="cls-3" d="M58.32,64.52c-.87-1.06-1.77-2.13-2.9-2.8-2.3-1.36-5.27-.42-6.98,1.64-.12.14-.24.29-.39.38-.18.11-.39.12-.59.12-.57,0-1.15-.14-1.69.05-.25.09-.47.24-.72.33-.69.26-1.45.03-2.18.12-1.25.15-2.35,1.33-2.56,2.75,1.17.32,2.38-.11,3.58-.22.18-.02.38-.02.55.06.32.16.47.57.66.91.62,1.09,2.04,1.46,3.01.78.7-.49,1.21-1.45,2.02-1.56.71-.1,1.34.51,1.84,1.11.49.6,1.02,1.28,1.73,1.4.7.12,1.44-.43,1.64-1.22.12-.49.06-1.06.34-1.44.37-.51,1.06-.38,1.62-.23.56.14,1.29.18,1.57-.4.28-.59-.14-1.28-.54-1.77Z"/>
        </g>
        <path class="cls-6" d="M40.29,67.39c.91.07,1.94.2,2.84.09.34-.04.76-.26,1.09-.2s.52.58.69.86c1.01,1.66,2.91,1.23,4.11,0,.29-.3.57-.69.98-.83.52-.19.93.13,1.24.52.57.7,1.01,1.41,1.87,1.8.67.31,1.5.28,1.98-.34.41-.53.42-1.23.66-1.84.16-.41.38-.61.83-.59.4.02.8.12,1.2.15.67.05,1.44-.48,1.43-1.2,0-.28-.45-.36-.51-.07-.2.97-1.19.65-1.87.57-.56-.06-1.02-.02-1.38.47s-.39,1.17-.61,1.75c-.45,1.2-1.72.62-2.4-.07-.5-.51-.8-1.26-1.47-1.59-.59-.3-1.23-.13-1.71.29-.72.62-1.21,1.38-2.22,1.57-1.19.22-1.51-.73-2.07-1.51-.42-.59-.94-.46-1.58-.32-1.02.22-2.07-.07-3.1.03-.3.03-.3.44,0,.46h0Z"/>
        <path class="cls-1" d="M42.68,65.86h0s0,0,0,0c0,0,.02-.01.03-.02,0,0,.02-.01.02-.02.02-.02.04-.05.05-.08.01-.03.02-.06.02-.09v-.06s-.04-.07-.07-.1c-.02-.02-.04-.03-.06-.04-.08-.04-.17-.04-.25,0s-.12.13-.12.21.05.17.12.21.17.04.25,0h0Z"/>
        <path class="cls-1" d="M45.37,65.47c.05,0,.11-.01.16-.02.04,0,.07-.03.11-.04.02,0,.03-.02.05-.02.03-.02.06-.04.09-.06.01,0,.03-.02.04-.03.03-.02.05-.03.07-.06.01-.01.02-.02.03-.04.02-.02.03-.04.03-.06,0-.01.01-.02.01-.04.01-.05.01-.09,0-.14,0-.03-.02-.06-.05-.09-.02-.03-.04-.05-.07-.07-.04-.02-.09-.04-.13-.04-.05,0-.09,0-.14.04,0,0,0,0-.01,0-.03.02-.05.04-.08.06-.02.01-.03.03-.05.04l.05-.04s-.08.06-.12.08-.08.05-.12.08l-.05.04s-.04.05-.05.08c-.01.02-.02.04-.02.06,0,.03,0,.06,0,.09.01.04.03.07.06.1.02.02.05.04.08.05.03.01.06.02.09.02h0Z"/>
        <path class="cls-1" d="M46.8,64.98l.05-.02s.02-.01.04-.03c.03-.02.05-.05.07-.08h0s0,0,0,0v-.02s.04-.06.04-.09c0-.03,0-.07,0-.1l-.03-.06s-.05-.07-.09-.09h-.02s0-.01,0-.01h0s-.04-.02-.07-.03c-.03-.01-.06-.01-.09,0h-.05c-.05,0-.1.02-.15.04-.04.03-.08.06-.1.1l-.03.07c-.01.05-.01.1,0,.15,0,.04.03.07.05.1.02.03.05.06.08.07.05.03.09.04.15.04.05,0,.1-.01.15-.04h0Z"/>
        <path class="cls-1" d="M53,66.8l.04-.06s.02-.05.03-.08c0-.03,0-.06,0-.09l-.02-.05s-.04-.06-.08-.08l-.06-.04-.07-.03h-.08s-.08,0-.11.01c-.02,0-.04.02-.06.04-.02.01-.04.03-.05.05-.02.02-.03.04-.04.06-.01.02-.02.05-.02.07,0,.04,0,.08,0,.11l.03.07.04.06.06.04.07.03h.08s.08,0,.11-.01c.02,0,.04-.02.06-.04.03-.02.06-.05.07-.08h0Z"/>
        <path class="cls-1" d="M56.64,64.77s.03.02.05.04l-.06-.05s.09.07.12.11c.02.02.04.04.06.06.01.02.02.02.04.04.02.02.03.02.05.03,0,0,.01,0,.02,0,.01,0,.03.01.04.02.02.01.05.02.07.02.01,0,.03,0,.04,0h.08s.07-.04.1-.06c.02-.01.04-.03.05-.05.03-.03.04-.06.05-.1,0-.01,0-.03,0-.04,0-.03,0-.05,0-.08,0-.02,0-.03,0-.05,0,0,0-.01,0-.02,0-.02-.01-.03-.02-.05,0-.03-.02-.05-.04-.07,0-.01-.02-.02-.03-.04,0,0-.01-.01-.02-.02-.02-.02-.05-.05-.07-.07-.07-.06-.14-.11-.22-.16-.03-.02-.07-.03-.11-.04-.04,0-.08,0-.12,0-.04,0-.07.03-.1.05-.03.02-.06.05-.08.08l-.03.07c-.01.05-.01.11,0,.16l.03.07s.06.08.11.11h0Z"/>
        <g>
          <path class="cls-6" d="M38.24,57.59c-.03.11-.08.2-.15.28-.07.08-.17.11-.29.08-.18-.04-.33-.13-.45-.27-.12-.14-.17-.25-.16-.33.15-.85.26-1.72.34-2.61.08-.89.12-1.79.12-2.69,0-.04.02-.08.05-.13.03-.04.06-.08.1-.13.04-.05.1-.09.18-.13.08-.02.15,0,.23.05.08.05.15.12.22.22.07.09.12.19.17.3.05.11.08.21.09.3,0,.2,0,.42,0,.66,0,.24-.02.49-.03.74.27-.09.53-.2.77-.32.25-.12.47-.27.67-.43.19-.16.35-.34.47-.53.12-.19.18-.39.17-.61,0-.17-.06-.33-.17-.49-.11-.15-.3-.28-.56-.39-.6-.22-1.15-.31-1.66-.27-.51.04-1.01.17-1.51.37-.15.07-.28.11-.39.11-.11,0-.21-.02-.28-.07-.08-.04-.13-.1-.16-.17-.03-.07-.04-.13-.03-.19.06-.22.21-.4.45-.54.24-.14.48-.26.73-.34.32-.09.71-.15,1.16-.18.45-.03.89,0,1.32.09.43.09.83.25,1.19.49.36.24.62.57.79,1.01.13.51.13.96-.03,1.34-.15.38-.39.72-.71,1-.32.29-.69.54-1.11.76-.42.22-.82.41-1.21.58-.04.43-.09.86-.15,1.27-.06.41-.12.79-.18,1.14Z"/>
          <path class="cls-6" d="M42.06,58.06c-.07.16-.16.3-.26.43-.1.12-.2.19-.3.2-.21.03-.37-.02-.47-.14-.1-.12-.12-.26-.08-.43.16-.58.37-1.18.63-1.81.27-.63.56-1.26.87-1.89.32-.63.65-1.23,1-1.82.35-.59.69-1.12,1.03-1.6.06-.07.12-.12.18-.13.07,0,.12,0,.17.02.05-.04.11-.07.19-.09.07-.02.14-.03.21-.03.03,0,.06,0,.1.02.03.01.07.05.11.1.04.05.08.13.13.22.05.1.11.24.17.42.11.51.24,1.04.39,1.58.16.54.32,1.09.5,1.63.03,0,.06-.01.09-.02.03,0,.06,0,.09-.02.12,0,.25,0,.39.03.14.03.24.1.29.22.06.15.04.28-.05.38-.09.1-.25.21-.47.3.12.32.24.64.37.94.12.31.26.61.4.9,0,.05.02.13.04.23.02.1.03.21.03.31,0,.1-.01.2-.04.29-.02.09-.07.15-.14.17-.08.03-.16.02-.24-.02-.08-.04-.16-.1-.23-.17-.07-.07-.14-.14-.19-.22-.06-.08-.1-.15-.13-.21-.17-.34-.33-.67-.47-1.01-.15-.34-.29-.68-.41-1.03-.45.05-.94.09-1.47.11-.53.02-1.05.01-1.56-.02-.15.36-.3.72-.45,1.06-.15.35-.29.7-.43,1.05ZM44.86,52.07c-.54.98-1.04,1.96-1.49,2.94.7.05,1.46.02,2.26-.07-.32-.92-.57-1.88-.77-2.86Z"/>
          <path class="cls-6" d="M52.22,52.2c-.04.05-.11.09-.22.11-.11.03-.22,0-.33-.08-.08-.06-.18-.12-.29-.18-.11-.06-.23-.13-.36-.18-.13-.06-.26-.11-.39-.15-.13-.04-.26-.06-.38-.06-.15,0-.31.03-.48.1-.17.07-.31.16-.44.29-.24.24-.33.48-.27.71.06.23.23.45.51.66.18.13.38.27.6.4.22.14.43.27.64.4.21.13.41.25.61.37.19.12.36.22.51.31.19.12.37.24.54.38.17.14.32.29.45.46.13.17.24.36.32.58.08.22.12.46.13.74-.06.55-.28.98-.67,1.31-.39.33-.85.54-1.38.63-.46.08-.91.06-1.35-.05-.44-.11-.81-.33-1.11-.64-.07-.08-.14-.19-.19-.33-.05-.14-.05-.24,0-.3.07-.09.18-.15.34-.18.16-.03.29-.02.37.03.24.21.53.37.87.46.33.1.69.11,1.06.03.28-.06.51-.17.68-.34.17-.16.28-.35.32-.56.05-.22.02-.44-.1-.67-.11-.23-.32-.44-.6-.62-.44-.3-.89-.59-1.38-.86-.48-.27-.97-.59-1.45-.95-.23-.2-.4-.43-.5-.67-.1-.24-.14-.47-.14-.7,0-.24.07-.46.18-.67.11-.21.25-.4.44-.56.18-.17.4-.3.64-.41.24-.1.51-.16.79-.18.4-.02.78.07,1.15.25.37.18.67.4.91.67.05.06.07.13.07.22,0,.09-.03.17-.09.25Z"/>
          <path class="cls-6" d="M59.8,52.15c-1.05.06-2.04.23-2.99.51-.95.27-1.89.61-2.84,1-.24.1-.43.09-.56-.01-.13-.1-.2-.21-.2-.32.07-.19.19-.35.37-.47,2.06-1.05,4.06-1.56,6.13-1.52.1.02.19.08.27.19.08.11.11.2.1.28-.01.1-.03.19-.06.25-.03.07-.11.1-.22.11ZM58.06,57.51c0,.11-.02.21-.1.3-.07.09-.17.15-.29.18-.21.05-.36.02-.43-.07-.07-.09-.12-.2-.14-.33-.06-.69-.12-1.38-.18-2.06-.06-.68-.15-1.37-.24-2.06,0-.04-.01-.09-.03-.14-.01-.05-.02-.11-.01-.16,0-.05.03-.1.06-.15.03-.04.09-.08.17-.1.23-.06.4-.03.51.07.11.11.17.21.18.32.14.7.25,1.4.33,2.1.08.7.14,1.4.17,2.1Z"/>
          <path class="cls-6" d="M61.67,57.89c-.03.17-.09.33-.16.47-.07.14-.15.23-.25.26-.2.07-.36.06-.49-.03-.12-.1-.18-.23-.18-.4.02-.6.09-1.24.21-1.91.12-.67.26-1.35.43-2.04.17-.68.36-1.35.56-2,.21-.65.42-1.25.65-1.79.04-.09.09-.14.15-.16.06-.02.12-.03.17-.02.04-.05.1-.09.16-.13.07-.04.13-.06.2-.08.03,0,.06,0,.1,0,.04,0,.08.03.12.07.05.04.11.11.17.19.07.08.16.21.26.37.22.48.47.96.74,1.46.27.49.56.99.86,1.48.03-.02.06-.03.08-.04.03,0,.05-.02.08-.04.11-.03.24-.05.39-.05.15,0,.26.04.33.15.09.13.1.26.04.38-.06.12-.19.26-.39.4.19.29.38.57.57.84.19.27.39.53.59.79.02.05.05.12.09.22.04.1.07.2.1.3.02.1.03.2.03.29,0,.09-.04.16-.1.2-.07.04-.15.05-.24.03-.09-.02-.18-.06-.26-.11-.09-.05-.17-.11-.24-.17-.07-.06-.13-.12-.17-.17-.24-.29-.47-.58-.69-.88-.22-.3-.43-.6-.63-.91-.43.15-.9.3-1.41.43-.51.14-1.02.25-1.52.33-.07.39-.13.77-.2,1.14-.07.37-.13.75-.18,1.12ZM63.05,51.42c-.31,1.08-.58,2.14-.8,3.2.7-.11,1.43-.31,2.19-.58-.52-.83-.98-1.7-1.4-2.62Z"/>
        </g>
      </g>
      <rect class="cls-2" width="100" height="100"/>
    </g>
  </g>
</svg>