<?xml version="1.0" encoding="UTF-8"?>
<svg id="Capa_2" data-name="Capa 2" xmlns="http://www.w3.org/2000/svg" viewBox="0 0 100 100">
  <defs>
    <style>
      .cls-1 {
        fill: #c36142;
      }

      .cls-2 {
        fill: #fff;
      }

      .cls-3 {
        fill: none;
      }

      .cls-4 {
        fill: #4a2d2d;
      }

      .cls-5 {
        fill: #fec084;
      }
    </style>
  </defs>
  <g id="COLOR">
    <g>
      <rect class="cls-3" width="100" height="100"/>
      <g>
        <path class="cls-1" d="M65.24,56.5c-.11-3.37.05-7.28-1.26-10.46-1.08-2.64-3.41-4.2-5.3-6.2-1.63-1.73-2.04-3.27-2.23-5.52-.44-5.28-.58-10.64-.45-15.94.02-.91-1.03-1.08-1.52-.56-3.39-.68-15.83-.44-15.81.56.12,4.77-.02,9.56-.33,14.32-.11,1.69-.03,3.64-.86,5.17-1.35,2.51-4.02,3.97-5.69,6.24-1.95,2.65-2.08,6.17-2.25,9.35-.21,3.97-.27,7.96-.27,11.93,0,4.13.13,8.26.55,12.38.19,1.9.44,3.79.76,5.67.27,1.62.47,3.38,1.47,4.75,1.44,1.98,3.96,2.89,6.2,3.57,7.44,2.26,16.59,2.37,23.15-2.4,2.58-1.87,2.67-5.64,3.06-8.52.54-3.96.81-7.96.89-11.96.08-4.13,0-8.26-.13-12.38Z"/>
        <path class="cls-5" d="M59.14,63.96c0-.27,1-9.33-1.09-11.51-2.08-2.17-5.89-3.35-9.79-3.08s-11.24,1.54-12.32,3.99c-1.09,2.45-.54,19.12-.45,21.84s.36,5.53,2.99,7.16,10.6,2.27,14.04,1.54,6.16-2.08,6.71-4.62c.54-2.54-.09-15.31-.09-15.31Z"/>
        <path class="cls-4" d="M57.74,10.33c-2.39-1.09-5.91-.95-8.48-1.02-3.02-.09-6.04.04-9.03.46-2.38.33-4.25.45-4.93,3-.48,1.82-1.41,4.65.55,5.9,1.12.71,2.84.69,4.13.76,1.86.1,3.73.13,5.6.13,2.07,0,8.28.19,9.31.06,1.17-.14,2.71-.26,3.74-.88.9-.54,1.22-1.94,1.27-2.99.09-1.83-.28-4.55-2.17-5.42Z"/>
        <path class="cls-4" d="M60.21,65.55c-.05-3.3.07-6.68-.17-9.97-.16-2.19-1.01-3.89-3.01-4.92-3.06-1.57-6.58-2.08-9.99-1.99-1.58.04-3.16.22-4.71.52-1.4.27-2.99.54-4.25,1.23-2.02,1.11-3.28,2.82-3.46,5.16-.25,3.29-.12,6.67-.17,9.97-.05,3.46-.07,6.92.1,10.38.1,2.06.42,4.37,1.88,5.96,2.62,2.83,7.55,2.97,11.12,2.97,2.59,0,5.32-.33,7.77-1.22,1.53-.55,2.92-1.45,3.71-2.92.78-1.46.98-3.16,1.06-4.79.17-3.46.15-6.92.1-10.38ZM58.5,65.55c-.04,2.53-.12,5.06-.19,7.58-.05,2.06.25,4.94-.75,6.82-1.27,2.39-4.83,2.78-7.25,3.08-.32.04-.65.07-.97.1-.59.04-1.17.07-1.76.07-.08,0-.16,0-.24,0-.06,0-.13,0-.2,0-.6,0-1.2-.03-1.8-.07-.32-.03-.65-.06-.97-.1-2.31-.28-5.78-.65-7.11-2.84-1.1-1.82-.83-4.62-.88-6.66-.07-2.66-.15-5.32-.2-7.98-.04-2.53-.08-5.06-.05-7.59.03-2.9.07-5.46,3.31-6.47,2.49-.78,5.3-.9,7.9-.93,2.49.03,5.14.15,7.54.84,3.28.94,3.62,3.13,3.66,6.16.03,2.66,0,5.32-.04,7.99Z"/>
        <path class="cls-2" d="M37.83,42.29c-1.22.44-2.31,1.09-3.16,2.1s-1.83,2.32-1.17,3.62c.19.38.76.62,1.17.48,1.03-.36,1.32-1.36,1.93-2.16.57-.75,1.3-1.49,2.05-2.06.88-.67.43-2.42-.83-1.97h0Z"/>
        <path class="cls-2" d="M31.51,52.02c.03.18.07.33.17.5.2.35.6.57,1,.57s.8-.22,1-.57c.1-.18.14-.32.17-.5.06-.21.06-.43,0-.64-.06-.21-.16-.38-.31-.53-.24-.22-.53-.36-.86-.36-.31,0-.64.14-.86.36-.15.15-.25.33-.31.53-.06.21-.06.43,0,.64h0Z"/>
        <path class="cls-2" d="M59.04,87.3c.32-.02.44-.06.73-.19.14-.06.28-.17.38-.27.38-.38.51-1.07.18-1.53l-.15-.2c-.09-.09-.19-.16-.31-.2-.19-.08-.43-.12-.63-.05-.02,0-.04.01-.06.01l.28-.04c-.12.01-.25.02-.37.06-.09.03-.22.08-.3.13-.1.06-.18.14-.27.21l.23-.18s-.07.05-.11.06l.27-.12s-.08.03-.12.03l.3-.04s-.03,0-.05,0c-.3.01-.6.12-.81.34-.2.2-.35.53-.34.81s.11.61.34.81.51.36.81.34h0Z"/>
      </g>
    </g>
  </g>
</svg>