<?xml version="1.0" encoding="UTF-8"?>
<svg id="Capa_2" data-name="Capa 2" xmlns="http://www.w3.org/2000/svg" viewBox="0 0 100 100">
  <defs>
    <style>
      .cls-1 {
        fill: #c36142;
      }

      .cls-2 {
        fill: #fff;
      }

      .cls-3 {
        fill: none;
      }

      .cls-4 {
        fill: #4a2d2d;
      }

      .cls-5 {
        fill: #fec084;
      }
    </style>
  </defs>
  <g id="COLOR">
    <g>
      <rect class="cls-3" width="100" height="100"/>
      <g>
        <path class="cls-1" d="M83.67,37.3c-3.29-6.03-9.17-10.04-11.27-16.78-.22-.69-35.52-.73-40.97-.06-.18-.6-1.2-.61-1.41.06-1.85,5.94-6.54,9.91-10.05,14.85-3.92,5.51-4,12.2-3.11,18.65,1.06,7.67,2.75,15.32,4.75,22.8,1.43,5.31,2.62,13.37,8.01,16.28,3.2,1.72,7.5,1.86,11.05,2.29,5.12.63,10.29.9,15.45.57,4.85-.3,9.97-.72,14.66-2.05,6.19-1.76,7.7-8.75,9.23-14.15,2.14-7.56,3.85-15.25,5.14-23,1.08-6.46,1.8-13.46-1.47-19.45Z"/>
        <path class="cls-4" d="M76.33,16.78c-.16-2.17-.28-4.83-2.05-6.38-1.63-1.43-4.06-1.53-6.11-1.68-3.43-.25-6.87-.35-10.31-.36-4.31-.02-8.61,0-12.92,0-3.44,0-6.88.1-10.31.34-2.13.15-4.69.2-6.42,1.64-1.85,1.54-1.98,4.22-2.14,6.45-.15,2.08-.43,4.32,2.1,4.8,2.92.55,6.26.32,9.23.41,3.02.09,6.04.06,9.05.04,6.04-.03,12.1.06,18.14-.07,3.11-.07,6.4.06,9.47-.37,2.66-.37,2.41-2.67,2.25-4.82Z"/>
        <path class="cls-5" d="M66.98,36.48c-8.41-6.55-22.22-7.19-31.01-1.04-2.23,1.56-4.21,3.57-5.65,5.89-1.74,2.79-2.07,5.61-1.98,8.84.14,5.58.88,11.14,2.18,16.57.63,2.63,1.38,5.24,2.26,7.8.92,2.68,1.7,5.96,4.73,6.9,2.33.72,4.97.45,7.37.46,2.81.02,5.61.06,8.42,0,2.68-.06,5.37-.05,8.05-.18,2.6-.13,4.85-.68,6.1-3.2,2.33-4.7,3.57-10.32,4.55-15.45,1-5.25,2.01-10.98,1.44-16.35-.44-4.13-3.26-7.74-6.45-10.23Z"/>
        <path class="cls-2" d="M38.6,37.59c-2.41,1.07-4.15,2.9-5.21,5.31-.72,1.63-1.92,5.36.23,6.43.47.23.89.15,1.28-.17,1.25-1,.77-3.28,1.26-4.71.65-1.91,2.02-3.61,3.68-4.74,1.33-.9.19-2.77-1.24-2.13h0Z"/>
        <path class="cls-2" d="M32.82,51.84l.06.16.08.18c.05.09.11.16.19.21.05.05.1.08.16.1.09.05.18.07.29.06l.2-.03.18-.08c.09-.05.16-.11.21-.19.07-.07.11-.16.13-.25l.06-.16c.04-.14.04-.29,0-.43-.04-.14-.11-.26-.21-.36l-.16-.13c-.13-.07-.26-.11-.41-.11-.11,0-.22.02-.31.07-.1.03-.19.09-.26.17-.1.1-.17.22-.21.36-.04.14-.04.29,0,.43h0Z"/>
        <path class="cls-2" d="M27.01,33.66c-1.58.28-2.55,1.68-3.37,2.97-.83,1.31-1.83,2.95-1.55,4.56.16.94,1.17,1.21,1.84.58.83-.78,1.2-1.92,1.7-2.91.38-.75,1.18-2.38,1.9-2.88,1.65-1.14.82-2.56-.52-2.32h0Z"/>
        <path class="cls-2" d="M69.89,87.74c1.04-.96,2.12-3.09.84-4.29-.31-.29-.93-.38-1.22,0-.62.79-.59,1.88-1.29,2.63-1.03,1.11.55,2.69,1.66,1.66h0Z"/>
        <path class="cls-4" d="M67.39,34.31c-9.05-6.6-22.75-6.3-32.01-.28-3.03,1.97-5.61,4.68-7.17,7.95-1.88,3.93-1.62,7.99-1.34,12.23.2,3.02.56,6.04,1.09,9.02.57,3.27,1.34,6.51,2.32,9.69.82,2.66,1.58,5.84,3.29,8.08,1.38,1.8,3.47,2.53,5.64,2.8,3,.37,6.09.28,9.12.36,3.44.1,6.89.02,10.34-.02,2.41-.03,4.98.06,7.24-.91,2.51-1.08,3.6-3.27,4.53-5.71,1.14-2.99,2.08-6.05,2.84-9.16,1.52-6.21,2.18-12.56,2.23-18.95.05-6.32-3.05-11.43-8.11-15.12ZM71.99,63.05c-.97,5.13-2.22,10.75-4.55,15.45-1.25,2.52-3.5,3.08-6.1,3.2-2.68.13-5.37.12-8.05.18-2.81.06-5.61.02-8.42,0-2.4-.01-5.05.26-7.37-.46-3.03-.94-3.81-4.22-4.73-6.9-.88-2.56-1.63-5.16-2.26-7.8-1.3-5.43-2.04-10.99-2.18-16.57-.08-3.23.24-6.05,1.98-8.84,1.44-2.32,3.42-4.32,5.65-5.89,8.79-6.15,22.6-5.5,31.01,1.04,3.19,2.48,6.01,6.1,6.45,10.23.57,5.36-.44,11.09-1.44,16.35Z"/>
      </g>
    </g>
  </g>
</svg>