<?xml version="1.0" encoding="UTF-8"?>
<svg id="Capa_2" data-name="Capa 2" xmlns="http://www.w3.org/2000/svg" viewBox="0 0 100 100">
  <defs>
    <style>
      .cls-1 {
        fill: #fff;
      }

      .cls-2 {
        fill: none;
      }

      .cls-3 {
        fill: #4a2d2d;
      }

      .cls-4 {
        fill: #d9472e;
      }

      .cls-5 {
        fill: #6c5555;
      }

      .cls-6 {
        fill: #f0b5ab;
      }
    </style>
  </defs>
  <g id="COLOR">
    <g>
      <g>
        <g>
          <g>
            <path class="cls-5" d="M38.38,19.9s3.93,15.31,3.79,16.29-10.82,17.52-13.34,35.67c-2.33,16.82-2.81,17.55.98,20.64,3.79,3.09,17.55,4.77,28.5,3.51s15.02-4.07,15.59-8.42c.56-4.35-4.21-28.36-8.99-38.75-4.77-10.39-6.32-12.92-6.32-12.92,0,0,3.79-15.45,3.79-15.87s-24.01-.14-24.01-.14Z"/>
            <path class="cls-3" d="M66.98,87.71c.46,0,.93-.08,1.36-.25.23-.09.44-.2.65-.34.23-.15.44-.32.57-.57.19-.35-.19-.73-.54-.54-.04.02-.08.04-.12.07s-.08.06-.12.09c.07-.05,0,0-.01,0-.03.02-.06.04-.09.07.01-.01-.11.08-.06.04.04-.03-.02.01-.03.02-.02.01-.04.03-.06.04-.17.12-.35.22-.53.31-.02.01-.04.02-.07.03-.06.03.06-.02,0,0-.05.02-.09.04-.14.05-.1.03-.2.06-.29.09-.09.02-.19.04-.28.06-.08.01.03,0-.02,0-.02,0-.05,0-.07,0-.05,0-.11,0-.16.01-.21,0-.41.18-.4.4s.17.4.4.4h0Z"/>
            <path class="cls-3" d="M68.07,83.71l.57-.29c.12-.06.24-.13.34-.22.08-.07.15-.15.23-.22.11-.11.14-.31.06-.45-.03-.05-.08-.1-.13-.13-.09-.06-.19-.05-.28-.04-.11.02-.22.03-.32.06-.08.02-.16.06-.23.1-.05.02-.09.04-.14.06l-.57.29c-.1.05-.19.18-.22.29-.03.12-.02.27.05.37s.17.19.29.22c.13.03.25.01.37-.05h0Z"/>
            <path class="cls-1" d="M44.24,36.73c.95.46,2.02.66,3.06.82s2.13.25,3.2.25,2.08-.09,3.11-.24,2.23-.33,3.18-.84c.33-.18.2-.8-.2-.75-.99.11-1.96.44-2.95.61-1.04.18-2.09.27-3.14.29s-2.11-.05-3.16-.19c-.99-.14-1.95-.4-2.94-.53-.31-.04-.43.46-.16.59h0Z"/>
            <path class="cls-4" d="M37.77,22.33s-2.81-7.4-2.34-9.27,4.21-4.68,15.82-4.31,14.04,2.15,14.23,4.31-2.15,8.8-2.53,9.27-5.9,2.15-13.2,2.06c-7.3-.09-11.98-2.06-11.98-2.06Z"/>
            <path class="cls-3" d="M35.81,13.63c3.36,1.24,6.92,1.83,10.49,2.03,4.03.23,8.09.1,12.1-.4,1.11-.14,2.21-.3,3.31-.49s2.2-.35,3.22-.71c.92-.33.54-1.57-.4-1.43s-1.87.41-2.81.59-1.88.33-2.83.47c-1.96.28-3.93.45-5.9.54-3.78.18-7.59.05-11.35-.36-1.89-.21-3.79-.45-5.66-.84-.41-.09-.55.47-.17.62h0Z"/>
            <path class="cls-3" d="M37.46,22.62c2.99,1.24,6.17,1.83,9.34,2.03,3.59.23,7.21.1,10.78-.4.99-.14,1.97-.3,2.95-.49s1.96-.35,2.87-.71c.82-.33.48-1.57-.35-1.43s-1.67.41-2.51.59-1.68.33-2.52.47c-1.74.28-3.5.45-5.26.54-3.37.18-6.76.05-10.11-.36-1.69-.21-3.38-.45-5.04-.84-.36-.09-.49.47-.15.62h0Z"/>
          </g>
          <path class="cls-6" d="M37.06,57.3s6.33,2.05,14.13,1.99,11.48-1.86,11.48-1.86l4.72,16.12s-8.18,3.42-17.21,3.24c-9.04-.18-16.48-3.24-16.48-3.24l3.36-16.24Z"/>
          <g>
            <path class="cls-3" d="M45.86,64.74c-.04.05-.11.09-.22.11s-.22,0-.33-.08c-.08-.06-.18-.12-.29-.19-.11-.07-.23-.13-.36-.19s-.26-.11-.39-.15-.26-.06-.38-.06c-.15,0-.31.04-.48.11-.17.07-.31.17-.43.3-.23.25-.32.5-.25.74.07.24.24.46.52.66.18.13.38.27.59.4.21.14.42.27.63.4.21.13.4.26.59.38.19.12.35.23.49.32.18.12.35.25.52.39.16.14.3.3.42.48.12.18.22.38.29.6.07.22.11.48.11.76-.07.56-.29,1-.66,1.33s-.8.54-1.28.63c-.42.08-.84.07-1.25-.05-.41-.11-.76-.32-1.04-.64-.07-.08-.13-.19-.18-.33s-.06-.24-.02-.3c.06-.09.17-.15.32-.19s.27-.03.35.02c.23.21.51.37.82.46s.64.1.99.02c.26-.06.48-.17.64-.34.16-.17.26-.36.3-.57.05-.22.02-.45-.08-.69-.11-.24-.3-.45-.57-.64-.42-.31-.86-.61-1.33-.88-.47-.27-.95-.59-1.43-.94-.23-.2-.4-.42-.51-.67-.11-.24-.16-.48-.16-.71s.05-.47.15-.69c.1-.22.24-.41.42-.59.18-.18.39-.32.64-.43s.51-.18.8-.2c.4-.02.79.06,1.17.25.37.19.68.42.91.69.05.06.07.14.07.23,0,.09-.04.18-.1.26Z"/>
            <path class="cls-3" d="M53.12,68c-.06.28-.17.55-.33.81-.16.26-.34.5-.54.72-.2.22-.42.42-.66.58-.24.16-.48.29-.72.38-.44.16-.89.21-1.33.16-.44-.06-.83-.26-1.18-.6-.23-.28-.4-.6-.49-.96s-.14-.71-.14-1.08c0-.37.06-.73.15-1.07.1-.34.22-.65.37-.92.18-.32.4-.59.65-.8.25-.21.53-.34.83-.38.08-.02.15,0,.2.06.05.06.08.13.08.21.1-.1.26-.18.47-.23.21-.05.45-.06.71-.02.49.06.87.21,1.15.44.28.23.49.5.63.81.14.31.21.63.21.97,0,.34-.02.64-.08.92ZM49.82,65.91c-.2.09-.37.23-.51.4-.14.18-.25.38-.33.6-.09.22-.14.46-.17.72s-.03.51,0,.75c.03.35.14.64.32.87s.46.34.85.34c.22,0,.44-.04.66-.13s.42-.2.6-.34c.18-.14.35-.31.5-.51.15-.2.27-.4.36-.61.05-.11.09-.25.12-.42.03-.17.04-.34.03-.52-.01-.18-.05-.35-.12-.51-.07-.16-.18-.3-.33-.41-.21-.15-.47-.24-.76-.27-.29-.03-.6.04-.92.2-.06.04-.13.05-.2.02s-.1-.09-.08-.19Z"/>
            <path class="cls-3" d="M57.02,67.82c-.04.16-.08.4-.11.71s-.07.63-.09.97c-.03.34-.05.66-.06.98-.02.31-.02.56-.02.73,0,.29-.16.44-.49.44-.11,0-.22-.03-.31-.09-.1-.06-.14-.18-.14-.35,0-.42.02-.88.05-1.38.03-.5.07-1.01.12-1.53-.35-.65-.68-1.28-.99-1.91-.31-.63-.57-1.2-.78-1.73-.04-.09-.07-.19-.1-.3-.03-.11-.04-.2-.03-.3,0-.09.03-.17.07-.24.04-.07.11-.11.21-.13.11,0,.22,0,.33.02.11.03.2.09.28.2.08.21.18.46.3.73.12.27.25.55.38.83.13.28.26.55.39.81.13.26.25.48.35.66.46-.61.89-1.23,1.3-1.87s.79-1.24,1.15-1.82c.13-.2.27-.31.41-.33.14-.02.26.01.35.09.08.06.13.16.14.3.02.14,0,.27-.05.38-.17.3-.37.63-.6.99s-.46.72-.7,1.08c-.24.36-.47.72-.71,1.08-.23.35-.45.67-.64.96Z"/>
          </g>
        </g>
        <path class="cls-1" d="M42.15,43.04l-.15.12.65-.38c-.45.07-.9.5-1.22.83-.16.16-.28.35-.37.55s-.17.47-.15.7c.01.14.01,0,.03-.06-.05.14-.06.35-.06.5.01.39.17.72.48.95.33.26.66.27,1.06.22.2-.03.38-.12.55-.22l-.69.19c.23-.01.46-.03.68-.1.47-.16.78-.46,1.05-.86s.5-.79.49-1.29l-.2.74.09-.17c.34-.63.2-1.4-.37-1.84-.24-.19-.55-.32-.86-.31-.4.02-.69.17-1.01.42h0Z"/>
        <path class="cls-1" d="M39.25,53.08c1.72,0,1.73-2.68,0-2.68s-1.73,2.68,0,2.68h0Z"/>
      </g>
      <rect class="cls-2" width="100" height="100"/>
    </g>
  </g>
</svg>