<?xml version="1.0" encoding="UTF-8"?>
<svg id="Capa_2" data-name="Capa 2" xmlns="http://www.w3.org/2000/svg" viewBox="0 0 100 100">
  <defs>
    <style>
      .cls-1 {
        fill: #6e5757;
      }

      .cls-2 {
        fill: #fff;
      }

      .cls-3 {
        fill: none;
      }

      .cls-4 {
        fill: #4a2d2d;
      }

      .cls-5 {
        fill: #f7bc3b;
      }
    </style>
  </defs>
  <g id="COLOR">
    <g>
      <rect class="cls-3" width="100" height="100"/>
      <g>
        <path class="cls-4" d="M48.5,13.94c0-.25-.25-11.95.12-12.08s3.51-.43,3.64,0c.12.43.06,11.89.06,11.89l-3.82.18Z"/>
        <g>
          <path class="cls-4" d="M52.13,93.62c-.2-.06-.39-.07-.59-.08-.31-.02-.6.28-.59.59.01.3.26.61.59.59.2-.01.4-.03.59-.08.21-.06.4-.27.39-.51-.01-.23-.16-.44-.39-.51Z"/>
          <path class="cls-5" d="M48.85,33.29c.59.17,1.2.22,1.82.19.64-.03,1.27-.15,1.89-.34.16-.05.31-.11.46-.17-.17-.17-.71-.51-2.39-.63-1.48-.11-2.31.26-2.72.54.3.16.6.31.94.41Z"/>
          <path class="cls-5" d="M70.68,72.52c-.49-6-10.11-13.31-13.8-16.6s-4.19-5.67-4.11-9.94c.06-3.17.21-8.74.29-11.4-.07.02-.13.04-.2.06-.74.23-1.52.37-2.3.39-.91.03-1.97-.11-2.87-.52.23,3.62.77,13.43.04,16.42-.9,3.7-11.71,8.89-15.65,16.77-3.94,7.89.34,13.38,3.87,14.94,3.53,1.56,7.85,2.68,7.85,5.61,0,2.55-6.46,2.94-5.56,5,.9,2.05,11.62,2.65,19.42,1.73,3.64-.43,5.91-1.75,4.84-2.65-1.07-.9-5.64-1.1-5.56-3.57.08-2.46,2.25-3.69,6.27-5.25,4.03-1.56,7.95-5.01,7.46-11.01Z"/>
          <g>
            <g>
              <path class="cls-4" d="M72.84,66.91c-2.19-4.52-6.1-7.75-10.03-10.75,1.3-.55,2.53-1.5,3.65-2.26,1.47-1,2.7-2.21,3.72-3.67,2.01-2.89,2.91-6.79,1.69-10.17-2.55-7.07-11.76-3.37-16.05.72,0-.6-.02-1.21-.02-1.81-.02-3.22.04-6.44.1-9.66.06-2.96.37-7.93.16-10.92h-1.7c-.27,2.46-.16,6.87-.21,9.31-.07,2.86.05,5.79-.12,8.69-.18,2.92-.09,5.91-.05,8.84.03,2.32.06,4.78,1.48,6.73,1.58,2.17,4.25,3.72,6.3,5.43,2.24,1.87,4.42,3.87,6.22,6.17,3.49,4.45,5.88,10.98,2.63,16.21-1.64,2.65-4.48,4.57-7.41,5.53-1.84.6-4.42,1.04-4.35,3.5.02.58.44.93.99.99,1.19.14,2.3.57,3.2,1.37.88.77,1.81,2.3.6,3.19-1.26.94-3.28,1.09-4.76,1.35-2.29.39-4.55.53-6.83.57-.36,0-.72,0-1.07.01-.19,0-.38,0-.57,0-.18,0-.36,0-.54,0-.36,0-.73,0-1.09-.01-2.27-.04-4.53-.18-6.82-.57-1.46-.25-3.3-.39-4.57-1.23-1.23-.81-.74-2.21.18-3.1.95-.92,2.11-1.43,3.42-1.58.54-.06.97-.4.99-.99.06-1.96-1.68-2.71-3.3-3.19-2.64-.79-5.04-1.98-7-3.98-4.34-4.43-3.39-10.94-.39-15.83,3.15-5.13,8.1-8.49,12.59-12.31,4.1-3.49,3.01-9.67,2.96-14.5-.03-3.33-.07-6.66-.14-9.98-.06-2.85.1-7.73-.24-10.6-.57,0-1.13-.01-1.7-.02-.16,2.47.07,6.88.11,9.33.06,2.94.12,5.87.14,8.81.01,3.01-.05,6.02-.09,9.03-.02,1.35.21,2.89-.12,4.21-.44,1.79-2.09,2.84-3.46,3.89-4.36,3.32-9.22,6.53-12.22,11.23-2.77,4.34-4.07,9.9-1.87,14.75,1.1,2.43,2.97,4.46,5.21,5.89,1.17.75,2.44,1.34,3.75,1.79.49.17,2.34.43,3.26.93-1.89.68-3.8,1.84-4.64,3.66-.88,1.92.14,3.72,1.86,4.67,2.23,1.23,5.26,1.48,7.73,1.77,1.99.23,4.02.37,6.03.24,1.86.11,3.75,0,5.61-.2,2.58-.28,5.76-.54,8.08-1.81,1.69-.93,2.69-2.65,1.91-4.55-.77-1.88-2.77-3.09-4.7-3.78.74-.39,2.05-.55,2.48-.68,1.15-.33,2.29-.79,3.35-1.35,2.13-1.11,3.99-2.71,5.34-4.7,3.02-4.41,2.57-9.95.33-14.58ZM55.91,47.7c0-.32,0-.64,0-.96,1.36-1.41,2.7-2.87,4.35-3.94,1.15-.74,2.68-1.45,4.08-.99,1.79.59,1.5,2.45.81,3.76-.89,1.68-2.29,3.03-3.8,4.16-1.11.82-2.63,1.49-3.63,2.5-1.49-1.31-1.82-2.62-1.81-4.53ZM61.66,55.28c-.06-.05-.12-.09-.18-.14-.7-.53-1.41-1.05-2.11-1.58.68-.29,1.34-.7,1.97-1.05,1.31-.72,2.56-1.59,3.66-2.6,1.85-1.7,3.91-4.66,3.11-7.32-.8-2.66-3.9-3.2-6.17-2.25-2.42,1.01-4.35,2.77-6.04,4.73-.01-.78-.02-1.56-.04-2.33,2.35-1.61,4.41-3.41,7.14-4.45,1.36-.52,2.93-.9,4.37-.45,1.98.62,2.74,2.61,2.9,4.51.25,2.92-.96,5.82-2.8,8.04-.95,1.15-2.04,2.31-3.24,3.21-.82.62-1.76,1.07-2.56,1.69Z"/>
              <path class="cls-4" d="M53.25,89.59c-3.07-.41-6.22-.21-9.31-.52-.43-.04-.52.67-.1.75,3.04.59,6.45,1.12,9.5.43.41-.09.26-.62-.09-.67Z"/>
              <path class="cls-4" d="M56.33,89.73c-.11.05.02,0,.05-.01.02,0,.04-.01.07-.01-.07,0-.07,0,0,0,.08-.01.15-.05.23-.08-.07.03-.06.03.06-.02.04-.02.07-.05.1-.08.16-.14.14-.4,0-.55-.26-.27-.66-.17-.95-.01-.21.11-.29.41-.16.61.14.22.38.27.61.16Z"/>
              <path class="cls-4" d="M49.77,93.58c-1.78-.43-3.81-.13-5.64-.26-2.25-.16-4.44-.68-6.62-1.2-.61-.15-.83.71-.26.93,2.17.8,4.42,1.24,6.71,1.53,1.81.23,4.07.57,5.81-.07.42-.15.49-.81,0-.93Z"/>
              <path class="cls-4" d="M52.13,93.62c-.2-.06-.39-.07-.59-.08-.31-.02-.6.28-.59.59.01.3.26.61.59.59.2-.01.4-.03.59-.08.21-.06.4-.27.39-.51-.01-.23-.16-.44-.39-.51Z"/>
              <path class="cls-4" d="M54.37,93.71c-.54.11-.41.96.13.96,2.5-.03,5.84-.37,7.98-1.74.41-.26.29-1.03-.27-.98-1.26.12-2.47.62-3.7.92-1.37.33-2.76.56-4.14.84Z"/>
            </g>
            <path class="cls-4" d="M64.54,80.66c1.36-.72,4.66-2.7,2.9-4.61-.24-.26-.7-.25-.94,0-.5.5-.66,1.19-1.07,1.75-.45.62-1.05,1.09-1.67,1.52-.81.56-.11,1.81.78,1.34h0Z"/>
          </g>
          <path class="cls-2" d="M40.6,63.41c-2.21,1.46-3.69,3-4.59,5.55-.68,1.93-1.28,4.85.79,6.13.29.18.67.11.91-.12,1.26-1.19,1.09-2.98,1.52-4.54.49-1.77,1.48-3.91,2.69-5.3.77-.88-.23-2.44-1.32-1.71h0Z"/>
          <path class="cls-2" d="M38.22,78.58c.22.28.41.49.71.69.26.18.63.31.95.29.46-.03.93-.31,1.03-.79.04-.19.04-.38,0-.57-.06-.28-.27-.48-.49-.64-.14-.1-.31-.17-.46-.28l.22.17c-.08-.07-.16-.14-.23-.23-.16-.2-.53-.34-.78-.32s-.47.08-.67.24c-.18.14-.34.34-.4.57-.06.27-.07.62.11.85h0Z"/>
        </g>
        <path class="cls-1" d="M57.62,19.36s1.66-2.53,1.05-4.62c-.62-2.09-5.61-2.96-8.87-2.71-3.27.25-7.78.99-7.95,3.57-.08,1.3.68,3.2,1.6,3.57.92.37,14.17.18,14.17.18Z"/>
        <path class="cls-2" d="M43.31,16.47c1.02.26,2.11.12,3.15.11.93-.02,2.09.24,2.74-.56.3-.37.29-.76,0-1.14-.66-.85-1.98-.55-2.93-.48-1.07.08-2.18.15-3.14.66-.59.31-.45,1.25.18,1.41h0Z"/>
        <path class="cls-2" d="M53.68,16.35l.04-.04c.16-.16.24-.31.31-.52.05-.15.05-.29.02-.44,0-.15-.05-.28-.13-.41l-.17-.22c-.14-.14-.3-.23-.48-.28-.22-.07-.4-.04-.63,0h-.06c-.19.06-.36.16-.5.3-.14.14-.24.31-.29.5l-.04.3c0,.2.05.4.15.57.07.13.17.24.29.32.11.1.24.17.39.2.2.05.4.05.6,0,.19-.05.36-.15.5-.29h0Z"/>
      </g>
    </g>
  </g>
</svg>