<?xml version="1.0" encoding="UTF-8"?>
<svg id="Capa_2" data-name="Capa 2" xmlns="http://www.w3.org/2000/svg" viewBox="0 0 100 100">
  <defs>
    <style>
      .cls-1 {
        fill: #6e5757;
      }

      .cls-2 {
        fill: #fff;
      }

      .cls-3 {
        fill: none;
      }

      .cls-4 {
        fill: #4a2d2d;
      }

      .cls-5 {
        fill: #b3644c;
      }
    </style>
  </defs>
  <g id="food_icons" data-name="food icons">
    <g>
      <g>
        <g>
          <path class="cls-5" d="M48.6,46.77c-.14-.45-.53-.64-.91-.61l-.26-1.31-27.42-.06s-.14.51-.35,1.36c-.34-.51-1.18-.5-1.43.21-.62,1.78-.68,3.89-.86,5.77-.2,2.07-.34,4.15-.3,6.23.06,3.6.6,7.27,1.86,10.65,2.11,5.64,6.63,11.14,13.23,10.24.09,1.96.94,4.86,2.95,5.2,2.17.37,2.51-3.14,2.61-5.06,5.92-.1,9.24-7.57,10.5-12.45.83-3.22,1.23-6.57,1.28-9.89.05-3.3.08-7.11-.89-10.28Z"/>
          <path class="cls-1" d="M52.04,44.96c.18-.88.1-1.98.05-2.69-.1-1.38-.46-2.74-.99-4.01-1.02-2.49-2.77-4.66-4.75-6.49-2.78-2.58-7.86-4.13-9.98-4.62-.58-2.01,1.27-5.19,2.23-6.68,1.05-1.62,2.99-3.88,1.96-5.88-.9-1.74-2.95-1.67-4.38-.69-1.81,1.24-2.7,3.33-3.5,5.31-.93,2.3-1.31,5.21-1.38,7.75-1.91-.04-5.27.86-6.9,1.67-2.13,1.06-4.03,2.6-5.56,4.41-1.51,1.79-2.6,3.81-3.18,6.09-.51,1.99-1.37,6.9.14,7.54,5.73,2.42,12.21,3.02,18.41,2.93,3.48-.05,7.02-.32,10.43-1.04,1.32-.28,2.66-.56,3.94-1,.93-.32,2.49-.84,3.1-1.65.18-.24.3-.57.38-.94Z"/>
          <path class="cls-4" d="M43.92,40.81h0c.19-.06.39-.07.58-.03.13,0,.25.03.37.1.18.06.34.16.47.3.08.1.15.2.23.29.05.12.1.23.15.35.06.19.07.39.03.58,0,.13-.03.25-.1.37-.06.18-.16.34-.3.47-.1.08-.2.15-.29.23-.12.05-.23.1-.35.15-.19.06-.39.07-.58.03-.13,0-.25-.03-.37-.1-.18-.06-.34-.16-.47-.3-.08-.1-.15-.2-.23-.29-.05-.12-.1-.23-.15-.35-.07-.26-.07-.52,0-.77,0,0,0,0,0,0,.07-.25.19-.46.37-.64.18-.18.39-.3.64-.37h0Z"/>
          <path class="cls-4" d="M41.28,37.98c-1.44,0-1.44-2.24,0-2.24s1.44,2.24,0,2.24h0Z"/>
          <path class="cls-4" d="M37.64,44.24c-1.4,0-1.4-2.17,0-2.17s1.4,2.17,0,2.17h0Z"/>
          <path class="cls-2" d="M26.64,30.02c-1.72.53-3.19,1.59-4.39,2.93-1,1.12-2.52,2.92-2.07,4.53.15.52.8.82,1.27.52,1.15-.73,1.56-2.34,2.39-3.39.96-1.22,2.18-2.17,3.43-3.07.71-.52.32-1.81-.64-1.51h0Z"/>
          <path class="cls-2" d="M19,40.43c-.03.19-.07.38-.07.58,0,.17.02.34.09.49.12.28.37.53.67.6.48.11.98-.1,1.2-.55.09-.18.16-.36.21-.55.08-.27.03-.6-.11-.84-.13-.23-.39-.44-.65-.5-.28-.06-.59-.05-.84.11-.22.14-.46.38-.5.65h0Z"/>
          <path class="cls-4" d="M15.49,47.28c5.72,2.41,12.59,2.87,18.73,2.85,5.7-.02,12.59-.48,17.53-3.65.68-.43.26-1.66-.57-1.36-2.68.98-5.25,1.95-8.07,2.46-3.03.55-6.13.72-9.21.76-6.16.08-12.21-.25-18.14-2.04-.64-.19-.85.73-.27.98h0Z"/>
          <path class="cls-4" d="M41.15,74.1c.35,0,.88.08,1.13-.21.17-.2.17-.45,0-.65-.25-.29-.79-.2-1.13-.21-.28,0-.54.25-.53.53.01.28.23.53.53.53h0Z"/>
          <path class="cls-4" d="M42.48,71.29c.36,0,.8.04,1.07-.25.14-.15.14-.37,0-.52-.27-.29-.71-.25-1.07-.25-.27,0-.53.24-.51.51.01.28.23.52.51.51h0Z"/>
        </g>
        <g>
          <path class="cls-5" d="M79.4,40.52c-.46-.62-.99-1.63-1.7-2.21-.34-.27-.72-.45-1.15-.44-.74.02-1.78.63-2.46.91-.85.34-1.69.71-2.51,1.11-3.24,1.58-6.26,3.67-8.67,6.36-3.75,4.19-6.37,9.61-8.01,14.96-1.62,5.28-2.72,11.35-1.81,16.85.73,4.44,3.39,8.46,8.2,8.74.4.02.6-.27.6-.58,2.49,2.01,2.48,2.21,4.7,2.47-.15.32,5.32-.57,5.78-.46,10.42,2.65,14.53-12.86,14.92-20.28.51-9.55-2.18-19.7-7.87-27.44Z"/>
          <path class="cls-4" d="M64.23,54.63c-1.01,1.34-1.71,2.67-2.15,4.29-.13.48.55.64.73.2.55-1.4,1.26-2.85,2.08-4.1.28-.42-.37-.77-.66-.39h0Z"/>
          <path class="cls-4" d="M60.64,65.12c-2.33,6.32-4.12,16.48,1.1,21.96,2.37,2.49,6.5,2.91,9.62,1.79,3.18-1.15,6.22-4.15,7.59-7.21.32-.72-.58-1.25-1.05-.61-1.94,2.63-3.8,4.94-7.06,5.94-3.1.95-6.66.4-8.92-2.08-2.05-2.25-2.22-5.79-2.13-8.67.11-3.7.85-7.28,1.82-10.84.18-.64-.75-.87-.98-.27h0Z"/>
          <path class="cls-4" d="M73.8,45.96c-2.22,4.24-4.17,8.57-5.73,13.1-1.56,4.51-2.78,9.15-3.47,13.87-.19,1.27-.34,2.55-.45,3.83-.11,1.28-.25,2.7.03,3.96.04.18.32.17.36,0,.28-1.13.26-2.35.35-3.51.1-1.15.2-2.3.34-3.44.29-2.3.72-4.59,1.26-6.85,1.09-4.56,2.61-9.01,4.4-13.35,1.03-2.5,2.06-5,3.19-7.46.08-.18-.18-.34-.27-.16h0Z"/>
          <path class="cls-4" d="M77.84,50.82c-.6,3.69-.93,7.43-1.66,11.1-.73,3.66-1.68,7.25-2.75,10.82-.61,2.02-1.28,4.01-1.87,6.03-.05.19.23.32.32.13,1.57-3.4,2.63-7.02,3.54-10.64.93-3.65,1.67-7.37,2.26-11.09.33-2.09.53-4.19.55-6.31,0-.22-.35-.28-.39-.05h0Z"/>
          <path class="cls-4" d="M80.05,74.12c.78-1.73,1.38-3.51,1.75-5.37.18-.91.3-1.83.38-2.75.07-.89.13-1.93-.12-2.8-.04-.12-.23-.13-.26,0-.21.84-.21,1.78-.28,2.65-.07.94-.19,1.88-.35,2.81-.3,1.82-.76,3.62-1.37,5.36-.05.15.19.25.26.11h0Z"/>
          <path class="cls-2" d="M74.25,40.39c-1.6-.07-2.99,1.05-4.2,1.97-1.17.89-2.78,1.99-3,3.57-.08.55.33,1.15.96.96,1.27-.4,2.16-1.52,3.17-2.35,1.13-.94,2.27-1.85,3.47-2.7.62-.44.41-1.41-.39-1.45h0Z"/>
          <path class="cls-2" d="M64.46,48.42c-.06.08-.13.17-.19.26-.13.21-.19.56-.12.79.05.15.13.28.26.38.14.11.27.14.44.16.16.02.31-.06.45-.12.11-.05.19-.09.28-.19.08-.07.15-.15.22-.23.35-.38.33-.96-.09-1.29-.19-.15-.4-.2-.64-.17-.11,0-.22.04-.32.1-.13.08-.23.18-.31.31h0Z"/>
          <path class="cls-2" d="M81.81,77.93c.37-.61.64-1.27.48-1.99-.07-.3-.36-.52-.65-.56-.33-.04-.58.11-.77.37.07-.09-.17.25-.2.31-.07.14-.14.28-.19.43-.01.03-.12.3-.06.18-.05.12-.11.23-.17.34-.23.42-.12,1.01.33,1.24.44.23.98.11,1.24-.33h0Z"/>
        </g>
      </g>
      <rect class="cls-3" width="100" height="100"/>
    </g>
  </g>
</svg>