<?xml version="1.0" encoding="UTF-8"?>
<svg id="Capa_2" data-name="Capa 2" xmlns="http://www.w3.org/2000/svg" viewBox="0 0 100 100">
  <defs>
    <style>
      .cls-1 {
        fill: #fff;
      }

      .cls-2 {
        fill: none;
      }

      .cls-3 {
        fill: #4a2d2d;
      }

      .cls-4 {
        fill: #b3644c;
      }
    </style>
  </defs>
  <g id="COLOR">
    <g>
      <g>
        <g>
          <path class="cls-4" d="M43.7,64.47c-1.38-6.77-4.82-13.01-9.66-17.93-2.57-2.61-5.56-5.02-8.9-6.57-.71-.33-1.44-.62-2.22-.71-2.27-.28-3.48,1.44-4.39,3.24-1.05,2.08-1.72,4.35-2.34,6.59-1.37,4.92-2.51,10.17-2.43,15.3.07,4.51.81,9.58,3.13,13.52,4.01,6.81,13.56,10.84,20.99,7.19,7.16-3.51,7.17-13.97,5.81-20.63Z"/>
          <path class="cls-3" d="M20.64,47.13c-2.66,9.12-2.86,19.52,1.55,28.15,1.1,2.16,2.49,4.4,4.33,6.01.22.19.48-.09.31-.31-.68-.86-1.39-1.69-2.03-2.57-.63-.87-1.2-1.78-1.71-2.72-1.05-1.9-1.86-3.93-2.47-6.01-1.32-4.57-1.57-9.38-1.1-14.1.28-2.81.82-5.61,1.44-8.36.05-.2-.25-.29-.31-.09h0Z"/>
          <path class="cls-3" d="M23.52,52.53c-.45,4.34-.1,8.74.94,12.98.95,3.84,2.36,7.63,3.95,11.24.83,1.88,1.73,3.76,3,5.39.08.11.25-.03.19-.14-1.87-3.21-3.42-6.55-4.61-10.07-1.34-3.95-2.53-7.96-2.94-12.13-.23-2.41-.25-4.85-.07-7.26.02-.31-.44-.3-.48,0h0Z"/>
          <path class="cls-3" d="M28.1,52.7c2.02,3.8,3.04,7.98,4.02,12.14.84,3.54,1.49,7.12,2.11,10.7.34,1.94.56,3.92.98,5.83.04.19.35.15.34-.05-.16-1.72-.5-3.43-.75-5.13-.29-1.92-.59-3.84-.91-5.75-.65-3.84-1.48-7.67-2.61-11.39-.7-2.29-1.57-4.52-2.75-6.6-.16-.28-.58-.03-.43.25h0Z"/>
          <path class="cls-3" d="M26.33,45.66c3.89,2.51,6.72,6.33,8.58,10.52,1.9,4.27,2.88,8.94,3.38,13.57.33,3.07.58,6.17.4,9.25-.02.29.43.35.5.07.39-1.54.31-3.19.25-4.77-.05-1.27-.14-2.53-.27-3.79-.24-2.36-.6-4.71-1.13-7.03-1.04-4.61-2.71-9.3-5.62-13.09-1.61-2.1-3.54-3.86-5.86-5.16-.28-.16-.52.26-.25.43h0Z"/>
          <path class="cls-1" d="M21.38,43.12h.12c.13,0,.24-.02.35-.08.11-.04.21-.1.3-.19.09-.08.15-.18.19-.3.06-.11.08-.23.08-.35l-.03-.24c-.04-.16-.12-.29-.24-.41-.18-.17-.4-.27-.65-.27h-.12c-.13,0-.24.02-.35.08-.11.04-.21.1-.3.19-.09.08-.15.18-.19.3-.06.11-.08.23-.08.35l.03.24c.04.16.12.29.24.41.18.17.4.27.65.27h0Z"/>
          <path class="cls-1" d="M18.83,47.93c1.01,0,1.01-1.56,0-1.56s-1.01,1.56,0,1.56h0Z"/>
        </g>
        <g>
          <path class="cls-4" d="M74.26,13.96c-5.11-3.32-11.96-1.36-17,1-4.02,1.88-7.76,4.38-11.06,7.36-3.22,2.9-5.99,6.31-8.07,10.12-1.62,2.97-4.38,8.26-1.99,11.48,1.03,1.39,2.79,1.74,4.41,1.91,2.45.26,4.93.38,7.39.35,4.83-.05,9.76-.9,14.29-2.58,8.17-3.03,16.33-9.2,16.91-18.61.25-4.13-1.28-8.69-4.87-11.03Z"/>
          <path class="cls-3" d="M71.48,16.98c-1.85-.09-3.66-.03-5.49.26s-3.71.75-5.51,1.35c-3.6,1.19-7.05,2.92-10.07,5.23-.82.63-1.61,1.29-2.36,2s-1.5,1.43-1.91,2.36c-.07.16.09.38.27.27.74-.49,1.36-1.16,2-1.77s1.31-1.2,2.01-1.76c1.43-1.14,2.97-2.14,4.56-3.04,3.26-1.83,6.81-3.14,10.48-3.84,1.98-.38,4.02-.64,6.03-.66.26,0,.26-.4,0-.41h0Z"/>
          <path class="cls-3" d="M40.03,38.9c1.7-1.6,3.51-3.1,5.34-4.55,2.02-1.61,4.14-3.1,6.32-4.49,4.36-2.79,9.01-5.25,13.92-6.9,1.2-.41,2.43-.76,3.67-1.03,1.13-.25,2.3-.33,3.4-.7.13-.05.16-.27,0-.3-1.02-.19-2.03.02-3.03.22-1.12.23-2.23.52-3.32.86-2.39.75-4.7,1.72-6.95,2.81-4.8,2.33-9.37,5.19-13.59,8.46-2.14,1.66-4.13,3.44-5.92,5.47-.1.11.06.27.17.17h0Z"/>
          <path class="cls-3" d="M73.69,24.22c-2.44,1.96-4.92,3.83-7.59,5.48-3.34,2.07-6.91,3.75-10.58,5.16-2.69,1.03-5.45,1.89-8.16,2.85-.13.04-.08.23.06.2,4.65-1.05,9.21-2.75,13.52-4.77,3.18-1.49,6.18-3.28,8.98-5.39,1.38-1.05,2.7-2.15,3.97-3.33.13-.12-.06-.29-.19-.19h0Z"/>
          <path class="cls-3" d="M40.66,42.25c5.15.74,10.47.14,15.44-1.35,2.53-.76,4.97-1.78,7.33-2.99,2.09-1.07,4.11-2.29,5.98-3.72,1.02-.79,2.02-1.63,2.92-2.56.44-.46.85-.95,1.24-1.45.41-.53.83-1.06,1.1-1.68.12-.27-.19-.56-.43-.33-.79.78-1.45,1.7-2.24,2.49s-1.64,1.59-2.53,2.32c-1.76,1.43-3.7,2.63-5.7,3.7-4.5,2.4-9.35,4.07-14.42,4.69-2.85.35-5.75.4-8.61.28-.34-.01-.43.56-.08.61h0Z"/>
          <path class="cls-1" d="M39.75,35.67c.13-.04.27-.08.4-.13.24-.08.41-.21.55-.42.11-.17.16-.45.1-.64-.15-.46-.62-.68-1.08-.58-.14.03-.28.07-.42.11-.44.11-.74.62-.6,1.06s.6.75,1.06.6h0Z"/>
          <path class="cls-1" d="M41.47,32.09c1.18,0,1.18-1.83,0-1.83s-1.18,1.83,0,1.83h0Z"/>
        </g>
        <g>
          <path class="cls-4" d="M84.76,48.68c-.02-.22-.05-.43-.07-.65-.22-1.77-.41-3.85-1.67-5.22-2.81-3.05-8.49.9-10.97,2.54-7.52,4.95-15.35,11.66-18.95,20.12-3.2,7.53-1.54,17.35,6.49,21,3.48,1.58,7.47,1.7,10.96.11,4.03-1.83,6.83-5.47,8.83-9.3,3.69-7.08,5.41-15.1,5.63-23.05.05-1.82-.03-3.71-.23-5.56Z"/>
          <path class="cls-3" d="M77.57,47.36c-4.35,2.04-8.29,5.15-11.61,8.6-1.66,1.72-3.2,3.57-4.58,5.53-1.41,1.99-2.57,4.1-3.61,6.3-1.14,2.43-2.22,5-2.79,7.63-.05.25.3.35.39.11.37-1.13.7-2.28,1.11-3.4.42-1.14.89-2.25,1.4-3.35,1-2.13,2.25-4.16,3.56-6.12,2.66-3.95,5.96-7.48,9.75-10.37,2.13-1.62,4.42-2.99,6.76-4.28.43-.24.05-.85-.38-.65h0Z"/>
          <path class="cls-3" d="M74.66,54.3c-5.87,5.12-10.57,11.51-13.63,18.68-.86,2.01-1.63,4.06-2.14,6.18-.08.33.4.46.5.14.62-1.81,1.24-3.62,1.97-5.38.74-1.78,1.58-3.51,2.5-5.2,1.83-3.37,4.04-6.55,6.52-9.47,1.41-1.66,2.93-3.22,4.53-4.69.18-.16-.08-.42-.26-.26h0Z"/>
          <path class="cls-3" d="M62.74,81.54c4.04-4.93,7.58-10.32,10.21-16.14.36-.79.7-1.58,1.02-2.39s.77-1.63.81-2.47c.01-.28-.35-.32-.49-.13-.43.58-.63,1.4-.9,2.07-.3.74-.61,1.47-.94,2.2-.64,1.42-1.32,2.83-2.05,4.21-1.48,2.8-3.14,5.51-4.89,8.14-.97,1.46-1.95,2.91-2.98,4.32-.09.13.12.3.22.17h0Z"/>
          <path class="cls-3" d="M66.2,84.14c3.84-2.51,6.75-6.09,8.95-10.08,2.43-4.39,4.2-9.16,4.98-14.12.23-1.46.38-2.94.42-4.42.04-1.44.13-3.07-.43-4.42-.06-.14-.31-.2-.34,0-.18,1.24,0,2.51,0,3.77-.01,1.3-.11,2.6-.28,3.89-.33,2.57-.96,5.1-1.77,7.55-1.44,4.32-3.53,8.62-6.39,12.18-1.58,1.97-3.43,3.72-5.41,5.29-.2.16.06.5.28.36h0Z"/>
          <path class="cls-1" d="M74.29,47.12c.06.02.12.04.18.06.1.03.2.04.3.03.17,0,.33-.04.47-.13.07-.05.13-.1.2-.16l.14-.19c.07-.11.1-.22.11-.34.02-.08.02-.16,0-.24,0-.12-.04-.24-.11-.34-.03-.08-.08-.15-.15-.21l-.19-.15c-.09-.05-.19-.1-.28-.12-.06-.01-.12-.02-.17-.03-.12-.04-.25-.04-.37-.02-.12,0-.24.04-.35.11-.19.11-.38.34-.43.56-.05.24-.04.51.09.72l.15.19c.12.12.25.2.41.24h0Z"/>
          <path class="cls-1" d="M78.32,45.32c.13,0,.25-.02.36-.08.12-.04.22-.1.3-.19.09-.09.16-.19.19-.3.06-.11.09-.23.08-.36l-.03-.25c-.04-.16-.13-.3-.24-.41l-.19-.15c-.15-.08-.3-.13-.47-.13-.13,0-.25.02-.36.08-.12.04-.22.1-.3.19-.09.09-.16.19-.19.3-.06.11-.09.23-.08.36l.03.25c.04.16.13.3.24.41l.19.15c.15.08.3.13.47.13h0Z"/>
        </g>
      </g>
      <rect class="cls-2" width="100" height="100"/>
    </g>
  </g>
</svg>