<?xml version="1.0" encoding="UTF-8"?>
<svg id="Capa_2" data-name="Capa 2" xmlns="http://www.w3.org/2000/svg" viewBox="0 0 100 100">
  <defs>
    <style>
      .cls-1 {
        fill: #fff;
      }

      .cls-2 {
        fill: none;
      }

      .cls-3 {
        fill: #a65247;
      }

      .cls-4 {
        fill: #fde4be;
      }

      .cls-5 {
        fill: #4a2d2d;
      }
    </style>
  </defs>
  <g id="COLOR">
    <g>
      <g>
        <g>
          <path class="cls-4" d="M80.14,20.95c-2.62-5.09-6.79-9.75-11.75-12.65-1.71-1-3.72-1.73-5.77-2.09-2.2-.39-4.42-.35-6.35.24-3.23.99-5.6,3.54-5.54,8.24.03,2.6.82,5.1,1.81,7.47,1.16,2.78,2.28,5.54,3.2,8.42,1.89,5.88,2.85,11.94,3.84,18.02.79,4.93,1.29,11.14,4.53,15.21.09.11.17.21.26.32,3.16,3.7,7.91,3.57,11.3.32.06-.06.13-.12.19-.18,1.49-1.48,2.76-3.21,3.83-5.08,1.39-2.42,2.43-5.06,3.2-7.63.37-1.25.68-2.52.93-3.81,1.74-8.96.47-18.74-3.69-26.79Z"/>
          <path class="cls-3" d="M83.83,47.74c-.25,1.29-.56,2.56-.93,3.81-.77,2.56-1.82,5.21-3.2,7.63-.96-.73-2.33-2.04-2.4-3.66-.12-2.49,1.37-6,.53-7.6-.83-1.6-3.69-1.49-4.22-3.74-.53-2.26,1.13-4.93.95-7.19-.18-2.26-.95-3.33-1.9-4.51-.95-1.19-3.8-3.39-3.39-5.41.41-2.02,1.9-1.31,2.91-.24,1.01,1.07,1.78,2.44,3.21,2.62s2.32,0,2.85,1.43c.53,1.43.18,3.15.95,4.04s1.72,2.79,1.78,4.1c.06,1.31-1.6,1.54-1.31,2.61.25.88,2.85,4.27,4.17,6.12Z"/>
          <path class="cls-3" d="M75.86,64.26c-.06.06-.12.12-.19.18-3.39,3.25-8.14,3.37-11.3-.32-.09-.1-.17-.21-.26-.32-1.05-2.04-1.12-4-1.32-5.9-.3-2.85.83-3.33,1.43-4.57.6-1.25.06-2.97-.42-4.58-.47-1.6,0-3.98,2.26-3.21,2.26.77,2.67,5.23,3.39,6.54.71,1.3,2.85,1.01,3.62,2.73.77,1.72-1.01,4.69,0,6.24.63.97,1.92,2.33,2.79,3.21Z"/>
          <path class="cls-3" d="M66.3,15.13c-.12,1.31-1.96,1.78-2.85,2.67s.18,3.33.6,4.39,1.37,3.33.3,4.16-1.6.65-2.85-.53c-1.25-1.19-3.5-4.16-3.68-5.52-.18-1.37.65-2.73-.77-3.56s-3.03-1.25-3.39-2.91c-.36-1.66.12-3.5.83-4.81.41-.74,1.2-1.8,1.8-2.56,1.92-.59,4.15-.63,6.35-.24.29.4.53.82.58,1.2.18,1.19-.42,2.49.95,3.92,1.37,1.43,2.26,2.49,2.14,3.8Z"/>
          <path class="cls-5" d="M56.69,11.54l.37-.28c.05-.04.11-.08.16-.13.03-.03.06-.06.09-.09l.16-.16c.09-.09.15-.19.15-.32,0-.05-.01-.1-.03-.14-.03-.08-.07-.14-.14-.18-.1-.06-.21-.07-.32-.05-.1.03-.19.11-.28.16s-.18.12-.26.19c-.13.12-.26.24-.39.36-.07.06-.12.19-.12.28,0,.09.03.17.09.24.05.07.12.12.21.14.1.02.23.02.31-.04h0Z"/>
          <path class="cls-5" d="M60.06,9.97c.39,0,.39-.6,0-.6s-.39.6,0,.6h0Z"/>
          <path class="cls-5" d="M59.13,14.42l.75-.48c.13-.08.26-.17.38-.27s.25-.19.33-.32c.06-.1-.01-.26-.14-.25-.16.01-.31.1-.46.16-.06.03-.13.05-.18.08-.07.04-.13.08-.19.12l-.75.47c-.13.08-.19.26-.1.39s.25.19.39.1h0Z"/>
          <path class="cls-5" d="M58.8,18.03l.54-.34c.11-.07.22-.14.32-.22.04-.03.08-.06.12-.1.07-.07.09-.15.11-.24.01-.07.01-.14-.03-.19-.03-.05-.09-.1-.15-.12-.09-.02-.17-.04-.26-.01-.07.02-.13.06-.19.09-.1.05-.18.12-.27.18l-.52.39c-.07.05-.13.11-.15.19-.02.08-.01.18.03.25.09.15.29.21.45.12h0Z"/>
          <path class="cls-5" d="M63.34,16.04l.13-.17.07-.08s.06-.08.09-.12l.02-.05.1-.18s.05-.1.06-.15l.02-.1c.01-.08,0-.15-.05-.21s-.13-.07-.21-.05l-.09.02c-.05,0-.1.03-.15.06l-.19.1-.05.02s-.08.05-.12.08c-.03.02-.06.04-.08.07l-.17.14s-.07.09-.09.14c-.03.05-.04.11-.04.17,0,.06.01.12.04.17.02.06.05.1.09.14.08.08.2.14.31.13l.12-.02c.08-.02.14-.06.2-.11h0Z"/>
          <path class="cls-5" d="M61.21,21.29l.44-.32c.09-.07.19-.13.27-.22.03-.03.06-.07.09-.1.05-.06.09-.12.1-.21,0-.03,0-.05,0-.08,0-.12-.09-.23-.2-.27-.01,0-.03,0-.04-.01-.06-.01-.12-.01-.17,0-.03,0-.06.02-.09.04-.04.02-.08.04-.12.05s-.08.03-.12.06l-.11.08-.43.32c-.08.06-.15.13-.18.23-.03.09-.01.21.04.29s.13.15.23.18.21.02.29-.04h0Z"/>
          <path class="cls-5" d="M62.16,24.14l.09-.04s.03-.01.05-.02c.05-.02.08-.06.12-.09l.16-.13c.08-.07.13-.16.19-.24l.06-.08.03-.04s.05-.09.07-.14c.04-.14,0-.31-.11-.41s-.27-.15-.41-.11c-.05.01-.1.03-.14.06l-.04.03-.08.06c-.08.06-.18.12-.24.2l-.13.15s-.07.08-.1.12c0,.01-.01.03-.02.05l-.04.09-.04.09c-.02.05-.02.1,0,.16,0,.04,0,.07.03.1.02.05.04.09.08.13.05.05.11.08.17.1.05.02.1.02.16,0,.05,0,.1-.02.15-.05h0Z"/>
          <path class="cls-5" d="M72.39,30.19s.02-.08.03-.12l-.04.09s.03-.06.05-.09.03-.06.05-.08l-.06.08s.03-.03.04-.05c0,0,.01-.01.02-.02.03-.03.05-.07.08-.1l-.06.08s.04-.05.07-.07c.08-.07.12-.16.12-.26,0-.09-.04-.18-.1-.24s-.15-.1-.24-.1c-.04,0-.1.01-.14.02-.01,0-.03,0-.04.01-.04.02-.09.03-.13.06-.04.02-.08.06-.11.09-.09.09-.17.2-.21.32-.02.05-.02.1-.03.14s-.01.1,0,.15c0,.05,0,.1.03.14.01.04.04.08.07.11l.07.06s.09.04.13.04c.03,0,.06,0,.09,0,.05,0,.09-.02.13-.04l.07-.06s.07-.1.09-.16h0Z"/>
          <path class="cls-5" d="M74.43,32.51c.35,0,.35-.54,0-.54s-.35.54,0,.54h0Z"/>
          <path class="cls-5" d="M75.83,36.72l1.18-1.08c.12-.11.12-.33,0-.44s-.32-.12-.44,0c-.38.38-.76.75-1.13,1.13-.1.1-.11.3,0,.4s.28.11.4,0h0Z"/>
          <path class="cls-5" d="M78.27,38.57c.08-.14.15-.29.23-.43.03-.06.03-.15-.03-.2s-.14-.06-.2-.03c-.14.08-.29.16-.43.23-.09.05-.16.17-.16.27,0,.08.03.16.09.22.03.03.06.05.1.06.04.02.08.03.12.03.11,0,.22-.06.27-.16h0Z"/>
          <path class="cls-5" d="M76.03,41.44l.43-.32c.09-.07.18-.14.26-.21.03-.03.07-.06.1-.09.06-.06.09-.14.12-.22.06-.16-.1-.36-.27-.35-.09,0-.17.01-.24.05-.04.02-.08.04-.11.07-.08.04-.15.09-.22.14l-.43.31c-.08.06-.14.12-.16.21-.02.09-.01.2.04.28s.12.14.21.16.2.02.28-.04h0Z"/>
          <path class="cls-5" d="M77.77,43.77l.39-.38c.06-.06.13-.12.18-.19.01-.02.03-.03.04-.05.05-.07.1-.13.12-.22.02-.07.03-.13.04-.2,0-.11-.05-.2-.13-.27-.09-.07-.19-.08-.3-.06-.06.01-.13.05-.18.07-.07.03-.12.09-.17.14-.08.09-.15.19-.22.29l-.31.44c-.05.07-.06.19-.03.27s.06.13.12.18c.14.11.33.09.45-.03h0Z"/>
          <path class="cls-5" d="M79.7,47.84s.08-.07.12-.1c0,0,.03-.03.01-.01s.01,0,.01-.01c.02-.01.04-.03.06-.04.08-.06.17-.11.26-.16.17-.1.36-.18.53-.29.13-.08.08-.3-.08-.29-.24,0-.46.09-.67.21s-.39.24-.56.39c-.09.08-.08.23,0,.31.09.08.22.08.31,0h0Z"/>
          <path class="cls-5" d="M79.45,51.99l.4-.35.21-.18c.08-.07.16-.13.22-.21.03-.04.06-.09.09-.14.07-.11.08-.26.01-.37-.04-.07-.12-.13-.2-.15-.1-.02-.18,0-.27.04-.02.01-.04.02-.06.03-.11.05-.18.14-.26.22l-.19.2-.42.43c-.12.13-.14.35,0,.48.06.06.15.1.24.1s.17-.04.24-.1h0Z"/>
          <path class="cls-5" d="M66.03,49.26l.21-.16c.07-.05.15-.11.21-.17s.12-.13.18-.19c.05-.06.09-.11.12-.18.04-.07.07-.15.07-.23,0-.02,0-.03,0-.05,0-.08-.02-.14-.07-.2-.04-.05-.11-.11-.17-.12-.09-.01-.18-.03-.27,0-.02,0-.04.01-.06.02-.02,0-.05.02-.07.03-.02,0-.04.02-.06.03l-.09.07c-.07.06-.14.11-.21.17s-.12.12-.18.18l-.19.2c-.08.08-.12.19-.12.3,0,.1.05.23.12.3s.19.13.3.12l.11-.02c.07-.02.13-.06.19-.11h0Z"/>
          <path class="cls-5" d="M65.8,51.76l.5-.31c.1-.06.19-.14.28-.21.05-.04.11-.08.15-.14.03-.05.04-.11.06-.17.03-.11-.03-.23-.15-.26-.06-.01-.11-.03-.17-.03-.09,0-.18.05-.26.09-.09.04-.18.07-.26.12l-.5.31c-.16.1-.23.32-.13.48s.31.23.48.13h0Z"/>
          <path class="cls-5" d="M65.22,57.95l.39-.35.05-.04s.07-.08.1-.12c.03-.03.05-.07.08-.1s.06-.07.08-.1c.05-.08.07-.18.06-.28,0-.09-.03-.18-.1-.24s-.15-.09-.24-.1h-.05s-.09,0-.12,0l-.1.04h-.01s-.07.06-.1.09-.07.05-.1.08c-.04.03-.09.06-.13.1-.02.02-.03.04-.05.05l-.35.39c-.07.08-.12.18-.12.29,0,.1.05.22.12.29s.18.13.29.12.21-.04.29-.12h0Z"/>
          <path class="cls-5" d="M69.53,55.63l.35-.21.08-.05s.03-.02.05-.03c.07-.05.1-.09.15-.16.02-.02.03-.05.05-.07.07-.1.08-.23.01-.34s-.18-.16-.3-.16c-.03,0-.06,0-.09,0-.09,0-.14.02-.22.06-.01,0-.03.01-.04.02l-.1.04-.37.17c-.09.04-.17.16-.19.25-.03.1-.01.23.04.32s.14.17.25.19.22.02.32-.04h0Z"/>
          <path class="cls-5" d="M68.48,59.44s.09-.01.14-.03c.06-.02.13-.06.2-.09.09-.04.18-.07.26-.12l.24-.15c.07-.04.13-.09.18-.15.07-.08.15-.15.17-.26.02-.1.02-.22-.04-.31-.06-.09-.14-.16-.24-.18-.09-.02-.16-.02-.25,0-.02,0-.05.02-.07.02-.08.03-.16.05-.22.1l-.23.16c-.1.07-.19.15-.29.24-.06.05-.11.1-.16.17-.03.04-.05.07-.08.11-.03.04-.05.12-.05.17,0,.08.03.15.07.2.04.05.08.08.14.1.07.03.14.03.22.02h0Z"/>
          <path class="cls-5" d="M67.6,62.47l.56-.35c.11-.07.22-.14.32-.22.04-.03.09-.07.13-.1.05-.05.09-.12.13-.17.06-.09.04-.23-.02-.31-.07-.09-.18-.12-.29-.1-.08.02-.15.03-.22.07-.04.02-.09.05-.13.07-.1.05-.19.12-.28.18l-.54.37c-.07.05-.13.11-.15.19-.02.08-.01.18.03.25.09.14.29.21.45.12h0Z"/>
          <path class="cls-5" d="M71.02,62.68l.27-.27c.06-.06.13-.13.18-.21.03-.05.07-.11.1-.16l.03-.08s.02-.08,0-.13c0-.07-.04-.14-.09-.18-.04-.04-.09-.06-.14-.08-.08-.03-.17,0-.25.03-.05.03-.11.06-.16.09-.08.05-.14.11-.21.18l-.27.27c-.07.07-.11.17-.11.27s.04.2.11.27.17.11.27.11.19-.04.27-.11h0Z"/>
          <path class="cls-1" d="M69.54,14.05c.92.81,1.67,1.85,2.36,2.86.65.95,1.18,2.26,2.37,2.61.47.14,1.08-.16,1.17-.67.27-1.39-.81-2.61-1.62-3.63-.89-1.13-1.94-1.92-3.24-2.52-.82-.37-1.83.65-1.04,1.35h0Z"/>
          <path class="cls-1" d="M76.97,23.91c1.42,0,1.42-2.2,0-2.2s-1.42,2.2,0,2.2h0Z"/>
          <path class="cls-5" d="M60.05,35.2l.24-.26c.1-.1.18-.23.26-.34.11-.15.06-.41-.07-.53s-.37-.18-.53-.07c-.12.08-.24.16-.34.26l-.26.24c-.19.18-.19.52,0,.69s.51.2.69,0h0Z"/>
          <path class="cls-5" d="M60.15,38.32c.46-.18.93-.33,1.34-.59s.13-.81-.31-.74-.86.25-1.29.41c-.24.09-.4.32-.33.59.06.23.34.43.59.33h0Z"/>
          <path class="cls-5" d="M60.81,41.04c.45,0,.94.03,1.38-.09.39-.11.39-.69,0-.8-.44-.12-.92-.08-1.38-.09-.63-.01-.63.99,0,.98h0Z"/>
        </g>
        <g>
          <path class="cls-4" d="M70.56,74.32c-3.39-2.44-7.17-4.32-10.78-6.39-3.43-1.97-6.73-4.24-9.77-6.81-2.75-2.31-5.29-4.86-7.55-7.66-2.24-2.78-4.09-5.77-6.04-8.68h0c-2.25-3.35-4.61-6.59-7.83-9.27-4.37-3.64-12.26-7.6-16.73-2.01-3.89,4.87-3.51,11.99-3,17.81.51,5.82,1.85,11.67,4.17,17.04,2.37,5.49,5.78,10.5,10.24,14.5,1.68,1.5,3.5,2.83,5.42,4,3.56,2.18,7.45,3.86,11.38,5.24.27.1.54.19.81.29,7.21,2.47,14.74,3.5,22.27,2.04,6.08-1.18,12.45-4.9,12.52-11.85.04-3.69-2.28-6.19-5.11-8.24Z"/>
          <path class="cls-3" d="M50.01,61.12c-.12,2.1-.62,4.77-2.34,5.81-3.01,1.82-4.91.16-6.1-.87-1.19-1.03-1.58-1.9-3.25-1.5-1.66.4-3.56,1.03-5.39-1.74-1.82-2.77-.87-4.28-3.96-5.62-3.09-1.35-10.45,1.74-12.91-4.91-2.46-6.65-1-10.1.77-11.31,1.76-1.21,5.01.69,6.99,1.4,1.98.71,2.85,1.19,4.36.32,1.5-.87,3.64.32,5.94,1.11.68.24,1.49.59,2.3.98h0c1.95,2.92,3.8,5.91,6.04,8.69,2.25,2.79,4.8,5.35,7.55,7.66Z"/>
          <path class="cls-3" d="M47.43,89.82c-1,2.12-5.25,2.31-7.36,2.27-3.93-1.38-7.82-3.05-11.38-5.24.09-.98.09-2.09-.2-2.9-.63-1.82-1.74-4.52-5.15-6.57-3.4-2.06-5.31-4.75-4.73-6.31.58-1.56.7-3.98-1.2-6.04-1.9-2.06-3.49-8.08-.24-7.92,3.25.16,5.46,5.46,7.45,7.52,1.98,2.06,5.23.47,8.48,1.35,3.25.87,5.86,9.11,6.81,10.45.95,1.35,4.67,1.5,6.89,3.33,2.22,1.82.63,3.49.61,4.85-.02,1.36,1.37,2.36.02,5.21Z"/>
          <path class="cls-3" d="M64.62,82.93c-.97-1.85-2.76-2.9-4.12-4.41-.36-.4-.66-.86-.84-1.37-.2-.56-.17-1.1-.12-1.68.09-1.03.14-2.12-.73-2.84-.44-.36-.99-.58-1.49-.82-.64-.31-1.28-.62-1.93-.91-1.05-.48-2.42-1.26-3.27-.04-.44.63-.51,1.55-1.16,2.03-.38.28-.86.15-1.29.12-.41-.02-.85.02-1.17.31-.55.5-.49,1.39-.09,1.97.54.79,1.58.98,2.41,1.32.88.36,1.72.87,2.45,1.48,1.52,1.28,2.57,2.92,3.15,4.82.57,1.86.87,3.96,2.45,5.28,1.5,1.26,3.73,1.4,5.23.06,1.5-1.34,1.41-3.66.54-5.32Z"/>
          <path class="cls-5" d="M53.6,74.84c.16-.17.3-.36.41-.57.06-.11.11-.22.14-.34.04-.12,0-.27,0-.39,0-.06-.07-.1-.13-.11-.06,0-.11.02-.15.07-.01.02-.03.04-.05.06,0,0-.02.03-.01.01s0,0,0,.01c-.04.05-.09.09-.11.15-.04.09-.09.19-.14.28s-.11.17-.16.25c-.02.03.03-.04,0-.01,0,0-.01.02-.02.03-.02.02-.03.04-.05.06-.03.04-.07.08-.11.12-.1.1-.11.28,0,.38s.28.11.38,0h0Z"/>
          <path class="cls-5" d="M55.1,76.94c.28-.32.54-.65.79-.99.12-.17.24-.33.35-.51.05-.08.11-.17.16-.25.07-.11.1-.21.13-.34.05-.23-.23-.42-.41-.24-.08.08-.15.15-.2.25-.05.09-.1.19-.15.28-.1.18-.2.36-.3.53-.21.35-.44.69-.68,1.01-.14.19.17.43.32.25h0Z"/>
          <path class="cls-5" d="M58.56,82.06c.07-.1.15-.2.21-.31l.17-.33c.05-.1.03-.22-.06-.29-.04-.03-.09-.05-.14-.05-.06,0-.11.03-.16.07l-.29.25c-.1.08-.18.18-.26.27-.06.07-.09.14-.1.23,0,.1.05.2.13.26.07.06.15.08.25.07.04,0,.09-.02.12-.04.05-.03.09-.07.12-.12h0Z"/>
          <path class="cls-5" d="M60.16,86.23c.22-.38.46-.75.74-1.09s.63-.64.87-1.01c.11-.16-.11-.37-.27-.27-.2.13-.35.28-.5.47s-.28.38-.41.57c-.25.38-.47.78-.65,1.19-.06.14.13.27.22.13h0Z"/>
          <path class="cls-5" d="M61.68,86.96l.82-1.05c.14-.18.27-.35.41-.53.15-.19.26-.4.35-.62.05-.11.04-.24-.06-.32s-.22-.06-.32.02c-.18.15-.35.32-.49.51-.13.18-.26.37-.38.55l-.77,1.1c-.08.11-.03.28.07.36s.28.09.36-.02h0Z"/>
          <path class="cls-5" d="M17.93,60.8l.31-.31.15-.15c.08-.08.16-.17.16-.3,0-.11-.08-.18-.19-.19-.12,0-.21.07-.29.15l-.16.15-.31.31c-.09.09-.09.25,0,.34s.24.09.34,0h0Z"/>
          <path class="cls-5" d="M18.02,62.79c.06-.03.12-.06.17-.11s.11-.09.16-.14c.09-.08.18-.15.27-.23s.16-.17.23-.25c.06-.06.11-.12.15-.2.01-.02.02-.05.04-.07.06-.13.06-.26-.01-.39l.04.13v-.06c.02-.06-.03-.13-.08-.17-.06-.05-.12-.05-.19-.04h-.07c.07.02.13.03.2.04-.11-.06-.23-.08-.34-.03-.04.02-.07.03-.1.05-.08.04-.14.09-.2.15-.08.08-.17.16-.25.24s-.15.17-.22.26c-.04.04-.08.09-.11.13-.05.07-.09.14-.13.21-.07.13-.06.3.05.4s.27.13.4.05h0Z"/>
          <path class="cls-5" d="M21.13,68.21c.12-.17.24-.32.38-.48.04-.05.09-.1.13-.16.01-.02.01-.02,0,0l.02-.03s.04-.04.05-.07c.07-.08.14-.17.21-.25.14-.16.27-.32.42-.48.17-.18.32-.36.41-.59.06-.17-.12-.31-.28-.28-.25.05-.45.22-.63.4s-.33.35-.48.54c-.13.18-.26.36-.36.56-.11.21-.2.43-.29.65-.04.11.04.23.13.27.11.05.22,0,.29-.09h0Z"/>
          <path class="cls-5" d="M21.89,70.26c.07-.12.15-.23.24-.34,0,0,.04-.05.02-.03-.02.02.01-.01.01-.02.02-.03.05-.06.07-.08.04-.05.09-.11.14-.16.09-.1.19-.2.27-.3s.19-.22.28-.32c.07-.07.08-.18.02-.26s-.17-.11-.26-.05c-.13.09-.26.18-.38.28-.11.09-.21.19-.3.3-.19.23-.37.48-.52.75-.06.11-.03.27.09.33s.25.03.33-.09h0Z"/>
          <path class="cls-5" d="M22,73.18l.35-.41c.07-.08.15-.16.2-.25.05-.08.09-.15.14-.23.06-.1.03-.24-.06-.31-.1-.08-.22-.06-.31.02-.07.06-.14.11-.2.17s-.12.13-.17.2l-.34.41c-.05.06-.08.12-.08.19,0,.07.03.15.08.19.1.09.29.12.39,0h0Z"/>
          <path class="cls-5" d="M27.99,69.67c.23-.22.45-.45.68-.67.11-.11.22-.22.33-.34.12-.14.21-.31.28-.48.06-.15-.12-.32-.26-.26-.17.07-.33.15-.47.27-.12.11-.23.22-.35.34-.22.23-.45.45-.67.68-.12.12-.13.35,0,.47s.34.13.47,0h0Z"/>
          <path class="cls-5" d="M28.42,70.93c.16-.16.32-.32.48-.49.04-.04.08-.08.11-.11.05-.05.09-.12.13-.17l.2-.28c.05-.07.03-.19-.03-.24s-.17-.08-.24-.03l-.27.2c-.06.04-.12.08-.17.13-.04.04-.08.08-.12.12l-.49.48c-.11.1-.11.3,0,.4s.29.11.4,0h0Z"/>
          <path class="cls-5" d="M25.73,73.45c.29,0,.29-.45,0-.45s-.29.45,0,.45h0Z"/>
          <path class="cls-5" d="M27.85,76.53c.25-.2.49-.41.71-.63.12-.12.25-.25.35-.39.05-.06.09-.12.13-.19.06-.08.09-.16.12-.26.06-.2-.18-.38-.35-.27-.27.17-.48.44-.7.67s-.45.43-.7.63c-.13.1-.11.33,0,.43.06.05.14.09.22.09.09,0,.15-.04.22-.09h0Z"/>
          <path class="cls-5" d="M28.61,78.25l.84-.87c.14-.14.28-.29.41-.43.08-.08.14-.18.21-.27s.12-.22.11-.33-.09-.21-.2-.2c-.22,0-.41.2-.54.36s-.26.32-.39.48l-.76.95c-.08.09-.09.23,0,.32.08.08.23.09.32,0h0Z"/>
          <path class="cls-5" d="M33.5,74.11l.58-.46c.1-.08.18-.16.27-.24.06-.05.12-.1.16-.16.04-.06.06-.13.08-.2s0-.14-.05-.19c-.05-.05-.12-.06-.19-.05s-.14.02-.21.06-.12.1-.18.14c-.1.08-.19.16-.28.24l-.53.5c-.1.09-.1.26,0,.35.11.1.24.09.35,0h0Z"/>
          <path class="cls-5" d="M32.51,78.94l.75-.67c.12-.11.25-.22.36-.34.13-.15.32-.32.31-.53,0-.14-.11-.22-.24-.24-.19-.02-.35.14-.5.24-.16.11-.29.24-.43.38l-.73.69c-.13.12-.13.35,0,.47.14.13.33.12.47,0h0Z"/>
          <path class="cls-5" d="M31.49,83.03c.22-.26.46-.51.7-.74s.52-.48.71-.77c.05-.08.03-.19-.03-.25-.07-.07-.17-.07-.25-.03-.32.15-.57.41-.81.67s-.45.51-.66.78c-.08.1-.11.25,0,.35.09.08.26.1.35,0h0Z"/>
          <path class="cls-5" d="M32.75,84.86l.36-.27c.07-.05.15-.11.22-.16.03-.02.06-.05.09-.07.04-.04.06-.08.08-.13.04-.07.04-.14,0-.21-.03-.06-.11-.11-.18-.1-.05,0-.1,0-.15.02-.05.02-.1.05-.15.07-.06.04-.12.08-.19.11l-.37.23c-.06.04-.11.1-.13.17s-.01.16.03.22.1.12.17.13.16.02.22-.03h0Z"/>
          <path class="cls-5" d="M38.81,80.61l.53-.48.26-.24c.09-.08.17-.17.25-.26.05-.05.06-.13.01-.19-.04-.05-.13-.08-.19-.04-.11.07-.21.14-.31.23l-.28.24-.55.47c-.08.07-.07.21,0,.27.08.07.19.07.27,0h0Z"/>
          <path class="cls-5" d="M38.8,84.16l.53-.49c.09-.08.17-.17.25-.25.1-.1.16-.23.23-.34.05-.08.04-.2-.03-.27-.08-.07-.17-.08-.27-.03-.11.05-.22.09-.32.16-.11.09-.23.17-.33.26l-.55.47c-.14.12-.13.37,0,.49.14.13.35.13.49,0h0Z"/>
          <path class="cls-5" d="M38.62,87.54l.73-.59c.12-.1.24-.19.36-.29.06-.05.11-.1.17-.15.07-.06.12-.15.17-.22s.03-.2-.03-.26c-.07-.07-.17-.08-.26-.03-.07.03-.14.07-.21.11-.06.05-.12.09-.18.14-.14.1-.27.22-.4.33l-.71.61c-.1.09-.09.27,0,.35.11.1.25.09.35,0h0Z"/>
          <path class="cls-5" d="M42.18,88.85l.56-.59c.1-.11.19-.22.28-.33l.24-.32c.06-.08.02-.2-.05-.26-.08-.06-.19-.05-.26.02l-.3.27c-.1.09-.19.18-.28.29l-.53.6c-.08.09-.1.25,0,.34.09.09.25.1.34,0h0Z"/>
          <path class="cls-5" d="M44.74,83.93l.45-.43.11-.1c.06-.05.1-.11.15-.18l.08-.12s.05-.08.06-.13c.01-.06,0-.12,0-.19-.02-.09-.1-.16-.18-.18-.11-.03-.21-.01-.31.05l-.12.08c-.06.04-.12.09-.18.15l-.11.11-.43.45c-.06.07-.1.16-.1.25,0,.09.04.19.1.25.14.13.36.14.5,0h0Z"/>
          <path class="cls-5" d="M18.53,44.88c.08-.08.16-.16.23-.25.05-.05.08-.11.12-.17l.09-.14c.04-.06.02-.14-.02-.19s-.13-.06-.19-.02l-.14.09c-.06.04-.12.07-.18.12-.08.08-.17.15-.25.23-.04.04-.07.11-.07.17s.03.13.07.17.1.07.17.07.13-.02.17-.07h0Z"/>
          <path class="cls-5" d="M17.3,48.88c.12-.11.25-.21.37-.31l-.08.06c.1-.08.2-.16.29-.24.07-.07.15-.13.22-.19s.15-.12.22-.19c.05-.04.09-.08.13-.12.08-.11.1-.25.07-.38-.05-.18-.26-.29-.44-.27-.15.02-.29.13-.41.22-.17.13-.33.27-.48.41-.1.09-.18.21-.26.32-.07.09-.13.18-.19.27-.1.15-.04.35.09.45.14.11.33.09.46-.03h0Z"/>
          <path class="cls-5" d="M22.47,45.63l.45-.34.11-.08.06-.04s.04-.03.06-.05c.05-.04.05-.04.08-.09s.07-.09.11-.14c.03-.04.06-.07.08-.12.03-.05.05-.11.05-.17,0-.08-.03-.15-.07-.2-.08-.11-.22-.16-.36-.12-.11.03-.22.09-.32.15s-.19.16-.28.24l-.41.38c-.13.13-.14.34-.03.49.05.06.11.11.19.13.09.02.21.02.28-.04h0Z"/>
          <path class="cls-5" d="M20.66,51.53c.29-.2.57-.42.84-.66.12-.11.25-.21.36-.33.07-.08.13-.17.19-.26s.07-.18.09-.28c.01-.08,0-.16-.06-.22-.06-.06-.14-.08-.22-.06-.03,0-.07.02-.1.03-.07.02-.13.06-.19.1-.03.03-.07.05-.1.08-.04.03.07-.05,0,0-.01.01-.03.02-.04.03-.15.11-.27.27-.41.4-.24.23-.49.45-.75.65-.06.05-.1.16-.1.23s.02.14.07.2c.09.12.29.18.42.08h0Z"/>
          <path class="cls-5" d="M26.27,48.58l.36-.3c.12-.1.22-.22.32-.33.07-.08.09-.2.02-.29-.06-.08-.19-.11-.28-.06l-.19.12s-.07.04-.1.06c-.05.03-.09.07-.14.11l-.36.3c-.05.04-.08.13-.08.19,0,.07.03.15.08.19s.12.08.19.08.13-.03.19-.08h0Z"/>
          <path class="cls-5" d="M24.46,52l.41-.39c.07-.06.14-.13.21-.19s.12-.15.18-.22c.03-.03.05-.07.08-.1.06-.08.12-.17.11-.28,0-.04,0-.08-.02-.12-.02-.05-.04-.1-.08-.14-.03-.03-.06-.05-.1-.06-.02,0-.04-.02-.06-.03-.09-.03-.22,0-.3.04-.04.03-.08.06-.12.09l-.22.18c-.07.06-.14.13-.2.2l-.44.47c-.07.08-.12.18-.12.28,0,.1.04.22.12.28.16.15.4.15.57,0h0Z"/>
          <path class="cls-5" d="M30.93,46.59l.5-.56c.09-.11.19-.21.27-.32.04-.05.08-.1.11-.15.04-.08.05-.17.06-.26.02-.14-.15-.23-.26-.2-.08.02-.15.04-.22.08-.05.04-.1.09-.16.14-.09.08-.17.18-.25.27l-.48.56c-.06.06-.09.14-.09.22,0,.08.03.17.09.22.12.11.33.13.44,0h0Z"/>
          <path class="cls-5" d="M30.5,49.48l.57-.58c.09-.09.19-.19.28-.28.11-.12.18-.27.26-.4.07-.12.05-.3-.05-.4-.04-.04-.09-.07-.15-.09-.07-.02-.19-.01-.26.03l-.15.12c-.07.05-.15.1-.22.17-.1.1-.18.21-.26.32l-.52.62c-.06.07-.1.15-.1.25,0,.09.04.19.1.25.14.13.36.14.5,0h0Z"/>
          <path class="cls-5" d="M30.64,52.6l.19-.29s.07-.1.09-.15c.02-.03.04-.07.05-.11.02-.06.03-.12.04-.18v-.07c.02-.07,0-.14-.06-.19-.04-.04-.1-.06-.16-.06-.06,0-.11.03-.16.06-.07.04-.13.07-.18.13s-.1.13-.15.19l-.23.33c-.05.07-.05.18-.03.25s.08.16.15.19c.16.09.35.04.45-.12h0Z"/>
          <path class="cls-5" d="M34.75,50.17c.13-.16.27-.32.37-.5.09-.16.19-.31.27-.48.03-.07.04-.17-.03-.23-.06-.05-.16-.08-.23-.03-.16.11-.31.24-.46.37-.14.12-.26.26-.39.4-.06.06-.1.15-.1.23,0,.08.04.18.1.23s.15.1.23.1c.08,0,.18-.03.23-.1h0Z"/>
          <path class="cls-5" d="M33.03,55.71c.14-.08.28-.18.4-.28.05-.04.1-.09.14-.13.07-.07.11-.14.14-.24.01-.05.03-.12.03-.17,0-.1-.04-.19-.13-.25s-.18-.08-.28-.06c-.05.01-.11.05-.16.07l.09-.04s-.02,0-.02,0c-.03.01-.07.03-.1.04l-.08.06s-.03.03-.04.05c-.03.03-.06.06-.08.09-.06.06-.12.11-.19.16l.08-.06c-.05.04-.11.08-.16.11-.08.05-.14.13-.17.22s-.01.21.04.28.13.15.22.17.19.01.28-.04h0Z"/>
          <path class="cls-5" d="M34.74,59.2c.12-.12.24-.23.36-.34.06-.05.13-.1.19-.16s.12-.13.17-.19c.11-.12.23-.23.33-.36.07-.09.16-.17.21-.26s.07-.19.09-.29c.04-.17-.09-.39-.28-.37-.12,0-.25.01-.36.07-.07.04-.14.09-.21.14-.09.07-.19.14-.27.22-.06.06-.12.12-.17.19-.08.09-.16.17-.22.27-.04.07-.08.14-.12.21-.08.15-.16.31-.23.47-.07.15-.05.31.08.42.13.1.31.09.43-.03h0Z"/>
          <path class="cls-5" d="M38.86,55.36l.13-.08s.07-.04.1-.07c.03-.02.05-.04.07-.06l.03-.03.11-.12.05-.06s.02-.02.03-.03c.04-.04.07-.08.08-.13,0-.02.02-.03.02-.05,0,0,0-.01,0-.02.02-.07.02-.13,0-.2-.02-.06-.05-.12-.1-.17-.05-.05-.1-.08-.17-.1-.07-.02-.13-.02-.2,0,0,0-.01,0-.02,0-.06.01-.1.04-.14.07-.02.02-.04.03-.06.05l-.06.05-.12.11s-.04.04-.06.05l-.06.08h0s0,.02,0,.02l-.02.04-.08.14-.04.09s-.02.09,0,.14c0,.03,0,.06.02.09.01.04.04.08.07.11.05.04.1.07.16.09.05.01.09.02.14,0,.05,0,.09-.02.13-.04h0Z"/>
          <path class="cls-5" d="M39.7,60.71c.28-.32.57-.61.89-.88.16-.14.31-.27.47-.41.17-.15.39-.3.46-.53.04-.17-.08-.32-.25-.33-.26,0-.48.2-.67.35-.18.14-.33.28-.48.44-.3.33-.58.68-.83,1.04-.17.24.22.54.41.32h0Z"/>
          <path class="cls-5" d="M41.54,61.69l.42-.32.21-.16s.08-.05.1-.08c.03-.03.06-.07.08-.1s.05-.07.08-.1l.03-.07s.01-.08,0-.11c0-.06-.03-.12-.08-.17-.1-.09-.23-.11-.35-.05-.04.02-.08.04-.12.06-.06.03-.11.08-.16.12l-.19.18-.38.36c-.1.1-.11.26-.02.37.04.05.09.09.15.1.07.02.16.02.22-.03h0Z"/>
          <path class="cls-5" d="M44.6,64.65l.64-.71c.12-.13.23-.26.34-.41.05-.07.09-.13.13-.2.03-.06.06-.12.07-.19,0-.06,0-.11-.02-.17-.02-.11-.13-.17-.23-.18-.11,0-.2.03-.29.09-.08.05-.15.11-.22.18-.11.12-.21.24-.31.36l-.59.74c-.06.07-.1.14-.1.23,0,.08.04.18.1.23.13.12.34.14.47,0h0Z"/>
          <path class="cls-5" d="M37.37,62.54c.32,0,.32-.5,0-.5s-.32.5,0,.5h0Z"/>
          <path class="cls-1" d="M14.23,34.24c-1.34.52-2.13,1.75-2.77,2.99-.57,1.09-1.49,2.75-.69,3.92.29.42.75.53,1.2.32,1.06-.5,1.27-1.95,1.74-2.92.52-1.07,1.34-2.08,1.55-3.27.1-.56-.38-1.29-1.04-1.04h0Z"/>
          <path class="cls-1" d="M10.33,48.13c.02.12.03.25.05.38.09.46.54.82,1.01.82s.92-.36,1.01-.82c.02-.12.04-.25.05-.38.05-.2.05-.39,0-.59-.05-.19-.15-.35-.28-.49-.22-.2-.48-.32-.78-.32-.28,0-.58.12-.78.32-.14.14-.23.3-.28.49-.05.2-.05.39,0,.59h0Z"/>
          <path class="cls-5" d="M53.01,66.17c.17-.18.34-.37.48-.58s.09-.54-.09-.71-.49-.24-.71-.09c-.12.08-.24.16-.34.26l-.22.23c-.23.24-.25.66,0,.9s.65.26.9,0h0Z"/>
          <path class="cls-5" d="M54.87,68.03c.08-.08.16-.16.24-.24.14-.14.18-.39.07-.56-.04-.07-.1-.12-.17-.17-.11-.07-.23-.07-.36-.05-.12.02-.23.04-.35.05-.18.03-.36.22-.4.4-.03.15-.02.3.06.44.19.32.63.37.9.12h0Z"/>
          <path class="cls-5" d="M56.18,92.79c.12-.13.26-.26.31-.44,0-.03.01-.07.02-.11,0-.05.03-.14.03-.18,0-.05-.01-.11-.02-.16-.03-.15-.18-.3-.33-.33-.13-.03-.2-.02-.33,0-.04,0-.08.01-.12.02-.17.04-.31.19-.44.3-.12.1-.18.29-.18.45s.07.34.18.45.28.19.45.18.33-.06.45-.18h0Z"/>
        </g>
      </g>
      <rect class="cls-2" width="100" height="100"/>
    </g>
  </g>
</svg>