<?xml version="1.0" encoding="UTF-8"?>
<svg id="Capa_2" data-name="Capa 2" xmlns="http://www.w3.org/2000/svg" viewBox="0 0 100 100">
  <defs>
    <style>
      .cls-1 {
        fill: #fff;
      }

      .cls-2 {
        fill: none;
      }

      .cls-3 {
        fill: #4a2d2d;
      }

      .cls-4 {
        fill: #fde1b7;
      }
    </style>
  </defs>
  <g id="COLOR">
    <g>
      <g>
        <g>
          <path class="cls-4" d="M58.77,14.64c-2.01-1.96-4.61-3.24-7.35-3.79-11.48-2.31-23.36,5.81-28.6,15.67-.24.45-.47.91-.68,1.37-2.14,4.6-3.27,9.76-3.03,14.84.23,4.79,1.73,10.08,5.65,13.17,3.31,2.61,8.13,3.24,11.08-.27,3.53-4.2,1.94-9.82,3.07-14.74.63-2.71,2.15-5.37,5.05-6.01,2.45-.54,5.11-.06,7.61-.5,4.13-.72,8.39-2.82,10.15-6.85,1.91-4.36.38-9.65-2.94-12.89Z"/>
          <path class="cls-3" d="M56.01,27.09c-5.59-2.25-11.68-1.46-16.57,2.12-2.13,1.56-3.98,3.53-5.43,5.74-1.34,2.04-3.06,5-3.05,7.51,0,.52.73.73.99.27.64-1.12.9-2.44,1.42-3.62.46-1.05,1-2.06,1.61-3.03,1.37-2.17,3.12-4.09,5.23-5.55,4.36-3,10.43-4.16,15.51-2.45.65.22.88-.76.28-1h0Z"/>
          <path class="cls-3" d="M33.13,54.84c.63.16,1.59.16,1.97-.48.16-.27-.04-.61-.35-.61-.28,0-.5.12-.76.19s-.48.1-.75.09c-.46-.02-.56.7-.11.81h0Z"/>
          <path class="cls-3" d="M34.19,52.17c.35-.01.74.01,1.07-.11.38-.14.38-.64,0-.78-.33-.12-.72-.09-1.07-.11-.64-.03-.64,1.02,0,.99h0Z"/>
          <path class="cls-1" d="M47.22,13.23c-2.2-.88-4.93-.25-7.05.59-2.11.84-4.57,2.1-5.58,4.24-.34.73.24,1.88,1.17,1.53,1.92-.74,3.5-2.12,5.39-2.93,1.96-.83,4.12-1.08,6.07-1.9.73-.31.76-1.22,0-1.52h0Z"/>
          <path class="cls-1" d="M31.15,21.61c-.58.51-1.49,1.11-1.46,1.97.02.57.43.91.97.97s.98-.32,1.33-.65c.25-.23.49-.47.74-.7.43-.4.44-1.18,0-1.59-.47-.43-1.12-.42-1.59,0h0Z"/>
        </g>
        <g>
          <path class="cls-4" d="M54.48,70.04c-3.38-3.44-8.39-1.03-12.13.26-3.18,1.1-6.92,1.16-9.91-.48-3.32-1.82-5.59-5.33-9.35-6.38-3.39-.95-6.67.35-8.12,3.62-1.74,3.94.01,7.97,1.88,11.5,1.71,3.24,4.09,6.17,7.04,8.38,3.14,2.35,6.98,3.79,10.94,3.56,4.4-.25,8.75-2.06,12.54-4.23,3.18-1.82,6.67-4.08,8.17-7.59,1.16-2.69,1.1-6.45-1.06-8.65Z"/>
          <path class="cls-3" d="M29.65,75.41c3.43,3.34,8.25,4.79,12.99,4.11s10.12-3.25,12.73-7.18c.44-.66-.49-1.23-1.02-.79-1.7,1.4-3.1,3-5.02,4.16-1.99,1.19-4.17,2.03-6.47,2.34-4.4.6-9.03-.53-12.53-3.31-.47-.37-1.13.24-.67.67h0Z"/>
          <path class="cls-3" d="M49.78,81.48c.34-.02.68-.12.9-.4.1-.13.14-.29.06-.44-.07-.13-.26-.23-.41-.17-.1.04-.2.07-.3.1-.02,0-.15.03-.08.02-.06,0-.11,0-.17,0-.23-.01-.45.21-.44.44s.19.45.44.44h0Z"/>
          <path class="cls-3" d="M52.45,79.32c.1,0,.2,0,.3,0,.14-.01.26-.03.37-.12s.21-.24.2-.39c0-.13-.06-.25-.15-.35s-.22-.13-.35-.15c-.12-.02-.24-.01-.36-.02-.27,0-.53.24-.52.52s.23.52.52.52h0Z"/>
          <path class="cls-3" d="M22.14,82.44l.22.09c.07.03.19,0,.25-.03s.1-.09.13-.15c.06-.15,0-.32-.13-.4l-.2-.12c-.18-.11-.41-.02-.49.16-.04.09-.04.18,0,.26.01.04.04.08.07.11.04.04.09.07.15.09h0Z"/>
          <path class="cls-1" d="M20.46,64.36c-1.49.22-2.61,1.16-3.41,2.41-.7,1.1-1.15,2.83-.38,4.01.35.54,1.08.53,1.43,0,.53-.81.75-1.82,1.25-2.66s1.28-1.54,2.04-2.15c.84-.68-.11-1.72-.93-1.6h0Z"/>
          <path class="cls-1" d="M16.98,73.91c.03.12.05.24.09.36.04.11.07.23.13.32.06.1.14.18.22.26.35.32.96.29,1.2-.15.05-.1.11-.21.14-.31.03-.12.03-.23.03-.35,0-.12-.01-.25-.03-.37,0-.16-.04-.32-.12-.46l-.14-.18c-.19-.21-.49-.29-.76-.25-.56.07-.87.6-.76,1.13h0Z"/>
        </g>
        <g>
          <path class="cls-4" d="M90.31,59.18c-1.07-6.68-4.83-12.97-10.27-16.93-1.74-1.26-3.6-2.35-5.53-3.29-5.55-2.71-12.05-3.94-17.88-1.38-5.16,2.26-9.69,7.49-8.78,13.45,1.12,7.36,8.49,8.35,14.45,9.88,3.28.84,7.14,2.46,8.1,6.07.41,1.53.06,3.41-1.07,4.56-1.15,1.16-2.83,1.6-4.11,2.6-2.01,1.58-2.18,3.93-.59,5.91,1.48,1.85,4.09,2.6,6.38,2.5,2.87-.13,5.48-1.21,7.65-2.89,6.97-1.59,9.88-5.87,11.18-10.65.88-3.22.99-6.56.47-9.82Z"/>
          <path class="cls-3" d="M78.19,79.36s.04.05.06.07c.07.06.17.08.26.09.7.07,1.19-.71,1.61-1.16.59-.64,1.14-1.33,1.64-2.04.98-1.38,1.87-2.87,2.47-4.46.11-.3.22-.61.3-.92,1.98-7.29-.93-14.62-5.97-19.91-.37-.39-1.11.15-.77.59,3.59,4.65,6.37,10.16,5.84,16.13-.22,2.53-.69,4.4-2.4,7.26-.5.84-1.29,1.84-1.92,2.58-.39.46-.79.92-1.1,1.44-.06.1-.08.21-.02.31Z"/>
          <path class="cls-3" d="M87.41,69.83c.32-.1.65-.21.89-.45.2-.2.12-.61-.18-.67-.34-.07-.67,0-.99.1-.26.08-.45.37-.37.65s.37.46.65.37h0Z"/>
          <path class="cls-3" d="M87.69,66.69c.3-.02.68,0,.94-.16.25-.16.25-.5,0-.66-.26-.17-.64-.14-.94-.16-.26-.02-.5.24-.49.49s.22.51.49.49h0Z"/>
          <path class="cls-1" d="M60.3,38.63c-1.62.3-3.09.94-4.4,1.95-1.09.84-2.6,2.19-2.44,3.71.06.62.6.91,1.16.67,1.09-.48,1.77-1.76,2.66-2.53,1.02-.88,2.25-1.52,3.54-1.9s.71-2.12-.52-1.9h0Z"/>
          <path class="cls-1" d="M51.31,48.37c0,.37-.04.82.19,1.12.19.25.42.43.74.43s.56-.17.74-.43c.23-.31.18-.76.19-1.12.01-.49-.44-.96-.93-.93s-.95.41-.93.93h0Z"/>
        </g>
      </g>
      <rect class="cls-2" width="100" height="100"/>
    </g>
  </g>
</svg>