<?xml version="1.0" encoding="UTF-8"?>
<svg id="Capa_2" data-name="Capa 2" xmlns="http://www.w3.org/2000/svg" viewBox="0 0 100 100">
  <defs>
    <style>
      .cls-1 {
        fill: #fff;
      }

      .cls-2 {
        fill: none;
      }

      .cls-3 {
        fill: #a65247;
      }

      .cls-4 {
        fill: #c38b84;
      }

      .cls-5 {
        fill: #4a2d2d;
      }

      .cls-6 {
        fill: #fcd59c;
      }
    </style>
  </defs>
  <g id="COLOR">
    <g>
      <g>
        <g>
          <path class="cls-3" d="M56.11,33.63c-4.09-3.63-9.02-5.76-13.67-8.51-.03-.03-.06-.06-.1-.1-.68-.68-1.2-1.46-1.57-2.33-.96.52-2.09.67-3.17.75-1.31.09-2.69.2-3.98-.08-.88-.19-1.76-.41-2.59-.74-.31-.13-.66-.27-.98-.46-.89.61-1.88,1.15-2.87,1.63-1.3.65-2.61,1.22-3.69,1.83-3.73,2.1-7.37,4.45-10.5,7.39-5.82,5.46-9.79,13.31-8.29,21.43,1.22,6.61,5.8,11.93,11.53,15.22.42.24.85.47,1.27.68,5.88,3,12.01,3.6,18.58,3.07,10.68-.88,22.37-3.54,27.57-14.05.02-.04.04-.09.06-.13,4.3-8.9-.73-19.54-7.58-25.61Z"/>
          <path class="cls-4" d="M42.33,25.02c-.38-.02-.83-.05-1.18-.03-.63.04-.67.63-1.3.87-.63.24-.9-.63-1.42-1.1-.51-.47-1.3-.28-1.81.47-.51.75-1.61,1.89-2.44,1.77-.83-.12-1.18-2.72-1.69-2.95-.51-.24-3.9.39-4.29.43-.35.04-.84-.41-1.04-.68,2.64-1.3,5.26-2.89,6-5.6.4-1.46.43-3.2,2.13-3.75,3.64-1.17,4.58,3.53,4.86,5.93.22,1.82.94,3.41,2.18,4.64Z"/>
          <path class="cls-4" d="M63.69,59.24s-.04.09-.06.13c-5.2,10.51-16.89,13.18-27.57,14.05-6.58.54-12.7-.07-18.58-3.07.72-1.85,2.31-4.77,5.48-6.17,4.8-2.13,15.99-.79,19.61-1.73,3.62-.95,8.55-5.51,11.7-6.03,3.15-.51,6.81.32,8.43,1.81.38.35.71.68.99,1.01Z"/>
          <path class="cls-5" d="M28.23,24.87c1.22-.2,2.54-.62,3.79-.53.45.04.58.25.69.72.13.58.22,1.16.51,1.69.29.52.79.96,1.41.98s1.15-.39,1.51-.89.49-1.11.86-1.58c.52-.65,1.13-.14,1.55.34s1,.84,1.62.49c.36-.2.69-.87,1.09-.83s.57-.59.21-.77c-.48-.23-.88-.02-1.22.33-.14.14-.3.39-.49.46-.27.1-.48-.25-.63-.44-.42-.49-1-.91-1.68-.87s-1.14.5-1.47,1.03c-.31.5-.47,1.2-.96,1.56-.55.4-.93-.33-1.08-.77-.2-.58-.2-1.24-.56-1.76-.26-.39-.65-.59-1.11-.65-.56-.07-1.14.02-1.7.11-.87.14-1.72.33-2.57.55-.55.14-.31.92.23.83h0Z"/>
          <path class="cls-5" d="M18.73,68.55c.83-1.12,1.79-2.13,2.97-2.88,1.2-.76,2.54-1.3,3.92-1.62,3.5-.8,7.16-.35,10.71-.34,3.33,0,6.77-.24,9.82-1.69,2.78-1.32,4.85-3.92,7.81-4.89,1.46-.48,3-.5,4.48-.12s2.75,1.26,3.89,2.3c.8.73,1.9-.38,1.18-1.18-1.94-2.18-5.34-2.99-8.16-2.65-1.56.19-2.98.77-4.3,1.61-1.37.87-2.6,1.93-4,2.77-2.96,1.77-6.45,2.07-9.83,2.01-3.77-.06-7.6-.41-11.31.47-3.15.75-6.81,2.47-8.17,5.63-.28.66.54,1.15.97.57h0Z"/>
          <path class="cls-5" d="M27.03,29.58c-6.62,4.06-9.97,11.81-10.36,19.34-.06,1.17-.05,2.34.02,3.5s.08,2.41.56,3.46c.13.28.48.1.51-.14.13-1.01-.11-2.07-.18-3.08s-.08-2.01-.06-3.01c.04-2.02.27-4.04.73-6.01.82-3.51,2.38-6.87,4.69-9.66,1.25-1.51,2.72-2.88,4.34-4,.25-.17.02-.57-.24-.41h0Z"/>
          <path class="cls-5" d="M31.52,30.63c-.85,3.79-.18,7.7.59,11.45.76,3.69,1.65,7.36,1.62,11.15,0,1.01-.07,2.01-.24,3.01s-.63,2.01-.6,3.01c0,.23.29.36.46.19.6-.62.79-1.58.96-2.4.18-.89.29-1.79.34-2.69.1-1.82-.08-3.64-.36-5.44-.6-3.85-1.76-7.6-2.27-11.47-.29-2.2-.35-4.47-.04-6.67.04-.3-.4-.44-.47-.13h0Z"/>
          <path class="cls-5" d="M36.2,31.48c.49,1.7,1.34,3.3,2.2,4.84s1.82,3.06,2.78,4.56c1.89,2.98,3.81,5.98,5.08,9.29.34.89.64,1.8.89,2.72.25.92.37,1.97.81,2.83.14.28.59.21.66-.09.19-.8.01-1.75-.18-2.54-.2-.85-.46-1.69-.78-2.51-.64-1.64-1.43-3.22-2.31-4.75-1.81-3.13-3.94-6.07-5.81-9.16-1.06-1.75-1.93-3.57-2.84-5.39-.14-.27-.57-.08-.49.21h0Z"/>
          <path class="cls-5" d="M40.96,29.12c4.34,6.84,11.98,10.83,15.98,17.95.52.92.91,1.9,1.24,2.91s.43,2.14.87,3.12c.13.3.67.23.72-.09.15-.97-.17-1.97-.48-2.88-.3-.89-.7-1.75-1.15-2.58-.94-1.74-2.03-3.35-3.3-4.87-2.61-3.12-5.76-5.74-8.71-8.53-1.72-1.62-3.35-3.35-4.79-5.23-.16-.21-.52-.02-.37.21h0Z"/>
          <path class="cls-1" d="M10.45,42.37c-3.65,2.41-3.95,8.85-2.08,12.41.29.56,1.22.72,1.64.21,1.43-1.69.4-3.61.32-5.57-.1-2.29.96-4.27,1.11-6.48.03-.49-.59-.84-.99-.57h0Z"/>
          <path class="cls-1" d="M10.57,58.96c.03.06.06.12.1.18.07.12-.04-.13,0,0s.08.26.12.39c.14.49.39.92.92,1.07.33.09.68,0,.92-.24.81-.8.05-1.93-.65-2.48-.35-.28-.79-.36-1.17-.07-.35.27-.45.76-.23,1.15h0Z"/>
        </g>
        <g>
          <path class="cls-6" d="M92.99,56.54c-2.19-3.23-5.11-5.89-8.18-8.27-2.36-1.83-4.77-3.63-7.23-5.32-1.44-1-2.98-1.86-4.39-2.89-1.4-1.02-2.42-2.45-3.83-3.43-2.38-1.65-3.73.06-5.27,1.81-4.16,4.73-10.19,7.37-14.99,11.36-7.88,6.54-17.34,19.8-8.77,29.56,2.18,2.48,5.47,3.78,8.6,4.58,3.44.89,7.44,1.36,10.9.34.1-.03.18-.07.26-.12.39.3.79.57,1.21.82,3.13,1.85,6.85,2.39,10.4,2.87,3.49.48,6.83.68,10.33.15,6.23-.94,11.32-5.04,13.65-10.91,2.64-6.66,1.29-14.71-2.68-20.57Z"/>
          <path class="cls-5" d="M64.15,41.69c.21-.09.34-.23.5-.39.14-.13.28-.24.43-.34.28-.18.57-.27.9-.25.63.04,1.22.43,1.56.94.18.27.53.19.64-.08s.32-.62.24-.94c-.04-.16-.23-.22-.37-.15-.27.15-.4.55-.52.81h.61c-.45-.74-1.24-1.28-2.11-1.37-.43-.04-.87.05-1.24.27-.22.12-.4.3-.57.48s-.38.4-.44.65c-.04.19.14.45.36.36h0Z"/>
          <path class="cls-5" d="M64.04,43.23c-.22,2.97-1.58,5.52-3.17,7.98-.8,1.24-1.64,2.47-2.34,3.77s-1.24,2.53-1.69,3.86c-.52,1.53-.91,3.1-.86,4.72,0,.2.29.24.35.05.43-1.38.73-2.8,1.18-4.18.45-1.37,1.02-2.7,1.7-3.96,1.41-2.6,3.32-4.91,4.49-7.64.62-1.45,1.04-3.02.92-4.61-.03-.38-.57-.39-.6,0h0Z"/>
          <path class="cls-5" d="M67.3,45.67c-.36,1.6-.57,3.23-.56,4.88,0,.82.08,1.64.19,2.46s.22,1.63.53,2.39c.07.16.34.16.33-.04-.02-.78-.17-1.56-.24-2.34-.07-.79-.08-1.58-.09-2.37-.02-1.61.1-3.23.38-4.81.06-.35-.46-.51-.54-.15h0Z"/>
          <path class="cls-5" d="M69.64,49.69c-.04,1.35.36,2.63.76,3.91.41,1.32.79,2.65,1.06,4s.48,2.78.58,4.18c.1,1.34.07,2.69.26,4.02.02.14.25.13.28,0,.32-1.3.25-2.69.15-4.02s-.28-2.7-.57-4.03c-.29-1.35-.65-2.69-1.13-3.99s-1.05-2.64-1.09-4.07c0-.19-.29-.19-.3,0h0Z"/>
          <path class="cls-5" d="M71.84,46.02c3.31,3.02,5.78,6.98,7.16,11.23,1.53,4.7,1.75,9.71,1.14,14.6-.18,1.44-.41,2.88-.72,4.3s-.73,2.91-1.07,4.37c-.1.43.48.56.64.18,1.03-2.49,1.64-5.23,2.06-7.89s.56-5.39.38-8.09c-.32-4.74-1.68-9.42-4.21-13.46-1.36-2.17-3.07-4.05-5.11-5.61-.21-.16-.47.19-.28.36h0Z"/>
          <path class="cls-5" d="M69.4,82.23c-.43-1.91-.95-3.79-1.32-5.71-.18-.96-.34-1.92-.46-2.88-.06-.47-.1-.95-.16-1.42s-.09-1.01-.27-1.46c-.06-.16-.31-.19-.36,0-.24.89-.02,1.98.1,2.88.13,1,.28,1.99.47,2.98.38,1.95.88,3.92,1.69,5.74.08.18.35.05.31-.13h0Z"/>
          <path class="cls-5" d="M87.36,76.21c1.4-2.36,2.2-4.99,2.36-7.73.08-1.36.02-2.74-.23-4.08-.25-1.35-.62-2.73-1.37-3.9-.23-.36-.82-.13-.69.29.36,1.27.83,2.5,1.08,3.8s.39,2.53.37,3.81c-.02,2.63-.63,5.28-1.8,7.65-.09.18.17.33.27.16h0Z"/>
          <path class="cls-5" d="M67.53,65.13v-1.37c0-.23,0-.46-.02-.68,0-.07,0-.14-.03-.21-.01-.04-.04-.1-.06-.14-.03-.11-.06-.23-.08-.34-.06-.24-.42-.24-.48,0-.03.11-.05.23-.08.34-.01.04-.05.1-.06.14-.02.07-.02.14-.03.21-.02.23-.02.45-.02.68v1.37c0,.22.19.43.42.42s.42-.19.42-.42h0Z"/>
          <path class="cls-5" d="M48.07,78.65c-1.75-1.85-2.65-4.22-3.06-6.69-.44-2.66-.46-5.63.69-8.12.32-.69.71-1.35,1.12-1.99.44-.68.97-1.33,1.3-2.08.1-.23-.16-.47-.36-.28-.55.5-.96,1.13-1.37,1.75s-.79,1.25-1.12,1.91c-.68,1.36-1.07,2.79-1.16,4.31-.16,2.66.12,5.42,1.18,7.89.59,1.37,1.41,2.57,2.55,3.54.16.14.39-.08.24-.24h0Z"/>
          <path class="cls-5" d="M51.45,56.24l.61-.65c.2-.22.4-.44.59-.67.09-.11.11-.28,0-.38s-.27-.1-.38,0c-.23.19-.45.39-.67.59l-.65.61c-.14.13-.14.38,0,.5s.37.14.5,0h0Z"/>
          <path class="cls-5" d="M58.16,68.71c-1.08,4.94-.57,10.8,1.5,15.42.26.58,1.13.08.86-.5-2.16-4.76-1.69-9.71-1.15-14.75.07-.69-1.07-.84-1.22-.16h0Z"/>
          <path class="cls-5" d="M84.95,83.59c.52,0,1.22.12,1.66-.21.3-.23.3-.6,0-.83-.43-.32-1.14-.21-1.66-.21-.8,0-.8,1.24,0,1.24h0Z"/>
          <path class="cls-5" d="M88.19,81.2s.05-.01.07-.02c-.1.01-.11.01-.05,0,.03,0,.05,0,.08,0-.09-.01-.11-.02-.06,0,.13.04.25.07.38.06.17-.01.31-.07.41-.21.09-.12.15-.3.09-.46-.05-.13-.1-.23-.2-.33-.11-.1-.24-.16-.38-.2-.16-.06-.35-.08-.52-.05s-.31.06-.43.18c-.14.13-.19.33-.17.52.05.36.41.61.77.51h0Z"/>
          <path class="cls-1" d="M56.36,47.22c-.31.19-.6.42-.83.71-.29.38-.51.92-.33,1.39.09.23.21.45.44.57.24.13.47.14.74.1h.04c-.09,0-.18.02-.27.03.27-.03.48-.07.71-.25.09-.07.18-.15.27-.22l-.23.18c.21-.15.4-.32.6-.48l-.24.18c.09-.06.18-.12.27-.18.53-.31.76-1.07.42-1.6s-1.04-.76-1.6-.42h0Z"/>
          <path class="cls-1" d="M47.7,54.11s-.08.08-.12.12l-.16.21h-.01s-.01.04-.02.05c-.03.05-.04.1-.07.15-.05.08-.07.17-.07.26,0,.05-.02.1-.02.15,0,.14.02.27.09.39.04.13.11.23.21.33l.2.16c.16.09.33.14.51.14.08,0,.2-.02.29-.04.1-.02.18-.07.27-.12.1-.05.18-.12.27-.2.04-.04.08-.08.12-.12.1-.09.17-.21.22-.34.07-.12.1-.26.09-.4,0-.14-.02-.28-.09-.4-.04-.13-.11-.24-.22-.34l-.21-.16c-.16-.09-.34-.14-.53-.14l-.28.04c-.18.05-.33.14-.46.27h0Z"/>
        </g>
      </g>
      <rect class="cls-2" width="100" height="100"/>
    </g>
  </g>
</svg>