<?xml version="1.0" encoding="UTF-8"?>
<svg id="Capa_2" data-name="Capa 2" xmlns="http://www.w3.org/2000/svg" viewBox="0 0 100 100">
  <defs>
    <style>
      .cls-1 {
        fill: #6e5757;
      }

      .cls-2 {
        fill: #fff;
      }

      .cls-3 {
        fill: none;
      }

      .cls-4 {
        fill: #4a2d2d;
      }
    </style>
  </defs>
  <g id="COLOR">
    <g>
      <g>
        <path class="cls-1" d="M50.83,68.31c-.11-.34-.28-.66-.54-.94-1.51-1.67-4.28-1.75-6.29-1.25-.38.1-.76.22-1.12.36-2.33.92-4.48,3.1-3.38,5.76,1.02,2.48,4.75,2.99,7.02,2.2,1.3-.45,2.49-1.36,3.35-2.42.8-.99,1.37-2.47.97-3.71Z"/>
        <path class="cls-1" d="M33.99,61.84c-.56-1.27-1.04-2.49-2.57-2.67-1.16-.13-2.27.46-2.91,1.42-1.41,2.1-.97,4.97.2,7.04.57,1.01,1.26,1.7,2.4,2.03s2.3.26,3.33-.2c3.13-1.39.47-5.51-.45-7.63Z"/>
        <path class="cls-1" d="M27.49,71.06c-2.03-2.04-5.59-.91-6.88,1.53-.71,1.35-.13,2.68.73,3.8,1.38,1.8,2.9,3.68,4.93,4.77,1.6.86,3.66.43,4.62-1.16,1.12-1.86.15-4.23-.9-5.88-.71-1.11-1.57-2.13-2.5-3.07Z"/>
        <path class="cls-1" d="M44.22,78.76c-1.52-.53-3.24-.47-4.7.21-1.21.57-2.16,1.59-2.79,2.76-.29.55-.48,1.17-.43,1.79.12,1.36,1.32,2.3,2.27,3.14,1.08.95,2.25,1.86,3.55,2.5,2.64,1.3,6.72.2,7.57-2.93.85-3.1-2.88-6.56-5.47-7.48Z"/>
        <path class="cls-1" d="M22.57,56.13c-2.14-2.16-6.33-.42-7.87,1.65-.93,1.25-1.21,2.94-.95,4.45.31,1.76,1.63,3.45,3.32,4.09s3.45-.94,3.8-2.59c.22-1.03.19-1.99.8-2.92.36-.55.91-.96,1.25-1.51.68-1.09.57-2.25-.35-3.18Z"/>
        <path class="cls-1" d="M47.66,57.33c-.28-1.67-2.08-2.43-3.24-3.41-1.3-1.09-1.76-2.95-3.23-3.85-1.2-.73-2.68-.56-3.8.24-1.64,1.18-2.04,3.22-1.59,5.1.96,4.04,5.36,7.09,9.42,5.34,1.35-.58,2.72-1.81,2.44-3.43Z"/>
        <path class="cls-1" d="M61.82,74.72c-.5-1.47-.39-2.72-1.87-3.66-1.29-.82-3.02-.69-4.37-.09-1.7.76-2.79,2.32-2.86,4.19-.14,3.51,2.74,7.51,6.63,6.77,1.39-.26,2.59-1.18,3.14-2.5.75-1.8-.1-3.06-.66-4.71Z"/>
        <path class="cls-1" d="M30.75,46.94c-2.27-1.14-5.98-.35-7.53,1.65-.68.87-1.32,2.22-1.1,3.35.29,1.5,2.51,2.36,3.84,2.56,1.91.28,3.8-.5,5.25-1.72,2.09-1.76,2.22-4.49-.46-5.84Z"/>
        <path class="cls-1" d="M21.74,44.42c-1.05-3.1-5.55-4.28-8.44-3.96-1.15.13-2.6.41-3.22,1.51-.78,1.37.16,2.8.98,3.88.95,1.25,1.87,2.53,3.05,3.57.58.51,1.25,1,2.02,1.19,1.51.38,3.31-1.11,4.35-2.07,1.16-1.08,1.78-2.55,1.26-4.12Z"/>
        <path class="cls-1" d="M24.18,31.61c-.55-3.1-3.19-4.4-6.11-3.5-2.75.85-4.41,3.53-4.05,6.36.18,1.44.95,2.92,2.15,3.77.74.53,1.67.72,2.57.56.97-.18,1.67-.77,2.45-1.32.64-.45,1.25-.95,1.77-1.54,1.06-1.22,1.51-2.74,1.23-4.33Z"/>
        <path class="cls-1" d="M32.21,33.21c-1.59-.55-3.52-.25-4.74.95-1.23,1.2-1.42,3.22-.63,4.72.83,1.57,2.49,2.73,3.91,3.72,2.4,1.67,5.48,1.05,5.78-2.23.27-2.95-1.44-6.17-4.31-7.17Z"/>
        <path class="cls-1" d="M31.57,16.66c-1.42-.12-3,.29-4.23,1.01-1.15.68-1.77,1.69-1.56,3.04.24,1.59.78,3.12,2.04,4.17,1.03.85,2.34,1.4,3.68,1.5,2.53.18,7.57-1.21,7.64-4.42.07-3.18-5.06-5.09-7.57-5.31Z"/>
        <path class="cls-1" d="M49.7,37.44c-3.07-.32-6.45,1.29-7.88,4.08-1.14,2.21.33,4.91,2.84,4.93.91,0,1.86-.16,2.76-.31.82-.14,1.64-.32,2.42-.6,1.49-.53,2.85-1.43,3.59-2.86,1.44-2.81-1.12-4.97-3.73-5.24Z"/>
        <path class="cls-1" d="M49.96,55.13c.04,1.43,1.08,3.07,1.95,4.07.78.89,1.76,1.6,2.88,2,2.2.77,6.66.57,7.22-2.38.51-2.72-2.58-4.81-4.69-5.72-1.4-.61-3.04-1.05-4.58-.85-1.32.17-2.62,1.15-2.76,2.54-.01.11-.02.23-.01.35Z"/>
        <path class="cls-1" d="M72.67,61.42c-1.5-3.11-5.94-1.18-8.03.12-1.95,1.21-4.88,3.26-3.59,5.9.36.75.88,1.52,1.61,1.96.61.37,1.31.56,2.01.64,1.37.15,2.87-.12,4.06-.82,2.25-1.32,5.27-5.05,3.94-7.8Z"/>
        <path class="cls-1" d="M77.38,71.84c-2.26-2.46-6.04-.93-8.17.9-1,.86-1.86,1.92-2.35,3.15-.52,1.31-.33,2.58.26,3.83.34.72.79,1.27,1.56,1.52.71.23,1.5.17,2.22,0,1.46-.33,2.9-1.08,4.04-2.04,1.97-1.67,4.72-4.88,2.44-7.36Z"/>
        <path class="cls-1" d="M65.32,43.03c-.75-1.2-1.6-2.42-2.72-3.3-1.39-1.09-2.66-.9-4.03.14-1.75,1.33-1.82,4.1-1.06,5.99.94,2.37,4.39,6.13,7.28,4.93,3.06-1.28,1.83-5.7.53-7.76Z"/>
        <path class="cls-1" d="M77.64,44.41c-1.37-.58-2.99-.48-4.34.1-3.58,1.53-5.2,7.35-1.66,9.78,2.81,1.93,6.09.21,7.76-2.42,1.61-2.53,1.23-6.2-1.76-7.46Z"/>
        <path class="cls-1" d="M82.64,56.56c-3.64.97-6.19,5.36-4.94,9,.17.48.4.94.7,1.36.68.97,1.95,1.43,3.1,1.33,2.97-.25,5.02-4.75,5.66-7.23.71-2.73-1.78-5.19-4.51-4.46Z"/>
        <path class="cls-1" d="M75.8,27.99c-3.11,0-6.87.95-7.42,4.55-.19,1.26.06,2.68.95,3.64,1.76,1.88,5.18.43,7.11-.37,1.44-.6,3.28-1.27,4.07-2.72,1.73-3.17-2.17-5.09-4.71-5.09Z"/>
        <path class="cls-1" d="M86.88,37.52c-.99-.62-2.3-.88-3.44-.54-.9.26-1.46.98-1.58,1.9-.23,1.83.6,3.88,1.37,5.51.73,1.55,1.43,3.46,2.99,4.36,2.63,1.51,5.57-.22,5.68-3.19.12-3.31-2.34-6.35-5.02-8.04Z"/>
        <path class="cls-1" d="M74.54,16.37c-2.53-1.8-7.43-1.76-9.88.21-.93.75-1.49,1.98-1.31,3.17.14.89.86,1.49,1.58,1.95.84.53,1.69,1.1,2.58,1.54,1.94.98,4.31,1.69,6.4.75.38-.17.74-.39,1.06-.65,2.36-1.87,1.92-5.3-.44-6.98Z"/>
        <path class="cls-1" d="M56.96,23.04c-2.64,1.27-2.88,4.56-2.27,7.08.51,2.12,1.97,5.36,4.48,5.63,2.08.23,3.45-2.01,3.95-3.73.44-1.54.47-3.21.15-4.77-.57-2.82-2.64-5.62-5.82-4.42-.16.06-.32.13-.48.21Z"/>
        <path class="cls-1" d="M47.29,24.64c-2.86-2.1-6.27.67-8.13,2.79-1.08,1.23-1.87,2.77-1.53,4.44.36,1.76,1.83,3.15,3.69,3.09,1.72-.06,3.57-.99,4.74-2.25,1.77-1.91,4.04-6,1.23-8.06Z"/>
        <path class="cls-1" d="M55.05,13.65c-.67-1.58-2.16-2.57-3.81-2.91-1.99-.41-4.41,0-6.23.89-1.42.69-2.44,1.92-2.19,3.58.49,3.3,5.23,4.6,8.05,4.26,2.72-.32,5.42-2.9,4.18-5.82Z"/>
        <path class="cls-4" d="M20.08,36.41c.2.04.41.06.61.04.11,0,.22-.04.33-.08.05-.02.1-.04.14-.08.02-.01.03-.03.04-.05.04-.04.07-.08.09-.12.03-.08.03-.18-.06-.22s-.2-.08-.29-.08c-.08,0-.16,0-.23,0s-.16.01-.24.01c-.09,0-.17,0-.26-.02h.08s-.04,0-.05,0c-.08-.01-.16-.01-.23.03-.06.04-.12.11-.14.18-.03.15.04.33.21.37h0Z"/>
        <path class="cls-4" d="M21.24,35.06l.41-.12c.05-.01.09-.04.12-.09s.05-.09.05-.14c0-.04-.01-.08-.03-.12-.03-.05-.09-.09-.14-.11l-.41-.12c-.12-.03-.27,0-.35.09-.06.07-.11.16-.11.26,0,.09.04.19.11.26.09.09.23.13.35.09h0Z"/>
        <path class="cls-4" d="M34.96,24.17l.64-.06c.13-.01.26-.02.38-.06.05-.02.11-.03.16-.05.07-.02.11-.05.17-.09.02-.02.04-.03.06-.05.14-.11.09-.36-.06-.44-.02-.01-.04-.02-.06-.03-.08-.04-.12-.04-.2-.05-.05,0-.09-.01-.14-.02-.11-.01-.21,0-.32,0l-.63.05c-.11,0-.2.04-.28.12-.07.07-.12.18-.12.28,0,.2.17.42.4.4h0Z"/>
        <path class="cls-4" d="M36.82,22.36h.51c.11-.01.21-.02.32-.04.04,0,.08,0,.12-.02.06-.01.11-.05.17-.08.17-.1.17-.36,0-.46-.05-.03-.11-.07-.17-.08-.04,0-.07-.01-.11-.02-.11-.02-.22-.02-.33-.03h-.51c-.19-.01-.37.16-.37.36s.16.37.37.37h0Z"/>
        <path class="cls-4" d="M52.06,16.67c.24.04.48.1.72.13.1.01.2.03.31.04.06,0,.11,0,.17,0,.04,0,.09,0,.13-.02.05-.01.08-.04.12-.06.07-.04.12-.11.13-.2.01-.09-.02-.16-.07-.23-.08-.11-.22-.17-.35-.21-.1-.03-.21-.06-.31-.08-.21-.05-.42-.08-.63-.12-.1-.02-.2-.02-.29.04-.08.05-.15.14-.17.23-.04.19.06.43.27.47h0Z"/>
        <path class="cls-4" d="M53.26,15.36c.06-.02.11-.04.17-.05h-.08s.08,0,.12,0h.06s.06-.03.08-.05c.02-.01.03-.03.04-.04.02-.02.04-.05.04-.08,0-.04,0-.09,0-.13,0-.03-.02-.06-.04-.08-.02-.03-.04-.05-.07-.06l-.1-.08.06.04s-.08-.1-.12-.15c-.05-.05-.11-.09-.18-.11-.07-.02-.15-.02-.22,0-.14.04-.25.15-.29.29s0,.3.11.4.26.15.4.11h0Z"/>
        <path class="cls-4" d="M72.77,21.32l.56.06c.09.01.19.03.28.03.04,0,.09,0,.13-.01.02,0,.04,0,.06,0,.07,0,.14-.02.2-.05.03-.02.06-.05.09-.07.06-.05.09-.14.1-.22s0-.18-.04-.24c-.06-.08-.11-.13-.2-.17-.04-.02-.07-.03-.11-.04-.04-.01-.08-.03-.12-.04-.12-.03-.26-.03-.38-.05l-.57-.06c-.1-.01-.24.06-.31.13-.08.08-.13.2-.13.31s.04.23.13.31l.09.07c.07.04.14.06.22.06h0Z"/>
        <path class="cls-4" d="M73.76,19.88l.23.05c.07.01.14.02.21.03s.14.02.21,0c.07-.02.12-.05.17-.1.05-.05.08-.1.1-.17.04-.13,0-.28-.1-.37-.05-.05-.11-.08-.18-.11,0,0-.02,0-.03,0l-.06-.02s-.08-.02-.11-.03l-.23-.05c-.11-.02-.22-.02-.31.04-.05.03-.09.06-.11.1-.04.04-.06.09-.07.14-.02.1-.02.22.04.31.06.09.14.16.24.19h0Z"/>
        <path class="cls-4" d="M59.84,32.43l.5-.02s.09,0,.13-.01c.07,0,.15,0,.21-.03.04-.01.07-.03.11-.04.08-.03.17-.06.23-.13.12-.14.13-.33,0-.47-.06-.07-.14-.09-.22-.12-.04-.02-.08-.03-.12-.05-.07-.02-.14-.02-.21-.03-.04,0-.08,0-.13-.01l-.5-.02c-.12,0-.25.05-.33.14s-.14.21-.14.33.04.24.14.33.2.14.33.14h0Z"/>
        <path class="cls-4" d="M60.82,30.6l.32.04.15.02c.06,0,.12,0,.18-.02.09-.02.17-.06.24-.12l.06-.08s.05-.1.05-.15c0-.04,0-.07,0-.11,0-.05-.02-.11-.05-.15-.06-.12-.23-.22-.36-.25l-.16-.04-.32-.07c-.13-.03-.25-.01-.37.05-.07.04-.13.1-.17.17-.04.06-.05.12-.06.18-.01.06-.01.13,0,.19.01.06.04.12.09.16.03.05.08.09.14.12.08.04.16.07.24.07h0Z"/>
        <path class="cls-4" d="M77.27,33.4c.15-.01.31-.02.46-.04.1-.01.2-.04.3-.06.04,0,.08-.02.11-.03.08-.02.13-.07.19-.12.1-.1.1-.28,0-.38-.06-.05-.11-.1-.19-.12-.04-.01-.08-.02-.11-.03-.1-.03-.2-.05-.3-.06-.15-.01-.31-.03-.46-.04-.11,0-.24.06-.31.13s-.14.2-.13.31.04.23.13.31c.08.08.2.14.31.13h0Z"/>
        <path class="cls-4" d="M79.24,32.24l.22-.02s.04,0,.05-.01c.02,0,.03-.01.04-.03.02-.02.04-.06.04-.09s-.01-.07-.04-.09l-.03-.02s-.04-.02-.07-.02l-.22-.02s-.04,0-.06.01c-.02,0-.04.02-.05.03-.02.01-.03.03-.03.05,0,.02-.01.04-.01.06,0,.04.02.08.05.11l.03.02s.05.02.08.02h0Z"/>
        <path class="cls-4" d="M42.19,33.26c.06.02.11.03.17.04s.12.02.19.02.14-.01.2-.02c.05,0,.11-.02.16-.04.06-.02.12-.04.18-.07.11-.06.19-.18.21-.3v-.11c.02-.06,0-.11-.02-.16-.03-.08-.09-.16-.17-.19,0,0-.01,0-.02-.01,0,0,0,0,0,0-.05-.03-.11-.05-.17-.05-.06-.01-.12-.01-.18,0,0,0-.01,0-.02,0-.01,0-.02,0-.03.01-.05.01-.09.02-.14.03l.12-.02c-.11.01-.22.02-.33,0l.12.02s-.02,0-.03,0c-.06-.02-.12-.02-.17,0-.06,0-.11.02-.16.05-.09.05-.18.16-.2.26-.03.11-.02.24.04.33l.07.09c.05.05.12.09.19.11h0Z"/>
        <path class="cls-4" d="M43.07,32.06c.1,0,.21,0,.31-.02.06,0,.11-.03.16-.05l.13-.04c.08-.03.16-.11.15-.2s-.06-.17-.15-.2l-.13-.04c-.05-.02-.1-.04-.16-.05-.1-.01-.21-.01-.31-.02-.08,0-.17.04-.22.09s-.09.14-.09.22.03.16.09.22.14.1.22.09h0Z"/>
        <path class="cls-4" d="M50.81,42.55l.15-.06s.05-.02.08-.03c.02-.01.04-.03.06-.04.01,0,.02-.01.04-.02.06-.03.12-.08.15-.14.02-.02.03-.04.05-.06.01-.02.03-.04.04-.06.01-.02.02-.03.04-.05.04-.06.06-.17.06-.24,0-.07-.01-.11-.04-.17s-.05-.1-.09-.14c-.05-.05-.14-.11-.21-.12-.02,0-.04,0-.06-.01-.02,0-.05,0-.07-.01-.13-.02-.17-.03-.3,0-.01,0-.03,0-.04,0-.02,0-.05,0-.07.02-.03,0-.05.02-.08.03l-.15.06c-.1.03-.18.08-.25.15l-.09.12c-.05.09-.08.19-.08.29,0,.08.01.15.05.22.02.07.06.13.12.19.05.06.11.1.19.12.07.04.14.05.22.05.1,0,.2-.03.29-.08h0Z"/>
        <path class="cls-4" d="M50.6,40.91c.11.02.22.03.34.03s.23-.02.34-.04c.05-.01.1-.04.15-.06.02,0,.03-.01.05-.02.06-.03.12-.07.17-.12.02-.02.05-.05.07-.07.05-.06.09-.12.11-.19,0-.01,0-.03,0-.04.01-.08.01-.14-.02-.22-.03-.06-.07-.13-.14-.16-.05-.02-.08-.05-.14-.06-.06-.02-.12-.01-.18-.02l.11.02c-.11-.01-.22-.03-.33-.03-.08,0-.16,0-.23,0l.14.02c-.06,0-.11-.02-.17-.04-.13-.04-.29-.02-.4.05-.11.06-.21.19-.24.31-.03.13-.02.28.05.4l.08.11c.07.06.14.11.23.13h0Z"/>
        <path class="cls-4" d="M63.24,49.58c.17-.01.33-.02.5-.04.03,0,.06,0,.1-.01.06,0,.11-.03.15-.06.03-.01.06-.03.08-.04.06-.03.09-.07.13-.13.04-.06.04-.16,0-.22-.04-.05-.07-.09-.13-.13-.03-.02-.05-.03-.08-.04-.05-.03-.09-.05-.15-.06-.03,0-.07,0-.1-.01-.16-.02-.33-.03-.5-.04-.1,0-.21.05-.28.12s-.12.18-.12.28.04.21.12.28.18.12.28.12h0Z"/>
        <path class="cls-4" d="M64,48.28c.11-.01.21-.02.32-.03.05,0,.1-.01.15-.02.04,0,.08,0,.11-.02s.07-.03.1-.04c.02-.01.05-.02.07-.03l-.07.03s.09-.02.14-.04c.06-.01.11-.04.17-.07.14-.07.14-.31,0-.38-.05-.03-.11-.06-.17-.07-.05-.01-.09-.02-.14-.04l.07.03-.06-.03s-.07-.03-.1-.04-.07-.01-.11-.02c-.05,0-.11-.01-.16-.02-.11-.01-.21-.02-.32-.03-.1-.01-.22.05-.29.12-.07.07-.12.19-.12.29s.04.22.12.29c.08.07.18.13.29.12h0Z"/>
        <path class="cls-4" d="M74.64,53.15l.57.07.28.04c.07,0,.12.01.18,0s.13-.01.2-.03c.14-.03.3-.17.32-.32.03-.19.03-.09-.11-.32-.03-.14-.11-.22-.23-.25l-.04-.02c-.08-.03-.16-.04-.24-.05-.1-.01-.2-.02-.31-.03l-.61-.06c-.12-.01-.26.06-.34.14-.08.08-.15.22-.14.34s.05.25.14.34l.1.08c.08.04.16.07.24.07h0Z"/>
        <path class="cls-4" d="M76.17,51.41h.22c.07.01.15.02.22,0,.11-.01.21-.02.32-.05.13-.03.25-.09.32-.22.04-.07.07-.14.07-.22s-.03-.15-.07-.22c-.07-.12-.19-.19-.32-.22-.1-.02-.21-.03-.32-.05-.07,0-.14,0-.21,0h-.23c-.12.01-.25.06-.33.15-.08.08-.14.22-.14.33s.05.25.14.33.21.13.33.14h0Z"/>
        <path class="cls-4" d="M89.21,47.39c.11,0,.22,0,.34,0,.08,0,.17-.03.25-.04.12-.02.23-.09.3-.2.06-.09.06-.22,0-.31-.07-.1-.18-.17-.3-.2-.08-.02-.17-.04-.25-.04-.11,0-.22,0-.34,0-.1,0-.21.05-.28.12s-.12.18-.12.28.04.21.12.28.18.12.28.12h0Z"/>
        <path class="cls-4" d="M90.11,45.22l.19-.11c.06-.04.12-.08.18-.12l.07-.05.05-.07.03-.08s.02-.09,0-.13c0-.03,0-.06-.02-.08,0-.03-.02-.05-.04-.07-.01-.03-.04-.05-.06-.06-.03-.03-.07-.05-.11-.06-.1-.01-.2-.03-.3-.04h-.22c-.16,0-.33.09-.41.23l-.05.11c-.02.08-.02.17,0,.25.01.06.04.12.08.16.03.05.08.09.13.12.15.09.33.08.48,0h0Z"/>
        <path class="cls-4" d="M58.52,59.13l.45-.02c.09,0,.19,0,.28-.02.07-.01.14-.03.21-.04.09-.02.17-.12.16-.21s-.06-.19-.16-.21c-.07-.01-.14-.03-.21-.04-.09-.02-.18-.02-.28-.02l-.45-.02c-.16,0-.31.15-.3.3s.13.31.3.3h0Z"/>
        <path class="cls-4" d="M58.74,57.9c.17,0,.35,0,.51-.02.03,0,.07,0,.1-.02.05-.01.11-.04.16-.07.03-.01.06-.03.08-.04.08-.05.14-.14.14-.24s-.06-.19-.14-.24c-.03-.01-.06-.03-.08-.04-.05-.02-.1-.06-.16-.07-.03,0-.07-.01-.1-.02-.17-.02-.34-.02-.51-.02-.1,0-.2.04-.27.11s-.12.18-.11.27.04.2.11.27.17.11.27.11h0Z"/>
        <path class="cls-4" d="M32.98,42.14h.5c.12.01.3-.02.39-.09.03-.02.06-.04.08-.06.05-.04.08-.06.11-.12.02-.04.04-.09.04-.14s-.02-.1-.04-.14c-.03-.06-.06-.08-.11-.12-.03-.02-.06-.04-.08-.06-.06-.04-.12-.06-.18-.07-.07-.01-.14-.03-.21-.03h-.5c-.11.01-.21.05-.29.13-.07.07-.12.19-.12.29.01.23.18.41.41.41h0Z"/>
        <path class="cls-4" d="M34.15,40.29c.13-.09.26-.19.39-.29.05-.04.06-.12.05-.18s-.07-.12-.13-.13c-.16-.03-.33-.05-.49-.07-.06,0-.12.02-.18.05-.05.03-.1.07-.13.13-.04.08-.06.18-.04.27.02.09.09.17.16.21.06.03.12.05.18.05.06,0,.12-.02.18-.05h0Z"/>
        <path class="cls-4" d="M16.94,49.11l.39-.08c.07-.01.13-.02.19-.05.03-.01.06-.02.09-.03.06-.02.1-.05.14-.1.08-.09.07-.22-.04-.28-.05-.03-.1-.05-.17-.05-.03,0-.06,0-.09,0-.07,0-.13,0-.2.01l-.4.05s-.1.01-.14.04l-.06.04c-.06.06-.09.15-.08.23,0,.07.04.13.1.18.07.06.15.07.24.05h0Z"/>
        <path class="cls-4" d="M18.18,47.84l.28-.03h.07c.07-.01.12-.02.18-.05l.11-.06c.12-.07.12-.26,0-.33l-.1-.06s-.06-.03-.09-.04c-.03,0-.06,0-.09-.01h-.07c-.09-.01-.19-.02-.28-.03-.07,0-.17.04-.22.09s-.09.14-.09.22.03.16.09.22c.06.05.14.1.22.09h0Z"/>
        <path class="cls-4" d="M27.39,52.55h.22c.07.02.15.03.22.02s.14-.02.21-.02c.06,0,.11-.02.16-.05.02,0,.03-.02.04-.03.08-.05.13-.13.13-.23s-.06-.18-.13-.23c-.01,0-.03-.02-.04-.02-.06-.04-.1-.04-.17-.05s-.14-.02-.21-.02-.14,0-.21.01h-.23c-.08.02-.15.04-.21.1-.05.05-.09.14-.09.21,0,.17.13.29.3.3h0Z"/>
        <path class="cls-4" d="M28.82,51.27l.27-.03h.06s.07-.01.1-.02c.03,0,.06-.02.09-.04.04-.02.07-.04.1-.06.14-.09.14-.28,0-.37-.03-.02-.07-.04-.1-.06-.03-.02-.06-.03-.09-.04-.03,0-.07,0-.1-.01h-.06c-.09-.02-.18-.03-.27-.04-.05,0-.09,0-.13.03-.04.01-.08.04-.11.07-.06.06-.1.15-.1.24s.03.18.1.24c.06.06.15.11.24.1h0Z"/>
        <path class="cls-4" d="M20.16,57.73h.1s.03,0,.05,0c.02,0,.04,0,.07,0,.04-.01.07-.03.1-.06,0,0,0,0,.01-.01.02-.02.03-.04.04-.06.01-.02.02-.05.02-.08,0-.05-.02-.1-.06-.14,0,0,0,0-.01-.01-.02-.02-.04-.04-.07-.04,0,0-.02,0-.03-.01h-.06s0,0,0,0h-.05s-.07,0-.1,0c-.03,0-.06,0-.08.02-.03,0-.05.02-.07.05-.02.02-.04.04-.05.07-.01.03-.02.05-.02.08v.06s.04.07.06.1c.04.04.1.07.16.06h0Z"/>
        <path class="cls-4" d="M19.48,59.82l.12-.04c.06-.02.13-.03.18-.06s.09-.07.14-.11l.08-.07s.05-.06.06-.1c.01-.04.01-.08,0-.12-.02-.07-.08-.15-.16-.16l-.1-.02c-.06-.01-.12-.03-.18-.03-.06,0-.13.02-.19.03l-.12.02s-.08.03-.11.06c-.04.02-.07.06-.09.09-.02.04-.04.08-.04.13-.01.04,0,.09,0,.13.03.08.08.16.15.2s.17.06.26.03h0Z"/>
        <path class="cls-4" d="M33.45,68.33c.18.04.37.07.56.05.11,0,.21-.03.31-.07.07-.03.15-.05.2-.12.03-.04.06-.08.09-.13.04-.06.04-.13.01-.19-.03-.06-.07-.1-.14-.12-.03-.01-.06-.02-.09-.03-.05-.02-.1-.02-.16-.01-.07,0-.14,0-.21,0-.14,0-.28.01-.42,0h.08s-.04,0-.06,0c-.09-.01-.17-.01-.24.03-.07.04-.13.11-.15.19-.04.16.05.35.22.39h0Z"/>
        <path class="cls-4" d="M34.05,67.12l.16-.03s.02,0,.04,0c.05-.01.09-.04.13-.08l.04-.04s.05-.08.05-.13c0-.05-.02-.1-.05-.13l-.04-.04s-.08-.07-.13-.08c-.01,0-.03,0-.04,0l-.16-.03c-.05-.01-.11-.01-.16,0-.05.01-.09.04-.13.08-.05.06-.09.13-.09.21,0,.04,0,.08.03.11.01.04.03.07.06.1.04.04.08.06.13.08.05.01.11.01.16,0h0Z"/>
        <path class="cls-4" d="M47.68,70.92c.17.04.35.06.52.04.07,0,.13-.01.2-.03.06-.02.12-.05.17-.08.09-.06.16-.16.22-.25.04-.07.04-.16.01-.23-.03-.07-.09-.14-.17-.15-.05,0-.1-.02-.15-.04-.11-.03-.25,0-.36,0h.1c-.1,0-.21,0-.31-.01h.1s-.09,0-.13-.01c-.1-.03-.21-.01-.3.04-.08.05-.16.14-.18.23-.02.1-.02.21.04.3s.13.15.23.18h0Z"/>
        <path class="cls-4" d="M48.77,69.58l.35-.04c.05,0,.1-.01.15-.03l.08-.03s.05-.02.08-.03c.04-.02.08-.03.11-.06,0,0,.02-.02.03-.02.07-.06.07-.21,0-.27,0,0-.02-.01-.02-.02-.04-.03-.07-.05-.11-.06-.02,0-.05-.02-.07-.02l-.08-.03s-.1-.02-.15-.03l-.35-.04c-.08,0-.19.05-.24.1-.06.06-.1.16-.1.24s.03.18.1.24c.06.06.15.11.24.1h0Z"/>
        <path class="cls-4" d="M44.27,59.14l.48.06c.08,0,.15,0,.23,0,.14,0,.33-.03.43-.14.05-.07.1-.14.1-.23s-.04-.16-.1-.23c-.1-.12-.28-.13-.42-.14-.08,0-.16,0-.24,0l-.48.06c-.09.01-.16.03-.22.09-.06.06-.1.15-.09.22s.03.17.09.22c.07.06.14.08.22.09h0Z"/>
        <path class="cls-4" d="M45.59,58.14l.29-.02c.08,0,.15-.02.23-.04.01,0,.02,0,.04,0,.06-.02.11-.05.16-.09.01-.01.03-.02.04-.04.05-.05.09-.14.09-.21,0-.08-.03-.16-.09-.21-.01-.01-.03-.02-.04-.04-.06-.05-.09-.07-.16-.09-.01,0-.02,0-.03,0-.08-.02-.15-.03-.23-.04l-.29-.02c-.06,0-.11,0-.16.03-.05.02-.09.04-.13.08-.04.04-.07.08-.08.13-.03.05-.04.1-.03.16,0,.1.04.21.12.29s.18.13.29.12h0Z"/>
        <path class="cls-4" d="M66.85,68.32c.1-.04.21-.07.32-.08l-.11.02c.11-.02.23-.01.34-.04.04,0,.07-.02.11-.02.04,0,.09-.03.13-.05.07-.03.11-.09.15-.14.03-.05.05-.11.05-.18,0-.06-.02-.12-.05-.18-.02-.04-.04-.07-.08-.09-.07-.06-.1-.08-.19-.11-.03-.01-.06-.02-.09-.03-.07-.02-.14-.04-.21-.03s-.14.02-.2.03c-.17.03-.33.09-.48.17-.08.04-.17.15-.19.25s-.02.18.02.27c.03.08.09.16.17.2.09.05.22.08.32.04h0Z"/>
        <path class="cls-4" d="M68.05,66.64s.06-.02.1-.02h-.1s.09,0,.13.01h-.09s.1,0,.15,0h-.09s.06,0,.09,0c.04.01.08.01.12,0,.01,0,.02,0,.04,0,.05,0,.09-.01.14-.04.03-.02.06-.04.08-.07.02-.03.04-.06.05-.09.01-.05.01-.1,0-.14,0-.02,0-.03-.01-.05,0-.03-.02-.07-.04-.09l-.05-.07s0,0,0,0c0,0,0,0-.01,0-.04-.03-.07-.06-.11-.09-.03-.02-.06-.03-.09-.05-.15-.06-.31-.06-.47-.03-.05.01-.09.03-.13.07-.04.03-.07.06-.1.1-.03.04-.04.09-.04.14-.01.05,0,.1,0,.15.03.09.08.18.17.22s.19.07.29.04h0Z"/>
        <path class="cls-4" d="M81.24,66.36l.08.03c.05.02.1.02.16.03.06,0,.11,0,.17,0,.09,0,.17,0,.25,0,.1-.02.21-.04.28-.12.05-.06.1-.14.1-.23v-.09c-.03-.06-.06-.1-.1-.14-.07-.08-.18-.1-.28-.12-.09-.02-.17-.01-.25,0-.06,0-.11,0-.17,0s-.11,0-.16.03l-.08.03c-.07.02-.12.06-.16.11-.04.05-.07.12-.07.19,0,.06.02.11.04.16.04.07.11.12.19.14h0Z"/>
        <path class="cls-4" d="M82.52,65.32l.16-.04c.07-.02.15-.03.22-.07.04-.03.08-.06.13-.09.05-.04.1-.07.14-.13.03-.06.05-.14.03-.21s-.07-.13-.13-.16c-.04-.02-.08-.03-.12-.04-.05,0-.09-.02-.14-.03-.05-.02-.1-.02-.14,0-.02,0-.04,0-.06,0-.01,0-.03,0-.04,0h-.07c-.05.02-.11.03-.16.04-.05.01-.09.03-.13.07-.04.03-.07.06-.1.11-.03.04-.04.09-.04.14-.01.05,0,.1,0,.15.03.09.09.18.17.22s.19.06.29.04h0Z"/>
        <path class="cls-4" d="M75.62,75.05l.27.02s.05,0,.07,0c.02,0,.04,0,.06,0,.04,0,.08,0,.11-.01.03,0,.07-.02.1-.04.02-.01.04-.02.06-.03.09-.06.14-.14.14-.25s-.06-.19-.14-.25c-.02-.01-.03-.02-.05-.03-.03-.02-.07-.04-.1-.04s-.07-.01-.11-.01c-.02,0-.04,0-.06,0-.02,0-.05,0-.07,0l-.27.02c-.09,0-.17.03-.23.1-.06.06-.1.15-.1.23s.03.17.1.23.14.09.23.1h0Z"/>
        <path class="cls-4" d="M75.51,73.63l.3-.03c.07,0,.14-.01.21-.02.05,0,.08-.01.13-.04.05-.03.08-.08.12-.12.05-.06.05-.18,0-.24-.03-.05-.07-.09-.12-.12-.05-.03-.08-.03-.13-.04-.07,0-.14-.02-.21-.02l-.3-.03s-.09,0-.13.03c-.04.01-.08.04-.11.07-.06.06-.1.15-.1.24s.03.18.1.24c.06.06.15.11.24.1h0Z"/>
        <path class="cls-4" d="M59.07,80.4h.59c.1.01.19,0,.29,0,.08,0,.18-.02.25-.06.06-.04.1-.09.14-.15s.04-.14,0-.2-.08-.11-.14-.15c-.07-.04-.17-.05-.25-.06-.1,0-.19-.01-.29-.01h-.59c-.16.02-.32.15-.31.32s.14.3.31.31h0Z"/>
        <path class="cls-4" d="M59.53,78.76c.12.03.24.06.37.07h.14s.09,0,.14,0,.07-.03.11-.06c.05-.04.1-.08.11-.15s.01-.13-.02-.19c-.02-.03-.04-.07-.07-.1-.05-.05-.11-.07-.18-.1l-.14-.05s-.09-.02-.14-.03l-.15-.03s-.09-.02-.13,0c-.04,0-.08.01-.12.04-.07.04-.13.12-.15.2-.02.08-.01.18.03.25.04.07.11.13.2.15h0Z"/>
        <path class="cls-4" d="M28.38,79.95l.45.05s.07.01.1,0c.04,0,.08,0,.12-.01.13-.01.29-.02.39-.13.05-.06.09-.13.09-.21s-.03-.15-.09-.21c-.09-.11-.25-.12-.39-.13-.04,0-.07,0-.11,0s-.07,0-.11,0l-.45.05c-.08,0-.15.03-.21.09-.05.05-.09.14-.09.21s.03.16.09.21c.06.06.13.08.21.09h0Z"/>
        <path class="cls-4" d="M28.49,78.71h.22c.06-.01.11-.02.16-.04l.1-.03c.08-.02.15-.11.15-.2s-.06-.18-.15-.2l-.1-.03c-.05-.01-.11-.02-.16-.02h-.22c-.06-.02-.14.02-.18.06s-.08.12-.08.18.02.14.08.18.11.08.18.08h0Z"/>
        <path class="cls-4" d="M46.14,86.84l.5.02s.08,0,.12,0c.07,0,.14-.02.21-.04.09-.02.17-.05.24-.11s.11-.16.11-.26-.05-.19-.11-.26-.15-.09-.24-.11c-.07-.02-.14-.04-.21-.04-.04,0-.08,0-.12,0l-.5.02c-.1,0-.2.04-.28.11-.07.07-.12.18-.11.28,0,.22.17.38.39.39h0Z"/>
        <path class="cls-4" d="M46.9,85.28h.15c.08,0,.15-.02.23-.03l.14-.02s.09-.02.13-.05c.06-.03.09-.08.13-.13.05-.07.05-.2,0-.27-.04-.05-.07-.1-.13-.13-.05-.03-.08-.04-.13-.05l-.14-.02c-.08-.01-.15-.02-.23-.03h-.15c-.09,0-.19.04-.26.1s-.11.17-.11.26.03.19.11.26.16.11.26.11h0Z"/>
        <path class="cls-2" d="M19.68,29.45c-.54-.35-1.28-.24-1.8.07s-.89.89-.9,1.51.57,1.29,1.21,1.21c.19-.02.36-.05.54-.1.19-.05.37-.15.55-.24l-.33.14c.48-.2.89-.42,1.19-.87.17-.25.22-.69.13-.98-.1-.32-.3-.57-.58-.76h0Z"/>
        <path class="cls-2" d="M28.58,18.36c-.21.19-.39.38-.54.62-.33.52-.31,1.25.2,1.64s1.19.23,1.62-.2c.21-.2.36-.44.5-.69.27-.5.16-1.11-.29-1.46s-1.06-.29-1.49.09h0Z"/>
        <path class="cls-2" d="M45.27,12.42c-.32.12-.66.26-.88.53-.3.37-.49.81-.35,1.29.11.38.48.69.89.68.36-.01.64-.13.97-.28l-.27.12c.09-.04.18-.06.27-.08.27-.05.57-.31.7-.54.15-.25.21-.62.12-.9s-.27-.56-.54-.7-.61-.23-.9-.12h0Z"/>
        <path class="cls-2" d="M65.5,18.06l-.05.1-.1.25c-.04.14-.05.27-.02.41,0,.09.02.18.07.26.04.13.11.24.21.33l.21.16.25.1c.14.04.27.05.41.02.14,0,.26-.05.38-.12l.1-.05c.16-.09.29-.22.38-.38.1-.17.14-.34.14-.53l-.04-.28c-.05-.18-.14-.34-.27-.47-.1-.1-.21-.18-.34-.22-.13-.07-.26-.1-.41-.09-.19,0-.37.05-.53.14-.16.09-.29.22-.38.38h0Z"/>
        <path class="cls-2" d="M56.61,24.53s-.02.03-.03.05c-.03.04-.05.09-.06.14-.05.09-.08.18-.08.28-.02.16-.03.3.03.46,0,.02.01.04.02.06.01.03.02.07.04.1.03.09.07.19.11.27.09.16.23.27.38.38.27.19.75.19,1.02,0,.14-.1.2-.15.3-.27s.08-.1.14-.25c.03-.08.06-.15.09-.23,0-.02.01-.03.02-.05,0-.01,0-.02,0-.04l.04-.29-.04-.29-.11-.26s-.02-.04-.03-.06c-.19-.32-.54-.53-.92-.53s-.73.21-.92.53h0Z"/>
        <path class="cls-2" d="M70.1,31.9s.04.1.06.15c.03.11.09.2.18.28.08.08.17.14.28.18.04.02.07.03.11.05,0,0,.02,0,.02,0,0,0,0,0,.01,0l.25.03c.13,0,.25-.02.37-.08.12-.04.22-.1.31-.2l.15-.19c.09-.15.13-.31.13-.48l-.03-.25c-.03-.12-.09-.23-.17-.32-.07-.1-.16-.19-.27-.25-.11-.07-.23-.11-.35-.11-.13-.03-.25-.02-.38.02l-.23.1c-.14.08-.26.2-.34.34l-.1.23c-.05.17-.05.34,0,.51h0Z"/>
        <path class="cls-2" d="M44.6,27.27c.14,0,.26-.02.38-.09.12-.04.23-.11.32-.21.1-.09.17-.2.21-.32.06-.12.09-.25.09-.38l-.04-.26c-.05-.17-.13-.31-.26-.44l-.2-.16c-.16-.09-.32-.14-.5-.14-.14,0-.26.02-.38.09-.12.04-.23.11-.32.21-.1.09-.17.2-.21.32-.06.12-.09.25-.09.38l.04.26c.05.17.13.31.26.44l.2.16c.16.09.32.14.5.14h0Z"/>
        <path class="cls-2" d="M28.75,34.94s-.07.04-.11.07l-.21.16-.02.02c-.07.07-.13.16-.18.24-.01.02-.02.03-.04.05v.02c-.05.08-.08.16-.12.24l-.04.27c0,.09.01.19.04.27.05.16.13.33.26.44s.27.21.44.25c.05.01.1.02.15.02.09.02.18.02.27,0,.09,0,.18-.02.26-.07.05-.01.1-.03.14-.07.01,0,.03-.02.04-.03.05-.04.1-.07.15-.11.14-.11.17-.13.28-.31.02-.03.04-.07.07-.11l.1-.24c.04-.13.05-.27.02-.4,0-.09-.02-.17-.07-.25-.04-.12-.11-.23-.21-.32-.13-.12-.28-.2-.44-.26-.13-.04-.27-.05-.4-.02-.13,0-.26.05-.37.12h0Z"/>
        <path class="cls-2" d="M13.47,43.72c.14,0,.27-.02.39-.09.13-.04.23-.11.33-.21.1-.09.17-.2.21-.33.06-.12.09-.25.09-.39l-.04-.27c-.05-.17-.13-.32-.26-.45l-.2-.16c-.16-.09-.33-.14-.51-.14-.14,0-.27.02-.39.09-.13.04-.23.11-.33.21-.1.09-.17.2-.21.33-.06.12-.09.25-.09.39l.04.27c.05.17.13.32.26.45l.2.16c.16.09.33.14.51.14h0Z"/>
        <path class="cls-2" d="M26.84,48.02c-.11.01-.23.02-.34.05s-.21.08-.31.13c-.05.03-.08.06-.13.1-.04.02-.08.06-.11.09l-.15.2s-.02.03-.03.05c-.08.13-.11.24-.12.38-.01.08-.02.1-.02.16,0,.08.02.19.04.27.03.15.13.3.24.41.03.03.06.06.1.08.09.08.19.13.31.16l.24.03s.09,0,.13-.02c.07,0,.1,0,.15-.03.09-.03.16-.05.26-.11.08-.05.15-.12.23-.18l-.2.15c.09-.07.18-.12.26-.2.02-.02.04-.05.07-.07l-.19.15s.05-.04.08-.05l.19-.15c.09-.09.16-.19.2-.3.04-.07.06-.15.06-.24.03-.13.02-.25-.02-.38-.05-.16-.13-.3-.24-.42-.09-.09-.19-.16-.3-.2-.11-.06-.23-.09-.36-.08h0Z"/>
        <path class="cls-2" d="M38.49,51.47c-.07.15-.17.33-.21.48-.08.3-.03.67.13.94.09.15.2.26.35.35.15.09.32.13.49.13.11-.01.22-.01.33-.06.22-.09.35-.13.52-.3.13-.13.2-.28.29-.44.14-.26.19-.56.11-.85-.07-.26-.27-.53-.51-.66-.26-.13-.56-.2-.85-.11-.26.08-.54.25-.66.51h0Z"/>
        <path class="cls-2" d="M44.04,42.63s-.04.06-.05.09c-.14.26-.17.53-.11.81.08.32.36.6.68.68.28.07.55.04.81-.11.03-.02.06-.04.09-.05.31-.17.53-.54.52-.9l-.04-.28c-.05-.18-.14-.33-.27-.46-.09-.1-.21-.17-.34-.22-.12-.07-.26-.1-.4-.09-.36,0-.72.2-.9.52h0Z"/>
        <path class="cls-2" d="M59.39,41.34c-.03.13-.06.27-.06.41,0,.17.03.25.08.38.04.15.12.28.23.39.08.09.18.15.29.18.11.06.22.08.34.08.16,0,.31-.04.45-.12.1-.06.21-.13.29-.21.11-.11.16-.2.22-.33.09-.16.14-.32.14-.51l-.04-.27c-.05-.17-.13-.32-.26-.44-.09-.1-.2-.17-.32-.21-.12-.06-.25-.09-.39-.09-.14,0-.27.02-.39.09-.12.04-.23.11-.32.21-.12.13-.21.27-.26.44h0Z"/>
        <path class="cls-2" d="M72.71,46.77s0,.04,0,.06l.04-.3s-.01.07-.03.1l.11-.27c-.05.12-.11.24-.15.36,0,.02-.01.03-.02.05l-.04.29c.01.1.02.2.04.3.05.18.14.34.28.47.13.13.29.22.47.28.05.02.1.02.16.02.14.03.29.03.43-.02.1-.03.21-.08.3-.12.16-.08.28-.2.38-.33.05-.07.1-.13.14-.2.05-.12.12-.24.14-.37.05-.2.05-.41,0-.61l-.12-.27c-.1-.17-.24-.31-.41-.41-.13-.08-.27-.13-.43-.14-.15-.03-.31-.03-.46.02-.15.04-.28.1-.39.21-.13.08-.22.19-.3.32-.1.18-.16.37-.16.58h0Z"/>
        <path class="cls-2" d="M83.47,39.32l-.08.13c-.18.29-.17.68,0,.97.09.14.2.26.35.35.15.09.31.13.49.13h.16c.19.01.37-.03.53-.13.16-.09.29-.22.38-.38.19-.33.19-.74,0-1.07s-.54-.52-.91-.52-.72.2-.91.52h0Z"/>
        <path class="cls-2" d="M54.25,55.1c.15,0,.29-.03.42-.09.14-.04.25-.12.35-.23.11-.1.18-.22.23-.35.07-.13.1-.27.09-.42l-.04-.29c-.05-.18-.15-.35-.28-.48l-.22-.17c-.17-.1-.35-.15-.55-.15-.15,0-.29.03-.42.09-.14.04-.25.12-.35.23-.11.1-.18.22-.23.35-.07.13-.1.27-.09.42l.04.29c.05.18.15.35.28.48l.22.17c.17.1.35.15.55.15h0Z"/>
        <path class="cls-2" d="M15.32,60.44s-.02.04-.02.06c-.02.08-.03.17-.03.26,0,.12.02.24.08.35.03.06.05.11.08.16.07.12.17.21.29.29.12.07.26.11.4.11.1-.01.21-.01.29-.04.24-.07.42-.22.55-.43.01-.02.03-.04.04-.06.08-.14.12-.3.12-.46l-.03-.24c-.04-.15-.12-.29-.23-.4-.08-.09-.18-.15-.29-.19-.11-.06-.23-.08-.35-.08-.13,0-.24.02-.35.08-.11.04-.21.1-.29.19-.11.11-.19.25-.23.4h0Z"/>
        <path class="cls-2" d="M29.17,61.68c0,.16,0,.34.04.49.02.09.05.17.08.26.08.25.27.46.53.53.24.07.57,0,.74-.19.05-.07.11-.13.16-.2.11-.14.17-.24.25-.4.09-.15.13-.31.13-.49,0-.17-.04-.34-.13-.49-.14-.21-.33-.37-.57-.44-.58-.16-1.24.3-1.22.93h0Z"/>
        <path class="cls-2" d="M41.97,71.33c.12,0,.23-.02.34-.08.11-.04.2-.1.28-.18.09-.08.15-.17.18-.28.06-.1.08-.22.08-.34l-.03-.23c-.04-.15-.12-.28-.23-.39l-.18-.14c-.14-.08-.29-.12-.44-.12-.12,0-.23.02-.34.08-.11.04-.2.1-.28.18-.09.08-.15.17-.18.28-.06.1-.08.22-.08.34l.03.23c.04.15.12.28.23.39l.18.14c.14.08.29.12.44.12h0Z"/>
        <path class="cls-2" d="M54.66,72.91c-.11.35-.24.7-.09,1.07.11.27.25.47.53.59s.54.08.81-.05c.36-.16.5-.49.66-.81.13-.26.17-.52.11-.8-.07-.31-.32-.56-.6-.68-.58-.25-1.23.07-1.41.68h0Z"/>
        <path class="cls-2" d="M62.69,64.79c-.31.14-.53.45-.62.77,0,.02,0,.04-.01.06-.02.1-.04.21-.04.31l.04.27c.03.09.06.17.11.25,0,.01.02.03.03.04.06.11.14.2.25.27.09.09.2.14.33.17.26.06.52.03.75-.1.01,0,.02-.01.04-.02l-.24.1s.09-.04.13-.06c.13-.04.24-.11.33-.21.01-.01.03-.03.04-.04l-.21.16s.05-.03.08-.05l.22-.17h.02s.03-.04.04-.05l-.22.17s.02-.02.03-.02c.24-.15.42-.38.5-.65.05-.14.05-.29.02-.43,0-.14-.05-.28-.13-.4-.15-.23-.37-.44-.65-.5l-.29-.04c-.2,0-.38.05-.55.15h0Z"/>
        <path class="cls-2" d="M81.28,58.51l-.08.11c-.08.1-.11.23-.15.35-.11.34.01.74.26.98s.64.36.98.26c.12-.04.25-.07.35-.15l.11-.08c.16-.1.29-.22.39-.39.1-.17.15-.35.15-.54l-.04-.29c-.05-.18-.14-.34-.28-.47-.1-.1-.21-.18-.35-.22-.13-.07-.27-.1-.41-.09-.19,0-.38.05-.54.15-.16.1-.29.22-.39.39h0Z"/>
        <path class="cls-2" d="M67.99,77.61v.04c0-.09-.02-.18-.03-.27.02.18.04.35.06.53l-.04-.28c.01.15.02.31.06.45.06.21.17.39.32.54.3.31.83.38,1.2.15.49-.3.65-.83.54-1.37-.06-.29-.22-.57-.45-.76-.17-.15-.34-.24-.57-.27-.21-.03-.45,0-.63.12-.14.09-.26.21-.36.36-.15.24-.14.5-.1.77h0Z"/>
        <path class="cls-2" d="M39.83,80.97c-.08.18-.19.38-.24.56-.06.23-.09.53,0,.76.07.18.15.33.31.45.14.11.35.21.53.19.01,0,.03,0,.04,0,.19-.02.33-.05.49-.14.11-.06.24-.15.32-.23.09-.09.16-.19.24-.29.13-.13.23-.29.28-.47l.04-.29c.02-.34-.17-.65-.42-.84-.24-.18-.5-.25-.79-.21-.14,0-.28.05-.4.13-.16.1-.29.22-.39.39h0Z"/>
        <path class="cls-2" d="M22.62,72.95l.08.17c.07.11.15.2.26.26.11.07.24.1.37.1.13,0,.26-.03.37-.1.11-.07.2-.15.26-.26l.08-.17c.07-.13.11-.27.11-.42,0-.15-.04-.29-.11-.42-.15-.25-.42-.41-.71-.41s-.56.16-.71.41c-.07.13-.11.27-.11.42,0,.15.04.29.11.42h0Z"/>
      </g>
      <rect class="cls-3" width="100" height="100"/>
    </g>
  </g>
</svg>