<?xml version="1.0" encoding="UTF-8"?>
<svg id="Capa_2" data-name="Capa 2" xmlns="http://www.w3.org/2000/svg" viewBox="0 0 100 100">
  <defs>
    <style>
      .cls-1 {
        fill: #fff;
      }

      .cls-2 {
        fill: none;
      }

      .cls-3 {
        fill: #4a2d2d;
      }

      .cls-4 {
        fill: #b3644c;
      }
    </style>
  </defs>
  <g id="COLOR">
    <g>
      <g>
        <g>
          <path class="cls-4" d="M49.82,22.89c-2.46-4.54-7.22-8.02-12.4-8.56-1.89-.33-3.73.5-5.09,1.78-2.1,1.97-3.72,4.47-5.73,6.54-4.14,4.27-8.06,8.13-10.43,13.7-4.59,10.81-6.1,23.75-3.22,35.2.7,2.78,1.79,5.49,3.1,8.04,1.21,2.36,3.01,4.09,5.67,4.64,5.3,1.09,10.46-2.56,13.41-6.68,1.81-2.53,2.94-5.51,4.29-8.29,1.52-3.12,3.02-6.23,4.4-9.42,2.53-5.83,5.07-11.84,6.55-18.03,1.44-6.02,2.54-13.25-.55-18.93Z"/>
          <path class="cls-3" d="M34.8,19.89c-1.01,1.78-1.98,3.62-3.31,5.18-1.32,1.55-2.95,2.79-4.4,4.21-2.8,2.71-5.33,5.96-7.01,9.49-.85,1.77-1.48,3.73-1.46,5.71s.8,3.61,1.82,5.22c.47.74.97,1.49,1.29,2.31.36.91.46,1.88.35,2.85-.23,2.02-1.22,3.89-1.9,5.78-1.54,4.3-1.74,9.14-.2,13.48.12.33.62.2.53-.15-.97-3.93-1.01-8.14.23-12.03.62-1.95,1.62-3.76,2.13-5.75.24-.94.37-1.92.27-2.89-.1-.92-.4-1.77-.81-2.59-.79-1.61-1.97-3.04-2.36-4.82-.42-1.87-.02-3.81.63-5.58.67-1.83,1.66-3.55,2.73-5.18,1.08-1.65,2.32-3.18,3.69-4.6,1.57-1.64,3.38-3.03,4.86-4.75s2.5-3.65,3.27-5.74c.07-.2-.24-.33-.34-.14h0Z"/>
          <path class="cls-3" d="M25.81,81.26c.06-1.34-.21-2.72-.34-4.04-.13-1.35-.23-2.71-.31-4.07-.15-2.68-.19-5.37-.01-8.05.18-2.69.62-5.37,1.28-7.99.66-2.6,1.63-5.1,2.4-7.66.42-1.39.76-2.8.91-4.24.14-1.35.19-2.95-.42-4.2-.13-.27-.56-.13-.56.15,0,.63.11,1.25.13,1.88s.02,1.3-.04,1.95c-.12,1.28-.42,2.55-.77,3.78-.74,2.57-1.81,5.04-2.49,7.63-1.35,5.15-1.51,10.61-1.23,15.9.08,1.51.2,3.02.35,4.53.08.77.16,1.53.25,2.29s.15,1.49.36,2.2c.08.27.48.21.49-.07h0Z"/>
          <path class="cls-3" d="M37.56,24.26c-.74,2.09-1.75,4.1-3.03,5.91-.64.91-1.38,1.75-2.07,2.63-.32.4-.63.8-.91,1.22s-.64.9-.79,1.42c-.05.19.19.32.33.19.41-.38.72-.88,1.08-1.31s.71-.84,1.06-1.26c.72-.85,1.42-1.7,2.04-2.63,1.25-1.86,2.18-3.88,2.76-6.04.08-.3-.36-.42-.47-.13h0Z"/>
          <path class="cls-3" d="M41.73,24.23c.04,2.48-.3,4.97-1,7.35-.34,1.18-.78,2.33-1.32,3.44-.54,1.11-1.2,2.15-1.85,3.2-.63,1.01-1.23,2.05-1.59,3.18-.4,1.24-.44,2.56-.4,3.85s.21,2.58.18,3.87c-.03,1.2-.36,2.39-.75,3.52-.44,1.26-.99,2.47-1.53,3.69-.54,1.23-1.14,2.5-1.4,3.81-.09.44.51.6.66.18.43-1.15.83-2.29,1.34-3.4.49-1.09,1.01-2.17,1.46-3.28.94-2.31,1.36-4.69,1.24-7.18-.06-1.3-.18-2.63.05-3.92.22-1.22.75-2.32,1.36-3.39s1.28-2.1,1.82-3.2,1.01-2.26,1.38-3.45c.83-2.67,1.13-5.49.87-8.28-.03-.33-.53-.35-.53,0h0Z"/>
          <path class="cls-3" d="M30.5,67.76c-.28.7-.58,1.4-.8,2.11-.2.65-.3,1.33-.39,2s-.15,1.4-.15,2.09c0,.62-.03,1.5.3,2.04.09.14.28.1.33-.04.11-.29.09-.63.1-.95,0-.35,0-.7.01-1.05,0-.68.04-1.35.11-2.02.15-1.37.32-2.8.72-4.12.05-.15-.18-.21-.24-.07h0Z"/>
          <path class="cls-3" d="M45.32,26.08c.3,1.42.64,2.83.8,4.28.16,1.45.18,2.93.1,4.39-.17,3.03-.93,6.01-1.84,8.9-.52,1.65-1.04,3.29-1.59,4.93-.07.2.24.28.31.09.55-1.47,1.14-2.93,1.63-4.43s.95-3.05,1.32-4.6c.7-2.92,1.12-5.98.86-8.98-.14-1.62-.45-3.28-1.2-4.74-.12-.23-.44-.06-.39.17h0Z"/>
          <path class="cls-3" d="M42.37,51.09s.02-.03,0-.03-.02.03,0,.03h0Z"/>
          <path class="cls-3" d="M41.29,53.05c-.28.72-.59,1.43-.93,2.12s-.73,1.36-.97,2.08c-.06.19.2.34.33.19.52-.58.87-1.33,1.18-2.04s.58-1.48.82-2.23c.09-.28-.33-.38-.43-.12h0Z"/>
          <path class="cls-3" d="M35.1,68.02h.63c.14,0,.27,0,.41-.05.16-.05.25-.15.37-.24.21-.17.21-.6,0-.77-.12-.1-.21-.19-.37-.24-.13-.04-.27-.05-.41-.05h-.63c-.35,0-.69.31-.67.67s.3.67.67.67h0Z"/>
          <path class="cls-3" d="M35.83,65.53c.19,0,.38-.02.56-.1.11-.05.22-.11.32-.18.39-.24.39-.8,0-1.04-.11-.06-.21-.13-.32-.18-.18-.08-.37-.09-.56-.1-.42-.02-.82.38-.8.8s.35.82.8.8h0Z"/>
          <path class="cls-1" d="M24.34,37.12l-.14.18c-.12.15-.26.3-.3.5l-.04.27c0,.09.01.19.04.27.05.16.13.33.26.44l.2.15.24.1s.1.02.15.02c.13.03.27.02.4-.02l.24-.1.2-.16s.03-.02.04-.04l.19-.15c.1-.09.17-.21.22-.34.07-.12.1-.26.09-.4,0-.14-.02-.28-.09-.4-.04-.13-.11-.24-.22-.34-.2-.18-.46-.32-.74-.31l-.28.04c-.18.05-.33.14-.46.27h0Z"/>
          <path class="cls-1" d="M23.19,43.85c.42,0,.42-.65,0-.65s-.42.65,0,.65h0Z"/>
          <path class="cls-1" d="M38.76,19.39l.13.12c.06.05.12.11.19.15s.14.06.21.08c.15.04.36.02.49-.06l.13-.1c.08-.08.13-.17.16-.28.06-.15.04-.3.03-.46,0-.14-.04-.28-.11-.4-.07-.12-.17-.21-.28-.28-.12-.07-.26-.11-.4-.11-.11,0-.21.02-.31.07-.1.03-.18.09-.26.16-.1.1-.17.22-.2.35-.07.26,0,.59.2.77h0Z"/>
          <path class="cls-1" d="M15.46,73.02c.14.24.3.46.56.59.16.08.36.13.54.07.16-.05.34-.16.42-.32.05-.11.1-.22.12-.35.02-.11.04-.21.03-.31,0-.04-.01-.08-.02-.12,0-.16-.04-.31-.12-.45-.08-.13-.18-.24-.32-.32-.21-.11-.45-.15-.68-.09-.55.15-.81.8-.53,1.3h0Z"/>
        </g>
        <g>
          <path class="cls-4" d="M85.51,28.51c-.06-.03-.12-.04-.18-.06-.03.01-.05.02-.08.03,0,0,0,0,.01,0,0,0-.01,0-.02,0-.02,0-.03.02-.05.02-.14.07-.28.15-.41.24-.04.02-.07.05-.11.08-.02.01-.03.02-.05.04,0,0,0,0,0,0,0,0,0,0-.01,0-.02.01-.03.03-.05.04-1.16-.23-2.87-.65-4.06-1.31-1.49-.83-3.9-3.79-4.98-5.17.18-.33-.08-.8-.56-.73l.38-.35c-10.5,1.65-18.92,12.07-23.05,21.15-2.44,5.36-4.26,11.05-5.31,16.84-1.03,5.66-1.62,11.78-.54,17.47.9,4.72,3.51,9.42,7.97,11.59,4.66,2.27,9.77.81,13.82-2.04,8.77-6.15,14.47-16.47,18.57-26.1,1.21-2.84,2.26-5.75,3.26-8.67,1.08-3.17,2.09-6.39,2.3-9.75.32-5.23-1.72-11.16-6.85-13.36Z"/>
          <path class="cls-3" d="M87.1,27.8c-.26-.64-.74-1.19-.97-1.84-.34-.98.11-1.84.11-2.81,0-1.24-.63-2.31-1.59-3.07-2.95-2.35-6.67.48-9.77,1.34-.49.14-.68.54-.65.92-.02.12,0,.26.07.39,1.7,2.96,4.09,5.19,7.23,6.69,1.31.62,3.02,1.19,4.45.68,1.07-.38,1.54-1.25,1.11-2.3ZM83.47,28.27c-1.18-.34-2.27-.96-3.25-1.69-1.65-1.23-2.74-2.09-4.08-3.61,2.21-.7,4.43-2.86,6.73-2.14,2.98.93.85,3.73,1.72,5.77.16.37.6.85.64,1.23.12.98-1.17.61-1.77.44Z"/>
          <path class="cls-3" d="M73.83,24.9c-3.03,2.59-6.02,5.29-8.75,8.21-1.37,1.47-2.68,3-3.89,4.6-1.17,1.55-2.33,3.18-3.12,4.97-.4.91-.7,1.84-.81,2.83s0,1.92.18,2.86c.36,1.9,1.09,3.8.89,5.76-.17,1.65-1.11,3.07-2.09,4.36-1.03,1.35-2.2,2.62-3.04,4.1-1.02,1.81-1.49,3.86-1.64,5.91-.16,2.14-.06,4.37.31,6.49.07.38.68.29.67-.09-.03-1.91-.27-3.8-.22-5.71s.33-3.8,1.14-5.5c1.42-2.99,4.56-4.86,5.59-8.07,1.2-3.77-1.62-7.44-.53-11.22.53-1.85,1.66-3.5,2.75-5.07,1.11-1.6,2.33-3.12,3.62-4.58,2.94-3.33,6.21-6.31,9.4-9.39.31-.3-.15-.74-.47-.47h0Z"/>
          <path class="cls-3" d="M61.03,65.04c-1.42,2.6-2.78,5.31-2.95,8.32-.09,1.55,0,3.1-.24,4.65-.11.74-.27,1.48-.47,2.2s-.48,1.47-.67,2.22c-.09.34.38.54.57.24.76-1.24,1.12-2.78,1.39-4.2.28-1.51.29-3.02.34-4.55.09-3.05,1.37-5.81,2.62-8.54.18-.39-.37-.73-.58-.34h0Z"/>
          <path class="cls-3" d="M65.3,57.63c2.26-2.45,3.36-5.76,3.55-9.04.11-1.82.18-3.57.77-5.31.53-1.56,1.34-3.01,2.24-4.38.51-.78,1.05-1.53,1.61-2.26.59-.77,1.24-1.49,1.65-2.37.12-.25-.16-.66-.44-.44-.32.25-.61.48-.87.79-.28.33-.54.68-.81,1.02-.51.66-1.01,1.33-1.48,2.02-.95,1.37-1.78,2.82-2.39,4.37s-.95,3.27-1.02,5-.14,3.55-.66,5.3c-.54,1.82-1.43,3.47-2.52,5.03-.15.22.19.48.37.28h0Z"/>
          <path class="cls-3" d="M82.15,32.62c-.44,5.26-1.87,10.39-4.52,14.97-.37.64-.76,1.27-1.14,1.9-.19.31-.38.63-.57.95s-.39.59-.42.95c-.01.17.18.31.34.26.57-.2.99-.89,1.34-1.35.41-.53.79-1.09,1.13-1.67.7-1.17,1.33-2.39,1.88-3.64,1.09-2.48,1.88-5.09,2.34-7.76.26-1.53.38-3.07.38-4.62,0-.5-.73-.48-.77,0h0Z"/>
          <path class="cls-3" d="M73.79,55.49c-.54,3.7-1.71,7.37-3.62,10.59-.93,1.57-2.08,2.98-3.11,4.49-.99,1.45-1.78,3.02-1.91,4.8-.07.93,0,1.87-.01,2.8-.02.98-.18,1.83-.65,2.69-.15.28.2.54.43.33,1.27-1.15,1.12-3.13,1.14-4.68.01-.86.09-1.7.36-2.52.29-.87.75-1.68,1.24-2.45.98-1.52,2.17-2.9,3.1-4.46.98-1.64,1.79-3.4,2.39-5.22.69-2.06,1.05-4.13,1.12-6.3,0-.27-.45-.35-.49-.07h0Z"/>
          <path class="cls-3" d="M72.29,74.05c.06-.08.11-.16.17-.23.03-.03.05-.07.08-.1-.03.04.01-.02.02-.02.01-.02.03-.03.04-.05.03-.04.06-.07.09-.11.02-.03.05-.06.07-.09,0,0,.05-.07.03-.04-.02.02.02-.02.02-.03.02-.02.03-.04.05-.06.03-.04.06-.07.09-.11.06-.07.12-.14.18-.21.02-.03.05-.06.07-.08.03-.04.03-.05.02-.03,0,.01,0,.01,0,0,.03-.04.06-.08.09-.11.04-.05.08-.1.12-.15.03-.04-.02.03.01-.01.01-.02.03-.03.04-.05.07-.09.13-.18.19-.28.12-.21-.12-.45-.33-.33-.35.2-.63.5-.88.81s-.49.65-.7,1c-.08.14-.04.35.11.42.16.08.32.03.42-.11h0Z"/>
          <path class="cls-3" d="M77.08,67.92c.26-.44.51-.89.79-1.32.3-.48.65-.93.95-1.4.58-.9,1.07-1.87,1.56-2.82.97-1.86,1.88-3.75,2.74-5.67.87-1.95,1.68-3.92,2.42-5.92.73-1.95,1.36-3.95,1.75-6,.42-2.24.66-4.7,0-6.91-.09-.31-.61-.27-.58.08.16,2.07.21,4.1-.16,6.16-.35,2-.96,3.95-1.65,5.86-1.41,3.9-3.09,7.73-4.95,11.44-.53,1.05-1.06,2.11-1.59,3.16-.26.5-.44,1.04-.7,1.55-.28.55-.58,1.08-.89,1.61-.11.2.19.37.3.18h0Z"/>
          <path class="cls-3" d="M71.79,78.71c.29,0,.61.02.83-.21s.23-.61,0-.86-.54-.21-.83-.21c-.34,0-.66.3-.65.65s.28.65.65.65h0Z"/>
          <path class="cls-3" d="M75.07,75.28s.02-.01.03-.01l-.16.07s.04-.01.06-.02l-.18.02s.04,0,.07,0l-.18-.02s.04,0,.06.02l-.16-.07s.03.02.04.02c.11.06.21.08.34.09.2.02.39-.11.51-.25.13-.16.17-.36.12-.56-.07-.27-.31-.45-.56-.53-.08-.02-.18-.04-.26-.04s-.18.01-.26.04c-.17.06-.31.16-.41.31-.12.18-.11.41-.03.6.16.38.6.52.96.32h0Z"/>
          <path class="cls-1" d="M63.52,42.34c-.82.23-1.35.87-1.65,1.64-.25.66-.38,1.72.34,2.13,1.35.78,2.24-2.13,2.29-3.02.03-.51-.52-.88-.99-.75h0Z"/>
          <path class="cls-1" d="M55.9,66.51c.01-.16.03-.31,0-.47-.02-.14-.04-.29-.07-.43-.06-.39-.65-.52-.9-.24-.1.11-.19.22-.28.33-.1.13-.17.27-.24.41-.23.45-.04,1.02.47,1.16.2.05.43.02.61-.08.26-.15.37-.4.39-.68h0Z"/>
          <path class="cls-1" d="M66.18,29.85c.18-.2.41-.41.47-.68.07-.28,0-.58-.21-.79s-.51-.28-.79-.21c-.26.07-.47.3-.68.47-.16.14-.25.4-.25.6s.09.46.25.6.37.26.6.25.45-.08.6-.25h0Z"/>
        </g>
      </g>
      <rect class="cls-2" width="100" height="100"/>
    </g>
  </g>
</svg>