<?xml version="1.0" encoding="UTF-8"?>
<svg id="Capa_2" data-name="Capa 2" xmlns="http://www.w3.org/2000/svg" viewBox="0 0 100 100">
  <defs>
    <style>
      .cls-1 {
        fill: #fff;
      }

      .cls-2 {
        fill: #c07e6a;
      }

      .cls-3 {
        fill: none;
      }

      .cls-4 {
        fill: #4a2d2d;
      }
    </style>
  </defs>
  <g id="COLOR">
    <g>
      <g>
        <g>
          <path class="cls-2" d="M35.2,51.46c-.28-2.98-.99-5.95-1.96-8.78-1.1-3.18-2.88-6.33-5.54-8.46-2.28-1.82-5.8-3.22-8.54-1.46-2.47,1.59-3.57,4.95-3.25,7.77.69,5.98,5.72,9.19,9.63,13.06,1.19,1.18,2.19,2.44,3.07,3.88.54.89,1.11,1.9,2.02,2.47,1.42.89,3.03.43,3.86-.99,1.22-2.1.93-5.2.71-7.5Z"/>
          <path class="cls-4" d="M31.31,49.75c.36.43.34,1,.5,1.5.14.44.69.49.94.12.55-.8.06-1.9-.55-2.51s-1.4.28-.89.89h0Z"/>
          <path class="cls-4" d="M32.14,54.44c.06.38.12.85.48,1.05.22.12.49.09.67-.09.3-.29.24-.77.2-1.15-.04-.41-.34-.73-.78-.68s-.64.45-.57.86h0Z"/>
          <path class="cls-1" d="M19.85,34.36c-.12.1-.23.2-.32.34-.07.11-.11.22-.13.35-.03.2.02.39.15.55.1.13.23.22.39.27s.33.02.48-.02c.16-.05.28-.13.41-.22.18-.12.3-.28.37-.48.08-.24,0-.51-.14-.7-.14-.18-.31-.27-.53-.3-.27-.04-.48.05-.68.22h0Z"/>
          <path class="cls-1" d="M19.01,38.73c.33,0,.33-.51,0-.51s-.33.51,0,.51h0Z"/>
        </g>
        <g>
          <path class="cls-2" d="M71.88,64.45c-.63-2.5-5.08-2.19-7-2.85-3.74-1.29-5.13-4.56-6.67-7.87-1.46-3.12-3.23-5.88-6.39-7.5-1.56-.8-3.27-1.27-5.02-1.31-1.82-.04-4.44.04-5.77,1.47-.71.76-1.15,1.74-1.44,2.72-.66,2.2-.72,4.63-.37,6.88.13.84.32,1.68.66,2.46,1.41,3.17,4.75,6.19,7.44,8.28,2.78,2.17,6.11,3.42,9.61,3.81,3.39.37,7.21.11,10.39-1.2,1.78-.73,5.16-2.47,4.55-4.9Z"/>
          <path class="cls-4" d="M58.58,60.72c.68,1.97,3.08,4.08,5.31,3.29.32-.11.41-.68,0-.74-.89-.13-1.74-.16-2.56-.59-.89-.48-1.57-1.24-1.93-2.19-.19-.51-1.01-.3-.82.23h0Z"/>
          <path class="cls-4" d="M59.37,66.19l.55.16c.11.03.22.07.33.07s.23-.03.34-.04c.34-.05.45-.56.2-.77-.19-.16-.35-.25-.58-.32l-.55-.16c-.69-.19-.98.87-.29,1.07h0Z"/>
          <path class="cls-1" d="M43.16,47.79c-.48.5-1.1,1.35-.68,2.06.2.34.59.39.93.24.28-.12.45-.42.59-.68.05-.1.12-.19.18-.28-.04.07-.04.05,0,0,.05-.06.1-.11.15-.16.3-.31.33-.86,0-1.17s-.85-.33-1.17,0h0Z"/>
          <path class="cls-1" d="M42.35,53.9l.03.18.04.1s.06.09.11.12c.07.05.16.09.25.09.07,0,.14-.02.21-.06.05-.03.09-.06.12-.11.04-.04.06-.09.07-.14l.03-.18c.02-.08.02-.16,0-.24-.02-.08-.06-.14-.12-.2-.09-.08-.2-.13-.32-.13-.11,0-.24.05-.32.13-.06.06-.09.12-.12.2-.02.08-.02.16,0,.24h0Z"/>
        </g>
        <g>
          <path class="cls-2" d="M41.27,68.89c-2.84-1.67-6.1-2.36-9.31-2.92-1.65-.29-3.3-.56-4.93-.93-1.14-.26-2.32-.5-3.35-1.08-1.87-1.05-5.66-4.92-7.78-2.4-1.56,1.86-.59,4.72.69,6.41,1.84,2.43,4.77,3.35,6.99,5.32,2.4,2.12,3.8,5.09,6.42,7.01,3.94,2.88,11.77,4.54,15.43.27,3.48-4.06-.5-9.52-4.17-11.68Z"/>
          <path class="cls-4" d="M42.24,74.01c.53.62.79,1.38,1.24,2.05.23.35.87.25.84-.23-.06-.98-.71-1.84-1.39-2.52-.45-.45-1.1.22-.7.7h0Z"/>
          <path class="cls-4" d="M43.57,78.21c.02.17.02.37.13.51.05.09.12.16.21.21.09.05.19.08.3.08.11,0,.2-.03.3-.08.09-.05.16-.12.21-.21.04-.05.06-.12.08-.18.02-.07.02-.12.03-.2,0-.04,0-.09.01-.13.02-.15-.08-.34-.19-.45-.11-.11-.29-.19-.45-.19s-.33.06-.45.19c-.11.12-.2.28-.19.45h0Z"/>
          <path class="cls-1" d="M17.32,62.24c-.37.62-.29,1.56.32,1.99.17.12.48.12.66,0,.61-.43.7-1.38.32-1.99-.29-.49-1.01-.49-1.3,0h0Z"/>
          <path class="cls-1" d="M18.38,66.65l.15.07c.07.03.15.07.22.09s.15.03.23.03c.2,0,.37-.09.5-.25.06-.06.09-.13.11-.22.03-.11.03-.22,0-.34-.03-.07-.05-.14-.09-.2-.05-.08-.09-.12-.15-.18l-.13-.11c-.14-.13-.3-.2-.49-.2-.13,0-.24.03-.35.1-.08.04-.15.1-.2.18-.06.07-.1.15-.12.24-.03.09-.03.19-.01.28,0,.09.03.18.08.26.06.1.15.19.25.25h0Z"/>
        </g>
        <g>
          <path class="cls-2" d="M56.87,26.81c-2.41-2.57-6.13-2.55-9.38-3.24-2.66-.56-4.69-.85-7.25-1.88-2.52-1.02-5.89-3.47-8.62-3.74-1.84-.18-5.22.29-5.48,2.69-.23,2.07,3.21,3.57,4.43,4.7,2.18,2.02,3.86,4.51,5.89,6.67,3.87,4.14,10.65,7.31,16.38,5.8,4.75-1.25,7.75-7.03,4.04-11Z"/>
          <path class="cls-4" d="M53.67,28.41c.3.12.58.35.78.6.25.31.38.71.68.98.22.19.66.22.8-.1.52-1.22-.88-2.35-1.98-2.5-.67-.09-.92.76-.28,1.02h0Z"/>
          <path class="cls-4" d="M54.24,32.85s0,.04.01.06l-.02-.17c0,.08,0,.17,0,.25l.02-.16c-.02.11-.03.22-.03.33-.01.19.11.38.27.48.17.1.38.1.56,0,.22-.12.33-.3.41-.52.07-.19.05-.4,0-.6-.07-.33-.47-.55-.78-.45-.35.11-.52.43-.45.78h0Z"/>
          <path class="cls-1" d="M29.43,19.76c-.26.18-.46.43-.53.75-.04.18-.04.39.02.56.07.23.23.37.41.51.36.27,1.01-.09.95-.54,0-.05,0-.1,0-.15,0-.06-.04-.16-.03-.22,0,.05,0,.16.01.04,0-.03,0-.06,0-.08,0-.09,0,.14,0,.06,0-.02.04-.12,0-.02-.02.05-.02.05,0,.02.02-.04.01-.02-.04.05.2-.24.25-.56.05-.82-.18-.23-.55-.34-.81-.16h0Z"/>
        </g>
        <g>
          <path class="cls-2" d="M81.73,44.68c-2.65-1.78-5.16-3.79-7.42-6.03-1.05-1.04-2.16-2.12-2.9-3.41-.79-1.39-1.07-2.98-1.24-4.55s-.05-3.19-.94-4.49c-1.25-1.83-3.55-2-4.92-.24-1.9,2.44-2.12,6.59-2.47,9.54-.46,3.87-.32,7.79.76,11.54,1.76,6.1,6.07,11.72,12.56,13.08,5.48,1.15,12.55-1.72,12.52-8.16-.02-3.63-3.31-5.5-5.95-7.28Z"/>
          <path class="cls-4" d="M82.63,49.3c.52.5.74,1.13,1.1,1.73.3.5,1.04.27,1.07-.29.05-.92-.58-1.79-1.25-2.36-.63-.54-1.53.33-.92.92h0Z"/>
          <path class="cls-4" d="M83.12,53.29c.01.06.02.13.04.19.02.1.08.2.12.29.17.36.78.36.95,0,.04-.09.1-.19.12-.29.01-.06.02-.13.04-.19.04-.23.01-.47-.17-.64-.13-.12-.29-.19-.47-.19-.17,0-.35.07-.47.19-.18.18-.21.4-.17.64h0Z"/>
          <path class="cls-1" d="M65.7,27.12c-.17.32-.35.64-.52.96s-.37.71-.33,1.09c.04.41.46.75.87.5.65-.41.87-1.37,1.16-2.05s-.83-1.12-1.17-.5h0Z"/>
          <path class="cls-1" d="M63.76,32.96l.03.12c.06.23.25.42.48.48.13.03.24.03.37,0,.23-.06.42-.25.48-.48l.03-.12c.06-.24,0-.53-.19-.7-.14-.13-.32-.21-.51-.21-.1,0-.19.02-.28.06-.09.03-.17.08-.23.15-.18.18-.25.45-.19.7h0Z"/>
        </g>
        <g>
          <path class="cls-2" d="M79.76,73.28c-1-.6-2.2-.96-3.2-1.18-2.95-.65-6.06-.56-8.83.73-.23.11-.45.22-.68.34-1.87,1.03-3.44,2.62-5.57,3.13-2.18.52-4.56.07-6.68-.5-.99-.27-2.39-1.01-3.32-.17-2.07,1.86.91,5.26,2.15,6.54,4.69,4.86,13.25,4.39,19.21,2.42,2.86-.95,6.35-2.38,8.03-5.04.67-1.07.99-2.42.82-3.68-.16-1.17-.94-2.01-1.93-2.6Z"/>
          <path class="cls-4" d="M77.87,76.02s.11.11.04.04c-.06-.06,0,.01.02.03.04.07.08.14.12.21.02.03.03.05.05.08.03.07.05.07,0,0,.06.09.08.19.16.27.05.05.11.1.17.14.2.12.51.09.67-.09.45-.49.1-1.22-.29-1.62-.24-.25-.7-.26-.94,0s-.26.67,0,.94h0Z"/>
          <path class="cls-4" d="M78.72,78.85c.33,0,.33-.51,0-.51s-.33.51,0,.51h0Z"/>
          <path class="cls-1" d="M52.9,78.42l.05.03s0,0,.01,0c.03.01.05.03.08.03.05.03.11.04.16.04.06.02.11.02.17,0,.06,0,.11-.01.16-.04.09-.04.13-.05.21-.13,0,0,.1-.12.1-.13l.07-.15.02-.17-.02-.17-.07-.15s0,0,0-.01l-.03-.06c-.06-.1-.14-.18-.24-.24-.1-.06-.22-.09-.34-.09l-.18.02c-.11.03-.21.09-.3.17-.07.06-.11.13-.14.22-.04.08-.06.17-.06.26,0,.12.03.23.09.34.06.1.14.18.24.24h0Z"/>
        </g>
      </g>
      <rect class="cls-3" width="100" height="100"/>
    </g>
  </g>
</svg>