<?xml version="1.0" encoding="UTF-8"?>
<svg id="Capa_2" data-name="Capa 2" xmlns="http://www.w3.org/2000/svg" viewBox="0 0 100 100">
  <defs>
    <style>
      .cls-1 {
        fill: #cf923a;
      }

      .cls-2 {
        fill: #fff;
      }

      .cls-3 {
        fill: none;
      }

      .cls-4 {
        fill: #a65247;
      }

      .cls-5 {
        fill: #4a2d2d;
      }

      .cls-6 {
        fill: #fde1b7;
      }
    </style>
  </defs>
  <g id="COLOR">
    <g>
      <g>
        <g>
          <g>
            <g>
              <path class="cls-4" d="M64.06,52.9c-1.18-5.17-4.08-9.78-7.29-13.91-3.1-4-5.94-7.38-10.23-10.09-.55-.35-6.33-4-9.9-3.35-1.77.32-4.91,1.72-6.55,2.45-1.65.73-3.28,1.5-4.9,2.28-5.85,2.82-11.94,6.61-14.17,13.06-.57,1.65-.87,3.37-1.07,5.1-.2,1.73-.28,3.47-.24,5.21.07,3.49.61,7.04,1.88,10.3,2.18,5.61,6.73,10.77,12.56,12.71,5.39,1.8,11.74.98,16.39-2.34.51-.36.99-.75,1.46-1.16,2.08.83,4.25,1.49,6.47,1.78,1.37.18,2.83.17,4.16-.27,1.19-.39,2.25-1.02,3.27-1.74,2.08-1.46,3.97-3.35,5.49-5.38,3.12-4.17,3.83-9.66,2.68-14.66Z"/>
              <path class="cls-5" d="M52.69,50.71c.42.94.66,2.09.72,3.12s-.06,2.08-.33,3.08-.72,1.99-1.26,2.9c-.26.44-.53.87-.83,1.28-.31.44-.75.85-.99,1.33-.08.17.1.41.28.28.45-.31.8-.85,1.14-1.28s.64-.85.92-1.31c.61-.98,1.1-2.05,1.43-3.16s.45-2.21.36-3.33c-.04-.55-.12-1.1-.29-1.63-.18-.56-.45-1.03-.76-1.52-.16-.25-.51-.03-.39.23h0Z"/>
              <path class="cls-5" d="M52.95,64.56c.59-.24,1.12-.59,1.58-1.03.23-.22.44-.47.61-.74s.31-.59.31-.91c0-.18-.24-.29-.37-.15-.11.11-.18.24-.27.37-.07.1-.15.23-.23.35-.16.25-.3.44-.49.64-.38.42-.83.73-1.36.96-.29.13-.08.64.22.52h0Z"/>
              <path class="cls-5" d="M37.3,25.82c.1.81.45,1.56.8,2.29.38.81.82,1.58,1.3,2.33.92,1.47,1.95,2.88,2.93,4.32s1.94,2.94,2.73,4.51c.77,1.54,1.26,3.12,1.5,4.81.28,1.9-.03,3.71-.74,5.49-.06.15.16.21.24.1.99-1.38,1.21-3.01,1.26-4.67s-.4-3.36-1.05-4.92c-1.39-3.34-3.8-6.04-5.76-9.04-.55-.85-1.07-1.72-1.55-2.61-.47-.89-.79-1.85-1.28-2.72-.09-.17-.41-.11-.38.1h0Z"/>
              <path class="cls-5" d="M37.11,25.86c.14,1.89.02,3.74-.57,5.56-.59,1.79-1.45,3.47-2.34,5.13-1.64,3.08-3.29,6.26-3.47,9.81-.04.9,0,1.8.2,2.67s.52,1.84,1.18,2.49c.29.29.85,0,.72-.42-.25-.76-.62-1.46-.83-2.23s-.32-1.58-.34-2.38c-.03-1.69.36-3.33.95-4.91,1.25-3.36,3.28-6.38,4.35-9.81.59-1.9,1.05-3.99.56-5.97-.06-.23-.43-.19-.41.06h0Z"/>
              <path class="cls-5" d="M24.65,46.14c-1.14,2.35-2.21,4.71-2.48,7.34-.25,2.5-.39,5.25,1.05,7.43.36.54.78,1.05,1.22,1.52s.88,1,1.44,1.3c.23.12.49-.13.36-.36-.34-.59-.93-1.05-1.39-1.55s-.87-1.04-1.22-1.62c-.82-1.4-.88-2.97-.91-4.56-.03-1.62.09-3.23.54-4.79.44-1.55,1.11-3.02,1.78-4.48.13-.28-.28-.52-.41-.24h0Z"/>
              <path class="cls-5" d="M27.7,32.9c-.74,1.16-1.87,1.97-3.06,2.62-1.41.76-2.58,1.82-3.54,3.09-1.06,1.4-1.95,2.96-2.75,4.51-.83,1.6-1.53,3.31-1.82,5.1-.32,1.97-.32,4.05.73,5.81.27.45,1.04.16.87-.36-.54-1.61-.84-3.34-.64-5.04.21-1.79.87-3.52,1.66-5.13.76-1.53,1.62-3.04,2.55-4.47.45-.69.93-1.37,1.5-1.96.54-.55,1.15-.97,1.83-1.33s1.44-.55,2.07-1.01c.55-.41,1-1.01,1.01-1.72,0-.22-.29-.29-.4-.11h0Z"/>
              <path class="cls-5" d="M20.95,66.31c.43.6.93,1.15,1.5,1.64.28.24.57.46.87.66.15.1.31.19.48.28s.35.19.55.2.24-.22.14-.34c-.11-.13-.29-.21-.43-.3s-.29-.19-.44-.29c-.29-.18-.56-.38-.82-.59-.54-.44-1.02-.94-1.44-1.49-.08-.1-.2-.15-.32-.08-.1.06-.16.22-.08.32h0Z"/>
              <path class="cls-5" d="M41.94,63.98c-.19-.99-.28-1.98-.34-2.98-.03-.48-.03-.95-.03-1.43,0-.42.04-1.01-.16-1.39-.06-.1-.19-.08-.25,0-.26.35-.28.97-.28,1.39,0,.51.02,1.03.06,1.54.08,1.01.32,2.01.59,2.99.08.26.46.15.41-.11h0Z"/>
            </g>
            <path class="cls-5" d="M33.75,68.61c.66.99,1.46,1.79,2.4,2.52,1.42,1.11,3.5,2.41,5.36,2.38.78,0,.98-.99.38-1.4-.82-.56-1.81-.79-2.69-1.22-.74-.36-1.44-.78-2.13-1.23-.82-.54-1.61-1.16-2.33-1.82-.5-.46-1.4.14-.99.76h0Z"/>
          </g>
          <path class="cls-2" d="M17.64,38.57c.13.03.27.07.4.06.09,0,.21-.01.29-.03.22-.07.39-.22.48-.43.04-.09.06-.18.06-.28,0-.12-.04-.27-.1-.38-.05-.07-.11-.14-.17-.2-.07-.06-.14-.13-.22-.17-.04-.02-.07-.03-.11-.05-.13-.07-.26-.11-.41-.11l-.21.03c-.14.04-.26.11-.36.21-.08.07-.13.16-.17.26-.09.21-.09.41,0,.62.03.1.09.19.17.26.1.1.22.17.36.21h0Z"/>
          <path class="cls-2" d="M12.42,53.71c.07.01.15.03.22.04.18.03.25.04.41.02.07,0,.14-.02.21-.03.63-.16.84-.99.38-1.44-.15-.15-.31-.24-.51-.32-.07-.03-.14-.05-.21-.07-.22-.08-.52-.02-.72.09s-.38.34-.43.56c-.05.24-.04.51.09.72.13.19.32.38.56.43h0Z"/>
        </g>
        <g>
          <path class="cls-1" d="M88.7,63.48c-.25-1.85-.67-3.67-1.33-5.42-.63-1.68-1.44-3.29-2.34-4.84-3.45-5.88-8.77-11.49-14.48-15.23-.61-.4-1.99-1.6-2.16-1.44-.02.02-.2.25-.22.27-.03.02-.06.04-.08.08-.78.71-1.66,1.34-2.66,1.7-1.15.42-2.36.59-3.59.59-.77,0-1.55-.13-2.32-.23-.74-.09-1.49-.17-2.24-.23-1.27-.09-2.53,0-3.78.19-4.69.73-9.11,3.5-12.13,7.11-3.28,3.93-5.07,8.92-5.39,14.01-.32,5.19.96,10.43,3.4,15,1.22,2.27,2.72,4.44,4.47,6.33.37.4.77.78,1.19,1.14.83.86,1.71,1.68,2.64,2.42,1.27,1.02,3.1,2.34,4.58,3.03,1.65.77,3.38,1.19,5.19,1.4,3.02.36,6.1.18,9.09-.29,2.92-.45,5.77-1.3,8.45-2.54,2.65-1.22,5.12-2.84,7.27-4.82,1.08-.99,2.09-2.06,3-3.21,1.03-1.3,2.04-2.61,2.71-4.14.74-1.68,1.04-3.46,1.06-5.29.02-1.86-.08-3.76-.33-5.61Z"/>
          <path class="cls-6" d="M37.38,68.93c2.16,6.49,4.76,8.08,6.28,9.67,1.51,1.59,4.33,3.68,7,4.69,2.67,1.01,10.75,3.61,15.51,1.59,4.76-2.02,11.68-7.72,15-12.98,3.32-5.27,2.16-8.44.58-13.63-1.59-5.19-6.35-11.32-9.02-14.35-1.91-2.17-3.86-5.26-4.81-6.84-.74.65-1.55,1.21-2.48,1.54-1.15.42-2.36.59-3.59.59-.77,0-1.55-.13-2.32-.23-.74-.09-1.49-.17-2.24-.23-1.27-.09-2.53,0-3.78.19-4.69.73-9.11,3.5-12.13,7.11-3.28,3.93-5.07,8.92-5.39,14.01-.11,1.75-.03,3.5.21,5.23.32,1.03.71,2.24,1.18,3.65ZM47.04,79.31c.07-1.3,2.02-6.13,1.95-7.79s-1.59-6.13-1.44-9.23c.14-3.1,1.44-5.99,3.75-8.37,2.31-2.38,4.62-2.81,7.28-4.54,2.67-1.73,6.71-8.87,6.71-8.87l2.09-1.8s-1.73,3.53-2.52,5.84c-.79,2.31-1.37,3.46-1.23,4.76.14,1.3,3.39,5.05,3.46,8.44.07,3.39-1.73,6.56-4.18,8.58-2.45,2.02-9.23,5.41-11.61,7.07-2.38,1.66-3.84,8.2-3.84,8.2l-.63-.63s.14-.36.22-1.66Z"/>
          <path class="cls-5" d="M83.45,62.87c-.33-2.8-1.2-5.51-2.51-8.01-1.47-2.8-3.39-5.38-5.24-7.93-1.89-2.6-3.83-5.15-5.68-7.79-.45-.64-.93-1.25-1.42-1.86-.41-.5-1.17.1-.93.64-.13.1-.26.22-.31.3-.27.43-.56.83-.78,1.29-.22.45-.44.91-.66,1.36-.45.94-.86,1.89-1.27,2.84-.4.92-.81,1.84-1.2,2.77-.36.86-.63,1.69-.48,2.63.26,1.69,1.56,3.04,2.31,4.53.78,1.54,1.28,3.27,1.23,5.01-.02.82-.17,1.67-.49,2.43-.29.7-.75,1.38-1.2,1.99-.93,1.28-2.18,2.33-3.48,3.22-3.02,2.06-6.39,3.53-9.25,5.84-1.39,1.12-2.63,2.5-3.38,4.14-.55,1.21-.73,2.53-1.1,3.78.17-1.36.57-2.69,1.07-3.97.32-.83.61-1.66.82-2.53.22-.86.14-1.75.12-2.63-.06-1.82-.75-3.54-1.07-5.33-.24-1.36-.25-2.8-.04-4.17.42-2.73,1.63-5.35,3.58-7.32,1.13-1.15,2.45-1.96,3.84-2.77.76-.45,1.54-.88,2.26-1.4.63-.45,1.19-.97,1.73-1.52,1.24-1.27,2.39-2.55,3.4-4.02,1.03-1.49,1.89-3.05,2.63-4.71.06-.14-.12-.25-.21-.12-1.85,2.66-3.36,5.59-5.71,7.87-2.42,2.36-5.96,2.92-8.46,5.17-2.17,1.96-3.66,4.67-4.3,7.51-.32,1.42-.45,2.89-.34,4.34.12,1.72.59,3.4,1.02,5.06.26,1.01.57,1.97.57,3.02,0,1.01-.25,1.9-.64,2.82-.4.94-.84,1.87-1.07,2.87-.18.76-.23,1.54-.21,2.31-1.03-.68-2.02-1.43-2.97-2.24-.48-.41-.93-.85-1.36-1.31-.17-.18-.5.06-.35.27.8,1.06,1.67,2.04,2.7,2.89,1.03.85,2.13,1.6,3.3,2.24,1.18.65,2.41,1.22,3.68,1.66.64.22,1.29.42,1.95.6.66.18,1.33.28,2.01.41,2.91.55,5.82,1.34,8.8.78,1.49-.28,2.92-1.02,4.2-1.82,1.2-.75,2.39-1.53,3.53-2.36,2.17-1.6,4.18-3.43,5.94-5.47.91-1.05,1.76-2.15,2.57-3.28.88-1.23,1.73-2.49,2.3-3.9.8-1.95.82-4.07.57-6.14ZM82.56,66.9c-.21,1.24-.79,2.4-1.43,3.47-.73,1.21-1.56,2.37-2.42,3.49-1.59,2.07-3.37,3.99-5.34,5.7-2.08,1.81-4.39,3.45-6.91,4.59-1.42.64-2.92.94-4.48.93-1.43,0-2.87-.14-4.29-.31-.66-.08-1.33-.16-1.97-.33-.62-.16-1.22-.38-1.83-.57-1.26-.38-2.5-.85-3.71-1.37-.85-.37-1.66-.81-2.44-1.27.66-1.24.79-2.71,1.28-4.02.57-1.52,1.63-2.83,2.83-3.9,2.77-2.47,6.42-3.45,9.58-5.3,2.91-1.71,5.5-4.15,6.18-7.57.35-1.73.15-3.53-.42-5.19-.29-.83-.66-1.64-1.1-2.41-.44-.77-.99-1.48-1.44-2.24-.48-.82-.88-1.73-.62-2.69.14-.53.39-1.02.61-1.52.22-.51.43-1.03.65-1.55.44-1.05.9-2.11,1.32-3.17.22-.54.41-1.09.62-1.64.17-.45.44-1.24.61-1.84.73,1.23,1.6,2.37,2.47,3.51.95,1.25,1.91,2.48,2.86,3.72,1.88,2.45,3.75,4.9,5.44,7.49.82,1.24,1.63,2.48,2.25,3.84.58,1.28,1.02,2.62,1.34,3.98.46,1.97.73,4.14.39,6.16Z"/>
          <path class="cls-5" d="M74.45,84.77c.35.03.77.12,1.1.01.27-.09.36-.49.08-.63-.35-.18-.8-.15-1.18-.19-.22-.02-.4.2-.4.4,0,.23.19.39.4.4h0Z"/>
          <path class="cls-5" d="M76.19,82.62c.35.05.71.13,1.04,0,.24-.1.42-.44.17-.65-.28-.23-.59-.28-.94-.34-.26-.04-.56.07-.63.36-.05.24.07.59.36.63h0Z"/>
          <path class="cls-2" d="M55.11,40.52c-2.29-.13-4.5.61-6.44,1.79-1.46.88-4.14,2.6-4.03,4.55.03.56.5.89,1.04.79.88-.17,1.36-.79,1.98-1.39.7-.67,1.45-1.28,2.28-1.79,1.68-1.05,3.53-1.68,5.4-2.29.91-.3.73-1.6-.22-1.66h0Z"/>
          <path class="cls-2" d="M42.16,50.82v.03c0-.08.02-.16.03-.24-.02.13-.06.26-.08.39-.02.18-.03.37.02.54.11.41.55.64.95.54.17-.04.3-.14.43-.25.1-.08.17-.15.24-.27.09-.15.15-.33.19-.51.05-.25.03-.48-.09-.7-.13-.25-.39-.4-.66-.43-.25-.03-.47.02-.67.18-.1.06-.18.15-.23.25-.08.14-.12.29-.12.46h0Z"/>
        </g>
      </g>
      <rect class="cls-3" width="100" height="100"/>
    </g>
  </g>
</svg>