<?xml version="1.0" encoding="UTF-8"?>
<svg id="Capa_2" data-name="Capa 2" xmlns="http://www.w3.org/2000/svg" viewBox="0 0 100 100">
  <defs>
    <style>
      .cls-1 {
        fill: #fff;
      }

      .cls-2 {
        fill: none;
      }

      .cls-3 {
        fill: #4a2d2d;
      }

      .cls-4 {
        fill: #b3644c;
      }

      .cls-5 {
        fill: #fde1b7;
      }
    </style>
  </defs>
  <g id="COLOR">
    <g>
      <g>
        <g>
          <g>
            <path class="cls-4" d="M59.97,45.75c-1.39-5.96-4.78-11.03-9.8-14.55-2.8-1.96-5.92-3.43-9.17-4.46-3.47-1.1-7.25-2.05-10.92-1.91-5.27.2-9.72,3.05-13.18,6.82-1.07,1.03-2.03,2.15-2.86,3.35-3.81,5.47-6.32,12.33-5.98,19.07.32,6.33,1.57,13.1,5.68,18.1,3.89,4.73,9.42,7.59,15.45,8.39,11.78,1.58,25.61-4.31,29.79-16.01,2.07-5.78,2.37-12.84.97-18.8Z"/>
            <path class="cls-3" d="M20.04,35.61c-2.36,6.27-4.18,13.06-3.63,19.82.45,5.41,2.45,10.73,6.16,14.76,1.98,2.15,4.44,3.92,7.3,4.64.5.13.86-.63.36-.86-2.23-1.03-4.34-2.37-6.09-4.11-1.77-1.77-3.18-3.88-4.24-6.15-2.49-5.34-2.71-11.44-1.86-17.19.54-3.65,1.48-7.24,2.54-10.77.11-.36-.42-.49-.55-.15h0Z"/>
            <path class="cls-3" d="M27.44,35.93c-.59,5.06-.69,10.27-.16,15.34.46,4.47,1.51,8.89,3.47,12.95,1.06,2.18,2.35,4.4,4.22,5.98.22.18.59-.05.42-.32-1.15-1.78-2.41-3.49-3.39-5.38-.99-1.9-1.76-3.91-2.36-5.97-1.32-4.57-1.71-9.32-1.72-14.06,0-2.85.15-5.69.16-8.53,0-.42-.59-.4-.64,0h0Z"/>
            <path class="cls-3" d="M33.25,35.47c2.76,4.39,5.48,9.09,7.49,13.89.94,2.26,1.67,4.6,2.31,6.97.7,2.57,1.04,5.21,1.68,7.78.14.55,1.06.45,1.01-.14-.48-5.14-2.54-10.3-4.34-15.1-1.88-5-4.14-9.55-7.28-13.89-.37-.51-1.21-.05-.86.5h0Z"/>
            <path class="cls-3" d="M41.46,33.82c5.75,4.86,8.42,11.39,9.58,18.66.08.49.79.33.82-.11.47-7.47-3.81-14.9-9.5-19.45-.63-.5-1.53.36-.9.9h0Z"/>
            <path class="cls-3" d="M51.2,58.09c.45,0,.45-.7,0-.7s-.45.7,0,.7h0Z"/>
          </g>
          <path class="cls-1" d="M21.11,32.04s.02,0,.04,0l-.26-.04s.05.01.07.02l-.24-.1s.04.02.06.04l-.21-.16s.04.03.05.05l-.16-.21s.03.04.04.06l-.11-.25c.08.2.13.35.29.5.02.02.03.03.05.05l.21.16.25.1.28.04c.14,0,.28-.02.4-.09.09-.02.16-.07.23-.13.08-.05.14-.11.19-.19.06-.06.11-.14.13-.23.06-.12.09-.26.09-.4.03-.3-.11-.63-.32-.84-.16-.16-.34-.26-.56-.33-.13-.04-.26-.06-.4-.06-.26,0-.37.06-.61.16l-.2.15c-.1.09-.16.2-.2.32-.04.08-.07.16-.07.25-.03.13-.02.26.02.39.05.16.14.31.25.44.18.19.45.28.7.29h0Z"/>
          <path class="cls-1" d="M15.19,39.43c1.37,0,1.37-2.13,0-2.13s-1.37,2.13,0,2.13h0Z"/>
        </g>
        <g>
          <path class="cls-5" d="M90.17,55.04c-2.4-3.25-5.51-4.71-9.2-6.06-2.48-.91-4.76-2.28-6.81-3.93-1.96-1.57-4.43-5.4-7.37-4.11-.89.39-1.5,1.17-2.17,1.84-1.09,1.09-2.28,1.72-3.73,2.21-4.74,1.63-9.74,1.89-13.89,4.98-7.99,5.94-10.57,18.41-2.5,25.41,1.96,1.7,4.28,2.97,6.72,3.82,2.31.81,5.65,1.58,8.06.65.77.38,1.6.66,2.49.82,1.76.32,3.53.29,5.31.34,2.22.07,4.3.52,6.45,1.05,3.49.86,7.18,1.69,10.54-.06,3.02-1.57,5.47-4.58,7.06-7.53,3.34-6.18,3.3-13.68-.94-19.44Z"/>
          <path class="cls-3" d="M79.14,78.66c1.28-.34,2.35-1.11,3.37-1.93,1.08-.86,2.09-1.82,2.99-2.87s1.69-2.26,2.21-3.57c.47-1.16.97-2.75.56-3.99-.07-.21-.41-.17-.47.02-.19.61-.2,1.29-.34,1.92-.13.6-.32,1.19-.55,1.76-.49,1.21-1.19,2.33-2.02,3.34s-1.71,1.86-2.67,2.7c-.96.83-1.94,1.7-3.18,2.09-.32.1-.24.62.1.53h0Z"/>
          <path class="cls-3" d="M78.71,72.05c1.02-.75,1.92-1.63,2.67-2.65.36-.5.69-1.01.96-1.56s.6-1.19.59-1.79c0-.21-.3-.32-.43-.15-.34.43-.52,1.02-.76,1.51-.27.53-.58,1.05-.91,1.55-.66.99-1.49,1.88-2.42,2.63-.28.23,0,.7.31.48h0Z"/>
          <path class="cls-3" d="M58.73,79.83c.2.05.4.07.59.04.64-.1.42-.85.18-1.22-.55-.84-1.47-1.4-2.1-2.18-.7-.86-1.27-1.81-1.71-2.83-1.08-2.54-1.06-5.14-.63-7.81.6-3.77,2.17-7.29,4.3-10.44.44-.64-.6-1.47-1.09-.84-4.18,5.34-7,13.7-4.06,20.25.47,1.06,1.1,2.05,1.86,2.93.7.82,1.59,1.82,2.68,2.11Z"/>
          <path class="cls-1" d="M53.39,49.28c-1.93.09-3.56.97-5.02,2.2-1.41,1.19-3.05,3.01-3.1,4.95-.02.68.75,1.06,1.31.75,1.4-.77,2.23-2.38,3.34-3.5,1.15-1.16,2.5-1.94,3.96-2.64.85-.41.43-1.81-.48-1.77h0Z"/>
          <path class="cls-1" d="M43.72,59.86c-.17.19-.3.36-.39.61-.04.11-.07.22-.09.33-.08.41-.09.95.17,1.29.21.28.43.47.79.52s.63-.07.91-.3c.33-.27.47-.78.49-1.19.02-.37-.05-.71-.23-1.04-.31-.58-1.21-.71-1.66-.21h0Z"/>
          <path class="cls-1" d="M78.36,53.52c.82,0,.82-1.27,0-1.27s-.82,1.27,0,1.27h0Z"/>
          <path class="cls-1" d="M80.05,56.74c.15,0,.28-.03.41-.09.13-.04.25-.12.34-.22.1-.1.18-.21.22-.34.07-.13.1-.26.09-.41l-.04-.28c-.05-.18-.14-.34-.28-.47l-.22-.17c-.17-.1-.35-.15-.54-.15-.15,0-.28.03-.41.09-.13.04-.25.12-.34.22-.1.1-.18.21-.22.34-.07.13-.1.26-.09.41l.04.28c.05.18.14.34.28.47l.22.17c.17.1.35.15.54.15h0Z"/>
        </g>
      </g>
      <rect class="cls-2" width="100" height="100"/>
    </g>
  </g>
</svg>