<?xml version="1.0" encoding="UTF-8"?>
<svg id="Capa_2" data-name="Capa 2" xmlns="http://www.w3.org/2000/svg" viewBox="0 0 100 100">
  <defs>
    <style>
      .cls-1 {
        fill: #c6cb79;
      }

      .cls-2 {
        fill: none;
      }

      .cls-3 {
        fill: #4a2d2d;
      }

      .cls-4 {
        fill: #b57067;
      }

      .cls-5 {
        fill: #f7bc3b;
      }

      .cls-6 {
        fill: #fddaa7;
      }
    </style>
  </defs>
  <g id="COLOR">
    <g>
      <rect class="cls-2" width="100" height="100"/>
      <g>
        <path class="cls-1" d="M22.93,30.81s22.48-5.3,24.01-2.35-2.24,9.53-3.18,11.41c-.94,1.88-20.48,8.12-22.95,5.18s-4.12-4.59-3.06-7.65c1.06-3.06,5.18-6.59,5.18-6.59Z"/>
        <path class="cls-5" d="M46.15,33.4c-2.86,1.11-5.76,2.64-8.63,3.77-3.15,1.24-6.5,1.63-9.77,2.51-1.62.43-3.26.8-4.92,1.07-1.29.21-2.6.27-3.9.42,2.92-3.14,7.26-5.14,10.88-7.2,4.82-2.74,9.78-5.25,15.06-6.97.57-.19.66-.79.32-1.23-2.18-2.82-6.31-2.88-9.57-3.08-4.52-.27-8.73.75-12.87,2.54-3.23,1.4-6.06,3.74-7.4,7.07-1.01,2.52-1.19,6.01.21,8.51-.52.35-.71.76-.74,1.46-.01.36.33.72.7.7,2.08-.13,2.39,1.92,3.09,3.37.54,1.12,1.26,2.19,2.21,3,1.77,1.51,4.06,2.07,6.33,2.26,4.85.41,9.91-1.07,13.9-3.82,3.83-2.63,7.71-7.03,7.61-11.96-.04-1.79-.36-3.27-2.54-2.43Z"/>
        <path class="cls-3" d="M33.12,35.39c2.77-.79,6.74-1.65,8.7-3.94.33-.38.03-1.15-.54-.94-1.31.49-2.46,1.36-3.72,1.96-1.53.74-3.11,1.39-4.67,2.05-.51.21-.33,1.01.24.85h0Z"/>
        <path class="cls-3" d="M44.35,30.95l.35-.18c.15-.08.29-.17.43-.28.23-.18.26-.6.11-.83-.16-.25-.47-.4-.77-.31s-.56.24-.83.37c-.34.16-.45.67-.26.97.22.34.62.44.97.26h0Z"/>
        <path class="cls-3" d="M25.86,46.34c.19-.24.42-.45.63-.68.28-.32.63-.88.23-1.26-.35-.33-.89-.18-1.24.07-.29.2-.54.46-.77.72-.28.32-.34.84,0,1.15.3.27.87.35,1.15,0h0Z"/>
        <path class="cls-3" d="M27.77,47.91c.7-.54,1.62-1.21,1.79-2.14.09-.48-.36-.83-.8-.62-.73.34-1.25,1.11-1.86,1.63s.22,1.62.87,1.13h0Z"/>
        <path class="cls-3" d="M32.78,28.89c.28-.26.68-.62.63-1.03-.02-.14-.04-.25-.13-.36s-.18-.17-.31-.22c-.41-.15-.82.14-1.15.36-.18.12-.3.27-.37.47-.08.24,0,.5.14.69.3.38.84.4,1.19.08h0Z"/>
        <g>
          <path class="cls-4" d="M78.13,20.25c-.3-.29-.62-.55-.97-.79-2.19-1.5-4.28-.12-6.04,1.34-3.38,2.83-6.55,5.91-9.39,9.29-4.66,5.55-9.52,14.17-4.56,21.04,2.17,3.01,5.39,4.96,8.87,6.12,3.13,1.04,6.52,1.82,9.83,1.39,6.75-.89,10.03-9.01,10.76-14.93.55-4.44-.23-8.9-1.98-13-.88-2.06-1.97-4.01-3.19-5.89-1-1.54-1.98-3.28-3.34-4.58Z"/>
          <path class="cls-3" d="M72.86,25.05c-3.45,2.94-6.22,6.35-8.13,10.49-1.75,3.79-3.58,8.91-2.81,13.15.1.53.85.36.89-.12.16-2.39.15-4.66.74-7.02.56-2.23,1.42-4.2,2.51-6.23,1.91-3.56,4.45-6.9,7.43-9.64.42-.39-.2-.99-.62-.62h0Z"/>
          <path class="cls-3" d="M67.1,51.05c.05-1.07.14-2.19.29-3.25.08-.59-.72-.85-.92-.25-.39,1.19-.55,2.24-.48,3.5.04.71,1.07.71,1.11,0h0Z"/>
          <path class="cls-3" d="M69.48,42.44c.6-1.78,1.16-3.58,1.84-5.34s1.68-3.39,2.22-5.16c.12-.38-.44-.76-.71-.41-1.06,1.37-1.68,3.11-2.33,4.71-.78,1.94-1.42,3.93-1.81,5.99-.1.52.62.72.79.22h0Z"/>
          <path class="cls-3" d="M77.17,33.79c.03,2.39.09,4.78-.17,7.16-.28,2.56-1.04,5-1.63,7.49-.08.34.42.59.59.25,2.24-4.38,3-10.2,2.31-15.05-.09-.63-1.11-.47-1.1.15h0Z"/>
          <path class="cls-3" d="M74.4,50.88c-.06.25-.14.51-.17.77-.04.29.03.51.13.77.11.27.4.36.63.17s.38-.35.49-.63c.09-.23.14-.48.19-.72.09-.35-.11-.72-.46-.82s-.73.11-.82.46h0Z"/>
          <path class="cls-3" d="M78.48,29.93c-.09-.66.05-1.46-.44-1.99-.23-.25-.65-.17-.81.1-.37.6-.07,1.41-.03,2.06.06.93,1.41.78,1.28-.17h0Z"/>
        </g>
        <g>
          <path class="cls-6" d="M60.24,57.64c-4.48-2.87-9.88-4.19-15.16-4.41-3.23-.13-6.62.17-9.65,1.43-2.91,1.2-6.01,3.51-7.11,6.57-.42,1.17-.52,2.44-.26,3.67.95,4.61,5.97,5.21,9.91,5.1,2.78-.08,5.96-.46,8.47.99,2.64,1.53,2.99,4.03,2.07,6.74-.68,1.99-1.53,3.95-1.26,6.1.23,1.89,1.19,3.64,2.53,4.97,2.95,2.92,7.32,3.34,11.07,1.8,4.12-1.7,6.82-5.42,8.22-9.54,3.03-8.93-1.03-18.41-8.82-23.41Z"/>
          <path class="cls-3" d="M52.95,84.28c3-3.68,5.99-9.53,2.32-13.8-.3-.34-.86.02-.75.43,1.36,4.67,0,8.66-2.53,12.62-.37.57.52,1.28.96.74h0Z"/>
          <path class="cls-3" d="M53.06,65.6c-.53-.83-1.23-1.89-2.23-2.18-.41-.12-.74.34-.54.7.44.79,1.26,1.33,1.81,2.05.42.56,1.36.06.97-.56h0Z"/>
          <path class="cls-3" d="M47.76,62.73c.34,0,.34-.53,0-.53s-.34.53,0,.53h0Z"/>
          <path class="cls-3" d="M42.93,60.85c-.47.02-.95.02-1.42.1s-.45.83,0,.91c.47.08.95.08,1.42.1.71.03.71-1.14,0-1.11h0Z"/>
          <path class="cls-3" d="M64.1,74.78c.1-.71.11-1.49-.52-1.96-.31-.24-.68.04-.8.33-.16.38-.04.87-.09,1.25s.09.78.51.9c.34.09.84-.12.9-.51h0Z"/>
        </g>
        <path class="cls-3" d="M46.82,32.89c-4.88,2.6-10.51,4.17-15.84,5.61-3.48.94-7,1.56-10.54,2.1.7-.48,1.38-.98,2.05-1.45,2.05-1.41,4.13-2.8,6.26-4.08,5.32-3.19,10.84-5.42,16.39-8.19.9-.45.58-1.51-.31-1.06-5.27,2.64-10.9,4.51-16.02,7.44-2.04,1.17-3.99,2.49-5.94,3.81-2.4,1.62-4.7,3.84-7.7,4.11-.42.04-.62.29-.6.54-.16.39.07.98.58.96,11.09-.34,23.26-3.62,32.89-9.09.83-.47-.38-1.15-1.22-.71Z"/>
      </g>
    </g>
  </g>
</svg>