<?xml version="1.0" encoding="UTF-8"?>
<svg id="Capa_2" data-name="Capa 2" xmlns="http://www.w3.org/2000/svg" viewBox="0 0 100 100">
  <defs>
    <style>
      .cls-1 {
        fill: #fff;
      }

      .cls-2 {
        fill: #d39d4d;
      }

      .cls-3 {
        fill: none;
      }

      .cls-4 {
        fill: #4a2d2d;
      }

      .cls-5 {
        fill: #b3644c;
      }

      .cls-6 {
        fill: #fde1b7;
      }

      .cls-7 {
        fill: #b9705a;
      }
    </style>
  </defs>
  <g id="COLOR">
    <g>
      <g>
        <g>
          <path class="cls-6" d="M90.99,69.37c-.68-6.16-9.39-6.16-13.8-5.07-3.14.78-6.04,2.17-8.53,4.23-2.48,2.06-4.48,4.69-5.94,7.55-1.46,2.86-2.08,6.22-4.58,8.38-1.9,1.64-2.13,4.07.54,5.17,1.5.62,3.03.26,4.58.15,1.92-.13,3.8.42,5.73.26,3.45-.28,7.21-1.71,10.27-3.31,3.16-1.66,5.6-4.33,7.75-7.13,2.19-2.85,4.39-6.49,3.98-10.24Z"/>
          <path class="cls-4" d="M61.16,86.45c1.72-.72,2.75-2.28,3.67-3.83.54-.91,1.04-1.85,1.66-2.72.67-.96,1.43-1.86,2.21-2.72,2.83-3.15,6.19-5.77,10.02-7.59,1.05-.5,2.14-.92,3.25-1.25s2.38-.49,3.51-.9c.44-.16.35-.74-.11-.79-1.04-.11-2.15.17-3.15.44s-2.03.63-3.02,1.05c-1.94.82-3.75,1.87-5.44,3.13-1.71,1.27-3.3,2.7-4.77,4.24-1.57,1.65-3.03,3.43-4.13,5.43-1.03,1.88-1.83,4.11-3.88,5.11-.22.11-.06.5.17.41h0Z"/>
          <path class="cls-4" d="M85.39,76.37s.04-.03.07-.04c-.07.03-.07.03-.02.01.02,0,.05-.01.07-.02-.08,0-.09.01-.03,0,.16,0,.33-.02.47-.1s.21-.21.23-.35c.02-.16-.03-.28-.13-.4-.17-.22-.49-.23-.74-.18-.2.04-.37.15-.53.28-.2.15-.18.49-.04.66.15.2.43.26.65.13h0Z"/>
          <path class="cls-4" d="M85.9,74.08s.05-.01.08-.02c-.09.01-.1.01-.03.01.04,0,.09,0,.14,0,.04,0,.03,0-.05,0,.06,0,.12.02.18.02.17-.02.19-.03.07,0,.02,0,.05,0,.07,0,.16,0,.31-.09.39-.22.09-.15.07-.3,0-.45-.21-.45-.71-.51-1.15-.45-.13.02-.28.15-.35.27-.07.12-.1.31-.06.45.1.31.4.48.71.4h0Z"/>
          <path class="cls-1" d="M77.59,65.5c-2.31.2-5.13,1.51-6.25,3.64-.27.5.26.99.75.75,1-.49,1.87-1.2,2.83-1.75s1.99-.97,3-1.43c.57-.27.3-1.26-.33-1.21h0Z"/>
          <path class="cls-1" d="M68.52,71.71c-.2.21-.36.42-.48.68-.1.21-.1.47.08.64s.42.19.64.08c.25-.13.47-.29.67-.49.24-.24.26-.68,0-.92s-.67-.26-.92,0h0Z"/>
        </g>
        <g>
          <path class="cls-7" d="M88.17,50.63c-1.67-1.43-2.71-2.45-3.53-4.56-.66-1.69-.97-3.5-1.95-5.06-1.01-1.62-2.46-2.9-4.12-3.82-2.71-1.5-5.76-2.14-8.82-2.35-3.13-.21-6.31-.22-9.39.39-3.28.65-7.13,2.08-9.42,4.64-2.44,2.73-.38,5.72,1.56,8.06,2.35,2.85,5.32,5.24,8.56,7.01,3.28,1.8,6.83,3.16,10.47,4.01,3.88.91,7.31.94,10.57-1.56.7-.53,1.35-1.17,2.14-1.58.86-.46,1.56-.41,2.47-.48,1.25-.1,2.08-.54,2.42-1.81.33-1.22-.03-2.12-.95-2.91Z"/>
          <path class="cls-4" d="M53.49,42.7c1.09-.11,2.17-.34,3.26-.49s2.24-.27,3.37-.33c2.07-.11,4.12,0,6.15.41,3.73.76,7.26,2.21,10.55,4.12.93.54,1.84,1.12,2.72,1.72s1.71,1.27,2.64,1.81c.37.22.71-.27.44-.58-.65-.75-1.43-1.35-2.22-1.95s-1.58-1.14-2.4-1.66c-1.67-1.04-3.43-1.92-5.25-2.66-3.74-1.5-7.72-2.08-11.74-1.95-1.28.04-2.55.16-3.81.33s-2.55.33-3.77.67c-.3.08-.25.59.07.55h0Z"/>
          <path class="cls-4" d="M76.76,57.3c.3,0,.6.01.9,0,.21-.01.48-.16.51-.39.02-.11.02-.18,0-.28-.04-.24-.3-.38-.51-.39-.3-.02-.6,0-.9,0s-.54.25-.54.54.25.54.54.54h0Z"/>
          <path class="cls-4" d="M78.24,55.33c.11-.04.21-.07.31-.12.13-.05.23-.12.34-.2.25-.2.11-.67-.19-.73-.12-.02-.24-.03-.36-.02s-.26.04-.38.06-.25.14-.31.24c-.07.11-.09.28-.05.4.08.26.37.46.64.37h0Z"/>
          <path class="cls-1" d="M57.17,39.28c.21-.05.42-.17.59-.3.22-.17.45-.36.51-.65.05-.24-.03-.56-.27-.67-.52-.25-1.16-.02-1.58.33-.25.21-.29.67-.12.94.19.3.53.43.87.36h0Z"/>
          <path class="cls-1" d="M61.47,38.56c.07-.06.14-.12.22-.17.1-.08.18-.18.25-.29.11-.16.09-.39,0-.55-.1-.17-.28-.26-.47-.27-.23-.01-.45.06-.67.12-.44.11-.64.64-.42,1.02.09.15.25.27.42.32.12.03.25.03.37,0,.12-.03.22-.09.31-.18h0Z"/>
        </g>
        <g>
          <path class="cls-2" d="M51.31,62.84c-1.78-3.06-4.52-5.26-7.27-7.4-2.72-2.12-6.86-4.96-6.81-8.84.03-1.97,1.33-3.69,2.21-5.38.86-1.66,1.62-3.39,2.12-5.2,2.28-8.16-2.31-15.07-8.62-19.82-3.24-2.44-6.89-4.97-10.64-6.55-7.99-3.37-13.51,5.79-13.63,12.8-.15,8.21,4.53,15.38,6.71,23.05,1.28,4.5,1.15,8.59.13,13.13-.87,3.85-1.6,7.78-1.26,11.75.6,7.01,4.78,12.93,10.61,16.72,5.31,3.45,13.94,7.22,19.8,3.1,5.29-3.72,8.8-10.99,9.05-17.36.14-3.46-.64-7-2.38-10Z"/>
          <path class="cls-5" d="M21.98,17.54c-.31-.84-.93-1.49-1.77-1.82-.44-.17-1.09-.26-1.45.14-.62.7-.25,2.38.27,3.02.5.63,1.47,1.09,2.28.86.93-.27.94-1.46.67-2.2Z"/>
          <path class="cls-5" d="M18.19,30.59c-.5-.46-1.14-.85-1.83-.93-2.01-.24-1.95,2.55-1.4,3.8.45,1.02,1.33,1.8,2.37,2.17.53.19,1.14.29,1.57-.17.39-.41.52-1.05.57-1.6.12-1.21-.38-2.46-1.28-3.28Z"/>
          <path class="cls-5" d="M26.14,27.72c-.29-.21-.68-.33-1.04-.29-.21.02-.39.07-.57.2-.65.46-.54,1.72-.22,2.33.31.58.95,1.05,1.62,1.05.37,0,.7-.19.88-.52.16-.28.21-.63.19-.95-.03-.7-.29-1.4-.87-1.82Z"/>
          <path class="cls-5" d="M33.23,23.87c-.12-.82-.61-1.65-1.33-2.09-.4-.24-.88-.38-1.35-.33-.52.06-.84.32-.97.83-.11.42-.21.86-.19,1.3.02.48.12.98.37,1.41.45.78,1.32,1.27,2.22,1.06.4-.1.76-.34,1-.68.3-.44.32-.99.24-1.5Z"/>
          <path class="cls-5" d="M35.56,34.09c-.51-1.01-1.64-2.13-2.88-1.79-1.1.31-1.47,1.35-1.36,2.39.01.13.03.26.05.39.12.81.22,1.52.86,2.1.85.78,2.2.95,3.04.06.81-.86.8-2.14.29-3.15Z"/>
          <path class="cls-5" d="M23.63,43.41c-.11-.73-.32-1.66-1.11-1.93-.65-.21-1.34.15-1.71.69-.3.45-.25.94-.15,1.44s.1,1.11.37,1.54c.41.64,1.21.91,1.87.47.34-.22.58-.55.71-.92.14-.42.08-.86.02-1.29Z"/>
          <path class="cls-5" d="M30.34,46.98c-.24-.46-.59-.85-1.09-1.04-.89-.34-1.88.19-2.15,1.09-.28.94-.41,2.1-.13,3.05.26.88,1.07,1.98,2.13,1.66.44-.13.77-.54,1.01-.91.25-.37.43-.81.53-1.25.2-.87.1-1.8-.32-2.6Z"/>
          <path class="cls-5" d="M39.29,58.76c-.34-.66-.73-1.31-1.13-1.94-.3-.48-.65-1.27-1.3-1.33-.93-.08-1.18,1.12-1.27,1.81-.16,1.23-.03,2.5.53,3.62.48.97,1.83,2.27,2.99,1.51.53-.35.65-1.05.68-1.63.04-.74-.16-1.4-.5-2.05Z"/>
          <path class="cls-5" d="M32.56,63.91c-.17-.45-.43-.89-.81-1.18-.37-.28-.86-.36-1.31-.23-1.79.53-1.31,3.09-.36,4.14.29.31.68.58,1.11.64.54.09.99-.19,1.24-.66.43-.82.46-1.86.13-2.71Z"/>
          <path class="cls-5" d="M24.15,70.97c-.2-.49-.45-1.02-.89-1.34-.43-.31-1-.32-1.41.03-.73.61-.55,1.92-.44,2.76.1.78.4,1.49.88,2.1.31.38.78.71,1.29.55.44-.13.7-.55.82-.97.29-.99.13-2.18-.25-3.13Z"/>
          <path class="cls-5" d="M23.92,57.91c-.09-.72-.37-1.77-1.12-2.06-1.74-.68-1.48,2.98-1.24,3.72.13.39.32.92.73,1.09.44.18.89-.07,1.15-.43.45-.63.58-1.56.49-2.31Z"/>
          <path class="cls-5" d="M31.33,81.5c-.23-.26-.55-.47-.86-.63-.36-.18-.76-.3-1.16-.21-.75.17-.99,1.01-.84,1.69.16.7.68,1.48,1.32,1.83.3.16.64.26.98.23.43-.03.72-.28.86-.69.26-.74.24-1.61-.3-2.21Z"/>
          <g>
            <path class="cls-5" d="M39.66,71.41s0,0,0,0c0,0,0,0,0,0,0,0,.05-.02.01-.01Z"/>
            <polygon class="cls-5" points="39.65 71.41 39.64 71.41 39.64 71.41 39.65 71.41 39.65 71.41"/>
            <path class="cls-5" d="M40.23,70.87c-.42-.3-1.11-.21-1.32.3-.08.2-.08.43-.06.65.03.37.06.74.19,1.09.09.25.19.51.38.69.21.19.5.26.76.14.48-.23.51-.91.55-1.37.05-.55,0-1.16-.49-1.5ZM39.76,71.4s.01,0,0,0h0Z"/>
          </g>
          <path class="cls-5" d="M35.86,76.3c-.19-1.33-.81-2.59-1.88-3.42-.55-.42-1.33-.85-2.05-.67-2.09.53.1,3.69.59,4.65.35.68.57,1.4.89,2.08.24.52.75,1.05,1.38.89.6-.16.9-.84,1.03-1.39.16-.7.14-1.44.04-2.14Z"/>
          <path class="cls-5" d="M45.54,64.56c-.16-.76-.47-1.71-1.36-1.87-.51-.09-1.05.19-1.33.63-.72,1.12.04,2.89,1.06,3.57.36.24.83.28,1.21.06.37-.21.5-.62.53-1.02.04-.46-.02-.93-.12-1.38Z"/>
          <path class="cls-5" d="M48.7,71.81c-.14-.52-.38-1.04-.87-1.32-.5-.29-1.08-.19-1.5.19-.47.43-.63,1.09-.66,1.7-.04.69.08,1.38.12,2.07.03.48.08,1.01.37,1.42.68.99,1.84-.04,2.26-.74.59-1,.57-2.22.29-3.31Z"/>
          <path class="cls-5" d="M42.86,80.94c-.26-.44-.61-.89-1.12-1.06-.52-.17-1.08.03-1.46.4-1.35,1.32-.57,3.98.71,5.05.36.3,1,.85,1.5.55.23-.14.43-.41.6-.61.19-.23.36-.47.48-.73.55-1.21-.07-2.55-.7-3.6ZM42.14,85.22s.06.05,0,0h0ZM42.11,85.25s.02-.03.03-.03c0,.01-.02.02-.03.03Z"/>
          <path class="cls-4" d="M32.7,49.3c.64-.04,1.28,0,1.85-.33.35-.21.25-.69-.11-.82-.58-.21-1.15-.06-1.74.02-.3.04-.56.23-.56.56,0,.29.26.58.56.56h0Z"/>
          <path class="cls-4" d="M33.02,52.96c.56-.07,1.14-.1,1.67-.34.32-.15.24-.69-.1-.76-.52-.11-1.05-.03-1.57.03-.29.03-.54.23-.54.54,0,.26.25.57.54.54h0Z"/>
          <path class="cls-4" d="M24.28,82.27c.54.05,1.43-.21,1.44-.87,0-.27-.22-.45-.47-.47-.13-.01-.25.03-.36.1-.06.03-.15.08-.22.1-.14.05-.23.06-.39.05-.29-.02-.55.27-.55.55,0,.32.25.52.55.55h0Z"/>
          <path class="cls-4" d="M26.38,84.9c.74,0,.75-1.16,0-1.16s-.75,1.16,0,1.16h0Z"/>
          <path class="cls-4" d="M39.33,88.8c.17,0,.33,0,.5,0,.24-.02.51-.02.67-.23.19-.23.19-.48,0-.72-.16-.2-.43-.21-.67-.23-.17-.02-.33,0-.5,0-.31,0-.61.27-.6.6s.26.6.6.6h0Z"/>
          <path class="cls-4" d="M13.11,25.66c.35,0,.87.09,1.17-.12.34-.25.34-.68,0-.93-.29-.21-.82-.13-1.17-.12-.31,0-.6.27-.59.59s.26.59.59.59h0Z"/>
          <path class="cls-4" d="M17.16,40.65c.13,0,.27,0,.4-.01.09,0,.18-.02.27-.05.1-.04.18-.1.26-.16.16-.13.16-.44,0-.57-.08-.07-.16-.13-.26-.16-.09-.03-.18-.05-.27-.05-.13-.01-.27-.01-.4-.01-.27,0-.53.24-.52.52s.23.53.52.52h0Z"/>
          <path class="cls-4" d="M37.86,66.54s.05-.02.07-.02c.08-.03-.01.02-.03,0,0,0,.2,0,.12,0-.07,0,0,0,.02,0,.02,0,.05.01.07.02.05.01.1.03.15.04.29.09.63-.22.52-.52-.18-.47-.72-.69-1.19-.52-.25.09-.45.35-.36.63.08.25.36.46.63.36h0Z"/>
          <path class="cls-4" d="M47.88,81.23l.16-.05s.05-.01.07-.02c.12-.04.19-.11.26-.21s.08-.31,0-.41-.14-.16-.26-.21c-.02,0-.05-.01-.07-.02l-.16-.05c-.31-.09-.63.16-.63.48s.32.57.63.48h0Z"/>
          <path class="cls-4" d="M19.75,65.57c.2,0,.38-.08.52-.21.08-.08.13-.16.16-.26s.03-.2,0-.3c-.03-.13-.15-.24-.27-.27-.14-.04-.28,0-.38.1,0,0-.01.01-.02.02l.08-.06s-.06.04-.09.05l.11-.04s-.04.01-.06.02l.12-.02s-.04,0-.06,0l.13.02s-.04,0-.06-.02l.12.05s-.03-.01-.04-.02c-.28-.19-.67,0-.76.31-.09.32.16.65.5.65h0Z"/>
          <path class="cls-4" d="M28.81,41.64c.45,0,1.55.17,1.55-.54s-1.1-.55-1.55-.54c-.69.01-.69,1.06,0,1.07h0Z"/>
          <path class="cls-4" d="M36.26,30.23c.29,0,.6.03.9,0,.25-.03.55-.17.59-.45.02-.13.02-.2,0-.33-.04-.29-.35-.42-.59-.45-.29-.03-.6,0-.9,0-.33,0-.64.29-.63.63s.27.63.63.63h0Z"/>
          <path class="cls-4" d="M15.08,29.83c-1.26,2.12-.44,5.45,2.23,6.01.4.08.7-.49.29-.69-1.96-.99-3.07-2.78-1.86-4.93.24-.43-.41-.81-.66-.39h0Z"/>
          <path class="cls-4" d="M18.46,15.49c-.75,1.91.53,4.33,2.47,4.95.4.13.69-.41.4-.69-.55-.54-1.23-.9-1.67-1.56-.5-.75-.65-1.61-.36-2.46.19-.54-.65-.75-.85-.23h0Z"/>
          <path class="cls-4" d="M32.49,31.9c-.78.83-1.19,1.91-1.15,3.05.04.98.41,2.31,1.36,2.77.37.18.72-.18.55-.55-.36-.77-.87-1.31-.93-2.22-.06-.89.22-1.74.82-2.4.4-.44-.25-1.09-.66-.66h0Z"/>
          <path class="cls-4" d="M28.42,45.58c-1.1.79-1.61,1.88-1.65,3.25-.04,1.2.48,2.82,1.93,2.8.37,0,.58-.57.2-.74-1.85-.85-1.5-3.64-.12-4.85.25-.22-.08-.66-.36-.47h0Z"/>
          <path class="cls-4" d="M30.08,62.28c-.92.73-1.2,2.02-.84,3.13.31.95,1.28,2.13,2.38,2.01.31-.03.58-.44.29-.69-.6-.52-1.31-.73-1.63-1.55-.33-.86-.05-1.68.39-2.44.23-.39-.27-.71-.59-.45h0Z"/>
          <path class="cls-4" d="M22.99,69.2c-1.51-.5-1.85,1.78-1.75,2.78.15,1.44.95,2.95,2.33,3.53.39.16.61-.39.38-.65-.64-.7-1.25-1.32-1.52-2.27-.25-.87-.33-2.2.65-2.63.35-.16.21-.66-.1-.76h0Z"/>
          <path class="cls-4" d="M47.14,70c-1.58.37-1.85,2.21-1.8,3.57.04,1.2.2,2.9,1.69,3.04.39.04.6-.52.32-.78-.81-.73-.87-1.4-.88-2.47-.02-1.16.23-1.87,1.12-2.59.38-.31-.04-.87-.45-.77h0Z"/>
          <path class="cls-4" d="M41.22,79.8c-1.52,0-1.91,1.88-1.7,3.09.25,1.46,1.44,3.11,3,3.3.42.05.66-.56.29-.79-.94-.57-1.75-1-2.18-2.08-.46-1.15-.11-2.13.79-2.9.22-.19.12-.63-.2-.63h0Z"/>
          <path class="cls-4" d="M21.41,49.98c-.51.03-1.32.3-1.26.96.02.24.18.4.42.42.09,0,.19-.01.28-.03.06-.01.12-.04.18-.07.03-.01.03-.02,0,0-.06.03-.03.01.12-.05.04-.02.06-.03,0,0,.03-.01.07-.02.1-.03.04-.01.09-.02.13-.03.09-.02-.13,0,.03,0,.3-.02.59-.25.57-.57-.01-.29-.25-.6-.57-.57h0Z"/>
        </g>
      </g>
      <rect class="cls-3" width="100" height="100"/>
    </g>
  </g>
</svg>