<?xml version="1.0" encoding="UTF-8"?>
<svg id="Capa_2" data-name="Capa 2" xmlns="http://www.w3.org/2000/svg" viewBox="0 0 100 100">
  <defs>
    <style>
      .cls-1 {
        fill: #fff;
      }

      .cls-2 {
        fill: none;
      }

      .cls-3 {
        fill: #a65247;
      }

      .cls-4 {
        fill: #4a2d2d;
      }

      .cls-5 {
        fill: #bb735e;
      }
    </style>
  </defs>
  <g id="COLOR">
    <g>
      <g>
        <g>
          <g>
            <path class="cls-3" d="M44.24,39.81c-1.41-5.86-3.86-11.09-8.5-15.1-2.53-2.18-5.53-3.15-8.32-4.87-2.14-1.32-3.7-4.28-6.51-3.9-.85.12-1.05,3.34-1.38,4.07-.92,2.09-2.37,3.88-4.06,5.41-2.35,2.13-4.95,4.02-6.94,6.51-3.65,4.57-4.49,10.74-4.23,16.42.32,7.13,1.65,14.27,3.61,21.12,1.54,5.4,3.2,11.94,7.39,15.98,4.43,4.28,12.09,3.92,18.1,2.52,4.6-1.07,8.38-4.79,9.84-8.98,2.09-6,2.91-12.79,3.11-19.11.22-6.76-.53-13.53-2.11-20.1Z"/>
            <path class="cls-4" d="M21.55,24.38c-.81,3.51-3.43,6.1-5.35,9.01-2.03,3.09-3.1,6.65-3.6,10.29-1.08,8,.26,16.18,1.91,24.01.48,2.28.99,4.55,1.56,6.8.52,2.08,1.16,4.13,2.45,5.88.23.31.69.05.52-.3-.83-1.7-1.36-3.55-1.8-5.38-.46-1.95-.87-3.91-1.29-5.86-.88-4.06-1.67-8.16-2.13-12.29-.83-7.38-.97-15.32,2.78-21.99,1.87-3.32,4.81-6.13,5.66-9.96.1-.46-.6-.65-.71-.19h0Z"/>
            <path class="cls-4" d="M18.4,55c.41,3.91.98,7.79,1.81,11.63.82,3.78,1.77,7.59,3.34,11.14.74,1.66,1.73,3.7,3.39,4.62.25.14.63-.16.43-.43-.51-.67-1.08-1.29-1.55-1.99-.47-.69-.87-1.42-1.23-2.17-.8-1.68-1.47-3.44-2.07-5.2-1.23-3.64-2.04-7.39-2.67-11.18-.36-2.15-.69-4.32-1.02-6.48-.04-.23-.44-.18-.42.06h0Z"/>
            <path class="cls-4" d="M35.47,81.27c1.95-2.74,2.83-5.99,3.31-9.27.55-3.73.75-7.53.57-11.3-.18-3.78-.71-7.57-1.4-11.29-.58-3.17-1.41-6.34-2.65-9.33-.67-1.61-1.41-3.18-2.3-4.67-.45-.74-.92-1.47-1.48-2.12s-1.14-1.33-1.84-1.85c-.1-.08-.24.07-.17.17.43.62.93,1.18,1.35,1.81.42.63.85,1.25,1.25,1.89.83,1.33,1.54,2.74,2.12,4.19,1.13,2.87,1.88,5.91,2.5,8.92.74,3.61,1.45,7.2,1.68,10.89.23,3.68.15,7.37-.27,11.03-.42,3.66-1.17,7.47-3.21,10.6-.22.34.31.64.54.32h0Z"/>
            <path class="cls-4" d="M24.6,29.23c-.57,2.82-.9,5.67-1.06,8.55-.16,2.89-.33,5.82-.22,8.72.11,2.9.41,5.78.84,8.64.42,2.85.95,5.76,1.77,8.53.46,1.56.93,3.12,1.38,4.68.44,1.54.91,3.06,1.61,4.5.12.24.49.07.43-.18-.72-2.78-1.93-5.43-2.47-8.27s-1.17-5.64-1.58-8.5c-.4-2.84-.68-5.68-.85-8.54-.17-2.84-.35-5.69-.23-8.54.13-3.19.43-6.37.77-9.54.02-.22-.34-.26-.38-.05h0Z"/>
            <path class="cls-4" d="M33.12,70.69c.27-1.83.33-3.73-.15-5.53-.05-.17-.33-.14-.31.04.13,1.81.25,3.62.03,5.43-.03.24.4.3.43.06h0Z"/>
            <path class="cls-4" d="M41.48,71.02c.26-.01.56,0,.78-.16.21-.15.35-.34.35-.61s-.14-.46-.35-.61c-.22-.16-.52-.14-.78-.16-.4-.02-.78.36-.76.76s.34.78.76.76h0Z"/>
            <path class="cls-4" d="M41.99,67.59c.24,0,.47,0,.71-.02.09-.01.18-.02.26-.04.24-.06.38-.22.52-.41.15-.2.15-.58,0-.78-.14-.19-.28-.35-.52-.41-.08-.02-.18-.03-.26-.04-.24-.03-.47-.03-.71-.02-.45,0-.89.39-.87.87.02.48.38.86.87.87h0Z"/>
            <path class="cls-4" d="M10.58,66.11c.12,0,.26,0,.37-.04.16-.04.27-.14.39-.23.1-.08.16-.26.16-.38,0-.13-.05-.3-.16-.38-.12-.09-.23-.19-.39-.23-.12-.03-.25-.03-.37-.04-.16-.01-.35.08-.46.19s-.2.3-.19.46.06.34.19.46.29.2.46.19h0Z"/>
          </g>
          <path class="cls-1" d="M10.84,38.42c.24,0,.46-.02.71-.06l.29-.12c.14-.08.25-.18.33-.31.16-.2.27-.46.26-.72,0-.21-.06-.41-.16-.6-.08-.14-.18-.25-.31-.33-.12-.11-.25-.18-.41-.21-.24-.04-.47-.05-.71-.06-.3-.01-.65.14-.86.36s-.37.56-.36.86.12.64.36.86.53.37.86.36h0Z"/>
          <path class="cls-1" d="M13.67,34.4c.21-.11.4-.23.56-.42.11-.13.22-.25.28-.41.1-.24.11-.49,0-.73-.08-.2-.22-.34-.4-.45s-.4-.12-.61-.14c-.24-.02-.47.03-.7.09-.65.18-.99.9-.73,1.52.27.63,1,.86,1.6.54h0Z"/>
        </g>
        <g>
          <g>
            <path class="cls-5" d="M95.31,44.56c1.94-3.89,1.04-7.86-2.29-10.65-2.9-2.43-7.3-2.22-10.61-.74-.4.18-.77.38-1.09.59-1.55-1.32-1.32-3.05-2.13-5.03-.51-1.23-1.6-2.39-3-2.52-1.23-.12-2.29.67-2.94,1.64-.77,1.14-1.02,2.61-1.92,3.66-.79.92-2.71,1.05-3.82.73-.51-.15-1.02-.57-1.43-.88-1.12-.86-2.18-2.06-3.61-2.39-3.34-.78-5.97,3.93-6.75,6.52-.52,1.73-.68,3.64-.47,5.43.17,1.5.41,2.6-.37,4-.61,1.09-1.34,2.05-1.88,3.19-1.95,4.1-2.01,8.47-.55,12.72.86,2.5,1.35,4.81,1.12,7.47-.22,2.53-.83,5.01-.97,7.54-.22,4.02.85,8.68,4.95,10.35,1.88.77,4.27,1.29,6.25.59,1.46-.52,2.65-2.52,4.17-2.33.91.12,2.04,2.37,3.86,3.48,1.52.93,3.42,1.06,5.18.83,3.66-.49,6.39-3.12,7.73-6.47.72-1.8,1.05-3.72,1.04-5.66,0-1.02-.17-2.05-.06-3.07.16-1.49.99-2.63,1.95-3.72,1.37-1.54,2.79-2.93,3.63-4.86.87-1.99,1.14-4.2,1.03-6.36-.12-2.29-.72-4.61-.51-6.92.25-2.72,2.33-4.79,3.5-7.13Z"/>
            <path class="cls-4" d="M62.29,51.82c-.7-.08-1.43-.14-2.14-.1-.37.02-.73.07-1.09.14-.18.04-.35.07-.53.13s-.37.1-.48.24-.12.35.06.45.34.07.53.07.36-.02.54-.03c.34-.02.67-.04,1.01-.06.7-.04,1.4-.07,2.1-.03.22.01.41-.2.41-.41,0-.24-.19-.39-.41-.41h0Z"/>
            <path class="cls-4" d="M60.45,68.26c-.48.29-.97.54-1.48.77s-1.04.41-1.48.73c-.23.17-.18.59.16.58.6-.01,1.19-.27,1.72-.53s1.01-.55,1.49-.86c.18-.12.26-.35.14-.55s-.36-.25-.55-.14h0Z"/>
            <path class="cls-4" d="M81.97,63.98c.79-.05,1.57-.07,2.36-.07s1.61.09,2.31-.25c.17-.08.15-.35,0-.44-.68-.39-1.56-.32-2.31-.28s-1.57.1-2.36.18c-.23.02-.43.18-.43.43,0,.22.2.44.43.43h0Z"/>
            <path class="cls-4" d="M84.74,52.75c.6-.02,1.2,0,1.8.05.29.02.57.06.86.07.24,0,.71-.05.72-.38s-.41-.46-.66-.5c-.31-.06-.61-.07-.92-.08-.6-.02-1.2,0-1.8.05-.21.02-.4.17-.4.4,0,.21.18.4.4.4h0Z"/>
            <path class="cls-4" d="M73.27,39.96c.76-.26,1.55-.4,2.36-.41.39,0,.79.02,1.18.07s.83.15,1.23.02c.21-.07.27-.32.13-.48-.31-.35-.78-.44-1.23-.49s-.87-.08-1.3-.06c-.88.03-1.76.19-2.6.49-.53.19-.31,1.04.24.86h0Z"/>
            <path class="cls-4" d="M73.48,43.45c.51-.08,1.03-.1,1.55-.09.27,0,.53.04.79.06s.56.07.81,0c.26-.09.28-.39.07-.55-.23-.17-.6-.2-.88-.23s-.55-.02-.82-.01c-.57.02-1.14.09-1.69.21-.17.04-.27.23-.22.39.05.18.22.25.39.22h0Z"/>
            <path class="cls-4" d="M73.64,46.47c.52-.03,1.04-.02,1.55.04.23.03.47.07.7.1.26.04.59.14.85.03.19-.08.27-.29.12-.46-.18-.21-.51-.27-.77-.31-.29-.05-.58-.07-.87-.08-.56-.02-1.11.02-1.66.09-.33.04-.25.59.08.57h0Z"/>
            <path class="cls-4" d="M70.48,69.21c.09.01.86.14.95.16.02,0,.04,0,.06,0,.02,0,.04-.01.06-.03l.03-.03s.02-.04.02-.06c0-.01,0-.03,0-.04,0-.02,0-.04-.01-.06l-.02-.03s-.04-.04-.07-.05c-.08-.04-.85-.2-.93-.25-.03-.01-.07-.02-.11,0l-.05.02s-.06.04-.08.07c-.02.02-.03.05-.03.07,0,.03,0,.05,0,.08,0,.03.01.05.03.08.01.02.03.04.05.06.03.02.06.03.1.04h0Z"/>
            <g>
              <path class="cls-4" d="M63.47,36.12c1.57,4.51.93,9.24.2,13.86-.13-.1-.26-.19-.35-.25-.29-.2-.63-.44-.88-.63-.32-.24-.61-.51-.93-.75-.28-.21-.62-.53-.99-.64-.24-.08-.49.17-.42.42.13.41.46.73.76,1.02.3.3.66.56,1,.81.32.23.64.46.98.67.15.1.43.24.69.29-.09.54-.17,1.08-.25,1.61-.88,5.8-1.66,11.61-2.29,17.44-.17,1.62-.33,3.24-.49,4.86-.08.81-.16,1.62-.23,2.43-.06.8-.14,1.71.1,2.49.05.16.29.21.38.05.32-.62.39-1.34.5-2.03.12-.72.16-1.46.23-2.19.15-1.5.3-2.99.47-4.48.32-2.99.65-5.97,1.01-8.96.36-2.98.68-5.96,1.06-8.94.36-2.81.82-5.62,1.01-8.46.2-2.98.06-6.02-1.14-8.79-.1-.23-.48-.07-.4.17Z"/>
              <path class="cls-4" d="M88.24,39.98c.24-.37-.33-.69-.59-.34-1.49,2.06-2.5,4.39-3.12,6.85-.62,2.46-.99,4.98-1.42,7.48-.45,2.59-1.1,5.11-2.02,7.57-.52,1.4-1.07,2.79-1.44,4.23-.35,1.38-.53,2.81-.7,4.22-.21,1.74-.4,3.49-.59,5.23-.19,1.73-.48,3.5-.48,5.24,0,.32.49.4.56.08.34-1.49.45-3.05.62-4.57.17-1.5.34-3,.51-4.5.16-1.48.28-2.98.55-4.45.27-1.48.73-2.9,1.24-4.31.46-1.29.93-2.57,1.29-3.89.33-1.2.58-2.42.85-3.63.32-1.43.6-2.87.91-4.3.12.12.28.18.45.13.5-.17,1.01-.34,1.51-.51.27-.09.53-.19.79-.3.12-.05.26-.09.37-.16.12-.07.22-.18.33-.27.22-.19.03-.52-.22-.53-.15,0-.3-.03-.45,0-.13.03-.26.07-.39.1-.24.06-.48.14-.72.23-.49.17-.98.34-1.48.52-.01,0-.02.01-.03.02.17-.79.35-1.58.56-2.36.7-2.7,1.59-5.42,3.1-7.79Z"/>
              <path class="cls-4" d="M83.6,67.91c-.29-.22-.61-.39-.93-.56-.64-.34-1.31-.62-2-.85-.39-.13-.67.51-.28.67.63.27,1.25.59,1.83.95.29.18.56.39.85.57.3.19.59.42.94.52.3.08.53-.24.39-.51-.17-.34-.51-.56-.8-.79Z"/>
              <path class="cls-4" d="M72.9,64.3c-.15-.08-.33-.09-.49-.12-.29-.05-.59-.08-.88-.11-.56-.06-1.12-.11-1.67-.17-.07,0-.14.02-.21.05.2-1.47.39-2.93.57-4.4.75-6.14,1.37-12.3,1.77-18.47.17-2.63.77-6.46-2-8.01-.21-.11-.36.17-.18.31,2.35,1.8,1.69,5.18,1.43,7.7-.32,2.99-.63,5.98-.95,8.96-.64,5.96-1.31,11.93-2.09,17.88-.22,1.7-.45,3.39-.7,5.09-.24,1.63-.6,3.29-.66,4.94-.01.39.58.46.68.09.41-1.49.55-3.08.78-4.61.23-1.55.45-3.09.67-4.64.2-1.37.39-2.75.57-4.12.05.05.11.09.18.11.55.1,1.1.2,1.66.3.29.05.58.1.88.14.17.02.34.06.51.02.14-.03.28-.08.4-.15.19-.11.21-.37.07-.52-.1-.1-.22-.2-.35-.26Z"/>
            </g>
            <path class="cls-4" d="M83.09,33.58c-1.3.33-2.9,1-3.39,2.35-.67,1.85-1.07,3.81-1.39,5.75s-.58,4-.93,5.99-.78,4-1.18,5.99c-.67,3.33-1.32,6.67-1.87,10.02-.39,2.36-.81,4.71-1.24,7.06-.47,2.54-.91,5.08-1.49,7.6-.11.46.58.65.71.2.26-.9.43-1.82.64-2.73.27-1.22.53-2.44.76-3.67.46-2.44.9-4.89,1.32-7.33.49-2.88.92-5.77,1.5-8.64.8-3.94,1.6-7.85,2.15-11.83.3-2.2.63-4.4,1.21-6.54.24-.88.42-1.94,1.2-2.51.69-.51,1.53-.71,2.25-1.17.28-.18.1-.63-.23-.54h0Z"/>
          </g>
          <path class="cls-1" d="M60.96,33.66l.07-.04c.24-.14.4-.41.4-.69s-.15-.55-.4-.69l-.07-.04c-.26-.15-.6-.15-.86,0s-.42.43-.42.74.16.58.42.74.6.15.86,0h0Z"/>
          <path class="cls-1" d="M59.39,35.95c.49,0,.49-.76,0-.76s-.49.76,0,.76h0Z"/>
          <path class="cls-1" d="M79.83,83.92s.08-.02.12-.03l-.25.03c.05,0,.1,0,.15,0l-.25-.03c.13.02.25.05.39.06l-.24-.03c.1.02.2.03.29.04.3.02.61-.18.76-.44.17-.29.14-.6,0-.89-.05-.1-.13-.19-.21-.27-.15-.13-.31-.22-.51-.28-.26-.07-.49-.06-.75-.01-.22.04-.46.25-.57.44-.12.2-.17.51-.1.74s.22.45.44.57.49.18.74.1h0Z"/>
          <path class="cls-1" d="M81.26,81.04s.05-.02.07-.02l-.29.04s.05,0,.08,0l-.3-.04s.05.01.07.02l-.27-.11c.06.03.12.06.18.08.18.07.24.09.46.1l-.29-.04s.02,0,.03,0c.19.05.38.05.57,0,.18-.05.34-.14.48-.28.28-.28.36-.67.28-1.05-.01-.06-.04-.12-.07-.18-.04-.14-.12-.26-.23-.36-.03-.04-.07-.08-.13-.1-.14-.11-.29-.19-.47-.23-.1-.02-.23-.04-.33-.04-.02,0-.04,0-.06,0-.28.02-.4.06-.65.18-.13.07-.23.16-.31.28-.1.11-.16.23-.2.37l-.04.29c0,.15.03.29.09.42.03.09.07.17.14.24.08.12.18.21.31.28.25.13.58.22.85.11h0Z"/>
          <path class="cls-1" d="M66.83,40.43c1.06,0,1.06-1.64,0-1.64s-1.06,1.64,0,1.64h0Z"/>
          <path class="cls-1" d="M77.68,59.53c.97,0,.97-1.51,0-1.51s-.97,1.51,0,1.51h0Z"/>
        </g>
      </g>
      <rect class="cls-2" width="100" height="100"/>
    </g>
  </g>
</svg>