<?xml version="1.0" encoding="UTF-8"?>
<svg id="Capa_2" data-name="Capa 2" xmlns="http://www.w3.org/2000/svg" viewBox="0 0 100 100">
  <defs>
    <style>
      .cls-1 {
        fill: #fff;
      }

      .cls-2 {
        fill: none;
      }

      .cls-3 {
        fill: #4a2d2d;
      }

      .cls-4 {
        fill: #fde1b7;
      }
    </style>
  </defs>
  <g id="COLOR">
    <g>
      <g>
        <g>
          <path class="cls-4" d="M32.61,19.13c-1.29-.7-2.97-.81-4.27-.21-1.09.5-1.99,1.3-2.91,2.05-5.05,4.19-9.32,9.19-12.38,15.02-1.18,2.24-2.12,5.07-.56,7.36,1.48,2.18,4.72,3.61,7.24,4.02,4.86.78,8.47-2.44,10.61-6.49,1.84-3.48,3.15-7.23,3.94-11.09.61-2.99,1.8-7.66-.81-10.06-.25-.23-.53-.43-.84-.59Z"/>
          <path class="cls-3" d="M23.25,44.96h.74c.37-.02.67-.04.97-.3.28-.24.28-.77,0-1.01-.29-.26-.6-.28-.97-.29h-.74c-.42-.02-.83.36-.81.8s.35.81.81.81h0Z"/>
          <path class="cls-3" d="M26.08,42.32l.27-.12c.22-.1.35-.38.35-.61s-.13-.51-.35-.61l-.27-.12c-.13-.08-.28-.12-.43-.12-.15,0-.3.04-.43.12-.26.15-.42.44-.42.74s.16.58.42.74c.13.08.28.12.43.12.15,0,.3-.04.43-.12h0Z"/>
          <path class="cls-1" d="M30.31,20.51c-2.14.35-3.75,1.32-5.34,2.79-1.29,1.19-3.04,2.96-2.6,4.87.12.51.69.79,1.18.67,1.58-.41,2.54-2.22,3.66-3.3,1.26-1.2,2.71-2.27,4.06-3.37.86-.7-.11-1.81-.97-1.66h0Z"/>
          <path class="cls-1" d="M20.13,31.61l-.33.36c-.09.1-.15.22-.15.36,0,.13.06.28.15.36.21.2.51.19.73,0l.36-.33c.21-.19.21-.57,0-.76-.1-.09-.24-.16-.38-.16s-.28.05-.38.16h0Z"/>
        </g>
        <g>
          <path class="cls-4" d="M58.1,44.94c-2.14-2.6-4.66-5.02-7.11-7.33-1.92-1.82-4.87-3.98-7.71-3.11-2.91.9-2.94,4.29-2.92,6.81.01,1.87.18,3.77.56,5.6,1.08,5.32,2.92,11.95,7.65,15.19,4.16,2.86,9.53,1.54,11.94-2.88,2.61-4.79.86-10.32-2.4-14.29Z"/>
          <path class="cls-3" d="M56.3,59.82c.61.01,1.36.15,1.75-.45.12-.18.12-.46,0-.64-.38-.6-1.13-.46-1.75-.45-.4,0-.79.35-.77.77s.34.76.77.77h0Z"/>
          <path class="cls-3" d="M57.5,57.47c.28,0,.57,0,.84-.06.32-.08.59-.42.58-.76s-.23-.67-.58-.76c-.27-.07-.57-.05-.84-.06-.43-.01-.84.39-.82.82s.36.83.82.82h0Z"/>
          <path class="cls-1" d="M44.2,36.33c-1.19,1.02-1.59,2.43-1.65,3.96-.07,1.76-.05,4.1,1.15,5.47.56.64,1.48.21,1.74-.46.91-2.4-1.02-5.34.4-7.7.64-1.06-.77-2.01-1.65-1.27h0Z"/>
          <path class="cls-1" d="M44.72,49.55c.05.18.11.36.21.53.06.1.12.21.21.29.14.14.31.2.48.27l.23.03c.12,0,.23-.02.34-.08.17-.07.32-.19.42-.36.05-.09.11-.19.14-.3.06-.21.02-.4-.01-.61-.02-.11-.05-.21-.09-.32-.09-.25-.22-.46-.46-.59-.21-.12-.53-.18-.77-.1s-.47.23-.59.46-.18.51-.1.77h0Z"/>
        </g>
        <g>
          <path class="cls-4" d="M82.3,21.12c-2.83-2.11-7.13-2.76-10.42-1.21s-5.14,5.15-6.06,8.44c-.82,2.93-1.37,5.94-1.69,8.97-.25,2.34-1.05,6.07.45,8.16,2.91,4.06,8.62-1.69,10.79-3.79,3.83-3.71,7.69-8.21,9.05-13.51.69-2.69.18-5.33-2.13-7.05Z"/>
          <path class="cls-3" d="M72.74,40.25c.38-.02.86.03,1.14-.27.24-.26.24-.65,0-.91-.28-.3-.76-.25-1.14-.27s-.74.35-.72.72.32.75.72.72h0Z"/>
          <path class="cls-3" d="M74.28,38.34c.24,0,.46-.02.68-.08.26-.08.48-.34.47-.62s-.19-.54-.47-.62c-.23-.07-.45-.08-.68-.08-.37,0-.72.33-.7.7s.31.71.7.7h0Z"/>
          <path class="cls-1" d="M75.28,21.35c-1.83-.26-3.49.17-4.79,1.53-1.13,1.18-2.61,3.27-2.12,4.98.19.67.92.91,1.51.61,1.14-.58,1.5-2,2.18-2.99.64-.93,1.76-1.99,2.94-2.06,1.11-.06,1.52-1.9.28-2.07h0Z"/>
          <path class="cls-1" d="M67.44,31.93l-.1.36c-.05.17-.03.36.04.52.06.15.18.3.33.38.13.07.26.1.4.11.11,0,.21-.02.31-.07.1-.03.18-.09.26-.17l.22-.29c.11-.11.18-.24.22-.39.04-.15.04-.31,0-.46-.07-.22-.2-.41-.4-.52s-.46-.15-.67-.09c-.29.08-.53.32-.61.61h0Z"/>
        </g>
        <g>
          <path class="cls-4" d="M80.39,56.86c-.38-.62-.9-1.16-1.61-1.6-2.12-1.31-4.68.28-6.5,1.41-4.61,2.84-9.23,6.96-11.76,11.82-2.2,4.24-1.83,9.99,3.1,12.06,5.1,2.14,10.01-2.24,12.81-6.04,1.91-2.6,3.17-5.42,3.92-8.54.65-2.69,1.63-6.54.04-9.12Z"/>
          <path class="cls-3" d="M69.06,78.8s.05-.03.07-.04c.06-.03.03-.02-.09.04.02,0,.13-.03.15-.04l-.13.02s.07,0,.11,0c.14,0,.27-.02.4-.08.05-.02.1-.04.15-.07-.15.07-.16.07-.02.01.11-.05.21-.1.29-.19.19-.21.28-.49.2-.77-.13-.46-.62-.75-1.08-.73-.33.02-.68.12-.95.31-.19.14-.34.3-.41.53-.06.21-.03.5.09.69.26.4.79.58,1.22.32h0Z"/>
          <path class="cls-3" d="M70.97,76.29c.14-.1.29-.21.43-.31.13-.09.23-.2.3-.35.06-.15.09-.32.04-.48-.1-.31-.37-.54-.71-.54-.17,0-.34,0-.52,0-.58,0-1.02.58-.87,1.14.06.22.22.42.41.54.26.15.65.18.91,0h0Z"/>
          <path class="cls-1" d="M75.69,56.75c-1.79.58-3.46,1.38-4.95,2.53-1.23.94-3.15,2.35-3.04,4.08.04.65.58,1.08,1.23.94,1.42-.3,2.36-1.93,3.41-2.84,1.27-1.09,2.69-1.97,4.21-2.66,1.16-.52.34-2.45-.87-2.05h0Z"/>
          <path class="cls-1" d="M66.36,65.85c-.28.22-.55.49-.61.86-.04.23-.04.46.09.67.12.18.3.36.52.4.11.02.23.04.34.05.16,0,.26-.03.39-.09.19-.08.35-.16.52-.26.52-.33.67-1.02.29-1.52-.17-.22-.39-.35-.67-.39-.14-.03-.27-.02-.41.02-.17.05-.33.14-.46.27h0Z"/>
        </g>
        <g>
          <path class="cls-4" d="M42.24,68.52c-2.1-2.63-4.76-4.56-7.55-6.38-3.23-2.11-8.59-3.8-10.9.58-1.25,2.36-.7,5.45-.36,7.96.76,5.76,2.56,11.87,7.32,15.61,4.24,3.34,9.92,2.68,13.15-1.73,3.59-4.92,1.87-11.62-1.65-16.04Z"/>
          <path class="cls-3" d="M38.03,85.03c.29.31.7.46,1.12.47.6.01,1.18-.43,1.2-1.06.01-.39-.27-.69-.62-.81-.24-.08-.52-.02-.76.02l.25-.03c-.06,0-.12,0-.18,0l.25.03s-.06-.01-.09-.02c.15.07.19.09.12.05-.18-.1.15.14.03.03-.34-.36-.99-.37-1.33,0s-.36.95,0,1.33h0Z"/>
          <path class="cls-3" d="M40.25,82.63c.07-.02.15-.03.22-.06.18-.05.32-.14.44-.29.1-.12.17-.29.16-.46,0-.14-.04-.26-.1-.38-.09-.18-.29-.31-.49-.36-.08-.02-.16-.04-.23-.06-.28-.07-.61,0-.81.21-.15.16-.24.36-.24.59,0,.21.09.44.24.59.21.21.52.29.81.21h0Z"/>
          <path class="cls-1" d="M28.05,61.51c-3.55.5-5.2,6.7-2.89,9.15.4.42,1.1.29,1.39-.18.75-1.24.34-2.67.51-4.05.18-1.42.86-2.44,1.86-3.42.7-.69-.05-1.62-.87-1.5h0Z"/>
          <path class="cls-1" d="M27.19,75.55c1.41,0,1.41-2.19,0-2.19s-1.41,2.19,0,2.19h0Z"/>
        </g>
      </g>
      <rect class="cls-2" width="100" height="100"/>
    </g>
  </g>
</svg>