<?xml version="1.0" encoding="UTF-8"?>
<svg id="Capa_2" data-name="Capa 2" xmlns="http://www.w3.org/2000/svg" viewBox="0 0 100 100">
  <defs>
    <style>
      .cls-1 {
        fill: #fff;
      }

      .cls-2 {
        fill: none;
      }

      .cls-3 {
        fill: #4a2d2d;
      }

      .cls-4 {
        fill: #fddbaa;
      }

      .cls-5 {
        fill: #c0c728;
      }
    </style>
  </defs>
  <g id="COLOR">
    <g>
      <g>
        <g>
          <g>
            <path class="cls-4" d="M22.35,50.91s11.36-.11,17.34-.74c5.97-.63,14.17-2.59,17.07-3.44,2.91-.85,6.45-2.96,6.82-3.7s.58-1.37.58-1.37c0,0,2.8,11.89-16.81,19.61-18.49,7.28-27.27-5.44-28.28-7.35-1-1.9-2.33-3.7-2.38-7.35s2.59-11.21,12.58-17.76c9.99-6.55,15.33-6.98,21.25-5.34s7.97,3.92,7.97,4.23-5.17-1.12-11.3,2.11c-6.13,3.22-18.66,11.95-20.51,13.95s-4.6,6.5-4.33,7.14Z"/>
            <path class="cls-5" d="M61.92,34.59c-.67-5.28-8.36-6.57-12.61-5.76-.36.07-.47.36-.41.64-2.19.75-6.97,2.56-10.75,5.32-5.07,3.7-11.1,8.35-13,10.89-1.9,2.54-3.81,4.86-3.07,5.29.74.42,11.21.32,20.51-.74,8.4-.95,12.91-2.44,13.7-2.72.04-.01.09-.03.13-.05,2.04-.98,3.14-3.88,3.93-5.85.87-2.17,1.86-4.66,1.56-7.03Z"/>
            <path class="cls-3" d="M25.86,49.05c5.43-3.16,10.99-6.08,16.72-8.66,2.98-1.34,5.99-2.62,9.02-3.85,1.42-.58,2.81-1.22,4.27-1.68s2.95-.64,4.46-.93c.77-.15.6-1.43-.19-1.38-2.89.19-6,1.38-8.68,2.47-2.96,1.21-5.89,2.47-8.79,3.81-5.96,2.76-11.82,5.78-17.25,9.5-.44.3-.05.99.42.72h0Z"/>
            <path class="cls-3" d="M37.98,46.07c2.05-1.19,4.16-2.27,6.28-3.34,1.05-.53,2.1-1.03,3.17-1.52.54-.25,1.09-.49,1.63-.74.49-.23,1.12-.42,1.5-.81.17-.17.05-.49-.2-.49-.55,0-1.12.33-1.62.54-.54.22-1.07.47-1.6.72-1.08.51-2.15,1.04-3.21,1.6-2.12,1.11-4.17,2.36-6.17,3.66-.23.15-.02.52.22.38h0Z"/>
            <path class="cls-3" d="M47.08,35.36c.73-.41,1.49-.77,2.27-1.09.38-.15.76-.32,1.14-.46s.79-.25,1.14-.43c.11-.05.05-.22-.06-.22-.4,0-.82.13-1.2.23-.42.11-.85.23-1.25.39-.8.32-1.57.69-2.31,1.12-.29.17-.03.62.26.45h0Z"/>
            <g>
              <path class="cls-3" d="M22.19,51.76c-.09,0-.17-.02-.24-.05-.1,0-.21,0-.32-.01l.55.06Z"/>
              <path class="cls-3" d="M61.02,39.91c-.19.52-.39,1.03-.59,1.52.68-.02,1.81-.11,2.09.14.8.7-.24,1.7-.84,2.2-1.2.99-2.8,1.5-4.26,1.97-3.68,1.17-7.47,2.03-11.27,2.67-3.91.66-7.86,1.09-11.81,1.39-3.8.29-7.63.37-11.42.71-.03-.05-.06-.1-.1-.15,0-.01.02-.02.03-.03,3.32-6.29,9.57-10.43,15.46-14.08,2.9-1.8,5.81-3.61,8.88-5.1,1.61-.78,3.27-1.46,4.98-1.96.8-.23,2.59-.97,4-.9.99.05,1.34.57.77,1.14.61.21,1.18.46,1.72.76.44-.72.37-1.73-.15-2.46-.87-1.21-2.5-1.18-3.82-.97-4.52.7-8.71,2.84-12.61,5.15-7.75,4.58-15.61,9.47-19.91,17.68-1.02-.64-2.15-1.08-3.32-.41-.91.52-1.71,1.87-.87,2.82.37.42,1.02.44,1.54.5.68.08,1.42.11,2.08-.09.34-.1.72-.35,1-.65,4.85.16,10.23-.1,14.99-.51,5.08-.43,10.14-1.16,15.08-2.41,3.46-.87,8.33-1.83,10.77-4.73,1.89-2.25.18-4.67-2.42-4.17ZM20.71,51.18c-.3.04-.65.02-.95,0-.27-.01-.54-.04-.8-.09-.05-.02-.09-.04-.13-.05.11-.15.26-.38.34-.45.22-.17.51-.25.78-.28.51-.07,1.14-.02,1.7.05-.25.37-.28.72-.94.81Z"/>
            </g>
          </g>
          <path class="cls-1" d="M20.39,44.3c.17-.66.46-1.26.33-1.96-.11-.57-.85-.81-1.32-.54-.68.4-.9,1.21-1,1.94-.08.53.13,1.14.72,1.27.54.12,1.13-.16,1.27-.72h0Z"/>
          <path class="cls-1" d="M22.17,40.41s.09-.1.13-.15c.09-.11.17-.21.23-.34.08-.18.18-.35.17-.56,0-.22-.08-.47-.25-.62s-.39-.26-.62-.25l-.23.03c-.08.03-.16.07-.24.1-.03.01-.06.03-.09.04-.19.09-.34.22-.49.36-.18.16-.29.45-.29.69s.11.53.29.69.43.3.69.29.52-.09.69-.29h0Z"/>
        </g>
        <g>
          <path class="cls-5" d="M83.37,73.79c-.59-3.75-4.75-6.42-7.69-8.31-3.61-2.33-7.8-3.77-12.07-4.23-1.71-.18-3.58-.25-5.21.39-1.81.7-3.01,2.35-4.71,3.25-3.32,1.77-7.27,1.42-10.66,2.91-3.25,1.42-3.39,5.22-1.96,8.04,1.55,3.06,4.31,5.56,7.18,7.36,6.75,4.23,15.68,4.66,23.17,2.33,3.92-1.22,7.81-3.31,10.33-6.63,1.11-1.46,1.92-3.22,1.63-5.1Z"/>
          <path class="cls-3" d="M60.14,74.45c1.24.77,2.66,1.21,4.08,1.51s2.92.41,4.39.32c1.47-.08,2.95-.31,4.37-.72s2.84-1.08,4.14-1.86c.71-.43,1.44-.88,2.21-1.18.38-.15.77-.26,1.17-.32s.8-.07,1.18-.25c.21-.1.24-.43.07-.58-.57-.5-1.39-.4-2.08-.26-.74.16-1.44.46-2.11.81-1.31.67-2.53,1.51-3.89,2.08-1.33.55-2.73,1-4.16,1.18s-2.95.18-4.41.02c-1.65-.18-3.22-.68-4.79-1.18-.25-.08-.39.28-.18.42h0Z"/>
          <path class="cls-3" d="M46.41,68.41c2.58.35,5.09,1.12,7.55,1.96.9.31,2.04.56,2.71,1.29s.26,1.7-.17,2.46c-.46.8-.94,1.68-.64,2.63.33,1.03,1.29,1.54,2.26,1.84,1.15.35,2.33.62,3.47.99,1.17.38,2.36.78,3.48,1.3.77.35,1.89.95,1.79,1.95-.06.6-.5,1.07-.98,1.4-.52.36-1.18.51-1.58,1-.11.13-.09.38.11.42.59.1,1.1-.13,1.63-.39s1.02-.62,1.39-1.09c.73-.92.95-2.17.24-3.17-.67-.93-1.76-1.38-2.79-1.79-1.31-.52-2.64-.97-3.99-1.37-.65-.19-1.31-.36-1.97-.53-.47-.12-.93-.25-1.34-.51-.81-.52-.46-1.52-.21-2.26.31-.9.73-1.84.32-2.78-.41-.93-1.4-1.39-2.3-1.7-2.87-1-5.91-1.93-8.97-1.89-.16,0-.14.21,0,.23h0Z"/>
          <path class="cls-3" d="M69.98,81.68c1.09.51,2.16-.05,2.98-.8s1.3-1.85,2.03-2.73c.79-.95,1.88-1.27,2.96-1.77.84-.39,2.03-1.08,2.17-2.08.04-.28-.38-.54-.52-.22-.2.47-.43.9-.85,1.2s-.93.46-1.44.61c-1.02.3-1.93.69-2.67,1.48-1.35,1.43-2.22,3.91-4.55,3.87-.22,0-.33.34-.12.44h0Z"/>
          <path class="cls-1" d="M61.09,65.02c.67.08,1.29.16,1.97.04.63-.11,1.39-.52,1.27-1.27s-.91-1.02-1.59-1.03-1.29.18-1.91.44c-.99.41-.82,1.69.25,1.83h0Z"/>
          <path class="cls-1" d="M67.51,65.15c.11,0,.2-.02.29-.07.09-.03.18-.08.25-.16.07-.07.13-.15.16-.25.05-.09.07-.19.07-.29l-.03-.2c-.04-.13-.1-.24-.2-.34l-.15-.12c-.12-.07-.25-.1-.39-.1-.11,0-.2.02-.29.07-.09.03-.18.08-.25.16-.07.07-.13.15-.16.25-.05.09-.07.19-.07.29l.03.2c.04.13.1.24.2.34l.15.12c.12.07.25.1.39.1h0Z"/>
          <path class="cls-1" d="M42.78,74.16c.15.06.3.14.46.18.23.05.44.06.67-.01.25-.09.44-.24.54-.49.11-.26.07-.49-.04-.75-.13-.28-.39-.46-.66-.58-.11-.07-.23-.11-.36-.11-.13-.03-.25-.02-.38.02-.22.06-.46.23-.57.44-.12.22-.18.49-.1.74.07.22.22.48.44.57h0Z"/>
        </g>
      </g>
      <rect class="cls-2" width="100" height="100"/>
    </g>
  </g>
</svg>