<?xml version="1.0" encoding="UTF-8"?>
<svg id="Capa_2" data-name="Capa 2" xmlns="http://www.w3.org/2000/svg" viewBox="0 0 100 100">
  <defs>
    <style>
      .cls-1 {
        fill: #6e5757;
      }

      .cls-2 {
        fill: none;
      }

      .cls-3 {
        fill: #4a2d2d;
      }

      .cls-4 {
        fill: #b7411b;
      }

      .cls-5 {
        fill: #968585;
      }
    </style>
  </defs>
  <g id="COLOR">
    <g>
      <g>
        <path class="cls-1" d="M43.65,25.39c-2.36-1.23-5.62.76-6.85,2.83-.72,1.21-1.07,2.7-1.05,4.1.02,1.59.55,3.45,2.34,3.68,1.94.25,3.55-.36,4.95-1.71,1.21-1.17,2.16-2.74,2.51-4.4.38-1.81-.2-3.61-1.9-4.49Z"/>
        <path class="cls-5" d="M59.61,27.29c-.25-1.47-1.22-2.84-2.32-3.8-1.45-1.27-3.87-2.14-5.72-1.22-1.09.54-2.03,1.51-2.42,2.68-.93,2.81,4.12,4.48,5.91,5.38,1.11.56,2.18.93,3.3.15,1.01-.7,1.45-2,1.25-3.19Z"/>
        <path class="cls-1" d="M58.08,12.67c-.52-1.27-1.82-1.73-3.06-2.01-2.21-.49-5.1-1.21-7.3-.34-1.9.75-2.81,2.58-1.96,4.49,1.24,2.77,6.18,4.18,8.96,3.99,2.53-.18,4.27-3.9,3.35-6.13Z"/>
        <path class="cls-5" d="M39.84,16.11c-.2-.81-.63-1.52-1.37-1.94-1.07-.61-2.49-.57-3.69-.6-1.31-.03-2.65.01-3.93.33-2.87.71-5.4,4.3-3.89,7.23,1.46,2.84,6.51,3.13,9.08,2.14,1.44-.55,2.66-1.65,3.35-3.02.56-1.1.78-2.78.45-4.14Z"/>
        <path class="cls-1" d="M72.19,20.6c-.18-1.48-1.02-2.84-2.19-3.75-1.35-1.06-4-1.78-5.57-.77-1.35.87-1.46,2.91-.78,4.24.63,1.23,1.22,1.9,1.21,3.39,0,.74-.13,1.52.18,2.23.43.97,1.52,1.4,2.54,1.36,2.94-.12,4.93-4.09,4.61-6.7Z"/>
        <path class="cls-1" d="M53.66,34.7c-2.76-.42-5.67.62-7.13,3.27-.59,1.07-.9,2.48-.29,3.61.79,1.46,2.52,1.43,3.97,1.34,1.24-.07,2.28,0,3.47.37.95.3,1.83.67,2.85.51,1.27-.2,2.27-1.18,2.67-2.39.6-1.86-.22-3.69-1.65-4.92-1.11-.96-2.48-1.56-3.89-1.78Z"/>
        <path class="cls-1" d="M29.48,29.71c-1.18-.74-2.58-1.13-3.93-.98-1.7.19-3.38,1.12-4.12,2.71-.6,1.27-.48,2.81.27,4,.91,1.44,2.6,1.8,3.84,2.83,2.33,1.94,5.25.85,6.49-1.83,1.2-2.61-.28-5.3-2.54-6.72Z"/>
        <path class="cls-1" d="M69.74,31c-1.2-1.43-3.5-.72-4.86.06-1.83,1.05-2.82,3.09-3.13,5.11-.4,2.62,1.5,4.56,4.23,3.87,2.27-.58,4.54-3.22,4.71-5.54.08-1.15-.2-2.6-.95-3.5Z"/>
        <path class="cls-4" d="M83.49,28.27c-1.54-.51-3.13-.94-4.75-1.07-.99-.09-2.07-.08-3,.32-.91.39-1.32,1.3-1.62,2.18-.35,1.01-.74,1.99-.7,3.08.04,1.14.53,2.18,1.42,2.9,2.46,2.01,6.73.31,8.82-1.46,2.21-1.88,3.29-4.8-.16-5.95Z"/>
        <path class="cls-5" d="M87.43,38.72c-1.1-1.03-2.76-1.6-4.27-1.43-.74.08-1.45.37-1.98.91-.7.72-.88,1.73-1.15,2.66-.23.77-.4,1.57-.44,2.38-.08,1.68.56,3.2,1.85,4.29,2.38,2.02,5.26,1.33,6.93-1.21,1.6-2.44,1.17-5.62-.94-7.59Z"/>
        <path class="cls-1" d="M76.43,44.88c-.48-.67-1.16-1.2-1.93-1.48-1.76-.65-3.8-.55-5.63-.34-2.74.32-4.31,2.76-2.76,5.25,1.56,2.51,5.01,3.99,7.85,3.02,1.46-.5,2.72-1.72,3.13-3.22.31-1.13,0-2.31-.67-3.23Z"/>
        <path class="cls-4" d="M86.28,56.55c-2.13-1.54-5.04-1.91-7.22-.45-2.13,1.42-5.33,5.88-3.2,8.43,2.05,2.45,7.3.63,9.4-.85,2.09-1.47,3.98-5,1.03-7.14Z"/>
        <path class="cls-1" d="M61.31,50.78c-.32-1.35-1.58-2.47-2.94-2.72-1.97-.36-3.57,1.83-4.68,3.15-1.39,1.66-2.61,3.74-2.18,5.99.67,3.48,4.46,3.27,6.74,1.51,2.3-1.77,3.75-5.04,3.05-7.93Z"/>
        <path class="cls-4" d="M46.42,45.54c-.6-.72-1.54-1.21-2.39-1.56-1.79-.74-3.9-.84-5.7-.06-2.05.88-5.05,3.75-3.72,6.24,1.24,2.33,4.7,2.14,6.86,1.62,2.08-.5,5.37-1.86,5.56-4.39.05-.74-.2-1.34-.61-1.84Z"/>
        <path class="cls-1" d="M29.78,42.62c-1.02-.4-2.25-.38-3.25-.04-1.57.53-2.91,1.81-3.57,3.31-1.09,2.47-1.24,7.58,1.66,8.96,3.11,1.48,5.3-2.66,6.16-4.97.53-1.44.95-3.06.84-4.61-.05-.71-.23-1.48-.77-1.99-.31-.29-.67-.51-1.07-.66Z"/>
        <path class="cls-5" d="M17.27,37.03c-.06-.03-.12-.05-.18-.08-.74-.3-1.54-.3-2.25.09-.65.36-1.16.94-1.58,1.54-.82,1.17-1.43,2.6-1.67,4.02-.42,2.53-.52,6.76,2.88,7.14,2.92.32,4.83-2.49,5.51-4.98.38-1.49.51-3.1.1-4.59-.38-1.38-1.52-2.55-2.82-3.14Z"/>
        <path class="cls-5" d="M45.83,57.16c-2.22-1.01-7-1.61-8.33,1.1-1.39,2.85,2.03,5.43,4.32,6.25,1.34.48,2.77.91,4.21.92,1.91.01,3.35-1.54,3.38-3.41.04-2.13-1.74-4.03-3.58-4.87Z"/>
        <path class="cls-1" d="M35.05,63.52c-.81-2.18-2.69-3.92-5.15-3.73-3.41.27-4.81,3.76-4.45,6.81.34,2.87,2.79,5.54,5.87,4.77,1.53-.38,2.83-1.54,3.56-2.92.8-1.52.75-3.35.16-4.93Z"/>
        <path class="cls-4" d="M19.6,56.11c-.6-.76-1.37-1.36-2.29-1.71-1.43-.54-2.99-.23-4.03.91-1.9,2.11-.73,6.92.38,9.16,1.23,2.46,4.55,2.76,6.23.59,1.85-2.4,1.66-6.5-.29-8.95Z"/>
        <path class="cls-1" d="M46.05,74.35c-.71-1-1.81-1.85-3.09-1.89-2.48-.08-4.15,3.14-5.12,4.97-.74,1.39-1.75,3.16-1.32,4.8.89,3.39,5.03,2.24,6.93.67,2.51-2.08,4.84-5.39,2.6-8.55Z"/>
        <path class="cls-5" d="M31.09,77.21c-1.13-1.08-2.88-1.86-3.92-2.35-1.45-.69-3.09-1.68-4.77-1.54-3.12.26-4.57,3.52-2.81,6.01,2,2.83,6.31,3.75,9.56,3.14,1.34-.25,2.76-1.39,2.97-2.8.14-.95-.32-1.77-1.05-2.46Z"/>
        <path class="cls-1" d="M55.62,80.9c-.77.09-1.54.28-2.2.4-1.79.32-3.67.89-5.01,2.18-.65.63-1.13,1.42-1.38,2.29-.86,3,1.55,5.55,4.55,5.47,3.06-.08,6.6-3.03,7.57-5.88.38-1.12.18-2.44-.47-3.42-.71-1.06-1.87-1.18-3.05-1.05Z"/>
        <path class="cls-4" d="M50.28,68.19c-.77,3.14,1.94,6.63,4.46,8.16,1.09.66,2.41,1.15,3.69.92,1.4-.24,2.36-1.33,2.88-2.6,1.2-2.91-1.19-5.71-3.49-7.19-1.72-1.1-5.88-2.86-7.19-.25-.16.31-.27.63-.35.96Z"/>
        <path class="cls-1" d="M67.58,54.81c-1.02.21-1.97.8-2.58,1.62-.77,1.04-1.17,2.34-1.35,3.6-.33,2.27-.09,5.55,2.02,6.96.75.5,1.67.62,2.55.46,2.75-.51,3.93-3.52,4.1-6.01.15-2.21-.36-5.55-2.73-6.48-.64-.25-1.34-.29-2.01-.15Z"/>
        <path class="cls-1" d="M77.12,72c-2.32-2.04-6.35-.36-8.39,1.36-2.13,1.79-3.12,5.4-.58,7.34,1.39,1.06,3.2,1.05,4.77.41,1.87-.77,3.17-2.4,4.32-3.99,1.14-1.58,1.47-3.72-.12-5.12Z"/>
        <path class="cls-3" d="M28.76,36.91h.53c.08,0,.16-.02.24-.04.09-.02.18-.1.19-.19,0-.02.01-.05.01-.07s0-.05-.01-.07c-.02-.09-.11-.17-.19-.19-.08-.02-.16-.04-.23-.04-.06,0-.12,0-.18,0h-.36c-.08,0-.16.03-.22.09s-.09.14-.09.22c0,.17.14.31.31.31h0Z"/>
        <path class="cls-3" d="M29.67,35.44l.28.05c.11.02.22.05.34.02.07-.02.13-.05.2-.08.05-.03.09-.07.12-.12.03-.04.04-.08.04-.13.01-.05,0-.09,0-.14-.02-.06-.05-.11-.09-.15-.04-.04-.08-.07-.13-.1-.05-.04-.09-.07-.16-.08-.01,0-.02,0-.03,0h-.07c-.09-.02-.18-.04-.27-.05-.05-.02-.11-.02-.16,0-.05,0-.11.02-.15.05-.05.03-.09.06-.12.11-.04.04-.06.09-.07.14-.02.11-.02.22.04.32.06.09.14.17.25.19h0Z"/>
        <path class="cls-3" d="M36.86,20.89s.08-.02.12-.02h-.1c.13,0,.27.01.4.01.06,0,.12,0,.18,0,.11,0,.23-.07.29-.17.04-.07.05-.17.03-.24-.04-.14-.16-.21-.28-.27-.05-.03-.11-.05-.16-.07s-.12-.02-.18-.03c-.16-.02-.33,0-.49.03-.09.02-.19.1-.23.18-.05.08-.07.21-.04.3s.09.19.18.23c.1.05.2.06.3.04h0Z"/>
        <path class="cls-3" d="M37.7,18.86s.04-.01.07-.01h-.11s.08,0,.12.01.08,0,.12,0h-.1s.04,0,.06,0,.04,0,.06,0c.06,0,.04,0,.11,0,.02,0,.05,0,.07-.01h-.1s.04,0,.06,0c.06,0,.11-.01.16-.04.04-.02.07-.05.09-.08.03-.03.05-.07.06-.11.02-.06.02-.11,0-.17-.02-.04-.03-.08-.05-.12-.04-.07-.09-.13-.16-.17-.02-.01-.04-.02-.06-.03-.05-.02-.1-.04-.15-.06s-.11-.02-.16-.03c-.02,0-.04,0-.06,0-.02,0-.05,0-.07,0-.06,0-.11.01-.17.02-.05.01-.1.04-.14.07-.04.03-.08.07-.1.11-.03.05-.05.1-.05.15-.01.05,0,.11,0,.16.03.1.09.19.19.24s.2.07.31.04h0Z"/>
        <path class="cls-3" d="M54.25,17.28c.64,0,.64-.99,0-.99s-.64.99,0,.99h0Z"/>
        <path class="cls-3" d="M56.13,15.37l.13-.1s.08-.06.11-.11c.03-.05.04-.1.04-.15,0-.05-.01-.1-.04-.15-.03-.04-.06-.08-.11-.11l-.13-.1c-.06-.04-.13-.06-.21-.06-.07,0-.14.02-.21.06-.12.07-.2.21-.2.35s.08.28.2.35c.06.04.13.06.21.06.07,0,.14-.02.21-.06h0Z"/>
        <path class="cls-3" d="M56.67,29.48h.49c.08,0,.16,0,.24,0,.07,0,.13-.01.19-.03.1-.04.18-.08.24-.18.03-.06.05-.12.05-.19s-.02-.13-.05-.19c-.05-.09-.14-.14-.23-.18-.06-.02-.13-.04-.2-.04-.08,0-.16,0-.24,0h-.49c-.1,0-.21.04-.29.12s-.12.19-.12.29c0,.22.18.41.41.41h0Z"/>
        <path class="cls-3" d="M57.32,27.8c.06,0,.12,0,.19,0h-.11c.07,0,.15,0,.22.01h-.1s.1,0,.14.02c.05.02.09.03.15.03.02,0,.04,0,.06,0,.09,0,.17-.04.22-.11s.07-.16.05-.25c0-.02,0-.04-.02-.06-.02-.06-.05-.12-.1-.17,0,0-.02-.02-.03-.02-.06-.05-.13-.1-.2-.14-.15-.09-.32-.12-.49-.13-.06,0-.11,0-.16.04-.05.02-.09.04-.13.08-.04.04-.07.08-.08.13-.03.05-.04.1-.04.16,0,.11.04.21.12.29s.18.13.29.12h0Z"/>
        <path class="cls-3" d="M69.32,24.51l.34-.02c.08,0,.16-.02.24-.03.05,0,.09-.02.14-.05.02-.01.04-.03.07-.04.17-.1.17-.36,0-.46-.02-.01-.04-.03-.07-.04-.05-.03-.08-.04-.13-.04-.08-.01-.16-.03-.25-.03l-.34-.02c-.09,0-.2.05-.26.11s-.11.17-.11.26.04.19.11.26.16.11.26.11h0Z"/>
        <path class="cls-3" d="M70.43,22.32c.15,0,.3,0,.44-.02.05,0,.1-.01.15-.02s.09-.02.14-.04c.08-.03.15-.06.21-.12.02-.02.04-.04.06-.06.09-.09.09-.25,0-.33-.02-.02-.04-.04-.06-.06-.06-.06-.13-.09-.21-.12-.03-.01-.06-.02-.09-.03-.06-.02-.14-.02-.2-.02-.15-.02-.3-.02-.44-.02-.1,0-.22.05-.29.12s-.13.19-.12.29.04.22.12.29.18.13.29.12h0Z"/>
        <path class="cls-3" d="M81.34,33.88s.06-.03.09-.05l-.1.04c.07-.03.13-.05.2-.06h-.11s.04,0,.06,0c.09,0,.1-.01.17-.04.02,0,.05-.02.07-.03l-.09.04s.06-.02.09-.03c.05-.02.11-.05.15-.09l.05-.07s.04-.08.04-.13c0-.03,0-.06,0-.09,0-.03,0-.06-.02-.09,0-.03-.02-.05-.04-.08-.02-.04-.06-.07-.1-.09-.06-.04-.14-.08-.2-.1-.11-.03-.22-.01-.33,0-.13.02-.25.07-.36.12-.05.03-.09.06-.12.11-.04.04-.06.09-.07.14-.02.05-.02.11,0,.16,0,.05.02.11.05.15.06.09.14.17.25.19s.22.02.32-.04h0Z"/>
        <path class="cls-3" d="M82.9,32.12h.27c.1-.01.19-.01.28-.07.03-.02.07-.05.1-.07.04-.02.07-.05.09-.09.02-.04.03-.08.03-.13,0-.05-.01-.09-.03-.13-.02-.04-.05-.07-.09-.09-.03-.02-.07-.04-.1-.07-.08-.06-.18-.06-.28-.06h-.27c-.09-.01-.19.03-.25.09s-.11.16-.1.25.03.19.1.25.16.11.25.1h0Z"/>
        <path class="cls-3" d="M66.41,38.23c.21.06.43.09.65.11.12.01.24.01.37-.01.04,0,.08-.03.13-.04.04-.01.07-.03.11-.05.06-.03.1-.08.14-.14,0-.01.02-.02.03-.03.04-.06.05-.14.04-.2,0-.07-.04-.13-.09-.18-.03-.04-.07-.07-.11-.1-.05-.03-.11-.04-.16-.06-.09-.03-.18-.04-.27-.05-.13,0-.25-.01-.38-.03l.12.02c-.11-.02-.22-.04-.33-.06s-.23-.01-.33.04c-.09.05-.17.16-.2.26-.05.23.07.47.3.53h0Z"/>
        <path class="cls-3" d="M68.29,36.37h.29s.09,0,.14,0c.07,0,.15,0,.2-.05.02-.01.04-.03.05-.04.04-.02.07-.05.09-.09.02-.04.04-.08.04-.13,0-.05-.01-.09-.04-.13-.02-.04-.05-.07-.09-.09-.02-.01-.03-.03-.05-.04-.06-.04-.13-.05-.2-.05h-.15c-.1,0-.19,0-.29,0-.08,0-.17.04-.23.09s-.1.15-.09.23.03.17.09.23.14.1.23.09h0Z"/>
        <path class="cls-3" d="M73.71,49.56l.35-.09.09-.02c.06-.01.11-.04.17-.07.1-.05.18-.12.24-.22.05-.07.06-.19.03-.27-.03-.08-.08-.16-.16-.21-.1-.05-.21-.08-.32-.08-.09,0-.18.02-.28.05l-.35.09c-.1.02-.2.1-.25.19s-.07.22-.04.32.1.2.19.25.21.07.32.04h0Z"/>
        <path class="cls-3" d="M74.71,47.91h.37s.06,0,.09,0c.06,0,.12,0,.18-.03.05-.02.1-.04.15-.07s.1-.05.13-.09c.05-.07.1-.14.09-.23v-.09c-.03-.05-.05-.1-.09-.14-.03-.04-.08-.06-.12-.09-.05-.03-.1-.06-.16-.07-.06-.02-.12-.02-.18-.03-.03,0-.06,0-.09,0h-.37c-.11,0-.22.05-.29.12s-.13.19-.12.29.04.22.12.29.18.12.29.12h0Z"/>
        <path class="cls-3" d="M85.43,46.85l.33-.05c.08-.01.16-.05.23-.09.08-.05.17-.1.21-.2l.03-.07s.01-.08,0-.12c0-.07-.04-.12-.08-.17-.07-.08-.16-.11-.25-.14-.02,0-.05-.01-.07-.02-.1-.03-.14-.02-.24,0-.01,0-.03,0-.04,0l-.33.05c-.05.01-.1.04-.14.07-.05.03-.08.07-.11.12-.05.09-.07.22-.04.32s.1.2.19.25l.1.04c.07.02.15.02.22,0h0Z"/>
        <path class="cls-3" d="M86.9,45.22h.1s.03.02.04.02c.02,0,.03,0,.05,0,.03,0,.06,0,.09,0,.08,0,.12-.01.19-.05,0,0,.01,0,.02,0l.03-.02c.14-.08.2-.28.11-.42l-.02-.03s0-.01,0-.02c-.04-.06-.07-.1-.14-.14-.03-.02-.05-.03-.08-.05-.06-.04-.12-.06-.18-.08l-.1-.04c-.08-.02-.15-.02-.23,0l-.1.04c-.06.04-.12.09-.15.15-.03.05-.05.1-.05.16-.01.06-.01.11,0,.17.01.06.04.11.08.15.03.05.07.08.12.11.07.04.14.06.22.06h0Z"/>
        <path class="cls-3" d="M83.73,61.7c.2.03.4.05.61.04.14,0,.28-.03.41-.1.03-.02.07-.04.1-.06.09-.06.15-.12.17-.23.02-.09,0-.19-.07-.25-.08-.07-.15-.1-.25-.11-.04,0-.08,0-.12-.01h.09c-.05,0-.11,0-.16,0-.03,0-.06,0-.09,0-.06,0-.12,0-.17.01-.12,0-.23,0-.35-.02h.1s-.05,0-.07,0c-.1-.02-.2-.02-.29.04-.08.05-.15.14-.17.23-.02.1-.02.21.04.29.05.08.13.16.23.17h0Z"/>
        <path class="cls-3" d="M85.04,60.21h.16c.09,0,.17-.03.26-.04.02,0,.05,0,.07-.01.05,0,.1-.04.15-.06.07-.04.13-.08.17-.15.03-.05.05-.12.05-.18s-.02-.13-.05-.18c-.04-.07-.1-.12-.17-.15-.05-.02-.1-.05-.15-.06-.02,0-.05,0-.07-.01-.08-.01-.17-.03-.25-.03-.05,0-.11,0-.16,0-.06,0-.12.01-.17.04-.06.02-.1.05-.14.09-.04.04-.07.09-.09.14-.03.05-.04.11-.04.17,0,.12.04.24.13.32s.2.13.32.13h0Z"/>
        <path class="cls-3" d="M68.48,64.89h.14s.05,0,.07,0c.05,0,.1,0,.15-.01.04,0,.08-.01.13-.02.02,0,.04,0,.06-.01.07-.02.13-.06.18-.12.12-.12.12-.31,0-.43l-.02-.02s-.07-.06-.12-.08c-.04-.02-.06-.02-.1-.03-.04,0-.09-.01-.13-.02-.06,0-.1-.01-.15-.01h-.07s-.09,0-.14,0c-.1,0-.2.04-.27.11s-.11.17-.11.27.04.2.11.27.17.11.27.11h0Z"/>
        <path class="cls-3" d="M69.41,63.59h.34c.06-.02.11-.02.17-.04l.08-.03s.05-.02.08-.03c.07-.03.12-.06.16-.11.04-.05.08-.11.07-.18s-.03-.13-.07-.18-.1-.09-.16-.11c-.03-.01-.05-.02-.08-.03l-.07-.03c-.05-.02-.11-.02-.17-.02h-.34c-.1-.02-.2.03-.27.1s-.12.18-.11.27.04.2.11.27.17.12.27.11h0Z"/>
        <path class="cls-3" d="M75.09,76.72l.42-.05c.06,0,.12,0,.17-.02.04,0,.07-.02.11-.03.05-.02.11-.03.16-.06.07-.04.12-.1.16-.16s.05-.15.03-.22c-.02-.08-.07-.13-.13-.17s-.14-.07-.22-.07c-.06,0-.12.02-.18.02-.07.01-.13.02-.2.05l-.4.13c-.14.05-.23.18-.21.33,0,.06.03.13.08.17.05.05.13.1.21.09h0Z"/>
        <path class="cls-3" d="M75.74,75.29h.31s.1,0,.15,0c.04,0,.08,0,.12-.01.04-.01.07-.03.11-.05.04-.02.08-.04.11-.08.05-.06.1-.14.09-.22s-.04-.16-.09-.22c-.03-.04-.07-.06-.11-.08-.03-.01-.08-.04-.11-.05-.04,0-.08-.01-.12-.01h-.15c-.1,0-.2,0-.31,0-.09,0-.19.04-.26.11s-.11.17-.11.26.04.19.11.26.16.11.26.11h0Z"/>
        <path class="cls-3" d="M58.62,75.47h.39c.09-.02.17-.03.26-.04.08-.01.14-.05.2-.1l.05-.05c.09-.08.09-.24,0-.32l-.05-.05c-.06-.05-.12-.09-.2-.1-.09-.01-.17-.03-.26-.03h-.39c-.09-.02-.19.03-.25.09s-.11.16-.1.25.03.19.1.25.16.11.25.1h0Z"/>
        <path class="cls-3" d="M59.65,73.99s.02,0,.03,0h-.1s.06,0,.09.01h-.09s.07,0,.1.01l-.08-.04s.06.03.09.04.06.02.09.03l-.08-.03s.02,0,.02.01c0,0,0,0,.01,0l.08.03s.03,0,.05,0c.02,0,.05,0,.07,0h-.07s0,0,0,0c.04.01.07.01.11,0,.04,0,.07-.01.1-.03l.05-.04s.06-.07.07-.12c0-.01,0-.02.01-.04.01-.05.02-.12,0-.17-.01-.03-.03-.06-.04-.09,0,0,0-.02-.01-.02,0-.02-.02-.03-.03-.05-.02-.03-.03-.05-.06-.07l-.07-.05s0,0-.01,0c0,0-.02-.01-.03-.02-.04-.02-.09-.04-.13-.06-.02,0-.04-.01-.06-.02-.05-.01-.1-.02-.15-.02-.02,0-.04,0-.06,0-.07,0-.13.02-.18.05l-.07.06s-.08.1-.09.16c-.02.05-.02.1,0,.14,0,.05.02.09.04.13.02.04.05.08.09.1.04.03.08.05.12.06.06.02.13.02.19,0h0Z"/>
        <path class="cls-3" d="M56.84,85.46s.03-.02.05-.02l-.08.03s.1-.03.15-.04h-.09s.08,0,.13,0c.05,0,.08,0,.14,0,.01,0,.08-.03.11-.05l.06-.04s.05-.05.06-.09c.02-.06.03-.12.01-.18s-.05-.11-.09-.16c-.05-.05-.11-.08-.18-.1s-.13-.03-.2-.03-.14,0-.2.02-.13.04-.19.07c-.04.02-.07.05-.09.09-.03.03-.05.07-.06.11-.01.04-.02.09,0,.13,0,.04.02.09.04.12.05.07.11.13.2.15s.18.01.26-.03h0Z"/>
        <path class="cls-3" d="M56.48,87.36h.18s.03-.01.04-.01h.09s0-.01.01-.02c0,0,.01,0,.02,0,.05-.02.1-.04.14-.06.09-.04.14-.15.14-.24s-.05-.2-.14-.24c-.04-.02-.09-.04-.14-.06-.04-.02-.06-.02-.12-.02-.01,0-.03,0-.04,0h-.18s-.09,0-.13.02c-.04.01-.08.04-.11.07-.03.03-.06.07-.07.11-.02.04-.03.08-.03.13v.09c.03.06.06.11.1.15.06.06.15.11.24.1h0Z"/>
        <path class="cls-3" d="M42.8,81.69h.26c.11,0,.22-.03.33-.06.09-.03.18-.1.2-.2,0-.02.01-.06.01-.08,0-.03,0-.05-.01-.08-.02-.1-.11-.17-.2-.2-.1-.03-.22-.05-.33-.06h-.26c-.09,0-.18.03-.24.1s-.1.16-.1.24.03.18.1.24.15.1.24.1h0Z"/>
        <path class="cls-3" d="M44.26,80.04l.14-.08c.06-.04.1-.11.1-.18s-.04-.14-.1-.18l-.14-.08c-.09-.06-.22-.05-.31,0s-.15.16-.15.27.06.21.15.27.22.06.31,0h0Z"/>
        <path class="cls-3" d="M29.04,81.07h.33c.08-.02.15-.03.23-.05.05-.01.09-.03.13-.06.02-.01.04-.03.07-.04.07-.05.12-.12.12-.21s-.05-.16-.12-.21c-.06-.04-.11-.08-.19-.1-.08-.02-.15-.04-.24-.04h-.33c-.09-.02-.2.03-.26.09s-.11.17-.11.26.04.19.11.26.16.11.26.11h0Z"/>
        <path class="cls-3" d="M29.69,79.8c.07,0,.15,0,.22,0s.14-.02.2-.04c.02,0,.03-.01.05-.02.09-.03.17-.08.21-.17.03-.06.05-.12.05-.18s-.02-.13-.05-.18c-.02-.04-.05-.08-.09-.1-.03-.03-.08-.05-.12-.06-.02,0-.03-.01-.05-.02l-.05-.02s-.02,0-.03,0c0,0-.01,0-.02,0h-.11c-.08-.02-.15-.01-.23-.01-.06,0-.11,0-.16.04-.05.02-.09.04-.13.08-.04.04-.07.08-.08.13-.03.05-.04.1-.04.16,0,.11.04.21.12.29s.18.12.29.12h0Z"/>
        <path class="cls-3" d="M31.73,69.25h.47s.07,0,.11,0c.07,0,.14,0,.2-.02.11-.02.24-.05.31-.14.05-.06.09-.13.09-.21s-.03-.14-.09-.21c-.07-.09-.2-.12-.31-.14-.06-.01-.13-.02-.2-.02h-.12c-.16,0-.32,0-.47,0-.19,0-.37.17-.36.36s.16.36.36.36h0Z"/>
        <path class="cls-3" d="M33.13,67.59c.49,0,.49-.77,0-.77s-.49.77,0,.77h0Z"/>
        <path class="cls-3" d="M18.06,64.17h.38c.09,0,.18-.03.27-.06.07-.02.12-.05.17-.1,0,0,.02-.01.02-.02.02-.02.04-.03.05-.05.1-.09.1-.26,0-.35-.02-.02-.03-.03-.05-.05,0,0-.02-.02-.03-.03-.05-.05-.1-.07-.17-.1-.09-.03-.17-.05-.27-.05h-.38c-.1,0-.21.04-.28.11s-.12.18-.12.28.04.21.12.28.18.12.28.12h0Z"/>
        <path class="cls-3" d="M18.9,62.76c.11-.01.22-.02.33-.04l.11-.02c.06-.01.11-.05.17-.08.08-.06.14-.14.14-.24s-.05-.19-.14-.24c-.05-.03-.1-.07-.16-.08-.04,0-.08-.01-.12-.02-.11-.02-.22-.03-.33-.04-.05,0-.1,0-.15.03-.05.02-.09.04-.12.08-.04.04-.06.08-.08.12-.02.05-.04.1-.03.15,0,.1.04.2.11.27l.08.06c.06.04.13.05.2.05h0Z"/>
        <path class="cls-3" d="M46.34,63.77h.39c.07,0,.13,0,.2,0,.09,0,.19-.02.27-.05.14-.04.26-.18.25-.33s-.1-.28-.25-.33c-.08-.03-.18-.05-.27-.05-.07,0-.13,0-.2,0h-.39c-.1,0-.2.04-.26.11s-.11.17-.11.26c0,.2.16.37.37.37h0Z"/>
        <path class="cls-3" d="M47.46,62.02s.03-.04,0-.04-.03.04,0,.04h0Z"/>
        <path class="cls-3" d="M57.7,56.5s.08-.02.12-.03h-.1c.06,0,.13,0,.19.01h-.1c.07,0,.13.02.2.02.04,0,.07,0,.11,0h.08s.05-.03.07-.04c.06-.03.1-.09.13-.15.02-.05.03-.1.02-.16,0-.07-.04-.12-.09-.18l.08.3c.01-.05.01-.11,0-.16-.01-.05-.04-.1-.08-.14-.04-.05-.1-.11-.16-.14-.09-.05-.2-.06-.31-.07-.05,0-.09,0-.14,0-.08,0-.16.02-.23.04-.09.03-.17.09-.22.17s-.06.19-.04.28.08.17.17.22.19.07.28.04h0Z"/>
        <path class="cls-3" d="M59.18,54.98c.08,0,.16,0,.23,0,.13,0,.27-.05.36-.14.02-.02.04-.04.06-.06.03-.03.05-.06.06-.1.02-.04.03-.08.03-.12v-.08c-.03-.05-.05-.1-.09-.14-.02-.02-.04-.04-.06-.06-.09-.09-.24-.14-.36-.14-.08,0-.16,0-.23,0-.06,0-.11,0-.16.04-.05.02-.1.05-.14.09-.04.04-.07.08-.09.14-.03.05-.04.1-.04.16l.02.11c.02.07.06.13.11.19.08.08.18.12.3.12h0Z"/>
        <path class="cls-3" d="M44.22,48.83s.05,0,.07-.01h-.11c.06,0,.12,0,.18.02l-.11-.02c.05,0,.11.03.16.04.09.02.16.05.25.05.05,0,.1,0,.15-.01s.12-.05.16-.09c.06-.06.1-.16.1-.24s-.03-.15-.06-.22c-.05-.11-.14-.18-.24-.23-.08-.05-.16-.08-.25-.09s-.18-.03-.27-.02-.18.02-.26.04c-.1.03-.2.1-.25.19s-.07.22-.04.32.1.2.19.25c.1.05.21.07.32.04h0Z"/>
        <path class="cls-3" d="M44.57,47.25c.1,0,.21-.01.31-.04.04,0,.08-.01.11-.02.05-.01.11-.04.16-.07.07-.03.11-.12.11-.19s-.04-.16-.11-.19c-.05-.02-.1-.05-.15-.07-.04-.01-.08-.02-.12-.03-.1-.02-.21-.03-.31-.04-.04,0-.09,0-.12.03-.04.01-.07.04-.1.07-.03.03-.05.06-.07.1-.02.04-.03.08-.03.12,0,.08.03.17.09.23.06.06.14.1.23.09h0Z"/>
        <path class="cls-3" d="M56.76,41.41h.38c.06,0,.13,0,.19,0s.13-.01.18-.05c.02-.01.06-.04.08-.06.02-.01.04-.03.06-.05.1-.08.1-.27,0-.35-.02-.02-.04-.03-.06-.05-.03-.02-.06-.05-.08-.06-.06-.03-.12-.04-.18-.05s-.13,0-.19,0h-.38c-.09,0-.18.03-.24.09s-.1.16-.1.24c0,.18.15.35.34.34h0Z"/>
        <path class="cls-3" d="M57.88,40.17c.11,0,.23,0,.33-.03l.11-.02c.07-.01.12-.05.17-.09.09-.06.15-.15.15-.26s-.06-.2-.15-.26c-.05-.04-.1-.07-.17-.08-.04,0-.08-.02-.12-.03-.11-.02-.22-.03-.33-.03-.06,0-.11,0-.15.03-.05.02-.09.04-.13.08-.04.04-.07.08-.08.13-.03.05-.04.1-.03.15,0,.1.04.21.12.28s.18.13.28.12h0Z"/>
        <path class="cls-3" d="M40.48,33.97c.14,0,.27,0,.41-.02.1,0,.19-.03.28-.05.05-.01.1-.03.15-.06.05-.03.1-.07.13-.12.04-.06.05-.13.04-.2s-.04-.13-.09-.18c-.04-.04-.09-.06-.15-.08s-.11-.03-.17-.03c-.1,0-.19,0-.29.02-.13.03-.27.05-.4.08-.07.02-.16.08-.2.15s-.05.13-.04.21c.02.15.16.29.32.29h0Z"/>
        <path class="cls-3" d="M42.15,32.4h.3s.02,0,.03,0c.07,0,.12-.02.19-.05.02,0,.04-.02.05-.03.02-.01.04-.02.06-.03.03-.02.06-.05.09-.07.09-.09.09-.23,0-.32-.03-.03-.05-.05-.09-.07-.02-.01-.04-.02-.06-.03-.02,0-.03-.02-.05-.03-.06-.03-.12-.05-.19-.06-.01,0-.02,0-.03,0h-.3c-.09-.01-.19.03-.25.1s-.11.16-.1.25.03.19.1.25.16.11.25.1h0Z"/>
        <path class="cls-3" d="M26.98,51.88l.33-.07c.07-.02.14-.05.21-.08.06-.03.11-.08.15-.12.08-.07.07-.24-.04-.29-.06-.03-.12-.06-.18-.07-.08-.01-.15-.03-.23-.02l-.34.03c-.09,0-.16.03-.23.09-.07.07-.1.17-.09.27.01.09.05.15.12.21.08.06.18.08.28.06h0Z"/>
        <path class="cls-3" d="M28.48,49.87l.25-.02c.07,0,.15-.02.22-.03s.13-.04.19-.08c.11-.06.17-.18.17-.3s-.07-.24-.17-.3c-.06-.03-.12-.07-.18-.08-.07-.01-.15-.02-.22-.03l-.25-.02c-.06,0-.11.01-.17.04-.05.02-.1.05-.14.09-.04.04-.07.09-.09.14-.03.05-.04.11-.04.17,0,.11.04.23.13.31.08.07.19.14.31.13h0Z"/>
        <path class="cls-3" d="M16.67,47.62c.2.03.41.06.6.01.07-.02.15-.04.22-.07.05-.02.1-.04.15-.06.05-.03.09-.07.13-.11.05-.07.08-.14.06-.23-.02-.07-.09-.15-.16-.16-.02,0-.04,0-.06-.01-.07-.01-.12,0-.19,0h.08c-.11,0-.22,0-.33,0-.06,0-.11,0-.17,0s-.11,0-.17-.01h.09s-.04,0-.06,0c-.09-.02-.17-.01-.26.03-.07.04-.14.12-.15.2-.02.09-.02.18.03.26.04.07.12.14.2.15h0Z"/>
        <path class="cls-3" d="M17.59,46.13l.34-.02h.17c.09-.02.17-.02.25-.07.04-.03.08-.06.11-.1.12-.12.12-.33,0-.44-.04-.03-.07-.07-.11-.1-.08-.05-.16-.05-.25-.06h-.17c-.11-.02-.23-.02-.34-.03-.1,0-.22.05-.29.12s-.12.19-.12.29.04.21.12.29.18.13.29.12h0Z"/>
      </g>
      <rect class="cls-2" width="100" height="100"/>
    </g>
  </g>
</svg>