<?xml version="1.0" encoding="UTF-8"?>
<svg id="Capa_2" data-name="Capa 2" xmlns="http://www.w3.org/2000/svg" viewBox="0 0 100 100">
  <defs>
    <style>
      .cls-1 {
        fill: #fff;
      }

      .cls-2 {
        fill: #7b6666;
      }

      .cls-3 {
        fill: none;
      }

      .cls-4 {
        fill: #4a2d2d;
      }
    </style>
  </defs>
  <g id="COLOR">
    <g>
      <g>
        <path class="cls-2" d="M81.88,48.19c.75-1.43,1.68-2.76,1.89-4.49.45-3.83-2.73-7.85-4.55-10.96-3.73-6.39-7.52-13.83-14.37-17.35-13.41-6.89-28.59.99-36.67,12.33-4.7,6.6-7.7,14.46-9.7,22.26-1.98,7.72-2.7,16.38,1.54,23.51,3.7,6.21,10.38,11.02,16.98,13.71,7.58,3.09,15.8,2.98,23.53.44,7.84-2.58,15.33-7.01,18.94-14.72,1.58-3.38,2.42-7.07,2.48-10.8.03-2-.26-3.94-.63-5.89-.35-1.79-.73-4.16-.28-5.98.18-.74.49-1.42.84-2.08Z"/>
        <path class="cls-4" d="M30.51,47.63c-1.34.34-2.27,1.41-2.96,2.55-.85,1.4-1.59,2.88-2.21,4.39s-1.07,3.17-1.15,4.84.24,3.34.73,4.92c.29.93.63,1.84,1.02,2.73s.76,1.78,1.37,2.49c.26.29.63-.03.59-.34-.12-.77-.48-1.51-.77-2.23s-.58-1.42-.84-2.15c-.51-1.45-.89-2.96-.94-4.51-.12-3.17,1.24-6.03,2.62-8.8.61-1.23,1.33-2.75,2.73-3.22.43-.14.26-.8-.19-.68h0Z"/>
        <path class="cls-4" d="M34.75,57.51c.64-.92,1.33-1.75,2.16-2.51s1.74-1.43,2.63-2.11c1.8-1.36,3.47-2.79,4.79-4.64,2.89-4.06,3.74-9.2,3.31-14.09-.14-1.57-.39-3.13-.7-4.67s-.65-3.16-1.22-4.67c-.19-.51-.89-.31-.81.22.21,1.38.56,2.73.83,4.1s.48,2.69.61,4.05c.25,2.56.26,5.16-.2,7.69-.41,2.25-1.09,4.44-2.25,6.42s-2.78,3.45-4.58,4.83-4.05,2.91-5.07,5.1c-.16.34.28.6.5.29h0Z"/>
        <path class="cls-4" d="M39.21,26.72c-.12,1.72-.25,3.46-.56,5.16s-.88,3.28-1.63,4.81c-.1.2.16.45.33.25,1.16-1.36,1.68-3.07,1.99-4.8s.35-3.6.36-5.42c0-.32-.47-.31-.49,0h0Z"/>
        <path class="cls-4" d="M51.39,18.04c.52,2.15,2.09,3.8,3.25,5.61s2.01,3.7,2.6,5.73c1.21,4.13,1.36,8.55.63,12.78-.79,4.59-2.47,8.96-4.61,13.08-1.09,2.1-2.27,4.18-3.59,6.15-1.35,2.01-2.97,3.71-4.77,5.31-2.02,1.8-4.06,3.58-6.16,5.29-1.07.88-2.17,1.73-3.28,2.56-1.09.81-2.23,1.55-3.28,2.41-.33.27.09.71.43.55,1.13-.53,2.15-1.25,3.17-1.97,1.01-.72,1.99-1.47,2.96-2.24,1.91-1.52,3.77-3.11,5.63-4.7s3.8-3.25,5.33-5.24c1.46-1.89,2.66-3.98,3.81-6.06,4.39-7.96,7.42-17.23,5.31-26.35-.55-2.36-1.43-4.66-2.67-6.75-.64-1.08-1.41-2.05-2.18-3.04s-1.58-2.06-2.02-3.28c-.13-.35-.65-.21-.56.16h0Z"/>
        <path class="cls-4" d="M45.68,82.09c2.51-.46,4.99-1.6,7.17-2.91s4.27-2.99,6.03-4.91c3.76-4.11,6.18-9.31,6.94-14.82.22-1.61.33-3.23.26-4.85-.03-.78-.1-1.57-.2-2.34-.11-.85-.34-1.61-.59-2.43-.13-.41-.84-.36-.79.11.08.68.09,1.36.16,2.04s.14,1.37.17,2.06c.06,1.38.04,2.76-.09,4.13-.26,2.73-.95,5.43-2.02,7.96-1.99,4.7-5.39,8.75-9.57,11.65-1.16.8-2.37,1.52-3.63,2.15-1.29.65-2.64,1.13-3.98,1.66-.33.13-.21.6.15.53h0Z"/>
        <path class="cls-4" d="M70.3,49.1c-.21-1.5-.69-2.88-1.34-4.25-.67-1.42-1.66-2.65-1.7-4.29s.43-3.06.65-4.59c.19-1.3.28-2.84-.7-3.85-.16-.17-.43,0-.38.22.16.67.33,1.35.36,2.04s-.05,1.43-.18,2.14c-.27,1.5-.81,2.94-.64,4.5s1.03,2.69,1.77,3.96,1.31,2.78,1.76,4.23c.08.26.44.15.4-.11h0Z"/>
        <path class="cls-4" d="M74.29,56.49c0,1.38-.23,2.78-.49,4.13s-.65,2.6-1.16,3.84-1.16,2.41-1.92,3.51-1.77,2.1-2.55,3.22c-.22.31.2.69.51.51,1.22-.72,2.12-1.92,2.92-3.06s1.5-2.44,2.04-3.76.94-2.7,1.17-4.11.2-2.83.06-4.27c-.03-.37-.59-.39-.59,0h0Z"/>
        <path class="cls-1" d="M35.39,27.56c-.62-.17-1.26.21-1.68.64s-.78.99-.64,1.61c.08.38.45.58.8.61.53.04,1-.38,1.38-.69.41-.34.78-.77.8-1.32.02-.39-.29-.76-.65-.86h0Z"/>
        <path class="cls-1" d="M29.69,35.38c-.06.17-.14.33-.16.51-.01.1-.03.2-.02.29,0,.19.07.35.15.53.07.15.24.27.39.33.16.07.36.1.53.04s.32-.13.45-.25c.08-.07.14-.15.21-.23.11-.14.18-.31.25-.47.12-.25.16-.49.1-.76-.07-.29-.3-.52-.57-.64-.25-.11-.5-.11-.76,0-.3.12-.46.34-.57.64h0Z"/>
        <path class="cls-1" d="M56.59,66.98l.25-.27c.09-.09.17-.19.24-.3.08-.11.12-.24.17-.36l.03-.26-.03-.26c-.06-.2-.18-.37-.35-.5-.3-.23-.74-.28-1.07-.08s-.54.54-.77.84c-.14.18-.17.54-.1.75s.18.37.35.51c.36.28.95.29,1.28-.08h0Z"/>
        <path class="cls-1" d="M78.78,44.06c.08-.98.31-2.5-.72-3.07-.37-.21-.92-.11-1.13.3-.46.89.17,1.85.16,2.78,0,1.1,1.59,1.06,1.68,0h0Z"/>
        <path class="cls-1" d="M76.81,38.72c.43,0,.43-.67,0-.67s-.43.67,0,.67h0Z"/>
      </g>
      <rect class="cls-3" width="100" height="100"/>
    </g>
  </g>
</svg>