<?xml version="1.0" encoding="UTF-8"?>
<svg id="Capa_2" data-name="Capa 2" xmlns="http://www.w3.org/2000/svg" viewBox="0 0 100 100">
  <defs>
    <style>
      .cls-1 {
        fill: #fddeb0;
      }

      .cls-2 {
        fill: #fff;
      }

      .cls-3 {
        fill: none;
      }

      .cls-4 {
        fill: #aca73c;
      }

      .cls-5 {
        fill: #4a2d2d;
      }
    </style>
  </defs>
  <g id="COLOR">
    <g>
      <g>
        <g>
          <path class="cls-1" d="M43.91,58.13c-1.25-4.21-3.81-8.31-6.52-11.71-3.15-3.95-7.09-7.19-11.75-9.2-2-.86-4.12-1.64-6.29-1.87-6.73-.71-7.41,7.67-8.06,12.42-.77,5.59-.99,11.38.6,16.86,2.68,9.24,11.43,17.34,21.6,14.5,8.98-2.51,12.94-12.54,10.42-20.99Z"/>
          <path class="cls-5" d="M15.98,41.45c-1.68,6-2.19,12.36-1.02,18.51.58,3.03,1.57,6.13,3.24,8.75,1.52,2.39,3.76,4.27,6.28,5.53,2.65,1.33,5.65,2.1,8.55,1.1,2.51-.87,4.64-2.77,5.87-5.11,2.95-5.55,1.12-12.17-2.04-17.19-1.57-2.49-3.49-4.79-5.53-6.9-2-2.07-4.24-3.88-6.73-5.32-.63-.37-1.27-.7-1.95-.99-.44-.19-.84.42-.39.67,2.43,1.33,4.71,2.78,6.82,4.59s3.96,3.85,5.53,6.13c1.67,2.42,3.2,4.95,4.09,7.77s1.11,5.74.35,8.54c-.7,2.58-2.28,4.86-4.6,6.23-1.1.65-2.35,1.09-3.63,1.19-1.51.12-3-.23-4.41-.77-2.55-.98-4.89-2.58-6.63-4.69-1.87-2.27-2.97-5.18-3.71-8-1.52-5.79-1.2-11.92-.15-17.77.13-.73.23-1.46.37-2.18.04-.21-.27-.3-.33-.09h0Z"/>
        </g>
        <g>
          <path class="cls-4" d="M71.73,29.84c-.68-4.95-2.61-9.64-5.13-13.93,0,0,0,0,0,0-1.25-2.5-3.14-5.36-6.15-3.75-1.59.85-2.86,2.3-4.14,3.52-1.51,1.45-3.01,2.89-4.3,4.54-5.01,6.44-8.8,15.04-8.92,23.3-.1,7.18,4.03,15.58,12.32,15,8.08-.57,12.67-7.52,14.79-14.61,1.39-4.64,2.2-9.22,1.54-14.06Z"/>
          <path class="cls-5" d="M65.61,16.65c-1.31-.64-3.02-.25-4.37.08-1.24.3-2.44.72-3.6,1.26-2.32,1.07-4.44,2.61-6.18,4.48-.95,1.02-1.86,2.15-2.36,3.47-.07.19.21.35.34.2.78-.89,1.44-1.88,2.23-2.76.8-.9,1.69-1.73,2.64-2.47,1.9-1.46,4.08-2.57,6.39-3.23.69-.19,1.39-.35,2.1-.46.9-.13,1.8-.06,2.7-.13.21-.02.35-.33.12-.44h0Z"/>
          <path class="cls-5" d="M60.93,17.8c-.54.98-.99,1.98-1.34,3.05s-.66,2.16-.7,3.26c-.01.28.41.33.48.07.31-1.04.5-2.12.82-3.16.31-1.04.67-2.07,1.08-3.07.08-.2-.24-.33-.34-.14h0Z"/>
          <path class="cls-5" d="M62.9,18.86c-.24,1.35-.48,2.69-.71,4.04s-.49,2.65-.55,3.99c0,.25.35.28.42.06.42-1.3.6-2.68.81-4.02s.38-2.66.54-4c.03-.29-.46-.36-.51-.07h0Z"/>
          <path class="cls-2" d="M46.59,41.06c-.87,1.74-1.01,3.78-.77,5.69.2,1.57.64,3.93,2.4,4.37.49.12,1.03-.15,1.16-.66.35-1.37-.62-2.63-.9-3.97-.34-1.65-.12-3.31-.22-4.97-.05-.82-1.24-1.3-1.67-.45h0Z"/>
          <path class="cls-2" d="M51.43,54.13l.09-.05c.1-.06.18-.14.24-.24.06-.11.09-.22.09-.34,0-.12-.03-.24-.09-.34-.06-.1-.14-.18-.24-.24l-.09-.05c-.12-.07-.24-.1-.37-.1-.13,0-.26.03-.37.1-.22.13-.37.38-.37.64s.14.51.37.64c.12.07.24.1.37.1.13,0,.26-.03.37-.1h0Z"/>
        </g>
        <g>
          <path class="cls-4" d="M85.9,54.52c-1.92-.17-3.94.32-5.83.58-2.16.3-4.29.71-6.36,1.4-7.67,2.55-15.49,7.28-20.2,14-4.35,6.19-5.05,15.74,2.75,19.49,7.55,3.64,15.01-.26,20.89-5.11,3.66-3.01,6.65-6.4,8.62-10.75,1.85-4.09,2.82-8.48,3.22-12.94.45-2.9.53-6.35-3.08-6.67Z"/>
          <path class="cls-5" d="M87.75,61.18c-.6-1.1-1.91-1.71-3.01-2.2-1.19-.53-2.43-.93-3.71-1.21-2.58-.55-5.26-.58-7.85-.1-1.46.27-2.99.66-4.23,1.5-.19.13-.07.43.16.37,1.54-.37,3.02-.93,4.59-1.19,1.61-.27,3.26-.32,4.88-.18s3.18.5,4.69,1.04c.75.27,1.49.59,2.19.98s1.3.89,1.98,1.29c.21.12.43-.12.32-.32h0Z"/>
          <path class="cls-5" d="M83.26,59.44c-1,.48-1.95,1.03-2.84,1.69-.87.64-1.77,1.36-2.44,2.21-.2.25.1.55.35.35.84-.66,1.61-1.42,2.47-2.08s1.74-1.29,2.65-1.86c.21-.13.03-.43-.19-.32h0Z"/>
          <path class="cls-5" d="M84.25,61.45c-.96.94-1.92,1.88-2.87,2.83s-1.94,1.88-2.77,2.94c-.13.17.04.49.26.33,1.08-.81,2.01-1.79,2.95-2.75.95-.98,1.88-1.97,2.8-2.99.22-.25-.13-.6-.37-.37h0Z"/>
          <path class="cls-2" d="M54.96,72.54c-1.13,1.33-1.92,2.83-2.31,4.54-.29,1.26-.84,3.89.66,4.59,1.36.63,1.85-.91,1.93-1.97.15-2.09.54-3.93,1.44-5.84.49-1.04-.85-2.33-1.71-1.32h0Z"/>
          <path class="cls-2" d="M54.51,85.52c1.44,0,1.44-2.24,0-2.24s-1.44,2.24,0,2.24h0Z"/>
        </g>
      </g>
      <rect class="cls-3" width="100" height="100"/>
    </g>
  </g>
</svg>