<?xml version="1.0" encoding="UTF-8"?>
<svg id="Capa_2" data-name="Capa 2" xmlns="http://www.w3.org/2000/svg" viewBox="0 0 100 100">
  <defs>
    <style>
      .cls-1 {
        fill: #fff;
      }

      .cls-2 {
        fill: none;
      }

      .cls-3 {
        fill: #a65247;
      }

      .cls-4 {
        fill: #4a2d2d;
      }
    </style>
  </defs>
  <g id="COLOR">
    <g>
      <g>
        <g>
          <path class="cls-3" d="M68.75,21c-2.07-1.2-4.72-1.64-6.99-1.54-2.4.1-4.77.66-7.18.65-2.16-.01-4.31-.87-6.43-.12-1.74.61-3.4,1.63-5.02,2.51-2,1.09-3.97,2.29-5.7,3.79-1.14.99-2.11,2.16-2.21,3.73-.08,1.19.39,2.39-.11,3.55-.39.9-1.15,1.64-1.57,2.54-1.51,3.2-1.06,7,1.34,9.64,2.79,3.06,7.24,2.29,10.81,3.67,1.79.69,3.33,1.25,5.28.97,2.2-.32,4.25-1.43,6-2.76,3.19-2.42,5.77-5.26,9.33-7.19,1.5-.81,3.04-1.81,3.55-3.54.09-.31.1-.63.18-.94.22-.75.69-1.21,1.11-1.83.59-.86.93-1.82,1.09-2.85.32-2.03.34-4.19-.18-6.19-.49-1.86-1.72-3.2-3.28-4.1Z"/>
          <path class="cls-4" d="M39.16,33.63c.37-.76.68-1.53,1.24-2.18s1.22-1.18,1.98-1.54c.19-.09.97-.31.81-.63-.08-.17-.36-.12-.5-.1-.21.03-.42.14-.61.22-.79.35-1.5.89-2.07,1.54-.61.71-1.19,1.62-1.25,2.58-.01.2.3.29.39.11h0Z"/>
          <path class="cls-4" d="M45.76,28.1c.71-.03,1.41-.28,2.07-.52s1.34-.52,1.98-.84c1.3-.65,2.45-1.54,3.73-2.21.62-.32,1.29-.61,1.99-.64s1.41.19,2.07.47,1.28.58,1.96.78,1.34.27,2.02.29c.77.01,1.55-.08,2.29-.27s1.51-.45,2.08-.98c.22-.21,0-.59-.3-.51-.66.18-1.27.49-1.94.66s-1.37.25-2.06.24-1.34-.12-1.99-.29c-.69-.19-1.33-.5-1.99-.75-2.84-1.06-5.07,1-7.39,2.32-.73.41-1.49.78-2.27,1.09s-1.6.48-2.35.83c-.16.08-.08.34.09.34h0Z"/>
          <path class="cls-4" d="M49.1,23.39c-.5.12-.99.3-1.45.54-.22.12-.43.25-.63.4-.1.08-.2.16-.3.25-.11.1-.18.19-.25.33-.06.13.04.31.2.26.12-.04.22-.08.33-.16.1-.07.2-.13.3-.2.2-.14.41-.26.62-.37.42-.23.85-.41,1.32-.53.33-.09.19-.59-.14-.51h0Z"/>
          <path class="cls-4" d="M58.81,31.92c.4-.02.8-.08,1.18-.19s.77-.26,1.04-.58c.09-.11,0-.25-.13-.23-.18.03-.36.09-.53.15s-.33.14-.51.2c-.34.12-.7.2-1.06.23-.11.01-.21.09-.21.21,0,.11.1.22.21.21h0Z"/>
          <path class="cls-4" d="M54.99,31.37c-1.38-.67-3.8-1.49-4.96,0-.48.62-.55,1.44-.63,2.19-.04.37-.09.75-.22,1.1-.14.38-.4.62-.63.93-.11.15.07.3.21.28.67-.09,1-.99,1.13-1.55.16-.7.13-1.44.4-2.11.32-.8,1.04-.99,1.84-.92.89.08,1.8.29,2.64.59.3.11.51-.38.22-.52h0Z"/>
          <path class="cls-4" d="M45.91,34.21c-.65.83-1.74.9-2.71.97s-1.91.21-2.7.82c-.72.55-1.24,1.32-1.63,2.13-.23.47-.42.96-.61,1.45-.17.43-.5,1.05-.4,1.51.03.14.19.18.3.12.39-.19.57-.78.73-1.16.21-.52.39-1.05.61-1.56.37-.85.89-1.72,1.69-2.23,1.58-1.01,3.86-.09,5.12-1.76.17-.22-.21-.51-.38-.3h0Z"/>
          <path class="cls-4" d="M42.56,43.28c.95-.86,2.11-1.52,3.39-1.71,1.39-.21,2.84.31,4.22.47,1.26.15,2.49.04,3.65-.51.97-.46,1.8-1.16,2.62-1.84.48-.4.96-.8,1.48-1.16.24-.16.48-.32.73-.45.28-.16.55-.35.83-.5.3-.16.09-.6-.22-.53-.28.06-.49.08-.76.21s-.5.27-.74.43c-.45.29-.87.62-1.29.96-.86.7-1.68,1.45-2.64,2-1.17.66-2.48.78-3.8.66-1.4-.13-2.72-.41-4.12-.17s-2.57.98-3.55,1.94c-.14.13.07.33.21.21h0Z"/>
          <path class="cls-4" d="M62.85,36.01c1.54-.84,3.18-1.79,3.97-3.43.4-.82.44-1.67.49-2.56.03-.46.07-.91.25-1.34.15-.35.47-.64.55-1.01.02-.12-.05-.22-.17-.22-.74-.04-1.04,1.05-1.14,1.61-.16.92-.01,1.89-.28,2.79-.55,1.83-2.35,2.89-3.88,3.83-.22.14-.03.48.2.35h0Z"/>
          <path class="cls-4" d="M48.82,45.05c.5.09,1.01.09,1.52.1.25,0,.49,0,.74,0s.56,0,.76-.15c.1-.07.1-.2,0-.27-.2-.14-.52-.15-.76-.15s-.49,0-.74,0c-.51,0-1.02,0-1.52.1-.18.03-.18.32,0,.36h0Z"/>
          <path class="cls-1" d="M40.08,28.06c.11-.06.22-.11.32-.18.16-.11.33-.24.38-.45s.02-.41-.11-.58c-.12-.16-.32-.26-.52-.25l-.17.02c-.11.03-.21.09-.29.17-.02.02-.04.03-.06.05-.1.08-.18.18-.27.27-.21.22-.23.55-.05.78s.5.29.77.15h0Z"/>
          <path class="cls-1" d="M56.72,28.95l.2-.05c.11-.03.2-.1.27-.18s.12-.2.11-.31c0-.09-.03-.18-.07-.26-.06-.11-.19-.2-.31-.24l-.2-.05c-.36-.1-.72.18-.72.55,0,.15.06.3.17.4.14.14.36.2.56.15h0Z"/>
        </g>
        <g>
          <path class="cls-3" d="M38.79,57.19c-1.34-1.72-2.75-3.53-3.4-5.64-.54-1.75-.58-3.15-2.46-3.99-.99-.44-1.9-.76-2.79-1.39-.85-.61-1.65-1.23-2.68-1.48-1.17-.28-2.36-.1-3.54,0-3.38.3-7.98-.68-9.31,3.55-.51,1.62-.62,3.37-.98,5.03-.46,2.09-1.44,4.18-1.08,6.37.2,1.19.73,2.27.79,3.48.06,1.11-.15,2.22-.23,3.33-.15,2.11.21,4.12.99,6.08.78,1.95,1.85,3.78,3.03,5.51.99,1.45,2.18,3.06,3.98,3.52.99.25,1.99-.13,2.98.08.86.18,1.61.8,2.36,1.21,1.75.96,3.66,1.33,5.64,1.1,3.15-.38,7.08-2.34,8.02-5.63.31-1.09.17-2.25.41-3.36.23-1.04.73-1.98,1.2-2.91.86-1.7,1.77-3.54,1.73-5.49-.08-3.61-2.55-6.64-4.66-9.35Z"/>
          <path class="cls-4" d="M17.85,48.79c.74,1.42.87,3.04.57,4.6-.15.76-.35,1.5-.66,2.21s-.71,1.42-1.03,2.14c-.62,1.45-.61,2.91.04,4.34s1.65,2.6,2.26,4.02c.37.85.62,1.75.76,2.67.08.48.11.97.12,1.46,0,.43,0,.9.14,1.31.04.11.2.15.27.04.37-.67.27-1.59.19-2.33-.09-.82-.25-1.64-.51-2.43-.5-1.55-1.41-2.88-2.11-4.34-.32-.69-.63-1.43-.72-2.19s.11-1.55.41-2.27.73-1.45,1-2.21.45-1.49.52-2.26c.15-1.68-.21-3.41-1.12-4.84-.06-.09-.19-.01-.14.08h0Z"/>
          <path class="cls-4" d="M21.59,73.49c.3,1.02.91,1.93,1.64,2.7.37.39.78.74,1.21,1.06.21.15.42.28.65.41s.5.27.76.23c.11-.02.2-.12.14-.24-.12-.2-.35-.35-.54-.47-.22-.14-.42-.28-.63-.43-.4-.29-.78-.61-1.12-.97-.71-.72-1.25-1.57-1.75-2.44-.11-.18-.4-.06-.34.14h0Z"/>
          <path class="cls-4" d="M33.88,78.76c-1.14-.87-2.47-1.42-3.47-2.49-.45-.48-.81-1.05-1.04-1.67-.12-.32-.21-.65-.24-.99-.02-.25.02-.61-.16-.81-.04-.04-.11-.05-.15-.02-.25.15-.26.56-.26.82,0,.36.07.72.17,1.07.21.71.61,1.35,1.09,1.91.51.59,1.14,1.07,1.8,1.48s1.36.77,2.12,1c.19.06.27-.2.13-.3h0Z"/>
          <path class="cls-4" d="M30.32,70.54c.1-1-.17-1.96-.86-2.7-.79-.85-1.89-1.04-2.9-1.5-.95-.44-1.78-1.31-2-2.37-.11-.56-.18-1.11-.09-1.68.08-.53.32-1.2.16-1.72-.04-.13-.19-.16-.29-.08-.42.35-.57,1.07-.64,1.59-.07.54-.07,1.09.05,1.62.22.97.89,1.93,1.65,2.56.9.74,2.04.9,3.01,1.49s1.57,1.71,1.6,2.79c0,.21.3.2.32,0h0Z"/>
          <path class="cls-4" d="M25.89,58.72c.16-1.04-.23-2.16-.64-3.11-.22-.5-.48-.97-.78-1.42-.14-.22-.29-.42-.45-.63-.14-.18-.3-.45-.54-.49-.07-.01-.15.03-.15.12,0,.22.19.39.31.56.15.2.3.41.43.63.28.44.51.91.7,1.39s.32.94.44,1.42c.13.51.18,1.03.33,1.53.05.16.33.19.36,0h0Z"/>
          <path class="cls-4" d="M21.46,49.16c1.47,1.01,3.27,1.22,4.85,1.98.79.39,1.5.91,2,1.65.25.38.47.79.62,1.22s.21.87.35,1.29c.07.21.34.2.41,0,.3-.86-.02-2.01-.46-2.76-.48-.83-1.2-1.5-2.07-1.92-1.75-.85-3.8-.86-5.5-1.82-.24-.13-.43.21-.21.36h0Z"/>
          <path class="cls-4" d="M30.9,57.43c1.45,1.4,3.32,2.89,3.7,4.99.21,1.16-.15,2.33-.43,3.44s-.49,2.22-.28,3.35c.24,1.27.91,2.5,1.75,3.48.21.25.52-.07.41-.32-.48-1.13-1.21-2.13-1.44-3.35s.12-2.4.41-3.56c.27-1.08.47-2.18.26-3.29-.2-1.01-.73-1.92-1.38-2.71-.78-.95-1.73-1.68-2.75-2.36-.2-.13-.42.16-.25.32h0Z"/>
          <path class="cls-4" d="M31.35,63.22c.01-.08.04-.15.05-.23,0-.06,0-.13,0-.19,0-.15-.03-.28-.07-.42s-.09-.27-.16-.4c-.04-.07-.08-.14-.14-.2-.03-.03-.07-.08-.11-.1-.02-.02-.02-.02,0,0-.01-.01-.02-.02-.04-.03-.09-.07-.2-.1-.3-.04-.1.06-.14.17-.11.28,0,.01,0,.03.01.04,0-.04,0-.04,0,0,0,.05.01.1.03.14.01.04.03.08.05.12,0,.01.01.03.02.04-.02-.04-.02-.04,0-.01.01.03.02.06.03.09v.02c.05.09.05.11.03.04.03.05.04.11.06.17.04.11.07.22.1.33.02.05.03.11.04.16.01.05.03.09.05.13.01.03.01.03,0,0,0,.01,0,.03.01.05.02.1.13.18.23.17s.21-.07.23-.17h0Z"/>
          <path class="cls-4" d="M38.48,67.33v-.68c-.01-.22.02-.5-.13-.68-.04-.04-.12-.04-.15,0-.15.18-.12.46-.12.68v.68c0,.11.09.21.2.21s.21-.09.21-.21h0Z"/>
          <path class="cls-1" d="M26.62,48.53s.07,0,.1,0l-.17-.02c.05,0,.1.02.15.04l-.15-.06c.08.04.16.07.25.11l-.15-.06c.14.07.25.12.41.11.13,0,.24-.04.34-.12.09-.07.18-.18.2-.29.03-.19.03-.36-.07-.53-.08-.13-.18-.23-.31-.31-.19-.12-.38-.16-.6-.18-.16-.01-.36.08-.47.19-.11.11-.2.3-.19.47.02.35.29.67.66.66h0Z"/>
          <path class="cls-1" d="M38.69,61.45c0-.1,0-.19,0-.29,0-.2-.05-.38-.17-.54-.14-.2-.32-.33-.57-.33s-.43.13-.57.33c-.12.16-.17.34-.17.54,0,.1,0,.19,0,.29,0,.38.33.75.73.73s.73-.32.73-.73h0Z"/>
        </g>
        <g>
          <path class="cls-3" d="M81.24,47.39c-.19-.13-.4-.19-.58-.21-.06-.08-.13-.17-.2-.25-.03,0-.06.01-.1,0-.1,0-.21-.02-.31-.04-.09-.02-.18-.05-.27-.07-.23-.07-.45-.15-.67-.25-.2-.09-.39-.21-.54-.36-.25-.26-.38-.62-.28-.98.01-.04.03-.09.05-.13-.14-.06-.25-.09-.34-.07l-.14.34c-.78.15-.98.36-1.66.67-1,.46-1.94-.46-2.78-.83-1.56-.67-2.3-.23-3.67.55-1.68.96-3.66.29-5.41,1.17-1.61.81-3,2.25-4.27,3.51-2.83,2.82-5.24,6.09-7.02,9.66-1.59,3.19-2.96,6.88-2.29,10.5.37,1.97,1.73,3.25,2.42,5.05.66,1.73.68,3.17,2.08,4.56,2.45,2.43,5.91,2.25,8.72.61,1.75-1.03,3.44-.98,5.32-1.53,1.59-.47,2.63-1.47,3.46-2.88.95-1.61,1.57-3.14,3.32-4.05,1.65-.86,3.12-1.72,4.34-3.16,2.74-3.24,3.5-7.48,3.83-11.59.32-3.91.72-7.8-3.01-10.21Z"/>
          <path class="cls-4" d="M84.58,39.74c-.2-.23-.66-.24-.86,0-.65.79-.57,1.9-1.25,2.73-.6.73-1.38,1.15-1.91,1.9-.41-.12-.84-.2-1.27-.17-.96.06-2.22.92-1.8,2.01.22.57.81.81,1.34,1,.35.12.7.24,1.02.43.44.26.88.78,1.44.66.5-.11.86-.75,1.11-1.14.36-.55.34-1.09-.06-1.61-.13-.17-.29-.32-.45-.46.86-.66,1.82-1.09,2.43-2.11.56-.93,1.04-2.34.26-3.25ZM81.02,47.02c-.2-.13-.39-.31-.57-.42-.25-.15-.51-.27-.78-.39-.35-.15-.69-.28-1.04-.32.14-.9,1.28-.61,1.9-.23.25.16.67.39.72.7.03.16-.08.45-.23.65Z"/>
          <path class="cls-4" d="M70.42,49.07c-1.6.54-3.04,1.49-4.35,2.53-.64.5-1.22,1.08-1.71,1.72-.6.78-.94,1.66-1.4,2.51-.84,1.56-2.44,2.54-3.65,3.78s-2.05,2.8-2.48,4.51c-.24.96-.38,1.95-.46,2.94s-.15,2.06-.01,3.08c.03.23.4.21.45,0,.18-.84.21-1.7.29-2.56s.21-1.75.41-2.61c.38-1.63,1.05-3.2,2.19-4.44,1.14-1.25,2.47-2.26,3.39-3.71.5-.78.77-1.68,1.22-2.49.39-.71.91-1.34,1.51-1.88,1.42-1.28,3.22-1.92,4.79-2.96.21-.14.08-.52-.18-.43h0Z"/>
          <path class="cls-4" d="M60.02,67.95c.39-.53.79-1.05,1.22-1.55.22-.25.45-.47.69-.7.12-.12.24-.23.36-.35.11-.11.24-.25.32-.38s-.05-.29-.2-.26-.33.14-.46.24c-.15.11-.29.22-.43.34-.26.23-.49.48-.71.74s-.44.54-.63.84-.34.61-.48.94c-.04.08.03.19.11.22.09.04.18,0,.23-.08h0Z"/>
          <path class="cls-4" d="M72.82,52.49c-1.44.72-2.56,1.88-3.25,3.34-.33.7-.57,1.43-.88,2.13-.32.74-.75,1.34-1.26,1.96-.16.2.05.54.29.38.6-.41.97-1.07,1.27-1.71.33-.69.58-1.42.89-2.12.66-1.5,1.75-2.76,3.17-3.57.26-.15.03-.54-.24-.4h0Z"/>
          <path class="cls-4" d="M74.42,55.86c-.47,1.68-1.63,3.16-2.99,4.23-.66.52-1.43.88-2.08,1.43-.69.58-.96,1.35-1.35,2.13-.72,1.44-2.11,2.34-3.28,3.39-.57.51-1.11,1.08-1.51,1.74-.47.77-.63,1.65-.86,2.51-.26.96-.55,1.92-1.04,2.8-.21.39-.47.76-.77,1.08-.33.35-.73.58-1.12.85-.25.17-.1.54.2.48,1.58-.32,2.38-2.28,2.79-3.64.28-.94.53-1.86.97-2.74.39-.79.87-1.49,1.5-2.11,1.16-1.12,2.58-1.98,3.51-3.32.5-.72.7-1.66,1.3-2.31s1.43-1.02,2.12-1.56c1.57-1.22,2.49-2.95,2.97-4.86.06-.23-.3-.33-.36-.1h0Z"/>
          <path class="cls-4" d="M65.5,75.77c3.73-1.95,7.4-4.62,8.53-8.9.12-.47.21-.94.26-1.42.07-.6.06-1.22.2-1.81.19-.8.7-1.4,1.31-1.93,1.18-1.04,2.67-1.77,3.54-3.13.61-.96.78-2.12.82-3.24.03-.65,0-1.31,0-1.97,0-.73-.01-1.43-.16-2.15-.05-.27-.48-.27-.54,0-.24,1.17-.15,2.38-.16,3.56,0,1.04.04,2.15-.43,3.1-.7,1.42-2.22,2.2-3.39,3.16-.56.46-1.06.98-1.42,1.61-.52.92-.48,1.93-.65,2.94-.34,1.99-1.35,3.81-2.64,5.34-1.54,1.83-3.43,3.26-5.47,4.5-.21.13-.02.44.19.32h0Z"/>
          <path class="cls-1" d="M54.86,63.7c0-.13,0-.26,0-.39,0-.03,0-.05,0-.07-.02.14-.01.1.01-.1,0-.06,0-.12,0-.19.03-.43-.5-.7-.85-.49-.37.23-.61.6-.67,1.03-.03.21-.03.39.08.59.11.21.33.33.55.36.43.06.88-.28.86-.75h0Z"/>
          <path class="cls-1" d="M59.9,55.78l.2-.39c.1-.19.09-.45-.08-.61s-.4-.19-.61-.08l-.39.2c-.37.19-.41.73-.13,1.01s.81.24,1.01-.13h0Z"/>
        </g>
      </g>
      <rect class="cls-2" width="100" height="100"/>
    </g>
  </g>
</svg>