<?xml version="1.0" encoding="UTF-8"?>
<svg id="Capa_2" data-name="Capa 2" xmlns="http://www.w3.org/2000/svg" viewBox="0 0 100 100">
  <defs>
    <style>
      .cls-1 {
        fill: #d9a963;
      }

      .cls-2 {
        fill: #fff;
      }

      .cls-3 {
        fill: none;
      }

      .cls-4 {
        fill: #4a2d2d;
      }
    </style>
  </defs>
  <g id="COLOR">
    <g>
      <g>
        <path class="cls-1" d="M53.16,15.83c-1.4-2.76-5.26-3.98-8.06-2.6-3.04,1.49-2.49,5.39-1.09,7.84,1.77,3.11,4.93,6.81,8.37,8.02.4.14.75-.27.97-.56.27-.36.31-.88.41-1.32.12-.54.23-1.08.32-1.62.19-1.1.32-2.21.35-3.33.06-2.2-.26-4.45-1.27-6.44Z"/>
        <path class="cls-1" d="M40.94,20.48c-1.33-1.46-3.02-2.62-4.82-3.43-1.67-.75-4.25-1.32-5.89-.94-.46.11-.61,1.94-.62,2.57-.03,1.03.05,2.06.23,3.07.35,1.97,1.12,3.95,2.45,5.47.01.01.03.03.04.04,2.05,2.3,5.74,3.28,8.34,1.29,2.75-2.11,2.45-5.67.27-8.07Z"/>
        <path class="cls-1" d="M44.74,31.85c-1.2-.86-2.66-1.35-4.12-.99-1.36.33-2.49,1.28-3.35,2.35-1.89,2.33-3.04,5.62-2.9,8.64.02.44.03.98.16,1.4.11.38.4.59.8.53,3.42-.51,7.31-1.82,9.67-4.5,1.89-2.15,2.31-5.58-.24-7.42Z"/>
        <path class="cls-1" d="M32.26,29.78c-.1-.46-.35-.81-.85-.85-5.07-.43-17.49,4.04-12.33,11.08,2.03,2.77,5.78,2.18,8.15.19,1.48-1.24,2.65-2.87,3.53-4.57.52-1,.96-2.04,1.22-3.14.12-.51.47-1.83.28-2.71Z"/>
        <path class="cls-1" d="M72.57,27.9s0-.03,0-.04c-.21-.88-.73-1.78-1.15-2.58-.45-.86-.96-1.69-1.52-2.48-1.09-1.54-2.39-2.96-3.93-4.07-2.48-1.79-6.08-1.78-7.6,1.24-3.74,7.38,8.95,10.19,13.79,9.14.53-.11.51-.8.41-1.22Z"/>
        <path class="cls-1" d="M66.04,34.81c-.14-.2-.34-.38-.53-.53-2.96-2.23-6.3-4.37-10.18-3.9-2.94.36-5.74,2.8-5.75,5.91,0,3.41,3,5.33,6.15,5.04,3.94-.36,7.61-2.58,10.26-5.41.36-.38.28-.78.04-1.12Z"/>
        <path class="cls-1" d="M69.61,34.04c-.51.15-.56.61-.49,1.07.02.12.04.24.06.36.7,3.47,2.64,7.35,5.93,8.95,2.57,1.25,5.9.85,7.56-1.65,4.74-7.14-8.53-10.05-13.07-8.73Z"/>
        <path class="cls-1" d="M65.89,41.61c-.45,0-.6.41-.67.8-.67,3.71-1.33,7.85.69,11.29,1.52,2.58,5.55,2.96,7.9,1.32,6.44-4.51-2.54-13.48-7.92-13.4Z"/>
        <path class="cls-1" d="M61.73,46.45c-.99-1.09-2.3-1.99-3.82-2.02-1.33-.03-2.56.6-3.57,1.42-2.36,1.92-3.97,4.9-4.8,7.79-.22.75-1.23,3.79.34,3.79,3.7-.02,7.94-.91,10.99-3.11,2.86-2.06,3.27-5.22.86-7.87Z"/>
        <path class="cls-1" d="M49.27,43.42c-.53-.17-1.26-.1-1.73-.06-.7.05-1.4.18-2.08.36-1.51.4-2.97,1.03-4.31,1.84-2.28,1.37-4.91,3.68-4.77,6.6.06,1.26.69,2.4,1.52,3.32,2.09,2.3,5.53,1.92,7.46-.32,1.4-1.62,2.45-3.51,3.2-5.51.38-1.01.68-2.05.91-3.11.11-.52.21-1.03.3-1.56.07-.42.28-1.02-.09-1.35-.11-.1-.26-.17-.42-.23Z"/>
        <path class="cls-1" d="M32.85,44.5c-.31-.48-.68-.76-1.1-.54-4.44,2.31-10.55,13.17-3.5,16.01,2.87,1.16,5.68-1.01,6.51-3.73.59-1.94.42-4.04,0-6-.22-1.02-.52-2.03-.87-3.02-.14-.41-.5-1.88-1.04-2.73Z"/>
        <path class="cls-1" d="M21.88,47.53c-.88-1.55-2.13-2.89-3.64-3.83-.75-.47-1.57-.84-2.43-1.09-.59-.17-2.12-.73-2.54-.06-.64,1.05-.91,1.98-1.08,3.21-.14,1.05-.16,2.11-.05,3.16.21,2.01.86,4.03,2.08,5.67,1.68,2.26,5.17,3.59,7.57,1.53,2.5-2.15,1.49-6.15.09-8.6Z"/>
        <path class="cls-1" d="M25.48,61.71c-.79.01-1.77.34-2.19.46-2.21.62-4.36,1.78-6.02,3.36-.06.06-.12.12-.18.18-1.86,1.86-3.65,5.45-1.3,7.64,2.21,2.06,5.72,1.16,7.66-.78,2.6-2.59,3.03-6.53,3.15-10.01.02-.67-.48-.86-1.11-.85Z"/>
        <path class="cls-1" d="M42.15,61.91c-.43-.2-.97-.29-1.27-.34-1.54-.21-3.09,0-4.6.37-1.64.4-3.29,1.03-4.66,2.04-2.16,1.6-3.33,5.27-1.98,7.74,1.5,2.73,4.96,2.46,7.17.87,3.12-2.25,4.59-6.17,5.96-9.61.21-.52-.14-.86-.62-1.07Z"/>
        <path class="cls-1" d="M35.59,80.51c-1.9-3.01-5.58-5.36-8.86-6.56-.44-.16-.76.14-.92.54-.1.25-.14.52-.17.79-.22,1.82-.52,3.65-.55,5.48s.28,3.74,1.3,5.31c1.64,2.52,4.95,3.57,7.59,1.93,2.51-1.56,3.15-5.04,1.6-7.49Z"/>
        <path class="cls-1" d="M50.78,85.96c.1-.87,0-1.73-.03-2.61-.04-1.05-.15-2.1-.34-3.14-.36-1.95-1.02-3.93-2.3-5.49-1.96-2.39-5.26-3.7-7.83-1.39-2.48,2.23-1.67,5.93.16,8.27,1.19,1.52,2.73,2.79,4.44,3.7.86.46,1.76.82,2.71,1.05.46.11.93.19,1.4.23.7.06,1.67.36,1.79-.6,0-.01,0-.03,0-.04Z"/>
        <path class="cls-1" d="M59.61,71.55c-1.12-3.65-3.92-7.19-6.8-9.65-2.19-1.88-5.75-2.48-7.51.35-1.63,2.64.2,5.88,2.27,7.63,1.51,1.27,3.36,2.08,5.28,2.52,1.02.24,2.07.37,3.12.43.54.03,1.07.04,1.61.02.48-.01,1.03.06,1.47-.15.43-.2.7-.67.55-1.14Z"/>
        <path class="cls-1" d="M66.52,56.86c-.14-.11-.29-.2-.44-.26-.35-.16-.78-.17-1.01.18-1.98,3-5.25,6.85-4.86,10.69.32,3.18,3.25,5.48,6.39,5.27,2.86-.19,5.52-2.55,5.54-5.53.02-2.07-.93-4.06-2.01-5.78-.58-.93-1.23-1.81-1.93-2.65-.47-.57-1.04-1.43-1.7-1.92Z"/>
        <path class="cls-1" d="M84.03,51.15c-.24-1.31-1.84-.36-2.47-.04-.93.49-1.82,1.06-2.65,1.71-1.65,1.3-3.05,2.93-4.04,4.8-.08.15-.16.3-.23.45-1.39,2.87-1.55,6.43,1.69,8.04,3.02,1.51,6.39.41,7.85-2.63,1.77-3.67.53-8.52-.15-12.34Z"/>
        <path class="cls-1" d="M76.97,70.29c-.29-1.35-2.66.33-3.23.66-1.75,1.03-3.48,2.08-4.74,3.72-.46.6-.84,1.26-1.11,1.96-.98,2.5-.54,6.16,1.9,7.74,2.58,1.67,5.6-.1,6.91-2.49,1.97-3.61,1.07-7.8.26-11.59Z"/>
        <path class="cls-1" d="M62.01,74.58c-.13-.31-.59-.6-.94-.57-.09,0-.18.06-.26.1-1.8,1-3.28,2.47-4.64,4-1.18,1.32-2.47,2.75-3.1,4.43-1.06,2.84-.41,6.64,2.64,7.93,2.96,1.25,6.07-.84,7.25-3.54,1.69-3.9.58-8.6-.96-12.35Z"/>
        <path class="cls-4" d="M23.38,39.81c.32.02.63.05.95.08s.68.05,1-.05c.3-.1.3-.5,0-.6-.32-.11-.67-.08-1-.05s-.63.06-.95.08c-.14.01-.27.12-.27.27s.12.26.27.27h0Z"/>
        <path class="cls-4" d="M25.61,38.01l.41-.06s.07,0,.1-.02.06-.02.09-.03c.02,0,.03-.01.05-.02.07-.03.11-.05.17-.1.02-.02.04-.04.07-.06.07-.06.09-.16.08-.25s-.06-.18-.14-.22c-.03-.01-.05-.02-.08-.04-.07-.03-.12-.04-.19-.05-.02,0-.04,0-.06,0-.03,0-.06,0-.09,0-.06,0-.13.02-.2.03l-.41.06c-.09.01-.19.1-.23.18-.05.08-.07.21-.04.3s.09.18.18.23l.09.04c.07.02.14.02.21,0h0Z"/>
        <path class="cls-4" d="M39.02,27.38h.64c.13,0,.26.02.38-.01.06-.02.14-.03.2-.07.09-.06.17-.16.17-.27s-.07-.22-.17-.27c-.06-.03-.13-.05-.2-.07-.12-.03-.25-.02-.38-.02h-.64c-.19,0-.36.17-.36.36s.16.35.36.36h0Z"/>
        <path class="cls-4" d="M40.7,25.1c.39,0,.39-.61,0-.61s-.39.61,0,.61h0Z"/>
        <path class="cls-4" d="M51.31,25.84h.3c.08-.01.15-.03.23-.04.05,0,.09-.02.14-.05s.07-.05.1-.09c.05-.06.09-.13.08-.2v-.08s-.05-.09-.08-.13c-.03-.04-.05-.06-.1-.09-.04-.02-.09-.04-.13-.05-.08-.01-.15-.03-.23-.03h-.3c-.09-.02-.2.03-.27.1s-.12.17-.11.27.04.2.11.27.17.11.27.11h0Z"/>
        <path class="cls-4" d="M52.11,23.91s.09.02.12.02c.01,0,.02,0,.03,0,.04,0,.08,0,.12-.02,0,0,0,0,.01,0,.03-.01.07-.03.1-.04,0,0,.02,0,.03-.01.03-.02.06-.04.08-.06s.04-.05.06-.08c0,0,0,0,0,0l.04-.08s0-.02,0-.03c.01-.06.03-.14,0-.2l-.03-.08s-.05-.07-.08-.09c-.02-.02-.04-.03-.07-.04-.04-.02-.08-.03-.12-.03-.08,0-.07,0-.13.03-.02,0-.03.01-.04.02,0,0,0,0-.01,0l.08-.03s-.02,0-.04,0c-.04,0-.07.03-.1.04,0,0-.01,0-.02.01l.09-.04s-.03.01-.05.01h.1s-.03-.01-.04-.01h.1s-.02,0-.03,0c-.05-.02-.1-.02-.14,0-.05,0-.09.02-.13.04-.04.02-.08.05-.1.09-.03.03-.05.08-.06.12v.1c-.01.07,0,.13.04.18l.06.07s.1.08.16.09h0Z"/>
        <path class="cls-4" d="M66.66,26.84h0s-.05.02-.08.03c.05-.02.11-.04.16-.04h-.1s.07,0,.1,0c.07,0,.13-.01.2-.02h-.1s.05,0,.08,0c.01,0,.02,0,.04,0,.04,0,.08,0,.13-.01h-.09c.07,0,.14,0,.21-.04.07-.04.14-.12.16-.2.02-.09.01-.18-.03-.26s-.12-.14-.21-.17c-.04-.02-.07-.03-.11-.04-.11-.02-.23-.04-.34,0-.15.05-.29.13-.4.24-.06.06-.1.15-.09.23,0,.07.02.14.07.2.04.05.1.1.17.12h.09c.06.01.11,0,.16-.03h0Z"/>
        <path class="cls-4" d="M67.85,28.5l.42-.06c.06,0,.13,0,.18-.03.03,0,.07-.02.1-.04.04-.01.08-.03.11-.05.06-.03.1-.09.14-.14.01-.02.02-.04.04-.06.05-.09.04-.23-.04-.3-.02-.01-.03-.03-.05-.04-.05-.04-.08-.06-.13-.08s-.11-.03-.16-.03c-.04,0-.07,0-.11,0-.06,0-.12.02-.18.03l-.42.07c-.08.01-.18.1-.22.17s-.05.15-.04.23c.01.08.04.16.1.21.07.06.16.12.26.11h0Z"/>
        <path class="cls-4" d="M79.9,42.9l.88-.15c.17-.03.33-.06.48-.13.08-.04.17-.07.23-.13.08-.08.13-.22.1-.33s-.15-.22-.25-.25c-.08-.02-.19-.02-.27-.02-.17,0-.34.05-.5.09l-.86.22c-.18.05-.31.26-.25.44.06.2.24.29.44.25h0Z"/>
        <path class="cls-4" d="M80.69,41.02l.21-.03c.07-.01.14-.02.21-.04.03,0,.07-.02.1-.03.06-.02.11-.05.17-.08.05-.03.1-.05.14-.09.07-.07.11-.17.1-.27s-.07-.18-.16-.23c-.05-.03-.1-.04-.16-.05-.05-.01-.09-.02-.14-.03-.05,0-.1,0-.15,0-.15,0-.29.03-.44.05-.07,0-.14.02-.21.06l-.08.06c-.09.09-.13.22-.11.34.01.11.06.2.15.27.04.04.09.06.14.07.07.02.14.02.22,0h0Z"/>
        <path class="cls-4" d="M53.77,40.26c.25.03.51.06.76.03.27-.03.55-.07.79-.21.07-.04.11-.13.09-.21-.02-.09-.1-.13-.18-.14-.24-.02-.49,0-.73,0s-.49,0-.73-.03c-.15-.02-.29.14-.28.28,0,.17.12.26.28.28h0Z"/>
        <path class="cls-4" d="M54.87,38.87c.1-.04.2-.06.3-.08.01,0,.08,0,.09-.01-.05,0-.06,0-.02,0h.02c.05,0,.11-.01.17-.01.1,0,.21,0,.31,0,.07,0,.14-.02.21-.03s-.04,0,.02,0c.05,0,.08-.01.12-.03.07-.02.12-.07.15-.15.02-.08,0-.14-.05-.2-.08-.1-.22-.19-.34-.22-.13-.04-.27-.05-.41-.05-.25.01-.49.06-.72.15-.08.03-.15.07-.2.15-.04.07-.06.17-.03.25.05.16.23.29.4.23h0Z"/>
        <path class="cls-4" d="M42.27,38.25c.28.03.55.05.83.04.15,0,.31,0,.46-.03s.34-.07.43-.19c.09-.11.08-.26-.04-.33-.08-.05-.16-.06-.26-.06-.07,0-.14,0-.21,0-.13,0-.26.03-.39.03-.27.01-.55,0-.82-.01-.15-.01-.29.14-.28.28,0,.17.12.26.28.28h0Z"/>
        <path class="cls-4" d="M43.83,36.44l.34-.03c.07,0,.14,0,.21-.03.05-.02.11-.04.16-.06.06-.02.11-.07.11-.14s-.04-.12-.11-.14c-.05-.02-.11-.04-.16-.06-.06-.02-.14-.02-.21-.03l-.34-.03c-.06,0-.14.03-.18.07s-.08.12-.07.18.02.13.07.18c.05.04.11.08.18.07h0Z"/>
        <path class="cls-4" d="M31.91,56.77s.02,0,.03-.01l-.07.03c.11-.05.23-.08.35-.1h-.08c.06,0,.12,0,.17-.01h-.08c.08,0,.16,0,.23-.02.02,0,.05-.02.08-.03.05-.02.09-.04.13-.08.06-.05.07-.16.03-.23-.03-.05-.07-.09-.13-.12-.05-.02-.1-.05-.15-.06-.1-.02-.21-.02-.31,0-.18.02-.34.08-.51.15-.06.03-.11.11-.13.17-.02.07-.01.16.03.22s.1.11.17.13h.07c.05,0,.1,0,.14-.03h0Z"/>
        <path class="cls-4" d="M32.51,54.61c.06-.04.13-.07.19-.1l-.09.04c.18-.07.37-.11.54-.18l-.08.03s.04-.02.06-.02c.04-.02.08-.03.12-.06s.06-.06.09-.1l.03-.08s.01-.08,0-.13c0-.07-.04-.13-.09-.18-.09-.1-.27-.13-.4-.12-.1,0-.2.01-.29.04-.16.05-.32.12-.46.22-.08.05-.14.12-.17.22-.02.09-.01.2.04.28s.12.15.22.17.2.01.28-.04h0Z"/>
        <path class="cls-4" d="M19.92,54.74l.59-.06.28-.03c.07,0,.13-.01.2-.03.03,0,.07-.02.1-.04s.06-.05.09-.07c.1-.08.06-.26-.04-.31-.02-.01-.05-.03-.08-.04-.04-.02-.09-.02-.13-.02s-.09,0-.13,0l-.3.03-.58.06c-.13.01-.26.11-.25.25,0,.12.11.26.25.25h0Z"/>
        <path class="cls-4" d="M20.43,53.25c.09-.04.19-.08.28-.13.02-.01.05-.02.07-.03,0,0,.02,0,.03-.01.06-.03.1-.08.13-.13.02-.03.04-.07.07-.1.08-.12,0-.31-.14-.34-.04,0-.08-.02-.12-.03-.07-.02-.12-.02-.19,0-.01,0-.02,0-.03,0-.02,0-.05.01-.07.02-.1.03-.2.07-.29.1-.06.02-.11.05-.15.09l-.05.07c-.03.05-.05.11-.05.18,0,.05,0,.09.03.14.01.04.04.08.07.11.03.03.07.06.11.07.04.02.09.03.14.03.06,0,.12-.02.18-.05h0Z"/>
        <path class="cls-4" d="M42.49,54.36s.02,0,.03-.01c-.03.01-.03.01-.01,0,.01,0,.03-.01.04-.01.03-.01.06-.02.09-.03s.06-.02.1-.02c.02,0,.04,0,.06-.01,0,0,.06-.01.03,0s.02,0,.03,0c.02,0,.03,0,.05,0,.03,0,.07,0,.1,0,.08,0,.18-.03.25-.07.09-.04.1-.17.03-.24-.13-.13-.33-.13-.5-.11s-.34.07-.5.14c-.05.02-.09.08-.1.13-.01.05,0,.12.02.17s.07.09.13.1c.06.01.11,0,.17-.02h0Z"/>
        <path class="cls-4" d="M43.83,52.87h.11s.08,0,.11,0c.09-.01.18-.03.26-.07.05-.02.09-.07.12-.11.1-.1.1-.28,0-.38-.03-.03-.06-.05-.09-.08-.03-.03-.07-.05-.12-.06,0,0-.01,0-.02,0,0,0-.02,0-.03,0-.05-.01-.09-.02-.14-.02-.03,0-.07,0-.11,0h-.12c-.09,0-.19.04-.26.11-.04.03-.06.07-.08.12-.02.04-.03.09-.03.14,0,.09.04.19.11.26s.16.11.26.11h0Z"/>
        <path class="cls-4" d="M59.47,52.31l.78.03c.13,0,.25,0,.38,0,.16-.01.35-.03.44-.18.03-.05.03-.13,0-.19-.09-.15-.29-.16-.44-.18-.13-.01-.25-.01-.38,0l-.78.03c-.13,0-.26.11-.25.25s.11.25.25.25h0Z"/>
        <path class="cls-4" d="M60.25,50.75c.15,0,.3,0,.46-.01.09,0,.18-.03.26-.05l.21-.05c.14-.03.14-.24,0-.28l-.21-.05c-.09-.02-.17-.05-.26-.05-.15,0-.3,0-.46-.01-.14,0-.26.12-.26.26s.11.26.26.26h0Z"/>
        <path class="cls-4" d="M72.71,53.61l.4-.07.09-.02s.09-.03.14-.05c.06-.02.12-.04.17-.08.05-.04.07-.08.07-.14,0-.06-.05-.1-.1-.12-.07-.03-.15-.03-.22-.03-.03,0-.07,0-.1,0h-.1c-.13.03-.27.05-.4.06-.06,0-.11.02-.16.07-.05.05-.07.12-.06.19,0,.06.04.11.09.15.06.05.12.05.2.04h0Z"/>
        <path class="cls-4" d="M73.1,52.3h.28c.09,0,.18.02.28.01.05,0,.09-.01.14-.02.07,0,.14,0,.21-.03.08-.02.14-.08.2-.13s.1-.12.1-.2-.04-.15-.1-.2-.12-.11-.2-.13c-.07-.02-.14-.02-.21-.03-.05,0-.09-.01-.14-.02-.09,0-.18,0-.28,0h-.28c-.19.01-.36.17-.36.36s.16.35.36.36h0Z"/>
        <path class="cls-4" d="M80.25,64.38l.46-.04c.1,0,.19-.01.29-.03.04,0,.08-.01.11-.02.07-.02.13-.07.19-.12.07-.05.09-.17.07-.25-.03-.09-.09-.15-.18-.18-.06-.02-.11-.04-.17-.03-.03,0-.07,0-.1.01-.1.01-.19.03-.28.06l-.44.1c-.12.03-.19.16-.18.27s.12.23.24.22h0Z"/>
        <path class="cls-4" d="M80.94,62.77l.41.12c.07.02.13.03.2.05.09.02.17.03.26.01.03,0,.06-.02.09-.02.22-.05.29-.34.13-.49-.02-.02-.04-.04-.07-.07-.07-.06-.14-.09-.23-.12-.06-.02-.13-.04-.19-.06l-.41-.1c-.09-.02-.19-.01-.27.04-.07.04-.14.13-.16.21-.04.19.06.38.25.44h0Z"/>
        <path class="cls-4" d="M68.07,69.73c.26-.02.52-.02.77.02h-.1c.13,0,.28.04.42,0,.1-.02.2-.05.29-.12.05-.05.08-.14.05-.2-.05-.15-.22-.28-.36-.33-.13-.05-.26-.06-.39-.08-.23-.02-.45-.02-.68,0-.1,0-.18.03-.25.1-.06.06-.11.16-.1.25,0,.18.16.37.36.36h0Z"/>
        <path class="cls-4" d="M68.98,68.16l.29.07c.08.02.15.03.23.04.05,0,.1.01.15,0h.09s.09-.04.12-.08c.06-.05.11-.11.13-.18.01-.06.01-.13,0-.19-.02-.08-.09-.18-.16-.21s-.14-.06-.22-.08-.16-.03-.24-.04l-.3-.04s-.1,0-.14.03c-.04.01-.08.04-.12.07-.05.06-.09.13-.1.21s0,.16.04.23c.05.08.12.14.22.17h0Z"/>
        <path class="cls-4" d="M54.38,71.24c.26.04.53.09.8.11.13,0,.27.02.4,0,.12-.02.26-.04.36-.1.08-.04.06-.15,0-.2-.09-.07-.23-.11-.34-.15-.12-.05-.28-.05-.42-.07-.25-.03-.5-.03-.75-.03-.11,0-.21.09-.22.2-.01.1.05.23.16.25h0Z"/>
        <path class="cls-4" d="M54.55,70.34l.46-.02c.09,0,.18-.02.27-.04.04,0,.07-.02.11-.02.05-.01.09-.03.14-.06.11-.06.11-.24,0-.29-.04-.02-.09-.04-.14-.06-.03,0-.07-.01-.1-.02-.09-.02-.18-.04-.28-.05l-.46-.02c-.15,0-.3.14-.3.3s.13.3.3.3h0Z"/>
        <path class="cls-4" d="M33.55,71.56l.7.05c.14,0,.27,0,.4-.01.12-.02.29-.06.38-.16s.09-.24,0-.33c-.08-.09-.25-.14-.37-.15-.14-.02-.28-.02-.42-.01l-.7.05c-.15.01-.29.12-.29.29s.13.28.29.29h0Z"/>
        <path class="cls-4" d="M34.67,70.42c.16,0,.31,0,.47-.02.03,0,.06,0,.1-.01.05,0,.09-.01.14-.04.07-.03.13-.05.18-.1.05-.05.05-.15,0-.2-.05-.05-.12-.07-.18-.1-.04-.02-.08-.03-.13-.03-.03,0-.07,0-.1-.01-.15-.02-.31-.02-.47-.02-.14,0-.27.12-.27.27s.12.27.27.27h0Z"/>
        <path class="cls-4" d="M20.51,72.96s.03-.02.05-.02l-.07.03c.1-.04.2-.07.3-.08h-.08c.07,0,.14,0,.21-.01h-.08c.07,0,.15,0,.22-.02.06-.02.12-.02.18-.06.09-.06.13-.18.07-.28s-.17-.16-.28-.19c-.05-.02-.11-.02-.17-.02-.04,0-.08,0-.12,0-.19.02-.37.07-.55.16-.06.03-.12.11-.13.17-.02.07-.01.16.03.22s.1.12.17.13c.08.02.15,0,.22-.03h0Z"/>
        <path class="cls-4" d="M21.26,71.42h.3c.07-.01.13-.02.2-.04.02,0,.05,0,.07-.02.05-.01.09-.05.13-.08.07-.06.07-.2,0-.25-.04-.03-.08-.06-.13-.08-.02,0-.04,0-.06-.01-.07-.02-.13-.02-.2-.03h-.3c-.06-.01-.14.02-.18.06s-.08.12-.08.18.02.14.08.18.11.08.18.08h0Z"/>
        <path class="cls-4" d="M32.99,86.35h.41c.07,0,.13,0,.2,0,.04,0,.07,0,.11-.01.05,0,.08,0,.12-.03.03-.01.05-.04.07-.06.07-.07.07-.19,0-.25-.02-.02-.04-.04-.07-.06-.04-.02-.08-.03-.12-.03-.04,0-.07,0-.11-.01-.07,0-.13,0-.2,0h-.41c-.12,0-.23.11-.23.23s.1.23.23.23h0Z"/>
        <path class="cls-4" d="M34.19,84.08h.05s.02-.01.03-.01c.06,0,.1-.04.14-.08l.06-.05s.04-.04.04-.07c.01-.03.02-.05.02-.08v-.06s-.04-.07-.06-.09l-.06-.05s-.09-.07-.14-.08h-.03s-.04,0-.06-.01c-.05-.01-.11-.01-.16,0-.05.01-.1.04-.13.08l-.05.06s-.04.1-.04.15c0,.04,0,.08.03.12.01.04.03.07.06.1.04.04.08.06.13.08.05.01.11.01.16,0h0Z"/>
        <path class="cls-4" d="M47.63,84.9h.42s.07,0,.11,0c.06,0,.12-.02.17-.03s.1-.02.15-.05c.09-.06.16-.14.16-.26s-.07-.19-.16-.26c-.04-.03-.09-.04-.14-.05-.06-.01-.12-.03-.18-.03-.04,0-.07,0-.11,0h-.42c-.09,0-.18.04-.24.1s-.1.15-.1.24c0,.18.15.34.34.34h0Z"/>
        <path class="cls-4" d="M48.3,83.62h.33c.05-.01.11-.02.16-.02.04,0,.09,0,.13-.02.06-.01.11-.05.15-.09.08-.08.08-.23,0-.31-.04-.04-.09-.07-.15-.09-.04,0-.09-.02-.13-.02-.05,0-.11,0-.16,0h-.33c-.15-.02-.29.12-.28.27,0,.07.03.15.08.2s.12.09.2.08h0Z"/>
        <path class="cls-4" d="M60.36,87.58h.32c.05.01.11.01.16.01.16,0,.37-.08.4-.26l-.21.21s.08-.03.12-.05c.08-.05.15-.15.14-.25,0-.09-.04-.17-.11-.22-.04-.03-.09-.05-.14-.07l.21.21c-.02-.12-.13-.21-.24-.24-.05-.02-.1-.02-.15-.02s-.11,0-.16,0h-.32c-.09.01-.17.04-.24.11-.06.06-.1.15-.1.24,0,.18.15.33.33.33h0Z"/>
        <path class="cls-4" d="M61.03,85.54h.16s.08-.01.11-.02c.01,0,.02,0,.04-.01s.02,0,.04-.01c.03,0,.07-.02.09-.05.03-.02.05-.04.07-.08.02-.04.04-.09.04-.14s-.01-.1-.04-.14l-.04-.05s-.07-.06-.12-.07c-.01,0-.02,0-.04-.01s-.02,0-.04-.01c-.04-.01-.07-.01-.11-.02h-.16s-.08,0-.12.02c-.04.01-.07.03-.1.06-.03.03-.05.06-.06.1-.02.04-.03.08-.03.12v.08c.03.05.05.1.09.14.06.05.14.09.22.09h0Z"/>
        <path class="cls-4" d="M73.32,82.84l.31.02s.1,0,.15,0c.01,0,.03,0,.04,0,.06,0,.11-.01.17-.04.07-.03.12-.08.15-.15l-.08.08c.07-.04.12-.11.12-.19s-.05-.15-.12-.19l.08.08c-.03-.07-.08-.12-.15-.15-.06-.03-.1-.04-.17-.04-.01,0-.02,0-.03,0-.05,0-.1,0-.15,0l-.31.02c-.08,0-.15.03-.2.08-.05.05-.09.13-.08.2s.03.15.08.2.12.08.2.08h0Z"/>
        <path class="cls-4" d="M73.77,81.34h.35c.13-.02.27-.05.39-.11.09-.05.09-.2,0-.25-.12-.06-.26-.1-.39-.1h-.35c-.12-.02-.24.1-.24.22s.1.24.24.24h0Z"/>
        <path class="cls-2" d="M31.27,18.61c-.19.9-.06,2.32,1.06,2.55.43.08,1-.12,1.08-.61.06-.38.02-.7-.11-1.06-.04-.12-.07-.24-.11-.36s-.01.12,0-.01c0-.08,0-.16,0-.24.06-1.09-1.69-1.35-1.92-.26h0Z"/>
        <path class="cls-2" d="M44.72,15.8c.1.62.14,1.22.58,1.71.21.24.58.31.88.23.33-.09.51-.33.63-.63.22-.57-.03-1.27-.14-1.84-.11-.52-.75-.87-1.24-.71-.56.18-.8.68-.71,1.24h0Z"/>
        <path class="cls-2" d="M59.75,20.99c-.04.54-.16,1.23.31,1.63.31.27.7.33,1.07.14.56-.29.59-.95.67-1.49.05-.29.03-.54-.11-.81-.15-.29-.45-.46-.77-.5-.65-.09-1.14.4-1.19,1.03h0Z"/>
        <path class="cls-2" d="M39.2,33.4v.22c0,.25.14.49.36.62.11.06.23.1.36.1.13,0,.25-.03.36-.1l.17-.12c.13-.07.22-.17.3-.3.08-.13.11-.27.11-.42,0-.29-.16-.57-.41-.72s-.58-.15-.84,0-.42.43-.41.72h0Z"/>
        <path class="cls-2" d="M20.01,33.71c-.12.15-.28.31-.37.48-.13.22-.27.48-.25.74.03.29.12.52.35.7s.49.21.78.16c.23-.04.46-.23.63-.4.09-.09.16-.2.24-.3.09-.09.16-.19.2-.31.06-.12.09-.24.08-.37,0-.24-.11-.52-.28-.69s-.43-.3-.69-.28c-.24.01-.53.09-.69.28h0Z"/>
        <path class="cls-2" d="M14.12,45.35c-.05.54-.17,1.2.26,1.62.22.21.6.29.87.11.57-.37.56-1.12.63-1.74.05-.46-.44-.9-.88-.88-.51.02-.83.39-.88.88h0Z"/>
        <path class="cls-2" d="M29.33,47.39l-.28.33c-.09.11-.2.22-.27.35-.12.22-.14.39-.17.64-.03.32.17.64.41.82s.61.31.91.19c.22-.09.38-.15.56-.32.1-.1.18-.23.27-.35l.24-.36c.14-.21.18-.58.11-.82-.07-.22-.19-.41-.38-.55-.39-.3-1.05-.32-1.4.08h0Z"/>
        <path class="cls-2" d="M38.58,50.71c0,.3-.02.61.08.9.15.43.55.81,1.04.79s.88-.32,1.04-.79c.1-.29.09-.6.08-.9s-.12-.58-.33-.79c-.19-.19-.51-.34-.79-.33-.61.03-1.11.49-1.12,1.12h0Z"/>
        <path class="cls-2" d="M53.06,33.25c-.09.09-.19.18-.28.28s-.17.19-.24.3-.1.23-.14.35c-.15.49.27,1.1.8,1.05.12,0,.24-.02.36-.04.12-.03.25-.1.37-.16s.23-.14.34-.21c.5-.33.66-.98.28-1.47s-1.06-.52-1.5-.1h0Z"/>
        <path class="cls-2" d="M71.32,35.97c.04.29.05.56.19.82.08.15.2.28.31.4.32.33.89.33,1.2,0,.12-.12.23-.25.31-.4.14-.26.16-.53.19-.82.03-.26-.15-.61-.32-.78-.19-.19-.51-.34-.78-.32s-.58.11-.78.32c-.18.2-.36.5-.32.78h0Z"/>
        <path class="cls-2" d="M66.03,44.35c-.02.26-.03.52.04.78.11.44.44.84.9.9s.88-.22,1.1-.61c.14-.24.2-.49.26-.75.15-.69-.25-1.36-.97-1.46-.32-.04-.61.03-.87.23-.3.23-.43.54-.46.92h0Z"/>
        <path class="cls-2" d="M54.41,48.26v.19c-.01.15.02.29.04.44.06.44.45.79.88.85.23.03.46,0,.66-.12.18-.12.32-.26.43-.45s.18-.4.26-.6c.11-.29.02-.63-.12-.89-.17-.32-.5-.51-.84-.55-.7-.09-1.28.44-1.31,1.14h0Z"/>
        <path class="cls-2" d="M30.89,66.69c.02.2.03.4.1.58l.1.25c.06.12.15.22.27.29.17.13.4.23.62.22.18,0,.36-.06.52-.14.12-.06.22-.15.29-.27.09-.1.15-.22.18-.35.07-.19.08-.39.1-.58,0-.15-.03-.29-.09-.42-.04-.14-.12-.25-.23-.35-.19-.19-.5-.33-.77-.32s-.58.11-.77.32c-.19.2-.35.49-.32.77h0Z"/>
        <path class="cls-2" d="M16.87,70.22s.03.02.05.02c.05.02.1.05.15.06.11.03.22.03.33,0l.15-.06h0s.02-.01.02-.02c.06-.03.1-.05.17-.12.07-.07.12-.14.15-.23.05-.09.07-.18.06-.28,0-.13-.03-.25-.1-.37l-.11-.15c-.09-.09-.2-.15-.32-.19l-.19-.03c-.13,0-.25.03-.37.1l-.15.11c-.09.09-.15.2-.19.32-.03.1-.03.19-.01.29,0,.1.03.19.09.27.06.11.15.2.26.26h0Z"/>
        <path class="cls-2" d="M26.88,77.49c.03.1.05.2.08.29.08.24.22.45.41.62.24.22.51.32.83.27.28-.04.6-.2.72-.47.09-.21.22-.48.2-.71,0-.1-.03-.2-.04-.3,0-.2-.05-.39-.15-.57l-.18-.23c-.24-.26-.61-.35-.94-.31-.31.04-.55.18-.73.42-.22.28-.3.63-.2.98h0Z"/>
        <path class="cls-2" d="M40.66,75.47l.05.24.1.25c.06.12.15.22.27.29.06.06.14.11.23.13.12.06.26.09.4.09l.27-.04.25-.1c.12-.06.22-.15.29-.27.09-.1.15-.22.18-.35l.05-.24c.05-.19.05-.39,0-.58-.05-.18-.14-.34-.28-.48-.21-.2-.47-.32-.77-.32-.28,0-.57.12-.77.32-.13.14-.23.3-.28.48-.05.19-.05.39,0,.58h0Z"/>
        <path class="cls-2" d="M46.85,64.39c.08.26.17.52.36.72.21.23.54.33.85.29.28-.04.56-.23.69-.47s.16-.53.13-.81c0-.19-.05-.36-.14-.52l-.16-.21c-.22-.24-.56-.33-.87-.28-.6.08-1.03.69-.86,1.29h0Z"/>
        <path class="cls-2" d="M65.72,59.04c-.07,0-.11,0-.19.02-.15,0-.28.05-.41.13l-.22.17-.17.22s0,.01-.01.02c-.02.05-.04.1-.06.15l-.1.25c-.04.14-.05.28-.02.41,0,.09.02.18.07.26.04.13.11.24.21.33l.21.16.25.1c.14.04.28.05.41.02.14,0,.27-.05.39-.12.05-.02.1-.05.14-.07s.1-.07.13-.1c.12-.08.21-.18.28-.31l.11-.26.04-.29h0s0-.04,0-.05c0-.14-.02-.28-.09-.4-.04-.13-.11-.24-.22-.34l-.21-.16c-.16-.09-.34-.14-.53-.14h0Z"/>
        <path class="cls-2" d="M80.45,54.71c.08.17.2.3.34.43.25.24.6.34.93.25.16-.05.3-.13.42-.25.12-.12.2-.26.25-.42,0-.05.02-.1.03-.15.05-.28.05-.3,0-.58,0-.03-.01-.07-.02-.1-.05-.27-.27-.49-.49-.64-.17-.1-.34-.14-.54-.15-.15,0-.28.03-.41.09-.13.04-.25.12-.34.22-.1.1-.18.21-.22.34-.07.13-.1.26-.09.41,0,.19.05.37.15.54h0Z"/>
        <path class="cls-2" d="M59.36,79.45c.16,0,.3-.03.44-.1.14-.05.26-.12.37-.24.11-.1.19-.23.24-.37.07-.14.1-.28.1-.44l-.04-.3c-.05-.19-.15-.36-.29-.5l-.23-.18c-.18-.1-.37-.16-.58-.16-.16,0-.3.03-.44.1-.14.05-.26.12-.37.24-.11.1-.19.23-.24.37-.07.14-.1.28-.1.44l.04.3c.05.19.15.36.29.5l.23.18c.18.1.37.16.58.16h0Z"/>
        <path class="cls-2" d="M69.32,77.25c.1.14.2.27.3.4.07.08.16.13.26.17.1.05.2.07.31.07l.22-.03c.14-.04.26-.11.36-.21.1-.13.2-.26.3-.4.09-.16.14-.33.14-.51,0-.18-.05-.35-.14-.51-.18-.31-.52-.5-.87-.5s-.69.19-.87.5c-.09.16-.14.33-.14.51,0,.18.05.35.14.51h0Z"/>
      </g>
      <rect class="cls-3" width="100" height="100"/>
    </g>
  </g>
</svg>