<?xml version="1.0" encoding="UTF-8"?>
<svg id="Capa_2" data-name="Capa 2" xmlns="http://www.w3.org/2000/svg" viewBox="0 0 100 100">
  <defs>
    <style>
      .cls-1 {
        fill: #fff;
      }

      .cls-2 {
        fill: none;
      }

      .cls-3 {
        fill: #4a2d2d;
      }

      .cls-4 {
        fill: #f28e5a;
      }
    </style>
  </defs>
  <g id="COLOR">
    <g>
      <g>
        <path class="cls-4" d="M74.79,26.71c-2.43-2.64-5.69-4.55-9.18-5.37-1.91-.45-3.9-.53-5.86-.51-1.81.02-3.62.15-5.21-.93-1.56-1.06-2.97-2.36-4.81-2.95-3.29-1.06-6.82-.66-9.93.77-3.47,1.6-6.3,4.25-8.9,7-2.48,2.63-4.82,5.41-6.92,8.36-4.4,6.2-7.09,13.13-7.64,20.74-.29,4.01-.34,8.1.33,12.08.65,3.83,2.2,7.28,4.35,10.49,3.76,5.62,8.9,10.58,15.73,11.99,6.93,1.44,14.36-.4,20.48-3.75,12.92-7.06,20.27-20.97,22.22-35.19,1.06-7.75.94-16.64-4.69-22.74Z"/>
        <path class="cls-3" d="M41.72,22.54c-1.52.62-2.78,1.75-3.86,2.96-1.17,1.31-2.21,2.74-3.27,4.14-2.3,3.01-4.72,5.98-6.77,9.17-.98,1.52-1.89,3.07-2.57,4.75s-1.14,3.53-1.39,5.38c-.26,1.9-.38,3.83-.51,5.75-.12,1.81-.2,3.63-.18,5.45.02,2.03.08,4.05.38,6.07.15,1.02.39,2.03.68,3.01.15.5.32.98.52,1.46s.49.9.76,1.34c.2.32.76.12.64-.27s-.21-.82-.34-1.21c-.15-.44-.31-.88-.46-1.33-.27-.82-.5-1.66-.68-2.5-.37-1.74-.62-3.5-.72-5.27-.19-3.58.13-7.22.47-10.79.18-1.89.47-3.76,1.06-5.57.54-1.65,1.3-3.23,2.16-4.74,1.79-3.15,4.12-5.99,6.31-8.88,1.26-1.66,2.48-3.35,3.81-4.95,1.18-1.42,2.51-2.66,4.13-3.57.21-.12.06-.49-.17-.39h0Z"/>
        <path class="cls-3" d="M30.28,77.16c.15-3.16.28-6.31.4-9.47s0-6.29.45-9.38,1.61-5.72,2.82-8.42,2.45-5.27,3.84-7.84c.77-1.43,1.5-2.9,2.36-4.28s1.84-2.75,2.6-4.21c.16-.3-.24-.65-.49-.38-.97,1.1-1.73,2.34-2.5,3.59s-1.6,2.49-2.33,3.78c-1.47,2.56-2.79,5.23-3.97,7.94s-2.35,5.54-2.89,8.46c-.57,3.07-.43,6.26-.48,9.37-.06,3.61-.05,7.22-.05,10.84,0,.15.22.15.23,0h0Z"/>
        <path class="cls-3" d="M45.6,30.47c.28-.29.57-.58.84-.88s.53-.61.79-.93c.14-.17-.07-.38-.24-.24-.32.26-.63.52-.93.79s-.59.56-.88.84c-.11.11-.12.31,0,.42s.3.12.42,0h0Z"/>
        <path class="cls-3" d="M69.35,33.65c1.51,3.41,1.77,7.29,1.51,10.97-.27,3.79-1.03,7.54-1.79,11.26-.77,3.76-1.73,7.51-3.56,10.91-1.53,2.84-3.53,5.42-5.89,7.62-2.67,2.48-5.93,4.48-9.38,5.65-.1.03-.06.19.04.16,3.14-1.01,6.12-2.49,8.72-4.53,2.65-2.07,4.91-4.51,6.67-7.39,2.02-3.29,3.13-7.05,3.99-10.78s1.71-7.76,2.06-11.7c.38-4.29.06-8.58-1.83-12.5-.18-.37-.71-.05-.55.32h0Z"/>
        <path class="cls-3" d="M48.25,80.7l-.57.15s-.02.06.01.05l.58-.14s.02-.08-.02-.07h0Z"/>
        <path class="cls-3" d="M45.82,80.98c-.38,0-.77,0-1.15.02-.04,0-.04.07,0,.07.38.02.76.02,1.15.02.07,0,.07-.11,0-.11h0Z"/>
        <path class="cls-3" d="M42.38,81.19s.02-.03,0-.03-.02.03,0,.03h0Z"/>
        <path class="cls-3" d="M37.18,77.81c6.06-1.25,11.73-4.31,16.06-8.75,2.14-2.2,3.94-4.74,5.23-7.53,1.57-3.4,2.35-7.07,3.34-10.66.56-2.06,1.21-4.08,2.05-6.05.41-.97.87-1.93,1.34-2.87.24-.48.47-.97.72-1.46s.44-.99.69-1.47c.1-.18-.15-.31-.27-.16-.26.36-.57.68-.82,1.06-.27.41-.53.83-.78,1.25-.48.8-.89,1.64-1.27,2.49-.76,1.69-1.41,3.43-1.95,5.21-1.08,3.56-1.79,7.23-3.14,10.71-2.25,5.79-6.59,10.54-11.87,13.73-2.94,1.77-6.14,3.11-9.47,3.96-.35.09-.2.61.15.54h0Z"/>
        <path class="cls-3" d="M62.84,28.72c-2.99,1.46-5.7,3.62-8.14,5.85-2.47,2.27-4.7,4.8-6.64,7.54-3.86,5.46-6.58,11.73-7.82,18.31-.4,2.09-.61,4.21-.95,6.32s-.97,4.24-2.02,6.12c-.11.2.19.38.31.18.99-1.59,1.57-3.34,1.96-5.16.41-1.87.7-3.73.98-5.62.5-3.32,1.35-6.56,2.56-9.69,2.41-6.24,6.2-11.95,10.97-16.65,1.35-1.33,2.78-2.58,4.29-3.73,1.5-1.14,3.08-2.16,4.64-3.22.16-.11.02-.35-.15-.26h0Z"/>
        <path class="cls-3" d="M45.24,67.12l.67-.78c.23-.27.43-.55.63-.83.1-.13-.11-.28-.22-.17l-.36.36c-.12.12-.23.24-.34.37l-.66.77c-.07.08-.08.2,0,.28.07.07.21.08.28,0h0Z"/>
        <path class="cls-1" d="M44.89,20.98c.77-.12,1.54-.12,2.3-.02.7.09,1.39.3,2.1.27.63-.03,1.1-.87.56-1.35-1.42-1.25-3.74-1.07-5.46-.71-1.2.25-.67,2,.5,1.81h0Z"/>
        <path class="cls-1" d="M42.38,26.92c.15,0,.35.01.49-.04l.19-.08c.09-.05.17-.12.22-.21.1-.13.18-.31.17-.48,0-.14-.04-.28-.11-.4-.05-.09-.12-.17-.21-.22-.08-.07-.17-.12-.27-.14-.07-.03-.18-.04-.26-.04-.02,0-.05,0-.07,0h-.15c-.21,0-.43.09-.58.23s-.25.37-.24.58.08.43.24.58.36.24.58.24h0Z"/>
        <path class="cls-1" d="M58.07,70.31c.02.24.04.36.15.57.06.1.13.2.22.28.22.2.54.37.86.34.13,0,.26-.02.37-.08.12-.04.22-.11.31-.2.09-.09.16-.19.2-.31.06-.11.09-.24.08-.37-.01-.25-.09-.51-.28-.68l-.2-.15c-.15-.09-.31-.13-.49-.13h-.02c.09,0,.17.02.26.03-.02,0-.04,0-.06-.02l.23.1s-.05-.02-.07-.04l.2.15s-.03-.03-.04-.05l.15.2s-.02-.03-.02-.04l.1.23s-.01-.04-.02-.06l.04.26s0-.02,0-.03c0-.25-.11-.52-.29-.7-.09-.1-.19-.16-.32-.2-.12-.06-.24-.09-.38-.08-.25.01-.52.1-.7.29-.17.18-.31.44-.29.7h0Z"/>
        <path class="cls-1" d="M46.47,85.05c.37.05.73.07,1.06-.15.17-.11.33-.28.38-.49s.05-.46-.08-.63c-.07-.09-.13-.18-.21-.26-.15-.14-.31-.2-.5-.27-.13-.04-.26-.07-.39-.1-.26-.06-.51-.03-.74.1-.27.14-.42.42-.46.71-.04.27.03.5.19.71.07.11.16.19.27.25.15.09.31.13.49.13h0Z"/>
      </g>
      <rect class="cls-2" width="100" height="100"/>
    </g>
  </g>
</svg>