<?xml version="1.0" encoding="UTF-8"?>
<svg id="Capa_2" data-name="Capa 2" xmlns="http://www.w3.org/2000/svg" viewBox="0 0 100 100">
  <defs>
    <style>
      .cls-1 {
        fill: #e7e4e4;
      }

      .cls-2 {
        fill: #6e5757;
      }

      .cls-3 {
        fill: #fff;
      }

      .cls-4 {
        fill: none;
      }

      .cls-5 {
        fill: #4a2d2d;
      }

      .cls-6 {
        fill: #fcd69e;
      }
    </style>
  </defs>
  <g id="COLOR">
    <g>
      <g>
        <g>
          <path class="cls-2" d="M45.75,26.29c-3.67-6.42-9.34-12.29-16.81-13.26-.01,0-.02,0-.03,0-.3-.04-.6.06-.74.39-1.49,3.47-1.8,7.54-2.61,11.23-.88,4.03-1.34,7.91-1.09,12.03.41,6.69,3.2,13.63,9.73,16.38,6.23,2.62,11.61-.27,13.88-6.5,2.5-6.89,1.23-14.02-2.35-20.27Z"/>
          <path class="cls-1" d="M46.62,25.37c-3.67-6.42-10.21-11.37-17.67-12.34-.01,0-.02,0-.03,0-.3-.04-.6.06-.74.39-1.49,3.47-2.55,7.49-3.36,11.17-.88,4.03-1.48,8.27-1.22,12.4.41,6.69,3.55,13.9,10.08,16.64,6.23,2.62,12.99-.59,15.26-6.82,2.5-6.89,1.25-15.19-2.32-21.44ZM34.17,49.63c-2.74-2.35-5.82-6.3-6.74-15.9-.79-8.27.81-16.86,1.27-19.08l.13.27s2.56,10.21,3.26,12.29c.7,2.09,7.47,20.77,7.82,21.73.35.95,1.22,4.3,1.22,4.3,0,0-4.21-1.26-6.95-3.61ZM43.77,51.45c-.02.16-.43.82-.52,1.04-.43-2.98-.9-8.62-1.57-10.64-.96-2.91-4.17-12.86-5.47-15.64-1.14-2.43-5-9.38-6.01-11.64,2.16.89,6.48,3.19,10.14,8.38,5.13,7.26,4.87,16.17,5.04,18.68.18,2.52-1.52,9.21-1.61,9.82Z"/>
          <path class="cls-5" d="M45.56,34.62c-1.06-6-4.05-11.63-8.38-15.8-2.31-2.22-4.94-3.98-7.85-5.22-.15-.36-.75-.44-.86.04-.78,3.41-1.22,6.91-1.47,10.41-.25,3.52-.29,7.07.02,10.58.28,3.21.84,6.43,2.27,9.33,1.17,2.37,2.86,4.51,4.85,6.21,1.13.97,2.37,1.81,3.69,2.49.66.34,1.33.63,2.03.88.75.26,1.46.4,2.24.52.45.07.65-.57.19-.71-.24-.07-.48-.17-.72-.25-.36-2.56-1.28-5-2.13-7.44-.89-2.54-1.83-5.07-2.77-7.6-1.89-5.07-3.8-10.15-5.37-15.32-.77-2.54-1.51-5.1-2.18-7.68.05-.24.09-.49.15-.73.19.1.38.2.57.3,2.45,4.72,4.8,9.49,6.84,14.39,2.02,4.88,3.74,9.91,4.7,15.1.27,1.44.47,2.89.61,4.34.07.76.11,1.52.19,2.27.07.61.15,1.29.42,1.85-.04.13-.08.26-.12.4-.14.49.56.8.8.35.76-1.39,1.23-2.96,1.64-4.5.41-1.53.71-3.09.91-4.66.4-3.17.29-6.39-.26-9.54ZM30.22,21.86c.72,2.62,1.53,5.21,2.39,7.78,1.72,5.13,3.65,10.2,5.41,15.32.89,2.61,1.62,5.29,2.71,7.83-1.86-.7-3.66-1.6-5.26-2.81-2.05-1.54-3.76-3.53-4.99-5.79-1.47-2.7-2.11-5.75-2.41-8.8-.33-3.37-.46-6.78-.3-10.17.15-3.13.58-6.22,1.17-9.29.33,1.99.74,3.96,1.28,5.92ZM44.76,42.87c-.13,1.73-.41,3.45-.8,5.15-.19.82-.44,1.63-.69,2.42,0-.49-.03-.98-.07-1.46-.11-1.33-.27-2.65-.48-3.97-.42-2.65-1.04-5.27-1.82-7.84-1.57-5.2-3.8-10.16-6.33-14.98-1.29-2.45-2.67-4.85-4.09-7.23,4.35,2.44,8.1,5.97,10.66,10.36,3.07,5.27,4.09,11.49,3.63,17.56Z"/>
        </g>
        <g>
          <path class="cls-2" d="M73.62,23.08c-.06-.06-.13-.11-.2-.14-.22-.16-.51-.2-.82,0-3.18,2.03-6.31,4.77-9.05,7.37-2.85,2.69-4.97,5.74-7.05,9.07-3.7,5.91-5.39,14.01-1.13,20.12,3.95,5.66,10.92,6.06,16.16,1.82,5.44-4.4,8.05-10.22,8.73-17.12.73-7.38-.98-16.08-6.65-21.11Z"/>
          <path class="cls-1" d="M73.62,23.08c-.06-.06-.13-.11-.2-.14-.22-.16-.51-.2-.82,0-3.18,2.03-6.31,4.77-9.05,7.37-2.85,2.69-5.55,5.69-7.63,9.02-3.7,5.91-5.37,14.15-1.11,20.26,3.95,5.66,11.55,6.41,16.8,2.17,5.44-4.4,8.85-11.18,9.53-18.08.73-7.38-1.84-15.55-7.52-20.59ZM60.59,62.83s-2.52-3.73-3.39-7.04c-.87-3.3-.61-9.95,1.74-13.99,2.35-4.04,8.6-12.82,9.9-14.08,1.06-1.02,3.08-3.18,3.81-3.97-.02.09-.03.14-.03.14,0,0-1.96,5.74-3.39,9.56-1.43,3.82-6.12,21.25-6.86,23.38-.74,2.13-1.78,5.99-1.78,5.99ZM76.71,42.5c-1.96,10.56-8.73,17.69-10.6,18.9-1.17.76-1.95,1.2-2.37,1.42,1.35-2.83,4.02-8.58,4.97-11.93,1.3-4.56,4.26-17.38,4.43-20.6.11-2.06.44-4.34.66-5.71,1.45,2.82,4.41,9.81,2.91,17.92Z"/>
          <path class="cls-5" d="M77.12,33.62c-.57-3.6-1.8-7.05-3.69-10.12.11-.39-.4-.81-.77-.47-2.39,2.21-4.57,4.67-6.61,7.22-2.03,2.53-3.95,5.19-5.6,8.01-1.66,2.84-3.22,5.86-3.89,9.13-.58,2.84-.51,5.8.13,8.62.36,1.58.91,3.12,1.63,4.56.37.74.78,1.45,1.26,2.12.48.68,1.08,1.28,1.7,1.72.39.28.62.09.34-.28-.29-.38-.5-.91-.77-1.31,1.17-2.29,1.81-4.8,2.51-7.26.74-2.58,1.43-5.17,2.11-7.76,1.36-5.14,2.71-10.3,4.38-15.36.91-2.74,1.84-5.49,2.87-8.19.08-.08.16-.15.24-.23.14.26.27.51.4.77-.64,5.31-1.41,10.61-2.5,15.85-1.07,5.14-2.47,10.25-4.59,15.07-.6,1.36-1.25,2.7-1.96,4-.34.63-.86,1.65-1.2,2.29-.27.53-1.21,2.73-.78,2.52,1.29-.64,2.8-1.76,3.92-2.69,1.13-.94,2.19-1.95,3.18-3.04,1.96-2.15,3.62-4.58,4.92-7.21,2.73-5.51,3.73-11.85,2.76-17.97ZM69.5,31.13c-.9,2.52-1.72,5.07-2.49,7.63-1.53,5.11-2.86,10.27-4.35,15.39-.77,2.63-1.74,5.24-2.31,7.92-1.07-1.69-1.95-3.51-2.51-5.45-.77-2.69-.96-5.55-.49-8.32.55-3.2,1.98-6.12,3.58-8.88,1.58-2.74,3.27-5.4,5.2-7.9,1.88-2.44,3.96-4.68,6.14-6.82-1.04,2.1-1.98,4.22-2.77,6.43ZM76.31,42.04c-.8,5.66-3.52,10.96-7.13,15.24-1.02,1.2-2.12,2.34-3.29,3.38-.5.45-1.02.86-1.54,1.27.28-.44.54-.89.79-1.34.64-1.15,1.24-2.33,1.79-3.53,1.1-2.4,2.04-4.87,2.83-7.38,1.62-5.15,2.56-10.46,3.2-15.82.33-2.78.55-5.58.73-8.38,2.41,5.12,3.43,10.9,2.63,16.57Z"/>
        </g>
        <g>
          <path class="cls-6" d="M52.09,72.44c-.61-.34-1.32-.46-1.95-.76-.63-.3-1.22-.67-1.78-1.07-1.14-.82-2.16-1.8-3.2-2.73-.59-.52-1.18-1.03-1.81-1.5-2.89-2.14-6.34-2.72-9.86-2.91-6.73-.35-15.84-1.5-19.55,5.67-3.15,6.1.43,12.92,6.41,15.48,3.53,1.51,7.4,1.69,11.17,1.38,3.48-.28,6.84-1.11,9.66-3.25,1.5-1.14,2.78-2.55,4.35-3.59,1.78-1.17,3.61-1.22,5.52-1.97,1.16-.46,2.23-1.38,2.27-2.7.02-.73-.34-1.39-.91-1.83-.1-.08-.21-.14-.31-.21Z"/>
          <path class="cls-5" d="M43.21,74.51c-.08-.04-.15-.07-.23-.11.15-.09.3-.17.44-.26.51-.34.98-.74,1.41-1.16.43-.42.81-.88,1.16-1.36.17-.23.33-.47.48-.72.18-.29.37-.61.35-.97-.02-.31-.36-.56-.65-.37-.28.18-.43.45-.6.73-.14.24-.29.47-.45.69-.32.44-.67.85-1.06,1.23-.38.37-.79.71-1.22,1.02-.23.17-.48.32-.72.48-.09.06-.18.13-.26.21-.99-.38-2.01-.67-3.06-.86-3.42-.64-6.97-.48-10.42-.21-2.01.16-4.04.27-5.99.79-.36.1-.21.63.15.56,1.69-.33,3.45-.37,5.16-.48,1.72-.11,3.45-.19,5.18-.17,3.09.05,6.16.69,8.97,1.98.73.34,1.44.73,2.11,1.18.32.22.66.43.94.7.46.44,1.06,1.15,1.54,1.09.31-.04.3-.56.15-.85-.68-1.25-2.69-2.79-3.38-3.15Z"/>
          <path class="cls-3" d="M17.72,70.11c.12-.05.2-.1.3-.18,0,0,.3-.24.15-.12.15-.12.31-.21.48-.3.38-.23.75-.44,1.08-.74.71-.65.16-1.91-.78-1.89-.67.01-1.26.3-1.76.74-.4.36-.81.85-.93,1.38-.19.89.67,1.49,1.46,1.12h0Z"/>
          <path class="cls-3" d="M23.98,67.38c.05-.07.09-.14.14-.21.06-.1.09-.2.1-.31.03-.11.02-.22-.02-.34-.06-.2-.19-.41-.39-.5-.08-.04-.15-.08-.23-.12-.17-.09-.35-.14-.54-.15-.15,0-.29.03-.42.09-.09.03-.17.07-.24.14-.08.05-.15.11-.19.19-.07.07-.11.15-.14.24-.05.08-.07.17-.07.27-.03.14-.03.29.02.43l.11.26.17.22.22.17.26.11.29.04c.15,0,.29-.03.42-.09.09-.03.17-.07.24-.14.12-.08.21-.18.28-.3h0Z"/>
        </g>
        <g>
          <path class="cls-6" d="M91.46,67.48c-.93-1.41-2.25-2.55-3.76-3.3-3.68-1.83-7.93-.46-11.46,1.05-2.1.9-4.1,2.05-5.95,3.4-1.36.99-2.65,2.09-3.84,3.29-2.51,2.53-4.65,5.44-6.41,8.53-.93,1.63-1.7,3.23-3.06,4.57-.75.74-1.31,1.54-.93,2.64.31.9,1.2,1.54,2.1,1.77.78.2,1.58.02,2.36,0,1.29-.02,2.4.28,3.64.6,3.42.9,6.27-.15,9.42-1.53,3.41-1.5,6.7-3.27,9.83-5.3,2.87-1.86,6.17-4.05,8.49-6.58,2.26-2.47,1.26-6.59-.41-9.12Z"/>
          <path class="cls-3" d="M62.11,83.83c.62-.54,1.3-1.24,1.25-2.14-.04-.74-.84-1.31-1.53-.88-.38.24-.63.56-.83.95-.1.19-.18.38-.26.57,0,.02-.07.18-.05.13s-.08.19-.08.19c-.2.44-.16.94.25,1.24s.89.25,1.27-.08h0Z"/>
          <path class="cls-3" d="M65.33,78.87c.05-.04.1-.09.15-.14.1-.1.2-.22.27-.34.25-.41.22-.99-.14-1.33-.24-.23-.64-.34-.96-.23-.21.07-.39.17-.54.32-.05.05-.11.1-.17.15l.21-.16s-.07.05-.11.08c-.24.16-.4.36-.49.63-.1.32,0,.67.19.92.18.23.4.36.69.4.14.03.28.03.42-.02.18-.05.33-.14.47-.27h0Z"/>
        </g>
      </g>
      <rect class="cls-4" width="100" height="100"/>
    </g>
  </g>
</svg>