<?xml version="1.0" encoding="UTF-8"?>
<svg id="Capa_2" data-name="Capa 2" xmlns="http://www.w3.org/2000/svg" viewBox="0 0 100 100">
  <defs>
    <style>
      .cls-1 {
        fill: #cf923a;
      }

      .cls-2 {
        fill: #fff;
      }

      .cls-3 {
        fill: none;
      }

      .cls-4 {
        fill: #4a2d2d;
      }

      .cls-5 {
        fill: #ddb375;
      }
    </style>
  </defs>
  <g id="COLOR">
    <g>
      <g>
        <g>
          <g>
            <path class="cls-1" d="M74.42,42.56c0-.23.01-.45.01-.67,0-11.56-10.53-20.25-20.86-23.14-11.81-3.31-25.9-1.71-35.47,6.36-2.48,2.09-4.41,4.59-6.12,7.33-1.22,1.95-2.29,4.02-3.8,5.77-.74.86-1.59,1.65-2.56,2.25-.54.33-1.01.76-1.36,1.25-.41.57-.66,1.22-.64,1.88.01.6.24,1.21.76,1.77.94,1.04,2.29,1.59,3.25,2.6,2.27,2.35,3.15,5.64,4.8,8.39,3.19,5.29,8.45,9,14.05,11.43,6.28,2.72,13.21,4.08,20.05,3.71,6.55-.35,13.77-2.27,18.82-6.65,5.79-5.03,7.93-13.46,8.83-20.8,0-.04.01-.09.02-.14.47-.35.51-.93.23-1.34Z"/>
            <path class="cls-4" d="M10.97,40.87c3.71.52,7.44,1.01,11.19.9s7.27-.94,10.9-1.47c1.88-.28,3.77-.43,5.67-.39s3.78.2,5.67.3c3.83.22,7.66.42,11.49.53,2.15.06,4.29.07,6.43.04s4.37.09,6.47-.35c.54-.11.34-.82-.12-.88-1.89-.25-3.84-.07-5.75-.04-1.92.03-3.83.03-5.75.05-3.8.04-7.61,0-11.41-.14s-7.45-.55-11.18-.11c-3.65.43-7.23,1.36-10.9,1.66-4.22.34-8.45-.18-12.64-.63-.3-.03-.38.49-.07.53h0Z"/>
            <path class="cls-4" d="M16.9,33.51c1.26,2.08,3.53,3.02,5.87,3.28,1.48.16,2.96.06,4.44-.09,1.32-.13,2.66-.22,3.9-.73.65-.27,1.27-.62,1.92-.88.29-.11.6-.21.91-.26.33-.05.7-.01,1.01-.13.17-.07.26-.28.11-.42-.77-.75-2.28,0-3.06.36-.55.26-1.08.54-1.65.73-.63.21-1.28.31-1.94.38-2.62.29-5.44.64-7.97-.29-1.23-.45-2.39-1.16-3.21-2.2-.15-.19-.45.05-.33.26h0Z"/>
            <path class="cls-4" d="M40.88,34.1c.84-.1,1.69-.19,2.53-.27.42-.04.86-.08,1.28-.15s.83-.14,1.2-.34c.2-.11.13-.39-.06-.46-.39-.14-.81-.14-1.22-.13-.44.02-.89.07-1.33.13-.84.12-1.68.25-2.52.4-.46.08-.36.88.11.82h0Z"/>
            <path class="cls-4" d="M54.1,34.29c1.98.59,3.95,1.13,6.03,1.23.93.04,1.86-.01,2.78-.19.82-.16,2-.4,2.5-1.15.15-.23-.05-.51-.3-.52-.39-.02-.81.15-1.18.27-.43.13-.86.27-1.31.35-.87.17-1.76.23-2.65.21-1.92-.04-3.83-.45-5.71-.81-.39-.08-.56.49-.17.61h0Z"/>
            <path class="cls-4" d="M62.6,29.93c-2.31.09-4.46-1-6.61-1.7s-4.43-1.25-6.71-1.61c-1.1-.17-2.21-.33-3.32-.39-1.06-.06-2.07.06-3.02.55-.9.47-1.68,1.07-2.66,1.37s-1.92.38-2.9.43c-1.14.05-2.29.02-3.43.11s-2.25.23-3.2.82c-.37.23-.12.75.28.67.97-.18,1.93-.39,2.92-.46s2-.07,3-.1,1.97-.11,2.92-.33,1.84-.63,2.68-1.16c.41-.26.82-.54,1.27-.71.51-.2,1.05-.25,1.59-.25,1.09.01,2.2.19,3.28.35,2.25.35,4.47.88,6.63,1.59,2.36.77,4.72,1.83,7.27,1.52.43-.05.46-.72,0-.7h0Z"/>
            <path class="cls-4" d="M26.94,26.53c2.63-1.28,5.48-2.05,8.32-2.67,2.72-.6,5.5-1.08,8.29-.8.74.07,1.46.23,2.19.4.66.15,1.51.59,2.19.41.23-.06.29-.31.2-.5-.28-.59-1.13-.85-1.7-1.05-.67-.24-1.35-.39-2.05-.48-1.45-.2-2.92-.21-4.37-.04-2.97.34-5.81,1.22-8.62,2.23-1.62.58-3.23,1.2-4.75,2.02-.33.18-.04.66.29.5h0Z"/>
            <path class="cls-4" d="M54.67,25.02l1.35.18c.24.03.49.07.74.07.05,0,.1,0,.15-.02.05-.01.06-.01.03,0,.05,0,.1,0,.15,0,.14,0,.25-.04.38-.09.22-.08.25-.35.06-.49-.11-.08-.2-.14-.34-.18-.12-.04-.16-.06-.29-.1-.21-.07-.44-.09-.65-.12l-1.32-.18c-.25-.03-.53.06-.6.34-.05.23.07.56.34.6h0Z"/>
            <path class="cls-4" d="M13.26,49.48c3.51,1.43,7.24,2.12,11.03,2.16,1.85.02,3.71-.12,5.54-.4s3.73-.75,5.62-.98,3.77-.19,5.56.44c.88.31,1.7.76,2.54,1.15s1.71.73,2.61.96c1.78.45,3.65.54,5.48.52s3.82-.11,5.71-.26c2.13-.18,4.23-.55,6.21-1.36.97-.4,1.91-.86,2.82-1.36s1.88-1.02,2.64-1.77c.27-.27,0-.77-.38-.65-.9.28-1.68.78-2.5,1.24s-1.62.87-2.46,1.24c-1.71.75-3.53,1.18-5.38,1.38s-3.77.26-5.66.31-3.64.03-5.42-.31c-.88-.17-1.76-.41-2.59-.76s-1.63-.78-2.46-1.13c-1.7-.72-3.48-.93-5.32-.79s-3.72.56-5.56.93-3.71.62-5.6.69c-4.16.16-8.35-.48-12.32-1.7-.3-.09-.4.34-.13.46h0Z"/>
            <path class="cls-4" d="M20.3,57.73c2.45-.85,5.11-1.11,7.67-.72,1.27.19,2.52.54,3.71,1.03s2.27,1.1,3.4,1.64c2.32,1.11,4.71,1.9,7.26,2.24s4.99.29,7.47.03c1.44-.15,2.87-.4,4.29-.71s2.8-.63,4.06-1.35c.33-.19.21-.79-.2-.76-1.29.11-2.5.47-3.75.77s-2.52.55-3.8.75c-2.47.4-4.99.5-7.48.23s-5.01-1.02-7.34-2.11c-2.29-1.07-4.58-2.18-7.1-2.59-2.83-.46-5.72-.18-8.4.84-.42.16-.25.84.19.69h0Z"/>
            <path class="cls-4" d="M54.85,63.94c1.22.28,2.55.27,3.74-.12.59-.19,1.17-.44,1.67-.81.26-.19.54-.39.76-.63.19-.22.45-.48.46-.78,0-.15-.14-.3-.3-.3-.26.01-.46.2-.68.34-.24.15-.47.32-.72.47-.47.27-.96.53-1.47.72-1.05.37-2.15.55-3.26.39-.47-.07-.69.62-.2.74h0Z"/>
            <path class="cls-4" d="M41.23,55.11c.99.28,2.02.45,3.05.51.5.03,1.02.05,1.52.01s1.03-.09,1.49-.32c.21-.1.17-.48-.07-.52-.49-.08-.99-.03-1.48-.01s-.94.04-1.41.02c-.98-.04-1.95-.18-2.9-.42-.48-.12-.68.6-.2.74h0Z"/>
            <path class="cls-4" d="M28.05,61.84c2.2,1.54,4.67,2.65,7.29,3.23,1.29.29,2.61.46,3.93.51.68.03,1.36.04,2.04-.01.62-.04,1.29-.1,1.86-.37.19-.09.15-.42-.06-.45-.61-.11-1.26-.03-1.88,0-.65.03-1.31.04-1.96.01-1.27-.05-2.54-.22-3.78-.49-2.53-.55-4.98-1.5-7.19-2.84-.27-.16-.5.24-.24.42h0Z"/>
          </g>
          <path class="cls-4" d="M75.51,42.6c.02.3-.09.63-.31.85-.23.24-.55.39-.86.52-.05.02-.11.05-.17.07t0,0c-2.51.78-7.49,1.73-10.43,2.17-3.3.49-6.61.85-9.94,1.07-6.82.46-13.66.41-20.48.11-6.86-.31-13.43-.79-20.26-1.4-1.08-.1-2.42-.19-3.48-.4-2.77-.56-3.91-.99-5-1.49-.32-.14-.64-.31-.94-.5,0,0,0,0-.01,0-.02-.66.23-1.31.64-1.88.71,1.16,4.7,2.15,6.07,2.3,1.25.13,2.52.34,3.78.43,2.82.21,5.63.26,8.45.42,5.65.33,11.3.62,16.96.67,5.63.06,11.26-.11,16.87-.64.86-.08,1.73-.17,2.59-.27.14-.02.28-.03.42-.05,3.13-.37,6.2-.92,9.28-1.55,1.38-.29,4.32-.9,5.75-1.14.02,0,.04,0,.05-.01.19-.03.4-.04.57.04.29.14.43.4.45.68Z"/>
          <path class="cls-2" d="M20.08,29.4c.42.25.97.26,1.45.21.34-.04.65-.08.95-.24.43-.23.68-.78.61-1.24-.11-.8-.88-1.16-1.62-1.11-.26.02-.51.06-.76.1-.35.06-.59.19-.87.42-.6.5-.37,1.51.24,1.87h0Z"/>
          <path class="cls-2" d="M24.5,25.55c.37-.1.71-.24.92-.59.26-.45.11-1.07-.35-1.33-.36-.21-.73-.16-1.11-.06-.25.07-.48.25-.61.47s-.18.54-.1.79.23.49.47.61.52.18.79.1h0Z"/>
          <path class="cls-2" d="M16.7,56.52l.09-.07s.03-.02.04-.03c.17-.12.21-.16.33-.33.16-.24.16-.62,0-.86-.11-.17-.16-.21-.33-.33-.01-.01-.03-.02-.04-.03l-.09-.07c-.15-.09-.32-.13-.5-.14-.18,0-.35.05-.5.14-.3.18-.49.51-.49.85s.19.68.49.85c.15.09.32.13.5.14.18,0,.35-.05.5-.14h0Z"/>
          <path class="cls-2" d="M22.74,63.81c.44,0,.44-.69,0-.69s-.44.69,0,.69h0Z"/>
        </g>
        <g>
          <g>
            <path class="cls-5" d="M96.57,58.45c.35-1.67.47-3.42.08-5.09-.41-1.79-1.47-3.25-2.44-4.76-1.89-2.95-1.23-6.71-3.55-9.5-1.84-2.2-5.47-2.49-7.81-.87-2.9,2.01-4.14,5.94-4.93,9.19-.62,2.55-1.37,5.35-3.63,6.96-1.59,1.13-3.74.69-3.66-1.53.05-1.51,1.17-2.71,2.12-3.76,3.18-3.53,6.69-8.59,5.99-13.63-.67-4.82-5.13-6.96-9.46-5.01-2.03.91-3.63,2.44-4.68,4.4-.63,1.18-1.19,2.65-2.36,3.43-1.1.73-2.63.77-3.83,1.26-1.86.74-3.43,2.17-4.36,3.94-.53,1.03-.79,2.19-1.38,3.19-.64,1.1-1.59,1.66-2.68,2.26-1.46.8-3.11,1.62-3.68,3.31-.37,1.1-.09,2.16-.07,3.28.03,1.61-1.05,2.48-2.16,3.46-1.6,1.41-2.74,3.06-3.01,5.22-.12.99-.06,2,.2,2.97.35,1.28,1.25,2.3,1.47,3.62.27,1.69-.43,3.38-.43,5.07,0,1.08.23,2.15.64,3.14.92,2.22,2.69,3.93,4.91,4.83,3.63,1.47,9.4.29,10.8-3.62.76,0,1.89-.03,3.17-.18.8-.09,1.51-.47,2.11-.93-.15.35-.26.73-.31,1.13-.18,1.54.67,2.74,1.51,3.95.55.79,1.1,1.58,1.17,2.57.06.9-.25,1.78-.21,2.68.06,1.26.7,2.33,1.71,3.05,2.92,2.07,6.39.33,8.85-1.59,1.74-1.36,3.29-2.59,5.5-3.06,1.72-.36,3.47-.48,5.02-1.39,1.1-.64,1.98-1.62,2.33-2.86.6-2.15-.68-4.51,1.48-6.05,2.72-1.93,5.68-4.13,5.11-7.95-.27-1.8-1.93-3.15-1.54-5.02.44-2.09,1.57-3.99,2.02-6.1Z"/>
            <g>
              <path class="cls-4" d="M57.57,58.61c-.1-.22-.33-.36-.52-.49-.2-.14-.42-.26-.63-.39-.42-.26-.84-.51-1.26-.77s-.81-.51-1.21-.77c-.36-.24-.86-.68-1.32-.57-.1.02-.19.14-.18.24.05.49.62.8.98,1.06.41.29.83.57,1.27.84s.84.51,1.27.74c.41.22.95.59,1.43.5.19-.04.22-.25.16-.39h0Z"/>
              <path class="cls-4" d="M58.04,55.5c-.45-.91-.89-1.82-1.25-2.77-.18-.47-.34-.94-.46-1.43s-.19-.95-.45-1.37c-.09-.15-.29-.11-.35.05-.19.5-.09,1.03.04,1.53s.31.99.51,1.47c.41.98.94,1.9,1.47,2.81.19.33.67.04.5-.29h0Z"/>
              <path class="cls-4" d="M70.89,37.87c-.92-.14-1.65.1-2.38.68-.66.53-1.16,1.26-1.4,2.06-.28.93-.09,1.74.18,2.64.16.52.15.9-.27,1.27-.38.33-.86.56-1.29.82-1.74,1.04-3.57,2.29-4.52,4.13-.89,1.71-1.02,3.8.18,5.4.58.77,1.38,1.35,1.92,2.15.72,1.05.3,2.23-.11,3.33-.16.44.49.67.72.31.6-.95,1.08-1.93.82-3.09-.18-.81-.75-1.46-1.33-2.02-.61-.6-1.33-1.13-1.71-1.92-.4-.84-.39-1.84-.15-2.72.54-2.02,2.25-3.33,3.98-4.33.79-.46,1.77-.81,2.4-1.49.31-.34.5-.75.53-1.21.03-.54-.21-1.03-.37-1.53-.57-1.87,1.03-3.6,2.79-3.94.26-.05.27-.5,0-.54h0Z"/>
              <path class="cls-4" d="M73.46,72.73c1.11.1,2.54.03,3.41.85.7.66.99,1.68.65,2.59-.4,1.08-1.44,1.88-2.14,2.76-.76.96-1.44,2.04-1.71,3.25s-.3,2.95.84,3.66c.25.16.65-.04.63-.36-.05-.59-.29-1.12-.33-1.71-.04-.63.06-1.25.28-1.84.44-1.22,1.34-2.22,2.2-3.15s1.72-1.95,1.75-3.27c.02-1.14-.52-2.28-1.45-2.95-1.22-.87-2.81-.75-4.19-.4-.33.08-.23.53.08.55h0Z"/>
              <path class="cls-4" d="M80.84,70.42c1.27.5,2.52,1,3.7,1.69.58.34,1.15.68,1.71,1.05.5.33,1.24.99,1.89.82.24-.06.32-.29.29-.51-.05-.35-.39-.61-.66-.8-.29-.21-.58-.41-.88-.6-.62-.39-1.24-.77-1.9-1.09-1.26-.62-2.64-1.17-4.07-1.12-.33.01-.36.44-.08.55h0Z"/>
              <path class="cls-4" d="M64.37,74.91c1.56-1.11,2.83-2.57,3.88-4.16.52-.79.97-1.64,1.34-2.51s.63-1.8,1.02-2.67.85-1.8,1.52-2.52c.32-.34.82-.72,1.19-.24.27.34.28.8.37,1.21.35,1.56,1.57,2.82,2.97,3.52,1.48.73,3.21.94,4.78.38s2.87-1.74,3.61-3.23c.8-1.6.87-3.29.32-4.98-.3-.92-.76-1.88-.74-2.87.01-.83.46-1.46,1.07-1.99.66-.57,1.41-1.03,2.02-1.67.7-.73,1.1-1.64,1.2-2.65.11-1.1-.18-2.2-.64-3.18-.23-.48-.51-.96-.82-1.39-.35-.49-.81-.86-1.23-1.29-.38-.39-1.06.12-.77.59.26.42.46.86.72,1.28s.55.81.79,1.24c.43.79.74,1.64.73,2.55,0,.85-.31,1.57-.91,2.17-.55.55-1.21.97-1.8,1.48s-1.07,1.09-1.33,1.81c-.32.89-.18,1.86.05,2.75s.6,1.79.67,2.73c.05.74-.07,1.47-.33,2.17-.49,1.34-1.6,2.54-2.94,3.03s-2.88.29-4.12-.4c-1.34-.75-2.16-1.88-2.89-3.2-.33-.61-.89-1.1-1.63-.8s-1.29,1.21-1.66,1.9c-.5.92-.8,1.93-1.23,2.88s-.93,1.87-1.48,2.75c-1.14,1.81-2.54,3.39-4.05,4.9-.2.2.07.59.32.41h0Z"/>
              <path class="cls-4" d="M88.18,56.73c.47-.13.96-.21,1.43-.33.44-.11.88-.24,1.33-.34s.9-.19,1.34-.28c.41-.08,1.03-.12,1.28-.5.07-.1.05-.27-.04-.35-.35-.31-.97-.16-1.39-.09-.49.08-.96.19-1.43.32s-.96.26-1.41.45-.87.41-1.3.64c-.26.14-.08.54.2.46h0Z"/>
              <path class="cls-4" d="M87.92,61.09c.53.08,1.04.21,1.54.39.28.1.42.17.67.28.27.12.56.21.86.21.24,0,.41-.27.28-.48-.33-.52-.97-.73-1.54-.89s-1.13-.26-1.7-.3c-.2-.02-.37.17-.4.35s.09.41.29.44h0Z"/>
            </g>
            <path class="cls-4" d="M70.06,73.17c-3.12.85-4.69,3.78-7.39,5.33-.8.46-1.87.92-2.82.72-1.32-.28-1.12-1.61-1.03-2.64.19-2.12.98-4.14,1.99-6,1.72-3.17,4.14-5.86,6.13-8.85.92-1.38,1.73-2.83,2.35-4.38.78-1.95,1-3.79,1.36-5.83.11-.65-.81-.93-1-.28-.67,2.35-1.48,4.93-2.6,7.11-1,1.95-2.27,3.73-3.57,5.48-2.39,3.23-5.01,6.5-6.08,10.44-.26-.45-.49-.89-.59-1.41-.11-.55-.07-1.12-.05-1.67.06-2.04.29-4.47-1.65-5.77-1.84-1.23-4.02-.29-5.17,1.41-1.31,1.94-1.36,4.61-.3,6.65.15.28.59.09.51-.21-.49-1.9-1.1-3.98.04-5.78.81-1.28,2.88-1.84,4.13-.85,1.33,1.05.86,3.25.86,4.7,0,.97.18,2,.68,2.84.36.6.86,1.07,1.18,1.67-.24,1.34-.38,3.01.4,4.08.78,1.06,2.28,1.26,3.49,1.09,4.04-.57,6.22-4.75,9.72-6.42.81-.39.24-1.66-.6-1.43Z"/>
          </g>
          <path class="cls-2" d="M59.47,42.59c.13-.15.28-.3.36-.48l.09-.22c.04-.12.04-.25.02-.37,0-.08-.02-.16-.06-.24-.04-.12-.1-.22-.19-.3-.12-.11-.26-.19-.41-.24-.12-.04-.25-.04-.37-.02-.12,0-.24.04-.35.11-.19.09-.33.23-.48.36-.1.09-.16.2-.2.32-.06.12-.09.25-.09.38,0,.14.02.26.09.38.04.12.11.23.2.32.19.17.44.3.7.29s.52-.09.7-.29h0Z"/>
          <path class="cls-2" d="M61.29,41.32c.44,0,.44-.69,0-.69s-.44.69,0,.69h0Z"/>
          <path class="cls-2" d="M69.27,32.87v.06c0,.11.02.22.08.32.03.1.09.19.17.27l.17.13c.13.08.27.11.42.11h.06c.08,0,.16-.02.24-.03l.21-.09c.1-.06.19-.13.25-.23.06-.06.09-.12.12-.2.04-.07.06-.15.06-.23.02-.08.02-.16,0-.24,0-.08-.02-.16-.06-.23-.04-.11-.1-.21-.19-.29l-.18-.14-.21-.09-.24-.03-.24.03-.21.09c-.1.06-.19.13-.25.23-.06.06-.09.12-.12.2-.06.11-.08.22-.08.35h0Z"/>
          <path class="cls-2" d="M48.64,52.11l-.07.08s-.06.07-.08.12c-.02.04-.03.09-.03.14,0,.05,0,.1.03.14.01.05.04.08.08.12l.07.06c.06.03.12.05.18.05h.1c.06-.03.12-.06.16-.11l.08-.07s.06-.07.08-.12c.02-.04.03-.09.03-.14,0-.05,0-.1-.03-.14-.01-.05-.04-.09-.08-.12l-.08-.06c-.06-.03-.12-.05-.19-.05h-.1c-.06.03-.12.06-.16.11h0Z"/>
          <path class="cls-2" d="M44.55,60.72c-.13.12-.25.24-.35.4s-.12.32-.14.5c-.02.2.06.43.22.57.09.08.21.16.33.19.07.02.16.03.23.02.18-.02.34-.03.5-.13s.28-.22.41-.36c.15-.16.25-.38.25-.6,0-.21-.09-.46-.25-.6s-.37-.26-.6-.25-.43.09-.6.25h0Z"/>
          <path class="cls-2" d="M43.43,64.83l.08.11c.04.07.1.13.18.18.08.04.16.07.25.07.09,0,.17-.02.25-.07.07-.04.13-.1.18-.18l.08-.11c.05-.09.08-.19.08-.29,0-.1-.03-.2-.08-.29-.1-.18-.3-.29-.5-.29s-.4.11-.5.29c-.05.09-.08.19-.08.29,0,.1.03.2.08.29h0Z"/>
          <path class="cls-2" d="M51.39,70.54s.08.08.11.12c.25.25.66.25.91,0,.04-.04.08-.08.11-.12l.13-.16.08-.19c.03-.11.04-.21.01-.32,0-.07-.02-.14-.06-.2-.02-.07-.05-.13-.1-.18-.04-.06-.08-.11-.14-.14-.05-.05-.11-.08-.18-.1-.1-.05-.2-.07-.31-.07l-.21.03-.19.08-.16.13-.13.16-.08.19c-.03.11-.04.21-.01.32,0,.07.02.14.06.2.03.1.09.19.17.26h0Z"/>
          <path class="cls-2" d="M79.11,64.77c.13.13.27.2.44.26.11.03.22.06.34.05l.16-.02c.08-.02.15-.06.21-.11.1-.08.19-.19.22-.32.02-.11.02-.22,0-.33-.03-.15-.16-.29-.28-.37-.01,0-.02-.01-.03-.02l.13.1s-.04-.03-.05-.05l.1.13s-.02-.03-.03-.04l.07.16s0-.03-.01-.05l.03.19s0-.05,0-.07l-.03.2s0-.02,0-.03c.07-.27,0-.55-.2-.74s-.48-.27-.74-.2-.46.28-.53.53,0,.55.2.74h0Z"/>
        </g>
      </g>
      <rect class="cls-3" width="100" height="100"/>
    </g>
  </g>
</svg>