<?xml version="1.0" encoding="UTF-8"?>
<svg id="Capa_2" data-name="Capa 2" xmlns="http://www.w3.org/2000/svg" viewBox="0 0 100 100">
  <defs>
    <style>
      .cls-1 {
        fill: #fff;
      }

      .cls-2 {
        fill: none;
      }

      .cls-3 {
        fill: #4a2d2d;
      }

      .cls-4 {
        fill: #bb5545;
      }
    </style>
  </defs>
  <g id="COLOR">
    <g>
      <g>
        <g>
          <path class="cls-4" d="M41.73,8.83c-.19-.23-.4-.43-.63-.61-1.33-1.03-2.89-.37-4.19.4-2.11,1.24-3.83,3.01-5.6,4.68-1.94,1.83-10.33,9.32-6.5,12.25,1.6,1.22,4.1,0,5.62-.74,2.46-1.19,4.74-2.77,6.69-4.69,2.21-2.16,5.27-5.15,5.54-8.43.09-1.03-.29-2.06-.94-2.85Z"/>
          <path class="cls-3" d="M27.3,24.72l.49-.05c.19-.02.35-.09.52-.17.33-.17.36-.7-.02-.83-.08-.03-.16-.06-.24-.08-.14-.04-.26-.03-.4-.03l-.53.02c-.3.01-.53.39-.47.66.07.32.34.5.66.47h0Z"/>
          <path class="cls-3" d="M29.4,23.47c.8.08.93-1.17.13-1.25s-.93,1.17-.13,1.25h0Z"/>
          <path class="cls-1" d="M40.45,9.2c-1.56-.06-3.53.71-4.14,2.28-.26.68.32,1.31,1.01,1.23.75-.08,1.36-.48,1.98-.88.59-.38,1.08-.73,1.58-1.22.44-.44.33-1.39-.42-1.42h0Z"/>
          <path class="cls-1" d="M33.48,13.98v.15c-.01.09,0,.18.03.26.02.09.06.16.12.23l.13.12c.1.07.21.11.33.13l.15.03h.23c.07-.03.14-.05.21-.07.1-.04.19-.11.26-.19.06-.05.1-.11.13-.17.04-.06.07-.13.08-.21.03-.07.04-.15.02-.22,0-.08,0-.15-.04-.22-.02-.11-.07-.2-.15-.29l-.16-.15-.19-.11-.22-.05h-.23c-.07.03-.14.05-.21.07-.1.04-.19.11-.26.19-.06.05-.1.11-.13.17-.06.09-.1.2-.11.32h0Z"/>
        </g>
        <g>
          <path class="cls-4" d="M24.12,42.03c-.86-2.74-2.27-5.33-3.67-7.83-1.17-2.1-2.82-3.91-4.79-5.29-2.37-1.65-3.35,1.91-3.32,3.67.05,2.21.52,4.44,1.14,6.55.81,2.78,1.88,5.47,3.26,8.02,1.01,1.87,2.36,4.24,4.65,4.67,5.44,1.03,3.6-7.02,2.73-9.8Z"/>
          <path class="cls-3" d="M22.28,50.4s.05-.02.08-.03c.09-.03.17-.07.24-.14.09-.09.15-.23.15-.36s-.05-.27-.15-.36l-.1-.08s-.09-.04-.13-.06c-.03,0-.05-.02-.08-.03-.1-.03-.19-.03-.29,0-.09.03-.17.07-.24.14-.1.11-.16.24-.16.39,0,.08.01.15.05.21.02.07.06.13.11.18.07.07.15.11.24.14.1.03.19.03.29,0h0Z"/>
          <path class="cls-3" d="M23.34,47.85v-.02c-.08.11-.17.22-.25.33.09-.06.15-.11.21-.21.1-.17.1-.38,0-.54-.05-.09-.12-.15-.21-.21l.26.33s-.02-.07-.04-.1c-.03-.08-.07-.15-.13-.21-.06-.06-.13-.11-.21-.13-.08-.04-.16-.06-.25-.06l-.17.02c-.08.02-.16.06-.22.12-.07.05-.13.11-.17.18-.05.07-.07.15-.08.24-.02.09-.02.17.01.26l.06.15c.04.08.1.14.17.18.06.06.14.1.22.12l.17.02c.12,0,.22-.03.32-.09l.13-.1c.08-.08.13-.18.17-.28h0Z"/>
          <path class="cls-1" d="M14.29,31.83c.12.09.24.2.35.3.05.04.1.09.14.14.03.03.05.06.08.09-.07-.09-.09-.11-.04-.05.17.35.45.63.78.82.38.22.79.06,1.03-.27.75-1.03-.43-2.34-1.41-2.63-.39-.12-.89.07-1.09.44-.18.35-.19.9.15,1.17h0Z"/>
          <path class="cls-1" d="M15.84,36.05c.1.18.18.36.33.51.12.12.25.2.4.26.26.11.6.12.84-.04.39-.25.55-.73.45-1.18-.05-.2-.16-.4-.25-.58-.1-.22-.38-.41-.61-.47-.24-.07-.57-.04-.79.1-.48.31-.63.89-.37,1.4h0Z"/>
        </g>
        <g>
          <path class="cls-4" d="M47.01,40.64c-1.82-1.97-4.26-3.6-6.41-5.21-1.11-.83-2.19-1.7-3.31-2.52s-2.22-1.67-3.48-2.15c-1.08-.42-2.42-.53-3.5-.09-.79.32-1.37.97-1.57,1.8-.51,2.12.94,4.56,2.01,6.29,2.62,4.2,6.75,7.34,11.63,8.37,1.88.4,4.39.49,5.6-1.35,1.13-1.71.28-3.79-.97-5.14Z"/>
          <path class="cls-3" d="M43.85,45.95h.3c.1,0,.19,0,.29-.03.19-.06.29-.17.4-.32.12-.16.12-.47,0-.63-.11-.15-.22-.26-.4-.32-.09-.03-.19-.03-.29-.03h-.3c-.35,0-.68.31-.66.67s.29.66.66.66h0Z"/>
          <path class="cls-3" d="M46.44,44.48c.07-.02.15-.05.22-.09.19-.11.32-.33.32-.55s-.13-.45-.32-.55c-.07-.04-.15-.06-.22-.09-.22-.07-.49,0-.64.17-.12.13-.19.29-.19.47,0,.09.02.18.06.26.03.08.07.15.14.21.16.16.42.24.64.17h0Z"/>
          <path class="cls-1" d="M31.46,33.14c.51.79,1.48,1.17,2.24,1.7s1.5,1.21,2.42,1.48c.48.14,1.02-.35.85-.85-.35-.98-1.17-1.66-2-2.24-.79-.55-1.82-1.33-2.83-1.26-.55.04-1.01.64-.67,1.16h0Z"/>
          <path class="cls-1" d="M38.6,38.17l.34.3c.12.1.25.17.41.17.14,0,.32-.06.41-.17s.18-.26.17-.41-.06-.29-.17-.41l-.3-.34c-.1-.11-.29-.18-.43-.18s-.33.07-.43.18-.19.27-.18.43.06.33.18.43h0Z"/>
        </g>
        <g>
          <path class="cls-4" d="M69.44,14.21c-1.43-1.91-4.27-2.48-6.44-3-2.24-.53-4.52-.77-6.82-.83-2.05-.06-4.2-.24-6.15.55-.62.25-1.19.65-1.54,1.22-1.43,2.37,2.47,3.7,3.99,4.36,3.93,1.71,8.21,3.12,12.51,3.41,1.56.1,3.66-.02,4.67-1.37.96-1.28.68-3.11-.23-4.33Z"/>
          <path class="cls-3" d="M63.81,18.24c.07,0,.14.03.21.03.14,0,.29-.03.41-.12.15-.11.25-.25.25-.44s-.1-.33-.25-.44c-.11-.08-.27-.12-.41-.12-.07,0-.14.02-.21.03-.15.02-.26.05-.37.15-.09.09-.16.24-.15.37s.05.28.15.37l.11.08c.08.05.17.07.27.07h0Z"/>
          <path class="cls-3" d="M66.67,18.44c.08,0,.17,0,.25-.03s.14-.06.21-.1c.26-.15.26-.53,0-.68-.07-.04-.13-.08-.21-.1s-.17-.02-.25-.03c-.11-.01-.26.06-.33.14-.08.08-.14.22-.14.33s.05.25.14.33c.09.08.21.15.33.14h0Z"/>
          <path class="cls-1" d="M50.65,13.32c.53-.23,1.2-.38,1.78-.42s1.09.09,1.64-.01.58-.88.15-1.15c-1.22-.75-3.05-.08-4.12.65-.58.4-.08,1.2.54.92h0Z"/>
          <path class="cls-1" d="M56.87,13.31c.29-.09.62-.16.82-.41.15-.19.24-.37.2-.62-.03-.21-.15-.45-.35-.54-.09-.04-.18-.09-.28-.11-.18-.05-.34-.02-.51.02l-.33.06c-.2.04-.4.22-.5.38-.1.18-.15.44-.08.64.14.42.58.72,1.02.58h0Z"/>
        </g>
        <g>
          <path class="cls-4" d="M71.69,31.94c-.33-1.63-3.05-2.17-4.31-2.51-2.3-.62-4.75-.45-7.07-.07-2.4.39-4.8.7-7.2,1.08-1.51.24-3.34.69-3.63,2.47-.3,1.86,1.55,3.46,3.02,4.2,2.52,1.26,5.27,1.38,8.01.99,2.66-.38,5.24-1.38,7.71-2.43,1.35-.57,3.86-1.82,3.48-3.73Z"/>
          <path class="cls-3" d="M66.5,34.97c-.06-.04-.05-.04.04,0,.05.03.11.05.17.05.11.01.22.01.32-.01.13-.03.26-.1.38-.17.24-.15.41-.39.51-.65s-.11-.57-.37-.65c-.07-.02-.14-.03-.22-.03-.03,0-.05,0-.08,0h.08c-.08-.04-.31,0-.39.02-.05.01-.09.03-.13.05-.36.15-.67.39-.68.81l.08-.31-.04.09c-.07.16-.1.31-.03.48.06.15.19.28.35.31h0Z"/>
          <path class="cls-3" d="M69.33,33.17c.06,0,.11-.01.17-.02.06,0,.14,0,.2-.03s.13-.05.19-.08c.2-.09.39-.27.38-.51s-.16-.41-.36-.5c-.04-.02-.08-.04-.13-.06-.09-.04-.18-.05-.27-.06-.06,0-.11-.01-.17-.02-.15-.02-.34.08-.45.19-.11.11-.19.29-.19.45s.06.33.19.45c.12.11.28.2.45.19h0Z"/>
          <path class="cls-1" d="M52.21,34.31c.26,0,.5-.02.74-.15.13-.07.28-.16.37-.27.14-.18.26-.37.25-.61s-.1-.42-.25-.61c-.09-.11-.24-.2-.37-.27-.24-.13-.48-.14-.74-.15-.54-.02-1.05.48-1.02,1.02.01.26.1.54.3.72s.45.31.72.3h0Z"/>
          <path class="cls-1" d="M55.34,33.74l.3-.03c.16-.01.29-.06.41-.17.1-.1.18-.26.17-.41s-.06-.3-.17-.41l-.12-.09c-.09-.05-.19-.08-.29-.08l-.3-.03c-.15-.01-.33.08-.43.18s-.18.28-.18.43.06.32.18.43c.11.1.27.19.43.18h0Z"/>
        </g>
        <g>
          <path class="cls-4" d="M87.43,40.11c-.16-2.81-1.26-5.53-2.45-8.05-1.1-2.31-2.24-4.78-4.02-6.65-.87-.91-2.33-2.3-3.72-2.08-2.02.32-1.86,3.43-1.66,4.91.37,2.67,1.41,5.37,2.22,7.94s1.8,5.08,3.44,7.22c1.05,1.37,2.69,3.03,4.58,2.12,1.72-.83,1.69-3.82,1.6-5.41Z"/>
          <path class="cls-3" d="M84.74,44.28s.05.01.08.02c.16.03.19.02.35,0,.02,0,.05,0,.07-.01.11-.02.21-.09.29-.16.22-.21.22-.6,0-.81-.08-.08-.18-.14-.29-.16-.02,0-.05,0-.07-.01-.16-.02-.19-.03-.35,0-.03,0-.06.01-.08.02l-.14.06c-.07.04-.12.09-.16.15-.08.1-.13.23-.13.35,0,.1.03.2.08.29.06.12.22.24.35.27h0Z"/>
          <path class="cls-3" d="M85.61,42.42c.18-.04.38-.11.46-.3l-.08.1.05-.04c.08-.06.13-.21.13-.3,0-.11-.04-.24-.13-.3l-.05-.04.08.1c-.06-.14-.21-.23-.35-.27-.04-.01-.08-.02-.11-.03-.19-.05-.41,0-.55.15-.1.11-.17.25-.17.4,0,.14.06.3.17.4.15.15.35.19.55.15h0Z"/>
          <path class="cls-1" d="M77.68,26.24c.29.34.56.71.81,1.07.27.41.49.89.88,1.2s1.16.29,1.27-.33c.22-1.34-.92-2.58-2.03-3.14-.79-.4-1.49.54-.93,1.2h0Z"/>
          <path class="cls-1" d="M81.34,31.57c1.35,0,1.35-2.1,0-2.1s-1.35,2.1,0,2.1h0Z"/>
        </g>
        <g>
          <path class="cls-4" d="M76.54,52.17c-1.43-1.91-3.17-3.38-5.03-4.85-1.94-1.54-3.96-3.02-6.26-3.98-1.72-.72-3.6-.63-4.58,1.15-1.05,1.9.02,3.98.97,5.67,1.25,2.2,2.83,4.09,4.84,5.64,2.17,1.67,10.34,6.77,12.02,2.15.74-2.04-.79-4.21-1.95-5.76,0,0,0-.01-.01-.02Z"/>
          <path class="cls-3" d="M76.29,58.46l.1-.12s.08-.1.11-.16c.03-.06.05-.13.04-.2,0-.07-.01-.14-.04-.2-.02-.06-.06-.12-.11-.16-.1-.09-.22-.16-.36-.15l-.14.02c-.09.02-.16.07-.22.13l-.12.1c-.05.05-.09.1-.11.17-.03.06-.05.13-.04.2,0,.07.01.14.04.2.02.06.06.12.11.17.1.09.23.16.37.15l.14-.02c.09-.02.16-.07.23-.13h0Z"/>
          <path class="cls-3" d="M73.24,58.24s.03-.03.05-.04c.1-.1.17-.25.17-.39s-.06-.3-.17-.39c-.02-.01-.03-.03-.05-.04l-.12-.1-.15-.06c-.08-.03-.16-.03-.24-.01-.06,0-.11.01-.15.04-.05.01-.1.04-.14.08-.05.03-.08.06-.11.11-.04.04-.06.08-.08.14-.04.07-.06.15-.05.24l.02.16.06.15.1.12.12.1.15.06c.08.03.16.03.24.01.06,0,.11-.01.15-.04.08-.02.14-.07.2-.13h0Z"/>
          <path class="cls-1" d="M63.33,45.88c.72.65,1.62,1.08,2.42,1.62s1.51,1.29,2.48,1.43c.61.08,1.23-.35,1.03-1.03-.3-1.06-1.21-1.65-2.08-2.22-.87-.57-1.88-1.22-2.93-1.38-.84-.13-1.7.88-.92,1.59h0Z"/>
          <path class="cls-1" d="M69.69,51c.14.12.28.25.42.36.16.13.34.23.54.29l.26.07c.56.16,1.07-.38.93-.93l-.06-.24c-.06-.22-.15-.39-.29-.57-.12-.15-.24-.29-.36-.43-.16-.19-.49-.3-.72-.3-.25,0-.55.11-.72.3s-.31.45-.3.72.1.55.3.72h0Z"/>
        </g>
        <g>
          <path class="cls-4" d="M57.82,50.58c-.96-3.24-4.99-1.35-6.8-.12-3.08,2.08-5.44,5.24-7.23,8.45-.97,1.75-2.29,4.41-1.78,6.47.45,1.83,2.09,2.52,3.77,1.82,4.23-1.76,7.93-6.33,10.13-10.19,1-1.75,2.53-4.33,1.91-6.42Z"/>
          <path class="cls-3" d="M45.07,66.23c.08-.03.17-.06.25-.09.13-.05.23-.11.32-.23.03-.04.06-.09.1-.13.08-.12.08-.29.02-.42-.06-.14-.16-.22-.3-.27-.15-.05-.29-.07-.45-.03-.08.02-.16.05-.24.07-.28.08-.49.4-.4.7.09.27.4.51.7.4h0Z"/>
          <path class="cls-3" d="M47.26,64.63l.1.03.14.02c.07,0,.14-.01.2-.04.11-.05.19-.11.25-.21h0c-.1.08-.2.15-.3.23h.03s-.08,0-.12,0h.13c.07.01.15-.01.21-.05.08-.05.13-.12.17-.2.03-.07.04-.14.03-.21-.01-.1-.05-.16-.11-.24l-.09-.11.12.21v-.03c0,.09,0,.18,0,.27h0c0-.05.01-.1.02-.14,0-.07-.01-.14-.04-.2-.05-.11-.11-.18-.21-.25l-.08-.06c-.12-.08-.28-.08-.41-.05-.16.04-.28.16-.35.31-.06.14-.06.27,0,.41.07.16.19.25.35.31h0Z"/>
          <path class="cls-1" d="M54.29,50.38c-1.41.13-2.48.69-3.32,1.84-.39.54.38,1.29.92.92.77-.53,1.7-.91,2.63-1.04s.75-1.81-.23-1.72h0Z"/>
          <path class="cls-1" d="M48.43,54.39l-.1.16-.07.16c-.03.09-.03.18-.01.27,0,.06.02.12.05.17.03.08.07.15.14.21l.13.1.16.07c.09.03.18.03.27.01.09,0,.17-.03.25-.08l.16-.1c.11-.06.19-.15.26-.26.06-.11.1-.23.1-.36l-.03-.19c-.03-.12-.1-.23-.18-.31-.06-.07-.14-.12-.23-.15-.08-.04-.18-.07-.27-.06-.25,0-.49.14-.62.35h0Z"/>
        </g>
        <g>
          <path class="cls-4" d="M34.03,56.46c-1.26-.43-2.82-.54-3.77-.59-4.01-.24-8,.79-11.49,2.77-2.09,1.18-4.56,2.81-5.46,5.15-.68,1.76-.08,4.02,1.59,4.99,2.29,1.32,5.15.05,7.39-.73,2.71-.94,5.48-1.91,7.98-3.31,2.06-1.15,4.74-2.91,5.58-5.25.6-1.66-.43-2.54-1.83-3.02Z"/>
          <path class="cls-3" d="M16.44,68.03s.07,0,.1,0c.09,0,.17-.02.25-.05s.15-.08.21-.14l-.12.1h.02s-.1.03-.14.05c.1-.02.2-.06.28-.13.13-.1.24-.28.23-.45-.01-.29-.22-.53-.51-.58l.14.06h-.02s.08.05.12.08c-.04-.04-.09-.08-.14-.11-.1-.06-.22-.08-.33-.09-.03,0-.07,0-.1,0-.16,0-.33.07-.44.18s-.19.29-.18.44.06.33.18.44.27.18.44.18h0Z"/>
          <path class="cls-3" d="M19.26,67.35l.11-.02.13-.05c.06-.03.11-.08.15-.14.03-.03.06-.07.07-.12.03-.06.05-.13.05-.21l-.02-.14-.05-.13c-.03-.06-.08-.11-.14-.15-.05-.05-.11-.08-.18-.1l-.11-.02c-.1-.03-.2-.03-.3,0-.1.03-.18.07-.25.14-.1.11-.16.25-.16.4,0,.08.01.15.05.22.02.07.06.13.12.18.07.07.15.12.25.14.1.03.2.03.3,0h0Z"/>
          <path class="cls-1" d="M31.71,57.6c-.7-.37-1.58-.82-2.35-.34-.41.26-.64.76-.5,1.24.24.86,1.14,1.15,1.91,1.35.59.15,1.21-.15,1.44-.71s.04-1.24-.5-1.53h0Z"/>
          <path class="cls-1" d="M26.06,58.82c.57,0,.57-.89,0-.89s-.57.89,0,.89h0Z"/>
        </g>
        <g>
          <path class="cls-4" d="M38.56,68.57c-.28-.22-.63-.36-1.07-.39-1.34-.09-2.57,1.01-3.49,1.85-2.15,1.97-4.01,4.65-5.57,7.1-1.56,2.47-2.85,5.19-3.14,8.14-.2,2.08-.04,4.52,2.28,5.25,2.33.73,4.37-.94,5.8-2.58,2-2.29,3.6-4.98,4.7-7.81.55-1.43.98-2.93,1.17-4.45.2-1.58.21-3.2.19-4.79,0-.9-.24-1.81-.87-2.31Z"/>
          <path class="cls-3" d="M29.22,89.22h.28c.23,0,.47-.13.59-.33,0-.02.02-.03.03-.05l-.09.12c.24-.23.24-.6,0-.83l.09.12s-.02-.03-.03-.05c-.11-.2-.35-.34-.59-.34h-.28c-.35.01-.69.31-.67.68s.3.67.67.67h0Z"/>
          <path class="cls-3" d="M31.86,87.19s.04-.01.07-.02l.16-.07c.08-.04.14-.1.18-.17.04-.04.07-.09.08-.14.04-.08.06-.16.06-.25l-.02-.17-.07-.16c-.04-.08-.1-.14-.17-.18-.06-.06-.14-.1-.22-.12-.02,0-.04-.01-.07-.02-.12-.03-.24-.03-.35,0-.11.03-.21.09-.29.17l-.1.13c-.06.1-.09.22-.09.34,0,.09.02.18.06.26.03.08.07.15.14.21.08.08.18.14.29.17.12.03.24.03.35,0h0Z"/>
          <path class="cls-1" d="M35.86,69.82c-.95.65-1.82,1.54-2.4,2.54-.52.89.49,1.78,1.35,1.35.93-.47,1.83-1.22,2.47-2.04.36-.46.49-1.05.09-1.54-.34-.43-1.03-.64-1.51-.3h0Z"/>
          <path class="cls-1" d="M31.43,75.66c-.08.09-.15.17-.23.26-.07.08-.15.18-.21.27-.13.2-.15.4-.17.62,0,.04,0,.09-.01.13,0,.15.03.29.09.42.04.13.12.25.23.35.2.19.49.34.77.32.04,0,.08,0,.12-.01.11,0,.22-.02.33-.04l.29-.12c.11-.06.2-.14.29-.22s.17-.15.26-.23c.12-.11.21-.24.26-.4.08-.15.11-.31.11-.48,0-.3-.13-.67-.36-.88s-.55-.38-.88-.36-.66.12-.88.36h0Z"/>
        </g>
        <g>
          <path class="cls-4" d="M65.38,84.63c-2.41-2.11-5.26-3.69-8-5.33-1.98-1.18-3.77-2.64-5.87-3.61-1.02-.47-2.17-.89-3.31-.85-1.49.06-2.76,1.01-3.19,2.45-.74,2.47,1.04,5.09,2.52,6.91,1.57,1.92,3.54,3.52,5.73,4.69,2.52,1.35,5.32,2.28,8.17,2.54,1.97.18,5.27.32,6.08-2.02.68-1.95-.78-3.62-2.13-4.8Z"/>
          <path class="cls-3" d="M64.79,90.06c.13,0,.27,0,.4-.04.23-.05.47-.26.45-.52s-.2-.45-.44-.51c-.14-.03-.28-.03-.41-.04-.29-.01-.57.26-.55.55s.24.57.55.55h0Z"/>
          <path class="cls-3" d="M65.49,88.41h.13c.13-.02.24-.05.34-.13s.16-.17.2-.29h0c-.12.11-.25.23-.37.36.1-.03.2-.07.28-.15.09-.09.16-.23.15-.36,0-.11-.04-.21-.11-.31-.09-.11-.19-.16-.32-.2l.37.37h0c-.04-.13-.1-.23-.2-.31s-.21-.11-.34-.12h-.13c-.14-.02-.31.06-.41.16s-.18.26-.17.41.06.3.17.41.26.18.41.17h0Z"/>
          <path class="cls-1" d="M47.27,78.11c.66.54,1.48.78,2.25,1.14s1.5.83,2.38.94c.93.11,1.16-1.1.69-1.67-.55-.66-1.45-.95-2.23-1.26-.78-.31-1.63-.68-2.47-.62-.67.05-1.24.96-.61,1.47h0Z"/>
          <path class="cls-1" d="M54.47,81.37s.02.02.03.04c.07.08.16.14.26.17.1.05.2.08.32.07l.22-.03c.14-.04.26-.11.36-.21,0-.01.02-.02.03-.04l.14-.17.09-.21c.04-.11.04-.23.02-.34,0-.08-.02-.15-.06-.22-.02-.07-.06-.14-.11-.19-.04-.06-.09-.12-.15-.15-.05-.05-.12-.09-.19-.11-.1-.05-.21-.08-.33-.07l-.23.03-.21.09-.17.14-.14.17-.09.21c-.04.11-.04.23-.02.34,0,.08.02.15.06.22.03.11.09.2.18.28h0Z"/>
        </g>
        <g>
          <path class="cls-4" d="M72.44,73.61c-.55-2.47-1.15-5.05-2.25-7.33-.83-1.73-2.24-3.71-4.15-4.33-1.2-.39-2.82-.12-3.36,1.15-.46,1.06-.17,2.33-.15,3.44.03,1.43.11,2.86.29,4.27.36,2.77,1.13,5.51,2.56,7.93,1.2,2.03,6.57,7.47,7.67,2.42.52-2.39-.08-5.21-.6-7.55Z"/>
          <path class="cls-3" d="M70.77,81.48c.12-.01.27,0,.38-.04.12-.04.21-.1.29-.2.07-.09.13-.22.12-.34,0-.1-.03-.2-.08-.28-.07-.13-.2-.21-.34-.26-.08-.03-.17-.03-.25-.03h-.13c-.14-.02-.32.06-.41.16s-.18.27-.17.41.06.31.17.41c.11.1.26.18.41.17h0Z"/>
          <path class="cls-3" d="M71.47,79.51h.07c.11-.03.2-.08.28-.16.05-.05.09-.1.11-.17.03-.06.05-.13.05-.2l-.02-.14c-.03-.09-.07-.17-.14-.23-.03-.03-.07-.06-.11-.09l-.13-.05s-.02,0-.04,0h-.07c-.1-.04-.2-.04-.29-.01-.09.03-.18.07-.24.14-.1.11-.16.24-.16.39,0,.08.01.15.05.21.02.07.06.13.11.18.07.07.15.12.24.14.1.03.2.03.29,0h0Z"/>
          <path class="cls-1" d="M64.09,64.39c-.16-.2.1.13.13.16.09.09.2.16.31.23.12.08.24.16.36.25.27.2.55.37.88.47.65.2,1.28-.46,1.09-1.09-.25-.85-1.23-1.59-2.12-1.59-.37,0-.7.23-.84.57-.16.37-.05.71.19,1.01h0Z"/>
          <path class="cls-1" d="M67.06,68.42l.15.2s.05.07.07.1c.05.07.11.14.16.21.07.05.14.11.21.16l.22.09.24.03c.21,0,.4-.07.56-.2.13-.1.22-.22.28-.37.08-.19.11-.4.05-.6-.07-.22-.2-.4-.32-.59-.13-.21-.33-.37-.57-.43-.23-.06-.53-.03-.73.1s-.38.32-.43.57-.05.53.1.73h0Z"/>
        </g>
        <g>
          <path class="cls-4" d="M90,51.43c-1.69-.62-3.2.18-4.23,1.53-1.75,2.29-2.89,5-3.8,7.72-.93,2.8-1.81,5.69-1.96,8.65-.09,1.85.1,4.27,2.22,4.91,2.19.67,3.98-1.69,5.14-3.19,1.55-2,2.7-4.25,3.56-6.62.85-2.36,1.62-4.83,1.82-7.34.17-2.14-.65-4.9-2.74-5.67Z"/>
          <path class="cls-3" d="M85.82,71.61c.07-.07.14-.13.19-.22.02-.04.04-.07.06-.12.05-.13.06-.29-.02-.41-.07-.1-.16-.17-.28-.21-.05-.02-.13-.02-.19-.02-.1-.01-.21.02-.31.03-.18.03-.36.22-.4.4-.03.15-.02.3.06.44.07.12.2.22.34.26.2.05.41,0,.55-.15h0Z"/>
          <path class="cls-3" d="M86.98,69.37c.65,0,.65-1.01,0-1.01s-.65,1.01,0,1.01h0Z"/>
          <path class="cls-1" d="M87.91,52.49c-.1.09-.2.18-.29.29-.17.2-.27.41-.35.65-.19.55.41,1.14.96.96.24-.08.46-.18.65-.35.1-.09.19-.19.29-.29.16-.17.26-.39.26-.63,0-.22-.1-.48-.26-.63-.36-.33-.9-.34-1.25,0h0Z"/>
          <path class="cls-1" d="M85.09,57.01l-.04.16c-.03.12-.04.24-.05.37,0,.11.02.22.07.32.03.1.09.19.17.26l.17.13c.13.07.27.11.41.11.12-.02.25-.02.37-.05l.16-.04c.34-.09.62-.37.71-.71s0-.73-.26-.99-.64-.36-.99-.26-.62.37-.71.71h0Z"/>
        </g>
      </g>
      <rect class="cls-2" width="100" height="100"/>
    </g>
  </g>
</svg>