<?xml version="1.0" encoding="UTF-8"?>
<svg id="Capa_2" data-name="Capa 2" xmlns="http://www.w3.org/2000/svg" viewBox="0 0 100 100">
  <defs>
    <style>
      .cls-1 {
        fill: #fff;
      }

      .cls-2 {
        fill: none;
      }

      .cls-3 {
        fill: #4a2d2d;
      }

      .cls-4 {
        fill: #d1d9e0;
      }

      .cls-5 {
        fill: #fce1a9;
      }
    </style>
  </defs>
  <g id="COLOR">
    <g>
      <g>
        <g>
          <g>
            <path class="cls-4" d="M8.28,48.56s-1.97-4.04,6.11-6.77c8.09-2.73,32.63-11,42.79-13.73,10.16-2.73,12.41-4.51,17.21-1.6,4.8,2.92,15.14,8.28,16.74,12.51,1.6,4.23-.47,7.9.47,12.32.94,4.42,3.29,8.84,2.82,12.23-.47,3.39-1.41,6.39-5.64,8.18-4.23,1.79-72.41,5.45-74.76,5.17-2.35-.28-2.82-1.5-2.63-4.98.19-3.48,1.5-12.88.75-16.36s-3.86-6.96-3.86-6.96Z"/>
            <path class="cls-5" d="M8.75,45.45s39.4-4.33,53.04-5.55c13.64-1.22,23.42-2.54,25.86-.47,2.45,2.07-.56,11.1.09,14.76.66,3.67,3.95,8.09,3.76,11.1-.19,3.01-5.74,4.04-9.78,4.42s-15.61.28-19.56,2.45c-3.95,2.16-9.97,5.36-16.27,4.7-6.3-.66-12.51-2.82-17.02-3.1s-17.77,1.41-20.22-2.16c-2.45-3.57.19-8.09,1.32-11.47s-1.32-5.17-2.26-8.46c-.94-3.29,1.03-6.21,1.03-6.21Z"/>
            <path class="cls-1" d="M68.7,29.29c1.24.35,2.42.98,3.55,1.58,1.13.6,2.18,1.3,3.21,2.06,2.04,1.51,3.92,3.32,5.49,5.32.05.06.14-.02.1-.08-1.3-2.33-3.01-4.3-5.13-5.93-1.04-.8-2.19-1.48-3.36-2.07-1.2-.6-2.46-.97-3.72-1.42-.34-.12-.5.45-.15.55h0Z"/>
            <path class="cls-1" d="M67.23,31.92c.74.57,1.47,1.14,2.19,1.74.35.29.71.57,1.06.86s.74.53,1.12.78c.1.07.2-.08.13-.16-.31-.35-.62-.7-.97-1.01-.35-.31-.71-.61-1.08-.91-.73-.58-1.47-1.15-2.22-1.7-.24-.18-.47.22-.24.4h0Z"/>
            <path class="cls-1" d="M70.29,40.17c-1.28-1.72-2.92-3.21-4.52-4.61-1.79-1.57-3.72-2.93-5.88-3.95-.32-.15-.6.3-.28.48,2.06,1.16,3.95,2.61,5.72,4.17,1.46,1.29,2.79,2.77,4.29,4.02.22-.03.44-.06.67-.1Z"/>
            <path class="cls-1" d="M54.5,34.88c.84.55,1.64,1.13,2.42,1.76.76.62,1.46,1.32,2.25,1.9.14.1.34-.1.24-.24-.6-.8-1.4-1.46-2.17-2.1-.79-.64-1.61-1.25-2.45-1.81-.3-.2-.58.28-.28.48h0Z"/>
            <path class="cls-1" d="M43.06,34.16c1.37.72,2.6,1.64,3.72,2.7.55.52,1.08,1.05,1.63,1.58s1.08,1.12,1.67,1.62c.1.08.28-.03.19-.15-.44-.63-.96-1.21-1.47-1.78-.52-.6-1.09-1.17-1.68-1.7-1.17-1.04-2.42-2-3.82-2.68-.27-.13-.51.27-.24.41h0Z"/>
            <path class="cls-1" d="M37.01,36.48c.29.21.57.42.83.66s.47.52.69.79c.22.27.42.56.65.82s.48.51.71.78c.1.12.32,0,.27-.15-.14-.34-.27-.67-.46-.99s-.45-.61-.71-.87c-.25-.26-.53-.48-.79-.72-.28-.26-.55-.51-.84-.74-.31-.25-.66.2-.34.44h0Z"/>
            <path class="cls-1" d="M28.79,38.37c.53.32,1,.71,1.49,1.08s.94.78,1.38,1.21.84.85,1.24,1.29c.21.23.43.44.63.69.19.24.38.48.58.72.08.09.25,0,.21-.12-.21-.57-.54-1.14-.88-1.64-.37-.53-.78-1.01-1.25-1.46-.45-.43-.95-.82-1.47-1.17-.54-.37-1.14-.64-1.74-.91-.21-.1-.39.19-.19.32h0Z"/>
            <path class="cls-1" d="M23.87,41.14c.47.28.9.61,1.3.99.19.19.37.39.57.57.21.19.43.36.63.56.1.1.24-.03.19-.14-.13-.26-.25-.52-.42-.75-.17-.24-.39-.44-.61-.63-.44-.38-.92-.71-1.44-.98-.25-.14-.47.24-.23.39h0Z"/>
            <path class="cls-1" d="M18.87,42.57c.36.24.69.5,1.01.79.16.15.32.31.5.44.05.04.11.05.17.09.04.03.08.06.12.09.05.03.09.07.13.1s.1.05.15.07c.08.03.15-.06.13-.13-.03-.12-.08-.2-.14-.3-.03-.04-.05-.09-.08-.13-.03-.05-.05-.11-.09-.17-.14-.19-.32-.34-.5-.49-.36-.29-.74-.56-1.14-.8-.12-.07-.28-.03-.35.09-.07.13-.02.28.09.35h0Z"/>
            <path class="cls-1" d="M51.54,32.18c.06.03.11.06.17.09.03.02.05.03.07.05.03.02-.05-.04,0,0,.01,0,.02.02.03.03.09.08.18.17.26.27l-.04-.06s.05.08.09.11c.02.02.04.04.06.06.03.03.06.06.1.09.04.02.08.03.11.04,0,0,.04.01,0,0-.03-.01,0,0,0,0,.02,0,.04.02.06.02.07,0,.14-.03.17-.1.02-.05.04-.13.04-.19,0-.07-.03-.12-.06-.18-.01-.03-.02-.05-.04-.08-.04-.07-.1-.12-.16-.17-.1-.09-.2-.16-.32-.22-.13-.06-.27-.11-.41-.14-.1-.02-.19.02-.23.11-.04.08,0,.21.08.25h0Z"/>
            <path class="cls-1" d="M50.68,36.05c.33.24.64.53.93.82.15.15.28.3.42.45s.26.33.42.47c.07.06.18,0,.16-.09-.06-.2-.18-.4-.29-.58-.12-.2-.26-.37-.41-.55-.29-.34-.64-.63-1.01-.89-.09-.06-.23-.02-.28.07-.06.11-.02.22.07.28h0Z"/>
          </g>
          <path class="cls-3" d="M9.79,46.72c17.26-2.2,32.93-3.95,50.3-4.99,6.92-.42,13.75-1.31,20.67-1.72,1.9-.11,3.59-.23,5.34.68,2.22,1.15,2.22,3.69,1.73,5.82-.79,3.38-1.32,6.23.04,9.73.47,1.21,1.26.94.77-.28-2.07-5.15,4.37-11.12-.06-15.91-1.62-1.75-4.26-2.32-6.52-2.21-2.83.14-5.69.22-8.51.47-13.69,1.19-27.42,1.98-41.09,3.54-8.16.93-15.02,1.8-23.09,3.32-.91.17-1.36,1.81-.42,1.69l.85-.14Z"/>
        </g>
        <path class="cls-1" d="M33.76,66.43c4.96.26,9.35,3.35,14.42,2.46,2.45-.43,4.7-1.64,7.01-2.51,2.47-.93,5.37-1.09,7.7-2.23.77-.37.43-1.38-.21-1.63-2.14-.86-5.14-.14-7.24.6-2.38.84-4.53,2.21-6.91,3.06-5.11,1.83-9.67-1.12-14.77-1.26-.97-.03-.96,1.46,0,1.51h0Z"/>
        <path class="cls-1" d="M20.04,55.33h.47c.24-.01.48-.22.46-.47s-.2-.46-.46-.46h-.47c-.25-.01-.48.21-.47.46s.21.48.47.47h0Z"/>
        <path class="cls-1" d="M27.47,55.07c.34-.04.72-.05,1.05-.15.34-.11.66-.28.93-.53.4-.37.24-.98-.16-1.25-.54-.37-1.18-.35-1.81-.34-.59,0-1.16.51-1.13,1.13.02.55.5,1.22,1.13,1.13h0Z"/>
        <path class="cls-1" d="M72.56,53.34c.68.13,1.37.22,2.06.24.86.02,1.54-.17,2.08-.88.4-.53.04-1.24-.41-1.57-.55-.41-1.21-.3-1.85-.23-.52.06-1.04.07-1.56.05-1.35-.04-1.69,2.13-.32,2.39h0Z"/>
      </g>
      <rect class="cls-2" width="100" height="100"/>
    </g>
  </g>
</svg>