<?xml version="1.0" encoding="UTF-8"?>
<svg id="Capa_2" data-name="Capa 2" xmlns="http://www.w3.org/2000/svg" viewBox="0 0 100 100">
  <defs>
    <style>
      .cls-1 {
        fill: #fad688;
      }

      .cls-2 {
        fill: none;
      }

      .cls-3 {
        fill: #4a2d2d;
      }
    </style>
  </defs>
  <g id="COLOR">
    <g>
      <g>
        <path class="cls-1" d="M35.21,41.83s-18.12,1.8-20.04,2.64c-1.92.84-2.04,1.8-2.28,5.04-.24,3.24-.6,12.6-.84,15.48-.24,2.88-1.56,5.52-.12,7.08s12,8.88,15.96,9.12c3.96.24,45.97-3.48,50.89-3.96,4.92-.48,8.4-.24,9.36-3.72.96-3.48.24-20.4-1.08-23.53-1.32-3.12-10.8-10.2-14.88-10.68-4.08-.48-12.84.96-18.48,1.56-5.64.6-18.48.96-18.48.96Z"/>
        <path class="cls-3" d="M85.56,48.36c-1.69.27-4.52.37-6.57.55-4.47.39-8.93.81-13.39,1.24-9.92.96-19.85,1.83-29.77,2.74-2.33.21-4.77.6-7.13.58-.66-.81-1.89-1.3-2.69-1.77-3.61-2.13-7.24-4.25-11-6.09-.66-.32-1.18.57-.58.99,3.06,2.12,6.27,4.02,9.49,5.91,1.43.84,3.49,1.46,3.72,3.29.21,1.61.13,3.29.09,4.91-.09,3.29-.22,6.58-.36,9.86-.13,3.22-.44,6.57-.13,9.79.08.83,1.27.86,1.31,0,.18-3.57.1-7.17.26-10.75.16-3.79.36-7.56.33-11.35,0-.94.2-2.16.11-3.21,1.76-.02,3.55-.25,5.28-.37,4.5-.32,8.98-.73,13.47-1.12,9.99-.88,19.98-1.73,29.95-2.84,2.67-.3,5.33-.6,7.98-1.02.88-.14.5-1.47-.37-1.33Z"/>
        <path class="cls-1" d="M66.26,42.07c-5.36,8.32-14.88,6.08-14.88,6.08,0,.03-.08.58-5.12,1.2-5.2.64-12.64-2.64-14.48-8.8-1.84-6.16,2.56-14.08,7.12-16.96,4.42-2.79,6.28-.26,6.4-.09,0,0,0,0,0,0,0,0,0,0,.03-.02.01-.01.03-.01.04-.02.08-.05.25-.14.55-.23.01,0,.02-.01.03-.01.27-.08.63-.17,1.11-.24.32-.05.69-.09,1.12-.12,2.11-.15,2.97,2.08,3.1,2.48.01.04.02.06.02.06,0,0,.82-.12,2.24.64.18.09.36.21.56.33,1.76,1.12,1.2,3.12,1.2,3.12,0,0-1.92-.48-5.84,1.92-3.92,2.4-3.92,6.48-3.92,6.48,0,0,2.24,1.68,7.28-1.92,5.4-3.86,4-11.12,4-11.12l.96-.32c.96-.32,2.96.4,2.96.4,0,0,.96-.48,2.4-.72,1.44-.24,2,.72,2,.72,0,0,.4-.24,1.36-.56.96-.32,1.92.08,2.96,1.12,1.04,1.04,2.16,8.24-3.2,16.56Z"/>
        <path class="cls-3" d="M41.06,39.41c.03-.96.16-1.91.37-2.85.64-2.98,1.92-5.68,4.29-7.66,1.15-.97,2.46-1.76,3.84-2.35.91-.39,2.03-.81,3.11-.88-.88-.32-1.37-.25-1.37-.25,0,0-2.71.61-3.87,1.28-1.36.78-2.57,1.67-3.66,2.8-.12.12-.23.24-.35.37-2.5,2.68-4.46,7.03-3.24,10.71.14.44.66.49.92.23-.05-.46-.05-.94-.04-1.39Z"/>
        <path class="cls-3" d="M47.06,22.98c-.65.28-1.27.64-1.84,1.04-.28.19-.54.4-.81.62-.02.01-.04.02-.05.04-.99.72-1.84,1.61-2.59,2.57-.06.08-.13.17-.19.25-.76.93-1.46,1.92-2.08,2.93-.43.7-.76,1.46-1.05,2.23-.01.04-.03.08-.04.12-.38.08-.79-.13-.78-.61.04-2.79,3.86-6.57,6.56-8.1.35-.2.72-.4,1.1-.57.01,0,.02-.01.03-.01.01-.01.03-.01.04-.02.18-.08.37-.16.55-.23.01,0,.02-.01.03-.01.27-.08.63-.17,1.11-.24Z"/>
        <path class="cls-3" d="M35.42,37.79c-.58,1.64-.07,3.52,1.04,4.82.32.37.99-.02.83-.48-.5-1.4-.63-2.7-.66-4.18-.02-.71-.98-.81-1.2-.16h0Z"/>
        <path class="cls-3" d="M70.15,27.35c0,.18,0,.37-.02.55-.16,3.36-1.06,6.72-2.73,9.66-1.35,2.37-3.31,4.26-5.51,5.84-2.45,1.76-5.06,3.16-8.16,3.14-5.11-.03-9.23-4.52-7.73-9.69.22-.76.57-1.62.99-2.31.73-1.4,1.8-2.47,2.99-3.44-.93.13-1.75.7-2.43,1.32-1.08.98-2.03,2.18-2.55,3.56-1.31,3.47-.71,7.29,2.03,9.84.64.59,1.35,1.09,2.12,1.5-2.82.62-5.83.6-8.7-.37-2.51-.85-4.97-2.26-6.41-4.56-2-3.2-1.6-7.36-.51-10.8.68-2.14,1.78-4.74,3.37-6.38-2.98,3.07-5.63,7.48-5.69,11.78-.14,9.73,11.89,15.25,20.21,11.21,1.66.44,3.42.51,5.11.18,4.53-.89,8.4-4.18,10.75-8.05,2.1-3.46,3.72-8.68,2.89-12.96Z"/>
        <path class="cls-3" d="M49.47,43.52c4.03-1.15,7.15-3.72,9.03-7.47.27-.53-.48-.98-.8-.47-1.99,3.1-5.07,5.55-8.54,6.81-.7.25-.42,1.34.31,1.13h0Z"/>
        <path class="cls-3" d="M58.74,42.73c2.01-1.08,3.67-2.61,4.98-4.48,1.18-1.68,2.52-4.11,2.33-6.22-.05-.53-.77-.82-1.06-.29-.93,1.69-1.33,3.59-2.4,5.23-1.19,1.82-2.78,3.32-4.55,4.56-.72.51-.1,1.62.7,1.19h0Z"/>
        <path class="cls-3" d="M60.89,31.67c.19-.63.78-2.06-.2-2.33-.5-.14-.88.32-1.03.74-.13.38-.17.8-.24,1.19s.11.82.53.94.82-.14.94-.53h0Z"/>
      </g>
      <rect class="cls-2" width="100" height="100"/>
    </g>
  </g>
</svg>