<?xml version="1.0" encoding="UTF-8"?>
<svg id="Capa_2" data-name="Capa 2" xmlns="http://www.w3.org/2000/svg" viewBox="0 0 100 100">
  <defs>
    <style>
      .cls-1 {
        fill: #f9c961;
      }

      .cls-2 {
        fill: none;
      }

      .cls-3 {
        fill: #4a2d2d;
      }
    </style>
  </defs>
  <g id="COLOR">
    <g>
      <g>
        <path class="cls-1" d="M5.09,57.82s.38-15.2.38-15.95,0-2.64,3.3-3.12c3.3-.47,49.37-5,53.9-5.38,4.53-.38,12.84-1.89,18.13,1.7,5.29,3.59,12.56,7.65,13.22,11.42s2.27,19.35.76,22.66c-1.51,3.3-11.61,3.21-16.62,3.68-5,.47-50.41,4.34-51.54,4.53s-3.87-.19-6.14-1.42c-2.27-1.23-13.38-8.15-14.73-9.72-1.7-1.98-.66-8.4-.66-8.4Z"/>
        <path class="cls-3" d="M93.34,43.98c-1.82-.35-3.82,0-5.66.13-2.28.16-4.56.34-6.84.53-5.24.44-10.48.94-15.72,1.46-10.27,1.03-20.54,2.16-30.79,3.37-3.28.39-6.61.7-9.86,1.34-.05-.06-.09-.13-.16-.18-2.65-2.03-6.01-3.46-8.91-5.11-2.98-1.7-5.98-3.34-9.02-4.93-.8-.42-1.4.67-.7,1.19,2.88,2.12,5.85,4.07,8.94,5.88,2.6,1.52,5.33,3.38,8.16,4.5-.42,1.76-.39,3.7-.5,5.48-.12,1.97-.14,3.94-.15,5.92-.02,4.22.09,8.48.54,12.68.14,1.28,2.07,1.34,2.04,0-.08-4.23-.25-8.45-.23-12.68,0-1.97.06-3.95.09-5.92.02-1.66.19-3.39.06-5.06,7.42-.32,14.89-1.57,22.26-2.36,10.63-1.14,21.26-2.22,31.91-3.12,2.66-.23,5.33-.44,8-.63,2.11-.15,4.51.02,6.55-.59.88-.26,1-1.71,0-1.91Z"/>
      </g>
      <rect class="cls-2" width="100" height="100"/>
    </g>
  </g>
</svg>