<?xml version="1.0" encoding="UTF-8"?>
<svg id="Capa_2" data-name="Capa 2" xmlns="http://www.w3.org/2000/svg" viewBox="0 0 100 100">
  <defs>
    <style>
      .cls-1 {
        fill: #fff;
      }

      .cls-2 {
        fill: none;
      }

      .cls-3 {
        fill: #e09d3e;
      }

      .cls-4 {
        fill: #fad380;
      }

      .cls-5 {
        fill: #4a2d2d;
      }
    </style>
  </defs>
  <g id="COLOR">
    <g>
      <g>
        <path class="cls-4" d="M95.56,34.05s.27,29.85.09,37.4c-.02,1.03-1.08,1.82-2.54,1.76-6.61-.25-24.48-1.76-25.74-1.76-1.54,0-18.06-.54-18.15-1.26s.09-40.36,0-40.63,46.43,3.57,46.33,4.49Z"/>
        <path class="cls-3" d="M95.56,34.05l-44.71-2.96,18.78,18.6,1.63,40.81s-24.74,5.24-44.61-.72c-19.87-5.96-18.06-11.92-19.68-16.98-1.63-5.06-3.25-40.45-.18-46.23,3.07-5.78,21.85-16.07,45.87-15.17,24.02.9,33.99,7.15,38.77,11.41,6.09,5.41,4.13,11.23,4.13,11.23Z"/>
        <path class="cls-5" d="M95.48,33.65c-.75-.38-1.56-.56-2.4-.61-1.19-.08-2.38-.17-3.58-.25-3.29-.23-6.57-.46-9.86-.69-7.16-.5-14.32-1.04-21.48-1.41-2.37-.12-4.72-.25-7.08-.16-.41.01-.54.39-.42.68v.05c.57.98,1.15,1.69,1.9,2.55.75.87,1.6,1.67,2.41,2.48,1.56,1.57,3.16,3.09,4.76,4.61,1.59,1.52,3.19,3.04,4.74,4.6.8.81,1.6,1.63,2.37,2.47.37.4.73.8,1.09,1.2-.71.12-1.42.26-2.13.4-1.3.24-2.61.45-3.92.62-2.77.35-5.55.55-8.34.63-5.79.16-11.57-.24-17.3-1.08-9.21-1.35-18.94-3.72-25.58-10.71-1.08-1.14-2.05-2.37-2.86-3.72-.33-.55-.63-1.11-.9-1.69-.47-1-.9-2.15-1-3.24-.04-.38-.62-.52-.71-.1-.63,2.97,1.65,6.2,3.45,8.38,2.44,2.96,5.6,5.36,8.94,7.23,4.81,2.69,10.12,4.3,15.51,5.35,5.94,1.15,12.01,1.68,18.07,1.66,3.28-.01,6.56-.19,9.82-.57,1.54-.18,3.07-.4,4.6-.67,1.11-.2,2.2-.39,3.26-.73.12,4.29.54,9.07.72,13.62.25,6.32.52,12.64.72,18.96.04,1.32.1,2.65.16,3.97.04.96,0,2.2.55,3.02.23.34.71.36.93,0,.45-.72.43-1.78.41-2.61-.02-1.13-.05-2.26-.11-3.39-.15-2.94-.32-5.88-.47-8.82-.34-6.34-.66-12.68-1.02-19.02-.13-2.26-.14-4.57-.28-6.83.02-.11.03-.23,0-.37-.27-1.01-1.38-1.9-2.08-2.64-.78-.83-1.59-1.64-2.4-2.44-1.6-1.57-3.24-3.1-4.89-4.62-1.65-1.53-3.31-3.05-4.95-4.6-.83-.79-1.63-1.63-2.47-2.42-.43-.4-.82-.76-1.22-1.11,4.83.46,9.68.78,14.53,1.12,7.12.5,14.25,1.01,21.37,1.54,1.41.1,2.83.21,4.24.31,1.04.08,1.89.09,2.82-.22.3-.1.41-.56.09-.72Z"/>
        <path class="cls-5" d="M11.87,45.06c-.22,2.84-.42,5.69-.58,8.54s-.09,5.7,0,8.54.24,5.69.46,8.53c.11,1.39.22,2.78.41,4.16s.3,2.84.73,4.17c.14.43.74.34.77-.1.1-1.4-.1-2.84-.2-4.24s-.24-2.84-.35-4.25c-.23-2.79-.41-5.59-.54-8.39s-.16-5.61-.3-8.41c-.14-2.85-.2-5.69-.17-8.54,0-.15-.22-.15-.23,0h0Z"/>
        <path class="cls-5" d="M20.45,51.44c-.22,2.29-.36,4.58-.32,6.88.02,1.15.04,2.29.1,3.44.06,1.07.08,2.22.36,3.27.09.32.6.34.67,0,.23-1.06.21-2.19.24-3.27.03-1.15.03-2.29.06-3.44.05-2.29-.02-4.58-.12-6.88-.03-.65-.93-.63-.99,0h0Z"/>
        <path class="cls-5" d="M27.29,53.98c-.51,4.56-.82,9.16-.73,13.75.04,2.29.13,4.59.34,6.87.1,1.12.24,2.23.41,3.34s.29,2.28.69,3.34c.14.37.62.29.67-.09.12-1.13-.03-2.28-.09-3.42s-.12-2.29-.19-3.43c-.12-2.25-.26-4.49-.3-6.74-.1-4.54-.07-9.08.22-13.62.04-.66-.94-.64-1.02,0h0Z"/>
        <path class="cls-5" d="M35.35,60.71c-.1,2.58-.22,5.15-.22,7.74s.14,4.98.3,7.46.38,4.96.66,7.44c.14,1.22.28,2.44.46,3.66.09.61.16,1.24.29,1.84.14.66.36,1.11.77,1.62.19.23.52.07.6-.16.43-1.14.12-2.34-.04-3.52s-.35-2.47-.5-3.7c-.3-2.47-.55-4.95-.74-7.44-.38-4.95-.68-9.97-.65-14.93,0-.6-.91-.6-.93,0h0Z"/>
        <path class="cls-5" d="M46.33,56.5c-.34,4.43-.39,8.82-.24,13.26.07,2.19.12,4.38.21,6.56.05,1.07.08,2.15.2,3.21s.18,2.24.47,3.28c.09.32.5.22.54-.07.13-1.08.04-2.25.02-3.34s-.1-2.14-.15-3.21c-.11-2.19-.2-4.37-.21-6.56-.02-4.38.03-8.75.01-13.13,0-.55-.8-.54-.85,0h0Z"/>
        <path class="cls-5" d="M57.26,59.03c-.1,5.15.12,10.3.44,15.44.16,2.56.52,5.08.64,7.65.06,1.25.12,2.5.16,3.75s-.03,2.64.45,3.82c.09.23.46.29.53,0,.31-1.25.06-2.56-.07-3.82s-.22-2.5-.31-3.75c-.19-2.55-.1-5.09-.17-7.65-.15-5.15-.26-10.3-.55-15.44-.04-.72-1.11-.73-1.12,0h0Z"/>
        <g>
          <path class="cls-5" d="M86.45,58.23c-.78-.85-2.01-1.23-3.13-1.04-2.07.34-2.69,2.69-2.98,4.44-.2,1.18-.27,2.43.13,3.58.65,1.84,2.22,3.41,4.27,3.38,2.23-.03,3.35-1.9,3.56-3.93.13-1.23.02-2.52-.35-3.7-.3-.96-.82-1.98-1.5-2.72Z"/>
          <path class="cls-5" d="M91.76,41.36c-1.16-.94-3.19-.51-3.64,1.1-.48,1.72-.71,5.12.87,6.25.49.35,1.13.39,1.68.2,1.23-.43,1.93-1.8,2.21-3.12.34-1.61.16-3.38-1.12-4.42Z"/>
          <path class="cls-5" d="M74.37,37.42c-2.77-.95-4.29,3.45-3.1,5.38.31.51.8.92,1.38,1.08.62.16,1.28.03,1.81-.3,1.1-.67,1.71-2.01,1.69-3.28-.02-1.16-.61-2.47-1.78-2.87Z"/>
        </g>
        <path class="cls-1" d="M79.11,49.97l.03.04c.15.15.33.25.53.31.21.06.42.06.64,0l.07-.02c.17-.04.32-.12.44-.23.1-.06.18-.14.23-.23.12-.13.19-.27.23-.44l.05-.35-.05-.35c-.04-.17-.12-.32-.23-.44-.06-.1-.14-.18-.23-.23-.13-.12-.27-.19-.44-.23l-.35-.05-.35.05c-.17.04-.32.12-.44.23-.1.06-.18.14-.23.23-.12.13-.19.27-.23.44l-.05.35.05.35c.06.22.17.41.33.57h0Z"/>
        <path class="cls-1" d="M92.15,54.96c1.27,0,1.27-1.97,0-1.97s-1.27,1.97,0,1.97h0Z"/>
        <path class="cls-1" d="M75.18,65.89c.17,0,.32-.03.46-.1.15-.05.28-.13.39-.25.12-.11.2-.24.25-.39.08-.14.11-.3.1-.46l-.04-.32c-.06-.2-.16-.38-.31-.53l-.24-.19c-.19-.11-.39-.16-.61-.16-.17,0-.32.03-.46.1-.15.05-.28.13-.39.25-.12.11-.2.24-.25.39-.08.14-.11.3-.1.46l.04.32c.06.2.16.38.31.53l.24.19c.19.11.39.16.61.16h0Z"/>
        <path class="cls-1" d="M65.55,38.85c.14,0,.27-.02.39-.09.13-.04.23-.11.33-.21.1-.09.17-.2.21-.33.06-.12.09-.25.09-.39l-.04-.27c-.05-.17-.14-.32-.26-.45l-.21-.16c-.16-.09-.33-.14-.51-.14-.14,0-.27.02-.39.09-.13.04-.23.11-.33.21-.1.09-.17.2-.21.33-.06.12-.09.25-.09.39l.04.27c.05.17.14.32.26.45l.21.16c.16.09.33.14.51.14h0Z"/>
      </g>
      <rect class="cls-2" width="100" height="100"/>
    </g>
  </g>
</svg>