<?xml version="1.0" encoding="UTF-8"?>
<svg id="Capa_2" data-name="Capa 2" xmlns="http://www.w3.org/2000/svg" viewBox="0 0 100 100">
  <defs>
    <style>
      .cls-1 {
        fill: #fdebc4;
      }

      .cls-2 {
        fill: #42ade1;
      }

      .cls-3 {
        fill: #fff;
      }

      .cls-4 {
        fill: none;
      }

      .cls-5 {
        fill: #4a2d2d;
      }

      .cls-6 {
        fill: #b3a7a7;
      }
    </style>
  </defs>
  <g id="COLOR">
    <g>
      <g>
        <path class="cls-6" d="M62.02,28.56c-4.78,1.28-13.75,2.81-18.75,6.8-5,3.99-8.13,9.45-3.99,13.36,4.14,3.91,13.64,3.46,20.08-2.5,3.13-2.89,5.13-10.83,9.14-16.49,5.16-7.27,20.79-11.33,25-16.49,4.22-5.16,2.42-9.3-1.88-8.67s-13.05,8.99-18.05,13.99c-5,5-9.27,9.39-11.56,10Z"/>
        <g>
          <path class="cls-2" d="M73.46,85.25c-7.15,10.78-29.89,13.24-46.65,7.74-15.47-5.08-18.56-20.36-16.92-27.83.14-.63.31-1.2.51-1.7.12-.32.28-.62.47-.91,3.75-5.76,19.71-6.75,26.37-7.18,14.42-.92,33.76,2.23,38.44,5.63.58.42,1.1.95,1.53,1.56.56.78,1,1.71,1.3,2.77,1.4,4.8.07,12.19-5.06,19.93Z"/>
          <path class="cls-1" d="M20.85,69.35c4.92,1.07,10,1.19,15,1.42,5.51.25,11.02.41,16.54.21,5.3-.2,10.63-.72,15.8-1.93,1.83-.43,3.74-.86,5.4-1.74-4.52-2.88-13.38-4.29-33.54-4.09-13.72.13-21.05,2.38-24.84,4.32,1.77.87,3.77,1.41,5.63,1.82Z"/>
        </g>
        <path class="cls-1" d="M57.64,29.57s1.8.1,2.87,2.93c.7,1.85.04,6.06-1.58,8.03-2.46,2.99-4.92,3.75-7.27,6.09-2.34,2.34-6.33,8.03-6.33,10.78s1.41,7.5,2.81,9.55c1.41,2.05.88,3.63.88,3.63l-11.9-.23s.59-3.63,1.52-5.45c.94-1.82,1.76-4.92,1.17-8.32-.3-1.75-3.05-6.21-3.4-9.67s1.93-8.85,6.21-12.25,7.91-5.57,15-5.1Z"/>
        <path class="cls-5" d="M57.53,29.94c4.19,2.98,1.99,8.48-.75,11.7-2.65,3.12-6.22,5.32-8.74,8.55-2.13,2.71-3.44,5.9-2.82,9.38.77,4.33,3,8.55,4.63,12.61.33.83,1.69.48,1.36-.37-.91-2.38-1.83-4.75-2.75-7.13-.83-2.14-2.01-4.41-2.02-6.74-.01-4.94,4.11-8.59,7.51-11.61,2.99-2.66,6.07-5.62,7.02-9.66.61-2.6.25-7.25-3.19-7.62-.53-.06-.59.66-.24.9h0Z"/>
        <path class="cls-3" d="M48.75,32.62c-2.33.94-4.51,2.18-6.28,4-1.41,1.45-3.38,3.86-2.89,6.01.14.6.88.71,1.29.34.7-.63.98-1.5,1.43-2.31.53-.96,1.21-1.82,1.96-2.62,1.48-1.58,3.25-2.83,5.16-3.83.85-.45.25-1.96-.67-1.58h0Z"/>
        <path class="cls-3" d="M38.77,46.89c.08.39.1.88.32,1.22.2.31.53.48.9.43.33-.04.69-.3.75-.65.04-.24.04-.42,0-.66-.02-.08-.04-.17-.05-.25-.04-.2-.08-.39-.12-.59-.1-.48-.69-.8-1.15-.65-.51.17-.75.63-.65,1.15h0Z"/>
        <path class="cls-3" d="M36.8,51.61c1.74,3.03,2.33,6.41,2.06,9.87-.15,1.92-.52,3.8-.99,5.67-.38,1.52-.95,3.04-1.07,4.61-.03.39.54.51.72.19,1.75-3.1,2.5-7.51,2.63-11.05.13-3.43-.56-6.91-2.59-9.73-.33-.45-1.05-.06-.76.44h0Z"/>
        <path class="cls-5" d="M78.53,65.32c-1.36,2.6-4.23,4.12-6.9,5.01-12.42,4.15-26.38,3.45-39.25,2.75-5.93-.32-11.94-.9-17.39-3.47-2.08-.98-4.01-2.41-5.09-4.45.14-.63.31-1.2.51-1.7.12-.32.28-.62.47-.91.25,1.44,1.02,2.75,2.39,3.81,2.14,1.64,4.99,2.43,7.58,3,4.92,1.07,10,1.19,15,1.42,5.51.25,11.02.41,16.54.21,5.3-.2,10.63-.72,15.8-1.93,2.4-.56,4.94-1.13,6.89-2.72,1.2-.98,2.06-2.36,2.14-3.78.56.78,1,1.71,1.3,2.77Z"/>
      </g>
      <rect class="cls-4" width="100" height="100"/>
    </g>
  </g>
</svg>