<?xml version="1.0" encoding="UTF-8"?>
<svg id="Capa_2" data-name="Capa 2" xmlns="http://www.w3.org/2000/svg" viewBox="0 0 100 100">
  <defs>
    <style>
      .cls-1 {
        fill: #42ade1;
      }

      .cls-2 {
        fill: #fff;
      }

      .cls-3 {
        fill: none;
      }

      .cls-4 {
        fill: #e0e5ea;
      }

      .cls-5 {
        fill: #4a2d2d;
      }
    </style>
  </defs>
  <g id="COLOR">
    <g>
      <g>
        <g>
          <path class="cls-1" d="M83.38,75.85c-8.3,12.51-34.67,15.36-54.11,8.97-17.95-5.9-21.53-23.61-19.62-32.29.16-.73.35-1.39.59-1.97.14-.37.33-.72.55-1.06,4.35-6.68,22.87-7.83,30.59-8.33,16.72-1.07,39.16,2.58,44.59,6.53.68.49,1.27,1.1,1.78,1.82.65.91,1.16,1.99,1.51,3.21,1.62,5.57.08,14.14-5.87,23.12Z"/>
          <path class="cls-5" d="M89.25,52.73c-1.57,3.01-4.9,4.78-8.01,5.81-14.4,4.81-30.6,4-45.53,3.19-6.88-.38-13.86-1.04-20.17-4.03-2.41-1.14-4.65-2.79-5.91-5.16.16-.73.35-1.39.59-1.97.14-.37.33-.72.55-1.06.29,1.67,1.18,3.19,2.77,4.42,2.48,1.9,5.78,2.82,8.79,3.48,5.71,1.24,11.6,1.38,17.4,1.65,6.39.29,12.79.48,19.18.24,6.15-.23,12.33-.83,18.33-2.24,2.79-.65,5.73-1.31,7.99-3.16,1.39-1.13,2.39-2.73,2.48-4.38.65.91,1.16,1.99,1.51,3.21Z"/>
        </g>
        <path class="cls-4" d="M22.35,57.41c5.71,1.24,11.6,1.38,17.4,1.65,6.39.29,12.79.48,19.18.24,6.15-.23,12.33-.83,18.33-2.24,2.79-.65,5.73-1.31,7.99-3.16.13-.11.25-.22.38-.34,0-.75-.07-1.48-.22-2.19-.91-4.35-6.62-3.63-6.62-3.63,0,0,2.27-2.99-.82-6.53-3.01-3.45-6.89-1-6.89-1,0,0,2.36-4.8-2.08-8.07-4.44-3.26-8.88,1.27-8.88,1.27,0,0,.36-3.81-3.9-5.08-4.01-1.19-6.8,2.63-6.8,2.63,0,0-1.54-5.26-7.89-3.9-6.34,1.36-5.71,9.88-5.71,9.88,0,0-6.07-4.35-10.7-1.45-4.62,2.9-2.45,9.97-2.45,9.97,0,0-5.08-.54-7.25,4.08-.75,1.59-.72,3.5-.37,5.34,2.23,1.25,4.84,1.97,7.28,2.5Z"/>
        <path class="cls-5" d="M33.71,55.44c.7-1.9,2.62-3.15,4.62-3.38,1.16-.13,2.36.05,3.45.46.61.23,1.21.56,1.66,1.03.1.11.22.24.33.4.03-.07.05-.15.05-.23,0-2.75-3.38-3.26-5.47-2.98-2.41.32-4.62,1.56-4.85,4.18-.02.22.07.4.22.52Z"/>
        <path class="cls-5" d="M48.09,38.73c.4-.7,1.07-1.17,1.82-1.46,1.36-.52,3.25-.49,4.59.27,0-.1-.02-.21-.08-.32-1.04-1.86-3.6-1.86-5.38-1.17-1.57.6-2.62,2.24-2.89,4.04-2.29-1.33-5.35-1.51-7.23.6-.1.11-.14.22-.15.33.02-.21,1.16-.5,1.38-.55.54-.14,1.09-.21,1.65-.21,1.53-.01,3.14.47,4.29,1.51.73.66,1.68,0,1.55-.9-.14-.92.06-1.62.46-2.14Z"/>
        <path class="cls-5" d="M62.57,48.36c-2.2-.32-4.72.48-5.75,2.56-.16.33-.09.64.09.85,1.08-1.33,2.9-2.09,4.59-1.89.44.05.85.18,1.22.37.28.1.5.25.69.43.21.16.41.35.59.55.51.56,1.13,1.43,1.33,2.3.22-.07.42-.24.5-.44.84-2.16-1.18-4.44-3.25-4.73Z"/>
        <path class="cls-5" d="M69.71,43.23c-.45.15-.63.52-.63.9.29-.08.6-.12.9-.13.68-.02,1.34.11,1.94.41.59.29,1.11.79,1.42,1.38.15.29.27.6.33.92.19-.06.35-.2.4-.45.48-2.37-2.44-3.65-4.36-3.03Z"/>
        <path class="cls-5" d="M28.11,43.98c.02-.4.09-.8.22-1.19.07-.2.15-.41.25-.6.08-.15.16-.33.26-.47.27-.38.64-.66,1.07-.83.11-.04.22-.07.34-.1-.63-.68-1.75-.19-2.3.34-.61.59-.86,1.45-.66,2.27.11.46.46.64.82.63,0-.02,0-.05,0-.07Z"/>
        <path class="cls-5" d="M75.23,52.48c.49,0,.96.22,1.32.53.22.19.4.43.54.7.15-.15.24-.36.24-.58,0-1.36-1.87-2.1-2.9-1.32-.31.23-.48.59-.38.95.38-.14.76-.28,1.18-.28Z"/>
        <path class="cls-2" d="M60.82,40.53v.02c.1.16.22.29.37.39.09.09.19.15.31.18.06.03.12.05.18.07l.37.05c.19,0,.37-.03.53-.12.12-.03.22-.09.3-.18.15-.1.27-.23.35-.39.13-.19.15-.33.17-.53.03-.12.03-.25,0-.37,0-.07-.02-.14-.03-.2-.07-.24-.19-.44-.36-.62l-.28-.22c-.22-.13-.45-.19-.7-.19-.19,0-.37.03-.54.12-.17.06-.32.15-.45.29-.14.13-.23.28-.29.45-.09.17-.13.35-.12.54,0,.25.06.49.19.7h0Z"/>
        <path class="cls-2" d="M33.85,48.14c.21,0,.4-.04.57-.13.18-.06.34-.16.48-.31.15-.14.25-.3.31-.48.09-.18.14-.37.13-.57l-.05-.4c-.07-.25-.2-.47-.38-.66l-.3-.23c-.23-.13-.48-.2-.75-.2-.21,0-.4.04-.57.13-.18.06-.34.16-.48.31-.15.14-.25.3-.31.48-.09.18-.14.37-.13.57l.05.4c.07.25.2.47.38.66l.3.23c.23.13.48.2.75.2h0Z"/>
        <path class="cls-2" d="M51.72,49.55c.13,0,.26-.02.37-.08.12-.04.22-.11.31-.2.09-.09.16-.19.2-.31.06-.12.09-.24.08-.37l-.03-.26c-.05-.16-.13-.31-.25-.43l-.2-.15c-.15-.09-.31-.13-.49-.13-.13,0-.26.02-.37.08-.12.04-.22.11-.31.2-.09.09-.16.19-.2.31-.06.12-.09.24-.08.37l.03.26c.05.16.13.31.25.43l.2.15c.15.09.31.13.49.13h0Z"/>
        <path class="cls-2" d="M26.68,54.77c1.45,0,1.45-2.25,0-2.25s-1.45,2.25,0,2.25h0Z"/>
        <path class="cls-2" d="M71.56,56.27l.11-.03s.03,0,.05-.01l.33-.14c.1-.07.2-.14.29-.22.13-.12.23-.27.28-.44.08-.16.12-.34.12-.52l-.05-.36c-.06-.23-.18-.43-.35-.6-.05-.04-.1-.08-.15-.12-.13-.12-.29-.2-.47-.24-.02,0-.03,0-.05-.01l-.11-.03c-.47-.13-1.04,0-1.37.36l-.22.29c-.13.22-.19.46-.19.71,0,.19.03.38.12.54.06.18.15.33.29.45.36.36.89.5,1.37.36h0Z"/>
      </g>
      <rect class="cls-3" width="100" height="100"/>
    </g>
  </g>
</svg>