<?xml version="1.0" encoding="UTF-8"?>
<svg id="Capa_2" data-name="Capa 2" xmlns="http://www.w3.org/2000/svg" viewBox="0 0 100 100">
  <defs>
    <style>
      .cls-1 {
        fill: #fdebc4;
      }

      .cls-2 {
        fill: #42ade1;
      }

      .cls-3 {
        fill: #fff;
      }

      .cls-4 {
        fill: none;
      }

      .cls-5 {
        fill: #4a2d2d;
      }

      .cls-6 {
        fill: #7ec7eb;
      }
    </style>
  </defs>
  <g id="COLOR">
    <g>
      <g>
        <path class="cls-2" d="M85.54,52.4c-.04.22-2.92,14.31-3.59,18.17-.1.6-.19,1.26-.28,1.94-.48,3.71-.86,8.21-3.02,9.53-1.49.91-3.05,1.7-4.65,2.37-4.45,1.87-9.25,2.89-14.05,3.42-1.74.19-3.48.33-5.24.42-5.06.25-10.18.1-15.19-.36-3.96-.36-7.92-1.05-11.71-2.27-2.76-.88-5.42-2.05-7.92-3.57-2.55-1.56-2.62-7.58-3.3-11.47-.1-.58-.25-1.38-.44-2.34-.94-4.89-2.72-13.68-3.09-15.5-.04-.18-.06-.29-.07-.32.02.02.12.13.35.29.98.73,4.26,2.6,13.06,3.91,5.34.8,12.72,1.39,22.85,1.39,1.48,0,2.91-.01,4.28-.04,10.94-.22,18.38-1.28,23.31-2.41,6.37-1.47,8.55-3.05,8.68-3.14Z"/>
        <path class="cls-3" d="M85.15,38.65s-9.33-4.96-25.51-5.69c-16.18-.73-34.84.15-44.03,4.37-9.18,4.23-11.81,11.08-7.43,15.02,4.37,3.94,17.06,8.6,37.9,8.31,20.85-.29,32.22-1.17,40.09-5.69s7-8.6,5.1-11.23-6.12-5.1-6.12-5.1Z"/>
        <path class="cls-6" d="M38.94,36.9s-14.14,1.02-19.68,2.92c-5.54,1.9-8.5,7.14-5.71,10.49,2.79,3.36,16.06,6.42,34.13,5.83s26.97-1.46,32.51-3.79c5.54-2.33,8.46-6.41,3.06-10.35-5.39-3.94-14.72-4.96-21.87-5.25s-16.76-.87-22.45.15Z"/>
        <path class="cls-5" d="M91.17,42.64c-1.71-2.35-4.18-3.96-6.78-5.18-3-1.41-6.1-2.44-9.35-3.1-4.12-.83-8.31-1.2-12.49-1.58-3.97-.36-7.95-.62-11.93-.59-1.94-.09-3.9-.02-5.84.04-2.04.06-4.07.16-6.11.3-4.14.28-8.29.64-12.39,1.28-3.52.56-7.02,1.37-10.29,2.82-2.66,1.18-5.28,2.41-7.34,4.53-1.86,1.91-3.53,4.85-3.05,7.6.45,2.61,2.78,4.56,4.88,5.91,2.47,1.59,5.24,2.66,8.03,3.54,3.87,1.22,7.87,1.98,11.89,2.53,4.46.61,8.97,1.03,13.48,1.21,1.23.11,2.48.12,3.72.14,1.87.03,3.74.01,5.61-.04,4.08-.12,8.17-.41,12.22-.88,4.04-.47,8.08-1.08,12.02-2.12,3.13-.82,6.28-1.85,9.14-3.39,2.27-1.22,4.73-2.89,5.91-5.26,1.28-2.58.27-5.56-1.33-7.77ZM91.71,48.47c-.41,2.45-2.83,4.14-4.82,5.29-2.48,1.43-5.22,2.35-7.97,3.11-3.74,1.03-7.57,1.7-11.42,2.16-4.19.5-8.4.85-12.62,1.02-1.48-.06-2.95.04-4.43.06-1.65.02-3.29,0-4.94-.04-3.81-.12-7.62-.41-11.42-.8-3.82-.39-7.62-.89-11.36-1.73-3.14-.71-6.32-1.58-9.24-2.96-2.17-1.03-4.57-2.38-5.88-4.48-.61-.97-.87-2.06-.62-3.19.3-1.35.87-2.61,1.69-3.73,1.61-2.21,4.06-3.7,6.52-4.78,1.27-.55,2.6-.93,3.92-1.34,1.68-.52,3.39-.97,5.11-1.35,7.34-1.62,14.93-2.09,22.44-2.24.07.03.15.05.25.05,2,.02,4.01-.07,6.01-.04,2.01.03,4.01.13,6.01.27,4.02.28,8.04.71,12.01,1.37,3.51.58,6.89,1.51,10.28,2.55,2.64.81,5.23,2.07,7.27,3.95.99.91,1.82,1.97,2.41,3.18.53,1.09,1.01,2.43.8,3.66Z"/>
        <path class="cls-1" d="M16.91,51.88c2.05.96,4.32,1.4,6.53,1.84,2.83.56,5.66,1.13,8.5,1.59,2.88.47,5.75.77,8.67.87,2.92.1,5.85.07,8.78.07,2.88,0,5.77.09,8.65.12,5.68.05,11.46-.22,16.94-1.83,1.96-.57,3.94-1.21,5.79-2.06.95-.44,1.88-.93,2.73-1.54.35-.25.69-.54,1.01-.89.04-.05.07-.08.11-.12-.06-.09-.12-.18-.18-.27-2.72-3.84-7.3-6.06-11.95-6.78-2.6-.4-5.26-.39-7.86-.8-2.3-.36-4.53-1.06-6.81-1.47-5.59-.99-11.45-.21-16.65,2.05-2.08.9-4.16,2.06-6.43,2-1.39-.04-2.72-.54-4.09-.75-3.21-.5-6.45.56-9.48,1.77-2.35.94-4.67,1.96-6.95,3.08-.21.1-.51.23-.84.37.83,1.25,2.12,2.1,3.53,2.75Z"/>
        <path class="cls-5" d="M84.71,42.3c-1.96-1.82-4.58-2.84-7.09-3.66-1.7-.56-3.42-1.05-5.18-1.4-1.78-.34-3.57-.56-5.37-.74-4.3-.44-8.64-.76-12.98-.92-1.41-.1-2.84-.1-4.25-.09-1.44-.01-2.88,0-4.32.03-.82.02-1.63.06-2.44.15-3.58.17-7.16.42-10.73.75-1.9.18-3.8.38-5.68.72-1.83.33-3.62.82-5.39,1.38-2.67.84-5.52,1.89-7.57,3.87-.92.89-1.65,2.02-1.84,3.31-.25,1.73.51,3.37,1.67,4.6,2.07,2.19,5.23,3.08,8.02,3.95,6.27,1.96,12.92,2.58,19.48,2.81.75.05,1.49.06,2.25.08,1.53.04,3.06.05,4.6.06,1.75,0,3.5,0,5.25-.03.4,0,.8,0,1.2,0,.83,0,1.67.02,2.5-.09,7.1-.25,14.25-.92,21.03-3.13,2.66-.87,5.62-1.79,7.45-4.05,1.02-1.26,1.6-2.84,1.28-4.46-.24-1.22-1-2.3-1.9-3.14ZM85.02,47.83c-1.15,2.57-4.2,3.56-6.67,4.31-3.15.96-6.33,1.68-9.6,2.13-3.4.47-6.83.67-10.26.82-1.33.06-2.65.1-3.98.13-.52,0-1.04,0-1.56.01-2.44.01-4.87.02-7.31,0-.66,0-1.31-.02-1.97-.03-.8-.02-1.59-.03-2.39-.06-.18,0-.35,0-.53,0-4.9-.16-9.8-.55-14.6-1.48-1.71-.33-3.39-.76-5.05-1.26-1.37-.41-2.76-.8-4.06-1.42-1.24-.59-2.43-1.37-3.18-2.55-.82-1.29-.84-2.77-.03-4.05,1.33-2.1,4.01-3.25,6.26-4.07,3.37-1.23,7.03-1.72,10.58-2.19,6.25-.82,12.55-1.3,18.85-1.32,1.21,0,2.42.03,3.64.06,3.43.11,6.84.38,10.25.73,3.42.35,6.83.79,10.21,1.46,1.67.33,3.3.68,4.91,1.27,1.13.41,2.23.9,3.28,1.5,2.1,1.21,4.41,3.35,3.23,6.01Z"/>
        <path class="cls-3" d="M56.93,42.56c-2.13-.34-4.23-.42-6.36-.14-1.94.25-3.92.67-5.7,1.48-1.45.66-2.8,1.76-3.01,3.43-.1.79.48,1.21,1.19,1.32.98.15,2.03.05,3.01-.02,4.44-.31,8.82-1.15,13.27-1.39,2.24-.12,4.49-.14,6.74-.06,1.09.04,2.17.11,3.26.19.88.06,2.15.26,2.44,1.27.66,2.32-3.38,3.05-4.9,3.18-2.29.19-4.53-.57-6.79-.77-.33-.03-.46.48-.17.63,1.79.91,3.83,1.13,5.81,1.03,1.84-.09,3.89-.32,5.44-1.41.63-.44,1.2-1.05,1.49-1.77s-.03-1.54-.52-2.12c-1.3-1.5-3.82-1.32-5.62-1.4-4.46-.18-8.94.03-13.36.66-2.21.32-4.42.68-6.65.9-1.05.1-2.13.23-3.18.23-.16,0-.47.02-.58-.13-.17-.22.09-.58.21-.76.22-.33.51-.65.8-.92,1.48-1.37,3.75-1.87,5.66-2.25,2.42-.47,4.97-.6,7.43-.43.43.03.54-.69.1-.76h0Z"/>
        <path class="cls-3" d="M36.4,46.88c-1.59-.21-3.19-.26-4.77.06-1.31.26-2.72.85-3.64,1.86-.82.9-1.18,2.35.05,3.08.48.28,1.04.36,1.59.42.8.09,1.62.24,2.41.15.42-.05.53-.6.1-.75-1.07-.37-2.26-.17-3.32-.55-1.28-.46-.11-1.59.54-2.04,2.06-1.44,4.66-1.25,7.04-1.36.57-.03.53-.79,0-.86h0Z"/>
      </g>
      <rect class="cls-4" width="100" height="100"/>
    </g>
  </g>
</svg>