<?xml version="1.0" encoding="UTF-8"?>
<svg id="Capa_2" data-name="Capa 2" xmlns="http://www.w3.org/2000/svg" viewBox="0 0 100 100">
  <defs>
    <style>
      .cls-1 {
        fill: #fff;
      }

      .cls-2 {
        fill: none;
      }

      .cls-3 {
        fill: #4a2d2d;
      }

      .cls-4 {
        fill: #f7bc3b;
      }

      .cls-5 {
        fill: #f2a480;
      }
    </style>
  </defs>
  <g id="COLOR">
    <g>
      <rect class="cls-2" width="100" height="100"/>
      <g>
        <g>
          <path class="cls-5" d="M82.34,24.2c-.05,0-.11-.02-.17-.04-6.86-2.35-13.66,1.97-18.77,6.16-4.72,3.87-8.84,8.5-12.02,13.71-5.32,8.7-10.61,22.37-3.21,31.45,3.05,3.75,7.2,6.12,11.73,7.68,4.61,1.59,10.14,1.61,14.49-.74,9.69-5.23,14.02-17.07,15.67-27.32,1.02-6.31,1.08-12.87.07-19.18-.85-5.34-2.88-9.39-7.8-11.72Z"/>
          <path class="cls-1" d="M76.63,27.67c-3.7-.23-6.76,2.1-9.5,4.33-2.62,2.13-6.33,5.15-7.32,8.49-.34,1.14.91,1.87,1.86,1.43,2.66-1.23,4.61-4.28,6.71-6.28,1.21-1.15,2.46-2.22,3.81-3.21,1.22-.89,2.91-2.35,4.44-2.56,1.38-.18,1.47-2.13,0-2.22h0Z"/>
          <path class="cls-1" d="M56.78,45.03c-.26.3-.52.6-.76.91-.28.36-.44.76-.46,1.22-.01.34.17.64.42.84.29.22.58.25.93.19.73-.12,1.25-.79,1.72-1.31s.54-1.36,0-1.86c-.49-.45-1.38-.55-1.86,0h0Z"/>
          <path class="cls-1" d="M69.86,79.16c2.1-.4,4.43-1.33,5.29-3.44.28-.69-.62-1.19-1.17-.9-1.61.85-2.78,2.15-4.58,2.67-1.08.31-.62,1.87.46,1.67h0Z"/>
          <path class="cls-1" d="M77.4,72.63c.14-.13.27-.3.36-.47s.14-.35.14-.54c0-.12-.02-.24-.04-.36-.04-.24-.28-.45-.51-.51-.26-.07-.51.01-.71.19-.01.01-.03.03-.05.04l.15-.12c-.07.06-.15.1-.22.16-.08.06-.15.13-.23.2l.18-.14c-.06.05-.12.08-.19.12-.21.11-.35.33-.42.55-.09.28,0,.58.16.8.34.43.97.47,1.36.09h0Z"/>
        </g>
        <g>
          <path class="cls-1" d="M47.52,34.56c0-.27-7.06-14.13-15.56-12.88-8.49,1.25-18.51,14.04-20.39,31.3s3.4,25.57,11.36,28.7c7.96,3.13,19.67,3.04,25.75-4.74,6.08-7.78,4.29-20.92,4.29-25.4s-5.45-16.99-5.45-16.99Z"/>
          <g>
            <path class="cls-4" d="M37.35,48.87c-5.14-1.83-11.33-.07-14.72,4.2-4.53,5.69-3.39,14.57,2.96,18.47,6.46,3.97,15.43,1.28,18.3-5.86,2.5-6.22.09-14.46-6.54-16.82Z"/>
            <path class="cls-1" d="M30.62,51.81c-.84.11-1.63.16-2.4.55-.8.39-1.52.95-2.13,1.58-1.05,1.1-2.52,3.18-1.39,4.68.26.34.7.64,1.16.47,1.32-.49,1.69-1.8,2.5-2.83.71-.89,1.82-1.85,2.82-2.4.9-.49.56-2.2-.56-2.05h0Z"/>
            <path class="cls-1" d="M24.24,62.33v.04c0-.1-.02-.21-.03-.31,0,.07,0,.13,0,.2l.04-.31c-.01.07-.03.13-.05.19l.12-.28c-.05.12-.11.22-.15.35-.03.12-.04.25-.05.38l.04-.3c-.02.12-.03.24-.05.36-.04.33.19.67.43.86.27.21.61.28.95.19.22-.06.45-.18.61-.34.19-.19.28-.39.37-.63.08-.22.12-.47.09-.71,0-.21-.05-.41-.16-.6l-.18-.24c-.25-.27-.64-.37-.99-.32-.32.04-.57.19-.77.44-.24.31-.28.65-.21,1.03h0Z"/>
            <path class="cls-1" d="M39.08,67.37l.02-.1c.04-.16.04-.32,0-.49-.04-.16-.12-.29-.24-.4-.11-.11-.25-.19-.4-.24-.16-.04-.32-.04-.49,0l-.1.02c-.17.05-.31.13-.43.25-.12.12-.21.27-.25.43-.09.34,0,.71.25.96s.62.35.96.25c.17-.05.31-.13.43-.25.12-.12.21-.27.25-.43h0Z"/>
            <path class="cls-3" d="M32.35,22.57c5.93.15,9.99,4.44,12.82,9.25,2.83,4.81,4.86,10.08,6.07,15.53,2.17,9.75,2.73,22.92-4.99,30.53-2.98,2.93-7.63,4.54-11.74,4.68-4.67.16-9.07-.37-13.17-2.72-9.34-5.35-9.7-19.25-8.28-28.57.93-6.11,2.97-12.08,5.9-17.52,2.87-5.33,6.83-10.7,13.4-11.12,1.05-.07,1.07-1.64,0-1.65-5.5-.06-9.78,3.49-12.77,7.84-3.58,5.19-6.33,11.19-7.88,17.31-2.69,10.65-3.16,25.28,5.4,33.57,3.3,3.2,8.24,4.94,12.76,5.2,5.14.3,10.18-.44,14.66-3.08,10.11-5.94,10.63-20.52,9.17-30.73-1-6.97-3.27-13.74-6.84-19.81-3.21-5.46-7.8-10.07-14.49-10.24-1-.03-1,1.53,0,1.56Z"/>
          </g>
        </g>
      </g>
    </g>
  </g>
</svg>