<?xml version="1.0" encoding="UTF-8"?>
<svg id="Capa_2" data-name="Capa 2" xmlns="http://www.w3.org/2000/svg" viewBox="0 0 100 100">
  <defs>
    <style>
      .cls-1 {
        fill: #f7c9b4;
      }

      .cls-2 {
        fill: #fff;
      }

      .cls-3 {
        fill: none;
      }

      .cls-4 {
        fill: #4f3535;
      }

      .cls-5 {
        fill: #a1c2de;
      }

      .cls-6 {
        fill: #f2a480;
      }
    </style>
  </defs>
  <g id="COLOR">
    <g>
      <rect class="cls-3" width="100" height="100"/>
      <g>
        <path class="cls-5" d="M12.4,45.47s-6.68,5.1-7.17,5.89,0,9.23,0,9.23l2.45.29s-.49,14.53,2.85,18.65c3.34,4.12,13.74,3.44,17.28,3.04,3.53-.39,4.91-1.28,5.89-3.63s2.26-6.09,2.26-6.09c0,0,.88,8.05,4.12,9.42s11.58,2.16,16.2.88c4.61-1.28,5.64-2.5,6.14-4.27s1.18-6.63,1.18-6.63c0,0,.64,8.05,4.27,9.42s17.62,1.67,20.07-.59c2.45-2.26,3.83-7.07,3.93-10.8s.2-9.23.2-9.23l2.6-.1s-.15-9.02-.61-9.81-5.57-4.81-5.57-4.81l-76.08-.88Z"/>
        <g>
          <path class="cls-4" d="M11.03,45.37c-2.57,1.3-4.77,3.61-6.79,5.63-.76.76.43,1.94,1.18,1.18,2.01-2.06,4.4-3.75,6.34-5.86.47-.51-.12-1.26-.73-.95h0Z"/>
          <path class="cls-4" d="M87.61,46.32c1.94,2.1,4.33,3.8,6.34,5.86.75.77,1.93-.42,1.18-1.18-2.02-2.01-4.22-4.33-6.79-5.63-.61-.31-1.2.43-.73.95h0Z"/>
          <path class="cls-6" d="M21.4,52.74c-.13-.39.91-25.19,13.77-25.84,14.53-.73,13.86,25.46,13.86,25.46l-27.63.39Z"/>
          <path class="cls-6" d="M51.53,52.22c-.13-.39.91-25.19,13.77-25.84,14.53-.73,13.86,25.46,13.86,25.46l-27.63.39Z"/>
          <path class="cls-1" d="M9.33,51.83s1.62-14.41,11.82-17.27c11.56-3.25,14.29,16.75,14.29,16.75l-26.1.52Z"/>
          <path class="cls-1" d="M36.47,52.22s2.34-17.01,13.25-17.92c10.91-.91,13.25,17.27,13.25,17.27l-26.49.65Z"/>
          <path class="cls-1" d="M64.26,51.7s2.86-17.14,14.16-17.4c11.3-.26,12.34,17.66,12.34,17.66l-26.49-.26Z"/>
          <g>
            <g>
              <path class="cls-4" d="M12.11,63.59c-1.13,2.9-.68,7.96.96,10.61.32.51,1.06.28,1.09-.3.12-1.78-.3-3.61-.41-5.39-.1-1.65.11-3.3-.18-4.93-.15-.81-1.22-.62-1.46,0h0Z"/>
              <path class="cls-4" d="M13.41,76.59c.11.36.21.71.48.99.22.23.57.28.85.16.3-.13.45-.39.48-.71s-.11-.6-.22-.88c-.08-.21-.18-.38-.38-.49-.18-.1-.44-.15-.63-.08-.41.13-.71.57-.58,1.01h0Z"/>
            </g>
            <g>
              <path class="cls-4" d="M39.62,63.59c-1.13,2.9-.68,7.96.96,10.61.32.51,1.06.28,1.09-.3.12-1.78-.3-3.61-.41-5.39-.1-1.65.11-3.3-.18-4.93-.15-.81-1.22-.62-1.46,0h0Z"/>
              <path class="cls-4" d="M40.92,76.59c.11.36.21.71.48.99.22.23.57.28.85.16.3-.13.45-.39.48-.71s-.11-.6-.22-.88c-.08-.21-.18-.38-.38-.49-.18-.1-.44-.15-.63-.08-.41.13-.71.57-.58,1.01h0Z"/>
            </g>
            <g>
              <path class="cls-4" d="M67.8,63.59c-1.13,2.9-.68,7.96.96,10.61.32.51,1.06.28,1.09-.3.12-1.78-.3-3.61-.41-5.39-.1-1.65.11-3.3-.18-4.93-.15-.81-1.22-.62-1.46,0h0Z"/>
              <path class="cls-4" d="M69.1,76.59c.11.36.21.71.48.99.22.23.57.28.85.16.3-.13.45-.39.48-.71s-.11-.6-.22-.88c-.08-.21-.18-.38-.38-.49-.18-.1-.44-.15-.63-.08-.41.13-.71.57-.58,1.01h0Z"/>
            </g>
          </g>
          <path class="cls-4" d="M95.38,51.51c-.01-.68-.99-.74-1.34-.34-.13-.14-.28-.25-.5-.28-3.6-.53-7.49-.12-11.12-.12-3.61,0-7.22,0-10.83,0-2.18,0-4.36,0-6.54,0,.08-.35.13-.72.19-1.1.13-.78.3-1.56.5-2.33.4-1.5.91-2.95,1.61-4.34,1.31-2.59,3.23-4.9,5.62-6.56,1.14-.79,2.78-1.6,4.09-2.05-.6.02-3.18-.13-7.75,3.43-2.58,2.01-3.91,5.25-4.86,8.37-.27.89-.48,1.81-.65,2.73-.03.16-.05.31-.08.46-.1-.58-.22-1.16-.34-1.74-2.08-10.7-9.2-12.65-9.7-12.8,2.04,1.34,3.99,3.14,5.22,5.26,1.45,2.49,2.35,5.25,2.95,8.06.15.71.28,1.42.42,2.13.03.14.06.3.11.48-4.29,0-8.57,0-12.86.01-4.03,0-8.07-.03-12.11-.07.07-.39.07-.8.11-1.18.08-.71.21-1.42.38-2.11.34-1.41.85-2.78,1.49-4.08,1.24-2.51,3-4.74,5.19-6.48,1.21-.97,2.86-1.92,4.32-2.48.04-.01-1.07.05-2.77.74-5.53,2.22-8.57,7.56-9.61,11.31-.11.4-.21.81-.29,1.22-.07-.41-.16-.82-.27-1.23-.43-1.59-1.02-3.14-1.71-4.64-1.45-3.15-3.7-5.26-5.55-6.23-1.45-.76-2.8-1.19-4.18-1.31.29.07,1.74.62,2.85,1.34,1.17.76,2.18,1.68,3.01,2.8,1.77,2.39,3.08,5.2,3.9,8.05.24.83.46,1.66.68,2.49.1.39.2.77.3,1.16.05.2.08.4.12.61-9.91-.08-19.85-.12-29.7.49-.32-.44-1.16-.33-1.2.35-.16.23-.52-.07-.38.17-.03,1.38-.02,9.98.69,10.04,1.6.14,17.37-.05,22.56-.03,7.56.03,15.14-.12,22.68.06,7.55.18,15.12.03,22.67.02,3.67,0,7.33-.02,11-.02.64,0,10.59-.25,11.28-.34.34-.05.37-3.58.33-4.96-.05-1.64.07-3.34.04-4.98ZM93.4,59.72c-3.24,0-6.33.09-9.66.09-3.67,0-7.33,0-11-.01-7.55,0-15.12-.14-22.67.05-7.55.19-15.13.05-22.68.09-7.12.04-14.31-.34-21.41.16.15-1.18.03-2.44,0-3.6-.04-1.25-.07-2.5-.09-3.75,14.5.89,29.16.39,43.69.4,7.35,0,14.7.01,22.04.02,3.61,0,7.22,0,10.83,0,3.64,0,10.95-.16,11.04-.21-.03,1.19-.21,5.61-.07,6.77Z"/>
          <path class="cls-2" d="M19.8,39.06c-1.51.54-2.62,1.79-3.52,3.07-.85,1.22-1.87,3.03-1.45,4.56.23.85,1.32,1.12,1.95.51.91-.89,1.19-2.38,1.81-3.49.66-1.17,1.6-2.15,2.24-3.31.36-.65-.25-1.62-1.03-1.34h0Z"/>
          <path class="cls-2" d="M31.9,31.03c-.71.8-1.64,1.74-1.62,2.89.01.71.73,1.04,1.32.76.85-.4,1.31-1.36,1.9-2.05.39-.47.46-1.14,0-1.59-.41-.41-1.19-.46-1.59,0h0Z"/>
          <path class="cls-2" d="M47.03,38.85c-1.71.46-2.93,2.24-3.76,3.7-.9,1.59-1.71,3.44-1.36,5.29.18.98,1.43.89,1.91.25.94-1.25,1.33-2.92,2.07-4.3.69-1.28,1.8-2.53,2.12-3.96.13-.58-.37-1.14-.98-.98h0Z"/>
          <path class="cls-2" d="M63.54,31.09c-1.64.98-3.36,2.9-3.52,4.89-.08.93,1.09,1.19,1.68.7.68-.57,1.1-1.46,1.58-2.19.51-.77.92-1.52,1.31-2.35.3-.65-.34-1.46-1.04-1.04h0Z"/>
          <path class="cls-2" d="M75.42,38.84c-2.78,1.61-6.17,5.57-5.61,9,.16.99,1.47.91,1.94.25.9-1.26,1.34-2.85,2.18-4.17.86-1.35,1.86-2.6,2.49-4.08.27-.63-.31-1.4-1-1h0Z"/>
        </g>
      </g>
    </g>
  </g>
</svg>