<?xml version="1.0" encoding="UTF-8"?>
<svg id="Capa_2" data-name="Capa 2" xmlns="http://www.w3.org/2000/svg" viewBox="0 0 100 100">
  <defs>
    <style>
      .cls-1 {
        fill: #fff;
      }

      .cls-2 {
        fill: none;
      }

      .cls-3 {
        fill: #e0e5ea;
      }

      .cls-4 {
        fill: #4a2d2d;
      }
    </style>
  </defs>
  <g id="COLOR">
    <g>
      <g>
        <g>
          <g>
            <path class="cls-3" d="M3.93,59.8s.38-15.43.38-16.2,0-2.68,3.35-3.16c3.35-.48,50.12-5.08,54.72-5.46,4.6-.38,13.03-1.92,18.4,1.73,5.37,3.64,12.75,7.76,13.42,11.6.67,3.83,2.3,19.65.77,23-1.53,3.35-11.79,3.26-16.87,3.74-5.08.48-51.18,4.41-52.33,4.6-1.15.19-3.93-.19-6.23-1.44-2.3-1.25-13.58-8.27-14.95-9.87-1.73-2.01-.67-8.53-.67-8.53Z"/>
            <path class="cls-4" d="M93.52,45.75c-1.85-.36-3.87,0-5.75.13-2.32.16-4.63.35-6.95.54-5.32.45-10.64.95-15.96,1.48-10.43,1.05-20.85,2.19-31.26,3.42-3.33.39-6.71.71-10.01,1.36-.05-.06-.1-.13-.16-.18-2.69-2.06-6.1-3.51-9.05-5.19-3.03-1.72-6.07-3.39-9.16-5-.82-.42-1.42.68-.71,1.21,2.93,2.15,5.94,4.13,9.08,5.97,2.65,1.55,5.42,3.44,8.31,4.58-.43,1.79-.42,3.74-.53,5.56-.12,2-.15,4-.16,6.01-.02,4.28.09,8.61.55,12.87.14,1.3,2.1,1.37,2.08,0-.08-4.29-.25-8.57-.24-12.87,0-2,.06-4,.09-6.01.02-1.69.19-3.44.06-5.13,7.53-.32,15.12-1.6,22.6-2.4,10.79-1.15,21.58-2.25,32.39-3.17,2.7-.23,5.41-.45,8.12-.64,2.15-.15,4.58.02,6.64-.59.89-.27,1.02-1.74,0-1.94Z"/>
          </g>
          <path class="cls-4" d="M10.46,51.95c.15.27.25.57.29.86s0,.53-.14.76c-.13.22-.3.34-.52.4-.09.03.03,0-.03,0-.03,0-.05,0-.08,0-.03,0-.06,0-.09,0-.09,0,.04.01-.05,0-.13-.03-.23-.07-.3-.11-.12-.06-.2-.18-.35-.18-.18,0-.25.22-.17.36.13.25.39.42.67.48.61.13,1.19-.18,1.48-.72.17-.32.24-.69.2-1.05-.04-.39-.23-.77-.47-1.08-.08-.11-.22-.17-.35-.09-.12.07-.16.23-.09.35h0Z"/>
          <path class="cls-4" d="M15.94,57.38s0,.01,0,.02l-.03-.07s.03.08.03.12v-.09s0,.1-.01.14v-.1s0,.05,0,.07c-.02.06-.02.1-.03.16v-.1s0,.08-.02.12l.04-.09s-.03.07-.06.1l.06-.08s-.05.06-.08.08c-.01.01-.03.02-.04.04-.06.05-.09.12-.11.19l.16-.21s-.05.04-.08.05c-.05.03-.08.06-.12.1l.06-.05s-.01,0-.02,0l.07-.03s-.08.03-.12.04c-.04.02-.07.04-.1.07s.05-.03,0,0c-.06.04-.11.13-.08.21s.07.15.14.2c.05.03.11.05.17.06l-.07-.03c.07.04.15.07.23.07.06,0,.12-.01.18-.03h-.19c.13.04.26.01.37-.06.06-.04.12-.08.16-.14.09-.11.17-.24.2-.38,0,0,0-.02,0-.03.02-.12.02-.1,0-.22,0-.02,0-.04-.01-.06-.02-.07-.04-.13-.08-.19-.06-.11-.16-.21-.26-.28-.05-.04-.12-.04-.18-.03s-.12.03-.17.08c-.03.04-.06.08-.07.13-.02.08,0,.15.03.22h0Z"/>
          <path class="cls-4" d="M10.37,60.92c.02.36.27.69.62.78.2.06.42.03.6-.09.1-.06.19-.14.25-.25.02-.05.05-.1.06-.15.05-.15,0-.32-.12-.43l.05.06s0,0,0-.01c-.03-.05-.08-.09-.14-.12-.06-.02-.13-.04-.19-.01-.03.01-.06.02-.09.04l.24-.03c-.13-.03-.24-.02-.35.05-.02.01-.04.02-.06.03l.11-.04c-.05.02-.11.04-.16.07-.02.01-.04.02-.06.03l.11-.05c-.05.02-.11.04-.17.05l.12-.02s-.07,0-.1,0l.12.02s-.08-.02-.11-.03l.1.04s-.07-.04-.1-.06l.08.06s-.06-.05-.08-.08l.06.08s-.04-.06-.05-.09l.04.09s-.01-.03-.02-.04c-.05-.18-.23-.3-.42-.27s-.34.18-.33.37h0Z"/>
          <path class="cls-4" d="M16.71,63.3c.07.12.1.17.14.3.04.15.05.17.05.31,0,.06,0,.13,0,.19,0,.07,0-.02,0,.03,0,.03-.01.06-.02.09-.01.06-.03.12-.06.18-.02.07.01-.01-.01.02-.02.03-.03.06-.04.08-.03.05-.06.11-.09.16-.01.02-.03.04-.04.06.05-.07-.02.02-.03.03-.04.05-.08.09-.13.13-.02.02-.04.03-.06.05.06-.05,0,0-.02.01-.1.07-.21.13-.31.18-.03.01-.05.03-.08.04-.08.04.06-.02-.05.02-.07.03-.13.07-.2.1-.24.12-.2.56.08.6.19.03.36.03.55-.02.16-.04.32-.12.46-.22.27-.19.51-.44.65-.74.3-.62.21-1.42-.2-1.96-.11-.15-.29-.22-.46-.12-.16.09-.22.31-.12.46h0Z"/>
          <path class="cls-4" d="M9.76,67.17s.06.09.1.13.08.07.13.1c.1.05.21.08.32.08.1,0,.2-.02.29-.07.05-.03.1-.07.14-.11s.08-.09.11-.14c.01-.02.02-.03.03-.05.03-.05.05-.11.05-.17.01-.06.01-.12,0-.18l-.05-.11c-.04-.07-.1-.12-.17-.17h-.02s.09.08.13.12c0,0,0-.02-.01-.02-.03-.05-.07-.1-.13-.13-.06-.03-.11-.05-.18-.05-.12,0-.24.07-.31.18,0,0,0,.02-.01.02l.42-.17h0c-.08-.02-.16-.02-.24,0-.08.02-.15.06-.2.12-.02.02-.03.04-.05.05l.09-.07s-.05.03-.07.04l.11-.05s0,0-.01,0c-.12.05-.12.04-.22.13,0,0-.01,0-.02.01l.1-.07s-.03.02-.05.03l.11-.05s-.03.01-.05.01l.12-.02s-.03,0-.04,0l.11.02s-.03,0-.04-.01l.1.04s-.02,0-.03-.02l-.1-.04c-.05-.02-.11-.02-.16,0-.04,0-.07,0-.1.03-.05.02-.09.04-.13.08l-.06.08-.04.1c-.02.05-.02.11,0,.16,0,.05.02.11.05.15h0Z"/>
          <path class="cls-4" d="M16.44,70.55c.07,0,.15-.01.21-.04.05-.02.1-.04.15-.07,0,0,.01,0,.02-.01.04-.03.07-.05.1-.08.01-.01.03-.02.04-.04.02-.02.03-.04.05-.06.02-.01.03-.03.03-.05.04-.07.06-.14.06-.21,0,0,0,0,0-.01,0-.02,0-.03,0-.05,0-.04,0-.08-.02-.12,0,0,0,0,0-.01-.02-.07-.05-.11-.1-.17-.05-.05-.1-.08-.16-.09-.07-.02-.13-.02-.2,0-.01,0-.08.03-.09.04l-.07.06s0,0,0,0c0,0,0,0-.01.01l.08-.06s-.02.02-.04.02c0,0-.01,0-.02,0-.07.04-.12.1-.16.17l.07-.09s-.04.05-.06.06l.09-.07s-.05.03-.07.04l.1-.04s-.05.02-.08.02h.11s0-.01-.01-.01c-.06,0-.11,0-.16.04-.05.02-.1.05-.13.09-.04.04-.07.08-.09.13-.03.05-.04.1-.04.16v.11c.03.07.07.13.12.19l.08.07c.07.04.14.06.21.06h0Z"/>
          <path class="cls-4" d="M19.24,45.48c.56.3,1.26.3,1.81-.03.28-.16.5-.43.63-.72.09-.2.14-.43.11-.65-.03-.17-.1-.28-.21-.4-.09-.1-.29-.11-.39,0-.02.02-.02.02,0,0,.04-.03.03-.01-.05.04-.02.01-.03.03-.05.05-.05.05-.09.11-.12.17-.03.05-.05.1-.07.16-.04.1.05-.09,0,0-.02.04-.05.09-.07.13-.03.05-.05.11-.08.16-.01.02-.03.04-.04.06-.05.07-.01,0,.01-.02-.02,0-.04.05-.06.07-.02.02-.04.04-.06.06-.04.04-.07.08-.11.12,0,0-.05.05-.06.05.05-.04.06-.05.03-.03-.01,0-.02.02-.04.03-.05.03-.09.06-.14.08-.02.01-.05.03-.07.03.05-.02.06-.03.03-.02-.01,0-.03.01-.04.02-.05.02-.11.03-.16.04-.02,0-.05.02-.07.01.05,0,.06,0,.03,0-.02,0-.03,0-.05,0-.06,0-.11,0-.17,0-.03,0-.05,0-.08,0-.1,0,.07.02-.02,0-.06-.01-.12-.03-.18-.05-.37-.12-.6.43-.26.62h0Z"/>
          <path class="cls-4" d="M24.26,48.24c.08-.02.16-.03.24-.05.04-.01.08-.03.12-.05l.05-.02.1-.04s.06-.05.08-.08c.02-.04.03-.07.03-.11,0-.04-.01-.08-.03-.11-.02-.03-.05-.06-.08-.08l-.1-.04-.05-.02s-.08-.04-.12-.05c-.08-.02-.16-.04-.24-.05-.13-.03-.28,0-.37.1-.07.07-.11.17-.11.27,0,.1.04.2.11.27.1.1.24.13.37.1h0Z"/>
          <path class="cls-4" d="M30.43,44.12c.17.27.41.44.7.55.13.05.27.07.4.06.11-.01.24-.02.34-.08.07-.04.13-.09.18-.14.09-.09.12-.23.09-.35-.03-.11-.13-.23-.25-.25-.04,0-.08-.02-.13-.03-.08-.02-.16-.02-.24-.03l.12.02c-.08-.01-.17-.03-.25-.04l.12.02c-.08-.01-.16-.03-.24-.07l.11.04c-.07-.03-.14-.07-.2-.12l.09.07c-.05-.04-.1-.09-.15-.15l.07.09s-.01-.02-.02-.02c-.07-.09-.14-.16-.25-.2-.1-.03-.24-.02-.33.04-.19.12-.28.38-.15.58h0Z"/>
          <path class="cls-4" d="M39.54,47.49c.1-.08.22-.15.34-.2l-.11.05c.08-.03.16-.06.24-.08.04,0,.08-.02.12-.03.08-.02.13-.06.2-.1.14-.09.22-.25.2-.41,0-.07-.04-.14-.08-.2-.06-.08-.12-.11-.21-.15l.29.29c-.02-.07-.06-.13-.11-.18-.05-.05-.11-.09-.18-.11-.07-.03-.14-.05-.22-.05-.07,0-.15.01-.21.03-.08.02-.15.04-.23.06-.18.07-.35.15-.5.26-.05.03-.1.07-.13.12-.04.05-.07.1-.08.16-.03.11-.02.26.05.36s.16.19.28.22.26.03.36-.05h0Z"/>
          <path class="cls-4" d="M43.06,42.29c.29.48.74,1.02,1.34,1.09.27.03.54-.03.78-.15.33-.17.6-.59.39-.95-.08-.14-.28-.24-.44-.18-.04.02-.08.04-.13.05l.07-.03c-.06.01-.11.04-.16.08-.05.04-.08.08-.12.12-.03.03-.06.05-.09.07-.05.04-.06.02.03-.02-.02,0-.03.02-.05.03-.02.01-.03.02-.05.03-.08.04.11-.04.03-.01-.04.01-.08.03-.12.03-.05.01-.09,0,.03,0-.02,0-.04,0-.06,0-.04,0-.09,0-.13,0-.02,0-.04,0-.06,0-.07,0,0,0,.03,0-.04-.02-.11-.02-.15-.04-.02,0-.05-.01-.07-.02.05.02.06.02.03.01-.01,0-.03-.01-.04-.02-.04-.02-.08-.05-.12-.08-.08-.06.06.05-.02-.01-.02-.02-.04-.03-.06-.05-.04-.04-.08-.07-.12-.11-.08-.08-.15-.16-.22-.25-.1-.13-.32-.12-.44-.03-.13.1-.17.29-.09.43h0Z"/>
          <path class="cls-4" d="M51.56,44.85s.04-.02.07-.03l-.09.04c.07-.03.14-.05.21-.06h-.1c.08,0,.17,0,.25.01h-.1s.07,0,.1,0c.01,0,.03,0,.04,0,.07.02.14.02.21,0,0,0,.02,0,.02,0h-.1s.04,0,.06,0c.1-.01.2-.04.27-.12l-.19.08s.05,0,.08,0c.02,0,.15-.01.07,0,.09-.01.18-.07.17-.17,0-.09-.04-.16-.09-.23l.03.21c.02-.1.02-.19-.03-.28-.02-.03-.05-.07-.08-.1-.01-.01-.02-.02-.04-.04-.06-.05-.12-.08-.2-.11-.1-.03-.22-.04-.32-.04-.22,0-.43.06-.62.16-.18.1-.25.35-.14.53.12.18.33.24.53.14h0Z"/>
          <path class="cls-4" d="M56.31,40.85s.04-.04.06-.07c.01-.01.09-.07.03-.03s.02-.01.04-.02c.03-.02.05-.03.08-.04.01,0,.02-.01.04-.02.04-.02-.09.03-.05.02.03,0,.06-.02.09-.03.06-.02.12-.03.18-.04l-.12.02c.1-.01.2-.01.3,0l-.12-.02c.12.02.23.05.34.06l-.13-.02c.21.03.42.15.61,0l-.19.05c.05,0,.1,0,.15-.01.13-.02.25-.18.24-.31,0-.05-.01-.1-.03-.15v.2c.03-.15,0-.29-.08-.41-.05-.07-.12-.11-.19-.16-.09-.05-.2-.11-.29-.14-.22-.05-.44-.04-.65,0-.39.07-.72.3-.95.61-.06.08-.07.23-.04.32s.07.16.15.21c.15.12.4.12.54-.03h0Z"/>
          <path class="cls-4" d="M63.17,43.92c.2.27.43.49.72.67.33.2.7.28,1.08.22.33-.05.66-.23.86-.5.11-.14.19-.29.24-.46.03-.12.03-.24,0-.37-.03-.09-.07-.15-.12-.22-.02-.03-.01-.02.03.03-.02-.03-.05-.06-.07-.09-.12-.15-.38-.13-.51,0-.05.06.06-.04.03-.02-.04.03-.08.06-.11.09-.05.05-.1.12-.14.18-.01.03-.03.05-.04.08-.01.02-.06.09-.01.02s0,0-.02.02c-.02.02-.03.04-.05.05-.04.03-.07.07-.11.1-.06.06,0,0,.03-.02-.02.01-.04.03-.06.04s-.04.03-.07.04c-.05.02-.11.03.01,0-.05.01-.09.03-.14.04-.02,0-.11.02-.02,0s-.02,0-.03,0c-.06,0-.11,0-.17,0-.03,0-.06,0-.08,0-.06,0,.09.02,0,0-.06-.01-.11-.02-.16-.04-.02,0-.12-.05-.03,0-.02,0-.04-.02-.06-.03-.06-.03-.11-.06-.16-.1-.02-.02-.05-.03-.07-.05-.06-.04.01.01-.02-.01-.05-.04-.1-.08-.14-.13-.13-.13-.33-.14-.48-.03-.13.1-.2.32-.09.47h0Z"/>
          <path class="cls-4" d="M69.2,40.04c.21.14.43.27.67.35s.51.1.74.01.44-.24.55-.47c.06-.12.09-.25.08-.38,0-.06-.01-.13-.03-.19-.03-.09-.08-.16-.16-.21-.03-.02-.06-.03-.09-.04-.11-.02-.12-.02-.02,0l.14.08c-.09-.07-.19-.13-.31-.1s-.17.13-.2.23l.08-.14c.13-.12-.02.02-.05.05-.03.03-.05.07-.06.12-.01.1-.02.12,0,.06,0-.07,0,0,0,.02-.01.06.04-.08.01-.03-.02.03-.03.06-.05.09,0,.02-.02.03-.03.05-.04.06.07-.08.01-.02-.03.03-.06.06-.09.08,0,0-.03.04-.04.04,0,0,.1-.07.02-.02-.02.01-.03.02-.05.03-.08.04.03,0,.03-.01,0,.02-.12.03-.14.03h.11s-.08,0-.12,0c-.02,0-.03,0-.05,0-.01,0-.09,0-.02,0s-.01,0-.02,0c-.02,0-.03,0-.05-.01-.04,0-.08-.02-.12-.03-.04-.01-.07-.03-.11-.04-.05-.02.08.04,0,0-.02,0-.03-.01-.05-.02-.08-.04-.15-.07-.23-.11-.16-.08-.39-.05-.48.13s-.04.37.13.48h0Z"/>
          <path class="cls-4" d="M77.29,42.15c.14.09.28.17.44.24.06.02.12.05.19.06.09.02.19.03.28.02.21-.02.42-.08.57-.24.08-.08.15-.19.19-.3.04-.15,0-.28-.06-.41-.05-.1-.17-.17-.28-.18-.13-.02-.22.03-.32.1h0s.05-.03.08-.05c-.05.04-.1.05-.15.11-.02.03-.05.05-.08.07l.09-.07c-.06.05-.13.09-.2.12l.11-.05s-.08.02-.11.03l.12-.02c-.05,0-.11,0-.16,0l.12.02c-.1-.01-.19-.04-.28-.08l.1.04c-.08-.03-.15-.07-.22-.11-.1-.05-.2-.07-.31-.04-.09.03-.2.1-.24.19-.11.2-.04.43.15.55h0Z"/>
          <path class="cls-4" d="M29.88,61.02s.04.04.06.07c.04.05-.03-.04,0,.01.03.04.06.09.08.13.01.02.02.04.03.06-.03-.06,0,0,0,.02.02.05.04.11.05.17,0,.03.01.06.02.09,0-.02,0-.08,0,0,0,.05,0,.09,0,.14,0,.06,0,.12,0,.17,0,.02-.01.08,0,0,0,.03-.01.07-.02.1-.01.04-.03.09-.04.13-.03.1.03-.05,0,0,0,.02-.02.04-.03.06-.02.04-.05.09-.08.13-.01.02-.03.04-.04.05.06-.08,0,0-.02.02-.03.04-.07.07-.11.11-.02.02-.04.04-.06.05.01,0,.07-.05,0,0-.06.04-.11.08-.17.12.07-.05.01,0,0,0-.03.02-.06.04-.08.05-.12.07-.21.18-.24.32s0,.07,0,.03c0,.05,0,.09.01.14.03.07.08.12.14.16.24.15.57.06.79-.09.4-.27.7-.69.78-1.18.08-.57-.13-1.17-.58-1.55-.14-.12-.35-.14-.49,0s-.13.35,0,.49h0Z"/>
          <path class="cls-4" d="M33.2,67.83s0,.03,0,.04l-.02-.13c.01.09.01.17,0,.26v-.1c0,.06,0,.11-.02.17,0,.02-.01.05-.02.07-.02.04-.02.09-.02.14v-.06s0,.04,0,.06c-.01.06,0,.12.04.17s.09.08.15.08c.02,0,.05,0,.07,0,.02,0,.03,0,.05,0,.05,0,.05,0,.11-.04.01,0,.03-.01.04-.02.08-.04.15-.09.22-.14.05-.04.09-.08.13-.12.06-.07.12-.15.17-.23.09-.15.09-.35,0-.51-.04-.08-.1-.14-.18-.18-.06-.04-.12-.06-.19-.06-.07-.01-.13-.01-.2,0-.08.02-.16.07-.22.13-.06.06-.1.14-.13.22-.02.09-.02.18,0,.27h0Z"/>
          <path class="cls-4" d="M41.71,66.21s.07.1.03.03c.02.02.03.05.05.07.03.05.06.1.09.15.01.03.02.05.04.08-.04-.09,0,.01,0,.03.02.05.04.11.05.17s.02.11.03.17c-.02-.13,0,.07,0,.1,0,.12,0,.24,0,.37,0,.09.02-.07,0,0,0,.03-.01.06-.02.09,0,.02-.03.22-.02.13.01-.08,0,.02,0,.04-.02.12-.07.23-.1.35-.06.24-.12.42-.24.61-.1.15.06.36.23.3.29-.09.54-.25.74-.48.24-.28.35-.67.37-1.03.03-.64-.22-1.3-.71-1.73-.16-.14-.39-.16-.55,0s-.14.39,0,.55h0Z"/>
          <path class="cls-4" d="M40.23,60.21s.02.02.04.03l-.08-.06s.06.05.08.08l-.06-.08s.05.07.07.11l-.04-.09c.02.06.05.11.07.16l-.04-.09s.03.09.04.13v-.1s0,.06,0,.08c0,.05.02.11.05.15.01.02.02.03.03.05l-.03-.07s.02.07.04.1c.03.04.06.07.1.1l-.05-.04s.06.05.11.06c.07.02.15,0,.22-.03.03-.02.06-.05.09-.07.07-.05.12-.13.14-.22.01-.06.02-.13.02-.2-.01-.14-.04-.27-.12-.39s-.17-.21-.3-.28c-.09-.05-.19-.06-.28-.04-.09.02-.18.09-.22.17-.05.09-.07.19-.04.28s.09.17.17.22h0Z"/>
          <path class="cls-4" d="M36.38,71.35c0,.1,0,.2,0,.29,0,.02-.02.12,0,.02,0,.02,0,.04,0,.06,0,.05-.02.09-.04.14,0,.01-.01.03-.02.04-.01.03,0,.02.02-.04,0,0-.02.04-.02.05-.04.07-.07.15-.1.22-.04.1.05-.11,0-.01,0,.02-.02.04-.02.05-.04.08-.08.17-.11.25-.02.06.06-.13.01-.03-.01.02-.02.05-.03.07-.04.08-.08.15-.11.24-.02.05-.05.06.01-.03-.01.02-.02.05-.03.07-.02.04-.05.09-.07.13-.04.09-.09.17-.14.26-.06.1-.09.2-.11.31-.03.13.04.27.17.3.15.04.3.04.44-.02.11-.05.23-.1.33-.18.12-.08.22-.18.31-.29.13-.15.2-.31.27-.5.11-.27.1-.58.03-.86-.05-.24-.12-.47-.24-.69-.13-.25-.57-.15-.55.15h0Z"/>
          <path class="cls-4" d="M29.05,73.53s.05-.01.08-.02c.06-.02-.1,0,0,0,.05,0,.09,0,.14,0,.07,0-.1-.02,0,0,.03,0,.05.01.08.02.02,0,.04.01.06.02.1.03-.06-.03,0,0,.04.02.08.04.12.07.08.06-.05-.05,0,0,.02.02.04.03.06.05.01.01.03.03.04.04.07.08-.04-.06,0,0,.03.05.06.09.08.14l-.04-.1c.04.1.08.22.09.33v-.11c0,.08.01.16.03.24,0,.03,0,.02,0,0,0-.06,0-.04,0,.07.01.03.03.07.04.1.02.05.01.02-.03-.09,0,.01,0,.03,0,.04,0-.04,0-.05,0-.02,0,.04-.02.08-.02.11,0,.05,0,.09,0,.14,0,.07.04.13.1.17.06.04.13.03.19,0,.06-.03.12-.06.16-.1.05-.05.09-.11.12-.17,0-.01.01-.02.02-.03-.03.04-.03.05-.01.03.03,0,.06-.07.07-.1.03-.06.06-.14.08-.22.07-.3-.05-.62-.23-.85-.32-.41-.9-.6-1.4-.43-.18.06-.32.25-.25.45s.25.31.45.25h0Z"/>
          <path class="cls-4" d="M54.48,59.69c.06-.01-.09,0,0,0,.02,0,.04,0,.06,0,.01,0,.1,0,.03,0s.02,0,.03,0c.04,0,.1.02.13.04l-.06-.02s.02.01.04.02c.02.01.04.02.06.03s.04.03.06.04c.06.04-.07-.07-.02-.01.03.03.07.06.1.1.05.06-.06-.08-.02-.02.01.02.03.04.04.07.02.04.04.08.06.13l-.04-.11c.03.07.05.14.06.21l-.02-.12c.01.11.02.22.04.33v-.11c0,.05,0,.1,0,.16,0,.03-.01.12,0,0,0,.05-.01.09-.02.14,0,.02,0,.04,0,.06,0-.05,0-.06,0-.02,0,.01,0,.02,0,.04-.01.07-.01.13,0,.2.01.06.07.1.12.12.28.08.54-.2.64-.42.07-.15.12-.29.11-.46s-.05-.33-.13-.49c-.13-.26-.4-.44-.66-.54-.24-.09-.53-.1-.78-.01-.17.06-.3.24-.24.42s.23.27.42.24h0Z"/>
          <path class="cls-4" d="M51,64.12c.36,0,.36-.57,0-.57s-.36.57,0,.57h0Z"/>
          <path class="cls-4" d="M60.08,69.01c.07.06.13.12.19.19.06.06,0-.02.02.02.02.03.04.06.06.09.02.04.05.08.07.12,0,0,.07.14.02.04.03.07.05.14.07.21.01.04.02.09.03.13.03.14,0-.11,0,.04,0,.07,0,.15,0,.22,0,.04,0,.09,0,.13,0,.02-.03.17,0,.03-.02.08-.03.16-.06.24-.01.04-.02.07-.04.11.05-.12-.01.01-.02.03-.04.07-.08.14-.13.21-.02.03-.04.06-.06.09.06-.09-.02.02-.03.03-.05.06-.11.13-.16.19-.21.25-.46.36-.71.55-.09.06-.1.18,0,.24.37.23.89.12,1.27-.04.46-.2.77-.64.93-1.09.33-.92-.12-1.97-.9-2.51-.43-.3-.97.39-.56.73h0Z"/>
          <path class="cls-4" d="M69.08,57.98c.02.05.04.11.04.16v-.11c0,.06-.01.12-.01.19s0,.13,0,.2l.02-.13c-.01.08-.03.15-.06.23l.05-.12c-.03.07-.06.15-.09.22l.05-.11c-.02.05-.05.11-.07.17,0,.02,0,.05-.02.07l.04-.11c-.03.06-.07.12-.1.18-.04.09-.03.16-.04.24-.01.09.06.22.15.25.12.06.24.1.38.06.12-.03.22-.12.31-.2l-.09.07s.04-.03.05-.04c.05-.04.1-.08.14-.13.02-.02.04-.05.05-.07.05-.07.08-.15.11-.23.04-.13.06-.27.05-.4,0-.17-.04-.33-.13-.47-.09-.13-.19-.23-.32-.33-.11-.08-.29-.05-.39.03-.05.04-.08.08-.11.14-.03.07-.05.16-.02.23h0Z"/>
          <path class="cls-4" d="M65.54,64.81c.07,0,.13-.01.18-.04.06-.02.11-.05.15-.1.05-.04.08-.09.1-.15.03-.06.04-.12.04-.18l-.02-.13c-.02-.08-.06-.15-.12-.21l-.1-.08c-.07-.04-.16-.07-.24-.07-.07,0-.13.01-.18.04-.06.02-.11.05-.15.1-.05.04-.08.09-.1.15-.03.06-.04.12-.04.18l.02.13c.02.08.06.15.12.21l.1.08c.07.04.16.07.24.07h0Z"/>
          <path class="cls-4" d="M72.98,68.11c.19.12.32.28.43.47.06.1.08.16.11.29,0,.03.02.07.02.1,0,.01.01.1,0,.04,0,.06,0,.12,0,.18s0,.13-.01.19c0,.03,0,.06,0,.08,0,.07,0,0,0,.04-.02.12-.06.24-.1.36-.07.22-.21.41-.35.61-.11.15.07.37.24.31.64-.21,1.11-.95,1.05-1.61-.06-.68-.46-1.3-1.07-1.62-.37-.19-.67.33-.33.56h0Z"/>
          <path class="cls-4" d="M82.04,56.57s.05.01.07.02c.02,0,.03.01.05.02l-.06-.02s.09.04.13.07c.02.01.04.03.06.04.03.02.07.07-.01-.01.03.03.07.06.11.1s.07.07.1.11c.05.06-.06-.09-.01-.01.01.02.02.03.03.05.03.04.05.08.08.13.01.02.02.04.03.07.05.09-.02-.07,0-.02.03.09.06.18.08.27,0,.02,0,.05.01.07-.03-.15,0-.08,0-.03,0,.05,0,.1.01.15s0,.1,0,.15c0,.06.01.12.02.18v.02s.01.03,0-.05v.02s0,.03,0-.04c0,.02,0,.04-.01.06-.02.1-.02.15,0,.25,0,.03.02.11,0,0,.02.13.06.24.18.31.11.06.26.07.36,0,.09-.06.18-.12.23-.21.04-.07.07-.16.1-.24s-.05.09,0,.02c.03-.05.06-.12.07-.18.02-.08.03-.17.03-.25.02-.29-.09-.6-.22-.85-.24-.47-.7-.86-1.22-.96-.21-.04-.46.06-.52.29s.07.45.29.52h0Z"/>
          <path class="cls-4" d="M78.11,62.05c.62,0,.63-.97,0-.97s-.63.97,0,.97h0Z"/>
          <path class="cls-4" d="M86.35,63.29c.22.18.4.39.53.64.06.12.1.23.14.36s.07.3.08.39c.01.14.03.29.02.43,0,.16-.01.22-.04.37-.06.29-.16.57-.25.85-.07.2.2.44.39.3.62-.46.76-1.33.63-2.05-.13-.71-.55-1.35-1.15-1.75-.27-.18-.62.25-.36.46h0Z"/>
          <path class="cls-4" d="M87.77,53.98s.04.04.06.06c0,0,.02.02.03.03,0,0,.04.05,0,0-.03-.04,0,0,.01.01,0,.01.02.02.02.03.02.02.03.05.05.08.03.05.05.1.08.15,0-.01-.03-.07-.01-.02,0,.02.01.03.02.05,0,.03.02.06.03.09.02.05.03.11.04.17,0,.04,0-.08,0-.03,0,.02,0,.03,0,.05,0,.03,0,.05,0,.08,0,.05,0,.11.02.16,0,.01,0,.02,0,.04,0,.05,0,0,0-.02,0,.1.03.18.08.27.09.15.27.15.4.05.13-.11.19-.33.18-.49,0-.15-.03-.31-.08-.45-.09-.28-.25-.55-.47-.75-.12-.11-.34-.13-.46,0s-.13.33,0,.46h0Z"/>
          <path class="cls-4" d="M48.9,70.47c.38.28.45.84.31,1.25-.08.25-.22.5-.37.71-.08.11-.16.22-.25.33s-.21.19-.28.31c-.05.07.03.15.1.13.15-.03.31-.13.44-.21.15-.09.29-.19.41-.31.25-.25.44-.54.51-.9.13-.63-.08-1.33-.64-1.69-.1-.06-.25-.02-.3.08-.07.11-.02.23.08.3h0Z"/>
          <path class="cls-4" d="M62.1,54.56s.06.02.1.03c.01,0,.08.03.04.02.04.02.07.04.1.06.01,0,.05.03.02,0,.03.02.06.05.09.08,0,0,.07.08.05.05-.03-.03.04.06.04.05.02.03.04.06.05.09.03.06.06.12.09.19.02.05-.02-.06,0,.02.01.03.02.07.03.1s.02.07.02.1c.03.13,0-.09,0,.03,0,.07,0,.14,0,.21,0,.09.01-.04,0,.02,0,.04-.02.08-.02.12-.02.08-.04.16-.06.23-.01.04-.02.08-.04.11,0,.03-.04.1-.01.04-.03.07-.07.15-.11.22-.08.15-.17.3-.25.45-.04.08-.07.14-.11.21-.05.08-.07.16-.09.26-.03.13.06.31.22.29.12-.01.22-.03.33-.09s.21-.12.31-.19c.18-.14.33-.29.46-.48.25-.36.41-.83.38-1.27s-.18-.84-.49-1.15c-.28-.27-.65-.45-1.05-.44-.36.01-.46.56-.09.65h0Z"/>
          <path class="cls-4" d="M82.06,68.5c.07.03-.05-.03,0,0,.02.01.04.02.06.03.04.02.07.05.11.07.04.03-.06-.06,0,0,.02.02.04.03.05.05.03.03.06.06.09.09.07.07-.04-.05,0,0,.01.02.03.04.04.06.03.04.05.08.07.13.03.05,0,0-.01-.03,0,.02.02.05.02.07.02.05.03.09.04.14,0,.02,0,.04.01.06.01.06,0-.11,0-.02s.01.16.03.25c0-.02,0-.1,0-.03,0,.04,0,.08.01.12.02.15.02.03.01.03,0,0,0,.07,0,.07,0,0,0,.07,0,.07,0,0,.01-.08,0-.01s-.04.15-.03.21v.03s.01-.03,0,0c0,.02-.01.05-.02.07-.01.03-.03.06-.05.1-.1.18.1.38.28.28.05-.03.1-.06.15-.09.03-.03.07-.05.1-.08.05-.03-.02,0,.03-.02.12-.04.22-.23.28-.34.07-.13.14-.26.16-.41.03-.18.01-.36-.04-.54-.16-.54-.63-.98-1.18-1.11-.2-.05-.44.06-.49.28-.05.23.07.41.28.49h0Z"/>
          <path class="cls-4" d="M46.96,58.02c.1.14.19.28.27.43.02.04.03.07.06.11s.05.07.07.1c.01.02.02.03.03.05.02.03.04.06.07.09.05.05.1.07.17.1.02,0,.04.02.07.03.08.03.2,0,.26-.07.03-.04.06-.08.09-.12.06-.08.06-.18.06-.27,0-.12-.01-.24-.06-.35-.08-.19-.17-.38-.29-.55-.07-.1-.15-.18-.27-.21-.11-.03-.25-.02-.35.05s-.18.16-.21.27-.03.26.05.35h0Z"/>
        </g>
        <path class="cls-1" d="M25.83,42.62c1.01,0,1.01-1.57,0-1.57s-1.01,1.57,0,1.57h0Z"/>
        <path class="cls-1" d="M45.52,47.85c.13,0,.26-.02.38-.08.12-.04.23-.11.31-.2.1-.09.16-.19.2-.31.06-.12.09-.24.08-.38l-.03-.26c-.05-.17-.13-.31-.25-.43l-.2-.15c-.15-.09-.32-.13-.49-.13-.13,0-.26.02-.38.08-.12.04-.23.11-.31.2-.1.09-.16.19-.2.31-.06.12-.09.24-.08.38l.03.26c.05.17.13.31.25.43l.2.15c.15.09.32.13.49.13h0Z"/>
        <path class="cls-1" d="M64.93,38.41c.59,0,.59-.91,0-.91s-.59.91,0,.91h0Z"/>
        <path class="cls-1" d="M76.82,39.14s.06-.01.09-.03l.22-.09c.11-.06.19-.14.26-.23.06-.06.1-.12.12-.2.06-.11.08-.23.08-.35l-.03-.24-.09-.22c-.06-.11-.14-.19-.23-.26-.09-.08-.19-.13-.31-.16-.03-.01-.06-.02-.09-.03-.17-.04-.33-.04-.5,0-.16.04-.3.12-.41.24l-.15.19c-.08.15-.13.3-.13.47,0,.13.02.25.08.36.04.12.1.22.19.3.24.24.59.33.91.24h0Z"/>
        <path class="cls-1" d="M56.74,56.66h0c-.1-.01-.21-.03-.31-.04,0,0,.02,0,.02,0l-.28-.12s.01,0,.02.01l-.24-.18s0,0,.01.01l-.18-.24s.01.02.02.03l-.12-.28c.04.11,0,.09.12.3.11.18.17.23.31.33.05.04.1.07.14.11l-.23-.18s.02.01.02.02l-.17-.22s.01.02.02.03c.07.13.16.23.28.3.1.09.23.16.37.19l.29.04c.19,0,.37-.05.54-.15.1-.04.19-.13.27-.21.04-.04.16-.19.18-.24,0,0,0,0,0-.01.03-.05.1-.23.12-.29.06-.17.05-.46,0-.63-.03-.08-.09-.22-.13-.29-.05-.09-.12-.18-.19-.25-.08-.08-.16-.15-.26-.2-.06-.03-.23-.11-.29-.12-.06-.02-.11-.02-.17-.02-.23-.03-.2-.03-.5.02-.15.04-.28.1-.39.21-.13.08-.23.19-.3.32l-.12.28c-.05.15-.06.31-.02.46,0,.1.03.2.08.29.05.14.13.27.24.37l.23.18c.18.1.37.16.58.16h0Z"/>
        <path class="cls-1" d="M36.47,66.14c1.49,0,1.49-2.31,0-2.31s-1.49,2.31,0,2.31h0Z"/>
        <path class="cls-1" d="M54.72,70.32c1.51,0,1.51-2.34,0-2.34s-1.51,2.34,0,2.34h0Z"/>
        <path class="cls-1" d="M77.72,67.06c1.01,0,1.01-1.57,0-1.57s-1.01,1.57,0,1.57h0Z"/>
        <path class="cls-1" d="M77.68,53.74h.08c.12-.06.23-.11.35-.16.17-.09.3-.22.41-.37.09-.09.15-.2.19-.32.09-.17.13-.36.13-.56l-.05-.39c-.05-.12-.1-.23-.15-.35-.09-.17-.22-.3-.37-.41-.14-.13-.3-.21-.49-.26h-.08c-.26-.08-.52-.08-.78-.01-.25.07-.46.2-.65.38l-.23.3c-.13.23-.2.48-.2.74,0,.2.03.39.13.57.06.18.16.34.3.47.18.18.4.31.65.38.26.07.52.07.78,0h0Z"/>
        <path class="cls-1" d="M7.85,58.06l.19-.24c.07-.09.14-.18.17-.29.04-.15.02-.3-.03-.43-.05-.11-.11-.19-.21-.27-.11-.09-.26-.15-.4-.14h-.29c-.29.02-.55.16-.69.41-.07.13-.11.26-.11.4,0,.11.02.21.07.31.03.1.09.19.17.26.1.1.22.17.35.21.14.04.28.04.43,0,.14-.04.25-.11.35-.21h0Z"/>
        <path class="cls-1" d="M15.77,55.4c1.74,0,1.74-2.7,0-2.7s-1.74,2.7,0,2.7h0Z"/>
        <path class="cls-1" d="M13.04,71.7l.14-.02c.07,0,.14-.01.2-.05.06-.02.12-.06.17-.11.05-.05.09-.1.11-.17.03-.06.05-.13.05-.2l-.02-.14c-.02-.09-.07-.17-.13-.23l-.11-.08c-.08-.05-.17-.07-.26-.07l-.14-.02c-.07,0-.14.01-.21.05-.07.02-.13.06-.17.11-.05.05-.09.11-.11.17-.03.06-.05.13-.05.21l.02.14c.03.09.07.17.14.24l.11.08c.08.05.18.07.27.07h0Z"/>
      </g>
      <rect class="cls-2" width="100" height="100"/>
    </g>
  </g>
</svg>