<?xml version="1.0" encoding="UTF-8"?>
<svg id="Capa_2" data-name="Capa 2" xmlns="http://www.w3.org/2000/svg" viewBox="0 0 100 100">
  <defs>
    <style>
      .cls-1 {
        fill: #fff;
      }

      .cls-2 {
        fill: none;
      }

      .cls-3 {
        fill: #e0e5ea;
      }

      .cls-4 {
        fill: #4a2d2d;
      }
    </style>
  </defs>
  <g id="COLOR">
    <g>
      <g>
        <path class="cls-3" d="M79.52,33.78s-1.07-8.09-20.21-10.06c-19.14-1.97-37.09.35-39.85,11.4-2.76,11.05-10.03,34.31-7.86,38.85,2.17,4.54,24.39,13.55,47.79,10.75,18.6-2.23,27.37-8.36,28.61-11.33,1.93-4.61-8.48-39.61-8.48-39.61Z"/>
        <path class="cls-4" d="M51.88,27.23c-1.7.08-3.4-.04-5.09-.04-1.85,0-3.71.11-5.55.3-1.71.18-3.38.48-5.06.81-1.52.3-3.05.6-4.49,1.18-1.37.55-2.86,1.37-3.84,2.5-.81.94-1.15,2.63-.35,3.68.41.55,1.07.84,1.7,1.07.9.32,1.82.6,2.75.85,1.91.51,3.85.86,5.81,1.1,2.21.28,4.43.42,6.65.48,2.22.06,4.57.26,6.77-.1.3-.05.3-.56,0-.61-1.78-.28-3.62-.16-5.41-.19-1.84-.03-3.69-.11-5.53-.23-1.86-.12-3.72-.33-5.56-.63-1.75-.28-3.58-.59-5.26-1.19-.7-.25-1.49-.66-1.66-1.44-.15-.68.13-1.55.54-2.09.46-.6,1.18-1.09,1.82-1.49.59-.37,1.21-.69,1.86-.94,1.32-.51,2.71-.79,4.09-1.05,1.59-.3,3.18-.62,4.79-.82,1.91-.24,3.82-.35,5.74-.46,1.75-.1,3.53-.22,5.28-.06.4.04.41-.64,0-.62h0Z"/>
        <g>
          <path class="cls-4" d="M70.19,30.58c-1.37-1.03-3.09-1.82-5.26-2.42-3.55-.98-7.16-1.19-9.91-1.27-1.01-.03-1.95-.04-2.86-.04-1.03,0-2.03.02-2.97.05-.47.02-.94.04-1.4.07-.33,0-.67-.01-1.01-.01-1.76,0-3.64.1-5.56.3-1.78.18-3.56.52-5.08.82-1.5.29-3.06.6-4.53,1.19-1.19.48-2.84,1.31-3.92,2.57-.86,1-1.24,2.79-.36,3.96.46.61,1.17.92,1.8,1.14.87.31,1.77.59,2.76.85,1.8.48,3.71.84,5.84,1.11,2.02.25,4.21.41,6.68.48.41.01.83.03,1.24.04.82.03,1.67.07,2.5.07.59,0,1.13-.02,1.64-.05.48.03.98.04,1.53.04.85,0,1.71-.03,2.53-.06.39-.01.77-.03,1.15-.04,2.59-.08,4.74-.23,6.78-.49,2.43-.31,4.57-.73,6.54-1.3.13-.04.27-.08.41-.12,1.4-.38,3.51-.96,3.74-2.71.19-1.47-.6-2.92-2.29-4.19ZM45.77,38.03c-1.83-.03-3.69-.11-5.52-.23-1.83-.12-3.69-.33-5.54-.62-1.74-.27-3.57-.59-5.22-1.18-.92-.33-1.4-.73-1.52-1.28-.14-.63.15-1.44.5-1.91.43-.57,1.13-1.04,1.76-1.43.58-.37,1.2-.68,1.83-.92,1.27-.49,2.58-.76,4.05-1.04l.66-.13c1.35-.26,2.74-.52,4.12-.7,1.92-.24,3.85-.35,5.73-.46l.36-.02c.49-.03.99-.06,1.49-.08,1.32.01,2.73.04,4.56.08,2.85.07,5.89.2,8.83.7,2.15.37,3.82.82,5.24,1.44.83.36,1.62.8,2.36,1.32.67.47,1.36.99,1.71,1.72.2.41.59,1.44-.13,2.1-.51.47-1.32.66-2.03.84-.13.03-.26.06-.39.1-1.93.51-4.05.9-6.28,1.17-2.09.25-4.32.4-7.04.49-.48.02-.96.02-1.44.02-.29,0-1.46,0-1.75,0-.78,0-1.59.02-2.41.07-.58-.03-1.15-.04-1.7-.04h-1.49c-.25,0-.5,0-.75,0Z"/>
          <g>
            <path class="cls-4" d="M26.17,41.56c-.19,0-.35.12-.42.3-.89,2.33-1.46,4.78-1.96,6.95-.31,1.33-.63,2.67-.96,4-.24,1-.48,1.99-.72,2.99-1.1,4.64-2.14,9.36-3.1,14.04-.26,1.28-.52,2.56-.76,3.85-.12.64-.24,1.28-.36,1.93l-.07.37c-.11.55-.22,1.13-.21,1.71,0,.3.22.51.51.51.23,0,.43-.14.52-.35.34-.8.48-1.7.62-2.57.05-.33.11-.66.17-.97l.7-3.52c.46-2.32.94-4.65,1.43-6.93l.1-.48c.94-4.42,1.92-8.98,3.1-13.41.11-.41.22-.82.33-1.22.58-2.16,1.18-4.39,1.53-6.65.02-.14-.01-.28-.1-.38-.09-.1-.21-.16-.34-.16Z"/>
            <path class="cls-4" d="M36.21,44.3c-.25,0-.44.16-.5.42-1.76,8.4-3.29,16.99-4.76,25.3l-.62,3.47-1.1,6.16c-.11.57-.22,1.17-.08,1.8.06.24.26.41.52.41.2,0,.38-.1.48-.25.32-.49.41-.99.51-1.53l2.84-15.67c.67-3.7,1.37-7.53,1.99-11.3.39-2.38.85-5.21,1.3-8.13.03-.17-.02-.34-.13-.46-.11-.13-.28-.21-.45-.21Z"/>
            <path class="cls-4" d="M45.31,44.94c-.26,0-.47.19-.51.45-.51,3.82-.72,7.74-.92,11.52-.07,1.24-.13,2.47-.21,3.71-.28,4.58-.6,9.92-.88,15.22v.12c-.08,1.33-.15,2.71-.18,4.07-.01.48-.02.97-.03,1.45v.75s-.02.28-.02.28c-.02.55-.04,1.11.21,1.66.06.13.19.21.33.21s.27-.07.34-.19c.28-.46.32-.95.37-1.43l.2-2.16c.09-1,.16-2.02.23-3l.05-.75c.12-1.83.22-3.69.32-5.49.04-.71.07-1.42.11-2.12.13-2.38.25-4.75.38-7.13.14-2.7.28-5.39.43-8.08.15-2.61.3-5.64.23-8.62,0-.27-.2-.47-.47-.47Z"/>
            <path class="cls-4" d="M81.43,75.09c-.06-.29-.13-.58-.18-.87-.22-1.18-.45-2.36-.69-3.53-.48-2.34-.98-4.71-1.49-7.03-.61-2.79-1.29-5.61-1.94-8.34-.45-1.88-.9-3.77-1.33-5.66l-.09-.39c-.56-2.46-1.14-4.99-2.07-7.4-.07-.19-.23-.3-.42-.3-.13,0-.26.06-.34.16-.09.1-.12.24-.1.38.34,2.2.92,4.36,1.48,6.46l.15.57c.62,2.33,1.18,4.74,1.67,6.87,1.07,4.61,2.08,9.3,3.01,13.94.2,1.01.4,2.01.6,3.02,0,0,.43,2.18.56,2.85.03.14.05.28.08.42.1.54.2,1.1.42,1.63.09.21.29.35.52.35.29,0,.5-.21.51-.51.03-.87-.17-1.75-.36-2.61Z"/>
            <path class="cls-4" d="M71.57,77.31l-2.48-13.89c-.66-3.72-1.35-7.56-2.08-11.33-.46-2.36-1.01-5.16-1.62-8.04-.05-.25-.25-.42-.5-.42-.17,0-.34.08-.45.21-.11.13-.16.29-.13.46,1.29,8.49,2.85,17.08,4.36,25.39l1.69,9.27.05.3c.09.56.19,1.15.54,1.67.1.16.28.25.48.25.25,0,.46-.16.52-.4.2-.86-.01-1.79-.21-2.69-.06-.27-.12-.54-.17-.79Z"/>
            <path class="cls-4" d="M58.63,82.24c-.02-.43-.08-1.98-.08-1.98-.04-1.02-.11-2.05-.18-3.04l-.06-.81c-.12-1.81-.27-3.65-.42-5.43-.06-.72-.12-1.45-.18-2.17-.19-2.39-.39-4.78-.59-7.18-.22-2.71-.45-5.42-.66-8.13-.21-2.7-.47-5.59-.92-8.45-.04-.23-.22-.38-.45-.38-.14,0-.28.06-.37.15-.09.09-.14.21-.14.33,0,3.84.33,7.73.64,11.5.1,1.24.2,2.47.3,3.71.34,4.59.74,9.92,1.18,15.19v.14c.12,1.33.24,2.7.39,4.04.06.5.11.99.17,1.49l.08.72c.01.11.02.22.03.33.05.55.11,1.12.42,1.61.07.11.2.18.34.18.15,0,.27-.08.33-.21.22-.51.2-1,.18-1.51v-.1Z"/>
          </g>
        </g>
        <path class="cls-3" d="M19.88,34.52c-1.49,3.88-2.49,8.09-3.54,12.12-1.05,4.04-2.02,8.1-2.89,12.18-.87,4.1-1.71,8.25-2.25,12.4-.41,3.18,2.01,4.52,4.47,6.04,6.57,4.07,14.61,6.13,22.18,7.32,3.93.62,7.89.98,11.87.97,3.93,0,8.31-.11,12.01-1.51,1.16-.44,1.07-2.25-.3-2.25-3.63,0-7.24.68-10.88.74-3.7.06-7.42-.19-11.09-.72-6.9-1-14.64-2.37-20.85-5.65-1.38-.73-2.73-1.58-3.98-2.53-1.78-1.36-.65-4.8-.32-6.78.61-3.58,1.3-7.14,2.07-10.68,1.54-7.08,3.83-14.08,5.15-21.19.2-1.1-1.26-1.49-1.66-.46h0Z"/>
        <path class="cls-3" d="M77.86,34.98c1.32,7.11,3.61,14.11,5.15,21.19.77,3.54,1.47,7.11,2.07,10.68.31,1.83,1.33,5.04.07,6.46-1.04,1.17-2.98,2.12-4.36,2.84-6.26,3.28-14,4.66-20.93,5.68-3.69.54-7.43.8-11.16.75-3.64-.05-7.25-.73-10.88-.72-1.36,0-1.47,1.81-.3,2.25,3.7,1.4,8.09,1.5,12.01,1.5,4,0,7.99-.37,11.94-1,7.59-1.21,15.67-3.27,22.26-7.35,2.47-1.53,4.88-2.86,4.47-6.04-.54-4.16-1.38-8.31-2.25-12.4-.87-4.08-1.84-8.14-2.89-12.18-1.04-4.03-2.04-8.24-3.54-12.12-.4-1.03-1.86-.64-1.66.46h0Z"/>
        <path class="cls-1" d="M54.94,23.27c-6.44-.74-13.61-.12-20,.88-3.18.49-6.41,1.44-9.21,3.06-2.46,1.42-5.33,3.54-6.11,6.42-2.02,7.48,8.11,10,13.26,11.15,7.73,1.73,16.87,2.64,24.52.13,1.06-.35.89-1.94-.27-1.96-6.79-.16-13.39.35-20.14-.77-4.16-.69-19.82-3.01-14.29-10.18,3.65-4.73,10.66-5.99,16.26-6.45,5.31-.44,10.66-.34,15.98-.55,1.13-.04,1.08-1.6,0-1.72h0Z"/>
        <path class="cls-1" d="M45.77,25.19c6-.02,12.25-.21,18.19.78,3.03.51,6.11,1.27,8.8,2.8,3.08,1.74,7.39,5.55,3.78,9.08-2.09,2.05-5.92,2.56-8.68,3.2-3.11.72-6.26,1.19-9.43,1.51-6.39.65-12.74.19-19.13.46-1.12.05-1.37,1.63-.27,1.96,7.28,2.19,15.81,1.55,23.23.46,5.79-.85,15.61-2.06,17.44-8.89,1.76-6.55-7.63-10.69-12.55-11.88-3.36-.81-6.87-1.03-10.3-1.29-3.76-.28-7.58-.46-11.33.12-.97.15-.72,1.69.23,1.69h0Z"/>
      </g>
      <rect class="cls-2" width="100" height="100"/>
    </g>
  </g>
</svg>