<?xml version="1.0" encoding="UTF-8"?>
<svg id="Capa_2" data-name="Capa 2" xmlns="http://www.w3.org/2000/svg" viewBox="0 0 100 100">
  <defs>
    <style>
      .cls-1 {
        fill: none;
      }

      .cls-2 {
        fill: #4a2d2d;
      }

      .cls-3 {
        fill: #f8c351;
      }

      .cls-4 {
        fill: #dd573c;
      }
    </style>
  </defs>
  <g id="COLOR">
    <g>
      <g>
        <path class="cls-4" d="M13.12,39.63c.39-.17,15.48-10.13,37.58-16.75,22.1-6.62,28.01-4.22,35.33,9.85,7.32,14.08,6.19,33.64,2.53,41.66-3.66,8.02-15.2,6.76-24.91,7.18-9.71.42-47.86,1.69-49.4.7-1.55-.99-1.69-2.39-.28-3.1s46.31-17.45,49.26-25.62-50.25-11.26-50.39-11.96c-.14-.7-.99-1.41.28-1.97Z"/>
        <path class="cls-3" d="M12.84,41.6s16.05-4.5,39.13-8.16c23.08-3.66,29-4.08,32.37,10.13,3.38,14.22,2.82,27.31-2.96,31.11-5.77,3.8-65.03,6.33-66.44,4.36-1.41-1.97-3.8-36.74-2.11-37.44Z"/>
        <path class="cls-2" d="M12.9,42.06c5.89-.91,11.71-2.62,17.55-3.83,5.96-1.23,11.95-2.37,17.96-3.32,5.91-.94,11.81-1.91,17.74-2.74,2.84-.4,6.04-1.21,8.85-.38,2.83.83,5.33,2.86,6.85,5.25.49.78,1.11.65.73-.29-1.93-4.76-6.18-7.3-11.24-7.23-3,.04-6.04.64-9,1.07-3.37.49-6.74.92-10.1,1.49-6.66,1.13-13.31,2.4-19.93,3.77-6.57,1.36-13.49,2.49-19.83,4.72-.95.33-.56,1.63.41,1.48h0Z"/>
      </g>
      <rect class="cls-1" width="100" height="100"/>
    </g>
  </g>
</svg>