<?xml version="1.0" encoding="UTF-8"?>
<svg id="Capa_2" data-name="Capa 2" xmlns="http://www.w3.org/2000/svg" viewBox="0 0 100 100">
  <defs>
    <style>
      .cls-1 {
        fill: #42ade1;
      }

      .cls-2 {
        fill: #fff;
      }

      .cls-3 {
        fill: none;
      }

      .cls-4 {
        fill: #efb0a3;
      }

      .cls-5 {
        fill: #4a2d2d;
      }
    </style>
  </defs>
  <g id="COLOR">
    <g>
      <g>
        <path class="cls-1" d="M21.68,49.01c-.95,3.34,5.67,31.46,10.34,35.4,4.66,3.93,9.97,6.31,22.13,5.49,12.16-.82,15.46-4.76,17.47-10.24s8.23-25.24,7.32-30.55-22.02-4.96-27.26-5.03c-14.45-.18-28.9,1.1-30,4.94Z"/>
        <path class="cls-5" d="M21.48,51.92c3.81,3.25,8.55,4.84,13.38,5.88,4.89,1.06,9.88,1.68,14.88,1.84,5.06.17,10.22-.09,15.17-1.18,4.67-1.03,10.54-2.4,14.32-5.49.78-.64-.06-2-.98-1.68-2.24.77-4.28,2.05-6.51,2.88-2.31.87-4.68,1.53-7.11,1.98-4.81.89-9.67,1.23-14.56,1.09-9.6-.29-19.39-1.27-27.59-6.63-.79-.51-1.74.69-1.02,1.32h0Z"/>
        <path class="cls-4" d="M22.5,50.6c8.19,5.36,17.99,6.35,27.59,6.63,4.88.15,9.75-.2,14.56-1.09,2.43-.45,4.79-1.11,7.11-1.98,2.11-.79,4.06-1.98,6.17-2.75,1.03-2.42,1.7-5.11,1.7-7.8,0-6.86-4.12-8.23-4.12-8.23,0,0,1.51-1.78.14-6.72-1.37-4.94-6.72-4.8-6.72-4.8,0,0,.14-3.84-2.88-5.62-3.02-1.78-10.84-.27-16.87-2.61-6.04-2.33-1.92-6.04-3.16-7.13-1.23-1.1-4.39,2.2-8.37,6.45-3.98,4.25-3.57,8.64-3.57,8.64,0,0-2.06.96-4.25,4.12-2.2,3.16-1.51,6.72-1.51,6.72,0,0-5.76.82-7.27,8.92-.47,2.49.19,4.96,1.32,7.18.05.02.09.04.14.07Z"/>
        <path class="cls-5" d="M34.52,24.85c2.54,4.55,6.96,6.58,12,7.26,2.86.39,5.79.51,8.67.18,2.44-.27,5.55-.68,7.43-2.37.63-.57-.07-1.38-.74-1.28-2.39.35-4.58,1.46-7.05,1.7-2.28.22-4.6.16-6.87-.08-4.52-.48-9.73-2-12.31-6.08-.45-.71-1.54-.08-1.13.66h0Z"/>
        <path class="cls-5" d="M66.68,27.39c.41-.32.91-.62,1.05-1.15.13-.49-.24-.98-.75-.99-.55,0-.98.4-1.4.71s-.61.87-.26,1.34c.15.2.35.31.59.34.31.04.53-.06.76-.25h0Z"/>
        <path class="cls-5" d="M28.03,34.55c1.12,5.8,8.88,8.5,13.85,9.45,3.5.67,7.12.81,10.67.77,3.46-.04,7.47-.21,10.62-1.78.68-.34.39-1.59-.4-1.49-3.18.4-6.21,1.15-9.44,1.25s-6.31.03-9.42-.34c-3-.36-6.15-1.06-8.84-2.5-2.68-1.43-4.14-3.39-5.47-6.03-.46-.91-1.73-.24-1.56.66h0Z"/>
        <path class="cls-5" d="M67.53,41.18c1.43-.35,2.87-.86,4.16-1.59,1.13-.64,2.61-1.54,3.15-2.76.27-.61-.28-1.17-.89-.89-1.12.51-2.03,1.61-3.05,2.31-1.15.8-2.33,1.46-3.64,1.97-.59.23-.37,1.12.27.96h0Z"/>
        <path class="cls-2" d="M39.81,18.52c.27.48.63.92,1.05,1.27.22.18.45.36.72.48.17.07.33.12.51.13-.05,0,.02,0,.04,0,.05,0,.09.02.14.02.08,0,.16-.02.23-.04.17-.05.2-.24.1-.36-.04-.05-.08-.11-.14-.15-.03-.02-.05-.03-.08-.05-.01,0-.07-.04-.03-.02-.12-.08-.22-.17-.35-.24-.22-.13-.45-.24-.66-.38s-.34-.24-.54-.42c-.18-.16-.35-.34-.49-.53-.09-.12-.25-.19-.4-.1-.14.08-.18.26-.1.4h0Z"/>
        <path class="cls-2" d="M42.05,23.93c.19.12.4.22.6.32.24.11.49.23.76.27.05,0,.1,0,.15,0,.01,0,.04,0,0,0-.05,0,.03,0,.04,0,.1,0,.19-.04.26-.11.14-.15.05-.38-.11-.47-.02-.01-.05-.05.01.02.06.06.04.04.02.02-.04-.06-.09-.11-.15-.15-.05-.03-.11-.05-.17-.08-.07-.03-.14-.06-.22-.09s.06.03,0,0c-.03-.01-.06-.02-.09-.04-.24-.11-.47-.23-.7-.36-.18-.11-.44-.05-.54.14s-.05.43.14.54h0Z"/>
        <path class="cls-2" d="M49.66,21.75c.25.09.51.16.77.22.15.03.3.05.45.06.07,0,.14,0,.21-.04.01,0,.03-.01.04-.02-.03,0-.03.01-.01,0,.07-.02.14-.04.19-.08.09-.06.1-.18.03-.26-.04-.05-.1-.09-.16-.12-.04-.03-.03-.02.03.04-.02-.03-.04-.06-.06-.08-.05-.05-.11-.07-.17-.09-.12-.04-.25-.08-.37-.12-.25-.06-.5-.14-.75-.22-.18-.06-.41.07-.46.26-.05.21.06.39.26.46h0Z"/>
        <path class="cls-2" d="M51.95,26.59l.58.11c.06.01.12.02.18.03s.12,0,.18,0c.07,0,.14,0,.21-.01.06-.02.11-.05.16-.08.09-.06.15-.2.08-.3-.03-.04-.06-.1-.1-.13-.06-.06-.16-.09-.24-.12-.04-.02-.08-.03-.12-.05-.05-.02-.1-.02-.15-.03l-.58-.11c-.1-.02-.19-.01-.28.04-.08.04-.15.13-.17.22-.04.18.05.41.26.45h0Z"/>
        <path class="cls-2" d="M59.61,23.38l.46-.11c.08-.02.15-.05.22-.07.05-.02.1-.03.14-.06.03-.02.07-.05.1-.07.05-.04.09-.09.08-.16,0-.06-.05-.12-.11-.13-.04,0-.07-.01-.11-.02-.06,0-.1-.01-.16,0-.09,0-.19.02-.28.03-.16.03-.32.07-.47.1-.13.03-.22.19-.18.31.04.14.17.21.31.18h0Z"/>
        <path class="cls-2" d="M62.74,26.23c.34,0,.34-.53,0-.53s-.34.53,0,.53h0Z"/>
        <path class="cls-2" d="M34.09,29.47c.22.27.46.52.71.76.12.12.25.23.38.34.1.08.2.17.34.19.05,0,.05,0,0,0h.02s.04.02.06.03c.05.01.11.01.16,0,.11,0,.21-.11.17-.23-.01-.05-.03-.09-.05-.14,0-.02-.02-.03-.03-.05-.01-.02-.03-.06-.01,0-.05-.13-.13-.19-.23-.27-.13-.11-.26-.21-.39-.33-.26-.23-.5-.48-.72-.74-.1-.12-.32-.11-.42,0-.12.13-.11.29,0,.42h0Z"/>
        <path class="cls-2" d="M32.32,34.98c.29.41.62.8,1,1.13.19.17.39.34.61.47.1.07.21.12.32.17.06.03.13.06.19.08.07.02.15.02.22.02.13,0,.24-.16.16-.28-.04-.05-.07-.1-.11-.15-.04-.04-.08-.07-.13-.11-.1-.08-.2-.16-.31-.23-.19-.14-.36-.26-.53-.4-.35-.29-.67-.64-.93-.99-.09-.12-.25-.19-.39-.1-.12.07-.19.26-.1.39h0Z"/>
        <path class="cls-2" d="M36.69,34.95l.61.22s.1.03.14.05c.07.02.13.03.2.04-.05,0,.02,0,.03,0,.04,0,.08.02.13.02.05,0,.1,0,.15,0,.13,0,.2-.16.11-.26-.04-.04-.07-.07-.11-.11-.03-.03-.06-.04-.09-.06,0,0-.07-.04-.04-.02-.03-.02-.06-.05-.09-.07-.03-.02-.05-.03-.08-.04-.05-.02-.09-.04-.14-.06l-.59-.26c-.08-.03-.14-.05-.23-.03-.09.02-.16.09-.19.17-.07.17.03.34.19.4h0Z"/>
        <path class="cls-2" d="M43.37,34.09c.32.12.66.2,1,.25.17.02.36.06.53.05.19,0,.38-.05.55-.14.15-.08.09-.26-.04-.32-.16-.07-.33-.1-.51-.11-.15-.01-.31-.02-.46-.04-.31-.04-.63-.12-.93-.22-.14-.05-.3.06-.34.19-.04.15.05.29.19.34h0Z"/>
        <path class="cls-2" d="M44.18,39.37l.7.04c.12,0,.23.01.35,0,.05,0,.11,0,.16-.01.07,0,.13-.03.19-.05.05-.01.09-.06.09-.12,0-.06-.04-.1-.09-.12-.06-.02-.11-.05-.17-.07-.05-.01-.1-.02-.16-.03-.12-.02-.25-.03-.38-.04l-.7-.05c-.11,0-.22.11-.22.22,0,.12.1.21.22.22h0Z"/>
        <path class="cls-2" d="M49.57,37.25h.62c.12,0,.24,0,.35-.03.05,0,.1-.01.14-.03.06-.02.11-.06.16-.09.11-.08.11-.23,0-.31-.05-.03-.1-.07-.16-.09-.04-.01-.09-.02-.13-.03-.12-.02-.24-.03-.37-.03h-.62c-.16,0-.31.13-.3.3s.13.31.3.3h0Z"/>
        <path class="cls-2" d="M56.63,39.05c.37.06.73.08,1.1.06s.76-.07,1.07-.29c.15-.11.1-.33-.09-.34-.33-.02-.65.06-.98.08s-.64,0-.95-.05c-.15-.03-.3.04-.34.2-.04.13.05.32.2.34h0Z"/>
        <path class="cls-2" d="M58.34,34.3c.2-.04.41-.07.61-.12.05-.01.1-.03.14-.05.07-.02.14-.04.19-.08.01,0,.03-.02.04-.03.02-.02.02-.02,0,0,.02-.01.04-.02.06-.03.05-.03.09-.05.14-.09.08-.06.02-.17-.05-.2-.06-.02-.11-.02-.17-.03-.02,0-.05,0-.07,0,.03,0-.02-.02-.03-.02-.06-.02-.14-.01-.2-.01-.07,0-.13,0-.2.01-.21.03-.41.06-.62.09-.07.01-.15.08-.18.14-.04.06-.05.16-.03.23.05.16.2.24.37.21h0Z"/>
        <path class="cls-2" d="M62.34,35.99s.08-.04.12-.06c.02,0,.04-.02.06-.03.01,0,.02,0,.03-.01-.04.02-.04.02-.01,0,.08-.03.16-.06.24-.08s.16-.04.25-.06c.04,0,.08-.02.12-.02.06-.01.11-.04.16-.08.06-.04.1-.11.1-.18,0-.07-.04-.15-.1-.18-.07-.03-.13-.06-.21-.06-.05,0-.1,0-.14.01-.11.01-.21.03-.32.06-.2.05-.39.13-.57.22-.13.06-.18.26-.1.38.08.13.24.17.38.1h0Z"/>
        <path class="cls-2" d="M66.24,31.84l.17-.18c.07-.07.13-.15.18-.23l.13-.19.07-.1s.04-.07.06-.11c.02-.05.03-.11-.01-.16-.03-.04-.1-.07-.15-.05-.05.02-.09.03-.13.06l-.1.06-.21.13c-.08.05-.17.11-.24.18l-.19.17c-.05.05-.08.14-.08.2s.03.16.08.2c.11.1.3.12.41,0h0Z"/>
        <path class="cls-2" d="M68.86,35.75c.36-.13.71-.3,1.03-.52.16-.11.33-.23.46-.38.07-.08.15-.16.19-.25.05-.11.11-.21.08-.33-.02-.08-.09-.12-.17-.13-.1,0-.19.06-.27.1-.09.05-.16.12-.24.18-.07.06-.13.11-.2.17-.03.03-.06.05-.09.08-.02.01-.04.03-.05.04-.04.03.05-.04-.02.01-.14.1-.28.2-.42.28-.08.04-.15.08-.23.12-.04.02-.08.04-.12.06-.02,0-.03.01-.05.02-.08.04.05-.02-.04.02-.13.05-.24.18-.19.33.04.13.19.24.33.19h0Z"/>
        <path class="cls-2" d="M71.11,31.41l.15-.3.07-.14s.04-.07.05-.11c0-.03.01-.05.02-.08.01-.06,0-.12-.05-.16-.04-.03-.12-.05-.17-.01-.03.02-.07.04-.09.07-.02.02-.04.04-.06.06l-.11.12-.22.25c-.05.05-.07.11-.07.18,0,.08.04.15.1.2.06.04.12.06.19.05.07,0,.15-.05.18-.12h0Z"/>
        <path class="cls-2" d="M29.49,43.39c.28.33.63.61,1.02.81.19.1.4.19.61.24.11.03.24.06.35.06.11,0,.23-.04.33-.08s.07-.18,0-.23-.16-.1-.23-.14c-.09-.05-.21-.07-.31-.1-.18-.07-.34-.12-.51-.21-.34-.18-.64-.41-.89-.71-.09-.11-.27-.09-.37,0-.11.11-.09.26,0,.37h0Z"/>
        <path class="cls-2" d="M27.09,48.16c.17.32.41.62.69.85.15.12.3.23.48.31.06.03.13.06.2.07.03,0,.06,0,.09.01s-.05-.01,0,0c.1.03.2.04.3.04.09,0,.17-.06.19-.15.02-.09-.02-.17-.09-.22,0,0-.06-.04-.03-.02-.02-.02-.05-.04-.07-.06-.03-.02-.07-.04-.11-.07-.04-.02,0,.01,0,0,0-.01-.03-.03-.04-.04-.04-.04-.09-.07-.14-.1-.07-.04-.14-.1-.21-.14-.03-.02-.06-.04-.09-.07-.02-.01-.08-.04,0,0-.02,0-.03-.02-.04-.04-.12-.1-.24-.22-.34-.34-.01-.01-.02-.03-.04-.04-.05-.06.04.05,0,0-.02-.03-.04-.06-.07-.09-.05-.07-.09-.14-.13-.22-.08-.14-.29-.2-.43-.11-.15.1-.2.27-.11.43h0Z"/>
        <path class="cls-2" d="M36.34,49.74c.24.06.48.12.71.17.12.02.19-.13.09-.2-.21-.13-.42-.25-.63-.37-.12-.07-.26-.02-.31.11s.01.27.14.3h0Z"/>
        <path class="cls-2" d="M42.11,47.95c.67.18,1.35.31,2.04.39.34.04.68.08,1.02.06s.68-.09,1.01-.17c.08-.02.09-.15,0-.17-.31-.06-.62-.12-.94-.17-.34-.05-.67-.06-1.01-.09-.67-.06-1.33-.18-1.98-.33-.31-.07-.44.39-.13.47h0Z"/>
        <path class="cls-2" d="M44.71,53.32c.54.1,1.09.18,1.64.23s1.07,0,1.61-.09c.09-.01.09-.16,0-.18-.52-.07-1.03-.18-1.55-.23s-1.05-.12-1.56-.22c-.32-.06-.45.43-.13.48h0Z"/>
        <path class="cls-2" d="M54.24,50.45c.6.06,1.2.05,1.8,0s1.16-.26,1.69-.54c.09-.05.05-.21-.05-.2-.57.08-1.13.12-1.7.2s-1.16.09-1.74.05c-.32-.02-.32.47,0,.5h0Z"/>
        <path class="cls-2" d="M64.81,46.97c.39-.03.78-.06,1.17-.11.19-.03.37-.06.55-.11.11-.03.21-.06.31-.11.09-.04.15-.12.23-.18.1-.08.04-.26-.08-.29-.1-.03-.19-.06-.3-.06-.1,0-.2.01-.29.03-.19.04-.38.08-.56.14-.36.11-.72.25-1.07.38-.16.06-.15.33.04.31h0Z"/>
        <path class="cls-2" d="M72.61,44.82c.48-.13.95-.28,1.41-.46.48-.19.94-.4,1.33-.76.18-.16,0-.44-.23-.39-.48.12-.91.33-1.36.53s-.86.36-1.31.51c-.35.12-.21.66.15.56h0Z"/>
        <path class="cls-2" d="M61.65,52.83c.54,0,1.07-.05,1.6-.14s1.08-.23,1.48-.59c.14-.13.03-.36-.15-.36-.5,0-1,.19-1.47.32s-.96.22-1.46.27c-.31.03-.33.5,0,.5h0Z"/>
        <path class="cls-2" d="M71.76,49.84c.33-.1.65-.21.97-.33.16-.06.33-.12.48-.2s.3-.17.43-.29c.11-.1-.01-.23-.13-.22-.08.01-.16.02-.24.04s-.15.05-.23.08c-.16.06-.31.13-.46.19-.31.12-.62.23-.93.33-.25.08-.14.47.11.39h0Z"/>
        <path class="cls-2" d="M24.21,43.19l.7.62.35.3c.07.06.15.12.22.17s.16.09.25.12c.09.04.21-.02.27-.09.06-.08.07-.19.02-.28-.05-.08-.09-.16-.16-.22-.05-.05-.11-.11-.17-.16l-.35-.3-.7-.6c-.12-.1-.32-.13-.44,0-.11.12-.13.32,0,.44h0Z"/>
        <path class="cls-2" d="M30.95,29.95l.28.53c.05.09.09.17.14.26.06.11.17.2.27.27.14.09.34-.03.33-.19,0-.13-.03-.26-.09-.38-.05-.09-.1-.17-.14-.25l-.29-.52c-.07-.13-.26-.18-.39-.1s-.18.25-.1.39h0Z"/>
      </g>
      <rect class="cls-3" width="100" height="100"/>
    </g>
  </g>
</svg>