<?xml version="1.0" encoding="UTF-8"?>
<svg id="Capa_2" data-name="Capa 2" xmlns="http://www.w3.org/2000/svg" viewBox="0 0 89.17 95.54">
  <defs>
    <style>
      .cls-1 {
        fill: #fdebc4;
      }

      .cls-2 {
        fill: #42ade1;
      }

      .cls-3 {
        fill: #4a2d2d;
      }

      .cls-4 {
        fill: #b3a7a7;
      }
    </style>
  </defs>
  <g id="COLOR">
    <g>
      <g>
        <path class="cls-2" d="M67.41,84.4c-7.54,11.36-31.5,13.96-49.17,8.15C1.94,87.19-1.32,71.09.42,63.21c.14-.66.32-1.26.53-1.79.13-.33.3-.65.5-.96,3.95-6.07,20.77-7.12,27.79-7.56,15.19-.97,35.58,2.35,40.52,5.93.62.44,1.16,1,1.62,1.65.59.83,1.05,1.8,1.37,2.92,1.47,5.06.07,12.84-5.34,21Z"/>
        <path class="cls-3" d="M72.75,63.39c-1.43,2.74-4.45,4.34-7.27,5.28-13.09,4.37-27.8,3.64-41.36,2.89-6.25-.34-12.59-.95-18.33-3.66-2.19-1.03-4.22-2.53-5.37-4.69.14-.66.32-1.26.53-1.79.13-.33.3-.65.5-.96.26,1.52,1.07,2.9,2.52,4.01,2.25,1.72,5.25,2.56,7.99,3.16,5.18,1.13,10.54,1.25,15.81,1.5,5.81.27,11.62.44,17.43.22,5.58-.21,11.2-.76,16.65-2.03,2.53-.59,5.21-1.19,7.26-2.87,1.26-1.03,2.17-2.48,2.26-3.98.59.83,1.05,1.8,1.37,2.92Z"/>
      </g>
      <path class="cls-4" d="M53.45,25.35c-5.04,1.35-14.49,2.96-19.76,7.16-5.27,4.2-8.56,9.96-4.2,14.08,4.36,4.12,14.38,3.64,21.16-2.64,3.29-3.05,5.4-11.41,9.64-17.38,5.44-7.66,21.91-11.94,26.35-17.38,4.45-5.44,2.55-9.8-1.98-9.14-4.53.66-13.75,9.47-19.02,14.74-5.27,5.27-9.77,9.89-12.19,10.54Z"/>
      <path class="cls-1" d="M11.96,67.64c5.18,1.13,10.54,1.25,15.81,1.5,5.81.27,11.62.44,17.43.22,5.58-.21,11.2-.76,16.65-2.03,1.93-.45,3.94-.9,5.69-1.84-4.76-3.03-14.1-4.52-35.34-4.31-14.45.14-22.18,2.51-26.18,4.55,1.87.92,3.97,1.48,5.94,1.92Z"/>
      <path class="cls-1" d="M51.29,27.88s-1.11-2.66-2.96-2.78-2.41.49-2.41.49c0,0-.93-1.73-2.53-1.61s-2.22.8-2.22.8c0,0-1.48-2.16-3.27-1.3-1.79.86-2.59,3.52-2.59,3.52,0,0-1.48-.62-2.84.49-1.36,1.11-1.05,3.95-1.05,3.95,0,0-1.73.12-2.35,1.73-.62,1.61.86,4.08.86,4.94s-1.73,3.83,1.79,5.81c3.52,1.98,9.94,1.32,15.26-3.46,6.79-6.11,4.32-12.6,4.32-12.6Z"/>
      <path class="cls-3" d="M29.3,38.15c-1.01,3.57.88,6.11,4.28,7.13s7.19-.07,10.23-1.64c3.35-1.74,6.41-4.29,8.04-7.75,1.43-3.05,2.14-7.16-.4-9.83-.58-.61-1.6.18-1.17.9,3.33,5.51-1.29,11.89-5.95,14.83-2.38,1.5-5.1,2.47-7.94,2.45-1.45-.01-3.04-.26-4.34-.93-1.89-.97-2.3-2.97-2.01-4.95.07-.48-.61-.7-.75-.21h0Z"/>
      <g>
        <path class="cls-3" d="M38.02,29.26c-1.22-.05-1.89,1.05-2.15,2.1-.17.68.85.96,1.05.29.14-.47.45-1.34,1.11-1.24.44.07.71.67.98.97.2.22.61.11.67-.18.21-.96-.69-1.9-1.65-1.94Z"/>
        <path class="cls-3" d="M43.92,32.03c-.82-.05-1.53.54-1.85,1.26-.29.66.65,1.26,1,.58.15-.29.38-.59.74-.59.32,0,.48.32.76.44.22.09.47.07.6-.16.47-.8-.54-1.49-1.25-1.53Z"/>
        <path class="cls-3" d="M47.38,29.35c-.12-.14-.28-.26-.45-.35-.25-.13-.61-.07-.75.2-.14.26-.07.6.2.75.03.02.06.03.09.05,0,0,0,0,0,0,.03.04.08.09.12.12,0,0,0,0,0,0,.04.06.08.11.14.15.13.12.24.18.42.2.17.02.33-.11.42-.24.1-.15.09-.34.04-.51-.04-.15-.13-.26-.23-.38Z"/>
        <path class="cls-3" d="M36.28,36.67c-.63.15-1.08.61-1.32,1.2-.23.56.68.92.96.41.35-.62.91-.35,1.45-.21.32.08.73-.23.59-.59-.27-.67-.99-.97-1.69-.81Z"/>
        <path class="cls-3" d="M43.09,36.92c-.33-.11-.69-.07-.98.1-.3.17-.43.61-.24.91.18.28.45.36.74.29.11.1.25.2.39.23.36.08.66-.11.79-.45.19-.5-.27-.94-.7-1.08ZM42.7,38.2s-.01,0-.03,0c0,0,0,0,0,0,.04-.01.08-.02.11-.04-.04.02-.06.03-.08.04Z"/>
        <path class="cls-3" d="M33.23,35.11s-.03-.02-.05-.03c-.15-.09-.34-.09-.49,0-.15.09-.24.25-.24.42s.09.33.24.42c.15.09.34.09.49,0,.02,0,.03-.02.05-.03.07-.04.12-.09.16-.16.04-.07.06-.15.06-.23,0-.08-.02-.16-.06-.23-.04-.07-.09-.12-.16-.16Z"/>
      </g>
    </g>
  </g>
</svg>