<?xml version="1.0" encoding="UTF-8"?>
<svg id="Capa_2" data-name="Capa 2" xmlns="http://www.w3.org/2000/svg" viewBox="0 0 100 100">
  <defs>
    <style>
      .cls-1 {
        fill: #fce3ad;
      }

      .cls-2 {
        fill: #fff;
      }

      .cls-3 {
        fill: none;
      }

      .cls-4 {
        fill: #e09d3e;
      }

      .cls-5 {
        fill: #fad380;
      }

      .cls-6 {
        fill: #4a2d2d;
      }
    </style>
  </defs>
  <g id="COLOR">
    <g>
      <g>
        <g>
          <path class="cls-4" d="M91.38,55.64c0,.13-1.23,4.75-2.73,10-.58,2.03-1.2,4.15-1.8,6.13-1.21,3.97-2.35,7.4-2.99,8.52-1.8,3.14-1.17,3.77-7.35,3.77-4.44,0-18.68-.05-26.36-.07-7.68.02-21.92.07-26.36.07-6.19,0-5.56-.63-7.35-3.77-.35-.61-.85-1.91-1.42-3.6-.92-2.7-2.04-6.42-3.07-9.99-1.64-5.67-3.04-10.93-3.04-11.07l41.24.48,41.24-.48Z"/>
          <path class="cls-2" d="M94.86,52.32c-.27-2.24-4.57-6.81-7.53-10.31-2.96-3.5-5.02-4.57-6.54-4.66-1.28-.08-23.54-.02-30.65,0-7.11-.02-29.37-.07-30.65,0-1.52.09-3.59,1.17-6.54,4.66-2.96,3.5-7.26,8.07-7.53,10.31-.27,2.24.07,6.77,6.08,7.13,3.15.19,50.2.52,50.34.49,10.87-.08,23.98-.04,27.75-.54,5.97-.78,5.54-4.84,5.27-7.08Z"/>
          <path class="cls-1" d="M36.51,39.95s-16.14-.27-17.35.4-7.53,7.26-8.2,9.41-.67,3.36,2.15,4.57c2.82,1.21,63.75.4,68.32,0,4.57-.4,11.16.13,9.14-3.77-2.02-3.9-6.86-11.03-10.89-11.03s-43.17.4-43.17.4Z"/>
          <g>
            <path class="cls-6" d="M20.01,40.83s.03,0,0,0h0Z"/>
            <path class="cls-6" d="M89.65,47.8c-.89-1.13-1.87-2.19-2.79-3.29-.9-1.08-1.79-2.17-2.78-3.17-.76-.77-1.6-1.44-2.64-1.79-.38-.13-.79-.17-1.18-.21-2.94-.35-5.97-.25-8.93-.24-3.61.02-7.22.09-10.82.1-1.81,0-3.61-.05-5.42,0-4.66.13-9.33.08-14,.08-3.53,0-7.07-.07-10.6-.1-3.09-.02-6.22-.1-9.3.18-1.34.12-2.42.46-3.49,1.35-1.04.87-1.92,1.96-2.79,2.99-.88,1.04-1.78,2.06-2.67,3.09-.87,1.01-1.84,2.1-2.32,3.37-.37.97-.4,2.22.19,3.12.86,1.31,2.77,1.55,4.2,1.63,5.04.29,10.12.25,15.16.31,6.66.08,13.32.15,19.97.12,3.99-.02,7.98-.05,11.97-.06,6.57-.01,13.14-.07,19.7-.2,1.81-.04,3.63-.06,5.44-.15,1.28-.07,2.78-.24,3.81-1.06.76-.61,1.04-1.59.98-2.54-.09-1.37-.89-2.48-1.71-3.53ZM80.34,40.95c-.15-.02-.05,0,0,0h0ZM89.81,51.76c-.06.76-.55,1.08-1.25,1.27-1.58.43-3.27.35-4.89.39-5.94.13-11.88.18-17.81.26-3.38.05-6.76.09-10.14.12-6.75.06-13.63-.04-20.43-.1-6.12-.05-12.24-.11-18.35-.27-.78-.02-1.56-.04-2.34-.08-.21,0-.41-.02-.62-.04-.73-.07-1.92-.18-2.47-.75-.6-.63-.29-1.75.08-2.41.65-1.19,1.62-2.23,2.51-3.24.91-1.03,1.78-2.11,2.68-3.14.78-.89,1.58-1.9,2.63-2.48.4-.22.77-.33,1.21-.41.04,0,.06,0,.07-.01.01,0,.04,0,.09,0,.11-.01.23-.03.34-.04.26-.03.52-.04.78-.06,1.43-.09,2.87-.12,4.31-.13,3.6-.04,7.2.02,10.8.06,4.7.05,9.4-.01,14.1.01,4.76.03,9.51.1,14.26.05,3.54-.04,7.08-.09,10.62-.03,1.3.02,2.6.05,3.89.17.1,0,.21.02.31.03.05,0,.09.01.14.02.17.03.34.05.5.1.78.2,1.41.74,1.97,1.29.98.97,1.86,2.03,2.74,3.08.91,1.07,1.86,2.1,2.75,3.19.72.89,1.6,1.94,1.5,3.16Z"/>
          </g>
          <path class="cls-5" d="M88.65,65.64c-.58,2.03-1.2,4.15-1.8,6.13-1.57-.63-3.23-1.04-4.53-1.3-6.04-1.22-10.14,1.67-15.26,4.16-5.45,2.64-11.41,4.53-17.52,4.48-6.52-.06-11.41-2.95-17.18-5.47-5.79-2.54-11.34-1.32-16.37,2.34-.33.24-.65.48-.98.72-.92-2.7-2.04-6.42-3.07-9.99,2.86-1.68,5.96-2.94,9.23-3.44,4.02-.61,8.3,0,11.74,2.17,2.24,1.41,4.09,3.43,6.49,4.53,4.68,2.15,10.18.55,14.73-1.11,5.12-1.88,9.86-3.74,15.27-4.74,5.11-.94,9.9-1.82,14.9-.41,1.93.54,3.31,1.22,4.35,1.93Z"/>
        </g>
        <path class="cls-6" d="M31.79,42.48c-3.39-.33-6.87.27-9.89,1.87-1.29.69-2.56,1.89-2.39,3.48.15,1.43,1.45,2.16,2.72,2.47,1.92.47,4,.6,5.94.24.4-.08.28-.67-.09-.68-1.91-.09-3.93-.07-5.78-.6-.63-.18-1.37-.48-1.65-1.13-.33-.76.13-1.61.69-2.12.63-.57,1.47-.93,2.25-1.25.84-.35,1.7-.64,2.58-.87,1.83-.48,3.73-.72,5.62-.69.47,0,.46-.68,0-.72h0Z"/>
        <path class="cls-6" d="M31.41,46.34c-.18.22-.31.47-.36.76s-.04.59.07.87c.12.3.3.53.57.72s.66.36.95.18l-.21.06c.16,0,.36-.02.49-.12.1-.07.16-.16.16-.28,0-.11-.06-.23-.16-.28-.12-.06-.25-.08-.38-.13l.25.19c-.08-.11-.16-.19-.29-.24-.04-.01-.09-.03-.13-.04.11.03.05.02,0,0-.02-.01-.04-.02-.06-.03-.04-.02-.08-.05-.11-.07-.05-.03.08.07.02.01-.02-.02-.03-.03-.05-.05-.03-.03-.06-.06-.09-.1-.01-.02-.03-.04-.04-.05.04.06.05.07.03.04,0-.01-.02-.02-.02-.03-.03-.04-.05-.08-.07-.12-.04-.07.03.07,0,.02,0-.02-.02-.04-.02-.07-.01-.05-.02-.09-.03-.14-.02-.08,0,.08,0,.02,0-.02,0-.05,0-.07,0-.05,0-.09,0-.14,0-.1-.02.1,0,0,0-.02,0-.04.01-.06.01-.05.03-.1.04-.15,0,0,0-.02,0-.03.01-.03,0-.02-.02.04,0,0,.03-.06.03-.06.02-.05.05-.09.08-.13.13-.17.04-.44-.11-.56s-.43-.14-.57.03h0Z"/>
        <path class="cls-6" d="M70.49,45.7c.25.28.55.57.66.93.05.16.08.33.04.49s-.17.29-.28.41c-.28.29-.59.55-.92.79-.17.12-.34.24-.51.34-.23.14-.45.24-.54.52-.06.18.07.41.26.45.31.07.54-.1.79-.26.21-.14.41-.28.61-.43.41-.32.86-.66,1.16-1.09s.34-.97.16-1.45-.55-.87-.92-1.22c-.33-.31-.81.17-.5.5h0Z"/>
        <path class="cls-6" d="M77.01,44.18c1.96.69,4.15,2.19,3.77,4.58-.18,1.17-1.06,1.76-2.13,2.11-1.31.42-2.66.54-4.01.8-.37.07-.28.67.09.66,1.54-.05,3.23-.24,4.69-.75,1.28-.45,2.14-1.36,2.3-2.73.33-2.77-2.25-4.49-4.56-5.23-.37-.12-.52.45-.16.58h0Z"/>
        <path class="cls-6" d="M95.99,53.17c.04-.81-.22-1.62-.62-2.34-.63-1.13-1.45-2.21-2.27-3.21-.89-1.07-1.83-2.1-2.73-3.16-.88-1.04-1.74-2.09-2.64-3.11-1.47-1.67-3.06-3.54-5.26-4.22-.77-.24-1.62-.28-2.43-.35-2.84-.22-5.71-.23-8.56-.24-3.61-.01-7.23.02-10.84.09-3.12.06-11.95.23-12.88.15-1.58-.14-3.2-.07-4.79-.1-3.63-.07-7.26-.14-10.89-.15-3.15,0-6.3.01-9.45.15-1.06.05-2.13.11-3.19.26-1.32.19-2.49.82-3.51,1.68-2.04,1.72-3.67,3.95-5.39,5.97-.91,1.06-1.85,2.09-2.73,3.17-.81.99-1.64,2.07-2.23,3.21-.3.57-.49,1.18-.53,1.8-.24,1.13-.11,3.09.26,3.95.38.9,1.13,1.57,1.96,2.06,1.47.86,3.34,1.34,5.03,1.47,1.96.15,3.93.17,5.88.21,3.33.08,6.67.13,10.01.2,11.01.21,22.04.14,33.06.1,2.97,0,5.93-.04,8.9-.07,5.89-.06,11.81-.11,17.7-.4,1.15-.06,2.25-.22,3.37-.52,1.8-.47,3.87-1.37,4.58-3.24.28-.74.35-2.24.2-3.37ZM9.4,58.15c-1.11-.37-2.37-.93-2.97-2-.1-.17-.16-.35-.2-.52.31.29.66.55,1.03.77,1.19.7,2.64,1.14,4.04,1.35.02.2.05.41.09.61.02.09.04.19.06.28-.69-.11-1.38-.27-2.05-.49ZM13.73,58.86c-.39-.02-.79-.04-1.18-.08,0-.06-.02-.12-.03-.17-.03-.16-.07-.32-.11-.49-.02-.08-.04-.16-.07-.25.46.03.93.06,1.39.08.01.11.03.21.04.32.03.17.06.35.1.52,0,.02.01.04.02.06-.05,0-.11,0-.16,0ZM14.87,58.9s0-.05-.01-.07c-.02-.09-.03-.18-.05-.26-.04-.17-.09-.34-.13-.51,0-.02,0-.04-.01-.06.49.02.97.03,1.46.04,0,.03,0,.06,0,.1.03.21.06.42.1.63.01.06.03.12.05.18-.47-.01-.93-.03-1.4-.05ZM39.07,59.19c-2.51,0-5.03-.03-7.54-.05-4.78-.04-9.55-.05-14.33-.17,0-.01,0-.03,0-.04,0-.05-.01-.11-.02-.16-.01-.1-.02-.21-.04-.31-.02-.13-.05-.27-.08-.4.38,0,.75.02,1.13.02,3.33.08,6.67.13,10.01.2,5.79.11,11.59.14,17.39.14-.01.16-.03.32-.03.48,0,.1,0,.2,0,.3-2.16,0-4.32,0-6.48,0ZM46.52,59.2c0-.1,0-.2-.02-.3-.01-.16-.01-.32-.02-.48.49,0,.98,0,1.48,0l.02.43c0,.12.01.23.02.35-.5,0-.99,0-1.49,0ZM55.63,59.19c-2.21,0-4.41.01-6.62.01,0-.03,0-.06,0-.09-.02-.13-.04-.26-.06-.39-.02-.1-.03-.2-.05-.3,2.25,0,4.5-.01,6.74-.02,0,.08,0,.16,0,.23,0,.17,0,.33,0,.5,0,.02,0,.03,0,.05ZM56.55,59.18s0-.02,0-.03c0-.17,0-.35,0-.52,0-.08,0-.16,0-.24,1.57,0,3.13-.01,4.7-.02,2.97,0,5.93-.04,8.9-.07,1.27-.01,2.54-.03,3.81-.04,0,.19,0,.38,0,.58,0,.09,0,.17,0,.26-.58,0-1.16,0-1.74,0-5.22.02-10.44.04-15.66.06ZM85.3,58.95c-2.3.09-4.6.13-6.91.14,0-.15,0-.29,0-.44,0-.15-.01-.29-.02-.44,2.33-.04,4.67-.11,7-.2-.01.25-.03.5-.06.75,0,.06-.01.12-.02.18ZM77.45,59.1c-.86,0-1.72,0-2.58.01,0-.08,0-.17,0-.26,0-.2,0-.39,0-.59.87-.01,1.73-.03,2.6-.04,0,.14-.01.28-.02.42,0,.15,0,.3,0,.45ZM86.35,58.91s0-.08,0-.12c0-.27,0-.54-.02-.81.51-.02,1.01-.04,1.52-.06.05,0,.1,0,.14-.01-.02.17-.04.35-.07.52-.02.1-.05.2-.05.3,0,.03,0,.07,0,.1-.5.03-1,.05-1.51.08ZM94.25,56.42c-.44.71-1.24,1.17-1.99,1.48-1.06.45-2.24.73-3.4.85.03-.17.04-.34.04-.52,0-.14,0-.27,0-.4.78-.09,1.54-.23,2.32-.43,1.11-.29,2.32-.74,3.25-1.49-.05.17-.12.34-.22.5ZM94.25,54.05c-.44.71-1.24,1.17-1.99,1.48-1.22.52-2.58.82-3.9.9-5.37.31-10.77.29-16.15.31-11.04.04-22.09.11-33.13.07-2.51,0-5.03-.03-7.54-.05-5.93-.05-11.87-.04-17.8-.28-.71-.03-1.43-.04-2.13-.16-1.63-.3-3.99-.79-4.88-2.38-.57-1.02-.03-2.06.56-2.93.72-1.05,1.57-2.03,2.4-3,1.75-2.03,3.46-4.1,5.25-6.09,1.18-1.3,2.5-2.91,4.29-3.33.14-.03.29-.06.43-.09.08-.01.17-.03.25-.04.01,0,.03,0,.05,0,.04,0,.08-.01.12-.02.49-.06.99-.1,1.49-.14,2.85-.2,5.71-.18,8.57-.18,3.54,0,7.08.05,10.62.06,3.03,0,11.51-.09,12.42-.04,1.52.08,3.07.04,4.59.04,3.52,0,7.04-.03,10.56-.05,3.15-.02,6.3-.06,9.45.08,1.06.05,2.12.11,3.18.23.05,0,.07,0,.09,0,.01,0,.03,0,.06.01.08.01.17.03.25.04.16.03.31.06.47.09.61.15,1.18.47,1.69.83,1.02.7,1.87,1.72,2.7,2.64.87.97,1.7,1.97,2.53,2.96,1.7,2.02,3.63,3.92,5.09,6.12.59.89,1.02,1.91.41,2.9Z"/>
        <g>
          <path class="cls-1" d="M66.26,44.18c-4.81,7.46-13.21,5.91-13.21,5.91,0,.03-.07.52-4.59,1.07-4.66.57-11.33-2.37-12.98-7.89-1.65-5.52,2.3-12.62,6.39-15.21,3.96-2.5,5.63-.23,5.74-.08,0,0,0,0,0,0,0,0,0,0,.03-.02.01,0,.02-.01.04-.02.07-.05.23-.13.5-.21,0,0,.02,0,.03,0,.24-.07.56-.15,1-.21.28-.04.62-.08,1-.1,1.89-.13,2.66,1.87,2.78,2.23.01.04.02.06.02.06,0,0,.73-.11,2,.57.16.08.33.18.5.29,1.58,1.01,1.07,2.8,1.07,2.8,0,0-1.72-.43-5.24,1.72-3.52,2.15-3.52,5.81-3.52,5.81,0,0,2.01,1.51,6.53-1.72,4.85-3.46,3.59-9.97,3.59-9.97l.86-.29c.86-.29,2.66.36,2.66.36,0,0,.86-.43,2.15-.65,1.29-.21,1.79.65,1.79.65,0,0,.36-.21,1.22-.5.86-.29,1.72.07,2.65,1,.93.93,1.8,6.93-3,14.39Z"/>
          <path class="cls-6" d="M43.81,42.25c.03-.86.15-1.71.33-2.55.57-2.67,1.72-5.09,3.84-6.87,1.03-.87,2.21-1.58,3.45-2.11.81-.35,1.82-.72,2.79-.79-.79-.29-1.23-.23-1.23-.23,0,0-2.43.55-3.47,1.14-1.22.7-2.3,1.5-3.28,2.51-.11.11-.21.22-.31.33-2.24,2.4-4,6.3-2.91,9.6.13.39.59.44.83.21-.04-.42-.05-.84-.03-1.25Z"/>
          <path class="cls-6" d="M49.18,27.53c-.58.25-1.14.57-1.65.94-.25.17-.49.36-.72.55-.02,0-.03.02-.05.03-.88.65-1.65,1.44-2.32,2.3-.06.07-.11.15-.17.23-.68.84-1.31,1.72-1.87,2.62-.39.63-.68,1.31-.94,2-.01.04-.03.07-.04.11-.34.07-.71-.12-.7-.55.04-2.5,3.46-5.89,5.88-7.26.32-.18.65-.36.98-.51,0,0,.02,0,.03-.01.01,0,.02-.01.04-.02.16-.07.33-.15.5-.21,0,0,.02,0,.03,0,.24-.07.56-.15,1-.21Z"/>
          <path class="cls-6" d="M38.75,40.8c-.52,1.47-.06,3.16.93,4.32.28.33.89-.02.74-.43-.45-1.25-.56-2.42-.59-3.75-.02-.64-.88-.72-1.08-.15h0Z"/>
          <path class="cls-6" d="M69.88,31.44c0,.17,0,.33-.02.49-.15,3.02-.95,6.03-2.45,8.66-1.21,2.12-2.97,3.82-4.94,5.24-2.19,1.58-4.54,2.83-7.32,2.81-4.58-.03-8.28-4.05-6.93-8.69.2-.68.51-1.45.89-2.07.66-1.25,1.62-2.22,2.68-3.08-.83.12-1.57.63-2.18,1.18-.97.88-1.82,1.96-2.29,3.19-1.17,3.11-.64,6.54,1.82,8.82.57.53,1.21.98,1.9,1.34-2.53.56-5.23.54-7.8-.33-2.25-.76-4.46-2.02-5.75-4.09-1.79-2.87-1.43-6.6-.46-9.69.61-1.92,1.59-4.25,3.02-5.72-2.67,2.75-5.05,6.71-5.1,10.56-.12,8.72,10.66,13.67,18.12,10.05,1.49.4,3.07.46,4.58.16,4.06-.8,7.53-3.75,9.64-7.22,1.89-3.1,3.34-7.78,2.59-11.62Z"/>
          <path class="cls-6" d="M51.34,45.94c3.62-1.03,6.41-3.33,8.1-6.69.24-.48-.43-.88-.72-.42-1.79,2.77-4.54,4.98-7.65,6.1-.63.23-.38,1.2.28,1.01h0Z"/>
          <path class="cls-6" d="M59.65,45.23c1.8-.97,3.29-2.34,4.47-4.02,1.06-1.51,2.26-3.68,2.09-5.58-.04-.47-.69-.74-.95-.26-.83,1.51-1.19,3.21-2.16,4.69-1.07,1.63-2.49,2.97-4.08,4.09-.64.45-.09,1.45.62,1.07h0Z"/>
          <path class="cls-6" d="M61.58,35.32c.17-.57.7-1.85-.18-2.09-.45-.12-.79.29-.92.66-.12.34-.15.71-.21,1.06s.1.74.48.84.73-.12.84-.48h0Z"/>
        </g>
      </g>
      <rect class="cls-3" width="100" height="100"/>
    </g>
  </g>
</svg>