<?xml version="1.0" encoding="UTF-8"?>
<svg id="Capa_2" data-name="Capa 2" xmlns="http://www.w3.org/2000/svg" viewBox="0 0 100 100">
  <defs>
    <style>
      .cls-1 {
        fill: #42ade1;
      }

      .cls-2 {
        fill: #fbdfa3;
      }

      .cls-3 {
        fill: #fff;
      }

      .cls-4 {
        fill: none;
      }

      .cls-5 {
        fill: #4a2d2d;
      }
    </style>
  </defs>
  <g id="COLOR">
    <g>
      <g>
        <g>
          <path class="cls-1" d="M82.73,78.75c-8.1,12.21-33.84,14.99-52.82,8.76-17.52-5.76-21.01-23.05-19.15-31.52.16-.71.35-1.35.57-1.93.14-.36.32-.7.54-1.03,4.24-6.52,22.32-7.64,29.86-8.13,16.32-1.04,38.22,2.52,43.53,6.37.66.48,1.24,1.07,1.74,1.77.63.89,1.13,1.94,1.48,3.13,1.58,5.44.08,13.8-5.73,22.57Z"/>
          <path class="cls-2" d="M25.94,62c2.42.42,4.85,1,7.3,1.19,2.17.17,4.35.07,6.52.07,2.22,0,4.43.16,6.64.23,4.41.16,8.82.27,13.24.13,4.26-.14,8.57-.44,12.79-1.13,1.93-.32,3.84-.74,5.71-1.31.68-.21,1.36-.45,2.03-.69.22-.2.42-.39.57-.57,2.19-2.52,2.26-4.51,2.19-8.23-.07-3.72-2.99-6.37-4.05-8.29s.4-3.65-1.46-5.84c-1.86-2.19-5.04.07-5.04.07,0,0,0-1.92-2.65-4.64-2.65-2.72-7.03-1.86-7.03-1.86,0,0-.13-.93-1.53-3.19-1.39-2.26-4.25-2.85-7.03-3.19-2.79-.33-4.58-5.24-9.95-4.05-5.37,1.19-8.1,6.57-9.49,8.83-1.39,2.26-3.32,1.99-5.97,3.12-2.65,1.13-2.39,3.05-3.12,4.31-.73,1.26-1.26.4-3.91,2.52-2.65,2.12-.33,6.83-.33,6.83,0,0-4.45.93-4.64,6.7-.13,3.69,1.45,6.32,2.61,7.74,2.19.49,4.42.87,6.62,1.25Z"/>
          <path class="cls-3" d="M39.94,32.01c-.25,1.14-.83,1.93-2.06,2.05-.79.07-1.54.13-2.29.41-1.12.42-2.4,1.49-2.25,2.8.06.53.65.69.97.26.66-.88,1.05-1.64,2.19-2.02.8-.27,1.65-.21,2.45-.44,1.27-.36,1.9-1.52,2.14-2.74.15-.74-.98-1.06-1.14-.32h0Z"/>
          <path class="cls-3" d="M29.88,57.2c.27-.68,1.78-1.14,2.38-1.34.73-.25,1.52-.33,2.2-.7.45-.25.37-1-.15-1.13-1.14-.27-2.38.27-3.39.77-.89.45-1.91,1.05-2.13,2.1-.15.72.82.96,1.08.3h0Z"/>
          <path class="cls-3" d="M66.61,48.06c.61,1.05,1.37,1.73,2.62,1.88.72.09,1.4-.05,2.11-.14.52-.06,1.35-.2,1.82.12.29.2.56.73.79,1.02.33.42.93.12,1.08-.29.45-1.22-.73-2.22-1.84-2.49-2.01-.49-4.07.93-5.82-.7-.4-.38-1.06.1-.77.6h0Z"/>
          <path class="cls-3" d="M52.78,45.86c.02.08.05.15.08.23.05.12.13.22.21.32.14.16.32.31.53.34.14.02.26.03.4-.03.12-.05.23-.13.29-.25.05-.1.08-.2.08-.31,0-.17-.08-.31-.18-.43-.08-.1-.2-.17-.3-.25l.13.1c-.1-.08-.21-.18-.29-.27-.16-.18-.49-.22-.69-.09-.21.14-.33.39-.26.64h0Z"/>
          <path class="cls-3" d="M61.46,36.73c.04.05.08.11.12.15.04.05.08.1.12.15,0,0,.02.02.02.02l.3.23c.05.04.12.07.19.08.17.09.36.13.57.13.07,0,.14-.01.21-.03.22-.03.34-.04.56-.18.11-.07.26-.2.31-.24.11-.09.21-.21.26-.33.13-.22.19-.46.19-.72,0-.26-.07-.5-.19-.72-.13-.21-.3-.38-.51-.51-.22-.13-.46-.19-.72-.19-.02,0-.03,0-.05,0l.38.05c-.17-.03-.06-.08-.44-.06h-.01c-.13.02-.26.03-.39.05-.3.07-.24.1-.37.16l.35-.15s-.03,0-.04.01c-.24.07-.45.19-.63.37-.14.13-.24.28-.29.46-.09.17-.13.35-.12.55,0,.26.07.5.19.72h0Z"/>
          <path class="cls-3" d="M48.13,26.91c.14.03.29.06.43.06s.27-.03.41-.07c.37-.09.67-.4.77-.77.05-.19.05-.39,0-.58-.05-.19-.15-.35-.28-.48l-.03-.04c-.05-.06-.08-.08-.15-.13s-.1-.08-.16-.11l-.06-.03c-.18-.11-.38-.16-.59-.16l-.31.04c-.2.06-.37.16-.52.3-.11.11-.2.23-.24.38-.07.14-.11.29-.1.45,0,.16.03.31.1.45.05.15.13.27.24.38.15.15.32.25.52.3h0Z"/>
          <path class="cls-3" d="M31.82,49.4c.14-.04.28-.07.41-.14.05-.02.09-.05.13-.09.11-.07.2-.17.26-.29.02-.02.03-.04.05-.06.07-.11.11-.23.11-.35.03-.13.02-.25-.02-.38-.07-.22-.21-.46-.43-.56-.02-.01-.05-.02-.07-.03l-.24-.1c-.1-.03-.2-.05-.3-.03-.15,0-.29.04-.43.08-.25.06-.48.25-.61.47-.07.12-.11.24-.12.38-.03.14-.02.27.02.41.08.25.23.49.47.61s.51.17.79.1h0Z"/>
          <path class="cls-3" d="M73.98,57.75c.15.07.31.15.46.2s.32.08.49.08c.42.02.84-.25,1.05-.6s.22-.86,0-1.23c-.06-.1-.15-.21-.23-.3-.02-.03-.04-.05-.07-.07-.12-.11-.26-.2-.39-.3-.15-.09-.31-.15-.48-.15-.17-.04-.34-.03-.52.02-.17.04-.31.12-.44.23-.14.09-.25.21-.33.36-.16.3-.24.66-.13,1l.13.31c.11.19.27.35.46.46h0Z"/>
          <path class="cls-5" d="M88.46,56.19c-1.54,2.94-4.79,4.66-7.82,5.67-14.06,4.7-29.86,3.91-44.44,3.11-6.72-.37-13.52-1.02-19.69-3.93-2.36-1.11-4.54-2.72-5.76-5.04.16-.71.35-1.35.57-1.93.14-.36.32-.7.54-1.03.28,1.63,1.15,3.12,2.71,4.31,2.42,1.85,5.65,2.76,8.58,3.4,5.57,1.21,11.32,1.35,16.99,1.61,6.24.29,12.48.47,18.72.24,6-.22,12.03-.81,17.89-2.19,2.72-.64,5.59-1.27,7.8-3.08,1.35-1.11,2.33-2.67,2.42-4.28.63.89,1.13,1.94,1.48,3.13Z"/>
        </g>
        <path class="cls-5" d="M38.99,43.7c-.45-.23-.91-.47-1.35-.72-.82-.46-1.65-.85-2.54-1.17-1.53-.54-3.27-.78-4.87-.42-1.99.45-3,2.08-4.44,3.36-1.65,1.47-3.82,1.07-5.67,2.07.57-.03,1.15-.03,1.73.03.89.08,1.86.27,2.75.08,1.3-.27,2.26-1.18,3.22-2.04.07-.08.14-.16.21-.24,1.07-1.2,2.26-2.01,3.7-2.14.32-.07.65-.11.99-.1,1.57.03,2.97.74,4.44,1.18.62.19,1.25.35,1.9.32.1,0,.18-.02.27-.03-.12-.07-.24-.13-.35-.19Z"/>
        <path class="cls-5" d="M60.65,32.17c-.74,0-1.49-.14-2.17-.36-2.44-.79-4.5-2.71-7.15-2.84-2.76-.13-5.38,1.29-7.07,3.42-1.48,1.87-2.15,4.12-2.14,6.48.02,2.36.02,4.93-1.13,7.07-.05.09-.1.18-.15.27-1.18,2.01-3.23,3.72-5.41,4.66.1.33.41.58.87.49,2.72-.54,5-2.5,6.17-4.99,1.44-3.05.65-6.48,1.53-9.66,1.13-4.06,4.99-7.37,9.25-5.26,2.59,1.29,5.84,3.05,8.64,1.17.24-.16.35-.42.34-.67-.51.16-1.06.23-1.61.23Z"/>
        <path class="cls-5" d="M66.96,53.51c-2.64-1.54-5.61-.3-8.3.36-2.31.57-3.53-.53-5.62-1-1.15-.25-2.36-.17-3.49.11-1.51.37-2.86,1.26-3.96,2.34-.37.36-3.08,3.82-3.12,3.8.2.11.46.1.7-.1,1.92-1.61,3.75-3.54,6.22-4.28,1.25-.38,2.52-.42,3.76-.02,1.02.32,1.9.94,2.96,1.12,1.97.34,3.95-.65,5.84-1.03.28-.06.58-.11.87-.14,1.52-.29,3.08-.34,4.32.76,1.17,1.04,1.24,2.31,1.23,3.76.19-.01.37-.12.48-.29,1.19-1.82-.22-4.4-1.91-5.39Z"/>
        <path class="cls-5" d="M71.23,40.26c-1.22.92-2.83,1.26-4.27.67-.93-.38-1.68-.65-2.69-.41-.93.22-1.75.8-2.67,1.03-1.62.41-2.59-.44-3.68-1.48-1.98-1.9-4.56-3-7.21-2.83.21.08.41.16.6.24.7.28,1.37.63,2.01,1.03,1.05.66,1.95,1.43,2.81,2.28.05.04.11.09.16.13,1.34,1.19,2.51,2.62,4.47,2.56.82-.02,1.56-.36,2.31-.66,1.55-.63,2.5-.68,4.19-.47,1.54.19,3.45.21,4.18-1.42.13-.28.09-.58-.05-.81-.06.05-.12.09-.17.13Z"/>
      </g>
      <rect class="cls-4" width="100" height="100"/>
    </g>
  </g>
</svg>