<?xml version="1.0" encoding="UTF-8"?>
<svg id="Capa_2" data-name="Capa 2" xmlns="http://www.w3.org/2000/svg" viewBox="0 0 100 100">
  <defs>
    <style>
      .cls-1 {
        fill: #fff;
      }

      .cls-2 {
        fill: none;
      }

      .cls-3 {
        fill: #e0e5ea;
      }

      .cls-4 {
        fill: #4a2d2d;
      }
    </style>
  </defs>
  <g id="COLOR">
    <g>
      <g>
        <g>
          <path class="cls-4" d="M73.45,19.44c-4.76-2.53-9.78-3.14-15.03-3.77-6.78-.81-13.63-.63-20.35.57-2.47.44-4.94,1.08-7.21,2.17-1.66.79-4.88,2.48-5.42,4.47-.19.68-.02,1.31.34,1.89-.23,3.63.25,7.42.43,11.05.18,3.72.54,7.43.97,11.12.83,7.18,1.96,14.34,3.44,21.41,1.36,6.49,2.53,13.91,6.61,19.35,1.76,2.35,4.07,3.64,6.94,4.19,2.29.44,4.8.89,7.22.83,2.41.05,4.91-.39,7.18-.83,2.87-.56,5.18-1.84,6.94-4.19,4.08-5.44,5.25-12.86,6.61-19.35,1.48-7.07,2.61-14.24,3.44-21.41.43-3.7.79-7.41.97-11.12.18-3.62.65-7.4.43-11.02,1.49-2.49-1.47-4.27-3.51-5.35ZM28.1,21.56c2.19-2.13,5.44-2.71,8.31-3.38,3.42-.8,6.89-1.29,10.4-1.5,6.95-.42,14.02.15,20.79,1.82,1.7.42,9.61,2.75,6.85,5.65-.08.08-.16.16-.25.23-.42.33-.94.54-1.45.71-2.94,1.01-6.11,1.55-9.18,2.02-4.88.74-9.71.63-14.62.75-2.49-.06-4.97-.25-7.44-.5-2.64-.27-5.26-.64-7.86-1.21-1.72-.38-8.73-1.47-5.53-4.57ZM73.63,44.73c-.81,6.57-1.97,13.09-3.35,19.56-1.34,6.31-2.37,13.01-5.18,18.87-1.31,2.73-2.98,5.06-6.01,5.93-4.81,1.38-10.3,1.31-15.14.08-3.2-.82-4.94-3.15-6.32-6.01-2.82-5.85-3.84-12.56-5.18-18.87-1.37-6.47-2.53-12.99-3.35-19.56-.4-3.21-.71-6.44-.98-9.67-.24-2.78-.16-5.6-.29-8.39.36.23.7.43,1.01.59,2.6,1.4,5.61,2.01,8.5,2.46,6.61,1.02,13.27.79,19.93.64,3.92-.09,7.84-.44,11.67-1.35,1.96-.46,4.19-1.05,5.96-2.21-.11,2.62-.04,5.26-.25,7.88-.28,3.35-.6,6.7-1.01,10.04Z"/>
          <path class="cls-3" d="M70.56,42.72c0-1.39-1.72-2.42-2.98-3.09-3.61-1.94-7.04-2.41-11.03-2.89-5.15-.62-9.97-.49-15.07.44-1.88.34-3.75.83-5.48,1.66-1.26.61-3.7,1.9-4.12,3.43-.1.35-.07.69.05,1.01-.04.08-.06.17-.05.27.76,7.53,1.89,15.12,3.63,22.49.87,3.67,1.55,7.29,2.88,10.81,1.05,2.78,2.06,5.95,4.63,7.67,3.73,2.51,10.44,2.58,14.58,1,2.83-1.08,4.29-3.15,5.44-5.88,1.5-3.58,2.3-7.29,3.23-11.06,2.06-8.37,3.33-17.06,4.33-25.62.01-.09,0-.16-.03-.23Z"/>
          <path class="cls-1" d="M67.72,39.35c-3.64-2.03-7.1-2.52-11.12-3.02-5.19-.65-10.05-.51-15.2.46-1.89.36-3.78.87-5.52,1.74-1.27.64-3.74,1.99-4.15,3.58-.42,1.6,1.48,2.89,2.6,3.52,1.99,1.12,4.3,1.61,6.51,1.97,5.06.82,9.78.63,14.88.52,3.01-.07,5.62-.36,8.55-1.08,2.08-.51,4.56-1.2,5.94-3.07,1.6-2.17-.84-3.69-2.48-4.61ZM68.28,43.31c-.32.27-.72.43-1.11.57-2.25.81-4.68,1.24-7.03,1.62-3.74.59-6.66.5-10.42.6-1.91-.05-3.81-.2-5.7-.4-2.02-.22-4.03-.51-6.02-.97-1.31-.3-6.68-1.18-4.24-3.66,1.68-1.71,4.17-2.17,6.36-2.7,2.62-.64,5.28-1.04,7.96-1.2,5.32-.34,9.96.12,15.14,1.46,1.3.34,7.36,2.2,5.25,4.53-.06.07-.13.13-.19.18Z"/>
        </g>
        <path class="cls-1" d="M36.28,50.59c-1.15.87-.69,2.3-.62,3.59.09,1.53.05,3.26.84,4.62.44.76,1.6.79,2.04,0,.92-1.66.55-3.8.09-5.56-.18-.69-.98-3.7-2.36-2.65h0Z"/>
        <path class="cls-1" d="M37.68,62.52c.03.08.05.16.07.24.01.05.02.11.03.16.02.09.02.11,0,.04-.01-.07-.01-.06,0,.04,0,.07.02.13.03.2.02.14.02.16,0,.05,0,.05.01.11.01.16.02.31.17.57.46.69.25.11.63.08.82-.16.34-.42.56-.88.64-1.42.05-.38.03-.77-.28-1.06-.21-.19-.47-.32-.76-.32-.67,0-1.26.7-1.04,1.37h0Z"/>
        <path class="cls-1" d="M59.77,79.89c.21-.65.41-1.44.16-2.11-.18-.5-.74-.82-1.24-.51-.69.43-1.02,1.23-1.28,1.97-.22.61.24,1.37.85,1.51.67.15,1.29-.2,1.5-.86h0Z"/>
      </g>
      <rect class="cls-2" width="100" height="100"/>
    </g>
  </g>
</svg>