<?xml version="1.0" encoding="UTF-8"?>
<svg id="Capa_2" data-name="Capa 2" xmlns="http://www.w3.org/2000/svg" viewBox="0 0 100 100">
  <defs>
    <style>
      .cls-1 {
        fill: #42ade1;
      }

      .cls-2 {
        fill: #fff;
      }

      .cls-3 {
        fill: none;
      }

      .cls-4 {
        fill: #e0e5ea;
      }

      .cls-5 {
        fill: #4a2d2d;
      }
    </style>
  </defs>
  <g id="COLOR">
    <g>
      <g>
        <g>
          <path class="cls-4" d="M19.34,94.39s-.23-64.47.23-66.02c.46-1.55,8.43-12.74,8.68-13.65.25-.92-2.07-9.33,5.69-10.86,7.76-1.53,38.27-1.17,40.27,1.38,2,2.55,1.66,10.07,1.66,10.07,0,0,8.9,9.14,8.99,11.42.09,2.28-1,64.56-1.64,65.47-.64.91-16.94,4.33-18.39,4.51-1.46.18-45.3-1.59-45.48-2.32Z"/>
          <path class="cls-1" d="M19.57,28.37c-.19.66-.26,12.69-.28,26.3,1.54-.23,3.96-.16,5.83,1.84,3.01,3.19,4.83,12.66,9.93,12.57,5.1-.09,5.65-6.74,11.84-8.01s10.56,5.74,18.03,7.28c7.47,1.55,10.29-.91,13.02-5.19,2.73-4.28,3.1-7.19,5.19-8.29.43-.23.87-.42,1.3-.59.28-13.91.47-26.55.43-27.55-.09-2.28-8.99-11.42-8.99-11.42,0,0,.34-7.52-1.66-10.07s-32.51-2.91-40.27-1.38c-7.76,1.53-5.44,9.94-5.69,10.86-.25.92-8.22,12.11-8.68,13.65Z"/>
          <path class="cls-4" d="M70.47,39.3c1.68-.51,3.35-1.05,5.04-1.56.83-.25,1.66-.48,2.49-.71.43-.12.87-.23,1.29-.36.39-.13.81-.22,1.15-.44.26-.17.14-.52-.15-.55-.4-.04-.83.08-1.23.15-.44.08-.87.2-1.31.32-.86.23-1.73.48-2.58.74-1.69.51-3.34,1.09-4.97,1.78-.36.15-.1.74.27.63h0Z"/>
          <path class="cls-4" d="M70.51,43.18c1.72-.58,3.47-1.1,5.21-1.61.87-.26,1.75-.49,2.63-.73.71-.2,1.74-.33,2.3-.84.11-.1.05-.29-.09-.33-.73-.2-1.72.19-2.43.37-.88.23-1.75.5-2.62.76-1.74.54-3.45,1.17-5.15,1.83-.34.13-.2.68.15.56h0Z"/>
          <path class="cls-4" d="M70.33,47.37c1.72-.58,3.47-1.1,5.21-1.61.87-.26,1.75-.49,2.63-.73.71-.2,1.74-.33,2.3-.84.11-.1.05-.29-.09-.33-.73-.2-1.72.19-2.43.37-.88.23-1.75.5-2.62.76-1.74.54-3.45,1.17-5.15,1.83-.34.13-.2.68.15.56h0Z"/>
          <path class="cls-4" d="M70.33,51.38c1.11-.36,2.23-.68,3.34-1.03.55-.17,1.1-.32,1.64-.5.26-.09.53-.17.79-.28.23-.1.52-.17.63-.42.05-.1.03-.2-.07-.27-.2-.14-.44-.08-.67-.04-.28.05-.56.12-.84.2-.57.15-1.13.35-1.7.54-1.11.37-2.2.8-3.28,1.24-.33.14-.21.67.15.56h0Z"/>
          <path class="cls-4" d="M55.47,18.31c.07-.2.27-5.05-1.64-6.15-1.91-1.09-8.06-1.43-11.27-.55-3.21.89-4.3,3.28-4.64,5.81-.34,2.53.75,6.15,2.32,6.97,1.57.82,8.33.82,11.13,0,2.8-.82,3.48-1.64,3.82-2.94s.27-3.14.27-3.14Z"/>
          <path class="cls-4" d="M50.62,56.1s.46-4.1,4.14-7.33c3.69-3.23,6.33-1.64,6.42-.18.09,1.46-2.09,2.6-4.05,3.51-1.96.91-5.05,2.6-5.65,3.32-.59.73-.87.68-.87.68Z"/>
          <path class="cls-4" d="M45.34,55.73s.64-5.87,1.78-9.33c1.14-3.46,1.82-7.38-.41-7.83-2.23-.46-3.19,4.37-3.37,7.74-.18,3.37,1.14,9.29,1.59,9.65s.41-.23.41-.23Z"/>
          <path class="cls-4" d="M38.1,57.56s1.55-4.55-.91-10.2c-2.46-5.65-6.88-6.97-8.24-4.64-1.37,2.32,3.32,5.46,4.96,6.69,1.64,1.23,2.91,3.64,3.41,5.42s.59,2.78.59,2.78l.18-.05Z"/>
        </g>
        <path class="cls-2" d="M43.89,23.2c-.08-.77-.29-1.52-.41-2.28-.12-.72-.14-1.5-.59-2.11-.27-.36-.8-.52-1.15-.15-1.25,1.35-.5,3.94.5,5.22.5.64,1.72.12,1.64-.68h0Z"/>
        <path class="cls-2" d="M47.05,22.86c-.21-.99-.47-1.95-.94-2.85-.42-.81-1.49-.34-1.57.42-.1,1.03.05,2.04.22,3.05.11.63.88.99,1.46.83.65-.18.96-.83.83-1.46h0Z"/>
        <path class="cls-2" d="M49.5,15.69c.09-.06.2-.11.27-.2.09-.09.16-.19.2-.31.06-.12.09-.24.08-.37l-.03-.26c-.05-.16-.13-.31-.25-.43-.07-.09-.17-.14-.27-.2-.31-.19-.72-.18-1.04,0s-.51.52-.51.89.2.7.51.89.72.19,1.04,0h0Z"/>
        <path class="cls-2" d="M21.21,59.36c-.3,1.64.05,3.34.03,4.99,0,.81,1.12,1.12,1.52.41.95-1.66,1.46-3.95.24-5.64-.44-.61-1.64-.68-1.8.24h0Z"/>
        <path class="cls-2" d="M21.06,68.8c.07.38.17.84.39,1.17.29.44.89.44,1.18,0,.22-.33.32-.78.39-1.17.06-.35.02-.73-.26-.98-.2-.18-.44-.3-.71-.3-.26,0-.53.11-.71.3-.27.27-.33.62-.26.98h0Z"/>
        <path class="cls-2" d="M69.55,74.06c.32.99.44,2.01.6,3.03.12.73,1.17.61,1.36,0,.36-1.16.23-2.39-.12-3.54s-2.21-.67-1.84.51h0Z"/>
        <path class="cls-5" d="M84.56,26.01c-2.41-.43-5.55.81-7.89,1.33-2.86.63-5.73,1.25-8.56,1.99.37-.64.68-1.32,1.03-1.97.73-1.35,1.47-2.69,2.22-4.03,1.51-2.64,3.32-5.21,4.51-8.02.21-.5-.21-1.09-.67-1.03-.06-.37-.32-.7-.8-.71-6.24-.14-12.5-.05-18.74-.05-.04-.1-.07-.19-.12-.3-.74-1.58-2.74-2.07-4.3-2.34-3.27-.56-10.1-.6-12.75,2.52-3.09-.07-6.29-.25-9.31.23-.51.08-.51.94,0,1.02,2.75.44,5.64.34,8.46.29-.04.12-.09.23-.12.36-.05.24-.07.46-.07.68-.05.07-.09.15-.09.26-.07,2.24-.01,6.15,1.58,7.99,1.59,1.84,5.43,1.67,7.63,1.69,2.79.02,5.94-.44,8.19-2.23.89-.71,1.14-1.4,1.26-2.51.18-1.79.3-3.85.06-5.63-.02-.17-.11-.32-.23-.43,6.11.11,12.24.28,18.33.16-1.74,2.16-3.1,4.67-4.46,7.07-1.18,2.08-3.09,4.6-3.68,7.04-.09.07-.17.15-.22.27-7.47-.43-14.95-.58-22.43-.82-4.57-.14-9.13-.29-13.7-.4-3.14-.08-6.34-.3-9.48-.04-.87.07-.87,1.27,0,1.35,7.67.66,15.48.51,23.17.75,7.45.23,14.97.73,22.42.36.06,2.07-.12,4.2-.18,6.25-.15,5.08-.27,10.15-.41,15.23-.31,11.4-.64,22.79-.83,34.19-.05,2.85,0,7.17.03,10.02,0,.79,1.25.8,1.24,0-.03-2.36.19-6.23.32-8.58.28-5.07.36-10.16.5-15.23.32-11.39.69-22.79.84-34.19.03-2.44.21-4.97.1-7.43,3.13-.61,6.23-1.43,9.34-2.15,1.39-.32,2.78-.63,4.17-.93,1.25-.27,2.68-.36,3.79-1.02.38-.23.36-.93-.13-1.02ZM40.26,13.95c2.97-2.24,8.38-2.14,11.83-1.28.56.14,1.6.32,1.96.87,1.25,1.92-1.03,2.81-2.19,3.21-1.67.58-3.45.92-5.21,1.04-1.56.1-3.12.02-4.67-.2-.53-.08-1.3-.1-1.79-.37-1.99-1.1-1.04-2.43.07-3.28ZM53.74,21.99c-1.56,1.98-4.8,2.32-7.18,2.34-2.07.02-6.27.25-7.09-1.98-.5-1.35-.58-2.84-.8-4.28,2.19,1.42,6.69,1.3,8.34,1.16,1.65-.14,5.5-.74,7.54-2.3-.03,1.79.21,3.76-.81,5.06Z"/>
      </g>
      <rect class="cls-3" width="100" height="100"/>
    </g>
  </g>
</svg>