<?xml version="1.0" encoding="UTF-8"?>
<svg id="Capa_2" data-name="Capa 2" xmlns="http://www.w3.org/2000/svg" viewBox="0 0 100 100">
  <defs>
    <style>
      .cls-1 {
        fill: none;
      }

      .cls-2 {
        fill: #4a2d2d;
      }

      .cls-3 {
        fill: #fad78a;
      }
    </style>
  </defs>
  <g id="COLOR">
    <g>
      <g>
        <path class="cls-3" d="M5.22,49.16c1.52-1.06,58.26-21.24,64.33-21.7s11.68,3.64,17.3,8.35c5.61,4.7,6.52,6.52,6.83,10.92.3,4.4,1.06,26.25-.46,28.07-1.52,1.82-10.92,1.52-16.99,1.97-6.07.46-63.88,4.7-66,5.01s-3.64.91-3.94-1.21c-.3-2.12-2.58-30.35-1.06-31.41Z"/>
        <path class="cls-2" d="M5.98,50.76c23.74-2.26,47.57-3.55,71.34-5.39,5.14-.4,10.3-.75,15.4-1.49,1.09-.16.82-1.95-.26-1.92-10.72.32-21.44,1.43-32.14,2.24-13.08.98-26.17,2-39.23,3.24-5.12.49-10.25.97-15.34,1.66-.93.13-.72,1.74.22,1.65h0Z"/>
        <path class="cls-2" d="M71.59,32.86c.1.12.19.24.29.35s.21.22.31.33c.04.05.09.09.15.12.07.03.14.03.2,0,.06-.02.1-.05.13-.11.05-.1.05-.2,0-.3-.04-.07-.09-.13-.13-.19l-.13-.19c-.1-.15-.21-.28-.31-.42-.03-.05-.07-.09-.12-.12l-.08-.03c-.1-.03-.21,0-.28.06-.07.05-.11.12-.12.21-.01.11.02.19.09.27h0Z"/>
        <path class="cls-2" d="M77.43,37.91c.1.06.21.13.31.2.01,0,.02.02.03.02-.06-.04-.03-.02-.02-.01.02.02.05.04.07.06.05.04.09.08.14.12.18.16.34.34.49.53.03.04.06.07.1.09.07.04.09.02.16.04.03,0-.06-.02-.03,0,.06.04.17.04.22,0,.08-.04.09-.13.1-.21,0-.01,0-.02,0-.03,0-.06,0,.05,0,.02h0s.01-.09,0-.13c0-.05-.02-.1-.05-.14-.13-.22-.32-.42-.51-.59-.22-.2-.45-.37-.71-.52-.14-.08-.35-.04-.43.11-.08.15-.04.34.11.43h0Z"/>
        <path class="cls-2" d="M64.68,38.86l.47.53.23.26s.07.09.12.13c.06.05.14.12.21.13.12.02.26-.05.25-.19,0-.15-.12-.28-.22-.39l-.24-.28c-.16-.18-.31-.36-.47-.55-.09-.1-.27-.09-.35,0-.1.11-.09.25,0,.35h0Z"/>
        <path class="cls-2" d="M67.64,38.49c.2.17.38.35.54.55.02.02.04.05.06.07.03.04,0,.01,0-.01,0,.01.02.03.03.04.05.07.1.14.16.2.05.05.09.09.14.14.04.04.08.08.13.1.03.01.07.02.1.03.1.03.22-.03.25-.14,0-.02.01-.04.02-.07.01-.07,0-.13-.02-.2-.03-.08-.06-.16-.1-.23-.06-.14-.17-.26-.27-.37-.17-.2-.36-.39-.57-.55-.07-.06-.14-.09-.23-.09-.08,0-.17.03-.23.09-.11.12-.14.34,0,.45h0Z"/>
        <path class="cls-2" d="M45.91,38.46s.03.07.04.11c.03.08.07.14.13.2.02.03.03.03,0,0l.03.06.04.08c.07.14.13.28.22.42.09.15.21.32.36.41.06.04.09.06.14.11.06.06.11.11.18.16.08.06.21-.02.2-.12,0-.08-.03-.16-.05-.24-.02-.07-.02-.09-.03-.16,0-.05,0-.11-.02-.17-.01-.04-.03-.07-.05-.11-.04-.09-.07-.18-.12-.26-.07-.14-.16-.26-.25-.38l-.06-.09-.04-.05s.01.03,0,0c-.02-.08-.06-.14-.11-.21-.02-.03-.05-.06-.08-.09-.09-.11-.28-.12-.39-.05s-.2.23-.15.37h0Z"/>
        <path class="cls-2" d="M54.36,41.82c.07.2.15.39.22.59.02.05.03.09.05.14.02.06.05.11.09.17.01.01.02.03.04.04.08.09.17.22.3.18.15-.04.14-.22.15-.35s-.03-.22-.06-.33c-.06-.2-.13-.4-.19-.59-.05-.15-.22-.27-.38-.22-.15.05-.28.22-.22.38h0Z"/>
        <path class="cls-2" d="M34.26,43.08c.09.13.19.26.28.39.06.08.12.17.19.25.1.1.2.24.36.23.14,0,.25-.09.29-.22.02-.08.01-.18-.03-.25,0-.02-.02-.03-.03-.05l-.07-.1c-.06-.09-.13-.17-.2-.24l-.32-.36c-.05-.05-.14-.09-.21-.09s-.13.02-.18.06c-.11.08-.16.26-.08.39h0Z"/>
        <path class="cls-2" d="M41.42,43.22c.13.21.26.42.39.63l.19.31c.04.06.07.13.12.18s.12.08.17.12.14.03.2-.01c.06-.05.07-.11.06-.19s-.01-.15-.05-.22c-.03-.05-.06-.1-.09-.14l-.19-.31c-.13-.21-.26-.41-.39-.62-.07-.11-.22-.16-.34-.09s-.16.22-.09.34h0Z"/>
        <path class="cls-2" d="M27.23,45.6c.17.11.35.23.53.34.05.03.12.02.16-.02s.05-.11.02-.16c-.11-.18-.22-.35-.34-.53-.05-.08-.13-.14-.23-.13-.07,0-.14.03-.19.08-.05.05-.08.12-.08.19,0,.1.05.18.13.23h0Z"/>
        <path class="cls-2" d="M59.91,35.69s-.04-.08-.07-.12c-.04-.06-.08-.1-.13-.15-.07-.06-.13-.13-.2-.19-.05-.04-.1-.08-.15-.11-.04-.03-.09-.06-.13-.08-.03-.02-.06-.02-.09-.02h-.01s0,0-.01,0l.07.02s-.05-.02-.06-.03l-.13-.06s-.1-.02-.14.02-.04.09-.02.14l.05.12s.02.04.03.06c0,.02,0,0,0-.03,0-.03-.01-.04,0-.03,0,.02,0,.06,0,.08.02.06.06.11.09.16.03.06.07.11.11.16.06.07.12.14.18.2.05.05.09.1.15.14.04.03.08.05.12.08.1.06.25.04.33-.04s.11-.22.04-.33h0Z"/>
      </g>
      <rect class="cls-1" width="100" height="100"/>
    </g>
  </g>
</svg>