<?xml version="1.0" encoding="UTF-8"?>
<svg id="Capa_2" data-name="Capa 2" xmlns="http://www.w3.org/2000/svg" viewBox="0 0 100 100">
  <defs>
    <style>
      .cls-1 {
        fill: none;
      }

      .cls-2 {
        fill: #4a2d2d;
      }

      .cls-3 {
        fill: #6f6d3c;
      }

      .cls-4 {
        fill: #fce5b3;
      }
    </style>
  </defs>
  <g id="COLOR">
    <g>
      <g>
        <g>
          <path class="cls-4" d="M8.79,45.57s14.72-8.25,35.49-16.6c20.77-8.35,24.32-8.56,30.69-3.86,6.37,4.7,18.06,16.07,17.95,32.36-.1,16.28-4.91,20.04-8.98,21.5s-73.58,5.22-73.79,4.38c-.21-.83-1.36-23.9-1.57-28.18-.21-4.28-1.25-9.18.21-9.6Z"/>
          <path class="cls-2" d="M9.52,46.68c20.64-2.66,41.24-5.42,61.93-7.59,4.88-.51,9.83-.82,14.69-1.49,1.26-.17.96-2.3-.3-2.22-9.8.65-19.63,2.27-29.38,3.42-11.27,1.33-22.54,2.62-33.79,4.09-4.47.58-8.97,1.13-13.39,2.02-.98.2-.77,1.9.24,1.77h0Z"/>
        </g>
        <path class="cls-3" d="M11.36,50.22c-.68.26-1.45.75-1.38,1.47,2.15,1,5.15-.43,6.85,1.22.29.28.51.64.87.82.35.18.76.16,1.15.13,2.66-.21,5.25-.89,7.9-1.21,4.82-.58,9.75.05,14.52-.81-.22-.73-1.13-.95-1.88-1.04-1.78-.22-3.56-.44-5.34-.67-3-.37-6.08-.75-9.02-.06-1.32.3-2.68.85-4.05.77-1.31-.08-2.01-.96-3.18-1.34-1.89-.61-4.65.04-6.44.71Z"/>
        <path class="cls-3" d="M50.82,54.73c-.25,0-.51.02-.73.14-.27.16-.42.46-.62.71-.77.96-2.2.95-3.44.96-2.95.02-8.26,1.07-8.59,1.86,1.04.93,9.2.46,13.69-.47,2.79-.58,5.52-1.56,8.37-1.78,1.05-.08,2.15-.07,3.06-.59.13-.08.27-.17.32-.32.12-.38-.41-.61-.81-.65-3.78-.38-7.48.04-11.25.14Z"/>
        <path class="cls-3" d="M75.4,42.83c-.84.01-1.81.09-2.3.77-.24.33-.32.75-.57,1.06-.39.5-1.08.62-1.71.71-3.93.57-7.86,1.13-11.79,1.7-.48.07-1.11.36-.96.82,1.23.48,2.57.51,3.89.53,4.03.05,8.06.02,12.09-.1.95-.03,2.04-.13,2.61-.9.26-.36.38-.82.71-1.11.29-.26.7-.33,1.08-.4,2.52-.43,5.05-.86,7.57-1.29.46-.08,1.07-.44.84-.85-.08-.14-.25-.21-.4-.26-3.5-1.27-7.41-.73-11.05-.69Z"/>
        <path class="cls-3" d="M82.39,58.26c-1.8.05-3.8.17-5.07,1.46-.41.41-.72.93-1.19,1.27-.66.47-1.53.51-2.34.54-5.93.19-11.85.63-17.75,1.32-1.04.12-2.33.49-2.46,1.53.76.35,1.64.37,2.48.37,5.87.02,11.73-.14,17.59-.47,1.21-.07,2.43-.15,3.58-.51,1.29-.4,2.45-1.15,3.74-1.55,1.51-.47,8.28.11,8.34-1.89.08-2.93-5.44-2.11-6.91-2.07Z"/>
        <path class="cls-3" d="M38.4,63.63c-.94-.11-2.03-.35-2.42-1.21-.21-.46-.22-1.09-.68-1.32-.17-.09-.37-.09-.56-.1-4.27-.09-8.54.03-12.8.36-.57.05-1.17.1-1.67.39s-.86.89-.69,1.44c3.91.2,7.83.4,11.74.61.84.04,1.82.16,2.28.87.18.28.26.62.51.84.23.2.55.24.85.27,3.89.4,7.82.36,11.7-.12.48-.06,1.06-.21,1.18-.69.41-1.74-3.2-1.13-3.88-1.11-1.86.05-3.72-.02-5.57-.23Z"/>
        <path class="cls-3" d="M24.74,74.52c.56-.12,1.23-.36,1.33-.93.07-.38-.15-.79.03-1.13.15-.29.52-.38.84-.43,8.11-1.35,16.41-1.49,24.56-.44.44.06,1.01.27.96.71-.04.36-.48.52-.84.58-3.03.51-6.12.44-9.2.36-3.15-.08-6.3-.16-9.45-.23-1.26-.03-2.71.02-3.5,1-.29.36-.45.81-.72,1.19-.76,1.11-2.2,1.49-3.53,1.75-3.82.75-7.71,1.2-11.6,1.34-.73.03-1.66-.1-1.85-.8-.54-2.03,4.14-1.85,5.06-1.9,2.66-.14,5.3-.5,7.9-1.08Z"/>
        <path class="cls-3" d="M69.81,71.16c5.23-.68,10.49-1.15,15.75-1.42.62-.03,1.47.16,1.43.77,0,.18-.11.35-.22.49-.71.91-1.94,1.19-3.08,1.35-2.33.34-4.7.42-7.05.5-2.76.1-5.68.49-8.43.3-.82-.06-1.65-.14-1.16-1.14.42-.88,1.99-.76,2.77-.86Z"/>
        <path class="cls-3" d="M53.13,30.42c-.27.12-.6.38-.47.65.07.14.25.2.4.24.94.21,1.91.25,2.87.13.57-.08,1.23-.18,1.63.23.18.18.26.43.45.61.34.32.87.28,1.33.21,2.88-.43,5.74-.98,8.6-1.52.39-.08.81-.16,1.12-.41.31-.25.49-.73.27-1.07-.25-.39-.81-.38-1.26-.32-1.54.18-3.08.36-4.62.54-.37.04-.76.08-1.08-.1-.32-.18-.48-.67-.21-.92-3.12-.42-6.17.5-9.02,1.74Z"/>
        <path class="cls-3" d="M32.52,37.19c1.68.4,3.41-.23,5.11-.54,2.65-.48,5.46-.19,7.97-1.17.22-.09.49-.26.43-.5-.03-.13-.16-.22-.28-.29-.51-.27-1.12-.36-1.69-.24-.27.06-.54.16-.82.13-.19-.02-.36-.11-.54-.18-.77-.3-1.63-.29-2.45-.18-2.44.34-5.82,1.39-7.73,2.96Z"/>
      </g>
      <rect class="cls-1" width="100" height="100"/>
    </g>
  </g>
</svg>