<?xml version="1.0" encoding="UTF-8"?>
<svg id="Capa_2" data-name="Capa 2" xmlns="http://www.w3.org/2000/svg" viewBox="0 0 100 100">
  <defs>
    <style>
      .cls-1 {
        fill: #42ade1;
      }

      .cls-2 {
        fill: #fff;
      }

      .cls-3 {
        fill: none;
      }

      .cls-4 {
        fill: #e0e5ea;
      }

      .cls-5 {
        fill: #4a2d2d;
      }
    </style>
  </defs>
  <g id="COLOR">
    <g>
      <g>
        <g>
          <path class="cls-1" d="M83.4,74.12c-8.22,12.4-34.37,15.23-53.64,8.9-17.79-5.85-21.34-23.41-19.45-32.01.16-.72.35-1.37.58-1.96.14-.36.33-.71.55-1.05,4.31-6.62,22.67-7.76,30.32-8.25,16.58-1.06,38.82,2.56,44.21,6.47.67.49,1.26,1.09,1.76,1.8.64.9,1.15,1.97,1.5,3.18,1.61,5.52.08,14.01-5.82,22.92Z"/>
          <path class="cls-5" d="M89.22,51.2c-1.56,2.99-4.86,4.73-7.94,5.76-14.28,4.77-30.33,3.97-45.13,3.16-6.82-.37-13.74-1.04-19.99-3.99-2.39-1.13-4.61-2.77-5.85-5.12.16-.72.35-1.37.58-1.96.14-.36.33-.71.55-1.05.28,1.65,1.17,3.17,2.75,4.38,2.46,1.88,5.73,2.8,8.72,3.45,5.66,1.23,11.5,1.37,17.25,1.63,6.34.29,12.68.48,19.02.24,6.09-.23,12.22-.82,18.17-2.22,2.76-.65,5.68-1.29,7.93-3.13,1.37-1.12,2.37-2.71,2.46-4.34.64.9,1.15,1.97,1.5,3.18Z"/>
        </g>
        <path class="cls-4" d="M22.9,55.84c5.66,1.23,11.5,1.37,17.25,1.63,6.34.29,12.68.48,19.02.24,6.09-.23,12.22-.82,18.17-2.22,2.76-.65,5.68-1.29,7.93-3.13.28-.23.54-.48.78-.74.59-2.34.87-4.64.57-6.59-.89-5.77-5.07-5.47-5.07-5.47,0,0-.5-5.07-6.66-8.55-6.16-3.48-18.19,0-24.95,1.49-6.76,1.49-8.75-1.69-9.54-2.98-.8-1.29-1.09-1.39-3.68-.1-2.58,1.29-4.97,4.37-4.97,4.37,0,0-1.19-.4-5.47,1.39-4.27,1.79-5.57,5.67-5.57,5.67,0,0-5.77,1.89-5.77,7.56,0,1.83.84,3.77,1.97,5.56,1.91.87,4.02,1.43,6,1.86Z"/>
        <path class="cls-5" d="M38.57,29.22c.39,6.4,6.77,11.49,12.17,13.82,5.44,2.35,14.82,4.24,19.49-.64.57-.6-.15-1.55-.88-1.14-5.5,3.1-12.4,2.28-18.02-.16-2.61-1.13-5.04-2.69-7.04-4.72-2.16-2.19-3.18-4.54-4.25-7.36-.28-.73-1.52-.7-1.46.2h0Z"/>
        <path class="cls-5" d="M31.18,34.31c-3.09,4.82-.62,11,3.38,14.48,4.78,4.17,11.65,5.26,17.81,5.14.75-.01.99-1.23.19-1.37-5.28-.88-10.66-1.27-15.28-4.28-4.64-3.03-6.78-8.13-4.93-13.49.24-.7-.78-1.07-1.16-.49h0Z"/>
        <path class="cls-5" d="M19.97,41.12c-.82,4.08.54,10.19,4.63,12.22.56.28,1.42-.35.96-.96-1.24-1.67-2.68-3-3.45-5-.75-1.95-.88-4-.61-6.05.12-.87-1.37-1.07-1.54-.21h0Z"/>
        <path class="cls-5" d="M68.41,52.42c2.92-.78,5.59-1.78,8.03-3.61,1.82-1.36,4.77-3.63,5.12-5.99.11-.76-.64-1.2-1.24-.72-.96.75-1.47,1.92-2.26,2.84-.95,1.11-2.1,1.99-3.31,2.81-2.09,1.42-4.45,2.68-6.77,3.67-.59.25-.16,1.17.43,1.01h0Z"/>
        <path class="cls-2" d="M55.86,37.88c2.36.24,10.37,1.19,10.24-3.01-.02-.67-.65-1.2-1.32-1.01-1.2.35-2.11,1.26-3.35,1.63-1.8.54-3.69.73-5.57.71-1.1-.01-1.05,1.57,0,1.68h0Z"/>
        <path class="cls-2" d="M74.62,37.53c.04-.07.09-.14.13-.22s.09-.18.11-.26.03-.2.04-.29c0-.04,0-.07,0-.11.02-.56-.59-1.04-1.13-.86-.03.01-.06.02-.1.03-.05.02-.1.04-.15.06-.08.02-.16.07-.22.13-.05.03-.08.06-.12.1-.06.06-.11.12-.17.18-.19.2-.29.45-.3.72,0,.18.05.36.14.51.06.12.15.21.26.29.1.09.21.15.35.18.14.04.27.05.41.02.14,0,.26-.05.38-.12.15-.09.28-.21.37-.37h0Z"/>
        <path class="cls-2" d="M35.28,35.3c-.3,2.75.28,6.14,2.68,7.86.55.39,1.46-.27,1.2-.92-.97-2.35-2.2-4.28-2.09-6.94.05-1.17-1.67-1.12-1.79,0h0Z"/>
        <path class="cls-2" d="M47.41,47.49c.08,0,.16.02.24.03.14,0,.28-.03.42-.06.3-.07.52-.36.56-.65.02-.14,0-.27-.05-.41-.07-.17-.17-.27-.32-.37-.12-.09-.22-.15-.37-.19-.08-.02-.16-.04-.24-.07-.51-.15-1.03.22-1.1.73-.03.24.02.46.17.65.06.1.14.17.25.23.14.08.28.12.44.12h0Z"/>
        <path class="cls-2" d="M25.56,45.83c.73,2.85,2.92,6.24,6.09,6.71.74.11,1.44-.74.79-1.36-.92-.88-1.95-1.57-2.83-2.51-.91-.97-1.68-2.11-2.16-3.36-.45-1.15-2.21-.73-1.89.52h0Z"/>
        <path class="cls-2" d="M74.78,54.41c1.67-.34,3.65-.98,4.67-2.44.39-.56-.26-1.37-.89-1.16-1.48.49-2.72,1.48-4.24,1.93-1.08.32-.63,1.9.46,1.68h0Z"/>
      </g>
      <rect class="cls-3" width="100" height="100"/>
    </g>
  </g>
</svg>