<?xml version="1.0" encoding="UTF-8"?>
<svg id="Capa_2" data-name="Capa 2" xmlns="http://www.w3.org/2000/svg" viewBox="0 0 100 100">
  <defs>
    <style>
      .cls-1 {
        fill: #fff;
      }

      .cls-2 {
        fill: none;
      }

      .cls-3 {
        fill: #e09d3e;
      }

      .cls-4 {
        fill: #fad380;
      }

      .cls-5 {
        fill: #4a2d2d;
      }
    </style>
  </defs>
  <g id="COLOR">
    <g>
      <g>
        <path class="cls-3" d="M7.36,45.55s-1.3-.6,1.9-2.2c3.2-1.6,11.3-6.6,28.39-13.99,17.09-7.4,25.59-11.79,32.29-9.5,6.7,2.3,11.63,9.74,13.39,12.39,2.4,3.6,4.1,8.6,3.8,8.5s-2.4-7.9-16.69-6.6c-14.29,1.3-63.07,11.4-63.07,11.4Z"/>
        <path class="cls-4" d="M7.36,45.55s1.5,16.39,2.7,16.89,10-2.9,12.89,3.2-3.7,10.8-7.3,11.89c-3.6,1.1-4.7.2-4.7,1.2s-1.1,8.3,0,8.9c1.1.6,44.08-.4,48.68-.6,4.6-.2,6-.9,6-1.7s.4-9.2,5.7-8.5c5.3.7,3.1,7.2,4.3,8.2s8,1.3,13.39-13.99,0-28.49-1.5-31.19c-1.5-2.7-4.2-5.8-9.3-6.9s-29.19,3.5-35.58,4.7c-6.4,1.2-35.28,7.9-35.28,7.9Z"/>
        <path class="cls-5" d="M56.36,64.66c-1.38-.07-2.82.49-3.92,1.3-3.08,2.27-3.56,8.24.91,9.17,3.05.63,6.9-.64,7.88-3.85.93-3.05-1.78-6.46-4.87-6.61Z"/>
        <path class="cls-5" d="M37.33,46.81c-3.36,1.08-5.04,4.89-4.45,8.22.2,1.1.73,2.18,1.63,2.85,2.09,1.56,5.46.93,7.56-.29,2.35-1.37,3.43-4.21,2.83-6.82-.75-3.28-4.51-4.94-7.58-3.96Z"/>
        <path class="cls-5" d="M72.22,42.1c-1.32.06-2.59.84-3.47,1.79-1.81,1.94-1.6,5.81,1.07,6.9,1.29.53,2.88.5,4.14-.11,3.65-1.75,2.63-8.77-1.74-8.58Z"/>
        <path class="cls-1" d="M75.18,59c-.13-.1-.26-.2-.38-.3-.3-.17-.62-.26-.96-.26-.26,0-.51.04-.73.16-.24.08-.44.21-.61.39-.19.17-.32.38-.39.61-.12.23-.17.47-.16.73.02.17.05.34.07.5.09.32.25.6.49.84.13.1.26.2.38.3.3.17.62.26.96.26.26,0,.51-.04.73-.16.24-.08.44-.21.61-.39.19-.17.32-.38.39-.61.12-.23.17-.47.16-.73-.02-.17-.05-.34-.07-.5-.09-.32-.25-.6-.49-.84Z"/>
        <path class="cls-1" d="M56.31,53.89c.09.07.18.14.27.21.21.12.43.18.67.18.18,0,.35-.03.51-.11.16-.05.31-.15.43-.27.13-.12.22-.26.27-.43.08-.16.12-.33.11-.51-.02-.12-.03-.24-.05-.35-.06-.23-.18-.42-.34-.59-.09-.07-.18-.14-.27-.21-.21-.12-.43-.18-.67-.18-.18,0-.35.03-.51.11-.16.05-.31.15-.43.27-.13.12-.22.26-.27.43-.08.16-.12.33-.11.51l.05.35c.06.23.18.42.34.59Z"/>
        <path class="cls-1" d="M37.93,71.56c-.15-.15-.34-.26-.55-.32-.22-.06-.44-.06-.66,0-.21.06-.39.17-.55.32-.08.09-.18.2-.23.29-.04.1-.08.19-.12.29-.02.11-.04.22-.04.34,0,.21.05.41.16.6.11.18.25.32.43.43.16.11.29.13.47.15.1.01.14.02.22.02.22,0,.43-.06.63-.17.19-.11.33-.26.45-.44.11-.19.17-.4.17-.63,0-.17-.03-.33-.11-.48-.05-.15-.14-.29-.26-.4Z"/>
        <path class="cls-1" d="M23.45,50.71c-1.33,0-1.33,2.06,0,2.06s1.33-2.06,0-2.06Z"/>
        <path class="cls-5" d="M7.77,46.1c12.96-3.28,26.03-6.21,39.18-8.64,6.74-1.24,13.5-2.53,20.32-3.17,6.2-.57,16.04-1.78,19.56,4.65.56,1.03.82.64.4-.5-2.1-5.74-8.49-6.78-13.76-6.69-7.57.13-15.08,1.46-22.51,2.79-14.69,2.64-29.24,6.01-43.6,10.04-.97.27-.56,1.76.42,1.51h0Z"/>
      </g>
      <rect class="cls-2" width="100" height="100"/>
    </g>
  </g>
</svg>