<?xml version="1.0" encoding="UTF-8"?>
<svg id="Capa_2" data-name="Capa 2" xmlns="http://www.w3.org/2000/svg" viewBox="0 0 100 100">
  <defs>
    <style>
      .cls-1 {
        fill: none;
      }

      .cls-2 {
        fill: #e09d3e;
      }

      .cls-3 {
        fill: #fad380;
      }

      .cls-4 {
        fill: #4a2d2d;
      }
    </style>
  </defs>
  <g id="COLOR">
    <g>
      <rect class="cls-1" width="100" height="100"/>
      <g>
        <g>
          <path class="cls-2" d="M5.07,44.43s-1.39-.64,2.04-2.36c3.43-1.71,12.11-7.07,30.44-15.01,18.33-7.93,27.44-12.65,34.62-10.18,7.18,2.47,12.47,10.45,14.36,13.29,2.57,3.86,4.39,9.22,4.07,9.11s-2.57-8.47-17.9-7.07c-15.33,1.39-67.63,12.22-67.63,12.22Z"/>
          <path class="cls-3" d="M5.07,44.43s2.68,44.48,3.86,45.12c1.18.64,56.25-.46,67.08-1.95,6.91-.95,10.85.56,16.63-15.84,5.79-16.4,0-30.55-1.61-33.44-1.61-2.89-4.5-6.22-9.97-7.4-5.47-1.18-31.3,3.75-38.16,5.04-6.86,1.29-37.84,8.47-37.84,8.47Z"/>
          <path class="cls-4" d="M5.51,45.03c13.9-3.52,27.91-6.66,42.01-9.27,7.22-1.33,14.47-2.72,21.79-3.39,6.64-.61,17.2-1.91,20.97,4.99.6,1.1.88.69.43-.54-2.25-6.15-9.11-7.28-14.76-7.18-8.11.14-16.17,1.56-24.13,2.99-15.75,2.83-31.35,6.44-46.76,10.77-1.04.29-.6,1.89.45,1.62h0Z"/>
        </g>
        <path class="cls-2" d="M65.04,48.58c1.3.01,1.3-2.01,0-2.01-1.3,0-1.3,2.01,0,2.01Z"/>
        <path class="cls-2" d="M76.95,45.44c1.84-.34,1.83-3.02,0-3.37-2.84-.7-2.84,4.07,0,3.37Z"/>
        <path class="cls-2" d="M82.81,56.73c1.57,1.98,4.57-.52,2.8-2.36-1.49-2.11-4.62.53-2.8,2.36h0Z"/>
        <path class="cls-2" d="M70.07,64.32c2.55-1.76-1.91-4.31-2.19-1.26,0,1.07,1.25,1.86,2.19,1.26h0Z"/>
        <path class="cls-2" d="M48.84,65.37c1.45.02,1.45-2.26,0-2.24-1.45-.02-1.45,2.26,0,2.24Z"/>
        <path class="cls-2" d="M51.7,46.91c1.61.01,1.61-2.49,0-2.49-1.61-.01-1.61,2.49,0,2.49Z"/>
        <path class="cls-2" d="M79.82,76.87c1.84.03,1.84-2.86,0-2.84-1.84-.03-1.84,2.86,0,2.84Z"/>
        <path class="cls-2" d="M61.23,80.01c1.27.02,1.27-1.98,0-1.96-1.27-.02-1.27,1.98,0,1.96Z"/>
        <path class="cls-2" d="M41.37,79.27c-.13,1.23,1.65,1.69,2,.46.56-1.54-1.93-2.11-2-.46h0Z"/>
        <path class="cls-2" d="M26.73,56.58c1.3-.64.11-2.49-1.05-1.8-1.18.66-.1,2.5,1.05,1.8h0Z"/>
      </g>
    </g>
  </g>
</svg>