<?xml version="1.0" encoding="UTF-8"?>
<svg id="Capa_2" data-name="Capa 2" xmlns="http://www.w3.org/2000/svg" viewBox="0 0 100 100">
  <defs>
    <style>
      .cls-1 {
        fill: #fdebc4;
      }

      .cls-2 {
        fill: #42ade1;
      }

      .cls-3 {
        fill: none;
      }

      .cls-4 {
        fill: #4a2d2d;
      }

      .cls-5 {
        fill: #b3a7a7;
      }
    </style>
  </defs>
  <g id="COLOR">
    <g>
      <g>
        <g>
          <path class="cls-5" d="M59.19,27.41c-5,1.34-14.38,2.94-19.6,7.11-5.23,4.17-8.49,9.88-4.17,13.97,4.33,4.08,14.26,3.61,20.99-2.61,3.27-3.02,5.36-11.32,9.56-17.23,5.39-7.6,21.73-11.84,26.14-17.23,4.41-5.39,2.53-9.72-1.96-9.07-4.49.65-13.64,9.39-18.87,14.62-5.23,5.23-9.69,9.81-12.09,10.46Z"/>
          <path class="cls-1" d="M35.46,43.46s.41-9.23,1.8-14.13c1.39-4.9,3.68-8.49,8.58-7.51,4.9.98,10.46,5.47,11.35,7.27s.9,7.68-1.88,11.44c-2.78,3.76-9.23,6.29-11.76,6.45-2.53.16-7.19-.57-8.09-3.51Z"/>
          <path class="cls-4" d="M35.23,40.11c-1,3.54.88,6.06,4.24,7.07,3.36,1.01,7.13-.07,10.15-1.63,3.33-1.72,6.35-4.25,7.97-7.69,1.42-3.02,2.13-7.1-.4-9.75-.58-.6-1.3-.16-.87.56,3.31,5.47-1.57,12.12-6.19,15.04-2.36,1.49-5.06,2.45-7.88,2.43-1.43-.01-3.02-.26-4.3-.92-1.88-.97-2.43-3.64-2.14-5.6.07-.48-.46,0-.6.49h0Z"/>
          <path class="cls-4" d="M47.22,33.8c.17,0,.34-.03.49-.11.16-.05.29-.14.41-.26.12-.11.21-.25.26-.41.08-.15.12-.31.11-.49l-.05-.34c-.06-.21-.17-.4-.33-.56l-.26-.2c-.2-.11-.41-.17-.64-.17-.17,0-.34.03-.49.11-.16.05-.29.14-.41.26-.12.11-.21.25-.26.41-.08.15-.12.31-.11.49l.05.34c.06.21.17.4.33.56l.26.2c.2.11.41.17.64.17h0Z"/>
          <path class="cls-4" d="M50.47,30.12c.16,0,.3-.03.44-.1.14-.05.26-.12.37-.23.11-.1.19-.22.23-.37.07-.14.1-.28.1-.44l-.04-.3c-.05-.19-.15-.36-.29-.5l-.23-.18c-.18-.1-.37-.15-.57-.16-.16,0-.3.03-.44.1-.14.05-.26.12-.37.23-.11.1-.19.22-.23.37-.07.14-.1.28-.1.44l.04.3c.05.19.15.36.29.5l.23.18c.18.1.37.15.57.16h0Z"/>
          <path class="cls-4" d="M51.61,34.46c-.18.3-.24.65-.13,1l.12.28c.07.14.18.25.3.33.07.07.16.12.26.15.14.07.29.11.46.1l.31-.04.28-.12c.14-.07.25-.18.33-.3.1-.11.18-.25.21-.4.1-.34.05-.69-.13-1-.21-.35-.59-.58-1.01-.58s-.8.22-1.01.58h0Z"/>
        </g>
        <g>
          <path class="cls-2" d="M71.92,85.44c-7.48,11.27-31.24,13.84-48.76,8.09-16.17-5.31-19.4-21.28-17.68-29.1.14-.65.32-1.25.53-1.78.13-.33.3-.65.5-.95,3.92-6.02,20.61-7.06,27.56-7.5,15.07-.96,35.29,2.33,40.19,5.88.61.44,1.15.99,1.6,1.64.58.82,1.04,1.79,1.36,2.89,1.46,5.02.07,12.74-5.29,20.83Z"/>
          <path class="cls-4" d="M77.22,64.6c-1.42,2.72-4.42,4.3-7.22,5.24-12.98,4.34-27.57,3.61-41.03,2.87-6.2-.34-12.49-.94-18.18-3.63-2.18-1.03-4.19-2.51-5.32-4.65.14-.65.32-1.25.53-1.78.13-.33.3-.65.5-.95.26,1.5,1.06,2.88,2.5,3.98,2.23,1.71,5.21,2.54,7.92,3.14,5.14,1.12,10.45,1.24,15.68,1.48,5.76.26,11.52.43,17.29.22,5.54-.21,11.11-.75,16.51-2.02,2.51-.59,5.16-1.18,7.2-2.85,1.25-1.02,2.15-2.46,2.24-3.95.58.82,1.04,1.79,1.36,2.89Z"/>
        </g>
        <path class="cls-1" d="M16.93,68.82c5.14,1.12,10.45,1.24,15.68,1.48,5.76.26,11.52.43,17.29.22,5.54-.21,11.11-.75,16.51-2.02,1.91-.45,3.91-.9,5.65-1.82-4.72-3.01-13.98-4.48-35.05-4.28-14.34.14-22,2.49-25.97,4.51,1.85.91,3.94,1.47,5.89,1.9Z"/>
      </g>
      <rect class="cls-3" width="100" height="100"/>
    </g>
  </g>
</svg>