<?xml version="1.0" encoding="UTF-8"?>
<svg id="Capa_2" data-name="Capa 2" xmlns="http://www.w3.org/2000/svg" viewBox="0 0 100 100">
  <defs>
    <style>
      .cls-1 {
        fill: #42ade1;
      }

      .cls-2 {
        fill: #fff;
      }

      .cls-3 {
        fill: none;
      }

      .cls-4 {
        fill: #e0e5ea;
      }

      .cls-5 {
        fill: #4a2d2d;
      }
    </style>
  </defs>
  <g id="COLOR">
    <g>
      <g>
        <g>
          <path class="cls-1" d="M83.32,80.8c-7.9,11.91-33.03,14.63-51.56,8.55-17.1-5.62-20.51-22.5-18.7-30.76.15-.69.34-1.32.56-1.88.14-.35.31-.68.52-1.01,4.14-6.36,21.79-7.46,29.14-7.93,15.93-1.02,37.31,2.46,42.49,6.22.65.47,1.21,1.05,1.69,1.73.62.87,1.1,1.89,1.44,3.06,1.54,5.31.08,13.47-5.6,22.03Z"/>
          <path class="cls-5" d="M88.92,58.78c-1.5,2.87-4.67,4.55-7.63,5.54-13.72,4.59-29.15,3.81-43.38,3.04-6.56-.36-13.2-.99-19.22-3.84-2.3-1.08-4.43-2.66-5.63-4.92.15-.69.34-1.32.56-1.88.14-.35.31-.68.52-1.01.27,1.59,1.12,3.04,2.64,4.21,2.36,1.81,5.51,2.69,8.38,3.32,5.44,1.19,11.05,1.31,16.58,1.57,6.09.28,12.18.46,18.28.23,5.86-.22,11.74-.79,17.46-2.13,2.65-.62,5.46-1.24,7.62-3.01,1.32-1.08,2.27-2.6,2.37-4.17.62.87,1.1,1.89,1.44,3.06Z"/>
        </g>
        <path class="cls-4" d="M25.17,63.23c5.44,1.19,11.05,1.31,16.58,1.57,6.09.28,12.18.46,18.28.23,5.86-.22,11.74-.79,17.46-2.13,2.43-.57,4.98-1.14,7.05-2.58.61-2.94.82-5.85.11-7.58-1.9-4.66-4.66-5.27-4.66-5.27,0,0,1.12-1.55-1.04-4.49-2.36-3.21-5.1-2.85-5.1-2.85,0,0,.6-1.21-.86-3.8-1.47-2.59-4.4-2.94-4.4-2.94,0,0,1.21-3.8-2.59-6.91-3.84-3.14-9.5-2.25-14.85-4.75-5.35-2.5-3.63-8.2-4.06-8.72-.43-.52-4.32,1.64-7.43,5.44s-3.28,7.94-3.28,7.94c0,0-1.97.64-5.01,4.23-3.8,4.49-4.66,8.38-4.66,8.38,0,0-3.02,1.9-4.06,3.02-1.04,1.12-3.89,5.1-4.49,11.66-.26,2.85.55,5.6,1.72,7.97,1.71.72,3.55,1.2,5.29,1.58Z"/>
        <path class="cls-5" d="M26.6,40.99c-1.35,7.83,4.92,13.88,11.66,16.55s16.75,2.18,22.14-3.68c.54-.59-.17-1.65-.89-1.16-2.8,1.89-5.53,3.49-8.9,4.09-3.42.62-6.9.28-10.22-.7-6.48-1.91-13.56-7.12-12.44-14.73.13-.87-1.2-1.27-1.35-.37h0Z"/>
        <path class="cls-5" d="M79.13,48.69c.03,3.52-1.9,7.01-5.52,7.81-.57.13-.32.96.24.87,4.36-.7,7.58-4.32,6.52-8.84-.16-.7-1.25-.54-1.24.17h0Z"/>
        <path class="cls-5" d="M72.65,40.19c-.27,1.43-.41,2.77-1.07,4.1s-1.68,2.27-2.68,3.31c-.51.53.13,1.32.77.99,2.67-1.38,4.81-5.19,4.45-8.2-.09-.76-1.29-1.1-1.46-.2h0Z"/>
        <path class="cls-5" d="M36.19,26.97c-1.24,7.18,4.79,13.85,11.43,15.51,3.76.94,7.89.59,11.49-.78,3.36-1.28,7.16-3.6,8.82-6.92.41-.81-.66-1.78-1.33-1.02-2.26,2.57-4.48,4.63-7.74,5.88-3.2,1.22-6.71,1.65-10.09.99-6.72-1.31-10.99-6.73-11.15-13.46-.02-.8-1.3-1.05-1.45-.2h0Z"/>
        <path class="cls-2" d="M44.12,18.61c-.55,4.11.64,8.34,3.35,11.51,2.48,2.89,6.88,5.62,10.84,5.11.8-.1,1.13-1.28.21-1.52-3.65-.95-6.97-1.6-9.57-4.63-2.52-2.92-3.59-6.66-3.32-10.48.07-.99-1.38-.93-1.51,0h0Z"/>
        <path class="cls-2" d="M34.25,36.35c.83,3.79,3.15,7.29,6.25,9.61,3.22,2.42,8.24,4.17,12.2,2.7.81-.3.67-1.42-.2-1.49-3.92-.33-7.4-.37-10.79-2.7-3.02-2.07-4.84-5.1-5.79-8.58-.29-1.07-1.89-.62-1.66.46h0Z"/>
        <path class="cls-2" d="M61.62,46.94c3.09-.6,5.56-2.93,7.01-5.65.31-.58-.42-1.16-.91-.7-2.01,1.9-3.73,4.14-6.5,4.91-.93.26-.54,1.62.4,1.44h0Z"/>
        <path class="cls-2" d="M23.12,50.91c2.12,4.99,6.83,10.7,12.81,10.33.77-.05.97-1.15.19-1.37-2.49-.7-4.78-1.78-6.7-3.53-1.97-1.8-3.4-4.06-5-6.17-.58-.77-1.66-.13-1.29.75h0Z"/>
        <path class="cls-2" d="M45.36,63.05c.68.04,1.29.05,1.97-.06.61-.1.5-.97,0-1.13-.65-.21-1.29-.26-1.97-.32-.41-.04-.75.37-.75.75,0,.43.35.73.75.75h0Z"/>
        <path class="cls-2" d="M66.41,61.69c3.04.99,6.24,1.41,9.31.3.66-.24.62-1.34-.18-1.3-2.96.13-5.84.3-8.74-.41-.92-.23-1.28,1.12-.39,1.41h0Z"/>
      </g>
      <rect class="cls-3" width="100" height="100"/>
    </g>
  </g>
</svg>