<?xml version="1.0" encoding="UTF-8"?>
<svg id="Capa_2" data-name="Capa 2" xmlns="http://www.w3.org/2000/svg" viewBox="0 0 100 100">
  <defs>
    <style>
      .cls-1 {
        fill: #42ade1;
      }

      .cls-2 {
        fill: #fff;
      }

      .cls-3 {
        fill: none;
      }

      .cls-4 {
        fill: #e0e5ea;
      }

      .cls-5 {
        fill: #4a2d2d;
      }

      .cls-6 {
        fill: #b3a7a7;
      }
    </style>
  </defs>
  <g id="COLOR">
    <g>
      <g>
        <g>
          <path class="cls-1" d="M21.12,54.95c-7.12,2.89-4.58,7.52-3.74,12.94.84,5.43,2.77,22.99,10.13,27.21,7.36,4.22,19.9,2.65,24.24,1.09,4.34-1.57,6.51-3.14,9.04-11.09s6.03-22.31,5.67-25.93-5.77-4.82-9.53-5.31c-12.18-1.57-28.7-1.81-35.82,1.09Z"/>
          <path class="cls-4" d="M28.84,64.46c4.89.5,9.78.81,14.7.63,2.53-.09,5.08-.22,7.62-.49-.08-.06-.16-.11-.24-.17-3.14-2.17-2.73-4.5-2.81-5.79-.08-1.29-4.66-2.89-16.48-.8-6.14,1.09-9.79,2.78-11.89,4.19,2.59,1.73,5.88,2.1,9.11,2.43Z"/>
          <path class="cls-2" d="M46.94,57.82c-2.6.88-5.44,5.17-5.19,7.9.05.58.85.91,1.17.32.68-1.27,1.03-2.65,1.84-3.88.82-1.24,1.93-2.07,2.85-3.19.4-.49.04-1.4-.68-1.16h0Z"/>
          <path class="cls-5" d="M15.96,60.55c1.69,3.7,6.6,4.82,10.19,5.53,5.49,1.09,11.09,1.46,16.69,1.3,4.36-.13,8.78-.37,13.04-1.35,3.54-.81,8.61-2.18,10.82-5.33.53-.75-.48-1.58-1.19-1.19-1.67.9-3.05,2.17-4.82,2.94-1.71.75-3.53,1.24-5.36,1.57-3.88.7-7.86.92-11.79,1.07-4.92.18-9.81-.12-14.7-.63-4.33-.45-8.77-.95-11.48-4.72-.61-.85-1.83-.13-1.39.81h0Z"/>
        </g>
        <g>
          <path class="cls-6" d="M58.1,26.13c-4.92,1.32-14.15,2.89-19.3,6.99-5.15,4.1-8.36,9.73-4.1,13.75,4.26,4.02,14.03,3.56,20.66-2.57,3.22-2.97,5.27-11.14,9.41-16.96,5.31-7.48,21.39-11.66,25.73-16.96,4.34-5.31,2.49-9.57-1.93-8.92-4.42.64-13.43,9.25-18.57,14.39-5.15,5.15-9.54,9.66-11.9,10.29Z"/>
          <path class="cls-4" d="M34.96,39.97s-.39-3.62.49-6.35c.88-2.73,3.8-3.43,5.33-4.63,1.53-1.21,2.81-3.62,5.95-3.7s8.12,0,9.33,2.17c1.21,2.17,1.21,8.12-2.17,11.66-3.38,3.54-9.17,6.35-12.46,6.27-3.3-.08-5.39-1.37-6.11-2.57s-.35-2.84-.35-2.84Z"/>
          <path class="cls-5" d="M34.52,38.63c-.99,3.48.86,5.96,4.18,6.96s7.02-.07,9.99-1.6c3.27-1.7,6.25-4.19,7.85-7.57,1.4-2.97,2.09-6.99-.39-9.59-.57-.59-1.02-.1-.59.6,3.25,5.38-1.81,11.88-6.35,14.75-2.32,1.47-4.98,2.41-7.75,2.39-1.41-.01-2.97-.25-4.23-.91-1.85-.95-2.25-2.9-1.96-4.83.07-.47-.6-.69-.73-.2h0Z"/>
          <path class="cls-2" d="M41.22,40.19c2.42,1.08,4.68-.1,6.75-1.44,1.81-1.17,4.17-2.9,4.25-5.26.02-.61-.8-.95-1.22-.51-1.23,1.31-2.04,2.72-3.56,3.78-1.53,1.07-3.62,2.54-5.53,1.8-.93-.36-1.6,1.21-.68,1.62h0Z"/>
          <path class="cls-2" d="M47.25,33.12c.17-.18.35-.36.51-.56.07-.09.15-.17.22-.26.15-.18.23-.34.31-.56.19-.48-.39-1.06-.87-.87-.2.08-.36.16-.53.29-.1.08-.19.16-.29.24-.19.16-.38.34-.56.51-.32.31-.33.9,0,1.2s.87.34,1.2,0h0Z"/>
        </g>
      </g>
      <rect class="cls-3" width="100" height="100"/>
    </g>
  </g>
</svg>