<?xml version="1.0" encoding="UTF-8"?>
<svg id="Capa_2" data-name="Capa 2" xmlns="http://www.w3.org/2000/svg" viewBox="0 0 100 100">
  <defs>
    <style>
      .cls-1 {
        fill: #fff;
      }

      .cls-2 {
        fill: #fdc733;
      }

      .cls-3 {
        fill: none;
      }

      .cls-4 {
        fill: #4a2d2d;
      }

      .cls-5 {
        fill: #faae55;
      }
    </style>
  </defs>
  <g id="COLOR">
    <g>
      <rect class="cls-3" width="100" height="100"/>
      <g>
        <g>
          <g>
            <path class="cls-5" d="M44.98,20.7c-.87-2.53-1.89-5.45-4.19-6.79-1.67-.97-4.21-.84-6.14-.9-3.03-.1-6.26,1.14-8.24,3.47-3.7,4.35-3.67,11.66.6,15.63,4.45,4.14,11.47,2.9,13.5,2.02,1.83-.79,2.19-2.75,3.22-4.4.68-1.1,1.19-2.26,1.48-3.47.44-1.81.41-3.7-.23-5.56ZM39,26.9c-.05.08-.11.16-.17.24-.16.22-.33.44-.52.65-.37.41-.79.76-1.24,1.04-1.03.65-2.24.91-3.53.62-1.58-.36-2.99-1.46-3.68-2.94-1.23-2.67-.15-6.53,2.86-7.41,3.01-.89,6.18.69,7.1,3.73.42,1.39-.05,2.91-.84,4.07Z"/>
            <path class="cls-2" d="M47.89,20.7c-.87-2.53-2.71-4.66-5.01-6-1.67-.97-3.57-1.53-5.5-1.6-3.03-.1-6.08,1.03-8.06,3.37-3.7,4.35-3.7,11.7.6,15.63,4.3,3.93,10.39,2.79,12.39,1.85,2.29-1.08,3.34-2.41,4.37-4.06.68-1.1,1.14-2.43,1.44-3.64.44-1.81.41-3.7-.23-5.56ZM41.92,26.9c-.05.08-.11.16-.17.24-.16.22-.33.44-.52.65-.37.41-.79.76-1.24,1.04-1.03.65-2.24.91-3.53.62-1.58-.36-2.99-1.46-3.68-2.94-1.23-2.67-.15-6.53,2.86-7.41,3.01-.89,6.18.69,7.1,3.73.42,1.39-.05,2.91-.84,4.07Z"/>
            <path class="cls-4" d="M42.75,22.83c-.92-3.05-4.09-4.62-7.1-3.73-3.01.89-4.09,4.75-2.86,7.41.68,1.48,2.09,2.58,3.68,2.94,1.28.29,2.49.02,3.53-.62.45-.28.86-.63,1.24-1.04.19-.2.36-.42.52-.65.06-.08.11-.16.17-.24.79-1.16,1.25-2.68.84-4.07ZM38.67,28.36s-.05.02-.07.03c-.7.25-1.47.33-2.2.15-1.82-.46-3.08-2.43-3.13-4.24-.03-1.37.52-2.77,1.58-3.66.02-.02.04-.04.06-.05,2.45-1.94,6.44-.34,6.96,2.73.04.21.05.43.05.65-.02,1.98-1.45,3.71-3.26,4.39Z"/>
          </g>
          <g>
            <path class="cls-5" d="M13.56,45.34c-1.55,2.18-3.33,4.72-3.07,7.37.18,1.92,1.78,3.91,2.85,5.51,1.68,2.52,4.57,4.42,7.63,4.67,5.69.47,11.61-3.83,12.34-9.61.76-6.03-4.34-11.01-6.24-12.15-1.71-1.03-3.51-.18-5.45-.05-1.29.09-2.53.36-3.68.82-1.73.7-3.24,1.83-4.38,3.43ZM22.08,46.58c.1,0,.19,0,.29,0,.28,0,.55.01.83.04.55.06,1.08.2,1.57.4,1.13.46,2.05,1.29,2.56,2.5.64,1.49.56,3.28-.24,4.7-1.44,2.56-5.21,3.93-7.69,2.01-2.48-1.93-3.05-5.42-1.11-7.95.88-1.15,2.39-1.66,3.79-1.69Z"/>
            <path class="cls-2" d="M11.86,42.98c-1.55,2.18-2.2,4.92-1.95,7.57.18,1.92.84,3.79,1.91,5.4,1.68,2.52,4.39,4.33,7.44,4.58,5.69.47,11.66-3.82,12.34-9.61.68-5.79-3.79-10.07-5.73-11.15-2.21-1.23-3.9-1.31-5.85-1.18-1.29.09-2.64.49-3.79.95-1.73.7-3.24,1.83-4.38,3.43ZM20.38,44.22c.1,0,.19,0,.29,0,.28,0,.55.01.83.04.55.06,1.08.2,1.57.4,1.13.46,2.05,1.29,2.56,2.5.64,1.49.56,3.28-.24,4.7-1.44,2.56-5.21,3.93-7.69,2.01-2.48-1.93-3.05-5.42-1.11-7.95.88-1.15,2.39-1.66,3.79-1.69Z"/>
            <path class="cls-4" d="M16.59,45.91c-1.94,2.53-1.37,6.02,1.11,7.95,2.48,1.93,6.24.55,7.69-2.01.8-1.42.88-3.21.24-4.7-.51-1.21-1.43-2.04-2.56-2.5-.49-.2-1.02-.33-1.57-.4-.27-.03-.55-.04-.83-.04-.1,0-.19,0-.29,0-1.4.04-2.91.54-3.79,1.69ZM23.46,45.99s.04.03.06.04c.61.42,1.13,1.01,1.4,1.7.69,1.74-.18,3.92-1.62,5.01-1.09.83-2.55,1.2-3.89.85-.03,0-.05-.01-.08-.02-3.01-.86-4.04-5.03-1.84-7.24.15-.15.32-.29.5-.42,1.62-1.14,3.86-.99,5.47.08Z"/>
          </g>
          <g>
            <path class="cls-5" d="M46.18,38.24c-2.62.52-5.66,1.15-7.29,3.25-1.18,1.52-1.39,4.06-1.71,5.96-.51,2.99.29,6.35,2.34,8.63,3.82,4.25,11.07,5.19,15.57,1.48,4.69-3.86,4.4-10.98,3.8-13.12-.54-1.92-2.43-2.54-3.93-3.78-1-.82-2.09-1.48-3.24-1.93-1.73-.68-3.61-.89-5.54-.51ZM51.53,44.98c.07.06.14.13.21.2.2.19.39.39.57.6.36.43.65.88.87,1.36.5,1.11.6,2.35.15,3.58-.56,1.52-1.85,2.77-3.4,3.25-2.81.87-6.49-.72-6.97-3.82-.48-3.1,1.5-6.04,4.65-6.54,1.43-.23,2.87.43,3.92,1.37Z"/>
            <path class="cls-2" d="M46.57,35.35c-2.62.52-4.98,2.07-6.61,4.17-1.18,1.52-1.99,3.33-2.31,5.24-.51,2.99.22,6.16,2.26,8.44,3.82,4.25,11.1,5.22,15.57,1.48,4.47-3.74,4.15-9.92,3.48-12.04-.76-2.41-1.94-3.63-3.44-4.87-1-.82-2.26-1.46-3.41-1.91-1.73-.68-3.61-.89-5.54-.51ZM51.91,42.1c.07.06.14.13.21.2.2.19.39.39.57.6.36.43.65.88.87,1.36.5,1.11.6,2.35.15,3.58-.56,1.52-1.85,2.77-3.4,3.25-2.81.87-6.49-.72-6.97-3.82-.48-3.1,1.5-6.04,4.65-6.54,1.43-.23,2.87.43,3.92,1.37Z"/>
            <path class="cls-4" d="M48,40.73c-3.14.51-5.13,3.44-4.65,6.54.48,3.1,4.16,4.69,6.97,3.82,1.56-.48,2.84-1.73,3.4-3.25.46-1.23.36-2.47-.15-3.58-.22-.48-.51-.94-.87-1.36-.18-.21-.37-.41-.57-.6-.07-.07-.14-.13-.21-.2-1.04-.94-2.49-1.6-3.92-1.37ZM52.93,45.5s.01.05.02.08c.16.73.13,1.51-.15,2.2-.7,1.74-2.82,2.73-4.62,2.53-1.36-.15-2.68-.88-3.41-2.06-.01-.02-.03-.05-.04-.07-1.6-2.69.52-6.43,3.63-6.53.22,0,.44,0,.65.04,1.96.28,3.48,1.93,3.92,3.81Z"/>
          </g>
          <g>
            <path class="cls-5" d="M56.21,19.28c-1.52,2.2-3.27,4.76-2.98,7.41.21,1.92,1.83,3.88,2.92,5.48,1.71,2.5,4.63,4.36,7.69,4.57,5.7.4,11.56-3.98,12.22-9.77.69-6.04-4.48-10.95-6.39-12.07-1.73-1.01-3.51-.13-5.45.02-1.29.1-2.53.39-3.67.87-1.72.72-3.22,1.87-4.34,3.49ZM64.74,20.41c.1,0,.19,0,.29,0,.28,0,.55,0,.83.03.55.06,1.08.18,1.57.37,1.14.45,2.07,1.26,2.6,2.47.65,1.49.6,3.28-.18,4.7-1.41,2.58-5.16,4-7.66,2.1-2.5-1.89-3.12-5.38-1.21-7.93.87-1.16,2.37-1.69,3.77-1.74Z"/>
            <path class="cls-2" d="M54.48,16.94c-1.52,2.2-2.14,4.95-1.85,7.6.21,1.92.89,3.78,1.98,5.37,1.71,2.5,4.44,4.27,7.5,4.49,5.7.4,11.61-3.97,12.22-9.77.61-5.8-3.92-10.02-5.87-11.07-2.22-1.2-3.92-1.26-5.86-1.11-1.29.1-2.64.52-3.78,1-1.72.72-3.22,1.87-4.34,3.49ZM63.01,18.07c.1,0,.19,0,.29,0,.28,0,.55,0,.83.03.55.06,1.08.18,1.57.37,1.14.45,2.07,1.26,2.6,2.47.65,1.49.6,3.28-.18,4.7-1.41,2.58-5.16,4-7.66,2.1-2.5-1.89-3.12-5.38-1.21-7.93.87-1.16,2.37-1.69,3.77-1.74Z"/>
            <path class="cls-4" d="M59.24,19.81c-1.9,2.55-1.29,6.04,1.21,7.93,2.5,1.89,6.25.47,7.66-2.1.78-1.43.84-3.22.18-4.7-.53-1.2-1.46-2.02-2.6-2.47-.49-.19-1.02-.32-1.57-.37-.27-.03-.55-.03-.83-.03-.1,0-.19,0-.29,0-1.4.05-2.9.58-3.77,1.74ZM66.11,19.81s.04.03.07.04c.62.41,1.14.99,1.42,1.68.71,1.73-.13,3.92-1.56,5.03-1.08.84-2.54,1.23-3.88.9-.03,0-.05-.01-.08-.02-3.02-.82-4.1-4.98-1.93-7.22.15-.16.32-.3.49-.43,1.6-1.16,3.85-1.04,5.47.01Z"/>
          </g>
          <g>
            <path class="cls-5" d="M73.75,38.47c-2.68.03-5.77.09-7.76,1.86-1.44,1.28-2.11,3.74-2.77,5.55-1.04,2.84-.88,6.3.72,8.91,2.97,4.87,9.94,7.12,15.04,4.31,5.32-2.94,6.34-9.99,6.14-12.2-.18-1.99-1.92-2.94-3.18-4.43-.83-.99-1.78-1.83-2.83-2.49-1.58-.98-3.39-1.54-5.36-1.52ZM77.77,46.08c.06.08.12.15.17.23.16.22.32.45.45.69.27.48.48.99.61,1.5.29,1.19.17,2.42-.51,3.54-.83,1.39-2.32,2.39-3.94,2.58-2.92.34-6.25-1.89-6.15-5.03.1-3.14,2.58-5.66,5.77-5.58,1.45.03,2.75.95,3.6,2.06Z"/>
            <path class="cls-2" d="M74.66,35.7c-2.68.03-5.27,1.12-7.26,2.89-1.44,1.28-2.57,2.91-3.23,4.72-1.04,2.84-.91,6.1.68,8.71,2.97,4.87,9.96,7.17,15.04,4.31,5.08-2.86,5.9-9,5.63-11.2-.31-2.51-1.24-3.93-2.49-5.42-.83-.99-1.95-1.85-3-2.5-1.58-.98-3.39-1.54-5.36-1.52ZM78.68,43.31c.06.08.12.15.17.23.16.22.32.45.45.69.27.48.48.99.61,1.5.29,1.19.17,2.42-.51,3.54-.83,1.39-2.32,2.39-3.94,2.58-2.92.34-6.25-1.89-6.15-5.03.1-3.14,2.58-5.66,5.77-5.58,1.45.03,2.75.95,3.6,2.06Z"/>
            <path class="cls-4" d="M75.08,41.25c-3.18-.08-5.67,2.45-5.77,5.58-.1,3.13,3.23,5.37,6.15,5.03,1.62-.19,3.11-1.18,3.94-2.58.67-1.13.8-2.36.51-3.54-.13-.51-.33-1.02-.61-1.5-.14-.24-.29-.47-.45-.69-.06-.08-.11-.16-.17-.23-.85-1.11-2.15-2.03-3.6-2.06ZM79.06,46.85s0,.05,0,.08c.02.74-.15,1.5-.55,2.13-1,1.58-3.27,2.17-5.01,1.64-1.31-.4-2.47-1.35-2.98-2.65-.01-.03-.02-.05-.03-.08-1.08-2.94,1.69-6.23,4.77-5.75.22.03.43.09.63.16,1.87.64,3.07,2.54,3.16,4.47Z"/>
          </g>
          <g>
            <path class="cls-5" d="M57.09,72.38c-.94,2.5-2.02,5.41-1.09,7.91.67,1.81,2.72,3.32,4.16,4.6,2.27,2.01,5.55,3.11,8.57,2.57,5.62-1,10.25-6.66,9.49-12.44-.8-6.03-7-9.54-9.13-10.16-1.92-.56-3.44.72-5.28,1.34-1.22.41-2.36.99-3.35,1.73-1.49,1.11-2.67,2.6-3.36,4.44ZM65.64,71.41c.09-.03.19-.05.28-.08.27-.07.54-.13.81-.17.55-.08,1.1-.09,1.62-.02,1.21.16,2.31.73,3.12,1.76,1,1.28,1.38,3.03.97,4.61-.75,2.84-4.04,5.13-6.92,3.9-2.89-1.23-4.33-4.46-3.1-7.4.56-1.34,1.89-2.21,3.23-2.6Z"/>
            <path class="cls-2" d="M54.85,70.53c-.94,2.5-.87,5.32.05,7.82.67,1.81,1.78,3.45,3.22,4.73,2.27,2.01,5.34,3.07,8.36,2.53,5.62-1,10.3-6.67,9.49-12.44-.82-5.77-6.23-8.77-8.38-9.32-2.45-.63-4.11-.27-5.95.35-1.22.41-2.43,1.15-3.42,1.89-1.49,1.11-2.67,2.6-3.36,4.44ZM63.4,69.56c.09-.03.19-.05.28-.08.27-.07.54-.13.81-.17.55-.08,1.1-.09,1.62-.02,1.21.16,2.31.73,3.12,1.76,1,1.28,1.38,3.03.97,4.61-.75,2.84-4.04,5.13-6.92,3.9-2.89-1.23-4.33-4.46-3.1-7.4.56-1.34,1.89-2.21,3.23-2.6Z"/>
            <path class="cls-4" d="M60.16,72.16c-1.23,2.94.22,6.17,3.1,7.4,2.88,1.23,6.18-1.06,6.92-3.9.41-1.58.03-3.32-.97-4.61-.81-1.04-1.9-1.6-3.12-1.76-.52-.07-1.07-.06-1.62.02-.27.04-.54.1-.81.17-.09.02-.19.05-.28.08-1.35.39-2.67,1.27-3.23,2.6ZM66.83,70.49s.05.02.07.03c.7.25,1.35.68,1.79,1.29,1.11,1.51.83,3.84-.29,5.26-.85,1.08-2.16,1.81-3.55,1.81-.03,0-.06,0-.08,0-3.13-.06-5.19-3.84-3.62-6.53.11-.19.23-.37.37-.53,1.27-1.51,3.48-1.94,5.31-1.31Z"/>
          </g>
          <g>
            <path class="cls-5" d="M35.5,64.68c-2.66.3-5.73.66-7.54,2.62-1.31,1.42-1.73,3.93-2.21,5.8-.76,2.93-.25,6.36,1.6,8.8,3.44,4.55,10.59,6.1,15.39,2.8,5-3.45,5.32-10.57,4.9-12.75-.38-1.96-2.21-2.74-3.6-4.09-.92-.9-1.95-1.65-3.06-2.2-1.67-.82-3.52-1.2-5.48-.98ZM40.25,71.86c.07.07.13.14.2.21.18.21.36.42.52.64.32.45.57.94.75,1.43.41,1.15.4,2.39-.15,3.58-.69,1.47-2.07,2.61-3.67,2.95-2.87.63-6.4-1.26-6.62-4.39-.22-3.13,2.01-5.89,5.18-6.13,1.44-.11,2.83.67,3.79,1.7Z"/>
            <path class="cls-2" d="M36.13,61.84c-2.66.3-5.13,1.64-6.94,3.6-1.31,1.42-2.27,3.15-2.75,5.02-.76,2.93-.31,6.16,1.54,8.6,3.44,4.55,10.62,6.14,15.39,2.8,4.77-3.35,4.97-9.54,4.49-11.7-.55-2.47-1.62-3.79-3.02-5.15-.92-.9-2.13-1.64-3.24-2.19-1.67-.82-3.52-1.2-5.48-.98ZM40.88,69.01c.07.07.13.14.2.21.18.21.36.42.52.64.32.45.57.94.75,1.43.41,1.15.4,2.39-.15,3.58-.69,1.47-2.07,2.61-3.67,2.95-2.87.63-6.4-1.26-6.62-4.39-.22-3.13,2.01-5.89,5.18-6.13,1.44-.11,2.83.67,3.79,1.7Z"/>
            <path class="cls-4" d="M37.09,67.32c-3.17.24-5.4,3-5.18,6.13.21,3.13,3.75,5.02,6.62,4.39,1.59-.35,2.97-1.48,3.67-2.95.56-1.19.56-2.43.15-3.58-.18-.5-.43-.98-.75-1.43-.16-.23-.34-.44-.52-.64-.06-.07-.13-.14-.2-.21-.96-1.02-2.34-1.8-3.79-1.7ZM41.61,72.49s0,.05.01.08c.1.74,0,1.51-.33,2.18-.84,1.67-3.04,2.48-4.82,2.13-1.35-.26-2.59-1.1-3.23-2.34-.01-.02-.02-.05-.04-.07-1.37-2.81,1.06-6.36,4.17-6.2.22.01.43.04.65.09,1.93.45,3.31,2.22,3.58,4.13Z"/>
          </g>
          <path class="cls-1" d="M72.28,37.89c-.66.04-1.32.18-1.9.51-.28.15-.58.36-.8.6-.25.28-.32.55-.4.91-.12.56.42.92.91.7.22-.1.43-.15.64-.3.18-.13.35-.27.53-.39.39-.24.77-.4,1.22-.5.85-.17.67-1.58-.21-1.53h0Z"/>
          <path class="cls-1" d="M67.56,41.91c-.1.32-.17.66.02.97.09.15.23.27.39.34.15.07.37.11.53.04.07-.03.15-.06.22-.09.13-.08.23-.18.3-.3.04-.06.06-.12.09-.18.04-.1.08-.2.12-.31.07-.2.02-.49-.09-.67s-.31-.35-.52-.4c-.22-.05-.47-.04-.67.09s-.33.3-.4.52h0Z"/>
          <path class="cls-1" d="M46.26,36.8c-.24-.04-.45-.12-.71-.09-.3.03-.63.1-.89.24-.46.25-.81.75-.9,1.26-.08.51.28.87.79.79.36-.06.73-.15,1.05-.32.3-.16.56-.41.82-.58.47-.3.47-1.18-.17-1.3h0Z"/>
          <path class="cls-1" d="M52.09,53.89c.47.12.91-.01,1.27-.33.19-.17.29-.52.2-.75-.04-.11-.07-.18-.14-.26-.06-.08-.14-.14-.22-.2-.23-.17-.55-.11-.78,0h-.03c.06-.01.12-.04.19-.06-.05.02-.1.04-.16.05l.21-.03c-.09.01-.18,0-.26,0l.22.03s-.04,0-.06-.01c-.42-.11-.91.14-1.01.57-.1.43.13.9.57,1.01h0Z"/>
          <path class="cls-1" d="M34.27,15.49c-.79-.07-1.55.09-2.21.54-.57.39-1.52,1.3-1.2,2.08.13.32.41.48.75.43.45-.07.62-.46.87-.79.46-.59,1.21-1.1,1.92-1.3.55-.16.4-.91-.13-.96h0Z"/>
          <path class="cls-1" d="M29.55,20.03l-.08.3c-.05.2-.05.38,0,.59.1.49.8.67,1.14.3.14-.15.23-.3.28-.5l.08-.3c.1-.37-.12-.81-.51-.9s-.79.12-.9.51h0Z"/>
          <path class="cls-1" d="M57.37,17.14c-.36.27-.72.55-1,.91-.15.19-.21.42-.08.64.11.19.37.31.59.24.42-.14.81-.36,1.18-.6.3-.2.45-.62.25-.94-.18-.28-.64-.48-.94-.25h0Z"/>
          <path class="cls-1" d="M69.2,31.15c.27-.15.49-.34.64-.61.18-.31.23-.73.01-1.04-.15-.21-.38-.33-.64-.26-.16.04-.28.1-.41.21l.08-.06s-.07.05-.11.08c-.06.05-.1.08-.15.14-.11.12-.22.24-.35.34-.14.11-.23.37-.22.54s.06.32.16.46c.23.3.65.38.98.2h0Z"/>
          <path class="cls-1" d="M17.2,41.2c-1.41.05-3.24,1-3.13,2.64.04.51.58.71.96.4.77-.63,1.33-1.37,2.37-1.54.85-.14.65-1.53-.2-1.5h0Z"/>
          <path class="cls-1" d="M12.51,46.58v.22c.02.21.09.41.24.56.14.14.36.24.56.23.45-.02.77-.35.79-.79v-.22c.02-.2-.09-.43-.23-.57s-.37-.24-.57-.24-.42.08-.57.24-.25.35-.24.57h0Z"/>
          <path class="cls-1" d="M26.26,55.11l-.02-.03c.02.14.04.28.05.42v-.04c.03-.09.03-.18,0-.28-.02-.09-.07-.16-.13-.23-.06-.06-.14-.11-.23-.13-.09-.02-.18-.02-.28,0h-.04c.14.02.28.04.42.06-.04-.02-.07-.04-.12-.06-.08-.04-.17-.06-.27-.06-.1,0-.18.02-.27.06-.09.03-.16.08-.22.14l-.11.14c-.05.08-.08.17-.08.26-.02.09-.02.18.01.28.02.09.06.17.12.24.05.08.11.13.19.18l.17.07c.09.03.18.03.28.01.09,0,.18-.03.26-.08l.14-.11c.09-.09.15-.19.18-.31l.02-.18c0-.13-.03-.24-.09-.35h0Z"/>
          <path class="cls-1" d="M34.58,63.77c-.47.16-1.04.37-1.26.87-.19.43-.04.81.4.99.51.2,1.06-.05,1.52-.28.38-.19.51-.71.35-1.08s-.61-.64-1.02-.5h0Z"/>
          <path class="cls-1" d="M30.66,67.54c-.06.14-.13.27-.19.41-.09.18-.1.37,0,.55.09.16.28.28.47.27.14,0,.28-.01.42-.02.29,0,.55-.15.69-.4s.15-.56,0-.81-.41-.4-.69-.4c-.26,0-.58.15-.69.4h0Z"/>
          <path class="cls-1" d="M39.95,80.32c.1,0,.19-.02.28-.06.09-.03.17-.08.23-.15.07-.07.12-.14.15-.23.05-.09.07-.18.06-.28l-.03-.19c-.03-.12-.1-.23-.19-.32l-.15-.11c-.11-.07-.23-.1-.36-.1-.1,0-.19.02-.28.06-.09.03-.17.08-.23.15-.07.07-.12.14-.15.23-.05.09-.07.18-.06.28l.03.19c.03.12.1.23.19.32l.15.11c.11.07.23.1.36.1h0Z"/>
          <path class="cls-1" d="M61.18,66.59c-1.2.1-2.35.91-2.27,2.21.02.34.44.7.77.44.38-.29.71-.53,1.01-.9.26-.31.55-.61.85-.87.33-.28.07-.92-.37-.89h0Z"/>
          <path class="cls-1" d="M71.89,80.29c-.05-.08-.11-.16-.17-.23-.07-.08-.15-.13-.25-.16-.09-.05-.19-.07-.3-.07l-.21.03c-.13.04-.25.1-.35.2-.06.07-.12.15-.17.23-.08.13-.11.27-.11.42,0,.15.04.29.11.42.15.25.43.41.72.41s.57-.16.72-.41c.08-.13.11-.27.11-.42,0-.15-.04-.29-.11-.42h0Z"/>
        </g>
        <path class="cls-4" d="M76.65,55.24s.07.03.1.05c.09.04.13.05.23.06.02,0,.04,0,.05,0,.08.01.17.03.25.02h.13c.07-.02.15-.02.21-.04.04-.01.08-.03.12-.04.07-.03.11-.05.17-.1.01-.01.03-.02.04-.03.11-.1.11-.32,0-.41-.01-.01-.03-.02-.04-.03-.07-.06-.08-.06-.17-.1-.04-.01-.08-.03-.12-.04-.07-.02-.14-.02-.21-.03h-.13c-.08-.02-.17,0-.25,0-.02,0-.04,0-.05,0-.1.01-.14.02-.23.06-.03.02-.07.03-.1.05-.1.05-.16.18-.16.29s.06.24.16.29h0Z"/>
        <path class="cls-4" d="M78.11,53.66h.58c.07,0,.14,0,.22-.03.04-.01.09-.02.13-.04s.09-.02.13-.04c.08-.03.13-.07.18-.13.08-.09.08-.2,0-.29-.05-.06-.1-.1-.18-.13-.04-.01-.08-.02-.12-.03-.05-.01-.09-.03-.14-.04-.07-.02-.14-.02-.22-.02h-.58c-.2-.01-.38.17-.38.37s.17.38.38.38h0Z"/>
        <path class="cls-4" d="M45.18,53.76c.15,0,.3.01.45,0,.07,0,.15-.01.22-.02.07,0,.13,0,.2-.02.1-.02.17-.09.24-.16l-.08.06h.02s-.06.01-.09.03l.22-.09c.09-.04.19-.07.26-.14.08-.09.08-.2,0-.29-.07-.08-.17-.1-.26-.14l-.22-.09.09.04h-.02s.05.03.08.05c-.06-.05-.11-.1-.19-.13-.08-.03-.16-.04-.24-.04-.08,0-.16-.02-.23-.02-.15,0-.3,0-.45,0-.25,0-.48.21-.47.47s.21.47.47.47h0Z"/>
        <path class="cls-4" d="M40.55,32.06l.75-.03c.15,0,.3-.03.44-.05.14-.02.26-.07.37-.15.14-.11.14-.28,0-.39-.11-.08-.23-.13-.37-.15-.15-.02-.29-.05-.44-.05l-.75-.03c-.22,0-.43.2-.42.42s.18.43.42.42h0Z"/>
        <path class="cls-4" d="M43.14,30.19h.26s.1-.02.15-.03.09-.04.13-.06c.03-.02.07-.03.1-.06.04-.03.08-.06.1-.1.03-.05.04-.09.04-.15,0-.05-.01-.1-.04-.15-.03-.04-.06-.08-.1-.1-.03-.02-.07-.04-.1-.06-.04-.02-.08-.05-.13-.06-.05-.01-.1-.01-.16-.02h-.26c-.05-.01-.11,0-.15.02-.05.02-.09.04-.13.08-.04.04-.07.08-.08.13-.02.05-.04.1-.03.15,0,.1.04.21.12.28s.17.12.28.12h0Z"/>
        <path class="cls-4" d="M71.45,27.37h.57c.13,0,.29,0,.38-.11.03-.03.06-.07.07-.11.02-.04.03-.08.03-.13v-.09c-.03-.06-.06-.11-.1-.15-.09-.12-.25-.11-.38-.11h-.57c-.09,0-.18.04-.24.1s-.11.16-.1.24c0,.19.15.35.35.35h0Z"/>
        <path class="cls-4" d="M28.16,52.33c.26.02.52.05.78.05.13,0,.25-.01.38-.03.09,0,.17-.03.26-.04.1-.02.17-.06.24-.13.1-.09.1-.27,0-.36-.07-.06-.14-.11-.24-.13-.09-.02-.17-.03-.26-.04-.13-.01-.25-.03-.38-.03-.26,0-.52.03-.78.05-.17.01-.34.14-.33.33s.15.32.33.33h0Z"/>
        <path class="cls-4" d="M29.64,50.87h.11c.07.02.16,0,.23-.03,0,0,.01,0,.02-.01.05-.03.09-.07.13-.13.02-.03.03-.07.04-.11l-.12.16.08-.04c.14-.08.14-.29,0-.37l-.08-.04.12.16s-.02-.07-.04-.11c-.03-.05-.07-.09-.13-.13,0,0-.01-.01-.02-.01-.06-.04-.15-.06-.23-.05h-.11s-.09.02-.14.05c-.04.01-.08.04-.11.07-.03.03-.06.07-.07.11-.02.04-.03.09-.03.14v.09c.03.06.06.11.1.15l.07.05c.05.03.11.05.18.05h0Z"/>
        <path class="cls-4" d="M44.07,77.11h.18s.03,0,.04,0c.06,0,.11-.01.17-.02.01,0,.03,0,.04,0,.06,0,.1-.03.16-.06.15-.09.24-.25.24-.42s-.09-.34-.24-.42c-.05-.03-.1-.05-.15-.06h-.04c-.06-.01-.12-.03-.17-.03h-.04c-.06,0-.12,0-.18,0-.07,0-.13.01-.2.04-.06.02-.12.06-.16.1-.05.05-.08.1-.1.16-.03.06-.05.13-.04.2l.02.13c.02.09.07.16.13.22l.1.08c.08.05.16.07.26.07h0Z"/>
        <path class="cls-4" d="M32.48,80.31c.07.03.15.08.23.09l.2.03.1.02s.03,0,.04,0c.09.01.12.01.22,0,.03,0,.07,0,.1-.02.15-.03.26-.17.26-.32s-.11-.29-.26-.32c-.03,0-.06-.01-.1-.02-.04,0-.07-.01-.11-.01-.04,0-.07,0-.11.01-.01,0-.03,0-.04,0l-.1.02-.19.03c-.08.01-.16.06-.24.09-.07.03-.11.12-.11.2s.04.17.11.2h0Z"/>
        <path class="cls-4" d="M31.22,78.93l.16.03s.05,0,.08.01c.06,0,.12.02.17.02.12,0,.26-.07.32-.18,0-.02.01-.03.02-.05.02-.05.03-.07.03-.14,0-.02,0-.08-.01-.09,0-.03-.02-.06-.04-.09-.06-.11-.19-.19-.32-.18-.06,0-.12.02-.17.02-.03,0-.05,0-.08.01l-.16.03-.07.03s-.07.05-.09.08c-.02.02-.03.04-.04.07-.02.04-.03.08-.03.12v.08s.03.05.04.07c.02.04.05.07.08.09.03.03.07.05.11.06h0Z"/>
        <path class="cls-4" d="M72.93,76.5h.23c.11,0,.23,0,.34-.03.07-.02.14-.06.2-.11.05-.06.09-.12.11-.2.02-.08.02-.16,0-.24-.02-.07-.06-.14-.11-.2-.06-.05-.12-.09-.2-.11-.11-.02-.23-.02-.34-.02h-.23c-.06,0-.12,0-.17.03-.06.02-.1.05-.15.09-.04.04-.08.09-.09.15-.03.05-.04.11-.04.17,0,.12.04.24.13.32s.2.14.32.13h0Z"/>
      </g>
    </g>
  </g>
</svg>