<?xml version="1.0" encoding="UTF-8"?>
<svg id="Capa_2" data-name="Capa 2" xmlns="http://www.w3.org/2000/svg" viewBox="0 0 100 100">
  <defs>
    <style>
      .cls-1 {
        fill: #fff;
      }

      .cls-2 {
        fill: #fdc733;
      }

      .cls-3 {
        fill: none;
      }

      .cls-4 {
        fill: #4a2d2d;
      }
    </style>
  </defs>
  <g id="COLOR">
    <g>
      <rect class="cls-3" width="100" height="100"/>
      <g>
        <g>
          <g>
            <path class="cls-2" d="M74.57,18.99c-.3-2.96-1.2-6.1-3.24-8.35-1.77-1.95-4.65-3.14-7.21-2.35-1.75.24-3.54.87-5.2,1.27-4.1,1-8.19,2.02-12.28,3.04-9.17,2.28-18.33,4.59-27.46,7-2.3.61-4.64,1.19-6.92,1.91-8.59,1.96-9.11,14.39-7.19,21.18,1.02,3.61,3.74,7.11,7.69,7.57,2.29.27,4.71-.56,6.93-1.13,11.56-2.95,22.98-6.5,34.46-9.74,4.41-1.24,8.85-2.53,13.18-4.04.11-.04.21-.07.32-.11.23-.08.46-.16.69-.24.2-.07.35-.19.45-.33,4.68-2.86,6.27-10.94,5.78-15.69Z"/>
            <path class="cls-4" d="M20.23,34.49c-.45-3.31-1.99-7.88-5.26-9.39-3.71-1.71-6.04,1.85-6.88,5-1.3,4.88-.93,20.38,7.96,16.66,3.78-1.58,4.56-6.12,4.41-9.78-.03-.8-.1-1.64-.22-2.5Z"/>
          </g>
          <g>
            <path class="cls-2" d="M91.23,31.86c-2.12-2.08-4.82-3.93-7.82-4.36-2.61-.37-5.58.55-7.05,2.8-1.2,1.3-2.17,2.93-3.19,4.3-2.51,3.39-5.01,6.78-7.51,10.18-5.6,7.61-11.18,15.23-16.67,22.92-1.38,1.94-2.81,3.88-4.11,5.88-5.36,7,2.18,16.89,7.99,20.89,3.09,2.13,7.42,3.09,10.76.92,1.93-1.26,3.27-3.44,4.61-5.29,7.01-9.65,13.54-19.67,20.31-29.49,2.6-3.77,5.2-7.59,7.56-11.53.06-.1.12-.19.17-.29.12-.21.25-.42.38-.63.11-.18.15-.37.14-.54,1.78-5.19-2.16-12.42-5.57-15.77Z"/>
            <path class="cls-4" d="M59.3,78.48c-2.45-2.26-6.56-4.79-10.04-3.87-3.94,1.05-3.47,5.28-2.11,8.24,2.11,4.58,12.29,16.28,16.76,7.74,1.9-3.63-.39-7.63-2.85-10.34-.54-.59-1.13-1.2-1.76-1.78Z"/>
          </g>
          <path class="cls-1" d="M80.18,30.17c-.88.17-1.67.42-2.38.99-.69.55-1.28,1.26-1.55,2.11-.32,1.01,1.12,1.91,1.83,1.07.82-.97,1.56-2.08,2.71-2.7.84-.46.24-1.62-.62-1.46h0Z"/>
          <path class="cls-1" d="M73.88,36.77s0,.02,0,.04h0c0,.16.03.31.1.44.07.16.08.23.23.37.01.01.21.17.23.18.13.08.27.13.42.13.05,0,.1.02.15.02.01,0,.03,0,.04,0l.31-.04.28-.12c.14-.07.25-.18.33-.3.07-.07.12-.16.15-.26.05-.09.08-.19.08-.3.03-.1.03-.21,0-.31,0-.11-.03-.21-.08-.3-.05-.15-.13-.27-.24-.38l-.24-.19-.28-.12-.31-.04-.31.04-.28.12c-.14.07-.25.18-.33.3-.07.07-.12.16-.15.26-.07.14-.11.29-.1.46h0Z"/>
          <path class="cls-1" d="M62.82,52.35c-.03.08-.07.15-.09.23-.04.13-.04.28-.06.42l.03-.22c-.03.1-.06.19-.09.29-.09.31.06.71.35.86s.68.13.92-.12c.07-.07.14-.14.21-.21l-.17.13c.11-.08.24-.15.33-.25.06-.06.11-.13.16-.19.22-.26.36-.59.25-.94-.08-.24-.22-.45-.44-.57s-.5-.16-.74-.1c-.16.05-.3.13-.42.25-.12.12-.2.26-.25.42h0Z"/>
          <path class="cls-1" d="M66.88,10.04c-1.5-.6-4.02-.88-4.88.9-.27.56.07,1.11.67,1.17,1.26.13,2.48-.65,3.76-.46,1.07.16,1.45-1.21.44-1.61h0Z"/>
          <path class="cls-1" d="M57.97,11.54l-.03.02c-.19.11-.32.24-.44.43-.06.1-.1.23-.14.34-.05.2-.05.4,0,.61.05.19.15.36.29.5.14.14.31.24.5.29.2.05.4.05.61,0,.11-.05.23-.08.34-.14.19-.11.32-.25.43-.44l.02-.03.12-.28c.05-.15.05-.31.02-.46,0-.1-.03-.2-.08-.29-.05-.14-.13-.27-.24-.37l-.23-.18-.28-.12c-.15-.05-.31-.05-.46-.02-.15,0-.3.05-.43.14h0Z"/>
          <path class="cls-1" d="M38.28,18.97c.13-.06.24-.1.34-.22.04-.04.07-.09.11-.14.11-.11.18-.23.22-.37.04-.15.04-.3,0-.45-.08-.28-.31-.52-.59-.59-.06-.01-.11-.03-.17-.04-.19-.04-.35-.03-.54,0-.04,0-.08.02-.12.03-.25.06-.45.24-.58.45-.09.15-.13.32-.13.49,0,.13.02.26.08.38.1.24.27.41.52.52.12.06.24.09.38.08.18,0,.34-.04.49-.13h0Z"/>
        </g>
        <path class="cls-4" d="M74.15,78.66c-.09-.35-.23-.68-.45-.97-.14-.18-.28-.34-.46-.47-.06-.05-.13-.1-.2-.13-.04-.02-.09-.04-.13-.06-.07-.03-.14-.03-.21-.04-.09,0-.17.05-.23.11-.06.08-.07.16-.05.25.03.17.13.31.21.46.07.13.17.26.25.39s.17.25.25.38c.09.13.18.26.26.4.11.18.32.25.51.17s.29-.29.24-.49h0Z"/>
        <path class="cls-4" d="M75.65,76.02c-.12-.23-.23-.46-.37-.69-.08-.13-.17-.25-.27-.37-.04-.04-.09-.08-.13-.12-.06-.06-.12-.11-.2-.14s-.15-.05-.23-.01c-.07.03-.13.09-.15.17-.04.15-.02.34,0,.49.03.13.06.25.11.37.11.27.25.54.37.81.05.11.19.2.3.23.12.03.28.02.38-.05.23-.15.31-.43.18-.68h0Z"/>
        <path class="cls-4" d="M89.95,53.99c-.11-.23-.21-.46-.34-.69-.06-.11-.12-.22-.2-.32-.09-.13-.19-.24-.29-.36s-.32-.14-.45-.06c-.15.1-.2.25-.17.42.02.12.04.24.08.36s.08.24.13.36c.11.27.24.53.37.79.05.11.19.2.3.23.12.03.28.02.39-.05s.2-.17.23-.3c.03-.14.01-.26-.05-.39h0Z"/>
        <path class="cls-4" d="M28.04,45.28l.1-.41c.04-.16.06-.31.08-.47.01-.13.02-.25.02-.38,0-.07,0-.14,0-.2,0-.08-.03-.15-.06-.23-.06-.15-.22-.2-.35-.09-.06.05-.11.1-.16.17-.03.06-.06.12-.1.17-.07.13-.13.27-.19.41-.09.25-.15.51-.21.78-.06.23.07.5.32.56s.5-.07.56-.32h0Z"/>
        <path class="cls-4" d="M59.25,35.34c.1-.31.16-.64.18-.97.01-.15,0-.29-.03-.44-.01-.1-.04-.18-.07-.27-.03-.08-.04-.16-.11-.22-.05-.06-.15-.07-.21-.03-.07.04-.11.12-.16.19-.05.08-.1.15-.13.24-.06.14-.11.27-.14.42-.06.32-.09.66-.06.98.01.18.13.34.32.36s.34-.09.4-.26h0Z"/>
        <path class="cls-4" d="M61.24,34.54c.06-.26.14-.52.18-.79.03-.24.05-.51,0-.75-.05-.19-.32-.27-.46-.12-.19.2-.3.47-.39.72-.08.22-.13.47-.19.7s.07.5.32.56.5-.07.56-.32h0Z"/>
      </g>
    </g>
  </g>
</svg>