<?xml version="1.0" encoding="UTF-8"?>
<svg id="Capa_2" data-name="Capa 2" xmlns="http://www.w3.org/2000/svg" viewBox="0 0 100 100">
  <defs>
    <style>
      .cls-1 {
        fill: #fff;
      }

      .cls-2 {
        fill: #fdc733;
      }

      .cls-3 {
        fill: none;
      }

      .cls-4 {
        fill: #4a2d2d;
      }
    </style>
  </defs>
  <g id="COLOR">
    <g>
      <rect class="cls-3" width="100" height="100"/>
      <g>
        <g>
          <g>
            <path class="cls-2" d="M39.74,20.02c1.28-.89,2.74-1.67,3.66-2.87,1.5-1.95,1.2-4.13.06-6.18-1.14-2.05-3-4.42-5.16-5.44-2.36-1.12-4.55-.6-6.66.78-4.35,2.85-9.78,6.86-9.66,12.67.13,6.41,5.44,10.41,6.93,16.3,0,.01,0,.02.01.04-1.02,1.05-2.16,2.01-3.32,2.95-2.32,1.88-4.66,4.11-5.33,7.15-.65,3,.52,6.11,2.05,8.65.94,1.57,2.09,3,2.98,4.6,1.07,1.92,1.33,3.52,1.57,5.6-1.2.82-2.52,1.51-3.71,2.26-2.13,1.34-5.27,3.07-6.26,5.53-1,2.48-.38,5.61.51,8.01.97,2.62,2.33,5.86,4.38,7.81.11.1.22.17.33.22,1.46,1.14,4.97,1.22,6.76.96,2.41-.35,4.69-1.23,6.52-2.89,1.52-1.38,2.99-3.02,2.75-5.19-.33-2.97-2.95-5.51-3.75-8.28,1.59-2.12,4.31-3.69,6.11-5.48,2.2-2.18,3.76-4.95,3.51-8.13-.24-3.08-2.15-5.96-3.93-8.39-.9-1.24-1.85-2.45-2.81-3.64.03-.02.05-.04.08-.06,1.62-1.04,3.38-1.85,4.97-2.94,2.79-1.91,5.24-4.25,6.31-7.54,2.17-6.66-3.32-13.4-8.93-16.52Z"/>
            <path class="cls-4" d="M29.4,86.86c1.44-.29,3.19-.78,5.18-2.68,1.99-1.89,2.35-4.17-1.67-4.04s-8.81,3.38-9.26,5.35c-.58,2.51,4.34,1.65,5.75,1.36Z"/>
            <path class="cls-4" d="M36.1,54.6c1.12,4.46-.36,8.34-3.73,11.63-.24.24.1.66.4.46,4.01-2.73,5.61-8.05,4.2-12.33-.17-.52-1.01-.28-.88.25h0Z"/>
            <path class="cls-4" d="M38.2,64.94c1-.98,1.89-2.43,1.81-3.88-.02-.4-.52-.44-.66-.09-.5,1.22-.87,2.35-1.74,3.38-.34.4.2.97.59.59h0Z"/>
            <path class="cls-4" d="M23.32,70.07c-3.73,3.05-1.93,7.95.55,11.09.27.35.86.05.62-.35-1.83-3.09-4.14-7.21-.59-10.17.4-.34-.18-.89-.58-.56h0Z"/>
            <path class="cls-4" d="M28.36,70.11c-1.5,2.18-.73,5.37.87,7.31.23.27.77.03.65-.33-.82-2.34-2.03-4.12-.83-6.65.19-.4-.45-.68-.69-.33h0Z"/>
            <path class="cls-4" d="M40.96,12.82c-.94.7-1.89,1.38-2.72,2.21-.26.26.07.7.4.52,1.01-.59,1.91-1.35,2.82-2.08.36-.29-.12-.93-.5-.65h0Z"/>
            <path class="cls-4" d="M36.07,7.9c-2.67,2.87-7.03,4-8.65,7.83-1.62,3.85.45,7.74,2.7,10.83.29.4.95.04.67-.39-2.34-3.7-4.87-8.05-1.43-12.03,2.03-2.35,5.15-3.4,7.28-5.66.36-.38-.22-.96-.58-.58h0Z"/>
            <path class="cls-4" d="M32.14,17.47c-.43.97-.71,2.23-.29,3.26.15.37.78.37.76-.1-.03-1.02-.1-1.86.31-2.83.19-.44-.59-.77-.78-.33h0Z"/>
            <path class="cls-4" d="M40.12,27.28c1.53,2.38,3.87,3.98,3.65,7.13-.22,3.32-3.18,5.21-5.49,7.13-.28.24.08.65.38.49,2.8-1.49,5.18-4.02,5.85-7.21.76-3.62-2.02-5.25-3.8-7.9-.24-.36-.83-.03-.59.35h0Z"/>
            <path class="cls-4" d="M36.5,30.13c2.9,7.44-11.97,10.35-9.15,17.87.12.33.71.32.67-.09-.45-4.61,3.9-7.46,6.77-10.41,2.06-2.12,3.67-4.7,2.3-7.62-.15-.33-.73-.09-.59.25h0Z"/>
            <path class="cls-4" d="M29.55,53.12c.37.68.74,1.36,1.15,2.02.25.4.85.05.63-.37-.36-.69-.76-1.35-1.16-2.02-.24-.4-.85-.04-.62.36h0Z"/>
          </g>
          <g>
            <path class="cls-2" d="M84.17,31.23c1.51-.38,3.16-.59,4.44-1.38,2.09-1.29,2.59-3.43,2.26-5.75-.33-2.32-1.23-5.2-2.89-6.92-1.81-1.89-4.04-2.18-6.5-1.64-5.08,1.11-11.58,2.92-13.54,8.4-2.16,6.03,1.37,11.66.67,17.7,0,.01,0,.03,0,.04-1.32.62-2.73,1.11-4.16,1.57-2.84.93-5.82,2.18-7.52,4.78-1.68,2.57-1.69,5.89-1.16,8.82.32,1.8.88,3.55,1.15,5.36.32,2.18-.01,3.76-.53,5.79-1.41.34-2.89.51-4.27.79-2.47.49-6.02.99-7.82,2.94-1.81,1.96-2.35,5.11-2.37,7.67-.03,2.8.08,6.31,1.31,8.86.06.13.14.24.23.33.96,1.59,4.21,2.91,5.98,3.31,2.38.54,4.83.52,7.12-.38,1.91-.75,3.87-1.76,4.42-3.87.75-2.9-.79-6.2-.55-9.08,2.25-1.42,5.34-1.91,7.66-2.94,2.83-1.26,5.28-3.29,6.18-6.35.87-2.97.12-6.33-.68-9.24-.4-1.48-.86-2.94-1.33-4.4.03,0,.06-.02.1-.02,1.88-.4,3.81-.53,5.69-.97,3.29-.79,6.41-2.1,8.59-4.79,4.4-5.45,1.68-13.7-2.45-18.62Z"/>
            <path class="cls-4" d="M50.69,90c1.45.24,3.26.41,5.79-.66s3.68-3.06-.12-4.37c-3.8-1.31-9.44.02-10.56,1.7-1.43,2.14,3.47,3.09,4.89,3.33Z"/>
            <path class="cls-4" d="M68.45,62.25c-.54,4.56-3.31,7.67-7.63,9.54-.31.14-.14.65.21.57,4.72-1.12,8.11-5.52,8.32-10.02.03-.55-.85-.62-.91-.08h0Z"/>
            <path class="cls-4" d="M66.72,72.66c1.29-.56,2.63-1.6,3.07-2.98.12-.38-.33-.59-.59-.32-.9.96-1.65,1.89-2.83,2.54-.47.26-.16.98.34.76h0Z"/>
            <path class="cls-4" d="M50.99,72.15c-4.57,1.52-4.64,6.74-3.44,10.56.13.42.79.35.71-.11-.61-3.55-1.29-8.21,3.07-9.71.5-.17.15-.9-.34-.73h0Z"/>
            <path class="cls-4" d="M55.69,73.98c-2.18,1.51-2.6,4.76-1.79,7.14.11.34.71.3.72-.08.07-2.48-.42-4.57,1.59-6.51.32-.31-.18-.8-.52-.56h0Z"/>
            <path class="cls-4" d="M87.88,24.94c-1.12.32-2.26.61-3.33,1.09-.34.15-.18.68.19.62,1.16-.19,2.26-.58,3.38-.93.44-.14.21-.91-.24-.78h0Z"/>
            <path class="cls-4" d="M85.06,18.6c-3.52,1.73-8,1.23-10.87,4.24-2.88,3.02-2.34,7.39-1.33,11.09.13.47.87.37.77-.13-.87-4.29-1.68-9.26,2.95-11.75,2.73-1.47,6.02-1.34,8.82-2.7.47-.23.14-.98-.33-.74h0Z"/>
            <path class="cls-4" d="M77.98,26.14c-.75.76-1.46,1.83-1.43,2.94.01.4.6.63.75.18.33-.96.57-1.77,1.29-2.53.33-.35-.27-.93-.61-.58h0Z"/>
            <path class="cls-4" d="M81.94,38.16c.58,2.77,2.2,5.09.87,7.97-1.39,3.03-4.82,3.74-7.67,4.71-.35.12-.16.64.18.6,3.15-.39,6.27-1.91,8.03-4.65,2.01-3.11-.01-5.63-.74-8.74-.1-.43-.77-.32-.68.11h0Z"/>
            <path class="cls-4" d="M77.55,39.52c.06,7.98-14.87,5.41-14.92,13.43,0,.35.55.56.66.15,1.23-4.47,6.3-5.58,10.04-7.31,2.68-1.24,5.1-3.08,4.86-6.3-.03-.36-.64-.35-.64.02h0Z"/>
            <path class="cls-4" d="M62.86,58.53c.11.77.21,1.54.35,2.3.09.46.78.35.72-.12-.09-.77-.23-1.53-.36-2.3-.08-.46-.78-.34-.71.12h0Z"/>
          </g>
          <path class="cls-1" d="M73.05,20.04c-.22.12-.45.16-.66.3-.25.16-.46.35-.68.55-.2.18-.41.35-.56.58-.21.33-.22.64-.16,1.02.05.27.31.49.56.56.7.19,1.17-.21,1.65-.66.2-.19.38-.37.54-.59s.24-.45.38-.67c.45-.69-.42-1.43-1.08-1.08h0Z"/>
          <path class="cls-1" d="M69.75,24.87c-.44.4-.78,1.2-.4,1.75.12.16.24.29.43.37.2.08.37.08.58.05.35-.06.61-.35.77-.65.14-.26.2-.57.19-.86-.01-.37-.22-.7-.57-.84s-.73-.06-1.01.19h0Z"/>
          <path class="cls-1" d="M60.16,46.67c-.33.24-.61.5-.81.86-.27.47-.37,1.17.05,1.59.23.23.55.3.86.23s.52-.34.67-.6c.06-.1.14-.21.2-.31-.11.21-.06.08,0,.02.03-.03.06-.06.09-.08-.12.09-.14.11-.05.05.44-.29.67-.9.36-1.38-.27-.42-.92-.7-1.38-.36h0Z"/>
          <path class="cls-1" d="M46.92,71.45c-.24,0-.51.06-.72.19s-.37.3-.52.51c-.18.26-.17.69,0,.95,0,0,.01.02.02.03l-.09-.2c.03.1.07.19.12.28.16.27.52.43.82.33.03,0,.05-.01.08-.02l-.22.03h.02c-.08-.01-.15-.02-.23-.03,0,0,.02,0,.02,0l-.22-.09h0c.15.09.31.13.48.13.17,0,.33-.04.48-.13.06-.05.12-.08.19-.11l-.23.1c.12-.04.23-.1.35-.15l-.23.1s.08-.03.12-.03c.22-.04.47-.25.57-.44s.14-.39.11-.61c-.06-.45-.46-.85-.94-.83h0Z"/>
          <path class="cls-1" d="M44.25,76.21c0,.15,0,.26.03.43,0,.06.02.12.03.19l.1.23c.06.11.14.2.25.27.16.13.37.22.58.21.17,0,.33-.05.48-.13.11-.06.2-.14.27-.25.08-.09.14-.2.17-.33.01-.06.02-.12.03-.19.02-.11.04-.22.03-.33v-.1c-.02-.26-.11-.51-.29-.7-.17-.17-.45-.3-.7-.29s-.52.09-.7.29-.28.43-.29.7h0Z"/>
          <path class="cls-1" d="M25.36,14.8c-.78.48-1.31,1.22-1.23,2.17.03.44.31.81.76.86s.84-.2.97-.63c.08-.26.16-.52.24-.78.07-.22.11-.46.22-.67.29-.59-.32-1.34-.95-.95h0Z"/>
          <path class="cls-1" d="M23.78,41.85c-.52.26-.98.65-1.24,1.17-.34.67-.46,1.51.23,1.99.24.17.56.12.8,0,.47-.24.53-.76.69-1.21.09-.25.21-.55.42-.79.56-.64-.13-1.54-.9-1.17h0Z"/>
          <path class="cls-1" d="M21.59,48.26l-.02.32c-.02.34.09.67.34.9.4.38,1.01.38,1.42,0,.25-.24.36-.56.34-.9l-.02-.32c-.01-.27-.1-.53-.3-.73-.18-.18-.47-.31-.73-.3s-.54.1-.73.3-.29.44-.3.73h0Z"/>
          <path class="cls-1" d="M17.46,73.12c0,.18,0,.35.02.52.04.31.17.58.37.82.32.38,1.06.38,1.38,0,.2-.24.33-.51.37-.82.02-.17.02-.35.02-.52,0-.57-.5-1.11-1.09-1.09s-1.09.48-1.09,1.09h0Z"/>
        </g>
        <path class="cls-4" d="M71.44,53.85l-.13-.27c-.04-.09-.09-.19-.14-.27-.12-.18-.27-.35-.42-.5-.07-.06-.17-.09-.26-.05-.08.03-.15.12-.14.21.01.12.03.24.05.35,0,.05.02.1.03.14s.03.09.05.14c.08.22.2.42.3.62.09.18.36.25.52.14.08-.05.15-.13.18-.23.02-.11,0-.2-.04-.3h0Z"/>
        <path class="cls-4" d="M83.35,30.45c-.26-.28-.51-.56-.78-.82-.06-.06-.16-.07-.23-.01s-.09.15-.04.22c.2.32.42.63.63.93.09.13.26.18.39.07s.14-.28.03-.4h0Z"/>
        <path class="cls-4" d="M37.68,52.36l.14.04s.09.03.14.04c.02,0,.05,0,.07.01.04,0,.09.02.13.02.06,0,.12-.02.18-.03s.11-.07.12-.12c.02-.06,0-.12-.04-.17s-.08-.1-.13-.13c-.04-.02-.08-.04-.13-.06-.11-.05-.22-.08-.33-.12-.06-.02-.15,0-.21.03s-.11.1-.12.16c-.02.07-.01.15.03.21s.09.1.16.12h0Z"/>
        <path class="cls-4" d="M35.62,49.82s.03-.04,0-.04-.03.04,0,.04h0Z"/>
      </g>
    </g>
  </g>
</svg>