<?xml version="1.0" encoding="UTF-8"?>
<svg id="Capa_2" data-name="Capa 2" xmlns="http://www.w3.org/2000/svg" viewBox="0 0 100 100">
  <defs>
    <style>
      .cls-1 {
        fill: #fff;
      }

      .cls-2 {
        fill: #fdc733;
      }

      .cls-3 {
        fill: none;
      }

      .cls-4 {
        fill: #4a2d2d;
      }
    </style>
  </defs>
  <g id="COLOR">
    <g>
      <rect class="cls-3" width="100" height="100"/>
      <g>
        <g>
          <g>
            <path class="cls-2" d="M93.65,41.83c-1.63-7.71-5.43-14.39-10.44-20.44-.56-.67-1.21-1.31-1.71-2.02-.38-.54-.65-1.13-1.11-1.62-.94-1.02-2.24-1.6-3.59-1.03-1.28.54-2.09,1.81-2.94,2.85-1.16,1.42-2.44,2.72-3.76,3.99-2.54,2.45-5.34,4.67-7.68,7.31-2.07,2.33-3.74,4.99-5.02,7.83-2.52,5.6-3.73,11.56-3.56,17.7.09,3.41.52,6.78,1.57,10.03,1.04,3.21,1.91,6.27,2.44,9.6.42,2.68.38,6.37,2.24,8.54,1.01,1.17,2.69,1.42,4.07.85.78-.32,1.25-1.02,1.84-1.58.89-.84,1.84-1.54,2.91-2.13,2.27-1.25,4.73-2.12,7-3.38,3.38-1.86,6.54-4.08,9.33-6.74,1.4-1.34,2.68-2.8,3.81-4.37,2.42-3.34,4.69-7.03,5.55-11.15.97-4.69.02-9.62-.96-14.22Z"/>
            <path class="cls-4" d="M85.77,45.75c.56-5.29-.02-10.86-2.63-15.3-3.66-6.23-5.64-7.47-11.19-2.66-5.55,4.81-11.38,13.5-12.77,23.75-1.39,10.25,3.07,21.62,4.8,23.64,1.74,2.02,6.22.73,10.22-4.29,4.36-5.48,8.28-11.67,10.26-18.51.6-2.08,1.06-4.33,1.31-6.63Z"/>
          </g>
          <g>
            <path class="cls-2" d="M47,45c-2.7-6.03-7.49-11.75-12.45-16.06-2.58-2.24-5.44-4.03-8.5-5.54-1.6-.79-3.19-1.62-4.8-2.39-1.61-.77-3.26-1.42-4.93-2.05-1.1-.42-2.18-.62-3.3-.08-1.09.52-1.7,1.56-1.96,2.7-.35,1.5-.79,2.99-1.22,4.48-.95,3.34-1.93,6.68-2.71,10.07-.77,3.35-1.34,6.77-1.43,10.21-.07,3.04.25,6.1,1.12,9.02,1.5,5.06,4.24,9.7,7.72,13.64,1.92,2.18,4.14,3.99,6.31,5.91,2.42,2.15,4.16,4.68,6.27,7.1,1.39,1.59,3.24,3.69,5.58,3.54.72-.05,1.43-.3,2.01-.75.27-.21.51-.46.7-.75.59-.87,1.2-1.74,1.75-2.64.57-.92,1.01-1.9,1.56-2.82.94-1.58,1.96-3.11,2.95-4.66,1.89-2.97,3.63-6.03,4.97-9.29,2.63-6.4,3.24-13.19.36-19.61Z"/>
            <path class="cls-4" d="M9.82,30.42c1.04-1.17,2.08-2.28,3.36-3.19,1.2-.85,2.54-1.26,3.83-1.91.35-.18.09-.66-.25-.6-2.86.49-5.95,2.88-7.61,5.18-.28.39.35.88.67.52h0Z"/>
            <path class="cls-4" d="M7.9,38.22c2.05-1.83,4.25-3.44,6.69-4.72,2.29-1.2,4.75-1.85,7.08-2.92.42-.19.09-.75-.29-.69-5.09.75-10.29,4.44-14.08,7.73-.41.36.19.96.6.6h0Z"/>
            <path class="cls-4" d="M7.66,45.27c3.6-1.67,7.28-3.13,11.05-4.36,3.54-1.15,7.43-1.7,10.87-3.08.35-.14.34-.71-.09-.7-3.77.1-7.85,1.67-11.38,2.89-3.71,1.29-7.33,2.81-10.86,4.53-.48.23-.06.94.42.72h0Z"/>
            <path class="cls-4" d="M7.65,52.79c4.67-.36,9.28-1.25,13.81-2.41,2.26-.58,4.49-1.24,6.71-1.93,2.22-.69,4.63-1.25,6.7-2.33.45-.23.11-.84-.32-.77-2.26.37-4.48,1.33-6.67,2.01-2.22.69-4.46,1.35-6.71,1.95-4.48,1.21-9.01,2.16-13.61,2.78-.39.05-.3.72.09.69h0Z"/>
            <path class="cls-4" d="M9.59,59.41c5.07.29,10.17.15,15.19-.62,4.47-.69,9.73-1.65,13.67-3.96.37-.21.12-.75-.28-.67-2.24.47-4.41,1.42-6.61,2.06-2.21.64-4.46,1.16-6.72,1.57-5.04.91-10.14,1.12-15.25.85-.49-.03-.49.74,0,.76h0Z"/>
            <path class="cls-4" d="M14.65,67.03c3.81.64,7.74.63,11.58.33,3.58-.28,8.19-.66,11.21-2.8.32-.23.14-.78-.28-.67-3.76,1-7.31,1.99-11.21,2.38-3.66.37-7.43.49-11.09-.02-.5-.07-.73.69-.21.77h0Z"/>
            <path class="cls-4" d="M20.57,74.61c4.02,1,8.76,1.23,12.67-.35.55-.22.34-.97-.24-.89-4.19.63-7.96,1.12-12.19.41-.54-.09-.78.7-.23.83h0Z"/>
          </g>
          <path class="cls-1" d="M39.34,40.69c.82,1.28,1.59,2.61,2.23,3.99.58,1.26.83,2.85,1.77,3.89.43.47,1.44.28,1.55-.41.22-1.52-.62-3.04-1.31-4.36-.8-1.52-1.76-2.87-2.9-4.14-.64-.71-1.86.22-1.33,1.03h0Z"/>
          <path class="cls-1" d="M43.5,52.29c.04.13.09.26.13.39.06.18.14.36.28.49.07.06.16.14.24.18.23.13.54.19.8.11.22-.07.4-.2.54-.38.1-.13.16-.21.2-.39l.04-.28-.04-.28c-.02-.14-.05-.29-.07-.43-.04-.25-.29-.53-.51-.66-.24-.14-.58-.2-.85-.11s-.52.25-.66.51-.21.57-.11.85h0Z"/>
          <path class="cls-1" d="M68.2,26.52l-.24.21c-.14.12-.24.26-.34.41l-.1.24-.04.27c0,.22.08.44.22.61.11.14.24.24.4.31.19.08.46.13.66.05.17-.07.33-.13.48-.24l.26-.19c.16-.1.29-.22.38-.38l.11-.26c.1-.32,0-.67-.19-.93-.18-.23-.41-.36-.7-.4-.35-.05-.64.06-.9.29h0Z"/>
          <path class="cls-1" d="M63.96,32.03c-.09.12-.2.24-.27.37-.1.18-.19.37-.23.57-.07.31.02.62.28.82s.58.2.87.06c.34-.16.57-.43.8-.71.16-.2.26-.39.27-.65.01-.29-.14-.55-.36-.72-.2-.16-.42-.21-.68-.18-.12,0-.24.04-.34.11-.14.08-.25.19-.33.33h0Z"/>
          <path class="cls-1" d="M81.86,71.75c.59-.29,1.43-.76,1.58-1.45.14-.69-.42-1.27-1.11-1.11-.35.08-.64.36-.91.6-.04.04-.08.07-.12.11-.08.07.11-.08-.03.03-.11.08-.23.16-.34.23-.41.26-.61.84-.33,1.28.29.45.8.56,1.28.33h0Z"/>
          <path class="cls-1" d="M86.21,67.95l.02-.14s0-.04,0-.06c0-.05.01-.1.02-.15.02-.09.02-.18,0-.27,0-.06,0-.11-.03-.16l-.1-.24s-.01-.02-.02-.04c-.11-.19-.26-.32-.46-.4-.31-.13-.63-.07-.91.09-.22.13-.35.34-.47.55-.14.26-.17.53-.11.82.05.18.14.34.27.47.1.1.21.18.34.22.13.07.26.1.41.09.15,0,.28-.02.41-.09.13-.04.25-.12.34-.22.13-.13.22-.29.27-.47h0Z"/>
        </g>
        <path class="cls-4" d="M38.98,69.87c.15.04.3.07.46.09.17.02.35.07.53.08.34.02.83.02,1.02-.32l-.09.09c.07-.04.12-.08.18-.13.1-.09.05-.28-.08-.31-.08-.02-.15-.02-.23-.03l.13.03c-.16-.11-.38-.11-.56-.08-.03,0-.02,0,0,0-.05,0-.09.01-.13.02-.04,0-.07.01-.11.02s-.07.01-.11.02c-.01,0-.11.02-.05,0-.15.02-.3.06-.43.07-.16,0-.31,0-.47,0-.26-.01-.32.39-.06.45h0Z"/>
        <path class="cls-4" d="M39.38,68.16c.3-.02.61-.03.91-.05.17,0,.36-.02.53-.05.05-.01.1-.03.15-.05.06-.02.1-.05.15-.09.03-.03.03-.02-.02,0,.1-.05.16-.12.23-.2.07-.1.04-.28-.05-.36-.06-.05-.11-.09-.19-.12h-.03c-.07-.04-.04-.02.07.05-.02-.05-.17-.11-.22-.13-.05-.02-.16-.02-.22-.02-.18,0-.36.04-.53.06-.3.05-.6.09-.9.14-.09.01-.21.11-.25.19-.05.09-.06.17-.05.27.03.2.2.38.41.37h0Z"/>
        <path class="cls-4" d="M90.26,54.2l.47.19c.08.03.15.06.23.08.06.02.11.03.17.04.13.02.22-.02.33-.08l-.09.04c.06-.02.13-.04.18-.08s.1-.1.12-.17c.01-.06.02-.12,0-.18-.02-.06-.05-.09-.08-.15l.04.1c-.03-.13-.11-.23-.22-.3-.05-.03-.14-.06-.2-.08-.08-.03-.16-.06-.24-.08l-.48-.14c-.11-.03-.23-.01-.33.04-.09.05-.17.15-.2.26-.02.11-.02.23.04.33l.07.09c.05.05.12.09.19.11h0Z"/>
      </g>
    </g>
  </g>
</svg>