<?xml version="1.0" encoding="UTF-8"?>
<svg id="Capa_2" data-name="Capa 2" xmlns="http://www.w3.org/2000/svg" viewBox="0 0 100 100">
  <defs>
    <style>
      .cls-1 {
        fill: #fff;
      }

      .cls-2 {
        fill: #fdc733;
      }

      .cls-3 {
        fill: none;
      }

      .cls-4 {
        fill: #4a2d2d;
      }
    </style>
  </defs>
  <g id="COLOR">
    <g>
      <rect class="cls-3" width="100" height="100"/>
      <g>
        <g>
          <g>
            <g>
              <path class="cls-2" d="M46.23,69.37c-3.71-1.48-7.41-1.64-11.35-1.45-1.33.06-2.69.4-3.73,1.25-2.29,1.86-2.07,6.6-2.29,9.22-.3,3.49-.61,7,2.61,9.22,2.9,2,7.12,2.06,10.5,1.96,2.9-.09,6.24-.89,7.49-3.84.66-1.57.53-3.52.67-5.19.16-2.03.31-4.06.35-6.1.06-2.91-1.69-4.07-4.23-5.08Z"/>
              <path class="cls-4" d="M39.86,76.1c1.88.03,5.85.05,6.85-1.53s-1.47-3.32-6.79-3.69c-5.32-.37-6.95.21-7.16,1.79-.21,1.58,2.16,3.35,7.11,3.42Z"/>
            </g>
            <g>
              <path class="cls-2" d="M72.15,64.88c-3.85,1.08-6.88,3.21-9.89,5.75-1.01.86-1.89,1.95-2.2,3.26-.69,2.87,2.37,6.5,3.78,8.71,1.88,2.95,3.78,5.93,7.67,5.74,3.52-.17,6.91-2.69,9.53-4.82,2.25-1.83,4.42-4.5,3.61-7.6-.43-1.65-1.72-3.12-2.62-4.52-1.1-1.71-2.23-3.41-3.43-5.05-1.72-2.35-3.81-2.2-6.45-1.46Z"/>
              <path class="cls-4" d="M71.18,74.09c1.51-1.12,4.67-3.51,4.51-5.37s-3.19-1.74-7.64,1.2c-4.45,2.94-5.39,4.39-4.6,5.78.79,1.38,3.75,1.35,7.73-1.6Z"/>
            </g>
            <g>
              <path class="cls-2" d="M59.62,48.9c-2.41-3.19-5.49-5.25-8.95-7.13-1.17-.63-2.5-1.05-3.84-.87-2.92.4-5.19,4.57-6.75,6.69-2.07,2.83-4.15,5.67-2.56,9.23,1.44,3.22,5.01,5.46,7.96,7.13,2.53,1.43,5.8,2.48,8.39.6,1.38-1,2.28-2.73,3.26-4.09,1.19-1.65,2.37-3.31,3.46-5.03,1.56-2.46.67-4.35-.98-6.54Z"/>
              <path class="cls-4" d="M50.69,51.35c1.59,1,4.97,3.08,6.65,2.25,1.68-.83.46-3.6-3.89-6.68-4.36-3.08-6.05-3.43-7.05-2.19s.11,3.98,4.3,6.62Z"/>
            </g>
            <g>
              <path class="cls-2" d="M28.21,43.79c-3.53-1.87-7.19-2.43-11.13-2.66-1.32-.08-2.71.11-3.85.84-2.47,1.6-2.77,6.34-3.28,8.92-.68,3.44-1.36,6.9,1.6,9.45,2.67,2.3,6.86,2.82,10.23,3.09,2.89.23,6.3-.21,7.86-3.01.83-1.49.91-3.44,1.22-5.08.38-2,.74-4.01,1-6.02.37-2.89-1.24-4.22-3.66-5.51Z"/>
              <path class="cls-4" d="M21.16,49.79c1.87.23,5.81.68,6.97-.78,1.17-1.46-1.11-3.46-6.36-4.4-5.25-.94-6.93-.54-7.31,1.01-.38,1.55,1.78,3.56,6.7,4.17Z"/>
            </g>
            <g>
              <path class="cls-2" d="M43.89,18.12c-3-2.64-6.43-4.03-10.2-5.18-1.27-.38-2.66-.53-3.94-.08-2.78.98-4.17,5.52-5.26,7.91-1.46,3.18-2.92,6.39-.64,9.56,2.06,2.86,6.01,4.34,9.23,5.38,2.76.89,6.18,1.26,8.34-1.1,1.15-1.26,1.68-3.13,2.37-4.66.84-1.85,1.65-3.72,2.38-5.62,1.03-2.72-.22-4.4-2.28-6.21Z"/>
              <path class="cls-4" d="M35.63,22.32c1.76.66,5.49,2.01,6.96.86s-.27-3.62-5.16-5.76c-4.89-2.14-6.62-2.14-7.35-.72s.91,3.88,5.55,5.61Z"/>
            </g>
            <g>
              <path class="cls-2" d="M65.6,14.38c-3.95.64-7.2,2.4-10.48,4.59-1.1.74-2.1,1.72-2.56,2.99-1.01,2.77,1.62,6.73,2.77,9.09,1.53,3.15,3.08,6.32,6.97,6.57,3.52.23,7.17-1.89,10.02-3.71,2.45-1.57,4.9-3.97,4.45-7.14-.24-1.69-1.35-3.29-2.09-4.79-.9-1.82-1.82-3.64-2.83-5.41-1.44-2.53-3.54-2.62-6.24-2.19Z"/>
              <path class="cls-4" d="M63.59,23.43c1.63-.94,5.04-2.96,5.09-4.83.05-1.87-2.97-2.09-7.72.33-4.75,2.42-5.86,3.75-5.23,5.22.63,1.46,3.57,1.77,7.86-.71Z"/>
            </g>
            <g>
              <path class="cls-2" d="M74.4,37.07c-3.18,2.43-5.21,5.52-7.06,9-.62,1.17-1.04,2.51-.84,3.85.42,2.92,4.61,5.16,6.74,6.7,2.84,2.05,5.7,4.11,9.25,2.49,3.21-1.46,5.43-5.05,7.07-8.01,1.41-2.54,2.44-5.82.54-8.4-1.01-1.37-2.75-2.26-4.11-3.23-1.65-1.18-3.33-2.35-5.05-3.43-2.47-1.54-4.36-.64-6.53,1.03Z"/>
              <path class="cls-4" d="M76.91,45.99c.99-1.6,3.04-4.99,2.2-6.66-.84-1.67-3.6-.44-6.65,3.94-3.05,4.38-3.39,6.08-2.14,7.07s3.98-.13,6.59-4.35Z"/>
            </g>
          </g>
          <path class="cls-1" d="M27.27,19.86c-.26.49-.48,1-.69,1.51-.19.49-.43,1.03-.23,1.55.14.38.53.56.9.37.5-.26.67-.78.86-1.28s.37-1.04.51-1.58c.2-.79-.95-1.33-1.35-.57h0Z"/>
          <path class="cls-1" d="M25.51,26.31v.03c0-.05-.03-.1-.05-.15h0c0-.05-.01-.11-.02-.16v.05c0,.08.02.15.06.22.02.07.06.13.12.18l.12.09c.09.05.19.08.29.08h.05c-.06,0-.11,0-.17-.02h0c-.05-.02-.1-.04-.15-.06,0,0,.01,0,.02,0,0,0,0,0,0,0,.02.01.16.07.18.08l.2.03.2-.03.18-.08c.09-.05.16-.11.21-.19.05-.05.08-.1.1-.16.03-.06.05-.12.05-.19.02-.07.02-.13,0-.2,0-.07-.02-.13-.05-.19-.02-.06-.05-.12-.1-.16-.03-.06-.08-.1-.13-.13-.05-.05-.1-.08-.16-.1-.06-.03-.12-.05-.19-.05-.07-.02-.13-.02-.2,0-.07,0-.13.02-.19.05-.06.02-.12.05-.16.1-.06.03-.1.08-.13.13-.05.05-.08.1-.1.16-.03.06-.05.12-.05.19-.02.07-.02.13,0,.2,0,.1.03.19.09.28h0Z"/>
          <path class="cls-1" d="M55.88,29.1l.06.04.19.08c.1.03.21.04.31.01.07,0,.14-.02.2-.05.1-.03.18-.09.25-.16l.12-.16.08-.19c.03-.1.04-.21.01-.31,0-.1-.04-.2-.09-.29l-.04-.06c-.07-.12-.17-.22-.29-.29-.12-.07-.26-.11-.4-.11l-.21.03c-.14.04-.25.11-.35.21-.08.07-.13.16-.16.26-.05.1-.07.2-.07.31,0,.14.04.28.11.4.07.12.17.22.29.29h0Z"/>
          <path class="cls-1" d="M70.93,22.11c.1.17.2.38.35.52.14.13.3.24.48.33.23.11.48.14.72,0s.34-.36.35-.61c0-.18,0-.41-.06-.58-.07-.2-.18-.38-.29-.56-.24-.4-.81-.58-1.22-.32s-.58.79-.32,1.22h0Z"/>
          <path class="cls-1" d="M73.85,27.06l.06-.02s.02,0,.03-.01c.14-.05.28-.11.38-.22.08-.08.14-.17.17-.27.05-.1.08-.21.07-.33l-.03-.22c-.04-.14-.11-.27-.22-.37-.02-.03-.06-.05-.09-.07-.08-.08-.18-.13-.29-.15,0,0-.02,0-.03-.01l-.06-.02c-.16-.04-.31-.04-.47,0-.15.04-.28.12-.39.23l-.14.18c-.08.14-.12.29-.12.45,0,.12.02.24.08.34.04.11.1.21.18.29.11.11.24.19.39.23.16.04.31.04.47,0h0Z"/>
          <path class="cls-1" d="M42.56,47.21c-.12.18-.24.35-.3.56-.02.07-.02.13-.04.2-.02.07-.06.14-.09.21-.1.26.05.59.25.74s.55.21.78.05c.06-.04.11-.08.17-.12.07-.04.14-.06.21-.1.19-.11.33-.26.47-.42.37-.41.36-1.03-.09-1.39-.2-.16-.43-.22-.69-.18-.3.04-.51.2-.68.44h0Z"/>
          <path class="cls-1" d="M40.04,51.12c-.09.16-.18.33-.27.5-.12.24-.12.57.1.77s.51.23.77.1c.17-.08.33-.18.5-.27.45-.25.52-.9.16-1.26s-1.01-.29-1.26.16h0Z"/>
          <path class="cls-1" d="M11.67,49.53c-.13.48-.41,1.19-.08,1.64.22.3.55.41.9.24.5-.25.58-.97.68-1.46.08-.4-.12-.86-.54-.96s-.84.12-.96.54h0Z"/>
          <path class="cls-1" d="M11.98,55.98c1.13,0,1.14-1.76,0-1.76s-1.14,1.76,0,1.76h0Z"/>
          <path class="cls-1" d="M28.63,56.52c.94,0,.94-1.46,0-1.46s-.94,1.46,0,1.46h0Z"/>
          <path class="cls-1" d="M81.13,39.34c.34.28.67.56,1.01.84.38.31.76.51,1.2.72.53.25,1.08-.26.8-.8-.25-.5-.54-.87-1.02-1.19-.43-.29-.9-.47-1.39-.61-.56-.16-1.11.64-.61,1.04h0Z"/>
          <path class="cls-1" d="M86.62,43.31c.11.02.23.04.33.05.05,0,.1,0,.15,0,.23,0,.45-.12.57-.32.06-.1.09-.21.09-.33,0-.12-.03-.23-.09-.33-.09-.13-.18-.25-.29-.36-.19-.19-.5-.28-.76-.2-.19.06-.36.18-.46.36s-.13.4-.08.6c.04.13.1.25.2.34.1.1.21.16.34.2h0Z"/>
          <path class="cls-1" d="M77.48,69.58c.28.58.58,1.15.87,1.73s.5,1.15.99,1.58c.4.35,1.12.14,1.1-.46-.03-1.32-1.18-2.64-2.04-3.56-.48-.51-1.21.14-.92.71h0Z"/>
          <path class="cls-1" d="M81.09,75.56s.05.05.07.07c.06.06.12.12.19.15.01,0,.03.01.04.02l.15.06.17.02c.09,0,.23-.03.32-.08.15-.1.26-.25.3-.43.01-.06.03-.14.03-.21,0-.07-.02-.15-.03-.22,0-.04-.01-.07-.02-.11-.03-.12-.1-.23-.19-.32-.09-.09-.2-.15-.32-.19-.19-.04-.39-.03-.57.07-.16.09-.29.26-.34.44-.07.25,0,.53.19.71h0Z"/>
          <path class="cls-1" d="M31.15,76.25s.08.14.08.14c-.02,0-.06-.16,0,0,.03.08.08.16.1.25-.04-.1-.04-.1,0,0,.01.04.03.08.06.12.15.26.34.51.69.4.29-.09.5-.42.56-.7.07-.35-.03-.66-.18-.98-.17-.36-.72-.48-1.04-.27s-.51.68-.27,1.04h0Z"/>
          <path class="cls-1" d="M47.15,79.12c-.51.23-.5.94-.53,1.42-.02.24-.06.48-.05.71.02.34.14.53.34.79.15.19.48.2.68.09.65-.37.71-1.15.67-1.83-.04-.58-.35-1.53-1.11-1.18h0Z"/>
          <path class="cls-1" d="M47.08,84.31s.01.1.03.14c.05.18.18.33.34.43.17.11.44.11.61,0,.16-.1.28-.25.34-.43.01-.05.02-.09.03-.14.03-.12.03-.25,0-.37-.03-.12-.09-.22-.18-.31-.14-.12-.3-.2-.49-.2-.18,0-.36.08-.49.2-.09.09-.15.19-.18.31-.03.12-.03.25,0,.37h0Z"/>
        </g>
        <path class="cls-4" d="M80.59,57.38c-.03-.05-.06-.11-.1-.16-.06-.08-.12-.13-.2-.19-.15-.12-.3-.22-.47-.3-.14-.06-.29-.13-.45-.16-.18-.04-.38-.08-.57-.05-.13.02-.32.04-.42.13-.06.06-.08.15-.04.23.04.09.13.14.21.19.03.02.05.04.07.05.01,0,.02.02.04.03h.01s-.04-.02.01.02c.05.04.11.06.17.09.01,0,.03.01.04.02-.08-.04,0,0,0,0,.16.07.31.14.47.2,0,0,.06.02,0,0-.06-.03.03.02.04.02.06.03.12.05.18.08.07.03.15.05.23.08s.16.06.24.08c.09.02.19.02.29.03.2.03.32-.24.23-.39h0Z"/>
        <path class="cls-4" d="M81.32,55.72c-.05-.08-.09-.18-.15-.25-.07-.08-.16-.13-.25-.19-.07-.04-.13-.08-.2-.11-.09-.04-.18-.08-.28-.11s-.2.01-.25.09-.07.19-.02.27.11.15.18.22c.05.06.11.11.17.17.08.07.15.13.24.18s.19.06.29.08.19,0,.25-.08.07-.18.02-.26h0Z"/>
        <path class="cls-4" d="M66.48,35.15s0-.09,0-.14c0-.08-.02-.16-.04-.23-.04-.12-.09-.24-.16-.34-.05-.06-.09-.13-.15-.18s-.12-.1-.19-.13-.14-.07-.21-.09c-.1-.03-.21-.01-.31.02-.12.04-.21.12-.24.24-.02.06-.02.12,0,.19.02.06.05.11.09.15,0,0,.01.01.02.02l-.06-.07s.06.1.1.14c.05.04.1.07.15.11l-.09-.07c.07.05.13.12.18.19l-.07-.09c.04.05.08.11.1.17l-.04-.11c.02.06.04.12.05.18l-.02-.12s0,.09,0,.14c0,.11.05.24.13.31s.2.13.31.13.23-.04.31-.13l.07-.09c.04-.07.06-.14.06-.22h0Z"/>
        <path class="cls-4" d="M68.96,32.56l-.21-.38c-.03-.06-.06-.1-.1-.15-.02-.03-.05-.05-.07-.08s-.05-.05-.07-.08c-.06-.07-.13-.09-.22-.1,0,0-.02,0-.03,0-.09,0-.18.05-.22.12,0,0-.01.02-.02.03-.04.08-.05.16-.03.24,0,.03.01.06.02.1,0,.04.02.07.02.11.01.06.05.12.07.17l.19.4c.04.08.14.15.23.18.09.03.21.01.29-.04s.15-.13.18-.23.01-.2-.04-.29h0Z"/>
        <path class="cls-4" d="M39.1,34.45c.06-.07.13-.13.17-.21l.1-.17c.04-.06.07-.11.09-.17.03-.06.05-.11.06-.17,0-.01,0-.03,0-.04.02-.1.01-.19-.04-.28-.03-.06-.1-.11-.16-.14-.03-.02-.06-.02-.09-.02-.05-.01-.09,0-.14,0-.13.02-.25.17-.31.28-.04.08-.08.17-.11.25l-.07.18c-.02.06-.03.13-.04.2-.01.07-.01.13.02.2.03.06.07.12.13.15.12.06.28.05.38-.05h0Z"/>
        <path class="cls-4" d="M40.26,32s.07-.09.1-.14l-.11.11s.07-.05.1-.08.05-.07.08-.1c.03-.04.04-.07.06-.12.01-.04.01-.09.02-.14v-.09s-.03-.05-.04-.08l-.05-.07s-.06-.05-.1-.07c-.03-.01-.05-.02-.08-.02-.03,0-.06,0-.09,0-.03,0-.06,0-.08.02-.04.01-.08.04-.1.07l-.02.02h-.01s-.04.06-.05.08c-.02.04-.04.08-.05.13s-.03.08-.03.13c0,.02,0,.03,0,.05v-.08c0,.05-.02.11-.04.16-.01.04-.01.07,0,.11,0,.04.01.07.03.1l.04.06s.05.05.09.06c.02.01.04.02.07.02.04,0,.07,0,.11,0l.07-.03s.07-.06.1-.1h0Z"/>
        <path class="cls-4" d="M25.17,61.68c.04-.1.07-.21.1-.31.03-.14.07-.28.08-.42,0-.1.02-.21,0-.31,0-.05-.01-.1-.02-.15-.01-.09-.02-.16-.07-.23-.02-.04-.06-.08-.09-.12-.1-.12-.3-.13-.43-.06-.08.05-.17.11-.21.2-.04.07-.07.16-.1.23-.04.1-.06.2-.08.3-.03.14-.03.29-.05.42,0,.11,0,.22,0,.33.01.22.16.4.38.43s.41-.11.48-.32h0Z"/>
        <path class="cls-4" d="M51.03,64.25s.02-.03.03-.04l-.02.03s0-.01.01-.02c.02-.02.03-.04.05-.05l-.05.04h0s-.04.01-.07.02c.05,0,.09-.03.14-.06.03-.02.05-.04.07-.06.03-.03.06-.05.09-.08.06-.06.11-.12.17-.17l-.08.06c.06-.04.12-.08.17-.13.03-.03.06-.06.09-.08l-.07.06s.06-.04.09-.07.05-.06.07-.09l-.06.07s.05-.06.08-.09c.09-.09.11-.22.06-.34s-.16-.18-.28-.19c-.04,0-.07,0-.11,0-.1,0-.17.04-.27.08-.1.05-.19.12-.26.2-.08.09-.16.19-.2.3-.02.05-.03.1-.05.15,0,.04-.02.08-.02.13,0,.07.02.12.05.18l-.03-.07h0s0-.04,0-.06c0,.05,0,.11,0,.16,0,.09.06.18.16.21s.18-.02.24-.1h0Z"/>
        <path class="cls-4" d="M48.86,63.28l.17-.38s.03-.06.04-.09c.02-.04.04-.09.06-.14,0-.02,0-.04,0-.06l.02-.1s0-.03,0-.04c.01-.09.02-.14,0-.23-.03-.11-.11-.2-.22-.25-.05-.02-.09-.03-.15-.03-.07,0-.13.02-.19.05-.08.04-.14.12-.2.19-.05.05-.09.1-.12.16l-.05.08c-.06.12-.13.24-.19.35-.06.11-.08.24-.05.37.03.11.12.23.22.28.11.06.24.09.37.05.11-.04.23-.11.28-.22h0Z"/>
        <path class="cls-4" d="M40.24,87.42c-.01-.14,0-.29,0-.43,0-.07,0-.14.01-.21,0-.04,0-.07,0-.11,0-.07,0-.12,0-.19v.1c0-.11.01-.22-.02-.32-.05-.13-.16-.19-.29-.17-.12.03-.23.13-.32.21-.06.05-.09.12-.12.19-.03.07-.07.15-.09.23s-.03.17-.04.25c0,.05-.01.1,0,.15.01.14.04.28.08.41.06.2.25.32.45.29.09-.01.18-.05.24-.11.07-.08.13-.18.12-.29h0Z"/>
        <path class="cls-4" d="M42.47,87.73c.03-.16.06-.33.09-.49.01-.07.03-.14.03-.21,0-.04,0-.08,0-.12,0-.04,0-.08,0-.13,0-.09-.03-.17-.08-.24-.08-.13-.28-.21-.42-.11-.07.05-.14.09-.18.17-.02.04-.03.07-.05.11-.01.03-.03.06-.04.1-.03.07-.05.13-.07.21l-.1.48c-.02.11-.02.23.04.33.05.09.15.17.26.2.11.03.23.02.33-.04.09-.06.18-.15.2-.26h0Z"/>
        <path class="cls-4" d="M78.04,83.02s0-.02,0-.03l-.13.22s.09-.06.13-.11c.04-.05.06-.1.07-.17,0-.03,0-.06.01-.09,0-.06,0-.13-.03-.18-.04-.09-.07-.17-.13-.25s-.11-.15-.17-.22c-.12-.12-.32-.19-.49-.13h.17c-.1-.02-.2-.04-.3,0-.06.02-.11.05-.14.11-.03.05-.05.12-.02.18,0,.02.02.05.03.07.02.05.06.09.09.13l-.05-.06s.02.03.03.04l-.04-.16c0,.08,0,.16.05.23.03.05.06.1.1.14.04.04.08.08.12.13l-.06-.08c.05.06.09.13.12.2l-.04-.09c.04.09.05.12.11.19,0,0,.01.01.02.02.06.07.14.11.23.13l-.18-.18s0,.02,0,.03c0,.06.07.12.12.15s.1.04.16.03c.12-.02.23-.12.22-.25h0Z"/>
        <path class="cls-4" d="M80.22,81.92v-.06c-.06.07-.11.15-.17.22h.03s.09-.04.12-.08c.03-.02.05-.04.06-.06.02-.02.04-.05.05-.08.01-.03.02-.05.03-.08.01-.05.02-.09.03-.14,0-.06,0-.05,0-.11,0-.02,0-.05,0-.07v-.05c-.02-.09-.07-.16-.13-.22-.13-.13-.35-.13-.48,0-.02.02-.03.04-.05.06-.04.05-.07.1-.07.15v.05s0,.01-.01.02v.1s0,.04,0,.06c0,.05.02.09.03.14,0,.02,0,.03.01.05.02.06.05.11.09.16.05.06.12.08.19.1l-.17-.22v.06c0,.06.03.12.07.16s.11.07.16.07c.13,0,.23-.1.23-.23h0Z"/>
      </g>
    </g>
  </g>
</svg>