<?xml version="1.0" encoding="UTF-8"?>
<svg id="Capa_2" data-name="Capa 2" xmlns="http://www.w3.org/2000/svg" viewBox="0 0 100 100">
  <defs>
    <style>
      .cls-1 {
        fill: #fff;
      }

      .cls-2 {
        fill: #fdc733;
      }

      .cls-3 {
        fill: none;
      }

      .cls-4 {
        fill: #4a2d2d;
      }

      .cls-5 {
        fill: #faae55;
      }
    </style>
  </defs>
  <g id="COLOR">
    <g>
      <rect class="cls-3" width="100" height="100"/>
      <g>
        <g>
          <path class="cls-5" d="M73.44,65.74c-2.64,0-4.57-2.47-5.27-3.53-1.52-2.29-2.55-4.9-3.54-7.43-.48-1.24-.99-2.52-1.54-3.75-1.16-2.58-2.68-5.49-5.14-7.51-2.32-1.91-5.09-3.13-7.82-3.45-.57-.07-1.16-.1-1.75-.1-1.76,0-3.6.29-5.45.87-1.27.39-2.55.86-3.79,1.31-2.66.97-5.4,1.97-8.16,2.32-.27.03-.55.05-.82.05-2.14,0-4.63-1.11-5.36-3.6-.34-1.15-.09-2.4.69-3.52.4-.58.91-1.07,1.35-1.48.18-.17.36-.32.52-.47,1-.87,1.87-1.62,1.37-3.64-.06-.24-.12-.48-.19-.72-.34-1.25-.65-2.44-.23-3.61.35-.98,1.04-1.39,1.91-1.91.33-.2.66-.4,1-.64,2-1.44,1.59-3.26,1.23-4.87-.13-.56-.26-1.15-.29-1.71-.07-1.18.44-2.25,1.44-3.02.56-.44,1.21-.73,1.89-1.03.18-.08.36-.16.54-.25,1.98-.93,2.21-2.07,2.4-3.87.15-1.38.54-2.16,1.42-2.87.71-.56,1.51-.85,2.37-.85,1.59,0,3.49,1,5.1,2.66,2.57,2.67,3.96,6.22,5.31,9.65l.48,1.22c1.99,5.11,4.71,12.12,11.39,12.12h0c.41,0,.83-.03,1.25-.08,1.52-.19,3.01-.59,4.46-.99.75-.2,1.53-.42,2.29-.59,2.69-.62,6.23-1.32,9.71-1.32.89,0,1.76.05,2.59.13,4.72.51,7.31,1.9,7.91,4.25.26,1.02.11,2.21-.43,3.28-.35.7-.91,1.27-1.5,1.88-.86.88-1.76,1.79-2.05,3.19-.11.52-.17,1.06-.22,1.57-.12,1.08-.23,2.1-.74,2.95-.59,1-1.51,1.59-2.49,2.22-.34.22-.69.44-1.03.69-1.64,1.18-1.64,2.64-1.64,4.05,0,.5,0,1.02-.08,1.53-.17,1.18-.73,2.01-1.75,2.64-.27.16-.54.29-.84.43-.8.37-1.7.79-2.21,1.89-.26.57-.32,1.24-.36,1.82-.02.27-.04.52-.08.74-.25,1.51-.79,2.35-1.88,2.88-.65.32-1.32.48-1.98.48h0Z"/>
          <g>
            <path class="cls-4" d="M64.65,34.78h0c-.27.01-.53.02-.8.02-4.32,0-7.95-1.78-10.23-5.01-.08-.12-.2-.18-.33-.18-.16,0-.32.1-.4.24-.07.14-.06.29.02.43,2.25,3.43,6.04,5.57,9.89,5.57.65,0,1.3-.06,1.93-.18.27-.05.4-.29.38-.49-.02-.19-.16-.38-.46-.38Z"/>
            <path class="cls-4" d="M52.18,35.09s-.04,0-.07,0c-.24,0-.37.19-.39.38-.02.21.12.39.33.42,2.82.47,4.88,1.87,7.06,3.36.36.24.72.49,1.09.74.07.05.15.07.24.07.16,0,.31-.09.38-.22.07-.13.05-.27-.04-.4-1.98-2.83-5.77-3.93-8.61-4.34Z"/>
          </g>
        </g>
        <g>
          <path class="cls-2" d="M21.12,90.73c-.95,0-1.83-.27-2.62-.79-1-.67-1.61-1.78-1.73-3.14-.06-.7,0-1.41.09-2,.03-.25.07-.48.1-.69.21-1.31.39-2.44-1.28-3.67-.2-.15-.4-.29-.61-.43-1.06-.75-2.06-1.46-2.49-2.62-.36-.97-.09-1.73.24-2.69.12-.36.25-.73.36-1.14.61-2.38-.87-3.52-2.17-4.53-.46-.35-.93-.72-1.32-1.13-.8-.86-1.1-2.01-.83-3.24.15-.7.46-1.33.79-2.01.09-.18.17-.35.26-.53.93-1.98.37-3.01-.63-4.51-.77-1.16-.97-2-.74-3.11.64-3.12,4.18-3.46,5.67-3.46.41,0,.82.02,1.23.07,3.68.4,7.03,2.24,10.26,4.01l1.14.63c3.21,1.78,7.21,3.99,11.01,3.99,2.49,0,4.64-.96,6.41-2.84,1.05-1.12,1.93-2.38,2.79-3.61.45-.64.91-1.3,1.38-1.92,2.29-3.01,5.12-6.41,8.69-8.79,2.57-1.72,4.66-2.55,6.37-2.55.93,0,1.73.25,2.43.75.85.61,1.5,1.63,1.77,2.79.18.77.12,1.56.05,2.4-.1,1.23-.2,2.5.47,3.76.25.47.55.92.84,1.35.6.9,1.16,1.76,1.32,2.74.18,1.15-.14,2.19-.49,3.29-.12.38-.24.78-.35,1.19-.51,1.96.43,3.08,1.33,4.16.32.39.65.78.92,1.23.62,1.01.73,2.01.34,3.15-.1.29-.23.57-.37.87-.37.8-.8,1.7-.48,2.87.17.61.55,1.15.89,1.63.15.22.3.42.41.62.78,1.32.89,2.31.4,3.41-1,2.26-3.11,2.74-4.69,2.74h0c-.89,0-1.86-.15-2.82-.44-2.63-.78-5.1-2.13-7.48-3.44-1.16-.64-2.37-1.3-3.59-1.89-2.52-1.23-5.52-2.48-8.68-2.48h-.07c-3,.02-5.92.86-8.21,2.36-1.93,1.26-3.62,3.01-5.04,5.2-.72,1.11-1.41,2.29-2.07,3.44-1.42,2.44-2.89,4.97-4.79,7.01-1.18,1.27-2.83,2.02-4.41,2.02Z"/>
          <g>
            <path class="cls-4" d="M45.88,59.84c-.07-.16-.23-.26-.39-.26-.11,0-.21.04-.3.13-2.58,2.37-5.57,3.63-8.65,3.63-1,0-2.02-.14-3.02-.4-.04-.01-.08-.02-.12-.02-.21,0-.37.15-.41.37-.03.18.05.4.3.47,1.18.36,2.41.54,3.67.54,3.56,0,6.79-1.45,8.86-3.98.12-.14.14-.33.07-.49Z"/>
            <path class="cls-4" d="M45.2,65.75c-.64-.18-1.33-.26-2.05-.26-2.77,0-5.52,1.33-7.35,2.44-.16.1-.23.27-.18.44.05.18.21.31.38.31h0c.07,0,.14-.02.2-.06,2.47-1.45,4.95-1.69,7.58-1.94.43-.04.87-.08,1.31-.13.24-.03.37-.22.39-.4.01-.19-.1-.34-.29-.4Z"/>
          </g>
        </g>
        <path class="cls-1" d="M42.32,10.31c.17.23.33.46.51.68s.37.39.65.47c.35.1.73.03,1.01-.19s.44-.55.44-.91c0-.28-.11-.52-.28-.73-.18-.24-.37-.46-.56-.68-.18-.2-.53-.34-.8-.33s-.48.09-.68.24c-.19.14-.35.35-.4.59-.06.28-.06.63.11.87h0Z"/>
        <path class="cls-1" d="M45.17,14.34c.21.55.37,1.17.76,1.62.31.35.95.42,1.34.17.43-.28.62-.75.51-1.25-.1-.48-.48-.92-.74-1.33-.28-.43-.79-.62-1.27-.42-.43.18-.77.72-.59,1.2h0Z"/>
        <path class="cls-1" d="M12.38,56.06c.51-.21.96-.3,1.5-.26.55.04,1.06-.04,1.6-.07.6-.04,1.07-.68.72-1.25-1.1-1.75-3.15-1.6-4.83-.82-1.33.62-.37,2.97,1.01,2.4h0Z"/>
        <path class="cls-1" d="M19.81,57.02h.03c-.09.03-.19.07-.28.1.04-.02.09-.03.13-.03l-.31.04s.09,0,.14,0l-.31-.04c.15.02.29.07.44.07.32,0,.6-.14.83-.35l-.22.17c.17-.13.28-.2.39-.39.07-.13.08-.18.11-.27.14-.52-.1-1.06-.56-1.33-.37-.22-.9-.27-1.3-.12-.3.11-.53.27-.71.54-.2.31-.2.72-.06,1.05.12.3.33.5.62.62.14.07.29.11.46.1.21,0,.41-.05.6-.16h0Z"/>
        <path class="cls-1" d="M59.78,45.67l.09-.06s.04-.02.06-.04l.24-.19.19-.24s.06-.1.07-.16c.07-.14.11-.29.1-.46,0,0,0-.01,0-.02,0-.01,0-.02,0-.03,0-.19-.03-.27-.09-.42-.03-.09-.07-.17-.14-.24-.08-.12-.18-.21-.3-.28,0,0-.02-.01-.03-.02s-.02-.01-.03-.02c-.17-.11-.27-.12-.45-.15s-.31-.05-.5.02c-.02,0-.03.01-.05.02l-.11.05c-.21.06-.38.16-.54.31l-.19.25c-.11.19-.16.39-.17.61,0,.17.03.32.1.47.05.15.13.28.25.39.11.12.24.2.39.25.14.08.3.11.47.1.22,0,.42-.06.61-.17h0Z"/>
        <path class="cls-1" d="M86.45,34.25c.06-.02.12-.03.18-.04l-.36.05c.11,0,.21,0,.31,0l-.36-.05c.36.06.64.11,1.01.03.39-.09.69-.39.85-.76.15-.35.18-.84-.07-1.16-.2-.27-.41-.49-.72-.62-.24-.1-.44-.13-.71-.15-.29-.02-.58.02-.86.09-.68.19-1.17.97-.95,1.67s.93,1.13,1.67.95h0Z"/>
        <path class="cls-4" d="M41.42,38.29c.02.11,0-.15,0-.18,0-.08,0-.17.01-.25,0-.02.02-.24,0-.14.02-.17.02-.29-.01-.46-.05-.37-.56-.52-.85-.35-.58.36-.66,1.13-.48,1.74.1.34.48.59.84.48.39-.13.53-.46.48-.84h0Z"/>
        <path class="cls-4" d="M44.98,37.72c.02-.2.03-.4.03-.6,0-.22-.16-.46-.39-.51s-.48.03-.6.24c-.09.18-.17.36-.25.54-.09.21-.14.44,0,.65.09.14.22.25.39.3s.35.02.5-.07c.21-.12.3-.33.32-.56h0Z"/>
        <path class="cls-4" d="M73.72,60.36c.3-.26.63-.67.49-1.09l.02.18v-.04c0,.06-.01.12-.02.18.03-.17.03-.28,0-.44-.04-.22-.33-.46-.56-.43-.07,0-.14,0-.21.03-.04.01-.31.12-.09.03l.18-.02c-.44-.02-.74.39-.91.76-.15.32-.11.67.18.9s.65.18.91-.05h0Z"/>
        <path class="cls-4" d="M65.15,75.49h.01c.2.02.48-.14.57-.32.08-.18.15-.34.16-.54,0-.18-.04-.33-.12-.49-.14-.26-.52-.36-.77-.2-.15.09-.26.21-.35.36-.1.18-.11.35-.13.54s.14.48.32.57c.12.05.19.07.32.09h0Z"/>
        <path class="cls-4" d="M26.66,81.74c-.07-.09-.18-.27-.23-.39-.08-.17-.14-.44-.31-.57-.25-.2-.56-.18-.75.1-.16.24-.11.62-.01.88s.21.49.37.7c.21.28.56.4.87.17s.29-.61.06-.88h0Z"/>
        <path class="cls-4" d="M28.36,80.52c0-.16,0-.32-.02-.48-.03-.19-.07-.35-.15-.53-.15-.35-.77-.35-.92,0-.08.18-.12.34-.15.53-.02.16-.02.32-.02.48,0,.33.3.64.63.63s.64-.28.63-.63h0Z"/>
      </g>
    </g>
  </g>
</svg>