<?xml version="1.0" encoding="UTF-8"?>
<svg id="Capa_2" data-name="Capa 2" xmlns="http://www.w3.org/2000/svg" viewBox="0 0 100 100">
  <defs>
    <style>
      .cls-1 {
        fill: #fff;
      }

      .cls-2 {
        fill: #fdc733;
      }

      .cls-3 {
        fill: none;
      }

      .cls-4 {
        fill: #4a2d2d;
      }

      .cls-5 {
        fill: #faae55;
      }
    </style>
  </defs>
  <g id="COLOR">
    <g>
      <rect class="cls-3" width="100" height="100"/>
      <g>
        <g>
          <g>
            <path class="cls-2" d="M86.25,17.65c-.31-.13-.56-.06-.76.2-14.96,19.36-29.85,38.78-44.54,58.35-4.15,5.53-8.35,11.04-12.35,16.68-.06.09-.1.17-.11.25-.26.17-.39.56-.11.84.76.75,1.58,1.41,2.41,2.08.74.59,1.56,1.51,2.52,1.72.07.01.13.01.19,0,.15.04.33,0,.47-.16,10.11-11.39,19.19-23.7,28.11-36.04,8.01-11.07,15.85-22.28,23.47-33.62,1.15-1.71,2.29-3.42,3.41-5.15.45-.7,1.38-1.66,1.69-2.45.19-.49-3.14-2.17-4.4-2.71Z"/>
            <path class="cls-4" d="M34.33,97.9c1.36-1.46,2.55-3.11,3.81-4.66,3.12-3.84,6.19-7.74,9.22-11.65,9.38-12.08,18.49-24.37,27.32-36.86,5.58-7.9,11.01-15.9,16.15-24.09.32-.52-.48-.98-.81-.48-16.16,24.59-33.73,48.15-51.72,71.42-1.48,1.92-2.9,3.95-4.53,5.75-.35.38.21.94.57.57h0Z"/>
          </g>
          <g>
            <path class="cls-5" d="M70.79,11.5c-1.19-.66-2.43-1.15-3.76-1.46-.23-.05-.51.03-.63.26-11.37,21.66-22.66,43.36-33.73,65.16-3.13,6.17-6.31,12.33-9.27,18.58-.05.1-.07.21-.07.31-.26.2-.3.71.03.94.89.61,1.82,1.13,2.77,1.65.84.46,1.77,1.17,2.76,1.22.08,0,.15-.02.22-.06.14-.02.28-.09.38-.25,7.99-12.99,14.8-26.71,21.45-40.43,5.95-12.27,11.71-24.63,17.23-37.09.82-1.84,1.63-3.69,2.41-5.54.32-.75.79-1.58.96-2.39.11-.53-.29-.7-.75-.89Z"/>
            <path class="cls-4" d="M29.85,98.17c1.73-2.44,3.09-5.19,4.49-7.82,2.87-5.37,5.68-10.78,8.44-16.2,7.06-13.85,13.99-27.79,20.48-41.92,3.02-6.57,6.15-13.14,8.66-19.93.15-.4-.52-.69-.69-.29-5.61,12.99-11.58,25.81-17.84,38.5-6.21,12.6-12.54,25.16-19.09,37.6-1.69,3.21-3.24,6.57-5.15,9.66-.28.45.4.83.7.41h0Z"/>
          </g>
          <g>
            <path class="cls-2" d="M60.3,3.74c-.06-.1-.15-.18-.26-.24-.97-.71-4.29-1.41-4.64-1.25-.33.03-1.59,3.31-2.14,4.64-8.67,21.05-17.68,41.97-27.65,62.44-3.09,6.34-6.31,12.61-9.38,18.95-.04.08-.06.16-.06.23-.26.25-.36.65,0,.93.99.78,2.23,1.31,3.4,1.82.84.37,2.28,1.08,3.31,1.01.22.09.49.05.64-.22,6.08-10.48,11.1-21.56,15.86-32.69,5.14-12.03,9.91-24.22,14.4-36.5,2.24-6.12,4.4-12.26,6.48-18.44.16-.2.21-.48.05-.7Z"/>
            <path class="cls-4" d="M23.68,92.38c1.7-2.43,2.94-5.28,4.24-7.94,2.64-5.4,5.17-10.85,7.64-16.33,6.29-13.97,12.3-28.08,17.69-42.42,2.67-7.11,5.29-14.29,7.18-21.65.15-.57-.71-.81-.88-.24-4.07,13.74-9.37,27.09-14.85,40.33-5.32,12.85-10.92,25.6-16.88,38.17-1.52,3.21-2.89,6.7-4.85,9.67-.3.45.41.85.72.42h0Z"/>
          </g>
          <g>
            <path class="cls-5" d="M35.36,1.27c-1.15.01-2.3.07-3.45.14-.24.02-.49.16-.55.42-5.74,23.57-12.29,46.95-18.15,70.49-1.66,6.69-3.37,13.37-4.84,20.1-.02.1-.02.2,0,.29-.2.26-.09.77.27.91,1.02.4,2.05.69,3.1.99.92.26,1.96.73,2.94.55.09-.02.16-.06.22-.13.12-.06.23-.16.28-.32,4.86-14.46,8.4-29.36,11.79-44.23,3.03-13.29,5.86-26.64,8.43-40.02.38-1.98.75-3.96,1.1-5.94.14-.81.58-2.05.56-2.87-.02-.65-1.54-.37-1.69-.37Z"/>
            <path class="cls-4" d="M36.37,1.49c-2,11.09-4.46,22.11-6.9,33.1-3.14,14.1-6.44,28.17-10.06,42.16-1.57,6.07-3.22,12.11-4.87,18.15-.15.55.66.76.85.23,4.17-11.75,6.83-24.11,9.72-36.22,3.27-13.72,6.42-27.48,9.24-41.29,1.08-5.28,2.13-10.56,2.92-15.89.09-.57-.78-.84-.89-.25h0Z"/>
          </g>
          <path class="cls-1" d="M32.1,3.84c-.24.94-.46,1.88-.66,2.82-.18.84-.48,1.72-.42,2.58.03.41.63.66.84.23.38-.78.44-1.68.6-2.53.17-.96.32-1.92.45-2.88.07-.51-.67-.76-.8-.22h0Z"/>
          <path class="cls-1" d="M30.22,12.3c-.03.1-.06.2-.08.3-.02.11-.03.22,0,.33.02.1.08.18.15.25.09.11.26.13.39.1.34-.08.44-.42.55-.71.05-.12,0-.29-.05-.4s-.19-.21-.31-.24c-.28-.06-.56.08-.64.36h0Z"/>
          <path class="cls-1" d="M42.68,36.49c.11-.27.27-.55.2-.86-.03-.12-.13-.22-.24-.26-.13-.05-.24-.03-.36.02-.15.06-.27.24-.36.37-.07.11-.14.22-.2.33-.17.27-.03.63.25.75.14.06.27.06.41,0,.16-.07.24-.18.3-.34h0Z"/>
          <path class="cls-1" d="M43.99,34.15c.19-.33.4-.66.48-1.04.04-.2-.03-.4-.21-.51-.17-.1-.41-.08-.55.07-.29.32-.44.71-.61,1.11-.09.22.08.49.28.57.22.09.48.01.6-.2h0Z"/>
          <path class="cls-1" d="M31.52,60.54c.03-.1.07-.21.1-.31.06-.23,0-.53-.27-.59-.13-.03-.26,0-.36.08-.09.07-.14.17-.19.27s-.08.22-.11.33c-.07.21.08.48.3.53.24.05.46-.07.53-.3h0Z"/>
          <path class="cls-1" d="M44.64,56.28c.35-.27.64-.81.36-1.22-.17-.25-.52-.27-.69,0-.08.13-.13.26-.17.4,0,0-.03.09-.01.05.02-.05-.03.06,0,.02.02-.03-.03.03-.04.04-.03.03-.06.05-.08.07-.19.15-.16.48,0,.64.19.19.45.15.64,0h0Z"/>
          <path class="cls-1" d="M62.1,21.88c.26-.4.51-.81.77-1.22.24-.38.55-.76.55-1.22,0-.33-.37-.55-.66-.38-.39.23-.56.69-.76,1.09-.22.43-.44.86-.65,1.29-.24.5.44.91.75.44h0Z"/>
          <path class="cls-1" d="M64.79,17.64c0-.18,0-.35-.09-.51-.19-.32-.67-.32-.87,0-.1.16-.09.33-.09.51,0,.13.06.27.15.37s.24.16.37.15c.28-.01.52-.23.52-.52h0Z"/>
          <path class="cls-1" d="M85.84,19.58c-.39.19-.77.55-1.05.88s-.69.86-.53,1.29c.08.2.29.38.52.3.4-.14.55-.59.78-.92s.51-.59.79-.88c.34-.36-.09-.88-.52-.67h0Z"/>
          <path class="cls-1" d="M82.68,23.46c-.14.01-.28.02-.42.05l-.14.06c-.07.04-.13.09-.17.15-.08.1-.13.23-.13.36,0,.11.03.21.08.3.06.12.22.25.36.27s.28.04.42.05c.15.01.34-.08.44-.18s.19-.29.18-.44-.06-.33-.18-.44-.28-.19-.44-.18h0Z"/>
          <path class="cls-1" d="M69.95,41.04c.71,0,.71-1.1,0-1.1s-.71,1.1,0,1.1h0Z"/>
          <path class="cls-1" d="M15.15,72.36c.17-.45.45-.97.33-1.47-.08-.33-.55-.46-.78-.21-.34.37-.35.95-.43,1.43-.09.57.67.79.87.24h0Z"/>
        </g>
        <path class="cls-4" d="M24.24,47.59l.14-.02s.04,0,.07,0c.04,0,.08,0,.11-.02h.03c.05-.02.1-.05.13-.09.04-.04.06-.08.08-.13.01-.07.01-.09,0-.16-.01-.05-.04-.1-.08-.13-.04-.04-.08-.06-.13-.08h-.03s-.07-.02-.11-.03c-.02,0-.05,0-.07,0l-.14-.02s-.09,0-.13.03c-.04.01-.08.04-.11.07-.03.03-.06.07-.07.11-.02.04-.03.09-.03.13v.09c.03.06.06.11.1.15l.07.05c.05.03.11.05.17.05h0Z"/>
        <path class="cls-4" d="M24.7,43.3c.45,0,.45-.7,0-.7s-.45.7,0,.7h0Z"/>
        <path class="cls-4" d="M42.42,43.78l.04.14.02.05s.03.04.05.05c.01.01.03.02.04.02.02.01.05.02.07.02h.05s.03-.02.05-.03c.02-.01.04-.03.05-.05.02-.02.03-.04.03-.07l.04-.14s.01-.08,0-.12c-.01-.04-.03-.07-.06-.1l-.05-.04s-.07-.03-.12-.03c-.03,0-.06,0-.09.02-.03,0-.05.03-.07.05-.03.03-.05.06-.06.1-.01.04-.01.08,0,.12h0Z"/>
        <path class="cls-4" d="M50.01,49.02l.03.14v-.1s-.01,0-.01,0v-.1s0,.08,0,.12h0s0,.08.01.12c0,.01.01.03.02.04l.03.08.03.08s0,.02,0,.02h0c.01.07.04.12.08.17.05.06.06.07.14.13,0,0,.01,0,.02.01l.11.05.12.02.12-.02c.06-.01.11-.04.15-.08.03-.02.06-.05.08-.08.03-.03.05-.06.06-.1.02-.04.03-.07.03-.11.01-.06.01-.12,0-.18,0,0,0-.01,0-.02,0,0,0,0,0-.01l-.05-.11c-.03-.05-.06-.08-.1-.12l-.07-.06-.06-.06s-.02-.02-.03-.03c-.03-.02-.05-.05-.09-.07l-.1-.04s-.01,0-.02,0l.09.04s-.08-.05-.12-.08l-.08-.03h-.08s-.06,0-.08,0c-.04,0-.08.03-.11.06-.02.01-.04.03-.06.06-.02.02-.03.04-.04.07-.01.02-.02.05-.02.08,0,.04,0,.08,0,.13h0Z"/>
        <path class="cls-4" d="M58.44,33.67s.09,0,.14,0h-.1c.07,0,.15.02.22.05l-.09-.04s.09.05.14.08l-.08-.06s.06.05.08.07c.05.04.08.05.14.07,0,0,.02,0,.03.01l-.08-.04s.02,0,.03.01c.06.03.11.04.17.05.02,0,.07,0,.1-.02.14-.04.24-.19.23-.34,0-.05,0-.09-.02-.14-.02-.08-.06-.14-.11-.2-.03-.03-.06-.06-.09-.08-.06-.04-.11-.09-.17-.12-.04-.02-.09-.04-.14-.06-.02,0-.04-.01-.06-.02-.07-.01-.15-.02-.22-.02s-.14.01-.21.03c-.09.02-.19.1-.23.18l-.04.09c-.02.05-.02.1,0,.15,0,.03,0,.07.03.1.02.05.04.09.08.12.07.06.17.12.27.11h0Z"/>
        <path class="cls-4" d="M63.67,53.86l.16.22s.06.09.1.13l.05.05.02.02s0,0,.01.01h0s.05.05.08.07c.02.01.04.02.07.03,0,0,.02,0,.03.01.03.01.06.03.09.04s.07.01.1.02c.03,0,.09,0,.12-.02.05-.01.1-.04.13-.08l.02-.03s.03-.04.04-.07c0-.02.01-.03.02-.05,0,0,0-.01,0-.02v-.05s.01-.09,0-.14c0,0,0-.01,0-.01,0-.02-.02-.04-.02-.06-.02-.04-.03-.08-.05-.11-.02-.04-.05-.07-.08-.1l-.05-.05s-.06-.05-.09-.08c-.09-.07-.19-.14-.28-.21l-.08-.04s-.09-.02-.14,0c-.03,0-.06,0-.09.02-.04.01-.08.04-.11.07-.04.04-.07.1-.09.16-.01.05-.02.09,0,.14,0,.05.02.09.04.13h0Z"/>
        <path class="cls-4" d="M44.63,78.04s.03.02.04.03l-.06-.05c.08.06.16.14.22.22l-.05-.07s.03.05.05.07c.03.04.06.09.09.13l-.05-.06s.04.05.06.08c0,.01.02.03.03.04.03.06.07.1.13.13.08.05.18.05.26.01s.15-.1.17-.19c.01-.06.01-.12,0-.19,0-.02,0-.03-.01-.05-.02-.05-.04-.1-.06-.15-.03-.08-.09-.15-.15-.21-.1-.12-.21-.21-.34-.3-.07-.04-.17-.05-.24-.03s-.15.08-.19.14c-.04.07-.06.16-.03.24l.03.08s.07.09.11.11h0Z"/>
        <path class="cls-4" d="M46.61,75.61l.11.05s.09.05.13.06c.02,0,.03,0,.05,0,.05.01.09,0,.14,0l.08-.04h0s.01,0,.02-.01l-.08.03h0s-.06,0-.08,0h.03s.04,0,.06,0c.01,0,.03,0,.04,0,.04,0,.07-.03.09-.05.03-.03.05-.03.07-.08,0,0,0,0,0,0,.04-.07.05-.14.03-.21-.01-.05-.03-.08-.06-.11l.03.07h0s0,.05.01.08c0,0,0,0,0-.01,0-.03,0-.07-.01-.1l-.04-.08-.05-.07s-.02-.02-.04-.03c-.01-.01-.03-.02-.04-.03,0,0,0,0-.01,0l-.03-.02-.11-.06s-.09-.04-.13-.04c-.05-.01-.1,0-.14,0-.05.01-.09.03-.12.06-.04.03-.07.06-.09.1l-.04.09c-.02.06-.02.13,0,.19l.04.09c.03.05.08.1.13.13h0Z"/>
      </g>
    </g>
  </g>
</svg>