<?xml version="1.0" encoding="UTF-8"?>
<svg id="Capa_2" data-name="Capa 2" xmlns="http://www.w3.org/2000/svg" viewBox="0 0 100 100">
  <defs>
    <style>
      .cls-1 {
        fill: #fff;
      }

      .cls-2 {
        fill: #fdc733;
      }

      .cls-3 {
        fill: none;
      }

      .cls-4 {
        fill: #4a2d2d;
      }
    </style>
  </defs>
  <g id="COLOR">
    <g>
      <rect class="cls-3" width="100" height="100"/>
      <g>
        <g>
          <g>
            <path class="cls-2" d="M20.4,67.76c.52-.66.23-1.45.01-2.14-.61-2-1.64-3.98-2.44-5.91-1.52-3.68-3.05-7.35-4.6-11.02-.88-2.1-1.81-4.18-2.71-6.27-.44-1.02-.89-2.88-1.95-3.55-1.06-.66-1.88-.04-2.22.7-.25.53-.45,1.17-.25,2.27,1.52,8.18,6.29,15.76,9.97,23.18.6,1.2,2.45,4.94,4.17,2.75Z"/>
            <path class="cls-4" d="M6.35,39.64c-.65,2.82-.18,5.18.68,7.89.94,2.97,1.97,5.84,3.4,8.61,1.36,2.63,2.86,5.16,4.38,7.69.96,1.6,2.06,3.75,3.84,4.61.76.37,1.18-.04.51-.53-1.7-1.24-2.8-3.56-3.87-5.32-1.25-2.06-2.24-4.35-3.38-6.47-2.53-4.71-5.9-11.25-5.04-16.75.09-.57-.38-.32-.52.27h0Z"/>
          </g>
          <g>
            <path class="cls-2" d="M27.93,47.77c1.57-8.13,4.13-16.71,3.42-25-.1-1.11-.46-1.67-.84-2.12-.52-.62-1.48-1-2.32-.08-.84.92-.78,2.84-.93,3.94-.3,2.26-.64,4.51-.93,6.76-.51,3.95-1.01,7.9-1.49,11.85-.25,2.08-.72,4.26-.77,6.35-.02.73-.09,1.57.59,2.06,2.25,1.66,3.03-2.44,3.29-3.76Z"/>
            <path class="cls-4" d="M30.66,20.67c1.38,2.54,1.56,4.95,1.45,7.78-.11,3.12-.56,6.12-1.2,9.17-.61,2.89-1.16,5.77-1.95,8.61-.5,1.8-.98,4.16-2.47,5.47-.63.56-1.15.28-.63-.38,1.31-1.65,1.75-4.17,2.31-6.16.66-2.32,1-4.79,1.53-7.14,1.18-5.21,2.68-12.42.38-17.48-.24-.52.29-.41.57.12h0Z"/>
          </g>
          <g>
            <path class="cls-2" d="M34.63,57.57c7.23-4.05,15.44-7.62,21.31-13.51.79-.79.98-1.43,1.08-2.01.14-.8-.19-1.78-1.43-1.83-1.25-.05-2.67,1.23-3.61,1.83-1.92,1.22-3.86,2.42-5.77,3.65-3.35,2.16-6.69,4.32-10.02,6.5-1.75,1.15-3.72,2.2-5.35,3.51-.57.46-1.25.94-1.2,1.78.18,2.79,3.82.74,4.99.09Z"/>
            <path class="cls-4" d="M57.1,42.18c-1.05,2.7-2.78,4.38-5.01,6.13-2.45,1.92-5.04,3.52-7.79,5-2.6,1.4-5.15,2.84-7.84,4.07-1.7.78-3.82,1.93-5.77,1.64-.84-.12-.95-.7-.12-.73,2.11-.07,4.32-1.36,6.2-2.21,2.2-1,4.3-2.33,6.44-3.44,4.74-2.46,11.22-5.96,13.61-10.98.25-.52.5-.04.28.52h0Z"/>
          </g>
          <g>
            <path class="cls-2" d="M48.64,18.52c5.76,5.95,11.31,12.98,18.51,17.14.96.56,1.63.58,2.22.53.81-.07,1.67-.64,1.4-1.86-.27-1.22-1.88-2.27-2.69-3.02-1.67-1.54-3.32-3.11-5-4.65-2.94-2.68-5.89-5.36-8.85-8.02-1.56-1.4-3.08-3.03-4.76-4.28-.59-.43-1.23-.97-2.03-.7-2.65.89.26,3.88,1.19,4.85Z"/>
            <path class="cls-4" d="M69.27,36.31c-2.88-.33-4.94-1.56-7.21-3.28-2.49-1.88-4.69-3.97-6.82-6.25-2.02-2.16-4.06-4.26-5.94-6.54-1.19-1.44-2.84-3.19-3.06-5.16-.09-.84.43-1.1.67-.3.6,2.02,2.42,3.83,3.72,5.42,1.53,1.87,3.35,3.56,4.97,5.35,3.59,3.96,8.63,9.32,14.1,10.35.57.11.17.47-.43.4h0Z"/>
          </g>
          <g>
            <path class="cls-2" d="M41.33,67.93c6.75,4.8,13.5,10.69,21.33,13.47,1.05.37,1.71.27,2.28.11.78-.22,1.53-.93,1.04-2.08-.49-1.15-2.26-1.89-3.2-2.48-1.93-1.21-3.83-2.45-5.77-3.65-3.38-2.1-6.77-4.19-10.17-6.27-1.79-1.09-3.58-2.42-5.46-3.33-.66-.32-1.39-.73-2.12-.32-2.44,1.36.96,3.77,2.06,4.55Z"/>
            <path class="cls-4" d="M64.86,81.65c-2.89.21-5.15-.63-7.69-1.9-2.79-1.4-5.34-3.04-7.85-4.89-2.38-1.75-4.77-3.44-7.03-5.34-1.43-1.2-3.38-2.62-3.95-4.51-.25-.81.23-1.16.6-.42.96,1.87,3.07,3.32,4.65,4.65,1.84,1.56,3.94,2.89,5.87,4.35,4.26,3.23,10.19,7.59,15.75,7.59.58,0,.25.43-.35.47h0Z"/>
          </g>
          <g>
            <path class="cls-2" d="M14.44,89.68c8-2.16,16.83-3.63,23.96-7.91.95-.57,1.3-1.15,1.53-1.69.33-.74.25-1.77-.95-2.12-1.2-.35-2.89.55-3.95.89-2.16.72-4.33,1.4-6.49,2.13-3.77,1.28-7.54,2.56-11.3,3.87-1.98.69-4.14,1.23-6.04,2.1-.66.3-1.45.61-1.6,1.43-.5,2.75,3.52,1.65,4.82,1.3Z"/>
            <path class="cls-4" d="M39.99,80.23c-1.68,2.36-3.76,3.57-6.35,4.72-2.85,1.27-5.74,2.19-8.77,2.95-2.87.72-5.69,1.5-8.59,2.04-1.83.34-4.17.94-5.99.19-.78-.32-.75-.91.06-.73,2.06.45,4.52-.26,6.55-.63,2.37-.43,4.74-1.21,7.08-1.77,5.2-1.23,12.33-3.05,15.87-7.34.37-.44.49.08.14.57h0Z"/>
          </g>
          <g>
            <path class="cls-2" d="M65.48,51.34c3.16,7.66,5.73,16.24,10.88,22.77.69.87,1.3,1.14,1.87,1.31.78.23,1.79.02,1.99-1.21.2-1.23-.91-2.8-1.39-3.8-.99-2.05-1.94-4.12-2.94-6.16-1.74-3.58-3.5-7.15-5.27-10.72-.93-1.88-1.74-3.95-2.84-5.73-.38-.62-.79-1.36-1.62-1.4-2.79-.15-1.19,3.7-.68,4.95Z"/>
            <path class="cls-4" d="M78.08,75.48c-2.55-1.36-4.02-3.28-5.49-5.7-1.62-2.67-2.9-5.42-4.04-8.32-1.08-2.75-2.2-5.45-3.11-8.27-.57-1.78-1.46-4.02-.94-5.92.22-.82.81-.86.74-.03-.18,2.1.83,4.45,1.45,6.41.73,2.3,1.8,4.55,2.65,6.8,1.88,5,4.58,11.85,9.29,14.82.49.31-.02.5-.55.21h0Z"/>
          </g>
          <g>
            <path class="cls-2" d="M82.59,43.19c4.49-6.97,10.06-13.97,12.48-21.93.32-1.07.19-1.72,0-2.28-.26-.77-1-1.48-2.13-.94-1.13.54-1.78,2.34-2.33,3.31-1.12,1.98-2.27,3.94-3.39,5.93-1.94,3.47-3.88,6.95-5.79,10.44-1.01,1.84-2.25,3.68-3.08,5.61-.29.67-.67,1.42-.22,2.13,1.47,2.37,3.72-1.13,4.45-2.27Z"/>
            <path class="cls-4" d="M95.22,19.06c.34,2.88-.4,5.17-1.55,7.76-1.27,2.85-2.8,5.47-4.53,8.07-1.64,2.46-3.22,4.92-5.01,7.27-1.13,1.48-2.46,3.5-4.32,4.15-.8.28-1.17-.17-.45-.59,1.83-1.05,3.18-3.22,4.44-4.86,1.47-1.91,2.71-4.07,4.08-6.06,3.03-4.4,7.11-10.52,6.87-16.08-.03-.58.42-.27.49.33h0Z"/>
          </g>
          <path class="cls-1" d="M92.33,23.56c.21-.09.35-.26.45-.45.03-.05.04-.09.06-.14.05-.11.09-.23.08-.35,0-.02,0-.03,0-.05-.01-.08,0-.17-.04-.25-.06-.15-.13-.28-.26-.38-.13-.1-.28-.16-.45-.16-.27,0-.54.11-.71.33-.01.02-.03.03-.04.05-.03.04-.06.07-.09.11-.05.05-.09.11-.11.19-.05.12-.07.22-.08.35,0,.03,0,.05,0,.08,0,.27.16.54.39.68.12.07.26.11.4.11.14,0,.27-.04.4-.11h0Z"/>
          <path class="cls-1" d="M56.2,24.4s.06.08.1.12c.11.13.26.2.41.25.23.08.49.08.69-.08s.27-.4.27-.65c0-.23-.1-.42-.21-.61-.24-.42-.8-.52-1.18-.23-.17.13-.27.31-.3.52-.02.11-.02.21.01.32.04.14.11.25.21.35h0Z"/>
          <path class="cls-1" d="M61.56,30.07c.13.06.25.12.39.15.08.02.16.04.24.04.07,0,.15-.02.22-.03.1-.02.22-.12.27-.21.06-.11.07-.22.05-.35-.04-.24-.22-.47-.39-.63-.28-.27-.74-.25-.98.07-.11.14-.15.3-.13.48s.13.39.31.48h0Z"/>
          <path class="cls-1" d="M67.84,52.1l-.02.26c0,.12.02.22.07.33.03.1.09.2.17.27.08.08.17.14.27.17.1.05.21.08.33.07.22,0,.44-.08.6-.25s.26-.38.25-.6l-.02-.26c0-.11-.02-.22-.07-.32-.03-.1-.09-.19-.17-.27-.07-.08-.16-.14-.27-.17-.1-.05-.2-.08-.32-.07-.21,0-.43.08-.58.24l-.13.17c-.07.13-.11.27-.11.42h0Z"/>
          <path class="cls-1" d="M41.07,52.35l.06-.08c.06-.08.08-.14.12-.25.02-.06.04-.1.05-.17,0-.03.01-.07.01-.11l-.02-.18s0-.02,0-.03l-.06-.15c-.04-.07-.09-.13-.16-.17-.04-.04-.08-.06-.13-.08-.07-.04-.15-.06-.23-.05-.17-.02-.34.05-.49.13-.11.06-.21.16-.31.24-.15.12-.21.34-.22.52,0,.13.03.26.1.37.05.09.11.16.19.21.07.07.16.11.25.13.1.03.2.04.29.01.1,0,.19-.03.27-.09.11-.07.2-.15.27-.27h0Z"/>
          <path class="cls-1" d="M51.07,46.45c.75,0,.75-1.16,0-1.16s-.75,1.16,0,1.16h0Z"/>
          <path class="cls-1" d="M27.78,39.91c0-.49-.07-.98-.42-1.35-.19-.21-.58-.21-.77,0-.35.38-.42.86-.42,1.35,0,.42.38.83.81.81s.82-.36.81-.81h0Z"/>
          <path class="cls-1" d="M29.05,25.72c.98,0,.98-1.52,0-1.52s-.98,1.52,0,1.52h0Z"/>
          <path class="cls-1" d="M28.26,28.04c-.08.08-.16.17-.22.27-.07.11-.1.22-.11.34-.03.12-.02.24.02.37,0,0,0,0,0,.01s0,0,0,.01c.01.04.03.07.05.11.03.11.09.2.18.28l.17.13c.07.03.14.06.21.09,0,0,0,0,.01,0,0,0,.01,0,.02,0l.24.03c.17,0,.32-.04.46-.13l.19-.14h.01s.01-.02.02-.03l.05-.04c.09-.08.15-.18.19-.3.06-.11.08-.23.08-.36,0-.13-.02-.25-.08-.36-.04-.11-.1-.21-.19-.3l-.19-.14c-.14-.08-.3-.13-.47-.13l-.25.03c-.16.04-.29.12-.41.24h0Z"/>
          <path class="cls-1" d="M7.86,42.54c.15.21.29.44.46.62.07.07.14.13.2.2.2.19.39.24.66.26.4.03.66-.35.7-.7.05-.54-.46-.98-.8-1.33-.27-.28-.72-.29-1.02-.06-.28.22-.43.69-.2,1h0Z"/>
          <path class="cls-1" d="M9.37,47.17l.03.11.07.17c.04.08.1.15.18.2.04.04.1.07.15.09.08.04.17.06.27.06l.19-.02.17-.07c.08-.04.15-.1.2-.18.06-.07.1-.15.13-.24l.03-.11c.03-.13.03-.26,0-.39-.03-.12-.1-.23-.19-.32l-.15-.11c-.11-.07-.24-.1-.37-.1-.1,0-.19.02-.28.06-.09.03-.17.08-.23.15-.19.19-.25.46-.19.71h0Z"/>
          <path class="cls-1" d="M43.29,67.78c.05.21.16.46.31.62.28.29.8.37,1.11.07.3-.3.23-.84-.07-1.11-.17-.15-.4-.26-.61-.32-.45-.12-.85.29-.74.74h0Z"/>
          <path class="cls-1" d="M53.29,74.63h.02c-.07,0-.14-.02-.21-.03.02,0,.04,0,.06.01l-.19-.08s.03.02.05.03l-.16-.12s.04.03.05.05l-.13-.16c.05.07.09.15.16.21.02.01.03.03.05.05l-.12-.16s.01.02.02.02l.12.16c.07.08.16.13.25.16.06.04.13.05.2.05.1.02.21.02.31-.01.13-.04.25-.11.35-.2.15-.14.22-.36.23-.56.01-.34-.17-.67-.47-.84-.24-.14-.52-.18-.79-.1-.1.02-.19.07-.26.14-.08.05-.15.13-.2.22l-.08.19c-.03.1-.04.21-.01.31,0,.07.02.14.05.2.03.1.08.18.16.25l.16.12c.12.07.25.11.39.11h0Z"/>
          <path class="cls-1" d="M55.93,76.29l.03.11.08.2c.05.1.12.17.21.23.05.05.11.09.18.11.1.05.2.08.32.07l.22-.03.2-.08c.1-.05.17-.12.23-.21.07-.08.12-.17.15-.28l.03-.11c.04-.15.04-.3,0-.45-.04-.14-.11-.27-.22-.38l-.17-.13c-.13-.08-.28-.12-.43-.12-.12,0-.23.02-.33.07-.11.03-.2.09-.28.18-.22.22-.3.54-.22.83h0Z"/>
          <path class="cls-1" d="M31.89,83.33c.14-.12.29-.24.38-.4.1-.18.18-.4.17-.61-.02-.3-.19-.53-.48-.63-.2-.07-.44-.06-.64,0-.18.05-.34.16-.5.26-.44.28-.57.87-.25,1.29.15.19.33.3.57.33.29.04.52-.05.74-.24h0Z"/>
          <path class="cls-1" d="M35.61,81.58c.09-.02.19-.02.27-.05.26-.08.51-.33.5-.62-.01-.27-.18-.49-.42-.59-.11-.05-.23-.06-.35-.08-.12-.03-.25-.03-.37,0-.12.03-.22.09-.31.18-.13.14-.2.3-.2.49,0,.18.08.37.2.49.19.19.43.22.68.18h0Z"/>
        </g>
        <path class="cls-4" d="M75.13,70.14h.45c.07,0,.15,0,.22,0h.11c.1,0,.19-.02.27-.07.25-.15.25-.5,0-.66-.08-.05-.17-.07-.27-.07h-.11c-.08,0-.15,0-.23,0h-.45c-.1,0-.21.04-.29.12s-.12.19-.12.29c0,.22.18.41.4.4h0Z"/>
        <path class="cls-4" d="M86.02,34.14h.26s.09,0,.13,0,.08,0,.13-.01c.06-.02.1-.04.15-.07.02-.02.05-.04.07-.06.03-.03.06-.07.07-.12.02-.04.03-.09.03-.14v-.1c-.03-.06-.06-.11-.1-.16,0-.01-.02-.02-.03-.03-.04-.04-.08-.07-.13-.08-.02-.01-.04-.02-.06-.02-.05-.01-.09-.01-.13-.01h-.13c-.09,0-.17,0-.26,0-.1,0-.22.05-.29.12-.04.04-.07.08-.09.13-.03.05-.04.1-.04.16,0,.11.04.22.12.29s.18.12.29.12h0Z"/>
        <path class="cls-4" d="M66.13,32.57l.09.07h.01s.06.06.09.08c.07.04.14.06.22.06.02,0,.04,0,.06,0,.02,0,.04,0,.06,0,0,0,0,0,0,0h.03c.06-.02.12-.05.16-.1.05-.05.08-.1.09-.16v-.03s.02-.08.02-.13c0-.08-.02-.15-.06-.22-.02-.03-.05-.06-.07-.09h0s-.05-.07-.07-.1c-.04-.04-.09-.07-.14-.09-.05-.03-.11-.04-.17-.04-.06,0-.12.01-.17.04-.06.02-.1.05-.14.09l-.07.09c-.04.07-.06.15-.06.23l.02.12c.02.08.06.14.12.2h0Z"/>
        <path class="cls-4" d="M15.06,58.05l.13-.14s.07-.09.09-.14c.03-.05.04-.11.04-.17,0-.06-.01-.12-.04-.17-.02-.05-.05-.1-.09-.14l-.09-.07c-.07-.04-.14-.06-.22-.06l-.12.02c-.07.02-.14.06-.19.11l-.14.13s-.07.09-.09.14c-.03.05-.04.11-.04.17,0,.06.01.12.04.17.02.06.05.1.09.14l.09.07c.07.04.15.06.23.06l.12-.02c.08-.02.14-.06.2-.12h0Z"/>
        <path class="cls-4" d="M16.69,61.97l.71-.11.06-.03s.06-.04.07-.07c.03-.04.06-.1.06-.16,0-.05-.01-.09-.04-.13-.03-.05-.1-.11-.16-.12-.24-.04-.47-.07-.71-.11-.07-.02-.13-.02-.2,0-.06.02-.12.05-.17.1-.07.07-.11.16-.11.27,0,.1.04.2.11.27.05.05.1.08.17.1.07.02.13.02.2,0h0Z"/>
      </g>
    </g>
  </g>
</svg>