<?xml version="1.0" encoding="UTF-8"?>
<svg id="Capa_2" data-name="Capa 2" xmlns="http://www.w3.org/2000/svg" viewBox="0 0 100 100">
  <defs>
    <style>
      .cls-1 {
        fill: #fff;
      }

      .cls-2 {
        fill: #fdc733;
      }

      .cls-3 {
        fill: none;
      }

      .cls-4 {
        fill: #4a2d2d;
      }

      .cls-5 {
        fill: #faae55;
      }
    </style>
  </defs>
  <g id="COLOR">
    <g>
      <rect class="cls-3" width="100" height="100"/>
      <g>
        <g>
          <g>
            <path class="cls-5" d="M88.92,52.71c-.15-6.43-4.68-14.16-11.45-15.48.15-1.43.4-2.68.44-3.71.08-1.74-.09-3.5-.51-5.19-.82-3.32-2.63-6.29-5.3-8.44-6.22-5-15.74-3.79-21.62,1.16-4.82-5.29-13.56-5.39-19.55-2.38-6.24,3.14-9.44,11.24-7.67,17.95-3.22.76-6.29,3.12-8.21,5.6-2.34,3.04-3.83,6.62-3.92,10.49-.17,7.3,5.25,14.17,12.56,15.3-1.54,3.21-1.46,7.74-.39,10.96,1.13,3.41,3.92,6.25,7.01,7.97,6.34,3.53,14.49,2.02,19.77-2.81,5.32,4.84,13.27,6.46,19.68,2.84,3.09-1.74,5.87-4.58,7-7.99,1.07-3.22,1.14-7.76-.39-10.96,7.31-1.1,12.73-8.03,12.56-15.3ZM51.35,27.72c.05-.7,0-1.26.55-1.75.35-.31.7-.61,1.06-.91.72-.6,1.47-1.16,2.25-1.67,1.55-.99,3.27-1.75,5.11-1.96,2.68-.31,5.55.32,7.8,1.84,3.22,2.18,4.79,6.01,5.09,9.77.06.79-.38,1-.67,1.7-.38.94-1.44,1.67-2.26,2.19-1.23.77-2.48,1.5-3.69,2.29-1.19.77-2.42,1.58-3.78,2.04-4.92-4.11-8.59-3.6-11.61-3.79-.09-.25-.07-.56-.08-.82-.12-2.98,0-5.96.22-8.93ZM26.81,33.75c.04-1.46.25-2.92.68-4.32.73-2.38,2.12-4.48,4.15-5.95,2.17-1.57,5.01-2.29,7.68-2.09,1.73.08,3.43.57,4.96,1.39.86.47,1.63,1.09,2.37,1.72.64.55,1.45,1.11,1.84,1.87.37.7.27,1.52.3,2.29.04.91.13,1.81.17,2.72.08,1.87-.07,4.52-.06,6.18-2.42.22-4.8,1.06-6.9,2.61-1.54,1.13-4.41,4.09-4.41,4.09-.05-.08.98-2.53.9-2.57-2.29-1.2-5.07-2.62-7.31-3.9-.85-.49-1.82-.68-2.54-1.42-.11-.11-.78-.38-.87-.5-.93-1.28-.99-.64-.95-2.1ZM22.47,63.21c-3.22-1.92-5.57-5.45-6.13-9.15-.35-2.35.03-4.77,1.07-6.9.78-1.6,1.92-3.01,3.31-4.11,1.38-1.09,3.26-2,5.01-2.28,1.13-.18,1.86.42,2.78.94.91.52,1.81,1.03,2.72,1.54,1.7.95,3.39,1.95,5.13,2.82.57.29.05,1.02-.13,1.38-.3.59-.55,1.21-.76,1.84-.39,1.19-.61,2.47-.66,3.7-.06,1.48.15,2.94.65,4.34.16.45-.65-.95-.61-.46.04.48-.31.74-.65,1-1.26.96-2.67,1.66-3.97,2.54-.79.53-1.58,1.07-2.41,1.53-.53.29-1.1.62-1.71.73-.18.03-.36.05-.54.04-1.48-.09-1.83,1.26-3.1.5ZM49.13,74.32c0,.89-.03.66-.08,1.55-.04.75.09,1.75-.2,2.46-.18.45-.6.68-.93,1-.36.35-.74.68-1.12,1.01-.75.63-1.54,1.2-2.38,1.69-1.7.99-3.6,1.58-5.56,1.71-3.1.22-6.07-.81-8.35-2.93-1.25-1.17-2.19-2.66-2.8-4.25-.31-.8-.53-.51-.66-1.35-.32-2.03-.12-4.17.8-6.03.92-1.84,2.73-2.93,4.42-3.95,1.53-.93,3.03-1.93,4.52-2.93.56-.38.97.02,1.3.47.4.53.82,1,1.33,1.43,1.07.92,2.32,1.65,3.58,2.23,1.9.88,3.96,1.42,6.04,1.63-.03.32.09,4.51.08,6.27ZM39.36,54.29c-.84-5.61,3.72-11.49,9.29-12.33,3.11-.47,6.22.52,8.6,2.42,2.08,1.66,3.59,4.02,4.04,6.72.5,3.02-.29,6.17-2.31,8.49-1.33,1.52-3.12,2.57-5.07,3.09-6.11,1.64-13.56-1.71-14.55-8.39ZM71.73,78.04c-2.02,3.58-6.12,5.88-10.23,5.73-3.34-.12-6.51-1.76-8.95-4.04-.49-.46-.97-.96-1.22-1.58-.25-.6-.27-1.26-.28-1.91-.03-2.93.2-4.75.43-7.67,0-.11.02-.22.08-.31.11-.15.32-.18.5-.19,4.1-.3,8.29-1.97,10.72-5.29.08-.11.16-.22.28-.27.2-.08.41.03.59.14,1.35.81,2.7,1.64,4.04,2.47.67.42,1.34.83,2.01,1.25.44.27,1.01.53,1.41.89.11.09.2.19.28.3,2.32,3.27,2.25,7.07.33,10.47ZM83.73,54.05c-.22,1.45-.75,2.85-1.49,4.12-.96,1.65-2.28,3.11-3.85,4.21-1.1.78-2.39,1.29-3.67,1.71-.71.23-.83-2.35-1.56-2.71-1.4-.68-2.54-.88-3.84-1.73-1.19-.79-1.83-1.1-3.04-1.86-.32-.2-1.2-.11-1.05-.5.25-.67-.42.32-.23-.38.24-.87.4-1.75.49-2.65.18-1.79.06-3.61-.39-5.35-.18-.69-.33-1.43-.75-2.01-.22-.3-.46-.85-.17-1.14.38-.38,1-.57,1.47-.81.59-.3,1.17-.61,1.74-.93,1.15-.64,2.28-1.32,3.4-2.03.56-.36,1.12-.73,1.73-1,.48-.21,1.1-.42,1.63-.38.02,0,.05,0,.07,0,.46.06.93.33,1.37.5,1.86.7,3.55,1.54,4.95,2.99,2.52,2.62,3.73,6.34,3.19,9.94Z"/>
            <path class="cls-2" d="M88.92,48.62c-.15-6.43-4.68-14.16-11.45-15.48.15-1.43.4-2.68.44-3.71.08-1.74-.09-3.5-.51-5.19-.82-3.32-2.63-6.29-5.3-8.44-6.22-5-15.74-3.79-21.62,1.16-4.82-5.29-13.56-5.39-19.55-2.38-6.24,3.14-9.44,11.24-7.67,17.95-3.22.76-6.29,3.12-8.21,5.6-2.34,3.04-3.83,6.62-3.92,10.49-.17,7.3,5.25,14.17,12.56,15.3-1.54,3.21-1.46,7.74-.39,10.96,1.13,3.41,3.92,6.25,7.01,7.97,6.34,3.53,14.49,2.02,19.77-2.81,5.32,4.84,13.27,6.46,19.68,2.84,3.09-1.74,5.87-4.58,7-7.99,1.07-3.22,1.14-7.76-.39-10.96,7.31-1.1,12.73-8.03,12.56-15.3ZM51.35,23.63c.05-.7,0-1.26.55-1.75.35-.31.7-.61,1.06-.91.72-.6,1.47-1.16,2.25-1.67,1.55-.99,3.27-1.75,5.11-1.96,2.68-.31,5.55.32,7.8,1.84,3.22,2.18,4.79,6.01,5.09,9.77.06.79.08,1.58.12,2.37.04.74.06,1.51-.23,2.2-.38.94-1.44,1.67-2.26,2.19-1.23.77-2.48,1.5-3.69,2.29-1.19.77-2.42,1.58-3.78,2.04-4.92-4.11-9.15-6.48-12.17-6.66-.09-.25-.07-.56-.08-.82-.12-2.98,0-5.96.22-8.93ZM26.81,29.66c.04-1.46.25-2.92.68-4.32.73-2.38,2.12-4.48,4.15-5.95,2.17-1.57,5.01-2.29,7.68-2.09,1.73.08,3.43.57,4.96,1.39.86.47,1.63,1.09,2.37,1.72.64.55,1.45,1.11,1.84,1.87.37.7.27,1.52.3,2.29.04.91.13,1.81.17,2.72.08,1.87-.07,4.52-.06,6.18-2.42.22-4.8,1.06-6.9,2.61-1.54,1.13-4.41,4.09-4.41,4.09-.05-.08-.27-.15-.36-.19-2.29-1.2-4.6-2.34-6.85-3.62-.85-.49-1.97-1.01-2.7-1.76-.11-.11-.2-.22-.29-.34-.93-1.28-.62-3.12-.57-4.59ZM22.47,59.12c-3.22-1.92-5.57-5.45-6.13-9.15-.35-2.35.03-4.77,1.07-6.9.78-1.6,1.92-3.01,3.31-4.11,1.38-1.09,3.26-2,5.01-2.28,1.13-.18,1.86.42,2.78.94.91.52,1.81,1.03,2.72,1.54,1.7.95,3.39,1.95,5.13,2.82.57.29.05,1.02-.13,1.38-.3.59-.55,1.21-.76,1.84-.39,1.19-.61,2.47-.66,3.7-.06,1.48.15,2.94.65,4.34.16.45.48.93.51,1.42.04.48-.31.74-.65,1-1.26.96-2.67,1.66-3.97,2.54-.79.53-1.58,1.07-2.41,1.53-.53.29-1.1.62-1.71.73-.18.03-.36.05-.54.04-1.48-.09-2.96-.62-4.22-1.38ZM49.13,69.11c0,.89-.03,1.78-.08,2.67-.04.75.09,1.75-.2,2.46-.18.45-.6.68-.93,1-.36.35-.74.68-1.12,1.01-.75.63-1.54,1.2-2.38,1.69-1.7.99-3.6,1.58-5.56,1.71-3.1.22-6.07-.81-8.35-2.93-1.25-1.17-2.19-2.66-2.8-4.25-.31-.8-.53-1.63-.66-2.47-.32-2.03-.12-4.17.8-6.03.92-1.84,2.73-2.93,4.42-3.95,1.53-.93,3.03-1.93,4.52-2.93.56-.38.97.02,1.3.47.4.53.82,1,1.33,1.43,1.07.92,2.32,1.65,3.58,2.23,1.9.88,3.96,1.42,6.04,1.63-.03.32.09,4.51.08,6.27ZM39.36,50.2c-.84-5.61,3.72-11.49,9.29-12.33,3.11-.47,6.22.52,8.6,2.42,2.08,1.66,3.59,4.02,4.04,6.72.5,3.02-.29,6.17-2.31,8.49-1.33,1.52-3.12,2.57-5.07,3.09-6.11,1.64-13.56-1.71-14.55-8.39ZM71.73,73.95c-2.02,3.58-6.12,5.88-10.23,5.73-3.34-.12-6.51-1.76-8.95-4.04-.49-.46-.97-.96-1.22-1.58-.25-.6-.27-1.26-.28-1.91-.03-2.93.2-5.86.43-8.79,0-.11.02-.22.08-.31.11-.15.32-.18.5-.19,4.1-.3,8.29-1.97,10.72-5.29.08-.11.16-.22.28-.27.2-.08.41.03.59.14,1.35.81,2.7,1.64,4.04,2.47.67.42,1.34.83,2.01,1.25.44.27,1.01.53,1.41.89.11.09.2.19.28.3,2.32,3.27,2.25,8.18.33,11.59ZM83.73,49.96c-.22,1.45-.75,2.85-1.49,4.12-.96,1.65-2.28,3.11-3.85,4.21-1.1.78-2.39,1.29-3.67,1.71-.71.23-1.68.67-2.42.32-1.4-.68-2.72-1.51-4.02-2.36-1.19-.79-2.42-1.53-3.62-2.29-.32-.2-.54-.45-.4-.84.25-.67.55-1.31.74-2,.24-.87.4-1.75.49-2.65.18-1.79.06-3.61-.39-5.35-.18-.69-.33-1.43-.75-2.01-.22-.3-.46-.85-.17-1.14.38-.38,1-.57,1.47-.81.59-.3,1.17-.61,1.74-.93,1.15-.64,2.28-1.32,3.4-2.03.56-.36,1.12-.73,1.73-1,.48-.21,1.1-.42,1.63-.38.02,0,.05,0,.07,0,.46.06.93.33,1.37.5,1.86.7,3.55,1.54,4.95,2.99,2.52,2.62,3.73,6.34,3.19,9.94Z"/>
            <path class="cls-4" d="M74.15,36.53c-.54-.05-1.16.17-1.63.38-.61.27-1.17.64-1.73,1-1.11.71-2.24,1.39-3.4,2.03-.58.32-1.16.63-1.74.93-.47.24-1.09.43-1.47.81-.29.29-.05.84.17,1.14.42.58.57,1.32.75,2.01.46,1.74.58,3.56.39,5.35-.09.89-.26,1.78-.49,2.65-.19.69-.49,1.33-.74,2-.14.38.08.64.4.84,1.21.76,2.44,1.5,3.62,2.29,1.3.85,2.62,1.68,4.02,2.36.74.36,1.71-.08,2.42-.32,1.27-.41,2.57-.93,3.67-1.71,1.56-1.1,2.88-2.55,3.85-4.21.74-1.27,1.27-2.67,1.49-4.12.54-3.6-.67-7.32-3.19-9.94-1.4-1.45-3.09-2.29-4.95-2.99-.44-.17-.91-.43-1.37-.5-.02,0-.05,0-.07,0ZM82.29,50.13c-.38,1.89-1.29,3.64-2.62,5.04-1.96,2.07-4.37,2.64-6.84,3.69-1.2-1.01-2.68-1.83-3.96-2.68-.74-.49-1.61-1.17-2.51-1.66.93-2.67,1.17-5.6.81-8.36-.19-1.46-.61-2.82-1.2-4.1,1.29-.64,2.54-1.33,3.8-2.03,1.15-.64,2.35-1.35,4.03-2.25,3,.99,5.05,2.43,5.9,3.36,2.3,2.51,3.27,5.64,2.6,8.99Z"/>
            <path class="cls-4" d="M71.12,62.06c-.41-.36-.98-.62-1.41-.89-.67-.42-1.34-.84-2.01-1.25-1.34-.83-2.69-1.65-4.04-2.47-.18-.11-.4-.22-.59-.14-.12.05-.2.16-.28.27-2.43,3.32-6.62,4.99-10.72,5.29-.18.01-.4.04-.5.19-.06.09-.07.2-.08.31-.23,2.93-.47,5.86-.43,8.79,0,.65.03,1.31.28,1.91.26.62.73,1.12,1.22,1.58,2.44,2.28,5.61,3.92,8.95,4.04,4.11.15,8.21-2.15,10.23-5.73,1.92-3.41,1.99-8.32-.33-11.59-.08-.11-.17-.21-.28-.3ZM68.61,75.47c-2.02,1.93-4.62,2.79-7.4,2.59-3.8-.28-5.96-2.38-8.72-4.68,0,0-.01,0-.02-.01.2-2.89.1-5.87.07-8.77,4.26-.35,8.34-2.1,11.17-5.4.85.5,1.81.92,2.51,1.33,1.21.71,2.43,1.42,3.69,2.05,2.89,3.81,2.07,9.68-1.3,12.89Z"/>
            <path class="cls-4" d="M27.67,34.59c.72.74,1.85,1.27,2.7,1.76,2.24,1.28,4.56,2.42,6.85,3.62.08.04.31.11.36.19,0,0,2.88-2.95,4.42-4.09,2.1-1.55,4.48-2.39,6.9-2.61-.01-1.67.14-4.32.06-6.18-.04-.91-.13-1.81-.17-2.72-.03-.77.07-1.58-.3-2.29-.4-.76-1.21-1.32-1.84-1.87-.73-.64-1.51-1.26-2.37-1.72-1.52-.83-3.23-1.31-4.96-1.39-2.67-.2-5.51.52-7.68,2.09-2.03,1.47-3.42,3.57-4.15,5.95-.43,1.4-.63,2.86-.68,4.32-.04,1.46-.36,3.31.57,4.59.09.12.18.23.29.34ZM37.45,38.58c-1.33-1.06-7.43-4.59-8.8-5.08-.25-2-.12-3.91.07-5.9.04-.24.08-.49.13-.73.46-2.22,1.43-4.45,3.19-5.95,1.95-1.66,4.81-2.47,7.34-2.28,3.27.24,5.75,2.42,8.09,4.5.02.02.04.03.06.04-.03,2.99-.14,6.08.08,9.06-1.13.19-2.23.49-3.27.93-2.57,1.09-5.03,3.16-6.89,5.41Z"/>
            <path class="cls-4" d="M49.04,62.85c-2.08-.2-4.14-.75-6.04-1.63-1.26-.58-2.52-1.31-3.58-2.23-.5-.44-.93-.91-1.33-1.43-.33-.44-.75-.84-1.3-.47-1.49,1.01-2.98,2-4.52,2.93-1.68,1.03-3.5,2.11-4.42,3.95-.92,1.85-1.13,4-.8,6.03.13.84.36,1.67.66,2.47.61,1.59,1.54,3.08,2.8,4.25,2.27,2.12,5.25,3.15,8.35,2.93,1.96-.14,3.86-.73,5.56-1.71.84-.49,1.63-1.06,2.38-1.69.38-.32.76-.66,1.12-1.01.33-.32.76-.56.93-1,.28-.71.15-1.71.2-2.46.05-.89.08-1.78.08-2.67.01-1.76-.12-5.94-.08-6.27ZM38.86,78.06c-2.78.21-5.38-.66-7.4-2.59-3.37-3.21-4.24-8.61-1.35-12.42,1.33-.87,5.89-3.56,6.86-4.24,2.73,3.06,6.68,4.99,10.85,5.62-.07,2.95-.38,5.99-.21,8.93,0,0-.02,0-.02.02-2.77,2.31-4.93,4.4-8.72,4.68Z"/>
            <path class="cls-4" d="M27.24,60.46c.6-.11,1.18-.44,1.71-.73.84-.46,1.63-.99,2.41-1.53,1.3-.88,2.71-1.59,3.97-2.54.34-.26.69-.53.65-1-.04-.48-.35-.96-.51-1.42-.5-1.4-.7-2.86-.65-4.34.05-1.24.27-2.51.66-3.7.21-.63.46-1.25.76-1.84.18-.36.7-1.1.13-1.38-1.74-.88-3.43-1.87-5.13-2.82-.91-.51-1.82-1.03-2.72-1.54-.92-.53-1.66-1.13-2.78-.94-1.75.28-3.63,1.19-5.01,2.28-1.39,1.1-2.53,2.52-3.31,4.11-1.04,2.13-1.42,4.56-1.07,6.9.56,3.7,2.91,7.23,6.13,9.15,1.27.76,2.74,1.29,4.22,1.38.18.01.37,0,.54-.04ZM17.78,50.13c-.64-3.23.22-6.26,2.38-8.74.86-.98,1.81-1.85,3-2.4,1.02-.47,1.76-.81,3.14-1.22,1.31.93,2.93,1.66,4.12,2.33,1.49.84,2.98,1.68,4.52,2.43-1.48,3.19-2.04,6.75-1.21,10.15.13.55.44,1.37.63,1.88-1.09.48-5.98,3.58-7.19,4.58-3.22-1.3-4.69-1.87-6.63-3.84-1.4-1.42-2.37-3.23-2.76-5.18Z"/>
            <path class="cls-4" d="M51.2,33.38c3.02.18,7.26,2.55,12.17,6.66,1.36-.45,2.59-1.26,3.78-2.04s2.46-1.51,3.69-2.29c.82-.52,1.88-1.25,2.26-2.19.28-.7.27-1.47.23-2.2-.04-.79-.06-1.58-.12-2.37-.3-3.77-1.87-7.59-5.09-9.77-2.25-1.52-5.11-2.15-7.8-1.84-1.84.21-3.56.96-5.11,1.96-.79.51-1.53,1.07-2.25,1.67-.36.3-.71.6-1.06.91-.56.5-.5,1.06-.55,1.75-.22,2.97-.34,5.95-.22,8.93.01.26-.01.57.08.82ZM60.41,18.66c2.6-.28,5.61.56,7.61,2.26,1.71,1.45,2.67,3.58,3.14,5.73.27,1.23.55,5.64.63,6.61-1.27.59-6.13,4-8.22,5.09.05-.05-1.67-1.76-1.84-1.91-1.92-1.75-4.24-3.04-6.74-3.75-.21-.06-2.53-.57-2.53-.52.21-2.96.1-6.02.07-8.99.02-.01.04-.03.06-.04,2.26-2.01,4.67-4.14,7.82-4.48Z"/>
            <path class="cls-4" d="M57.63,39.85c-2.51-2-5.79-3.04-9.07-2.55-5.87.88-10.68,7.09-9.8,13,1.05,7.05,8.9,10.58,15.34,8.85,2.05-.55,3.94-1.65,5.34-3.26,2.13-2.45,2.97-5.77,2.44-8.96-.47-2.85-2.07-5.33-4.26-7.08ZM56.46,56.55c-3.11,2.05-7.71,1.95-11.03.42-2.71-1.24-4.88-3.75-5.37-6.73-.53-3.21.89-6.55,3.12-8.84,2.02-2.08,4.68-3.34,7.63-3.16,4.84.3,9.49,4.84,9.66,9.74.12,3.39-1.12,6.66-4.01,8.56Z"/>
          </g>
          <path class="cls-1" d="M46.73,35.13c-1.01.17-2.59.66-2.74,1.84-.03.27.28.57.54.54.52-.05.82-.36,1.23-.65.4-.28.8-.49,1.27-.63.72-.21.41-1.24-.31-1.11h0Z"/>
          <path class="cls-1" d="M40.56,38.78c-.24.12-.44.28-.57.51s-.13.51,0,.74c.07.11.15.2.26.26.11.07.24.1.37.1.09-.01.19-.01.27-.04.09-.03.18-.08.27-.12.12-.06.22-.16.32-.25.14-.12.23-.37.23-.54s-.06-.33-.17-.47c-.1-.13-.24-.24-.4-.28-.21-.05-.4-.02-.59.08h0Z"/>
          <path class="cls-1" d="M44.61,15.38c-.42-.29-.98-.59-1.49-.68-.35-.06-.7.04-.88.36-.17.29-.13.72.12.95.57.51,1.38.67,2.11.48.54-.14.56-.83.15-1.11h0Z"/>
          <path class="cls-1" d="M40.01,14.83c-.18.05-.35.1-.49.24-.11.12-.2.3-.19.47,0,.18.07.34.19.47.13.14.31.18.49.24.24.07.54,0,.71-.19.13-.14.21-.32.21-.52,0-.19-.08-.39-.21-.52-.18-.18-.46-.26-.71-.19h0Z"/>
          <path class="cls-1" d="M24.55,27.74v.02c.03.11.09.21.17.29.08.08.18.14.29.17h.02c.09.03.18.04.28.02.06,0,.12-.02.17-.05.09-.03.16-.08.22-.14l.11-.14.07-.16c.03-.09.03-.18.01-.28,0-.06-.02-.12-.05-.17-.03-.09-.08-.16-.14-.22l-.14-.11-.16-.07c-.09-.03-.18-.03-.28-.01-.06,0-.12.02-.17.05-.09.03-.16.08-.22.14l-.11.14-.07.16c-.03.12-.03.24,0,.37h0Z"/>
          <path class="cls-1" d="M15.56,42.25c-.9-.02-1.29.65-1.62,1.4-.38.85-.72,1.7-.46,2.63.1.36.58.5.85.22.47-.48.68-1.02.9-1.65.11-.31.22-.61.33-.91.05-.14.14-.64.27-.72.44-.28.26-.96-.26-.97h0Z"/>
          <path class="cls-1" d="M13.01,49.48v.27c.03.23.13.47.35.58-.07-.07-.09-.08-.05-.03.04.04.08.07.13.1.08.04.17.07.27.07s.19-.03.27-.07c.05-.03.09-.06.13-.1.04-.04.02-.03-.05.03.22-.11.32-.35.33-.58v-.27c.03-.36-.31-.7-.67-.69s-.71.3-.69.69h0Z"/>
          <path class="cls-1" d="M25.05,75.19c.12.33.22.73.5.96.16.13.34.21.56.15.18-.05.36-.21.4-.4.05-.22.03-.43-.02-.64-.04-.14-.09-.28-.14-.42-.11-.33-.47-.58-.83-.47-.32.1-.6.47-.47.83h0Z"/>
          <path class="cls-1" d="M84.97,54.94c.78-.43,1.21-1.51.94-2.35-.1-.33-.54-.48-.8-.21s-.44.54-.59.87-.34.67-.41,1.04c-.09.49.39.91.85.66h0Z"/>
          <path class="cls-1" d="M86.24,50.42c.06-.07.11-.13.15-.21l-.27.2.08-.02c.23-.04.43-.32.42-.55s-.12-.5-.34-.61c-.17-.09-.44-.09-.57.07-.1.12-.16.24-.22.39-.07.19.01.42.15.56l.05.05-.07-.54s-.09.12-.01.03c-.15.18-.19.46,0,.63.17.15.47.19.63,0h0Z"/>
          <path class="cls-1" d="M75.8,26.6c-.04-.2-.12-.39-.24-.55-.18-.25-.46-.51-.8-.4-.56.18-.59.9-.49,1.37.08.41.59.68.98.55.43-.14.64-.54.55-.98h0Z"/>
        </g>
        <path class="cls-4" d="M68.91,82.16s.02-.03.03-.05l-.07.09s.08-.09.13-.13l-.09.07c.05-.04.11-.07.17-.1l-.1.04c.06-.02.11-.04.17-.05s.11-.04.17-.04h-.11s.02.01.02.01h.1c.05-.03.1-.05.13-.08.05-.04.04-.03.08-.07.03-.04.05-.08.07-.13l-.04.09c.03-.06.05-.12.05-.18,0-.19-.14-.35-.32-.39-.16-.04-.32-.05-.48,0-.28.09-.51.27-.66.52-.06.09-.07.22-.04.33.03.1.1.2.19.25.1.05.22.08.33.04s.19-.1.25-.19h0Z"/>
        <path class="cls-4" d="M68.14,80.47l.28-.09c.05-.02.1-.03.15-.06.02-.01.04-.02.06-.03.04-.02.07-.04.1-.07.07-.07.12-.17.11-.27,0-.03,0-.08-.01-.1-.05-.17-.22-.29-.4-.27-.02,0-.04,0-.07,0-.06,0-.09,0-.13.02h-.03c-.09.04-.19.07-.28.1s-.18.09-.24.18c-.03.05-.04.09-.05.15-.01.05,0,.11,0,.16.03.1.09.19.18.24s.2.07.31.04h0Z"/>
        <path class="cls-4" d="M50.37,78.89c.15,0,.29.01.44,0,.07,0,.14,0,.21,0,.1,0,.2,0,.29-.06.05-.03.09-.07.13-.11.13-.14.13-.35,0-.49-.04-.04-.08-.08-.13-.11-.09-.05-.19-.06-.29-.06-.07,0-.14,0-.21,0-.15,0-.29,0-.44,0-.11,0-.22.04-.29.12-.07.07-.13.19-.12.29.01.23.18.41.41.41h0Z"/>
        <path class="cls-4" d="M24.65,63.31c.06.04.14.06.21.08.08.02.15.04.24.05.06,0,.12,0,.17,0,.08,0,.16-.01.23-.05.02-.01.04-.03.06-.05.04-.02.07-.06.1-.1.02-.04.04-.09.04-.14,0-.05-.01-.09-.04-.14-.02-.04-.06-.07-.1-.1-.02-.02-.04-.03-.06-.05-.07-.04-.15-.04-.23-.05-.06,0-.12,0-.17,0-.08,0-.16.03-.24.05-.07.02-.15.04-.21.08-.15.1-.15.3,0,.4h0Z"/>
        <path class="cls-4" d="M18.48,60.34h.34c.05-.01.11-.01.16-.03.03,0,.06-.02.08-.03.07-.03.12-.05.17-.1.01-.02.03-.03.04-.05.04-.04.07-.1.06-.16s-.02-.11-.06-.16c-.01-.02-.03-.03-.04-.05-.05-.05-.11-.08-.17-.1-.03,0-.05-.02-.08-.03-.05-.02-.11-.02-.16-.02h-.34c-.09-.01-.19.03-.26.1s-.11.17-.11.26.04.19.11.26.16.11.26.11h0Z"/>
      </g>
    </g>
  </g>
</svg>