<?xml version="1.0" encoding="UTF-8"?>
<svg id="Capa_2" data-name="Capa 2" xmlns="http://www.w3.org/2000/svg" viewBox="0 0 100 100">
  <defs>
    <style>
      .cls-1 {
        fill: #fff;
      }

      .cls-2 {
        fill: #fdc733;
      }

      .cls-3 {
        fill: none;
      }

      .cls-4 {
        fill: #4a2d2d;
      }
    </style>
  </defs>
  <g id="COLOR">
    <g>
      <rect class="cls-3" width="100" height="100"/>
      <g>
        <g>
          <g>
            <g>
              <path class="cls-2" d="M46.08,12.14c-.87.71.32,2.21-6.24,3.63-6.55,1.42-10.34.87-13.26,3.95-2.92,3.08-3,6.79-2.92,8.13s.43,2.61.43,2.61c0,0-2.96,1.97-3.36,5.45-.47,4.11,1.11,6.47,1.11,6.47,0,0-2.64,1.42-3.36,4.89-.71,3.47.63,5.37.63,5.37,0,0-4.34,1.93-4.97,6.04-.63,4.11,1.11,6,1.11,6,0,0-2.29,1.3-3,4.3-.71,3,.95,5.29.95,5.29,0,0-1.22,1.97-.36,3,.87,1.03,6.55-.55,9.87,1.82,3.32,2.37,3.32,5.37,4.26,5.29s4.33-5.61,4.82-7.74c.79-3.47-1.66-4.89-1.66-4.89,0,0,4.51-.94,4.82-5.29.28-3.95-1.93-5.64-1.93-5.64,0,0,4.41-2.31,3.91-6.99-.47-4.42-1.5-5.53-1.5-5.53,0,0,3.71-1.89,4.11-5.84.39-3.95-.71-5.05-.71-5.05,0,0,4.25-2.74,4.66-6.32.47-4.14-1.66-6.16-1.66-6.16,0,0,3.95-2.92,5.05-6.47,1.11-3.55.08-7.03-.79-6.32Z"/>
              <path class="cls-4" d="M41.18,24.67c-2.71,1.47-5.43,2.07-8.45,2.58-2.69.45-6.3.62-8.31,2.71-.32.33,0,1,.48.82,1.51-.57,2.91-1.24,4.5-1.59s3.2-.63,4.8-.96c2.67-.55,5.14-1.27,7.47-2.72.53-.33.06-1.14-.49-.84h0Z"/>
              <path class="cls-4" d="M38.61,36.86c-1.55.38-3.02.97-4.6,1.29-1.56.31-3.14.44-4.71.66-2.62.36-5.68.89-7.56,2.91-.37.4.1,1.01.58.75,1.45-.79,2.73-1.67,4.33-2.17,1.37-.43,2.78-.63,4.2-.82,2.67-.36,5.75-.37,8.13-1.74.48-.27.15-1-.37-.87h0Z"/>
              <path class="cls-4" d="M34.82,48.13c-2.6.44-5.18,1.01-7.8,1.44-2.63.43-5.88.81-7.9,2.71-.29.27,0,.79.39.67,1.43-.46,2.77-1.14,4.24-1.52s2.84-.63,4.28-.85c2.41-.37,4.92-.57,7.18-1.53.56-.24.13-1-.39-.92h0Z"/>
              <path class="cls-4" d="M32.36,60.5c-5.43,1.57-11.75.64-16.72,3.73-.51.32-.19,1.25.43,1.02,3.05-1.15,5.94-1.93,9.18-2.35,2.49-.32,5.02-.54,7.39-1.4.62-.22.38-1.19-.28-1h0Z"/>
              <path class="cls-4" d="M13.62,74.8c2.98-.96,6.02-1.41,9.11-1.78,2.33-.28,5.2-.09,7.39-.99.53-.22.52-1.08-.14-1.07-5.56.11-11.52.94-16.65,3.14-.4.17-.11.84.3.7h0Z"/>
            </g>
            <path class="cls-1" d="M25.35,31.62c-.44.3-.85.73-.98,1.26-.14.56-.08,1.17.35,1.59.46.44,1.09.19,1.3-.34-.07.19.04-.09.05-.13.02-.06.03-.12.05-.18.01-.05.03-.1.04-.15.02-.07.1-.18,0-.02.05-.09.1-.19.15-.28-.06.11-.04.08.02-.01.06-.1-.17.1.01-.02.43-.29.66-.89.36-1.36-.28-.43-.9-.67-1.36-.36h0Z"/>
          </g>
          <g>
            <g>
              <path class="cls-2" d="M92.62,29.94c-1.06.36-.49,2.18-7.12,1.18-6.63-1-9.98-2.86-13.8-1.02-3.82,1.84-5.21,5.28-5.62,6.57s-.52,2.59-.52,2.59c0,0-3.47.79-5.07,3.9-1.89,3.67-1.26,6.44-1.26,6.44,0,0-2.98.39-4.87,3.39-1.9,3-1.31,5.24-1.31,5.24,0,0-4.75.27-6.79,3.88-2.05,3.61-1.1,6-1.1,6,0,0-2.6.41-4.33,2.96-1.73,2.55-.99,5.28-.99,5.28,0,0-1.84,1.41-1.4,2.68s6.32,1.81,8.58,5.2c2.26,3.39,1.2,6.2,2.11,6.46.91.26,6.04-3.71,7.25-5.52,1.97-2.97.19-5.16.19-5.16,0,0,4.55.72,6.38-3.24,1.66-3.59.19-5.96.19-5.96,0,0,4.94-.59,6.13-5.15,1.13-4.3.56-5.7.56-5.7,0,0,4.14-.45,5.91-4.01,1.77-3.55,1.13-4.98,1.13-4.98,0,0,4.95-1.06,6.6-4.25,1.91-3.71.64-6.35.64-6.35,0,0,4.73-1.33,7.02-4.26,2.29-2.93,2.57-6.54,1.5-6.18Z"/>
              <path class="cls-4" d="M83.59,39.92c-3.06.41-5.81.01-8.81-.59-2.67-.53-6.11-1.65-8.73-.42-.41.2-.36.94.16.94,1.61,0,3.16-.13,4.77.11,1.61.24,3.22.55,4.83.81,2.69.43,5.25.63,7.95.11.62-.12.46-1.04-.16-.96h0Z"/>
              <path class="cls-4" d="M76.87,50.41c-1.58-.2-3.17-.16-4.75-.43s-3.09-.7-4.64-1.06c-2.57-.59-5.62-1.18-8.1.04-.48.24-.27.98.27.91,1.63-.23,3.14-.59,4.81-.5,1.43.08,2.83.4,4.22.72,2.62.61,5.5,1.69,8.22,1.26.54-.09.5-.88-.03-.95h0Z"/>
              <path class="cls-4" d="M69.32,59.6c-2.59-.51-5.21-.89-7.8-1.42s-5.79-1.33-8.35-.27c-.36.15-.27.74.13.76,1.5.08,2.99-.08,4.5.08s2.88.42,4.3.72c2.38.51,4.8,1.22,7.26,1.12.61-.02.48-.89-.04-.99h0Z"/>
              <path class="cls-4" d="M62.64,70.3c-5.63-.46-11.21-3.57-16.96-2.45-.59.12-.62,1.11.04,1.11,3.25.01,6.24.3,9.41,1.06,2.44.58,4.88,1.28,7.41,1.32.66.01.78-.98.1-1.04h0Z"/>
              <path class="cls-4" d="M40.04,77.01c3.12.16,6.13.82,9.15,1.57,2.27.57,4.89,1.76,7.26,1.7.57-.01.87-.83.24-1.05-5.24-1.87-11.11-3.21-16.68-2.98-.44.02-.4.74.03.76h0Z"/>
            </g>
            <path class="cls-1" d="M74.29,30.76c-.39-.11-.85-.13-1.24-.02-.58.18-1.13.73-1.04,1.38.04.31.2.56.47.72.17.1.36.13.55.13.14,0,.27-.02.4-.09.16-.07.16-.07,0,0,.03,0,.16-.05.2-.06l.26-.11c-.15.06-.17.07-.06.03l.07-.02c.09-.02.09-.02,0,0-.09,0-.09.01,0,0,.05,0,.09,0,.14,0,.5.02.92-.4.98-.87s-.23-.97-.72-1.1h0Z"/>
            <path class="cls-1" d="M66.77,41.13c-.44,0-.89.07-1.3.23-.27.11-.51.22-.71.43-.15.16-.29.39-.41.58-.19.29-.12.72.12.96.26.26.64.27.96.12,0-.01-.02-.02-.04-.01.12-.01.24-.03.36-.05.24-.11.31-.14.2-.08.05-.02.1-.04.16-.06.12-.04.25-.08.37-.11-.08,0-.06,0,.07,0,.07,0,.15,0,.22,0,.54,0,1-.46,1-1s-.46-1-1-1h0Z"/>
          </g>
          <path class="cls-1" d="M29.2,20.44c-.26.21-.52.44-.68.73-.25.45-.34,1.16.09,1.55.47.43,1.14.25,1.56-.15.15-.14.27-.32.39-.49.02-.02.12-.16.12-.17,0,0-.17.2,0,0,.18-.22.31-.45.31-.74,0-.26-.11-.56-.31-.74s-.46-.32-.74-.31c-.29.01-.51.12-.74.31h0Z"/>
        </g>
        <path class="cls-4" d="M30.45,68.55s.09,0,.13,0c.08,0,.17-.01.26-.03.06-.02.12-.05.18-.07.02,0,.04-.02.06-.03.04-.02.07-.04.11-.07.07-.05.14-.1.19-.16s.11-.12.15-.2c.03-.07.07-.15.09-.22.03-.11.02-.22-.02-.33-.06-.2-.27-.33-.48-.27-.02,0-.04.01-.06.01-.06.01-.11.04-.16.07-.04.03-.09.05-.13.08-.09.06-.18.12-.28.16l.13-.05c-.09.04-.18.08-.28.12l.13-.05s-.1.04-.15.05c-.07.02-.12.05-.17.09-.05.04-.1.08-.13.14l-.05.12c-.02.07-.02.13,0,.2,0,.05.01.09.03.13.02.06.05.12.1.16l.1.08c.08.05.16.07.25.07h0Z"/>
        <path class="cls-4" d="M32.14,65.26l.21-.09c.14-.06.31-.12.39-.26.03-.04.04-.09.04-.14.01-.05,0-.1,0-.15l-.04-.09c-.03-.05-.08-.1-.13-.13-.03-.01-.06-.03-.09-.04h-.1s-.02-.01-.03-.01c-.02,0-.04,0-.05,0-.05,0-.1.01-.14.02h-.05c-.07.03-.14.05-.21.07-.05.01-.1.04-.14.07-.04.03-.08.07-.11.12-.03.05-.05.1-.05.15-.01.05,0,.11,0,.16.03.1.09.2.19.25l.1.04c.07.02.15.02.22,0h0Z"/>
        <path class="cls-4" d="M64.57,67.46c.09.03.2.04.29.04.03,0,.05,0,.08,0,.12,0,.2-.02.3-.08.05-.03.09-.06.13-.1l-.11.08h0s-.08.03-.13.05c.06-.02.11-.05.17-.07s.1-.06.14-.1c.05-.05.1-.11.14-.16.05-.09.06-.18.07-.28,0-.06-.02-.15-.05-.2-.04-.05-.08-.11-.14-.14-.04-.02-.08-.03-.12-.05l.1.04s-.01,0-.02,0c-.1-.05-.13-.06-.25-.06-.02,0-.05,0-.07,0l.13.02c-.06,0-.12-.03-.18-.02-.02,0-.04,0-.06,0l.14.02h0s.09.03.13.05c0,0-.01,0-.02-.01,0,0,0,0-.01,0l-.13-.06-.15-.02s0,0-.01,0c0,0-.02,0-.02,0-.03,0-.07,0-.1,0l.15.02s-.06-.01-.1-.02c-.07-.02-.15-.03-.22,0-.07,0-.14.03-.21.07-.07.04-.12.08-.16.14-.05.05-.08.12-.1.19l-.02.15c0,.1.03.19.08.28.08.12.19.22.33.26h0Z"/>
        <path class="cls-4" d="M66.88,64.4l.13-.07c.06-.03.11-.08.15-.12s.09-.08.12-.14c.04-.07.07-.16.07-.24,0-.07-.01-.13-.04-.19-.02-.06-.05-.11-.1-.15-.06-.06-.13-.1-.21-.12-.04,0-.09-.01-.13-.02l-.13.02s-.01,0-.02,0h-.04s-.02.01-.04.01c-.06.01-.1.04-.16.06l-.14.06c-.06.03-.11.08-.15.14-.05.05-.08.11-.09.18-.02.07-.02.14,0,.21,0,.07.02.13.06.2l.08.11c.07.07.14.11.23.13l.14.02c.09,0,.18-.02.26-.07h0Z"/>
      </g>
    </g>
  </g>
</svg>