<?xml version="1.0" encoding="UTF-8"?>
<svg id="Capa_2" data-name="Capa 2" xmlns="http://www.w3.org/2000/svg" viewBox="0 0 100 100">
  <defs>
    <style>
      .cls-1 {
        fill: #fff;
      }

      .cls-2 {
        fill: #fdc733;
      }

      .cls-3 {
        fill: none;
      }

      .cls-4 {
        fill: #4a2d2d;
      }
    </style>
  </defs>
  <g id="COLOR">
    <g>
      <rect class="cls-3" width="100" height="100"/>
      <g>
        <g>
          <g>
            <path class="cls-2" d="M57.13,77.97c-.31-6.41-2.75-12.5-5.01-18.43-2.28-5.99-5.6-11.56-7.72-17.6-1.75-5-3.12-10.1-7.03-13.93-4.09-4.01-10.05-7.32-15.88-7.31-.16,0-.3.05-.42.12-.13.03-.24.1-.35.23-3.35,4.21-4.74,9.75-4.87,15.05-.15,6.25,1.85,12.03,4.14,17.76,2.37,5.93,5.01,11.76,7.95,17.43,2.9,5.6,5.89,11.44,9.74,16.45,2.97,3.88,6.86,7.22,11.57,8.4.81.2,3.41.96,3.83.12,2.71-5.46,4.34-12.14,4.04-18.29Z"/>
            <path class="cls-4" d="M51.47,62.37c-5,.17-8.91,5.53-10.78,9.62-2.03,4.44-3.79,10.32-2.72,15.23.11.48.8.34.83-.11.16-2.56,0-4.99.53-7.54.47-2.31.99-4.76,2.04-6.9,1.04-2.11,2.47-4.3,4.14-5.96,1.81-1.81,3.89-2.64,6.15-3.68.33-.15.16-.68-.18-.66h0Z"/>
            <path class="cls-4" d="M43.33,43.65c-2.61.51-5.05,1.31-7.73,1.39-2.61.08-5.22-.3-7.7-1.13-4.49-1.5-8.49-4.51-11.3-8.32-.05.35-.09.7-.12,1.06,2.7,3.82,6.4,6.69,10.86,8.29,4.83,1.73,11.74,2.16,16.26-.64.35-.22.12-.72-.27-.65Z"/>
            <path class="cls-4" d="M32.06,45.23s.59-4.36.92-10.79-4.17-9.53-7.23-11.02-4.19-2.18-5.39,0c-1.2,2.18-1.76,11.48,1.95,15.84s9.76,5.97,9.76,5.97Z"/>
            <path class="cls-4" d="M42.17,70.72s-.93,4.23-1.03,10.66c-.1,6.87,3.18,11.08,6.08,12.86,2.71,1.67,4.09,2.59,5.39.46,1.3-2.12,2.27-10.77-1.62-16.61-3.18-4.76-8.82-7.38-8.82-7.38Z"/>
          </g>
          <g>
            <path class="cls-2" d="M80.63,69.86c1.46-6.25.78-12.77.23-19.09-.55-6.39-2.22-12.66-2.6-19.04-.31-5.29-.24-10.57-2.95-15.32-2.84-4.97-7.66-9.79-13.27-11.39-.15-.04-.3-.04-.43,0-.13,0-.26.03-.4.13-4.38,3.13-7.23,8.08-8.8,13.14-1.86,5.97-1.52,12.07-.88,18.21.66,6.35,1.6,12.68,2.87,18.94,1.25,6.18,2.53,12.61,4.86,18.49,1.8,4.54,4.62,8.82,8.83,11.25.73.42,3.01,1.86,3.65,1.16,4.1-4.51,7.5-10.48,8.9-16.48Z"/>
            <path class="cls-4" d="M79.45,53.3c-4.85-1.21-10.09,2.88-13.01,6.3-3.17,3.71-6.47,8.88-6.79,13.9-.03.5.67.55.83.12.86-2.42,1.37-4.8,2.57-7.11,1.09-2.1,2.26-4.31,3.85-6.07,1.58-1.74,3.56-3.46,5.61-4.6,2.23-1.24,4.46-1.47,6.92-1.85.35-.06.34-.61,0-.69h0Z"/>
            <path class="cls-4" d="M76.76,33.06c-2.65-.23-5.21-.12-7.82-.78-2.54-.64-4.94-1.72-7.09-3.2-3.91-2.67-6.93-6.66-8.59-11.1-.14.33-.28.65-.41.99,1.55,4.41,4.32,8.19,8.17,10.94,4.17,2.98,10.7,5.29,15.82,3.84.4-.11.31-.66-.09-.7Z"/>
            <path class="cls-4" d="M65.48,31.49s1.76-4.03,3.84-10.12c2.08-6.09-1.41-10.3-3.94-12.58-2.53-2.27-3.44-3.25-5.19-1.48-1.75,1.77-4.84,10.56-2.46,15.77,2.37,5.21,7.75,8.41,7.75,8.41Z"/>
            <path class="cls-4" d="M68.23,58.78s-2.05,3.81-3.91,9.97c-1.98,6.58.02,11.53,2.32,14.04,2.15,2.35,3.22,3.61,5.05,1.92,1.83-1.69,5.13-9.73,2.99-16.42-1.75-5.45-6.46-9.51-6.46-9.51Z"/>
          </g>
          <path class="cls-1" d="M54.17,32.91s.04.03.06.04l-.21-.17c.08.06.15.13.21.21l-.17-.21c.1.13.19.26.3.39l-.16-.21c.07.1.15.2.23.29.1.12.3.22.45.26.22.06.45.04.66-.05.17-.07.3-.17.41-.31.13-.16.24-.4.22-.62-.02-.15-.03-.3-.09-.45-.07-.19-.15-.32-.27-.48-.17-.21-.34-.37-.57-.52s-.57-.17-.81-.11-.51.26-.63.49c-.13.25-.19.54-.11.81s.25.47.49.63h0Z"/>
          <path class="cls-1" d="M54.4,36.5c.09.14.18.29.3.4.15.14.31.25.51.31s.41.04.61,0h-.5s.03.01.05.02c.28.08.56.01.78-.16.24-.18.33-.41.35-.71,0-.02,0-.04,0-.06l-.13.47c.11-.16.19-.39.18-.59,0-.11-.02-.24-.06-.35-.07-.18-.12-.29-.22-.43-.16-.24-.37-.42-.65-.5-.26-.07-.61-.04-.84.11s-.44.37-.5.65-.06.6.11.84h0Z"/>
          <path class="cls-1" d="M78.47,50.17s.01-.1.03-.15l-.08.19.04-.09c.07-.11.1-.24.1-.37,0-.1-.02-.2-.06-.28-.03-.09-.08-.17-.15-.24-.09-.09-.2-.15-.32-.19-.03,0-.07-.01-.1-.02l.2.08-.1-.05-.24-.1c-.13-.04-.26-.05-.39-.02-.09,0-.17.02-.25.07-.08.02-.16.07-.22.13-.11.07-.19.16-.25.28l-.1.24-.04.26c0,.14.02.26.09.38.02.08.07.16.13.22.04.07.1.13.18.18.1.09.21.15.34.18l.26.04.26-.04.24-.1c.12-.06.21-.15.28-.25.09-.1.15-.21.18-.34h0Z"/>
          <path class="cls-1" d="M45.92,53.19l.12-.14c.06-.08.13-.15.18-.23l.09-.21c.01-.08.02-.16.03-.24,0-.14-.03-.23-.08-.35-.02-.07-.06-.14-.11-.19-.02-.03-.04-.07-.07-.09-.03-.03-.06-.05-.09-.07-.06-.06-.12-.09-.2-.11-.07-.04-.14-.06-.23-.06-.04-.01-.09-.02-.13-.02-.01,0-.03,0-.04,0h-.19c-.18,0-.35.05-.51.15-.15.09-.27.21-.36.36-.09.16-.14.33-.14.51,0,.14.02.27.09.39.04.12.11.23.21.32.13.12.27.21.44.26.18.05.36.05.53,0,.17-.05.32-.13.44-.26h0Z"/>
          <path class="cls-1" d="M18.44,44.38c-.1,1.1.38,2.8,1.71,2.86.52.03.86-.44.9-.9.04-.42-.25-.83-.38-1.15-.11-.28-.13-.49-.12-.81.03-.57-.51-1.06-1.06-1.06-.62,0-1,.49-1.06,1.06h0Z"/>
          <path class="cls-1" d="M20.51,51.12c0,.08,0,.16.02.25s.02.16.05.24c.03.09.09.25.16.35.05.08.12.18.19.25.11.11.24.18.38.24.33.14.72.14,1.03-.06.14-.09.28-.22.37-.36.1-.17.11-.32.13-.51l-.04.27c.05-.28.05-.34,0-.62l.04.29c-.03-.22-.03-.29-.1-.47-.03-.07-.06-.13-.09-.2l.11.27s-.02-.06-.03-.09l.04.3s0-.06,0-.1l-.04.3s0-.03,0-.05c.08-.31.03-.6-.11-.88-.1-.17-.24-.31-.41-.41-.13-.08-.27-.13-.42-.14-.15-.03-.3-.03-.45.02-.15.04-.28.1-.39.2-.12.08-.22.19-.29.32-.1.18-.15.37-.16.57h0Z"/>
          <path class="cls-1" d="M34.35,74.99c1.38,0,1.38-2.14,0-2.14s-1.38,2.14,0,2.14h0Z"/>
        </g>
        <path class="cls-4" d="M74.29,38.78c.33.01.65-.01.97-.07s.69-.14.92-.4c.08-.09.11-.21.06-.32s-.15-.17-.27-.18c-.3-.03-.6.1-.9.16-.07.02-.13.03-.2.04-.04,0-.08.01-.12.02-.02,0-.11.02-.03,0-.14.03-.29.03-.44.03-.19,0-.36.16-.36.36s.16.35.36.36h0Z"/>
        <path class="cls-4" d="M75.16,41.57l.61-.09.15-.02c.05,0,.09-.02.14-.04.04-.02.09-.03.12-.05.06-.04.11-.09.14-.15.04-.07.07-.16.05-.24-.02-.06-.06-.12-.11-.16-.06-.05-.1-.08-.18-.1-.05-.01-.1-.01-.15-.02-.13-.01-.25.02-.38.04l-.61.09c-.09.01-.19.11-.23.18-.05.08-.07.21-.04.3s.09.19.18.23l.09.04c.07.02.14.02.21,0h0Z"/>
        <path class="cls-4" d="M39.55,40.72c.19-.01.38-.03.58-.06.12-.02.25-.02.36-.05.05-.01.09-.03.14-.05.11-.04.19-.09.24-.2.06-.11.05-.25-.04-.34-.08-.08-.17-.12-.28-.13-.05,0-.1,0-.15,0-.12,0-.24.03-.36.05-.19.04-.38.08-.57.12-.16.04-.25.2-.23.36s.16.3.32.28h0Z"/>
        <path class="cls-4" d="M39.06,38.52c.15-.05.31-.1.47-.16.07-.03.15-.06.22-.09.05-.02.09-.03.13-.06.02-.01.03-.02.05-.04l.1-.07c.06-.04.11-.09.14-.16.03-.07.04-.15.02-.22-.05-.14-.17-.25-.32-.25-.11,0-.22,0-.33.02-.08.02-.15.04-.23.06-.16.04-.31.1-.47.15-.11.03-.2.1-.26.2s-.08.23-.04.33.1.2.2.26.22.08.33.04h0Z"/>
      </g>
    </g>
  </g>
</svg>