<?xml version="1.0" encoding="UTF-8"?>
<svg id="Capa_2" data-name="Capa 2" xmlns="http://www.w3.org/2000/svg" viewBox="0 0 100 100">
  <defs>
    <style>
      .cls-1 {
        fill: #fff;
      }

      .cls-2 {
        fill: #fdc733;
      }

      .cls-3 {
        fill: none;
      }

      .cls-4 {
        fill: #4a2d2d;
      }
    </style>
  </defs>
  <g id="COLOR">
    <g>
      <rect class="cls-3" width="100" height="100"/>
      <g>
        <g>
          <g>
            <path class="cls-2" d="M42.85,41.18c.96-1.16,1.7-2.64,2.2-3.84.91-2.2.69-4.83-.15-7.04-.04-.11-.08-.22-.12-.32-.21-.51-.45-.97-.72-1.42.11-.09.22-.17.31-.26,2.81-2.54,1.4-7.43-.7-10.05-2.8-3.49-6.91-4.49-10.91-2.42-3.33,1.73-5.35,4.8-5.54,8.31-.03.47-.02.94.02,1.41v.02c.04.47.11.95.22,1.44.07.32.15.63.24.94.04.15.09.31.14.45.1.3.2.6.32.89.06.15.12.29.18.43.06.14.12.27.18.41.07.15.14.29.21.44-.02.02-.04.04-.06.06-3.01,2.76-2.93,7.7-1.42,11.24.47,1.11,1.06,2.17,1.72,3.18-1.92,2.23-3.32,5.44-2.9,8.36.23,1.63.95,3.1,1.9,4.45-2.73,3.52-2.05,9.01.1,12.79-2.46,1.22-2.91,4.95-2.36,7.35.47,2.08,1.47,3.98,2.02,6.03.66,2.46,0,4.73.19,7.18.04.58.51.87.95.82.05,0,.1,0,.16-.01,2.83-.63,5.24-3.46,6.9-5.66,0,0,0,0,0-.01.6.16,1.2.34,1.78.56,1.01.4,2.23,1.32,3.32,1.57.44.15.98-.01,1.16-.59.69-2.37.12-4.51-1.07-6.44,2.08-1.67,2.79-5.1,2.55-7.59-.06-.63-.18-1.25-.35-1.85,1.67-3.06,2.55-7.03,1.7-10.33-.41-1.59-1.06-2.89-1.88-4.07,0,0,0,0,0,0,.25-.52.48-1.05.67-1.6,0-.01.01-.03.01-.04.15-.42.28-.84.4-1.26.03-.12.06-.25.09-.37.01-.02.01-.04.02-.07.03-.14.06-.28.09-.41.03-.14.06-.28.09-.42,0,0,0,0,0-.01.03-.13.05-.26.07-.4,0-.02,0-.04,0-.06.02-.11.03-.22.05-.34,0-.05.01-.1.01-.15.01-.11.03-.22.04-.33.01-.12.02-.23.03-.35,0-.09.01-.19.01-.29,0-.08.01-.16.01-.24.02-.62,0-1.23-.07-1.85-.02-.24-.06-.49-.09-.73-.03-.22-.07-.44-.12-.66-.04-.2-.09-.4-.14-.6-.31-1.19-.79-2.36-1.46-3.46-.04-.06-.08-.13-.12-.19-.06-.09-.12-.18-.17-.27-.26-.41-.55-.81-.84-1.2.41-.31.79-.69,1.13-1.11Z"/>
            <path class="cls-4" d="M28.86,45.42c1.28,2.38,4.13,3.36,6.27,4.78,1.55,1.03,3.01,2.3,4.36,3.58,1.28,1.22,2.11,2.63,3.14,4.04.4.55,1.35.25,1.15-.49-.75-2.82-3.56-5.14-5.83-6.77-2.78-1.99-6-3.17-8.37-5.7-.36-.39-.96.11-.71.55h0Z"/>
            <path class="cls-4" d="M27.99,30.58c1.28,2.38,4.13,3.36,6.27,4.78,1.55,1.03,3.01,2.3,4.36,3.58,1.28,1.22,2.11,2.63,3.14,4.04.4.55,1.35.25,1.15-.49-.75-2.82-3.56-5.14-5.83-6.77-2.78-1.99-6-3.17-8.37-5.7-.36-.39-.96.11-.71.55h0Z"/>
            <g>
              <path class="cls-4" d="M44.37,28.31c-1.46-1.36-3.11-2.6-4.33-3.81.65-1.61,1.2-4.07.49-5.49-.83-1.66-2.5-2.19-2.82-2.28.07-.19.15-.38.24-.6.16-.37.4-1,.03-.86-1.27.15-2.14,2.8-1.93,4.47.29,2.32,1.29,3.98,3.34,5.96,1.66,1.6,4.37,3.05,4.75,3.03.05,0,.32-.12.22-.42Z"/>
              <path class="cls-4" d="M37.11,64.79c-3.09-2.1-5.76-4.28-8.44-6.88-.36-.35-1.01.11-.72.55,1.83,2.72,4.58,4.53,7.1,6.53,1.41,1.12,2.87,2.19,4.26,3.35,1.31,1.1,2.26,2.36,3.4,3.6.42.46,1.24-.02,1.05-.61-.87-2.79-4.37-4.97-6.66-6.53Z"/>
              <path class="cls-4" d="M37.19,76.92c-2.73-2.38-6.18-4.19-8.59-6.9-.38-.42-1.12.14-.79.61,1.75,2.55,4.59,4.29,6.95,6.22,1.12.92,2.17,1.88,3.14,2.94-.13.36-.28.71-.42,1.03-.31.73-.67,1.44-1.04,2.14-.64,1.25-1.42,2.42-2.34,3.49-.91,1.06-1.93,2.01-3.04,2.86-.59.45-1.22.83-1.82,1.26-.25.18-.55.37-.75.62-.11.14-.27.32-.22.51.07.25.52.38.75.33,2.82-.64,5.24-3.46,6.9-5.66,1.06-1.41,1.96-2.94,2.68-4.55.11-.24.23-.5.35-.77,1.61,2.12,2,3.98,2.01,6.76,0,.76,1.11.91,1.32.18,1.27-4.39-2-8.38-5.1-11.07Z"/>
            </g>
          </g>
          <g>
            <path class="cls-2" d="M72.64,38.44c1.15-.97,2.15-2.29,2.84-3.38,1.29-2.01,1.54-4.63,1.11-6.95-.02-.11-.04-.23-.06-.34-.12-.54-.27-1.04-.46-1.52.13-.06.24-.13.35-.2,3.22-2,2.7-7.06,1.1-10.02-2.13-3.93-6-5.65-10.31-4.32-3.59,1.11-6.12,3.77-6.93,7.19-.11.45-.19.92-.23,1.39v.02c-.05.47-.06.96-.05,1.45.01.32.04.64.07.96.02.16.03.32.05.47.05.31.1.62.16.93.03.15.07.31.1.46.03.15.07.29.11.43.04.16.08.31.13.47-.03.01-.05.03-.07.05-3.46,2.18-4.25,7.05-3.4,10.81.27,1.17.66,2.32,1.13,3.44-2.29,1.86-4.24,4.76-4.35,7.71-.06,1.64.38,3.22,1.08,4.71-3.31,2.98-3.63,8.5-2.17,12.61-2.64.76-3.75,4.35-3.63,6.81.1,2.13.74,4.18.92,6.3.22,2.54-.84,4.65-1.09,7.1-.06.58.35.95.79.98.05.01.1.02.16.02,2.89-.12,5.77-2.47,7.8-4.34,0,0,0,0,0,0,.56.26,1.12.55,1.65.87.93.57,1.96,1.7,2.99,2.13.41.23.97.16,1.24-.38,1.1-2.21.92-4.42.09-6.53,2.34-1.27,3.65-4.52,3.86-7.01.05-.63.04-1.26-.02-1.89,2.18-2.71,3.76-6.46,3.51-9.87-.12-1.64-.53-3.04-1.12-4.34,0,0,0,0,0,0,.34-.47.66-.95.95-1.45,0-.01.02-.03.02-.04.22-.38.42-.78.61-1.17.05-.12.11-.23.16-.35.01-.02.02-.04.03-.06.05-.13.11-.26.16-.39.05-.13.11-.26.16-.4,0,0,0,0,0-.01.05-.12.09-.25.14-.38.01-.02.01-.04.02-.05.04-.11.07-.21.11-.32.02-.05.03-.09.04-.14.03-.1.06-.21.1-.32.03-.11.06-.23.09-.34.02-.09.05-.18.07-.28.02-.08.04-.16.05-.23.13-.61.22-1.21.26-1.83.02-.24.03-.49.04-.73,0-.22,0-.45,0-.67,0-.21-.02-.41-.03-.62-.09-1.23-.36-2.46-.83-3.67-.03-.07-.05-.14-.08-.2-.04-.1-.08-.2-.12-.29-.19-.45-.39-.9-.61-1.33.45-.23.9-.54,1.31-.89Z"/>
            <g>
              <path class="cls-4" d="M72.84,21.53c.92-1.47,1.91-3.8,1.46-5.32-.52-1.78-2.07-2.6-2.37-2.75.1-.17.21-.35.34-.55.22-.34.57-.92.19-.84-1.28-.08-2.6,2.37-2.69,4.05-.12,2.34.56,4.15,2.23,6.46,1.35,1.87,3.75,3.78,4.14,3.83.05,0,.34-.06.29-.37-1.19-1.6-2.59-3.12-3.58-4.52Z"/>
              <path class="cls-4" d="M58.91,39.71c-.29-.44-.96-.07-.8.42.84,2.57,3.47,4.04,5.32,5.82,1.34,1.29,2.55,2.8,3.65,4.3,1.05,1.43,1.61,2.97,2.37,4.53.3.61,1.28.49,1.22-.27-.24-2.91-2.59-5.69-4.54-7.7-2.38-2.46-5.34-4.19-7.23-7.1Z"/>
              <path class="cls-4" d="M60.7,24.95c-.29-.44-.96-.07-.8.42.84,2.57,3.47,4.04,5.32,5.82,1.34,1.29,2.55,2.8,3.65,4.3,1.05,1.43,1.61,2.97,2.37,4.53.3.61,1.28.49,1.22-.27-.24-2.91-2.59-5.69-4.54-7.7-2.38-2.46-5.34-4.19-7.23-7.1Z"/>
              <path class="cls-4" d="M62.78,60.66c-2.67-2.62-4.9-5.24-7.08-8.27-.29-.41-1.02-.07-.8.42,1.31,3,3.7,5.27,5.83,7.69,1.19,1.36,2.44,2.66,3.59,4.05,1.09,1.31,1.8,2.73,2.7,4.15.34.53,1.22.2,1.15-.42-.36-2.9-3.41-5.67-5.39-7.62Z"/>
              <path class="cls-4" d="M53.47,64.29c-.29-.48-1.12-.06-.89.46,1.27,2.82,3.75,5.04,5.73,7.36.95,1.11,1.79,2.26,2.55,3.48-.19.32-.39.63-.58.91-.44.66-.92,1.29-1.4,1.93-.85,1.12-1.83,2.13-2.92,3.01-1.08.88-2.26,1.64-3.5,2.27-.66.34-1.35.6-2.01.92-.28.13-.61.27-.85.48-.13.11-.33.27-.31.46.02.26.45.47.68.46,2.89-.12,5.77-2.47,7.8-4.35,1.3-1.2,2.45-2.54,3.44-4,.15-.22.31-.45.48-.69,1.21,2.37,1.26,4.28.77,7.01-.13.75.93,1.09,1.27.41,2.03-4.09-.48-8.6-3.05-11.8-2.27-2.83-5.34-5.22-7.23-8.32Z"/>
            </g>
          </g>
          <path class="cls-1" d="M30.51,19.94c-1.03.54-1.95,2.23-1.33,3.34.37.65,1.23.7,1.75.22.4-.36.45-.88.63-1.36.12-.31.29-.66.42-1.07.27-.87-.73-1.51-1.47-1.13h0Z"/>
          <path class="cls-1" d="M27.66,37.7c.03.14.05.28.08.42.04.2.15.38.23.57.17.38.73.58,1.11.45.16-.05.31-.14.43-.25.2-.19.26-.44.29-.7.02-.13.04-.26.02-.39s-.03-.26-.05-.39c-.04-.3-.11-.54-.32-.76-.23-.25-.58-.34-.91-.3-.29.04-.52.17-.7.41-.22.29-.26.59-.19.94h0Z"/>
          <path class="cls-1" d="M65.4,14.77c-.85.48-1.78,1.45-1.44,2.51.19.57.88.93,1.43.58.22-.14.42-.3.57-.51.08-.12.16-.24.23-.36.01-.02.07-.14.09-.14-.08.1-.1.12-.04.06.02-.02.04-.04.06-.06.05-.05.1-.1.15-.15.04-.04.25-.19.05-.05.46-.33.72-.95.39-1.48-.32-.5-.95-.68-1.48-.39h0Z"/>
          <path class="cls-1" d="M62.71,22.64l.05-.02s.01,0,.02,0c.04-.01.09-.03.13-.05.04-.02.08-.03.12-.05.15-.09.26-.2.35-.35.09-.15.13-.32.13-.49,0-.18-.04-.34-.13-.49-.09-.15-.2-.26-.35-.35-.11-.05-.21-.09-.32-.13-.18-.05-.36-.05-.53,0-.17.05-.32.13-.44.26l-.16.2c-.09.16-.14.33-.14.51,0,.14.02.27.09.39.04.12.11.23.21.32.13.12.27.21.44.26.18.05.36.05.53,0h0Z"/>
          <path class="cls-1" d="M59.14,32.53c-.03.23-.09.47-.1.69-.02.47.28,1.02.77,1.13.54.12,1.04-.18,1.25-.67.08-.19.13-.38.18-.57.08-.27.03-.6-.11-.84-.13-.23-.39-.44-.65-.5-.28-.06-.59-.05-.84.11-.22.14-.46.38-.5.65h0Z"/>
        </g>
        <path class="cls-4" d="M41.04,62.82c.11.02.21.06.32.1-.03,0-.02,0,0,0,.01,0,.02.01.03.02.03.01.05.03.08.04.05.03.09.06.14.09,0,0,.02.02.03.02-.02-.02-.03-.02-.01-.01,0,0,0,0,.01.01.03.03.07.05.1.07.01,0,.02.02.04.03.04.03,0,0,0,0,0,0,.05.04.06.05.05.04.11.08.16.13.01,0,.02.02.03.02,0,0,.09.04.04.02.03.01.05.02.08.03.12.06.24-.04.22-.17-.03-.14-.09-.26-.19-.36-.09-.1-.2-.19-.32-.25-.05-.03-.1-.06-.16-.08-.04-.02-.08-.03-.12-.05-.01,0-.03-.01-.04-.02,0,0-.05-.02-.02,0,.01,0,.01,0,0,0-.02,0-.04-.02-.06-.03-.01,0-.03-.01-.04-.02-.03-.01-.06-.02-.08-.03-.06-.02-.12-.04-.18-.05-.12-.03-.25.04-.28.16-.03.11.03.25.16.28h0Z"/>
        <path class="cls-4" d="M41.26,60.63s.09,0,.14,0h-.09c.07,0,.15.02.22.05l-.08-.03c.08.03.15.08.22.13l-.07-.06c.07.05.13.11.18.18l-.06-.08c.05.07.1.14.15.2l-.06-.08s.06.08.08.12c.03.06.08.11.13.17l-.05-.07s.05.07.08.11c.07.08.2.11.3.08.1-.03.19-.11.22-.22s.04-.23.01-.33c-.02-.08-.06-.17-.1-.25-.08-.15-.23-.28-.37-.37-.12-.08-.26-.14-.41-.18-.17-.04-.34-.04-.51,0-.07.01-.16.08-.19.15s-.05.13-.04.2c.02.15.15.28.31.28h0Z"/>
        <path class="cls-4" d="M67.34,60.65s.02,0,.02,0l-.09-.04c.07.03.14.07.2.12l-.08-.06c.07.05.12.11.17.17l-.06-.08c.06.08.11.16.15.25l-.04-.09s.03.1.06.14c.03.04.06.08.09.11l-.05-.07s.06.09.09.13c.04.08.13.13.22.13s.18-.05.22-.13c.07-.15.13-.31.08-.48-.03-.12-.08-.24-.15-.35s-.15-.2-.25-.28c-.06-.05-.12-.09-.18-.13-.07-.04-.14-.07-.22-.1-.08-.03-.22,0-.29.04s-.15.13-.17.22c-.02.1-.02.2.04.29l.06.08s.1.08.17.1h0Z"/>
      </g>
    </g>
  </g>
</svg>