<?xml version="1.0" encoding="UTF-8"?>
<svg id="Capa_2" data-name="Capa 2" xmlns="http://www.w3.org/2000/svg" viewBox="0 0 100 100">
  <defs>
    <style>
      .cls-1 {
        fill: #fff;
      }

      .cls-2 {
        fill: #fdc733;
      }

      .cls-3 {
        fill: none;
      }

      .cls-4 {
        fill: #4a2d2d;
      }
    </style>
  </defs>
  <g id="COLOR">
    <g>
      <rect class="cls-3" width="100" height="100"/>
      <g>
        <g>
          <g>
            <path class="cls-2" d="M49.41,44.78c-.63-2.48-2.11-4.5-4.07-5.97h0s0-.09,0-.14c-.02-.43-.04-.87-.08-1.31,0-.05,0-.1-.01-.15-.42-4.64-2.14-9.49-4.92-13.09-1.5-1.94-3.37-3.47-5.59-4.53-2.58-1.23-5.15-2.03-7.54-3.66-.32-.22-.6-.08-.76.16-.01,0-.02,0-.03.02-4.42,2.94-8.96,5.89-11.66,10.62-2.15,3.78-2.55,8.79-.36,12.64.16.28.34.57.53.84,0,0,0,0,0,.01.02.03.05.06.07.08h0c-1.9,1.93-3.09,4.76-3.24,7.28-.11,1.85.28,3.69,1.04,5.37.47,1.04,1.17,2.44,2.15,3.27.22.19.46.35.72.47,0,0,0,0,0,0-.28.71-.46,1.46-.5,2.24-.18,3.04,1.63,5.68,3.62,7.79,2.24,2.38,4.85,4.58,7.55,6.41,2.51,1.7,5.72,3.84,8.81,4.11.08,0,.15,0,.21,0,.2.06.42.05.64-.04,1.41-.63,2.54-2.03,3.63-3.1,1.09-1.06,2.14-2.14,3.15-3.29,1.98-2.25,3.99-4.81,4.97-7.68.8-2.36.98-5.57.11-8.16,0-.02-.02-.05-.02-.07.26-.25.48-.54.67-.87.65-1.07.96-2.47,1.15-3.58.32-1.87.21-3.84-.26-5.68Z"/>
            <path class="cls-4" d="M31.01,23.08c-4.23-3.69-6.2-1.48-8.82,3.96-2.99,6.23-3.64,16.34,0,26.05,3.64,9.71,9.3,18.2,13.27,18.04,2.61-.11,4.17-8.3,5.34-18.12,1.86-15.61-4.69-25.48-9.79-29.93Z"/>
            <path class="cls-4" d="M17.25,38.07c-.77.68-1.5,1.51-2.24,2.23-.02-.03-.05-.05-.07-.08,0,0,0,0,0-.01-.19-.27-.37-.55-.53-.84.81-.66,1.66-1.27,2.42-1.84.32-.24.71.29.42.55Z"/>
            <path class="cls-4" d="M18.13,54.03c-1.1.74-1.89,1.65-2.45,2.66-.25-.12-.49-.28-.72-.47.72-1.14,1.69-2.14,2.76-2.89.42-.3.83.41.41.69Z"/>
            <path class="cls-4" d="M45.35,38.81c-.99-.69-2.05-1.28-3.14-1.85-.39-.21-.12-.86.3-.72.8.27,1.8.63,2.76,1.12.04.44.06.88.08,1.31,0,.05,0,.09,0,.14Z"/>
            <path class="cls-4" d="M47.85,54.91s-1.33-1.15-2.09-1.71c-.46-.34-.06-1.1.46-.79.79.46,1.63.98,2.3,1.64-.19.32-.41.61-.67.87Z"/>
          </g>
          <g>
            <path class="cls-2" d="M90.95,50.32c.55-2.63.12-5.43-.68-7.96-.87-2.72-2.11-5.36-3.68-7.75-1.57-2.39-3.49-4.4-4.71-7.02-.03-.07-.08-.13-.13-.17-.16-.23-.44-.4-.76-.34-2.9.53-5.83,1.11-8.73,1.69-2.55.51-5.12,1.29-7.23,2.88-3.4,2.57-5.94,7.57-4.77,11.89-1.37.37-2.69.98-3.91,1.91-3.28,2.5-4.96,7.82-3.13,11.65-.58.52-1.06,1.2-1.38,2.06-1.43,3.76-.34,8.64,1.09,12.22.85,2.14,1.96,4.17,2.95,6.24.91,1.9,1.65,4.18,3,5.79.11.13.26.22.41.26.18.28.51.45.95.36,1.88-.41,3.68-1.27,5.55-1.77,1.77-.47,3.55-.87,5.32-1.37,3.14-.89,6.45-2.11,8.81-4.46,1.39-1.38,2.15-3.07,2.05-4.84.09,0,.18-.02.27-.06,4.06-1.82,6.79-6.36,6.87-10.75.04-1.96-.43-3.62-1.24-5.06,1.68-1.16,2.67-3.5,3.08-5.4Z"/>
            <path class="cls-4" d="M53.79,57.51c5.99-1.24,11.93,0,17.33,2.74,5.02,2.55,8.5,6.22,10.6,11.45.24.6,1.14.39.99-.27-1.16-5.31-6.36-9.85-11-12.2-5.69-2.88-11.92-4.2-18.21-2.73-.66.15-.38,1.15.28,1.01h0Z"/>
            <path class="cls-4" d="M60.58,44.2c5.58-1.71,11.29-.55,16.32,2.18,1.99,1.08,3.92,2.32,5.59,3.85,1.85,1.7,2.98,3.84,4.59,5.7.36.41,1.11-.02.93-.54-1.67-4.73-6.69-8.21-10.94-10.38-5.28-2.69-11.05-3.68-16.8-1.91-.7.22-.4,1.32.3,1.1h0Z"/>
          </g>
          <path class="cls-1" d="M72.38,31.19c-.93-.61-1.9-.61-2.94-.21-.92.35-2.35,1.14-2.2,2.33.15,1.27,1.5.82,2.19.34.86-.59,1.85-.87,2.8-1.26.52-.21.66-.86.16-1.19h0Z"/>
          <path class="cls-1" d="M65.2,35.17c-.06.07-.12.14-.19.22-.01.02-.03.03-.04.05l-.15.2-.1.24s-.03.09-.05.13c-.11.3.02.68.24.9.11.11.25.19.41.24.16.04.33.04.49,0,.04-.01.08-.03.11-.04.04-.02.09-.03.13-.05.08-.02.16-.07.22-.13.05-.04.1-.08.15-.12.07-.06.14-.13.21-.19.19-.17.3-.47.3-.71s-.11-.54-.3-.71-.44-.31-.71-.3-.54.09-.71.3h0Z"/>
          <path class="cls-1" d="M59.37,46.55c-1.1.35-2.38,1.62-1.44,2.78.19.23.59.32.87.23.11-.04.21-.08.31-.13.15-.09.27-.21.36-.36l-.08.1s.24-.29.26-.31c.05-.07.08-.14.13-.21.02-.03.04-.06.06-.09.05-.07.05-.08,0,0-.13.09.05-.04.08-.08.02-.02.05-.05.08-.07-.1.08-.13.09-.07.05.07-.04.14-.09.21-.13.43-.23.58-.79.4-1.21s-.68-.71-1.15-.56h0Z"/>
          <path class="cls-1" d="M54.41,61.58c-.15.32-.31.67-.38,1.02-.04.2-.05.4-.05.61.02.39.13.65.38.94.44.51,1.3.32,1.62-.21.34-.56.12-1.26.18-1.89.09-.92-1.35-1.29-1.74-.47h0Z"/>
          <path class="cls-1" d="M18.47,24.74c-.97.39-1.67,1.18-2.13,2.11-.39.81-.78,2.16,0,2.86.22.2.62.31.89.11.61-.45.74-1.23,1.03-1.9s.85-1.2,1.29-1.8c.48-.64-.33-1.7-1.07-1.4h0Z"/>
          <path class="cls-1" d="M15.26,33.03l.07.12c.15.27.46.44.77.44s.62-.17.77-.44l.07-.12c.17-.31.18-.68,0-.98s-.5-.48-.84-.48-.67.19-.84.48-.17.68,0,.98h0Z"/>
          <path class="cls-1" d="M13.92,47.89c0,.23,0,.47.09.69s.19.4.38.55c.18.14.41.24.64.23.19,0,.37-.06.53-.14.25-.13.39-.38.49-.63.08-.22.09-.46.09-.69,0-.28-.13-.59-.33-.79s-.51-.34-.79-.33-.59.11-.79.33c-.2.21-.33.49-.33.79h0Z"/>
          <path class="cls-1" d="M17.39,62.5l.14.13s.05.04.07.06c.15.13.29.22.48.27.09.03.26.04.38.05.23.01.5-.08.66-.25.1-.11.19-.24.22-.38.02-.08.04-.19.03-.27,0-.11-.03-.3-.05-.38-.08-.28-.27-.48-.46-.68-.18-.19-.48-.3-.73-.3s-.56.11-.73.3-.31.45-.3.73.1.55.3.73h0Z"/>
        </g>
        <path class="cls-4" d="M85.03,65.57s-.07-.1-.1-.15c-.06-.08-.12-.14-.19-.2-.11-.1-.22-.21-.34-.3-.09-.07-.18-.15-.28-.21-.05-.03-.11-.06-.16-.09-.05-.03-.1-.06-.16-.07-.05-.01-.11-.01-.16-.02h.09s-.07,0-.1-.01c-.07-.01-.13,0-.2,0-.11.02-.18.14-.18.24,0,.06,0,.11.03.16,0,.02.02.04.03.07,0,.01.03.06,0,0s0,0,0,.02c.01.04.03.08.05.11.03.05.07.1.11.15.04.05.08.11.12.16s.1.1.15.14c.12.11.25.21.38.31.06.04.11.09.17.13s.12.06.19.09c.08.04.16.06.26.05.08-.01.17-.05.23-.11.05-.05.08-.11.1-.18.03-.09.01-.23-.04-.31h0Z"/>
        <path class="cls-4" d="M85.71,64.4c-.09-.2-.17-.4-.26-.6-.06-.12-.13-.22-.22-.32-.06-.08-.13-.16-.2-.23-.14-.13-.39-.04-.39.16,0,.12.02.24.04.36,0,.05.01.11.03.16.02.08.05.16.09.23.09.2.18.4.27.61.04.08.14.15.22.17.09.02.21.01.28-.04s.15-.13.17-.22c.02-.1,0-.19-.04-.28h0Z"/>
        <path class="cls-4" d="M88.85,49.43c-.01-.14-.03-.28-.08-.41-.03-.08-.06-.17-.11-.24s-.1-.14-.16-.2c-.09-.09-.2-.18-.31-.25-.07-.04-.15-.08-.22-.1-.08-.02-.17-.02-.25,0-.06,0-.12.02-.18.05-.07.04-.11.1-.14.17-.05.13-.03.28.07.38.02.02.04.05.06.07l-.06-.08s.06.09.09.12c.04.03.08.06.12.09l-.08-.07c.06.05.12.11.17.17l-.07-.09c.08.1.14.22.19.33l-.05-.11c.03.08.05.16.07.24l-.02-.13s0,.04,0,.06c0,.13.05.24.14.34.08.08.22.14.34.14s.25-.05.34-.14.15-.21.14-.34h0Z"/>
        <path class="cls-4" d="M43.9,64.21c-.03-.07-.07-.14-.12-.2-.04-.06-.09-.12-.14-.17s-.12-.1-.18-.14c-.04-.03-.1-.05-.15-.07-.02,0-.04-.02-.06-.02-.07-.02-.14-.03-.22-.03-.03,0-.07,0-.1,0-.06,0-.09,0-.14.03-.04.02-.08.03-.12.05-.09.04-.14.14-.15.24-.01.11.02.19.09.27.01.01.02.03.03.04l-.06-.07s.05.08.09.11c.01.01.03.03.04.04s.03.03.04.04c.04.04.09.07.13.1l-.09-.07c.06.05.11.1.18.14.03.02.06.04.1.07l-.09-.07c.06.04.11.08.17.13l-.09-.07c.07.05.13.11.18.18.04.04.08.07.14.09.05.03.11.04.16.04l.11-.02c.06-.01.1-.04.15-.08.07-.05.13-.13.15-.22l.02-.11c0-.08-.02-.15-.06-.22h0Z"/>
      </g>
    </g>
  </g>
</svg>