<?xml version="1.0" encoding="UTF-8"?>
<svg id="Capa_2" data-name="Capa 2" xmlns="http://www.w3.org/2000/svg" viewBox="0 0 100 100">
  <defs>
    <style>
      .cls-1 {
        fill: #fff;
      }

      .cls-2 {
        fill: #fdc733;
      }

      .cls-3 {
        fill: none;
      }

      .cls-4 {
        fill: #4a2d2d;
      }

      .cls-5 {
        fill: #faae55;
      }
    </style>
  </defs>
  <g id="COLOR">
    <g>
      <rect class="cls-3" width="100" height="100"/>
      <g>
        <g>
          <g>
            <path class="cls-2" d="M92.73,47.08c-.47-1.4-2.75-2.4-4.62-2.79.76-2.37,1.14-4.87,1.08-7.4-.03-1.14-.15-2.29-.36-3.43-.05-.26-.19-.45-.37-.59,0-.16-.06-.34-.24-.48-1.53-1.27-3.63-1.46-5.52-1.85-1.77-.37-3.56-.68-5.34-.98.16-.37.31-.74.44-1.13.05-.13.09-.27.14-.41.78-2.4,1.1-4.96,1.19-7.46.1-2.89.18-6.48-.79-9.22-.1-.27-.26-.47-.45-.59-.02-.35-.27-.71-.74-.76-6.63-.68-13.43-.71-20.09-.95-6.37-.22-13.32-.81-19.61.45-.37.07-.54.38-.53.69-.18.12-.31.31-.32.54-.22,5.4-1.24,10.32-4.69,14.66-3.41,4.27-8.35,6.34-13.06,8.8-4.2,2.2-8,5-10.48,9.12-2.4,3.98-3.31,8.09-3.03,13.27.03.55.09,1.27.76,1.27,1.47,0,2.96.09,4.45.22.23.02.47.04.71.06-.6,2.43-.79,5-.79,7.46,0,.19,0,.38,0,.57,0,.38.24.61.57.75.7.29,1.41.57,2.13.84-.39.91-.68,1.86-.79,2.79-.23,1.94,1.51,2.32,3.03,2.95,4.67,1.94,9.3,3.99,13.91,6.05,4.72,2.12,9.43,4.26,14.16,6.36,2.33,1.04,4.67,2.06,7.02,3.06,2.06.88,4.27,2.11,6.47,2.55.08.02.16.02.24.03.33.48,1.19.34,1.27-.39.63-5.62,3.06-10.77,7.41-14.45,4.72-3.98,11.2-3.99,16.08-7.65,4.56-3.43,7.53-8.62,9.26-13.98.48-1.5.83-3.04,1.12-4.59.18-.92.69-2.44.38-3.4Z"/>
            <path class="cls-5" d="M89.2,36.89c-.43,2.08-1.06,4.35-1.5,6.27-1.02,4.45-6.36,11.07-11.83,13.74-5.47,2.67-11.32,6.11-15.01,10.05-3.69,3.94-4.2,11.7-4.58,11.7s-41.34-11.2-41.34-11.2c0,0-2.89-.45-4.5-1.47,0-2.46.2-5.41.8-7.84-.24-.02-.47-.04-.71-.06.12-.42.21-.67.21-.67l44.64,5.22s-.13-4.45-.13-7,.38-7.5,3.3-10.94c2.93-3.43,6.87-4.96,11.96-7.76,5.09-2.8,6.74-9.03,6.74-9.03,0,0,.25.04.67.12-.05.14-.09.27-.14.41-.13.39-.28.76-.44,1.13,1.79.3,3.57.61,5.34.98,1.89.39,3.99.58,5.52,1.85.18.15.24.32.24.48.18.13.32.32.37.59.21,1.14.33,2.29.36,3.43Z"/>
            <path class="cls-4" d="M78.93,13.65c-.11-.68-.25-1.34-.41-1.97-.06-.24-.39-1.61-1.1-1.61-.04,0-.07.01-.11.02-.3.05-.4,1.23-.41,1.45-.02.58.05,1.17.08,1.75.12,2.43.27,4.84.07,7.27-.2,2.39-.67,4.75-1.39,7.04-.18.55-.37,1.11-.57,1.65-1.94,5.18-5.86,7.72-10.78,10.5-4.3,2.43-7.49,4.86-9.09,8.82-1.45,3.59-1.7,8.51-.67,12.84l.03.14-.15-.03c-1.17-.23-19.24-1.94-19.24-1.94-7.11-.92-27.75-3.2-29.31-2.92-.43.08-.58.41-.55.7.03.37.39.5.83.5,4.39.02,8.84.57,13.21,1.22,1.45.22,2.95.44,4.4.63,2.32.31,4.64.62,6.96.93,5.73.77,11.65,1.57,17.49,2.26,1.27.15,2.56.26,3.84.32.26.01.55.04.87.07.49.05,1.05.1,1.57.1.56,0,.99-.06,1.31-.2.85-.35.7-1.67.59-2.63-.03-.26-.06-.52-.06-.72-.01-.6-.04-1.2-.06-1.8-.03-.79-.06-1.6-.07-2.4-.03-3.58.55-6.15,1.86-8.31,1.89-3.12,5.14-4.97,8.28-6.76,1.03-.59,2.1-1.2,3.08-1.83,3.97-2.58,6.76-6.07,8.27-10.39,1.53-4.36,2-10.01,1.22-14.74Z"/>
            <path class="cls-4" d="M57.12,80.18s-.09,0-.13,0c-2.98-.19-5.98-1.2-8.88-2.17-1.08-.36-2.2-.74-3.27-1.05-3.76-1.11-7.53-2.2-11.2-3.23-1.89-.53-3.83-1.05-5.72-1.55-5.66-1.5-11.46-2.98-16.89-5.23-.34-.14-.57-.44-.57-.74,0-.19,0-.18,0-.38v-.04c7.38,1.76,16.9,4.23,23.62,6.12,4.58,1.3,20.01,5.32,22.64,6.39l.13.05v-.14c-.03-3.7,1.07-8.29,3.22-11.74,1.26-2.03,2.77-3.72,4.47-5.01,1.95-1.48,4.14-2.29,6.46-3.16l.56-.21c6.01-2.26,10.11-5.36,12.72-9.84,2.26-3.88,4.76-9.82,4.11-14.92-.04-.32.02-.43.04-.46.02-.02.03-.03.06-.03.25,0,.58,1.02.68,1.84.94,7.43-3.06,17.59-11.6,22.45-1.57.89-3.23,1.62-4.83,2.32-3.25,1.42-6.6,2.9-9.18,5.74-1.67,1.85-3.04,4.24-3.96,6.92-.54,1.58-.79,3.17-1.05,5.08-.03.22-.05.47-.07.72-.08,1.11-.17,2.26-1.36,2.26h0Z"/>
          </g>
          <path class="cls-1" d="M38.71,12.27c-.31,1.03-.35,2.1-.55,3.15-.18.93-.6,1.82-.13,2.7.19.36.71.48,1.05.28.95-.57.99-1.79,1.14-2.8.17-1.12.3-2.21.03-3.32-.19-.79-1.32-.73-1.54,0h0Z"/>
          <path class="cls-1" d="M36.8,20.69c-.06.16-.11.3-.11.47,0,.17.04.32.13.47.08.14.19.25.33.33.27.16.66.18.93,0,.17-.11.24-.19.36-.36.01-.02.02-.03.03-.05l.08-.12c.09-.15.13-.31.13-.49l-.03-.26c-.05-.16-.13-.3-.25-.42-.09-.09-.19-.16-.31-.2-.11-.06-.24-.09-.37-.08-.13,0-.26.02-.37.08-.12.04-.22.11-.31.2-.12.12-.2.26-.25.42h0Z"/>
          <path class="cls-1" d="M22.57,33.97c-.07.14-.13.28-.19.43,0,.02-.01.03-.02.05-.01.09-.03.17-.04.26l.03.25c.03.13.14.32.24.42s.18.14.3.19c.11.06.23.09.36.08l.25-.03s.03,0,.05-.02c.15-.06.29-.12.44-.19.16-.09.28-.22.38-.38.1-.16.14-.34.14-.53l-.04-.28c-.05-.18-.14-.33-.27-.46-.1-.1-.21-.18-.34-.22-.13-.07-.26-.1-.41-.09-.19,0-.37.05-.53.14-.16.09-.28.22-.38.38h0Z"/>
          <path class="cls-1" d="M18.91,38.97c1.09,0,1.09-1.69,0-1.69s-1.09,1.69,0,1.69h0Z"/>
        </g>
        <path class="cls-4" d="M69.6,33.19c-.26-.04-.52-.07-.79-.08-.12,0-.24,0-.36.01-.08,0-.17.02-.25.03-.1.02-.17.07-.24.13-.11.1-.11.31,0,.4.07.06.15.12.24.13.08.02.17.03.25.03.12,0,.24.02.36.01.27,0,.53-.04.79-.08.13-.02.24-.18.23-.31s-.09-.29-.23-.31h0Z"/>
        <path class="cls-4" d="M71.47,31.8l-.64-.11c-.16-.03-.31-.05-.47-.02-.05,0-.1.02-.15.03-.08.02-.14.05-.21.11-.08.06-.09.21-.04.3.07.12.19.18.31.24s.24.08.36.1l.63.1c.1.02.2.02.29-.04.08-.05.15-.14.17-.23.02-.1.02-.21-.04-.29-.05-.08-.13-.16-.23-.17h0Z"/>
        <path class="cls-4" d="M75.79,53.73c-.34-.15-.69-.26-1.06-.31-.17-.02-.35-.03-.53-.03-.09,0-.19,0-.29.03s-.17.06-.26.1c-.15.07-.09.29.04.34.07.02.14.05.21.07.09.02.18.02.27.04.04,0,.12.02.19.03.08.01.15.03.23.05.15.04.3.08.45.13.03.01.06.02.09.04.02,0,.04.02.06.02-.03-.01-.03-.01.01,0,.07.03.14.07.21.1.16.08.39.05.48-.13.08-.15.05-.4-.13-.48h0Z"/>
        <path class="cls-4" d="M78.26,52.31l-.27-.05c-.11-.02-.22-.03-.33-.04h-.07s-.06.03-.09.05c-.04.03-.08.08-.09.13-.01.04-.01.09,0,.13.01.06.06.12.12.15.07.05.15.09.23.13l.23.12c.09.05.18.06.27.04.06-.02.11-.05.15-.09.03-.03.06-.07.07-.11.02-.04.03-.09.03-.13,0-.05,0-.09-.03-.13-.01-.04-.04-.08-.07-.11-.04-.04-.09-.07-.15-.09h0Z"/>
        <path class="cls-4" d="M72.35,69.59l-.08-.05.13.17h0s0,.05.01.07c0-.03,0-.06-.01-.09,0-.04-.03-.08-.06-.11-.03-.04-.07-.07-.11-.09l-.07-.04s-.09-.05-.15-.07-.11-.02-.17-.02-.11-.02-.17-.01c-.05,0-.1,0-.14.02s-.08.03-.12.05c-.05.02-.1.09-.11.14-.01.06-.01.13.02.18.03.04.05.08.08.1.03.03.07.06.11.08.05.03.1.05.15.07.05.02.1.04.14.06.05.02.11.02.17.02h.08s.07,0,.11,0c.08-.02.14-.08.19-.14l-.05.06h0c-.07.02-.13.05-.2.08h.09c.11,0,.22-.08.25-.19s-.02-.23-.12-.29h0Z"/>
        <path class="cls-4" d="M85.28,62.32l-.12-.14c-.06-.07-.11-.12-.18-.17-.1-.07-.2-.15-.3-.21-.13-.07-.25-.15-.39-.21-.15-.06-.33-.06-.48,0-.07.03-.12.13-.12.2,0,.06.01.11.04.16.01.02.02.05.04.07.03.05.05.09.09.13s.08.07.13.1c.1.07.21.12.32.18.13.07.26.12.4.17.11.05.24.05.36.07.09.01.2,0,.25-.1s.03-.19-.03-.27h0Z"/>
        <path class="cls-4" d="M86.25,60.09c-.18-.08-.37-.18-.56-.25-.09-.03-.18-.06-.27-.09-.04-.02-.09-.03-.13-.05-.08-.02-.15,0-.23.01s-.14.09-.16.16c-.02.09,0,.16.06.23s.11.11.19.13c.04.02.09.03.13.04l.26.08c.09.03.18.04.27.06l.28.06c.11.02.22-.02.26-.13.04-.09,0-.23-.09-.27h0Z"/>
      </g>
    </g>
  </g>
</svg>