<?xml version="1.0" encoding="UTF-8"?>
<svg id="Capa_2" data-name="Capa 2" xmlns="http://www.w3.org/2000/svg" viewBox="0 0 100 100">
  <defs>
    <style>
      .cls-1 {
        fill: #fff;
      }

      .cls-2 {
        fill: #fdc733;
      }

      .cls-3 {
        fill: none;
      }

      .cls-4 {
        fill: #4a2d2d;
      }
    </style>
  </defs>
  <g id="COLOR">
    <g>
      <rect class="cls-3" width="100" height="100"/>
      <g>
        <g>
          <g>
            <path class="cls-2" d="M88.19,29.45c-.24-.59-.6-1.13-1.01-1.62-.8-.96-1.82-1.77-2.91-2.38-1.26-.7-2.69-1.1-4.13-1.15-1.14-.04-3.27-.09-3.91.99-.25.42-.62.79-.9,1.19-.34.47-.66.96-.96,1.46-.62,1-1.19,2.03-1.77,3.05-1.3,2.26-2.52,4.57-3.63,6.93-2.14,4.54-3.89,9.25-5.33,14.06-1.46,4.87-2.57,10.17-3.42,15.18-.7,4.11-1.46,8.24-1.51,12.42-.02,1.54.15,3.19,1.16,4.44.47.59,1.06,1.09,1.69,1.51,1.23.83,2.65,1.41,4.11,1.68.04,0,.08.01.12.02,1.34.23,3.03.22,4.17-.62,1.08-.8,1.49-2.13,1.66-3.41.21-1.52.3-3.07.44-4.6.2-2.14.39-4.27.68-6.4.07-.49.14-.98.22-1.46.76-4.62,1.83-9.19,3.21-13.67,1.41-4.58,3.11-9.13,5.21-13.45.98-2.01,2.02-3.99,3.17-5.9.65-1.09,1.37-2.15,2.07-3.21.34-.52.69-1.05,1.01-1.58.26-.42.75-1.14.88-1.61.16-.55-.1-1.36-.31-1.87Z"/>
            <path class="cls-4" d="M64.26,79.86c-2.79-.23-3.73,1.13-3.35,2.11.38.98,2.71,2.98,5.46,3.02s2.87-1.45,2.71-1.96c-.49-1.58-2.04-2.94-4.82-3.17Z"/>
          </g>
          <g>
            <path class="cls-2" d="M33.01,22.81c-.43-.47-.95-.85-1.51-1.17-1.09-.63-2.32-1.03-3.56-1.23-1.42-.22-2.91-.1-4.27.35-1.08.36-3.52,1.26-3.76,2.5-.09.48-.31.96-.43,1.43-.15.56-.28,1.13-.4,1.7-.23,1.15-.41,2.31-.61,3.47-.43,2.57-.78,5.16-1.01,7.76-.43,5-.45,10.03-.14,15.04.31,5.08.96,10.14,1.9,15.14.77,4.1,1.82,8.37,3.23,12.3.52,1.45,1.24,2.94,2.62,3.77.65.39,1.37.65,2.1.83,1.44.35,2.98.41,4.43.15.04,0,.08-.01.11-.02,1.33-.25,2.92-.84,3.7-2.03.74-1.12.66-2.51.38-3.77-.33-1.5-.78-2.98-1.18-4.47-.55-2.07-1.11-4.14-1.57-6.24-.11-.48-.21-.96-.3-1.45-.89-4.6-1.46-9.25-1.71-13.93-.26-4.79-.24-9.64.23-14.42.22-2.22.52-4.44.93-6.64.23-1.25.75-2.77,1.04-4.01.14-.61.28-1.22.4-1.83.1-.48.33-1.1.29-1.59-.04-.57-.56-1.24-.94-1.65Z"/>
            <path class="cls-4" d="M27.78,78.45c-2.69.75-3.11,2.35-2.42,3.14.69.79,3.58,1.85,6.17.94s2.19-2.35,1.87-2.78c-1.01-1.32-2.93-2.05-5.62-1.3Z"/>
          </g>
          <g>
            <path class="cls-2" d="M47.56,12.36c-.1.48.04,1.13.07,1.62.04.62.09,1.25.15,1.87.12,1.27.25,2.53.31,3.8.11,2.23.09,4.47.01,6.7-.18,4.8-.83,9.61-1.74,14.32-.89,4.6-2.01,9.32-3.51,13.75-.16.47-.32.93-.49,1.39-.74,2.01-1.59,3.99-2.41,5.96-.59,1.42-1.24,2.83-1.78,4.26-.45,1.21-.72,2.57-.14,3.79.61,1.28,2.1,2.09,3.39,2.51.04.01.07.02.11.04,1.41.45,2.94.6,4.41.45.75-.08,1.5-.24,2.2-.54,1.48-.63,2.4-2.01,3.12-3.37,1.93-3.71,3.2-7.71,4.52-11.66,1.61-4.82,2.94-9.75,3.95-14.74.99-4.92,1.67-9.9,1.92-14.91.13-2.61.14-5.21.07-7.82-.04-1.18-.05-2.35-.13-3.52-.04-.58-.09-1.16-.16-1.74-.06-.49-.21-.99-.23-1.48-.06-1.26-1.83-2.26-2.85-2.76-1.29-.64-2.74-.96-4.19-.93-1.25.02-2.53.26-3.69.73-.59.24-1.16.55-1.65.95-.43.35-1.13.76-1.25,1.32Z"/>
            <path class="cls-4" d="M46.2,66.55c2.57,1.12,2.76,2.76,1.96,3.44s-3.8,1.35-6.24.08c-2.44-1.26-1.85-2.63-1.47-3.01,1.18-1.17,3.18-1.63,5.75-.52Z"/>
          </g>
          <path class="cls-1" d="M22.21,23.04c-1.03.28-1.38,1.56-1.62,2.48-.29,1.09-.7,2.54.34,3.3.22.16.58.13.8,0,.79-.47.72-1.28.81-2.09.04-.42.11-.84.16-1.26.03-.21.06-.43.1-.64.01-.09.03-.17.05-.26.03-.13.03-.14,0-.02.84-.44.26-1.76-.64-1.52h0Z"/>
          <path class="cls-1" d="M19.42,32.08c0,.1.01.2.02.3.02.15.04.26.13.4.02.02.03.04.05.07.08.14.19.24.33.33.14.08.29.12.46.12.16,0,.32-.04.46-.12.14-.08.24-.19.33-.33.01-.02.03-.04.04-.06.09-.13.12-.26.14-.41.01-.1.02-.2.02-.3,0-.25-.12-.53-.29-.7s-.45-.3-.7-.29-.52.1-.7.29-.3.43-.29.7h0Z"/>
          <path class="cls-1" d="M18.87,58.46c0,.09,0,.18.01.28.01.19.04.35.14.52.06.09.12.17.2.24.31.32.87.32,1.18,0,.07-.08.14-.15.2-.24.1-.17.13-.33.14-.52,0-.09,0-.18.01-.28,0-.23-.11-.5-.27-.66s-.43-.28-.66-.27-.49.09-.66.27-.28.41-.27.66h0Z"/>
          <path class="cls-1" d="M49.1,13.7c.03.82.1,1.62.21,2.44.1.76.11,1.58.71,2.12.34.31.88.27,1.13-.15.4-.69.2-1.43.07-2.18-.14-.83-.33-1.63-.55-2.45s-1.6-.7-1.56.21h0Z"/>
          <path class="cls-1" d="M49.63,20.11c-.04.13-.09.26-.12.39-.04.2-.07.44,0,.64.09.28.27.5.55.62.26.11.6.1.84-.05.18-.11.3-.25.42-.43.08-.12.13-.26.19-.39.09-.16.14-.33.14-.52l-.04-.27c-.07-.31-.31-.54-.59-.66-.58-.24-1.19.08-1.38.66h0Z"/>
          <path class="cls-1" d="M44.28,58.1c.07-.17.15-.34.19-.51.05-.22.05-.44.05-.67,0-.59-.77-.94-1.19-.49-.16.17-.32.33-.43.53s-.19.46-.27.68c-.16.42.17.96.6,1.05.5.11.87-.15,1.05-.6h0Z"/>
          <path class="cls-1" d="M73.6,32.63c-.58.59-1.13,1.23-1.59,1.92-.44.67-1,1.46-.8,2.28.13.52.74.72,1.18.48.66-.35.88-1.2,1.21-1.83.36-.67.73-1.33,1.14-1.97.45-.7-.57-1.47-1.15-.88h0Z"/>
          <path class="cls-1" d="M69.74,39.97l.06.17.09.21c.06.1.13.19.23.25.06.06.12.09.2.11.11.06.22.08.34.08l.24-.03.21-.09c.1-.06.19-.13.25-.23.08-.09.13-.19.16-.3l.06-.17c.05-.17.05-.34,0-.51-.05-.16-.13-.3-.25-.42-.19-.17-.42-.28-.68-.28-.13,0-.25.02-.37.08-.12.04-.22.1-.31.2-.12.12-.2.26-.25.42-.05.17-.05.34,0,.51h0Z"/>
          <path class="cls-1" d="M62.45,70.96c.09-.34.19-.69.15-1.04-.03-.27-.14-.49-.41-.61-.22-.09-.56-.07-.73.14-.13.16-.23.31-.31.5s-.15.39-.21.6c-.12.39.14.86.54.96s.84-.12.96-.54h0Z"/>
        </g>
        <path class="cls-4" d="M30.92,73.24l.48-.08c.08-.01.15-.02.23-.05.03-.01.06-.02.09-.04.05-.02.08-.05.12-.08.04-.03.07-.07.09-.11.04-.09.04-.2-.03-.27-.02-.02-.05-.05-.08-.06-.03-.02-.06-.03-.09-.04-.06-.02-.12-.02-.18-.03-.1,0-.21.02-.31.03l-.49.08c-.08.01-.16.09-.2.16-.04.07-.06.18-.03.26s.08.16.16.2c.08.04.17.05.26.03h0Z"/>
        <path class="cls-4" d="M30.08,70.99c.21-.03.42-.05.63-.08s.45-.06.6-.23c.11-.12.09-.3-.05-.39-.11-.06-.25-.1-.37-.08-.09.01-.18.02-.27.03-.21.03-.42.07-.62.11-.07.01-.16.09-.2.15s-.05.14-.04.21c0,.07.04.14.09.19.06.05.15.11.23.1h0Z"/>
        <path class="cls-4" d="M28.27,42.32h.4c.09,0,.17,0,.25-.02.02,0,.03,0,.05-.01.06-.02.09-.04.13-.08.02-.02.04-.03.06-.05.07-.06.07-.21,0-.27-.02-.02-.04-.03-.06-.05-.04-.03-.08-.06-.13-.08-.02,0-.04,0-.06-.01-.09-.02-.17-.02-.25-.02h-.4c-.16,0-.31.14-.3.3s.13.3.3.3h0Z"/>
        <path class="cls-4" d="M54.96,54.48s-.03,0,0,0c-.01,0-.02,0-.03,0-.02,0-.05,0-.07-.01-.06-.01-.11-.02-.17-.03.05,0,0,0-.02,0-.02,0-.05,0-.07-.01-.05,0-.09-.02-.14-.03-.09-.02-.18-.05-.27-.08-.04-.01-.08-.03-.12-.04-.07-.02-.14-.02-.21,0h.1s-.08-.02-.12-.01c-.03,0-.07,0-.1.02-.06.01-.11.09-.09.15.01.03.02.06.03.08.02.03.04.05.07.08-.01-.01,0-.01,0,0,.01.02.03.04.05.06.03.03.07.05.1.07.11.06.24.09.35.13.11.03.22.05.33.07.13.02.26.02.39,0,.11,0,.22-.09.21-.21,0-.13-.09-.2-.21-.21h0Z"/>
        <path class="cls-4" d="M58.11,41.47l-.15-.1-.07-.05-.03-.02s-.06-.03-.11-.05-.1-.04-.15-.06c-.03-.01-.05-.02-.08-.03-.06-.02-.1,0-.16,0-.05,0-.09.01-.13.04-.04.02-.07.05-.09.09-.05.08-.05.18,0,.26.02.04.05.09.08.12s.08.06.12.09c.05.03.1.06.15.09.07.04.15.06.23.08l.17.05c.06.02.16,0,.21-.03.05-.03.09-.08.11-.13s.03-.12.01-.18l-.03-.07s-.06-.08-.1-.1h0Z"/>
        <path class="cls-4" d="M58.92,38.97c-.18-.1-.36-.21-.55-.3-.12-.06-.23-.11-.36-.15l-.14-.04c-.07-.02-.14-.03-.21-.02-.19.02-.3.19-.21.36.03.06.07.12.12.16l.1.09c.1.09.2.16.31.23.18.11.36.21.55.31.17.1.42.05.52-.14s.05-.41-.14-.52h0Z"/>
        <path class="cls-4" d="M73.45,61.46c0-.06-.01-.11-.03-.17l-.03.22h0c.06-.09.05-.22,0-.31-.03-.05-.06-.09-.1-.14-.03-.04-.09-.07-.14-.1-.08-.04-.16-.08-.25-.09-.07-.01-.1-.01-.16,0-.03,0-.05,0-.08.01-.01,0-.03,0-.04.01-.1.03-.17.1-.2.2-.02.07,0,.15.03.21.04.07.11.11.19.14.02,0,.03.01.05.02l-.07-.03s.09.04.14.06c.03,0,.05.02.08.03l-.08-.03s.09.05.13.08l-.07-.05s.07.06.11.08c.02,0,.03.02.05.03.09.06.22.05.31,0h0c-.1,0-.19,0-.29,0,.03.01.06.03.09.05.07.05.17.04.24,0s.12-.12.12-.21h0Z"/>
        <path class="cls-4" d="M83.38,36.36l-.16-.15c-.05-.05-.1-.1-.16-.15-.07-.06-.14-.12-.21-.17-.06-.04-.12-.08-.18-.12-.09-.06-.22-.04-.29.04s-.1.2-.04.29c.04.06.07.12.11.18.05.08.12.15.17.22.04.05.1.1.14.15l.15.16c.06.06.15.1.23.1s.18-.04.23-.1.1-.14.1-.23-.03-.17-.1-.23h0Z"/>
        <path class="cls-4" d="M85.2,34.29h-.02s.05.02.08.03c-.21-.09-.4-.2-.58-.34l.08.06c-.07-.06-.15-.11-.22-.16l.08.06c-.08-.07-.17-.14-.26-.19-.04-.02-.07-.03-.11-.05-.09-.04-.17-.07-.27-.04-.1.03-.16.1-.19.19-.03.11,0,.19.05.28s.1.19.18.27.17.14.25.2c.07.05.14.09.21.13.17.09.35.16.53.22.17.05.38-.06.42-.24.02-.09.02-.19-.03-.26s-.12-.12-.2-.16h0Z"/>
      </g>
    </g>
  </g>
</svg>