<?xml version="1.0" encoding="UTF-8"?>
<svg id="Capa_2" data-name="Capa 2" xmlns="http://www.w3.org/2000/svg" viewBox="0 0 100 100">
  <defs>
    <style>
      .cls-1 {
        fill: #fff;
      }

      .cls-2 {
        fill: #fdc733;
      }

      .cls-3 {
        fill: none;
      }

      .cls-4 {
        fill: #4a2d2d;
      }
    </style>
  </defs>
  <g id="COLOR">
    <g>
      <rect class="cls-3" width="100" height="100"/>
      <g>
        <g>
          <g>
            <path class="cls-2" d="M47.97,21.34c-1.68-3.06-4.18-6.03-6.78-8.34-1.91-1.69-4.54-3.29-7.11-2.02-2.19,1.09-3.33,3.78-4.05,5.97-1.22,3.76-1.95,7.68-2.58,11.57-1.28,7.96-2.65,15.88-4.1,23.81-.7,3.84-1.39,7.69-1.89,11.55-.44,3.45-.2,6.62,1.9,9.51,1.89,2.59,4.55,4.6,7.33,6.16,2.08,1.17,5.27,2.94,7.41,1.02,2.18-1.95,2.7-5.91,3.3-8.6.97-4.26,1.78-8.56,2.56-12.86,1.43-7.88,2.71-15.82,3.84-23.76.32-1.72.51-3.47.74-5.2.41-3.09.99-5.95-.59-8.82Z"/>
            <path class="cls-4" d="M32.49,69.56c-1.41-1.06-3.17-2.08-4.99-2.03-.78.02-1.51.29-1.97.94-1.15,1.63.53,3.59,1.64,4.7,1.07,1.07,2.22,2.07,3.49,2.91,1.19.79,2.79,1.93,4.29,1.43,1.09-.37,1.61-1.37,1.54-2.46-.11-1.7-1.3-3.13-2.5-4.23-.47-.43-.97-.86-1.5-1.25Z"/>
            <path class="cls-4" d="M35.41,16.01c-2.52,13.86-5.16,27.71-7.58,41.59-.33,1.9-.39,4.17-1.05,5.99-.19.51.63.73.81.22.54-1.47.71-3.18,1.02-4.71.72-3.63,1.39-7.27,2.07-10.91,1.56-8.37,3.03-16.75,4.5-25.13.4-2.26.78-4.53,1.13-6.8.09-.58-.79-.84-.89-.25h0Z"/>
            <path class="cls-4" d="M40.62,19.39c-2.33,12.97-4.85,25.91-7.12,38.9-.38,2.19-.74,4.39-1.15,6.58-.1.52.68.76.81.22,2.99-12.5,4.91-25.33,7.12-37.99.43-2.48.85-4.97,1.23-7.46.09-.58-.79-.84-.89-.25h0Z"/>
            <path class="cls-4" d="M45.09,23.59c-2.34,13.06-5,26.06-7.36,39.12-.4,2.21-.77,4.43-1.18,6.63-.1.52.68.76.81.22,3.02-12.59,5.07-25.47,7.36-38.21.45-2.5.88-5.01,1.26-7.52.09-.58-.79-.84-.89-.25h0Z"/>
          </g>
          <g>
            <path class="cls-2" d="M83.63,31.63c-.87-3.38-2.55-6.88-4.49-9.76-1.42-2.11-3.58-4.32-6.39-3.72-2.39.51-4.17,2.84-5.4,4.78-2.12,3.34-3.8,6.95-5.37,10.57-3.22,7.39-6.52,14.72-9.89,22.04-1.63,3.54-3.26,7.1-4.7,10.72-1.29,3.23-1.84,6.36-.52,9.68,1.19,2.98,3.26,5.59,5.56,7.79,1.72,1.65,4.37,4.16,6.93,2.83,2.59-1.35,4.08-5.06,5.34-7.51,2-3.89,3.86-7.85,5.68-11.82,3.34-7.27,6.56-14.65,9.63-22.06.74-1.59,1.36-3.23,2.01-4.85,1.17-2.89,2.44-5.52,1.62-8.69Z"/>
            <path class="cls-4" d="M56.66,74.26c-1.16-1.34-2.67-2.69-4.46-3.02-.76-.14-1.54-.03-2.13.51-1.46,1.35-.23,3.62.63,4.94.82,1.27,1.75,2.49,2.8,3.57,1,1.02,2.33,2.47,3.9,2.29,1.14-.13,1.86-1,2.02-2.09.25-1.68-.62-3.33-1.56-4.66-.37-.52-.77-1.04-1.2-1.54Z"/>
            <path class="cls-4" d="M72.79,23.35c-5.89,12.8-11.88,25.55-17.68,38.4-.79,1.76-1.41,3.94-2.51,5.54-.31.45.43.86.73.42.89-1.29,1.48-2.9,2.15-4.31,1.6-3.34,3.16-6.7,4.72-10.06,3.59-7.72,7.1-15.47,10.6-23.22.95-2.09,1.88-4.2,2.79-6.31.23-.54-.55-1.01-.8-.46h0Z"/>
            <path class="cls-4" d="M76.99,27.92c-5.48,11.99-11.14,23.89-16.57,35.9-.92,2.03-1.81,4.07-2.75,6.09-.22.48.47.9.73.42,6.01-11.37,11.05-23.32,16.35-35.03,1.04-2.3,2.06-4.6,3.04-6.93.23-.54-.55-1.01-.8-.46h0Z"/>
            <path class="cls-4" d="M80.28,33.1c-5.52,12.07-11.32,24-16.85,36.06-.94,2.04-1.85,4.09-2.79,6.13-.22.48.47.9.73.42,6.05-11.45,11.24-23.41,16.63-35.18,1.06-2.31,2.1-4.63,3.09-6.97.23-.54-.55-1.01-.8-.46h0Z"/>
          </g>
          <path class="cls-1" d="M31.88,15.49c-.48,1.33-1.23,2.87-1.04,4.3.08.57.94.75,1.29.34.93-1.08,1.13-2.83,1.44-4.18.25-1.11-1.31-1.52-1.69-.47h0Z"/>
          <path class="cls-1" d="M29.73,23.51c-.02.13-.05.26-.07.39s-.05.26-.04.39c0,.15.04.28.08.42.09.33.35.59.68.68.3.08.74.01.94-.25.17-.22.33-.4.39-.68.03-.13.06-.26.08-.39.06-.28.04-.57-.11-.82-.13-.22-.38-.43-.64-.49-.27-.06-.58-.05-.82.11-.22.14-.44.37-.49.64h0Z"/>
          <path class="cls-1" d="M25.13,59.81s-.02-.08-.03-.13c-.04-.2-.15-.36-.28-.51-.17-.2-.43-.35-.69-.34s-.51.13-.69.33c-.13.15-.24.3-.28.5-.01.05-.02.09-.03.14-.07.36-.01.75.27,1.01.2.19.45.3.73.3.27,0,.55-.12.73-.3.27-.27.34-.64.27-1.01h0Z"/>
          <path class="cls-1" d="M69.06,22.77c-.38.58-.76,1.15-1.13,1.73-.37.57-.81,1.08-.65,1.79.09.38.5.55.85.48.68-.13.99-.84,1.34-1.37.38-.58.75-1.16,1.13-1.74.62-.96-.91-1.84-1.53-.89h0Z"/>
          <path class="cls-1" d="M66.08,28.47s-.05.03-.07.05c-.08.06-.16.12-.24.18-.04.03-.08.07-.1.12-.1.13-.22.26-.25.44l-.04.27c0,.14.02.27.09.39.02.09.07.16.13.22.07.11.17.2.29.26.18.1.34.15.55.15.02,0,.04,0,.07,0,.17,0,.28-.03.42-.08.19-.05.35-.15.49-.28l.17-.22c.1-.17.15-.36.15-.56,0-.15-.03-.29-.09-.42-.04-.14-.12-.25-.23-.35-.1-.11-.22-.18-.35-.23-.13-.07-.27-.1-.42-.09-.2,0-.38.05-.56.15h0Z"/>
          <path class="cls-1" d="M50.34,62.21c-.25.37-.46.81-.56,1.25-.12.53,0,.98.21,1.47s.98.44,1.19,0c.16-.32.32-.62.44-.96.1-.29.2-.53.36-.79.28-.44.09-1.05-.34-1.31-.47-.27-1.02-.09-1.31.34h0Z"/>
        </g>
        <path class="cls-4" d="M39.47,72.26l-.08-.12c-.04-.06-.07-.11-.12-.16-.05-.05-.1-.09-.16-.11l.11.08s-.05-.05-.07-.07c0,0-.01-.01-.02-.02-.03-.03-.07-.06-.11-.08-.01,0-.03-.02-.04-.02-.03-.01-.05-.03-.08-.04-.06-.03-.11-.05-.18-.06-.09-.02-.2-.02-.28.04l-.07.06s-.08.1-.09.16c0,.06-.03.13-.02.18s.01.1.02.15v.05s.01.03.02.05c0,.06.04.11.06.16.02.03.03.06.05.1l-.07-.26c0,.07,0,.14.03.2.03.09.05.12.09.18l.09.12c.03.06.08.12.14.15.05.05.12.08.19.1.07.02.15.03.22,0,.07,0,.14-.03.2-.07l.11-.09c.07-.07.12-.15.14-.24l.02-.15c0-.1-.03-.19-.07-.28h0Z"/>
        <path class="cls-4" d="M42.36,60.13v-.13c-.01-.06-.02-.12-.03-.19-.01-.07-.03-.1-.06-.17,0-.02-.02-.04-.03-.06-.02-.05-.06-.1-.1-.15-.03-.03-.05-.06-.08-.09l-.09-.07-.1-.04-.12-.02c-.06,0-.12.01-.17.04-.04.01-.07.03-.1.06-.03.02-.06.05-.08.08-.03.03-.05.06-.06.1-.03.05-.04.11-.04.17,0,.04,0,.08,0,.12,0,0,0,.01,0,.02l.02.13s0,.02,0,.03c0,.02.01.04.02.07.03.12.11.22.18.33l.07.09s.09.07.14.09c.03.02.07.03.11.03.06.01.12.01.18,0l.11-.04.09-.07s.07-.09.09-.14c.03-.05.04-.11.04-.17h0Z"/>
        <path class="cls-4" d="M63.11,79.01s.02-.03.03-.05c.01-.02.02-.06.03-.06.02-.04.03-.08.03-.12.01-.04.01-.08,0-.12,0-.03,0-.05-.01-.07h0s0,0,0-.01c0-.02-.01-.04-.02-.05-.02-.05-.05-.1-.09-.14l-.09-.07-.1-.04s0,0,0,0c0,0,0,0,0,0s0,0,0,0l-.12-.02-.12.02-.11.05h0s-.03.03-.05.04c-.07.04-.13.1-.17.17-.04.07-.06.15-.07.24l.02.13c.02.08.06.15.12.21.04.05.09.08.15.1.06.03.12.04.18.04.09,0,.17-.02.24-.07.07-.04.13-.1.17-.17h0Z"/>
        <path class="cls-4" d="M64.53,75.52c.76,0,.76-1.17,0-1.17s-.76,1.17,0,1.17h0Z"/>
      </g>
    </g>
  </g>
</svg>