<?xml version="1.0" encoding="UTF-8"?>
<svg id="Capa_2" data-name="Capa 2" xmlns="http://www.w3.org/2000/svg" viewBox="0 0 100 100">
  <defs>
    <style>
      .cls-1 {
        fill: #fff;
      }

      .cls-2 {
        fill: #fdc733;
      }

      .cls-3 {
        fill: none;
      }

      .cls-4 {
        fill: #4a2d2d;
      }
    </style>
  </defs>
  <g id="COLOR">
    <g>
      <rect class="cls-3" width="100" height="100"/>
      <g>
        <g>
          <g>
            <g>
              <path class="cls-2" d="M42.68,40.5c.13-2.51-.5-5.08-1.47-7.38-1.01-2.39-2.64-5.08-5.1-6.21-4.18-1.93-9.93,2.82-12.91,5.37-3.76,3.2-6.96,7.24-8.89,11.8-3.15,7.44-2.09,16.63,3.09,22.91,1.34,1.62,2.84,3.15,4.42,4.53,1.58,1.39,3.35,3.04,5.46,3.53,4.03.94,7.96-1.89,10.35-4.84,1.18-1.46,2.44-3.11,2.92-4.96.51-1.95-.09-3.76-.99-5.48-1.12-2.15-2.07-3.87-2.07-6.36,0-2.53.88-5.01,2.43-7,1.45-1.87,2.63-3.46,2.76-5.91Z"/>
              <path class="cls-4" d="M35.39,30.34c-.98-.59-2.42-.91-3.42-.21-1.62,1.12-.78,3.83-.42,5.36.51,2.21,1.29,4.42,2.8,6.15.63.72,1.41,1.36,2.34,1.61,1.16.3,2.22-.05,2.7-1.2.83-2,.16-4.71-.49-6.68-.64-1.94-1.7-3.94-3.51-5.03Z"/>
              <path class="cls-4" d="M37.46,63.71c.13-1.13-.17-2.58-1.23-3.2-1.69-1.01-3.81.87-5.06,1.83-1.8,1.38-3.49,3-4.45,5.09-.4.87-.66,1.84-.5,2.79.2,1.18.96,2.01,2.21,1.97,2.16-.07,4.36-1.8,5.89-3.2,1.51-1.38,2.88-3.18,3.13-5.27Z"/>
              <path class="cls-4" d="M32.91,42.26c-2.73,1.97-3.93,5.35-4.46,8.57-.58,3.56.19,6.9,2.4,9.78.32.41,1.03,0,.71-.41-4.08-5.33-2.95-12.85,1.68-17.51.21-.21-.07-.61-.33-.43h0Z"/>
              <path class="cls-4" d="M30.47,36.86c-4.22,2.83-7.6,6.6-8.43,11.79s1.21,11.68,4.99,15.57c.33.34.94-.11.66-.51-3.12-4.63-5.9-9.66-4.63-15.45,1.02-4.65,4.15-8.04,7.72-10.97.24-.19-.07-.59-.33-.42h0Z"/>
              <path class="cls-4" d="M29.25,32.2c-6.03,2.83-11.09,9.75-12.11,16.28-.6,3.88-.24,7.23,1.21,10.87,1.29,3.25,3.19,6.46,5.88,8.75.51.44,1.26-.29.75-.75-5.06-4.56-8.82-12.73-6.93-19.57.92-3.31,2.53-6.39,4.74-9.02,2-2.38,4.55-4.02,6.95-5.92.39-.31-.11-.83-.5-.64h0Z"/>
            </g>
            <g>
              <path class="cls-2" d="M83.55,25.09c-1.05-1.56-2.25-3.25-3.89-4.25-1.72-1.06-3.62-1.02-5.53-.66-2.38.44-4.31.84-6.69.11-2.42-.74-4.53-2.31-5.98-4.37-1.36-1.94-2.53-3.53-4.84-4.37-2.36-.86-5.01-1.02-7.48-.76-2.38.24-5.02.91-6.87,2.5-3.64,3.15-1.03,10.02.45,13.69,1.95,4.84,4.99,9.37,9,12.74,6.18,5.2,15.29,6.89,22.8,3.78,1.94-.8,3.84-1.79,5.63-2.9,1.79-1.11,3.89-2.31,4.98-4.18,2.08-3.57.54-8.17-1.59-11.32Z"/>
              <path class="cls-4" d="M44.77,15.53c-.85.76-1.58,2.04-1.2,3.21.6,1.87,3.43,1.87,5,1.98,2.26.16,4.6.06,6.7-.87.88-.39,1.72-.95,2.22-1.76.63-1.02.61-2.14-.35-2.94-1.66-1.38-4.46-1.54-6.53-1.5s-4.26.47-5.83,1.87Z"/>
              <path class="cls-4" d="M77.28,23.35c-1.04-.46-2.51-.59-3.42.23-1.46,1.32-.29,3.89.26,5.37.79,2.12,1.84,4.22,3.56,5.75.72.64,1.57,1.17,2.52,1.3,1.19.15,2.2-.33,2.53-1.53.57-2.09-.44-4.69-1.33-6.57-.88-1.85-2.19-3.69-4.11-4.54Z"/>
              <path class="cls-4" d="M55.43,21.4c1.08,3.19,3.96,5.33,6.88,6.78,3.23,1.61,6.66,1.84,10.05.58.49-.18.31-.98-.19-.8-6.3,2.34-13.15-.95-16.24-6.75-.14-.26-.61-.11-.5.19h0Z"/>
              <path class="cls-4" d="M49.56,22.14c1.47,4.87,4.08,9.2,8.79,11.52s11.52,2.28,16.35-.2c.42-.21.17-.93-.29-.78-5.34,1.62-10.97,2.8-16.13-.11-4.15-2.34-6.47-6.33-8.22-10.61-.12-.28-.59-.1-.5.19h0Z"/>
              <path class="cls-4" d="M44.75,21.94c.93,6.6,6.06,13.47,12.01,16.36,3.53,1.71,6.84,2.35,10.75,2.04,3.48-.28,7.11-1.15,10.1-3.05.57-.36.09-1.29-.5-.93-5.84,3.5-14.76,4.7-20.74.87-2.9-1.85-5.36-4.3-7.23-7.18-1.69-2.61-2.5-5.52-3.62-8.38-.18-.46-.82-.14-.76.29h0Z"/>
            </g>
            <g>
              <path class="cls-2" d="M78.68,60.35c-3.24-7.4-10.66-12.94-18.77-13.48-2.1-.14-4.24-.09-6.33.1-2.1.2-4.51.34-6.32,1.54-3.45,2.28-4.1,7.09-3.59,10.85.25,1.87.58,3.91,1.6,5.53,1.07,1.71,2.79,2.51,4.67,3.05,2.33.66,4.24,1.16,6.05,2.86,1.84,1.74,3.03,4.08,3.42,6.57.36,2.34.71,4.28,2.4,6.06,1.73,1.82,4.04,3.13,6.37,4,2.36.88,5.26,1.5,7.72.67,4.16-1.42,4.86-8.32,5.18-11.99.46-5.31-.25-10.85-2.4-15.75Z"/>
              <path class="cls-4" d="M74.2,85.12c1.1-.3,2.32-1.13,2.5-2.35.29-1.95-2.25-3.19-3.61-3.99-1.95-1.14-4.1-2.1-6.39-2.19-.96-.04-1.96.09-2.77.6-1.02.64-1.49,1.65-.98,2.79.88,1.98,3.31,3.35,5.19,4.24,1.85.87,4.03,1.47,6.06.9Z"/>
              <path class="cls-4" d="M48.51,63.71c.73.88,1.99,1.64,3.17,1.31,1.89-.54,1.98-3.36,2.15-4.93.23-2.25.22-4.6-.65-6.73-.36-.89-.89-1.75-1.69-2.28-1-.67-2.12-.68-2.95.26-1.44,1.62-1.69,4.4-1.71,6.48-.03,2.04.33,4.28,1.68,5.89Z"/>
              <path class="cls-4" d="M67.24,75.13c.44-3.34-1.19-6.53-3.17-9.13-2.19-2.87-5.15-4.6-8.76-4.97-.52-.05-.71.74-.19.8,6.68.69,11.37,6.68,11.57,13.24,0,.3.5.37.54.05h0Z"/>
              <path class="cls-4" d="M72.83,77.06c.84-5.01.42-10.05-2.78-14.22-3.29-4.29-9.32-7.14-14.75-7.06-.47,0-.57.75-.08.83,5.51.91,11.07,2.35,14.41,7.25,2.68,3.94,3,8.54,2.67,13.15-.02.3.48.35.53.05h0Z"/>
              <path class="cls-4" d="M77.06,79.38c2.09-6.33.53-14.76-3.52-19.98-2.4-3.1-5.09-5.14-8.74-6.59-3.25-1.29-6.89-2.12-10.4-1.74-.67.07-.65,1.11.03,1.06,6.79-.55,15.31,2.33,18.98,8.4,1.78,2.94,2.91,6.23,3.31,9.64.36,3.09-.2,6.06-.46,9.12-.04.49.67.49.81.08h0Z"/>
            </g>
          </g>
          <path class="cls-1" d="M14.17,47.66c-.34.56-.6,1.2-.69,1.86s.08,1.67.83,1.91c1.44.45,1.23-1.98,1.58-2.76.22-.49.14-1.07-.36-1.36-.47-.28-1.08-.1-1.36.36h0Z"/>
          <path class="cls-1" d="M13.53,54.57c.04.06.07.11.11.17.05.08.1.16.18.22.03.02.05.04.08.06.1.1.21.17.35.2.14.04.28.04.42,0,.26-.07.48-.29.55-.55.03-.12.07-.25.06-.38,0-.06-.01-.13-.02-.19,0-.17-.04-.32-.13-.47-.08-.14-.19-.25-.33-.33-.22-.12-.47-.16-.71-.09-.56.15-.87.85-.55,1.36h0Z"/>
          <path class="cls-1" d="M44.77,14.44s.03-.03.05-.04c.05-.04.02-.02-.08.06.02-.01.05-.03.07-.04.07-.04.14-.07.21-.11.03-.02.06-.04.09-.06s.15-.07.01-.01c-.19.08.1-.03.17-.08l.17-.13c.16-.2.17-.22.04-.06.16-.2.25-.39.21-.64-.03-.24-.16-.44-.37-.56-.39-.24-.84-.15-1.22.07-.32.18-.52.54-.63.88-.1.31.06.71.35.86.31.16.67.12.92-.12h0Z"/>
          <path class="cls-1" d="M64.1,22.35c.17.12.32.22.53.28.32.09.68.11.97-.08.35-.22.53-.63.42-1.04-.09-.33-.34-.58-.64-.72-.09-.04-.19-.09-.28-.12s-.21-.03-.31-.04c-.07,0-.14-.02-.22-.02l-.25.03c-.12.03-.23.08-.32.17-.16.12-.29.29-.34.49-.04.16-.04.33,0,.5.06.25.24.42.43.56h0Z"/>
          <path class="cls-1" d="M68.59,23.88l.09-.06c.1-.06.19-.14.25-.25.06-.11.09-.22.09-.35,0-.12-.03-.24-.09-.35-.06-.1-.14-.19-.25-.25l-.09-.06c-.23-.14-.53-.13-.76,0s-.37.39-.37.65.14.52.37.65.53.14.76,0h0Z"/>
          <path class="cls-1" d="M53.93,49.73c.39.2.77.31,1.2.26.55-.07,1.1-.38,1.18-.98.07-.49-.3-.86-.76-.94-.2-.03-.38-.04-.58-.04-.08,0-.16,0-.25,0-.05,0-.29-.03-.07,0-.46-.08-.91.08-1.1.54-.17.4-.03.95.38,1.16h0Z"/>
          <path class="cls-1" d="M62.94,50.17l.06-.07c.07-.06.11-.13.14-.22.04-.08.06-.17.06-.26l-.02-.18c-.03-.11-.09-.21-.17-.3l-.06-.07-.16-.12-.18-.08c-.1-.03-.2-.04-.31-.01-.07,0-.13.02-.19.05-.07.02-.12.05-.17.1-.06.03-.1.08-.14.14-.05.05-.08.1-.1.17-.05.09-.07.19-.07.3l.03.2.08.18.12.16.16.12.18.08c.1.03.2.04.31.01.07,0,.13-.02.19-.05.1-.03.18-.08.25-.16h0Z"/>
        </g>
        <path class="cls-4" d="M36.06,46.5c.11.09.22.16.35.21.11.05.23.07.35.08.05,0,.09,0,.14,0,.09-.01.19-.02.27-.07.05-.03.11-.08.15-.13.05-.06.08-.12.09-.19.02-.1-.03-.19-.13-.23-.05-.02.05.02,0,0-.05-.02-.08-.03-.14-.04-.01,0-.03,0-.04,0h.07s-.05,0-.08,0c-.06-.01-.09-.02-.15,0-.03,0-.06,0-.09.01h.09c-.1,0-.2,0-.3,0h.09c-.08,0-.16-.02-.24-.05l.07.03s-.1-.05-.14-.08c-.13-.08-.3-.03-.39.08s-.09.3.02.4h0Z"/>
        <path class="cls-4" d="M35.6,48.99c.11,0,.23.01.34,0h.16c.09-.02.18-.03.26-.08.05-.03.08-.06.11-.1.06-.07.1-.15.1-.24v-.09c-.03-.06-.06-.11-.1-.15-.04-.04-.06-.07-.11-.1-.08-.05-.17-.06-.26-.06h-.16c-.11-.02-.23-.01-.34,0s-.22.04-.29.12c-.07.07-.13.19-.12.29s.04.22.12.29.18.12.29.12h0Z"/>
        <path class="cls-4" d="M68.31,43.25v-.18c-.01-.09-.03-.17-.04-.26,0-.05-.03-.11-.06-.15-.01-.02-.03-.04-.04-.06-.01-.02-.02-.05-.03-.07-.02-.04-.05-.07-.08-.1-.09-.09-.24-.09-.33,0-.03.03-.06.06-.08.1-.01.02-.02.05-.03.07,0,.02-.02.04-.04.05-.04.05-.05.1-.06.16-.01.08-.03.17-.03.26v.18c-.02.1.04.23.11.3s.19.13.3.12.22-.04.3-.12.13-.19.12-.3h0Z"/>
        <path class="cls-4" d="M62.06,75.85s.1-.09.15-.14c.03-.02.06-.05.08-.07.05-.04-.02.02-.03.03.01-.01.03-.02.05-.04.11-.08.23-.16.36-.22.25-.14.49-.3.69-.51.12-.12.05-.28-.09-.34-.34-.14-.73-.07-1.05.09-.29.15-.56.35-.79.57-.17.16-.18.48,0,.64s.46.18.64,0h0Z"/>
        <path class="cls-4" d="M61.07,73.25s.08-.07.12-.1l-.08.06c.05-.04.11-.08.16-.11.03-.01.05-.03.08-.04.06-.03.1-.07.15-.11l-.07.06s.1-.07.15-.1c.02-.01.05-.03.08-.04.06-.03.09-.08.13-.12.03-.04.03-.1.03-.14,0-.05-.03-.09-.06-.13-.07-.09-.18-.11-.29-.13-.06,0-.12-.02-.19-.02-.07,0-.14,0-.21.02-.21.07-.4.19-.56.34-.07.07-.12.19-.12.28s.04.22.12.28.18.12.28.12.21-.04.28-.12h0Z"/>
      </g>
    </g>
  </g>
</svg>