<?xml version="1.0" encoding="UTF-8"?>
<svg id="Capa_2" data-name="Capa 2" xmlns="http://www.w3.org/2000/svg" viewBox="0 0 100 100">
  <defs>
    <style>
      .cls-1 {
        fill: #fff;
      }

      .cls-2 {
        fill: #fdc733;
      }

      .cls-3 {
        fill: none;
      }

      .cls-4 {
        fill: #4a2d2d;
      }

      .cls-5 {
        fill: #faae55;
      }
    </style>
  </defs>
  <g id="COLOR">
    <g>
      <rect class="cls-3" width="100" height="100"/>
      <g>
        <g>
          <g>
            <path class="cls-5" d="M52.45,17.71c.23-1.57-.27-3.01-1.54-3.76-1.25-.74-2.46-.17-3.55.57-1.03.71-1.57,1.12-2.82.62-.68-.27-1.32-.66-2.06-.74-1.55-.18-2.61.85-3.6,1.88-.68.72-1.24,1.48-2.38,1.15-1.01-.3-1.69-.9-2.8-.93-1.42-.03-2.71.64-3.72,1.59-.29.27-.63.96-.95,1.12-.52.26-1.25-.24-1.74-.41-.75-.25-1.59-.28-2.36-.12-.79.16-1.54.54-2.14,1.08-1.06.95-1.54,1.96-3.14,1.38-1.55-.56-2.89-1.09-4.49-.25-.77.4-1.1,1.02-1.67,1.62-1.32,1.37-2.08.53-3.47.12-1.29-.38-3.02-.35-3.6,1.11-.58,1.47.58,2.55,1.48,3.52,1.16,1.26,1.3,1.9.63,3.3-.34.71-.75,1.41-.76,2.23-.04,2.04,1.77,2.47,2.76,3.87,1.16,1.64-.75,3.6.31,5.41.61,1.04,1.93,1.51,2.45,2.59.48.99-.05,2.21-.25,3.21-.4,2,.2,2.98,1.44,4.5.92,1.12.9,1.92.7,3.23-.13.84-.26,1.67,0,2.5.34,1.14,1.4,1.54,1.92,2.51.74,1.38-.15,2.08-.28,3.39-.15,1.44.78,2.64,2.27,2.37.74-.13,1.36-.54,1.96-.96.56-.4,1.01-.91,1.72-.99.57-.06,1.06.23,1.53.52.92.55,2.17,1.01,3.23.62.41-.15.76-.45,1.04-.78.45-.55.82-1.21,1.43-1.6,1.36-.88,2.55.89,3.93.91,1.86.04,2.12-1.91,3.47-2.65,1.45-.79,2.56.87,3.95,1.04,1.48.18,2.68-.79,3.53-1.89.66-.86,1.25-2.16,2.54-2.08.67.04,1.13.55,1.69.84,1.27.65,2.48.21,3.5-.73.42-.39.7-1,1.16-1.31.92-.62,2.01.08,2.95.33,1.25.33,2.6.48,3.5-.65.83-1.04.65-2.45.27-3.63-.25-.78-.73-1.53-.86-2.34-.14-.92.24-1.57.63-2.36,1.43-2.86-.74-5.42-2.72-7.42-.41-.41-1.05-.9-1.28-1.45-.34-.81.08-1.79.27-2.57.4-1.65.53-3.1-.59-4.5-.55-.69-1.66-1.38-1.88-2.29-.21-.88.47-1.96.65-2.81.37-1.82-.82-3.04-2-4.31-.91-.98-1.41-1.6-1.08-2.96.2-.82.66-1.8.79-2.64Z"/>
            <path class="cls-4" d="M17.47,30.48c-.53,4.37.58,9.27,1.74,13.46,1.14,4.12,2.65,8.5,5.08,12.05.27.39.88-.04.68-.45-1.94-4.09-3.94-7.92-5.07-12.35-.51-1.98-.88-4-1.12-6.03-.27-2.23-.21-4.5-.47-6.72-.06-.49-.78-.42-.83.04h0Z"/>
            <path class="cls-4" d="M43.46,24.29c4.25,6.86,6.37,15.5,6.05,23.57-.02.46.63.5.7.06.66-4.06-.24-8.42-1.1-12.38-.89-4.08-2.08-8.52-4.96-11.69-.3-.33-.94.04-.68.45h0Z"/>
            <path class="cls-4" d="M26.97,56.88c3.03.07,6.02-.39,8.95-1.11,2.76-.67,6.2-1.33,8.66-2.79.33-.19.19-.69-.21-.64-1.41.16-2.8.8-4.15,1.23-1.38.44-2.77.85-4.17,1.21-2.97.75-5.95,1.19-9.01,1.26-.54.01-.62.83-.07.84h0Z"/>
            <path class="cls-4" d="M46.43,52.08c.41-.18.93-.32,1.18-.71.13-.19,0-.45-.23-.47-.46-.05-.9.26-1.31.46-.47.23-.13.94.35.73h0Z"/>
            <path class="cls-4" d="M20.59,29.5c3.22-1.31,6.41-2.59,9.78-3.45,1.55-.4,3.11-.72,4.68-.97,1.67-.27,3.42-.27,5.05-.66.52-.13.51-.89-.04-.95-3.26-.34-7.06.7-10.2,1.54-3.32.88-6.63,2.07-9.62,3.76-.46.26-.14.94.35.74h0Z"/>
            <path class="cls-4" d="M25.76,35.66c-.38,1.18.97,2.17,1.98,1.41.42-.32.6-.87.38-1.36-.18-.38-.76-.82-1.19-.62-.15.07-.15.31.02.36.29.08.49.02.68.29.2.29.1.67-.16.89-.59.5-1.48-.06-1.25-.8.09-.3-.36-.46-.46-.16h0Z"/>
            <path class="cls-4" d="M38.59,29.68c-.58.54-.04,1.41.68,1.37.36-.02.71-.21.88-.52.16-.29.17-.74-.19-.86-.16-.05-.31.11-.24.27s.1.24,0,.39-.26.21-.43.22c-.24.01-.64-.25-.38-.51.21-.21-.09-.57-.31-.36h0Z"/>
            <path class="cls-4" d="M39.07,39.23c-.27.03-.51.18-.61.43-.05.12-.02.28-.03.42,0,.15-.01.31.03.46.09.31.38.54.7.54.52,0,.84-.48.82-.97-.03-.48-.4-.93-.91-.88ZM39.47,40.06s.02.07.02.11c.01.12,0,.25-.07.35-.09.14-.3.2-.43.07-.05-.05-.08-.12-.11-.19-.04-.12-.06-.26-.07-.39,0-.04,0-.08.02-.12.03-.07.1-.11.17-.12.22-.04.4.09.47.29Z"/>
            <path class="cls-4" d="M32.25,44.7c-1-.04-1.97.71-2,1.74-.02.84.53,1.63,1.37,1.82.99.23,2.29-.5,2.34-1.59.04-.99-.68-1.94-1.7-1.98ZM31.92,47.71c-1.3-.21-1.2-2.14.11-2.32.77-.11,1.3.54,1.26,1.28-.03.64-.61,1.1-1.24,1.06-.05,0-.09,0-.13-.02Z"/>
            <path class="cls-4" d="M44.41,45.04c-.1-.48-.71-.62-1.08-.34-.18.14-.28.39-.23.62.05.25.26.44.38.66.08.14.34.08.29-.09-.06-.21-.24-.46-.1-.67.1-.16.25-.11.37,0,.14.13.42.05.37-.18h0Z"/>
          </g>
          <g>
            <path class="cls-2" d="M91.32,50.79c.89-1.32,1.06-2.83.23-4.06-.81-1.21-2.15-1.22-3.45-1.02-1.24.19-1.9.33-2.81-.65-.49-.54-.91-1.16-1.54-1.56-1.32-.83-2.72-.36-4.06.15-.93.35-1.76.8-2.64,0-.78-.7-1.13-1.54-2.13-2.04-1.27-.64-2.72-.59-4.04-.17-.38.12-.98.6-1.34.6-.58.01-1.02-.76-1.39-1.12-.57-.55-1.31-.94-2.08-1.13-.78-.2-1.62-.17-2.39.05-1.37.4-2.23,1.1-3.43-.11-1.16-1.17-2.14-2.23-3.94-2.16-.87.03-1.44.45-2.2.74-1.78.67-2.11-.42-3.18-1.39-1-.9-2.57-1.62-3.72-.55-1.16,1.08-.57,2.55-.18,3.81.5,1.64.35,2.27-.85,3.25-.61.5-1.28.95-1.65,1.68-.91,1.83.53,2.99.82,4.68.34,1.98-2.23,2.92-2.05,5.02.1,1.2,1.09,2.2,1.1,3.39,0,1.1-1,1.97-1.61,2.79-1.22,1.64-1.11,2.78-.64,4.68.35,1.4-.01,2.12-.76,3.21-.48.7-.96,1.4-1.09,2.26-.18,1.18.6,2,.65,3.09.07,1.57-1.03,1.81-1.72,2.94-.75,1.23-.44,2.72,1.02,3.12.72.2,1.46.1,2.18-.03.67-.12,1.3-.38,1.98-.15.55.19.86.67,1.16,1.13.59.9,1.53,1.85,2.65,1.95.44.04.88-.07,1.27-.25.64-.3,1.26-.74,1.98-.83,1.6-.21,1.92,1.9,3.15,2.52,1.66.83,2.74-.81,4.27-.89,1.65-.09,1.93,1.89,3.11,2.64,1.26.8,2.76.44,4-.19.96-.49,2.06-1.41,3.19-.78.58.33.78.99,1.17,1.49.86,1.13,2.15,1.27,3.47.85.54-.17,1.06-.6,1.61-.68,1.1-.17,1.78.94,2.52,1.57.99.84,2.14,1.55,3.44.93,1.2-.58,1.64-1.93,1.8-3.16.11-.81,0-1.69.23-2.48.27-.89.89-1.31,1.59-1.86,2.52-1.96,1.67-5.21.74-7.87-.19-.55-.56-1.27-.53-1.86.04-.88.84-1.58,1.36-2.21,1.08-1.31,1.81-2.57,1.41-4.31-.2-.86-.9-1.96-.7-2.88.19-.89,1.27-1.56,1.8-2.26,1.12-1.48.57-3.1.05-4.75-.4-1.27-.58-2.05.3-3.13.53-.65,1.37-1.33,1.85-2.04Z"/>
            <path class="cls-4" d="M54.25,47.22c-2.36,3.71-3.47,8.62-4.24,12.89-.75,4.21-1.28,8.81-.62,13.06.07.47.81.34.81-.11.01-4.52-.14-8.85.75-13.33.4-2.01.93-3.99,1.59-5.92.72-2.13,1.75-4.15,2.48-6.27.16-.46-.52-.71-.77-.32h0Z"/>
            <path class="cls-4" d="M80.37,52.85c.88,8.03-.94,16.73-4.71,23.87-.21.4.35.72.61.35,2.35-3.38,3.42-7.7,4.35-11.65.96-4.07,1.8-8.59.57-12.69-.13-.42-.86-.37-.81.11h0Z"/>
            <path class="cls-4" d="M51.44,75.14c2.7,1.37,5.6,2.24,8.55,2.86,2.78.58,6.17,1.48,9.02,1.21.38-.03.46-.54.09-.67-1.34-.46-2.87-.48-4.27-.68s-2.86-.43-4.28-.71c-3-.6-5.89-1.49-8.68-2.75-.49-.22-.92.48-.43.73h0Z"/>
            <path class="cls-4" d="M71.07,79.21c.45.01.98.11,1.37-.13.2-.12.19-.4,0-.52-.39-.25-.93-.16-1.37-.15-.52,0-.52.79,0,.81h0Z"/>
            <path class="cls-4" d="M57.49,47.69c3.47.21,6.9.43,10.31,1.1,1.57.31,3.12.69,4.65,1.14,1.62.48,3.2,1.23,4.85,1.58.52.11.85-.58.37-.88-2.8-1.72-6.67-2.42-9.87-3.02-3.38-.64-6.87-1-10.31-.76-.53.04-.53.79,0,.82h0Z"/>
            <path class="cls-4" d="M59.5,55.47c-.85.9-.06,2.38,1.17,2.12.51-.11.92-.53.93-1.06,0-.42-.33-1.07-.8-1.07-.16,0-.27.22-.14.33.22.19.43.23.49.56.06.35-.2.65-.52.74-.75.2-1.31-.69-.78-1.27.21-.23-.13-.58-.35-.35h0Z"/>
            <path class="cls-4" d="M73.65,55.61c-.76.24-.65,1.26.02,1.53.33.14.73.12,1.02-.09.27-.19.48-.59.2-.86-.12-.12-.33-.03-.33.14s-.02.26-.17.35-.33.08-.48.01c-.22-.09-.47-.5-.13-.62.28-.1.17-.55-.13-.46h0Z"/>
            <path class="cls-4" d="M69.97,64.44c-.25-.09-.54-.06-.74.12-.1.09-.14.25-.2.36-.07.14-.15.28-.17.43-.05.31.11.65.4.79.47.22.97-.07,1.16-.52.18-.44.04-1.01-.44-1.19ZM69.98,65.36s-.01.07-.03.1c-.04.11-.11.22-.21.29-.14.09-.36.05-.42-.12-.02-.07-.02-.15-.01-.22.02-.13.05-.26.11-.38.02-.04.04-.07.07-.1.05-.05.14-.06.21-.04.21.06.33.25.29.47Z"/>
            <path class="cls-4" d="M61.46,66.44c-.88-.47-2.09-.21-2.56.71-.38.75-.22,1.7.45,2.23.8.63,2.28.54,2.79-.42.47-.88.23-2.04-.68-2.52ZM59.86,69.01c-1.08-.75-.16-2.45,1.1-2.05.74.24.94,1.05.59,1.7-.31.56-1.03.73-1.58.42-.04-.02-.08-.05-.11-.07Z"/>
            <path class="cls-4" d="M72.28,71.98c.12-.48-.38-.87-.83-.77-.23.05-.42.23-.48.45-.06.25.04.51.06.76.01.16.27.22.3.04.04-.21-.02-.52.2-.65.16-.1.27,0,.33.16.07.18.36.22.42,0h0Z"/>
          </g>
          <path class="cls-1" d="M11.61,27.71l.28-.08.24-.1c.12-.06.21-.15.28-.25.06-.06.1-.13.13-.22.06-.12.09-.24.09-.38,0-.18-.05-.34-.13-.5-.11-.22-.36-.39-.59-.45l-.28-.08c-.35-.1-.79,0-1.05.28-.19.21-.31.47-.31.76,0,.28.12.57.31.76.27.27.68.38,1.05.28h0Z"/>
          <path class="cls-1" d="M16.61,25.1v-.06s0-.02,0-.03v-.02c-.01-.09-.02-.18-.04-.27l-.1-.24h0s0-.02-.01-.02,0-.01-.01-.02l-.14-.19c-.08-.09-.18-.15-.3-.19-.07-.04-.15-.06-.23-.06-.04-.01-.08-.02-.13-.02,0,0-.01,0-.02,0s-.01,0-.02,0c-.05,0-.09,0-.14.02-.09,0-.18.02-.25.07-.09.02-.16.07-.22.13-.04.03-.07.06-.11.08,0,0-.02.01-.03.02l-.06.05c-.13.13-.22.29-.27.47-.05.19-.05.38,0,.56.05.18.14.34.27.47.1.1.21.18.34.22.13.07.26.1.41.09.19,0,.37-.05.54-.14.16-.09.29-.22.38-.38.1-.17.14-.34.14-.54h0Z"/>
          <path class="cls-1" d="M19.36,61.57c-.07.23-.07.52,0,.75.1.29.25.5.51.67.09.06.21.1.31.14.33.11.73-.02.97-.26.12-.12.21-.27.26-.44.05-.18.05-.35,0-.53v-.02c0,.09.02.18.03.27,0-.02,0-.04,0-.06l-.04.28h0c.04-.15.05-.29.02-.43,0-.06-.02-.12-.02-.18l.04.28s0-.05,0-.07l-.04.28s.01-.05.02-.07l-.11.26s.01-.02.02-.03c.15-.25.17-.55.11-.83-.05-.18-.14-.34-.28-.48-.1-.11-.21-.18-.35-.22-.13-.07-.27-.1-.42-.09-.15,0-.29.03-.42.09-.13.04-.25.12-.35.22-.13.13-.23.29-.28.48h0Z"/>
          <path class="cls-1" d="M50.04,41.53h-.01c.06-.07.12-.14.18-.22,0,0-.02.02-.02.02l.24-.18s-.03.02-.04.03l.28-.12s-.03.01-.05.01l.32-.04s-.04,0-.07,0l.32.04s-.02,0-.03,0l.53.31h0c.06.07.13.15.19.24-.05-.06-.08-.12-.13-.19-.14-.18-.13-.19-.37-.34-.01,0-.03-.02-.04-.03l.26.2s-.02-.02-.04-.03l.2.26s-.02-.03-.03-.04l.13.31s-.01-.03-.01-.05l.05.34s0-.03,0-.05l-.05.34s0-.03.01-.05l-.13.3c.05-.11.1-.22.14-.33l-.13.3s.01-.03.02-.04l-.2.25s.03-.03.05-.05l-.25.19s.04-.03.06-.04c.14-.08.25-.19.35-.31.04-.05.07-.09.11-.14l-.18.24s.02-.02.03-.03l-.23.18s.01,0,.02-.01c.41-.25.64-.77.5-1.24-.06-.22-.17-.39-.32-.56,0,0,0-.01-.02-.02-.11-.12-.24-.2-.39-.25-.05-.03-.1-.05-.15-.06-.06-.02-.28-.04-.34-.05-.01,0-.02,0-.03,0-.06,0-.16.02-.19.02-.02,0-.13.01-.19.03-.12.03-.24.09-.35.14,0,0-.02.01-.03.02-.05.03-.23.17-.27.21-.04.04-.08.1-.12.15-.08.1-.08.09-.11.16-.18.33-.22.7-.14,1.07,0,.01,0,.02,0,.03.02.08.09.24.13.32.06.11.14.21.23.3.02.02.03.03.05.05l.26.2c.05.04.11.06.17.07.1.06.21.09.33.09.06,0,.12.02.18.02.06,0,.3-.03.36-.05s.17-.07.17-.07c.06-.03.14-.05.2-.09l-.29.12h.02c-.11.01-.21.03-.32.04.13-.02.26-.02.38-.06.09-.03.23-.08.31-.13.01,0,.02-.01.04-.02.1-.06.2-.14.28-.23.06-.06.15-.18.19-.25.05-.09.09-.22.13-.31.05-.16.06-.31.02-.47,0-.16-.05-.3-.14-.44l-.18-.24c-.11-.11-.23-.2-.38-.24-.09-.05-.19-.08-.3-.08-.16-.03-.31-.03-.47.02l-.28.12c-.18.1-.32.25-.42.42h0Z"/>
          <path class="cls-1" d="M55.59,40.56l-.03-.11-.05-.12c-.03-.06-.07-.1-.12-.14-.03-.03-.07-.05-.11-.06-.06-.03-.12-.04-.19-.04l-.13.02-.12.05c-.06.03-.1.07-.14.12-.04.05-.07.1-.09.16l-.03.11c-.02.09-.02.18,0,.27.02.09.07.16.13.23l.1.08c.08.05.17.07.26.07.07,0,.14-.01.2-.04.06-.02.12-.06.16-.11.06-.06.11-.14.13-.23.02-.09.02-.18,0-.27h0Z"/>
          <path class="cls-1" d="M43.05,77.09s.05.07.07.11c.07.13.17.23.29.31.04.04.08.07.12.09.15.1.37.15.56.15.2,0,.39-.05.56-.15.2-.12.28-.22.41-.41.02-.04.05-.07.07-.11.11-.19.16-.39.16-.61,0-.22-.06-.42-.16-.61-.21-.37-.61-.6-1.04-.6s-.82.23-1.04.6c-.11.19-.16.39-.16.61,0,.22.06.42.16.61h0Z"/>
          <path class="cls-1" d="M37.32,36.19c1.05,0,1.05-1.63,0-1.63s-1.05,1.63,0,1.63h0Z"/>
          <path class="cls-1" d="M37.92,47.54c.07-.02.14-.04.2-.08.06-.04.11-.09.15-.15.04-.06.06-.13.06-.21,0-.07-.02-.14-.06-.21-.04-.06-.09-.11-.15-.15-.06-.04-.13-.06-.2-.08-.15-.05-.33,0-.44.12-.08.09-.13.2-.13.32,0,.06.01.12.04.17.02.06.05.1.09.15.11.11.29.16.44.12h0Z"/>
          <path class="cls-1" d="M25.96,42.83c.1,0,.2-.02.3-.04l.19-.08c.09-.05.17-.12.22-.21.05-.05.08-.11.1-.18.05-.1.07-.2.07-.31l-.03-.21-.08-.19c-.05-.09-.12-.17-.21-.22-.08-.07-.17-.12-.27-.14-.1-.01-.2-.03-.3-.04-.11,0-.21.02-.31.07-.1.03-.19.09-.26.17-.08.07-.13.16-.17.26-.05.1-.07.2-.07.31l.03.21c.04.14.11.26.21.36l.16.13c.13.07.26.11.41.11h0Z"/>
          <path class="cls-1" d="M64.75,58.44s0,0,0,.01l-.08-.19s0,.02,0,.03c.04.16.1.25.21.36.1.1.22.17.35.2.11.03.21.04.32.01.11,0,.2-.04.3-.09.12-.07.21-.17.29-.29.11-.19.14-.42.08-.64,0,0,0-.01,0-.02-.02-.06-.06-.14-.09-.2-.05-.09-.12-.17-.21-.22-.08-.07-.17-.12-.27-.14-.11-.03-.21-.04-.32-.01-.11,0-.21.04-.3.09-.17.11-.32.27-.37.48l-.03.21c0,.14.04.28.11.4h0Z"/>
          <path class="cls-1" d="M57.99,63.09c.08-.01.17-.02.25-.03.13-.04.24-.1.33-.19.09-.09.16-.2.19-.33.01-.07.03-.14.03-.2s-.02-.13-.03-.2c-.04-.13-.1-.24-.19-.33-.09-.09-.2-.16-.33-.19-.08-.01-.17-.02-.25-.03-.1,0-.2.02-.29.06-.09.03-.17.08-.24.16-.07.07-.13.15-.16.24-.05.09-.07.19-.06.29l.03.2c.04.13.1.24.19.33l.15.12c.12.07.24.1.38.1h0Z"/>
          <path class="cls-1" d="M69.28,70.06l.06-.02s.02,0,.03,0c.1-.03.18-.08.26-.15.04-.04.07-.08.09-.12.1-.17.1-.41,0-.58-.03-.04-.06-.08-.09-.12-.07-.07-.16-.12-.26-.15,0,0-.02,0-.03,0l-.06-.02c-.11-.03-.22-.03-.33,0-.1.03-.19.08-.27.16l-.1.12c-.06.1-.08.2-.08.31,0,.08.01.16.05.24.02.08.07.14.13.2.08.08.17.13.27.16.11.03.22.03.33,0h0Z"/>
        </g>
        <path class="cls-4" d="M78.67,84.78h.69c.13,0,.28.02.41-.02.16-.05.36-.15.36-.34s-.19-.29-.36-.34c-.13-.04-.27-.02-.41-.02h-.69c-.19,0-.37.17-.36.37s.16.36.36.36h0Z"/>
        <path class="cls-4" d="M79.37,82.76s.08-.02.11-.03h-.09c.07,0,.15,0,.22.01h-.09c.07,0,.15.02.21.05l-.08-.03c.06.03.12.06.18.09.05.02.1.05.15.06.03,0,.06.02.09.03l-.07-.03c.07.03.15.06.23.03s.15-.09.17-.17c.03-.11-.01-.21-.05-.3-.03-.07-.07-.12-.13-.17-.04-.03-.08-.07-.12-.09s-.09-.04-.14-.06c-.12-.05-.25-.07-.38-.07s-.26.02-.38.06c-.08.03-.15.07-.19.15-.04.07-.06.17-.03.25.05.17.23.28.4.23h0Z"/>
        <path class="cls-4" d="M36.27,59.89c.23.06.46.06.69.03.11-.02.21-.07.3-.13.05-.04.1-.07.15-.11s.08-.1.11-.15c.09-.18-.02-.38-.23-.39-.03,0-.05,0-.08,0-.05,0-.11.02-.16.02h.09c-.05,0-.1,0-.15,0-.04,0-.08,0-.12,0s-.09.01-.13.02h.1c-.11,0-.21,0-.32-.01h.1c-.05,0-.1,0-.15-.02-.1-.03-.21-.01-.3.04-.08.05-.16.14-.18.23-.05.2.06.43.27.48h0Z"/>
      </g>
    </g>
  </g>
</svg>