<?xml version="1.0" encoding="UTF-8"?>
<svg id="Capa_2" data-name="Capa 2" xmlns="http://www.w3.org/2000/svg" viewBox="0 0 100 100">
  <defs>
    <style>
      .cls-1 {
        fill: #fff;
      }

      .cls-2 {
        fill: #fdc733;
      }

      .cls-3 {
        fill: none;
      }

      .cls-4 {
        fill: #4a2d2d;
      }

      .cls-5 {
        fill: #faae55;
      }
    </style>
  </defs>
  <g id="COLOR">
    <g>
      <rect class="cls-3" width="100" height="100"/>
      <g>
        <g>
          <g>
            <path class="cls-5" d="M79.66,71.82c1.59-3.35,3.13-6.71,4.67-10.07,1.55-3.38,3.13-6.74,4.68-10.11.98-2.12,2.57-4.86,1.7-7.25-.87-2.38-4.32-3.91-6.6-5.02-2.93-1.44-6.15-2.51-9.42-3.09-3.21-.57-6.57-.64-9.81-.31-2.45.25-5.36.56-7.36,1.96-.17.05-.33.16-.45.33,0,0,0,0,0,.01-.01.01-.03.02-.04.03-.14.12-.21.25-.24.39-5.19,7.83-9.09,16.44-12.35,25.07-1.15,3.04-2.29,6.51.24,9.31,1.87,2.07,4.64,3.26,7.39,4.1,7.1,2.15,15.39,3.45,22.41.59,2.9-1.18,3.98-3.43,5.17-5.94Z"/>
            <path class="cls-4" d="M50.74,73.49c-4.26-2.16-4.47-6.34,1.15-7.03,5.62-.69,14.95-.82,20.62,3,5.67,3.82-1.58,5.82-4.73,6.05-7.32.54-12.78.14-17.04-2.01Z"/>
            <path class="cls-4" d="M50.1,63.73c3.78-8.02,7.63-16.01,11.45-24.01.16-.34.75-.11.59.23-3.81,8.01-7.58,16.03-11.43,24.02-.17.35-.77.11-.6-.24h0Z"/>
            <path class="cls-4" d="M56.38,63.44c3.73-8,7.25-16.08,11.01-24.07.16-.34.75-.11.59.23-3.76,7.99-7.2,16.1-10.99,24.08-.17.35-.77.11-.6-.24h0Z"/>
            <path class="cls-4" d="M62.33,63.84c3.73-8,7.25-16.08,11.01-24.07.16-.34.75-.11.59.23-3.76,7.99-7.2,16.1-10.99,24.08-.17.35-.77.11-.6-.24h0Z"/>
            <path class="cls-4" d="M68.58,65.43c3.73-8,7.25-16.08,11.01-24.07.16-.34.75-.11.59.23-3.76,7.99-7.2,16.1-10.99,24.08-.17.35-.77.11-.6-.24h0Z"/>
            <path class="cls-4" d="M74.35,68.3c3.73-8,7.25-16.08,11.01-24.07.16-.34.75-.11.59.23-3.76,7.99-7.2,16.1-10.99,24.08-.17.35-.77.11-.6-.24h0Z"/>
          </g>
          <g>
            <path class="cls-2" d="M48.19,33.91c-5.45-6.07-14.02-8.21-21.85-8.91-3.03-.27-6.24-.17-8.99,1.27-3.72,1.94-4.21,6.16-4.5,9.92-.82,10.67-1.02,21.6.39,32.24-.04.16-.03.33.05.52,0,.02.02.03.02.05,0,0,0,.01,0,.02.03.24.13.42.28.55,1.29,2.36,3.94,3.94,6.19,5.25,2.97,1.73,6.23,3.09,9.59,3.84,3.41.77,7,.99,10.48.69,2.71-.23,6.72-.4,8.66-2.6,1.93-2.19,1.65-5.83,1.68-8.53.05-4.29.08-8.59.13-12.88.06-4.28.11-8.56.12-12.84,0-3.2,0-6.09-2.25-8.6Z"/>
            <path class="cls-4" d="M23.36,28.39c-5.09.51-7.21,4.92-2.12,8.06,5.09,3.14,14.02,7.25,21.23,5.56,7.21-1.7,1.15-6.93-1.78-8.52-6.8-3.7-12.24-5.6-17.32-5.09Z"/>
            <path class="cls-4" d="M18.27,38.63c-.04,10.24,0,20.48,0,30.73,0,.43.67.43.67,0,0-10.24.05-20.48,0-30.73,0-.44-.69-.45-.69,0h0Z"/>
            <path class="cls-4" d="M24.18,41.62c-.08,10.2-.4,20.4-.44,30.6,0,.43.67.43.67,0,.04-10.2.45-20.4.45-30.6,0-.44-.69-.44-.69,0h0Z"/>
            <path class="cls-4" d="M30.1,43.72c-.08,10.2-.4,20.4-.44,30.6,0,.43.67.43.67,0,.04-10.2.45-20.4.45-30.6,0-.44-.69-.44-.69,0h0Z"/>
            <path class="cls-4" d="M36.84,44.67c-.08,10.2-.4,20.4-.44,30.6,0,.43.67.43.67,0,.04-10.2.45-20.4.45-30.6,0-.44-.69-.44-.69,0h0Z"/>
            <path class="cls-4" d="M43.71,44.04c-.08,10.2-.4,20.4-.44,30.6,0,.43.67.43.67,0,.04-10.2.45-20.4.45-30.6,0-.44-.69-.44-.69,0h0Z"/>
          </g>
          <path class="cls-1" d="M13.82,37.69c.08,1.01-.27,2.15.29,3.08.23.38.88.55,1.2.15.84-1.02.43-2.29.23-3.46-.17-.96-1.8-.75-1.72.23h0Z"/>
          <path class="cls-1" d="M13.14,46.42c.02.14.02.3.06.43s.09.26.15.38c.37.68,1.43.68,1.81,0,.06-.12.12-.25.15-.38.04-.14.04-.29.06-.43,0-.15-.03-.3-.1-.43-.04-.14-.12-.26-.23-.36-.19-.19-.51-.34-.79-.33s-.59.11-.79.33c-.19.2-.36.5-.33.79h0Z"/>
          <path class="cls-1" d="M15.93,67.1c-.02-.06-.04-.11-.06-.17-.06-.17-.13-.33-.27-.45-.13-.12-.28-.22-.45-.25l.39.23h-.02c-.08-.1-.17-.16-.27-.19-.1-.05-.21-.08-.33-.07l-.23.03c-.14.04-.27.11-.38.22h-.02c.13-.06.26-.14.39-.21-.05,0-.1.03-.14.05-.12.04-.22.11-.31.2-.13.14-.21.27-.27.45-.02.06-.04.11-.06.17-.12.34.01.79.27,1.02.21.19.46.31.74.31.27,0,.55-.12.74-.31.25-.25.39-.68.27-1.02h0Z"/>
          <path class="cls-1" d="M46.38,57.89l.04.26.06.15c.04.07.09.13.16.18.11.08.24.14.38.13.11,0,.22-.03.32-.09.07-.04.13-.09.18-.16.06-.06.09-.13.11-.21l.04-.26c.03-.12.03-.24,0-.36-.03-.11-.09-.21-.17-.3-.13-.12-.29-.2-.48-.2-.17,0-.35.08-.48.2-.08.08-.14.18-.17.3-.03.12-.03.24,0,.36h0Z"/>
        </g>
        <path class="cls-4" d="M46.86,44.98c.21-.02.42-.04.63-.08.04,0,.09-.02.13-.03.07-.02.14-.05.21-.09.04-.02.07-.04.1-.07.08-.06.13-.11.17-.2.03-.06.05-.12.04-.19,0-.07-.04-.13-.08-.17-.06-.06-.12-.11-.21-.14-.03-.01-.07-.02-.11-.03-.06-.01-.12-.02-.18-.02s-.09,0-.16.01c-.04,0-.09.01-.13.02-.18.03-.35.08-.52.12-.21.06-.35.27-.32.49.01.09.05.19.12.25.08.07.2.14.31.13h0Z"/>
        <path class="cls-4" d="M47.13,47.86l.31-.16c.09-.04.16-.11.23-.17.04-.04.08-.09.12-.14.03-.04.05-.11.06-.16.02-.05.02-.11,0-.16,0-.05-.02-.11-.05-.15-.06-.09-.14-.16-.25-.19-.02,0-.04-.01-.07-.02l-.13-.02s-.09.01-.14.02c-.01,0-.03,0-.04,0-.03,0-.06,0-.08.02-.06.02-.13.05-.19.08l-.31.15c-.06.03-.11.08-.15.13-.05.05-.08.11-.09.18-.02.07-.02.14,0,.21,0,.07.02.13.06.19.07.11.18.21.31.24l.14.02c.09,0,.18-.02.26-.07h0Z"/>
        <path class="cls-4" d="M57.32,40.82l.04.02s.03.01.04.02c.09.05.21.05.29,0,0,0,.02-.01.03-.02s.02,0,.03-.01h.01s0,0,0,0c0,0,0,0,0,0,.03-.02.06-.04.09-.07l.07-.09.04-.11.02-.12-.02-.12c-.01-.06-.04-.11-.08-.15-.02-.03-.05-.06-.08-.08-.03-.03-.06-.05-.1-.06-.03-.02-.07-.03-.11-.03-.04-.01-.08-.01-.12,0-.06,0-.11.02-.16.05l-.09.07-.07.09-.04.11-.02.12c0,.06.01.12.04.17.01.04.03.07.06.1.03.05.07.09.12.11h0Z"/>
        <path class="cls-4" d="M85.37,52.25s.03,0,.05,0l-.16.02s.09,0,.14,0l-.16-.02c.05,0,.11.02.16.04l-.14-.06c.05.02.1.05.15.09l-.12-.09c.05.04.1.09.16.12.02,0,.03.02.05.03.06.04.08.06.17.08s.14.02.23.01c.07,0,.14-.02.21-.07.08-.05.15-.12.2-.2.05-.09.08-.18.08-.28,0-.05-.01-.12-.02-.16-.01-.05-.04-.1-.06-.15,0-.01-.01-.03-.02-.04-.04-.07-.09-.13-.15-.18-.08-.07-.17-.14-.27-.19s-.2-.09-.31-.11c-.08-.01-.16-.03-.25-.03s-.17.02-.25.03c-.08.02-.15.05-.21.11-.07.04-.12.1-.16.17-.04.07-.07.14-.07.22-.02.08-.01.16.01.24.05.15.14.29.28.36l.14.06c.11.03.21.03.32,0h0Z"/>
        <path class="cls-4" d="M84.07,55.65s.05-.02.07-.02h-.1s.06,0,.09.01l-.38-.29s.01.04.02.06c.02.05.05.1.09.14.05.04.09.07.15.09.04.02.05.02.09.03.03,0,.05.01.08.02l-.11-.05s.05.02.07.04c.06.03.12.05.19.07l-.12-.05s.04.02.05.03c.07.04.16.07.24.07.09,0,.17-.02.24-.07h.01c-.11,0-.23.02-.34.04,0,0,0,0,.01,0l-.1-.04s.02.01.03.02c.07.03.14.06.22.06.05,0,.09,0,.13-.02h-.19s0,0,0,0l-.08-.03s.04.02.06.03c.09.04.2.04.28-.02s.14-.14.16-.23l-.09.16c.12-.09.16-.29.11-.43-.02-.05-.04-.1-.06-.14v.45h0s.03-.08.05-.12c.02-.06.02-.13,0-.19,0-.04-.01-.08-.03-.12-.02-.06-.05-.11-.1-.15-.04-.04-.09-.07-.13-.1-.01-.01-.03-.02-.04-.03,0,0-.02,0-.03-.01l-.12-.05s-.09-.02-.14-.02c-.02,0-.03,0-.05,0-.07,0-.15.01-.22.03-.02,0-.03,0-.05.01-.08.03-.14.06-.2.12-.08.08-.14.2-.13.32l.2-.34c-.1.07-.19.15-.24.26-.02.05-.05.11-.05.17,0,.07.03.14.07.2.04.05.08.08.13.1.06.03.15.04.22.02h0Z"/>
      </g>
    </g>
  </g>
</svg>