<?xml version="1.0" encoding="UTF-8"?>
<svg id="Capa_2" data-name="Capa 2" xmlns="http://www.w3.org/2000/svg" viewBox="0 0 100 100">
  <defs>
    <style>
      .cls-1 {
        fill: #fff;
      }

      .cls-2 {
        fill: #fdc733;
      }

      .cls-3 {
        fill: none;
      }

      .cls-4 {
        fill: #4a2d2d;
      }

      .cls-5 {
        fill: #faae55;
      }
    </style>
  </defs>
  <g id="COLOR">
    <g>
      <rect class="cls-3" width="100" height="100"/>
      <g>
        <g>
          <g>
            <path class="cls-5" d="M34.36,58.41c2.34,2.95,5.23,6.58,14.16,6.49,9.2-.09,13.35-3.81,15.15-6.31,3.25-4.51,3.16-9.74,3.16-9.74,0,0,16.14-5.32,16.41-5.77.27-.45-2.44-7.12-4.42-6.76-1.98.36-16.77,7.31-16.96,7.67-.18.36.99,8.03-4.24,10.37-5.23,2.34-12.09,3.7-14.61,2.34-2.53-1.35-4.24-3.43-4.24-3.43,0,0,0-9.38-.36-10.37s-16.59-8.48-17.41-7.94-2.25,5.95-1.8,6.13,13.08,5.32,13.08,5.32c0,0-.86,8.29,2.07,12Z"/>
            <path class="cls-5" d="M15.51,54.72c.53,1.06.34,3.17.57,4.37.28,1.45-.1,1.43.33,2.84.73,2.43,2.14,6.11,3.43,8.3,3.47,5.91,6.75,9.07,11.63,12.18,15.33,9.74,36.16,6,46.63-8.39,6.49-8.93,8.78-21.75,6.94-30.75,0,0-3.38,25.6-20.72,32.33-17.34,6.73-34.84-.17-38.38-3.53-3.53-3.37-10.43-17.34-10.43-17.34Z"/>
            <path class="cls-5" d="M26.88,34.27c.27.08,3.93-3.78,4.44-4.19,9.18-7.4,22.57-10.29,33.08-3.86,3.18,1.94,5.59,4.87,7.31,7.76l6.31-3.88s-6.76-11-18.31-13.26c-11.54-2.25-21.46.27-27.6,3.97-6.13,3.7-9.47,12.09-9.47,12.09l4.24,1.38Z"/>
            <path class="cls-5" d="M50.23,37.49c-11.36.95-9.71,15.43-9.71,15.43.3-2.02,1.37-3.85,2.68-5.4,1.68-1.98,4.34-3.08,6.92-3.15,4.15-.11,7.59,2.38,9.44,5.97h.14s1.89-13.8-9.47-12.85Z"/>
            <g>
              <path class="cls-3" d="M41.13,48.92c.13,5.59,5.87,7.68,10.69,6.76,4.61-.88,7.81-5.36,6.82-10.04-.86-4.09-5.14-6.35-9.09-6.02-4.65.4-8.53,4.6-8.42,9.3Z"/>
              <path class="cls-3" d="M67.08,67.27c-.97-1.33-2.11-2.52-3.16-3.78-1.44-1.74-3.1-3.34-4.35-5.12-.38-.54-.79-1.29-1.5-.82-2.28,1.52-4.78,2.16-7.49,2.38-.95.08-.78,1.17-.76,1.88.09,2.44.11,4.63.2,6.96.08,2.02.04,3.64.09,5.84.02.64.2,1.66,1.01,1.61,6.19-.34,11.94-1.85,16.98-5.56.55-.4.37-1.12.13-1.65-.29-.64-.75-1.19-1.16-1.75Z"/>
              <path class="cls-3" d="M52.16,36.35c3.43.48,6.45,2.03,8.72,4.66.49.57,1.05.26,1.45-.15,1.79-1.8,4.04-3.17,6-4.77,1.23-1.01,2.51-1.94,3.73-2.96.6-.5,1.19-1.03,1.74-1.59.27-.28.53-.57.79-.86.37-.41.69-.84.31-1.37-4.39-6.17-10.85-9.4-18.19-10.72-.87-.16-1.16.65-1.32,1.28-.64,2.51-1.15,5.02-1.8,7.46-.68,2.56-1.36,4.92-1.98,7.71-.13.57-.18,1.2.54,1.3Z"/>
              <path class="cls-3" d="M63,46.23c.45,3.1-.48,5.89-2.16,8.47-.44.69.25,1.27.74,1.67.71.57,1.47,1.1,2.21,1.64.96.71,1.92,1.41,2.89,2.1,1.96,1.39,3.97,3.22,6.19,4.15,0,0,.01,0,.02,0,.46.36,1.18.66,1.63.01,4.74-6.9,6.62-15.33,5.33-23.59-.02-.1-.05-.18-.08-.26,0-.01-.01-.02-.02-.03-.25-.49-.83-.38-1.34-.21-5.34,1.77-9.37,3.24-14.38,4.86-.53.17-1.15.37-1.03,1.19Z"/>
              <path class="cls-3" d="M45.54,59.77c-2.17-.42-4.6-1.44-6.2-3-.58-.56-5.45,3.71-7.46,5.32-1.85,1.48-3.94,2.78-5.59,4.48-.61.63.04,1.22.44,1.73.77.99,1.7,1.87,2.68,2.66.8.65,1.68,1.16,2.53,1.73,2.44,1.39,5.14,2.34,7.88,2.93.68.14,1.36.27,2.05.36.76.11,1.04-.62,1.15-1.17.92-4.51,3.32-14.89,2.52-15.04Z"/>
              <path class="cls-3" d="M20.29,57.02c.1.29.28.56.54.71.11.06.22.1.33.12.77.15,1.73-.28,2.46-.49,1.76-.52,3.46-1.23,5.2-1.81,2.27-.77,8.36-2.28,8.15-3.14-.62-2.51-.59-5.1.22-7.49.27-.81-.4-1.02-1.01-1.39-.84-.5-5.04-2.29-6.24-2.84-2.36-1.07-4.71-2.16-7.01-3.35-.56-.29-.95.35-1.12.79-.27.68-.49,1.39-.7,2.09-.5,1.63-.86,3.31-1.1,5-.48,3.39-.47,6.84.05,10.22.08.52.06,1.08.23,1.58Z"/>
              <path class="cls-3" d="M27.63,31.16c.42.6.88,1.17,1.35,1.73.94,1.12,1.96,2.17,2.99,3.21.99,1,1.98,2.01,3.05,2.94.66.58,1.33,1.15,2.07,1.63.53.34,1.55,1.11,2.08.42,2.23-2.9,5.24-4.44,8.82-4.98.61-.09.42-.64.33-1.13-.59-2.98-1.1-5.03-1.59-7.55-.26-1.34-.45-2.69-.64-4.05-.09-.68-.19-1.35-.29-2.03-.05-.35-.1-.69-.16-1.04-.05-.28-.05-.61-.16-.87-.11-.26-.33-.41-.61-.42-.08-.01-.16-.02-.25,0-2.87.5-5.67,1.38-8.27,2.68-2.58,1.29-4.95,2.97-7.03,4.96-.44.42-.86.85-1.28,1.3-.39.42-.95.9-1.15,1.45-.08.22-.05.44.04.66.16.39.5.77.71,1.07Z"/>
              <path class="cls-2" d="M31.37,78.65c10.98,5.63,24.57,5.27,35.61,0,2.15-1.03,4.09-2.36,5.94-3.85,8.68-7.01,13.19-20.18,12.53-31.24-.26-4.27-1.38-8.49-3.26-12.33-3.42-6.98-9.41-12.23-16.56-15.17-3.23-1.33-6.65-2.18-10.13-2.51-3.44-.33-6.92-.17-10.34.35-3.48.53-6.89,1.53-10.11,2.94-1.54.68-3.05,1.47-4.45,2.41-.01,0-.03.02-.04.03-.17.11-.34.23-.51.35-6.51,4.52-11.22,11.44-13.66,18.93-3.51,10.73-2.28,23.16,4.98,32.08,2.77,3.41,6.2,6.07,10,8.02ZM43.02,74.81c-.11.56-.39,1.28-1.15,1.17-.69-.1-1.37-.22-2.05-.36-2.75-.59-5.44-1.53-7.88-2.93-.86-.57-1.73-1.08-2.53-1.73-.97-.79-1.91-1.66-2.68-2.66-.4-.52-1.05-1.11-.44-1.73,1.65-1.71,3.74-3.01,5.59-4.48,2.01-1.61,6.88-5.88,7.46-5.32,1.6,1.56,4.03,2.58,6.2,3,.8.15-1.6,10.53-2.52,15.04ZM68.11,70.68c-5.04,3.71-10.79,5.22-16.98,5.56-.81.05-1-.98-1.01-1.61-.05-2.21-.01-3.82-.09-5.84-.09-2.34-.11-4.53-.2-6.96-.03-.72.04-1.21.99-1.29,2.7-.22,5.12-.87,7.4-2.39.71-.47.97-.32,1.35.23,1.26,1.78,2.91,3.38,4.35,5.12,1.05,1.27,2.19,2.45,3.16,3.78.41.56.87,1.11,1.16,1.75.25.54.42,1.25-.13,1.65ZM78.41,40.18c.51-.17,1.08-.28,1.34.21,0,.01.01.02.02.03.04.08.07.16.08.26,1.29,8.26-.59,16.69-5.33,23.59-.44.65-1.16.35-1.63-.01,0,0-.01,0-.02,0-2.22-.93-4.23-2.76-6.19-4.15-.97-.69-1.94-1.39-2.89-2.1-.73-.54-1.5-1.07-2.21-1.64-.49-.4-.79-.42-.35-1.11,1.68-2.58,2.57-5.87,2.12-8.97-.12-.81.14-1.07.67-1.24,5.01-1.62,9.05-3.09,14.38-4.86ZM51.62,35.05c.61-2.79,1.3-5.14,1.98-7.71.65-2.44,1.16-4.95,1.8-7.46.16-.63.45-1.43,1.32-1.28,7.34,1.31,17.87,7.97,17.09,12.94-.12.78-1.14,1.08-1.74,1.59-1.22,1.02-2.5,1.96-3.73,2.96-1.96,1.6-4.21,2.97-6,4.77-.41.41-.97.72-1.45.15-2.27-2.63-5.29-4.19-8.72-4.66-.72-.1-.66-.73-.54-1.3ZM58.64,45.64c.99,4.67-2.22,9.16-6.82,10.04-4.82.92-10.56-1.17-10.69-6.76-.11-4.69,3.77-8.9,8.42-9.3,3.95-.34,8.23,1.93,9.09,6.02ZM26.88,29.43c.2-.56.76-1.03,1.15-1.45.41-.44.84-.88,1.28-1.3,2.08-1.99,4.45-3.68,7.03-4.96,2.61-1.3,5.41-2.18,8.27-2.68.09-.02.17-.01.25,0,.28,0,.5.16.61.42.11.27.11.59.16.87.06.35.11.69.16,1.04.1.67.19,1.35.29,2.03.19,1.35.38,2.71.64,4.05.49,2.51,1.01,4.57,1.59,7.55.1.49.28,1.04-.33,1.13-3.59.53-6.59,2.08-8.82,4.98-.53.69-1.55-.08-2.08-.42-.74-.48-1.41-1.05-2.07-1.63-1.06-.93-2.05-1.94-3.05-2.94-1.03-1.04-2.05-2.09-2.99-3.21-.47-.56-.92-1.13-1.35-1.73-.21-.3-.56-.68-.71-1.07-.09-.22-.12-.44-.04-.66ZM20.01,45.22c.24-1.69.61-3.36,1.1-5,.21-.7.43-1.42.7-2.09.17-.44.56-1.07,1.12-.79,2.3,1.19,4.65,2.28,7.01,3.35,1.2.55,5.4,2.34,6.24,2.84.61.37,1.29.58,1.01,1.39-.81,2.4-.85,4.98-.22,7.49.21.86-5.88,2.37-8.15,3.14-1.74.58-3.44,1.29-5.2,1.81-.73.21-1.69.64-2.46.49-.12-.02-.23-.06-.33-.12-.26-.15-.44-.42-.54-.71-.18-.5-.16-1.06-.23-1.58-.51-3.38-.53-6.84-.05-10.22Z"/>
            </g>
            <path class="cls-4" d="M49.49,35.47s0-.03,0-.05c-.52-4.39-1.62-8.79-2.76-13.06-.23-.88-.43-2.79-1.27-3.35-1.17-.77-4.12.17-5.34.45-4.55,1.06-8.66,3.66-11.54,7.33-.72.92-2.35,2.58-1.86,3.88.27.71,1.2,1.44,1.7,1.99,1.57,1.71,3.16,3.42,4.83,5.04.84.81,1.7,1.59,2.6,2.34.71.59,1.71,1.69,2.62,1.95.78.22,1.76-1.31,2.28-1.78.77-.7,1.59-1.34,2.48-1.89,1.81-1.11,3.84-1.78,5.92-2.16.33-.06.43-.41.34-.68ZM38.65,40.77c-2.99-2.65-5.82-5.49-8.57-8.38-.53-.56-1.19-1.13-1.63-1.76-.46-.66-.44-.32-.16-1.04.93-2.42,3.36-4.57,5.48-5.93,2.24-1.44,4.74-2.33,7.32-2.93.57-.13,3-.94,3.59-.59.37.21.48,1.37.58,1.75,1.14,4.39,1.78,8.89,2.69,13.33-3.73.47-7.22,2.37-9.29,5.55Z"/>
            <path class="cls-4" d="M37.66,44c.25-.8-1.39-1.57-1.9-1.89-.93-.59-1.9-1.11-2.89-1.59-1.94-.95-3.95-1.74-5.97-2.51-1.09-.42-2.74-1.22-3.96-1.02-1.23.21-2.04,1.9-2.5,2.91-1.91,4.27-2.14,10.12-1.18,14.64.24,1.12.64,3.45,1.97,3.86.91.28,2.26-.29,3.12-.54,4.26-1.21,8.35-2.87,12.38-4.68,1.03-.47.24-1.95.16-2.75-.22-2.21.11-4.32.77-6.43ZM22.53,57.02c-.76.15-.77.17-1.23-.39-.85-1.04-1.06-3.68-1.16-4.95-.1-1.29-.07-2.6,0-3.89.15-2.68.5-5.59,1.76-8.01.51-.97.69-1.5,1.72-1.41.7.06,1.47.44,2.11.69,3.69,1.43,7.06,3.47,10.61,5.19-.88,2.46-1.37,5.41-.57,7.94-3.46,1.66-7.15,2.95-10.79,4.14-.8.26-1.63.53-2.46.69Z"/>
            <path class="cls-4" d="M45.93,59.82c-.43-.27-1.16-.36-1.56-.49-.73-.23-1.45-.48-2.11-.87-1.01-.59-1.91-1.33-2.75-2.13-.02-.02-.04-.03-.06-.04-.71-.55-1.91.66-2.51,1.06-.99.66-1.96,1.33-2.93,2.03-1.95,1.4-3.86,2.88-5.72,4.4-.84.69-2.36,1.66-2.67,2.8-.47,1.71,2.18,3.64,3.27,4.57,2,1.7,4.32,2.98,6.73,3.99,1.76.74,5.01,2.54,6.85,1.24,1.78-1.26,2.07-5.15,2.46-7.06.33-1.61.65-3.23.91-4.85.13-.8.24-1.59.33-2.39.06-.54.36-1.57-.02-2.04-.06-.07-.13-.13-.22-.19ZM42.31,74.03c-1.38,4-11.33-2.81-13.18-4.42-.68-.59-1.88-1.43-2.17-2.31-.24-.71-.02-.84.52-1.41,1.09-1.15,2.39-2.11,3.66-3.06,2.49-1.87,5.2-3.47,7.7-5.32,1.65,1.61,3.82,3.13,6.16,3.42-1.05,4.33-1.23,8.86-2.69,13.1Z"/>
            <path class="cls-4" d="M68.44,69.44c-.27-2.25-2.61-4.59-3.94-6.31-.85-1.1-1.73-2.17-2.67-3.2-.72-.79-2.04-2.93-3.24-2.64-.04,0-.08.02-.12.04-1.38.68-2.5,1.68-3.98,2.19-.97.34-1.99.49-3.01.54-.75.03-1.95-.37-2.04.67-.23,2.46-.37,4.89-.34,7.36.02,2.2-.19,5.08.58,7.18,1.19,3.26,7.86.8,9.9.1,2.21-.76,4.59-1.64,6.63-2.77,1.22-.68,2.41-1.61,2.23-3.15ZM66.18,71.03c-.47.46-1.38.73-1.96.99-1.85.82-3.72,1.58-5.66,2.16-1.8.54-4.01,1.22-5.89,1.12-.66-.03-1.21.02-1.6-.61-.38-.62-.3-2.35-.39-3.11-.37-3.45-.46-6.84-.12-10.28,2.89.37,6.27-.42,8.31-2.57,2.53,2.6,4.75,5.51,6.78,8.51.74,1.1,2.01,2.34.52,3.79Z"/>
            <path class="cls-4" d="M80.86,44.26c-.05-1.37.04-4.13-1.75-4.57-.87-.22-1.95.37-2.71.63-1.45.51-2.89,1.03-4.33,1.55-1.67.6-3.35,1.18-5.01,1.8-.85.31-1.69.64-2.53.98-.79.32-1.49.39-1.56,1.35-.12,1.53.12,3.09-.17,4.6-.34,1.76-1.13,3.3-2.23,4.7-.22.29-.11.64.12.79,0,0,0,.01.02.02,2.26,1.97,4.95,3.57,7.43,5.27,1.23.85,2.47,1.69,3.71,2.53.61.41,1.21.95,2.01.86,1.79-.21,3.11-3.11,3.75-4.46,1.14-2.44,1.86-5.08,2.41-7.71.58-2.75.97-5.52.86-8.34ZM79.51,45.72c-.09,2.45-.43,4.88-1,7.27-.47,1.97-1.02,3.92-1.81,5.78-.41.96-.86,1.92-1.4,2.82-.24.39-.58,1.15-.96,1.38-.7.44-1.23,0-1.8-.26-1.9-.9-3.75-2.64-5.49-3.84-1.7-1.17-3.37-2.48-5.16-3.51,2.06-2.44,3.45-6.34,2.42-9.41,4.1-1.14,8.08-2.8,12.08-4.22,1.42-.5,2.89-1.04,3.07,1.08.08.97.09,1.94.05,2.91Z"/>
            <path class="cls-4" d="M73.26,27.27c-1.62-1.95-3.52-3.65-5.62-5.08-2.1-1.44-4.46-2.69-6.92-3.38-1.42-.39-3.94-1.02-5.06.29-.54.63-.65,1.75-.86,2.52-.39,1.46-.76,2.93-1.11,4.4-.43,1.79-.87,3.59-1.28,5.39-.21.94-.42,1.87-.61,2.81-.15.72-.67,1.85.32,2.16,1.14.36,2.28.43,3.39.95,2.13.98,3.9,2.58,5.61,4.15.11.1.24.14.36.14.11.03.23.02.34-.06,2.44-1.63,4.81-3.29,7.16-5.06,1.72-1.3,4.3-2.6,5.37-4.56.97-1.78.06-3.27-1.1-4.67ZM70.73,33.35c-3.07,2.29-6,4.73-9.01,7.09-1.84-2.92-5.69-4.74-9.04-5.19.93-4.09,1.8-8.19,2.92-12.23.26-.94.48-2.98,1.57-3.4.92-.35,2.63.31,3.53.61,2,.68,3.92,1.7,5.68,2.87,1.65,1.1,3.16,2.38,4.53,3.81.96,1,1.92,1.88,2.06,3.29.16,1.63-1,2.25-2.23,3.16Z"/>
            <path class="cls-4" d="M59.19,45.31c-1.15-5.53-8.53-7.82-13.25-5.51-1.44.7-2.63,2-3.48,3.34-1.2,1.89-1.81,4.15-1.73,6.38.16,5.05,5.91,7.92,10.48,7.17,5.17-.85,9.09-6.1,8-11.38ZM51.42,55.22c-3.85.68-9.16-1.2-9.33-5.7-.08-2.25.58-4.64,1.95-6.44,1.49-1.96,3.64-2.59,6.02-2.57,3.16.03,6.89,1.45,7.59,4.89.85,4.15-1.95,9.07-6.24,9.82Z"/>
          </g>
          <path class="cls-1" d="M23.96,31.62c-.32-.02-.67.1-.89.34-.08.09-.15.19-.22.29-.16.21-.27.48-.24.76l.04.33.12.29.19.25c.11.12.24.2.39.25.1.06.2.08.31.08.11.03.22.03.33,0,.11,0,.21-.03.31-.08.15-.05.28-.13.39-.25.07-.08.16-.18.21-.27l.12-.3.04-.33s0-.09,0-.14c0-.07-.01-.12-.02-.2,0-.11-.03-.2-.08-.3-.03-.1-.08-.19-.15-.26-.1-.12-.21-.23-.35-.31-.16-.09-.33-.13-.51-.15h0Z"/>
          <path class="cls-1" d="M21.99,64.32c.16,0,.3-.03.44-.1.14-.05.26-.12.37-.23.11-.1.19-.22.23-.37.07-.14.1-.28.1-.44l-.04-.3c-.05-.19-.15-.36-.29-.5l-.23-.18c-.18-.1-.37-.15-.57-.15-.16,0-.3.03-.44.1-.14.05-.26.12-.37.23-.11.1-.19.22-.23.37-.07.14-.1.28-.1.44l.04.3c.05.19.15.36.29.5l.23.18c.18.1.37.15.57.15h0Z"/>
          <path class="cls-1" d="M26.99,61.3c.52,0,.52-.81,0-.81s-.52.81,0,.81h0Z"/>
          <path class="cls-1" d="M38.99,48.97c1.01,0,1.01-1.57,0-1.57s-1.01,1.57,0,1.57h0Z"/>
          <path class="cls-1" d="M48.93,18.99c-.14.11-.23.26-.32.41l-.12.3c-.05.16-.06.33-.02.49,0,.11.03.22.08.31.05.15.14.29.26.4l.25.19.3.12c.16.05.33.06.49.02.16,0,.32-.06.46-.15.03-.02.06-.04.09-.05l.26-.2.02-.02s.03-.03.04-.05c.12-.11.21-.25.26-.41.08-.15.12-.31.11-.49,0-.17-.03-.34-.11-.49-.05-.16-.14-.29-.26-.41l-.26-.2c-.2-.11-.41-.17-.64-.17l-.34.05c-.21.06-.4.17-.56.32h0Z"/>
          <path class="cls-1" d="M52.13,27.37c1.14,0,1.15-1.78,0-1.78s-1.15,1.78,0,1.78h0Z"/>
          <path class="cls-1" d="M42.89,80.46l.11.05s.03.01.05.02c.09.03.18.03.27.04l.23-.03.2-.09.17-.13c.08-.08.14-.17.18-.27.04-.07.06-.14.06-.21.02-.08.02-.15,0-.23,0-.08-.02-.15-.06-.21-.03-.11-.09-.2-.18-.27-.1-.11-.24-.18-.36-.25-.21-.12-.44-.14-.67-.09-.15.04-.28.12-.39.22-.09.08-.15.17-.18.28-.05.1-.08.22-.08.34,0,.12.02.23.08.34.04.11.1.2.18.28.11.11.24.18.39.22h0Z"/>
        </g>
        <path class="cls-4" d="M71.17,71.83c.4.15.82.24,1.25.26.23.01.47,0,.69-.05.11-.03.2-.09.29-.15.11-.08.25-.16.25-.31,0-.25-.28-.26-.46-.3-.22-.04-.46,0-.68.01-.09,0-.18,0-.27,0-.05,0-.1,0-.16-.01-.01,0-.16-.02-.09,0-.21-.03-.41-.08-.61-.14-.18-.06-.41.07-.45.26-.05.21.06.38.26.45h0Z"/>
        <path class="cls-4" d="M73.05,69.74c.33,0,.66,0,.99-.04.15-.02.29-.04.44-.08s.31-.06.45-.13c.09-.05.09-.2,0-.25-.13-.06-.29-.09-.43-.12-.15-.04-.3-.06-.45-.08-.33-.05-.66-.04-.99-.04-.19,0-.38.17-.37.37s.16.37.37.37h0Z"/>
        <path class="cls-4" d="M33.73,57.47h.06s.02-.01.03-.01c0,0,0,0,.01,0,.03,0,.07,0,.1-.01l.08-.03.07-.05s0,0,0,0l.02-.02.03-.03-.05.04h0s-.04.02-.06.02c.02,0,.04-.02.06-.02l.06-.02.05-.04s.03-.04.04-.05c0,0,0-.01.01-.02.04-.05.04-.15,0-.2,0,0,0,0-.01-.01-.01-.02-.02-.04-.04-.05,0,0-.02-.01-.03-.02-.02-.02-.05-.04-.08-.04-.02,0-.04-.02-.06-.02l.06.03h0s.04.03.05.04c-.06-.06-.12-.12-.21-.15-.04,0-.08-.01-.11-.02h-.03s-.04,0-.07-.01c-.05,0-.1,0-.14.03-.04.01-.08.04-.12.07-.04.03-.06.07-.07.12-.02.04-.03.09-.03.14v.1c.03.06.06.11.11.16l.07.06c.06.03.12.05.18.05h0Z"/>
      </g>
    </g>
  </g>
</svg>