<?xml version="1.0" encoding="UTF-8"?>
<svg id="Capa_2" data-name="Capa 2" xmlns="http://www.w3.org/2000/svg" viewBox="0 0 100 100">
  <defs>
    <style>
      .cls-1 {
        fill: #fff;
      }

      .cls-2 {
        fill: #fdc733;
      }

      .cls-3 {
        fill: none;
      }

      .cls-4 {
        fill: #4a2d2d;
      }
    </style>
  </defs>
  <g id="COLOR">
    <g>
      <rect class="cls-3" width="100" height="100"/>
      <g>
        <g>
          <g>
            <path class="cls-4" d="M61.84,27.72s1.94-2.14.59-4.18c-1.58-2.39-4.21-.33-7.05-1.58s-3.88-3.16-7.54-2.63c-3.71.53-3.59,2.47-5.5,2.6s-3.46-1.38-5.5-1.28c-1.46.07-3.33,1.74-2.8,3.92s12.58,9.81,17.91,8.36c5.33-1.45,9.88-5.2,9.88-5.2Z"/>
            <g>
              <path class="cls-2" d="M64.98,85.08c-10.24,3.16-22.69,2.29-32.41-2.25-6.07-2.84-10.42-7.44-11.06-14.33-.58-6.25,1.88-12.24,5.84-17.04,3.02-3.66,10.02-7.28,12.5-10.57.48-5-2.17-9.71-5.06-14.63-.21-.36-.41-.72-.6-1.09-.77-1.33-.1-3.87,1.64-2.25.92.86,2.99,4.13,5.07,4.74,2.39.7,2.98-.8,4.39-2.41.61-.7,1.81-1.83,2.55-1.93,1.71-.24,2.82,1.39,3.34,2.37.43.82,1.3,1.8,2.07,2.11,2.62,1.04,4.2-1.2,6.22-2.55,1.32-.88,3.13-1.52,3.46-.48.46,1.48-1.35,3.75-3.06,5.7-.94,1.07-2.34,2.01-3.27,3.09-1.69,1.96-2.46,4.18-.42,7.54,1.77,2.92,11.37,5.98,15.5,11.17,3.92,4.92,7.16,12.19,6.28,18.63-.97,7.11-6.32,12.15-12.97,14.2Z"/>
              <path class="cls-4" d="M45.28,35.12c.28,2.27.38,4.67.11,6.94-.27,2.33-1.13,4.47-1.65,6.74-.08.34.39.56.58.24,2.28-3.98,2.4-9.62,1.65-14.01-.07-.38-.73-.3-.68.09Z"/>
              <path class="cls-4" d="M51.35,36.2c-1.21,2.79-2.73,6.77-1.13,9.71.17.31.73.19.69-.19-.17-1.61-.5-3-.24-4.63.25-1.58.79-3.11,1.37-4.6.15-.39-.52-.68-.69-.29Z"/>
            </g>
          </g>
          <path class="cls-1" d="M25.76,63.8c-.45.98-.91,2.54.11,3.34.38.3.85.27,1.13-.15.43-.64.31-1.43.61-2.11.24-.53.15-1.15-.39-1.47-.46-.27-1.23-.14-1.47.39h0Z"/>
          <path class="cls-1" d="M26.02,72.43c.06.06.13.13.19.19.32.3.79.48,1.23.32l-.26.04h.02c.21,0,.42-.08.58-.2.17-.13.26-.29.34-.5v-.02c-.08.15-.16.29-.25.44.15-.15.27-.34.32-.55s.07-.45-.01-.66c-.03-.08-.07-.16-.1-.25-.06-.21-.16-.39-.32-.55-.15-.15-.34-.26-.55-.32-.32-.07-.66-.05-.95.12-.68.4-.82,1.38-.25,1.94h0Z"/>
          <path class="cls-1" d="M73.19,74.86c.07-.23.12-.48.12-.73,0-.3-.11-.59-.26-.85-.15-.28-.44-.44-.74-.48-.34-.05-.59.07-.85.28-.25.19-.41.43-.51.73-.08.23-.1.48-.13.72-.04.27.16.67.35.85.2.18.42.3.69.33.59.08,1.16-.28,1.32-.86h0Z"/>
        </g>
        <path class="cls-4" d="M64.27,82.53c.15-.01.28-.03.42-.08.12-.04.25-.08.37-.12.27-.1.54-.23.8-.35.24-.11.48-.23.7-.37.24-.16.63-.48.49-.82s-.63-.25-.9-.14-.54.24-.79.39c-.23.13-.47.25-.68.41-.23.16-.46.32-.65.53-.09.1-.12.23-.07.35.05.11.17.21.3.2h0Z"/>
        <path class="cls-4" d="M63.76,80.78c.13.01.25.02.38,0,.1-.02.2-.04.29-.07.13-.05.24-.12.35-.19.07-.05.14-.1.19-.17.07-.09.12-.16.14-.28,0-.04.01-.07.01-.11l-.05.2c.03-.06.06-.12.07-.18.03-.1,0-.22-.06-.31s-.17-.12-.27-.13c-.06,0-.13.02-.19.03h.21c-.08-.01-.14-.02-.22-.01-.08.01-.16.05-.23.08-.06.03-.11.07-.16.1-.08.06-.17.1-.24.17-.05.04-.1.08-.15.12l.09-.07c-.08.06-.15.11-.22.18-.04.04-.09.08-.14.12-.09.08-.1.22-.06.32.05.12.15.17.27.18h0Z"/>
        <path class="cls-4" d="M33.8,79.37c.1.02.2.05.29.09l-.11-.05c.05.02.1.05.15.07s.09.06.14.09c.1.05.19.1.28.17l-.08-.06s.04.03.05.04c.08.06.17.12.27.11.09,0,.16-.03.23-.08.15-.12.19-.32.1-.49-.06-.11-.13-.2-.2-.3s-.17-.18-.28-.24c-.19-.11-.39-.19-.61-.22-.06-.02-.12-.02-.18,0-.06,0-.12.02-.17.05-.09.05-.18.16-.21.27-.03.11-.02.24.05.35.06.09.15.18.27.21h0Z"/>
      </g>
    </g>
  </g>
</svg>