<?xml version="1.0" encoding="UTF-8"?>
<svg id="Capa_2" data-name="Capa 2" xmlns="http://www.w3.org/2000/svg" viewBox="0 0 100 100">
  <defs>
    <style>
      .cls-1 {
        fill: #fff;
      }

      .cls-2 {
        fill: #fdc733;
      }

      .cls-3 {
        fill: none;
      }

      .cls-4 {
        fill: #4a2d2d;
      }
    </style>
  </defs>
  <g id="COLOR">
    <g>
      <rect class="cls-3" width="100" height="100"/>
      <g>
        <g>
          <g>
            <path class="cls-2" d="M56.28,1.39c-.26-.07-.92.41-1.09.56-1.15.97-2.13,3.14-2.75,4.13-1.45,2.31-2.89,4.64-4.32,6.97-4.1,6.68-8.16,13.38-12.23,20.07-8.39,13.82-16.68,27.69-25.14,41.47-1.22,1.99-2.44,3.98-3.69,5.95-.39.61-.79,1.21-1.17,1.82-.61.97-2.24,2.8-1.46,3.99,1.49,2.27,3.49-1.69,4.2-2.81,1.34-2.12,2.65-4.27,3.96-6.41,8.51-13.9,16.88-27.89,25.31-41.85,3.99-6.6,7.97-13.2,11.99-19.78,1.38-2.26,2.76-4.51,4.16-6.75.97-1.55,2.2-3.1,2.88-4.79.4-1,.65-2.23-.65-2.56Z"/>
            <path class="cls-4" d="M6,86.94c2.22-1.11,4.24-5.86,6.11-8.78,4.14-6.48,8.18-13.03,12.22-19.57,9.07-14.68,18.09-29.4,26.86-44.26,1.52-2.58,3.04-5.17,4.51-7.78.66-1.17,1.14-2.14,1.53-3.44.13-.43.07-.84-.09-.42-.72,1.82-4.4,7.32-5.66,9.46-3.89,6.62-7.86,13.19-11.84,19.76-8.82,14.55-17.56,29.11-26.62,43.51-1.63,2.59-3.05,5.35-4.71,7.92-.74,1.15-1.68,2.44-2.61,3.46-.32.35.06.27.3.15Z"/>
          </g>
          <g>
            <path class="cls-2" d="M64.06,4.97c-.26-.07-.93.4-1.1.54-1.16.95-2.17,3.12-2.8,4.1-1.48,2.3-2.95,4.6-4.4,6.92-4.18,6.63-8.32,13.28-12.46,19.93-8.55,13.72-17.01,27.5-25.63,41.17-1.24,1.97-2.49,3.95-3.76,5.9-.39.61-.8,1.2-1.19,1.81-.62.96-2.27,2.77-1.5,3.97,1.46,2.29,3.51-1.65,4.23-2.77,1.36-2.11,2.7-4.23,4.04-6.36,8.67-13.8,17.21-27.69,25.79-41.55,4.06-6.56,8.13-13.11,12.22-19.64,1.41-2.24,2.81-4.48,4.24-6.71.98-1.53,2.24-3.07,2.94-4.76.41-1,.68-2.22-.62-2.56Z"/>
            <path class="cls-4" d="M12.78,89.93c2.23-1.08,4.31-5.81,6.21-8.71,4.22-6.43,8.33-12.93,12.45-19.43,9.24-14.57,18.43-29.18,27.37-43.95,1.55-2.56,3.1-5.13,4.6-7.73.67-1.16,1.16-2.13,1.57-3.42.14-.43.08-.83-.08-.42-.74,1.81-4.48,7.27-5.77,9.39-3.97,6.57-8.02,13.1-12.07,19.62-8.99,14.45-17.9,28.9-27.12,43.19-1.66,2.57-3.12,5.32-4.8,7.86-.76,1.14-1.71,2.42-2.65,3.43-.32.35.06.27.3.15Z"/>
          </g>
          <g>
            <path class="cls-2" d="M73.58,9.91c-.26-.08-.94.38-1.12.52-1.18.92-2.25,3.06-2.91,4.03-1.54,2.26-3.07,4.52-4.59,6.8-4.36,6.51-8.67,13.06-12.99,19.59-8.91,13.49-17.73,27.04-26.71,40.48-1.3,1.94-2.59,3.88-3.92,5.8-.41.59-.83,1.18-1.24,1.78-.64.95-2.34,2.71-1.61,3.93,1.4,2.33,3.56-1.56,4.31-2.65,1.42-2.07,2.81-4.16,4.2-6.25,9.04-13.57,17.93-27.23,26.89-40.85,4.23-6.45,8.47-12.89,12.74-19.31,1.46-2.2,2.93-4.4,4.42-6.59,1.02-1.51,2.32-3.01,3.07-4.68.44-.98.73-2.2-.55-2.58Z"/>
            <path class="cls-4" d="M20.08,93.48c2.26-1.02,4.46-5.69,6.44-8.54,4.39-6.32,8.67-12.71,12.96-19.09,9.62-14.32,19.2-28.69,28.53-43.21,1.62-2.52,3.24-5.05,4.81-7.6.7-1.14,1.22-2.1,1.66-3.37.15-.43.11-.83-.07-.42-.78,1.79-4.68,7.15-6.01,9.23-4.14,6.47-8.36,12.88-12.59,19.29-9.37,14.2-18.65,28.42-28.26,42.46-1.73,2.52-3.25,5.23-5.01,7.73-.79,1.12-1.78,2.38-2.74,3.36-.33.34.05.27.29.16Z"/>
          </g>
          <g>
            <path class="cls-2" d="M83.18,13.92c-.26-.09-.95.34-1.13.47-1.22.88-2.36,2.98-3.05,3.92-1.62,2.2-3.23,4.41-4.83,6.62-4.59,6.35-9.14,12.73-13.7,19.11-9.4,13.15-18.71,26.37-28.17,39.47-1.37,1.89-2.73,3.78-4.13,5.65-.43.58-.87,1.15-1.3,1.73-.68.92-2.44,2.62-1.75,3.87,1.32,2.38,3.61-1.43,4.4-2.49,1.49-2.02,2.96-4.06,4.43-6.09,9.53-13.23,18.92-26.55,28.36-39.84,4.47-6.29,8.94-12.57,13.44-18.83,1.54-2.15,3.09-4.29,4.66-6.42,1.08-1.47,2.43-2.92,3.24-4.57.48-.97.81-2.17-.46-2.6Z"/>
            <path class="cls-4" d="M26.65,95.48c2.29-.94,4.67-5.53,6.75-8.3,4.61-6.15,9.13-12.38,13.65-18.6,10.14-13.96,20.24-27.96,30.09-42.13,1.71-2.46,3.42-4.93,5.08-7.42.74-1.11,1.29-2.05,1.78-3.31.16-.42.14-.83-.06-.42-.85,1.76-4.93,6.97-6.35,9.01-4.38,6.31-8.83,12.57-13.29,18.82-9.88,13.85-19.68,27.71-29.79,41.4-1.82,2.46-3.44,5.11-5.29,7.55-.83,1.09-1.86,2.31-2.86,3.26-.35.33.04.27.29.17Z"/>
          </g>
          <g>
            <path class="cls-2" d="M93.58,19.87c-.25-.1-.97.29-1.16.41-1.27.8-2.53,2.83-3.28,3.73-1.75,2.1-3.48,4.21-5.21,6.33-4.95,6.07-9.87,12.18-14.79,18.28-10.15,12.58-20.21,25.23-30.42,37.76-1.47,1.81-2.95,3.62-4.45,5.4-.46.55-.94,1.1-1.4,1.65-.73.88-2.59,2.47-1.97,3.76,1.18,2.45,3.69-1.21,4.54-2.23,1.61-1.93,3.19-3.88,4.78-5.82,10.28-12.65,20.43-25.41,30.63-38.12,4.83-6.02,9.65-12.03,14.51-18.02,1.67-2.05,3.34-4.11,5.02-6.14,1.16-1.4,2.59-2.78,3.5-4.37.53-.94.94-2.12-.31-2.62Z"/>
            <path class="cls-4" d="M32.4,98c2.34-.8,4.98-5.24,7.22-7.89,4.97-5.87,9.84-11.83,14.71-17.78,10.94-13.35,21.83-26.74,32.49-40.31,1.85-2.36,3.7-4.72,5.5-7.12.8-1.07,1.41-1.98,1.97-3.2.19-.41.18-.82-.03-.43-.95,1.71-5.33,6.67-6.86,8.62-4.74,6.04-9.54,12.03-14.36,18.01-10.67,13.25-21.26,26.52-32.15,39.59-1.96,2.35-3.74,4.9-5.72,7.22-.89,1.04-1.99,2.2-3.05,3.08-.36.31.02.27.28.19Z"/>
          </g>
          <path class="cls-1" d="M54.94,3.33l-.08.09s-.02.03-.04.04c-.03.03-.06.07-.08.1-.05.07-.06.16-.06.24,0,.06.01.12.04.17.02.06.05.1.09.15.08.08.2.14.32.13h0c.06,0,.12-.01.18-.04.04-.01.07-.03.1-.06.02-.01.03-.03.05-.04.02-.01.03-.03.05-.04l.09-.08s.08-.09.1-.15c.03-.06.04-.12.04-.18,0-.07-.01-.13-.04-.18-.02-.06-.05-.11-.1-.15-.09-.08-.21-.14-.33-.14s-.25.04-.33.14h0Z"/>
          <path class="cls-1" d="M41.53,24.66l-.02.16c0,.05,0,.1.03.15.02.05.04.09.08.13.07.07.18.13.28.11l.16-.02.14-.02.13-.05c.06-.03.11-.08.15-.14.03-.03.06-.07.07-.12.02-.04.04-.09.04-.13.01-.05.01-.09,0-.14,0-.05-.01-.09-.04-.13-.02-.07-.06-.12-.11-.17l-.11-.08-.13-.05-.14-.02-.14.02-.13.05c-.06.03-.11.08-.15.14-.03.03-.06.07-.07.12-.03.06-.05.13-.05.21h0Z"/>
          <path class="cls-1" d="M38.15,30.29s-.03.02-.04.04c-.05.05-.09.11-.11.17-.03.06-.05.13-.05.21,0,.14.05.28.16.38.01.01.03.02.04.04.07.07.16.12.26.15.08.02.16.03.24.01.05,0,.1-.01.15-.04.05-.01.09-.04.13-.08.04-.03.08-.06.11-.11.04-.04.06-.08.08-.13.04-.07.05-.15.05-.23l-.02-.16-.06-.14-.09-.12-.12-.09-.14-.06c-.08-.02-.16-.03-.24-.01-.05,0-.1.01-.15.04-.07.02-.14.06-.19.12h0Z"/>
          <path class="cls-1" d="M26.75,65.85c.5-.21.81-.97.35-1.38-.23-.21-.53-.15-.7.09.05-.07.03-.05-.02.02-.03.03-.05.07-.07.11-.03.07-.03.08-.01.03.02-.04.02-.04,0,0l-.06.13c-.04.09.05-.07,0-.02-.01.02-.06.07,0,.02.09-.09-.05.08-.08.12.02-.02.07-.08.02-.03-.03.03-.05.05-.08.07-.21.16-.19.51-.04.7.17.23.44.24.69.14h0Z"/>
          <path class="cls-1" d="M28.71,63.01c.12-.14.24-.29.35-.44.05-.07.06-.18.05-.26s-.05-.18-.11-.24c-.05-.05-.11-.08-.18-.11-.09-.03-.24-.02-.32.04-.15.11-.3.22-.44.35-.18.16-.18.49,0,.66s.48.19.66,0h0Z"/>
          <path class="cls-1" d="M55.07,38.97c.22-.1.41-.26.53-.46.07-.13.13-.27.14-.42,0-.06,0-.12-.03-.18v.07c0-.07-.02-.16-.03-.23-.08-.3-.5-.43-.72-.19-.01.02-.06.06-.07.07l.15-.08-.13.06c-.1.05-.16.14-.22.23s.05-.05,0,0c-.02.02-.05.05-.07.07l-.09.12s-.03.04,0,0c.05-.07-.02.02-.03.03-.03.03-.06.05-.08.08-.2.17-.19.5-.04.7.17.22.44.25.69.14h0Z"/>
          <path class="cls-1" d="M80.31,17.71l-.43.25c-.15.08-.24.28-.18.45.05.15.21.31.38.29l.48-.06c.17-.02.34-.08.43-.25.06-.12.09-.25.05-.38-.08-.31-.45-.46-.73-.3h0Z"/>
          <path class="cls-1" d="M76.59,22.64h-.07c-.16.04-.29.16-.38.29-.11.17-.11.41,0,.58.09.14.22.25.38.28h.07c.11.04.21.04.32.01.1-.03.19-.08.27-.16.11-.12.18-.26.18-.43,0-.08-.01-.16-.05-.23-.02-.08-.07-.14-.13-.19-.08-.08-.16-.13-.27-.16-.11-.03-.21-.03-.32,0h0Z"/>
          <path class="cls-1" d="M32.03,86.69c.3-.31.6-.87.36-1.3-.15-.27-.53-.24-.68,0-.09.13-.09.29-.14.44-.03.08-.09.18-.15.25-.16.17-.17.44,0,.61.16.16.45.17.61,0h0Z"/>
          <path class="cls-1" d="M61.26,61.34c.19-.17.33-.38.43-.61.09-.2.12-.42.21-.63.16-.4-.45-.73-.72-.42-.15.17-.33.3-.47.48-.16.2-.28.41-.35.66-.14.54.5.87.9.52h0Z"/>
          <path class="cls-1" d="M65.29,56.19c.13-.01.26-.03.37-.12s.21-.18.24-.32.01-.27-.05-.41h0c.02.07.05.16.07.24.02-.17-.05-.36-.17-.48-.13-.13-.34-.17-.5-.07-.11.07-.16.17-.21.29l.04-.1s-.02.03-.03.05l.07-.09s-.03.03-.04.04l.1-.08s-.02.01-.02.02l.39-.05h-.01c-.12-.03-.23-.02-.35.02s-.19.12-.25.22h0s.06-.06.08-.09c-.01.02-.03.03-.04.04l.1-.08s-.03.02-.04.02l-.1.08s-.08.1-.11.16c-.04.1-.06.22-.03.33.03.08.07.16.13.22.08.08.24.16.36.15h0Z"/>
        </g>
        <path class="cls-4" d="M41.75,72.55c.42,0,.42-.65,0-.65s-.42.65,0,.65h0Z"/>
        <path class="cls-4" d="M42.65,57.38l.03-.04.02-.02h0s.02-.04.03-.05c.02-.02.04-.05.05-.08,0-.01.01-.03.02-.05.03-.13,0-.26-.09-.35s-.23-.13-.35-.09h0s-.06.03-.09.04l-.07.06h0s0,0-.01.01l-.02.02-.04.03s-.06.07-.08.12c-.02.04-.03.09-.03.14,0,.05,0,.1.03.14.02.05.04.09.08.12l.08.06c.06.03.12.05.19.05h.1c.06-.03.12-.06.16-.11h0Z"/>
        <path class="cls-4" d="M44.69,54.57s0-.05,0-.07c0-.01,0-.03,0-.04,0-.05,0-.09-.02-.14-.02-.07-.05-.12-.1-.17-.05-.05-.11-.08-.17-.1h0c.08.08.17.17.25.25v-.03s-.02-.01-.02-.02h0c-.01-.05-.03-.09-.06-.12-.02-.04-.06-.07-.1-.09-.01,0-.03-.02-.04-.02-.03-.01-.03-.01-.04-.02-.03,0-.08-.01-.09-.01-.03,0-.06,0-.09.01,0,0,0,0,0,0-.03,0-.06.02-.08.04l-.07.05c-.06.05-.08.13-.11.21l.25-.25h0c-.07.02-.12.06-.17.1-.05.05-.08.11-.1.17,0,.04-.01.09-.02.14,0,.01,0,.03,0,.04,0,.02,0,.05,0,.07,0,.05,0,.1.03.15.02.05.04.09.08.13.04.04.08.07.13.08.05.02.1.04.15.03h.1c.07-.03.12-.07.17-.12l.06-.08c.04-.06.05-.13.05-.2h0Z"/>
        <path class="cls-4" d="M81.16,36.55l.24-.25s.04-.04.06-.06c.04-.04.07-.09.09-.14.02-.04.04-.07.05-.11.01-.03.02-.04.02-.07v-.04s.02-.1,0-.15c-.01-.05-.04-.09-.07-.12-.04-.03-.08-.06-.12-.07-.05-.01-.1-.01-.15,0-.02,0-.05,0-.07.01l-.08.03s0,0-.01,0c0,0-.01,0-.02,0l-.04.02c-.05.03-.1.05-.14.09-.02.02-.04.04-.07.06l-.25.24s-.06.08-.08.13c-.02.05-.04.1-.03.15,0,.05,0,.1.03.15.02.05.04.09.08.13.07.07.17.12.28.11s.2-.04.28-.11h0Z"/>
        <path class="cls-4" d="M47.48,16.04l.18-.09s.07-.04.1-.07c0-.01.02-.02.03-.03.02-.02.04-.04.06-.07.04-.06.05-.15.03-.22,0-.02-.02-.05-.03-.06-.05-.09-.16-.15-.27-.14-.01,0-.03,0-.04,0-.03,0-.06,0-.09.01-.03,0-.05.02-.08.03,0,0-.01,0-.02.01l-.18.09s-.07.05-.09.08c-.03.03-.05.07-.06.11-.01.04-.01.08,0,.12,0,.04.01.08.04.12.04.07.11.12.19.14h.08c.06.01.11,0,.16-.03h0Z"/>
      </g>
    </g>
  </g>
</svg>