<?xml version="1.0" encoding="UTF-8"?>
<svg id="Capa_2" data-name="Capa 2" xmlns="http://www.w3.org/2000/svg" viewBox="0 0 100 100">
  <defs>
    <style>
      .cls-1 {
        fill: #fff;
      }

      .cls-2 {
        fill: #fdc733;
      }

      .cls-3 {
        fill: none;
      }

      .cls-4 {
        fill: #4a2d2d;
      }
    </style>
  </defs>
  <g id="COLOR">
    <g>
      <rect class="cls-3" width="100" height="100"/>
      <g>
        <g>
          <path class="cls-2" d="M72.94,28.43c-.05-.05-.1-.1-.15-.15-1.52-1.44-3.89-1.86-5.8-2.51-.86-.29-1.75-.77-2.25-1.55-.59-.93-.6-2.16-.73-3.22-.36-3.04-.89-10.06-5.6-9.04-2.17.47-3.49,3.2-4.77,4.77-.76.94-1.52,1.94-2.4,2.78-1.76,1.68-3.56.53-5.52-.01-1.78-.49-4.31-1.15-6.11-.42-1.82.74-2.06,2.77-1.39,4.41.84,2.05,2.87,3.31,4.02,5.15,1.73,2.78-1.09,6.82-1.92,9.68-.43,1.49-.9,3.24.09,4.61,1.23,1.7,3.74.87,5.45.22,1.8-.68,3.48-2.52,5.54-2.34,2.62.22,4.54,6.2,6.44,7.22,1.72.92,3.35.76,4.43-.82,2.46-3.6.38-9.23,5.14-11.28,1.95-.84,4.05-1.24,5.57-2.85,1.3-1.38,1.28-3.27-.03-4.63ZM54.55,35.48c-3.55-.4-5.65-3.57-4.77-7.02.87-3.41,4.12-4.61,7.06-3.51,2.05.63,3.66,2.56,3.76,4.89.15,3.3-2.77,6.01-6.04,5.65Z"/>
          <path class="cls-2" d="M87.86,72.63c-.03-.07-.06-.13-.09-.19-.96-1.86-3.06-3.05-4.64-4.29-.71-.56-1.39-1.31-1.6-2.21-.25-1.07.15-2.24.38-3.28.67-2.99,2.5-9.78-2.28-10.39-2.2-.27-4.36,1.86-6.08,2.91-1.03.63-2.08,1.32-3.18,1.82-2.22,1-3.53-.68-5.2-1.84-1.52-1.06-3.68-2.52-5.63-2.42-1.96.09-2.87,1.93-2.78,3.69.11,2.21,1.6,4.07,2.08,6.19.71,3.2-3.29,6.08-5.03,8.49-.9,1.26-1.92,2.76-1.45,4.37.59,2.01,3.24,2.06,5.07,2.02,1.93-.04,4.12-1.22,6-.37,2.39,1.08,2.22,7.36,3.67,8.95,1.31,1.44,2.9,1.83,4.45.69,3.52-2.57,3.43-8.58,8.6-8.93,2.11-.14,4.23.17,6.2-.84,1.69-.87,2.29-2.66,1.5-4.38ZM75.74,69.85c-.96,3.16-4.61,4.75-7.58,3.32-3.22-1.55-4.15-5.25-2.17-8.2,1.95-2.93,5.42-2.98,7.82-.97,1.73,1.28,2.6,3.63,1.92,5.86Z"/>
          <path class="cls-2" d="M43.13,70.26c-.55-4.32-5.85-7.16-3.65-11.85.9-1.92,2.2-3.62,2.27-5.83.06-1.9-1.22-3.3-3.1-3.44-.07,0-.14,0-.22-.01-2.09-.06-4.15,1.2-6,1.98-.83.35-1.82.58-2.71.33-1.06-.3-1.88-1.21-2.68-1.92-2.29-2.03-7.35-6.93-10.19-3.04-1.3,1.79-.49,4.71-.4,6.73.05,1.21.15,2.46.05,3.67-.2,2.43-2.31,2.76-4.13,3.65-1.66.82-3.99,2-4.85,3.75-.87,1.76.3,3.44,1.88,4.22,1.99.98,4.34.57,6.42,1.18,3.14.92,3.72,5.82,4.99,8.51.66,1.4,1.48,3.02,3.12,3.39,2.05.46,3.37-1.84,4.22-3.45.9-1.71.93-4.2,2.58-5.43,2.1-1.57,7.51,1.62,9.61,1.12,1.9-.45,3.01-1.66,2.76-3.56ZM29.58,66.63c-2.92,2.06-6.6,1.09-8.23-2.08-1.61-3.13.02-6.19,2.94-7.31,1.95-.89,4.43-.51,6.06,1.15,2.3,2.37,1.92,6.33-.77,8.24Z"/>
          <path class="cls-4" d="M56.83,24.95c-2.94-1.1-6.18.1-7.06,3.51-.88,3.45,1.22,6.62,4.77,7.02,3.27.37,6.19-2.35,6.04-5.65-.1-2.33-1.71-4.25-3.76-4.89ZM54.77,33.85c-2.68-.01-4.04-2.11-3.69-4.61.6-4.34,7.63-3.63,7.82.59.1,2.35-1.88,4.03-4.12,4.02Z"/>
          <path class="cls-4" d="M73.82,63.99c-2.4-2.01-5.87-1.96-7.82.97-1.98,2.96-1.05,6.65,2.17,8.2,2.97,1.43,6.62-.16,7.58-3.32.67-2.23-.2-4.58-1.92-5.86ZM68.92,71.71c-2.52-.9-3.11-3.33-1.95-5.58,2-3.89,8.41-.89,7.18,3.15-.68,2.25-3.11,3.18-5.23,2.42Z"/>
          <path class="cls-4" d="M24.29,57.24c-2.92,1.13-4.55,4.19-2.94,7.31,1.63,3.16,5.31,4.14,8.23,2.08,2.69-1.9,3.07-5.87.77-8.24-1.62-1.67-4.1-2.04-6.06-1.15ZM28.67,65.27c-2.01,1.77-4.42,1.11-5.82-.99-2.44-3.64,3.29-7.79,6.24-4.75,1.63,1.68,1.27,4.26-.41,5.75Z"/>
          <path class="cls-1" d="M58.26,13.41c-.87.26-1.6.98-2.18,1.66-.59.69-1.25,1.44-1.05,2.41.07.33.47.55.79.45.81-.26,1.14-1,1.66-1.61s1.18-1.13,1.61-1.82c.34-.54-.23-1.27-.84-1.09h0Z"/>
          <path class="cls-1" d="M54.56,19.04s-.08-.01-.12-.02c-.07-.02-.14-.02-.2,0-.11.01-.21.04-.31.09-.08.05-.15.11-.22.17-.06.06-.12.13-.15.2-.08.16-.14.35-.08.53.09.29.34.47.64.51.06,0,.13.02.19.02.14,0,.28-.04.4-.1.07-.04.13-.09.19-.14.19-.19.27-.48.2-.74-.04-.13-.1-.24-.2-.33-.09-.09-.21-.16-.33-.2h0Z"/>
          <path class="cls-1" d="M40.96,20.51c-.11.21-.22.42-.29.65-.14.46.33.93.79.79.23-.07.44-.18.65-.29.25-.13.43-.44.41-.72,0-.22-.08-.43-.25-.59-.36-.36-1.07-.32-1.31.17h0Z"/>
          <path class="cls-1" d="M18.49,46.95c-.87.98-1.85,3.31-.55,4.34.3.23.69.23.91-.12.36-.56.26-1.1.33-1.74.07-.61.24-1.25.44-1.83.22-.63-.69-1.15-1.13-.66h0Z"/>
          <path class="cls-1" d="M17.84,54.52c0,.1,0,.2.02.3.02.17.1.36.24.47.11.1.25.17.41.17s.28-.06.41-.17c.13-.11.21-.3.24-.47.01-.1.02-.2.02-.3.02-.35-.32-.68-.66-.66-.17,0-.35.06-.47.19s-.2.29-.19.47h0Z"/>
          <path class="cls-1" d="M10.69,63.31c-.12.14-.25.28-.37.43-.28.36-.36.96.01,1.3.34.31.81.3,1.18.05.2-.13.32-.32.47-.5.16-.2.27-.38.27-.64,0-.22-.1-.49-.27-.64s-.4-.28-.64-.27-.49.09-.64.27h0Z"/>
          <path class="cls-1" d="M59.09,54.6c-1.43,1.22-.67,3.83.85,4.58.25.12.53.06.68-.18.45-.73.07-1.2-.26-1.88s-.3-1.54-.45-2.3c-.08-.39-.57-.44-.83-.22h0Z"/>
          <path class="cls-1" d="M60.32,61.03l.07.06c.06.05.12.12.2.15.11.06.22.09.34.09.09,0,.18-.02.26-.06.08-.03.16-.07.22-.14.08-.08.14-.18.17-.3.02-.08.03-.17.02-.25v-.08c0-.13-.04-.26-.11-.38-.07-.11-.16-.2-.27-.27-.12-.07-.24-.1-.38-.1-.1,0-.2.02-.29.06-.09.03-.17.08-.24.15-.09.09-.16.2-.19.33-.04.13-.04.26,0,.4.04.13.1.24.19.33h0Z"/>
          <path class="cls-1" d="M56.22,70.28l-.17.12c-.08.06-.18.12-.25.19-.11.11-.14.17-.19.28l-.1.23c-.04.13-.05.26-.02.39,0,.09.02.17.07.24.04.12.11.22.2.31.12.11.27.2.43.25.25.08.52.01.75-.1.11-.05.19-.09.28-.2.07-.08.13-.17.19-.25l.12-.17.1-.23c.04-.13.05-.25.02-.38-.03-.2-.11-.41-.26-.55-.12-.11-.26-.19-.42-.24-.13-.04-.25-.05-.38-.02-.13,0-.24.04-.35.11h0Z"/>
        </g>
        <path class="cls-4" d="M59.65,44.12l.63-.1c.1-.02.2-.05.29-.08.15-.04.3-.11.37-.25.05-.09.04-.22-.04-.3-.12-.11-.27-.13-.43-.13-.13,0-.26.01-.39.03l-.63.11c-.08.01-.18.1-.22.17-.05.08-.06.19-.04.28s.08.17.17.22c.09.05.18.05.28.04h0Z"/>
        <path class="cls-4" d="M59.36,42.29h.61c.1.01.2.01.3.01.08,0,.17,0,.25-.01.11-.03.19-.09.27-.16.07-.06.12-.19.12-.28,0-.1-.04-.22-.12-.28-.09-.07-.16-.13-.27-.16-.08-.02-.16-.02-.24-.01h-.31c-.2,0-.41.01-.61.01-.23,0-.46.2-.45.45s.2.44.45.45h0Z"/>
        <path class="cls-4" d="M37.87,70.05c.1.03.19.07.3.07h.11c.08,0,.16-.01.22-.05.03-.02.06-.04.08-.06.03-.03.06-.07.07-.12.01-.02.02-.03.02-.05l-.23.23s.04-.01.05-.02c.03,0,.06-.02.08-.03.04-.02.06-.05.09-.08.03-.04.07-.12.07-.18,0-.05-.02-.1-.05-.15s-.05-.06-.08-.09-.07-.04-.11-.06c-.02,0-.04-.01-.05-.02l.23.23s-.04-.09-.07-.13c-.03-.04-.06-.07-.11-.1-.07-.04-.14-.05-.22-.05h-.11c-.11,0-.2.03-.3.06-.07.02-.12.06-.16.11s-.07.12-.07.19c0,.06.02.11.04.16.04.07.11.12.19.15h0Z"/>
        <path class="cls-4" d="M36.34,67.86s.03-.01.04-.02c-.05.02-.05.02-.02,0,.02,0,.04-.02.06-.02.05-.02.1-.03.15-.05.1-.03.2-.05.3-.06h-.09c.13,0,.25,0,.38-.03h-.09c.06,0,.12,0,.18-.01.05-.01.09-.04.14-.06.06-.03.11-.05.14-.11s.04-.13.02-.19c-.03-.11-.16-.19-.26-.24-.06-.03-.13-.03-.2-.04-.04,0-.08-.01-.11,0-.16,0-.33.04-.49.08s-.32.11-.47.19-.21.3-.12.44c.04.07.11.13.19.15.09.02.16,0,.25-.03h0Z"/>
        <path class="cls-4" d="M83.24,75.25l.2-.04s.06-.01.1-.02c0,0,0,0,.01,0,.05-.01.09-.03.12-.06.04-.02.07-.06.09-.1h0s.01-.02.02-.03c.03-.05.04-.1.04-.15,0-.05-.01-.1-.04-.15,0,0-.01-.01-.02-.02-.02-.03-.04-.05-.06-.08-.04-.05-.11-.08-.17-.09-.03,0-.06-.01-.1-.02l-.2-.04c-.07-.02-.15-.02-.22,0-.07.02-.13.06-.18.11l-.06.08c-.04.06-.06.13-.06.21,0,.06,0,.11.04.16.02.05.05.1.09.13.05.05.11.09.18.11.07.02.15.02.22,0h0Z"/>
        <path class="cls-4" d="M82.15,73.14h.2c.05,0,.1,0,.15,0s.1-.01.15-.02l.09-.02c.06-.01.12-.03.18-.07l.15-.09c.19-.11.19-.4,0-.5l-.15-.09c-.05-.03-.11-.06-.17-.07l-.1-.02s-.06-.01-.09-.02c-.08-.01-.14-.02-.21-.02h-.2c-.12,0-.24.05-.32.13s-.14.21-.13.32.04.24.13.32.2.13.32.13h0Z"/>
      </g>
    </g>
  </g>
</svg>