<?xml version="1.0" encoding="UTF-8"?>
<svg id="Capa_2" data-name="Capa 2" xmlns="http://www.w3.org/2000/svg" viewBox="0 0 100 100">
  <defs>
    <style>
      .cls-1 {
        fill: #fff;
      }

      .cls-2 {
        fill: #fdc733;
      }

      .cls-3 {
        fill: none;
      }

      .cls-4 {
        fill: #4a2d2d;
      }
    </style>
  </defs>
  <g id="COLOR">
    <g>
      <rect class="cls-3" width="100" height="100"/>
      <g>
        <g>
          <path class="cls-2" d="M82.13,31.94c-2.53-3.28-5.78-5.24-9.46-7.01-4.28-2.06-8.39-4.4-12.41-6.93-1.95-1.23-3.86-2.53-5.79-3.8-1.25-.83-2.49-1.72-4.07-1.44-2.91.52-4.02,3.04-4.01,5.64-1.26-3.08-3.66-5.47-7.18-3.55-2.69,1.47-4,4.65-5.45,7.18-1.8,3.14-4.31,5.49-6.99,7.86-4.79,4.24-8.77,9.29-11.1,15.3-4.76,12.25-.17,26.14,9.95,34.18,9.8,7.79,23.48,10.94,35.59,7.36,13.84-4.08,23.8-17.28,25.83-31.3,1.16-7.99.14-16.94-4.92-23.48ZM47.45,23.06c1.51,3.7,4.44,6.93,7.98,8.83-2.83.34-5.61.9-8.37,1.66-1.64.45-3.28.91-4.91,1.39,3.11-2.87,5.17-6.75,5.31-11.12,0-.24,0-.5,0-.76Z"/>
          <path class="cls-4" d="M20.88,52.04c-.2,4.38-.15,8.75,1.62,12.85,1.56,3.62,3.99,6.92,6.87,9.61,4.92,4.59,11.5,7,18.2,7.03,13.11.05,26.45-8.41,31.52-20.6,3.16-7.6,3.42-17.69-1.41-24.7-.43-.63-1.38-.09-1.03.6,3.41,6.8,4.19,13.78,1.91,21.1-1.99,6.41-6.17,11.89-11.57,15.82-9.83,7.14-23.65,9.17-34.06,2.06-3.61-2.46-6.59-5.76-8.66-9.61-2.37-4.38-2.76-9.28-2.68-14.17,0-.45-.67-.44-.69,0h0Z"/>
          <path class="cls-4" d="M28.12,41.71c6.2-2.82,12.65-5.38,19.42-6.4,3.42-.51,6.89-.87,10.34-1.18,3.1-.27,6.39-.25,9.45-.79.67-.12.63-1.17,0-1.32-3.16-.75-6.93-.58-10.16-.3-3.44.3-6.78.93-10.11,1.84-6.72,1.84-13.38,3.83-19.58,7.05-.74.38-.09,1.44.64,1.1h0Z"/>
          <path class="cls-1" d="M41.33,15.27c-1.62.28-3.79,2.14-2.95,3.93.25.53,1.13.78,1.61.42.33-.25.52-.47.69-.84.14-.34.17-.41.1-.23l.06-.11c.04-.07.09-.15.13-.22-.06.07-.06.07,0,0,.08-.1.17-.19.27-.28.06-.05.06-.06,0,0,.05-.04.1-.07.16-.11.27-.17.25-.16.59-.25.63-.16,1-.86.84-1.47-.19-.67-.83-.95-1.47-.84h0Z"/>
          <path class="cls-1" d="M35.92,22.13c-.08.15-.17.31-.2.46l-.05.35.05.35.13.31h.01c.13.19.25.37.46.48l.29.12.33.04s.01,0,.02,0c.07,0,.04,0,.19-.02.12,0,.23-.03.33-.09.11-.03.21-.09.29-.17.05-.03.1-.07.15-.12l.21-.27s.01-.02.02-.04l.05-.09c.1-.15.15-.31.16-.49.04-.17.03-.35-.02-.52-.04-.17-.12-.32-.24-.45-.09-.14-.22-.26-.37-.34l-.31-.13c-.23-.06-.47-.06-.7,0l-.31.13c-.2.12-.35.27-.47.47h0Z"/>
          <path class="cls-1" d="M77.6,33.11c.22.11.43.23.63.38.09.07.19.13.3.19.18.09.37.15.58.16.23.01.41-.08.61-.17.36-.15.51-.59.54-.94.08-.96-1.08-1.39-1.82-1.62-.52-.16-1.09.15-1.29.63s-.04,1.12.45,1.37h0Z"/>
          <path class="cls-1" d="M34.96,72.29c.93,1.75,3.4,4.33,5.58,3.03.36-.21.55-.76.3-1.13-.53-.76-1.32-1.13-2.1-1.57-.79-.44-1.45-.98-2.02-1.69-.82-1.03-2.33.28-1.76,1.36h0Z"/>
          <path class="cls-1" d="M44.46,76.4l.29.19c.34.23.79.32,1.18.18.26-.09.47-.22.65-.45s.25-.47.27-.75c.02-.4-.17-.82-.48-1.07l-.27-.22c-.17-.17-.37-.28-.6-.35l-.36-.05c-.42-.02-.81.21-1.06.53-.12.13-.2.28-.24.46-.06.18-.06.36-.02.54,0,.18.06.35.16.5.12.2.28.36.49.49h0Z"/>
        </g>
        <path class="cls-4" d="M81.73,64.84c-.11-.08-.23-.17-.35-.24s-.25-.12-.38-.18c-.09-.04-.19-.1-.29-.13-.07-.02-.15-.03-.22-.05-.25-.05-.58-.02-.7.25-.1.23.04.48.21.63.08.07.17.15.26.21.06.03.12.06.17.09.16.08.32.17.49.23.13.05.26.08.4.12.25.07.51-.06.6-.3.04-.1.06-.23.03-.33-.04-.13-.12-.22-.24-.31h0Z"/>
        <path class="cls-4" d="M82.36,62.81c-.13-.19-.27-.37-.44-.53-.07-.07-.14-.14-.22-.2-.1-.08-.2-.16-.32-.22-.07-.04-.16-.08-.23-.1s-.15-.02-.22-.01c-.13.01-.24.03-.33.12s-.13.24-.09.37c.02.06.05.12.08.18.04.07.09.14.15.19.11.09.21.17.32.26l-.1-.08c.2.15.37.33.53.53l-.08-.1s.06.08.09.12c.08.11.17.2.3.23.12.03.28.02.39-.05s.2-.17.23-.3.03-.28-.05-.39h0Z"/>
        <path class="cls-4" d="M59.16,83.69c.03-.25,0-.5-.09-.73-.05-.13-.11-.26-.19-.38-.05-.07-.1-.13-.17-.19-.04-.03-.07-.06-.11-.09-.07-.04-.15-.05-.23-.06-.02,0-.04,0-.05,0-.16,0-.34.12-.37.28,0,.02,0,.03-.01.05-.02.1-.02.19.01.29s.06.18.1.26l-.05-.12c.08.2.14.41.17.62l-.02-.14c0,.06.01.13.01.19,0,.13.05.26.15.35.09.09.23.15.35.15s.26-.05.35-.15l.08-.1c.05-.08.07-.16.07-.25h0Z"/>
        <path class="cls-4" d="M29.79,45.13c.02-.13.06-.25.1-.38.02-.06.04-.12.06-.18s.03-.12.06-.19l-.04.1c.04-.09.08-.19.11-.28.01-.03.02-.06.03-.09,0-.04.01-.07.02-.11,0-.03,0-.06,0-.09,0,.05,0,.07,0,.04,0-.06-.02-.13-.07-.17s-.11-.07-.17-.07c-.17-.01-.31.09-.44.19-.04.03-.08.07-.11.11-.06.07-.12.12-.17.19-.08.11-.14.24-.19.37-.04.1-.08.21-.1.31-.03.12-.02.26.05.37.06.1.17.19.28.22.12.03.26.02.37-.05.1-.06.2-.16.22-.28h0Z"/>
        <path class="cls-4" d="M32.73,44.66c-.02-.13-.02-.27-.02-.41,0-.04,0-.07,0-.11,0-.02,0-.14,0-.04,0-.06.02-.14.04-.2s.03-.13.05-.2c0-.04.02-.07.03-.1,0-.04.01-.08.02-.12,0,.04,0,.05,0,.02.03-.15.05-.29.06-.43s-.16-.22-.28-.16c-.3.16-.49.48-.57.8s-.11.63-.07.95c.01.1.03.19.11.26.06.06.17.11.26.11.18,0,.4-.17.37-.37h0Z"/>
      </g>
    </g>
  </g>
</svg>