<?xml version="1.0" encoding="UTF-8"?>
<svg id="Capa_2" data-name="Capa 2" xmlns="http://www.w3.org/2000/svg" viewBox="0 0 100 100">
  <defs>
    <style>
      .cls-1 {
        fill: #c8d8ea;
      }

      .cls-2 {
        fill: #7ea2c6;
      }

      .cls-3 {
        fill: #fff;
      }

      .cls-4 {
        fill: #3b72a8;
      }

      .cls-5 {
        fill: none;
      }

      .cls-6 {
        fill: #4a2d2d;
      }
    </style>
  </defs>
  <g id="COLOR">
    <g>
      <rect class="cls-5" width="100" height="100"/>
      <g>
        <path class="cls-4" d="M61.14,11.3c-4.93-.13-20.29-.27-25.23-.29-4.79-.02-9.59-.1-14.38,0-2.4.05-9.65.13-12.05.23-2.32.09-4.16.42-4.18,1.51-.37,25.71-.4,51.43-.41,77.14,0,1.52,1.89,1.79,6.57,1.91,4.93.13,20.07-.02,25,0,4.79.02,9.59.1,14.38,0,2.4-.05,10.23.09,12.63,0,2.32-.09,3.58-.64,3.6-1.73.37-25.71.4-51.43.41-77.14,0-1.52-1.66-1.49-6.34-1.62Z"/>
        <g>
          <path class="cls-3" d="M23.8,28.98c-2.17-1.81-2.35-2.72-1.91-3.77.16-.41.53-.81.79-.92.27-.14.68-.11.99.06.38.18.7.54.73.66.09.4.42.79.85.75.24-.04.42-.21.5-.46.17-.52-.11-1.35-.62-1.86-.57-.52-1.47-.87-2.24-.87-.12,0-.26,0-.44.03-.59.11-1.09.4-1.52.88-.53.6-.78,1.18-.84,2.01-.17,1.86.32,2.8,2.36,4.54,1.4,1.21,2.02,1.92,2.36,2.71.37.88.16,1.48-.7,1.93-1.01.56-2.24.33-3.06-.56-.37-.4-.59-.89-.72-1.55-.05-.44-.16-1.04-.65-1.18-.17-.04-.33,0-.46.11-.24.19-.34.58-.34,1.25,0,1.89,1.11,3.29,2.97,3.74.27.07.64.1,1.01.1.45,0,.92-.05,1.26-.15,1.34-.37,2.21-1.22,2.51-2.44.18-.74.07-1.49-.35-2.36-.34-.69-1.38-1.81-2.45-2.67Z"/>
          <path class="cls-3" d="M32.82,22.45c-.3-.14-.7-.21-1.16-.21-.28,0-.58.05-.79.13-.39.17-1.32,1.21-1.58,1.71-.79,1.51-1.18,3.43-1.18,5.89,0,1.83.19,3.36.56,4.41.35,1.07,1.44,2.09,2.48,2.32.2.05.6.08.97.08.28,0,.55-.02.7-.06,1.12-.34,2.03-1.76,2.45-3.81.27-1.25.22-5.45-.08-7.03-.34-1.83-1.12-2.95-2.37-3.42ZM33.4,33.39h0c-.21.78-.55,1.27-1.02,1.45-.48.16-1.02.15-1.33-.03-.19-.11-.67-.71-.78-1.07-.3-.83-.42-2.16-.38-3.94.08-2.36.27-3.38.84-4.56.35-.8.81-1.25,1.27-1.25.13,0,.23.02.32.07.51.26,1.05,1.2,1.21,2.1.36,1.92.28,5.78-.13,7.24Z"/>
          <path class="cls-3" d="M42.63,26.97c-.78-1.03-3.1-3.43-3.85-3.84-.19-.1-.39-.17-.68-.2h-.05c-.37.03-.65.24-.77.57l-.02.08c-.02.26.02,10.66.04,11.68.02.85.24,1.16.95,1.36h0c.19.05.49.08.91.08.13,0,.27,0,.43,0,.8-.02,1.07-.07,1.55-.21,2.34-.71,3.83-2.59,3.64-4.55-.13-1.37-1.06-3.5-2.15-4.96ZM38.9,26.9v-1.49c.8.69,2.21,2.51,3.09,3.89.45.71.89,1.77.98,2.2.03.18.05.5.01.81-.02.6-.19,1.06-.55,1.49-.56.67-1.25,1.01-2.48,1.21h0c-.35.06-.7.13-.9.18-.01-.26-.01-.78-.01-1.37,0-.7-.03-1.74-.05-2.58v-.62c-.02-.24-.03-.54-.04-.88-.03-.89-.06-2.01-.06-2.85Z"/>
          <path class="cls-3" d="M53.74,32.71c-.38-1.34-.51-2.01-.46-2.3.07-.37.04-.67-.36-.96-.13-.07-.26-.41-.45-1.16-.1-.4-.4-1.44-.67-2.29-.26-.82-.45-1.68-.49-1.94-.08-.53-.16-.92-.56-1.11l-.05-.03h-.07s-.08-.02-.14-.02c-.26,0-.58.13-.66.36-.04.08-.19.58-.28.87-.12.39-.46,1.41-.78,2.33l-1.06,3.05c-.3.86-.77,2.14-1.1,2.91-.85,2.01-.99,2.57-.99,3.32-.03.55.06.75.15.86.15.2.32.24.43.24.01,0,.03,0,.04,0,.35-.03.6-.41.91-1.07.06-.12.15-.36.26-.67.14-.36.31-.81.48-1.23.29-.69.62-1.58.85-2.2.07-.2.26-.73.34-.8.12.02.76.13,1.39.2.5.06.86.11,1.04.14.16.51.62,2.22,1,3.62.34,1.28.49,1.64.79,1.84.22.15.4.21.66,0,.11-.09.28-.27.36-.47.2-.45.09-1.1-.59-3.51ZM51.1,29.37c-.08,0-.18,0-.28,0-.97,0-1.2-.08-1.25-.14,0-.22.44-1.69.78-2.49.2.74.57,2.02.75,2.63Z"/>
        </g>
        <path class="cls-6" d="M56.4,14.82c0,.25-.07.5-.04.76.03.28.12.58.21.85.17.46.44,1.03.93,1.21.33.12.71-.06.76-.42.06-.44-.16-.82-.27-1.24-.06-.22-.08-.44-.12-.66-.02-.11-.05-.22-.07-.33-.04-.2-.06-.25-.04-.15.06-.99-1.37-1.02-1.36-.02h0Z"/>
        <path class="cls-6" d="M58.64,19.68c.24.43.58.98,1.11,1.04.41.04.85-.3.76-.74-.03-.15-.07-.3-.16-.43-.05-.06-.1-.12-.15-.18-.04-.06-.08-.12-.12-.17-.06-.08.06.12.02.03-.02-.04-.04-.08-.06-.12-.17-.36-.61-.59-.99-.41-.18.08-.34.22-.41.4s-.1.42,0,.59h0Z"/>
        <path class="cls-6" d="M61.84,22.89c.22.1.43.21.65.29.4.15.91.13,1.11-.31.33-.75-.65-1.12-1.16-1.38-.36-.18-.87.03-1.01.4-.15.39,0,.83.4,1.01h0Z"/>
        <path class="cls-2" d="M59.61,57.47c-.43-4.19-2.19-8.29-5.2-12.09-5.09-6.42-14.22-7.11-21.68-5.49-8.08,1.76-15.17,6.83-17.22,15.18-.04.17-.08.35-.12.52-.13.6-.23,1.2-.31,1.81-1.12,9.4,4.59,18.76,13.47,22.03,2.27.84,4.69,1.16,7.09,1.28,3.01.16,6.16.29,9.12-.39,4.82-1.12,8.57-4.83,11.19-8.87,2.97-4.58,4.15-9.34,3.68-14Z"/>
        <path class="cls-6" d="M24.53,53.61c1.33,0,1.34-2.07,0-2.07s-1.34,2.07,0,2.07h0Z"/>
        <path class="cls-6" d="M29.34,48.61c1.09,0,1.09-1.69,0-1.69s-1.09,1.69,0,1.69h0Z"/>
        <path class="cls-1" d="M97.5,54.86s-.02-.03-.03-.04c-2.46-3.62-7.26-2.42-10.82-1.69-10.88,2.22-21.92,3.6-32.8,5.86-6.13.57-23.87,2.65-23.78,2.43-1.33.19-3.01.62-4.35,1.35-.04.02-.08.04-.12.07-.17.09-.32.19-.47.29-.74.5-1.31,1.12-1.56,1.88-.12.35-.17.73-.13,1.14.02.26.07.51.14.75.02.53.05,1.06.1,1.6.27,2.65.96,5.27,1.77,7.81.9,2.82,1.71,6.6,3.88,8.78,2.27,2.28,6.34,2.32,9.35,2.49,3.45.2,7.45.49,10.8-.54,3.17-.97,4.18-3.47,5.35-6.32.64-1.55,1.03-3.17,1.47-4.79.27-.99.59-1.82,1.57-2.29.74-.35,2.15-.74,2.96-.91,7.24-1.55,14.06-2.68,21.14-4.7,5.37-1.53,12.96-3.26,15.81-9.05.18-.36.3-.74.37-1.12.19-1.04-.05-2.09-.65-2.99Z"/>
        <path class="cls-6" d="M98.15,57.85c-1.85,1.98-5.97,2.78-8.41,3.4-7.48,1.9-14.95,3.81-22.42,5.7-.4.1-.79.2-1.19.3-7.48,1.9-14.98,4.16-22.61,5.39-3.43.55-6.92.85-10.38.45-1.42-.16-2.84-.38-4.21-.78-1.37-.39-2.73-.96-3.85-1.87-.66-.54-1.09-1.16-1.39-1.96-.05-.53-.22-2.08-.24-2.34-.04-.41.01-.79.13-1.14.25-.75.82-1.37,1.56-1.88.15-.1.31-.2.47-.29-.18.34-.56.96-.7,1.28-.81,1.87.17,4.08,1.85,5.12,2.94,1.8,6.98,2.05,10.34,1.99,7.3-.16,14.48-2.43,21.5-4.23,2.92-.75,5.83-1.49,8.74-2.24,4.44-1.14,8.78-2.1,13.22-3.24,3.61-.92,7.33-1.83,10.94-2.76,1.49-.38,3.97-.88,5.19-1.88.76-.62.99-1.35.79-2.06,0,.01.02.03.03.04.6.9.83,1.95.65,2.99Z"/>
        <path class="cls-3" d="M29.67,65.46c-1.36-1.87.4-5.57,1.54-8.66,1.14-3.09,4.57-8.86,10.14-8.46,5.57.4,12.35,10.14,13.16,12.82.81,2.69,0,3.22-3.56,4.57s-9.33,2.42-11.75,2.55c-2.42.13-7.05.6-9.53-2.82Z"/>
        <path class="cls-6" d="M40.92,63.51c.18,0,.35-.03.51-.11.16-.05.31-.14.43-.27.13-.12.22-.26.27-.43.08-.16.12-.33.11-.51l-.05-.35c-.06-.22-.18-.42-.34-.59l-.27-.21c-.21-.12-.43-.18-.67-.18-.18,0-.35.03-.51.11-.16.05-.31.14-.43.27-.13.12-.22.26-.27.43-.08.16-.12.33-.11.51l.05.35c.06.22.18.42.34.59l.27.21c.21.12.43.18.67.18h0Z"/>
        <path class="cls-6" d="M41.48,56.51c.05.13.11.27.17.4.12.2.28.36.48.48.21.12.44.18.68.18.24,0,.47-.06.68-.18.2-.12.36-.28.48-.48.06-.13.11-.27.17-.4.07-.24.07-.49,0-.73-.07-.23-.18-.44-.35-.61l-.28-.22c-.21-.12-.45-.19-.69-.19-.19,0-.37.03-.53.12-.17.06-.32.15-.44.28-.17.17-.29.37-.35.61-.07.24-.07.49,0,.73h0Z"/>
        <path class="cls-6" d="M46.01,61.89c1.57,0,1.57-2.44,0-2.44s-1.57,2.44,0,2.44h0Z"/>
        <path class="cls-6" d="M28.23,64.05c2.36,5.09,10.35,4.76,14.96,4.04,2.72-.42,14.15-2.1,12.76-6.89-.3-1.02-1.6-.7-1.72.23-.26,1.99-3.6,2.75-5.18,3.3-2.16.75-4.39,1.33-6.65,1.72-3.96.69-10.67.98-12.87-3.17-.46-.87-1.71-.11-1.31.76h0Z"/>
      </g>
    </g>
  </g>
</svg>