<?xml version="1.0" encoding="UTF-8"?>
<svg id="Capa_2" data-name="Capa 2" xmlns="http://www.w3.org/2000/svg" viewBox="0 0 100 100">
  <defs>
    <style>
      .cls-1 {
        fill: #f5ba9e;
      }

      .cls-2 {
        fill: #8b5245;
      }

      .cls-3 {
        fill: #fff;
      }

      .cls-4 {
        fill: none;
      }

      .cls-5 {
        fill: #4a2d2d;
      }
    </style>
  </defs>
  <g id="COLOR">
    <g>
      <rect class="cls-4" width="100" height="100"/>
      <g>
        <path class="cls-2" d="M77.18,60.08c-.36-3.5-.68-6.9-1.07-10.26-.06-.52-.12-1.05-.19-1.58-.48-3.88-1.08-7.73-2.01-11.7-.34-1.43-.52-3.36-1.43-4.55-.92-1.2-2.4-.95-3.75-.89-4.08.16-8.24.92-12.28,1.46,0-.03,0-.07-.01-.1-.05-.44-.11-.92-.17-1.44-.73-6.2-2.12-17.68-3.1-17.59-5.06.42-10.85,1.06-15.98,1.74-.35.05-.7.09-1.05.14,0,0-.01,0-.02,0-2.39.31-4.77.67-7.16,1.01-2.45.34-5.54.28-7.74,1.44-.09.05-.15.11-.21.18-.21.14-.36.37-.36.69-.04,5.79.78,11.6,1.58,17.37.05.38.1.76.16,1.14.14,1.02.27,2.04.4,3.06.61,4.84,1.17,9.71,1.91,14.55.05.36.11.72.17,1.08.3,1.89.63,3.76,1.01,5.63,5.35-.76,10.72-1.21,15.84-1.47.3-.02.6-.03.9-.05,14.52-.67,26.99.17,31.38-.12,0,.08.02.17.03.26.24,1.96,3.34,2.02,3.13,0Z"/>
        <path class="cls-2" d="M83.87,7.42c-.75-.86-2.25-1.28-3.27-1.72-2.08-.9-4.12-1.9-6.26-2.62-1.12-.38-2.27-.69-3.45-.85-.72-.1-2.4-.45-2.97.15-.2.2-.3.47-.4.74-1.1,2.92-2.09,5.87-3.15,8.8-.93,2.54-2.3,5.11-2.06,7.9.17,2.08,3.65,2.87,5.26,3.55,2.67,1.13,5.73,2.52,8.63,2.84,2.28.26,2.66-2.11,3.42-3.81,1.24-2.77,2.44-5.54,3.41-8.42.57-1.7,2.27-4.9.84-6.54Z"/>
        <path class="cls-5" d="M59.13,51.63c5.56-.55,11.74-1.11,16.97-1.82-.06-.52-.12-1.05-.19-1.58-5.27.37-11.41,1.17-16.98,1.84-.19-1.5-.37-3.01-.57-4.51-.57-4.38-1.14-8.77-1.98-13.12.02,0,.03,0,.05,0-.05-.44-.11-.92-.17-1.44-4.94.67-10.65,1.57-15.47,2.25-.36.05-.73.1-1.11.15-.36-3.13-.74-6.27-1.19-9.51-.25-1.78-.92-6.26-1.31-8.74-.35.05-.7.09-1.05.14,0,0-.01,0-.02,0,.79,5.72,1.51,12,2.21,18.28-4.98.64-11.61,1.39-16.1,2.4.05.38.1.76.16,1.14,4.57-.26,11.27-1.42,16.1-2.15.67,5.98,1.32,11.93,2,17.37-5.5.75-11.07,1.58-15.79,2.39.05.36.11.72.17,1.08,4.75-.6,10.31-1.33,15.8-2.03.28,1.97.78,4.32,1.05,6.2,0,0,0,.02,0,.03.07.49.87.39.9-.08,0-.02,0-.03,0-.05-.07-2.1-.25-4.2-.49-6.29,4.53-.57,8.95-1.12,12.77-1.53.94-.1,1.92-.2,2.92-.3.07.59.15,1.17.22,1.76.23,1.88.15,4.17.87,5.94.15.38.82.51.91,0,.34-1.88-.24-4.05-.47-5.94-.08-.63-.16-1.26-.24-1.89ZM54.44,50.62c-3.73.42-8.04.95-12.45,1.54-.3-2.51-.66-5.02-.97-7.5-.43-3.36-.79-6.61-1.16-9.86.17-.02.34-.05.5-.07,4.77-.66,10.09-1.39,14.98-2.1.61,4.52,1.22,9.03,1.8,13.55.18,1.36.34,2.72.51,4.07-1.1.13-2.18.26-3.21.38Z"/>
        <path class="cls-1" d="M81.19,75.47c-.74-5.04-1.49-10.06-2.45-15.06-.04-.22-.16-.37-.32-.46,0-.02,0-.04-.01-.06-.18-.82-54.89.93-54.85,1.77.25,5.77,1.23,11.99,2.25,17.68,1.03,5.75,1.94,11.81,3.87,17.35.06.18.15.33.25.45.04.5.48.99,1.14.89,8.43-1.35,16.99-2.08,25.46-3.06,5-.58,10.01-1.14,15.01-1.72,3.26-.38,6.97-.37,10.08-1.42.5-.17.78-.56.85-.98.05-.09.09-.2.1-.31.59-4.87-.69-10.25-1.39-15.05Z"/>
        <path class="cls-3" d="M75.13,84.11c-.9-3.87-1.33-7.81-1.79-11.75-.21-1.74-.5-4.5-.71-6.24-.24.2-.68.69-.93.88-.16.13-.02,1-.18,1.13.2,1.72.4,3.44.6,5.16.42,3.5.84,7.05,1.59,10.5-2.82.69-5.77,1.04-8.62,1.51-4.24.69-8.47,1.35-12.73,1.91-3.4.45-6.8.89-10.21,1.34-.85.11-4.37,1.02-4.9.66-.84-.56-.98-3.09-1.23-4.14-1.56-6.61-2.85-13.26-4.13-19.92-.09-.45-.85-.35-.8.11.75,7.05,2.12,14.08,3.92,20.94.25.97.37,2.95,1.11,3.68.76.75,1.75.31,2.76.19,3.67-.43,7.35-.86,11.02-1.31,4.75-.59,9.49-1.21,14.21-1.97,3.49-.56,7.12-.96,10.54-1.87.35-.09.54-.47.46-.81Z"/>
        <path class="cls-3" d="M29.19,19.81c-1.34-.15-4.27-.45-4.98,1.19-.5,1.17.06,2.98.17,4.16.14,1.45.15,2.98.62,4.37.19.55.94.43.99-.13.16-1.77-.33-3.7-.57-5.45-.12-.86-.35-1.46.11-2.24s.51-.68,1.33-.77,1.63-.15,2.44-.36c.46-.12.31-.72-.1-.77h0Z"/>
        <path class="cls-5" d="M25.52,33.26l.07.13s.02.04.03.06c.04.06-.02-.06,0,.01.05.12.15.24.3.23s.25-.1.3-.23c.03-.08-.03.06,0-.01.01-.02.02-.04.03-.06l.07-.13c.17-.32-.04-.73-.42-.73s-.59.41-.42.73h0Z"/>
        <path class="cls-3" d="M44.68,17.31c-1.56-.08-4.7-.3-5.17,1.76-.21.93.16,2.13.3,3.07.21,1.43.2,3.09.9,4.36.19.34.81.3.88-.12.26-1.49-.28-3.11-.56-4.59-.19-1.01-.66-2.28.25-3.11.5-.46,2.81-.53,3.4-.57.51-.04.52-.78,0-.8h0Z"/>
        <path class="cls-5" d="M41.29,30.85c.01.26.01.54.22.73.15.13.33.13.48,0,.21-.18.21-.47.22-.73.01-.24-.22-.47-.46-.46s-.48.2-.46.46h0Z"/>
        <path class="cls-3" d="M30.31,38.15c-1.8.13-4.26.26-4.71,2.4-.22,1.06.13,2.3.31,3.33.26,1.49.39,3.09,1.1,4.44.25.47.88.2.92-.25.16-1.73-.5-3.59-.89-5.27-.29-1.25-.56-2.56.83-3.25.72-.36,1.76-.36,2.54-.62.41-.14.37-.83-.11-.79h0Z"/>
        <path class="cls-5" d="M28,52.16c.6,0,.6-.93,0-.93s-.6.93,0,.93h0Z"/>
        <path class="cls-3" d="M46.45,36.49c-1.51-.03-3.58.21-3.79,2.05-.13,1.16.34,2.6.59,3.7.28,1.24.33,2.66.94,3.78.18.33.6.2.72-.09.53-1.28-.03-2.76-.37-4.05-.18-.72-.67-1.74-.61-2.48.13-1.78,1.4-1.77,2.62-2.14.43-.13.34-.77-.1-.78h0Z"/>
        <path class="cls-3" d="M63.52,34.08c-1.5-.25-3.62.04-4.07,1.72-.39,1.49,0,3.65.16,5.13s.32,2.82.89,4.13c.19.43.85.19.85-.23,0-1.96-.53-3.91-.69-5.86-.06-.68-.4-2.14-.13-2.77.52-1.16,1.96-1.14,2.99-1.36.37-.08.38-.7,0-.76h0Z"/>
        <path class="cls-3" d="M64,53.22c-.82-.59-1.76-.17-2.31.59-.61.84-.72,2.32-.07,3.16.2.26.57.24.69-.09.23-.67-.03-1.34.17-2,.17-.56.74-.98,1.33-.95.41.02.47-.5.19-.7h0Z"/>
        <path class="cls-3" d="M47.68,54.35c-.9-.3-2.34-.13-3.05.57-.37.37-.33.93-.29,1.41.05.6.1,1.27.6,1.67.22.18.53.12.62-.16.12-.35.07-.65.01-1-.05-.3-.23-.9-.02-1.16.17-.22.73-.3.98-.37.38-.11.76-.18,1.15-.26.36-.08.31-.58,0-.68h0Z"/>
        <path class="cls-3" d="M30.71,56.11c-.96-.16-2.03.01-2.64.86-.26.36-.41.82-.33,1.27.07.38.34,1.01.63,1.27.13.11.35.18.5.06.27-.2.38-.39.3-.74-.07-.32-.41-.63-.33-.96.16-.73,1.3-.77,1.87-.95.36-.11.43-.74,0-.81h0Z"/>
        <path class="cls-3" d="M74.34,7.84c-1.77-.73-3.96-1.32-5.08.59-.52.89-.81,1.98-1.1,2.96-.38,1.27-.85,2.66-.75,4,.04.57.75.63.96.13.63-1.52.76-3.3,1.24-4.89.36-1.2.6-2.08,2.08-2.28.75-.1,1.73.35,2.53.35.52,0,.54-.67.11-.85h0Z"/>
        <path class="cls-5" d="M74.07,21.36c.44,0,.44-.69,0-.69s-.44.69,0,.69h0Z"/>
        <path class="cls-5" d="M75.06,19.92c.23-.06.47.01.73,0,.35-.02.46-.38.26-.64-.29-.37-.83-.38-1.25-.32-.26.04-.41.37-.35.61.07.26.35.41.61.35h0Z"/>
        <path class="cls-5" d="M34.67,32.47c.52-.13,1.18.01,1.53-.49.11-.16.02-.38-.12-.47-.5-.31-1.12.1-1.62.18s-.3.92.22.78h0Z"/>
        <path class="cls-5" d="M34.78,28.5c.19-.06.37-.13.54-.22.28-.14.14-.59-.16-.58-.2,0-.39.03-.59.07s-.32.29-.27.47.27.33.47.27h0Z"/>
        <path class="cls-5" d="M53.06,30.47s.09-.06.13-.08c-.09.04.09-.03.1-.04.06-.03.07-.03.02,0,.02,0,.05-.02.08-.02.1-.04.17-.08.25-.15l-.18.11c.2-.07.37-.23.34-.45-.01-.09-.05-.17-.12-.23-.04-.04-.09-.07-.14-.09-.03-.02-.07-.03-.1-.03-.07,0-.07,0-.02,0-.33-.07-.65.12-.85.37-.13.16-.16.36-.03.53.11.15.35.22.52.1h0Z"/>
        <path class="cls-5" d="M52.48,26.72c.37-.05.74-.24.91-.57.12-.22-.08-.58-.36-.47-.26.1-.49.22-.77.26-.22.03-.34.31-.28.5.06.23.28.31.5.28h0Z"/>
        <path class="cls-5" d="M36.98,50.33c.21-.02.42-.03.63-.08.24-.05.41-.15.56-.35.14-.18.01-.42-.14-.53-.33-.24-.81-.09-1.18-.02-.24.04-.39.32-.35.54s.24.46.49.43h0Z"/>
        <path class="cls-5" d="M37.34,46.57c.19-.11.37-.23.55-.35.14-.1.22-.27.14-.44s-.24-.23-.41-.2c-.22.04-.43.08-.64.13-.28.06-.41.39-.31.64s.42.37.67.23h0Z"/>
        <path class="cls-5" d="M53.72,48.11s.05,0,0,0h.1s.09,0,.13,0c.12-.01.21-.04.31-.08.2-.07.35-.28.28-.5s-.28-.33-.5-.28c-.11.02-.2.04-.31.09-.03.02-.07.03-.1.05-.04.02-.07.04-.1.07.03-.02.03-.02-.01,0-.31.17-.17.67.18.66h0Z"/>
        <path class="cls-5" d="M53.23,45.15c.29-.1.52-.3.6-.6.04-.15-.02-.33-.16-.4-.15-.08-.3-.05-.43.06.08-.06.02-.02,0,0-.06.04.09-.02.02,0-.04.01-.09.03-.13.03l.12-.02s-.09,0-.13,0c-.12-.02-.25.06-.34.14-.11.1-.15.26-.13.41.04.27.32.49.6.4h0Z"/>
        <path class="cls-5" d="M71.8,46.75c.33-.15.81-.26.95-.63.06-.17-.07-.31-.21-.37-.2-.09-.43.02-.61.1l-.52.22c-.2.08-.24.37-.14.54.12.2.34.23.54.14h0Z"/>
        <path class="cls-5" d="M71.53,43.64c.14-.11.21-.16.35-.27.12-.1.19-.23.13-.39-.06-.14-.22-.22-.37-.18-.17.05-.34.09-.52.14-.26.07-.38.38-.25.61.05.09.15.16.25.19.16.04.28-.01.41-.11h0Z"/>
        <path class="cls-3" d="M68.03,72.87c.98-1.67,1.95-3.37,3-5,.98-1.52,2.14-2.92,3.41-4.21.63-.65,1.29-1.24,2.01-1.79.66-.5,1.28-1.14,1.98-1.58.19-.12.39-.14.56-.1-.1-.42-.47-.76-1.14-.83-8.27-.93-16.71-1.02-25.02-.86-9.48.19-18.92.91-28.29,2.39-.94.15-.71,1.67.22,1.64l22.18,9.75,19.09,4.66c.06,0,.11-.01.17-.02.19-1.43,1.16-2.87,1.85-4.05Z"/>
        <path class="cls-5" d="M78.28,59.62c-3.27,1.12-5.28,3.72-7.24,6.46-1.51,2.13-4.59,7.2-4.7,10.12-3.73-1.09-7.58-1.68-11.33-2.71-3.68-1.01-7.29-2.25-10.84-3.66-6.1-2.41-13.87-6.03-19.81-8.79-.67-.31-1.2.57-.58.99,5.48,3.72,13.4,7.24,19.52,9.79,3.62,1.51,7.33,2.79,11.12,3.82,3.97,1.08,12.4,2.84,12.62,2.5.81-1.24,1.57-3.61,2.12-4.99.62-1.57,1.75-3.78,2.72-5.16,2.01-2.85,4.57-4.87,7.12-7.12.55-.49-.03-1.49-.73-1.25Z"/>
      </g>
    </g>
  </g>
</svg>