<?xml version="1.0" encoding="UTF-8"?>
<svg id="Capa_2" data-name="Capa 2" xmlns="http://www.w3.org/2000/svg" viewBox="0 0 100 100">
  <defs>
    <style>
      .cls-1 {
        fill: #fff;
      }

      .cls-2 {
        fill: #ba6347;
      }

      .cls-3 {
        fill: none;
      }

      .cls-4 {
        fill: #4a2d2d;
      }

      .cls-5 {
        fill: #d49d8c;
      }

      .cls-6 {
        fill: #b5593b;
      }
    </style>
  </defs>
  <g id="COLOR">
    <g>
      <g>
        <path class="cls-6" d="M85.85,92.82c-.41-.99-.86-1.88-1.53-2.73-.4-.51-.85-.91-1.29-1.38-.8-.85-.81-.91-.73-2.08.23-3.21.56-6.34.55-9.58-.02-6.7-.26-13.4-.67-20.08-.42-6.69-1.02-13.36-1.82-20.01-.71-5.99-1.43-12.13-2.68-18.06.17-.04.34-.1.5-.16,2.54-.97,2.34-3.59,2.18-5.86-.15-2.14.45-5.95-1.88-7.11-1.3-.65-3.17-.66-4.58-.85-1.76-.24-3.53-.43-5.3-.58-5.68-.47-11.44-.61-17.22-.61-5.79,0-11.8.13-17.48.61-1.77.15-3.54.34-5.3.58-1.45.2-3.26.19-4.58.85-2.35,1.17-1.72,4.95-1.88,7.11-.16,2.26-.35,4.89,2.18,5.86.16.06.33.11.51.16-1.25,5.93-1.97,12.06-2.68,18.06-.79,6.65-1.4,13.33-1.82,20.01-.41,6.68-.65,13.38-.67,20.08,0,1.69-.02,3.39.06,5.08.07,1.49.47,3.02.5,4.5.02,1.03.02,1.22-.73,2.08-.34.4-.75.73-1.09,1.14-.76.92-1.28,1.88-1.73,2.98-.31.74.45,1.46,1.13,1.49,3.08.11,6.17-.04,9.26.08,3.96.15,7.91.48,11.87.59,8.16.22,16.45.22,24.65,0,3.87-.11,7.72-.4,11.58-.58,3.18-.15,6.37.03,9.54-.09.68-.03,1.44-.74,1.13-1.49Z"/>
        <path class="cls-1" d="M71.14,46.56c-1.38-2.61-3.17-5.08-5.32-7.12-5.78-5.46-15.78-6.61-23.13-4.11-9.51,3.24-14.55,15.64-12.31,25.07,2.27,9.5,12.32,14.86,21.55,14.66,9.06-.19,17.74-5.5,20.15-14.55,1.24-4.64,1.35-9.61-.94-13.96Z"/>
        <path class="cls-1" d="M31.34,30.11h.77c.39,0,.8-.17,1.07-.44s.46-.69.44-1.07c-.04-.82-.67-1.52-1.52-1.52h-.77c-.39,0-.8.17-1.07.44s-.46.69-.44,1.07c.04.82.67,1.52,1.52,1.52h0Z"/>
        <path class="cls-1" d="M30.18,35.35c1.95,0,1.96-3.03,0-3.03s-1.96,3.03,0,3.03h0Z"/>
        <path class="cls-1" d="M67.57,81.07c1.95,0,1.96-3.03,0-3.03s-1.96,3.03,0,3.03h0Z"/>
        <path class="cls-1" d="M72.61,86.49h.19c.21,0,.4-.04.58-.13.19-.06.35-.17.49-.31.15-.14.25-.3.31-.49.09-.18.14-.38.13-.58l-.05-.4c-.07-.26-.2-.48-.39-.67l-.31-.24c-.24-.14-.49-.21-.77-.21h-.19c-.21,0-.4.04-.58.13-.19.06-.35.17-.49.31-.15.14-.25.3-.31.49-.09.18-.14.38-.13.58l.05.4c.07.26.2.48.39.67l.31.24c.24.14.49.21.77.21h0Z"/>
        <path class="cls-4" d="M24.46,19.78c4.47.21,9.01-.22,13.48-.3,4.39-.08,8.77-.05,13.15-.03,8.89.03,17.76.21,26.64.54,1.26.05,1.26-1.91,0-1.96-9.01-.33-18.05-.65-27.07-.62-4.52.02-9.05.1-13.58.21-4.25.1-8.62.03-12.84.65-.9.13-.63,1.49.21,1.53h0Z"/>
        <g>
          <path class="cls-5" d="M43.03,47.29c-.51-.47-.91-.96-1.19-1.6-.31-.72-.41-1.49-.43-2.26-.02-.67.1-1.4-.1-2.05-.19-.61-.7-1.01-1.34-1.03-1.47-.05-2.13,1.61-2.09,2.84.05,1.45.84,2.7,1.75,3.78.52.62,1.07,1.26,1.74,1.72.33.22.74.38,1.07.07.24-.21.35-.6.47-.91.23-.04.35-.35.13-.56Z"/>
          <path class="cls-4" d="M38.19,41.59c.42.44,1.08.68,1.67.73.31.02.62-.02.9-.15.26-.11.61-.34.62-.65,0-.17-.14-.35-.33-.3-.23.06-.37.25-.58.34-.18.08-.4.11-.61.1-.46-.01-.98-.13-1.34-.44-.22-.19-.54.16-.34.37h0Z"/>
          <g>
            <path class="cls-4" d="M49.45,47.03c-.81.02-1.48-.07-3.17-.73s-3.71-1.03-4.82,1.23c-1.11,2.26-1.07,3.6.15,5.55s1.35,4.63,2.08,6.94,3.12,6.16,8.3,7.93c5.18,1.77,7.98.21,9.37.13,1.39-.09,1.99.73,3.3.33s.86-2.23.55-3.44-.28-5.2-1.17-7.99c-.89-2.79-3.25-6.99-7.32-8.62-4.07-1.63-5.42-1.37-7.27-1.33Z"/>
            <path class="cls-2" d="M43.06,51.2c.88,1.31,1.77,2.58,2.79,3.78s2.1,2.3,3.25,3.35c2.29,2.09,4.8,3.9,7.49,5.43.74.42,1.49.82,2.26,1.2.41.2.82.39,1.23.58s.86.27,1.3.41c.27.09.39-.28.15-.4-.34-.17-.64-.39-.98-.55-.37-.17-.75-.34-1.12-.51-.68-.32-1.36-.65-2.02-1.02-1.34-.74-2.62-1.56-3.86-2.45s-2.46-1.84-3.6-2.88-2.19-2.12-3.21-3.25c-1.15-1.28-2.27-2.63-3.23-4.05-.21-.31-.66.07-.45.38h0Z"/>
            <path class="cls-2" d="M63.3,64.92c-1.17-1.34-1.82-3.04-2.72-4.55-.82-1.37-1.77-2.7-2.86-3.87-2.19-2.35-4.79-4.32-7.58-5.91-1.59-.91-3.27-1.82-5.01-2.42-.44-.15-.65.47-.25.67,1.47.71,2.96,1.34,4.39,2.14s2.71,1.62,3.98,2.57c2.53,1.89,4.83,4.18,6.6,6.8,1.08,1.59,1.81,3.43,3.14,4.85.18.19.48-.06.31-.26h0Z"/>
            <path class="cls-2" d="M44.05,55.67c.16,2.22,1.4,4.19,2.94,5.74,1.68,1.69,3.75,2.9,5.88,3.91,1.26.6,2.6,1.17,4.02,1.22.32.01.36-.45.04-.5-1.54-.25-2.99-.78-4.34-1.56-1.23-.71-2.44-1.45-3.55-2.34-2.14-1.73-3.77-3.91-4.57-6.56-.08-.27-.46-.2-.44.08h0Z"/>
            <path class="cls-2" d="M62.99,61.01c-.54-5.03-4.11-9.46-8.68-11.46-.67-.29-1.36-.54-2.07-.73-.65-.17-1.48-.46-2.16-.34-.33.06-.33.5-.05.63.52.24,1.19.25,1.75.4.6.15,1.2.35,1.78.58,1.15.46,2.23,1.06,3.23,1.8,1.89,1.4,3.43,3.28,4.43,5.41.57,1.21.94,2.5,1.2,3.82.07.37.61.26.57-.11h0Z"/>
          </g>
        </g>
      </g>
      <rect class="cls-3" width="100" height="100"/>
    </g>
  </g>
</svg>