<?xml version="1.0" encoding="UTF-8"?>
<svg id="Capa_2" data-name="Capa 2" xmlns="http://www.w3.org/2000/svg" viewBox="0 0 100 100">
  <defs>
    <style>
      .cls-1 {
        fill: #fff;
      }

      .cls-2 {
        fill: none;
      }

      .cls-3 {
        fill: #d6a257;
      }

      .cls-4 {
        fill: #4a2d2d;
      }

      .cls-5 {
        fill: #f7bc3b;
      }
    </style>
  </defs>
  <g id="COLOR">
    <g>
      <rect class="cls-2" width="100" height="100"/>
      <g>
        <path class="cls-1" d="M19.87,24.69s5.5-6.83,9.33-9.58,9.42-7.42,13.42-6.25,6.17,2.83,7.83,4.33,1.75,2.5,2.75,2.17,4.08-3.58,6.92-1.67,4.17,7.33,5.67,7.67,3-1.5,4.5-.75l1.5.75.91,3.92s-6.08,4.92-20.58,5.17-23.75-2.08-26.58-3-5.67-2.75-5.67-2.75Z"/>
        <g>
          <path class="cls-3" d="M21.82,21.68s-5.03-.9-6.47,2.25c-1.44,3.15-2.25,10.7-.72,13.12,1.53,2.43,4.05,3.06,4.05,3.06,0,0-1.89,1.62-3.24,11.6-1.35,9.98-.45,24.9-.45,24.9,0,0-5.44,3.55-5.71,9.12s12.45,3.82,18.38,4.09c5.93.27,38.92.81,46.3.81s15.6-.49,18.38-5.71c2.79-5.21-4.09-4.54-5.08-6.52-.99-1.98-.09-17.35-3.6-26.97-3.51-9.62-7.82-12.94-7.82-12.94,0,0,3.51-.63,3.96-6.02s-3.06-10.16-4.85-10.61-3.06.09-3.06.09c0,0,1.53,2.16.81,3.33-.72,1.17-13.48,4.94-24.27,4.85-10.79-.09-25.08-2.97-27.15-4.05-2.07-1.08-2.34-.9-1.53-1.89s2.07-2.52,2.07-2.52Z"/>
          <path class="cls-4" d="M73.53,24.27s-.05.02-.08.03c-.7-2.44-2.22-5.64-4.3-4.51-3.33,1.8-3.49.46-4.27-1.12-1.75-3.55-3.96-6.14-6.56-5.98-1.44.09-3.23.84-4.4,1.62-1.1.73-.95.55-1.85-.42-.57-.61-5.79-5.87-9.56-5.6-3.06.22-6.19,1.87-8.77,3.36-5.28,3.05-10.78,7.39-14.08,12.62-.35-.11-.7-.22-1.05-.33-.81-.27-1.24.9-.56,1.33,4.09,2.58,9.33,3.63,14.02,4.61,4.92,1.04,9.97,1.73,15,1.71,9.02-.03,19.43-1.12,27.33-5.85.97-.58.12-1.9-.86-1.48ZM46.68,29.4c-8.83-.33-17.46-2.11-25.86-4.76,3.69-4.07,7.17-7.89,11.92-10.86,2.49-1.55,5.46-3.39,8.37-3.93,3.46-.64,6.5,1.54,8.77,3.91,1.58,1.64,2.28,3.24,4.57,1.91,1.24-.72,2.5-1.71,4.02-1.6,1.7.13,3.04,1.49,3.92,2.83.9,1.39,1.75,4.94,3.63,5.22,1.01.15,1.59-.73,2.48-.94,2.05-.48,3.01,2.16,3.56,3.7-3.69,1.55-7.33,2.89-11.33,3.63-4.63.86-9.34,1.05-14.04.87Z"/>
          <path class="cls-4" d="M29.24,23.4c1.69,0,1.69-2.63,0-2.63s-1.69,2.63,0,2.63h0Z"/>
          <path class="cls-4" d="M34.9,18.29c.18,0,.35-.03.51-.11.16-.05.31-.15.43-.27.13-.12.22-.26.27-.43.08-.16.12-.33.11-.51l-.05-.35c-.06-.23-.18-.42-.34-.59l-.27-.21c-.21-.12-.43-.18-.67-.18-.18,0-.35.03-.51.11-.16.05-.31.15-.43.27-.13.12-.22.26-.27.43-.08.16-.12.33-.11.51l.05.35c.06.23.18.42.34.59l.27.21c.21.12.43.18.67.18h0Z"/>
          <path class="cls-4" d="M36.11,23.12c1.32,0,1.33-2.06,0-2.06s-1.33,2.06,0,2.06h0Z"/>
          <path class="cls-4" d="M17.43,39.97c7.05,3.43,15.13,4.26,22.87,4.53,8.63.31,17.39-.33,25.85-2.05,3.81-.77,7.6-1.77,11.12-3.43.43-.2.54-.81.31-1.19-.26-.45-.76-.5-1.19-.31-.53.23-1.25.5-1.97.76-.77.27-1.54.54-2.31.79-1.72.53-3.46.98-5.22,1.37-3.92.86-7.9,1.43-11.89,1.8-8.51.79-17.13.75-25.61-.36-3.91-.51-7.93-1.25-11.64-2.64-.43-.16-.73.54-.31.75h0Z"/>
          <path class="cls-5" d="M51.15,68.88s1.62-5.33-.34-10.59c-1.96-5.26-3.24-7.96-4.11-6.94-.88,1.01-2.16,8.23-.4,11.87s4.85,5.66,4.85,5.66Z"/>
          <path class="cls-5" d="M54.52,62.67s3.91-1.69,5.12-6.07c1.21-4.38-.47-8.76-1.08-8.63s-3.71,2.63-4.38,6.94c-.67,4.31.34,7.75.34,7.75Z"/>
          <path class="cls-5" d="M52.36,67.39s4.38-3.71,8.97-5.46c4.58-1.75,6.88-2.29,7.01-1.42s-.81,6.2-6.41,7.21-9.57-.34-9.57-.34Z"/>
          <path class="cls-5" d="M45.35,77.31c.2-.4,1.01-3.98-.94-8.5-1.96-4.52-6.47-7.01-6.94-6.41-.47.61-.27,7.35,2.49,10.45,2.76,3.1,5.39,4.45,5.39,4.45Z"/>
          <path class="cls-5" d="M47.44,74.74s3.24,3.91,10.05,3.57c6.81-.34,8.76-4.11,8.5-4.92s-14.5-1.55-18.54,1.35Z"/>
          <path class="cls-4" d="M39.76,83.32c6.7-5.39,12.95-13.19,15.38-21.58.18-.63-.8-1.08-1.09-.46-1.84,3.95-3.52,7.79-6.02,11.4-2.55,3.69-5.62,6.97-9.02,9.9-.52.45.23,1.16.74.74h0Z"/>
        </g>
      </g>
    </g>
  </g>
</svg>