<?xml version="1.0" encoding="UTF-8"?>
<svg id="Capa_2" data-name="Capa 2" xmlns="http://www.w3.org/2000/svg" viewBox="0 0 100 100">
  <defs>
    <style>
      .cls-1 {
        fill: #fff;
      }

      .cls-2 {
        fill: none;
      }

      .cls-3 {
        fill: #4a2d2d;
      }

      .cls-4 {
        fill: #b3644c;
      }

      .cls-5 {
        fill: #c68b79;
      }

      .cls-6 {
        fill: #ebb238;
      }
    </style>
  </defs>
  <g id="COLOR">
    <g>
      <rect class="cls-2" width="100" height="100"/>
      <g>
        <g>
          <path class="cls-4" d="M42.87,60.26c-.14.15-.28.3-.42.46-.2-.16-.4-.33-.59-.5-.47-.4-.93-.81-1.39-1.23-.44-.41-.87-.83-1.31-1.26-.32-.32-.64-.66-.96-.98,0,0,.01-.01.02-.02-.06-.16-.12-.33-.18-.49-.08-.24-.14-.47-.2-.71-4.08,3.36-7.86,6.98-11.44,10.89-3.71,4.06-7.54,8.4-10.44,13.1-.95,1.53-1.59,3.54-.57,5.22,1.02,1.67,3.07,1.76,4.72,1.05,2.28-.98,4.11-3.26,5.85-4.96,2.1-2.05,4.15-4.16,6.16-6.3,3.99-4.25,7.7-8.73,11.53-13.13-.31-.34-.57-.73-.79-1.15Z"/>
          <path class="cls-5" d="M72.12,42.81s-.08.09-.12.14c-2.15-1.76-18.64-14.92-18.76-15.16-.13-.25-.23-.5-.31-.77-1.11.97-2.14,2.05-3.18,3.06-1.87,1.82-3.68,3.69-5.46,5.59-3.45,3.65-7.4,7.74-8.42,12.83-1.99,9.87,10.38,18.71,19.32,14.91,2.74-1.16,4.73-3.38,6.64-5.59,2.26-2.63,8.55-9.9,10.81-12.53-.05-.12-.39-2.62-.52-2.47Z"/>
          <path class="cls-4" d="M51.64,32.62c2.62,3.78,6.21,6.83,9.91,9.51,1.82,1.31,3.69,2.54,5.59,3.74,1.09.69,2.25,1.26,3.4,1.84.84-.98,1.57-1.83,2.09-2.43-.05-.12-.39-2.62-.52-2.47-.04.04-.08.09-.12.14-2.15-1.76-18.64-14.92-18.76-15.16-.13-.25-.23-.5-.31-.77-1.02.89-1.98,1.88-2.93,2.81.48.96,1.03,1.89,1.65,2.79Z"/>
          <path class="cls-4" d="M41.79,45.15c1.88,3.66,4.56,6.82,7.64,9.52,1.65,1.45,3.41,2.81,5.25,4,1.04.67,2.13,1.24,3.25,1.74.34.15.69.3,1.04.44,1.02-.94,1.94-1.99,2.85-3.04.39-.45.89-1.04,1.48-1.71-1-.55-1.98-1.14-2.94-1.75-2.19-1.4-4.38-2.9-6.34-4.6-1.84-1.6-3.48-3.43-4.96-5.35-1.96-2.55-3.79-5.43-4.98-8.5-1.39,1.47-2.85,3.02-4.16,4.68.5,1.58,1.12,3.12,1.88,4.59Z"/>
          <path class="cls-3" d="M36.07,54c1.12,6.57,7.97,10.7,14.27,10.79,3.42.05,6.5-1.46,9-3.71,1.69-1.52,3.21-3.27,4.76-4.93s3.17-3.36,4.41-5.29c.27-.41-.32-2.17-.65-1.87-2.79,2.51-5.18,5.51-7.78,8.22-2.44,2.54-5.07,5.09-8.72,5.31-6.13.38-13.05-2.39-14.84-8.4-.12-.4-.52-.52-.45-.12h0Z"/>
          <path class="cls-6" d="M77.31,51.54c.56-2.26,2.19-4.14,3.09-6.28.98-2.34,1-4.89.27-7.3-1.87-6.15-7.36-11.12-12.07-15.18-2.2-1.89-4.69-4.02-7.79-3.86-4.85.25-7.3,3.95-7.85,4.88-1.02,1.74-1.01,3.8.34,5.36.79.9,1.85,1.63,2.82,2.32,1.29.92,3.16,1.7,3.94,3.11,1.22,2.22-.2,5.01,1.25,7.26,1.37,2.12,4.09,2.75,5.46,4.92,1.64,2.61,1.53,5.84.85,8.73-1.3,5.53-5.17,11.32-3.2,17.14,1.38,4.07,5.59,7.63,10.09,6.29,4.61-1.38,5.88-6.43,5.97-10.67.05-2.65-.36-5.23-1.25-7.72-1.03-2.88-2.7-5.84-1.91-8.99Z"/>
          <path class="cls-1" d="M72.41,74.5c1.56.23,2.85-.86,3.59-2.17.39-.71.65-1.51.74-2.32.07-.62-.16-1.5-.45-2.05-.13-.26-.35-.48-.63-.56-1.48-.39-1.61,3.14-2.16,3.88-.41.56-1.06.89-1.58,1.34-.59.52-.33,1.75.49,1.87Z"/>
          <path class="cls-1" d="M76.74,63.11c-.19-.27-.46-.49-.78-.63-.46-.21-1.09-.26-1.33.29-.1.23-.1.49-.07.74.04.37.13.75.33,1.07.64,1.03,2.36.74,2.18-.62-.04-.32-.15-.6-.33-.85Z"/>
          <path class="cls-3" d="M52.93,30.41c1.44,1.48,3.62,1.92,5.1,3.36,2.1,2.05,1.27,4.76,2.3,7.23.79,1.88,2.53,2.82,4.04,4.04,10.13,8.22-6.09,20.58.92,29.77.32.42.8,1.03.57.54-2.47-5.35.71-11.72,2.52-16.83,1.55-4.39,2.26-9.37-.86-13.27-1.31-1.65-3.91-2.11-5.24-3.71-1.6-1.92-.51-4.71-1.54-6.87-.83-1.73-2.52-2.86-4.17-3.7-1.02-.52-2.41-.73-3.13-1.66-.99-1.26-1.08-2.91-.98-4.41-.59,1.29-.99,4.02.46,5.51Z"/>
        </g>
        <path class="cls-1" d="M65.7,27.68c1.21.57,1.61,1.88,2.64,2.64.96.7,2.23-.46,1.94-1.49-.24-.86-.99-1.63-1.69-2.16s-1.49-.86-2.39-.87c-.96-.01-1.44,1.45-.51,1.89h0Z"/>
        <path class="cls-1" d="M73.54,35.49h.02s0-.01.01-.01c.08-.03.15-.06.22-.09l.19-.14.14-.19c.04-.07.07-.15.09-.22,0,0,0,0,0-.01,0,0,0-.01,0-.02l.04-.26-.04-.26c-.03-.13-.09-.24-.18-.34-.07-.11-.16-.19-.28-.25l-.24-.1-.26-.04c-.14,0-.26.02-.38.08-.08.02-.16.07-.22.13-.11.07-.19.16-.25.28l-.1.24c-.04.13-.05.26-.02.39,0,.09.02.17.07.25.04.12.11.23.2.32l.2.15.24.1c.17.05.35.05.52,0h0Z"/>
      </g>
    </g>
  </g>
</svg>