<?xml version="1.0" encoding="UTF-8"?>
<svg id="Capa_2" data-name="Capa 2" xmlns="http://www.w3.org/2000/svg" viewBox="0 0 100 100">
  <defs>
    <style>
      .cls-1 {
        fill: none;
      }

      .cls-2 {
        fill: #4a2d2d;
      }

      .cls-3 {
        fill: #9e991c;
      }
    </style>
  </defs>
  <g id="COLOR">
    <g>
      <rect class="cls-1" width="100" height="100"/>
      <g>
        <path class="cls-3" d="M49.21,31.45c-.52-2.02-1.68-2.21-3.28-1.66.12-1.63.09-3.25-.13-4.88-.16-1.16-.3-2.53-1.16-3.43-1.25-1.31-2.29-.42-3.12.66-.39-2.67-1.14-5.37-2.83-7.49-1.17-1.47-2.87-2.68-4.73-3.05-4.98-1-8.66,4.78-7.81,9.19-1.03-.18-2.06.15-2.63,1.23-1.22,2.29-.2,5.29.93,7.61-1.41.2-2.57,1.38-2.95,2.86-.45,1.72.36,3.54,1.34,5.1-.87.02-1.64.49-1.91,1.56-.45,1.84.99,4.19,2.02,6.01-.49.14-.94.44-1.29.9-1.07,1.38-.49,3.15.07,4.61,1.62,4.15,3.9,7.94,6.32,11.66,2.41,3.71,6.4,9.23,8.27,13.25,1.62,3.49,1.58,5.68,1.95,9.48.04.42,1.71-2.45,2.62-3.96.21.12.52.08.59-.22.56-2.36.7-4.8,1.16-7.18.47-2.4,1.41-4.61,1.97-6.96.1-.44,2.46-17.32,3.45-26.03.29.16.67.13.87-.23,1.36-2.49.97-6.34.28-9.01Z"/>
        <path class="cls-3" d="M85.94,36.28c2.95-3.95,5.77-9.19,2.29-13.67-3.43-4.41-9.39-1.55-12.31,2.11-.56-1.3-1.7-2.3-3.23-1.75-1.35.48-2.67,1.87-3.65,2.86-1.04,1.06-2.03,2.22-2.86,3.47-2.9-1.54-5.65,1.35-7.19,3.97-.79-.72-2.1-.79-3.1-.24-1.01.56-1.61,1.58-2.17,2.55-.68,1.17-1.4,2.37-1.94,3.63-.53-.56-1.35-.83-2.18-.73-1.78.21-2.6,1.9-3.17,3.4-1.88,4.98-2.51,10.41-2.74,15.7-.24,5.58.58,11.46-.97,16.88-1.49,5.24-4.43,9.87-7.53,14.29-.25.35.52,2.54,1.1,3.46.16.57.98.95,1.41.4,1.74-2.2,2.97-4.82,4.47-7.19,1.57-2.49,3.19-5,5.11-7.24,3.55-4.14,7.98-6.25,13.21-7.46,4.56-1.06,9.33-1.77,13.66-3.61,1.31-.56,3.49-1.31,3.78-2.94.18-1.03-.48-1.7-1.32-2.12,1.32-.93,2.62-1.87,3.91-2.83,1.11-.84,2.52-1.71,3.01-3.09.66-1.84-.58-2.74-2.06-3.08,1.84-1.4,3.72-3.2,4.48-5.21.52-1.38.11-3.08-1.09-3.7,1.65-1.35,3.5-3.17,3.59-5.21.08-1.66-1.15-2.37-2.51-2.63Z"/>
        <path class="cls-2" d="M55.76,38.53c-1.18,2.92-1.5,6.39-1.82,9.51s-.67,6.51-.16,9.64c.08.49.78.32.82-.11.27-3.17.08-6.36.44-9.53.36-3.17,1.28-6.23,1.66-9.38.07-.58-.75-.58-.93-.13h0Z"/>
        <path class="cls-2" d="M80.18,42.66c-4.06,2.2-8.72,2.44-12.86,4.31-.49.22-.12.91.35.82,4.4-.83,9.08-2.1,12.98-4.34.52-.3.06-1.08-.46-.8h0Z"/>
        <path class="cls-2" d="M54.12,63.51c6.13.19,13.2-.63,18.86-3.08.41-.18.1-.74-.28-.67-2.99.54-5.92,1.37-8.93,1.88-3.2.54-6.41.74-9.65.97-.57.04-.59.88,0,.9h0Z"/>
        <path class="cls-2" d="M60.84,55.22c4.71-.66,9.53-1.47,14.09-2.85.41-.12.36-.84-.11-.78-4.77.64-9.52,1.74-14.2,2.85-.52.12-.29.86.22.79h0Z"/>
        <path class="cls-2" d="M50.06,60.24c-.07-1.61-.11-3.21-.36-4.8-.07-.44-.72-.3-.74.1-.09,1.57.04,3.13.13,4.7.04.63,1.01.63.98,0h0Z"/>
        <path class="cls-2" d="M39.22,68.97c.25,2.77-.16,5.45-.24,8.21-.01.4.59.48.7.09.72-2.69.49-5.57.25-8.31-.04-.44-.74-.45-.7,0h0Z"/>
        <path class="cls-2" d="M27.32,28.31c.96,3.29,3.16,6.84,5.95,8.89.33.24.75-.23.55-.55-.84-1.33-2.02-2.43-2.98-3.68-1.15-1.49-2.07-3.1-2.64-4.9-.18-.56-1.04-.32-.88.24h0Z"/>
        <path class="cls-2" d="M30.13,25.87c.3.36.57.78.98,1.02.29.16.68-.11.58-.44-.15-.49-.55-.88-.86-1.28-.17-.21-.53-.17-.71,0-.21.21-.17.5,0,.71h0Z"/>
        <g>
          <path class="cls-2" d="M83.27,26.13c-3.6,2.94-6.84,6.37-10,9.8.26-.88.46-1.79.77-2.66.47-1.34,1.05-2.65,1.69-3.92.23-.46-.43-.86-.7-.41-1.33,2.32-2.73,5.19-2.82,7.91,0,.07.02.13.04.18-.07.08-.14.15-.21.23-2.57,2.8-5.08,5.68-7.47,8.65.39-1.58.7-3.18,1.13-4.73.68-2.49,1.38-4.96,2.2-7.4.16-.46-.57-.65-.73-.2-1.6,4.46-3.59,9.4-4.04,14.19-.3.39-.62.78-.92,1.18-6.32,8.36-12.84,16.83-17.59,26.22-.24.47.42.86.71.42,5.71-8.82,11-17.86,17.71-25.99,3.28-3.97,6.6-7.91,10.08-11.72,3.48-3.81,7.25-7.34,10.73-11.13.38-.41-.18-.95-.6-.6Z"/>
          <path class="cls-2" d="M39.72,36.43c.84-2.5,1.77-5.3,1.46-7.96-.05-.43-.71-.61-.82-.11-.59,2.62-.82,5.22-1.68,7.79-.74,2.19-1.67,4.3-2.54,6.44,0,0,0-.02,0-.03-1.58-8.87-2.36-17.86-3.96-26.71-.09-.48-.87-.37-.85.11.46,8.61,2.14,17.29,3.5,25.8.69,4.33,1.41,8.65,2.25,12.95.26,1.37.5,2.74.72,4.12-3.97-5.58-8.07-11-11.65-16.85-.31-.51-1.09-.06-.8.47,3.36,6.19,7.28,12.43,12.16,17.56.14.15.34.16.5.09.41,2.59.79,5.19,1.28,7.77.06.31.58.31.63,0,.63-3.96-.5-8.16-1.26-12.04-.77-3.92-1.52-7.84-2.23-11.76.03-.03.06-.05.08-.09,1.25-2.44,2.35-4.94,3.23-7.54Z"/>
        </g>
        <path class="cls-2" d="M40.76,47.91c1.62-2.52,2.9-5.43,3.18-8.43.04-.4-.55-.43-.67-.09-.96,2.79-1.86,5.47-3.29,8.07-.28.51.46.93.77.45h0Z"/>
        <path class="cls-2" d="M33.36,46.1c-.55-.57-1.1-1.33-1.91-1.52-.3-.07-.62.2-.52.52.25.81,1.01,1.29,1.63,1.8.55.46,1.32-.27.8-.8h0Z"/>
        <path class="cls-2" d="M49.87,37.49c-4.52.73-5.21,6.63-5.75,10.26-.78,5.36-.74,10.78-.75,16.18-.01,4.63.08,8.95-1.84,13.25-1.83,4.11-4.62,7.5-6.82,11.37-.33.58.47,1.25.95.73,2.67-2.92,4.75-6.91,6.48-10.44,1.71-3.48,2.47-6.79,2.56-10.65.11-4.95-.12-9.9.13-14.85.14-2.67.41-5.34.94-7.96.55-2.7,1.32-6.09,4.37-6.9.65-.18.37-1.1-.27-.99h0Z"/>
      </g>
    </g>
  </g>
</svg>