<?xml version="1.0" encoding="UTF-8"?>
<svg id="Capa_2" data-name="Capa 2" xmlns="http://www.w3.org/2000/svg" viewBox="0 0 100 100">
  <defs>
    <style>
      .cls-1 {
        fill: #fff;
      }

      .cls-2 {
        fill: none;
      }

      .cls-3 {
        fill: #f7ede4;
      }

      .cls-4 {
        fill: #4a2d2d;
      }
    </style>
  </defs>
  <g id="COLOR">
    <g>
      <rect class="cls-2" width="100" height="100"/>
      <g>
        <path class="cls-3" d="M37.21,39s-1.49-9.64.27-11.81c1.77-2.17,11.68-9.91,22-9.91s22.08,9.11,23.53,13.65c1.45,4.54,1.04,21.24.64,22.74s-1.49,1.9-1.49,1.9c0,0,3.94-.14,4.75,7.2.81,7.33,1.41,19.71-.92,22.41l-2.34,2.71s-14.26,4.75-18.33,5.3-14.26-2.85-20.1-6.52c-5.84-3.67-4.76-11.11-4.76-11.11,0,0-6.78,6.5-10.72,6.5s-16.84-4.75-20.37-10.86c-3.53-6.11-2.99-19.96,1.09-24.3,4.07-4.34,18.06-8.55,20.91-8.55s5.84.68,5.84.68Z"/>
        <g>
          <g>
            <path class="cls-4" d="M37.25,52.86c2.87-1.49,6.09-2.91,8.56-5.02.53-.45-.03-1.46-.7-1.2-2.47.98-4.76,2.56-7.07,3.86-2.5,1.4-5.05,2.76-7.65,3.96-1.61.74-3.04,1.26-4.79.71-1.41-.44-2.77-1.29-4.09-1.95-2.92-1.46-5.83-2.9-8.8-4.26-.68-.31-1.27.64-.6,1.02,3.3,1.88,6.64,3.65,10.01,5.4,1.38.71,2.7,1.36,4.11,1.58.12,3.07.56,6.18.83,9.15.21,2.27.39,4.54.56,6.81.14,1.94.03,4.13.56,6,.25.88,1.38.6,1.48-.2.26-2.05-.22-4.37-.38-6.43-.17-2.28-.32-4.56-.46-6.84-.16-2.77-.2-5.68-.5-8.51.27-.05.54-.11.82-.2,2.8-.91,5.49-2.53,8.1-3.89Z"/>
            <path class="cls-4" d="M84.62,56.21c-1.9-1.86-4.88-2.61-7.31-3.47-3.14-1.11-6.3-2.18-9.54-2.97-2.41-.59-4.9-1.3-7.41-1.19,0-1.37-.2-2.79-.25-4.02-.1-2.37-.11-4.85-.56-7.18.74-.11,1.45-.39,2.19-.68,1.72-.67,3.44-1.35,5.15-2.04,3.39-1.35,6.84-2.63,10.15-4.15,1.05-.48.3-2.3-.79-1.88-2.91,1.12-5.76,2.46-8.61,3.72-1.57.69-3.14,1.39-4.7,2.09-1.61.72-3.22,1.79-5.04,1.24-2.91-.88-5.84-2.57-8.59-3.86-2.98-1.39-5.92-2.86-8.87-4.29-.79-.38-1.47.73-.69,1.19,3.05,1.8,6.2,3.39,9.4,4.89,1.44.67,2.88,1.34,4.34,1.96,1.44.61,3.04,1.47,4.59,1.77-.23,2.52.05,5.14.15,7.66.05,1.19-.04,2.57.05,3.88-2.29.56-4.47,1.75-6.61,2.62-.5.2-1,.42-1.5.63.16-2.57-.35-5.65-1.68-7.58-1.83-2.67-5.74-4.8-8.61-5.99-.75-.31-2-.93-2.87-1.22l.19,1.45s0,.01,0,.02c.02.07.03.13.04.2,1.64.68,6.54,3.71,8.62,5.58,2.25,2.03,1.6,5.89,1.87,8.67-1.07.54-2.13,1.11-3.13,1.77-2.34,1.53-3.61,4.18-4.13,6.86-.34,1.79-.27,3.77-.34,5.58-.07,1.86-.1,3.73-.09,5.6.01,1.86.11,4.83.53,6.66.37,1.59,1.08,3.53,2.17,4.75-.69-3.11-.8-7.78-.73-10.95.05-2.09.13-4.18.24-6.26.1-2.02.17-4.1.69-6.06.58-2.23,1.87-4.2,3.95-5.29,1.89-.99,3.78-1.94,5.75-2.75,1.42-.58,2.86-1.14,4.33-1.6,1.27-.39,2.48-.81,3.83-.81,1.39,0,2.76.3,4.1.62,3.47.81,6.89,1.82,10.27,2.92,1.73.56,3.45,1.15,5.16,1.74,1.65.57,4.26,1.52,5.71,3.01.61.39-.45-1.89-1.43-2.85Z"/>
            <path class="cls-4" d="M81.51,58.56c-2.93,1.44-5.71,3.23-8.53,4.86-2.92,1.68-6.21,3.87-9.74,3.19-2.93-.56-5.77-2.12-8.51-3.26-3.16-1.32-6.3-2.67-9.48-3.96-.67-.27-1.11.82-.49,1.16,3.26,1.75,6.59,3.31,9.98,4.79,2.69,1.18,5.69,2.83,8.68,3.11-.01,3.49.5,7.06.62,10.56.12,3.42-.17,7.03.39,10.4.11.65,1.2.65,1.31,0,.59-3.47.17-7.29,0-10.79-.15-3.31-.13-6.85-.66-10.14,2.67-.21,5.12-1.48,7.43-2.8,3.27-1.86,6.69-3.61,9.82-5.7.89-.59.12-1.89-.83-1.42Z"/>
          </g>
          <path class="cls-4" d="M54.15,46.53c.1-.06.2-.14.29-.22l-.71.3h.01c.33.03.75-.21.89-.51.1-.2.15-.33.16-.56,0-.1-.02-.21-.04-.31-.06-.27-.25-.53-.5-.65l.18.14h-.01c-.19-.22-.48-.29-.74-.26s-.53.18-.65.42h0c.11-.09.21-.2.32-.31-.1.04-.19.13-.27.2s-.15.17-.21.26l.16-.21v.02c-.07.07-.12.14-.17.21-.08.12-.12.25-.12.38-.02.09-.02.18,0,.27,0,.14.05.26.12.38h0v-1.01.02c.04-.07.09-.14.14-.2-.01.02-.03.03-.04.04l.2-.16h-.02c-.12.08-.21.16-.28.27-.09.1-.15.21-.18.34-.07.24-.04.56.1.77s.34.4.6.46.54.04.77-.1h0Z"/>
          <path class="cls-4" d="M50.99,40.23v-.03c-.08.29-.16.59-.24.88l.04-.04.14-.18.09-.21.03-.24c0-.12-.02-.24-.08-.34-.02-.07-.06-.14-.11-.2-.04-.07-.09-.12-.16-.16-.06-.05-.12-.09-.2-.11-.11-.06-.22-.08-.34-.08h-.05c.21.09.43.18.64.27-.04-.04-.08-.08-.14-.11-.1-.09-.22-.15-.36-.19-.14-.04-.28-.05-.42-.02-.14,0-.27.05-.39.12l-.21.16c-.1.09-.17.21-.22.34-.07.12-.1.26-.09.4,0,.14.02.28.09.4.04.13.11.24.22.34l.21.16c.12.08.25.12.39.12.14.03.28.02.42-.02l.25-.11c.16-.09.28-.22.38-.38l.11-.25c.05-.19.05-.37,0-.56h0Z"/>
          <path class="cls-4" d="M55.13,40.43c1.31,0,1.32-2.04,0-2.04s-1.32,2.04,0,2.04h0Z"/>
          <path class="cls-4" d="M72.97,38.05c-.02-.06-.05-.12-.07-.18-.04-.13-.11-.23-.21-.33-.07-.08-.15-.13-.23-.17l.34.34s-.02-.03-.02-.05c-.15-.29-.49-.46-.8-.46s-.65.17-.8.46c0,.02-.02.03-.02.05l.34-.34c-.09.04-.17.1-.23.17-.1.09-.17.2-.21.33-.02.06-.05.12-.07.18-.05.18-.05.37,0,.55.05.18.14.33.27.46.2.19.45.3.73.3.14,0,.28-.02.4-.09.13-.04.24-.11.33-.21.13-.13.22-.28.27-.46.05-.18.05-.37,0-.55h0Z"/>
          <path class="cls-4" d="M78.07,33.98l-.06.04c-.32.2-.52.53-.52.91s.2.71.52.91l.06.04c.33.21.77.19,1.1,0s.54-.56.54-.94-.21-.75-.54-.94-.78-.21-1.1,0h0Z"/>
          <path class="cls-4" d="M75.46,41.72v.22c.02.09.03.17.05.26.03.13.09.24.18.33.12.16.31.31.51.35h.02c-.18-.14-.37-.28-.55-.42v.02c.19.27.47.45.79.45s.6-.18.78-.45v-.02c-.17.14-.35.28-.53.42h.02c.08-.04.16-.07.23-.1.11-.06.21-.15.28-.25.14-.18.2-.37.21-.59v-.22c.02-.25-.11-.53-.28-.7s-.45-.3-.7-.29-.52.1-.7.29-.3.44-.29.7h0Z"/>
          <path class="cls-4" d="M79.16,49.09c.93,0,.93-1.45,0-1.45s-.93,1.45,0,1.45h0Z"/>
          <path class="cls-4" d="M79.92,65.67l-.03-.03c-.09-.1-.2-.17-.33-.21-.12-.06-.26-.09-.4-.09l-.27.04c-.17.05-.33.14-.46.27l-.03.03-.17.22-.11.26c-.04.14-.05.28-.02.43,0,.1.02.19.07.27.03.09.07.17.14.24.05.08.11.14.19.19.07.07.15.11.24.14.13.07.26.1.41.09l.28-.04.26-.11.22-.17.17-.22.11-.26c.04-.14.05-.28.02-.43,0-.1-.02-.19-.07-.27-.04-.13-.12-.25-.22-.34h0Z"/>
          <path class="cls-4" d="M81.61,71.92c1.12,0,1.12-1.74,0-1.74s-1.12,1.74,0,1.74h0Z"/>
          <path class="cls-4" d="M79.71,81.34c1.54,0,1.55-2.4,0-2.4s-1.55,2.4,0,2.4h0Z"/>
          <path class="cls-4" d="M55.99,77.56c0,.1.01.2.04.3.05.17.13.32.26.44.12.12.27.21.44.26.05,0,.09.02.14.02.05.01.09.02.14.02,0,0,.02,0,.02,0l.28-.04.25-.1c.12-.07.22-.15.29-.27.06-.06.11-.14.13-.23.05-.08.07-.17.07-.26.02-.09.02-.18,0-.28,0-.09-.02-.18-.07-.26-.04-.13-.11-.24-.21-.33l-.21-.16-.25-.1-.28-.04-.28.04-.25.1c-.12.07-.22.15-.29.27-.06.06-.11.14-.13.23-.07.12-.09.26-.09.4h0Z"/>
          <path class="cls-4" d="M53.67,85.09c.15.08.31.17.48.19l.26.03c.13,0,.26-.02.38-.08.08-.02.15-.06.22-.13.11-.07.19-.16.25-.27l.1-.23.03-.26c0-.13-.02-.26-.08-.38-.04-.12-.11-.23-.2-.31-.09-.09-.18-.17-.29-.23-.04-.02-.08-.04-.13-.06-.12-.07-.24-.11-.37-.12-.13-.03-.27-.02-.4.02-.13.03-.24.09-.34.18-.11.07-.2.16-.26.28-.12.23-.18.52-.1.77.08.24.23.48.46.6h0Z"/>
          <path class="cls-4" d="M60.56,83.57c1.27,0,1.27-1.97,0-1.97s-1.27,1.97,0,1.97h0Z"/>
          <path class="cls-4" d="M46.85,68.2c.15,0,.29-.03.42-.09.14-.04.25-.12.35-.23.11-.1.18-.22.23-.35.07-.13.1-.27.09-.42l-.04-.29c-.05-.19-.15-.35-.28-.48l-.22-.17c-.17-.1-.35-.15-.55-.15-.15,0-.29.03-.42.09-.14.04-.25.12-.35.23-.11.1-.18.22-.23.35-.07.13-.1.27-.09.42l.04.29c.05.19.15.35.28.48l.22.17c.17.1.35.15.55.15h0Z"/>
          <path class="cls-4" d="M45.11,71.59s0,.04,0,.06v.02c0,.13.02.24.08.35.05.13.08.2.2.31s.26.19.42.24l-.51-.39v.02c.15.26.44.41.73.41s.58-.16.72-.41v-.02c-.16.13-.33.26-.5.39.04-.01.08-.03.12-.05.11-.04.21-.1.29-.19l.14-.18s.04-.08.05-.13c.04-.07.06-.15.06-.23,0-.05.02-.09.02-.14,0-.02,0-.04,0-.06,0-.13-.02-.24-.08-.35-.04-.11-.1-.21-.19-.3-.08-.09-.18-.15-.3-.19-.11-.06-.23-.08-.35-.08-.24.01-.48.09-.65.27s-.28.41-.27.65h0Z"/>
          <path class="cls-4" d="M17.68,55.85c-.08-.03-.17-.05-.25-.07-.2-.04-.38-.05-.58,0-.11.03-.22.08-.32.13l.52-.14c-.19.02-.38.03-.55.14-.14.09-.3.22-.37.37l.77-.44c-.19.02-.35.04-.52.14-.31.2-.48.57-.38.94.05.19.14.31.26.45l-.23-.87h0c-.13.35.04.73.26.98l.03.04-.26-.45c.04.11.08.22.14.32.11.17.24.3.41.41.15.09.31.16.47.22.26.1.64.02.87-.11s.46-.4.52-.67c.07-.29.05-.61-.11-.87l-.18-.23c-.14-.14-.31-.24-.5-.29h0Z"/>
          <path class="cls-4" d="M12.36,56.31c1.14,0,1.14-1.77,0-1.77s-1.14,1.77,0,1.77h0Z"/>
          <path class="cls-4" d="M10.51,61.4s0,.06,0,.09c0,.12.02.24.08.35.04.11.1.21.19.29.08.09.18.15.29.19.11.06.22.08.35.08l.24-.03c.15-.04.28-.12.4-.23l.14-.18c.08-.14.12-.29.12-.45,0-.03,0-.06,0-.09,0-.12-.02-.24-.08-.35-.04-.11-.1-.21-.19-.29-.08-.09-.18-.15-.29-.19-.11-.06-.22-.08-.35-.08l-.24.03c-.15.04-.29.12-.4.23l-.14.18c-.08.14-.12.29-.12.46h0Z"/>
          <path class="cls-4" d="M22.82,75.33c1.32,0,1.32-2.05,0-2.05s-1.32,2.05,0,2.05h0Z"/>
          <path class="cls-4" d="M36.55,55.48s-.09.02-.14.03c-.18.04-.3.13-.44.25l.18-.14-.03.02.2-.09h-.04c-.18.08-.32.16-.43.31-.11.14-.19.32-.18.51,0,.15.04.29.11.42.1.2.3.31.5.38h.04c-.07-.01-.14-.04-.2-.07l.03.02-.18-.14c.14.12.25.21.44.25.05.01.09.02.14.03.32.07.67.01.91-.24.17-.18.27-.41.27-.66,0-.24-.1-.49-.27-.66-.25-.25-.58-.31-.91-.24h0Z"/>
          <path class="cls-4" d="M32.33,60.24l.09-.16.06-.14c.02-.08.03-.16.01-.24,0-.05-.01-.1-.04-.15-.02-.07-.06-.14-.12-.19l-.12-.09-.14-.06c-.08-.02-.16-.03-.24-.01-.08,0-.15.03-.22.07l-.16.09c-.19.1-.33.34-.32.56l.02.17c.03.11.09.2.17.28.06.06.13.11.21.13.08.04.16.06.25.06.22,0,.45-.12.56-.32h0Z"/>
          <path class="cls-4" d="M33,66.72c.15,0,.3-.03.43-.1.14-.04.26-.12.36-.23.11-.1.18-.22.23-.36.07-.13.1-.28.1-.43l-.04-.3c-.05-.19-.15-.35-.29-.49l-.22-.17c-.17-.1-.36-.15-.56-.15-.15,0-.3.03-.43.1-.14.04-.26.12-.36.23-.11.1-.18.22-.23.36-.07.13-.1.28-.1.43l.04.3c.05.19.15.35.29.49l.22.17c.17.1.36.15.56.15h0Z"/>
        </g>
        <path class="cls-1" d="M69.94,71.25l.04-.06c.18-.3.18-.7,0-1.01l-.04-.06c-.07-.13-.17-.23-.29-.31-.07-.07-.15-.12-.25-.14-.13-.07-.28-.1-.43-.1l-.3.04-.27.11c-.13.07-.23.17-.31.29-.07.07-.12.15-.14.25-.07.13-.1.28-.1.43l.04.3.11.27c.07.13.17.23.29.31.07.07.15.12.25.14.13.07.28.1.43.1l.3-.04.27-.11c.17-.1.3-.23.4-.4h0Z"/>
        <path class="cls-1" d="M71.89,80.48c.16-.02.33-.02.47-.06.33-.09.59-.32.73-.63.1-.17.14-.35.15-.54,0-.15-.03-.28-.09-.41-.04-.13-.12-.25-.22-.34-.13-.13-.29-.22-.47-.27-.03,0-.05,0-.08-.01-.11-.02-.22-.03-.32-.04-.21,0-.4.05-.58.16-.15.09-.25.19-.36.31l-.17.22-.11.26-.04.29c0,.15.03.29.09.42.03.09.07.17.14.24.05.08.11.15.19.19.07.07.15.11.24.14.13.07.27.1.42.09h0Z"/>
        <path class="cls-1" d="M34.04,72.36c1.46,0,1.46-2.26,0-2.26s-1.46,2.26,0,2.26h0Z"/>
        <path class="cls-1" d="M65.21,39.24s0,0-.01,0c-.22.04-.3.12-.46.24-.1.06-.18.14-.24.24-.08.08-.14.18-.17.29-.06.1-.09.22-.09.33-.03.12-.03.24,0,.35,0,.12.03.23.09.33.03.11.09.21.17.29.06.1.14.18.24.24.08.08.18.14.29.17.1.06.22.09.33.09.18.04.35.03.53-.02l.32-.13.27-.21.21-.27.13-.32.05-.35-.05-.35-.13-.32-.21-.27-.27-.21-.32-.13s0,0,0,0c0,0,0,0,0,0-.06,0-.11-.02-.17-.02-.17-.04-.33-.03-.5.02h0Z"/>
      </g>
    </g>
  </g>
</svg>