<?xml version="1.0" encoding="UTF-8"?>
<svg id="Capa_2" data-name="Capa 2" xmlns="http://www.w3.org/2000/svg" viewBox="0 0 100 100">
  <defs>
    <style>
      .cls-1 {
        fill: #ded9d9;
      }

      .cls-2 {
        fill: #fff;
      }

      .cls-3 {
        fill: none;
      }

      .cls-4 {
        fill: #4a2d2d;
      }

      .cls-5 {
        fill: #bcb1b1;
      }

      .cls-6 {
        fill: #f5a880;
      }

      .cls-7 {
        fill: #f7ede4;
      }
    </style>
  </defs>
  <g id="food_icons" data-name="food icons">
    <g>
      <rect class="cls-3" width="100" height="100"/>
      <g>
        <path class="cls-7" d="M38.41,57.22c-4.92,4.86-8.09,7.21-8.65,11.05-.56,3.84-1.36,16.89,2.4,18.25s27.94,2.32,32.99.96c5.04-1.36,3.68-5.12,3.44-10.09s-.48-11.05-1.84-14.41-10.57-9.13-12.97-10.25-8.65-2.16-15.37,4.48Z"/>
        <path class="cls-4" d="M72.11,59.82c-.3-3.41-.61-6.83-1.04-10.23-.36-2.91-.98-7.66-1.6-10.54-.65,0-1.3,0-1.95,0,.55,5.78,2,13.29,2.55,19.07.58,6.15.99,12.32,1.34,18.48.17,2.97.6,6.07.47,9.04-.16,3.89-3.96,5.01-7.26,5.21-5.13.32-10.27.22-15.41.3-5.17-.08-10.35.01-15.52-.3-3.06-.18-7-1.22-7.25-4.88-.21-3.06.28-6.31.46-9.37.35-6.17.76-12.33,1.34-18.48.55-5.78,1.92-12.98,2.47-18.75-.65,0-1.31,0-1.96-.01-1.4,6.05-1.97,14-2.52,20.13-.62,6.97-1.03,13.97-1.43,20.95-.16,2.74-.99,6.3.69,8.72,1.42,2.05,3.91,3.09,6.3,3.45,3.21.48,6.56.39,9.8.52,4.95.2,9.84.21,14.79.01,3.25-.13,6.6-.06,9.82-.48,2.42-.32,4.96-1.27,6.48-3.3,1.85-2.46,1-6.09.83-8.93-.4-6.88-.8-13.75-1.4-20.61Z"/>
        <path class="cls-5" d="M52.37,31.19c-1.11.51-2.33.75-3.55.74-1.24-.01-2.49-.25-3.65-.69-.52-.2-1.04-.44-1.52-.72.09,13.65.2,29.59.2,29.59,0,0,3.2.48,4.72,1.2,1.52.72,4.32,1.2,5.44.4l-.11-31.3c-.51.29-1.02.55-1.54.79Z"/>
        <path class="cls-1" d="M46.05,50.92c0,1.8,0,3.6.01,5.4v2.7c0,.51,0,1.02.04,1.53.47.21.92.44,1.37.68.22-1.4.1-2.88.1-4.28,0-1.59,0-3.18,0-4.77,0-3.21.01-6.41.02-9.62,0-3.57,0-7.15,0-10.72-.53-.07-1.06-.17-1.57-.32,0,.08,0,.17,0,.25,0,6.38,0,12.77.02,19.15Z"/>
        <path class="cls-6" d="M28.04,39.8s-2.52-11.97,16.45-13.93c17.75-1.83,23.42,5.76,24.74,8.77s.6,5.28.6,5.28l-41.79-.12Z"/>
        <path class="cls-5" d="M45.73,29.95c1.02.36,2.08.56,3.16.55,1.03,0,2.05-.21,2.98-.67.57-.28,1.13-.58,1.67-.92.12-.08.25-.16.37-.24l-.05-13.64s-.56-2.48-4.56-4.48-5.76-.88-5.76.88c0,.7.05,8.44.11,17.56.65.42,1.41.74,2.09.98Z"/>
        <path class="cls-1" d="M47.6,30.4c0-2.33,0-4.67,0-7,0-1.8-.02-3.6-.04-5.4-.02-1.8.03-3.66-.24-5.44-.07-.49-.92-.49-1,0-.24,1.58-.22,3.22-.23,4.81-.01,1.59-.03,3.18-.04,4.77-.02,2.63-.02,5.27-.01,7.9.51.16,1.04.28,1.57.36Z"/>
        <path class="cls-4" d="M53.86,15.22v-.19s-.56-2.48-4.56-4.48c-3.41-1.71-5.19-1.14-5.64.15.48,1.02,1.58,2.44,4.12,3.69,2.41,1.19,4.58,1.14,6.09.83Z"/>
        <path class="cls-4" d="M42.41,29.04c3.37,3.42,9.63,3.16,13.02-.11.53-.51-.16-1.45-.79-1.03-1.79,1.18-3.55,2.13-5.74,2.18-2.15.06-4.07-.78-5.94-1.75-.44-.23-.9.33-.54.7h0Z"/>
        <path class="cls-2" d="M38.51,29.26c-1.87.24-3.37.86-4.79,2.1-1.3,1.13-2.67,2.77-2.37,4.6.11.68,1.04.99,1.58.64,1.16-.73,1.72-2.13,2.66-3.11.96-1,2.16-1.9,3.37-2.57.72-.4.45-1.77-.45-1.65h0Z"/>
        <path class="cls-2" d="M63.15,36.31c.22,0,.44,0,.65-.06.2-.06.36-.17.48-.33.12-.16.21-.36.2-.56-.02-.42-.28-.77-.68-.89-.21-.07-.43-.06-.65-.06-.24,0-.5.11-.67.28s-.29.44-.28.67c.02.52.42.95.95.95h0Z"/>
        <path class="cls-4" d="M39.71,61.46c2.15-.45,4.16-1.22,6.34-.39,1.38.53,2.51,1.56,4.01,1.81,2.91.48,5.53-1.58,8.44-1.48.87.03.81-1.21,0-1.32-3.65-.48-6.57,2.71-10.16.75-2.9-1.58-5.97-1.79-8.97-.18-.47.25-.13.92.35.82h0Z"/>
        <path class="cls-2" d="M51.27,69.01s-.01-.01-.02-.02c.06.08.12.16.19.24-.07-.1-.14-.2-.23-.29.11.26.22.52.32.78-.01-.11-.03-.22-.04-.32-.05-.18-.15-.34-.28-.48-.1-.11-.22-.18-.35-.23-.13-.07-.27-.1-.42-.09-.2,0-.38.05-.55.15-.08.06-.17.12-.25.19.16-.09.33-.19.49-.28-.2.07-.4.15-.55.32-.04.05-.16.19-.19.25,0,.01-.01.02-.02.03-.04.1-.08.19-.12.29-.01.11-.03.21-.04.32.01.11.03.21.04.32.04.1.08.19.12.29.06.08.13.16.19.25.08.06.16.13.25.19.1.04.19.08.29.12.16.05.32.06.48.02.11,0,.21-.03.31-.08.1-.03.19-.08.27-.16.09-.05.16-.13.22-.22.07-.08.13-.16.16-.27.05-.09.08-.2.08-.31.03-.11.03-.21,0-.32,0-.11-.03-.21-.08-.31-.05-.15-.13-.28-.25-.39h0Z"/>
        <path class="cls-2" d="M53.95,67.4c.11,0,.22-.02.32-.07.1-.03.19-.09.27-.17.08-.07.14-.16.17-.27.05-.1.08-.2.07-.32,0-.07-.02-.15-.03-.22-.04-.14-.11-.26-.21-.36-.06-.04-.11-.09-.17-.13-.13-.07-.27-.11-.42-.11-.11,0-.22.02-.32.07-.1.03-.19.09-.27.17-.08.07-.14.16-.17.27-.05.1-.08.2-.07.32,0,.07.02.15.03.22.04.14.11.26.21.36.06.04.11.09.17.13.13.07.27.11.42.11h0Z"/>
        <path class="cls-2" d="M57.14,76.42c.13,0,.25-.02.36-.08.12-.04.22-.1.3-.2.09-.09.16-.19.2-.3.06-.11.09-.23.08-.36-.01-.08-.02-.17-.03-.25-.04-.16-.13-.3-.24-.42-.06-.05-.13-.1-.19-.15-.15-.09-.31-.13-.48-.13-.13,0-.25.02-.36.08-.12.04-.22.1-.3.2-.09.09-.16.19-.2.3-.06.11-.09.23-.08.36.01.08.02.17.03.25.04.16.13.3.24.42.06.05.13.1.19.15.15.09.31.13.48.13h0Z"/>
        <path class="cls-4" d="M37.53,79.29c-1.78,0-1.78,2.76,0,2.76s1.78-2.76,0-2.76Z"/>
        <path class="cls-4" d="M36.08,71.65c-1.32,0-1.32,2.04,0,2.04s1.32-2.04,0-2.04Z"/>
        <path class="cls-4" d="M43.77,81.45c1.2,0,1.2-1.86,0-1.86s-1.2,1.86,0,1.86Z"/>
        <path class="cls-4" d="M59.27,69.18c.08.06.16.12.24.19.18.11.38.16.6.16.16,0,.31-.03.46-.1.15-.05.27-.13.38-.24.12-.11.2-.23.24-.38.07-.14.11-.29.1-.46-.01-.1-.03-.21-.04-.31-.06-.2-.16-.37-.3-.52-.08-.06-.16-.12-.24-.19-.18-.11-.38-.16-.6-.16-.16,0-.31.03-.46.1-.15.05-.27.13-.38.24-.12.11-.2.23-.24.38-.07.14-.11.29-.1.46.01.1.03.21.04.31.06.2.16.37.3.52Z"/>
        <path class="cls-4" d="M62.99,79.48c1.14,0,1.14-1.78,0-1.78s-1.14,1.78,0,1.78Z"/>
      </g>
    </g>
  </g>
</svg>