<?xml version="1.0" encoding="UTF-8"?>
<svg id="Capa_2" data-name="Capa 2" xmlns="http://www.w3.org/2000/svg" viewBox="0 0 100 100">
  <defs>
    <style>
      .cls-1 {
        fill: #da893e;
      }

      .cls-2 {
        fill: #fff;
      }

      .cls-3 {
        fill: none;
      }

      .cls-4 {
        fill: #4a2d2d;
      }

      .cls-5 {
        fill: #bc7e75;
      }
    </style>
  </defs>
  <g id="COLOR">
    <g>
      <rect class="cls-3" width="100" height="100"/>
      <g>
        <path class="cls-4" d="M55.62,19.01c4.01-1.57,13.15-3.29,14.59,2.56,1.53,6.22-5.7,8.85-10.27,10.12-1.05.29-.61,1.92.45,1.64,5.68-1.52,13.57-4.86,11.8-12.3-1.75-7.35-11.87-5.42-16.97-3.47-.9.34-.5,1.82.4,1.46h0Z"/>
        <path class="cls-4" d="M55.04,23.73c1.54-.51,2.87-1.48,4.43-1.98,1.66-.53,5.07-1.44,6.24.42s-.67,4.06-2.15,5.03c-1.37.91-2.95,1.23-4.4,1.92-.74.35-.21,1.5.55,1.3,3.39-.91,10.56-4.77,7.87-9.35-2.48-4.23-10.66-1.21-13.26,1.43-.5.5,0,1.46.71,1.23h0Z"/>
        <path class="cls-5" d="M74.67,41.64c-1.88-2.64-4.32-4.92-7.12-6.56-2.15-1.25-4.97-2.5-7.58-2.53.86-1.68-.91-4.15-2.14-5.23-.8-.71-1.72-1.24-2.19-2.22-.59-1.27-.23-2.69-.09-4.04.21-2,.65-4.45.08-6.39-.19-.65-.94-.63-1.27-.17-.57-.04-1.16,0-1.73,0-.81,0-1.62,0-2.43,0-1.64,0-3.27,0-4.91.02-.73,0-1.46.02-2.18.05-.31-.52-1.11-.57-1.31.1-.56,1.91-.13,4.3.06,6.27.11,1.13.46,2.44.2,3.58-.3,1.31-1.52,1.98-2.45,2.8-1.23,1.08-2.98,3.53-2.16,5.21-4.47-.05-9.41,3.32-12.31,6.27-4.02,4.09-6.16,9.48-6.58,15.15-.51,6.81,1.38,13.57,3.44,20,1.87,5.83,3.76,12.66,8.01,17.28,2.04,2.22,4.89,2.84,7.81,3.1,3,.27,6.11.25,9.14.17,4.31.07,8.63-.1,12.93-.15,2.94-.03,5.66-.71,7.65-3.01,2.14-2.48,3.58-5.66,4.81-8.67,2.82-6.9,5.31-14.39,6.28-21.8.87-6.61,0-13.66-3.94-19.21Z"/>
        <path class="cls-4" d="M58.48,4.22c-3.05-.55-6.43-.21-9.52-.12-3.07.09-6.47-.11-9.46.65-.63.16-.64.87-.61,1.38.05.79.1,1.58.15,2.37.11,1.56.25,3.11.42,4.66.06.51.12,1.12.46,1.52.65.76,2.16.75,3.07.84,2.01.2,4.05.01,6.06-.02,1.27-.02,2.54-.03,3.82-.03.63,0,1.25,0,1.88,0,.55,0,1.03-.11,1.58-.19.46-.06.99-.07,1.41-.31.39-.22.59-.66.7-1.08.66-2.56.52-5.61.69-8.24,0-.01,0-.02,0-.03.1-.57-.02-1.29-.65-1.41Z"/>
        <path class="cls-4" d="M45.07,26.72c.6.17,1.22.22,1.84.21.58-.01,1.19,0,1.72-.25.44-.22.37-.84,0-1.07-.49-.31-1.15-.34-1.71-.41-.63-.08-1.22-.06-1.84.04-.78.13-.68,1.28,0,1.48h0Z"/>
        <path class="cls-4" d="M51.35,26.94h.19c.28,0,.5-.08.71-.27.08-.08.14-.17.18-.27.05-.1.08-.21.07-.33,0-.22-.08-.45-.25-.6-.12-.11-.25-.21-.42-.24-.09-.02-.19-.03-.29-.03h-.19c-.22,0-.46.1-.62.26s-.27.4-.26.62.08.46.26.62.38.26.62.26h0Z"/>
        <path class="cls-4" d="M40.57,34.82l.06.03-.39-.51c.13.48.55.74.99.91.47.18,1.03.05,1.39-.3s.37-.96,0-1.3c-.51-.46-1.37-.57-1.99-.27h.85l-.06-.03c-.39-.22-.94-.11-1.16.3-.19.37-.13.97.3,1.16h0Z"/>
        <path class="cls-4" d="M46.75,35.09c2.62.33,6.36.71,8.87-.27.55-.22.72-1.16,0-1.3-1.33-.25-2.76.04-4.1.18-1.61.17-3.15.19-4.76,0-.88-.1-.87,1.27,0,1.38h0Z"/>
        <path class="cls-2" d="M62.69,46.76c-8.93-7.26-24.08-6.77-30.98,3.18-5.36,7.74-4.86,19.44.36,27.13,1.73,2.55,4.07,4.69,6.88,5.99,9.62,4.44,22.06,1.66,27.44-7.81,4.89-8.61,4.39-21.9-3.7-28.49Z"/>
        <path class="cls-1" d="M55.19,55.36c-.6-1.23-1.93-.68-3.04.59.06-2,.72-5.95-1.13-7-1.83-1.04-2.64,2.76-3.17,4.56-.81-1.79-2.73-3.68-3.98-2.57-1.48,1.31.27,5.18,1.02,7.09-.81-.3-2.6-1.74-3.17-.82-.81,1.29.72,3.02,1.43,4.01,1.04,1.44,2.3,2.69,3.36,4.1,1.17,1.56,1.71,2.95,2.14,4.83.16.69,1.25.54,1.23-.17,0-.31-.04-.62-.08-.92.07-.03.14-.09.19-.18,1.73-2.92,3.92-5.95,4.99-9.2.41-1.26.83-3.06.22-4.32Z"/>
        <path class="cls-1" d="M61.86,69.94c-.33-.73-1.73-.59-2.57-.68.68-.72,1.82-2.06.99-2.71-.71-.55-2.31.09-3.3.46.45-.88,1.27-2.28.83-2.97-.74-1.18-2-.21-2.7.4-2.4,2.1-4.53,4.99-5.92,7.91,0-.11-.05-.23-.16-.34-1.54-1.6-2.88-3.19-4.09-5.07-1.02-1.58-1.87-3.39-3.09-4.83-.75-.89-2.17-1.72-2.84-.33-.6,1.25.51,3.25,1.16,4.47-1.36-.12-3.5-.46-3.87.96-.29,1.12,1.81,2.2,2.76,2.82-.96.36-3.11.71-3.27,1.73-.17,1.06.68,1.79,1.6,2.11,3.32,1.15,7.61-.34,10.96-.53.21-.01.38-.1.49-.23-.09.29.06.55.28.65-.02.01-.05.02-.07.03-.46.22-.21.91.25.92,1.75.03,3.57-.54,5.28-.85,1.95-.36,3.82-.74,5.65-1.54.91-.4,2.18-1.19,1.63-2.39Z"/>
        <path class="cls-4" d="M48.89,78.13c.71-3.47.98-6.96,1.08-10.49.1-3.26.59-7.42-.38-10.56-.13-.43-.86-.51-.95,0-.28,1.56-.05,3.18,0,4.76.05,1.8.06,3.61.03,5.41-.06,3.6-.33,7.19-.42,10.79,0,.36.57.45.64.09h0Z"/>
        <path class="cls-4" d="M48.9,72.26c-1.16-.57-2.22-1.3-3.3-2-.95-.62-1.95-1.33-3.13-1.33-.44,0-.78.63-.39.94.94.74,2.09,1.23,3.12,1.84,1.07.64,2.43,1.24,3.67,1.43.46.07.53-.64.03-.88h0Z"/>
        <path class="cls-4" d="M49.03,74.8c1.06-.74,3.1-1.95,4.2-2.62,1-.6,2.15-1.06,3.01-1.85.34-.32-.02-.8-.42-.73-1.14.22-2.2.96-3.18,1.55-1.11.67-2.17,1.41-3.2,2.19-.55.41-.99,1.87-.4,1.46h0Z"/>
        <path class="cls-2" d="M43.91,31.34c.08-.11.21-.24.25-.33l.15-.35c.04-.13.05-.25.05-.39,0-.26-.07-.51-.2-.74-.06-.1-.17-.22-.25-.33l-.3-.24-.36-.15c-.2-.06-.4-.07-.6-.03-.14,0-.26.03-.38.1-.13.04-.24.1-.33.19-.11.07-.2.16-.27.27-.09.09-.16.2-.19.33-.09.18-.14.37-.13.58l.05.4.15.36.24.3.3.24.36.15c.2.06.4.07.6.03.14,0,.26-.03.38-.1.19-.06.35-.16.48-.31h0Z"/>
        <path class="cls-2" d="M34.1,37.93c-2.96,1.14-5.31,3-7.04,5.68-1.31,2.04-3.42,6.06-1.5,8.22.32.36,1.04.48,1.45.19,1.77-1.31,1.79-4.24,2.83-6.12,1.24-2.27,3.08-4.29,5.18-5.79,1.01-.72.44-2.7-.92-2.18h0Z"/>
        <path class="cls-2" d="M69.97,48.9c.58.95.64,2.11,1.21,3.04.42.68,1.28.45,1.55-.2.53-1.26-.29-2.84-1.03-3.85s-2.41-.12-1.73,1.01h0Z"/>
        <path class="cls-2" d="M71,58.16c0,.32,0,.64.04.95.03.25.04.51.16.73.16.26.5.49.82.48,1.09-.05,1.01-1.37,1.02-2.16.01-.54-.48-1.05-1.02-1.02s-1.04.45-1.02,1.02h0Z"/>
      </g>
    </g>
  </g>
</svg>