<?xml version="1.0" encoding="UTF-8"?>
<svg id="Capa_2" data-name="Capa 2" xmlns="http://www.w3.org/2000/svg" viewBox="0 0 100 100">
  <defs>
    <style>
      .cls-1 {
        fill: #725b5b;
      }

      .cls-2 {
        fill: #fff;
      }

      .cls-3 {
        fill: #fbdb97;
      }

      .cls-4 {
        fill: none;
      }

      .cls-5 {
        fill: #e58473;
      }

      .cls-6 {
        fill: #fad380;
      }

      .cls-7 {
        fill: #4a2d2d;
      }

      .cls-8 {
        fill: #f7bc3b;
      }
    </style>
  </defs>
  <g id="COLOR">
    <g>
      <g>
        <g>
          <path class="cls-1" d="M51.93,14.34s.9,7.32.3,8.21-9.11,7.02-10.3,12.99c-1.19,5.97.45,42.56,1.05,46.59.6,4.03,4.48,6.94,16.58,7.32,11.2.35,13.49-1.05,16.28-2.09,2.34-.88,3.43-1.64,3.88-6.87s1.64-35.84,1.19-42.11-3.73-8.81-7.02-11.95c-3.29-3.14-4.03-4.63-4.03-6.57s.6-5.97.6-5.97l-18.52.45Z"/>
          <g>
            <path class="cls-7" d="M61.19,4.63c-3.21-.06-8.09.24-10.75,1.64s-1.58,9.49-1.34,10.01c.52,1.15,2.91,3.43,12.4,3.43,10.45,0,11.8-2.69,12.1-3.43s.75-7.7-.59-9.2-6.26-2.35-11.8-2.45Z"/>
            <path class="cls-2" d="M49.75,8.39c2.72,1.02,5.77,1.35,8.65,1.51,3.29.18,6.61.03,9.87-.46,1.61-.25,3.24-.58,4.73-1.24.55-.24.07-1.05-.47-.81-1.25.56-2.64.84-3.98,1.07-1.73.29-3.49.45-5.25.54-2.94.14-5.9.03-8.82-.33-1.53-.19-3.08-.45-4.55-.94-.42-.14-.59.51-.18.66h0Z"/>
          </g>
          <path class="cls-8" d="M74.63,39.82s-.2,6.77-.42,14.3c-.09,2.78-.17,5.67-.25,8.36-.18,6.34-.34,11.57-.34,11.69,0,.3-4.58,2.09-13.74,2.19-9.16.1-12.05-1.79-12.05-1.79l-.8-34.25s3.53,1.68,10.9,1.64c.65,0,1.33-.02,2.04-.05,1.95-.09,3.75-.24,5.39-.43,5.7-.64,9.25-1.66,9.25-1.66Z"/>
          <path class="cls-2" d="M74.22,54.12c-.09,2.78-.17,5.67-.25,8.36-.41-.73-.79-1.47-1.15-2.22-.77-1.61-1.42-3.28-2.4-4.77-.99-1.48-2.36-2.8-4.08-3.28-1.9-.53-4.08,0-5.8-.97-1.14-.64-1.86-1.85-2.21-3.1-.34-1.26-.35-2.58-.36-3.88,0-.77,0-1.54-.01-2.3.65,0,1.33-.02,2.04-.05,1.95-.09,3.75-.24,5.39-.43,1.19,5.13,4.37,9.83,8.83,12.64Z"/>
          <path class="cls-7" d="M72.14,30.76c.38.05.76.02,1.13-.07.19-.05.38-.12.56-.2.2-.09.42-.25.52-.44.07-.14.07-.3-.03-.43s-.25-.17-.41-.14c-.18.03-.36.14-.52.23-.06.04-.15.1-.22.11.06-.02.06-.03.02,0-.02,0-.04.02-.06.02-.03.01-.07.02-.1.04-.15.05-.31.1-.47.11.12,0-.02,0-.05,0-.04,0-.08,0-.12,0-.08,0-.17,0-.25,0-.2-.01-.4.19-.39.39.01.23.17.36.39.39h0Z"/>
          <path class="cls-7" d="M74.37,33.44c.29-.05.58-.13.85-.24.16-.07.34-.13.49-.23s.28-.21.42-.32c.08-.06.13-.2.13-.3s-.03-.18-.09-.26c-.13-.17-.36-.21-.55-.11-.06.03-.12.06-.17.08-.03.01-.05.02-.08.03.13-.06.03-.01,0,0-.15.06-.29.13-.43.19l.12-.05c-.3.12-.61.21-.93.27-.11.02-.24.13-.29.22-.06.1-.09.26-.05.37s.11.23.22.29c.12.06.24.07.37.05h0Z"/>
          <path class="cls-2" d="M50.07,29.28c-1.25.9-2.43,1.82-3.41,3.04-.47.58-.88,1.2-1.19,1.88s-.88,1.8-.27,2.43c.22.23.54.23.81.1.37-.17.49-.64.61-1,.09-.28.18-.55.3-.82.29-.61.65-1.18,1.06-1.72s.85-1,1.31-1.48c.49-.51.97-1.04,1.46-1.56.42-.44-.14-1.27-.68-.88h0Z"/>
          <path class="cls-2" d="M44.18,40.52v.8c0,.09,0,.18.02.27.04.16.15.29.3.37.16.09.37.09.53,0,.14-.09.25-.21.3-.37.02-.09.02-.18.02-.27v-.8c0-.15-.06-.31-.17-.41s-.27-.18-.41-.17-.31.06-.41.17-.17.25-.17.41h0Z"/>
        </g>
        <g>
          <path class="cls-6" d="M44.07,77.38l-.07.08s-.05.05-.06.09c-.02.03-.02.07-.02.1,0,.04,0,.07.02.1.01.03.03.06.06.09l.06.04s.09.04.14.04h.07s.09-.05.12-.08l.08-.07s.05-.06.06-.09c.02-.03.03-.07.02-.11,0-.04,0-.08-.02-.11-.01-.04-.03-.07-.06-.09l-.06-.04s-.09-.04-.14-.04h-.08s-.09.05-.12.08h0Z"/>
          <path class="cls-7" d="M78.6,79.9c-.94-.69-2.5-.22-3.55-.08-2.63.35-5.24.85-7.87,1.15-2.49.29-4.99.38-7.5.24-4.3-.24-8.58-1.16-12.64-2.64-.08-.07-.15-.14-.23-.21.53-.21,1.06-.43,1.57-.65,1.79-.76,3.52-1.67,5.19-2.67,3.31-2,6.35-4.45,9.01-7.27,1.33-1.41,2.57-2.92,3.7-4.5.51-.71,1.14-1.69.55-2.54-.45-.65-1.39-.76-2.07-.45-.84.38-1.46,1.24-2.06,1.91-.65.72-1.29,1.45-1.93,2.18-1.28,1.47-2.55,2.94-3.89,4.35-5.72,5.25-9.23,8.74-17.24,7.04-1.41-.39-2.78-.86-4.17-1.32-1.09-.36-2.17-.78-3.22-1.26-1.98-.9-3.87-2.07-5.48-3.54-1.5-1.37-2.74-3.04-3.56-4.91-.42-.96-.66-1.97-.9-3-.25-1.08-.5-2.27-1.14-3.2-.54-.78-1.43-1.35-2.39-.97-.94.37-1.28,1.41-1.38,2.33-.23,2.23.67,4.51,1.71,6.44,1.87,3.46,4.86,6.3,8.24,8.27,1.93,1.12,4.04,1.98,6.22,2.51,1.09.27,2.2.45,3.32.56.11.01.22.02.32.03-3.68.57-7.38,1.12-11.11,1.05-2.43-.05-4.84-.3-7.23-.76-1.22-.23-2.44-.52-3.64-.86-1.2-.35-2.38-.77-3.59-1.07-.98-.24-2.26-.61-3.17.01-.74.51-.91,1.51-.62,2.32.35.97,1.26,1.49,2.19,1.8,1.07.35,2.2.57,3.31.8,4.66.95,9.4,1.37,14.15,1.09,2.7-.16,5.39-.53,8.03-1.1,1.32-.28,2.62-.62,3.91-1,.92-.27,1.86-.54,2.74-.93.08.27.3.49.61.45.53-.06,1.04-.17,1.56-.3.48.3.98.57,1.48.83,1.2,1.24,2.61,2.35,3.96,3.39,1.13.87,2.29,1.69,3.48,2.46,1.18.94,2.37,1.86,3.58,2.74,3.14,2.28,6.45,4.44,10.17,5.65,2.05.67,4.28,1.06,6.43.75.32-.05.6-.45.58-.76-.13-2.03-2.81-2.4-4.33-2.81-2.14-.58-4.25-1.29-6.31-2.12-4.09-1.65-8.01-3.9-11.52-6.57-.21-.16-.41-.32-.61-.48,1.7.59,3.45,1.06,5.21,1.42,5.06,1.02,10.15.95,15.26.35,1.36-.16,2.71-.35,4.06-.53,1.03-.14,2.25-.19,2.96-1.07.6-.73.66-1.92-.16-2.52Z"/>
          <path class="cls-3" d="M63.3,72.57c-3.44-1.1-10.72.9-14.36,2.59,2.04-1.59,5.28-5.03,5.65-7.67.26-1.85-.06-3.89-.53-5.71-.52-1.97-1.39-3.91-2.58-5.57-.23-.32-.58-.35-.89-.11-3.29,2.54-7.38,6.87-7.71,15.97-.2-1.64-.37-4.67-1.52-6.57-.97-1.6-2.22-2.73-3.93-3.45-1.88-.79-3.9-1.51-5.93-1.77-.29-.04-.54.23-.63.48-1.29,3.65-2.12,7.82-.6,11.53.62,1.5,1.54,2.51,2.82,3.53.73.58,2.44,1.54,4.78,1.19-1,.46-4.34,1.49-5.17,2.22-1.47,1.28-2.57,2.97-3.61,4.6-1.16,1.8-2.2,3.68-3.13,5.61-.16.33-.04.75.34.85,1.98.5,4.02.98,6.07.91,1.94-.06,3.76-.68,5.36-1.78.6-.41,2.27-2.62,3.34-5.14-.05,3.4,1.19,7.74,3.63,9.59,1.89,1.43,4.25,2.21,6.38,3.26.65.32,1.38-.34,1.01-1.01-.83-1.49-.56-3.17-.13-4.74.47-1.69,1.14-3.37,1.03-5.16-.18-3.04-3.6-5.45-4.56-6.92.83.31,1.69,2.04,5.49,2.69,1.62.28,3.28.29,4.81-.39,1.33-.59,2.38-1.68,3.14-2.91.99-1.6,1.47-3.47,1.89-5.28.08-.37-.11-.72-.47-.83Z"/>
          <path class="cls-7" d="M44.81,74.81c-1.37.19-3.59,3.46-1.62,4.17,1.17.42,2.35-.39,2.93-1.36.65-1.09.32-3.04-1.31-2.81Z"/>
          <path class="cls-5" d="M44.98,76.05c-.94-.76-1.94-1.45-2.82-2.29s-1.69-1.78-2.38-2.79-1.24-2.05-1.67-3.17c-.22-.57-.39-1.16-.57-1.75s-.29-1.33-.65-1.81-.97-.39-1.19.16c-.26.63-.07,1.5.06,2.14s.33,1.23.55,1.83c.49,1.27,1.1,2.49,1.87,3.61,1.48,2.17,3.62,4.3,6.14,5.17.6.21,1.16-.69.64-1.1h0Z"/>
        </g>
      </g>
      <rect class="cls-4" width="100" height="100"/>
    </g>
  </g>
</svg>