<?xml version="1.0" encoding="UTF-8"?>
<svg id="Capa_2" data-name="Capa 2" xmlns="http://www.w3.org/2000/svg" viewBox="0 0 100 100">
  <defs>
    <style>
      .cls-1 {
        fill: #fff;
      }

      .cls-2 {
        fill: none;
      }

      .cls-3 {
        fill: #f7e2c9;
      }

      .cls-4 {
        fill: #d6a257;
      }

      .cls-5 {
        fill: #4a2d2d;
      }

      .cls-6 {
        fill: #fddaa7;
      }
    </style>
  </defs>
  <g id="COLOR">
    <g>
      <rect class="cls-2" width="100" height="100"/>
      <g>
        <g>
          <path class="cls-4" d="M86.09,78.31c-.65-2.63-1.37-5.24-2.05-7.87-1.76-6.81-2.6-13.78-2.94-20.79-.36-7.46-.36-14.95-1.17-22.38-.09-.79-1.22-.88-1.35-.18-6.99.14-47.14.92-47.57.89-1.36,13.26-.41,26.66-3.37,39.76-.66,2.91-1.48,5.78-2.22,8.66-.52,2.01-1.7,4.67.3,6.22,2.04,1.58,5.21,2.02,7.7,2.3,3.12.34,6.26.13,9.39.1,1.33-.01,2.67-.01,4,0,3.92.34,7.91.25,11.89.14,1.77.02,3.53,0,5.28-.13.62,0,1.23-.01,1.85-.01,5.87,0,12.19.8,17.77-1.5.99-.41,2.11-.88,2.6-1.91.5-1.05.15-2.22-.11-3.28Z"/>
          <path class="cls-4" d="M77.64,17.44c-4.48-.04-8.96-.12-13.43-.14-9.23-.04-18.53-.33-27.67,1.16-1.92.31-3.87.28-5.67,1.13-1.82.87-1.21,2.64-.17,3.84-1.21,1.6-2.82,4.53-.21,5.11,1.79.4,3.79.03,5.58-.14,2.37-.23,4.74-.41,7.12-.54,8.83-.48,17.69-.3,26.53-.19,2.27.03,4.54.05,6.81.05,1.25,0,3.35.4,4.37-.63,1.03-1.04-.45-2.23.28-3.33.83-1.25,2.45-1.68,2.65-3.37.39-3.3-4.2-2.93-6.19-2.95Z"/>
          <path class="cls-5" d="M35.43,24.03c2.99-.25,5.98-.49,8.98-.69,2.76-.18,5.77.02,8.46-.61.44-.1.48-.86,0-.94-2.71-.43-5.73.06-8.46.23-3,.19-5.99.45-8.98.78-.77.09-.8,1.29,0,1.23h0Z"/>
          <path class="cls-5" d="M59.34,22.99c.85.01,1.74.1,2.58-.02.45-.06.45-.85,0-.91-.84-.12-1.73-.03-2.58-.02-.61,0-.61.94,0,.95h0Z"/>
          <path class="cls-5" d="M66.38,23.48c1.23.04,2.64.24,3.83-.1.55-.16.55-.95,0-1.11-1.19-.34-2.6-.15-3.83-.1-.84.03-.84,1.28,0,1.31h0Z"/>
          <g>
            <path class="cls-6" d="M56.27,50.05c-.08.02-.16.05-.24.07-.47.14-.4.93.12.89,4.51-.34,8.09-4.37,8.84-8.64.07-.38-.3-.7-.66-.51-3.36,1.85-6.16,4.47-8.13,7.78-.1.16-.04.31.06.41Z"/>
            <path class="cls-6" d="M55.5,53.1c.65.12.93-.87.27-.99-.02,0-.04,0-.06-.01.16-.06.29-.22.24-.4-.91-4.08-4.37-6.91-7.93-8.72-.29-.15-.79.03-.74.42.27,2.13,1.22,3.98,2.63,5.58,1.33,1.5,3.52,3.76,5.56,4.13Z"/>
            <path class="cls-6" d="M55.43,59.39c.07.13.14.27.21.4.18.34.67.1.6-.25-.01-.05-.03-.09-.04-.14.3-.1.37-.48.2-.72.01,0,.02-.02.03-.03.05.23.25.44.55.39,4.24-.77,7.63-4.04,8.64-8.21.07-.31-.21-.64-.54-.54-2.05.66-3.81,1.82-5.43,3.22-1.45,1.26-3.37,2.76-3.82,4.72-1.33-3.37-4.79-5.9-8.13-6.86-.34-.1-.68.23-.58.58,1.19,3.84,4.17,7.11,8.29,7.44Z"/>
            <path class="cls-6" d="M65.95,56.69c-4.02,2.08-7.87,5.4-9.9,9.51-.02.05-.04.1-.04.14-1.71-3.97-6.38-6.33-10.35-7.27-.43-.1-.83.46-.46.79.92.82,1.33,2,2.07,2.96.59.78,1.31,1.45,2.09,2.03,1.95,1.45,4.24,2.26,6.55,2.94.28.08.49-.07.57-.28.03,0,.07,0,.11,0,5.12-1.01,8.49-5.68,9.92-10.39.1-.34-.28-.58-.56-.43ZM56.25,66.72s-.05.03-.07.05c-.02-.04-.03-.08-.05-.13.04.03.08.05.12.07Z"/>
          </g>
          <path class="cls-5" d="M80.1,28.54c-.03-.4-.04-.56-.04-.96-3.58.2-9.31-.24-11.49-.31-4.3-.14-8.58-.46-12.89-.48-4.07-.02-8.17.08-12.21.64-4.19.58-8.23,1.41-12.47,1.13-.04,0-.08,0-.12,0-.01.26-.05.52-.05.77,0,.13,0,.26,0,.39.03.01.07.02.11.03,4.19.63,8.29-.27,12.44-.8,4.71-.6,9.51-.59,14.26-.47,4.75.11,9.48.4,14.23.5,2.25.04,4.52.08,6.77,0,.5-.02,1.02-.04,1.5-.13,0-.1-.02-.19-.02-.29Z"/>
          <path class="cls-5" d="M56.55,67.76c-.02-2.84-.05-5.69-.07-8.53-.03-4.87-.07-9.74-.12-14.61-.01.02-.02.04-.04.06-.21.28-.52.42-.85.28-.01,0-.03-.02-.04-.02-.02,4.76-.04,9.53-.05,14.29,0,2.84-.03,5.68-.03,8.53,0,1.42,0,2.84,0,4.26,0,1.44-.17,2.98.19,4.38.11.43.77.43.88,0,.33-1.32.18-2.73.17-4.08,0-1.52-.02-3.05-.03-4.57Z"/>
          <path class="cls-6" d="M56.25,46.57s-.01-.03-.02-.05c1.43-4.05,2.56-8.6.43-12.61-.16-.3-.6-.27-.76,0-2.23,3.7-2.9,9.19-.41,12.98.24.37.94.14.76-.32Z"/>
          <path class="cls-1" d="M73.89,78.93c.97.12,2.04.22,2.9-.35.42-.28.53-1.01,0-1.26-.84-.4-1.72-.34-2.61-.47-.63-.09-1.23.19-1.32.88s.41,1.12,1.04,1.2h0Z"/>
          <path class="cls-1" d="M75.28,73.1c.32.23.73.25,1.11.28s.8.06,1.19-.04c.93-.24.98-1.73,0-1.94-.84-.17-2,.07-2.54.77-.24.31-.02.73.24.92h0Z"/>
          <path class="cls-1" d="M35.88,37.79c.39-.07.75-.18,1.06-.44.36-.31.29-1.04-.16-1.24-.19-.09-.31-.13-.52-.15-.06,0-.12,0-.19,0-.15,0-.29.01-.43.03-.26.03-.46.09-.65.27-.21.2-.29.5-.25.78.03.25.15.45.35.6.25.19.5.22.81.17h0Z"/>
          <path class="cls-1" d="M37.03,33.17c.29.06.6.06.86-.1.13-.08.25-.21.32-.35.08-.17.1-.25.12-.43.02-.14-.08-.35-.18-.44-.12-.11-.27-.19-.44-.18-.02,0-.04,0-.06,0l.18.02s-.06-.01-.1-.03l.18.08c-.16-.07-.24-.11-.42-.11-.03,0-.06,0-.09,0l.21.03s-.07-.02-.1-.03l.19.08s-.03-.01-.05-.02c-.43-.24-.97-.06-1.16.39-.09.21-.09.42,0,.63s.28.42.53.47h0Z"/>
        </g>
        <g>
          <path class="cls-3" d="M48.7,83.6c-1.64-3.24-3.98-6.17-6.41-8.86-2.31-2.55-4.99-5.47-8.09-7.07-2.93-1.52-6.27-.73-8.95.95-3.18,2-5.71,5.18-7.99,8.11-2.06,2.64-3.78,5.43-5.62,8.21-1.44,2.16-.23,3.77,1.95,4.48,3.57,1.17,7.31,1.81,11.05,2.11,3.91.31,7.86.17,11.76-.2,3.29-.31,7.16-.53,10.21-1.89,2.55-1.13,3.34-3.34,2.08-5.84Z"/>
          <path class="cls-5" d="M23.33,73.58c-.49.68-1.19,1.63-.71,2.48.12.21.42.35.66.27.84-.28,1.06-1.25,1.43-1.95.49-.92-.79-1.63-1.37-.8h0Z"/>
          <path class="cls-5" d="M29.39,74.05l.03.43c.02.26.07.48.2.7.15.27.48.42.78.37.33-.04.54-.26.65-.56s.06-.63.04-.95c-.03-.44-.37-.87-.85-.85-.43.02-.89.37-.85.85h0Z"/>
          <path class="cls-5" d="M32.51,80.1s.05.05.08.08c0,0,.11.14.05.06-.06-.08.02.03.03.04.05.07.1.15.16.21.05.05.09.1.14.15-.08-.09.04.05.08.09.05.04.11.08.16.12.21.15.59.05.69-.18.24-.51.07-1.04-.19-1.5-.23-.4-.77-.49-1.12-.21s-.4.81-.08,1.14h0Z"/>
          <path class="cls-1" d="M34.44,75.07c.07.09.14.19.2.29.01.02.07.15.09.16l-.06-.14c.02.08.05.16.09.24.19.46.49.82.99.95l-.65-.5c.11.16-.06-.21.02.04.12.35.41.59.79.6s.66-.17.91-.42l-.48.28c.88-.27,1.21-1.3.77-2.08-.25-.44-.67-.74-1.1-.99s-1.05-.19-1.39.18c-.32.35-.49.97-.18,1.39h0Z"/>
          <path class="cls-1" d="M24.23,83.41l.06.46c.02.18.06.33.19.46.11.11.3.2.46.19s.34-.06.46-.19l.1-.13c.06-.1.09-.21.09-.33l.06-.46c.02-.17-.1-.39-.21-.51-.12-.12-.33-.22-.51-.21s-.38.07-.51.21c-.12.13-.23.32-.21.51h0Z"/>
          <path class="cls-1" d="M17.13,82.39c0,.11,0,.22-.01.33,0,.05-.05.17-.02.22.03-.19.03-.23.01-.12-.01.05-.02.11-.04.16-.02.09-.04.18-.06.27-.21.95.34,2.02,1.41,2.01.54,0,1.07-.33,1.34-.79.18-.31.26-.74.28-1.09.03-.59-.15-1.15-.42-1.67-.62-1.19-2.52-.62-2.5.68h0Z"/>
          <path class="cls-1" d="M36.58,85.58c.57.37,1.24.96,1.96.91.98-.07,1.51-1,1.08-1.88-.31-.63-1.15-.93-1.75-1.23s-1.41-.17-1.74.46-.14,1.35.46,1.74h0Z"/>
        </g>
      </g>
    </g>
  </g>
</svg>